<svg width="150" height="110" viewBox="0 0 150 110" fill="none" xmlns="http://www.w3.org/2000/svg">
<path d="M85.4993 35.9766C76.7648 37.8511 59.2957 41.5762 59.2957 41.4805C52.308 51.9141 58.7772 60.2658 62.8852 63.1374H93.2766L126.061 61.4623L136.112 53.0867L134.317 44.4718L119.241 38.7285L85.4993 35.9766Z" fill="#D9D9D9"/>
<path d="M141.621 109.352C138.56 109.446 135.499 109.62 132.437 109.622C100.768 109.642 69.0978 109.635 37.4283 109.631C36.7163 109.631 36.0049 109.585 35.293 109.56C35.4066 104.147 38.346 100.016 41.2025 96.0265C44.7615 96.5351 48.0504 97.2834 51.3648 97.4253C59.8691 97.7878 68.3787 97.7012 76.8649 96.843C81.3331 96.3908 85.8059 95.9701 90.284 95.6317C94.602 95.3053 98.931 95.1205 103.253 94.8348C104.232 94.77 105.207 94.5804 106.172 94.3909C111.105 93.4217 115.676 91.4597 120.2 89.3419C122.028 88.4868 123.929 87.7572 125.854 87.1525C127.334 86.6878 127.908 86.9127 128.407 88.3162C128.827 89.4945 129.308 90.7461 130.1 91.6803C132.707 94.759 135.033 98.0561 137.603 101.165C139.551 103.521 141.018 106.262 141.621 109.352Z" fill="#0844F3"/>
<path d="M31.4851 47.509C32.5011 48.6444 33.5833 48.9407 34.8499 48.7002C35.294 47.8519 34.8655 47.3273 34.2744 47.0119C33.3818 46.5355 32.5028 46.7417 31.4851 47.509ZM130.951 68.4982C131.229 68.1605 131.549 67.849 131.777 67.4814C132.76 65.8965 131.903 64.1955 130.129 63.8653C127.035 63.2893 124.032 63.7205 121.034 64.4152C114.995 65.8144 108.89 66.5945 102.681 66.6101C99.7246 66.617 96.7676 66.786 93.8153 66.9585C92.3498 67.0442 90.8896 67.2675 89.437 67.491C86.5797 67.9306 83.7416 68.5149 80.8733 68.8507C77.8887 69.2005 74.8783 69.3252 71.8796 69.5552C71.6642 69.5719 71.4548 69.6569 71.2397 69.6899C69.7488 69.9192 68.6004 70.6653 68.3729 72.1954C68.1678 73.5712 69.019 74.6499 70.1167 75.3355C73.3664 77.3655 76.9401 78.6116 80.7671 78.7174C87.2318 78.8956 93.6906 78.6049 100.15 78.2057C104.319 77.9485 108.43 77.5017 112.428 76.3215C114.613 75.6761 116.799 75.326 119.06 75.4985C121.073 75.6526 123.08 75.8788 125.091 76.0609C126.553 76.193 128.016 76.3054 129.436 76.4234C130.344 75.4447 130.526 74.3302 130.715 73.1892C131.066 71.0714 130.801 70.6323 128.658 70.1424C128.461 69.4958 129.076 69.2644 129.323 68.8449C129.526 68.8478 129.729 68.8504 129.932 68.8533C130.272 68.7349 130.612 68.6164 130.951 68.4982ZM128.652 84.0359L128.657 84.0275C128.78 83.4725 128.903 82.9178 129.027 82.3627C129.067 82.3 129.067 82.2368 129.027 82.1736C129.75 81.2006 129.855 80.1776 129.278 79.0993C128.93 78.2785 128.321 77.8899 127.43 77.6934C123.443 76.8142 119.408 76.6694 115.352 76.7795C114.98 76.7898 114.607 76.9322 114.244 77.043C110.741 78.1134 107.243 79.0914 103.516 79.1481C100.02 79.2017 96.5302 79.5552 93.0371 79.7739C92.7635 79.7911 92.4876 79.7748 92.2139 79.795C88.0055 80.0993 83.795 80.309 79.595 79.7267C76.7736 79.3355 73.9855 78.7291 71.4326 77.4383C70.2354 76.8329 69.0453 76.0365 68.1455 75.0577C66.1416 72.8781 66.7255 70.2992 69.3801 68.9988C70.7676 68.3187 72.2445 67.9736 73.8038 67.9162C76.1555 67.8305 78.5066 67.7059 80.8532 67.5285C82.1009 67.434 83.3403 67.2115 84.5789 67.0162C87.4864 66.5577 90.376 65.8697 93.3008 65.6577C98.5958 65.2731 103.918 65.2681 109.216 64.9079C112.144 64.7088 115.055 64.168 117.957 63.6786C121.399 63.0976 124.788 62.1658 128.325 62.2622C128.69 62.2722 129.06 62.1497 129.263 62.116C129.812 61.11 130.158 60.1537 130.773 59.4243C131.724 58.296 132.762 57.194 133.936 56.3117C136.264 54.5641 137.482 52.4388 137.25 49.4423C137.015 46.3895 135.783 43.974 133.216 42.3288C132.36 41.78 131.332 41.4749 130.353 41.1471C128.635 40.5711 126.928 39.9872 125.481 38.8507C124.408 38.0082 123.36 37.1333 122.275 36.3074C121.596 35.7913 120.98 35.041 119.968 35.317C116.236 36.3347 112.475 37.2632 108.792 38.4336C106.563 39.1417 104.458 40.2394 102.291 41.1483C101.67 41.4094 101.042 41.8334 100.288 41.3074C100.496 40.4368 101.221 40.1985 101.841 39.935C104.306 38.8878 106.746 37.7526 109.284 36.9165C112.074 35.9975 114.962 35.3789 117.802 34.6089C118.161 34.5117 118.485 34.2906 118.826 34.1269C118.806 33.9903 118.786 33.8529 118.766 33.7158C118.103 33.5787 117.439 33.4413 116.775 33.3042C114.914 33.3147 113.053 33.3248 111.191 33.3351C110.96 33.3482 110.728 33.3607 110.496 33.3731C110.359 33.4411 110.223 33.5088 110.087 33.576C109.867 33.5686 109.646 33.5397 109.429 33.5564C104.932 33.9041 100.596 34.9544 96.3806 36.5396C95.656 36.8119 94.9039 37.011 94.1364 37.2529C93.9177 36.2072 94.61 36.0813 95.053 35.9159C96.9389 35.2129 98.8371 34.5335 100.76 33.9407C105.286 32.5458 109.941 32.0005 114.665 31.9591C115.521 31.9514 116.373 31.9323 117.154 31.3429C114.307 27.5339 110.456 25.8717 105.919 25.7425C102.314 25.6396 98.8684 26.4147 95.6431 28.1211C92.7913 29.6304 89.907 31.0827 87.0011 32.4872C84.9352 33.4858 82.7444 33.9091 80.4634 33.326C78.6155 32.8529 76.7786 32.3329 74.9429 31.8126C71.5178 30.8408 68.0974 30.0959 64.4694 30.5718C61.3168 30.9856 58.3693 31.905 55.6958 33.5619C53.7029 34.7962 51.8014 36.2005 49.9686 37.6652C47.4956 39.6409 44.9997 41.6176 42.7526 43.8354C40.6963 45.8654 38.9492 48.2091 37.0907 50.4356C36.8639 50.7075 36.7205 51.0966 36.659 51.4519C36.0088 55.2095 35.3505 58.9663 34.7611 62.7336C34.3488 65.3736 34.0289 68.028 33.6888 70.6787C33.5347 71.8805 33.9422 72.6422 35.1222 73.2933C37.5574 74.6373 39.8978 76.1745 42.1687 77.785C43.3578 78.6283 44.333 79.7648 44.5869 81.3459C45.1988 85.1498 45.0365 88.8549 43.3219 92.3871C42.9903 93.0695 42.6414 93.7439 42.2415 94.5391C43.2643 94.7248 44.1652 94.9378 45.0782 95.0452C48.6031 95.4597 52.128 96.1235 55.6597 96.1666C60.6917 96.2276 65.7295 95.8254 70.7649 95.6179C73.7763 95.4937 76.787 95.3635 79.7984 95.2343C80.1815 95.218 80.5672 95.2135 80.947 95.1654C84.085 94.7679 87.2124 94.2472 90.3617 93.9899C93.5822 93.7267 96.826 93.7712 100.054 93.5807C101.903 93.4716 103.753 93.2411 105.581 92.9312C110.572 92.0851 115.193 90.1256 119.781 88.0854C120.032 87.9578 120.282 87.8303 120.532 87.7027L120.63 87.7163L120.721 87.6809C120.976 87.5754 121.232 87.4696 121.488 87.3641C121.692 87.2897 121.895 87.2152 122.099 87.1408C122.749 86.8831 123.4 86.6258 124.05 86.3684L124.06 86.3652C124.932 86.4368 125.748 86.3018 126.443 85.7187C126.524 85.727 126.599 85.7091 126.668 85.665C126.812 85.571 126.957 85.477 127.102 85.3827C127.52 85.0749 127.939 84.7674 128.358 84.4599C128.456 84.3187 128.554 84.1773 128.652 84.0359ZM141.619 109.353C141.017 106.264 139.549 103.522 137.602 101.166C135.031 98.0573 132.706 94.7605 130.098 91.6818C129.307 90.7478 128.825 89.4963 128.406 88.3175C127.906 86.9142 127.332 86.689 125.852 87.1542C123.927 87.7587 122.026 88.4881 120.198 89.3436C115.674 91.4614 111.103 93.4235 106.17 94.3922C105.205 94.5822 104.23 94.7717 103.251 94.8361C98.9297 95.1218 94.6007 95.307 90.2822 95.633C85.8042 95.9713 81.3313 96.3925 76.8631 96.8443C68.3769 97.7029 59.8673 97.7896 51.363 97.4265C48.0486 97.2851 44.7597 96.5368 41.2008 96.0278C38.3442 100.018 35.4048 104.148 35.2912 109.562C34.6515 109.581 34.0121 109.601 33.3724 109.621V107.515C33.5519 106.829 33.7314 106.142 33.9109 105.456C35.6212 101.545 37.6323 97.7984 39.8777 94.166C40.9593 92.4158 42.2984 90.8038 42.7739 88.6961C43.2011 86.8032 43.2906 84.9127 43.2755 82.9911C43.2571 80.6351 41.8172 79.1828 40.127 77.8882C39.9128 77.7247 39.5106 77.8071 39.06 77.7616C38.8948 78.3115 38.706 78.8107 38.5974 79.3264C38.2719 80.8723 37.9594 82.4218 37.6797 83.976C37.5607 84.6353 37.2731 85.084 36.3628 85.3047C36.2297 84.8143 35.9488 84.3228 35.9969 83.8657C36.2082 81.8628 36.4489 79.8577 36.8203 77.8796C36.9606 77.1349 36.8237 76.572 36.4023 76.0566C35.6288 75.112 34.6833 74.5277 33.148 74.9862C32.5945 76.4837 31.9922 78.1079 31.3939 79.7334C30.9988 80.8089 30.6336 81.8963 30.2081 82.9592C29.9246 83.6678 29.451 84.151 28.3732 83.8523C28.4488 83.2282 28.4414 82.5828 28.6137 81.9896C29.3912 79.3187 30.3603 76.6957 30.9911 73.9933C31.6461 71.1848 31.9603 68.2986 32.4808 65.4571C33.2863 61.0619 34.1485 56.6764 34.9619 52.2823C35.049 51.8121 34.9736 51.3124 34.9736 50.6326C34.2567 50.4083 33.5565 50.1458 32.835 49.973C31.4166 49.6342 31.0605 49.7893 30.5475 51.0822C29.781 53.012 29.021 54.9472 28.361 56.9145C27.0075 60.9494 25.7358 65.0118 24.4039 69.0536C23.3282 72.3196 22.2025 75.5689 21.1249 78.8344C20.9287 79.4283 20.7172 79.8548 19.7681 79.5188C19.832 78.6681 19.7777 77.7326 19.9957 76.8659C20.4073 75.2283 20.961 73.625 21.4832 72.0164C22.0967 70.1252 21.9106 69.8462 19.8684 69.8091C18.77 69.7885 17.6694 69.8476 16.5724 69.8053C12.9764 69.6672 11.0187 71.8381 10.2491 74.8612C9.57427 77.5118 9.23686 80.1888 9.54005 82.943C9.86503 85.8981 11.0568 88.3002 13.6649 89.838C15.0112 90.6318 16.5339 91.1247 17.7055 92.2227C17.8573 92.3653 18.0882 92.4521 18.2973 92.5C19.9442 92.8771 21.5923 93.2488 23.2444 93.6022C25.323 94.0469 27.4109 94.4496 29.4838 94.9218C30.0907 95.0598 30.7897 95.2053 30.9486 95.9804C30.4872 96.7917 29.7563 96.5703 29.1523 96.4741C26.9455 96.1214 24.7611 95.6028 22.5459 95.3367C21.4415 95.2041 20.3166 94.5939 19.1691 95.1888C18.9683 95.3147 18.7676 95.441 18.5668 95.5672C18.5735 96.5564 18.5802 97.5462 18.5869 98.5355C18.5893 99.0825 18.5919 99.6298 18.5943 100.177C18.5972 101.167 18.5998 102.158 18.6027 103.149C18.6015 103.477 18.6005 103.804 18.5993 104.132C18.5505 105.554 18.5015 106.976 18.4529 108.398C18.0389 108.636 18.3002 109.639 17.288 109.27C17.1748 109.021 16.9242 108.696 16.8823 108.345C16.5535 105.586 16.4293 102.83 16.6787 100.044C16.8225 98.4388 16.6016 96.7996 16.5179 95.1771C16.4899 94.6331 16.2101 94.2527 15.6116 94.2041C15.3594 94.0083 15.133 93.7568 14.8511 93.6243C8.77596 90.7708 6.50091 85.2898 7.08983 79.1694C7.27769 77.2196 7.70915 75.2645 8.2873 73.3912C8.66301 72.1736 9.37565 70.9975 10.1721 69.9869C11.141 68.7576 12.6362 68.414 14.1646 68.3589C16.3585 68.2802 18.5522 68.1936 20.7468 68.1601C21.9632 68.1419 22.9324 67.7343 23.3787 66.5694C24.2794 64.2195 25.0945 61.8365 25.9768 59.4791C27.493 55.4265 29.0119 51.3751 30.5772 47.3414C31.0464 46.1318 32.0575 45.6821 33.3854 45.9006C34.6625 46.1109 35.6939 46.7939 36.7627 48.1823C37.0395 47.838 37.3066 47.5176 37.5612 47.188C41.9787 41.4788 47.5303 37.0186 53.3968 32.9211C55.4706 31.4726 57.7299 30.3239 60.1885 29.6613C64.0819 28.6119 68.0228 28.6545 71.9483 29.432C74.2049 29.8788 76.491 30.3179 78.6497 31.0818C81.6623 32.1476 84.4865 31.8748 87.2577 30.5058C89.912 29.1944 92.4989 27.7464 95.1511 26.4309C100.057 23.9982 105.221 23.3016 110.513 24.7503C114.216 25.7633 117.242 27.8514 119.195 31.3283C119.683 32.1969 120.548 32.8864 121.331 33.5509C122.243 34.326 123.339 34.8948 124.207 35.7111C125.802 37.2115 127.614 38.2755 129.688 38.9347C132.616 39.8647 135.291 41.1906 137.183 43.7385C137.277 43.8656 137.466 43.9333 137.534 44.0675C139.21 47.3929 139.833 50.7965 138.186 54.3245C137.987 54.7507 137.593 55.097 137.252 55.4442C135.639 57.0878 133.993 58.698 132.407 60.3669C131.992 60.8041 131.754 61.4098 131.426 61.9545C131.805 62.2907 132.006 62.469 132.207 62.6472C134.044 64.2726 134.439 66.3631 133.143 68.3927C132.488 69.4176 132.222 70.3717 132.385 71.6137C132.623 73.4343 132.197 75.2037 131.304 76.8506C131.063 77.2952 130.848 77.8925 130.941 78.3555C131.417 80.7273 130.952 82.9576 129.957 85.0723C129.483 86.0793 129.523 86.8915 129.986 87.859C131.28 90.5638 133.215 92.8137 135.006 95.169C137.294 98.1758 139.811 101.025 141.539 104.42C142.329 105.971 143.006 107.58 143.822 109.353H141.619Z" fill="#090D0A"/>
<path d="M18.4545 108.399C18.5034 106.978 18.5524 105.555 18.6012 104.134C18.7812 103.945 18.9607 103.756 19.1404 103.567C18.9619 103.429 18.7831 103.29 18.6041 103.151C18.6017 102.16 18.5988 101.169 18.5962 100.178C19.4031 99.6318 19.4005 99.0709 18.5888 98.537C18.5821 97.5477 18.5754 96.5584 18.5682 95.5689C18.769 95.443 18.9702 95.3167 19.171 95.1903C20.3182 94.5959 21.4432 95.2059 22.5473 95.3385C24.763 95.6048 26.9469 96.1236 29.1542 96.4756C29.7578 96.5723 30.4891 96.7932 30.9504 95.9822C30.7911 95.2071 30.0925 95.0618 29.4852 94.9235C27.4128 94.4516 25.3249 94.0489 23.2463 93.6038C21.5942 93.2503 19.9456 92.8789 18.2988 92.502C18.0896 92.4539 17.8592 92.3668 17.707 92.2247C16.5353 91.1263 15.0131 90.6335 13.6668 89.8395C11.0586 88.302 9.86692 85.9001 9.54147 82.9445C9.23875 80.1908 9.57593 77.5138 10.251 74.8628C11.0201 71.8397 12.9781 69.6692 16.5739 69.8073C17.6711 69.8491 18.7719 69.7905 19.8702 69.8106C21.912 69.8479 22.0986 70.127 21.4848 72.0179C20.9629 73.6268 20.4092 75.2301 19.9971 76.8676C19.7791 77.7344 19.8339 78.6696 19.7695 79.5208C20.7191 79.8563 20.9304 79.4301 21.1263 78.8362C22.2039 75.5709 23.3296 72.3211 24.4058 69.0551C25.7377 65.0133 27.0089 60.9514 28.3629 56.9165C29.0229 54.949 29.7829 53.0135 30.5491 51.084C31.0624 49.791 31.418 49.6357 32.8369 49.9751C33.5584 50.1474 34.2586 50.4101 34.975 50.6343C34.975 51.314 35.0509 51.8143 34.9633 52.2843C34.1499 56.6784 33.2877 61.0634 32.4825 65.4589C31.9617 68.3006 31.648 71.1868 30.9926 73.9948C30.3618 76.6977 29.3926 79.3207 28.6156 81.9911C28.4428 82.5844 28.4502 83.2302 28.3746 83.8538C29.4529 84.153 29.926 83.6698 30.2096 82.9613C30.6353 81.898 31.0002 80.8104 31.3958 79.7355C31.994 78.1094 32.5964 76.4852 33.1496 74.9882C34.6848 74.5299 35.6302 75.1138 36.4037 76.0583C36.8256 76.574 36.962 77.1369 36.8222 77.8816C36.4503 79.8592 36.2098 81.8645 35.9988 83.8677C35.9507 84.3243 36.2314 84.8163 36.3647 85.3062C37.2745 85.086 37.5621 84.6368 37.6811 83.9781C37.9613 82.4233 38.2733 80.8743 38.5993 79.3284C38.7074 78.8127 38.8963 78.3135 39.0614 77.7636C39.5122 77.8088 39.9147 77.7263 40.1284 77.8904C41.8189 79.1846 43.259 80.6369 43.2774 82.9931C43.292 84.9147 43.2025 86.8049 42.7758 88.6976C42.3001 90.8058 40.961 92.4178 39.8791 94.1676C37.6337 97.7999 35.6231 101.547 33.9128 105.458C33.7232 105.661 33.4078 105.844 33.3703 106.072C33.2927 106.541 33.3638 107.034 33.3743 107.517C33.3739 108.219 33.3739 108.921 33.3739 109.623C28.5273 109.62 23.6802 109.617 18.8334 109.614C18.707 109.209 18.5806 108.804 18.4545 108.399Z" fill="#539836"/>
<path d="M18.4513 108.396C18.5774 108.801 18.7037 109.206 18.8301 109.611H15.744C15.6775 109.509 15.5703 109.421 15.5703 109.334C15.578 104.29 15.5942 99.2464 15.6098 94.2031C16.2088 94.2512 16.4885 94.632 16.5165 95.1761C16.5998 96.7981 16.8207 98.4373 16.6771 100.042C16.4275 102.829 16.5522 105.585 16.881 108.344C16.9229 108.694 17.1734 109.02 17.2861 109.269C18.2986 109.638 18.037 108.635 18.4513 108.396Z" fill="#599042"/>
<path d="M58.6205 54.6105C57.6054 53.2087 56.2251 53.3936 54.8909 53.4255C54.3958 53.4372 53.8885 53.4953 53.8416 54.2657C55.4511 54.382 57.0361 54.4963 58.6205 54.6105ZM61.6816 77.6733C61.8338 79.3786 62.7405 80.4511 63.8148 81.3057C65.0177 82.2626 66.0831 83.5656 67.9447 83.4419C65.9214 81.5782 63.8985 79.7153 61.6816 77.6733ZM59.9749 42.8449C60.3109 42.7337 60.6667 42.6612 60.98 42.5039C63.2718 41.3524 65.6 40.3107 68.1471 39.8331C68.5582 39.7563 68.9852 39.5361 69.3006 39.2621C69.503 39.0864 69.5145 38.6911 69.6454 38.2896C65.5088 38.9465 60.9199 40.9978 59.9749 42.8449ZM58.0662 37.7952C58.1215 37.9622 58.1766 38.1295 58.2318 38.2963C58.8212 38.1103 59.4279 37.9656 59.9967 37.7308C63.6073 36.2397 67.3206 35.2667 71.2628 35.2353C74.9534 35.2062 78.529 35.943 82.1049 36.7013C82.6742 36.8219 83.2062 37.0301 83.9006 36.6156C82.7111 35.4301 81.2114 35.3572 79.9148 35.0867C74.699 33.9996 69.4133 33.5688 64.2218 35.109C62.0961 35.7398 59.8211 36.2648 58.0662 37.7952ZM60.566 49.5303C60.9329 50.0109 61.1056 50.2904 61.3284 50.5213C63.9299 53.217 66.7984 55.5787 70.1096 57.3586C72.2856 58.5281 74.5439 59.6562 77.0645 59.5684C79.5647 59.4815 82.0685 59.1405 84.5415 58.7339C86.6873 58.3814 88.8126 57.853 90.9098 57.2687C92.7479 56.7568 94.6037 56.2071 96.3183 55.393C97.5155 54.8247 98.4881 54.7737 99.7207 55.1922C104.178 56.7061 108.726 57.8497 113.469 58.0208C115.837 58.106 118.172 57.8918 120.471 57.3285C124.444 56.355 128.432 55.4373 132.371 54.3422C133.483 54.0333 134.493 53.2534 135.459 52.5647C136.046 52.1459 136.339 51.4381 136.139 50.6577C135.223 47.0825 133.8 44.0084 129.82 42.7775C125.802 41.5348 121.898 39.8745 117.561 40.2222C116.747 40.2877 115.933 40.4 115.128 40.5388C110.765 41.2914 106.651 42.6588 103.131 45.4619C102.158 46.2363 101.199 47.027 100.177 47.8559C99.9186 47.513 99.6855 47.2792 99.5412 47.0002C98.6027 45.1801 97.0491 44.152 95.1673 43.509C92.6369 42.6442 90.1175 41.7463 87.5907 40.8721C83.5166 39.4626 79.4353 39.589 75.3458 40.8154C70.4435 42.2857 66.2392 45.0551 62.1002 47.9349C61.5404 48.3245 61.1327 48.9304 60.566 49.5303ZM110.495 33.3743C110.726 33.3618 110.958 33.3492 111.19 33.3362C113.011 33.8445 114.846 33.6646 116.679 33.4322C116.716 33.4274 116.743 33.3492 116.774 33.3054C117.437 33.4425 118.101 33.5799 118.765 33.717C118.785 33.8541 118.804 33.9915 118.824 34.1281C118.484 34.292 118.159 34.5129 117.801 34.6101C114.961 35.3801 112.072 35.9987 109.282 36.9176C106.745 37.7538 104.304 38.889 101.84 39.936C101.22 40.1997 100.495 40.438 100.286 41.3084C101.041 41.8346 101.669 41.4106 102.29 41.1495C104.456 40.2406 106.561 39.1429 108.791 38.4348C112.474 37.2644 116.235 36.3359 119.966 35.3181C120.978 35.042 121.594 35.7924 122.273 36.3086C123.359 37.1345 124.406 38.0093 125.479 38.8519C126.927 39.9884 128.633 40.5723 130.351 41.1483C131.33 41.4761 132.358 41.7812 133.214 42.33C135.781 43.9752 137.013 46.3907 137.249 49.4437C137.48 52.44 136.262 54.5653 133.935 56.3129C132.76 57.195 131.722 58.2972 130.771 59.4253C130.157 60.1549 129.811 61.1111 129.262 62.1169C129.059 62.1509 128.689 62.2734 128.323 62.2634C124.787 62.1667 121.398 63.0988 117.955 63.6798C115.054 64.1692 112.143 64.71 109.214 64.9091C103.916 65.2693 98.5943 65.2743 93.299 65.6586C90.3745 65.8709 87.4854 66.5589 84.5774 67.0174C83.3392 67.2127 82.0994 67.4352 80.8517 67.5297C78.5051 67.7071 76.1539 67.8317 73.8023 67.9174C72.2428 67.9748 70.7658 68.3204 69.3786 69C66.724 70.3004 66.1401 72.8796 68.144 75.0589C69.0438 76.0377 70.2338 76.834 71.4311 77.4395C73.9842 78.7303 76.7721 79.3367 79.5934 79.7279C83.7934 80.3102 88.004 80.1005 92.2123 79.7959C92.4859 79.776 92.762 79.7923 93.0355 79.7751C96.5287 79.5564 100.019 79.2029 103.515 79.1493C107.242 79.0924 110.74 78.1146 114.243 77.0442C114.606 76.9331 114.979 76.791 115.35 76.7809C119.406 76.6706 123.441 76.8154 127.429 77.6946C128.319 77.8911 128.928 78.2797 129.277 79.1005C129.193 80.1252 129.11 81.1501 129.026 82.1748C129.066 82.238 129.065 82.3012 129.025 82.3639C128.902 82.919 128.778 83.4735 128.655 84.0287L128.65 84.0371C128.552 84.1785 128.454 84.3197 128.356 84.4611C127.938 84.7686 127.519 85.0766 127.1 85.3839C126.956 85.4781 126.811 85.5722 126.666 85.6662C126.597 85.7103 126.522 85.7282 126.441 85.7198C125.558 85.6102 124.731 85.7043 124.058 86.3664L124.048 86.3693C123.278 86.3255 122.482 86.2138 122.097 87.142C121.894 87.2164 121.69 87.2909 121.487 87.3653C121.231 87.4713 120.975 87.5766 120.719 87.6824L120.628 87.7175L120.531 87.7037C120.281 87.8312 120.03 87.959 119.78 88.0865C115.191 90.1268 110.57 92.0862 105.579 92.9324C103.752 93.2423 101.902 93.4728 100.052 93.5819C96.8244 93.7724 93.5807 93.7279 90.3601 93.9911C87.2109 94.2483 84.0835 94.7691 80.9453 95.1663C80.5655 95.2147 80.18 95.2192 79.7968 95.2355C76.7859 95.3647 73.7746 95.4949 70.7634 95.6191C65.728 95.8266 60.6902 96.2288 55.6581 96.1678C52.1265 96.1247 48.6016 95.4609 45.0771 95.0464C44.1637 94.939 43.2625 94.726 42.24 94.5403C42.6398 93.7451 42.9887 93.0707 43.3204 92.3882C45.0348 88.8561 45.1973 85.151 44.5851 81.3471C44.3312 79.766 43.3563 78.6293 42.1672 77.7862C39.8962 76.1757 37.5559 74.6385 35.1207 73.2945C33.9407 72.6434 33.5332 71.8817 33.6875 70.6799C34.0273 68.0292 34.3473 65.3746 34.7596 62.7348C35.349 58.9672 36.0073 55.2107 36.6575 51.4531C36.719 51.0978 36.8624 50.7087 37.089 50.4368C38.9476 48.2101 40.6953 45.8666 42.7511 43.8366C44.9982 41.6187 47.4943 39.6421 49.967 37.6664C51.7999 36.2017 53.7014 34.7979 55.694 33.5631C58.3678 31.9062 61.315 30.9868 64.4678 30.573C68.0959 30.097 71.5163 30.842 74.9412 31.8138C76.7771 32.334 78.6137 32.854 80.4619 33.3271C82.7427 33.9101 84.9337 33.4868 87.0001 32.4884C89.9055 31.0839 92.7895 29.6316 95.6416 28.1223C98.8669 26.4156 102.312 25.6405 105.917 25.7434C110.455 25.8729 114.306 27.5351 117.153 31.344C116.371 31.9337 115.519 31.9526 114.663 31.96C109.94 32.0017 105.284 32.547 100.758 33.9419C98.8355 34.5347 96.9374 35.214 95.0514 35.9171C94.6082 36.0822 93.9162 36.2084 94.1349 37.2539C94.9023 37.0122 95.6545 36.8131 96.3788 36.5407C100.594 34.9556 104.93 33.9051 109.427 33.5576C109.645 33.5408 109.865 33.5698 110.085 33.5772C110.221 33.51 110.358 33.442 110.495 33.3743Z" fill="#539836"/>
<path d="M128.66 70.1428C130.802 70.6326 131.068 71.0718 130.717 73.1896C130.528 74.3308 130.345 75.445 129.437 76.4238C128.018 76.3058 126.554 76.1933 125.093 76.0612C123.082 75.8789 121.074 75.653 119.062 75.4991C116.801 75.3263 114.615 75.6764 112.43 76.3218C108.432 77.5023 104.321 77.9488 100.152 78.2061C93.692 78.6052 87.2332 78.896 80.7686 78.7172C76.9422 78.6119 73.3682 77.3659 70.1185 75.3359C69.021 74.6503 68.1698 73.571 68.3742 72.1958C68.6023 70.6657 69.7509 69.9195 71.2413 69.6903C71.4567 69.6572 71.6663 69.5723 71.8817 69.5555C74.8799 69.3256 77.8908 69.2009 80.8749 68.8513C83.7429 68.5153 86.5816 67.9309 89.4386 67.4913C90.8916 67.268 92.3519 67.0445 93.8166 66.9589C96.7689 66.7866 99.7267 66.6174 102.682 66.6104C108.892 66.5949 114.997 65.8148 121.036 64.4153C124.033 63.7209 127.037 63.2896 130.131 63.8656C131.905 64.1961 132.762 65.8968 131.778 67.4817C131.55 67.8493 131.23 68.1609 130.953 68.4985C130.613 68.617 130.274 68.7352 129.934 68.8537C129.731 68.8508 129.528 68.8482 129.325 68.8453C127.385 68.6474 125.448 68.3279 123.504 68.2769C119.443 68.1709 115.379 68.1989 111.316 68.192C110.662 68.191 109.985 68.2037 109.359 68.365C104.868 69.522 100.378 70.6846 95.906 71.9134C91.8345 73.0324 87.7369 73.9032 83.4828 73.8338C81.5069 73.8015 79.53 73.8266 77.5536 73.8405C77.1324 73.8434 76.712 73.9108 75.9754 73.9764C76.2566 74.5022 76.3535 74.9899 76.6196 75.1129C77.0932 75.3321 77.6711 75.418 78.2019 75.4053C79.9505 75.3656 81.7015 75.1423 83.4448 75.1961C88.267 75.3455 92.8977 74.3227 97.4875 73.0465C100.273 72.2719 102.993 71.2551 105.796 70.5539C111.826 69.0456 117.959 69.3648 124.085 69.7903C125.611 69.8961 127.135 70.0243 128.66 70.1428Z" fill="#AD522A"/>
<path d="M128.657 70.1422C127.132 70.0238 125.608 69.8955 124.082 69.7898C117.957 69.3643 111.823 69.045 105.793 70.5534C102.991 71.2545 100.27 72.2713 97.4848 73.0459C92.8949 74.3222 88.2642 75.3449 83.442 75.1956C81.6987 75.1418 79.9477 75.365 78.1991 75.4048C77.6684 75.4174 77.0904 75.3315 76.6169 75.1123C76.3508 74.9893 76.2538 74.5016 75.9727 73.9759C76.7092 73.9103 77.1297 73.8428 77.5509 73.84C79.5273 73.8261 81.5041 73.8009 83.4801 73.8333C87.7341 73.9026 91.8317 73.0318 95.9032 71.9128C100.375 70.684 104.865 69.5215 109.356 68.3645C109.982 68.2032 110.66 68.1905 111.313 68.1915C115.376 68.1984 119.44 68.1704 123.501 68.2764C125.445 68.3274 127.382 68.6468 129.322 68.8448C129.075 69.2642 128.46 69.4957 128.657 70.1422Z" fill="#140805"/>
<path d="M31.4844 47.5096C32.5021 46.7424 33.3811 46.5362 34.2737 47.0126C34.8648 47.328 35.2934 47.8526 34.8492 48.7009C33.5826 48.9414 32.5005 48.6451 31.4844 47.5096Z" fill="#599042"/>
<path d="M116.775 33.3047C116.744 33.3485 116.717 33.4267 116.681 33.4313C114.847 33.6644 113.012 33.8441 111.191 33.3356C113.053 33.3255 114.914 33.315 116.775 33.3047Z" fill="#599042"/>
<path d="M129.027 82.1722C129.111 81.1473 129.195 80.1226 129.278 79.0977C129.854 80.1762 129.75 81.1992 129.027 82.1722Z" fill="#599042"/>
<path d="M18.5859 98.5352C19.3979 99.0688 19.4003 99.6295 18.5936 100.177C18.591 99.6295 18.5886 99.0822 18.5859 98.5352Z" fill="#599042"/>
<path d="M124.059 86.3652C124.731 85.703 125.559 85.609 126.441 85.7186C125.747 86.3015 124.931 86.437 124.059 86.3652Z" fill="#599042"/>
<path d="M122.098 87.1408C122.482 86.2127 123.279 86.3243 124.049 86.3688C123.398 86.626 122.748 86.8835 122.098 87.1408Z" fill="#599042"/>
<path d="M33.3718 107.517C33.3617 107.034 33.2902 106.54 33.3677 106.072C33.4057 105.844 33.7207 105.661 33.9102 105.457C33.7307 106.144 33.5512 106.83 33.3718 107.517Z" fill="#599042"/>
<path d="M18.6005 103.148C18.7793 103.287 18.9583 103.426 19.1368 103.565C18.9571 103.754 18.7771 103.943 18.5977 104.131C18.5986 103.804 18.5998 103.476 18.6005 103.148Z" fill="#599042"/>
<path d="M113.828 42.2202C113.053 42.4265 112.279 42.6325 111.503 42.8388C107.263 43.9702 103.625 46.0622 100.918 49.58C100.088 50.6587 99.4165 51.8454 99.3923 53.2386C101.461 54.848 109.465 56.5516 113.832 56.3479C114.378 56.8148 114.73 56.4599 115.069 56.0538C115.671 56.0572 116.274 56.06 116.877 56.0634L118.492 56.2065C122.869 55.239 127.25 54.2873 131.618 53.286C132.3 53.13 132.952 52.7895 133.577 52.4583C134.846 51.7863 135.056 51.3338 134.735 49.9322C134.085 47.0931 132.287 45.2088 129.649 44.1279C127.982 43.4445 126.282 42.8108 124.549 42.3221C121.899 41.5748 119.202 41.1151 116.453 41.8725C115.578 41.9885 114.703 42.1044 113.828 42.2202ZM75.8224 42.1247C75.3402 42.2494 74.858 42.3745 74.3756 42.4992C74.367 42.576 74.3256 42.6263 74.2514 42.6493C74.1318 42.8316 74.0126 43.0137 73.8934 43.1961L73.9274 43.1671C73.2234 42.6074 72.649 43.1884 72.152 43.482C69.1851 45.2356 66.2553 47.0517 63.3225 48.8613C63.0602 49.0229 62.8606 49.2854 62.5167 49.6101C62.9594 50.1153 63.2861 50.6324 63.7412 50.9832C65.7744 52.5523 67.7809 54.1698 69.9193 55.5857C72.186 57.0862 74.7015 58.013 77.4952 57.9199C77.9412 57.9194 78.3875 57.9189 78.8333 57.9184C79.9413 57.8153 81.0495 57.7115 82.157 57.6081C82.3207 57.6129 82.493 57.6543 82.6469 57.6169C86.3685 56.7248 90.0932 55.8456 93.8032 54.9061C94.4794 54.735 95.1275 54.3694 95.7276 53.9963C97.7493 52.7402 98.4662 50.8471 98.3595 48.5337C98.2642 46.4628 96.8294 45.6434 95.1897 45.0018C93.5086 44.3442 91.8258 43.685 90.1193 43.0987C86.368 41.8093 82.5808 40.7198 78.5423 41.5602C77.6359 41.7483 76.7294 41.9366 75.8224 42.1247ZM60.5664 49.5307C61.1331 48.9312 61.5408 48.3246 62.1006 47.9357C66.24 45.0557 70.4439 42.2862 75.3462 40.816C79.4357 39.5895 83.517 39.4627 87.5911 40.8724C90.1179 41.7471 92.6373 42.6442 95.1677 43.5093C97.0495 44.1526 98.6029 45.1808 99.5416 47.0003C99.6859 47.2798 99.9188 47.5136 100.177 47.8565C101.199 47.0275 102.159 46.2369 103.131 45.4627C106.652 42.6593 110.765 41.2915 115.128 40.5396C115.934 40.4005 116.748 40.2881 117.562 40.2227C121.899 39.8748 125.802 41.5351 129.821 42.7782C133.8 44.0092 135.224 47.0833 136.14 50.6582C136.34 51.4389 136.047 52.1465 135.46 52.5648C134.493 53.2542 133.484 54.0334 132.372 54.3426C128.433 55.4376 124.444 56.3553 120.472 57.3288C118.172 57.8921 115.838 58.1068 113.47 58.0214C108.726 57.8503 104.179 56.7069 99.7211 55.1926C98.4882 54.7738 97.5157 54.8252 96.3187 55.3938C94.6041 56.2077 92.7481 56.7574 90.9102 57.2695C88.8132 57.8536 86.6875 58.382 84.5417 58.7347C82.0689 59.1413 79.5654 59.4821 77.0654 59.5692C74.5443 59.657 72.286 58.5284 70.11 57.359C66.7988 55.5795 63.9303 53.2178 61.3288 50.5218C61.1058 50.2912 60.9333 50.0117 60.5664 49.5307Z" fill="#0E120D"/>
<path d="M58.0664 37.794C59.821 36.2634 62.096 35.7384 64.2222 35.1076C69.4132 33.5675 74.6991 33.9984 79.9152 35.0856C81.2118 35.3558 82.711 35.429 83.9006 36.6143C83.2064 37.029 82.6746 36.8205 82.1053 36.7002C78.5289 35.9418 74.9535 35.2048 71.2628 35.234C67.321 35.2653 63.6075 36.2383 59.9966 37.7294C59.4278 37.9642 58.8214 38.1089 58.232 38.2951C58.1767 38.1281 58.1214 37.9608 58.0664 37.794Z" fill="#0B1707"/>
<path d="M59.9766 42.8442C60.9213 40.9965 65.5104 38.9457 69.647 38.2891C69.5159 38.6901 69.5046 39.0859 69.3022 39.2616C68.9868 39.5356 68.5599 39.7555 68.1485 39.8326C65.6016 40.3102 63.2734 41.3514 60.9816 42.5034C60.6689 42.6606 60.3128 42.7324 59.9766 42.8442Z" fill="#0B1707"/>
<path d="M61.6836 77.6719C63.9005 79.7136 65.9236 81.5771 67.9466 83.4405C66.0853 83.5645 65.0199 82.261 63.817 81.3045C62.7427 80.4495 61.836 79.3774 61.6836 77.6719Z" fill="#0B1707"/>
<path d="M58.6226 54.6089C57.0382 54.4947 55.4533 54.3803 53.8438 54.264C53.8907 53.4937 54.398 53.4356 54.8931 53.4238C56.2272 53.392 57.6075 53.207 58.6226 54.6089Z" fill="#0B1707"/>
<path d="M76.6098 48.2C76.4296 48.4798 76.0314 48.8578 75.9405 49.2991C75.8208 49.8806 76.5024 50.4992 77.0633 50.4418C77.6982 50.3772 78.0437 49.9596 78.098 49.3585C78.144 48.8516 77.4421 48.2232 76.6098 48.2ZM77.0968 46.3234C77.8401 46.2899 78.2981 45.7668 78.2294 45.0302C78.1583 44.2664 77.5847 43.7485 76.8068 43.7447C75.9982 43.7408 75.4243 44.3078 75.4791 45.0561C75.5351 45.8252 76.2217 46.3629 77.0968 46.3234ZM81.1097 45.7998C80.0728 45.7921 79.4688 46.3971 79.4894 47.4218C79.5102 48.4384 80.3647 49.2041 81.4495 49.1778C82.3311 49.1565 83.0227 48.4876 83.0468 47.6324C83.0741 46.6962 82.1346 45.8072 81.1097 45.7998ZM74.2541 42.6496C74.3281 42.6262 74.3695 42.5764 74.3783 42.4993C74.5858 42.6405 74.8191 42.9253 74.9957 42.8935C75.403 42.8202 75.7833 42.5936 76.1743 42.4287L78.5259 41.875C80.5794 41.9114 82.3885 42.5809 83.937 43.9421C86.7065 46.3777 87.674 50.7306 86.0807 53.6619C85.2027 55.2779 83.7731 56.2585 82.1525 57.0111C81.0616 57.1442 79.9711 57.2772 78.8803 57.4098C78.424 57.4036 77.9676 57.3969 77.5113 57.3904C74.3147 57.2801 71.6038 54.39 71.4495 51.7056C71.2918 48.9698 71.689 46.3653 73.4797 44.1345C73.6961 43.8653 73.7829 43.492 73.9299 43.1675L73.8959 43.1959C74.3168 43.2113 74.5042 43.0734 74.2541 42.6496Z" fill="#070707"/>
<path d="M115.156 45.0342C115.169 44.3905 114.888 43.9693 114.218 43.9506C113.605 43.9329 113.053 44.6214 113.09 45.3264C113.122 45.9282 113.376 46.4009 114.049 46.436C114.608 46.4657 115.148 45.7461 115.156 45.0342ZM113.646 47.6771C113.381 48.2224 113.088 48.6154 113.003 49.0487C112.87 49.7339 113.125 50.3788 113.784 50.6683C114.423 50.9481 114.94 50.6202 115.256 50.0292C115.61 49.3687 115.472 48.7537 114.922 48.287C114.65 48.0561 114.262 47.9628 113.646 47.6771ZM116.864 47.7012C116.885 48.5797 117.459 49.1892 118.266 49.1882C119.123 49.1875 119.806 48.4897 119.805 47.6177C119.803 46.7342 119.121 46.0235 118.274 46.024C117.455 46.0244 116.841 46.7538 116.864 47.7012ZM116.462 42.4023C119.982 42.8407 121.911 44.3835 122.78 47.4538C123.644 50.5051 122.498 53.4218 119.771 55.0737C119.352 55.3276 118.897 55.5233 118.458 55.7459C117.931 55.8512 117.404 55.9562 116.877 56.0613C116.274 56.0584 115.671 56.055 115.068 56.0517C114.652 56.0534 114.237 56.055 113.82 56.0562C112.145 55.4568 110.65 54.6034 109.798 52.9568C108.608 50.6583 109.315 45.038 111.557 43.5615C112.319 43.2875 113.082 43.0135 113.845 42.7395C114.717 42.627 115.59 42.5151 116.462 42.4023Z" fill="#070707"/>
<path d="M73.9302 43.164C73.7833 43.489 73.6962 43.8623 73.4801 44.1315C71.6894 46.3618 71.2919 48.9666 71.4496 51.7026C71.6039 54.3868 74.3152 57.2767 77.5114 57.3872C77.5068 57.5636 77.5023 57.7402 77.4977 57.9168C74.7043 58.0099 72.1888 57.0831 69.9221 55.5826C67.7837 54.1667 65.7772 52.5492 63.744 50.9801C63.2889 50.6293 62.9622 50.1122 62.5195 49.607C62.8634 49.2823 63.063 49.0198 63.3253 48.8582C66.2582 47.0486 69.1879 45.2325 72.1548 43.4789C72.6518 43.1853 73.2262 42.6043 73.9302 43.164Z" fill="#F6F5F5"/>
<path d="M111.558 43.5624C111.54 43.3207 111.522 43.0793 111.504 42.8376C112.279 42.6313 113.054 42.425 113.829 42.2188C113.835 42.393 113.84 42.5665 113.846 42.7404C113.084 43.0144 112.32 43.2884 111.558 43.5624Z" fill="#A3A4A4"/>
<path d="M82.1524 57.0078C82.1551 57.2069 82.1572 57.4055 82.1596 57.6046C81.0516 57.7085 79.9439 57.8119 78.8359 57.9155C78.8505 57.7458 78.8656 57.5764 78.8802 57.4065C79.9712 57.2739 81.0617 57.1409 82.1524 57.0078Z" fill="#E3E3E3"/>
<path d="M113.845 42.7402C113.839 42.5663 113.834 42.3928 113.828 42.2186C114.703 42.1027 115.578 41.9869 116.453 41.8711C116.456 42.0484 116.459 42.2253 116.462 42.4028C115.59 42.5153 114.717 42.6278 113.845 42.7402Z" fill="#E3E3E3"/>
<path d="M78.5439 41.5586C78.5394 41.6636 78.5326 41.7687 78.5248 41.8733L76.1736 42.427C76.0568 42.3258 75.9405 42.2246 75.8242 42.1233C76.7307 41.935 77.6374 41.7469 78.5439 41.5586Z" fill="#A3A4A4"/>
<path d="M78.879 57.4063C78.8644 57.5762 78.8496 57.7457 78.8348 57.9156C78.3887 57.9158 77.9424 57.9163 77.4961 57.9168C77.5006 57.7399 77.5054 57.5633 77.51 57.3867C77.9663 57.3934 78.4227 57.3999 78.879 57.4063Z" fill="#A3A4A4"/>
<path d="M75.8223 42.1211C75.9386 42.2223 76.0549 42.3235 76.1712 42.4252C75.7802 42.5896 75.4004 42.8167 74.9924 42.89C74.8165 42.9218 74.5825 42.6368 74.375 42.4954C74.8574 42.3709 75.3401 42.2458 75.8223 42.1211Z" fill="#E3E3E3"/>
<path d="M116.879 56.0615C117.406 55.9564 117.933 55.8511 118.46 55.7461C118.471 55.8992 118.483 56.0519 118.494 56.2046L116.879 56.0615Z" fill="#A3A4A4"/>
<path d="M113.831 56.3446C113.836 56.2477 113.832 56.1515 113.82 56.0553C114.236 56.0536 114.652 56.052 115.068 56.0508C114.729 56.4569 114.378 56.811 113.831 56.3446Z" fill="#599042"/>
<path d="M74.2525 42.6484C74.5026 43.0727 74.3157 43.2103 73.8945 43.1952C74.0137 43.0129 74.1334 42.831 74.2525 42.6484Z" fill="#F6F5F5"/>
<path d="M81.1091 45.7969C82.134 45.8044 83.0735 46.6931 83.0463 47.6293C83.0221 48.4848 82.3305 49.1536 81.4489 49.1749C80.3642 49.2013 79.5096 48.4355 79.4888 47.4189C79.4682 46.3942 80.0722 45.7893 81.1091 45.7969Z" fill="#F6F5F5"/>
<path d="M77.0937 46.3209C76.2186 46.3602 75.5327 45.8227 75.4763 45.0538C75.4215 44.305 75.9953 43.7384 76.8042 43.7422C77.5824 43.7458 78.1553 44.2636 78.2263 45.0275C78.295 45.7641 77.837 46.2874 77.0937 46.3209Z" fill="#F6F5F5"/>
<path d="M76.6089 48.1992C77.4412 48.2224 78.1431 48.8508 78.0972 49.3577C78.0428 49.9588 77.6973 50.3764 77.0624 50.441C76.5015 50.4984 75.8199 49.8798 75.9396 49.2983C76.0305 48.8571 76.4287 48.479 76.6089 48.1992Z" fill="#E3E3E3"/>
<path d="M116.864 47.7007C116.841 46.7533 117.455 46.0239 118.275 46.0234C119.121 46.023 119.804 46.7337 119.805 47.6172C119.807 48.4892 119.123 49.187 118.266 49.1877C117.46 49.1889 116.885 48.5792 116.864 47.7007Z" fill="#F6F5F5"/>
<path d="M113.646 47.6758C114.262 47.961 114.65 48.0548 114.922 48.2853C115.472 48.7524 115.61 49.3674 115.256 50.0279C114.94 50.619 114.422 50.9468 113.784 50.6671C113.125 50.3775 112.869 49.7326 113.003 49.0475C113.088 48.6141 113.381 48.2214 113.646 47.6758Z" fill="#E3E3E3"/>
<path d="M115.158 45.0333C115.15 45.7458 114.61 46.4646 114.051 46.4354C113.378 46.3998 113.124 45.9271 113.092 45.3253C113.054 44.6206 113.606 43.9321 114.219 43.9495C114.89 43.9684 115.171 44.3901 115.158 45.0333Z" fill="#E3E3E3"/>
</svg>
