<svg width="150" height="110" viewBox="0 0 150 110" fill="none" xmlns="http://www.w3.org/2000/svg">
<g clip-path="url(#clip0_1054_658)">
<path d="M99.0902 51.2522C99.055 51.3454 99.0203 51.4386 98.9851 51.5317C99.239 51.5691 99.4933 51.6061 99.7472 51.6435C99.7612 51.5584 99.775 51.473 99.7893 51.3879C99.5563 51.3425 99.3231 51.2976 99.0902 51.2522ZM91.275 56.8088C92.0763 56.6483 92.608 56.2951 92.4923 55.5198C92.4547 55.2681 92.0147 54.964 91.7093 54.8908C91.2544 54.782 90.6798 54.7772 90.4788 55.3493C90.2411 56.0239 90.6432 56.4518 91.275 56.8088ZM57.3009 64.2783C58.6707 63.1728 58.6553 62.5268 57.2479 61.5553C56.4445 61.7528 55.6415 62.0664 55.68 63.0697C55.7176 64.0599 56.6161 64.0939 57.3009 64.2783ZM97.0308 55.2398C95.8728 55.2586 95.2167 55.7777 95.246 56.6517C95.2742 57.5048 96.1894 58.3935 97.0617 58.4144C97.9457 58.4363 98.9547 57.4232 98.9438 56.5259C98.934 55.7323 98.1736 55.2208 97.0308 55.2398ZM95.6819 91.8602C96.8252 91.338 96.9892 90.458 97.1026 89.7083C97.3496 88.0737 97.4087 86.4106 97.5487 84.7056C96.9288 84.5573 96.4494 84.4427 95.8321 84.2946C96.1233 86.8912 94.294 89.2741 95.6819 91.8602ZM72.843 54.347C76.4008 52.1524 79.9881 49.9397 83.5761 47.7267C79.0735 48.4087 74.8508 49.749 71.0774 53.0211C71.7411 53.5198 72.2576 53.9073 72.843 54.347ZM108.613 52.1882C108.692 51.101 107.972 50.6207 107.272 50.2983C106.253 49.8294 105.163 49.498 104.082 49.1821C100.221 48.0536 96.3008 47.3611 92.2536 47.6937C91.0162 47.7952 89.7719 47.8434 88.5423 48.0046C86.2825 48.3 84.1074 48.9081 82.135 50.0882C80.0017 51.3649 77.8645 52.6384 75.779 53.9902C75.0859 54.4397 74.1774 54.7349 73.881 55.7896C74.2884 56.3439 74.7201 56.931 75.2166 57.6063C75.7562 57.1152 76.1857 56.7137 76.6266 56.3253C78.4535 54.7142 80.3045 53.178 82.6127 52.222C85.814 50.8966 89.1645 50.518 92.5598 50.2874C93.2634 50.2394 93.9819 50.3069 94.6734 50.1949C97.4912 49.7383 100.295 49.8881 103.053 50.5025C104.882 50.9102 106.651 51.5828 108.613 52.1882ZM65.7935 48.4303C65.8008 48.5563 65.808 48.682 65.8153 48.8082C67.7126 49.4852 69.8497 49.5686 71.4002 51.0309C71.7258 50.9449 72.0063 50.9218 72.2366 50.802C73.7244 50.0302 75.1715 49.1736 76.6887 48.4669C78.7925 47.4869 80.9874 46.6245 83.3001 46.437C86.5915 46.1708 89.905 46.1648 93.2094 46.0707C96.1998 45.9854 99.1178 46.533 102.029 47.1315C102.639 47.257 103.263 47.3077 103.882 47.3928C102.078 45.8584 99.9514 45.1149 97.8197 44.4251C94.7623 43.4356 91.5479 43.3874 88.3866 43.1903C86.0774 43.0467 83.7377 43.3289 81.415 43.4741C80.5046 43.5309 79.5914 43.679 78.6998 43.8773C75.436 44.6041 72.2894 45.702 69.2029 46.9763C68.0611 47.4477 66.9294 47.9447 65.7935 48.4303ZM102.501 77.923C99.2582 77.4276 96.0237 76.676 92.7578 76.4994C88.7569 76.2829 84.7356 76.2601 80.7126 76.6736C76.7859 77.0768 73.0629 78.0746 69.549 79.7801C67.1562 80.9412 64.754 81.9766 62.1788 82.6854C59.7403 83.3567 57.2555 83.2968 54.7899 83.5083C54.088 83.5685 53.1652 83.5076 52.6749 82.4967C53.1507 82.3023 53.5244 82.0553 53.923 82.0047C55.1559 81.8475 56.3962 81.7152 57.6374 81.6633C60.9402 81.5255 64.0583 80.6253 66.9132 79.0565C69.3532 77.7157 71.8314 76.5605 74.5463 75.986C76.7559 75.5185 78.9898 74.9164 81.2246 74.8627C87.4527 74.7122 93.7024 74.3763 99.8784 75.711C101.108 75.9767 102.407 76.4096 103.738 75.8857C104.763 74.6647 104.205 73.4931 103.618 72.1434C101.796 72.0545 99.9625 71.8475 98.1368 71.9041C95.4383 71.9877 92.7478 72.3676 90.0495 72.426C85.6032 72.5218 81.1671 72.6366 76.736 73.104C73.452 73.4503 70.2108 73.8843 67.0658 74.9378C64.4562 75.8115 61.7798 76.431 59.0387 76.7364C56.0332 77.0711 53.0207 77.3532 50.0231 77.749C48.9124 77.8954 47.7912 78.1904 46.7541 78.6123C45.3325 79.1904 44.9602 80.4561 45.5925 81.8254C46.1594 83.0531 47.1765 83.7574 48.3842 84.1601C49.7624 84.6188 51.1774 84.9773 52.5907 85.3203C55.9056 86.1256 59.2493 86.1249 62.5572 85.3635C65.1788 84.7603 67.7609 83.9823 70.3515 83.2497C73.05 82.4869 75.7163 81.6911 78.5674 81.5312C79.8203 81.4608 81.0264 81.5378 82.2548 81.6084C84.6907 81.7484 87.1308 81.8257 89.5629 82.0099C91.0647 82.124 92.5576 82.3705 94.0501 82.5877C95.4354 82.7898 96.814 83.0317 98.2561 83.2656C99.3609 81.9685 100.678 81.9395 102.092 82.867C102.918 81.2992 103.508 79.8236 102.501 77.923ZM62.534 49.7302H61.0776C61.2761 50.8384 61.9533 50.5812 62.534 50.5218C65.0278 51.015 67.5217 51.5082 70.0499 52.0081C70.0879 51.1978 69.429 51.1075 68.9752 51.0083C66.8369 50.5413 64.6825 50.1493 62.534 49.7302ZM92.2962 60.0543C92.2101 60.4876 92.1245 60.9211 92.0385 61.3542C91.8671 62.0174 91.4657 62.3525 90.7528 62.3421C89.3989 62.3221 88.0443 62.3364 86.8527 62.3364C86.4223 61.9349 86.1135 61.6464 85.8045 61.358C85.7011 58.4525 86.577 55.9027 88.5736 53.7627C89.165 53.129 89.7678 52.5063 90.3651 51.8785C90.446 51.8372 90.5268 51.7958 90.6078 51.7545C90.5211 51.7373 90.4343 51.72 90.348 51.7031C89.6509 51.7949 88.9556 51.909 88.2563 51.9743C82.9942 52.4666 79.1612 55.4687 75.6685 58.9977V61.0509C74.8926 62.3399 74.7003 63.6035 75.8265 64.8143C75.8567 64.8469 75.8472 64.9166 75.8563 64.9691C74.7719 64.7861 74.0377 65.469 73.2504 66.0202C72.929 65.7723 72.6072 65.5239 72.2859 65.2757C74.4534 63.5484 74.6442 61.195 74.4512 58.5587C70.3223 57.6531 66.247 58.2083 62.3721 58.5418C64.7935 59.7129 67.1569 61.2111 68.4554 63.9392C68.183 65.2384 67.0402 65.4407 65.9915 65.9275C65.5085 65.6054 65.021 65.28 64.5334 64.9551C63.6029 62.7695 61.8259 62.3709 60.2597 63.9739C59.7154 64.531 59.6445 65.2035 59.625 65.9118C59.2402 66.0931 58.8552 66.2745 58.4699 66.4559L58.3974 66.4511L58.3914 66.5364C58.1587 66.5353 57.9262 66.5345 57.6938 66.5336C56.8483 65.3815 56.3603 65.3815 55.5472 66.5331C54.1326 66.4281 52.7179 66.3228 51.2903 66.2165C51.0783 65.8792 50.8829 65.5681 50.6877 65.2572C51.3725 63.4338 52.8341 62.1866 54.0361 60.7462C54.0692 60.6825 54.1017 60.6186 54.1348 60.5546C54.116 60.6304 54.0972 60.7063 54.0782 60.7826C53.8156 60.7745 53.5251 60.6882 53.2952 60.7709C50.4788 61.7807 47.5575 62.1336 44.589 62.208C43.7851 61.9432 42.9814 61.6784 42.1776 61.4132C43.3601 61.3069 44.5414 61.1883 45.7249 61.097C47.8782 60.9302 49.9934 60.6124 52.0656 59.9487C55.7045 58.7828 59.3636 57.6778 63.2197 57.4556C64.349 57.3904 65.488 57.3227 66.5954 57.1135C68.1602 56.8174 69.6905 56.8487 71.2543 57.1073C72.0099 57.2324 72.8259 57.2854 73.814 56.9985C72.678 55.549 71.3465 54.6329 70.0451 53.709C69.1699 53.0877 68.1424 52.7963 67.0794 52.517C64.4113 51.8155 61.7172 51.9087 59.0127 51.8833C56.7028 51.8619 54.5023 52.406 52.4105 53.2652C50.427 54.0805 48.52 55.1029 46.6388 56.1425C44.1352 57.5266 41.6782 58.9965 39.2311 60.4793C38.8456 60.7129 38.2076 60.8225 38.2375 61.5056C37.2069 61.9195 36.1758 62.3335 35.1449 62.7474C34.7558 62.5346 34.3664 62.3221 33.6538 61.9333C34.2987 61.522 34.607 61.2689 34.9585 61.1125C35.7862 60.7445 36.6889 60.5164 37.465 60.0654C40.8303 58.1111 44.1485 56.0765 47.5105 54.1164C48.7655 53.3848 50.0455 52.6503 51.3994 52.1455C53.1058 51.5089 54.8994 51.106 56.6555 50.6021L56.8167 50.6178L56.9733 50.5793C58.1789 50.5572 59.3988 50.7281 60.6431 50.3979C60.6438 49.5087 60.1142 49.3585 59.4919 49.3632C57.7756 49.3758 56.0596 49.4094 54.3437 49.4343C54.2251 49.4971 54.1065 49.5593 53.9879 49.6219C53.8973 49.5952 53.807 49.5969 53.7169 49.6254C53.2563 49.73 52.7961 49.8344 52.3354 49.9387C48.4717 50.7081 45.1504 52.5564 42.2066 55.1095C40.0393 56.9894 37.8872 58.8822 35.3434 60.253C34.6899 60.6052 34.023 61.0516 33.2588 60.5922C32.94 59.8311 33.5718 59.7172 33.9595 59.5166C35.6982 58.6165 37.3146 57.5518 38.7961 56.2635C41.1624 54.2063 43.4623 52.0549 46.3258 50.658C49.0125 49.348 51.7341 48.2294 54.8193 48.315C57.2676 48.3828 59.7189 48.3331 62.1691 48.32C62.5955 48.3176 63.0652 48.3376 63.4408 48.1752C65.7652 47.1708 68.0485 46.0695 70.3829 45.09C74.9618 43.1682 79.7397 42.1487 84.7175 42.129C86.4598 42.1221 88.2019 42.1369 89.9439 42.119C90.2743 42.1157 90.6038 42.0068 91.0623 41.9239C90.8184 41.5966 90.7088 41.4121 90.5643 41.2614C88.9844 39.6228 87.0315 38.7214 84.8658 38.0419C81.4426 36.9672 78.0347 37.1217 74.6072 37.7393C71.4019 38.3169 68.6515 39.9465 65.9981 41.7435C64.4215 42.8114 62.7843 43.8207 60.872 44.0434C57.9745 44.3812 55.1635 44.0242 52.5009 42.6695C48.8347 40.8048 44.9034 40.198 40.8669 40.8583C36.2587 41.6111 32.1071 43.4584 28.5158 46.5287C25.8028 48.8482 22.9716 51.029 20.231 53.3171C19.4456 53.9724 18.6641 54.7014 18.1041 55.5447C16.5843 57.8337 15.1312 60.1715 13.7481 62.5456C11.0115 67.2426 9.00965 72.2069 8.23096 77.6394C7.48602 82.8373 8.07907 87.7547 10.8613 92.2945C12.9537 95.7085 15.8034 98.045 19.8126 99.0029C23.9478 99.9905 27.9974 101.348 32.2761 101.648C34.756 101.822 37.2385 102.133 39.7165 102.109C42.9051 102.077 46.091 101.758 49.2789 101.586C51.551 101.464 53.8248 101.369 56.0986 101.279C59.1886 101.157 62.2794 100.987 65.3711 100.958C68.7356 100.927 72.0608 100.621 75.3609 99.9796C77.3159 99.5993 79.2829 99.281 81.2348 98.8879C81.8942 98.7548 82.5245 98.4767 83.2143 98.2497C81.786 95.6631 80.7894 93.1402 81.2355 90.318C82.4549 89.4188 82.4549 89.4188 84.0044 89.6166C84.3798 89.9586 84.7784 90.3221 85.2383 90.7409C86.4116 88.305 87.4451 85.8712 89.3376 83.9671C89.6347 83.8285 89.9316 83.6899 90.2285 83.5516C90.2102 83.4643 90.1919 83.3773 90.1736 83.2899H89.0046C88.6789 83.2704 88.3521 83.2599 88.0272 83.2295C84.6968 82.9172 81.376 82.6669 78.0136 82.8692C75.5981 83.0146 73.3132 83.5385 71.0864 84.3833C67.792 85.6333 64.3987 86.5358 60.9 86.7918C57.4993 87.0409 54.068 87.0683 50.7141 86.1767C48.5452 85.6007 46.51 84.7719 44.9215 83.1126C44.0358 82.1874 43.5003 80.9697 44.0996 79.8621C44.8069 78.5545 45.8849 77.3905 47.5131 77.0815C48.9939 76.8001 50.4795 76.5394 51.9687 76.305C53.885 76.0033 55.8024 75.702 57.7271 75.4635C60.403 75.1322 63.0602 74.7612 65.6437 73.924C67.3822 73.3607 69.1526 72.8102 70.9514 72.5351C74.4679 71.9984 78.0079 71.5856 81.5507 71.2606C84.1397 71.0234 86.7481 70.9664 89.3495 70.9055C92.2341 70.8378 95.1212 70.8834 98.0061 70.8256C99.341 70.7993 100.673 70.6443 101.594 70.5777C102.315 69.5875 102.699 68.7715 103.327 68.2519C105.273 66.6429 106.823 64.7067 108.156 62.6074C108.775 61.6323 109.08 60.4584 109.528 59.3745C109.711 58.5456 109.913 57.7206 110.072 56.8875C110.252 55.951 110.159 55.0907 109.243 54.5288C107.102 52.2964 104.189 52.0261 101.394 51.4749C100.91 51.3791 100.318 51.1778 99.901 51.9558C102.05 53.4426 102.944 55.6645 103.463 58.0938C103.112 58.427 102.789 58.7992 102.404 59.088C99.8494 61.0001 97.0769 62.1709 93.7936 61.5339C93.694 60.6159 93.1809 60.1363 92.2596 60.0887C92.4571 59.6771 92.6544 59.2654 92.8935 58.7669C92.5783 58.475 92.2802 58.1993 91.8495 57.8005C91.4167 58.2856 91.0578 58.6882 90.5073 59.3055C91.2736 59.6267 91.7847 59.8401 92.2962 60.0543ZM86.3719 110.036C85.7983 110.059 85.2245 110.081 84.6512 110.104C84.7962 108.433 85.0631 106.761 85.052 105.091C85.0405 103.41 85.7417 101.715 85.2031 100.132C84.955 100.023 84.8977 99.9725 84.8577 99.9841C79.5776 101.479 74.1541 102.08 68.7085 102.467C64.3835 102.774 60.0484 102.98 55.7138 103.112C49.5789 103.297 43.4409 103.391 37.3036 103.487C34.0971 103.538 30.9089 103.121 27.8084 102.412C24.1332 101.572 20.5469 100.349 16.9132 99.321C15.3145 98.8691 13.933 98.0785 12.7419 96.9305C12.4874 96.6852 12.1912 96.4829 11.78 96.1527C11.1199 97.3823 10.4532 98.4367 9.96494 99.5679C8.48601 102.997 7.93146 106.592 8.21789 110.316H6.09575C5.55167 104.488 7.36147 99.3538 10.631 94.5946C8.91053 92.2215 7.64623 89.6713 6.97712 86.8337C5.98284 82.6153 6.20461 78.4181 7.13875 74.2337C8.30845 68.9956 10.3536 64.1227 13.3084 59.6317C13.8422 58.8199 14.2546 57.9298 14.7585 57.0971C16.2358 54.655 18.0801 52.5612 20.3869 50.8372C22.9987 48.8852 25.538 46.8323 28.0537 44.7565C34.1677 39.7121 41.1854 38.199 48.858 39.5336C50.6395 39.8433 52.3582 40.6757 54.0264 41.4414C57.66 43.109 61.0919 42.7418 64.4369 40.7045C65.9679 39.772 67.4528 38.7438 69.0546 37.952C74.7969 35.113 80.7278 34.7793 86.7795 36.8869C88.9768 37.6523 90.8719 38.8916 92.3478 40.7128C92.8978 41.3922 93.6494 41.6579 94.443 41.8799C96.6916 42.5088 98.9673 43.0572 101.18 43.7962C105.355 45.1908 108.33 48.0483 110.411 51.8491C111.647 54.1062 111.564 56.5122 111.071 58.9901C110.351 62.6142 108.325 65.4407 105.917 68.0819C105.449 68.5958 105.036 69.1613 104.601 69.6994C104.932 70.6723 105.246 71.5337 105.517 72.4085C105.961 73.8453 105.819 75.2285 104.899 76.4374C104.432 77.0504 104.315 77.6413 104.387 78.3957C104.605 80.6883 104.334 82.8663 102.424 84.5677C102.864 86.2069 103.124 87.8572 102.689 89.531C102.54 89.9161 102.392 90.3014 102.243 90.6869C102.379 90.7361 102.514 90.7858 102.651 90.8353C102.807 90.4366 102.962 90.038 103.118 89.6394C103.233 89.4552 103.329 89.2553 103.466 89.0889C104.564 87.7483 106.096 87.6799 107.132 89.0849C108.277 90.6361 108.903 92.4221 107.83 94.2573C106.8 96.0203 105.579 97.673 104.333 99.5361C107.213 102.45 110.539 105.35 110.925 110.247C110.325 110.19 109.757 110.136 109.19 110.082C108.863 108.844 108.757 107.487 108.165 106.392C106.875 104.006 104.807 102.268 102.721 100.56C101.536 101.276 100.421 101.927 99.3326 102.618C98.6802 103.031 98.1658 103.541 98.1266 104.418C98.0427 106.299 97.8989 108.177 97.7791 110.055C97.0054 110.077 96.2314 110.099 95.4575 110.121C95.5802 109.322 95.7244 108.526 95.8212 107.724C96.0444 105.873 96.6115 104.044 96.1853 102.146C96.1444 101.963 96.2761 101.742 96.3643 101.394C98.5323 101.256 100.332 100.215 102.053 98.962C103.644 97.8035 105.079 96.5178 106.064 94.7862C107.129 92.9151 106.84 91.2194 105.136 90.0525C104.832 90.474 104.532 90.903 104.218 91.3223C103.441 92.3589 102.678 93.4054 101.873 94.4192C101.341 95.0883 100.657 95.2492 99.692 94.7822C99.7997 93.9533 99.8965 93.1095 100.022 92.2697C100.158 91.3656 100.345 90.4683 100.467 89.5622C100.667 88.0683 100.818 86.5677 101.022 85.074C101.088 84.5951 101.062 84.1613 100.579 83.9799C100.019 83.7695 99.5943 84.0662 99.4467 84.5993C99.1896 85.5275 98.9927 86.4733 98.8009 87.4182C98.417 89.3083 98.4121 91.26 97.535 93.0677C96.7185 94.751 96.0727 94.8102 94.617 93.4428C94.3147 93.1587 94.0501 92.7444 93.9543 92.3456C93.4699 90.3254 93.1992 88.304 94.2044 86.3302C94.4038 85.9385 94.4585 85.4731 94.5818 85.0357C93.7238 84.7358 93.2726 84.9262 92.8982 85.5351C92.1189 86.8037 91.6126 88.1358 91.6047 89.6461C91.6009 90.4889 91.759 91.3927 91.0202 92.0594C90.4086 92.0996 90.0003 91.8236 89.9943 91.2512C89.9803 89.8533 89.7022 88.4215 90.3568 87.0828C90.5971 86.5917 90.8054 86.1165 90.4162 85.5071C89.6915 85.8206 89.2763 86.3462 88.9563 86.9867C88.5929 87.7134 88.2287 88.4414 87.8247 89.1457C86.8501 90.8448 86.0583 92.5516 87.4396 94.4513C87.0281 94.8112 86.7189 95.0821 86.4208 95.3429C84.5953 94.5621 84.5709 92.3746 83.0651 91.3803C82.3444 91.8716 82.3872 92.4608 82.6588 93.1117C82.9707 93.8592 83.3101 94.5975 83.5761 95.3614C84.3555 97.6017 86.0051 98.6483 88.2729 98.9951C89.2967 99.1512 90.4362 99.2582 91.0188 100.437C90.8824 100.641 90.7851 100.948 90.6461 100.968C89.546 101.126 88.4384 101.23 87.2017 101.364C86.6445 104.237 86.4929 107.135 86.3719 110.036Z" fill="#090C09"/>
<path d="M8.22119 110.319C7.93477 106.595 8.48931 103 9.96849 99.571C10.4562 98.4398 11.1232 97.3858 11.7833 96.1562C12.1947 96.4859 12.4907 96.6882 12.745 96.9335C13.9361 98.0813 15.3178 98.8722 16.9168 99.3245C20.5499 100.352 24.1365 101.575 27.812 102.415C30.9122 103.124 34.1004 103.541 37.3067 103.49C43.444 103.394 49.5824 103.3 55.7171 103.115C60.0515 102.984 64.3868 102.777 68.7119 102.47C74.1574 102.083 79.5809 101.483 84.8613 99.9869C84.9012 99.9758 84.958 100.026 85.2062 100.135C85.7451 101.718 85.0436 103.413 85.055 105.094C85.0662 106.764 84.7993 108.436 84.6545 110.107C84.1119 110.121 83.5697 110.146 83.0275 110.146C60.9594 110.148 38.8921 110.141 16.8246 110.155C13.9568 110.157 11.0892 110.262 8.22119 110.319Z" fill="#0642F1"/>
<path d="M130.191 110.042C126.612 110.06 123.034 110.078 119.456 110.096C119.179 106.765 118.799 103.452 117.799 100.239C116.931 97.4511 117.024 94.5743 117.104 91.7053C117.114 91.3378 117.226 90.9639 117.343 90.6103C118.081 88.3873 119.756 87.1054 121.804 86.1948C122.884 85.7142 123.996 85.2783 125.01 84.6817C126.325 83.9082 126.552 83.2909 125.997 81.8427C125.438 80.3853 124.681 79.0048 124.054 77.5715C123.861 77.1296 123.303 76.6956 123.892 76.0572C124.909 76.5145 125.226 77.5487 125.758 78.3821C126.455 79.4738 127.028 80.648 127.77 81.7062C128.667 82.9867 130.087 83.0651 131.04 81.8631C131.764 80.9487 132.299 79.8838 132.895 78.9245C132.154 77.1087 131.373 75.4976 130.853 73.806C130.531 72.7556 130.574 71.5847 130.525 70.4652C130.513 70.1868 130.784 69.8968 130.925 69.6121C131.08 69.6784 131.235 69.7447 131.39 69.8113C131.634 70.3244 131.935 70.8191 132.113 71.3541C132.705 73.139 133.196 74.959 133.841 76.7239C134.17 77.6262 134.71 78.461 135.229 79.2791C135.363 79.4914 135.847 79.6894 136.047 79.6045C136.332 79.4838 136.678 79.1018 136.688 78.8197C136.719 78.0184 136.704 77.1831 136.507 76.4116C135.996 74.4054 135.032 72.5921 133.898 70.8654C133.543 70.3247 133.212 69.7633 132.924 69.1845C132.619 68.5714 132.871 68.1693 133.544 67.9023C134.118 68.4405 134.673 68.9551 135.222 69.4756C136.593 70.7768 137.555 72.2688 137.795 74.2177C137.972 75.6514 138.384 77.0555 138.661 78.4783C138.828 79.3324 139.321 79.5113 140.087 79.2832C141.096 76.9074 141.119 74.5868 139.856 72.3054C139.699 72.0211 139.501 71.743 139.421 71.4361C139.331 71.0948 139.353 70.7238 139.315 70.2018C141.196 71.1376 141.99 72.671 142.222 74.4047C142.731 78.1907 141.402 81.517 138.867 84.2122C135.429 87.8673 131.099 90.3956 126.815 92.9344C125.381 93.7849 125.23 94.2586 126.283 95.5557C127.135 96.6056 127.627 97.7511 127.544 99.124C127.408 101.376 128.001 103.514 128.653 105.629C129.112 107.116 129.674 108.572 130.191 110.042Z" fill="#539537"/>
<path d="M86.3715 110.035C86.4923 107.134 86.6442 104.236 87.2013 101.363C88.4381 101.228 89.546 101.125 90.646 100.967C90.7846 100.947 90.882 100.639 91.0185 100.435C90.4359 99.2568 89.2964 99.1498 88.2729 98.9934C86.0048 98.6466 84.3552 97.6003 83.5758 95.3598C83.3098 94.5961 82.9704 93.858 82.6585 93.1105C82.3868 92.4597 82.344 91.87 83.0647 91.3794C84.5708 92.3732 84.595 94.5604 86.4205 95.3415C86.7186 95.0805 87.0281 94.81 87.4393 94.4501C86.058 92.5505 86.8498 90.8436 87.8246 89.1443C88.2284 88.44 88.5926 87.712 88.956 86.9851C89.2759 86.3445 89.6912 85.8194 90.4159 85.5057C90.8053 86.1149 90.597 86.59 90.3565 87.0816C89.7019 88.4201 89.98 89.8522 89.9942 91.25C89.9999 91.8224 90.4083 92.0981 91.0199 92.058C91.7587 91.3912 91.6006 90.4878 91.6046 89.6444C91.6122 88.1341 92.1185 86.8023 92.8979 85.5335C93.2723 84.9245 93.7234 84.7341 94.5815 85.0346C94.4584 85.4715 94.4035 85.9369 94.2041 86.3286C93.1991 88.3024 93.4691 90.3242 93.9542 92.3439C94.0498 92.743 94.3144 93.1573 94.6167 93.4411C96.0723 94.8086 96.7179 94.7494 97.5346 93.0665C98.4117 91.2588 98.4167 89.3067 98.8006 87.4167C98.9924 86.4721 99.1895 85.5259 99.4464 84.5979C99.594 84.0645 100.019 83.7679 100.579 83.9783C101.061 84.1601 101.088 84.5934 101.022 85.0726C100.817 86.5663 100.667 88.0671 100.466 89.561C100.345 90.4671 100.158 91.3639 100.022 92.2686C99.8964 93.1079 99.7994 93.9519 99.6917 94.7808C100.657 95.2478 101.341 95.0867 101.872 94.4176C102.677 93.4043 103.441 92.3575 104.217 91.3209C104.531 90.9016 104.832 90.4725 105.136 90.0513C106.839 91.2182 107.129 92.9139 106.064 94.785C105.079 96.5162 103.644 97.8019 102.052 98.9604C100.332 100.213 98.5322 101.254 96.364 101.393C96.2758 101.74 96.1441 101.962 96.185 102.145C96.6112 104.043 96.044 105.871 95.8209 107.722C95.7241 108.525 95.5798 109.321 95.4572 110.12C92.4287 110.091 89.4 110.063 86.3715 110.035Z" fill="#539537"/>
<path d="M130.188 110.038C129.672 108.568 129.11 107.112 128.65 105.625C127.998 103.51 127.405 101.372 127.541 99.1198C127.624 97.7469 127.133 96.6014 126.28 95.5515C125.228 94.2544 125.378 93.7807 126.813 92.9302C131.097 90.3914 135.426 87.8631 138.864 84.208C141.4 81.5128 142.728 78.1865 142.22 74.4005C141.987 72.6668 141.193 71.1334 139.312 70.1976C139.351 70.7196 139.328 71.0906 139.418 71.4319C139.498 71.7388 139.696 72.0169 139.854 72.3012C141.116 74.5826 141.093 76.9032 140.085 79.2789C139.318 79.5071 138.825 79.3282 138.659 78.4741C138.381 77.0513 137.969 75.6472 137.793 74.2134C137.553 72.2646 136.591 70.7726 135.219 69.4714C134.67 68.9509 134.116 68.4363 133.542 67.8981C132.869 68.1651 132.616 68.5672 132.921 69.1803C133.209 69.759 133.54 70.3205 133.895 70.8612C135.03 72.5878 135.993 74.4012 136.504 76.4074C136.701 77.1789 136.717 78.0142 136.686 78.8154C136.675 79.0976 136.329 79.4796 136.044 79.6003C135.844 79.6852 135.361 79.4872 135.226 79.2749C134.707 78.4568 134.168 77.622 133.838 76.7197C133.194 74.9548 132.702 73.1348 132.11 71.3499C131.933 70.8149 131.631 70.3202 131.387 69.8071C131.233 69.7405 131.078 69.6742 130.923 69.6079C130.782 69.8926 130.511 70.1826 130.523 70.461C130.571 71.5805 130.528 72.7514 130.851 73.8018C131.37 75.4934 132.152 77.1045 132.892 78.9203C132.296 79.8796 131.762 80.9445 131.037 81.8589C130.084 83.0609 128.665 82.9825 127.767 81.702C127.026 80.6438 126.452 79.4696 125.755 78.3779C125.223 77.5445 124.906 76.5103 123.889 76.053C123.3 76.6914 123.859 77.1254 124.052 77.5673C124.678 79.0006 125.435 80.3811 125.994 81.8384C126.549 83.2867 126.322 83.904 125.008 84.6775C123.993 85.2741 122.882 85.71 121.802 86.1906C119.753 87.1012 118.079 88.3831 117.341 90.6061C117.223 90.9597 117.111 91.3336 117.101 91.7011C117.021 94.5701 116.929 97.4469 117.797 100.235C118.797 103.448 119.176 106.76 119.453 110.092C118.933 110.146 118.413 110.201 117.747 110.27C117.57 108.634 117.471 107.124 117.229 105.636C116.969 104.034 116.723 102.404 116.211 100.873C115.161 97.7371 115.107 94.5406 115.573 91.3591C116.04 88.1706 118.27 86.2764 121.081 85.0093C121.772 84.6972 122.536 84.5382 123.209 84.1968C124.577 83.5037 124.924 82.7075 124.381 81.2542C123.83 79.7819 123.129 78.3664 122.49 76.9274C122.314 76.531 122.118 76.1433 121.942 75.7468C121.705 75.2137 121.595 74.6161 122.149 74.2819C122.573 74.0266 123.17 73.8464 123.64 73.9265C124.539 74.0799 125.164 74.7494 125.6 75.5274C126.291 76.7577 126.929 78.0177 127.597 79.2618C127.802 79.6448 128.053 80.0044 128.242 80.3949C128.697 81.3362 130.094 81.2927 130.648 80.3191C131.083 79.5537 131.341 78.7368 130.978 77.8271C130.474 76.5673 129.972 75.303 129.562 74.0114C129.269 73.0865 129.04 72.122 128.94 71.1595C128.786 69.6742 129.277 69.0319 130.648 68.3785C131.16 68.1346 131.645 67.7605 132.031 67.3436C132.785 66.5302 133.84 66.3167 134.78 66.921C135.051 67.095 135.3 67.3212 135.515 67.5625C136.481 68.6445 137.493 69.2822 139.082 68.7134C139.997 68.3864 140.882 69.0217 141.487 69.7714C143.498 72.2665 144.551 75.0867 143.7 78.2714C142.709 81.9763 140.828 85.1771 137.619 87.4509C135.314 89.0841 133.015 90.728 130.673 92.3082C129.353 93.1993 128.665 94.2687 128.7 95.9489C128.793 100.468 129.579 104.801 131.637 108.861C131.826 109.232 131.98 109.62 132.273 110.278C131.41 110.178 130.799 110.108 130.188 110.038Z" fill="#090C09"/>
<path d="M97.7773 110.054C97.8967 108.175 98.0409 106.297 98.1249 104.417C98.1636 103.54 98.678 103.03 99.3304 102.616C100.42 101.925 101.534 101.275 102.719 100.559C104.804 102.266 106.873 104.004 108.163 106.391C108.755 107.486 108.862 108.843 109.188 110.081C105.384 110.072 101.581 110.063 97.7773 110.054Z" fill="#0642F1"/>
<path d="M103.117 89.6396C102.961 90.0383 102.806 90.4369 102.65 90.8355C102.514 90.786 102.378 90.7364 102.242 90.6867C102.391 90.3016 102.54 89.9163 102.688 89.5312C102.831 89.5674 102.975 89.6033 103.117 89.6396Z" fill="#54B9DC"/>
<path d="M51.5219 45.682C53.5962 45.7255 55.5627 46.271 57.4982 46.9634C58.4502 47.304 59.3915 47.6979 60.5122 47.6406C60.3841 47.4312 60.3315 47.2603 60.2158 47.173C59.9158 46.9458 59.5985 46.7366 59.27 46.5531C56.2846 44.8843 53.0702 44.0664 49.6583 44.1113C47.932 44.1339 46.2039 44.2649 44.483 44.4172C41.3364 44.696 38.322 45.5006 35.5478 47.0278C33.5405 48.1331 31.6927 49.462 30.7162 51.6579C30.6119 51.8927 30.6734 52.2015 30.6582 52.4758C30.7509 52.5768 30.8443 52.678 30.937 52.7793C34.6377 47.961 39.6086 45.8786 45.4576 45.6856C47.4789 45.6841 49.5005 45.6829 51.5219 45.682ZM54.3452 49.4338C56.0611 49.4083 57.777 49.3748 59.493 49.3622C60.1155 49.3575 60.6448 49.5079 60.6446 50.3974C59.3998 50.7275 58.1804 50.5562 56.9748 50.5783C56.8688 50.5861 56.763 50.5937 56.657 50.6013C54.9007 51.105 53.1068 51.5079 51.4004 52.1444C50.0467 52.6493 48.7665 53.3838 47.512 54.1154C44.15 56.0754 40.8316 58.1103 37.4665 60.0649C36.6902 60.5153 35.7874 60.7437 34.9595 61.1119C34.6085 61.2683 34.3002 61.521 33.6548 61.9324C34.3674 62.3216 34.757 62.5341 35.1464 62.7463C34.9206 63.2928 34.5681 63.8231 34.4968 64.389C34.3636 65.4434 33.8464 66.2918 33.3832 67.2029C32.8769 68.199 32.4243 69.2644 32.1956 70.3518C31.6803 72.8029 31.7072 75.312 31.874 77.7952C32.0314 80.1361 30.937 81.7298 29.1562 82.9687C27.2402 84.3017 25.481 85.7533 24.2093 87.7632C22.5994 90.3087 20.9334 92.798 20.2798 95.8237C20.1196 96.566 20.1645 97.059 20.6499 97.556C22.3384 97.6299 23.0791 97.1657 23.6163 95.6872C23.7446 95.334 23.9424 94.9615 23.9236 94.6079C23.8666 93.5342 24.4708 92.7591 25.0142 91.9609C25.7132 90.9343 26.4244 89.912 27.1976 88.9417C27.8354 88.1416 28.5133 87.3539 29.2803 86.6831C30.0459 86.0135 30.9615 85.5184 31.7823 84.908C33.821 83.392 35.4433 81.543 36.1799 79.0588C36.3246 78.5706 36.3978 77.9457 36.2196 77.4962C35.033 74.5077 35.25 71.4652 35.7644 68.4077C35.8155 68.1042 36.1247 67.8444 36.3783 67.4698C36.9246 68.1432 37.1264 68.6927 36.9864 69.3939C36.8499 70.0754 36.8041 70.7759 36.7327 71.4697C36.6515 72.261 36.9403 72.8331 37.9036 73.1666C38.1568 72.7445 38.4527 72.3266 38.6688 71.8707C38.921 71.339 39.0519 70.7476 39.326 70.2297C39.8701 69.2028 40.3602 69.0048 41.4555 69.2981C42.2335 69.5064 43.03 69.6825 43.7695 69.9901C46.9108 71.2962 50.2661 71.5577 53.5737 71.7497C56.9142 71.9437 60.2771 71.932 63.6452 71.5795C66.5955 71.2708 69.3682 70.6442 71.9838 69.252C73.6655 68.3569 73.8825 67.8955 73.2517 66.0196C74.0387 65.4679 74.7732 64.7855 75.8573 64.9683C76.4118 65.394 76.9055 65.9816 77.5318 66.2174C79.9972 67.1451 82.4745 68.0685 85.0097 68.7671C85.9876 69.0362 87.1425 68.7754 88.1979 68.6257C90.2708 68.3319 92.3281 67.9297 94.3972 67.6055C95.991 67.3555 97.6028 67.2112 99.1856 66.9086C99.8533 66.7809 100.547 66.4748 101.091 66.0662C103.246 64.4451 105.349 62.7558 107.464 61.0822C108.164 60.5277 108.841 59.9441 109.529 59.3739C109.082 60.4576 108.777 61.6318 108.157 62.6066C106.824 64.7056 105.274 66.6424 103.328 68.2511C102.7 68.7707 102.317 69.5865 101.596 70.5767C100.674 70.6437 99.342 70.7982 98.0076 70.8251C95.1227 70.8828 92.2356 70.8367 89.351 70.9045C86.7494 70.9658 84.1407 71.0224 81.5517 71.2601C78.0089 71.585 74.4694 71.9974 70.9529 72.5346C69.1536 72.8094 67.3835 73.3601 65.6447 73.9232C63.0617 74.7604 60.4045 75.1314 57.7285 75.4625C55.8035 75.7009 53.8865 76.0023 51.9702 76.3042C50.481 76.5388 48.9954 76.7995 47.5143 77.0807C45.8861 77.39 44.8082 78.5535 44.1006 79.8615C43.5016 80.9692 44.0371 82.1864 44.9225 83.1115C46.5113 84.7713 48.5462 85.5997 50.7151 86.1761C54.0695 87.0672 57.5006 87.0404 60.9013 86.7913C64.3999 86.5348 67.793 85.6327 71.0875 84.3825C73.3142 83.5375 75.5991 83.0141 78.0151 82.8684C81.377 82.6658 84.6979 82.9166 88.0282 83.2287C88.3531 83.2594 88.68 83.2698 89.0061 83.2893C89.1171 83.5149 89.2281 83.7405 89.3391 83.9665C87.4461 85.8704 86.4128 88.304 85.2393 90.7403C84.7794 90.321 84.3808 89.9581 84.0059 89.616C82.4564 89.418 82.4564 89.418 81.237 90.317C80.7909 93.1391 81.7873 95.6625 83.2156 98.2486C82.5256 98.4756 81.8957 98.7542 81.2363 98.8871C79.2841 99.2805 77.317 99.5985 75.3619 99.9788C72.0618 100.621 68.7369 100.926 65.3721 100.957C62.2806 100.986 59.1901 101.157 56.0996 101.279C53.8261 101.368 51.5523 101.463 49.2799 101.585C46.092 101.758 42.9066 102.076 39.7177 102.108C37.2395 102.133 34.757 101.821 32.2776 101.647C27.9989 101.347 23.9488 99.99 19.8141 99.0019C15.8049 98.0444 12.955 95.7074 10.8625 92.2939C8.08009 87.7542 7.48728 82.8367 8.23245 77.6388C9.01114 72.2058 11.0125 67.2416 13.7493 62.545C15.1327 60.1707 16.5858 57.8332 18.1053 55.5437C18.6651 54.7004 19.4466 53.9718 20.232 53.316C22.9726 51.0282 25.8043 48.8476 28.5171 46.5282C32.1082 43.4574 36.2597 41.6105 40.8679 40.8573C44.9047 40.1974 48.8362 40.804 52.5019 42.669C55.1645 44.0233 57.9758 44.3806 60.873 44.0428C62.7855 43.8199 64.4227 42.8106 65.9991 41.7429C68.653 39.9455 71.4031 38.3161 74.6082 37.7387C78.0362 37.1209 81.4436 36.9662 84.8673 38.0408C87.0325 38.7209 88.9856 39.6222 90.5654 41.2606C90.7103 41.4111 90.8194 41.596 91.0636 41.9228C90.6053 42.0063 90.2758 42.1147 89.9454 42.1185C88.2034 42.1358 86.4608 42.1213 84.7188 42.1282C79.7407 42.1482 74.9628 43.1672 70.3841 45.0892C68.0495 46.069 65.7667 47.17 63.442 48.1747C63.0667 48.3368 62.5965 48.3168 62.1701 48.3192C59.72 48.3325 57.2686 48.382 54.8206 48.314C51.7351 48.2289 49.0137 49.347 46.3273 50.6574C43.4633 52.0541 41.1634 54.2055 38.7971 56.2627C37.3156 57.551 35.6995 58.6154 33.9605 59.5158C33.5733 59.7162 32.941 59.8305 33.2598 60.5914C34.0245 61.0511 34.6912 60.6042 35.3444 60.2524C37.8887 58.8816 40.0403 56.9884 42.208 55.1085C45.1517 52.5559 48.4727 50.7071 52.3369 49.9379C52.8061 49.8733 53.3783 50.26 53.7179 49.6244C53.808 49.5959 53.8983 49.5947 53.9889 49.6213C54.1075 49.5585 54.2266 49.496 54.3452 49.4338Z" fill="#539837"/>
<path d="M102.502 77.9233C103.51 79.8239 102.919 81.2993 102.093 82.8671C100.679 81.9399 99.3622 81.9689 98.2573 83.2657C96.8157 83.0318 95.4366 82.7896 94.0518 82.5881C92.5593 82.3708 91.0661 82.1241 89.5646 82.0102C87.1323 81.826 84.6921 81.7488 82.2565 81.6088C81.0276 81.5379 79.8218 81.4612 78.5689 81.531C75.718 81.6913 73.0515 82.4868 70.353 83.2498C67.7623 83.9826 65.1802 84.7606 62.5585 85.3636C59.2507 86.1247 55.9068 86.1257 52.5922 85.3206C51.1791 84.9771 49.7638 84.6192 48.3857 84.1599C47.1777 83.7578 46.1609 83.0532 45.594 81.8256C44.9617 80.4564 45.3339 79.1905 46.7556 78.6124C47.7926 78.1902 48.9141 77.8957 50.0246 77.7489C53.0219 77.3536 56.0347 77.0712 59.0404 76.736C61.7812 76.4308 64.4577 75.8116 67.0673 74.9374C70.2122 73.8846 73.4537 73.4504 76.7372 73.1041C81.1683 72.6365 85.6046 72.5219 90.0514 72.4257C92.749 72.3677 95.4397 71.9881 98.138 71.9042C99.964 71.8476 101.798 72.0546 103.619 72.1435C104.206 73.4932 104.765 74.6643 103.74 75.886C102.409 76.4094 101.11 75.9771 99.8798 75.7111C93.7038 74.3764 87.4541 74.7123 81.2261 74.8628C78.991 74.9165 76.7576 75.5181 74.5476 75.9861C71.8328 76.5606 69.3544 77.7158 66.9145 79.0566C64.0602 80.6254 60.9417 81.5256 57.6389 81.6634C56.3977 81.7153 55.1571 81.8477 53.9245 82.0048C53.5258 82.0554 53.1527 82.3026 52.6763 82.497C53.1667 83.5077 54.0894 83.5688 54.7913 83.5084C57.2569 83.2971 59.7418 83.3568 62.1803 82.6855C64.7555 81.9767 67.1576 80.9413 69.5503 79.7802C73.0641 78.075 76.7873 77.0771 80.7138 76.6733C84.737 76.2599 88.7584 76.2827 92.7592 76.4993C96.0249 76.6764 99.2597 77.4275 102.502 77.9233Z" fill="#AA522A"/>
<path d="M73.2505 66.0211C73.8811 67.8969 73.6643 68.3583 71.9827 69.2535C69.3673 70.6456 66.5944 71.2722 63.6439 71.581C60.2762 71.9335 56.9133 71.9451 53.5727 71.7512C50.2652 71.5591 46.9099 71.2976 43.7685 69.9915C43.0291 69.6839 42.2326 69.5078 41.4546 69.2996C40.3588 69.0063 39.8692 69.2043 39.3251 70.2311C39.051 70.749 38.9196 71.3404 38.6676 71.8721C38.4513 72.328 38.1554 72.7459 37.9022 73.1681C36.9389 72.8346 36.6501 72.2624 36.7318 71.4712C36.8029 70.7776 36.8485 70.0768 36.985 69.3954C37.1252 68.6942 36.9232 68.1446 36.3774 67.4712C36.1238 67.8458 35.8141 68.1056 35.763 68.4092C35.2491 71.4666 35.0321 74.5091 36.2186 77.4977C36.3967 77.9471 36.3237 78.572 36.179 79.0603C35.4423 81.5444 33.8196 83.3934 31.7814 84.9095C30.9604 85.5199 30.045 86.015 29.2794 86.6846C28.5119 87.3553 27.8344 88.1433 27.1967 88.9431C26.423 89.9134 25.7121 90.9357 25.0132 91.9623C24.4696 92.7605 23.8657 93.5356 23.9222 94.6093C23.941 94.963 23.7435 95.3355 23.6151 95.6887C23.0782 97.1671 22.3375 97.6314 20.6485 97.5574C20.1631 97.0604 20.1182 96.5674 20.2786 95.8251C20.932 92.7995 22.5983 90.3101 24.2084 87.7646C25.4796 85.7547 27.2388 84.3031 29.1548 82.9701C30.9359 81.7312 32.0305 80.1375 31.8731 77.7967C31.7058 75.3135 31.6789 72.8044 32.1945 70.3533C32.4231 69.2658 32.8759 68.2005 33.3822 67.2043C33.8455 66.2932 34.3627 65.4449 34.4958 64.3905C34.5671 63.8245 34.9194 63.2942 35.145 62.7478C36.1759 62.3339 37.207 61.9201 38.2376 61.5063C39.5511 61.4756 40.8644 61.445 42.1777 61.4141C42.9815 61.6789 43.7852 61.9439 44.5891 62.2087C45.2877 63.2918 46.5401 63.647 47.4913 64.4009C48.4129 65.1314 49.4863 65.4793 50.6878 65.2576C50.883 65.5687 51.0784 65.8801 51.2904 66.2174C52.718 66.3232 54.1327 66.4285 55.5473 66.5335C56.263 67.0928 56.9782 67.1311 57.6939 66.5342C57.9263 66.535 58.1588 66.5361 58.3915 66.5369L58.47 66.4568C58.8553 66.2754 59.2403 66.0936 59.6251 65.9122C60.9584 66.4808 62.2928 67.0277 63.6698 66.134C63.9674 65.7273 64.2502 65.3415 64.5335 64.9555C65.0211 65.2809 65.5086 65.6058 65.9916 65.9279C67.0403 65.4416 68.1831 65.2388 68.4555 63.94C68.8857 64.1366 69.3685 64.2643 69.7357 64.5438C70.5051 65.129 71.3632 65.2866 72.286 65.2761C72.6073 65.5245 72.9291 65.7727 73.2505 66.0211Z" fill="#54B9DC"/>
<path d="M109.529 59.373C108.841 59.9432 108.164 60.5272 107.464 61.0813C105.349 62.7551 103.245 64.4442 101.091 66.0653C100.547 66.4743 99.8534 66.7805 99.1854 66.9081C97.6026 67.2102 95.9906 67.3545 94.3971 67.6046C92.3282 67.9288 90.2709 68.3315 88.1978 68.6252C87.1422 68.7745 85.9874 69.0357 85.0098 68.7662C82.4743 68.0681 79.9971 67.1446 77.5322 66.2169C76.9056 65.9811 76.4121 65.3935 75.8571 64.9676C75.8483 64.9151 75.8578 64.8454 75.8277 64.8129C74.7012 63.602 74.8938 62.3385 75.6691 61.0494C77.4861 60.4775 79.3042 60.5051 81.0731 61.1828C82.4848 61.7233 83.8689 61.9855 85.3195 61.382C85.4607 61.3233 85.6428 61.3627 85.8056 61.3565C86.1146 61.6449 86.4234 61.9334 86.8536 62.3349C88.0454 62.3349 89.4 62.3206 90.7539 62.3406C91.4668 62.3511 91.8682 62.0159 92.0399 61.3527C92.3077 61.5717 92.5759 61.7903 92.8765 62.0356C93.1889 61.8647 93.4917 61.6986 93.795 61.5324C97.0778 62.1695 99.8505 60.9986 102.405 59.0866C102.79 58.7978 103.113 58.4255 103.464 58.0923C103.702 57.9868 103.974 57.9245 104.17 57.7676C104.927 57.1638 105.613 56.4605 106.414 55.9262C107.287 55.3433 108.084 54.5494 109.244 54.5273C110.16 55.0893 110.253 55.9495 110.074 56.886C109.914 57.7191 109.712 58.5441 109.529 59.373Z" fill="#54B9DC"/>
<path d="M42.1754 61.4172C40.8622 61.4481 39.5487 61.4788 38.2354 61.5095C38.2052 60.8263 38.8432 60.7168 39.2287 60.4833C41.676 59.0006 44.1328 57.5305 46.6367 56.1464C48.5171 55.1067 50.4244 54.0841 52.4084 53.2691C54.4997 52.4098 56.7005 51.8655 59.0106 51.8874C61.7149 51.9123 64.4089 51.8194 67.077 52.5206C68.1398 52.7999 69.1673 53.0918 70.0425 53.7126C71.3441 54.6365 72.6757 55.5531 73.8116 57.0023C72.8238 57.289 72.0075 57.236 71.2521 57.1112C69.6879 56.8523 68.1578 56.8212 66.5933 57.1171C65.4859 57.3268 64.3462 57.394 63.2176 57.4594C59.3612 57.6819 55.7024 58.7869 52.0633 59.9523C49.9913 60.6165 47.8761 60.934 45.7225 61.1009C44.5391 61.1924 43.3577 61.311 42.1754 61.4172Z" fill="#539537"/>
<path d="M65.793 48.4317C66.9294 47.9463 68.0606 47.4491 69.2027 46.9775C72.2889 45.7037 75.4358 44.6058 78.6993 43.8789C79.5909 43.6802 80.5041 43.5323 81.4147 43.4753C83.7375 43.3303 86.0766 43.0484 88.3863 43.192C91.5477 43.3885 94.762 43.4373 97.8192 44.4266C99.9506 45.1166 102.077 45.8596 103.881 47.3942C103.263 47.3091 102.638 47.2587 102.028 47.1332C99.1173 46.5344 96.1996 45.987 93.2089 46.0723C89.9042 46.1662 86.591 46.1719 83.2994 46.4386C80.9869 46.6257 78.7918 47.4883 76.6882 48.4683C75.171 49.1752 73.7236 50.0319 72.2359 50.8037C72.0061 50.923 71.7256 50.9463 71.3995 51.0321C69.849 49.5698 67.7119 49.4864 65.8146 48.8096C65.8075 48.6837 65.8001 48.5574 65.793 48.4317Z" fill="#539537"/>
<path d="M108.611 52.1876C106.649 51.5824 104.879 50.9093 103.051 50.5021C100.293 49.8877 97.4889 49.7379 94.6712 50.1945C93.9798 50.3065 93.2612 50.2387 92.5577 50.2865C89.1624 50.5176 85.8119 50.896 82.6106 52.2216C80.3024 53.1774 78.4514 54.7138 76.6245 56.3244C76.1836 56.7133 75.7541 57.1145 75.2143 57.6056C74.7177 56.9301 74.2863 56.343 73.8789 55.7887C74.1753 54.7345 75.0838 54.4388 75.7769 53.9898C77.8624 52.638 79.9995 51.3642 82.1329 50.0876C84.1052 48.9072 86.2804 48.2996 88.5401 48.0037C89.7695 47.843 91.0141 47.7945 92.2515 47.6928C96.2985 47.3607 100.219 48.0531 104.08 49.1815C105.161 49.4976 106.25 49.829 107.27 50.2979C107.97 50.6202 108.69 51.1001 108.611 52.1876Z" fill="#539537"/>
<path d="M85.8045 61.3544C85.6414 61.3605 85.4593 61.3209 85.3184 61.3796C83.8675 61.9833 82.4834 61.7209 81.0717 61.1801C79.3028 60.5027 77.4847 60.4751 75.668 61.047V58.9938C79.1611 55.4648 82.9937 52.4627 88.2558 51.9704C88.9556 51.9053 89.6504 51.791 90.3475 51.6992L90.3014 51.7924L90.3649 51.8744C89.7675 52.5022 89.1647 53.1254 88.5736 53.7588C86.577 55.8988 85.7006 58.4488 85.8045 61.3544Z" fill="#F6F6F6"/>
<path d="M72.2846 65.2764C71.3619 65.2867 70.5041 65.1288 69.7349 64.5439C69.3674 64.2646 68.8846 64.1365 68.4539 63.9404C67.1556 61.2123 64.7925 59.7137 62.3711 58.5426C66.2455 58.2093 70.3213 57.6541 74.4498 58.5597C74.6428 61.1957 74.4524 63.5494 72.2846 65.2764Z" fill="#F6F6F6"/>
<path d="M109.241 54.5295C108.08 54.5511 107.283 55.345 106.41 55.9278C105.61 56.4626 104.924 57.1657 104.166 57.7695C103.97 57.9263 103.698 57.9884 103.461 58.0944C102.942 55.6649 102.048 53.443 99.8984 51.9559C100.316 51.178 100.907 51.3795 101.392 51.4751C104.187 52.0263 107.099 52.2966 109.241 54.5295Z" fill="#F6F6F6"/>
<path d="M72.8398 54.3471C72.2544 53.9073 71.7379 53.5197 71.0742 53.021C74.8476 49.7491 79.0703 48.4085 83.5729 47.7266C79.9849 49.9397 76.3974 52.1527 72.8398 54.3471Z" fill="#539537"/>
<path d="M50.6849 65.2599C49.4832 65.4816 48.41 65.1336 47.4884 64.4032C46.5369 63.6492 45.2845 63.2941 44.5859 62.2112C47.5547 62.1368 50.476 61.7838 53.2922 60.7736C53.5223 60.6914 53.8128 60.7774 54.0754 60.7853L54.0333 60.7494C52.8318 62.1893 51.3697 63.4367 50.6849 65.2599Z" fill="#F6F6F6"/>
<path d="M64.5295 64.9545C64.2466 65.3403 63.9635 65.7263 63.6655 66.1326C62.2887 67.0265 60.9543 66.4796 59.6211 65.9113C59.6406 65.2029 59.7114 64.5307 60.2557 63.9733C61.8219 62.3701 63.5992 62.7687 64.5295 64.9545Z" fill="#F6F6F6"/>
<path d="M95.6824 91.8627C94.2948 89.2766 96.1241 86.8937 95.8324 84.2969C96.45 84.4447 96.9294 84.5595 97.5495 84.7078C97.4093 86.4131 97.3504 88.076 97.1031 89.7106C96.99 90.4601 96.826 91.3402 95.6824 91.8627Z" fill="#539537"/>
<path d="M97.0319 55.2388C98.1747 55.2202 98.9349 55.7313 98.9449 56.5249C98.9556 57.4227 97.9465 58.4358 97.0628 58.4139C96.1905 58.3925 95.2756 57.5042 95.247 56.6512C95.2176 55.7767 95.8738 55.2575 97.0319 55.2388Z" fill="#F6F6F6"/>
<path d="M62.5352 49.7305C64.6839 50.1495 66.8384 50.5415 68.9764 51.0088C69.4302 51.1077 70.0891 51.1978 70.0515 52.0083C67.5234 51.5082 65.0295 51.0152 62.5352 50.522V49.7305Z" fill="#539537"/>
<path d="M57.3021 64.278C56.6173 64.0937 55.719 64.0595 55.681 63.069C55.6427 62.0662 56.4459 61.7524 57.2493 61.5547C58.6565 62.5264 58.6722 63.1724 57.3021 64.278Z" fill="#F6F6F6"/>
<path d="M92.2965 60.0546C91.7854 59.8407 91.2741 59.6268 90.5078 59.3061C91.0583 58.6888 91.4175 58.2862 91.8501 57.8008C92.281 58.1999 92.5788 58.4754 92.8943 58.7675C92.6554 59.2655 92.4576 59.6771 92.2599 60.0891L92.2965 60.0546Z" fill="#F6F6F6"/>
<path d="M91.2758 56.811C90.644 56.4543 90.2416 56.0262 90.4793 55.3516C90.6806 54.7795 91.2551 54.7842 91.7096 54.8931C92.0152 54.9663 92.4552 55.2703 92.493 55.522C92.6085 56.2974 92.0766 56.6508 91.2758 56.811Z" fill="#F6F6F6"/>
<path d="M93.7942 61.5346C93.4911 61.7007 93.1883 61.8664 92.876 62.0375C92.5753 61.7925 92.3072 61.5733 92.0391 61.3546C92.1249 60.9213 92.2107 60.4882 92.2967 60.0547L92.2601 60.0892C93.1814 60.1367 93.6946 60.6161 93.7942 61.5346Z" fill="#F6F6F6"/>
<path d="M57.6935 66.5321C56.9778 67.1292 56.2623 67.0907 55.5469 66.5314C56.3603 65.3798 56.8475 65.3803 57.6935 66.5321Z" fill="#F6F6F6"/>
<path d="M62.534 49.7305V50.522C61.9538 50.5812 61.2761 50.8386 61.0781 49.7305H62.534Z" fill="#539837"/>
<path d="M89.3369 83.9699C89.2259 83.7443 89.1149 83.5188 89.0039 83.293H90.1729C90.1912 83.38 90.2095 83.4674 90.2278 83.5544C89.9307 83.693 89.634 83.8316 89.3369 83.9699Z" fill="#539537"/>
<path d="M53.7172 49.6289C53.3773 50.264 52.8054 49.8778 52.3359 49.9422C52.7964 49.8378 53.257 49.7333 53.7172 49.6289Z" fill="#539537"/>
<path d="M99.0894 51.2539C99.3224 51.2993 99.5556 51.3442 99.7885 51.3896C99.7742 51.4747 99.7604 51.5601 99.7464 51.6452C99.4926 51.6078 99.2382 51.5708 98.9844 51.5334C99.0196 51.4403 99.0543 51.3471 99.0894 51.2539Z" fill="#54B9DC"/>
<path d="M54.0811 60.7822C54.1002 60.7063 54.1189 60.6305 54.1382 60.5547C54.1051 60.6186 54.0721 60.6823 54.0391 60.7463L54.0811 60.7822Z" fill="#F6F6F6"/>
<path d="M90.3645 51.8744L90.3008 51.7924L90.3469 51.6992C90.4337 51.7163 90.5204 51.7334 90.6069 51.7503C90.5261 51.7917 90.4453 51.833 90.3645 51.8744Z" fill="#54B9DC"/>
<path d="M58.4693 66.454L58.3906 66.5345L58.3968 66.4492L58.4693 66.454Z" fill="#F6F6F6"/>
<path d="M56.6562 50.6049C56.7623 50.5972 56.868 50.5896 56.974 50.582L56.8174 50.6205L56.6562 50.6049Z" fill="#539537"/>
<path d="M45.4557 45.6851C39.6072 45.8781 34.6361 47.9608 30.9354 52.7794C30.8425 52.6781 30.7493 52.5769 30.6564 52.4754C30.6721 52.2011 30.6105 51.8925 30.7148 51.6575C31.6908 49.4621 33.5389 48.1327 35.546 47.0276C38.3204 45.5002 41.3348 44.6961 44.4816 44.4173C46.2025 44.2644 47.9306 44.1337 49.6565 44.1111C53.0686 44.0662 56.2827 44.8841 59.2681 46.5527C59.5971 46.7365 59.9142 46.9456 60.2142 47.1726C60.3299 47.2603 60.3825 47.431 60.5108 47.6402C59.3901 47.6979 58.4486 47.3036 57.4964 46.963C55.5613 46.2706 53.5948 45.7251 51.5202 45.6816C50.8038 45.5779 50.0834 45.3697 49.3712 45.3933C48.0651 45.436 46.7224 45.1068 45.4557 45.6851Z" fill="#090C09"/>
<path d="M45.4531 45.6829C46.7198 45.1046 48.0625 45.4338 49.3687 45.3911C50.0808 45.3675 50.8013 45.5757 51.5177 45.6794C49.4963 45.6808 47.4745 45.682 45.4531 45.6829Z" fill="#539537"/>
</g>
<defs>
<clipPath id="clip0_1054_658">
<rect width="150" height="110" fill="white"/>
</clipPath>
</defs>
</svg>
