<svg width="150" height="110" viewBox="0 0 150 110" fill="none" xmlns="http://www.w3.org/2000/svg">
<g clip-path="url(#clip0_1054_739)">
<path d="M43.0442 56.1835L37.7695 47.744L46.4435 40.3594L99.6595 40.8282L109.388 44.4619C111.615 44.4619 113.491 50.6744 111.733 54.4253C110.326 57.426 96.69 60.3642 90.0478 61.4582L70.5899 64.3886L43.0442 56.1835Z" fill="#D9D9D9"/>
<path d="M99.5509 47.4725C99.7335 48.4437 99.9433 49.0678 101.051 49.1986C101.212 48.5774 101.367 47.9732 101.63 46.9504C100.685 47.1874 100.15 47.3218 99.5509 47.4725ZM70.3808 49.2275C69.3751 47.7119 69.0438 47.6997 68.0934 49.1325C68.3877 49.5369 68.7093 49.9802 69.1526 50.5907C69.6728 50.0133 70.0397 49.6058 70.3808 49.2275ZM99.0961 44.9765C99.7734 45.8695 100.519 46.0943 101.302 45.4937C101.61 45.2574 101.847 44.69 101.828 44.2877C101.799 43.655 101.258 43.4396 100.67 43.4574C99.7691 43.4839 99.304 44.0027 99.0961 44.9765ZM69.1493 44.2899C68.4317 44.7001 67.7261 45.1476 68.0334 46.0612C68.1661 46.4562 68.7909 46.9045 69.196 46.9087C69.5919 46.9131 70.205 46.4649 70.3487 46.0706C70.6687 45.1905 70.1339 44.6326 69.1493 44.2899ZM73.1323 49.2877C74.3659 48.4977 74.7089 47.969 74.4482 47.2378C74.1894 46.5144 73.6281 46.2544 72.9239 46.3268C72.1707 46.4051 71.7489 46.9584 71.7006 47.6429C71.631 48.6404 72.2689 49.1231 73.1323 49.2877ZM104.343 48.6083C105.162 48.5975 105.784 47.8504 105.78 46.8815C105.776 45.9742 105.224 45.3544 104.405 45.3387C103.424 45.32 102.592 46.0504 102.608 46.9174C102.625 47.8288 103.437 48.6198 104.343 48.6083ZM110.503 46.0964C110.582 46.0038 110.662 45.9119 110.742 45.8198C110.572 45.5497 110.449 45.2229 110.223 45.0175C108.772 43.7017 107.325 42.3966 105.479 41.6309C104.013 41.0231 102.685 39.9995 101.186 39.5557C98.3264 38.7097 95.3564 38.9781 92.4396 39.2993C90.3433 39.5307 88.3755 40.3165 86.4825 41.2924C83.9708 42.5876 81.4296 43.8238 78.915 45.1146C78.3238 45.4184 77.6306 45.7042 77.6224 46.6782C78.5859 46.8585 79.4896 47.028 80.2743 47.1752C80.8655 46.4419 81.231 45.6582 81.8349 45.297C84.5836 43.6513 87.5332 42.485 90.7025 42.0553C91.568 41.9376 92.5156 41.7932 93.3935 42.3851C91.6027 43.4661 89.4579 42.9806 87.6267 43.8346C85.8005 44.6872 83.8327 45.2409 82.2721 46.6768C82.8786 46.7221 83.4553 46.6782 83.9973 46.513C87.5194 45.4369 91.0415 44.3602 94.5483 43.234C97.8967 42.1589 101.248 41.6905 104.698 42.7405C105.886 43.1027 107.025 43.4494 107.99 44.3389C108.739 45.0276 109.659 45.5173 110.503 46.0964ZM107.873 63.3034C107.283 62.614 106.589 62.3512 105.782 62.4194C104.616 62.5176 103.454 62.708 102.286 62.7382C98.0062 62.851 93.7576 63.208 89.5081 63.8049C85.4531 64.3753 81.3529 64.7543 77.2632 64.8788C73.3456 64.9979 69.636 66.0144 65.8956 66.9667C64.5763 67.3028 63.312 67.8645 62.0903 68.2999C63.4374 69.7796 64.6801 71.1435 65.9031 72.4861C66.3704 72.3494 66.7755 72.277 67.1445 72.1169C72.0919 69.9749 77.3 68.9103 82.5942 68.2971C85.6903 67.9379 88.7033 67.341 91.6412 66.2685C94.3404 65.2832 97.1116 65.0024 99.9379 65.6581C101.531 66.0273 103.125 66.3979 104.722 66.7477C106.806 67.2037 107.999 66.178 107.978 63.958C107.976 63.7231 107.904 63.4889 107.873 63.3034ZM97.3592 43.8224C96.4979 43.9645 96.09 43.9846 95.71 44.1016C91.6564 45.3537 87.6392 46.7486 83.5446 47.834C81.2896 48.4309 80.1146 49.728 79.6976 51.9576C79.5991 52.4832 79.5079 53.0098 79.3801 53.7224C79.9632 54.1053 80.5155 54.5254 81.1152 54.8522C83.369 56.0813 85.8507 56.2156 88.3204 56.3699C93.51 56.6953 98.6807 56.7642 103.719 55.1007C104.274 54.9176 104.868 54.8651 105.437 54.7199C107.608 54.1641 109.763 53.5651 111.341 51.8901C111.589 48.9422 110.801 47.6565 108.522 47.2758C108.471 47.7533 108.506 48.259 108.353 48.6937C107.917 49.9263 107.638 51.3261 106.87 52.3044C105.338 54.2532 101.321 54.7711 99.1652 53.5708C96.9665 52.3468 95.7986 49.5557 96.4533 47.059C96.7058 46.0978 96.9874 45.1453 97.3592 43.8224ZM70.1325 77.1468C72.4567 76.8632 74.8275 76.5183 77.2095 76.2942C81.8703 75.854 86.4497 74.9526 91.0065 73.8925C94.2764 73.131 97.5425 73.0068 100.884 73.6015C102.985 73.9757 105.278 74.2551 106.83 71.8782C107.214 70.5293 106.813 69.3515 105.562 68.5535C105.076 68.2438 104.499 68.0441 103.938 67.9077C102.351 67.5227 100.765 67.0135 99.1533 66.8877C96.6563 66.6931 94.1662 66.5208 91.6955 67.5729C89.7207 68.414 87.5667 68.8616 85.4566 69.3011C83.1723 69.7758 80.8397 69.9979 78.5421 70.4095C76.879 70.7068 75.2488 71.2047 73.5834 71.487C71.3549 71.8646 69.3062 72.6713 67.3111 73.8873C68.1926 74.9059 69.0452 75.8915 70.1325 77.1468ZM66.6214 43.5976C66.1828 43.4696 65.9095 43.3231 65.634 43.3202C63.0485 43.2959 60.4613 43.2677 57.8757 43.3102C57.3082 43.3195 56.7036 43.5162 56.1862 43.7755C53.1095 45.3178 50.1765 47.1091 47.5758 49.4169C47.0701 49.8651 46.7229 50.5023 46.0946 51.3254C46.5386 51.6069 46.8253 51.8146 47.1336 51.9806C50.4682 53.7761 53.788 55.6028 57.1504 57.3425C59.091 58.3466 61.2033 58.6403 63.3511 58.3539C67.9345 57.7418 72.3381 56.5553 76.386 54.1261C78.6 52.7978 79.4041 50.8959 79.2233 48.2475C78.6 47.9674 77.9918 47.6945 77.3225 47.3942C77.0485 48.6484 76.8148 49.7043 76.5883 50.7616C76.1684 52.7212 74.9571 53.8767 73.1581 54.5563C69.5021 55.9383 64.4883 54.218 65.1989 48.3108C65.2917 47.541 65.5754 46.7917 65.8035 46.0439C66.0454 45.2531 66.3265 44.4753 66.6214 43.5976ZM73.9153 90.1679C83.5633 88.3199 92.8984 86.3898 101.83 82.9837C101.92 81.4789 101.849 80.1853 102.111 78.9677C102.376 77.736 102.97 76.5788 103.468 75.263C102.508 75.1861 101.789 75.2219 101.118 75.0574C98.7545 74.4793 96.3572 74.4699 94.0038 74.8464C89.9167 75.5 85.8709 76.4178 81.7894 77.1161C79.1431 77.5686 76.5067 78.1877 73.7913 78.0907C73.0444 78.0642 72.2961 78.0864 71.5487 78.0864C71.4217 78.2149 71.2948 78.3436 71.168 78.4714C72.6803 79.9605 73.5618 81.7396 73.8839 83.7609C74.2048 85.7749 74.651 87.7919 73.9153 90.1679ZM142.656 83.1143C142.897 80.6837 141.776 78.2897 139.677 76.3022C137.907 74.6258 136.21 72.861 134.38 71.257C131.976 69.1511 129.412 67.2684 126.294 66.408C125.623 66.2226 124.93 66.1084 124.241 66.0207C121.827 65.7169 119.682 66.5243 117.877 68.0622C115.066 70.4555 112.025 72.4301 108.807 74.1811C107.703 74.7817 106.719 75.7628 105.917 76.7699C104.509 78.5354 104.014 80.5782 104.887 82.817C105.228 83.6941 105.523 84.5912 105.864 85.4689C106.305 86.6038 107.033 87.3854 108.283 87.5657C109.639 87.761 110.453 86.8889 110.969 85.8907C112.227 83.4528 113.467 80.9927 114.02 78.2379C114.158 77.5505 114.508 76.869 114.899 76.2837C115.591 75.2491 116.689 75.2808 117.346 76.3388C117.619 76.7786 117.831 77.3386 117.846 77.8508C117.895 79.4253 118.055 81.0494 117.756 82.5664C117.449 84.1172 117.878 85.2765 118.704 86.4121C121.128 89.7464 124.308 92.2006 127.595 94.5501C130.862 96.8839 135.584 96.3048 138.184 93.0821C138.559 92.6165 139.011 92.2194 139.419 91.7805C141.523 89.5115 142.701 86.8502 142.656 83.1143ZM79.2728 43.1271C79.7093 42.9754 80.169 42.8713 80.5783 42.6629C82.7358 41.5648 84.859 40.3917 87.0367 39.3389C89.1665 38.3088 91.3615 37.5352 93.7923 37.6128C94.8454 37.6465 95.9087 37.3104 97.3906 37.0748C96.7539 36.6014 96.5155 36.2861 96.2365 36.2416C95.1389 36.0648 94.0281 35.8637 92.9242 35.8745C90.7555 35.8953 88.5877 36.1288 86.4197 36.1337C83.5746 36.1403 80.8697 36.9397 78.1278 37.5209C76.0847 37.9539 74.0696 38.5228 71.8821 39.0709C71.91 38.5409 71.9295 38.1616 71.9524 37.7328C73.3958 37.3254 74.7297 36.8687 76.0972 36.5792C79.5825 35.84 83.0621 35.0148 86.5835 34.5443C88.5778 34.2778 90.6071 33.7104 92.69 34.2749C93.3448 34.4524 94.1299 34.1212 94.8252 34.0271C94.9047 32.9166 94.3873 32.4569 93.7107 32.143C91.5729 31.1504 89.377 30.2101 87.0341 30.0456C80.5511 29.591 74.612 31.1734 69.4846 35.4607C68.348 36.4111 66.9904 36.9074 65.5733 36.8141C63.7665 36.6954 62.0653 36.1525 60.4083 35.2474C56.8499 33.3046 53.1053 32.1969 48.9493 32.8426C45.5324 33.3736 42.3318 34.3933 39.4065 36.2444C35.0316 39.0142 31.276 42.579 27.5865 46.2213C25.8974 47.8893 24.8418 49.9608 23.9415 52.1292C23.1703 53.9866 22.9004 55.9439 22.9806 57.9652C23.0043 58.5599 23.2275 59.2876 22.2443 59.858C21.9507 57.6032 21.6781 55.5095 21.3532 53.0084C20.535 53.7503 19.9152 54.1289 19.5408 54.6827C17.8609 57.1679 16.3429 59.7661 15.5674 62.7138C14.7907 65.666 14.1554 68.6583 13.4622 71.6342C12.8004 74.4743 12.712 77.3653 12.7085 80.2699C12.7071 81.1952 12.9331 81.9257 13.6324 82.5038C14.2712 83.0325 14.8688 83.6193 15.5367 84.105C17.8993 85.8222 20.5463 86.9515 23.2818 87.8393C26.2406 88.7988 29.2238 89.074 32.16 87.6991C32.6036 85.1888 32.1335 82.4464 34.0938 80.3649C34.3072 80.1387 34.2903 79.6874 34.3909 79.3435C35.0859 76.9631 35.9639 74.7472 37.7071 72.8638C39.8571 70.5408 42.3395 68.7711 45.0744 67.361C46.8811 66.4296 48.7981 65.2916 50.6536 67.2203C53.4701 66.1954 56.1916 66.1616 58.8589 67.1765C60.0625 67.6341 61.1036 67.5119 62.2373 67.0213C66.3537 65.2408 70.6567 64.0979 75.0779 63.5765C78.6844 63.1513 82.3265 63.0479 85.951 62.7842C86.6485 62.734 87.3407 62.6039 88.0347 62.5068C89.8874 62.2482 91.7333 61.887 93.5944 61.7513C96.5816 61.5337 99.5849 61.54 102.569 61.2946C103.698 61.201 105.011 60.9612 105.86 60.2839C107.804 58.7332 109.522 56.8828 111.305 55.1251C111.542 54.8911 111.626 54.4916 111.861 54.0033C110.237 54.5491 108.888 55.0871 107.495 55.449C105.805 55.8879 104.083 56.2091 102.365 56.5244C100.758 56.8202 99.1444 57.1817 97.5209 57.2649C94.9916 57.3941 92.4521 57.3252 89.9167 57.3189C86.3791 57.3095 82.899 56.918 79.6256 55.419C78.63 54.9628 77.7227 54.9973 76.7576 55.48C72.6909 57.5127 68.5189 59.1432 63.9515 59.6266C61.3699 59.9002 58.914 59.7351 56.6164 58.5342C53.5859 56.9496 50.6006 55.2688 47.6468 53.5391C46.6502 52.9559 45.5639 52.3728 45.0758 51.2485C45.1747 50.0808 45.7744 49.2748 46.5471 48.5931C48.7324 46.6668 51.035 44.9156 53.5495 43.4532C55.4524 42.3462 57.4315 41.8328 59.6183 41.9763C61.1454 42.0768 62.6844 41.972 64.2157 42.0201C64.9694 42.0438 65.7177 42.214 66.4702 42.3061C69.5237 42.6817 72.3779 43.7441 75.1775 44.9894C75.5819 45.1697 75.9725 45.526 76.5679 44.8143C75.7521 44.4544 75.0464 44.0887 74.3073 43.8266C71.1052 42.6931 67.8871 41.6056 64.6914 40.4557C64.2673 40.3033 63.5595 40.21 63.8162 39.2951C64.5594 38.9345 65.3543 39.002 66.1341 39.2958C67.284 39.7288 68.4088 40.233 69.5615 40.6583C72.2551 41.6523 74.9677 42.594 77.6538 43.6098C78.3873 43.8876 78.8768 43.7232 79.2946 43.1076L79.2728 43.1271ZM53.8034 86.4559C53.6904 86.3265 53.5781 86.1973 53.4659 86.0679C53.3571 85.9467 53.2483 85.8246 53.1395 85.7031C52.774 85.2233 52.4088 84.7443 52.0433 84.2644C51.9416 84.1343 51.8391 84.0037 51.7372 83.8736C51.5149 83.5956 51.2917 83.3178 51.0693 83.0397C51.0503 82.8379 51.0308 82.6361 51.0121 82.4335C51.314 82.3688 51.7053 82.1498 51.901 82.2696C52.346 82.542 52.719 82.9579 53.0809 83.3537C57.0709 87.715 61.0506 92.0858 65.0421 96.445C65.3822 96.8164 65.7909 97.1223 66.2227 97.5079C68.371 95.3561 70.2336 93.1681 71.0091 90.3196C72.1289 86.2015 71.8338 82.3264 68.544 79.1733C67.735 78.3982 67.0753 77.4586 66.3368 76.6039C65.0615 75.1265 63.9424 73.4449 62.4647 72.2259C59.0786 69.4333 55.3228 68.3587 51.0803 70.3254C50.1168 70.7715 49.425 71.2844 48.8733 72.1945C47.1022 75.1171 45.2251 77.9594 42.6764 80.2636C41.3647 81.4494 39.9769 82.3573 38.1729 82.4628C37.7343 82.4881 37.3091 82.7437 36.9004 82.886C36.9827 84.9086 36.9841 86.8279 37.1639 88.7292C37.3034 90.2103 37.4192 91.7784 37.9779 93.1166C39.4785 96.713 41.3061 100.051 44.4168 102.621C46.2013 104.095 47.918 104.127 49.8209 103.796C52.5007 103.329 55.1702 102.767 57.8087 102.1C60.1964 101.497 62.3658 100.35 64.4996 98.7026C63.5623 97.5089 62.7275 96.3695 61.8149 95.3015C60.4182 93.6668 58.9797 92.0684 57.5353 90.4776C56.4239 89.2536 55.2768 88.0641 54.1457 86.8596C54.0313 86.7253 53.9171 86.5902 53.8034 86.4559ZM112.538 99.9214C112.996 99.9812 113.512 99.9207 113.903 100.12C115.581 100.979 117.364 101.203 119.173 101.005C120.694 100.839 122.269 100.691 123.504 99.5538C123.704 99.5292 123.905 99.5055 124.105 99.4818C124.075 99.4057 124.044 99.3297 124.013 99.2535C123.85 99.3604 123.686 99.4675 123.522 99.5744C121.934 99.5751 120.343 99.533 118.757 99.5925C117.691 99.6328 116.78 99.2845 116.022 98.5983C114.609 97.3192 113.31 95.9457 112.536 94.107C111.87 92.5267 111.051 91.0149 110.228 89.3253C108.717 89.7895 107.212 88.8722 105.618 89.2623C105.25 92.3169 105.886 94.8539 107.955 96.9312C109.391 98.2161 110.437 100.008 112.538 100.798V99.9214ZM40.3389 80.2055C40.6924 80.0402 41.1366 79.9633 41.3856 79.6946C42.9886 77.965 44.6001 76.2375 46.1028 74.4167C46.8497 73.5125 47.4063 72.4315 47.9745 71.3878C48.1454 71.0746 48.0681 70.6177 48.1203 70.0597C47.1718 70.0597 46.3574 70.0086 45.5554 70.0905C45.3053 70.1165 45.0896 70.5021 44.8582 70.7234C44.6615 70.76 44.4641 70.7959 44.2677 70.8317C44.0954 70.8369 43.8588 70.768 43.7613 70.8585C42.0842 72.4186 40.2491 73.8486 38.8237 75.6256C37.8837 76.7971 37.5386 78.4744 36.9276 79.9253C36.745 80.6535 37.1815 80.9137 37.7498 80.9646C38.2594 81.0098 38.7789 80.9367 39.2942 80.9158C39.4227 80.8246 39.5516 80.7334 39.6806 80.642C39.8995 80.4962 40.1192 80.3513 40.3389 80.2055ZM40.424 100.278C40.3285 100.002 40.2915 99.6816 40.1283 99.4582C38.0621 96.634 36.7246 93.4548 35.7721 90.0847C35.7693 88.9331 35.823 87.7783 35.7484 86.6319C35.676 85.5069 36.0783 84.309 35.2723 82.8703C34.5163 85.5076 34.3991 87.7783 35.0234 90.084C35.0086 92.7122 35.9988 95.0652 36.9757 97.406C37.4973 98.6573 38.0316 99.9416 39.1953 100.762C39.6667 101.359 40.1075 101.986 40.6199 102.543C41.0843 103.047 41.6074 102.976 42.2886 102.491C41.6102 101.685 41.0166 100.981 40.424 100.278ZM7.84805 111.163C7.31964 111.188 6.79099 111.214 6.13623 111.247C6.10059 110.746 6.04011 110.284 6.0387 109.822C6.03026 107.03 6.11255 104.236 6.01901 101.448C5.80005 94.9221 7.49194 88.8506 10.0887 83.0053C10.6715 81.6922 10.9904 80.4122 10.9686 78.9878C10.8612 72.0156 12.4302 65.4068 15.1553 59.0649C16.6099 55.679 18.6342 52.7742 21.7177 50.7027C22.5755 50.1267 23.2239 49.1857 23.8871 48.3446C27.8422 43.3266 32.137 38.6694 37.6248 35.4133C39.8522 34.0919 42.2272 32.9354 44.6643 32.1086C49.6404 30.4214 54.6242 30.5233 59.4607 32.8512C60.6859 33.4411 61.9375 33.9746 63.183 34.5185C65.0749 35.3437 66.7373 35.1332 68.4463 33.7857C72.2544 30.784 76.5477 28.9562 81.392 28.5065C84.2329 28.2421 87.0374 28.0913 89.8051 28.9158C91.0464 29.2851 92.2652 29.7403 93.4821 30.1907C95.0929 30.7868 96.1626 31.9004 96.5112 33.6743C96.5565 33.9071 96.6631 34.1277 96.763 34.4142C97.154 34.6306 97.5718 34.846 97.9748 35.0872C99.6986 36.1216 101.422 37.1566 103.139 38.2047C104.15 38.8224 105.074 39.7166 106.163 40.0485C109.591 41.0936 111.414 43.81 113.059 46.709C114.638 49.4938 114.722 52.3871 112.983 55.141C112.026 56.6552 110.863 58.0327 109.774 59.455C109.383 59.9663 108.933 60.4305 108.47 60.9612C109.281 62.1615 110.04 63.3386 109.708 64.7215C109.42 65.9188 108.848 67.0436 108.279 68.5198C108.476 69.0728 108.797 69.9669 109.181 71.0394C110.608 69.9404 111.962 68.8939 113.321 67.853C114.36 67.0571 115.328 66.1178 116.461 65.5043C119.975 63.6023 123.647 62.978 127.545 64.2768C133.842 66.3742 138.599 70.6062 142.677 75.7571C143.394 76.6627 143.921 77.8466 144.188 78.9878C145.065 82.7416 145.615 86.5551 143.769 90.188C142.083 93.5057 140.029 96.5606 136.439 97.9526C135.196 98.4353 133.799 98.4935 132.48 98.7788C131.737 98.9396 130.931 99.0259 130.285 99.3913C127.475 100.981 124.473 102.035 121.401 102.877C119.575 103.377 118.288 104.307 117.491 106.157C116.733 107.914 115.655 109.524 114.741 111.156H112.649C113.894 108.939 115.585 106.984 116.456 104.517C113.86 103.736 111.432 102.813 109.385 101.141C106.244 98.5762 103.895 95.5207 104.034 91.0779C104.058 90.321 103.986 89.5602 103.957 88.7702C102.442 88.7838 101.329 89.27 100.322 90.0242C99.3263 90.7706 98.3562 91.5527 97.3878 92.3371C96.8774 92.7501 96.4046 93.2415 95.4017 92.6078C97.4379 89.8612 100.031 87.8946 102.903 86.1132C102.638 85.4898 102.438 85.0221 102.191 84.4402C92.8865 87.9363 83.4337 90.1442 73.7522 91.2282C73.6406 91.4228 73.536 91.5693 73.465 91.7315C71.161 97.0023 67.2073 100.544 62.2528 103.017C59.0688 104.607 55.76 105.755 52.2156 106.211C49.8057 106.521 47.4377 106.66 45.0394 106.16C43.7641 105.894 42.4684 105.785 41.3228 106.714C39.4813 108.206 37.618 109.671 35.7639 111.147C34.9347 111.153 34.1056 111.157 33.2766 111.163C34.1112 110.345 34.9249 109.504 35.7848 108.715C37.0845 107.523 38.4158 106.367 39.7727 105.161C37.6919 102.968 36.003 100.653 34.6844 98.0992C33.3469 95.5092 32.8832 92.5872 32.2932 89.7297C29.5752 90.6621 27.0787 91.5011 24.5942 92.3774C22.9318 92.9642 21.2826 93.5899 19.6376 94.2261C18.9962 94.4739 18.6216 94.3274 18.4732 93.5331C19.1174 92.6078 19.9904 91.9212 21.0573 91.5011C22.0351 91.1155 23.0273 90.7692 24.0133 90.4049C24.0098 90.2677 24.0065 90.1299 24.003 89.9921C23.065 89.5424 22.1397 89.0597 21.1858 88.6488C18.4354 87.4621 15.5395 86.5951 13.1846 84.5661C12.8508 84.2773 12.2692 84.2916 11.6953 84.1371C10.9039 86.5808 10.1806 88.804 9.46304 91.0278C8.44022 94.1975 7.81687 97.4491 7.78475 100.791C7.75193 104.248 7.82226 107.705 7.84805 111.163Z" fill="#0B0C0B"/>
<path d="M35.7656 111.149C37.62 109.672 39.4825 108.207 41.3247 106.715C42.4704 105.786 43.7661 105.895 45.0414 106.161C47.4389 106.661 49.8069 106.522 52.2176 106.212C55.7619 105.756 59.0707 104.609 62.2547 103.018C67.209 100.545 71.1622 97.0034 73.4669 91.7327C73.5379 91.5702 73.6418 91.4237 73.7541 91.2291C83.4349 90.1451 92.8884 87.9372 102.192 84.4414C102.44 85.0233 102.64 85.4907 102.905 86.1143C100.032 87.8955 97.4399 89.8622 95.4036 92.609C96.4065 93.2417 96.8791 92.7511 97.3897 92.3382C98.3581 91.5538 99.3282 90.7708 100.324 90.0253C101.33 89.2712 102.444 88.7847 103.958 88.7711C103.988 89.5612 104.06 90.3219 104.036 91.0791C103.897 95.5216 106.246 98.5772 109.387 101.142C111.434 102.814 113.862 103.737 116.458 104.517C115.587 106.985 113.895 108.94 112.651 111.156C112.122 111.177 111.593 111.216 111.063 111.216C86.4926 111.22 61.9221 111.22 37.3513 111.217C36.8229 111.216 36.2943 111.172 35.7656 111.149Z" fill="#0642F2"/>
<path d="M7.8485 111.162C7.82342 107.705 7.75309 104.247 7.78591 100.791C7.81709 97.4494 8.44068 94.1969 9.4635 91.0278C10.1818 88.8033 10.9043 86.5802 11.6958 84.1367C12.2703 84.2919 12.851 84.2774 13.1858 84.5655C15.54 86.5947 18.4366 87.4617 21.1867 88.6481C22.1409 89.0598 23.0655 89.5418 24.0032 89.9921C24.0074 90.1293 24.0109 90.2671 24.0144 90.4052C23.0284 90.7686 22.0361 91.1155 21.0578 91.5005C19.9909 91.9208 19.1186 92.6074 18.4736 93.5332C18.622 94.327 18.9974 94.4735 19.6381 94.2257C21.2831 93.5892 22.933 92.9635 24.5954 92.3768C27.0792 91.5005 29.5756 90.6617 32.2936 89.7293C32.8844 92.5873 33.3481 95.5085 34.6855 98.0995C36.0042 100.653 37.6923 102.968 39.7732 105.161C38.416 106.367 37.0849 107.522 35.7852 108.715C34.926 109.503 34.1116 110.345 33.2768 111.162C26.8016 111.181 20.3264 111.204 13.8504 111.215C11.8498 111.217 9.84914 111.181 7.8485 111.162Z" fill="#0642F2"/>
<path d="M44.274 44.0423C45.0509 44.4178 45.4072 43.926 45.7431 43.5467C46.6825 42.4849 47.872 41.8939 49.1712 41.4788C49.7814 41.2832 50.4034 41.1175 50.9967 40.8753C51.5317 40.6578 51.8824 40.2914 51.5169 39.65C48.8601 39.2751 44.7677 41.7338 44.274 44.0423ZM41.7658 41.0493C42.6995 40.6578 43.4352 40.3654 44.1581 40.0429C47.3532 38.6199 50.639 37.6165 54.1639 37.6453C55.5196 37.6568 56.8793 37.6739 58.2308 37.5872C59.2133 37.5239 60.186 37.2946 61.1629 37.1404C61.154 36.9946 61.1441 36.8487 61.1343 36.7029C59.7131 36.5512 58.2927 36.2819 56.8709 36.2748C54.8808 36.2655 52.8837 36.3789 50.9013 36.5721C48.1322 36.8415 45.5228 37.7136 43.122 39.1752C42.5438 39.5271 41.9582 39.9451 41.7658 41.0493ZM79.2931 43.1092C78.8756 43.7248 78.3859 43.8892 77.6523 43.6114C74.9662 42.5956 72.2538 41.6539 69.56 40.6599C68.4073 40.2346 67.2827 39.7304 66.1328 39.2974C65.3531 39.0036 64.5581 38.9361 63.8148 39.2967C63.5583 40.2117 64.266 40.305 64.6899 40.4573C67.8864 41.6072 71.1039 42.6948 74.306 43.8282C75.0452 44.0903 75.7508 44.456 76.5667 44.8159C75.9712 45.5276 75.5806 45.1713 75.1763 44.991C72.3764 43.7457 69.5225 42.6833 66.4688 42.3084C65.7165 42.2156 64.9682 42.0454 64.2145 42.0217C62.6832 41.9736 61.1441 42.0784 59.617 41.9779C57.4302 41.8344 55.4512 42.3478 53.5483 43.4548C51.0338 44.9172 48.7312 46.6684 46.5458 48.5947C45.7731 49.2764 45.1735 50.0824 45.0745 51.2501C45.5626 52.3744 46.649 52.9575 47.6455 53.5407C50.6001 55.2704 53.5851 56.9512 56.6151 58.5358C58.9128 59.7368 61.3687 59.9018 63.95 59.6282C68.5175 59.1448 72.6896 57.5143 76.7563 55.4816C77.7215 54.9989 78.6287 54.9644 79.6244 55.4206C82.8975 56.9196 86.3779 57.3111 89.9154 57.3205C92.4508 57.3268 94.9904 57.3957 97.5197 57.2665C99.1429 57.1833 100.756 56.8218 102.364 56.526C104.082 56.2107 105.804 55.8895 107.494 55.4506C108.887 55.0887 110.236 54.5507 111.86 54.0049C111.625 54.4939 111.541 54.8927 111.304 55.1267C109.52 56.8844 107.802 58.7348 105.86 60.2856C105.01 60.9628 103.697 61.2027 102.568 61.2962C99.5836 61.5416 96.5803 61.5353 93.593 61.7529C91.7318 61.8886 89.8861 62.2499 88.0334 62.5084C87.3395 62.6055 86.647 62.7356 85.9498 62.7858C82.325 63.0495 78.6831 63.1529 75.0764 63.5782C70.6555 64.0995 66.3525 65.2424 62.2361 67.0229C61.1024 67.5136 60.0613 67.6364 58.8577 67.1781C56.1903 66.1632 53.4688 66.197 50.6524 67.2219C48.7968 65.2933 46.8799 66.4312 45.0731 67.3626C42.3382 68.7727 39.8559 70.5424 37.7059 72.8661C35.9626 74.7488 35.0847 76.9647 34.3894 79.3451C34.289 79.689 34.3059 80.1403 34.0924 80.3665C32.1323 82.448 32.6023 85.1904 32.1588 87.7007C29.2223 89.0756 26.2394 88.8004 23.2806 87.8409C20.545 86.9531 17.8981 85.8238 15.5355 84.1066C14.8673 83.6209 14.2698 83.0341 13.6312 82.5055C12.9316 81.9273 12.7056 81.1968 12.707 80.2715C12.7106 77.3669 12.7999 74.4766 13.461 71.6358C14.1542 68.6599 14.7893 65.6676 15.5662 62.7154C16.3417 59.7677 17.8596 57.1695 19.5395 54.6843C19.9139 54.1306 20.5338 53.7519 21.3517 53.01C21.6766 55.5111 21.9493 57.6048 22.243 59.8603C23.2262 59.2892 23.003 58.5615 22.9794 57.9675C22.8992 55.9455 23.169 53.9883 23.9403 52.1309C24.8405 49.9624 25.8962 47.8909 27.585 46.2229C31.2745 42.5806 35.0303 39.0158 39.4053 36.246C42.3305 34.3949 45.5312 33.3752 48.948 32.8442C53.104 32.1985 56.8486 33.3062 60.4071 35.249C62.0638 36.1541 63.7653 36.6971 65.5721 36.8157C66.9897 36.909 68.3468 36.4127 69.4833 35.4623C74.6113 31.175 80.5504 29.5926 87.0326 30.0481C89.3758 30.2117 91.5715 31.152 93.7095 32.1446C94.3858 32.4585 94.9032 32.9183 94.8237 34.0288C94.1286 34.1228 93.3433 34.454 92.6885 34.2765C90.6058 33.712 88.5766 34.2794 86.583 34.5459C83.0607 35.0164 79.5812 35.8416 76.0959 36.5808C74.7285 36.8703 73.3946 37.327 71.9512 37.7344C71.9282 38.1632 71.9085 38.5425 71.8806 39.0725C74.0681 38.5244 76.0835 37.9555 78.1266 37.5225C80.8685 36.9413 83.5734 36.1419 86.4184 36.1354C88.5869 36.1304 90.7542 35.8969 92.923 35.8761C94.0267 35.8653 95.1376 36.0664 96.2352 36.2432C96.514 36.2877 96.7526 36.603 97.3891 37.0764C95.9075 37.312 94.8441 37.6481 93.7911 37.6144C91.3602 37.5368 89.165 38.3104 87.0354 39.3405C84.8578 40.3933 82.7343 41.5671 80.5768 42.6645C80.1675 42.8729 79.708 42.977 79.2715 43.1287C79.3824 42.8169 79.4933 42.5051 79.6014 42.2034C78.3512 41.5821 77.9892 41.6956 77.2165 42.9906C77.9585 43.033 78.6259 43.0713 79.2931 43.1092Z" fill="#539736"/>
<path d="M54.1439 86.8623C55.2748 88.0668 56.4219 89.2563 57.5336 90.4803C58.9777 92.0721 60.4161 93.6695 61.8129 95.3051C62.7258 96.3732 63.5603 97.5116 64.4976 98.7053C62.3645 100.354 60.1951 101.5 57.8076 102.103C55.1682 102.77 52.4989 103.332 49.8191 103.799C47.916 104.13 46.1993 104.098 44.4148 102.624C41.3041 100.054 39.4765 96.7157 37.9759 93.1193C37.4172 91.7811 37.3024 90.213 37.1622 88.7321C36.9821 86.8307 36.9807 84.9116 36.8984 82.8889C37.3071 82.7473 37.7325 82.4909 38.1712 82.4658C39.9751 82.36 41.3627 81.4523 42.6744 80.2663C45.2238 77.9621 47.1002 75.1206 48.8716 72.1972C49.4229 71.2871 50.1147 70.7742 51.0785 70.3283C55.321 68.3617 59.0766 69.4361 62.4627 72.2289C63.941 73.4477 65.0595 75.1292 66.3351 76.6066C67.0735 77.4616 67.7332 78.401 68.542 79.176C71.832 82.3293 72.1269 86.2045 71.007 90.3223C70.2315 93.1711 68.369 95.3595 66.2207 97.5109C65.7891 97.1252 65.3812 96.8191 65.0401 96.4477C61.0486 92.0885 57.0692 87.7177 53.0791 83.3571C52.7172 82.9607 52.3447 82.5448 51.8992 82.2726C51.7033 82.1533 51.3127 82.3715 51.01 82.4362C50.4927 82.4859 50.2376 82.2588 50.2695 81.7086C50.3093 81.0219 50.0561 80.204 51.2604 79.8734C52.1599 80.8454 53.1417 81.8839 54.0999 82.9457C55.1013 84.0545 56.0796 85.1845 56.8591 86.0688C59.541 86.2108 61.043 84.808 62.3268 83.2652C63.5017 81.853 64.8045 80.392 64.7981 78.1647C63.3728 76.9205 61.9608 75.6645 60.5214 74.4426C59.7656 73.8012 59.0257 73.0944 58.1675 72.6375C56.68 71.8474 55.1285 71.846 53.4334 72.1778C51.7471 72.5076 50.3323 73.1821 49.1761 74.3455C48.1448 75.385 47.4516 76.782 46.4112 77.8083C44.7699 79.429 43.0391 80.9797 41.2017 82.3551C39.6188 83.5404 38.4809 84.91 38.015 86.8853C37.7792 87.8837 37.8413 88.7931 38.3775 89.6537C39.7965 91.9277 41.6597 93.365 44.3716 93.8779C46.4468 94.2699 48.2257 93.8268 49.8498 92.7981C51.5122 91.746 53.2589 90.6571 54.1439 88.5008V86.8623Z" fill="#AB1F1F"/>
<path d="M110.778 74.3446C107.373 75.9176 105.841 77.6128 106.203 81.7768C106.413 82.0914 106.643 82.4369 106.873 82.7839C107.717 84.0608 107.837 84.1004 109.311 83.5774C110.944 82.9986 112.506 80.8444 112.543 79.0775C112.567 77.9914 112.548 76.9046 112.548 75.6534C111.993 75.2424 111.394 74.8001 110.778 74.3446ZM133.727 80.8486C133.749 80.448 133.702 80.1261 133.794 79.8547C134.232 78.5604 134.245 77.2874 133.791 75.991C133.427 74.948 133.231 73.8291 132.77 72.8369C132.112 71.4219 131.251 70.1269 129.764 69.4489C128.029 68.658 126.29 67.9448 124.397 67.5714C121.656 67.0305 118.407 68.4627 116.832 71.1786C116.943 71.44 117.01 71.7518 117.182 71.9794C118.343 73.5145 119.213 75.1435 119.405 77.1517C119.459 77.7141 119.47 78.7055 120.614 78.8051C121.899 77.6618 123.423 77.9562 124.955 78.4734C126.439 78.9732 127.889 79.6111 129.403 79.9702C130.781 80.297 132.021 81.371 133.727 80.8486ZM142.656 83.1135C142.701 86.8492 141.523 89.5104 139.419 91.7802C139.011 92.2183 138.559 92.6164 138.184 93.081C135.584 96.304 130.862 96.8835 127.595 94.5493C124.307 92.1998 121.128 89.7453 118.704 86.411C117.879 85.2754 117.45 84.1161 117.756 82.5654C118.056 81.0484 117.895 79.4245 117.847 77.8505C117.831 77.3378 117.619 76.7775 117.346 76.3379C116.689 75.28 115.591 75.249 114.9 76.2826C114.508 76.868 114.158 77.5497 114.02 78.2371C113.467 80.9916 112.227 83.4518 110.969 85.8903C110.453 86.8888 109.639 87.7599 108.284 87.5646C107.033 87.3851 106.305 86.6035 105.864 85.4679C105.523 84.5902 105.228 83.6939 104.887 82.816C104.014 80.5779 104.51 78.535 105.917 76.7695C106.719 75.7627 107.703 74.7813 108.807 74.1802C112.025 72.4297 115.066 70.4544 117.877 68.0611C119.683 66.5232 121.827 65.7161 124.241 66.0206C124.931 66.1074 125.624 66.2218 126.294 66.407C129.412 67.2676 131.976 69.15 134.38 71.2562C136.21 72.8599 137.907 74.6247 139.677 76.3021C141.776 78.2886 142.897 80.6829 142.656 83.1135Z" fill="#AB1F1F"/>
<path d="M54.1463 86.8585V88.4969C53.2613 90.6532 51.5145 91.7422 49.8522 92.7943C48.228 93.823 46.4492 94.2661 44.374 93.8741C41.6621 93.3612 39.7988 91.9239 38.3798 89.6499C37.8437 88.7893 37.7815 87.8799 38.0174 86.8815C38.4832 84.9062 39.6211 83.5366 41.204 82.3513C43.0415 80.9759 44.7723 79.4251 46.4135 77.8045C47.4539 76.7782 48.1472 75.3812 49.1784 74.3417C50.3346 73.1782 51.7494 72.5038 53.4357 72.1739C55.1309 71.8422 56.6823 71.8436 58.1698 72.6337C59.0281 73.0906 59.7679 73.7974 60.5237 74.4388C61.9631 75.6606 63.3751 76.9167 64.8005 78.1609C64.8068 80.3882 63.5041 81.8492 62.3291 83.2614C61.0453 84.8042 59.5433 86.207 56.8614 86.0649C56.082 85.1807 55.1037 84.0507 54.1022 82.9418C53.1441 81.8801 52.1623 80.8416 51.2628 79.8696C50.0585 80.2002 50.3117 81.0181 50.2718 81.7048C50.2399 82.255 50.495 82.4821 51.0124 82.4324C51.0314 82.635 51.0508 82.8368 51.0696 83.0387C50.8994 83.6501 51.0918 83.9539 51.7377 83.8725C51.8402 84.0026 51.9419 84.1335 52.0439 84.2633C51.9895 85.0822 52.1205 85.751 53.1398 85.702C53.2489 85.8235 53.3576 85.9456 53.4664 86.0671C53.5785 86.1962 53.6915 86.3263 53.8038 86.4555C53.9182 86.5898 54.0319 86.7242 54.1463 86.8585Z" fill="#D82526"/>
<path d="M73.9153 90.1656C74.6512 87.7887 74.2048 85.7725 73.8834 83.7576C73.561 81.7366 72.6805 79.9572 71.168 78.4691C71.2948 78.3404 71.4212 78.2119 71.548 78.0841C72.2956 78.0841 73.0444 78.0609 73.7905 78.0876C76.506 78.1854 79.1424 77.566 81.7894 77.1136C85.8701 76.4154 89.9166 75.4974 94.0037 74.8431C96.3565 74.4668 98.7538 74.476 101.117 75.0543C101.789 75.2189 102.507 75.1828 103.467 75.2597C102.97 76.5763 102.376 77.7334 102.111 78.9654C101.848 80.1828 101.919 81.4757 101.829 82.9812C92.8977 86.3872 83.5628 88.3166 73.9153 90.1656Z" fill="#539736"/>
<path d="M70.1297 77.1478C69.0427 75.8922 68.1898 74.9066 67.3086 73.8882C69.3036 72.672 71.353 71.8656 73.5808 71.4877C75.246 71.2054 76.8764 70.7077 78.5395 70.4095C80.8372 69.9986 83.1695 69.7768 85.4541 69.3018C87.5642 68.8623 89.7181 68.4147 91.693 67.5738C94.1634 66.5215 96.6536 66.6938 99.1507 66.8886C100.762 67.0142 102.349 67.5227 103.936 67.9084C104.496 68.045 105.073 68.2445 105.559 68.5542C106.81 69.3522 107.211 70.5302 106.827 71.8792C105.275 74.2558 102.983 73.9764 100.882 73.6022C97.5399 73.0075 94.2736 73.1317 91.004 73.8932C86.4471 74.9533 81.8677 75.8549 77.207 76.2952C74.8256 76.5193 72.4539 76.8639 70.1297 77.1478Z" fill="#AC522A"/>
<path d="M107.873 63.3049C107.904 63.4901 107.975 63.7243 107.977 63.9592C107.998 66.1802 106.806 67.2058 104.722 66.7496C103.124 66.3998 101.531 66.0292 99.9374 65.6593C97.1111 65.0043 94.3401 65.2844 91.6406 66.27C88.703 67.3423 85.6898 67.9398 82.5937 68.2983C77.2998 68.9118 72.0914 69.9763 67.144 72.1188C66.7752 72.2782 66.3701 72.3509 65.9029 72.4873C64.6796 71.145 63.4371 69.7808 62.0898 68.3011C63.3115 67.8667 64.5758 67.3043 65.8951 66.9688C69.6355 66.0163 73.3454 65.0001 77.2627 64.8807C81.3533 64.7565 85.4528 64.3772 89.5083 63.8068C93.7571 63.2092 98.0066 62.8531 102.286 62.7404C103.453 62.7094 104.616 62.5191 105.782 62.4206C106.59 62.3524 107.282 62.6152 107.873 63.3049Z" fill="#AC522A"/>
<path d="M110.502 46.0946C109.658 45.5163 108.737 45.0258 107.989 44.3369C107.024 43.4477 105.885 43.1014 104.697 42.7394C101.247 41.6887 97.8957 42.1569 94.547 43.2322C91.0402 44.3584 87.5181 45.4352 83.996 46.5112C83.4542 46.6765 82.8775 46.7208 82.2715 46.6748C83.8314 45.2399 85.7992 44.6852 87.6255 43.8333C89.4573 42.9786 91.6017 43.4643 93.3929 42.3831C92.5143 41.7921 91.5667 41.9365 90.7014 42.0535C87.5322 42.483 84.5825 43.6495 81.8336 45.2959C81.2297 45.6572 80.8644 46.4399 80.273 47.1735C79.4893 47.027 78.5848 46.8575 77.6211 46.6765C77.6295 45.7024 78.3225 45.4171 78.914 45.1133C81.4285 43.8218 83.9695 42.5866 86.4819 41.2906C88.3745 40.3145 90.3423 39.5287 92.4383 39.2982C95.3554 38.9763 98.3252 38.7084 101.185 39.554C102.684 39.9978 104.012 41.022 105.477 41.6289C107.324 42.3946 108.77 43.6999 110.222 45.0165C110.449 45.2211 110.571 45.5479 110.741 45.818C110.661 45.9106 110.581 46.0027 110.502 46.0946Z" fill="#539736"/>
<path d="M123.505 99.5548C122.27 100.693 120.694 100.841 119.174 101.006C117.364 101.205 115.581 100.981 113.904 100.122C113.513 99.9219 112.996 99.9822 112.538 99.9226L112.557 99.9456C112.401 99.8148 112.245 99.6842 112.088 99.5534C112.008 99.4657 111.929 99.3773 111.849 99.2899C111.899 98.7411 111.683 98.4415 111.121 98.4659L111.139 98.4839C111.158 97.9675 110.932 97.703 110.415 97.7354L110.433 97.7534C110.385 97.1458 110.385 97.1458 110.07 97.364C109.627 96.8851 109.186 96.4052 108.554 95.72C108.308 96.2184 108.132 96.5754 107.955 96.9325C105.886 94.8552 105.25 92.3181 105.618 89.2633C107.212 88.8734 108.717 89.7905 110.228 89.3273C111.051 91.0159 111.87 92.528 112.536 94.109C113.311 95.9469 114.609 97.3202 116.023 98.5995C116.781 99.2854 117.692 99.6338 118.757 99.5937C120.344 99.5339 121.934 99.5771 123.523 99.5764L123.505 99.5548Z" fill="#AB1F1F"/>
<path d="M44.2687 70.8312C44.4661 70.7951 44.6628 70.7585 44.8602 70.7227C45.2367 70.8096 45.6132 70.8964 46.0783 71.0035C45.9618 71.3992 45.9339 71.7096 45.7911 71.9459C44.7772 73.6174 43.7696 75.2938 42.7006 76.9271C41.9628 78.054 41.1301 79.1144 40.3401 80.2047C40.1204 80.3505 39.9015 80.4956 39.6818 80.6415C39.5529 80.7326 39.4246 80.8238 39.2955 80.915C38.7802 80.9359 38.2607 81.009 37.751 80.9638C37.1832 80.9129 36.746 80.6529 36.9289 79.9246C37.1443 79.76 37.4526 79.6437 37.5614 79.4238C39.0423 76.4207 40.9956 73.8406 43.6955 71.8833C43.9836 71.6744 44.0826 71.1887 44.2687 70.8312Z" fill="#D82526"/>
<path d="M40.3359 80.2044C41.126 79.1141 41.9584 78.0537 42.6955 76.9268C43.7652 75.2936 44.7728 73.6171 45.786 71.9456C45.9297 71.7093 45.9576 71.3989 46.0741 71.0032C45.609 70.8961 45.2325 70.8093 44.8558 70.7224C45.0874 70.5011 45.3028 70.1147 45.5532 70.0896C46.3545 70.0076 47.1689 70.0587 48.1172 70.0587C48.0656 70.6169 48.143 71.0735 47.9721 71.3867C47.4031 72.4304 46.8468 73.5114 46.0999 74.4158C44.5972 76.2367 42.9864 77.964 41.3824 79.6936C41.1335 79.9623 40.6895 80.0391 40.3359 80.2044Z" fill="#AB1F1F"/>
<path d="M39.1955 100.76C38.0318 99.9396 37.4975 98.6554 36.9759 97.404C35.9991 95.0625 35.0095 92.7102 35.0236 90.082C35.2733 90.082 35.5227 90.0827 35.7724 90.0827C36.7251 93.4529 38.0625 96.632 40.1286 99.4562C40.2917 99.6797 40.3288 99.9999 40.4242 100.275C40.0149 100.437 39.6048 100.598 39.1955 100.76Z" fill="#AC522A"/>
<path d="M44.2695 70.833C44.0834 71.1905 43.9844 71.6763 43.6963 71.8851C40.9964 73.8424 39.0431 76.4226 37.5622 79.4256C37.4534 79.6455 37.1451 79.7618 36.9297 79.9264C37.5411 78.4755 37.8857 76.7984 38.8255 75.6267C40.2516 73.8497 42.0869 72.4196 43.7641 70.8595C43.8609 70.769 44.0981 70.8379 44.2695 70.833Z" fill="#AB1F1F"/>
<path d="M35.7719 90.0855C35.5222 90.0855 35.2725 90.0848 35.0229 90.0848C34.3988 87.7782 34.5167 85.5077 35.2725 82.8711C36.0787 84.3098 35.6755 85.5077 35.7489 86.6318C35.8227 87.7782 35.7691 88.934 35.7719 90.0855Z" fill="#AB1F1F"/>
<path d="M111.85 99.2894C111.93 99.3771 112.01 99.4654 112.09 99.5529C112.246 99.6837 112.402 99.8145 112.558 99.9451L112.54 99.9221V100.798C110.439 100.009 109.393 98.2171 107.957 96.9319C108.133 96.5749 108.309 96.2181 108.556 95.7188C109.188 96.4047 109.629 96.8839 110.071 97.3638C110.192 97.4929 110.313 97.623 110.435 97.7529L110.416 97.7344C110.658 97.9843 110.899 98.2335 111.14 98.4834L111.122 98.4656C111.365 98.7399 111.607 99.0151 111.85 99.2894Z" fill="#AC522A"/>
<path d="M39.1953 100.762C39.6046 100.601 40.0147 100.439 40.424 100.277C41.0175 100.981 41.6102 101.685 42.2893 102.49C41.6074 102.976 41.0844 103.046 40.62 102.542C40.1075 101.985 39.6668 101.358 39.1953 100.762Z" fill="#AB1F1F"/>
<path d="M53.1378 85.7004C52.1176 85.7492 51.9872 85.0806 52.0416 84.2617C52.4071 84.7416 52.7724 85.2205 53.1378 85.7004Z" fill="#AB1F1F"/>
<path d="M51.7386 83.8722C51.0928 83.9533 50.9003 83.6502 51.0705 83.0391C51.293 83.3162 51.5162 83.5942 51.7386 83.8722Z" fill="#AB1F1F"/>
<path d="M123.522 99.5751C123.686 99.4679 123.849 99.361 124.013 99.2539C124.044 99.3301 124.074 99.4063 124.105 99.4822C123.904 99.5062 123.704 99.5298 123.504 99.5535L123.522 99.5751Z" fill="#AB1F1F"/>
<path d="M41.7656 41.0475C41.9581 39.9435 42.5437 39.5255 43.1218 39.1737C45.5226 37.712 48.1321 36.8399 50.9019 36.5705C52.8835 36.3774 54.8807 36.2646 56.8708 36.274C58.2926 36.2803 59.713 36.5497 61.1348 36.702C61.144 36.8472 61.1538 36.993 61.1627 37.1388C60.1858 37.2938 59.2132 37.523 58.2307 37.5854C56.8792 37.6724 55.5195 37.655 54.1638 37.6435C50.6389 37.6149 47.3531 38.6183 44.158 40.042C43.435 40.3639 42.6994 40.6562 41.7656 41.0475Z" fill="#0B0C0B"/>
<path d="M44.2773 44.0398C44.7711 41.7313 48.8635 39.2726 51.5203 39.6475C51.8858 40.2889 51.5351 40.6553 51.0001 40.8729C50.4068 41.115 49.7848 41.2808 49.1746 41.4763C47.8754 41.8915 46.6859 42.4825 45.7465 43.5442C45.4106 43.9235 45.0542 44.4154 44.2773 44.0398Z" fill="#0B0C0B"/>
<path d="M79.2953 43.1072C78.6282 43.0692 77.9607 43.031 77.2188 42.9886C77.9914 41.6936 78.3534 41.5801 79.6036 42.2014C79.4956 42.5031 79.3847 42.8149 79.2738 43.1267L79.2953 43.1072Z" fill="#0B0C0B"/>
<path d="M133.727 80.8514C132.021 81.3742 130.781 80.3005 129.403 79.9737C127.889 79.6146 126.438 78.9767 124.955 78.4759C123.423 77.9595 121.898 77.665 120.613 78.8079C119.469 78.7087 119.459 77.7175 119.405 77.1551C119.212 75.1468 118.342 73.5177 117.181 71.9819C117.009 71.7543 116.942 71.4425 116.832 71.1818C118.407 68.4662 121.655 67.0331 124.397 67.5739C126.289 67.9474 128.029 68.6607 129.763 69.4522C131.25 70.1304 132.112 71.4254 132.77 72.8404C133.23 73.8323 133.426 74.9508 133.791 75.9935C134.245 77.2909 134.231 78.5629 133.794 79.8572C133.702 80.1287 133.75 80.4505 133.727 80.8514Z" fill="#D82526"/>
<path d="M110.779 74.3477C111.395 74.8032 111.993 75.2455 112.549 75.6565C112.549 76.9076 112.568 77.9945 112.544 79.0806C112.507 80.8475 110.945 83.0017 109.312 83.5805C107.837 84.1035 107.718 84.0639 106.874 82.787C106.644 82.44 106.414 82.0944 106.204 81.7798C105.842 77.6159 107.374 75.9207 110.779 74.3477Z" fill="#D82526"/>
<path d="M111.137 98.4821C110.896 98.2322 110.655 97.983 110.414 97.7331C110.931 97.7008 111.157 97.9657 111.137 98.4821Z" fill="#0B0C0B"/>
<path d="M111.849 99.29C111.606 99.0157 111.364 98.7405 111.121 98.4662C111.683 98.4418 111.899 98.7412 111.849 99.29Z" fill="#0B0C0B"/>
<path d="M110.434 97.7488C110.312 97.6189 110.192 97.4895 110.07 97.3597C110.386 97.1412 110.386 97.1412 110.434 97.7488Z" fill="#0B0C0B"/>
</g>
<defs>
<clipPath id="clip0_1054_739">
<rect width="150" height="110" fill="white"/>
</clipPath>
</defs>
</svg>
