<svg width="150" height="110" viewBox="0 0 150 110" fill="none" xmlns="http://www.w3.org/2000/svg">
<g clip-path="url(#clip0_1054_471)">
<path d="M76.5694 32.8794C67.9447 32.6856 58.6014 38.936 55.0078 42.0855L64.0927 56.1371L102.249 57.4696L126.355 54.8047L139.316 47.2945L138.952 41.2379C136.772 36.8771 131.685 35.3024 121.873 33.3643C112.061 31.4261 109.154 35.908 107.216 36.2714C105.665 36.5622 100.271 39.7035 97.7675 41.2379C97.5252 38.0884 87.3501 33.1217 76.5694 32.8794Z" fill="#D9D9D9"/>
<path d="M144.108 110.253C143.458 110.279 142.807 110.328 142.158 110.328C97.0957 110.331 52.0347 110.331 6.97305 110.331H4.72266V104.394C5.20622 104.333 5.43613 104.12 5.19023 103.62C5.25031 103.359 5.30991 103.097 5.36999 102.836C5.45938 102.722 5.4761 102.598 5.41941 102.464C5.44872 102.248 5.47876 102.032 5.50832 101.817C5.88092 101.616 6.28841 101.431 5.94367 100.893C5.99988 100.617 6.05584 100.341 6.11204 100.064C6.19684 99.8175 6.28163 99.5711 6.36715 99.3248C6.47132 98.7196 6.5755 98.1137 6.6804 97.508C7.60536 96.8929 7.413 95.9156 7.48593 95.0246C7.56127 94.6219 7.63613 94.219 7.71172 93.8164C7.78246 93.5659 7.8532 93.3154 7.92418 93.0649C8.00146 92.765 8.07899 92.4646 8.15651 92.1646C8.33409 91.4226 8.51119 90.6805 8.68877 89.9385C8.75563 89.5356 8.8225 89.1329 8.88912 88.7303C8.96544 88.4791 9.04151 88.2278 9.11758 87.9773C9.33077 87.4979 9.54299 87.0189 9.75619 86.5395C10.2725 86.6056 10.7887 86.671 11.3045 86.7372C11.3844 86.828 11.4855 86.8668 11.6064 86.8532C11.9041 87.0577 12.2021 87.2614 12.5006 87.4659C13.4577 88.0168 14.4149 88.5672 15.3714 89.1182C15.7212 89.318 16.0706 89.5176 16.4199 89.718C18.9809 90.8033 21.4983 92.0062 24.1092 92.9534C31.8229 95.7506 39.8619 96.7444 48.0139 96.9142C52.3172 97.0036 56.6346 97.0671 60.9288 96.8333C66.9599 96.5048 72.9746 95.8822 78.9978 95.4001C81.2015 95.223 83.4087 95.1014 85.6129 94.9306C89.9525 94.5938 94.2859 94.0448 98.6307 93.9407C105.119 93.7849 111.184 92.1399 117.069 89.5583C120.215 88.1777 123.394 86.8721 126.589 85.6097C127.712 85.1656 128.874 84.6518 130.251 84.9539C130.446 85.3303 130.681 85.7146 130.852 86.1259C131.96 88.7882 133.56 91.1025 135.442 93.2987C137.464 95.6605 139.34 98.1752 141.032 100.783C142.878 103.629 144.374 106.68 144.108 110.253Z" fill="#0642F3"/>
<path d="M133.6 66.8854C133.111 66.9455 132.729 66.9508 132.369 67.0431C128.427 68.0536 124.64 69.5818 120.584 70.2371C115.782 71.0126 110.98 71.7346 106.118 71.9049C101.241 72.0752 96.3862 71.7331 91.5239 71.2377C86.2312 70.6986 80.9854 69.9498 75.807 68.769C72.9752 68.1231 70.1899 67.2728 67.3832 66.514C66.4561 66.2637 65.6615 65.9023 65.8778 64.4623C66.6552 64.5517 67.4186 64.5565 68.1367 64.7375C70.2667 65.2739 72.3572 65.9871 74.5034 66.4367C78.6783 67.3123 82.8664 68.1425 87.0762 68.8252C90.2668 69.342 93.4909 69.8015 96.7142 69.9326C103.737 70.2177 110.767 70.1228 117.705 68.7838C121.255 68.0984 124.812 67.3864 128.293 66.4219C131.752 65.464 134.698 63.5993 136.663 60.4475C137.619 58.9132 137.492 58.2966 135.831 57.0991C134.703 57.6534 133.546 58.2385 132.374 58.7935C129.442 60.1822 126.555 61.683 123.557 62.9113C118.057 65.1636 112.15 65.1355 106.357 65.6091C101.416 66.0125 96.4712 65.5643 91.5833 64.831C86.1491 64.0155 80.7756 62.8527 75.4911 61.3157C72.2416 60.3711 68.9323 59.7066 65.5372 59.8396C62.8347 59.9457 60.6815 61.0732 59.4878 63.6814C58.739 65.3179 58.9294 67.6035 61.2338 68.5185C63.6376 69.473 65.9893 70.5569 68.3884 71.5248C78.6042 75.6471 89.2556 77.6015 100.245 77.7478C103.035 77.7851 105.829 77.5634 108.621 77.4559C113.293 77.2764 117.911 76.6283 122.512 75.8455C125.192 75.3894 127.87 74.8825 130.365 73.7483C132.988 72.5554 134.135 70.1802 133.6 66.8854ZM25.6578 44.1896C25.3099 44.5028 25.0126 44.7293 24.7633 45.0004C23.6186 46.2442 22.572 47.5919 21.3336 48.7335C18.7622 51.1033 17.2674 54.1248 16.0338 57.2755C14.3079 61.6811 13.3253 66.3018 12.4904 70.9477C11.9194 74.1264 11.3957 77.3144 10.8714 80.5016C10.6851 81.6337 10.5601 82.776 10.3951 84.0055C11.6895 84.9365 12.7802 85.8743 14.0085 86.5704C15.9229 87.6545 17.9 88.6403 19.9037 89.5526C25.3624 92.0385 31.1141 93.5074 37.051 94.27C38.7209 94.4844 40.4315 94.4665 42.0719 94.8045C45.9423 95.6027 49.845 95.4683 53.7396 95.3454C57.6304 95.2219 61.5136 94.874 65.4022 94.6642C68.7152 94.4851 72.0306 94.3643 75.3448 94.2141C75.604 94.2019 75.8659 94.1833 76.1195 94.1339C80.6487 93.2576 85.2355 92.8547 89.8334 92.7299C93.9931 92.617 98.1329 92.4007 102.276 91.9724C106.318 91.555 110.122 90.3921 113.905 89.0376C118.468 87.4033 122.756 85.0235 127.558 84.0268C128.241 83.8846 128.887 83.5086 129.518 83.1794C131.456 82.1687 132.821 78.3375 131.999 76.2618C131.931 76.09 131.794 75.9458 131.77 75.9098C127.149 76.7533 122.715 77.633 118.256 78.3515C115.448 78.8038 112.607 79.1985 109.77 79.2935C105.075 79.4504 100.369 79.4444 95.6715 79.3128C92.7629 79.2319 89.8259 78.9989 86.9686 78.4719C81.061 77.3832 75.1779 76.1108 69.5626 73.896C66.5503 72.7077 63.5429 71.4841 60.6306 70.0755C58.5975 69.0922 57.1909 67.3203 57.2898 64.988C57.432 61.6283 60.4101 58.5745 63.8493 58.3114C67.4755 58.0335 71.1337 58.0001 74.7263 58.8485C79.19 59.9016 83.6431 61.0071 88.1247 61.9776C92.9446 63.0208 97.8323 63.6114 102.769 63.6747C103.928 63.6902 105.088 63.4564 106.25 63.3728C108.582 63.2052 110.918 63.0864 113.249 62.8987C114.475 62.8006 115.713 62.693 116.91 62.4292C122.865 61.1173 128.29 58.5566 133.341 55.2744C133.778 54.4068 134.199 53.5131 134.846 52.8357C136.047 51.5794 137.41 50.4788 138.651 49.2585C140.212 47.723 141.405 45.9348 141.385 43.6626C141.344 38.9298 138.675 34.6063 133.213 33.1937C129.923 32.3433 127.051 30.7044 124.662 28.3767C123.208 26.9607 121.654 26.5714 119.87 27.0021C116.606 27.7909 113.331 28.5904 110.151 29.6564C106.903 30.7451 103.77 32.1737 100.573 33.4168C100.021 33.6312 99.4954 34.2657 98.7747 33.722C98.4588 32.704 99.2938 32.4695 99.901 32.2265C103.745 30.6911 107.571 29.0999 111.479 27.7434C113.662 26.9854 115.995 26.662 118.251 26.1043C118.907 25.942 119.53 25.6442 120.428 25.3128C119.9 24.9596 119.663 24.6756 119.396 24.6422C117.981 24.468 116.551 24.1947 115.141 24.2582C112.49 24.3764 109.847 24.6722 107.206 24.9475C102.81 25.4051 98.5545 26.4616 94.426 28.0434C93.5636 28.3733 92.672 28.6292 91.6855 28.955C91.5411 27.4815 92.6018 27.3192 93.2484 27.0394C94.4842 26.5038 95.8379 26.2494 97.1217 25.8157C102.632 23.9544 108.293 23.0554 114.107 23.0026C115.366 22.9912 116.623 22.7114 118.078 22.5311C117.803 21.9579 117.729 21.5272 117.472 21.3147C116.077 20.1586 114.774 18.7847 113.187 17.9845C107.59 15.1612 101.764 15.2033 96.0463 17.531C92.4615 18.9897 89.0339 20.8479 85.5875 22.6278C81.859 24.5528 78.0039 25.2234 73.9203 24.1114C72.1735 23.6358 70.4496 23.0694 68.7312 22.4977C65.8744 21.5465 62.8989 21.1497 59.9372 21.1524C56.358 21.1558 52.9036 22.0335 49.6354 23.6085C45.3374 25.6803 41.6644 28.6384 37.9823 31.5921C35.4007 33.6632 32.8707 35.7764 30.653 38.2664C28.7701 40.3797 27.4764 42.5712 27.6848 45.5489C27.8011 47.2118 27.5058 48.9111 27.3042 50.5837C27.2461 51.0604 27.2521 51.7712 26.2014 51.9454C26.0197 49.35 25.8448 46.8567 25.6578 44.1896ZM6.11114 100.066C6.05493 100.342 5.99897 100.619 5.94276 100.895C5.79716 101.202 5.65229 101.51 5.50741 101.818C5.47737 102.034 5.44782 102.25 5.4185 102.466C5.40179 102.59 5.38507 102.713 5.36836 102.837C5.309 103.099 5.24892 103.361 5.18932 103.622C5.035 103.625 4.88019 103.629 4.72587 103.632C4.48675 100.104 4.86808 96.698 5.80056 93.2348C7.25317 87.8413 8.19631 82.3116 9.36184 76.8408C10.5281 71.3712 11.5621 65.8681 12.9098 60.4426C14.4513 54.2343 17.7088 49.0092 22.4131 44.5924C25.1088 42.0615 27.3301 39.0359 29.9056 36.3676C34.9905 31.0983 40.6171 26.4703 46.9356 22.7334C52.2163 19.6101 57.9911 18.9049 63.9421 19.7572C67.281 20.2354 70.6339 20.9227 73.8386 21.9545C77.4508 23.1167 80.7737 22.7288 84.0544 21.1437C86.5732 19.9268 89.0351 18.5924 91.5164 17.2992C96.9419 14.4739 102.653 13.3444 108.735 14.3758C112.955 15.0912 116.66 16.9852 119.142 20.3909C120.829 22.708 122.598 24.6938 125.041 26.1438C125.757 26.5687 126.281 27.3107 126.985 27.7662C128.395 28.6798 129.82 29.5963 131.328 30.3236C132.788 31.0268 134.409 31.3963 135.878 32.0829C140.702 34.3357 143.209 38.1664 143.322 43.4909C143.371 45.7953 142.603 47.8412 140.974 49.5155C140.112 50.402 139.18 51.2235 138.363 52.1484C137.692 52.9072 137.146 53.775 136.521 54.6251C136.931 55.1547 137.145 55.5724 137.479 55.8415C139.621 57.5674 139.298 59.7374 138.478 61.4873C138.023 62.4585 137.268 63.3641 136.451 64.0695C135.6 64.8029 135.341 65.5229 135.482 66.6102C135.804 69.1103 135.614 71.5381 134.193 73.7623C133.917 74.1926 133.873 74.891 133.973 75.4182C134.458 77.9622 133.997 80.3774 132.865 82.619C132.22 83.896 132.231 84.9787 132.962 86.0967C134.241 88.0537 135.487 90.0408 136.889 91.9077C139.351 95.1846 142.032 98.2957 143.941 101.964C145.284 104.546 145.959 107.269 146.105 110.255H144.107C144.373 106.681 142.877 103.631 141.031 100.785C139.339 98.1768 137.463 95.6621 135.44 93.3002C133.559 91.1041 131.959 88.7897 130.851 86.1275C130.68 85.7161 130.445 85.3319 130.25 84.9554C128.873 84.6533 127.711 85.1672 126.588 85.6112C123.393 86.8737 120.214 88.1792 117.068 89.5599C111.183 92.1415 105.118 93.7865 98.6291 93.9422C94.285 94.0464 89.9516 94.5954 85.6122 94.9321C83.4081 95.1029 81.2006 95.2245 78.9969 95.4016C72.9737 95.8837 66.9585 96.5064 60.9271 96.8349C56.6332 97.0687 52.3163 97.0052 48.013 96.9158C39.861 96.746 31.8212 95.7522 24.1082 92.955C21.4974 92.0078 18.9793 90.8049 16.419 89.7196C16.3691 88.9969 15.7852 89.2052 15.3705 89.1197C14.4133 88.5688 13.4561 88.0184 12.4992 87.4675C12.4917 86.8402 12.1031 86.7673 11.6047 86.8548C11.4838 86.8683 11.3838 86.8296 11.3036 86.7387C10.8125 86.4769 10.4152 85.477 9.75456 86.541C9.54233 87.0205 9.32914 87.4995 9.11667 87.9789C8.60186 88.0971 8.36396 88.2989 8.88822 88.7318C8.82159 89.1345 8.754 89.5371 8.68738 89.94C8.5224 90.1692 8.25518 90.3814 8.21303 90.6319C8.12896 91.1322 8.16772 91.6533 8.15561 92.1662C8.07808 92.4661 8.00056 92.7665 7.92255 93.0664C7.41234 93.1934 7.19576 93.4025 7.71008 93.8179C7.63522 94.2206 7.55988 94.6235 7.48502 95.0261C6.85513 95.7369 6.51524 96.5417 6.67876 97.5096C6.57459 98.1152 6.47042 98.7211 6.36552 99.3263C5.91684 99.4477 5.59487 99.6127 6.11114 100.066Z" fill="#0B0C0B"/>
<path d="M4.72653 103.635C4.88085 103.632 5.03518 103.628 5.19023 103.625C5.43588 104.125 5.20549 104.338 4.72266 104.399C4.72387 104.144 4.72532 103.89 4.72653 103.635Z" fill="#0F140E"/>
<path d="M6.68143 97.5066C6.5179 96.5388 6.8578 95.734 7.48769 95.0234C7.41476 95.9142 7.60664 96.8915 6.68143 97.5066Z" fill="#0F140E"/>
<path d="M8.15625 92.1676C8.16836 91.6552 8.1296 91.1343 8.21367 90.6333C8.25582 90.3835 8.52304 90.1711 8.68802 89.9414C8.51093 90.6835 8.33335 91.4255 8.15625 92.1676Z" fill="#0F140E"/>
<path d="M9.75781 86.5424C10.4185 85.4783 10.8153 86.4782 11.3069 86.7393C10.7906 86.6739 10.2743 86.6078 9.75781 86.5424Z" fill="#0F140E"/>
<path d="M11.6055 86.8545C12.1038 86.767 12.4926 86.8397 12.4999 87.467C12.2019 87.2632 11.9035 87.0587 11.6055 86.8545Z" fill="#0F140E"/>
<path d="M8.88791 88.7332C8.36438 88.3003 8.60131 88.0987 9.11637 87.9805C9.0403 88.231 8.96398 88.482 8.88791 88.7332Z" fill="#0F140E"/>
<path d="M15.3711 89.1172C15.7859 89.2034 16.3697 88.9944 16.4196 89.717C16.0703 89.5174 15.7204 89.3171 15.3711 89.1172Z" fill="#0F140E"/>
<path d="M7.7084 93.8179C7.19408 93.4024 7.41066 93.1926 7.92087 93.0664C7.85013 93.3169 7.77915 93.5674 7.7084 93.8179Z" fill="#0F140E"/>
<path d="M6.11261 100.067C5.59634 99.614 5.91807 99.449 6.36699 99.3281C6.28219 99.5738 6.1974 99.8204 6.11261 100.067Z" fill="#0F140E"/>
<path d="M5.50781 101.818C5.65293 101.51 5.7978 101.202 5.9434 100.895C6.28815 101.433 5.87993 101.617 5.50781 101.818Z" fill="#0F140E"/>
<path d="M5.36719 102.836C5.3839 102.713 5.40062 102.588 5.41661 102.465C5.4733 102.599 5.45658 102.722 5.36719 102.836Z" fill="#0F140E"/>
<path d="M45.2043 47.8936C47.2982 48.2825 50.094 48.374 50.7774 48.0761C49.2565 46.9801 46.5521 46.8911 45.2043 47.8936ZM61.7319 81.1534C60.5109 79.5632 58.9708 78.9079 57.8171 77.8206C56.6918 76.7599 55.7087 75.5481 54.4509 74.1709C54.6754 76.9882 58.9407 81.0667 61.7319 81.1534ZM52.4238 35.2208C52.9735 35.0102 53.318 34.9068 53.6381 34.751C56.1428 33.5361 58.666 32.4134 61.4494 31.917C62.3048 31.7641 63.3262 31.439 63.9333 30.0516C60.3573 30.4797 57.329 31.5679 54.4196 33.0426C53.5932 33.4614 52.6949 33.8701 52.4238 35.2208ZM79.6568 28.512C79.7237 28.3196 79.791 28.1273 79.8579 27.9349C79.2474 27.6384 78.6657 27.1996 78.021 27.0693C74.2225 26.3013 70.4435 25.3342 66.5309 25.3977C64.656 25.4277 62.7731 25.5566 60.9123 25.7882C57.3529 26.2325 53.9828 27.3498 50.7808 28.9556C50.4901 29.1004 50.3144 29.4745 49.9932 29.8512C51.1575 30.2519 51.9034 29.6167 52.701 29.3035C56.9515 27.6338 61.3418 26.4176 65.9163 26.6199C69.4497 26.7762 72.9596 27.4821 76.4768 27.9645C77.5421 28.1106 78.5969 28.3276 79.6568 28.512ZM98.5643 40.8193C98.2162 40.3156 97.9604 40.0229 97.79 39.6864C96.8157 37.7595 95.1305 36.7129 93.1948 36.0081C91.1883 35.2782 89.1293 34.6871 87.1462 33.9021C83.47 32.4481 79.7055 31.8182 75.7367 31.9766C72.7019 32.0982 69.8124 32.6312 67.1046 33.9542C64.256 35.3463 61.3893 36.7349 58.6869 38.3814C56.7793 39.544 54.6398 40.5031 53.202 42.6038C53.5872 43.1554 53.9118 43.7981 54.3976 44.279C55.2719 45.1451 56.2615 45.8933 57.1693 46.7281C60.0193 49.3518 63.2833 51.3294 66.8342 52.8264C68.0131 53.3225 69.2833 53.7841 70.5411 53.8783C74.3803 54.1642 78.186 53.7 81.9365 52.8717C86.3566 51.8951 90.7343 50.7679 94.9723 49.134C95.6981 48.8549 96.6393 48.8261 97.4034 49.0071C100.039 49.6324 102.623 50.4713 105.257 51.1017C110.213 52.2866 115.253 52.9499 120.29 51.8958C125.53 50.7998 130.707 49.394 135.901 48.0833C137.529 47.672 138.81 46.6935 139.775 45.4032C139.866 43.0253 139.194 40.7383 137.484 38.47C136.765 37.515 135.835 36.5317 134.777 36.0508C131.125 34.3905 127.317 33.1068 123.342 32.4507C121.817 32.199 120.244 32.0834 118.702 32.1397C117.361 32.1883 116.031 32.5663 114.696 32.7989C109.489 33.7052 104.773 35.685 100.73 39.1527C100.098 39.6944 99.4098 40.1719 98.5643 40.8193ZM25.6609 44.1875C25.8479 46.8546 26.023 49.3477 26.2047 51.9433C27.2552 51.7684 27.2499 51.0576 27.3073 50.5808C27.5091 48.909 27.8049 47.2092 27.6881 45.5466C27.4798 42.5691 28.7735 40.3776 30.6564 38.2636C32.8738 35.7743 35.4045 33.6611 37.9853 31.59C41.6675 28.6363 45.3405 25.6782 49.6385 23.6061C52.9067 22.0312 56.3618 21.1537 59.9413 21.1503C62.902 21.1469 65.8778 21.5445 68.7343 22.4956C70.4529 23.0673 72.1769 23.633 73.9234 24.1086C78.007 25.2213 81.8624 24.5507 85.5906 22.625C89.037 20.8458 92.4648 18.9876 96.0496 17.5282C101.768 15.2005 107.593 15.1584 113.19 17.9824C114.777 18.7826 116.08 20.1565 117.476 21.3126C117.732 21.5243 117.806 21.9551 118.081 22.5288C116.626 22.7093 115.369 22.9891 114.11 23.0005C108.297 23.0533 102.635 23.9523 97.1255 25.8129C95.8418 26.2466 94.4873 26.5017 93.2517 27.0366C92.6051 27.3171 91.5445 27.4787 91.6886 28.9529C92.6751 28.6271 93.5669 28.3712 94.4291 28.0405C98.5575 26.4595 102.813 25.403 107.209 24.9446C109.85 24.6702 112.494 24.3743 115.144 24.2554C116.555 24.1926 117.984 24.4652 119.399 24.6401C119.667 24.6728 119.903 24.9575 120.431 25.3107C119.534 25.6421 118.911 25.9394 118.254 26.1015C115.998 26.6599 113.665 26.9833 111.482 27.7413C107.574 29.0978 103.748 30.6887 99.9041 32.2244C99.2969 32.4667 98.4621 32.702 98.778 33.7199C99.4987 34.2636 100.024 33.6291 100.576 33.4147C103.773 32.1709 106.906 30.743 110.154 29.6543C113.334 28.5883 116.609 27.7888 119.874 27C121.657 26.569 123.212 26.9579 124.665 28.3744C127.054 30.7016 129.926 32.3405 133.216 33.1916C138.678 34.6042 141.347 38.9277 141.388 43.6605C141.409 45.9327 140.216 47.7207 138.654 49.2564C137.413 50.4767 136.05 51.5773 134.85 52.8336C134.202 53.511 133.781 54.404 133.344 55.2716C128.293 58.5545 122.869 61.1152 116.913 62.4264C115.716 62.6902 114.478 62.7977 113.252 62.8966C110.921 63.0836 108.585 63.2023 106.253 63.37C105.091 63.4536 103.931 63.6873 102.773 63.6726C97.8361 63.6091 92.9477 63.0187 88.1281 61.9755C83.6462 61.005 79.1933 59.8995 74.7296 58.8457C71.1368 57.998 67.4786 58.0314 63.8524 58.3086C60.4135 58.5724 57.4351 61.6262 57.2929 64.9859C57.1947 67.3182 58.6006 69.0894 60.6339 70.0727C63.5467 71.4812 66.5542 72.7056 69.5665 73.8937C75.1812 76.1085 81.0641 77.3811 86.9717 78.4696C89.8292 78.9968 92.766 79.2291 95.6748 79.3105C100.372 79.4416 105.078 79.4481 109.773 79.2911C112.611 79.1964 115.451 78.8017 118.259 78.3487C122.719 77.6309 127.152 76.7512 131.773 75.9069C131.797 75.943 131.934 76.0879 132.002 76.2597C132.824 78.3354 131.459 82.1661 129.522 83.1773C128.89 83.5058 128.244 83.8825 127.561 84.024C122.759 85.0214 118.471 87.4012 113.908 89.0355C110.125 90.39 106.321 91.5521 102.279 91.9703C98.136 92.3984 93.9969 92.6142 89.8365 92.7278C85.2386 92.8526 80.652 93.2555 76.1229 94.1318C75.869 94.1812 75.6071 94.1998 75.3481 94.2112C72.0339 94.3614 68.7183 94.483 65.4053 94.6613C61.5167 94.8719 57.6335 95.2198 53.743 95.3426C49.8483 95.4661 45.9464 95.6004 42.075 94.8023C40.4346 94.4637 38.724 94.4816 37.0543 94.2672C31.1171 93.5053 25.3658 92.0357 19.9068 89.5505C17.9031 88.6382 15.9259 87.6521 14.0118 86.5675C12.7843 85.8722 11.6929 84.9344 10.3984 84.0027C10.5634 82.7732 10.6882 81.6309 10.8745 80.4988C11.399 77.3123 11.9225 74.1241 12.4935 70.9456C13.3286 66.2994 14.311 61.6782 16.0369 57.2727C17.2705 54.1227 18.7653 51.1005 21.3369 48.7314C22.5751 47.5898 23.6217 46.2419 24.7667 44.9983C25.0157 44.7272 25.313 44.5 25.6609 44.1875Z" fill="#539836"/>
<path d="M133.602 66.8839C134.137 70.1787 132.99 72.5539 130.367 73.7468C127.872 74.8811 125.194 75.3879 122.515 75.8441C117.913 76.6268 113.295 77.2749 108.623 77.4544C105.831 77.562 103.037 77.7837 100.247 77.7464C89.2577 77.6 78.6063 75.6457 68.3905 71.5233C65.9914 70.5555 63.6397 69.4716 61.2359 68.517C58.9315 67.602 58.7411 65.3165 59.4899 63.68C60.6836 61.0718 62.8368 59.9443 65.5393 59.8382C68.9344 59.7052 72.2437 60.3697 75.4932 61.3143C80.7777 62.8512 86.1512 64.0141 91.5854 64.8295C96.4733 65.5629 101.418 66.0111 106.359 65.6077C112.152 65.1341 118.06 65.1622 123.559 62.9098C126.557 61.6816 129.444 60.1807 132.376 58.7921C133.548 58.237 134.705 57.652 135.834 57.0977C137.494 58.2952 137.621 58.9117 136.665 60.446C134.7 63.5979 131.754 65.4626 128.295 66.4205C124.814 67.3849 121.257 68.097 117.707 68.7823C110.769 70.1213 103.74 70.2163 96.7163 69.9311C93.493 69.8001 90.2689 69.3405 87.0783 68.8237C82.8685 68.141 78.6804 67.3108 74.5055 66.4353C72.3593 65.9856 70.2688 65.2724 68.1388 64.736C67.4207 64.555 66.6573 64.5502 65.8799 64.4608C65.6636 65.9008 66.4582 66.2623 67.3853 66.5125C70.192 67.2713 72.9773 68.1217 75.8091 68.7675C80.9875 69.9483 86.2333 70.6972 91.526 71.2362C96.3883 71.7317 101.243 72.0737 106.121 71.9034C110.982 71.7331 115.784 71.0112 120.586 70.2357C124.642 69.5803 128.429 68.0521 132.371 67.0417C132.731 66.9493 133.113 66.944 133.602 66.8839Z" fill="#AC522A"/>
<path d="M112.392 34.9639C109.491 35.5763 106.805 36.7237 104.332 38.3396C102.139 39.7728 100.125 41.4192 98.7779 43.7329C98.1875 44.7463 97.6427 45.7768 97.8156 47.2094C98.4046 47.456 99.0311 47.7746 99.6929 47.9836C100.933 48.3742 102.183 48.7451 103.447 49.0462C106.675 49.8168 109.893 50.6953 113.264 50.4661C113.728 50.4341 114.179 50.2076 114.636 50.0715C115.704 50.189 116.774 50.306 117.842 50.4235C118.506 50.3307 119.17 50.2377 119.833 50.1449C125.071 49.5097 130.173 48.2475 135.228 46.7759C135.846 46.5962 136.445 46.313 137.012 46.0038C138.368 45.2625 138.595 44.8364 138.313 43.3314C137.742 40.2811 135.881 38.1932 133.126 36.9528C131.237 36.1025 129.264 35.4154 127.283 34.7996C124.092 33.807 120.837 33.2559 117.49 33.9933C115.791 34.3172 114.091 34.6404 112.392 34.9639ZM69.282 35.1749L69.3161 35.1434C68.6295 35.2357 67.8327 35.1342 67.2736 35.4513C63.6035 37.5345 59.9792 39.6994 56.3571 41.866C56.0039 42.0777 55.7667 42.484 55.4348 42.844C55.782 43.2941 56.0131 43.6922 56.3344 43.9955C59.3334 46.8314 62.6502 49.2332 66.4494 50.8663C67.8586 51.472 69.4331 51.7111 70.9499 52.0365C71.2104 52.0927 71.559 51.7407 71.8676 51.5769L71.8269 51.5723C71.9631 52.2441 72.4694 52.2555 72.9951 52.2162C74.5078 52.1026 76.0208 51.9837 77.5335 51.8669C79.5748 51.5154 81.636 51.253 83.6516 50.7922C86.1785 50.2137 88.7077 49.5906 91.1577 48.7562C92.4701 48.3095 93.8234 47.5875 94.8011 46.6277C97.8035 43.6796 97.0048 39.4717 93.2296 37.7751C91.8116 37.1379 90.3495 36.5875 88.8802 36.0785C84.0785 34.4154 79.2567 32.8331 74.0456 33.6721C72.6082 33.9185 71.1663 34.1397 69.7403 34.4408C69.5446 34.4822 69.4331 34.9205 69.282 35.1749ZM98.5616 40.8194C99.4071 40.1723 100.095 39.6945 100.727 39.1531C104.77 35.6851 109.486 33.7055 114.694 32.799C116.028 32.5666 117.358 32.1887 118.699 32.1398C120.242 32.0838 121.815 32.1994 123.339 32.4511C127.314 33.1069 131.123 34.3907 134.775 36.0511C135.832 36.532 136.763 37.5151 137.482 38.4704C139.191 40.7387 139.863 43.0257 139.773 45.4033C138.808 46.6938 137.527 47.673 135.898 48.0837C130.704 49.3941 125.528 50.8002 120.287 51.8969C115.25 52.9508 110.21 52.287 105.255 51.1021C102.62 50.4714 100.036 49.6332 97.4009 49.0082C96.6368 48.8265 95.6956 48.8551 94.9695 49.1344C90.7316 50.768 86.3541 51.8955 81.9337 52.872C78.1835 53.7004 74.3775 54.1645 70.5383 53.8787C69.2807 53.7844 68.0103 53.3236 66.8314 52.8265C63.2808 51.3298 60.0168 49.3522 57.1668 46.7292C56.259 45.8943 55.2691 45.1455 54.3948 44.2792C53.9093 43.7983 53.5847 43.1558 53.1992 42.6041C54.6373 40.5042 56.7767 39.5443 58.6841 38.3815C61.3858 36.735 64.2533 35.3466 67.1013 33.9546C69.8096 32.6313 72.6991 32.0983 75.7342 31.977C79.703 31.8185 83.4673 32.4484 87.1436 33.9025C89.1266 34.6872 91.1858 35.2783 93.1922 36.0085C95.1279 36.713 96.8129 37.7598 97.7875 39.6866C97.9571 40.0233 98.2137 40.3157 98.5616 40.8194Z" fill="#0F140E"/>
<path d="M79.6558 28.516C78.5959 28.3316 77.5411 28.1145 76.4758 27.9682C72.9586 27.4861 69.4487 26.7801 65.9153 26.6239C61.3408 26.4213 56.9505 27.6382 52.7 29.3082C51.9024 29.6214 51.1565 30.2559 49.9922 29.8559C50.3134 29.4785 50.4891 29.1044 50.7798 28.9595C53.9818 27.3545 57.3519 26.2365 60.9113 25.7929C62.7721 25.5606 64.655 25.4322 66.5299 25.4014C70.4425 25.3379 74.2215 26.3053 78.02 27.0733C78.6647 27.2036 79.2464 27.6431 79.8569 27.9389C79.79 28.1312 79.7227 28.3236 79.6558 28.516Z" fill="#0F140E"/>
<path d="M52.418 35.2236C52.6886 33.8725 53.5874 33.4643 54.4137 33.0457C57.3226 31.5708 60.3514 30.4823 63.9275 30.0547C63.3204 31.4419 62.2992 31.7673 61.4435 31.9196C58.6604 32.4165 56.137 33.5385 53.6322 34.7541C53.3124 34.9092 52.9677 35.0134 52.418 35.2236Z" fill="#0F140E"/>
<path d="M61.7263 81.1544C58.935 81.0674 54.6704 76.9892 54.4453 74.1719C55.7036 75.5499 56.6867 76.7607 57.8116 77.8221C58.9652 78.9096 60.5053 79.5647 61.7263 81.1544Z" fill="#0F140E"/>
<path d="M45.1992 47.8943C46.5469 46.8918 49.2513 46.9807 50.7723 48.0767C50.0888 48.3747 47.2931 48.2832 45.1992 47.8943Z" fill="#0F140E"/>
<path d="M71.6004 41.1866C70.6606 41.675 70.5826 42.4197 71.0327 43.1698C71.219 43.4803 71.893 43.835 72.1101 43.7214C72.5617 43.485 73.1387 42.9626 73.1579 42.5345C73.202 41.5934 72.41 41.2934 71.6004 41.1866ZM73.3992 37.7302C73.3502 36.8304 72.4546 36.0465 71.573 36.132C70.8237 36.2047 70.0615 37.0196 70.1269 37.6781C70.209 38.497 71.1803 39.1915 72.12 39.1034C72.9517 39.0253 73.4406 38.5004 73.3992 37.7302ZM74.7951 40.0271C74.6628 41.2227 75.582 42.2639 76.8749 42.3822C77.7994 42.467 78.8334 41.6268 78.9543 40.6916C79.0745 39.764 77.9697 38.5764 76.8783 38.4597C75.7729 38.3419 74.9107 38.9912 74.7951 40.0271ZM71.8249 51.5749L71.8656 51.5795C71.1909 51.3404 70.4983 51.1439 69.8464 50.8549C67.6917 49.8962 66.1455 48.2726 65.7429 45.9749C65.0108 41.7937 66.0474 38.0723 69.3141 35.1467L69.2799 35.1782C70.8871 34.8293 72.4933 34.4807 74.1005 34.1328C77.8181 34.3252 80.5152 36.1572 82.2203 39.3873C83.5782 41.9582 83.9568 46.4432 81.2679 48.8356C80.1746 49.8081 78.7825 50.4455 77.5261 51.2355C75.6261 51.3491 73.725 51.462 71.8249 51.5749Z" fill="#070707"/>
<path d="M115.072 36.4436C114.029 36.4489 113.411 37.2062 113.454 38.0433C113.487 38.7151 113.826 39.1419 114.497 39.1933C115.165 39.2442 115.973 38.3318 115.807 37.5985C115.702 37.1275 115.265 36.7314 115.072 36.4436ZM113.945 40.926C113.214 42.3173 113.1 42.4968 113.495 43.1214C113.761 43.541 114.339 44.0378 114.749 44.0151C115.174 43.9918 115.76 43.4588 115.936 43.0138C116.404 41.8357 115.772 41.1966 113.945 40.926ZM119.394 38.6925C118.521 38.6872 117.828 39.506 117.807 40.5686C117.785 41.6467 118.445 42.4101 119.393 42.4033C120.266 42.3975 121.159 41.5338 121.202 40.6561C121.247 39.7137 120.312 38.6979 119.394 38.6925ZM117.838 50.4259C116.77 50.3081 115.701 50.1914 114.632 50.0739C111.192 49.2695 109.226 47.3467 109.081 43.9892C108.942 40.7864 109.169 37.5323 112.39 35.5559C114.221 35.2834 116.052 35.0108 117.882 34.7383C118.452 34.8618 119.033 34.9474 119.59 35.1138C124.094 36.4569 126.215 42.0052 124.109 45.8413C123.137 47.6132 121.699 48.8715 119.825 49.6303C119.163 49.8956 118.501 50.1606 117.838 50.4259Z" fill="#070707"/>
<path d="M77.5257 51.2383C77.5276 51.4495 77.5291 51.6613 77.531 51.8723C76.0181 51.9898 74.5054 52.1087 72.9924 52.2221C72.4667 52.2616 71.9611 52.2502 71.8242 51.5777C73.7253 51.4648 75.6253 51.3512 77.5257 51.2383Z" fill="#ECECEC"/>
<path d="M112.393 35.5526C112.392 35.3561 112.391 35.1592 112.391 34.9627C114.09 34.6395 115.79 34.3156 117.489 33.9922C117.621 34.24 117.753 34.4871 117.885 34.735C116.054 35.0075 114.223 35.2801 112.393 35.5526Z" fill="#9F9D9D"/>
<path d="M74.0449 33.6758C74.0636 33.8279 74.0822 33.9803 74.1016 34.1332C72.4946 34.4818 70.8877 34.8307 69.2812 35.1793C69.4315 34.9242 69.5439 34.4859 69.7394 34.4445C71.1649 34.1438 72.6075 33.9222 74.0449 33.6758Z" fill="#9F9D9D"/>
<path d="M119.83 49.6289C119.832 49.8012 119.833 49.9734 119.835 50.1459C119.171 50.2387 118.508 50.3315 117.844 50.4243C118.506 50.1592 119.168 49.8939 119.83 49.6289Z" fill="#9F9D9D"/>
<path d="M74.7979 40.0259C74.9128 38.99 75.7757 38.3409 76.8804 38.4592C77.9726 38.5752 79.0773 39.7628 78.9569 40.6907C78.8355 41.6256 77.8023 42.4665 76.8778 42.3817C75.5846 42.263 74.6649 41.2215 74.7979 40.0259Z" fill="#ECECEC"/>
<path d="M73.4003 37.7296C73.4417 38.4998 72.9529 39.0248 72.1214 39.1028C71.1817 39.191 70.2111 38.4964 70.129 37.6775C70.0629 37.0191 70.8248 36.2041 71.5744 36.1314C72.4567 36.0459 73.3523 36.8298 73.4003 37.7296Z" fill="#ECECEC"/>
<path d="M71.6032 41.1836C72.4129 41.2904 73.2048 41.5904 73.1607 42.5316C73.1416 42.9596 72.5645 43.482 72.1129 43.7184C71.8959 43.832 71.2219 43.4774 71.0356 43.1668C70.5855 42.4167 70.6635 41.672 71.6032 41.1836Z" fill="#ECECEC"/>
<path d="M119.396 38.6914C120.314 38.6975 121.249 39.7128 121.204 40.6552C121.161 41.5327 120.268 42.3964 119.395 42.4024C118.448 42.4092 117.788 41.6456 117.809 40.5678C117.83 39.5057 118.523 38.6861 119.396 38.6914Z" fill="#ECECEC"/>
<path d="M113.951 40.9219C115.777 41.1922 116.41 41.8316 115.942 43.0097C115.765 43.4545 115.18 43.9875 114.755 44.011C114.344 44.0338 113.767 43.5366 113.502 43.1173C113.106 42.4927 113.22 42.3132 113.951 40.9219Z" fill="#ECECEC"/>
<path d="M115.073 36.4414C115.266 36.7292 115.703 37.1253 115.808 37.5963C115.974 38.3296 115.166 39.242 114.498 39.1911C113.827 39.1398 113.489 38.7129 113.455 38.0411C113.413 37.2041 114.03 36.4467 115.073 36.4414Z" fill="#ECECEC"/>
</g>
<defs>
<clipPath id="clip0_1054_471">
<rect width="150" height="110" fill="white"/>
</clipPath>
</defs>
</svg>
