<svg width="150" height="110" viewBox="0 0 150 110" fill="none" xmlns="http://www.w3.org/2000/svg">
<g clip-path="url(#clip0_1054_10392)">
<path d="M118.006 53.7106C121.962 54.1604 123.306 53.9971 124.169 52.9257C122.158 53.1813 120.255 53.4241 118.006 53.7106ZM124.467 52.9984C124.474 53.0839 124.482 53.1685 124.49 53.254H130.394C130.394 52.9228 130.408 52.4919 130.387 52.0633C130.379 51.9131 130.286 51.7667 130.197 51.5229C128.273 52.0184 126.369 52.5088 124.467 52.9984ZM72.3012 86.3772C70.5812 84.4739 68.6083 83.0545 66.6893 81.5541C66.2714 82.0039 65.953 82.3481 65.6518 82.6733C67.3418 84.2442 68.9813 85.7673 70.6518 87.3191C71.197 87.0077 71.7004 86.7202 72.3012 86.3772ZM44.7183 74.8151C44.7601 75.5106 45.2227 75.8408 45.8435 76.0029C46.2653 76.1133 46.6979 76.1911 47.1308 76.2517C49.2359 76.5471 51.343 76.8317 53.5406 77.1322C53.635 76.6505 53.7454 76.0944 53.8628 75.4965C52.0064 75.0888 50.2625 74.7057 48.5843 74.3365C48.1783 74.84 48.2937 75.5772 47.4799 75.6219C47.3953 75.1124 47.3108 74.6061 47.2304 74.1227C45.6872 74.0689 45.6872 74.0689 44.7183 74.8151ZM39.4705 65.7899C34.1104 65.2418 28.9372 65.014 23.8457 66.4774C23.9162 68.4918 23.9928 68.5247 25.7558 68.1686C27.1972 67.878 28.6558 67.4811 30.1081 67.4753C32.9376 67.4652 35.7678 67.6961 38.7402 67.8343C38.9294 67.3031 39.1632 66.6516 39.4705 65.7899ZM30.5956 69.2827C30.5649 69.4301 30.5011 69.5873 30.5062 69.7424C30.6076 73.2014 30.7021 76.6604 30.8323 80.1187C30.8683 81.0796 31.098 81.2468 32.0481 81.2705C33.1156 81.2975 33.6736 80.9613 33.7374 80.1344C33.8019 79.3128 33.7364 78.4821 33.7613 77.6574C33.7951 76.5213 33.9792 76.2645 35.131 75.9611C35.7588 75.7971 36.4205 75.7065 37.0691 75.6946C38.9284 75.6596 40.7878 75.6816 42.5874 75.6816C42.8331 75.0359 42.7515 74.6479 42.2033 74.4998C41.9437 74.43 41.6603 74.4402 41.3876 74.4262C38.8637 74.2928 36.3388 74.1824 33.8169 74.0182C33.2499 73.9824 32.6938 73.7664 32.1017 73.6263C32.1017 72.4195 32.1157 71.3759 32.0979 70.3333C32.0768 69.1056 31.9764 69.044 30.5956 69.2827ZM97.6706 52.2312C99.0325 52.2312 100.237 52.2104 101.441 52.2363C103.46 52.279 105.478 52.0653 107.499 52.5119C108.816 52.8032 110.211 52.8909 111.561 52.8342C113.841 52.7397 116.11 52.3546 118.389 52.2851C120.632 52.2165 122.843 51.9846 125.037 51.5529C127.973 50.9748 130.828 50.1262 133.467 48.6908C136.29 47.1556 138.196 45.1361 137.754 41.5138C137.507 39.4965 136.752 38.1416 134.917 37.3326C131.403 35.7836 127.668 35.0227 123.891 34.778C121.473 34.6207 119.035 34.4258 116.564 34.5739C113.021 34.7879 109.492 34.9203 106.01 35.6732C102.999 36.325 100.234 37.5236 97.7819 39.3839C97.0149 39.9659 96.233 40.5908 96.203 41.7547C96.1941 42.083 95.7127 42.4052 95.4341 42.7178C95.1595 43.0241 94.8681 43.3147 94.5587 43.6408C96.583 45.5719 97.549 47.7774 97.3362 50.4745C97.2925 51.0275 97.5433 51.6036 97.6706 52.2312ZM38.0938 84.9476C38.984 85.5445 39.9978 85.5653 41.0194 85.6001C46.4564 85.7832 51.9049 85.2489 57.3349 85.9204C59.5831 86.198 61.72 86.8258 63.6352 87.9848C64.6826 88.6185 65.5064 89.5497 66.0615 90.7822C66.5579 91.8835 66.4156 93.0167 66.6683 94.2422C68.9934 94.0721 71.2356 93.9081 73.711 93.7259C73.2631 93.0722 72.9855 92.6176 72.6604 92.2C71.6216 90.8658 70.5822 89.5306 69.5125 88.2216C67.306 85.5226 64.8268 83.1199 61.534 81.8039C59.0232 80.8011 56.4563 79.9225 53.8749 79.1157C52.1228 78.5676 50.3292 78.0811 48.4708 78.0204C47.104 77.9757 45.7401 78.0354 44.4567 77.3938C44.1402 77.2356 43.7006 77.3061 43.3177 77.3052C41.2226 77.3013 39.1284 77.3081 37.0333 77.3112C36.5516 77.3122 36.0702 77.3112 35.4197 77.3112C35.4197 78.3966 35.4286 79.3198 35.4165 80.2419C35.4076 80.9074 35.6982 81.2995 36.3787 81.3004C37.092 81.3024 37.4621 81.7362 37.7575 82.2942C37.7554 82.9221 37.7196 83.5528 37.7665 84.1775C37.7863 84.4411 37.9793 84.6918 38.0938 84.9476ZM104.588 58.1646C103.687 58.058 102.773 57.8005 101.89 57.881C100.616 57.9984 99.3507 58.3098 98.1102 58.6431C97.5691 58.7883 97.0976 59.1941 96.5951 59.4816C95.4341 59.8606 94.3009 60.2814 93.6204 61.4038C92.3829 61.9627 91.1562 62.5478 89.9037 63.0739C88.7548 63.5566 87.6078 64.0808 86.4099 64.4052C83.0543 65.3135 79.5723 65.029 76.1532 65.3643C76.1682 64.9604 75.98 64.8111 75.5713 64.7792C74.6122 64.7055 73.6571 64.5881 72.7022 64.4668C71.3291 64.2936 69.7852 65.1125 69.1446 66.373C67.9607 67.0842 68.2293 68.1198 68.6632 69.0629C69.5326 70.9551 70.802 72.6035 72.3758 73.9447C73.3846 74.8032 74.3893 75.7871 75.808 76.0207C76.7074 76.5561 77.6067 77.0904 78.5061 77.6245C81.4655 78.7009 84.3984 79.8638 87.3957 80.8229C89.7158 81.5662 92.1024 82.1242 94.4879 82.6356C96.8765 83.147 99.291 83.5528 101.71 83.899C103.22 84.1159 104.757 84.2053 106.283 84.2212C107.423 84.2343 108.571 84.0789 109.705 83.9268C111.413 83.698 113.113 83.4064 114.794 83.1448C114.832 79.3425 113.03 76.8377 109.554 75.6248C108.93 75.4069 108.498 75.398 107.892 75.7463C107.263 76.1084 106.461 76.2903 105.724 76.3222C104.077 76.392 102.417 76.4208 100.778 76.2756C99.0472 76.1234 97.3123 75.821 95.8977 74.645C95.4928 74.3088 95.0829 73.9776 94.6761 73.6442C94.6244 73.3019 94.8512 72.8514 94.305 72.704C94.4372 71.2684 94.0084 69.7702 94.7904 68.4085C95.5713 67.4115 96.5393 66.6057 97.7401 66.2486C99.0245 65.8665 100.364 65.5889 101.697 65.4657C103.335 65.3145 104.993 65.3691 106.643 65.3343C108.482 65.2239 109.729 66.1899 110.312 67.7777C110.831 69.1933 111.821 69.648 113.106 69.8717C114.019 70.5961 114.93 71.3203 115.842 72.0445C118.612 74.0203 119.916 76.7768 120.179 80.1047C120.219 80.624 120.395 81.1333 120.523 81.7184C121.14 81.5551 121.603 81.4258 122.072 81.3103C125.062 80.5772 127.279 78.6591 129.36 76.542C129.576 76.3222 129.672 75.984 129.824 75.7014C130.771 75.033 131.528 74.2322 131.701 73.0224C133.01 71.4993 133.102 69.6828 132.958 67.8104C133.14 66.6356 133.117 65.4916 132.449 64.4448C132.31 63.6989 132.202 62.9457 132.026 62.2087C131.665 60.6955 131.376 60.4189 129.8 60.4496C128.224 60.4815 126.652 60.7262 125.075 60.7542C122.226 60.8049 119.373 60.8177 116.525 60.7361C115.233 60.6993 113.944 60.4339 112.665 60.208C110.959 59.9075 109.266 59.5454 107.568 59.2101C106.971 58.8489 105.301 58.2641 104.588 58.1646ZM70.2568 74.6858C69.6688 73.9068 69.0301 73.1606 68.5049 72.341C67.8095 71.2546 67.2017 70.1115 66.5569 68.9923C66.5272 68.3418 66.4973 67.691 66.4676 67.0395C66.6932 65.9143 67.313 65.021 68.2054 64.3456C70.0459 62.9517 72.1311 62.5647 74.3992 62.9049C75.9044 63.1317 77.4217 63.3018 78.9397 63.4293C80.8121 63.5854 82.6414 63.1706 84.4421 62.7657C87.2068 62.1439 89.867 61.2156 92.3242 59.7413C94.322 58.5436 96.2231 57.1099 98.6037 56.698C100.457 56.3777 102.28 55.6735 104.207 56.1808C105.203 56.4434 106.218 56.6632 107.18 57.0215C108.788 57.6213 110.419 57.9844 112.139 57.91C112.239 58.0899 112.318 58.4093 112.443 58.4291C113.451 58.5924 114.465 58.7574 115.483 58.8081C116.793 58.8738 118.111 58.8779 119.422 58.8301C122.522 58.7197 125.638 59.1294 128.72 58.5168C128.93 58.475 129.165 58.4808 129.374 58.5277C130.258 58.7255 131.138 58.9475 132.019 59.1603C132.894 60.4546 133.432 61.8881 133.775 63.4022C133.964 63.7496 134.153 64.0967 134.341 64.4439C134.345 65.3174 134.306 66.1928 134.359 67.0622C134.538 70.0002 133.929 72.7139 132.228 75.1593C131.998 75.4886 131.951 75.9442 131.819 76.3423C131.344 76.7848 130.869 77.2286 130.394 77.6714C128.711 79.6957 126.7 81.2966 124.276 82.3459C123.007 82.8962 121.716 83.3965 120.434 83.9197C120.36 84.0521 120.284 84.1845 120.209 84.3169C120.199 84.7336 120.19 85.1505 120.18 85.5672V86.8137C120.924 86.6577 121.556 86.5412 122.182 86.391C124.394 85.8569 126.455 84.9375 128.488 83.9398C130.529 82.938 131.956 81.4198 132.653 79.242C133.382 77.0266 134.22 74.839 134.814 72.5876C135.649 69.4211 136.195 66.1948 135.949 62.8901C136.221 61.4436 135.585 60.1662 135.174 58.8509C135.124 58.6948 134.847 58.6103 134.676 58.4929C133.694 57.6372 132.711 56.7806 131.729 55.9253C131.489 55.2368 130.864 55.6477 130.443 55.4764C129.433 54.7662 128.316 54.824 127.164 54.972C124.729 55.2834 122.292 55.581 119.85 55.8426C116.469 56.2057 113.237 55.202 109.944 54.7324C107.097 54.3266 104.282 53.6202 101.34 54.1304C99.3867 54.4698 97.5044 54.9114 95.7465 55.8366C93.9577 56.7787 92.1771 57.7377 90.3595 58.6211C89.3855 59.0946 88.3637 59.4995 87.3242 59.8031C84.0512 60.7571 80.6778 61.0276 77.2874 61.152C76.7392 61.1718 76.188 61.1818 75.6437 61.2465C73.317 61.5241 70.995 61.8523 68.6641 62.098C66.9748 62.2763 65.2716 62.3159 63.5825 62.4901C62.7796 62.5727 61.8365 62.6493 61.4534 63.4928C61.0545 64.3702 60.6854 65.3324 60.6238 66.2783C60.4219 69.3962 61.7638 71.9172 64.0471 73.9367C65.1902 74.9475 66.4456 75.8369 67.6882 76.7271C71.947 79.7783 76.7301 81.7998 81.6008 83.6035C87.4305 85.7622 93.4513 87.2874 99.5427 88.4832C101.408 88.8492 103.364 88.8016 105.28 88.8424C106.311 88.8651 107.349 88.6951 108.38 88.5767C110.168 88.3697 111.957 88.1629 113.735 87.8863C114.029 87.8404 114.381 87.4863 114.505 87.1898C114.7 86.7243 114.724 86.1871 114.843 85.5544C113.302 85.6936 111.953 85.8936 110.601 85.9236C106.817 86.0071 103.033 86.0895 99.2862 85.3047C96.1453 84.6471 92.937 84.2649 89.8411 83.4482C84.674 82.0843 79.6521 80.2738 74.9176 77.738C74.0641 77.2812 73.1319 76.973 72.2355 76.5959C71.8475 75.6787 71.0069 75.2289 70.2568 74.6858ZM60.8953 78.3577C60.8924 78.2613 60.9231 78.1011 60.8804 78.0772C59.0539 77.0783 57.1469 76.3085 54.9472 75.8975C54.8598 76.5372 54.79 77.0474 54.7264 77.5211C56.2365 78.1318 57.6025 78.7029 58.9862 79.2283C59.2747 79.3377 59.629 79.2759 59.9532 79.2928C60.0228 79.4293 60.0578 79.63 60.1682 79.6909C61.6543 80.5025 63.1506 81.2944 64.7225 82.1341C65.0757 81.763 65.395 81.4287 65.776 81.0299C64.4778 79.8948 63.089 79.1396 61.6843 78.4183C61.4674 78.3069 61.1611 78.3736 60.8953 78.3577ZM97.3024 73.3775C97.8725 73.6978 98.4127 74.0969 99.0175 74.3206C100.1 74.7197 101.223 75.0279 102.357 74.0271C102.229 73.4113 102.087 72.7289 101.944 72.0474C101.928 71.4834 101.912 70.9203 101.896 70.3572C102.045 69.7832 102.203 69.2122 102.339 68.6363C102.592 67.5746 102.434 67.2941 101.396 67.4115C100.388 67.526 99.3966 67.8234 98.4127 68.0959C96.6966 68.5696 95.5564 69.7912 96.011 71.6984C96.4419 72.2583 96.8717 72.8176 97.3024 73.3775ZM133.681 35.4167C134.164 35.7887 134.633 36.2283 135.392 35.8196C134.979 35.1022 134.379 34.9857 133.719 34.9848C133.625 35.0237 133.529 35.0625 133.434 35.1012L133.681 35.4167ZM131.387 32.3814C131.472 32.4312 131.559 32.48 131.645 32.5295L131.386 32.3824C131.163 32.1654 130.941 31.9475 130.719 31.7309C130.601 31.8422 130.484 31.9536 130.367 32.0649C130.706 32.1705 131.046 32.2758 131.387 32.3814ZM64.8657 78.3596C64.9812 78.4681 65.0967 78.5775 65.2129 78.6869C65.3324 78.7855 65.4527 78.884 65.573 78.9824C65.788 79.0969 66.0018 79.2114 66.2168 79.3266C66.3004 79.3515 66.3859 79.3655 66.4734 79.3684C66.8297 79.6769 67.1857 79.9863 67.5408 80.2946C69.3086 81.8415 71.0755 83.3876 72.8432 84.9346C73.0483 85.0571 73.2532 85.1802 73.4592 85.3037L73.465 85.3075C73.5735 85.4141 73.682 85.5216 73.7904 85.6279L73.7924 85.6329C73.9168 85.8359 74.0402 86.0388 74.1644 86.2417C74.4987 86.577 74.833 86.9113 75.1664 87.2466C75.2717 87.3551 75.3773 87.4635 75.4826 87.572C77.2893 89.464 79.096 91.3574 80.7693 93.1102C81.5829 93.0196 82.167 92.9251 82.754 92.8952C85.2559 92.765 87.7579 92.6546 90.26 92.5372C90.424 92.5292 90.5902 92.5321 90.7523 92.5123C92.4684 92.3094 94.1835 92.1084 95.8977 91.8944C96.7016 91.7939 97.5015 91.6666 98.3032 91.5513C98.6634 91.4576 99.0236 91.3632 99.3835 91.2697C99.686 91.2607 99.9874 91.2518 100.289 91.2419C101.17 91.1185 102.052 90.995 102.933 90.8718C103.236 90.853 103.537 90.8349 103.839 90.816C103.839 90.7525 103.838 90.6877 103.838 90.624C103.536 90.6102 103.235 90.5972 102.932 90.5834C102.163 90.5694 101.394 90.5563 100.625 90.5435C100.318 90.5346 100.01 90.5257 99.7029 90.5177C99.2364 90.4121 98.7687 90.3078 98.3013 90.2032C98.2158 90.1833 98.1281 90.1804 98.0406 90.1923C97.5809 90.0879 97.1212 89.9824 96.6608 89.878L96.6678 89.8819C96.4429 89.7903 96.218 89.6978 95.9931 89.6062C93.8064 89.0412 91.622 88.4733 89.4343 87.9131C85.5205 86.9104 81.6336 85.8279 77.9191 84.2034C76.1423 83.4255 74.3465 82.6911 72.5589 81.9382C72.4294 81.8357 72.3002 81.7331 72.1707 81.6297C70.7561 80.8477 69.3415 80.0658 67.9259 79.2838C67.5747 78.9814 67.2234 78.678 66.8715 78.3755C66.5668 78.1448 66.2724 77.8992 65.9562 77.6851C63.863 76.2756 61.9478 74.63 60.4566 72.6175C58.8918 70.5036 56.9141 69.1506 54.4677 68.3259C51.0355 67.1697 47.6282 65.9392 44.1989 64.7743C43.1802 64.4279 42.3019 63.6581 41.139 63.7436C41.0066 63.645 40.8752 63.5467 40.7431 63.4491L40.4126 63.4192C39.794 63.08 39.1871 62.715 38.5542 62.4055C36.5586 61.4286 34.5401 60.4974 32.5554 59.5017C30.0583 58.2472 27.8001 56.6664 25.9925 54.4986C25.0683 53.3902 24.1242 52.2991 23.1712 51.1777C22.8826 51.5558 22.6866 51.8155 22.4866 52.0732C21.0503 53.9256 19.7917 55.8982 18.9112 58.066C17.3236 61.9707 15.8143 65.9092 15.0703 70.0857C14.6823 72.2673 14.2217 74.4431 13.9808 76.6425C13.8018 78.2731 13.9849 79.9395 13.8953 81.585C13.8098 83.1438 14.4664 84.2978 15.5686 85.2848C15.8411 85.3911 16.1119 85.5873 16.3854 85.5892C17.9961 85.6052 19.6057 85.5752 21.2162 85.5602C22.7871 85.5991 24.2885 85.244 25.884 84.8121C25.884 84.277 25.8055 83.7796 25.9009 83.318C26.086 82.4225 25.9807 81.3333 27.1793 80.9791H28.7541C28.8785 80.4907 29.0904 80.0339 29.0884 79.5783C29.0846 78.8263 28.8906 78.0762 28.8686 77.324C28.8128 75.3494 28.807 73.3736 28.7811 71.3988C28.6398 70.7343 28.4995 70.0707 28.3355 69.2948C27.5743 69.4339 26.9467 69.5644 26.3128 69.6629C25.4077 69.8052 24.5003 69.9395 23.5901 70.0468C22.9434 70.1234 22.3803 69.6789 22.3545 69.1972C22.3026 68.2442 21.859 67.3647 22.06 66.346C22.2499 65.378 22.5166 64.7077 23.578 64.5922C23.6795 64.5813 23.7752 64.5067 23.8735 64.4618C24.2228 64.3593 24.5718 64.2569 24.9202 64.1545C25.1231 64.1436 25.325 64.1325 25.527 64.1216C25.6374 64.1146 25.7478 64.1076 25.8572 64.1006C26.1896 64.0042 26.5218 63.9076 26.853 63.8112C27.5127 63.7863 28.1731 63.7624 28.8328 63.7375C30.2376 63.6501 31.6432 63.496 33.0479 63.4948C34.2894 63.4938 35.5301 63.6629 36.7715 63.7566C37.3227 63.7755 37.8728 63.7943 38.424 63.8122C39.0806 63.9315 39.7372 64.0499 40.3938 64.1683C40.6167 64.4439 40.9916 64.6956 41.0375 64.998C41.2315 66.2745 40.9329 67.49 40.3032 68.6083C39.9908 69.1643 39.5203 69.5076 38.818 69.425C37.8491 69.3098 36.8741 69.2501 35.9081 69.1177C35.1153 69.0093 34.3908 69.0491 33.7741 69.7086C33.7741 70.0101 33.7632 70.3393 33.776 70.6676C33.8188 71.7878 34.1939 72.2306 35.3262 72.3608C36.6224 72.51 37.9247 72.5965 39.2248 72.712C40.3073 72.8086 41.3876 72.9229 42.471 72.9995C42.8471 73.0253 43.229 72.9586 43.609 72.9398C44.9649 72.8731 46.3878 72.511 47.6661 72.7956C51.9786 73.7565 56.2396 74.9475 60.5214 76.0497C60.6557 76.1522 60.79 76.2536 60.9231 76.356C61.0057 76.3829 61.0893 76.393 61.1748 76.385C61.3091 76.4884 61.4425 76.5928 61.5768 76.6974C62.0075 76.9162 62.4373 77.1361 62.8682 77.3559C63.097 77.4733 63.3267 77.5897 63.5555 77.7071C63.7625 77.8137 63.9683 77.9209 64.1744 78.0274C64.4041 78.1388 64.635 78.2492 64.8648 78.3608L64.8657 78.3596ZM100.576 34.7072C100.55 34.5949 100.524 34.4825 100.498 34.37C100.561 34.1064 100.625 33.8417 100.7 33.5363C101.347 33.3155 102.009 33.0916 102.669 32.8628C107.424 31.2105 112.302 30.3051 117.352 30.3807C120.031 30.4206 122.716 30.33 125.375 30.7697C125.615 30.8583 125.854 30.9467 126.094 31.0354C126.95 31.1707 127.807 31.3059 128.664 31.4422C128.799 31.5337 128.935 31.6253 129.071 31.7168C129.303 31.6731 129.535 31.6292 130.145 31.5149C129.418 30.9738 128.998 30.5776 128.506 30.3112C125.801 28.8378 122.953 27.7643 119.872 27.3913C119.28 26.7664 118.506 27.2102 117.837 27.0452C117.656 26.9546 117.476 26.7845 117.296 26.7855C115.708 26.7913 114.12 26.8273 112.531 26.8541C111.519 26.9237 110.507 27.0251 109.493 27.056C107.972 27.1027 106.449 27.1017 104.926 27.1205C104.118 27.2102 103.312 27.3595 102.503 27.3793C100.408 27.43 98.4385 28.039 96.4787 28.6745C94.3398 29.3681 92.3819 30.4385 90.5356 31.7127C88.9628 32.7993 87.159 33.3981 85.3185 33.2527C83.5647 33.1136 81.8716 32.428 80.1973 31.7656C76.9281 30.4742 73.6909 29.0804 70.1244 28.6716C66.0079 28.1991 62.0225 28.1673 58.1089 29.9261C54.3544 31.6135 51.1549 33.9692 48.3684 36.9388C47.9345 37.4002 47.5437 37.7862 46.8651 37.6113C46.6462 36.304 46.6054 36.2622 47.3427 35.5609C48.7305 34.2388 50.0775 32.844 51.6146 31.7139C53.4002 30.4018 55.3332 29.3014 57.3598 28.3383C59.7723 27.1923 62.316 26.8152 64.8916 26.4492C65.223 26.4442 65.5532 26.4391 65.8844 26.4352C66.5461 26.4362 67.2075 26.4372 67.8701 26.4391L68.5327 26.455C68.7327 26.4582 68.9328 26.4611 69.1325 26.464C69.3714 26.5517 69.6111 26.6391 69.851 26.7268C70.1703 26.7437 70.4897 26.7616 70.81 26.7785C70.9303 26.858 71.0515 26.9377 71.1721 27.0172C71.7062 27.0529 72.2405 27.0879 72.7746 27.1237C73.0145 27.2251 73.2542 27.3276 73.494 27.429L73.6353 27.45L73.7786 27.4469C74.0144 27.5445 74.2492 27.6431 74.4849 27.7404L74.64 27.7663L74.7963 27.7624C75.221 28.3402 75.8578 28.0011 76.3861 28.1284C76.5242 28.226 76.6636 28.3245 76.8018 28.4219L76.938 28.4458L77.0755 28.4448C77.3101 28.5533 77.5449 28.6617 77.7797 28.7702L77.7739 28.7651C77.9995 28.8726 78.2254 28.9789 78.4512 29.0864L78.4462 29.0835C78.6701 29.1898 78.8931 29.2954 79.1168 29.4019C80.4806 29.929 81.8327 30.4902 83.2116 30.9776C85.5862 31.8173 87.8057 31.4342 89.8998 30.0655C90.8101 29.4705 91.7531 28.9164 92.7172 28.412C96.8915 26.2243 101.439 25.4086 106.062 25.1827C109.17 25.0305 112.317 24.8266 115.427 25.4086C115.948 25.5049 116.503 25.4216 117.109 25.4216C117.209 24.7182 117.347 24.1203 116.841 23.6376C116.051 22.8847 115.278 22.1008 114.416 21.4372C111.812 19.4365 108.69 18.8336 105.553 18.5432C102.45 18.2558 99.305 18.3741 96.2697 19.1778C93.318 19.9598 90.4948 21.1019 88.147 23.1514C87.0336 24.1232 85.9355 25.1151 84.8769 26.1458C84.073 26.9278 83.1797 27.5097 82.0914 27.7863C81.8754 27.7991 81.6585 27.8112 81.4428 27.824C80.6666 27.8151 79.8898 27.8061 79.1139 27.7972C78.894 27.7832 78.6742 27.7682 78.4553 27.7544C78.3577 27.7315 78.2592 27.7266 78.1609 27.7385C78.0403 27.6568 77.9191 27.5742 77.7985 27.4918C77.355 27.3694 76.9112 27.2481 76.4684 27.1256C76.2477 27.1048 76.0278 27.0829 75.807 27.0609C75.7094 27.05 75.614 27.0292 75.5196 26.9993C75.3096 26.9068 75.0988 26.8152 74.8888 26.7227C74.648 26.6183 74.4072 26.5147 74.1666 26.4103L74.1736 26.4154C73.9455 26.3079 73.7187 26.1994 73.4921 26.092C72.9408 25.8801 72.3908 25.6682 71.8395 25.4564C71.7291 25.4453 71.6187 25.4344 71.5083 25.4235C71.4216 25.4025 71.3351 25.3955 71.2477 25.4025C71.0069 25.2982 70.7672 25.1936 70.5273 25.0892L70.5334 25.0943C70.3075 24.9916 70.0807 24.8882 69.8548 24.7858L67.9438 24.3928C67.701 24.2894 67.4573 24.186 67.2145 24.0824C67.1251 24.0686 67.0355 24.0645 66.9449 24.0686C66.5939 23.9621 66.2427 23.8555 65.8914 23.7492C65.804 23.7323 65.7163 23.7263 65.6279 23.7323C63.6151 22.6776 61.4734 23.198 59.3793 23.2608C58.6579 23.2816 57.9446 23.578 57.2274 23.7483C56.8464 23.7869 56.4474 23.764 56.0894 23.8746C51.8363 25.1817 48.0053 27.3384 44.413 29.9003C42.1099 31.5427 39.9918 33.4419 37.7305 35.1459C35.6484 36.7149 33.9045 38.601 32.5416 40.7787C31.5109 42.4262 30.7917 44.2677 29.9489 46.0295C29.6515 46.6522 29.7868 47.2035 30.3429 47.6281C30.6444 47.8581 30.9487 48.0859 31.2652 48.2949C34.8128 50.6405 38.632 52.4621 42.5256 54.1444C47.2014 56.1659 51.9387 58.0303 56.7986 59.5652C58.7007 60.1662 60.5472 61.0755 62.6382 60.796C63.3905 60.6955 64.1415 60.588 64.8925 60.4834C66.7043 60.3481 68.5158 60.215 70.3273 60.0667C70.3971 60.0606 70.4558 59.9145 70.5203 59.8338C71.0716 59.8249 71.6236 59.8169 72.1758 59.8089C72.6205 59.793 73.0643 59.777 73.509 59.7613C74.1656 59.6708 74.8222 59.5811 75.4788 59.4905C79.081 59.5364 82.6424 59.1644 86.1652 58.4211C86.3473 58.3825 86.4916 58.1675 86.8068 57.9109C86.37 57.8711 86.1164 57.8083 85.8717 57.8332C85.0103 57.9218 84.1537 58.0561 83.2922 58.1426C80.9145 58.3834 78.5348 58.6013 76.158 58.8489C75.9223 58.8738 75.7024 59.042 75.4746 59.1434C74.8171 59.1555 74.1595 59.1673 73.502 59.1792C73.0563 59.2649 72.6106 59.3504 72.1649 59.4369C71.6156 59.4548 71.0665 59.4736 70.5174 59.4918C68.9695 59.5065 67.4215 59.5205 65.8745 59.5345C65.76 59.3852 65.6458 59.2359 65.381 58.8898C67.0355 58.6342 68.4622 58.3516 69.9027 58.2064C71.7521 58.0204 73.6143 57.9636 75.4688 57.8162C76.4984 57.7348 77.54 57.6592 78.5479 57.4474C81.2218 56.8852 83.9348 56.7072 86.6488 56.5311C88.5557 56.4086 90.433 56.1183 92.2367 55.5032C92.9919 55.2457 93.8086 54.8686 94.3398 54.3036C96.0448 52.488 96.3823 50.2793 95.831 47.8948C95.6013 46.901 95.0363 46.1519 94.3637 45.3949C92.6894 43.5075 90.5446 42.5526 88.1758 41.9467C87.4643 41.7646 86.7672 41.525 86.0628 41.3119C86.013 41.2206 85.9632 41.13 85.9135 41.0384C85.8538 41.1211 85.7941 41.2025 85.7354 41.2841C84.9465 41.6641 84.4979 40.558 83.6244 40.8662C82.9439 41.1051 82.1192 40.9807 81.3631 40.9408C80.614 40.9022 79.87 40.7659 79.1247 40.6722C79.1218 40.3321 79.1199 39.9908 79.1168 39.6497C79.9953 39.6526 80.8807 39.589 81.7501 39.6765C82.5748 39.7591 83.514 39.2885 84.2114 40.1053C85.0967 39.7323 85.8857 40.3212 86.7302 40.357C86.8636 40.4425 86.9959 40.527 87.1293 40.6126C87.7668 40.736 88.4045 40.8594 89.0423 40.9826C89.1816 41.0761 89.3218 41.1708 89.4611 41.2643C89.9984 41.3428 90.5344 41.4293 91.0726 41.4969C92.3701 41.6602 93.6861 42.3765 95.0092 41.3368C94.9466 41.1121 94.9256 40.8304 94.7964 40.6135C94.1516 39.5323 93.1151 38.9165 91.992 38.4868C89.1855 37.4123 86.2389 36.8869 83.2632 36.7018C80.6835 36.5407 78.0862 36.6233 75.4986 36.689C74.3098 36.7199 73.109 36.8849 71.9441 37.1337C68.0324 37.9674 64.3753 39.4356 60.9869 41.5916C59.6597 42.4361 58.2531 43.1804 56.8174 43.8259C55.74 44.3105 54.5762 44.6417 53.4181 44.8924C52.7905 45.0286 51.9607 45.1572 51.6136 44.009C52.2919 43.7633 52.9168 43.4659 53.5754 43.3126C55.3371 42.9016 56.9539 42.1924 58.5217 41.286C61.9529 39.3013 65.3701 37.3038 69.2767 36.2832C71.8147 35.6206 74.3685 35.1539 76.969 35.0444C80.9036 34.8794 84.8233 34.9918 88.6862 35.9887C90.8001 36.5349 92.9192 37.0291 94.7278 38.2867C95.5535 38.8607 96.2518 38.787 96.993 38.3254C98.0008 37.6997 98.9748 37.0224 99.9635 36.3668C100.186 36.2532 100.41 36.1399 100.633 36.0274L100.629 36.0324C102.765 35.4623 104.801 34.6268 107.01 34.196C109.498 33.7105 112.002 33.58 114.473 33.4597C118.783 33.2498 123.12 33.1216 127.427 33.9731C129.273 34.3381 131.117 34.6555 133.005 35.3063C133.028 35.0297 133.048 34.7869 133.065 34.571C132.377 34.3291 131.771 34.1074 131.161 33.9025C129.981 33.5054 128.819 33.0281 127.612 32.7445C124.522 32.0183 121.34 32.0531 118.198 31.7714C115.685 31.5468 113.182 31.9845 110.711 32.4123C109.012 32.7068 107.351 33.2339 105.675 33.6627C104.207 34.0378 102.74 34.4197 101.272 34.7988C101.049 34.7789 100.826 34.7589 100.603 34.7391L100.576 34.7072ZM66.2038 110.21C65.7989 110.248 65.395 110.286 64.9911 110.324C64.9353 109.727 64.8319 109.131 64.83 108.534C64.814 104.85 64.8459 101.165 64.809 97.4804C64.7952 96.1694 64.7174 94.8461 64.5186 93.5508C64.1326 91.0428 62.9984 89.0871 60.2636 88.5557C58.4422 88.2027 56.6225 87.7331 54.782 87.6068C52.2622 87.4345 49.7224 87.5232 47.1915 87.528C44.0547 87.5331 40.918 87.5867 37.7802 87.5797C36.119 87.5768 35.8922 87.3143 35.7301 85.7115C35.6612 85.0232 35.5112 84.3437 35.3798 83.5538C33.8686 83.5538 32.4998 83.5509 31.1299 83.5547C28.7055 83.5608 28.8198 83.6782 28.9014 85.6738C28.9085 85.8378 28.9053 86.004 28.8884 86.1683C28.7949 87.0804 28.5273 87.4307 27.6021 87.5998C26.851 87.736 26.078 87.8126 25.3151 87.8145C19.756 87.8315 14.1977 87.8206 8.63855 87.8266C8.09237 87.8276 7.54618 87.8843 7 87.915V85.6011H11.0202C11.3475 83.319 11.6659 81.1521 11.9683 78.9836C12.779 73.1637 13.4605 67.313 15.6184 61.7837C16.7146 58.9743 17.599 56.0625 19.2475 53.4968C21.273 50.3451 23.7401 47.6571 27.2769 46.1449C28.02 45.8275 28.605 45.3422 28.8169 44.5354C29.961 40.1847 32.7714 36.9497 36.0405 34.1103C40.3619 30.3559 44.8884 26.8541 50.0328 24.2495C54.0967 22.1914 58.3635 21.2809 62.9448 21.7167C67.1589 22.1167 71.0984 23.4417 75.026 24.8764C76.3143 25.3479 77.6067 25.8154 78.9167 26.2243C80.6867 26.7766 82.2774 26.464 83.6283 25.123C84.2133 24.5421 84.8868 24.0466 85.4598 23.4548C89.1587 19.6324 93.7997 17.8965 98.9668 17.2569C103.117 16.7426 107.196 16.9752 111.21 18.185C113.463 18.8645 115.478 19.9279 117.099 21.6749C117.891 22.5305 118.613 23.406 118.864 24.5957C119.051 25.4813 119.603 25.9168 120.542 26.1538C124.34 27.1097 128.062 28.3494 131.241 30.7119C133.042 32.05 134.655 33.6477 136.298 35.1867C136.72 35.5817 136.952 36.1875 137.236 36.7149C137.469 37.1465 137.606 37.634 137.864 38.049C139.901 41.3409 139.279 45.6913 136.353 48.1973C135.691 48.7642 134.976 49.3114 134.199 49.6935C131.666 50.94 131.598 50.9987 131.776 53.8956C132.012 54.0589 132.265 54.2717 132.55 54.4258C135.86 56.2137 137.478 59.0461 137.574 62.7428C137.612 64.2212 137.526 65.7174 137.331 67.1828C136.961 69.9552 136.68 72.7668 135.972 75.4598C135.349 77.8284 134.232 80.0738 133.249 82.337C132.95 83.0255 132.442 83.6632 131.902 84.1934C131.31 84.7744 131.127 85.2967 131.463 86.0837C132.074 87.5111 132.389 89.0233 132.323 90.5812C132.28 91.5612 132.862 92.0874 133.542 92.5869C134.563 93.3339 135.615 94.0402 136.605 94.8253C140.379 97.8176 142.539 101.849 143.784 106.39C144.108 107.572 143.938 108.888 144 110.23H142.602C142.499 109.372 142.467 108.498 142.281 107.658C141.343 103.414 139.774 99.4842 136.428 96.5015C135.543 95.7126 134.604 94.9845 133.688 94.2284C133.487 94.1001 133.284 93.9716 133.082 93.8433L133.059 93.8235C132.819 92.9162 132.584 92.7739 132.045 93.2087C131.832 93.0802 131.618 92.951 131.404 92.8227C131.397 92.1413 131.375 91.4598 131.389 90.7793C131.397 90.3614 131.176 90.2321 130.816 90.2181C130.787 89.7804 130.76 89.3417 130.732 88.904C131.364 88.4523 130.982 88.3279 130.514 88.2315C130.48 88.0136 130.446 87.7967 130.413 87.5788C130.653 86.8318 130.353 85.6967 129.825 85.6508C129.197 85.5962 128.499 85.6598 128.402 86.5492C128.225 86.583 128.047 86.6169 127.869 86.6516C127.712 86.8029 127.554 86.9541 127.397 87.1053C127.181 87.1471 126.964 87.1879 126.748 87.2297C126.639 87.1331 126.49 86.9321 126.428 86.956C125.541 87.3012 124.654 87.6215 123.683 87.6565C123.595 87.6604 123.519 88.0008 123.439 88.1836L122.784 88.2455C122.569 88.1349 122.338 87.9112 122.143 87.938C121.514 88.0225 120.893 88.1858 120.282 88.3607C120.195 88.3856 120.176 88.6443 120.125 88.7955C119.89 89.0533 119.656 89.3118 119.422 89.5695C119.1 89.6799 118.779 89.7903 118.459 89.8997C118.894 87.6495 119.29 85.3943 119.185 83.0822C118.804 82.8375 118.462 82.6165 118.009 82.3252C118.469 81.9978 118.806 81.758 119.103 81.5461C119.234 77.0892 116.851 73.8421 113.362 72.0504C111.35 71.0169 109.408 69.9444 108.274 67.7947C107.678 66.6634 106.454 66.753 105.322 66.9291C104.287 67.0902 103.537 67.6323 103.367 68.6621C103.105 70.2548 103.197 71.8455 103.975 73.3149C104.428 74.1703 105.064 74.4619 106.033 74.2788C106.406 74.2083 106.756 73.9754 107.128 73.9396C107.934 73.8621 108.826 73.6321 109.544 73.873C112.744 74.9465 115.04 77.0534 116.061 80.3305C116.673 82.2974 116.636 84.3326 116.347 86.3692C115.995 88.8323 115.184 91.1573 114.312 93.4682C113.375 95.049 112.504 96.6735 111.481 98.1969C110.707 99.3486 109.737 100.37 108.854 101.449L108.869 101.431C107.838 102.025 106.861 102.758 105.765 103.187C101.593 104.819 97.3273 105.046 93.0107 103.747C93.0245 103.341 93.0723 102.976 93.6303 103.255C94.1031 103.489 94.5746 103.716 94.9875 103.154C95.3167 103.176 95.646 103.198 95.9752 103.22C96.0709 103.396 96.1603 103.722 96.2617 103.726C97.2874 103.766 98.3151 103.769 99.3408 103.733C99.4473 103.729 99.5417 103.41 99.6422 103.237C100.191 103.205 100.74 103.172 101.288 103.14C102.092 103.907 102.659 103.237 103.266 102.814C105.459 102.253 107.125 100.909 108.584 99.2532C109.007 98.7737 109.438 98.3002 109.866 97.8236C110.696 97.9212 110.53 97.3202 110.552 96.8508L110.556 96.8458C111.378 96.8975 111.19 96.3056 111.198 95.8389L111.196 95.8421C111.3 95.7135 111.403 95.5853 111.507 95.457C111.497 95.3616 111.517 95.2739 111.567 95.1922C111.773 95.07 112.071 94.9944 112.166 94.8132C112.334 94.4939 112.379 94.11 112.477 93.7527C112.507 93.5718 112.539 93.3906 112.57 93.2107C113.169 93.2355 113.252 92.9003 113.124 92.4178C113.296 91.804 113.469 91.1892 113.641 90.5742C114.245 90.5324 114.282 90.1773 114.071 89.7357C114.055 89.7029 113.718 89.8232 113.53 89.872C113.307 89.8819 113.084 89.8927 112.862 89.9029C112.709 89.8063 112.557 89.7099 112.405 89.6132C112.333 89.8002 112.261 89.9865 112.189 90.1725L110.872 90.5445C110.853 90.4947 110.831 90.4012 110.815 90.4022C109.837 90.4529 108.889 90.5892 108.212 91.4139C107.777 91.4608 107.342 91.5083 106.908 91.5552C106.751 91.4448 106.574 91.218 106.443 91.2419C105.36 91.4378 104.28 91.6656 103.211 91.9294C103.08 91.961 103.017 92.2625 102.922 92.4386C102.705 92.4606 102.488 92.4814 102.273 92.5034C101.689 91.9333 101.029 92.2147 100.393 92.3591C100.326 92.3748 100.315 92.6456 100.278 92.7978C100.059 92.8167 99.8413 92.8345 99.6224 92.8524C99.0543 92.3799 98.9141 92.4108 98.6185 93.0722C98.0713 93.1102 97.5232 93.1479 96.9761 93.1858C96.3932 92.572 95.7286 92.8655 95.0899 93.0435C95.0194 93.0633 95.0213 93.3399 94.9904 93.4962C94.7715 93.508 94.5527 93.5189 94.3338 93.531C94.3118 93.4803 94.3009 93.3976 94.2652 93.3858C92.8158 92.8792 91.4608 93.4235 90.0928 93.7837C90.045 93.7965 90.0431 93.9837 90.0201 94.09C89.5843 94.1129 89.1478 94.1349 88.712 94.1576C88.5896 93.8245 88.4792 93.8593 88.3787 94.1697C88.0485 94.1786 87.7192 94.1885 87.3887 94.1984C86.6826 93.6733 86.4099 93.718 86.0497 94.4173C85.6091 94.4402 85.1695 94.4632 84.7296 94.4871C84.1607 93.9011 83.5 94.2153 82.8712 94.3248C82.8057 94.3359 82.7837 94.6033 82.7419 94.7526C82.3967 94.9734 82.5658 95.1715 82.7579 95.3874C83.9737 96.7504 85.1842 98.1162 86.3959 99.482L86.7491 99.7975L86.7423 99.7905C86.8725 99.896 87.0017 100.001 87.1322 100.108C87.6595 100.447 88.1866 100.787 88.714 101.128C88.9507 101.318 89.2005 101.493 89.4203 101.7C89.7754 102.034 89.8382 102.337 89.2701 102.51C88.3598 102.02 87.3539 101.648 86.5621 101.01C85.5255 100.176 84.5815 99.289 83.0045 99.5059C83.2285 99.0126 83.3787 98.6831 83.5638 98.2763C82.9161 97.6089 82.2685 96.967 81.6505 96.2967C79.9016 94.3965 78.1647 92.4855 76.4238 90.5783L76.4436 90.6061C75.3026 89.3666 74.1624 88.1271 73.0573 86.9263C72.3558 87.3251 71.8108 87.6355 71.1342 88.0216C72.1132 89.2939 73.0662 90.5505 74.0482 91.783C74.1506 91.9113 74.425 91.9023 74.6202 91.9572L74.6043 91.9393C74.8241 92.4077 74.9872 92.9143 75.2746 93.336C75.7812 94.0772 76.3641 94.7666 76.9151 95.4768C76.6187 95.6232 76.3223 95.7684 76.0259 95.9136C75.8466 95.7713 75.6686 95.629 75.4896 95.4867C75.5075 94.9963 75.2657 94.8164 74.7874 94.855C73.2404 94.9814 71.6902 95.0828 70.1454 95.2321C70.029 95.243 69.9425 95.5565 69.841 95.7295C69.5147 95.7416 69.1874 95.7524 68.86 95.7633C68.7506 95.7655 68.6412 95.7674 68.5318 95.7693C68.2006 95.7693 67.8691 95.7703 67.5379 95.7713C67.4106 95.4787 67.3031 95.5196 67.2075 95.7892C67.0961 95.8092 66.9857 95.828 66.8744 95.8469C66.0535 95.7901 66.2197 96.387 66.2187 96.8537C66.2108 101.307 66.2079 105.758 66.2038 110.21Z" fill="#080C07"/>
<path d="M35.2641 104.342H37.3056V95.2461H35.2641V104.342ZM15.7972 95.47C13.1411 94.5368 10.8738 95.1197 9.55361 97.0059C8.2733 98.8355 8.36582 101.548 9.7616 103.11C11.1265 104.636 13.6274 104.969 15.8242 103.9V102.165C14.1477 102.809 12.5302 103.179 11.3881 101.46C10.7018 100.428 10.6986 99.2873 11.3453 98.2157C12.4278 96.4249 14.0632 96.7315 15.7972 97.2289V95.47ZM29.3329 101.234C30.0602 101.184 30.6671 101.205 31.248 101.091C32.5841 100.828 33.941 99.8791 33.8874 98.0475C33.8475 96.6677 33.4436 95.5823 31.4749 95.2649C30.0989 95.0432 28.6645 95.0741 27.1861 95.292C27.1861 96.8706 27.1822 98.349 27.188 99.8264C27.194 101.341 27.211 102.854 27.223 104.302H29.2336C29.2336 103.701 29.2215 103.21 29.2375 102.718C29.2534 102.241 29.2971 101.765 29.3329 101.234ZM39.1272 95.2888C39.1272 97.1581 39.1093 98.8585 39.1371 100.56C39.1451 101.044 39.2437 101.536 39.3678 102.007C39.7947 103.625 40.7189 104.363 42.4092 104.484C44.5352 104.636 45.8423 103.978 46.474 102.424C46.5557 102.224 46.6482 102.009 46.6491 101.8C46.6619 99.6245 46.6571 97.4487 46.6571 95.2649H44.6903V96.4757C44.6893 97.7381 44.6973 99.0005 44.6833 100.263C44.6794 100.644 44.6664 101.037 44.5719 101.401C44.3579 102.218 43.6607 102.754 42.9165 102.74C42.1376 102.725 41.468 102.188 41.4013 101.286C41.297 99.8661 41.3417 98.4345 41.3078 97.009C41.2938 96.43 41.2393 95.8519 41.1975 95.1765C40.6382 95.1765 40.2611 95.1666 39.8843 95.1813C39.6763 95.1893 39.4693 95.2381 39.1272 95.2888ZM16.5226 99.9088C16.3503 102.799 18.4971 104.519 20.9138 104.523C23.7937 104.527 25.5108 102.196 25.4939 99.7984C25.4751 97.0298 23.7549 94.9605 21.0201 94.9736C18.5947 94.9854 16.3564 96.6706 16.5226 99.9088ZM51.3169 98.8394C51.8192 100.285 52.3057 101.737 52.8289 103.174C53.2956 104.454 53.3145 104.447 54.9431 104.272C55.6553 102.303 56.3836 100.289 57.1119 98.2744C57.3187 99.2972 57.3177 100.282 57.3187 101.267C57.3196 102.292 57.3228 103.316 57.3247 104.304H59.2606C59.5133 100.963 59.4128 96.3435 59.0816 95.2502H56.4044C55.6533 97.3999 54.9173 99.5081 54.172 101.639C53.6667 100.159 53.205 98.758 52.7067 97.3702C52.453 96.6629 52.3156 95.7138 51.7943 95.3586C51.2561 94.9915 50.3181 95.2053 49.554 95.1826C49.4028 95.1775 49.2506 95.248 49.0496 95.2958V104.293H50.7439V98.9032C50.9348 98.8821 51.1259 98.8614 51.3169 98.8394ZM7 87.9172C7.54618 87.8863 8.09212 87.8297 8.63831 87.8285C14.1975 87.8227 19.7567 87.8336 25.3149 87.8167C26.0778 87.8148 26.8508 87.7382 27.6021 87.6017C28.5273 87.4326 28.7947 87.0826 28.8884 86.1702C28.9053 86.0061 28.9082 85.8399 28.9022 85.6757C28.8196 83.6801 28.7053 83.5627 31.1297 83.5569C32.4996 83.5528 33.8686 83.5557 35.3796 83.5557C35.511 84.3456 35.6612 85.0251 35.7308 85.7136C35.8919 87.3162 36.1197 87.579 37.7812 87.5828C40.918 87.5889 44.0545 87.5353 47.1912 87.5302C49.7231 87.5251 52.262 87.4367 54.782 87.6087C56.6222 87.735 58.442 88.2046 60.2634 88.5588C62.9982 89.09 64.1323 91.045 64.5184 93.5529C64.7184 94.8482 64.7949 96.1713 64.809 97.4825C64.8466 101.167 64.8148 104.852 64.8297 108.536C64.8317 109.133 64.9353 109.73 64.9909 110.326C64.4427 110.345 63.8937 110.38 63.3455 110.38C44.563 110.387 25.7814 110.39 7 110.395V87.9172Z" fill="#C0C0C0"/>
<path d="M122.784 88.2455C123.002 88.2257 123.219 88.2046 123.437 88.1848C124.649 88.2426 125.732 87.8556 126.747 87.2297C126.964 87.1889 127.18 87.1471 127.397 87.1065C127.554 86.9553 127.711 86.804 127.868 86.6516C128.046 86.6178 128.223 86.583 128.402 86.5492C128.799 86.4576 129.195 86.3673 129.655 86.2617C129.911 86.7074 130.161 87.1432 130.411 87.5799C130.445 87.7969 130.48 88.0148 130.514 88.2315C130.586 88.4564 130.658 88.6803 130.73 88.9049C130.758 89.3427 130.786 89.7804 130.814 90.2181C130.795 90.8162 130.704 91.425 130.787 92.0088C130.829 92.3033 131.188 92.5531 131.404 92.8227C131.618 92.9519 131.831 93.0804 132.045 93.2097C132.229 93.6684 132.556 93.8902 133.058 93.8235L133.08 93.8433C133.283 93.9718 133.485 94.1001 133.688 94.2284C134.602 94.9854 135.542 95.7138 136.427 96.5027C139.773 99.4851 141.341 103.415 142.28 107.658C142.466 108.498 142.498 109.373 142.602 110.231C142.057 110.263 141.511 110.324 140.966 110.324C116.847 110.329 92.7277 110.329 68.608 110.321C68.0139 110.321 67.419 110.221 66.8242 110.168C66.8411 105.395 66.8571 100.621 66.874 95.8481C66.9844 95.828 67.0957 95.8092 67.2071 95.7903C67.3165 95.7843 67.4269 95.7783 67.5364 95.7715C67.8678 95.7715 68.1999 95.7703 68.5314 95.7693C68.6408 95.7674 68.7502 95.7664 68.8597 95.7645C69.1867 95.7534 69.5131 95.7415 69.8404 95.7307C70.4344 95.7524 71.0314 95.8191 71.6222 95.7862C72.9124 95.7138 74.1997 95.5903 75.4892 95.4869C75.6673 95.6292 75.8463 95.7715 76.0243 95.9135C76.1697 96.1186 76.3149 96.3235 76.4591 96.5286C76.6132 96.7363 76.7676 96.9453 76.9217 97.1533C77.2003 97.404 77.4778 97.6545 77.7563 97.9053C78.223 98.4275 78.6895 98.9498 79.1562 99.4711C79.8923 100.273 80.5948 101.11 81.3697 101.872C84.0975 104.554 87.1893 106.599 90.9669 107.562C93.5425 108.218 96.1647 108.155 98.7722 108.328C99.795 108.397 100.839 108.192 101.869 108.088C102.899 107.983 103.943 107.931 104.948 107.709C107.602 107.122 109.94 105.976 111.886 103.98C115.041 100.741 117.198 96.9344 118.684 92.7183C119.04 91.7086 119.181 90.622 119.421 89.5705C119.655 89.312 119.89 89.0542 120.125 88.7955C121.06 88.8494 121.942 88.6433 122.784 88.2455Z" fill="#0944F0"/>
<path d="M66.8737 95.8475C66.8568 100.621 66.8409 105.395 66.824 110.168C66.6169 110.182 66.4101 110.197 66.2031 110.211C66.2072 105.759 66.2101 101.307 66.2181 96.8541C66.2191 96.3877 66.0529 95.7907 66.8737 95.8475Z" fill="#0C0F22"/>
<path d="M64.8943 60.484C64.1432 60.5886 63.392 60.6948 62.64 60.7963C60.549 61.0758 58.7024 60.1656 56.8003 59.5648C51.9405 58.0296 47.2041 56.1664 42.5273 54.145C38.6345 52.4627 34.8143 50.6411 31.2669 48.2952C30.9505 48.0862 30.6461 47.8584 30.3456 47.6287C29.7885 47.2038 29.6532 46.6528 29.9506 46.03C30.7932 44.268 31.5136 42.4256 32.5431 40.7793C33.906 38.6006 35.6501 36.7154 37.7322 35.1465C39.9935 33.4424 42.1116 31.5423 44.4147 29.8996C48.008 27.339 51.838 25.1823 56.0911 23.8749C56.4491 23.7645 56.8491 23.7875 57.2291 23.7486C60.0296 23.7438 62.8291 23.7377 65.6294 23.7327C65.718 23.7269 65.8055 23.7326 65.8932 23.7496C66.0852 24.3825 66.5715 24.0402 66.9466 24.0689C67.0372 24.065 67.1266 24.0689 67.2162 24.082C67.3037 24.5506 67.639 24.438 67.9465 24.3933L69.8565 24.7864C70.0824 24.8888 70.3092 24.9912 70.5351 25.0946L70.5291 25.0898C70.7687 25.1941 71.0095 25.2975 71.2494 25.4021C71.3369 25.3961 71.4243 25.4031 71.5098 25.4239C71.5777 25.5074 71.6463 25.591 71.714 25.6746C71.7567 25.6021 71.7985 25.5294 71.8413 25.4567C72.3923 25.6686 72.9426 25.8807 73.4936 26.0925C73.7204 26.2 73.9482 26.3085 74.175 26.4157L74.168 26.4109C74.4089 26.5143 74.6497 26.6187 74.8903 26.7223C75.1012 26.8148 75.3111 26.9073 75.5211 26.9998C75.514 27.4743 75.3858 27.8364 74.7978 27.7627L74.6417 27.7668L74.4864 27.741C74.2516 27.6434 74.0159 27.5451 73.7801 27.4475L73.6378 27.4494L73.4958 27.4296C73.2559 27.3272 73.0162 27.2257 72.7764 27.1243C72.2423 27.0883 71.7079 27.0525 71.1738 27.0168C71.0533 26.938 70.932 26.8585 70.8115 26.7788C70.4924 26.7609 70.1718 26.744 69.8524 26.7262C69.6128 26.6397 69.3741 26.5522 69.1343 26.4645C68.9342 26.4616 68.7345 26.4585 68.5345 26.4556C68.3255 25.9582 68.1047 25.9413 67.8718 26.4387C67.2102 26.4377 66.5478 26.4368 65.8861 26.4348C65.548 25.8855 65.2165 25.8756 64.8933 26.4486C62.3177 26.8148 59.7738 27.1929 57.3624 28.3389C55.335 29.3017 53.402 30.4021 51.6173 31.7143C50.0802 32.8443 48.7332 34.2391 47.3444 35.5612C46.6081 36.2618 46.648 36.3045 46.8668 37.6117C47.5454 37.7858 47.9372 37.4008 48.3701 36.9391C51.1566 33.9695 54.3559 31.6128 58.1106 29.9257C62.0252 28.1666 66.0096 28.1985 70.1261 28.671C73.6926 29.0809 76.9308 30.4748 80.1988 31.766C81.8743 32.4286 83.5665 33.1142 85.3202 33.2523C87.1607 33.3985 88.9643 32.7996 90.5381 31.7133C92.3837 30.439 94.3416 29.3674 96.4804 28.6751C98.4402 28.0393 100.41 27.4306 102.505 27.3798C103.315 27.36 104.121 27.2107 104.928 27.1211C104.952 27.1689 104.976 27.2595 105.001 27.2605C107.423 27.3081 109.843 27.3549 112.264 27.3678C112.353 27.369 112.443 27.0337 112.534 26.8544C114.122 26.8276 115.71 26.7909 117.297 26.7849C117.477 26.7849 117.658 26.9549 117.839 27.0455C117.979 27.1718 118.113 27.3977 118.26 27.4066C118.797 27.4414 119.336 27.4028 119.875 27.3917C122.956 27.7649 125.803 28.8382 128.509 30.3105C128.999 30.5782 129.419 30.9741 130.147 31.5152C129.538 31.6297 129.305 31.6734 129.073 31.7162C128.937 31.6249 128.802 31.5333 128.665 31.4418C127.809 31.3065 126.952 31.1712 126.096 31.0347C125.856 30.9463 125.616 30.8577 125.376 30.7693C122.717 30.3306 120.034 30.42 117.354 30.3803C112.303 30.3057 107.426 31.2099 102.67 32.8624C102.011 33.0922 101.349 33.3149 100.702 33.5369C100.628 33.8422 100.563 34.1058 100.5 34.3705C100.525 34.4829 100.552 34.5945 100.578 34.7068L100.605 34.7387C100.615 34.836 100.621 34.9327 100.622 35.03C100.625 35.3644 100.628 35.6987 100.631 36.033L100.635 36.027C100.412 36.1403 100.188 36.2538 99.9652 36.3661C98.9775 37.0217 98.0025 37.7003 96.9957 38.326C96.2536 38.7866 95.5552 38.8613 94.7295 38.2871C92.9219 37.0288 90.8019 36.5352 88.6877 35.989C84.8248 34.9923 80.9051 34.8798 76.9707 35.045C74.3712 35.1544 71.8173 35.6211 69.2794 36.2835C65.3728 37.3044 61.9556 39.3019 58.5234 41.2856C56.9554 42.192 55.3398 42.9012 53.5771 43.3131C52.9183 43.4663 52.2946 43.7639 51.6163 44.0096C51.9625 45.1575 52.792 45.0282 53.4198 44.893C54.5779 44.6422 55.7418 44.311 56.8192 43.8265C58.2548 43.1798 59.6614 42.4367 60.9896 41.591C64.3771 39.4362 68.0339 37.968 71.9456 37.1331C73.1107 36.8855 74.3115 36.7193 75.5012 36.6896C78.0877 36.6229 80.6862 36.5413 83.265 36.7014C86.2406 36.8874 89.1872 37.4116 91.9935 38.4861C93.1178 38.9168 94.1543 39.5328 94.7981 40.6141C94.9274 40.831 94.9484 41.1124 95.0109 41.3373C93.6879 42.377 92.3728 41.6608 91.0744 41.4975C90.5362 41.4289 89.9999 41.3424 89.4638 41.2646C89.3235 41.1711 89.1841 41.0767 89.044 40.9832C88.4063 40.8598 87.7685 40.7366 87.1308 40.6131C86.9977 40.5276 86.8653 40.4431 86.7329 40.3575C85.8884 40.3216 85.0985 39.7326 84.2131 40.1058C83.5157 39.2891 82.5775 39.7597 81.7528 39.6771C80.8824 39.5894 79.9968 39.6522 79.1185 39.6502C78.6779 39.6502 78.237 39.6502 77.7964 39.6512C75.8018 39.5884 73.824 39.663 71.9009 40.2909C71.3458 40.4718 70.7578 40.5506 70.1839 40.6769C70.0525 40.7672 69.9213 40.8569 69.7899 40.9475C68.7581 41.2011 67.6878 41.3543 66.7039 41.7304C64.8576 42.4348 63.0608 43.2694 61.2432 44.0492C61.1468 44.1289 61.0502 44.2084 60.9538 44.289C59.9738 44.7297 59.0189 45.2401 58.0079 45.5962C56.2423 46.2189 54.4426 46.7463 52.6567 47.3144C52.1903 47.6048 52.1026 47.8954 52.6577 48.1848C53.5411 48.0725 54.4257 47.9589 55.3091 47.8466C55.4285 47.764 55.5478 47.6823 55.6662 47.6009L59.5967 46.246C59.7271 46.1494 59.8564 46.0539 59.9868 45.9573C61.2969 45.3017 62.6061 44.6461 63.9164 43.9905C64.0249 43.9876 64.1292 43.9658 64.2297 43.926C65.8922 43.325 67.5196 42.5899 69.2248 42.1601C71.2472 41.6507 73.237 40.9115 75.3829 40.9523C76.1817 40.9673 76.9835 40.7752 77.7843 40.6779C78.2331 41.1274 78.6808 41.1335 79.1264 40.6728C79.8726 40.7663 80.6157 40.9016 81.3648 40.9414C82.1209 40.9813 82.9466 41.1057 83.6261 40.8658C84.5006 40.5573 84.9492 41.6637 85.7372 41.2847C85.8466 41.2936 85.956 41.3026 86.0645 41.3115C86.7687 41.5253 87.4661 41.7642 88.1785 41.9461C90.5461 42.5519 92.6909 43.5081 94.3662 45.3942C95.0378 46.1513 95.6028 46.9014 95.8327 47.8944C96.3847 50.2799 96.0465 52.4886 94.3416 54.3039C93.8113 54.8692 92.9943 55.2461 92.2385 55.5038C90.4347 56.1186 88.5575 56.4082 86.6503 56.5314C83.9375 56.7066 81.2235 56.8846 78.5493 57.4467C77.5415 57.6586 76.5011 57.7342 75.4703 57.8168C73.6161 57.9642 71.7548 58.0207 69.9053 58.2067C68.4637 58.3512 67.0372 58.6335 65.3827 58.8894C65.6484 59.2365 65.7617 59.3858 65.8762 59.5339C65.8912 59.896 65.8166 60.1506 65.361 60.1656C65.2028 60.1706 65.0496 60.3716 64.8943 60.484Z" fill="#539836"/>
<path d="M97.6705 52.2296C97.5432 51.602 97.2924 51.0258 97.3361 50.4727C97.549 47.7758 96.5829 45.5703 94.5586 43.6392C94.868 43.3128 95.1594 43.0225 95.434 42.7159C95.7126 42.4036 96.194 42.0813 96.2029 41.753C96.2329 40.5892 97.0149 39.9633 97.7818 39.3823C100.234 37.522 102.998 36.3231 106.01 35.6716C109.492 34.9174 113.021 34.7853 116.563 34.5722C119.034 34.4241 121.473 34.6191 123.891 34.7763C127.668 35.0211 131.402 35.781 134.917 37.3309C136.751 38.1397 137.507 39.4946 137.753 41.5112C138.196 45.1345 136.29 47.154 133.467 48.6889C130.828 50.1236 127.973 50.9732 125.037 51.5513C122.843 51.9829 120.632 52.2148 118.389 52.2834C116.11 52.3521 113.84 52.7381 111.561 52.8325C110.211 52.8893 108.816 52.8016 107.499 52.5103C105.478 52.0636 103.46 52.2774 101.441 52.2347C100.237 52.2088 99.0324 52.2296 97.6705 52.2296Z" fill="#539936"/>
<path d="M23.8772 64.464C23.7789 64.5086 23.6832 64.5833 23.5808 64.5951C22.5203 64.7106 22.2536 65.38 22.0628 66.3482C21.8618 67.3678 22.3065 68.2471 22.3573 69.1992C22.3841 69.6808 22.9472 70.1256 23.5939 70.0499C24.5031 69.9425 25.4104 69.8072 26.3166 69.6659C26.9492 69.5663 27.578 69.4371 28.3392 69.2967C28.5032 70.0727 28.6436 70.7372 28.7839 71.4008C28.6914 71.74 28.5211 72.0774 28.5182 72.4175C28.4962 75.0968 28.5064 77.7767 28.5064 80.417C28.0058 80.6299 27.594 80.806 27.1821 80.9811C25.9834 81.3352 26.0897 82.4257 25.9047 83.32C25.8093 83.7816 25.8878 84.279 25.8878 84.8153C24.291 85.246 22.7899 85.6011 21.22 85.5624C20.9456 85.4658 20.6728 85.2897 20.3984 85.2858C18.7898 85.2638 17.181 85.2817 15.5714 85.2868C14.4691 84.3 13.8126 83.1458 13.8981 81.587C13.9887 79.9426 13.8056 78.2751 13.9836 76.6447C14.2254 74.446 14.6851 72.2692 15.074 70.0876C15.818 65.9114 17.3264 61.9727 18.914 58.068C19.7955 55.9004 21.054 53.9275 22.4904 52.0752C22.6904 51.8184 22.8853 51.5577 23.174 51.1797C24.128 52.301 25.072 53.3922 25.9962 54.5005C27.8039 56.6683 30.0611 58.2501 32.5591 59.5036C34.5439 60.5003 36.5624 61.4306 38.557 62.4075C39.1909 62.7179 39.7967 63.0819 40.4154 63.4223C40.4096 63.6719 40.4035 63.9216 40.3965 64.1714C39.74 64.0521 39.0834 63.9337 38.4268 63.8151C37.8966 63.2083 37.3424 63.287 36.7742 63.7586C35.5338 63.6651 34.2921 63.4957 33.0517 63.497C31.646 63.4989 30.2413 63.652 28.8356 63.7395C28.158 63.2692 27.4976 63.281 26.8567 63.8141C26.5245 63.9098 26.1934 64.0062 25.861 64.1028C25.8023 64.0192 25.7436 63.9356 25.6839 63.8511C25.6332 63.9426 25.5815 64.033 25.5298 64.1236C25.3278 64.1345 25.1259 64.1456 24.9239 64.1564C24.5548 64.1903 24.0813 63.8699 23.8772 64.464Z" fill="#539836"/>
<path d="M75.806 76.0216C74.3872 75.7878 73.3826 74.8039 72.3738 73.9453C70.8 72.6044 69.5305 70.9559 68.6609 69.0637C68.2283 68.1207 67.9587 67.0841 69.1435 66.3727C69.3602 66.3896 69.5871 66.4572 69.7922 66.4154C71.7479 66.0205 73.7109 65.7113 75.7164 65.74C75.8596 65.742 76.0067 65.4953 76.1512 65.3649C79.5703 65.0298 83.0523 65.3141 86.4079 64.4049C87.6056 64.0817 88.7537 63.5575 89.9026 63.0748C91.1542 62.5487 92.3809 61.9636 93.6194 61.4046C93.8921 61.4145 94.1745 61.4793 94.4342 61.4263C96.4875 61.0154 98.5249 60.5142 100.59 60.1779C102.032 59.9431 103.515 59.9699 104.968 59.7929C105.845 59.6854 106.7 59.41 107.566 59.2109C109.264 59.5462 110.958 59.9083 112.663 60.2089C113.942 60.4345 115.231 60.7002 116.523 60.7369C119.372 60.8186 122.224 60.8046 125.074 60.7548C126.65 60.726 128.222 60.4823 129.798 60.4504C131.374 60.4197 131.664 60.6961 132.024 62.2093C132.2 62.9465 132.309 63.6995 132.447 64.4457C131.735 64.7928 131.063 64.8209 130.259 64.5701C126.412 63.3702 122.409 62.9973 118.421 62.8559C114.986 62.7337 111.52 62.4709 108.086 63.1048C106.442 63.4091 104.748 63.4818 103.128 63.8737C98.8841 64.9003 94.7395 66.2732 90.7682 68.0897C86.8009 69.9044 82.6005 70.4684 78.3238 70.7112C76.8425 70.7948 75.3523 70.7371 73.8669 70.7422C73.1159 70.745 72.7417 71.0695 72.9079 72.0135C73.7227 72.1278 74.5672 72.3587 75.4069 72.3418C77.7528 72.2969 80.0986 72.1775 82.4394 72.0263C83.295 71.9708 84.1475 71.7806 84.9853 71.5857C87.0864 71.0953 89.1127 70.3969 91.1155 69.5742C92.2883 69.0915 93.4126 68.3028 94.7883 68.4091C94.0064 69.771 94.4351 71.2692 94.3028 72.7049C93.329 72.9805 92.3222 73.1755 91.3851 73.5455C87.5321 75.0686 83.5774 75.9501 79.4073 75.7112C78.4263 75.6547 77.4385 75.6815 76.4555 75.7143C76.2357 75.7213 76.0217 75.9141 75.806 76.0216Z" fill="#B67D64"/>
<path d="M72.2373 76.5931C73.1336 76.97 74.0658 77.2784 74.9195 77.735C79.6537 80.27 84.6766 82.0806 89.843 83.4454C92.9389 84.2621 96.1472 84.6443 99.2878 85.3019C103.035 86.0867 106.819 86.0041 110.604 85.9205C111.956 85.8908 113.304 85.6908 114.845 85.5516C114.726 86.1843 114.702 86.7215 114.507 87.187C114.383 87.4825 114.03 87.8366 113.737 87.8825C111.959 88.1601 110.169 88.3669 108.382 88.5729C107.351 88.6922 106.312 88.8613 105.282 88.8394C103.366 88.7988 101.41 88.8464 99.5456 88.4804C93.4532 87.2834 87.4324 85.7584 81.6027 83.6007C76.7329 81.797 71.9487 79.7755 67.6898 76.7243C66.4472 75.8329 65.1918 74.9447 64.0487 73.9337C61.7656 71.9142 60.4235 69.3925 60.6255 66.2755C60.6873 65.3296 61.0564 64.3674 61.4552 63.49C61.8384 62.6465 62.7814 62.5699 63.5842 62.4873C65.2734 62.3131 66.9765 62.2723 68.6658 62.0952C70.9967 61.8495 73.3186 61.5213 75.6456 61.2437C76.1899 61.179 76.7409 61.169 77.289 61.1492C80.6794 61.0248 84.0529 60.7543 87.3259 59.8001C88.3656 59.4967 89.3872 59.0908 90.3612 58.6183C92.1787 57.7349 93.9596 56.7749 95.7484 55.8338C97.5062 54.9076 99.3883 54.4668 101.342 54.1276C104.284 53.6172 107.099 54.3235 109.946 54.7296C113.239 55.199 116.471 56.2029 119.853 55.8398C122.293 55.578 124.731 55.2806 127.166 54.9692C128.318 54.8209 129.435 54.7634 130.445 55.4736C130.431 55.5821 130.41 55.6905 130.405 55.8C130.325 57.6086 130.09 57.8393 128.264 57.8393C125.41 57.8383 122.557 57.8154 119.705 57.8265C117.183 57.8354 114.662 57.8791 112.141 57.9069C110.421 57.9806 108.79 57.6185 107.182 57.0187C106.22 56.6595 105.205 56.4406 104.209 56.178C102.281 55.6705 100.459 56.3749 98.6063 56.6952C96.2247 57.1071 94.3246 58.5408 92.3261 59.7385C89.8688 61.2128 87.2085 62.1411 84.4449 62.7629C82.6433 63.1678 80.8137 63.5825 78.9416 63.4253C77.4233 63.2989 75.9063 63.1289 74.4011 62.9021C72.1327 62.561 70.0475 62.9489 68.2073 64.3425C67.3149 65.0182 66.6951 65.9115 66.4692 67.0367C66.1718 67.2425 65.7421 67.3809 65.5957 67.6643C64.2618 70.2638 65.0804 73.1798 67.2065 74.7009C68.7235 75.7872 70.3959 76.3979 72.2373 76.5931Z" fill="#79A369"/>
<path d="M37.756 82.2926C37.4596 81.7355 37.0905 81.3017 36.3762 81.2997C35.6959 81.2978 35.4053 80.9057 35.4143 80.2412C35.4273 79.3179 35.4184 78.3949 35.4184 77.3095C36.0689 77.3095 36.5504 77.3105 37.0318 77.3095C39.1259 77.3064 41.2211 77.3006 43.3162 77.3035C43.6993 77.3044 44.1389 77.2349 44.4554 77.3931C45.7376 78.0347 47.1027 77.975 48.4695 78.0188C50.3279 78.0794 52.1206 78.5669 53.8734 79.114C56.455 79.9209 59.0217 80.7992 61.5327 81.8031C64.8256 83.1192 67.3048 85.5218 69.5112 88.2209C70.5806 89.5299 71.6203 90.8641 72.6588 92.198C72.9842 92.6159 73.2618 93.0706 73.7094 93.7252C71.2334 93.9061 68.9921 94.0704 66.666 94.2405C66.4134 93.016 66.5566 91.8828 66.0602 90.7805C65.5041 89.549 64.6804 88.6178 63.6339 87.9839C61.7178 86.8241 59.5809 86.1973 57.3336 85.9187C51.9036 85.2472 46.4551 85.7815 41.0181 85.5984C39.9965 85.5646 38.9827 85.5436 38.0913 84.9467C38.0935 84.2642 38.1203 83.5799 38.0795 82.9003C38.0674 82.6924 37.8696 82.4945 37.756 82.2926Z" fill="#539737"/>
<path d="M112.567 93.2096C112.535 93.3907 112.504 93.5707 112.472 93.7519C111.774 93.9826 111.649 94.5746 111.563 95.1914C111.513 95.273 111.494 95.3605 111.504 95.4559C111.4 95.5844 111.297 95.7127 111.193 95.8409L111.195 95.838C110.981 96.1733 110.767 96.5096 110.553 96.8449L110.548 96.8497C110.32 97.1742 110.091 97.4983 109.863 97.8228C109.435 98.2991 109.004 98.7728 108.58 99.2533C107.121 100.908 105.456 102.253 103.263 102.813C102.596 102.877 101.862 102.535 101.285 103.139C100.735 103.172 100.187 103.204 99.6392 103.236C98.4167 103.23 97.1948 103.225 95.9722 103.219C95.643 103.197 95.3137 103.175 94.9845 103.153C94.876 103.047 94.7695 102.85 94.661 102.849C92.949 102.834 91.4518 102.109 89.9227 101.473C89.5376 101.313 89.1158 101.24 88.711 101.127C88.1836 100.786 87.6563 100.447 87.1282 100.107C86.9987 100.001 86.8695 99.8959 86.7391 99.7906L86.7461 99.7964C86.6287 99.691 86.5103 99.5864 86.3929 99.4811C85.1802 98.1163 83.9695 96.7492 82.7549 95.3863C82.5619 95.1716 82.3928 94.9725 82.739 94.7517C83.4064 94.7048 84.1408 95.1467 84.7266 94.486C85.1662 94.463 85.6061 94.4394 86.0458 94.4164C86.5093 94.4452 87.0157 94.7348 87.3857 94.1976C87.7162 94.1877 88.0455 94.1775 88.3747 94.1686C88.4861 94.1647 88.5974 94.1606 88.709 94.1567C89.1446 94.1338 89.5804 94.112 90.0171 94.0891C91.4279 93.9487 92.8386 93.8096 94.2482 93.6632C94.2801 93.6593 94.304 93.5758 94.3308 93.5299C94.5497 93.518 94.7685 93.5072 94.9864 93.496C95.6589 93.4533 96.3911 93.7975 96.9731 93.1847C97.5202 93.147 98.0683 93.1091 98.6155 93.0723C98.9827 93.147 99.3796 93.3608 99.6194 92.8525C99.8371 92.8337 100.056 92.8158 100.275 92.7977C100.939 92.6994 101.604 92.6008 102.268 92.5022C102.485 92.4805 102.702 92.4595 102.919 92.4377C104.285 92.3133 105.655 92.2078 106.905 91.5543C107.339 91.5075 107.774 91.4608 108.209 91.413C109.164 91.3333 110.074 91.1135 110.868 90.5434L112.186 90.1714C112.41 90.082 112.635 89.9924 112.859 89.9018C113.081 89.8919 113.304 89.882 113.527 89.8711C113.564 90.1057 113.601 90.3395 113.638 90.5733C113.465 91.1881 113.293 91.8029 113.12 92.4177C112.738 92.5431 112.461 92.7421 112.567 93.2096Z" fill="#0742ED"/>
<path d="M74.7969 27.7597C75.3848 27.8334 75.5122 27.4723 75.5201 26.9966C75.6136 27.0266 75.7102 27.0476 75.8076 27.0585C75.9827 27.537 76.1997 27.5906 76.4683 27.1232C76.9118 27.2454 77.3556 27.3667 77.7993 27.4892C77.9196 27.5718 78.0411 27.6534 78.1614 27.7358C78.26 27.724 78.3583 27.7291 78.4559 27.7518C78.6479 28.1776 78.8658 28.2163 79.1144 27.7945C79.8903 27.8035 80.6665 27.8124 81.4434 27.8216C81.6832 28.2074 81.898 28.1677 82.092 27.7827C83.1805 27.5071 84.0738 26.9251 84.8775 26.1432C85.936 25.1124 87.0344 24.1208 88.1476 23.1487C90.4954 21.0992 93.3188 19.9574 96.2705 19.1754C99.3056 18.3715 102.45 18.2531 105.553 18.5406C108.691 18.8312 111.813 19.4339 114.416 21.4345C115.279 22.0981 116.051 22.882 116.842 23.6352C117.348 24.1176 117.21 24.7155 117.109 25.419C116.503 25.419 115.948 25.5025 115.428 25.4049C112.316 24.824 109.17 25.0279 106.063 25.1803C101.44 25.4049 96.8923 26.2217 92.7178 28.4093C91.7539 28.9137 90.8108 29.4679 89.9004 30.0628C87.8062 31.4318 85.587 31.8137 83.2111 30.975C81.8332 30.4875 80.4814 29.9266 79.1175 29.3993C78.8936 29.2927 78.6707 29.1864 78.447 29.0809L78.4508 29.084C78.2262 28.9765 78.0003 28.869 77.7744 28.7625L77.7805 28.7676C77.5457 28.6591 77.3109 28.5506 77.0761 28.4422L76.9376 28.4431L76.8024 28.4195C76.6642 28.3209 76.5248 28.2233 76.3866 28.126C75.8583 27.9986 75.2216 28.3378 74.7969 27.7597Z" fill="#539737"/>
<path d="M94.6778 73.6445C95.0849 73.9779 95.4946 74.31 95.8994 74.6463C97.3143 75.8213 99.0492 76.1237 100.78 76.2769C102.419 76.4211 104.079 76.3924 105.725 76.3225C106.462 76.2919 107.264 76.1088 107.894 75.7466C108.5 75.3985 108.932 75.4075 109.556 75.6254C113.031 76.8381 114.834 79.3429 114.796 83.1463C113.115 83.407 111.415 83.6983 109.707 83.9271C108.573 84.0795 107.425 84.2346 106.285 84.2228C104.758 84.2059 103.222 84.1162 101.711 83.9003C99.293 83.5531 96.8775 83.1483 94.4899 82.6359C92.1042 82.1255 89.7177 81.5665 87.3968 80.8244C84.4001 79.8642 81.4675 78.7013 78.5078 77.6258C78.5665 77.5422 78.6192 77.3922 78.6849 77.3871C80.2527 77.2528 81.8245 77.1663 83.3884 77.003C84.5108 76.8856 85.6606 76.7963 86.7332 76.4759C89.3535 75.693 91.937 74.7857 94.5307 73.9161C94.6022 73.8924 94.63 73.738 94.6778 73.6445Z" fill="#7CA96A"/>
<path d="M40.3934 64.171C40.3995 63.9212 40.4065 63.6717 40.4123 63.4219C40.5229 63.4318 40.6333 63.4417 40.7427 63.4509C40.8749 63.5492 41.0063 63.6477 41.1387 63.7453C42.3016 63.6596 43.1799 64.4307 44.1988 64.7768C47.6279 65.9409 51.0362 67.1715 54.4684 68.3283C56.9137 69.1531 58.8914 70.5061 60.4573 72.6191C61.9475 74.6328 63.8627 76.2781 65.9558 77.6879C66.2723 77.9017 66.5668 78.1476 66.8721 78.3773C66.8342 78.7464 67.0501 79.217 66.4742 79.3701C66.3856 79.3682 66.3001 79.3542 66.2165 79.3283C66.0015 79.2138 65.7877 79.0996 65.5727 78.9851C65.4534 78.8865 65.3331 78.7872 65.2128 78.6887C65.0973 78.5802 64.9809 78.4708 64.8654 78.3614L64.8644 78.3633C64.8108 77.8879 64.4625 78.0212 64.174 78.0302C63.9682 77.9227 63.7622 77.8161 63.5554 77.7086C63.3264 77.5924 63.0976 77.475 62.8679 77.3586C62.4381 77.1388 62.0074 76.919 61.5765 76.6989C61.4431 76.5955 61.3091 76.4911 61.1747 76.3865C61.089 76.3945 61.0054 76.3856 60.924 76.3588C60.7897 76.2563 60.6554 76.1539 60.5211 76.0525C56.2403 74.949 51.9783 73.7593 47.6658 72.7983C46.3874 72.5137 44.9649 72.8749 43.6087 72.9425C43.2287 72.9614 42.8468 73.028 42.4707 73.0012C41.3873 72.9256 40.307 72.8111 39.2245 72.7147C37.9253 72.5983 36.6221 72.5128 35.3258 72.3635C34.1946 72.2333 33.8187 71.7905 33.776 70.6694C33.7629 70.3411 33.7738 70.0116 33.7738 69.7113C34.3907 69.0506 35.115 69.0108 35.9078 69.1202C36.8738 69.2526 37.8497 69.3122 38.8177 69.4267C39.5199 69.5103 39.9905 69.1661 40.3041 68.611C40.9336 67.4918 41.2312 66.276 41.0372 64.9998C40.9913 64.6983 40.6174 64.4466 40.3934 64.171Z" fill="#539737"/>
<path d="M113.105 69.8709C111.82 69.6472 110.83 69.1924 110.311 67.7768C109.727 66.1889 108.481 65.2232 106.641 65.3336C106.764 65.1485 106.874 64.8113 107.012 64.8002C108.85 64.649 110.695 64.5596 112.534 64.4202C113.23 64.3685 113.968 64.0194 114.599 64.1704C116.498 64.6272 118.405 64.3267 120.302 64.446C120.737 64.4729 121.177 64.4591 121.607 64.5207C123.628 64.8113 125.638 65.205 127.669 65.3993C129.4 65.5652 130.979 65.8906 132.141 67.3262C132.327 67.556 132.681 67.6514 132.957 67.8087C133.1 69.682 133.009 71.4986 131.7 73.0217C131.381 73.0772 131.065 73.1599 130.745 73.1828C130.107 73.2275 129.433 73.3806 128.837 73.2364C127.218 72.8446 125.643 72.2755 124.031 71.8566C120.44 70.9244 116.832 70.0659 113.105 69.8709Z" fill="#B87E64"/>
<path d="M99.7067 90.5188C100.014 90.5277 100.321 90.5357 100.628 90.5446C100.516 90.7775 100.404 91.0113 100.293 91.2439C99.9913 91.2529 99.6888 91.2618 99.3874 91.2708C99.0093 91.2956 98.5378 90.9664 98.3071 91.5534C97.5051 91.6689 96.7053 91.7952 95.9016 91.8957C94.1874 92.1095 92.4713 92.3114 90.7562 92.5143C90.5931 92.5334 90.4279 92.5303 90.2636 92.5383C87.7617 92.6557 85.2586 92.767 82.7576 92.8965C82.1697 92.9272 81.5858 93.0219 80.7729 93.1112C79.0986 91.3584 77.2932 89.4662 75.4865 87.5731C75.3809 87.4646 75.2756 87.3562 75.17 87.2477C74.8357 86.9134 74.5016 86.5783 74.1682 86.243C74.0438 86.0411 73.9197 85.8381 73.7953 85.6352L73.7943 85.6302C73.6858 85.5227 73.5774 85.4164 73.4689 85.3089L73.4619 85.3048C73.257 85.1816 73.052 85.0591 72.8461 84.9357C71.0793 83.3899 69.3115 81.8429 67.5447 80.2968C67.5983 79.9318 67.3466 79.4492 67.9298 79.2852C69.3444 80.0681 70.76 80.85 72.1746 81.632C72.3041 81.7344 72.4333 81.8368 72.5616 81.9393C74.3494 82.6934 76.146 83.4275 77.9227 84.2044C81.6375 85.8292 85.5233 86.9124 89.4379 87.9142C91.6256 88.4744 93.8103 89.0435 95.996 89.6076C96.2209 89.7001 96.4456 89.7916 96.6705 89.8842L96.6644 89.8791C96.9898 90.5714 97.5778 90.1158 98.0443 90.1934C98.1319 90.1815 98.2184 90.1854 98.3049 90.2045C98.6402 90.8949 99.2301 90.454 99.7067 90.5188Z" fill="#539737"/>
<path d="M78.6882 94.3773C78.372 94.0669 78.1034 93.654 77.9611 93.6937C77.6755 93.7734 77.4606 94.1007 77.2158 94.3266C77.4258 94.5225 77.6217 94.8568 77.8475 94.8776C78.0734 94.8986 78.329 94.607 78.6882 94.3773ZM76.9153 95.4805C76.3643 94.7691 75.7824 94.0797 75.2761 93.3386C74.9874 92.9177 74.8243 92.4105 74.6055 91.9428C75.3823 91.7169 76.2948 91.6722 76.424 90.582C78.1659 92.489 79.9018 94.4 81.6517 96.2992C82.2687 96.9698 82.9173 97.6114 83.564 98.2801C83.3789 98.6869 83.2297 99.0161 83.0048 99.5087C84.5817 99.2917 85.5267 100.179 86.5633 101.014C87.3542 101.651 88.3601 102.024 89.2703 102.514C90.5168 102.926 91.7645 103.339 93.011 103.751C97.3285 105.05 101.593 104.822 105.766 103.189C106.862 102.761 107.839 102.027 108.871 101.435C109.051 101.855 109.195 102.299 109.439 102.68C109.49 102.761 109.932 102.662 110.132 102.543C110.211 102.495 110.176 102.14 110.097 101.969C109.853 101.433 109.336 101.468 108.855 101.452C109.738 100.373 110.707 99.3514 111.482 98.1994C112.506 96.6773 113.376 95.0517 114.312 93.4709C114.526 93.5108 114.739 93.5504 114.952 93.5893C114.897 94.6479 115.119 94.7483 116.293 94.2002C116.454 94.1993 116.615 94.1981 116.777 94.1961C116.192 95.9052 115.364 97.479 114.188 98.861C114.075 98.4839 114.032 98.058 113.816 97.7546C113.721 97.6213 113.274 97.7377 112.986 97.7409C113.048 98.0184 113.019 98.4192 113.191 98.5446C113.46 98.7405 113.864 98.7506 114.211 98.839C112.069 102.236 109.46 105.067 105.427 106.283C105.282 105.869 105.198 105.625 105.117 105.392C103.89 105.259 103.831 107.006 102.524 106.871C101.514 106.768 100.467 107.018 99.4405 107.11V105.359C98.7332 106.071 98.2617 106.545 97.6836 107.127C96.3047 107.008 94.8295 106.881 93.3542 106.754C93.6009 106.423 93.8676 106.103 94.0883 105.756C94.3649 105.321 94.4565 104.876 94.0434 104.468C92.6358 104.98 92.6358 104.98 92.7204 106.597C90.6294 106.148 88.6574 105.399 86.845 104.32C86.7901 103.864 86.7425 103.46 86.6797 102.93C85.2839 103.632 84.4025 102.856 83.5381 102.084C82.2926 100.973 81.0688 99.8379 79.8364 98.7127C79.5458 98.2284 80.0373 97.9776 80.1637 97.6174C80.2362 97.4056 80.3098 97.1937 80.3835 96.9816C80.1676 97.0384 79.9516 97.0942 79.7359 97.1498C79.109 97.3032 78.4923 97.3945 77.9691 96.8802C77.7024 96.5082 77.4347 96.1361 77.168 95.7641C77.0835 95.6694 76.9999 95.575 76.9153 95.4805Z" fill="#EEEEEE"/>
<path d="M117.684 87.9485C117.558 87.9285 117.432 87.9087 117.305 87.8898C117.135 88.1415 116.893 88.3754 116.824 88.6517C116.782 88.8189 116.993 89.21 117.116 89.2218C117.323 89.2407 117.696 89.0757 117.738 88.9184C117.818 88.622 117.713 88.2749 117.684 87.9485ZM111.201 72.1624C110.485 72.6817 110.288 73.0965 110.673 73.4487C110.848 73.6089 111.324 73.6806 111.498 73.5572C112.027 73.1861 111.757 72.7184 111.47 72.3087C111.418 72.2341 111.292 72.2102 111.201 72.1624ZM116.236 77.3237C116.719 75.9219 116.71 75.9011 115.465 75.532C115.632 76.1617 115.335 76.862 116.236 77.3237ZM106.049 72.0041C107.07 71.7048 107.073 71.6959 106.771 70.0146C105.806 70.4335 105.806 70.4335 106.049 72.0041ZM116.776 94.194C116.615 94.195 116.452 94.1959 116.291 94.1981C116.192 93.2331 115.467 93.6398 114.951 93.5872C114.738 93.5473 114.525 93.5077 114.312 93.4688C115.183 91.1577 115.995 88.8329 116.346 86.3696C116.636 84.3332 116.673 82.2978 116.061 80.3309C115.04 77.0541 112.744 74.9469 109.543 73.8736C108.825 73.6328 107.934 73.8625 107.128 73.9403C106.756 73.976 106.406 74.2089 106.032 74.2794C105.064 74.4626 104.428 74.171 103.974 73.3153C103.196 71.8461 103.104 70.2564 103.367 68.6625C103.537 67.633 104.287 67.0906 105.321 66.9295C106.454 66.7534 107.678 66.664 108.274 67.7951C109.407 69.945 111.349 71.0173 113.362 72.051C116.851 73.8427 119.233 77.0898 119.103 81.5468C118.805 81.7586 118.468 81.9985 118.008 82.3268C118.461 82.6171 118.803 82.8379 119.184 83.0838C119.29 85.3947 118.894 87.6499 118.458 89.9014C117.897 91.3319 117.336 92.7625 116.776 94.194Z" fill="#F2F2F2"/>
<path d="M132.958 67.8093C132.682 67.6522 132.329 67.5566 132.143 67.3259C130.982 65.8902 129.401 65.5661 127.67 65.3999C125.64 65.2059 123.63 64.8119 121.608 64.5213C121.179 64.4597 120.739 64.4737 120.303 64.4466C118.407 64.3273 116.499 64.6278 114.601 64.1713C113.97 64.02 113.231 64.3681 112.536 64.4208C110.696 64.5592 108.853 64.6498 107.014 64.7998C106.877 64.8119 106.765 65.1481 106.643 65.3342C104.994 65.368 103.335 65.3131 101.697 65.4656C100.363 65.5888 99.0244 65.8654 97.7403 66.2475C96.5394 66.6046 95.5715 67.4104 94.7905 68.4071C93.4135 68.3008 92.2905 69.0896 91.1174 69.5722C89.1149 70.395 87.0884 71.0934 84.9874 71.5837C84.1487 71.7797 83.2962 71.9698 82.4416 72.0244C80.0998 72.1765 77.7549 72.2949 75.4091 72.3408C74.5694 72.3568 73.7239 72.1258 72.9101 72.0116C72.7439 71.0673 73.118 70.7431 73.8681 70.7412C75.3545 70.7351 76.8437 70.7938 78.326 70.7093C82.6017 70.4665 86.8028 69.9034 90.7703 68.0887C94.7417 66.2722 98.8863 64.8993 103.13 63.8727C104.75 63.4809 106.444 63.4072 108.089 63.1038C111.523 62.4689 114.988 62.7327 118.423 62.854C122.411 62.9953 126.413 63.3683 130.261 64.5681C131.065 64.8189 131.737 64.7921 132.449 64.4447C133.118 65.4904 133.141 66.6345 132.958 67.8093Z" fill="#554B47"/>
<path d="M116.779 94.1895C117.34 92.759 117.9 91.3274 118.461 89.8969C118.782 89.7865 119.104 89.6758 119.425 89.5664C119.184 90.6179 119.044 91.7045 118.688 92.7143C117.202 96.9303 115.045 100.737 111.89 103.976C109.944 105.972 107.605 107.118 104.952 107.705C103.947 107.927 102.903 107.979 101.873 108.083C100.842 108.188 99.798 108.393 98.7754 108.324C96.1689 108.151 93.5464 108.214 90.9709 107.558C87.1935 106.595 84.1014 104.55 81.3736 101.868C80.5987 101.106 79.8952 100.269 79.1602 99.467C79.767 99.5516 79.7938 99.1209 79.8385 98.7061C81.0712 99.8313 82.2947 100.966 83.5402 102.078C84.4048 102.849 85.2863 103.626 86.6821 102.923C86.7446 103.453 86.7925 103.857 86.8473 104.313C88.6598 105.392 90.6315 106.142 92.7217 106.59C92.9336 106.643 93.1445 106.695 93.3563 106.747C94.8318 106.875 96.3071 107.001 97.685 107.12C98.264 106.538 98.7355 106.064 99.4429 105.353V107.103C100.47 107.011 101.515 106.761 102.526 106.865C103.833 106.998 103.893 105.252 105.119 105.385C105.2 105.618 105.284 105.861 105.429 106.277C109.462 105.059 112.071 102.229 114.213 98.8315L114.189 98.8544C115.365 97.4724 116.194 95.8986 116.779 94.1895Z" fill="#0C0F22"/>
<path d="M129.821 75.7024C129.669 75.986 129.574 76.3233 129.357 76.5431C127.277 78.6599 125.059 80.5792 122.068 81.3124C121.601 81.4266 121.137 81.5571 120.52 81.7192C120.392 81.1343 120.217 80.6258 120.176 80.1065C119.914 76.7779 118.609 74.0211 115.84 72.0463C116.353 71.3827 117.056 71.6982 117.628 71.8105C119.42 72.1628 121.215 72.5459 122.964 73.0691C125.312 73.7713 127.9 73.883 129.821 75.7024Z" fill="#7CA96A"/>
<path d="M30.5937 69.2833C31.9755 69.0434 32.075 69.1062 32.096 70.3338C32.1139 71.3764 32.0999 72.42 32.0999 73.6266C32.6917 73.767 33.248 73.9817 33.816 74.0187C36.337 74.1818 38.8618 74.2931 41.3857 74.4255C41.6592 74.4405 41.9418 74.4294 42.2024 74.5002C42.7506 74.6482 42.8312 75.0364 42.5856 75.6819C40.7869 75.6819 38.9266 75.6602 37.0682 75.6949C36.4196 75.7068 35.757 75.7964 35.1291 75.9616C33.9771 76.265 33.793 76.5216 33.7592 77.6567C33.7343 78.4824 33.8 79.3131 33.7365 80.1349C33.6717 80.9616 33.1137 81.2979 32.0472 81.271C31.0962 81.2471 30.8662 81.08 30.8304 80.119C30.7002 76.661 30.6055 73.202 30.5041 69.7427C30.5002 69.5876 30.564 69.4304 30.5937 69.2833Z" fill="#C4AA0F"/>
<path d="M100.63 36.0329C100.627 35.6986 100.624 35.3642 100.621 35.0311C100.838 34.9536 101.056 34.8758 101.273 34.7992C102.741 34.4202 104.208 34.0383 105.676 33.6631C107.352 33.2343 109.013 32.7072 110.712 32.4128C113.183 31.9849 115.685 31.5472 118.199 31.7719C121.341 32.0535 124.523 32.0188 127.613 32.7449C128.82 33.0285 129.982 33.5058 131.162 33.903C131.772 34.1078 132.378 34.3296 133.066 34.5714C133.049 34.7874 133.029 35.0301 133.006 35.3067C131.118 34.6559 129.274 34.3385 127.428 33.9735C123.121 33.122 118.784 33.2503 114.474 33.4602C112.003 33.5805 109.499 33.7109 107.011 34.1965C104.802 34.6272 102.766 35.4628 100.63 36.0329Z" fill="#548C3B"/>
<path d="M39.4725 65.7879C39.164 66.6505 38.9314 67.302 38.7412 67.8323C35.7697 67.6941 32.9393 67.4631 30.11 67.4733C28.6575 67.4791 27.1982 67.876 25.7565 68.1666C23.9938 68.5227 23.9182 68.4898 23.8477 66.4754C28.9392 65.012 34.1114 65.2398 39.4725 65.7879Z" fill="#C9AE0F"/>
<path d="M112.137 57.9099C114.658 57.8821 117.179 57.8384 119.701 57.8294C122.553 57.8183 125.406 57.8413 128.259 57.8422C130.086 57.8422 130.32 57.6115 130.401 55.8029C130.406 55.6935 130.428 55.585 130.441 55.4766C130.862 55.6476 131.486 55.2369 131.727 55.9252C131.723 56.3539 131.703 56.7827 131.719 57.2115C131.737 57.697 131.995 58.0135 132.478 58.1051C133.208 58.2432 133.942 58.3645 134.673 58.493C134.844 58.6104 135.123 58.695 135.171 58.851C135.582 60.1663 136.219 61.4435 135.946 62.89C135.411 63.4075 134.875 63.9256 134.34 64.444C134.15 64.0969 133.962 63.7498 133.772 63.4024C133.931 63.3944 134.135 63.4483 134.239 63.3686C134.985 62.8045 135.315 61.7312 134.994 60.7492C134.71 59.8738 134.101 59.2919 133.155 59.1675C132.782 59.1187 132.397 59.1595 132.017 59.1595C131.135 58.9476 130.256 58.7256 129.371 58.5278C129.162 58.4809 128.928 58.4751 128.718 58.5167C125.636 59.1295 122.519 58.7198 119.421 58.8302C118.109 58.8769 116.791 58.874 115.48 58.8083C114.463 58.7575 113.449 58.5923 112.441 58.4292C112.315 58.4085 112.237 58.0901 112.137 57.9099Z" fill="#4C4B48"/>
<path d="M129.823 75.6999C127.902 73.8804 125.313 73.7688 122.965 73.0665C121.216 72.5433 119.422 72.1602 117.629 71.808C117.057 71.6957 116.355 71.3802 115.841 72.0438C114.929 71.3195 114.018 70.5953 113.105 69.8711C116.832 70.0651 120.44 70.9236 124.031 71.8568C125.643 72.2757 127.218 72.8445 128.837 73.2366C129.434 73.3808 130.107 73.2267 130.745 73.182C131.065 73.16 131.381 73.0774 131.7 73.0216C131.527 74.2304 130.769 75.0312 129.823 75.6999Z" fill="#524F47"/>
<path d="M94.6767 73.6423C94.6289 73.7358 94.6011 73.8902 94.5296 73.9139C91.9359 74.7835 89.3523 75.6908 86.732 76.4737C85.6595 76.7941 84.5096 76.8834 83.3873 77.0009C81.8234 77.1641 80.2515 77.2506 78.6837 77.3849C78.618 77.39 78.5654 77.54 78.5067 77.6236C77.6073 77.0885 76.7079 76.5542 75.8086 76.0191C76.0246 75.9116 76.2383 75.7186 76.4572 75.7116C77.4411 75.6788 78.4282 75.6519 79.4099 75.7087C83.5793 75.9474 87.5347 75.0659 91.3877 73.5428C92.325 73.1727 93.3307 72.9778 94.3056 72.7031C94.8518 72.8495 94.625 73.3012 94.6767 73.6423Z" fill="#524F47"/>
<path d="M120.18 85.568C120.189 85.151 120.199 84.7341 120.208 84.3174C120.283 84.185 120.359 84.0538 120.435 83.9215C121.716 83.3982 123.007 82.8967 124.276 82.3467C126.7 81.2971 128.711 79.6964 130.394 77.6719C130.502 77.7813 130.691 77.8808 130.705 78.0002C130.964 80.2257 129.583 82.5068 127.506 83.2579C125.895 83.8398 124.276 84.4 122.648 84.9283C121.841 85.1899 121.003 85.3581 120.18 85.568Z" fill="#79A369"/>
<path d="M120.18 85.569C121.003 85.359 121.841 85.1909 122.648 84.9293C124.276 84.401 125.895 83.8408 127.506 83.2589C129.583 82.5078 130.964 80.2267 130.705 78.0011C130.691 77.8818 130.502 77.7823 130.394 77.6729C130.869 77.2301 131.344 76.7875 131.818 76.3438C131.898 76.4691 132.014 76.5846 132.049 76.7208C132.261 77.5593 132.454 78.4031 132.653 79.2447C131.956 81.4225 130.529 82.9405 128.488 83.9413C126.454 84.9402 124.394 85.8593 122.181 86.3927C121.556 86.5437 120.923 86.6601 120.18 86.8154V85.569Z" fill="#4C4B48"/>
<path d="M132.651 79.2425C132.452 78.4009 132.259 77.5574 132.047 76.7187C132.012 76.5824 131.896 76.4669 131.816 76.3418C131.949 75.9447 131.996 75.4891 132.226 75.1589C133.927 72.7135 134.535 69.9997 134.357 67.063C134.305 66.1924 134.343 65.3169 134.339 64.4434C134.875 63.9262 135.411 63.4078 135.947 62.8906C136.194 66.1953 135.647 69.4216 134.812 72.5881C134.218 74.8395 133.38 77.0271 132.651 79.2425Z" fill="#D9D9D9"/>
<path d="M96.0105 71.6984C95.5559 69.7913 96.6959 68.5696 98.412 68.0952C99.3959 67.8234 100.388 67.5261 101.396 67.4116C102.433 67.2942 102.591 67.5749 102.339 68.6363C102.202 69.2122 102.044 69.7833 101.895 70.3575C101.121 70.5435 100.35 70.7394 99.5739 70.9155C98.3871 71.1841 97.1983 71.4378 96.0105 71.6984Z" fill="#B67D64"/>
<path d="M107.568 59.2096C106.702 59.4096 105.847 59.6842 104.97 59.7915C103.517 59.9698 102.033 59.9427 100.592 60.1775C98.5266 60.5128 96.4892 61.0143 94.4369 61.4262C94.1762 61.4779 93.8936 61.4141 93.6211 61.4032C94.3006 60.2812 95.4345 59.8613 96.5945 59.4813C96.7588 59.4801 96.926 59.497 97.0871 59.4743C99.5274 59.126 101.968 58.7738 104.405 58.4107C104.477 58.3998 104.527 58.2496 104.587 58.1641C105.301 58.2636 106.972 58.8494 107.568 59.2096Z" fill="#524F47"/>
<path d="M44.7188 74.8183C45.6877 74.0721 45.6877 74.0721 47.2308 74.1257C47.3112 74.6094 47.3958 75.1157 47.4803 75.6251C48.2942 75.5802 48.1787 74.8432 48.5848 74.3398C50.263 74.7089 52.0068 75.0918 53.8633 75.4998C53.7459 76.0977 53.6355 76.6537 53.541 77.1352C51.3435 76.8347 49.2363 76.5504 47.1313 76.2547C46.6984 76.194 46.2657 76.1175 45.844 76.0061C45.2231 75.844 44.7605 75.5135 44.7188 74.8183Z" fill="#E7E6E5"/>
<path d="M72.2386 76.5994C70.3971 76.4042 68.7248 75.7935 67.2077 74.7072C65.0817 73.186 64.263 70.2701 65.5969 67.6706C65.7433 67.3872 66.1731 67.2488 66.4705 67.043C66.5004 67.6935 66.5301 68.345 66.5601 68.9958C65.6467 71.5156 67.4942 74.3579 70.2599 74.6893C71.01 75.2323 71.8506 75.6821 72.2386 76.5994Z" fill="#524F47"/>
<path d="M72.302 86.3788C71.7009 86.7218 71.1975 87.0095 70.6525 87.3209C68.9821 85.7688 67.3436 84.2448 65.6523 82.6739C65.9538 82.3485 66.2722 82.0055 66.6901 81.5547C68.6091 83.056 70.5818 84.4745 72.302 86.3788Z" fill="#E7E6E5"/>
<path d="M74.6196 91.9567C74.4246 91.9018 74.15 91.9108 74.0476 91.7825C73.0658 90.55 72.1126 89.2934 71.1328 88.021C71.8102 87.635 72.3554 87.3246 73.0557 86.9258C74.1611 88.1266 75.302 89.3661 76.4432 90.6056C75.0088 90.5092 74.8126 90.6544 74.6196 91.9567Z" fill="#E7E6E5"/>
<path d="M59.9534 79.2939C59.6292 79.277 59.275 79.3386 58.9864 79.2292C57.6027 78.704 56.2366 78.1329 54.7266 77.522C54.7913 77.0485 54.8599 76.5381 54.9474 75.8984C57.1471 76.3093 59.0552 77.0795 60.8807 78.0781C60.9245 78.102 60.8926 78.2622 60.8964 78.3588L60.9363 78.311C60.3215 78.3846 59.7705 78.5199 59.9137 79.3427L59.9534 79.2939Z" fill="#E7E6E5"/>
<path d="M101.943 72.0464C102.085 72.7289 102.227 73.4113 102.356 74.0261C101.221 75.0269 100.099 74.7186 99.0169 74.3196C98.411 74.0956 97.8709 73.6968 97.3008 73.3765C97.3694 73.1815 97.4102 72.8344 97.5117 72.8153C98.985 72.5378 100.375 71.7609 101.943 72.0464Z" fill="#79A369"/>
<path d="M60.897 78.3601C61.1615 78.376 61.469 78.3103 61.6848 78.421C63.0907 79.142 64.4794 79.8972 65.7776 81.0323C65.3967 81.4311 65.0773 81.7655 64.7241 82.1365C63.1523 81.298 61.655 80.505 60.1696 79.6933C60.0583 79.6327 60.0245 79.4317 59.9539 79.2954L59.9141 79.345C60.5158 79.2594 61.1526 79.2077 60.9369 78.3125L60.897 78.3601Z" fill="#E7E6E5"/>
<path d="M75.4727 59.144C75.7005 59.0426 75.9203 58.8745 76.156 58.8496C78.5328 58.602 80.9125 58.3831 83.2903 58.1432C84.1517 58.0568 85.0083 57.9224 85.8697 57.8338C86.1144 57.8089 86.3681 57.8717 86.8048 57.9104C86.4896 58.1681 86.3453 58.3831 86.1632 58.4218C82.6404 59.1648 79.079 59.5361 75.4768 59.4912C75.4758 59.376 75.4736 59.2595 75.4727 59.144Z" fill="#4B7637"/>
<path d="M76.1531 65.3611C76.0079 65.4923 75.8618 65.7382 75.7185 65.736C73.7128 65.7082 71.7501 66.0167 69.7941 66.4126C69.5883 66.4535 69.3615 66.3868 69.1445 66.3699C69.7852 65.1094 71.3283 64.2907 72.7021 64.4646C73.6572 64.5852 74.6122 64.7026 75.5712 64.777C75.9802 64.8079 76.1681 64.9582 76.1531 65.3611Z" fill="#554B47"/>
<path d="M101.941 72.0496C100.373 71.7641 98.9832 72.541 97.5099 72.8185C97.4084 72.8376 97.3676 73.1847 97.299 73.3797C96.8692 72.8207 96.4385 72.2605 96.0078 71.7003C97.1956 71.4406 98.3853 71.186 99.5712 70.9174C100.347 70.7423 101.119 70.5463 101.892 70.3594C101.909 70.9225 101.925 71.4865 101.941 72.0496Z" fill="#524F47"/>
<path d="M70.2569 74.6857C67.4902 74.3543 65.6427 71.5122 66.556 68.9922C67.2018 70.1104 67.8086 71.2545 68.505 72.3408C69.0302 73.1595 69.6689 73.9066 70.2569 74.6857Z" fill="#B67D64"/>
<path d="M132.02 59.1605C132.4 59.1605 132.785 59.1197 133.158 59.1685C134.104 59.2929 134.713 59.8739 134.997 60.7493C135.317 61.7322 134.989 62.8046 134.242 63.3696C134.139 63.4483 133.934 63.3954 133.776 63.4034C133.432 61.8883 132.894 60.4548 132.02 59.1605Z" fill="#B67D64"/>
<path d="M124.469 52.9987C126.372 52.5083 128.275 52.0187 130.198 51.5234C130.288 51.7669 130.381 51.9133 130.388 52.0636C130.41 52.4924 130.396 52.9231 130.396 53.2533H124.493C124.485 53.1687 124.477 53.0832 124.469 52.9987Z" fill="#508739"/>
<path d="M93.0077 103.748C91.761 103.336 90.5135 102.924 89.267 102.512C89.835 102.337 89.7734 102.035 89.4182 101.701C89.1975 101.494 88.9477 101.319 88.7109 101.129C89.1158 101.241 89.5385 101.314 89.9236 101.475C91.4518 102.112 92.95 102.836 94.661 102.85C94.7694 102.851 94.8769 103.049 94.9844 103.154C94.5714 103.717 94.101 103.49 93.6283 103.255C93.0693 102.977 93.0215 103.341 93.0077 103.748Z" fill="#0A0F26"/>
<path d="M104.59 58.1662C104.53 58.2517 104.48 58.4019 104.408 58.4128C101.97 58.7759 99.5305 59.1271 97.0892 59.4752C96.9281 59.4982 96.7619 59.4813 96.5977 59.4832C97.1001 59.1957 97.5717 58.7899 98.113 58.6435C99.3535 58.3104 100.619 58 101.892 57.8826C102.776 57.8019 103.69 58.0596 104.59 58.1662Z" fill="#79A369"/>
<path d="M65.631 23.7292C62.8305 23.7341 60.031 23.7401 57.2305 23.7452C57.9477 23.5749 58.661 23.2785 59.3833 23.2577C61.4765 23.1949 63.6182 22.6746 65.631 23.7292Z" fill="#4B7637"/>
<path d="M27.1797 80.9787C27.5916 80.8036 28.0034 80.6275 28.504 80.4147C28.504 77.7753 28.4938 75.0951 28.5158 72.4152C28.5187 72.0758 28.689 71.7376 28.7815 71.3984C28.8074 73.3742 28.8141 75.3488 28.8699 77.3236C28.8909 78.0768 29.0859 78.8259 29.0888 79.5779C29.0907 80.0335 28.8789 80.4903 28.7545 80.9787H27.1797Z" fill="#548C3B"/>
<path d="M134.675 58.4934C133.943 58.3651 133.21 58.2448 132.481 58.1054C131.997 58.0139 131.739 57.6977 131.721 57.2121C131.705 56.7843 131.725 56.3546 131.729 55.9258C132.711 56.7814 133.693 57.638 134.675 58.4934Z" fill="#D9D9D9"/>
<path d="M64.8906 60.4841C65.046 60.3717 65.1991 60.1707 65.3573 60.1657C65.8129 60.1507 65.8876 59.8961 65.8726 59.534C67.4206 59.5202 68.9676 59.5062 70.5155 59.4922C70.5165 59.6057 70.5174 59.72 70.5184 59.8335C70.4537 59.9149 70.395 60.0613 70.3254 60.0661C68.5149 60.2145 66.7021 60.3478 64.8906 60.4841Z" fill="#4B7637"/>
<path d="M75.4884 95.4846C74.1992 95.5871 72.9119 95.7115 71.6216 95.7839C71.0305 95.8168 70.4339 95.7492 69.8398 95.7284C69.9413 95.5552 70.0278 95.2419 70.1442 95.2298C71.6893 95.0807 73.2392 94.9802 74.7862 94.8527C75.2647 94.814 75.5065 94.995 75.4884 95.4846Z" fill="#0C0F22"/>
<path d="M118.004 53.7106C120.253 53.4241 122.156 53.1814 124.167 52.9258C123.304 53.9971 121.96 54.1604 118.004 53.7106Z" fill="#4B7637"/>
<path d="M112.535 26.8516C112.446 27.0308 112.354 27.3649 112.266 27.3649C109.844 27.3521 107.424 27.3052 105.002 27.2576C104.978 27.2567 104.954 27.1661 104.93 27.1183C106.452 27.0984 107.975 27.1004 109.497 27.0535C110.511 27.0219 111.523 26.9214 112.535 26.8516Z" fill="#548C3B"/>
<path d="M94.3332 93.5302C94.3054 93.5759 94.2825 93.6595 94.2506 93.6636C92.841 93.8097 91.4303 93.9489 90.0195 94.0892C90.0425 93.9839 90.0434 93.7957 90.0913 93.7829C91.46 93.4227 92.814 92.8795 94.2636 93.3848C94.2994 93.3979 94.3102 93.4805 94.3332 93.5302Z" fill="#0A0F26"/>
<path d="M95.9766 103.219C97.1991 103.225 98.4217 103.23 99.6445 103.236C99.544 103.409 99.4486 103.728 99.3421 103.732C98.3164 103.768 97.2888 103.765 96.2631 103.725C96.1616 103.721 96.072 103.395 95.9766 103.219Z" fill="#0A0F26"/>
<path d="M106.907 91.5573C105.659 92.2097 104.288 92.3163 102.922 92.4407C103.016 92.2646 103.08 91.9631 103.21 91.9312C104.28 91.6676 105.359 91.4399 106.443 91.2439C106.575 91.22 106.751 91.4469 106.907 91.5573Z" fill="#0A0F26"/>
<path d="M130.413 87.5751C130.162 87.1393 129.913 86.7035 129.656 86.2569C129.196 86.3624 128.799 86.4537 128.402 86.5443C128.5 85.6561 129.197 85.5923 129.825 85.6471C130.353 85.6928 130.654 86.8279 130.413 87.5751Z" fill="#0C0F22"/>
<path d="M126.747 87.2319C125.732 87.8566 124.65 88.2445 123.438 88.1858C123.519 88.003 123.595 87.6626 123.682 87.6597C124.653 87.6237 125.541 87.3034 126.428 86.9591C126.489 86.9343 126.639 87.1352 126.747 87.2319Z" fill="#0C0F22"/>
<path d="M74.6214 91.957C74.8144 90.6547 75.0106 90.5095 76.445 90.6059L76.4252 90.5781C76.2948 91.6686 75.3826 91.7142 74.6055 91.9391L74.6214 91.957Z" fill="#524F47"/>
<path d="M15.5664 85.2849C17.175 85.2801 18.7846 85.2622 20.3934 85.284C20.6678 85.2881 20.9406 85.4642 21.214 85.5606C19.6044 85.5755 17.9937 85.6055 16.3841 85.5905C16.1104 85.5874 15.8389 85.3915 15.5664 85.2849Z" fill="#548C3B"/>
<path d="M79.1232 40.672C78.6775 41.1326 78.2298 41.1268 77.7812 40.677C77.7851 40.3347 77.7892 39.9927 77.7931 39.6504C78.2339 39.6494 78.6746 39.6494 79.1152 39.6484C79.1183 39.9895 79.1203 40.3309 79.1232 40.672Z" fill="#091406"/>
<path d="M122.784 88.2433C121.943 88.6412 121.06 88.8472 120.125 88.7934C120.176 88.6431 120.195 88.3846 120.281 88.3597C120.893 88.1846 121.514 88.0216 122.141 87.9358C122.338 87.909 122.569 88.1339 122.784 88.2433Z" fill="#0C0F22"/>
<path d="M131.405 92.8194C131.19 92.5498 130.83 92.3001 130.789 92.0056C130.705 91.4217 130.797 90.813 130.815 90.2148C131.176 90.2289 131.398 90.3581 131.39 90.776C131.377 91.4565 131.398 92.138 131.405 92.8194Z" fill="#0C0F22"/>
<path d="M110.874 90.5446C110.079 91.1147 109.17 91.3346 108.215 91.4143C108.892 90.5905 109.839 90.4531 110.818 90.4023C110.834 90.4023 110.855 90.4949 110.874 90.5446Z" fill="#0A0F26"/>
<path d="M100.289 91.2423C100.4 91.0097 100.513 90.7768 100.624 90.543C101.393 90.557 102.162 90.5698 102.932 90.5828C102.933 90.6794 102.934 90.7758 102.932 90.8722C102.052 90.9957 101.171 91.1191 100.289 91.2423Z" fill="#508739"/>
<path d="M84.7298 94.485C84.1438 95.1457 83.4106 94.7039 82.7422 94.7507C82.784 94.6024 82.8057 94.3338 82.8714 94.3229C83.5002 94.2145 84.1607 93.8992 84.7298 94.485Z" fill="#0A0F26"/>
<path d="M96.9752 93.1871C96.393 93.8 95.6608 93.4557 94.9883 93.4975C95.0202 93.3412 95.0182 93.0646 95.0878 93.0448C95.7275 92.8668 96.392 92.5733 96.9752 93.1871Z" fill="#0A0F26"/>
<path d="M67.9252 79.2833C67.3421 79.4473 67.5947 79.9288 67.5401 80.294C67.1841 79.9855 66.8287 79.6761 66.4727 79.3669C67.0488 79.2135 66.8338 78.7441 66.8705 78.375C67.2218 78.6774 67.574 78.9808 67.9252 79.2833Z" fill="#508739"/>
<path d="M133.722 34.9844C134.381 34.9853 134.982 35.1006 135.394 35.819C134.635 36.2277 134.167 35.7881 133.684 35.4161C133.697 35.2718 133.709 35.1286 133.722 34.9844Z" fill="#4B7637"/>
<path d="M75.4726 59.1445C75.4736 59.26 75.4758 59.3764 75.4767 59.4917C74.8202 59.5823 74.1636 59.6719 73.507 59.7622C73.5039 59.5682 73.5019 59.3743 73.5 59.1803C74.1575 59.1684 74.8151 59.1564 75.4726 59.1445Z" fill="#548C3B"/>
<path d="M101.285 103.143C101.863 102.539 102.597 102.881 103.264 102.816C102.657 103.24 102.09 103.91 101.285 103.143Z" fill="#0A0F26"/>
<path d="M102.271 92.5062C101.606 92.6048 100.942 92.7033 100.277 92.8007C100.314 92.6485 100.324 92.378 100.393 92.363C101.027 92.2178 101.688 91.9364 102.271 92.5062Z" fill="#0A0F26"/>
<path d="M87.3871 94.1988C87.017 94.7361 86.5107 94.4467 86.0469 94.4177C86.408 93.7184 86.6807 93.6737 87.3871 94.1988Z" fill="#0A0F26"/>
<path d="M73.505 59.1797C73.507 59.3737 73.5091 59.5676 73.512 59.7616C73.0673 59.7776 72.6226 59.7935 72.1788 59.8095C72.175 59.686 72.1711 59.5616 72.168 59.4374C72.6137 59.3507 73.0594 59.2652 73.505 59.1797Z" fill="#4C4B48"/>
<path d="M37.761 82.293C37.8745 82.4949 38.0723 82.6928 38.0844 82.9007C38.1252 83.5803 38.0984 84.2646 38.0963 84.9471C37.983 84.6905 37.789 84.4398 37.7701 84.1772C37.7233 83.5525 37.759 82.9218 37.761 82.293Z" fill="#548C3B"/>
<path d="M111.57 95.1934C111.656 94.5767 111.781 93.9848 112.48 93.7539C112.383 94.11 112.338 94.495 112.17 94.8144C112.075 94.9956 111.777 95.0702 111.57 95.1934Z" fill="#0A0F26"/>
<path d="M133.057 93.8239C132.554 93.8894 132.227 93.6676 132.043 93.2091C132.582 92.7743 132.817 92.9166 133.057 93.8239Z" fill="#0C0F22"/>
<path d="M113.638 90.5748C113.601 90.3409 113.564 90.1071 113.527 89.8725C113.715 89.8238 114.053 89.7032 114.068 89.7361C114.279 90.1779 114.243 90.534 113.638 90.5748Z" fill="#0A0F26"/>
<path d="M99.6211 92.8519C99.3822 93.3601 98.9844 93.1463 98.6172 93.0717C98.9126 92.41 99.053 92.3793 99.6211 92.8519Z" fill="#0A0F26"/>
<path d="M119.871 27.3903C119.333 27.4011 118.793 27.44 118.258 27.405C118.11 27.3961 117.976 27.1704 117.836 27.0441C118.506 27.2091 119.28 26.7653 119.871 27.3903Z" fill="#548C3B"/>
<path d="M76.9166 95.4805C77.0011 95.5749 77.0847 95.6694 77.1692 95.7641C76.9335 96.0196 76.6977 96.2752 76.4619 96.5311C76.3167 96.326 76.1725 96.1211 76.0273 95.9172C76.3237 95.7708 76.6201 95.6257 76.9166 95.4805Z" fill="#0C0F22"/>
<path d="M26.8516 63.8122C27.4922 63.2791 28.1529 63.2682 28.8312 63.7388C28.1708 63.7625 27.511 63.7873 26.8516 63.8122Z" fill="#4B7637"/>
<path d="M109.863 97.8246C110.091 97.5002 110.32 97.176 110.548 96.8516C110.527 97.3212 110.692 97.922 109.863 97.8246Z" fill="#0A0F26"/>
<path d="M110.555 96.8465C110.768 96.5112 110.983 96.1749 111.197 95.8398C111.188 96.3063 111.376 96.8981 110.555 96.8465Z" fill="#0A0F26"/>
<path d="M72.167 59.4375C72.1709 59.5619 72.174 59.6861 72.1779 59.8105C71.6259 59.8185 71.0747 59.8264 70.5224 59.8344C70.5215 59.7211 70.5205 59.6066 70.5195 59.4931C71.0686 59.4742 71.6179 59.4563 72.167 59.4375Z" fill="#548C3B"/>
<path d="M36.7695 63.759C37.3365 63.2874 37.8906 63.2089 38.4218 63.8148C37.8708 63.7957 37.3208 63.7778 36.7695 63.759Z" fill="#4B7637"/>
<path d="M130.734 88.904C130.661 88.6791 130.588 88.4554 130.516 88.2305C130.983 88.3278 131.366 88.4522 130.734 88.904Z" fill="#0C0F22"/>
<path d="M99.7026 90.5174C99.226 90.4527 98.6361 90.8935 98.3008 90.2031C98.7685 90.3084 99.2349 90.413 99.7026 90.5174Z" fill="#508739"/>
<path d="M98.04 90.1895C97.5733 90.1108 96.9853 90.5676 96.6602 89.875C97.1196 89.9796 97.5803 90.0849 98.04 90.1895Z" fill="#508739"/>
<path d="M112.57 93.2098C112.463 92.7424 112.741 92.5433 113.123 92.418C113.251 92.8997 113.169 93.2347 112.57 93.2098Z" fill="#0A0F26"/>
<path d="M112.864 89.9027C112.64 89.9923 112.415 90.0829 112.191 90.1723C112.263 89.9863 112.335 89.7993 112.406 89.6133C112.559 89.7097 112.711 89.8063 112.864 89.9027Z" fill="#0A0F26"/>
<path d="M130.72 31.7305C130.942 31.9472 131.164 32.165 131.386 32.382L131.387 32.381C131.048 32.2754 130.707 32.1701 130.367 32.0646C130.486 31.9532 130.603 31.8418 130.72 31.7305Z" fill="#4B7637"/>
<path d="M66.9441 24.0684C66.5692 24.0396 66.0827 24.3829 65.8906 23.75C66.2419 23.8556 66.5931 23.9621 66.9441 24.0684Z" fill="#4B7637"/>
<path d="M98.3047 91.5516C98.5364 90.9646 99.0069 91.2938 99.385 91.2699C99.0248 91.3634 98.6649 91.4581 98.3047 91.5516Z" fill="#508739"/>
<path d="M64.8906 26.4516C65.2141 25.8776 65.5443 25.8885 65.8835 26.4376C65.5523 26.4426 65.2221 26.4465 64.8906 26.4516Z" fill="#508739"/>
<path d="M102.935 90.8746C102.936 90.778 102.936 90.6816 102.934 90.5859C103.236 90.599 103.538 90.613 103.84 90.6268C103.84 90.6905 103.841 90.7541 103.841 90.8188C103.538 90.8367 103.237 90.8555 102.935 90.8746Z" fill="#4B7637"/>
<path d="M23.8711 64.4615C24.0752 63.8675 24.5487 64.1878 24.9178 64.154C24.5685 64.2564 24.2204 64.3588 23.8711 64.4615Z" fill="#4B7637"/>
<path d="M67.9439 24.3895C67.6376 24.4342 67.3013 24.5475 67.2148 24.0781C67.4574 24.1825 67.7011 24.2859 67.9439 24.3895Z" fill="#4B7637"/>
<path d="M76.469 27.1282C76.2004 27.5949 75.9837 27.542 75.8086 27.0625C76.0284 27.0845 76.2492 27.1065 76.469 27.1282Z" fill="#508739"/>
<path d="M79.1165 27.7979C78.8679 28.2196 78.65 28.1808 78.457 27.7539C78.6769 27.7689 78.8967 27.7829 79.1165 27.7979Z" fill="#508739"/>
<path d="M82.0903 27.7891C81.8963 28.1732 81.6813 28.2128 81.4414 27.828C81.6574 27.8149 81.8743 27.8021 82.0903 27.7891Z" fill="#508739"/>
<path d="M64.1758 78.0278C64.4645 78.0188 64.8126 77.8855 64.8662 78.3611C64.6365 78.2498 64.4058 78.1394 64.1758 78.0278Z" fill="#508739"/>
<path d="M67.8672 26.439C68.101 25.9416 68.3209 25.9585 68.5298 26.455L67.8672 26.439Z" fill="#508739"/>
<path d="M101.27 34.8019C101.053 34.8794 100.835 34.9562 100.618 35.0338C100.616 34.9362 100.611 34.8388 100.602 34.7422C100.824 34.762 101.047 34.782 101.27 34.8019Z" fill="#4B7637"/>
<path d="M86.0617 41.3116C85.9523 41.3026 85.8428 41.2937 85.7344 41.2838C85.7931 41.2021 85.8527 41.1207 85.9124 41.0391C85.9622 41.1297 86.0119 41.221 86.0617 41.3116Z" fill="#091406"/>
<path d="M88.7132 94.1575C88.6016 94.1616 88.4903 94.1655 88.3789 94.1696C88.4804 93.8591 88.5898 93.8244 88.7132 94.1575Z" fill="#0A0F26"/>
<path d="M67.5375 95.7727C67.4271 95.7788 67.3177 95.7848 67.207 95.7906C67.3027 95.521 67.4112 95.4802 67.5375 95.7727Z" fill="#0C0F22"/>
<path d="M133.72 34.9844C133.707 35.1286 133.694 35.2718 133.681 35.4161L133.434 35.1006C133.529 35.0619 133.624 35.023 133.72 34.9844Z" fill="#548C3B"/>
<path d="M131.383 32.3838C131.469 32.4326 131.556 32.4823 131.643 32.5309C131.556 32.4814 131.47 32.4326 131.384 32.3828L131.383 32.3838Z" fill="#4B7637"/>
<path d="M25.5273 64.1204C25.579 64.0298 25.6298 63.9392 25.6815 63.8477C25.7402 63.9322 25.7989 64.0158 25.8585 64.0994C25.7481 64.1064 25.6377 64.1134 25.5273 64.1204Z" fill="#4B7637"/>
<path d="M71.8432 25.4557C71.8004 25.5284 71.7586 25.6011 71.7158 25.6736C71.6482 25.59 71.5794 25.5064 71.5117 25.4219C71.6221 25.434 71.7328 25.4448 71.8432 25.4557Z" fill="#508739"/>
<path d="M50.7449 98.9027V104.293H49.0508V95.2956C49.2515 95.2477 49.404 95.1772 49.5552 95.182C50.319 95.205 51.2573 94.991 51.7955 95.3581C52.3168 95.7132 52.454 96.6624 52.7076 97.3697C53.2062 98.7575 53.6676 100.158 54.1732 101.64C54.9172 99.5075 55.6545 97.3996 56.4055 95.2497H59.0826C59.414 96.343 59.5143 100.963 59.2616 104.305H57.3257C57.3237 103.316 57.3208 102.291 57.3199 101.266C57.3187 100.282 57.3199 99.2966 57.1128 98.2741C56.3845 100.289 55.6564 102.302 54.9441 104.272C53.3144 104.448 53.2966 104.454 52.8301 103.175C52.3059 101.736 51.8203 100.285 51.3179 98.8391C51.1807 98.4183 51.0444 97.9965 50.907 97.5757C50.8275 97.5946 50.7478 97.6134 50.6673 97.6335C50.6932 98.0562 50.719 98.4799 50.7449 98.9027Z" fill="#0B0B0B"/>
<path d="M23.2523 99.547C23.1879 99.2883 23.1212 98.7382 22.9151 98.2459C22.4953 97.2391 21.8189 96.8093 20.9036 96.8559C19.9079 96.9067 19.2711 97.457 18.9409 98.3553C18.6333 99.1909 18.528 100.04 18.8423 100.925C19.1996 101.931 20.0798 102.727 20.9444 102.719C22.0199 102.71 22.97 101.843 23.1808 100.658C23.2287 100.39 23.2185 100.11 23.2523 99.547ZM16.5254 99.9033C16.3583 96.6651 18.5976 94.9797 21.0229 94.9688C23.7579 94.9558 25.4769 97.025 25.4967 99.7939C25.5137 102.19 23.7966 104.522 20.9166 104.517C18.5002 104.513 16.3522 102.793 16.5254 99.9033Z" fill="#0B0B0B"/>
<path d="M39.1262 95.2876C39.4683 95.2369 39.6753 95.1874 39.8842 95.1794C40.2601 95.1654 40.6382 95.1753 41.1964 95.1753C41.2382 95.8507 41.2928 96.4288 41.3068 97.0078C41.3406 98.4333 41.2969 99.8639 41.4003 101.285C41.467 102.187 42.1376 102.724 42.9154 102.738C43.6597 102.752 44.3568 102.217 44.5709 101.4C44.6663 101.035 44.6793 100.642 44.6832 100.262C44.6962 98.9995 44.6892 97.7371 44.6892 96.4747V95.263H46.6561C46.6561 97.4475 46.6609 99.6233 46.6481 101.798C46.6471 102.007 46.5546 102.223 46.4739 102.423C45.8413 103.977 44.5351 104.635 42.4081 104.483C40.7188 104.362 39.7946 103.623 39.3678 102.006C39.2436 101.535 39.145 101.042 39.1371 100.557C39.1093 98.8572 39.1262 97.1561 39.1262 95.2876Z" fill="#0B0B0B"/>
<path d="M29.3493 96.8951C29.2449 97.8162 29.0012 98.7456 29.5314 99.6309C31.3082 99.3901 31.8544 98.9823 31.749 98.0211C31.6485 97.1089 31.0396 96.8116 29.3493 96.8951ZM29.3314 101.231C29.2966 101.762 29.252 102.237 29.236 102.715C29.2201 103.206 29.2329 103.698 29.2329 104.298H27.2213C27.2095 102.85 27.1926 101.337 27.1866 99.8229C27.1805 98.3455 27.1856 96.8671 27.1856 95.2885C28.663 95.0706 30.0974 95.0397 31.4734 95.2614C33.4422 95.5788 33.8461 96.6642 33.8859 98.044C33.9396 99.8756 32.5827 100.825 31.2466 101.087C30.6666 101.202 30.0588 101.181 29.3314 101.231Z" fill="#0B0B0B"/>
<path d="M15.7986 95.4684V97.2272C14.0646 96.7299 12.4282 96.4236 11.3467 98.2133C10.7001 99.2847 10.703 100.426 11.3895 101.458C12.5316 103.177 14.1492 102.807 15.8254 102.163V103.898C13.6288 104.966 11.1279 104.635 9.76303 103.108C8.36726 101.547 8.27474 98.8329 9.55504 97.0045C10.8742 95.1184 13.1423 94.5352 15.7986 95.4684Z" fill="#0B0B0B"/>
<path d="M37.3032 95.2422H35.2617V104.338H37.3032V95.2422Z" fill="#191919"/>
<path d="M50.7416 98.9012C50.7158 98.4784 50.6899 98.0547 50.6641 97.632C50.7445 97.6119 50.8242 97.5931 50.9037 97.5742C51.0411 97.995 51.1774 98.4168 51.3146 98.8376C51.1235 98.8594 50.9327 98.8804 50.7416 98.9012Z" fill="#524F47"/>
<path d="M79.8321 98.7114C79.7874 99.1274 79.7606 99.5581 79.1538 99.4736C78.6871 98.9513 78.2206 98.429 77.7539 97.9068C77.765 97.664 77.7759 97.4203 77.7868 97.1765C77.8464 97.077 77.9051 96.9784 77.9648 96.8789C78.4892 97.3934 79.105 97.3029 79.7316 97.1485C79.8739 97.3048 80.0171 97.4611 80.1594 97.6171C80.0341 97.9763 79.5417 98.2271 79.8321 98.7114Z" fill="#080C07"/>
<path d="M76.4609 96.5287C76.6967 96.2729 76.9325 96.0173 77.1682 95.7617C77.4349 96.1337 77.7016 96.5057 77.9693 96.8778C77.9096 96.9773 77.8497 97.0758 77.791 97.1754C77.5016 97.1684 77.2132 97.1614 76.9235 97.1544C76.7694 96.9454 76.6153 96.7377 76.4609 96.5287Z" fill="#080C07"/>
<path d="M76.9219 97.1523C77.2103 97.1593 77.4999 97.1664 77.7884 97.1734C77.7775 97.4171 77.7666 97.6608 77.7555 97.9043C77.478 97.6538 77.1994 97.4031 76.9219 97.1523Z" fill="#0C0F22"/>
<path d="M77.7949 39.6547C77.7908 39.997 77.787 40.339 77.7829 40.6823C76.983 40.7799 76.1803 40.9719 75.3824 40.956C73.2356 40.9152 71.2468 41.6544 69.2244 42.1636C67.5192 42.5933 65.8905 43.3296 64.2283 43.9294C64.1824 43.8589 64.1367 43.7891 64.0911 43.7186C64.0324 43.8111 63.9737 43.9026 63.915 43.9942C62.6047 44.6498 61.2954 45.3054 59.9852 45.961C59.8559 46.0574 59.7257 46.154 59.5953 46.2504L55.6657 47.6044C55.5464 47.687 55.427 47.7687 55.3075 47.8501C54.424 47.9636 53.5406 48.0759 52.6572 48.1895C52.6562 47.8989 52.6563 47.6083 52.6563 47.3179C54.4422 46.7509 56.2406 46.2226 58.0074 45.5999C59.0172 45.2436 59.9724 44.7334 60.9534 44.2925C61.0497 44.213 61.1461 44.1333 61.2428 44.0529C63.0593 43.2729 64.8559 42.4392 66.7024 41.7338C67.6873 41.3577 68.7567 41.2046 69.7884 40.9509C69.9196 40.8613 70.051 40.7709 70.1834 40.6804C70.7564 40.555 71.3444 40.4755 71.8995 40.2943C73.8233 39.6677 75.8001 39.5921 77.7949 39.6547Z" fill="#080C07"/>
<path d="M52.6531 47.3164C52.6531 47.6068 52.653 47.8974 52.6543 48.1868C52.0991 47.8974 52.1856 47.6068 52.6531 47.3164Z" fill="#091406"/>
<path d="M63.9141 43.9905C63.9728 43.8989 64.0315 43.8064 64.0902 43.7148C64.1361 43.7856 64.1817 43.8552 64.2274 43.926C64.1269 43.9656 64.0225 43.9876 63.9141 43.9905Z" fill="#091406"/>
<path d="M93.3514 106.748C93.1403 106.695 92.9284 106.643 92.7175 106.591C92.633 104.974 92.633 104.974 94.0406 104.461C94.4537 104.87 94.3621 105.316 94.0855 105.75C93.8647 106.097 93.598 106.417 93.3514 106.748Z" fill="#4C4B48"/>
<path d="M114.209 98.8354C113.862 98.747 113.457 98.7379 113.189 98.5419C113.017 98.4156 113.046 98.0158 112.984 97.7382C113.272 97.7351 113.718 97.6177 113.813 97.7511C114.029 98.0545 114.073 98.4813 114.185 98.8574L114.209 98.8354Z" fill="#524F47"/>
<path d="M78.6872 94.3738C78.328 94.6035 78.0724 94.8951 77.8465 94.8741C77.6207 94.8533 77.4248 94.519 77.2148 94.3231C77.4596 94.0972 77.6745 93.7699 77.9601 93.6902C78.1024 93.6505 78.371 94.0634 78.6872 94.3738Z" fill="#191919"/>
<path d="M108.852 101.451C109.333 101.466 109.849 101.432 110.094 101.969C110.173 102.14 110.208 102.495 110.129 102.542C109.928 102.661 109.486 102.76 109.436 102.679C109.192 102.298 109.047 101.855 108.867 101.434L108.852 101.451Z" fill="#524F47"/>
<path d="M114.953 93.5842C115.468 93.6371 116.193 93.2301 116.294 94.1952C115.119 94.7433 114.898 94.6428 114.953 93.5842Z" fill="#4C4B48"/>
<path d="M80.1622 97.6121C80.0199 97.4561 79.8767 97.2998 79.7344 97.1447C79.9503 97.0879 80.1663 97.0321 80.382 96.9766C80.3086 97.1884 80.2359 97.4003 80.1622 97.6121Z" fill="#0C0F22"/>
<path d="M106.049 72.0054C105.806 70.4345 105.806 70.4345 106.771 70.0156C107.074 71.6969 107.071 71.7059 106.049 72.0054Z" fill="#191919"/>
<path d="M116.236 77.323C115.336 76.8613 115.633 76.161 115.465 75.5312C116.711 75.9004 116.72 75.9214 116.236 77.323Z" fill="#4C4B48"/>
<path d="M111.198 72.1602C111.29 72.2077 111.415 72.2317 111.468 72.3063C111.755 72.7162 112.024 73.1837 111.496 73.5547C111.321 73.6782 110.845 73.6067 110.67 73.4465C110.284 73.0943 110.482 72.6793 111.198 72.1602Z" fill="#4C4B48"/>
<path d="M117.686 87.9493C117.715 88.2757 117.82 88.6228 117.74 88.9192C117.698 89.0765 117.325 89.2415 117.118 89.2226C116.995 89.2108 116.784 88.8197 116.826 88.6525C116.895 88.3762 117.137 88.1423 117.307 87.8906C117.433 87.9095 117.56 87.9293 117.686 87.9493Z" fill="#191919"/>
<path d="M60.933 78.3125C61.149 79.208 60.5122 79.2587 59.9093 79.3442C59.7672 78.5215 60.3183 78.3862 60.933 78.3125Z" fill="#080C07"/>
<path d="M23.2485 99.5499C23.2147 100.113 23.2249 100.393 23.177 100.661C22.9661 101.846 22.0161 102.713 20.9406 102.722C20.076 102.73 19.1958 101.934 18.8385 100.928C18.5242 100.042 18.6295 99.1939 18.937 98.3583C19.2673 97.4599 19.904 96.9096 20.8998 96.8589C21.8151 96.8123 22.4915 97.242 22.9113 98.2489C23.1174 98.7412 23.184 99.2912 23.2485 99.5499Z" fill="#C0C0C0"/>
<path d="M29.3506 96.8963C31.0408 96.8127 31.6498 97.1101 31.7503 98.0222C31.8556 98.9834 31.3094 99.3912 29.5327 99.632C29.0025 98.7467 29.2462 97.8174 29.3506 96.8963Z" fill="#C0C0C0"/>
</g>
<defs>
<clipPath id="clip0_1054_10392">
<rect width="150" height="110" fill="white"/>
</clipPath>
</defs>
</svg>
