<svg width="150" height="110" viewBox="0 0 150 110" fill="none" xmlns="http://www.w3.org/2000/svg">
<g clip-path="url(#clip0_1054_9616)">
<path d="M16.1289 46.4311L27.6064 36.4507L49.9376 33.207L124.916 37.0745L137.391 51.4213L135.645 61.1523L112.191 72.2555L27.6064 71.0079L14.1328 57.0353L16.1289 46.4311Z" fill="#D9D9D9"/>
<path d="M100.62 55.0433C100.656 56.1521 101.813 57.3149 102.894 57.3281C103.959 57.3408 105.121 56.1417 105.123 55.0276C105.125 53.8576 104.055 52.8094 102.858 52.8094C101.657 52.8092 100.583 53.8818 100.62 55.0433ZM48.3378 57.3703C50.2042 56.6132 50.7995 55.861 50.5293 54.6708C50.2968 53.6483 49.3277 52.8364 48.2989 52.8032C47.2612 52.7695 46.2143 53.7142 46.0411 54.8407C45.8879 55.8368 46.6329 56.6789 48.3378 57.3703ZM106.966 50.7121C108.634 50.6696 110.455 48.7309 110.372 47.0864C110.282 45.2844 108.525 43.6968 106.716 43.7821C104.902 43.8667 103.361 45.5888 103.437 47.4457C103.502 49.0408 105.352 50.753 106.966 50.7121ZM40.8827 47.1306C40.8548 48.9088 42.5766 50.739 44.2549 50.7143C45.8754 50.6903 47.7328 48.9408 47.7652 47.4083C47.8051 45.5035 46.1214 43.7751 44.2421 43.7909C42.4357 43.8063 40.9114 45.3219 40.8827 47.1306ZM97.7068 44.9139C95.437 44.891 93.6423 46.5854 93.6081 48.7823C93.5772 50.8361 95.2404 52.5959 97.2896 52.6767C99.3928 52.7593 101.463 50.7223 101.447 48.5857C101.433 46.7406 99.5914 44.9331 97.7068 44.9139ZM53.5272 45.0205C51.4083 45.0259 49.7733 46.6296 49.7316 48.7424C49.6914 50.7669 51.5488 52.6532 53.6123 52.6839C55.6867 52.7146 57.6748 50.841 57.6344 48.8939C57.5885 46.6989 55.8025 45.0145 53.5272 45.0205ZM60.4716 61.3412C60.6075 61.4505 60.7438 61.56 60.8795 61.6693C62.2942 61.0266 63.7399 60.442 65.1177 59.7281C68.1473 58.1589 71.0159 56.3557 72.9039 53.3918C74.1977 51.3613 74.3875 49.1893 73.1352 47.1041C72.137 45.4426 70.7215 44.1532 68.9674 43.207C65.2682 41.2092 61.2727 40.1907 57.1843 39.4416C56.9205 39.3935 56.6403 39.4352 56.3679 39.4352C59.3495 42.3537 62.1291 45.266 62.7895 49.5743C63.432 53.7653 62.8008 57.6984 60.4716 61.3412ZM90.5955 61.7247C90.4787 61.1863 90.469 61.0066 90.4019 60.8524C90.1923 60.3721 89.9643 59.9 89.7382 59.4275C87.4981 54.7479 87.5525 50.0356 89.8794 45.4598C90.6499 43.9443 92.0472 42.7462 93.1637 41.4083C93.6575 40.8164 94.3681 40.3853 94.7022 39.3917C91.1093 39.9686 87.7688 40.6817 84.6028 42.0895C82.5151 43.0171 80.5552 44.0661 78.9656 45.8074C76.5595 48.4435 76.8809 51.7483 78.769 54.0787C81.8127 57.8353 85.9459 59.8703 90.5955 61.7247ZM39.5304 39.917C39.056 39.8396 38.8819 39.76 38.7352 39.7945C34.1307 40.8771 29.4973 41.8864 25.2476 44.0673C22.5349 45.4593 19.95 47.0664 17.9963 49.4685C15.5733 52.4489 15.724 55.6823 18.3803 58.4464C18.9006 58.9873 19.5074 59.4696 20.1421 59.8733C25.6426 63.3705 31.8018 64.491 38.1788 64.7927C38.3095 64.7992 38.4477 64.6415 38.7704 64.4479C38.1476 63.7425 37.6109 63.084 37.0225 62.4752C32.6434 57.9439 31.9622 49.7365 35.5232 44.628C36.3516 43.4398 37.3771 42.3879 38.3187 41.2785C38.6688 40.8659 39.0373 40.4696 39.5304 39.917ZM112.309 64.4097C112.398 64.5419 112.487 64.6744 112.577 64.8067C112.973 64.8067 113.372 64.8384 113.764 64.8012C115.102 64.6744 116.439 64.5412 117.772 64.378C122.584 63.7897 127.144 62.4236 131.227 59.7528C134.768 57.4369 136.663 53.1904 132.708 48.9078C132.51 48.6938 132.3 48.4907 132.087 48.2908C130.072 46.3903 127.754 44.9446 125.269 43.7425C121.242 41.794 116.908 40.8382 112.596 39.8114C112.362 39.7558 112.091 39.8541 111.329 39.9344C115.404 43.2679 117.854 47.0694 117.938 52.1021C118.02 57.0756 116.052 61.1181 112.309 64.4097ZM126.333 35.7145C126.039 35.187 125.971 34.9355 125.807 34.792C123.443 32.7136 120.99 30.7704 118.182 29.288C110.903 25.4456 102.972 24.0121 94.9393 23.0518C89.6738 22.4228 84.6479 23.5401 79.8528 25.7971C77.3293 26.9853 74.7077 27.1023 72.0751 26.0853C70.8832 25.6247 69.7015 25.1362 68.5073 24.6811C65.6624 23.5965 62.7538 22.9093 59.6691 22.9497C54.2253 23.0203 48.9554 24.0773 43.6954 25.3695C37.6303 26.8593 31.9792 29.1373 27.1619 33.2121C26.2122 34.0155 25.2706 34.8287 24.3247 35.6374C24.4055 35.7818 24.4869 35.9265 24.5677 36.0708C25.0839 35.9183 25.6111 35.794 26.1154 35.6094C27.9184 34.9482 29.7323 34.3923 31.6675 34.1989C34.4965 33.9162 37.3057 33.4451 40.1332 33.1467C43.8883 32.7503 47.6524 32.4409 51.4136 32.0998C51.7621 32.0683 52.1202 32.1138 52.4645 32.0611C56.1351 31.501 59.7951 31.7345 63.3881 32.5005C66.5057 33.1649 69.5844 34.0782 72.0851 36.196V38.3168C71.3068 38.5012 70.5885 38.8348 69.8861 38.8041C68.3259 38.7353 66.7752 38.471 65.2183 38.3104C63.957 38.1801 62.7406 37.5608 61.0796 37.8812C61.7161 38.3203 62.051 38.6557 62.4554 38.8094C63.4283 39.1797 64.4353 39.4586 65.4251 39.785C69.5034 41.1303 73.1075 43.107 75.1912 47.1101C75.2304 47.1852 75.3986 47.1932 75.6481 47.2843C75.8706 47.048 76.2057 46.8097 76.3824 46.4853C77.7193 44.0344 79.7937 42.3415 82.2474 41.2134C84.3967 40.2254 86.6939 39.5459 88.9535 38.8161C89.8383 38.5304 90.6801 38.2477 91.3523 37.5072C90.0935 37.5361 88.8672 37.6898 87.6538 37.9141C85.4324 38.3246 83.2681 39.0724 80.9459 38.8346C79.8256 38.7201 79.0546 38.3326 78.8653 37.1733C79.5232 35.7204 79.5404 35.6256 80.6241 35.0954C84.2589 33.3174 88.0106 31.9972 92.149 32.0876C95.4231 32.1587 98.6996 32.13 101.975 32.1497C102.443 32.1527 102.914 32.1437 103.377 32.1973C107.124 32.6302 110.877 33.0262 114.613 33.5362C117.366 33.912 120.101 34.425 122.838 34.9138C123.906 35.1044 124.956 35.3956 126.333 35.7145ZM139.673 86.9755C138.871 87.4366 138.384 87.708 137.906 87.992C137.407 88.2886 136.936 88.6429 136.416 88.8954C130.641 91.6945 124.626 93.825 118.313 95.0007C112.387 96.1043 106.439 97.1026 100.481 98.0156C97.095 98.5343 93.673 98.8415 90.2587 99.1506C86.0906 99.5274 81.9178 99.968 77.7392 100.081C73.8371 100.186 69.924 99.9186 66.0169 99.7714C64.6831 99.721 63.3499 99.5725 62.0238 99.4091C59.5474 99.1037 57.0785 98.7419 54.6033 98.427C51.5498 98.0378 48.4803 97.7531 45.4413 97.2768C41.6637 96.6844 37.9021 95.9803 34.1469 95.2562C29.9269 94.4428 25.7838 93.3555 21.7422 91.8549C18.9522 90.8192 16.2298 89.6804 13.6628 88.1716C13.0413 87.8063 12.4193 87.2759 11.5517 87.6379C12.1902 90.0387 13.1229 92.1885 15.2178 93.6262C17.4734 95.1741 19.7087 96.7535 22.0082 98.2329C22.8269 98.7589 23.781 99.1276 24.7214 99.4031C27.0022 100.07 29.3368 100.561 31.6049 101.265C37.7568 103.175 43.9654 104.799 50.3272 105.895C55.152 106.726 60.008 107.37 64.8687 107.454C75.3067 107.636 85.7612 108.057 96.1688 106.562C100.652 105.919 105.142 105.341 109.51 104.141C114.152 102.865 118.727 101.349 123.377 100.105C128.431 98.7534 132.894 96.4262 136.741 92.8739C138.391 91.3509 139.171 89.4781 139.673 86.9755ZM81.4584 36.7038C81.4874 36.8507 81.5168 36.9972 81.5463 37.1437C82.972 36.9351 84.4002 36.7424 85.8224 36.5139C87.539 36.2377 89.2494 35.6892 90.964 35.6818C96.5112 35.6573 102.062 35.7644 107.606 35.947C110.45 36.0406 113.295 36.324 116.123 36.6621C120.371 37.1698 124.358 38.5871 128.168 40.4933C128.803 40.8115 129.317 41.3699 129.928 41.8489C128.999 42.5912 128.875 42.6279 127.797 42.1695C126.404 41.5772 125.038 40.9205 123.643 40.3334C123.407 40.2341 123.08 40.3484 122.795 40.3641C123.285 40.9482 123.821 41.2641 124.377 41.5408C126.095 42.3964 127.88 43.1384 129.533 44.1065C132.294 45.7236 134.546 47.8649 135.996 50.8024C137.374 53.5942 136.884 56.1534 135.087 58.4701C133.762 60.1767 132.1 61.5518 130.095 62.5104C124.368 65.2495 118.25 66.2311 112.003 66.4462C108.629 66.5625 105.24 66.2508 101.858 66.1316C101.741 66.1278 101.623 66.1333 101.508 66.1141C97.3732 65.43 93.3212 64.4357 89.4206 62.8792C87.0532 61.9351 86.8204 61.8934 85.1647 62.1841C85.7637 62.491 86.1959 62.7754 86.6692 62.9448C88.8564 63.7273 91.0277 64.5744 93.2561 65.2189C97.3964 66.4163 101.586 67.3958 105.953 67.215C106.712 67.1835 107.488 67.1491 108.233 67.2639C112.504 67.9233 116.713 67.2649 120.914 66.6633C123.627 66.275 126.231 65.4432 128.695 64.2133C129.164 63.9795 129.66 63.8046 130.169 64.3358C129.91 65.3484 129.058 65.7885 128.237 66.1316C126.849 66.7119 125.424 67.2359 123.974 67.6356C120.497 68.5942 116.982 69.2984 113.337 69.3218C107.904 69.3573 102.537 68.8083 97.1811 67.945C92.4843 67.1873 88.0128 65.8209 83.8502 63.5147C82.1601 62.5785 80.6488 61.4003 79.5127 59.7244C79.8705 58.1814 79.1337 57.0793 78.0798 56.0236C77.4338 55.3769 77.0109 54.5089 76.4847 53.7424C76.2666 53.4242 76.041 53.1109 75.663 52.5749C74.3067 54.3799 73.0649 56.0321 71.7856 57.734C71.8924 58.901 71.6566 60.049 70.7908 60.9223C70.1404 61.5778 69.3671 62.1227 68.6074 62.6574C66.4528 64.1729 64.054 65.1622 61.5794 66.0542C56.6643 67.8255 51.5668 68.5259 46.4071 68.9545C45.5361 69.0269 44.6618 69.0776 43.7878 69.0965C40.753 69.1619 37.696 69.4556 34.6891 69.1903C31.9363 68.9473 29.2151 68.1776 26.5234 67.4739C25.0747 67.0949 23.6827 66.4372 22.3326 65.7688C21.6107 65.4112 20.8108 64.9022 21.0054 63.5466C21.6674 63.8231 22.1671 64.0504 22.6804 64.2423C24.417 64.8923 26.1321 65.6166 27.9034 66.1533C31.3848 67.209 35.0145 67.313 38.6062 67.4657C41.2178 67.5765 43.8474 67.3307 46.4668 67.193C48.0933 67.1074 49.7361 67.046 51.3347 66.7646C55.6298 66.0086 59.8348 64.8915 63.8841 63.2457C64.3188 63.0691 64.702 62.7652 65.3557 62.3717C63.799 62.0912 62.6985 62.4336 61.6138 62.8799C56.1256 65.1418 50.3838 66.2563 44.4774 66.448C41.7453 66.5368 39.0021 66.2985 36.2635 66.2039C31.6855 66.0452 27.2919 65.0405 23.0479 63.3373C19.8499 62.0541 16.9441 60.3986 15.3001 57.1834C14.7215 56.0508 14.0139 54.8624 14.3175 53.5537C15.0344 50.4665 16.5621 47.8329 19.1007 45.8476C21.6933 43.8191 24.6341 42.435 27.6464 41.1708C28.241 40.9217 28.9264 40.7266 29.2103 39.9447C28.0908 40.1934 27.0346 40.5812 25.9864 40.9904C24.7967 41.4542 23.6046 41.9158 22.4326 42.4223C21.8815 42.6608 21.5459 42.5593 21.2836 41.8237C21.6055 41.5323 21.9286 41.1039 22.3583 40.8773C23.5425 40.2528 24.7361 39.6166 25.9894 39.1584C29.2049 37.984 32.4216 36.8323 35.9012 36.5952C38.8527 36.3939 41.7827 35.8831 44.7342 35.6818C47.1829 35.5148 49.6493 35.6331 52.1062 35.5667C57.837 35.411 63.5201 35.6608 69.0667 37.3041C69.3332 37.3829 69.6653 37.241 70.313 37.1569C69.7329 36.7789 69.4714 36.57 69.179 36.4238C65.9538 34.812 62.5078 33.9504 58.9306 33.927C54.7301 33.8998 50.5286 34.1448 46.3273 34.2725C46.1519 34.2783 45.9755 34.2833 45.8018 34.3042C43.0352 34.6358 40.2664 34.9524 37.5031 35.3087C35.3179 35.5902 33.1202 35.8265 30.9622 36.2551C28.8056 36.6833 26.6803 37.2871 24.5617 37.8852C22.35 38.5097 20.2923 39.4254 18.8232 41.3185C17.3256 43.2487 15.7632 45.1302 14.3175 47.0979C13.7062 47.9298 13.2337 48.8931 12.8514 49.8572C12.1221 51.6971 12.4869 53.5123 13.2125 55.2799C14.2694 57.8546 14.1681 60.3564 12.9051 62.861C12.1817 64.2954 11.6405 65.8224 10.894 67.6024C12.4854 67.4138 13.7951 67.2933 15.094 67.0974C18.0672 66.6488 21.0067 66.6301 23.892 67.6207C26.2529 68.4308 28.5858 69.3428 30.9856 70.018C38.5163 72.1366 46.2781 72.8087 54.0302 73.4904C57.4512 73.7913 60.8813 74.0096 64.3115 74.1818C67.75 74.3545 71.1941 74.5256 74.6348 74.5134C79.8908 74.4949 85.1469 74.3387 90.4019 74.1953C91.7939 74.1573 93.1834 73.9662 94.5712 73.822C98.9052 73.3716 103.24 72.9285 107.57 72.4452C109.703 72.2072 111.834 71.9302 113.954 71.5946C117.7 71.0013 121.24 69.6776 124.803 68.4423C127.612 67.4682 130.421 66.4931 133.472 66.8379C135.085 67.0206 136.694 67.2451 138.309 67.4121C138.901 67.4734 139.504 67.4218 140.377 67.4218C139.815 66.2653 139.424 65.3761 138.962 64.525C137.114 61.1224 136.566 57.6542 138.319 54.0313C139.22 52.1677 138.77 50.3545 137.781 48.7412C136.416 46.5143 134.95 44.3316 133.335 42.2811C131.737 40.2516 129.809 38.5327 127.184 37.8677C125.554 37.4553 123.937 36.9585 122.283 36.6813C118.509 36.0483 114.726 35.4492 110.928 34.9836C107.237 34.531 103.529 34.1198 99.8172 33.9529C96.1501 33.7885 92.4511 33.5659 88.8028 34.2531C86.2455 34.7346 83.7811 35.5311 81.4584 36.7038ZM75.3314 98.5947C77.955 98.4457 80.7548 98.3639 83.5388 98.1111C88.0522 97.7014 92.5634 97.2493 97.0598 96.6857C101.954 96.0729 106.836 95.3558 111.71 94.605C117.75 93.6743 123.645 92.1431 129.363 89.9873C132.96 88.6315 136.48 87.09 139.683 84.9227C142.202 83.2178 143.36 80.7247 143.389 77.7925C143.408 75.9526 142.986 74.1097 142.784 72.2655C142.622 70.7859 141.764 69.9528 140.364 69.6636C138.944 69.3705 137.502 69.1838 136.083 68.8822C132.367 68.092 128.759 68.572 125.307 69.9818C119.779 72.2388 114.065 73.6556 108.13 74.2297C105.759 74.4593 103.392 74.7367 101.022 74.977C96.6861 75.4161 92.3546 75.9241 88.0098 76.2502C84.7545 76.4945 81.4816 76.5669 78.2155 76.5878C75.3606 76.606 72.503 76.4873 69.6498 76.355C65.1105 76.1437 60.5739 75.8807 56.0368 75.6202C54.118 75.5102 52.1888 75.4533 50.288 75.1961C45.6885 74.5745 41.1015 73.8594 36.5125 73.1633C33.7489 72.7446 31.0917 72.0038 28.5115 70.8705C25.4734 69.5364 22.3124 68.5448 18.9235 68.5296C16.2839 68.5177 13.7207 68.977 11.1769 69.6232C9.32957 70.0923 8.51391 70.8476 8.30108 72.6466C8.08251 74.4924 7.90411 76.355 7.89662 78.2106C7.88415 81.2986 9.35003 83.6694 11.916 85.302C13.2836 86.172 14.7806 86.8427 16.234 87.5743C19.8222 89.3815 23.5814 90.7368 27.4278 91.8931C33.339 93.6701 39.3719 94.8178 45.4787 95.6265C47.6103 95.9092 49.7493 96.1353 51.8822 96.4075C56.144 96.9507 60.3937 97.6121 64.6673 98.0258C68.1468 98.3631 71.6536 98.4098 75.3314 98.5947ZM17.3459 110.29H15.5312C15.7926 105.964 19.1004 103.504 21.4241 100.604C20.9465 99.3874 20.0313 98.9365 19.2249 98.3809C17.3022 97.055 15.345 95.777 13.4532 94.4079C12.0365 93.3827 11.1707 91.9315 10.6457 90.2718C9.78293 87.5428 8.76792 84.8993 7.29256 82.4079C5.76256 79.8245 5.78751 76.896 6.36113 74.0468C6.67851 72.4687 7.34745 70.9424 7.99693 69.4533C9.09278 66.9412 10.3912 64.5147 11.4282 61.9802C12.192 60.1139 12.4325 58.0858 11.6385 56.1556C9.88423 51.8895 10.9701 48.1865 13.6521 44.7168C16.3089 41.28 19.4395 38.2981 22.5916 35.3369C24.4165 33.6231 26.2212 31.8772 28.1547 30.2913C32.2581 26.9254 37.1021 25.0668 42.1679 23.7147C46.7001 22.5048 51.3185 21.7828 55.9834 21.3738C60.9476 20.9387 65.7842 21.4913 70.4263 23.4193C75.3569 25.4673 75.4058 25.5571 80.3466 23.5955C83.7013 22.2638 87.1089 21.4504 90.6926 21.0941C93.4791 20.8169 96.1738 21.2029 98.8915 21.5934C103.472 22.2516 107.934 23.4153 112.364 24.7305C117.642 26.2967 122.149 29.1309 126.039 32.9641C129.618 36.4904 133.216 40.0053 136.638 43.6816C138.549 45.7361 140.012 48.1516 140.431 51.0544C140.629 52.4319 140.444 53.7137 139.919 54.9904C138.819 57.6647 138.877 60.3389 140.113 62.9523C141.209 65.27 142.496 67.5054 143.469 69.871C145.29 74.2953 145.709 78.7628 143.497 83.2548C142.469 85.3417 141.56 87.5019 140.795 89.6981C140.077 91.7591 139.021 93.4785 137.222 94.7475C135.169 96.1954 133.154 97.6959 131.119 99.1703C130.656 99.5057 130.181 99.825 129.492 100.305C130.305 101.205 131.002 102.037 131.763 102.807C133.264 104.324 134.495 106.004 135.081 108.087C135.269 108.756 135.381 109.446 135.564 110.292H133.581C133.396 109.444 133.243 108.587 133.018 107.75C132.16 104.565 129.201 103.021 127.589 100.454C126.802 100.694 126.244 100.851 125.694 101.033C122.388 102.131 119.09 103.252 115.777 104.33C107.706 106.956 99.3663 108.168 90.9493 108.878C87.5235 109.167 84.0711 109.245 80.6313 109.232C74.5595 109.209 68.4874 109.069 62.4167 108.922C60.263 108.87 58.0985 108.765 55.9651 108.485C52.5102 108.032 49.0445 107.565 45.6431 106.829C41.6173 105.958 37.6333 104.87 33.6718 103.734C30.6029 102.855 27.5978 101.753 24.5605 100.763C24.2433 100.66 23.8988 100.639 23.666 100.598C22.5065 101.839 21.4144 102.967 20.3694 104.137C18.7918 105.903 17.5819 107.861 17.3459 110.29Z" fill="#070907"/>
<path d="M17.3438 110.289C17.5795 107.86 18.7894 105.902 20.3671 104.137C21.4123 102.967 22.5041 101.839 23.6639 100.598C23.8967 100.639 24.2412 100.659 24.5586 100.762C27.5957 101.753 30.6008 102.854 33.6697 103.734C37.6312 104.869 41.6149 105.957 45.641 106.828C49.0424 107.564 52.5081 108.032 55.963 108.484C58.0961 108.764 60.2609 108.869 62.4146 108.921C68.4852 109.069 74.5573 109.208 80.6292 109.231C84.069 109.244 87.5214 109.166 90.947 108.877C99.3642 108.168 107.705 106.955 115.775 104.329C119.088 103.252 122.386 102.13 125.692 101.033C126.242 100.85 126.8 100.693 127.587 100.453C129.199 103.021 132.157 104.564 133.016 107.749C133.241 108.586 133.394 109.443 133.58 110.291C133.055 110.311 132.53 110.347 132.006 110.347C94.3685 110.35 56.7305 110.35 19.0931 110.347C18.5097 110.347 17.9271 110.309 17.3438 110.289Z" fill="#0642EE"/>
<path d="M13.7825 76.5684C13.5352 76.9833 13.2014 77.2955 13.1772 77.6301C13.1058 78.6194 13.9489 78.8647 14.6528 79.089C16.975 79.8295 19.3014 80.5666 21.6536 81.2038C25.9731 82.3745 30.3425 83.2915 34.8073 83.7581C38.4446 84.1381 42.0643 84.683 45.6969 85.1144C47.1987 85.2928 48.7125 85.3784 50.2221 85.4852C54.8088 85.81 59.3923 86.3285 63.9831 86.4004C73.0987 86.5431 82.2211 86.83 91.3342 86.1713C94.1849 85.9657 97.046 85.9126 99.9004 85.7537C101.528 85.6636 103.157 85.552 104.775 85.3594C108.234 84.948 111.694 84.5298 115.138 84.0161C118.465 83.5193 121.807 83.048 125.08 82.2932C128.809 81.4334 132.468 80.2741 136.156 79.2384C136.489 79.1446 136.84 79.0528 137.13 78.8751C138.106 78.2796 138.092 77.6296 137.008 76.642C131.296 78.3078 125.57 80.1888 119.576 81.1494C115.042 81.8765 110.489 82.389 105.941 82.9581C103.114 83.3114 100.26 83.4749 97.4145 83.6573C93.2278 83.9257 89.0392 84.2024 84.8474 84.3489C81.0688 84.4814 77.2885 84.686 73.5014 84.4357C70.7668 84.2548 68.0227 84.2266 65.284 84.1011C59.8073 83.8504 54.331 83.5904 48.8557 83.3107C47.2861 83.2306 45.7109 83.1425 44.1554 82.9317C40.3599 82.4179 36.58 81.7854 32.7822 81.2842C28.7988 80.7589 24.885 79.9692 21.0592 78.7219C18.6944 77.951 16.2888 77.3052 13.7825 76.5684ZM75.3333 98.596C71.6555 98.4113 68.1487 98.3644 64.6692 98.0276C60.3956 97.6134 56.1459 96.952 51.884 96.4088C49.7512 96.1371 47.6122 95.9107 45.4806 95.6283C39.3738 94.8191 33.3409 93.6714 27.4297 91.8946C23.5833 90.7384 19.8241 89.3833 16.2359 87.5761C14.7825 86.844 13.2855 86.1736 11.9179 85.3033C9.35192 83.6707 7.88604 81.2999 7.89852 78.2124C7.906 76.3563 8.0844 74.4937 8.30297 72.6478C8.51581 70.8494 9.33146 70.0936 11.1788 69.6245C13.7226 68.9783 16.2858 68.5189 18.9254 68.5309C22.3143 68.5464 25.4753 69.5377 28.5134 70.8723C31.0935 72.0056 33.7508 72.7459 36.5144 73.1648C41.1034 73.8607 45.6904 74.5763 50.2899 75.1978C52.1907 75.4546 54.1204 75.5117 56.0387 75.622C60.5758 75.882 65.1124 76.1455 69.6517 76.3563C72.5049 76.4891 75.3625 76.6073 78.2174 76.5891C81.4835 76.5684 84.7564 76.4958 88.0117 76.252C92.3565 75.9259 96.688 75.4177 101.024 74.9783C103.394 74.7382 105.761 74.4605 108.132 74.2312C114.067 73.6569 119.78 72.2401 125.309 69.9831C128.761 68.5736 132.369 68.0933 136.085 68.8835C137.503 69.1854 138.946 69.3718 140.366 69.6649C141.766 69.9546 142.625 70.7877 142.786 72.2668C142.988 74.1112 143.41 75.9541 143.391 77.794C143.361 80.7265 142.204 83.2191 139.685 84.924C136.482 87.0913 132.962 88.6328 129.365 89.9891C123.647 92.1444 117.752 93.6756 111.712 94.6063C106.838 95.3573 101.956 96.0742 97.0617 96.6875C92.5653 97.2509 88.0541 97.703 83.5407 98.1129C80.7567 98.3652 77.9569 98.447 75.3333 98.596Z" fill="#AF5229"/>
<path d="M81.4592 36.7061C83.7819 35.5331 86.2463 34.7367 88.8038 34.2552C92.4517 33.568 96.1507 33.7908 99.8177 33.955C103.53 34.1214 107.237 34.5331 110.929 34.9857C114.727 35.4511 118.51 36.0504 122.284 36.6829C123.937 36.9601 125.555 37.4569 127.185 37.8698C129.81 38.5348 131.737 40.2539 133.336 42.2832C134.95 44.3339 136.416 46.5164 137.781 48.7433C138.771 50.3566 139.221 52.1698 138.32 54.0331C136.567 57.6558 137.115 61.1245 138.963 64.5271C139.425 65.3776 139.816 66.2674 140.378 67.4241C139.505 67.4241 138.902 67.4753 138.31 67.4144C136.695 67.2475 135.086 67.0227 133.473 66.84C130.422 66.4952 127.612 67.4705 124.804 68.4444C121.241 69.6795 117.701 71.0034 113.955 71.5965C111.835 71.9323 109.704 72.2095 107.571 72.4473C103.241 72.9306 98.906 73.3737 94.5723 73.8241C93.184 73.9681 91.7949 74.1597 90.4024 74.1976C85.1475 74.3408 79.8918 74.4973 74.6356 74.5155C71.1946 74.5275 67.7506 74.3563 64.3121 74.1839C60.8823 74.0115 57.4523 73.7934 54.0315 73.4925C46.2792 72.8111 38.5169 72.1389 30.9861 70.0195C28.5868 69.3444 26.2537 68.4329 23.8928 67.6225C21.0072 66.6322 18.0682 66.6507 15.0945 67.0998C13.7963 67.2956 12.4859 67.4159 10.8945 67.6045C11.6413 65.8248 12.1823 64.2978 12.9061 62.8626C14.1686 60.3582 14.2702 57.8566 13.213 55.2817C12.4877 53.5147 12.1229 51.699 12.8524 49.8596C13.2347 48.8952 13.7068 47.9318 14.3181 47.1C15.7637 45.1323 17.3267 43.2508 18.8242 41.3206C20.2934 39.4275 22.3513 38.5113 24.5622 37.8873C26.6811 37.2892 28.8062 36.6856 30.9632 36.2572C33.1212 35.8286 35.3187 35.5923 37.5039 35.3106C40.2675 34.9545 43.0358 34.6374 45.8026 34.3063C45.9765 34.2853 46.1524 34.2799 46.3278 34.2749C50.5291 34.1471 54.7313 33.9018 58.9314 33.929C62.5084 33.952 65.9546 34.8138 69.1798 36.4259C69.4722 36.5724 69.7334 36.781 70.3138 37.159C69.6658 37.2428 69.3337 37.385 69.0672 37.3059C63.5211 35.6629 57.8375 35.4131 52.1067 35.5686C49.6501 35.6355 47.1834 35.5169 44.7352 35.6839C41.7837 35.8847 38.8532 36.396 35.9018 36.5976C32.4221 36.8346 29.2054 37.9861 25.9907 39.1605C24.7369 39.6186 23.5432 40.2551 22.3588 40.8792C21.9294 41.1057 21.6063 41.5344 21.2844 41.8256C21.5471 42.5616 21.8825 42.6629 22.4339 42.4244C23.6059 41.9179 24.7973 41.4565 25.9872 40.9919C27.0351 40.583 28.0913 40.195 29.2111 39.947C28.9274 40.729 28.2418 40.9236 27.6474 41.1728C24.6346 42.4369 21.6939 43.8212 19.1014 45.8494C16.5634 47.8353 15.0349 50.4686 14.3186 53.5558C14.0147 54.8645 14.722 56.0529 15.3011 57.1855C16.9447 60.4009 19.8507 62.0564 23.0485 63.3394C27.2924 65.0423 31.686 66.0473 36.2645 66.2058C39.0027 66.3006 41.7461 66.5391 44.4784 66.45C50.3844 66.2582 56.1266 65.1441 61.6146 62.8823C62.6992 62.4352 63.7996 62.0933 65.3565 62.3735C64.7031 62.7668 64.3198 63.0712 63.8849 63.2478C59.8358 64.8933 55.6303 66.0104 51.3358 66.7667C49.7369 67.0481 48.0941 67.1095 46.4675 67.1951C43.8484 67.3331 41.2188 67.5786 38.6067 67.4681C35.015 67.3151 31.3856 67.2113 27.9044 66.1554C26.1327 65.6182 24.418 64.8941 22.6812 64.2444C22.1682 64.0525 21.6679 63.8247 21.006 63.5485C20.8118 64.9043 21.6113 65.4136 22.3334 65.7706C23.6832 66.4393 25.0752 67.0968 26.5244 67.4755C29.2156 68.1797 31.9368 68.9494 34.6899 69.1924C37.6967 69.4576 40.7537 69.164 43.7885 69.0984C44.6623 69.0796 45.5369 69.029 46.4082 68.9566C51.5673 68.5275 56.6653 67.8276 61.5799 66.0563C64.0546 65.1643 66.4534 64.175 68.6079 62.6595C69.3684 62.1245 70.1409 61.5801 70.7914 60.9244C71.6577 60.0513 71.8932 58.9031 71.7864 57.7364C73.0657 56.0342 74.3072 54.3822 75.6641 52.5772C76.0416 53.1132 76.2674 53.4263 76.4857 53.7445C77.0114 54.5112 77.4346 55.3792 78.0803 56.0257C79.1348 57.0817 79.8718 58.1832 79.5133 59.726C80.65 61.4024 82.1611 62.5804 83.8508 63.5165C88.0134 65.823 92.4851 67.1896 97.1821 67.9469C102.538 68.8107 107.905 69.3593 113.339 69.3239C116.982 69.3007 120.498 68.5966 123.975 67.6377C125.425 67.2375 126.849 66.7135 128.238 66.1334C129.059 65.7906 129.911 65.3499 130.17 64.3377C129.661 63.8065 129.165 63.9819 128.696 64.2154C126.231 65.445 123.628 66.2771 120.915 66.6654C116.714 67.2664 112.505 67.9257 108.233 67.2662C107.488 67.1512 106.713 67.1856 105.954 67.2173C101.587 67.3982 97.3977 66.4181 93.2568 65.221C91.0282 64.5765 88.8575 63.7294 86.6702 62.9464C86.1969 62.777 85.7643 62.4931 85.1654 62.1862C86.821 61.8955 87.0537 61.9366 89.4211 62.8813C93.3225 64.4372 97.3738 65.4323 101.509 66.1162C101.623 66.1352 101.742 66.1294 101.859 66.1337C105.241 66.2529 108.63 66.5646 112.004 66.4483C118.251 66.2335 124.368 65.2514 130.096 62.5128C132.101 61.5541 133.763 60.1791 135.088 58.4719C136.885 56.1557 137.374 53.596 135.997 50.8045C134.546 47.8672 132.295 45.7254 129.533 44.1081C127.881 43.1405 126.097 42.3984 124.378 41.5429C123.822 41.2662 123.286 40.9503 122.796 40.3657C123.081 40.3505 123.407 40.2364 123.644 40.3355C125.039 40.9221 126.404 41.5796 127.797 42.1716C128.876 42.6302 129 42.5936 129.928 41.851C129.318 41.3722 128.804 40.8135 128.168 40.4957C124.358 38.5894 120.372 37.1722 116.124 36.6642C113.296 36.3263 110.451 36.0427 107.607 35.9491C102.062 35.7664 96.5122 35.6592 90.9648 35.6839C89.2499 35.6916 87.5395 36.2398 85.8237 36.5157C84.4009 36.7448 82.9725 36.9371 81.5468 37.1457C81.5176 36.9993 81.4887 36.8523 81.4592 36.7061Z" fill="#539737"/>
<path d="M139.677 86.9766C139.174 89.4792 138.395 91.3515 136.745 92.875C132.897 96.427 128.434 98.754 123.38 100.106C118.731 101.35 114.155 102.866 109.513 104.141C105.144 105.342 100.656 105.919 96.1718 106.563C85.7642 108.058 75.3097 107.637 64.8722 107.455C60.0109 107.371 55.155 106.727 50.3304 105.895C43.9686 104.799 37.7603 103.176 31.6084 101.266C29.3398 100.562 27.0056 100.071 24.7246 99.4037C23.784 99.1287 22.8303 98.76 22.0117 98.2335C19.7119 96.7541 17.4766 95.1747 15.2213 93.6273C13.1264 92.1896 12.1937 90.0393 11.5547 87.6385C12.4227 87.277 13.0443 87.8074 13.666 88.1727C16.2333 89.6813 18.9554 90.82 21.7452 91.856C25.7868 93.3566 29.9302 94.4437 34.1501 95.2573C37.9055 95.9809 41.6664 96.6855 45.4443 97.2774C48.4838 97.7537 51.5528 98.0389 54.6063 98.4276C57.0814 98.743 59.5508 99.1048 62.0272 99.4099C63.3531 99.5736 64.6865 99.7221 66.0204 99.7722C69.927 99.9192 73.8406 100.186 77.7424 100.081C81.9212 99.9691 86.0936 99.5285 90.2616 99.1512C93.6762 98.8426 97.098 98.5352 100.485 98.0162C106.443 97.1032 112.39 96.1052 118.316 95.0018C124.629 93.8261 130.644 91.6953 136.419 88.896C136.939 88.644 137.41 88.2897 137.909 87.9931C138.388 87.7086 138.874 87.4374 139.677 86.9766Z" fill="#539737"/>
<path d="M126.332 35.7114C124.956 35.3925 123.905 35.1013 122.837 34.9107C120.1 34.4219 117.366 33.9089 114.612 33.5331C110.876 33.0231 107.124 32.6272 103.377 32.1943C102.914 32.1406 102.442 32.1496 101.975 32.1466C98.6992 32.1269 95.4226 32.1556 92.1485 32.084C88.0106 31.9937 84.2585 33.3138 80.6236 35.0926C79.54 35.6225 79.5228 35.7174 78.8648 37.1703C79.0542 38.3295 79.8252 38.717 80.9455 38.8315C83.2677 39.069 85.4319 38.3215 87.6533 37.9111C88.8667 37.6868 90.093 37.5331 91.3518 37.5041C90.6796 38.2449 89.838 38.5271 88.953 38.813C86.6935 39.5429 84.3962 40.2223 82.2469 41.2103C79.7932 42.3384 77.7188 44.0316 76.3824 46.4823C76.2053 46.8066 75.8702 47.0449 75.6476 47.2812C75.3981 47.1901 75.2299 47.1821 75.1908 47.1073C73.1071 43.1034 69.5029 41.1273 65.4246 39.7816C64.4348 39.4555 63.4278 39.1763 62.455 38.8063C62.0505 38.6526 61.7157 38.3173 61.0792 37.8784C62.7402 37.5578 63.9565 38.177 65.2178 38.307C66.7747 38.468 68.3255 38.7322 69.8857 38.8008C70.588 38.8318 71.3064 38.4982 72.0846 38.3138V36.1929C69.584 34.0746 66.5053 33.1619 63.3876 32.4974C59.7947 31.7314 56.1346 31.4979 52.4641 32.058C52.1202 32.1109 51.7617 32.0653 51.4131 32.0967C47.652 32.4378 43.8879 32.7472 40.1327 33.1437C37.3053 33.4421 34.496 33.9131 31.6671 34.1958C29.7319 34.3892 27.9179 34.9451 26.115 35.6063C25.6107 35.791 25.0835 35.9155 24.5672 36.0677C24.4864 35.923 24.4051 35.7787 24.3242 35.6343C25.2701 34.8256 26.2118 34.0125 27.1614 33.209C31.9787 29.1343 37.6299 26.8562 43.695 25.3664C48.9549 24.0744 54.2249 23.0173 59.6687 22.9461C62.7534 22.9062 65.6619 23.5934 68.5069 24.678C69.701 25.1331 70.8827 25.6219 72.0751 26.0825C74.7072 27.0995 77.3288 26.9822 79.8524 25.7943C84.6475 23.537 89.6734 22.4192 94.9388 23.0489C102.972 24.0088 110.902 25.4425 118.181 29.285C120.989 30.7673 123.442 32.7108 125.807 34.7884C125.97 34.9324 126.038 35.1839 126.332 35.7114Z" fill="#539737"/>
<path d="M13.7814 76.5664C16.2878 77.3032 18.6933 77.9489 21.0582 78.7199C24.8839 79.9672 28.7977 80.7569 32.7812 81.2822C36.579 81.7834 40.3588 82.4159 44.1544 82.9297C45.7098 83.1405 47.285 83.2286 48.8547 83.3087C54.3299 83.5884 59.8062 83.8484 65.283 84.0991C68.0216 84.2246 70.7657 84.2528 73.5004 84.4337C77.2874 84.684 81.0678 84.4794 84.8464 84.3469C89.0382 84.2004 93.2267 83.9237 97.4135 83.6553C100.259 83.4729 103.113 83.3094 105.94 82.9561C110.488 82.387 115.041 81.8745 119.575 81.1474C125.569 80.1868 131.295 78.3058 137.007 76.64C138.09 77.6276 138.105 78.2776 137.129 78.8731C136.839 79.0508 136.488 79.1426 136.155 79.2364C132.467 80.2721 128.808 81.4314 125.079 82.2912C121.806 83.046 118.464 83.5173 115.137 84.0141C111.693 84.5278 108.233 84.946 104.774 85.3574C103.156 85.55 101.527 85.6616 99.8994 85.7517C97.045 85.9106 94.1838 85.9637 91.3332 86.1693C82.22 86.828 73.0977 86.5411 63.982 86.3984C59.3913 86.3265 54.8078 85.808 50.221 85.4832C48.7115 85.3764 47.1977 85.2908 45.6959 85.1124C42.0632 84.681 38.4436 84.1361 34.8062 83.7561C30.3415 83.2895 25.972 82.3725 21.6525 81.2018C19.3004 80.5646 16.9739 79.8275 14.6517 79.087C13.9479 78.8627 13.1048 78.6174 13.1761 77.6281C13.2003 77.2935 13.5342 76.9813 13.7814 76.5664Z" fill="#070907"/>
</g>
<defs>
<clipPath id="clip0_1054_9616">
<rect width="150" height="110" fill="white"/>
</clipPath>
</defs>
</svg>
