<svg width="150" height="110" viewBox="0 0 150 110" fill="none" xmlns="http://www.w3.org/2000/svg">
<path d="M14.8477 44.7703L17.7787 20.9961L86.8215 11.6602L99.1971 23.7101L97.4602 29.4636L57.9451 43.2505L14.8477 44.7703Z" fill="#D9D9D9"/>
<path d="M70.945 109.591H30.9258C30.9282 108.631 30.9312 107.671 30.9338 106.71C38.2419 105.875 44.2133 102.322 49.2456 97.2421C52.7301 93.7244 54.2855 89.117 55.1199 84.2896L55.1255 84.272C55.1702 84.2429 55.2529 84.2128 55.2521 84.1856C55.2486 84.0877 55.2165 83.9906 55.1952 83.8934C55.2193 83.7169 55.243 83.5412 55.2666 83.3653C55.3556 83.0694 55.444 82.7735 55.5328 82.478C55.9955 81.415 55.8333 79.9612 57.3631 79.5663C57.6113 79.5261 57.859 79.4853 58.1065 79.4447C58.3286 79.3828 58.5503 79.3207 58.7717 79.2588C59.0902 79.1594 59.4083 79.0599 59.7262 78.9603C59.8152 78.9698 59.8951 78.9483 59.9663 78.8945C60.2286 78.7781 60.4904 78.662 60.752 78.5458C61.137 78.1806 61.5224 77.8154 61.9071 77.4507C61.995 77.4081 62.0623 77.3443 62.109 77.2588C62.2362 77.1654 62.3633 77.072 62.4898 76.9785C62.4898 76.9785 62.5005 76.9233 62.4998 76.9233C63.3559 76.6741 64.2124 76.4248 65.0692 76.1758C65.5553 76.8163 66.0416 77.4572 66.528 78.0977C68.0773 80.7478 69.6277 83.3968 71.1751 86.048C71.8462 87.1979 73.0449 88.3343 73.0836 89.5069C73.2284 93.9122 73.1926 98.3474 72.8209 102.737C72.625 105.058 71.597 107.308 70.945 109.591Z" fill="#0344FA"/>
<path d="M127.051 95.2661L126.253 82.5898L130.824 84.2421L136.293 90.4583L139.117 102.789L132.979 107.244C132.979 107.244 123.176 108.643 121.247 109.591H86C86.1281 109.361 86.2558 109.13 86.3839 108.9C87.9608 108.5 89.5377 108.1 91.1148 107.701C98.7308 105.764 106.383 103.954 113.95 101.844C118.705 100.518 127.051 95.2661 127.051 95.2661Z" fill="#E2403C"/>
<path fill-rule="evenodd" clip-rule="evenodd" d="M121.248 109.588C121.007 109.636 120.772 109.48 120.724 109.239C120.675 108.997 120.832 108.762 121.073 108.714L132.536 106.463L138.356 102.239L135.588 90.1997L130.825 84.2397C130.671 84.0473 130.703 83.7666 130.895 83.6131C131.087 83.4596 131.368 83.4908 131.521 83.683L136.348 89.7225C136.39 89.7746 136.419 89.8356 136.434 89.9007L139.291 102.326C139.331 102.5 139.263 102.682 139.119 102.787L132.981 107.242C132.929 107.28 132.869 107.306 132.806 107.318L121.248 109.588Z" fill="black"/>
<path d="M86.3829 108.898C86.2548 109.128 86.1271 109.358 85.999 109.588H72.0474C72.3487 108.352 72.7447 107.13 72.931 105.876C73.2762 103.562 73.5604 101.235 73.7504 98.9041C73.8816 97.2936 73.5264 95.6001 73.8896 94.0618C74.6512 90.8389 73.9756 88.1845 71.9655 85.5593C70.2896 83.3706 69.0707 80.8325 67.6495 78.4492C67.5335 78.3176 67.4174 78.1854 67.3008 78.0538C67.3008 78.0538 67.3485 78.0137 67.3475 78.0141C67.334 77.5449 67.3214 77.0751 67.3084 76.6055C67.7335 77.0013 68.2342 77.3419 68.5698 77.8022C69.9146 79.649 71.127 81.5987 72.5608 83.3714C73.1512 84.101 74.1784 84.4794 75.0073 85.0174C75.1701 85.1596 75.3334 85.3023 75.4962 85.4445C75.9237 86.9938 76.3512 88.5431 76.7787 90.0925C76.729 90.229 76.6789 90.3652 76.6292 90.502C76.5753 90.738 76.5467 90.9837 76.4644 91.2098C75.3017 94.4059 75.3002 94.4048 78.3081 96.2788C78.411 96.343 78.5009 96.429 78.6064 96.4883C79.8162 97.1715 80.1688 98.0572 79.864 99.5116C79.4072 101.688 79.3092 103.939 79.0507 106.158C78.8516 107.867 79.8132 108.685 81.3288 108.815C83.0039 108.959 84.6974 108.879 86.3829 108.898Z" fill="#AE2E38"/>
<path d="M30.9354 106.711C30.9328 107.671 30.9304 108.631 30.9273 109.591H10C10.0256 107.095 10.0508 104.6 10.0764 102.105C16.6149 105.51 23.6066 106.872 30.9354 106.711Z" fill="#022DE9"/>
<path d="M67.6516 78.4512C69.0728 80.8344 70.2915 83.3725 71.9676 85.5613C73.9775 88.1864 74.6533 90.8409 73.8917 94.0637C73.5285 95.602 73.8837 97.2955 73.7525 98.9061C73.5625 101.237 73.2781 103.564 72.9331 105.878C72.7466 107.132 72.3508 108.354 72.0499 109.59H70.9483C71.6002 107.308 72.6281 105.057 72.8241 102.737C73.1958 98.347 73.2314 93.912 73.0868 89.506C73.0482 88.334 71.8499 87.1977 71.1788 86.0476C69.631 83.3966 68.0806 80.7476 66.5312 78.0975C66.8039 78.0703 67.0773 78.0428 67.3506 78.0156C67.3506 78.0156 67.3029 78.0558 67.3033 78.0554C67.4195 78.1874 67.5354 78.3189 67.6516 78.4512Z" fill="#181E16"/>
<path d="M27.9422 14.4632C29.061 14.1539 30.1798 13.8449 31.2991 13.5355C34.3621 13.1903 37.4322 12.5185 40.4876 12.58C44.5299 12.6614 48.4052 13.8731 51.8234 16.1253C54.9749 18.2015 56.2932 21.0505 55.7003 23.9588C55.0192 23.2008 54.3379 22.4431 53.6568 21.6852C52.8161 21.0672 51.9752 20.4487 51.1348 19.8303L51.1291 19.8247C50.6855 19.4022 50.242 18.9797 49.7984 18.5572C48.5268 18.0704 47.292 17.4108 45.9767 17.1325C42.9313 16.4889 39.8402 15.7028 36.8153 17.2868C36.5737 17.3133 36.3316 17.3394 36.0893 17.3656C36.1125 17.4364 36.1351 17.5072 36.1581 17.5782C36.3722 17.4746 36.5863 17.3711 36.8003 17.2682C39.6077 17.4128 42.4154 17.5576 45.2227 17.7017C45.2242 17.9052 45.2251 18.1082 45.2262 18.3116C44.372 18.2864 43.5186 18.2619 42.6646 18.2371C41.9375 18.2393 41.2106 18.2413 40.4837 18.2432C39.8662 18.2504 39.2488 18.2573 38.6315 18.2649C37.9 18.2949 37.1686 18.3257 36.4371 18.3557C35.7046 18.5001 34.9727 18.6436 34.2401 18.7873C31.46 19.6193 28.5265 20.1347 25.9463 21.379C23.6861 22.4694 21.8233 24.3789 19.7876 25.9291C19.6584 26.0507 19.5299 26.1723 19.4007 26.2939C18.514 27.7514 17.2797 29.1057 16.809 30.6863C15.5842 34.8003 17.4888 38.3471 21.038 39.1771C22.7395 39.1897 24.4417 39.2027 26.1437 39.2153C27.9828 38.6174 29.8227 38.0201 31.6619 37.4221C36.7204 35.3906 42.0014 34.442 47.4262 34.1884C47.4271 34.3958 47.4282 34.6038 47.4292 34.8113C44.5023 35.4399 41.5754 36.0678 38.6484 36.6963C38.6209 36.7354 38.5926 36.774 38.5646 36.8129C38.5868 36.7682 38.6089 36.7235 38.6304 36.6787C42.0582 36.1362 45.4858 35.5936 48.9137 35.0515C50.8655 34.1185 52.8168 33.1856 54.7684 32.2526C55.3407 31.4428 56.3369 30.6681 56.4083 29.8166C56.6469 26.9706 56.6875 24.0895 56.5207 21.2379C56.4589 20.1753 55.7637 19.0515 55.1025 18.1392C52.6187 14.7155 48.875 13.3892 44.981 12.4087C40.3346 11.2376 35.7165 10.9492 31.2348 13.1176C30.1114 13.5268 28.9887 13.9359 27.8689 14.3453C27.7282 14.4001 27.5875 14.4552 27.4468 14.5101C27.4776 14.5538 27.5232 14.6398 27.5369 14.6352C27.675 14.5863 27.8076 14.5225 27.9422 14.4632ZM10.0619 52.0883C10.0413 40.7069 10.0152 29.3248 10.0041 17.9434C10.0007 14.0483 10.0358 10.1535 10.0534 6.25844C12.4884 5.39475 14.9229 4.53128 17.3576 3.6676C17.6143 3.60876 17.8709 3.55014 18.1271 3.4913C18.3492 3.44115 18.5709 3.39078 18.7923 3.34019L18.8019 3.33606C25.8045 2.81716 31.7353 5.33961 36.8861 10.0736C36.963 9.9379 37.0394 9.80177 37.1162 9.66607C36.8479 9.18885 36.5791 8.71163 36.2628 8.14843C45.7397 6.16291 54.887 6.31576 63.658 10.8834C63.7108 10.6835 63.7642 10.4835 63.8174 10.2835C62.3147 9.44309 60.8127 8.60264 59.2998 7.75654C67.6112 1.9767 78.822 0.636229 83.7744 7.62497C81.153 7.78259 78.4512 7.74547 75.8212 8.16102C73.2426 8.56898 70.7373 9.43745 68.1996 10.1042C68.2469 10.2816 68.2945 10.4594 68.3423 10.6372C69.6942 10.3363 71.0451 10.0289 72.3991 9.73598C78.733 8.36642 85.035 8.07765 90.9948 11.0973C93.6067 12.4211 96.3315 13.882 97.045 17.1959C92.1407 13.3145 86.4979 12.5507 80.4984 13.2889C79.5209 13.4243 78.5426 13.56 77.5651 13.6957C76.82 13.8319 76.0751 13.968 75.3299 14.1041C75.3455 14.2047 75.3612 14.3056 75.3766 14.4066C76.1081 14.3011 76.8402 14.196 77.5716 14.0911C78.5482 14.0334 79.5248 13.9756 80.501 13.9178C82.1237 13.9298 83.7464 13.9274 85.367 13.9875C85.471 13.9917 85.5558 14.4845 85.6499 14.7496C84.7964 14.722 83.9418 14.6632 83.0888 14.6723C73.7419 14.7737 66.8969 18.8149 62.9287 27.4077C61.3828 30.7536 63.0944 33.66 66.7944 33.3851C69.341 33.1962 71.8328 32.2633 74.3488 31.6625C78.3509 30.1423 82.4813 29.7037 86.7391 30.0537C88.4346 30.1935 90.1526 30.0608 91.8609 30.0517C91.9935 30.1392 92.126 30.2265 92.2593 30.314C92.2311 30.3546 92.207 30.4271 92.1748 30.431C89.7816 30.7143 87.3876 30.9953 84.9933 31.2684C84.4301 31.3329 83.8645 31.3716 83.2998 31.4217C83.3189 31.5869 83.3374 31.7524 83.3565 31.9176H90.7788C90.6954 32.0021 90.6255 32.1371 90.5265 32.1642C82.1921 34.4707 73.8066 36.6084 65.5315 39.1102C56.671 41.7894 47.6763 42.87 38.447 42.6062C34.1848 42.4846 29.9006 42.6344 25.6458 42.938C22.0137 43.197 19.9181 46.7088 21.4696 50.0029C24.8264 57.1302 31.0685 60.142 38.4771 61.309C39.1293 61.4421 39.7813 61.5747 40.4336 61.7078C40.8133 61.7923 41.193 61.8761 41.5734 61.9601C41.3609 62.4775 41.261 63.0889 40.9173 63.4969C39.0514 65.7123 36.9319 67.7415 35.2725 70.0965C33.4739 72.6492 33.9131 74.0917 36.3909 75.9554C36.7144 76.199 37.047 76.4296 37.3755 76.6662C37.3308 76.7928 37.2856 76.919 37.2402 77.0455C34.4125 76.496 31.5846 75.9469 28.7566 75.3972C26.2668 73.5923 23.7248 71.8539 21.3072 69.9576C19.8419 68.8071 18.4011 67.5461 17.2426 66.1007C13.9022 61.9334 12.3277 56.8273 10.0619 52.0883Z" fill="#55873A"/>
<path d="M115.073 90.2131C114.932 89.9979 114.79 89.783 114.649 89.568C113.2 90.0995 111.674 90.8948 110.566 89.1792C109.051 86.8319 107.566 84.4623 106.179 82.0387C105.735 81.2646 105.647 80.2881 105.396 79.4042C105.565 79.2848 105.734 79.1656 105.903 79.0462C106.986 79.7268 108.071 80.4075 109.154 81.0877C109.32 80.8678 109.487 80.6472 109.653 80.4266C108.704 79.6267 107.819 78.7281 106.781 78.07C106.283 77.7545 105.134 77.6043 104.908 77.8842C104.319 78.6126 103.503 79.9287 103.792 80.4667C105.684 83.9784 107.743 87.4147 109.998 90.7044C110.477 91.4022 112.003 91.6523 113.029 91.6172C113.726 91.5931 114.393 90.7114 115.073 90.2131ZM118.809 90.2487C119.031 90.1477 119.252 90.0472 119.474 89.9467C119.303 89.3157 119.24 88.6275 118.94 88.0654C118.254 86.7798 117.366 85.5976 116.731 84.2904C116.339 83.4831 116.264 82.523 116.047 81.6318C116.261 81.5454 116.474 81.459 116.687 81.3732C119.306 84.8073 122.175 87.9674 126.049 90.0915C124.923 88.1689 123.475 86.5432 122.04 84.9044C119.841 82.3915 116.741 80.516 116.238 76.7964C116.14 76.076 116.2 75.3037 115.951 74.6441C115.776 74.1806 115.199 73.868 114.802 73.4878C114.701 73.9594 114.523 74.4303 114.514 74.904C114.48 76.7276 114.5 78.5518 114.5 80.6582C112.704 78.9767 111.155 77.5268 109.606 76.0775C109.402 76.2768 109.198 76.4764 108.994 76.6759C112.266 81.1997 115.537 85.7242 118.809 90.2487ZM88.3258 83.773C87.3323 81.2303 85.7417 80.5638 82.9635 81.0341C81.2804 81.3183 80.1073 82.7627 80.1425 84.5553C80.1833 86.6215 81.3017 88.1246 82.861 89.2986C84.4611 90.5034 86.2319 91.4891 87.7858 92.7459C89.4242 94.0712 90.4976 95.8809 89.9683 98.0316C89.5317 99.8046 87.6888 99.8417 86.2295 100.149C84.8925 100.43 83.5221 100.555 81.7483 100.809C82.4205 101.268 82.6806 101.523 82.993 101.647C85.3196 102.568 89.7829 101.62 91.2929 99.6326C91.9138 98.8158 92.3092 97.4287 92.0932 96.4601C91.5858 94.1863 90.4214 92.1723 88.3872 90.7893C86.5817 89.5615 84.6948 88.4114 83.077 86.9661C82.1048 86.0974 81.3859 84.6632 82.4821 83.3611C83.4479 82.2145 84.7645 82.5257 86.0144 83.022C86.6364 83.2691 87.2891 83.4399 88.3258 83.773ZM91.1689 89.0495C91.7612 89.339 92.4128 89.5478 92.9352 89.9317C95.3768 91.7222 97.7692 93.5799 100.213 95.3674C100.693 95.718 101.324 95.8629 102.219 96.2456C101.108 92.7631 94.4118 83.9749 92.334 83.7508C93.9656 86.0564 95.5974 88.3622 97.2291 90.6677C97.1055 90.7706 96.982 90.8731 96.8578 90.9756C93.8822 88.8049 90.9062 86.6341 87.93 84.4628C87.5683 85.2604 87.4823 85.7242 87.6566 86.0477C89.6793 89.7982 91.7256 93.5358 93.8245 97.2439C93.9817 97.5216 94.5881 97.5468 94.986 97.689C94.9231 97.2589 94.9624 96.7791 94.7811 96.4063C93.5874 93.9553 92.3459 91.5273 91.1201 89.0917L91.1689 89.0495ZM103.248 86.1547C103.785 86.6281 104.409 87.033 104.842 87.5871C105.927 88.9781 106.902 90.4556 107.978 91.8542C108.269 92.2342 108.764 92.4576 109.166 92.7531C109.325 92.5803 109.485 92.4075 109.644 92.2346C106.426 86.6033 102.177 81.8383 97.0046 77.7237C96.7419 78.6632 96.7709 79.4676 96.8328 80.2698C97.2497 85.6489 100.543 89.8553 102.724 94.5113C102.886 94.858 103.551 94.9712 103.982 95.193C103.966 94.731 104.09 94.203 103.909 93.8181C103.033 91.9582 102.075 90.1371 101.219 88.4451C101.95 87.6207 102.608 86.8786 103.266 86.1367L103.248 86.1547ZM127.068 87.2811L129.461 91.2785C129.461 91.2785 128.826 93.5304 127.051 95.193C125.568 96.5815 122.988 97.3944 122.187 97.701C117.147 99.6276 112.045 101.426 106.876 102.973C101.408 104.608 95.8354 105.897 90.3087 107.337C88.2646 107.59 86.2209 107.842 84.1767 108.095C81.9854 105.673 82.0772 102.327 80.7133 99.5699C80.4069 98.4982 80.0999 97.4267 79.7934 96.355C80.6419 95.5035 81.4849 94.6455 82.341 93.8011C83.1424 93.0104 83.4598 92.1054 82.5093 91.3052C80.8168 89.88 79.0263 88.5702 77.277 87.2123C77.2062 87.0933 77.1352 86.9741 77.0644 86.8545C76.9841 86.6304 76.9031 86.4064 76.8228 86.1823C76.6923 85.9261 76.562 85.6699 76.4315 85.4137C74.9545 82.8335 73.477 80.2533 72 77.6731C75.4493 77.664 78.8982 77.6549 82.3471 77.646C83.4683 77.5876 84.5897 77.5294 85.7111 77.4712C85.941 77.4384 86.1711 77.4058 86.4013 77.3731C86.6338 77.3505 86.8659 77.3279 87.098 77.3053C88.1545 77.037 89.292 76.9367 90.2531 76.4729C96.8815 73.2722 103.461 69.9701 110.085 66.7613C111.83 65.9159 113.649 65.1959 115.488 64.578C117.439 63.9219 118.667 65.0843 118.264 67.128C118.124 67.8334 117.788 68.503 117.521 69.1809C116.351 72.153 116.502 73.1532 118.896 75.3003C119.913 76.2117 120.197 77.1581 120.235 78.4684C120.264 79.4554 120.879 80.4257 121.233 81.4032C121.939 81.9001 122.646 82.3965 123.352 82.8932C123.54 83.0767 123.728 83.2602 123.917 83.4438C124.485 83.9997 125.054 84.5546 125.623 85.1104C126.105 85.8338 127.068 87.2811 127.068 87.2811Z" fill="#E1A63B"/>
<path fill-rule="evenodd" clip-rule="evenodd" d="M125.672 85.3498C125.539 85.1425 125.6 84.8667 125.807 84.7343C126.014 84.6017 126.29 84.6624 126.423 84.8698L130.382 91.0647C130.484 91.2243 130.474 91.4312 130.356 91.5802L126.819 96.0803C126.667 96.2738 126.387 96.3074 126.193 96.1555C126 96.0035 125.966 95.723 126.118 95.5295L129.46 91.278L125.672 85.3498Z" fill="black"/>
<path d="M10.0586 92.014C10.0632 87.6146 10.0677 83.2156 10.0723 78.8164C12.7137 81.7488 15.1523 84.9011 18.0485 87.5562C21.5019 90.7213 25.6386 92.3097 30.3118 90.1637C33.7867 88.5675 35.5265 85.3449 37.246 82.1656C37.4671 82.0547 37.6887 81.9437 37.9098 81.8326C43.327 82.5747 48.744 83.3161 54.1617 84.0582C54.1748 84.139 54.1643 84.2165 54.1292 84.2908C54.114 84.436 54.0994 84.5817 54.0849 84.727C54.1025 84.8425 54.0749 84.9458 54.0019 85.0368C53.4952 85.603 52.9656 86.151 52.4854 86.739C51.4137 88.049 50.499 89.5185 49.2842 90.6766C45.2324 94.5399 40.5775 97.314 35.0758 98.795C29.5113 100.293 23.9979 100.971 18.7756 98.1836C15.6593 96.5202 12.9504 94.0964 10.0586 92.014Z" fill="#0344FA"/>
<path d="M10.0586 92.0163C12.9504 94.0986 15.6593 96.5225 18.7756 98.1858C23.9979 100.973 29.5113 100.295 35.0758 98.7973C40.5775 97.3163 45.2324 94.5422 49.2842 90.6789C50.499 89.5208 51.4137 88.0513 52.4854 86.7412C52.9657 86.1533 53.4952 85.6053 54.0026 85.0391C53.0353 89.5559 51.481 93.6831 48.0458 97.0907C40.5362 104.541 31.7133 107.291 21.4491 104.87C17.5678 103.954 13.8512 102.344 10.0597 101.051C10.0592 98.0393 10.0592 95.0279 10.0586 92.0163Z" fill="#022DE9"/>
<path d="M10.0621 77.3263C10.0612 74.2763 10.0597 71.2258 10.0586 68.1758C13.8933 70.6411 17.6385 73.2821 22.1198 74.5175C25.0556 75.3267 28.0028 76.0968 30.9447 76.8847C29.0692 80.9459 29.0849 85.2749 29.1296 89.6079C27.5876 89.7336 26.0057 90.1416 24.5131 89.928C21.0301 89.4301 18.4644 87.2388 16.2318 84.6892C14.123 82.2807 12.1149 79.7839 10.0621 77.3263Z" fill="#022DE9"/>
<path d="M97.0432 17.197C96.3298 13.8839 93.605 12.4225 90.9931 11.0991C85.0332 8.07927 78.7314 8.36804 72.3973 9.7376C71.0434 10.0301 69.6931 10.3379 68.3407 10.6384C68.293 10.461 68.2456 10.2832 68.1979 10.1054C70.7355 9.43929 73.2415 8.57017 75.8201 8.16264C78.4496 7.74665 81.1514 7.78443 83.7729 7.62615C78.8202 0.638066 67.6097 1.97832 59.2983 7.75772C60.8109 8.60426 62.3136 9.44471 63.8156 10.2852C63.7628 10.4851 63.7096 10.6847 63.6564 10.8846C54.8858 6.31738 45.7385 6.16475 36.261 8.14962C36.578 8.71282 36.8464 9.19004 37.1151 9.66769C37.0383 9.80339 36.9614 9.93909 36.8843 10.0752C31.7335 5.34123 25.8034 2.81834 18.8008 3.33768C18.8012 3.14184 18.8016 2.94601 18.8016 2.75038C24.1722 1.84566 28.9362 3.56587 33.3894 6.29632C34.6307 7.05687 35.6967 7.35128 37.1347 7.11419C43.6766 6.036 50.2207 5.40007 56.7728 7.24381C57.5525 7.46288 58.6858 6.97763 59.4781 6.51582C63.1536 4.37571 67.0018 2.7404 71.241 2.15766C75.9322 1.51261 79.9872 2.86654 83.6552 5.85926C85.3502 7.24273 87.3446 8.32744 89.3352 9.2708C93.0051 11.0092 96.6103 12.7299 98.1108 16.9107C97.7551 17.006 97.3988 17.1015 97.0432 17.197Z" fill="#181E16"/>
<path d="M10.0632 52.0898C12.329 56.8288 13.9039 61.9345 17.2443 66.1023C18.4028 67.5476 19.8431 68.8086 21.3091 69.9585C23.726 71.8556 26.2687 73.5939 28.7579 75.3994C25.3633 74.3533 21.8425 73.5939 18.6119 72.1761C15.6 70.8539 12.8976 68.8316 10.0586 67.1175C10.0601 62.1084 10.0616 57.0991 10.0632 52.0898Z" fill="#496133"/>
<path d="M90.7801 31.9177H83.358C83.3393 31.7523 83.3202 31.587 83.3018 31.4218C83.8658 31.3715 84.4321 31.3328 84.9948 31.2685C87.3896 30.9952 89.7829 30.7145 92.1764 30.4311C92.2089 30.427 92.233 30.3547 92.2606 30.3141C92.1282 30.2266 91.9949 30.1391 91.8624 30.0523C91.8648 29.8553 91.8668 29.6588 91.8689 29.4619C92.5049 29.278 93.143 29.1013 93.7765 28.9094C96.1059 28.2035 98.1371 27.142 98.9057 24.5898C99.0976 24.594 99.2899 24.5983 99.4825 24.6024C99.184 25.5102 98.8861 26.4175 98.563 27.4017C100.203 28.441 101.899 29.5926 103.667 30.6235C109.68 34.1297 111.715 39.3754 109.598 46.1114C108.49 49.6357 106.743 52.7997 104.204 55.5119C104.05 55.6778 104.031 55.9702 103.948 56.2023C104.295 56.3365 104.644 56.4715 104.992 56.6066C104.29 57.1778 103.587 57.7486 102.885 58.3192C102.691 58.3077 102.497 58.2962 102.303 58.2851C101.926 58.0862 101.52 57.6757 101.173 57.7204C96.9751 58.2625 92.9189 59.2346 89.1626 61.3412C87.9272 62.0338 86.3974 62.3107 84.9642 62.5208C82.7918 62.8387 80.5833 62.9051 78.3976 63.1446C78.005 63.1878 77.6485 63.5532 77.2751 63.7697C76.6066 63.7701 75.9379 63.7712 75.2696 63.7721C75.0994 63.6351 74.9341 63.3843 74.7587 63.3773C72.0725 63.2707 69.3853 63.1316 66.6989 63.1476C65.7651 63.1537 64.8337 63.5621 63.9012 63.7862C63.653 63.7853 63.4044 63.7842 63.1562 63.7827C64.3886 63.3055 65.6042 62.4715 66.8548 62.4153C70.9844 62.2303 75.1319 62.4548 79.2621 62.2781C83.3369 62.1033 87.351 61.6239 91.1088 59.6592C93.1097 58.6127 95.4539 58.2163 97.6468 57.5376C99.0242 57.1112 100.628 57.0176 101.747 56.2314C105.252 53.7682 107.316 50.1954 108.615 46.1737C110.304 40.9495 109.642 36.2427 105.157 32.652C103.226 31.1057 101.007 29.9111 98.8781 28.6241C98.5461 28.4235 97.923 28.43 97.5574 28.6015C95.2735 29.6714 93.0244 30.8154 90.7636 31.9351L90.7801 31.9177Z" fill="#181E16"/>
<path d="M10.0556 67.1188C12.8941 68.833 15.597 70.855 18.6082 72.1768C21.8391 73.595 25.3603 74.3547 28.7549 75.4005C31.5828 75.9492 34.4107 76.4987 37.2384 77.048C37.2838 76.9218 37.329 76.7953 37.3741 76.6691C37.0456 76.4325 36.7126 76.2014 36.3891 75.9576C33.9118 74.0939 33.4728 72.6516 35.2712 70.099C36.9306 67.7444 39.0496 65.7145 40.9155 63.4991C41.2592 63.0911 41.3591 62.4797 41.5716 61.9623C41.5732 61.7313 41.5747 61.5008 41.5766 61.2695C42.188 61.2711 42.7994 61.273 43.4108 61.2745C43.4249 61.5479 43.4384 61.8217 43.4521 62.095C41.1867 64.5184 38.618 66.7296 36.7291 69.4161C34.0117 73.2825 34.4422 73.6718 38.468 76.3319C39.3581 76.9203 40.0338 76.7785 40.6352 75.912C41.2596 75.0127 41.9353 74.1497 42.5804 73.265C43.3802 72.1683 44.1794 72.3209 44.9295 73.2925C45.4686 73.9903 45.9467 74.7359 46.4537 75.4624C49.6299 73.0016 50.0096 73.0413 52.0859 75.9793C52.7894 75.5121 53.4665 74.9956 54.2041 74.5868C55.7569 73.7272 56.4742 74.125 56.5541 75.8769C56.5999 76.8791 56.5622 77.8854 56.5622 78.9671C57.4274 78.8711 58.0909 78.7973 58.7542 78.7232L58.8545 78.8444C58.8269 78.982 58.7993 79.1201 58.7718 79.2584C58.5501 79.3201 58.3286 79.3824 58.1065 79.4447C57.8588 79.4855 57.6111 79.5257 57.3629 79.5659C55.8333 79.9606 55.9955 81.4146 55.5328 82.4776C55.4438 82.7735 55.3554 83.069 55.2671 83.3647C55.243 83.5406 55.2193 83.7165 55.1952 83.8928C55.172 84.0193 55.1485 84.1455 55.1253 84.2716L55.1199 84.2892C54.8778 84.3138 54.6355 84.3379 54.3934 84.362C54.3211 84.2781 54.2325 84.2551 54.1287 84.2931C54.1628 84.2189 54.1732 84.1409 54.1598 84.0602C55.2946 81.1513 55.8353 78.1642 55.4488 74.5887C54.0302 75.6402 52.8927 76.4826 51.6282 77.4201C51.1178 76.348 50.644 75.3527 50.0161 74.0346C48.645 74.9871 47.4982 75.7844 46.2448 76.655C45.4867 75.5512 44.715 74.4285 43.7332 73.0003C42.2985 75.0021 41.0421 76.7555 39.7852 78.5083C39.5464 78.3772 39.3084 78.246 39.0698 78.1149C38.5548 77.9788 38.0398 77.8426 37.5248 77.7065C37.1577 77.6659 36.7903 77.6246 36.4232 77.5838C35.8194 77.497 35.2149 77.4101 34.6111 77.3233C34.2288 77.2599 33.8464 77.1965 33.4641 77.1333C33.2179 77.0962 32.9712 77.0595 32.725 77.0224C32.1304 76.977 31.5355 76.9318 30.9408 76.886C27.9986 76.0983 25.0517 75.3286 22.1159 74.5194C17.6351 73.2836 13.8898 70.6431 10.0547 68.1773C10.0551 67.8247 10.0551 67.4714 10.0556 67.1188Z" fill="#181E16"/>
<path d="M54.3938 84.3618C54.6361 84.3377 54.8782 84.3136 55.1207 84.2891C54.2859 89.1164 52.7305 93.7236 49.2465 97.2413C44.2137 102.321 38.2428 105.875 30.934 106.71C23.6053 106.871 16.6138 105.51 10.0753 102.104C10.0697 101.753 10.0642 101.403 10.0586 101.051C13.8507 102.344 17.5673 103.954 21.4483 104.869C31.7128 107.291 40.5351 104.54 48.0454 97.0902C51.4806 93.6826 53.0349 89.5554 54.0015 85.039C54.0745 84.9476 54.102 84.8447 54.084 84.7285C54.1874 84.606 54.2905 84.4838 54.3938 84.3618Z" fill="#041151"/>
<path d="M127.052 70.5004C129.658 70.2063 135.436 71.7675 135.917 73.9871C136.556 76.9403 133.396 82.066 129.8 83.5204C128.89 83.8882 127.776 84.2667 127.052 83.5806C126.809 83.35 127.19 81.1791 127.017 81.4676C125.879 81.4672 124.74 81.4672 123.381 81.4672C123.762 80.2861 124.07 79.3818 124.344 78.4669C124.943 76.4668 124.643 75.8982 122.724 75.1747C121.864 74.8501 121.03 74.4548 119.941 73.9871C122.142 71.8982 124.43 70.7121 127.052 70.5004Z" fill="#55873A"/>
<path d="M10.0586 77.3281C12.1114 79.7857 14.1195 82.2825 16.2284 84.691C18.461 87.2405 21.0266 89.4319 24.5096 89.9297C26.0023 90.1434 27.5842 89.7354 29.1261 89.6088C30.5784 88.5895 32.2072 87.7449 33.4335 86.5045C34.6919 85.2316 35.5571 83.5717 36.5945 82.081C36.8109 82.1101 37.0281 82.1388 37.2452 82.1681C35.525 85.3471 33.7856 88.5697 30.3107 90.166C25.6375 92.3121 21.5004 90.7235 18.0476 87.5586C15.1508 84.9035 12.7122 81.751 10.0712 78.8186C10.0666 78.3216 10.0627 77.8249 10.0586 77.3281Z" fill="#041151"/>
<path d="M92.2718 15.5072C92.503 15.583 92.734 15.6583 92.9653 15.7343C92.9818 15.6498 92.9983 15.566 93.015 15.4816C92.7822 15.4694 92.5497 15.4579 92.3172 15.446C91.3104 15.0871 90.303 14.7284 89.2962 14.3697C88.5016 14.3189 87.7067 14.2683 86.9121 14.218C86.8995 14.3498 86.8869 14.4818 86.8743 14.6133C87.6772 14.7149 88.4794 14.8159 89.2823 14.9169C90.2789 15.1142 91.2761 15.3118 92.2718 15.5072ZM97.046 17.1977C97.4022 17.1021 97.7579 17.0068 98.1142 16.9113C98.5764 18.8625 99.0384 20.8133 99.5007 22.7641C99.3133 22.7695 99.1264 22.7751 98.939 22.7801C98.3352 20.5371 96.9908 18.8506 94.9497 17.7808C92.0434 16.2578 88.928 15.462 85.638 15.3837C85.6424 15.1731 85.6469 14.9627 85.6515 14.7521C85.5575 14.4868 85.4722 13.9939 85.3686 13.99C83.7481 13.9292 82.1247 13.9316 80.5026 13.9201C80.5015 13.7101 80.5007 13.5006 80.5 13.2907C86.4991 12.5531 92.1422 13.3167 97.046 17.1977Z" fill="#070707"/>
<path d="M90.3086 107.338C95.8353 105.897 101.408 104.609 106.876 102.972C112.045 101.426 117.147 99.6283 122.187 97.7009C123.948 97.0279 125.434 95.6407 127.045 94.5781C127.044 94.5766 127.099 94.6515 127.099 94.6515C127.083 94.8565 127.067 95.0615 127.051 95.2664C123.375 98.8258 118.704 100.518 113.95 101.844C106.383 103.954 98.7309 105.764 91.115 107.7C90.8462 107.58 90.5774 107.459 90.3086 107.338Z" fill="#401F1B"/>
<path d="M127.014 70.6863C124.393 70.8978 122.142 71.8995 119.941 73.9884C121.03 74.4561 121.864 74.8514 122.724 75.176C124.642 75.8994 124.943 76.4681 124.344 78.4681C124.07 79.3831 123.761 80.2874 123.381 81.4685C124.74 81.4685 125.878 81.4685 127.017 81.4689C127.032 82.1728 127.047 82.8756 127.062 83.5784C126.961 83.5804 126.861 83.583 126.76 83.586C126.698 83.5417 126.636 83.4974 126.576 83.4542C126.492 83.0373 126.407 82.6198 126.322 82.2023C125.522 82.4103 124.722 82.6187 123.922 82.8274C123.732 82.8489 123.542 82.871 123.353 82.8932C122.647 82.3962 121.94 81.8999 121.234 81.4031C121.363 81.2731 121.492 81.1428 121.621 81.0127C122.535 80.7837 124.21 78.012 123.678 77.073C123.312 76.4244 122.095 76.2546 121.258 75.8714L121.263 75.8758C121.014 75.6348 120.764 75.394 120.515 75.153C120.127 74.7615 119.739 74.3703 119.352 73.9788C119.749 73.3996 120.02 72.5939 120.57 72.2843C122.09 71.4297 123.756 70.8359 125.3 70.0195C125.731 69.792 125.942 69.1495 126.254 68.6969C126.418 68.5271 126.583 68.3573 126.748 68.1875C126.837 69.0204 126.925 69.8532 127.014 70.6863Z" fill="#18150B"/>
<path d="M104.99 56.6064C104.641 56.4714 104.292 56.3361 103.945 56.2019C106.018 55.056 108.09 53.9092 110.161 52.7617C110.307 52.8857 110.454 53.0099 110.6 53.1339C109.471 53.9474 108.342 54.7603 106.958 55.7575C108.333 55.9939 109.427 55.9644 110.309 56.3828C111.867 57.1223 113.049 56.7345 114.184 55.663C114.305 55.7779 114.427 55.893 114.548 56.0076C113.509 56.7903 112.471 57.5734 111.432 58.3561C111.212 58.3121 110.992 58.2673 110.773 58.223C110.955 57.9527 111.136 57.6824 111.581 57.022C109.15 56.8687 107.07 56.7375 104.99 56.6064Z" fill="#2E1817"/>
<path d="M121.585 52.8047C123.282 55.7195 122.91 59.0728 123.589 62.2036C123.44 62.3378 123.291 62.4724 123.144 62.6055C122.436 59.3522 121.728 56.0996 121.02 52.8468C121.208 52.8327 121.397 52.8186 121.585 52.8047Z" fill="#2E1817"/>
<path d="M118.61 47.918C119.15 48.142 119.69 48.3665 120.23 48.5906C120.099 48.7725 119.967 48.9545 119.836 49.1362C119.422 49.4903 118.92 49.7813 118.609 50.2098C117.226 52.1213 115.897 54.0721 114.548 56.0088C114.426 55.8937 114.305 55.7786 114.184 55.6638C115.625 53.3678 117.066 51.072 118.507 48.7764C118.542 48.4901 118.576 48.2043 118.61 47.918Z" fill="#2E1817"/>
<path d="M17.3589 3.66957C14.9244 4.53325 12.4892 5.39672 10.0547 6.26041C10.1919 5.96991 10.2616 5.49573 10.4761 5.41735C12.7534 4.5884 15.0544 3.8222 17.3483 3.03906C17.3517 3.24901 17.3554 3.45962 17.3589 3.66957Z" fill="#181E16"/>
<path d="M126.748 68.1852C126.583 68.355 126.419 68.5248 126.255 68.6948C125.332 66.9383 124.408 65.1825 123.484 63.4267C123.622 63.2599 123.761 63.0932 123.899 62.9258C124.849 64.6792 125.798 66.432 126.748 68.1852Z" fill="#401F1B"/>
<path d="M119.836 49.1355C119.968 48.9535 120.099 48.7718 120.23 48.5898C120.682 49.9946 121.133 51.3991 121.585 52.8038C121.396 52.818 121.207 52.8321 121.019 52.846C120.626 51.6093 120.231 50.3724 119.836 49.1355Z" fill="#401F1B"/>
<path d="M127.066 87.2802C126.584 86.5568 126.102 85.8334 125.621 85.1099C125.631 84.8427 125.641 84.5754 125.65 84.3086C125.958 84.0233 126.265 83.7384 126.572 83.4531C126.634 83.4972 126.695 83.5411 126.756 83.5851C126.859 84.4377 126.962 85.2904 127.064 86.1428C127.065 86.5221 127.065 86.9009 127.066 87.2802Z" fill="#18150B"/>
<path d="M113.543 50.6097C114.35 50.0717 115.158 49.5341 115.965 48.9961C116.077 49.1142 116.189 49.2321 116.301 49.3502C115.421 49.9627 114.541 50.5745 113.662 51.1864C113.622 50.9944 113.583 50.8021 113.543 50.6097Z" fill="#401F1B"/>
<path d="M118.61 47.918C118.576 48.2043 118.542 48.4901 118.507 48.7764C117.772 48.9675 117.036 49.1588 116.3 49.3498C116.188 49.2317 116.076 49.1136 115.965 48.9955C116.847 48.6364 117.729 48.2771 118.61 47.918Z" fill="#401F1B"/>
<path d="M113.544 50.6094C113.584 50.8017 113.623 50.9941 113.663 51.1867C113.033 51.5584 112.404 51.9301 111.774 52.302C111.744 52.102 111.714 51.9014 111.684 51.701C112.304 51.3374 112.924 50.973 113.544 50.6094Z" fill="#181E16"/>
<path d="M98.9391 22.7782C99.126 22.7728 99.3134 22.7671 99.5001 22.7617C99.4943 23.3755 99.4878 23.9891 99.4817 24.6024C99.2893 24.5979 99.0974 24.594 98.9048 24.5898C98.8622 24.2446 98.8199 23.9001 98.7773 23.5548C98.8316 23.2963 98.8853 23.037 98.9391 22.7782Z" fill="#401F1B"/>
<path d="M111.684 51.7031C111.714 51.9035 111.745 52.1039 111.775 52.3039C111.384 52.5818 110.993 52.8595 110.603 53.1367C110.456 53.0128 110.31 52.8886 110.164 52.7646C110.671 52.4109 111.177 52.0568 111.684 51.7031Z" fill="#401F1B"/>
<path d="M17.3583 3.66883C17.3548 3.45888 17.3511 3.24828 17.3477 3.03833C17.8336 2.94237 18.3188 2.84597 18.8041 2.75C18.8036 2.94584 18.803 3.14189 18.8025 3.33773C18.8025 3.3373 18.793 3.34121 18.793 3.34186C18.5715 3.39201 18.3494 3.44217 18.128 3.49297C17.8711 3.55138 17.6149 3.61 17.3583 3.66883Z" fill="#070707"/>
<path d="M127.066 86.1427C126.963 85.2901 126.86 84.4377 126.758 83.5855C126.859 83.5827 126.96 83.5801 127.061 83.5781C127.062 84.4331 127.064 85.2877 127.066 86.1427Z" fill="#181E16"/>
<path d="M123.899 62.9261C123.76 63.0929 123.622 63.2598 123.484 63.427C123.371 63.1532 123.258 62.8794 123.145 62.6061C123.293 62.4715 123.442 62.3373 123.591 62.2031C123.694 62.4443 123.796 62.6849 123.899 62.9261Z" fill="#2E1817"/>
<path d="M127.098 94.6511C127.098 94.6511 127.042 94.5764 127.043 94.5777C127.043 94.5788 127.105 94.5391 127.105 94.5391C127.106 94.5391 127.098 94.6511 127.098 94.6511Z" fill="#E2403C"/>
<path d="M38.4783 61.3084C31.0697 60.1414 24.8276 57.1296 21.4708 50.0023C19.9188 46.7082 22.0149 43.197 25.647 42.9378C29.9012 42.6338 34.1862 42.484 38.4477 42.6063C47.6775 42.8701 56.6722 41.7893 65.5327 39.1101C73.8074 36.6082 82.1926 34.4701 90.5272 32.1641C90.6267 32.1365 90.6959 32.0019 90.7793 31.917L90.7628 31.9346C91.1367 31.9541 91.5099 31.9732 91.8836 31.9928C92.0017 31.9863 92.1202 31.9793 92.2383 31.9724C92.8482 31.9476 93.4611 31.9511 94.068 31.894C99.0134 31.4272 102.793 34.8333 100.104 41.0352C99.7651 41.8155 99.3942 42.5998 98.9151 43.2976C95.976 47.5778 92.2731 51.1055 87.7008 53.5426C81.7486 56.7147 75.2901 58.5829 68.7429 60.1036C64.8555 61.007 60.9359 61.7752 57.0094 62.6085C57.0424 62.8983 57.0028 63.1139 57.0912 63.2405C59.676 66.9475 60.9795 71.1776 62.1641 75.463C62.2451 75.7568 62.6294 75.967 62.8726 76.216C62.7495 76.4507 62.6259 76.6854 62.5028 76.9199L62.4928 76.9752C62.3656 77.0686 62.239 77.1626 62.112 77.256C62.0647 77.3409 61.9974 77.4047 61.9094 77.4475C61.6904 77.4203 61.4715 77.3932 61.2533 77.3656C61.2655 76.8215 61.3801 76.2568 61.2724 75.7383C59.9628 69.4279 57.0958 63.8986 52.7993 59.0975C53.0144 59.0571 53.2294 59.0176 53.4439 58.9774C53.8955 59.3763 54.3471 59.7751 54.7993 60.1735C55.1645 60.4061 55.5304 60.6388 55.896 60.8713C55.7006 61.9063 56.2316 61.9194 57.0343 61.7546C65.9387 59.9254 74.8272 58.0862 83.3121 54.6623C89.9981 51.9642 95.2751 47.6983 98.8512 41.4577C100.052 39.3619 100.836 36.973 99.2401 34.7198C97.5455 32.3269 94.9362 32.5284 92.3951 32.7731C92.3347 32.7785 92.2761 32.7987 92.2166 32.8144C86.3263 34.3667 80.4364 35.9211 74.5454 37.4719C68.1763 39.1483 61.8849 41.3029 55.4138 42.3544C49.5519 43.3065 43.4948 43.0809 37.5213 43.3232C33.7404 43.4762 29.9515 43.4613 26.1731 43.6597C23.3482 43.8074 21.6757 45.4633 22.1682 48.1896C22.5242 50.1625 23.5601 52.2514 24.891 53.7647C28.6825 58.0771 33.8967 59.8394 39.3787 60.915C39.0789 61.0461 38.7784 61.1773 38.4783 61.3084Z" fill="#18150B"/>
<path d="M63.1532 63.7852C63.402 63.7862 63.6501 63.7878 63.8987 63.7886C64.075 64.5201 64.252 65.2511 64.4283 65.9821C64.2544 66.0028 64.08 66.0238 63.9063 66.0445C63.6567 66.082 63.407 66.1198 63.1573 66.1574C63.2923 66.7323 63.4276 67.3074 63.5626 67.8821C64.5162 70.3308 65.4691 72.7794 66.4227 75.228C66.6945 75.5913 66.9657 75.9538 67.2375 76.3171C67.228 76.4217 67.2517 76.5186 67.3083 76.6076C67.3209 77.0772 67.3339 77.547 67.3476 78.0162C67.0747 78.0429 66.802 78.0705 66.5287 78.0976C66.0423 77.4571 65.5562 76.816 65.0699 76.1755C65.0692 75.9534 65.0688 75.7313 65.0683 75.5098C65.0115 74.8759 65.0814 74.1972 64.8745 73.6164C64.2609 71.8966 63.5118 70.2257 62.8664 68.5165C62.2595 66.9105 62.167 65.3084 63.1532 63.7852Z" fill="#18150B"/>
<path d="M65.0711 75.5078C65.0715 75.7297 65.072 75.9518 65.0726 76.1735C64.2159 76.4225 63.36 76.6718 62.5039 76.921C62.627 76.6863 62.7501 76.4518 62.873 76.2176C63.0606 76.2167 63.248 76.2156 63.4353 76.2145C63.6105 76.1131 63.7853 76.0111 63.9608 75.9097C64.3305 75.7755 64.7007 75.642 65.0711 75.5078Z" fill="#181E16"/>
<path d="M61.2501 77.3672C61.4689 77.3943 61.6876 77.4215 61.9066 77.4486C61.5217 77.8134 61.137 78.1786 60.7516 78.5433C60.7095 78.4986 60.6673 78.4543 60.625 78.4106C60.6372 78.2689 60.6487 78.1273 60.6602 77.9855C60.8567 77.7797 61.0536 77.5732 61.2501 77.3672Z" fill="#041151"/>
<path d="M58.7734 79.2582C58.8012 79.1201 58.8288 78.9825 58.8559 78.8438C59.1469 78.8824 59.4372 78.921 59.7281 78.9599C59.41 79.0593 59.0915 79.1588 58.7734 79.2582Z" fill="#041151"/>
<path d="M59.7266 78.9608C59.4356 78.9221 59.1454 78.8833 58.8544 78.8446C58.8549 78.8453 58.7539 78.7241 58.7539 78.7241C59.1163 78.6025 59.4784 78.481 59.8406 78.3594C59.8829 78.5383 59.925 78.7165 59.9667 78.895C59.8955 78.9486 59.8156 78.9708 59.7266 78.9608Z" fill="#181E16"/>
<path d="M59.9697 78.895C59.9276 78.7165 59.8859 78.5383 59.8438 78.3594L59.8613 78.3891C60.1164 78.3972 60.3722 78.4052 60.628 78.4132C60.6701 78.4569 60.7129 78.5012 60.755 78.5459C60.4931 78.6625 60.2315 78.7788 59.9697 78.895Z" fill="#041151"/>
<path d="M57.3633 79.5662C57.611 79.5261 57.8587 79.4855 58.1069 79.4453C57.8592 79.4855 57.611 79.5256 57.3633 79.5662Z" fill="#041151"/>
<path d="M55.2695 83.3637C55.3579 83.0684 55.4469 82.7725 55.5353 82.4766C55.4469 82.7725 55.3579 83.068 55.2695 83.3637Z" fill="#041151"/>
<path d="M55.1289 84.2693C55.1519 84.1431 55.1752 84.0172 55.1986 83.8906C55.2199 83.9879 55.252 84.0849 55.2555 84.1829C55.2564 84.21 55.1736 84.2402 55.1289 84.2693Z" fill="#041151"/>
<path d="M90.3097 107.338C90.5785 107.458 90.8473 107.58 91.116 107.7C89.5389 108.1 87.962 108.5 86.3851 108.9C84.6996 108.882 83.0055 108.961 81.3311 108.817C79.8154 108.687 78.8533 107.869 79.0529 106.16C79.311 103.941 79.4094 101.69 79.8655 99.5138C80.1706 98.0595 79.818 97.1737 78.6087 96.4904C78.5031 96.4307 78.4133 96.3454 78.3103 96.2809C75.302 94.4072 75.3039 94.4081 76.4666 91.2119C76.5489 90.9859 76.5775 90.7403 76.6299 90.5046C76.6796 90.3684 76.7302 90.2314 76.781 90.0946C76.3535 88.5453 75.926 86.996 75.5 85.4466C75.812 85.436 76.1225 85.4251 76.4323 85.4141C76.563 85.6703 76.693 85.9265 76.8238 86.1822C76.9041 86.4063 76.9851 86.6308 77.0658 86.8548C77.1362 86.9738 77.207 87.093 77.278 87.2124C77.2612 87.4415 77.2447 87.6712 77.228 87.9003C77.2632 88.0284 77.2984 88.1565 77.3335 88.2846C77.3422 89.0527 77.3507 89.8209 77.3592 90.5895C77.3196 90.7297 77.2803 90.8704 77.2406 91.0111C76.2052 93.6896 77.2552 95.3766 79.7943 96.3554C80.1013 97.4269 80.4077 98.4985 80.7147 99.5707C80.4494 100.863 80.1424 102.147 79.9255 103.447C79.2175 107.694 79.851 108.374 84.1777 108.095C86.2218 107.842 88.2655 107.59 90.3097 107.338Z" fill="#2E1817"/>
<path d="M66.4221 75.2264C65.4686 72.7778 64.5156 70.3292 63.5625 67.8801C63.7021 67.4902 63.8424 67.1004 63.982 66.7109V66.717C64.086 66.8477 64.19 66.9789 64.294 67.1098C64.918 67.8428 65.5419 68.5764 66.1659 69.3094C66.6631 69.5434 67.161 69.7781 67.6584 70.0122L67.651 70.0065C67.7761 70.1312 67.9016 70.2558 68.0273 70.3808L68.0201 70.3728C68.9022 70.9551 69.7846 71.5374 70.6667 72.1197C71.1057 72.2433 71.5443 72.3668 71.9829 72.491C72.3637 72.5592 72.7441 72.6276 73.1249 72.6959C76.1984 73.3953 79.2558 74.1838 82.3552 74.7436C83.3769 74.9285 84.5782 74.7169 85.5739 74.3517C89.4931 72.9148 93.3634 71.3451 97.2513 69.8242C97.5381 69.7649 97.8251 69.7056 98.1119 69.6459C99.5125 69.0751 100.913 68.5045 102.313 67.9333C102.44 67.8538 102.566 67.7739 102.693 67.6947C103.506 67.0301 104.319 66.3659 105.132 65.7018C107.089 63.1316 108.553 60.1404 111.432 58.3574C112.47 57.5741 113.508 56.7909 114.547 56.0086C115.897 54.0726 117.225 52.1218 118.61 50.2101C118.92 49.7818 119.422 49.4908 119.836 49.1367C120.231 50.3734 120.625 51.6103 121.02 52.8472C121.727 56.0996 122.435 59.3527 123.143 62.6059C123.255 62.8804 123.368 63.1541 123.481 63.4275C124.405 65.1833 125.328 66.9391 126.251 68.6954C125.939 69.1481 125.728 69.7905 125.297 70.0183C123.753 70.8346 122.087 71.4284 120.567 72.2823C120.017 72.5919 119.746 73.3981 119.349 73.9774C117.674 73.7589 117.506 72.5592 117.798 71.3057C118.114 69.9499 118.725 68.6652 119.118 67.3238C119.773 65.0954 118.13 63.2857 115.881 63.7208C115.223 63.8478 114.529 63.9408 113.936 64.2256C108.389 66.8974 102.886 69.6639 97.3151 72.2845C93.9587 73.8629 90.5029 75.231 87.0915 76.6933C86.8277 76.741 86.5646 76.7888 86.3012 76.8366C86.0492 76.8722 85.7975 76.9084 85.5452 76.944C84.5932 76.9807 83.6411 77.0168 82.6893 77.0535C81.3332 77.0469 79.9773 77.0409 78.6214 77.035C76.5762 76.9964 74.5294 76.9812 72.4853 76.9093C71.3053 76.8676 70.9444 77.3448 71.3465 78.4341C72.5663 80.6285 73.7865 82.8233 75.0062 85.0177C74.1779 84.4797 73.1505 84.1015 72.5602 83.3715C71.1259 81.599 69.9142 79.6493 68.5687 77.8025C68.2337 77.342 67.7322 77.0013 67.3077 76.606C67.2511 76.517 67.2274 76.4201 67.2374 76.3146C66.9656 75.9518 66.694 75.589 66.4221 75.2264Z" fill="#DD403D"/>
<path d="M75.0074 85.0182C73.7876 82.8238 72.5674 80.6294 71.3477 78.4344C71.5691 78.1823 71.7906 77.9296 72.0122 77.6769L71.9992 77.6719C73.476 80.2521 74.9537 82.8323 76.4306 85.4125C76.1201 85.4236 75.8103 85.4346 75.4983 85.4457C75.3335 85.3031 75.1706 85.1604 75.0074 85.0182Z" fill="#401F1B"/>
<path d="M67.649 78.4505C67.5329 78.3183 67.4169 78.1867 67.3008 78.0547C67.4169 78.1867 67.5329 78.3189 67.649 78.4505Z" fill="#18150B"/>
<path d="M76.7796 90.0938C76.729 90.2303 76.6782 90.3675 76.6289 90.5037C76.6797 90.3664 76.7299 90.2299 76.7796 90.0938Z" fill="#401F1B"/>
<path d="M30.3173 31.0755C30.4057 31.3664 30.4947 31.6578 30.5831 31.9487C31.1408 31.7793 31.698 31.61 32.2555 31.4409C32.1587 31.1384 32.0612 30.836 31.9641 30.5335C31.4155 30.7144 30.8664 30.8952 30.3173 31.0755ZM45.7169 26.6652C45.1161 27.3493 44.6276 27.6876 44.5117 28.124C44.4489 28.3598 45.0217 28.764 45.3074 29.0921C45.6626 28.7721 46.1681 28.5089 46.3198 28.1114C46.4243 27.8387 46.0358 27.3791 45.7169 26.6652ZM37.1196 32.255C38.9297 31.9988 40.3611 31.9678 40.4028 30.2144C40.4327 28.928 39.3743 28.9052 38.4498 28.9193C37.0764 28.9403 36.0451 29.6412 35.9078 30.981C35.8622 31.4298 36.8434 31.9823 37.1196 32.255ZM32.0189 28.5801C34.1229 28.5426 35.623 27.5473 36.6905 25.9491C37.0397 25.4257 37.2227 24.4452 36.9569 23.9584C36.6966 23.481 35.6527 22.9987 35.1557 23.1566C33.284 23.7504 31.4166 24.4636 29.7035 25.4126C28.6338 26.0049 29.1473 27.1142 29.8822 27.7171C30.4485 28.1817 31.2965 28.3048 32.0189 28.5801ZM54.7678 32.2535C52.8166 33.1865 50.8647 34.119 48.9142 35.0504C48.9241 34.8917 48.9337 34.7343 48.9432 34.5771C49.0121 34.4158 49.0802 34.2547 49.1486 34.0934C48.5744 34.1255 48.0003 34.1572 47.426 34.1893C42.0012 34.4429 36.7196 35.3915 31.6617 37.423C31.4468 37.3075 31.2312 37.1916 31.0162 37.0761C30.8534 36.8162 30.7429 36.3922 30.5203 36.3214C26.6576 35.0997 24.9559 32.2928 25.7034 28.2983C26.5942 25.9613 27.9668 24.123 30.3264 22.9701C35.3592 20.5115 40.2973 20.7123 45.2527 23.0936C45.3281 23.2026 45.432 23.258 45.5647 23.2591L45.523 23.1968C46.8507 24.4942 48.5915 25.5816 49.3944 27.1474C50.259 28.8335 50.2444 30.968 50.6532 33.1161C51.6431 32.7933 53.0085 32.3475 54.374 31.902C54.5055 32.0195 54.6367 32.1365 54.7678 32.2535Z" fill="#070707"/>
<path d="M82.7723 26.3967C82.1207 25.9208 81.7675 25.4626 81.4222 25.4687C81.0911 25.4742 80.7683 25.9605 80.4415 26.2354C80.7229 26.5604 80.9706 27.101 81.2957 27.1516C81.6367 27.2054 82.0523 26.791 82.7723 26.3967ZM84.6998 20.9091C83.802 21.969 83.3409 22.4011 83.0667 22.9302C83.0098 23.0401 83.7634 23.8215 83.9423 23.7546C84.5656 23.5225 85.2283 23.1462 85.6026 22.6278C85.7433 22.4339 85.1338 21.7003 84.6998 20.9091ZM73.9087 23.4003C72.9536 24.5419 72.3653 25.2447 71.7771 25.9475C72.4834 26.4709 73.2033 27.4165 73.892 27.3943C74.5351 27.3741 75.47 26.4101 75.6543 25.7008C75.774 25.2397 74.7794 24.49 73.9087 23.4003ZM77.4102 19.0749C77.3481 19.1865 77.2857 19.2979 77.2234 19.4099C76.9818 19.421 76.7395 19.4305 76.4985 19.4446C75.0868 19.5239 73.8021 20.0988 73.9283 21.6088C74.0614 23.2055 75.6183 23.0136 76.8129 23.0377C77.1058 23.0438 77.4264 22.9669 77.6911 22.8392C78.732 22.3373 80.4181 22.141 80.069 20.6518C79.9061 19.957 78.3401 19.5903 77.4102 19.0749ZM91.8683 29.4621C91.8664 29.6586 91.8642 29.8556 91.8618 30.0518C90.1542 30.0609 88.4359 30.1936 86.7405 30.054C82.4828 29.7038 78.3522 30.1424 74.3497 31.662C74.1695 31.4672 73.9891 31.2727 73.8091 31.0783C69.777 29.0583 68.8376 27.3893 69.3441 23.1482C70.3693 20.3489 72.3828 18.6001 75.2455 17.9359C79.4078 16.9693 83.3504 17.6541 87.0243 19.8435C89.8487 22.7704 90.2597 25.9214 87.4884 29.4621H91.8683Z" fill="#070707"/>
<path d="M54.768 32.2548C54.6368 32.1378 54.5053 32.0208 54.3741 31.9037C55.9552 30.4734 56.0696 28.7477 55.395 26.8632C54.459 25.3838 53.523 23.9043 52.5873 22.4251C52.9433 22.1791 53.2996 21.9334 53.6563 21.6878C54.3374 22.4453 55.0187 23.2028 55.699 23.9614C56.2928 21.0527 54.9745 18.2037 51.823 16.1272C48.4048 13.8751 44.5295 12.663 40.4872 12.582C37.4317 12.5203 34.3617 13.1918 31.2986 13.5381C31.2771 13.3983 31.2554 13.2591 31.2344 13.1195C35.7161 10.9512 40.3341 11.2398 44.9806 12.4102C48.875 13.3914 52.6183 14.7177 55.1021 18.1414C55.7632 19.0533 56.4584 20.1775 56.5203 21.2401C56.6871 24.0911 56.6465 26.9728 56.4079 29.8188C56.3364 30.6703 55.3403 31.445 54.768 32.2548Z" fill="#18150B"/>
<path d="M73.8067 31.0786C73.9869 31.2731 74.1669 31.4675 74.3478 31.6624C71.8318 32.2634 69.3404 33.1968 66.7934 33.3857C63.0938 33.6603 61.3823 30.7542 62.9275 27.4078C66.8959 18.8155 73.7414 14.7743 83.0875 14.6729C83.9412 14.6634 84.7951 14.7226 85.6488 14.7498C85.6447 14.9608 85.6402 15.1712 85.6356 15.3818C83.398 15.544 81.1339 15.5431 78.9274 15.8992C72.0452 17.0095 66.9912 20.5674 64.3633 27.1898L64.3617 27.1872C64.2071 27.5355 64.0519 27.8835 63.8971 28.2318C62.6185 30.8893 63.655 32.8485 66.5794 32.6496C69.0128 32.4849 71.3991 31.6288 73.8067 31.0786Z" fill="#181E16"/>
<path d="M19.7852 25.9285C21.8232 24.3804 23.6865 22.4709 25.9462 21.3808C28.5265 20.1365 31.4603 19.6215 34.2401 18.7891C34.2626 18.9799 34.2848 19.1714 34.3069 19.3627C29.3684 20.2956 24.8778 22.165 21.1159 25.5893C20.818 25.8605 20.3718 25.9702 19.9947 26.1545C19.9243 26.0796 19.8544 26.0043 19.7852 25.9285Z" fill="#181E16"/>
<path d="M21.0381 39.1797C17.4887 38.3501 15.5841 34.8033 16.8091 30.6893C17.2798 29.1087 18.5145 27.7544 19.4008 26.2969C19.4822 26.3753 19.5645 26.4528 19.6475 26.5292C19.2325 27.1968 18.7332 27.8278 18.4166 28.539C17.3391 30.9631 16.5598 33.4259 18.0766 35.9785C19.0773 36.863 20.0776 37.7473 21.0782 38.6319C21.0648 38.8142 21.0515 38.9973 21.0381 39.1797Z" fill="#181E16"/>
<path d="M45.2231 17.7032C42.4158 17.5586 39.6081 17.414 36.8008 17.2692L36.8164 17.2883C39.8406 15.7038 42.9319 16.4899 45.9767 17.1335C47.2925 17.4118 48.5274 18.0714 49.7973 18.5588C49.7265 18.6472 49.6577 18.7347 49.5893 18.8226C48.134 18.4492 46.6787 18.0766 45.2231 17.7032Z" fill="#181E16"/>
<path d="M34.3052 19.3621C34.283 19.1708 34.2604 18.9793 34.2383 18.788C34.9708 18.6443 35.7034 18.5006 36.4353 18.3568C37.1667 18.3269 37.8982 18.296 38.6297 18.2654C39.2471 18.2585 39.8646 18.2513 40.4814 18.2444C41.209 18.2428 41.9359 18.2405 42.6632 18.2383C43.5169 18.263 44.3709 18.2876 45.2246 18.3128C46.5748 18.7146 47.9253 19.1165 49.2753 19.518C49.1114 19.65 48.9472 19.7822 48.7833 19.9142C44.0087 18.3905 39.1657 18.6508 34.3052 19.3621Z" fill="#18150B"/>
<path d="M48.9419 34.5781C48.9323 34.7353 48.9228 34.8927 48.9126 35.0514C45.4843 35.5955 42.0567 36.1377 38.6289 36.6802L38.6465 36.6983C41.5734 36.0697 44.5004 35.4414 47.4271 34.8133C47.9321 34.7349 48.4369 34.6565 48.9419 34.5781Z" fill="#181E16"/>
<path d="M48.7852 19.9136C48.9491 19.7814 49.1132 19.6492 49.2771 19.5172C49.585 19.6005 49.8924 19.6839 50.5397 19.8598C50.0548 19.3298 49.8217 19.076 49.5891 18.8217C49.6573 18.734 49.7268 18.6465 49.7976 18.5586C50.2422 18.98 50.6858 19.4025 51.1294 19.825C51.0701 19.8804 51.0112 19.9355 51.1802 19.7779C51.0295 19.9538 51.0822 19.8919 51.135 19.8307C51.9755 20.449 52.8163 21.0676 53.6568 21.6859C53.3007 21.9315 52.944 22.1777 52.5877 22.4235C51.3202 21.5869 50.0527 20.7499 48.7852 19.9136Z" fill="#181E16"/>
<path d="M31.0177 37.0781C31.2326 37.1936 31.4476 37.3096 31.6632 37.4253C29.8233 38.0226 27.9837 38.6203 26.1445 39.2182C26.1465 39.0237 26.1484 38.8298 26.1506 38.6359C27.7727 38.1166 29.3954 37.5975 31.0177 37.0781Z" fill="#181E16"/>
<path d="M49.5882 18.8224C49.8209 19.0766 50.0539 19.3304 50.5394 19.8604C49.8917 19.6845 49.5843 19.6012 49.2764 19.5178C47.9264 19.1163 46.5759 18.7145 45.2257 18.3126C45.2246 18.1091 45.2235 17.9061 45.2227 17.7031C46.6775 18.0763 48.1329 18.4491 49.5882 18.8224Z" fill="#496133"/>
<path d="M26.1508 38.6328C26.1489 38.8269 26.1467 39.0212 26.1448 39.2151C24.4432 39.2021 22.741 39.1895 21.0391 39.1765C21.0525 38.9937 21.0662 38.8113 21.0792 38.6289C22.7697 38.63 24.4604 38.6315 26.1508 38.6328Z" fill="#070707"/>
<path d="M31.2362 13.1172C31.2577 13.2568 31.2787 13.3964 31.3004 13.5356C30.1816 13.8445 29.0624 14.1539 27.9436 14.4629L27.8672 14.345C28.9899 13.9355 30.1132 13.5265 31.2362 13.1172Z" fill="#181E16"/>
<path d="M80.4999 13.2891C80.5009 13.499 80.5018 13.7085 80.5025 13.918C79.5263 13.9758 78.5497 14.034 77.5736 14.0909C77.571 13.9586 77.569 13.8275 77.5664 13.6964C78.5441 13.5609 79.5222 13.4248 80.4999 13.2891Z" fill="#18150B"/>
<path d="M77.5633 13.6992C77.5657 13.8304 77.5677 13.9615 77.5703 14.0935C76.8384 14.1997 76.1063 14.3045 75.3748 14.4096C75.3594 14.3091 75.3438 14.2081 75.3281 14.1072C76.0733 13.9715 76.8182 13.8354 77.5633 13.6992Z" fill="#181E16"/>
<path d="M48.9436 34.5775C48.4386 34.6559 47.9338 34.7342 47.4288 34.8126C47.428 34.6046 47.4269 34.3973 47.4258 34.1897C48.0001 34.1576 48.5743 34.1254 49.1486 34.0938C49.0802 34.2551 49.0118 34.4162 48.9436 34.5775Z" fill="#496133"/>
<path d="M38.4766 61.3118C38.7766 61.1807 39.0771 61.0495 39.3769 60.918C39.7387 60.9887 40.0999 61.0602 40.4617 61.131C40.4521 61.3244 40.4425 61.5179 40.433 61.7113C39.7808 61.578 39.1288 61.4449 38.4766 61.3118Z" fill="#181E16"/>
<path d="M40.4336 61.7086C40.4431 61.5152 40.4527 61.3219 40.4627 61.1289C40.8346 61.1756 41.2063 61.2218 41.578 61.2676C41.5765 61.4987 41.575 61.7297 41.573 61.9605C41.1933 61.8764 40.8135 61.7926 40.4336 61.7086Z" fill="#18150B"/>
<path d="M42.6655 18.2383C41.9382 18.2409 41.2113 18.2428 40.4844 18.2448C41.2117 18.2424 41.9386 18.2405 42.6655 18.2383Z" fill="#496133"/>
<path d="M36.8007 17.2695C36.5866 17.3731 36.3725 17.476 36.1587 17.5796C36.1361 17.5088 36.1129 17.4378 36.0898 17.367C36.3319 17.341 36.574 17.3147 36.8163 17.2886L36.8007 17.2695Z" fill="#181E16"/>
<path d="M27.9408 14.4655C27.8062 14.5248 27.6735 14.5887 27.5354 14.6375C27.5217 14.6421 27.4761 14.5561 27.4453 14.5124C27.586 14.4575 27.7267 14.4024 27.8659 14.3477C27.8639 14.3477 27.9408 14.4655 27.9408 14.4655Z" fill="#496133"/>
<path d="M38.6322 36.6797C38.61 36.7244 38.5886 36.7691 38.5664 36.8143C38.5944 36.775 38.6222 36.7364 38.6502 36.6977C38.6502 36.6973 38.6322 36.6797 38.6322 36.6797Z" fill="#181E16"/>
<path d="M19.4023 26.2957C19.5315 26.1744 19.6601 26.0528 19.7877 25.9297C19.8555 26.0044 19.9254 26.0799 19.9957 26.1546C19.8802 26.2792 19.7645 26.4034 19.649 26.5281C19.5663 26.4516 19.4838 26.3741 19.4023 26.2957Z" fill="#181E16"/>
<path d="M88.3247 83.7736C87.2878 83.4405 86.6351 83.2699 86.0137 83.0226C84.7634 82.5258 83.4466 82.2154 82.4815 83.3617C81.3848 84.664 82.1037 86.0983 83.0757 86.9669C84.6934 88.4116 86.5808 89.5621 88.3866 90.7899C90.4201 92.1729 91.5847 94.1871 92.0921 96.4603C92.3081 97.4295 91.9128 98.8165 91.2922 99.6335C89.7822 101.621 85.3185 102.568 82.9919 101.647C82.6795 101.523 82.4192 101.269 81.747 100.81C83.5214 100.556 84.8915 100.43 86.2282 100.149C87.6877 99.8423 89.5303 99.8052 89.967 98.0322C90.4965 95.8817 89.4229 94.072 87.7847 92.7468C86.2308 91.4899 84.4598 90.5042 82.8597 89.2994C81.3008 88.1252 80.182 86.6222 80.1414 84.5559C80.1062 82.7634 81.2793 81.3191 82.9628 81.0343C85.7404 80.5644 87.331 81.2312 88.3247 83.7736Z" fill="#B2780A"/>
<path d="M118.807 90.2492C115.535 85.7247 112.264 81.2009 108.992 76.6764C109.196 76.4769 109.4 76.2776 109.604 76.078C111.153 77.5279 112.702 78.9774 114.498 80.6587C114.498 78.5527 114.478 76.7281 114.512 74.9045C114.521 74.4308 114.699 73.9605 114.8 73.4883C115.197 73.8687 115.773 74.1815 115.949 74.6453C116.198 75.3045 116.139 76.0765 116.236 76.7969C116.74 80.5165 119.839 82.392 122.039 84.9055C123.472 86.5441 124.922 88.1694 126.047 90.092C122.173 87.9684 119.304 84.808 116.685 81.3737C116.472 81.4601 116.259 81.5461 116.045 81.6323C116.262 82.5236 116.338 83.4836 116.729 84.2911C117.364 85.5981 118.253 86.7803 118.938 88.0665C119.238 88.6286 119.301 89.3162 119.472 89.9474C119.25 90.0477 119.028 90.1489 118.807 90.2492Z" fill="#B2780A"/>
<path d="M91.1211 89.0904C92.3469 91.526 93.5878 93.954 94.7815 96.405C94.9632 96.7778 94.9241 97.2576 94.9868 97.6877C94.5891 97.5455 93.9827 97.5208 93.8253 97.2431C91.7264 93.535 89.6801 89.7967 87.6577 86.0464C87.4829 85.7229 87.5687 85.2598 87.9304 84.4619C90.9066 86.6326 93.8826 88.8036 96.8588 90.9747C96.9828 90.8718 97.1063 90.7694 97.2301 90.6669C95.5982 88.3609 93.9666 86.0556 92.3348 83.75C94.4121 83.9741 101.109 92.7622 102.22 96.2443C101.325 95.862 100.694 95.7174 100.214 95.3661C97.7696 93.5793 95.3777 91.7214 92.9362 89.9304C92.4132 89.547 91.7616 89.3381 91.1689 89.0491C91.112 88.8904 91.0558 88.7313 90.9995 88.5719C90.9528 88.6067 90.8623 88.6648 90.8658 88.6714C90.9448 88.8147 91.0336 88.9517 91.1211 89.0904Z" fill="#B2780A"/>
<path d="M103.264 86.1355C102.606 86.8776 101.948 87.6197 101.217 88.444C102.074 90.136 103.032 91.9572 103.908 93.817C104.089 94.2013 103.964 94.7298 103.98 95.1916C103.55 94.9699 102.885 94.8568 102.723 94.5098C100.541 89.8542 97.2482 85.6478 96.8315 80.2688C96.7692 79.4663 96.7401 78.6621 97.0028 77.7227C102.175 81.8372 106.424 86.6023 109.643 92.2334C109.484 92.4062 109.324 92.579 109.165 92.7518C108.763 92.4566 108.268 92.2325 107.976 91.8532C106.9 90.4541 105.926 88.9764 104.84 87.586C104.408 87.0317 103.783 86.6264 103.246 86.1537C101.837 84.2908 100.428 82.428 99.0185 80.5651C98.7397 80.7215 98.4608 80.8776 98.1824 81.0339C98.8531 82.9997 99.5244 84.9654 100.145 86.7842C101.513 86.4998 102.388 86.3174 103.264 86.1355Z" fill="#B2780A"/>
<path d="M87.0938 76.6937C90.5049 75.2314 93.9607 73.8634 97.3171 72.285C102.888 69.6644 108.391 66.8979 113.939 64.2261C114.531 63.9412 115.225 63.8483 115.883 63.7213C118.132 63.2862 119.775 65.0958 119.12 67.3243C118.727 68.6656 118.116 69.9503 117.8 71.3062C117.509 72.5596 117.676 73.7594 119.351 73.9778C119.738 74.3693 120.126 74.7605 120.514 75.152C120.763 75.3932 121.013 75.6338 121.263 75.8743L121.258 75.8698C121.197 77.5965 120.389 79.3755 121.62 81.0117C121.491 81.1418 121.362 81.272 121.233 81.4021C120.879 80.4244 120.264 79.4539 120.235 78.4667C120.197 77.157 119.913 76.2104 118.896 75.2992C116.502 73.1519 116.351 72.1512 117.521 69.1796C117.789 68.5019 118.124 67.8324 118.264 67.1265C118.667 65.0832 117.44 63.9208 115.488 64.5769C113.649 65.1948 111.83 65.9146 110.085 66.7602C103.461 69.969 96.8822 73.2711 90.2536 76.4712C89.292 76.9354 88.1548 77.0355 87.0987 77.3042C87.0968 77.1008 87.0953 76.8972 87.0938 76.6937Z" fill="#401F1B"/>
<path d="M115.072 90.2107C114.391 90.709 113.724 91.5907 113.027 91.6148C112.001 91.65 110.475 91.3999 109.997 90.7021C107.741 87.4123 105.682 83.976 103.791 80.4644C103.501 79.9264 104.318 78.6102 104.906 77.8818C105.132 77.6019 106.281 77.7522 106.779 78.0677C107.818 78.7257 108.703 79.6244 109.652 80.4242C109.485 80.6448 109.319 80.8654 109.153 81.0853C108.069 80.4051 106.985 79.7245 105.901 79.0438C105.732 79.1632 105.564 79.2824 105.395 79.4018C105.646 80.2857 105.734 81.2623 106.177 82.0363C107.564 84.46 109.05 86.8296 110.565 89.1768C111.673 90.8925 113.199 90.0972 114.648 89.5657C114.789 89.7806 114.93 89.9956 115.072 90.2107Z" fill="#B2780A"/>
<path d="M79.7929 96.3543C77.2533 95.3756 76.2034 93.6886 77.2392 91.0089C77.2785 90.8682 77.3183 90.728 77.3573 90.588C77.3493 89.8198 77.3408 89.0516 77.3332 88.2839C77.2981 88.1563 77.2624 88.0277 77.2266 87.8992C77.2433 87.6695 77.2598 87.4404 77.2763 87.2109C79.0256 88.5694 80.8162 89.8786 82.5088 91.3042C83.4587 92.1045 83.1417 93.0094 82.3404 93.8002C81.4845 94.6445 80.6414 95.5021 79.7929 96.3543Z" fill="#B27437"/>
<path d="M84.1754 108.095C79.8489 108.374 79.215 107.694 79.9234 103.447C80.1399 102.147 80.4473 100.863 80.7126 99.5703C82.0755 102.327 81.9836 105.673 84.1754 108.095Z" fill="#B27437"/>
<path d="M78.6233 77.0352C79.9792 77.041 81.3353 77.0471 82.6912 77.0532C82.5761 77.2501 82.4615 77.447 82.3471 77.644C78.8982 77.6535 75.4493 77.6626 72 77.6715C72 77.6715 72.013 77.6767 72.0126 77.6767C72.6906 77.5556 73.365 77.3823 74.0487 77.325C75.5709 77.1973 77.0981 77.1281 78.6233 77.0352Z" fill="#401F1B"/>
<path d="M82.3477 77.6463C82.4621 77.4494 82.5771 77.2524 82.6918 77.0555C83.6438 77.0192 84.5959 76.9826 85.5484 76.9465C85.8004 76.9107 86.0521 76.8747 86.3039 76.8388C86.5671 76.7906 86.8309 76.7429 87.0942 76.6953C87.0955 76.8992 87.0977 77.1026 87.0992 77.3061C86.8665 77.3286 86.6344 77.3514 86.4023 77.374C86.1724 77.4066 85.9422 77.4394 85.7121 77.4719C84.5902 77.5297 83.4688 77.5879 82.3477 77.6463Z" fill="#2E1817"/>
<path d="M125.654 84.307C125.644 84.5743 125.634 84.8409 125.624 85.1081C125.055 84.5525 124.486 83.9969 123.918 83.4413C124.042 83.3252 124.165 83.2097 124.288 83.0938C124.743 83.498 125.199 83.9025 125.654 84.307Z" fill="#2E1817"/>
<path d="M123.352 82.8939C123.542 82.872 123.731 82.8503 123.92 82.8281C124.042 82.9176 124.164 83.0075 124.286 83.0969C124.164 83.2124 124.041 83.3281 123.917 83.4441C123.728 83.2608 123.54 83.0774 123.352 82.8939Z" fill="#2E1817"/>
<path d="M77.0624 86.8525C76.9814 86.6278 76.9011 86.4038 76.8203 86.1797C76.9011 86.4044 76.9814 86.6285 77.0624 86.8525Z" fill="#496133"/>
<path d="M39.788 78.5087C41.0444 76.7552 42.3015 75.002 43.7362 73C44.7174 74.4288 45.489 75.5515 46.2476 76.6549C47.5006 75.7843 48.6476 74.987 50.0191 74.0343C50.6466 75.3527 51.1208 76.3479 51.6312 77.42C52.8957 76.483 54.0332 75.6401 55.4518 74.5891C55.8383 78.1641 55.2976 81.1512 54.1621 84.0599C48.746 83.3184 43.3283 82.5763 37.9141 81.836C38.2799 80.9466 38.6421 80.0569 39.0049 79.1678C39.266 78.9483 39.5268 78.7282 39.788 78.5087Z" fill="#55873A"/>
<path d="M39.005 79.1664C38.6425 80.0562 38.2803 80.9459 37.9145 81.8345C37.6904 81.9446 37.4689 82.0558 37.2477 82.1667C37.0312 82.1381 36.8143 82.109 36.5977 82.0803C37.2618 80.9822 37.9255 79.8833 38.5893 78.7852C38.7263 78.7871 38.8639 78.7893 39.0011 78.7917C39.0026 78.9167 39.0037 79.0414 39.005 79.1664Z" fill="#181E16"/>
<path d="M54.3958 84.3603C54.2924 84.4823 54.1893 84.6045 54.0859 84.727C54.1009 84.5817 54.1155 84.4367 54.1307 84.291C54.2351 84.2532 54.3235 84.2764 54.3958 84.3603Z" fill="#022DE9"/>
<path d="M38.5893 78.7863C37.9256 79.8851 37.2621 80.9833 36.5979 82.0814C35.5599 83.5719 34.6949 85.2318 33.4369 86.5049C32.21 87.7453 30.5814 88.5897 29.1289 89.6086C29.0848 85.2765 29.0692 80.9481 30.944 76.8867C31.5389 76.9321 32.1338 76.9773 32.728 77.0224C32.9747 77.0595 33.2209 77.0962 33.4675 77.1334C33.8499 77.1968 34.2322 77.2602 34.6139 77.3233C35.2184 77.4102 35.8222 77.4972 36.4266 77.5841C36.7938 77.6253 37.1611 77.6659 37.5283 77.7072C37.8819 78.067 38.2356 78.4265 38.5893 78.7863Z" fill="#0344FA"/>
<path d="M63.4329 76.2134C63.2455 76.2145 63.0582 76.2156 62.8706 76.2165C62.6276 75.9668 62.2438 75.7569 62.1628 75.4629C60.9782 71.1777 59.674 66.9476 57.0899 63.2406C57.0013 63.114 57.041 62.8984 57.0078 62.6085C60.9346 61.7755 64.8535 61.0073 68.7416 60.1041C75.2885 58.583 81.7473 56.7152 87.6989 53.5424C92.2715 51.1055 95.9747 47.5778 98.9135 43.2978C99.3929 42.5996 99.7635 41.8154 100.102 41.0353C102.791 34.8334 99.0121 31.4273 94.0662 31.8938C93.4592 31.9512 92.8469 31.9477 92.237 31.9722C92.1163 31.939 91.9977 31.9455 91.8818 31.9928C91.5086 31.9737 91.1351 31.9542 90.7615 31.9347C93.0221 30.8148 95.2714 29.6708 97.5553 28.6008C97.9209 28.4295 98.5438 28.4228 98.876 28.6239C101.005 29.9109 103.223 31.1057 105.155 32.6514C109.639 36.242 110.302 40.9489 108.613 46.1735C107.314 50.1952 105.25 53.768 101.745 56.2312C100.626 57.0176 99.0217 57.1105 97.6445 57.5369C95.4516 58.2156 93.1076 58.6121 91.1061 59.659C87.3489 61.6239 83.3348 62.1027 79.26 62.2774C75.1298 62.4542 70.9822 62.2297 66.8525 62.4151C65.6017 62.4709 64.3863 63.3048 63.1539 63.7825C62.1673 65.3053 62.2598 66.9079 62.8667 68.5141C63.5122 70.2226 64.2612 71.8941 64.8748 73.6137C65.0817 74.1941 65.0118 74.8728 65.0687 75.5067C64.6983 75.6409 64.3281 75.7744 63.9583 75.9086C63.7829 76.01 63.6081 76.1116 63.4329 76.2134Z" fill="#55873A"/>
<path d="M77.2734 63.7712C77.6467 63.5547 78.0034 63.1895 78.3957 63.1463C80.5816 62.9066 82.7901 62.8404 84.9624 62.5223C86.3958 62.3124 87.926 62.0356 89.1614 61.3428C92.9171 59.2363 96.9734 58.2643 101.172 57.7221C101.519 57.6774 101.924 58.0878 102.302 58.2862C101.737 59.4955 101.172 60.7046 100.607 61.914C99.102 62.9329 97.5612 63.9023 96.1063 64.987C95.101 65.7365 94.4403 65.8477 93.5447 64.7239C91.9908 62.7731 90.7463 62.5792 88.641 63.8904C87.1689 64.8077 85.8506 65.9723 84.4641 67.0262C84.2164 67.2698 83.9693 67.514 83.722 67.7581C83.1458 67.518 82.4983 67.3749 82.0085 67.0171C81.0282 66.3017 80.1339 65.4688 79.204 64.6846C78.9976 64.5489 78.7917 64.4128 78.5857 64.2766C78.1482 64.1084 77.7111 63.9397 77.2734 63.7712Z" fill="#AEABA6"/>
<path d="M64.4278 65.9818C64.2515 65.2507 64.0747 64.5193 63.8984 63.7883C64.8307 63.5638 65.7622 63.1554 66.6962 63.1497C69.3823 63.1336 72.0696 63.2724 74.7557 63.3794C74.9312 63.3864 75.0964 63.6365 75.2668 63.7737C75.1029 63.8325 74.9396 63.8914 74.7764 63.95C73.1382 65.5999 71.5149 67.2654 69.852 68.8905C69.2929 69.4372 68.6337 69.8823 68.0204 70.374C68.0204 70.374 68.0273 70.3821 68.028 70.3821C67.9023 70.2574 67.7768 70.1324 67.6511 70.0078L67.6587 70.0138C67.1689 69.5103 66.679 69.0066 66.1892 68.5031C65.6019 67.6627 65.0151 66.8222 64.4278 65.9818Z" fill="#AEABA6"/>
<path d="M104.992 56.6094C107.073 56.7405 109.153 56.8717 111.584 57.0249C111.139 57.6854 110.957 57.9557 110.775 58.226C107.749 59.7072 106.461 62.6706 104.745 65.2684C104.313 65.5207 103.881 65.7723 103.366 66.0724C103.153 65.3073 102.995 64.7369 102.836 64.1667C102.852 62.2186 102.868 60.2702 102.884 58.322C103.587 57.7508 104.289 57.1802 104.992 56.6094Z" fill="#E1C998"/>
<path d="M102.882 58.3197C102.866 60.2681 102.85 62.2162 102.834 64.1644H102.243C101.71 63.621 102.79 62.0645 101.053 62.277C100.904 62.1555 100.755 62.0339 100.605 61.9123C101.171 60.7032 101.736 59.4943 102.301 58.2852C102.494 58.2967 102.688 58.3082 102.882 58.3197Z" fill="#401F1B"/>
<path d="M74.7773 63.9478C74.9406 63.8889 75.1045 63.8308 75.2678 63.7719C75.9359 63.771 76.6046 63.7704 77.2733 63.7695C77.7108 63.9382 78.1478 64.1065 78.5855 64.2748C78.4457 64.4085 78.3061 64.5427 78.1665 64.6762C77.1812 64.5824 76.1962 64.4888 75.2109 64.395C75.0663 64.2463 74.9222 64.0969 74.7773 63.9478Z" fill="#2E1817"/>
<path d="M41.5786 61.2702C41.2069 61.224 40.835 61.1784 40.4628 61.1317C40.1011 61.0602 39.7398 60.9888 39.3781 60.918C33.8962 59.8429 28.6819 58.0805 24.8904 53.7682C23.5597 52.2549 22.5237 50.166 22.1676 48.1933C21.6752 45.4668 23.3476 43.8108 26.1725 43.6628C29.951 43.4648 33.7399 43.4799 37.5209 43.3267C43.4942 43.0846 49.5513 43.3102 55.4132 42.3581C61.8843 41.3066 68.1757 39.1518 74.545 37.4754C80.4358 35.9245 86.3257 34.3702 92.2163 32.8178C92.2756 32.8022 92.3342 32.7822 92.3945 32.7766C94.9356 32.5319 97.5449 32.33 99.2395 34.7232C100.835 36.9765 100.051 39.3654 98.8502 41.4612C95.2748 47.702 89.9978 51.9677 83.3115 54.666C74.8268 58.0897 65.9381 59.9289 57.034 61.7581C56.2311 61.9228 55.7 61.9098 55.8954 60.8748C59.5076 60.0042 63.169 59.296 66.7223 58.2297C74.75 55.8215 82.6248 52.9442 89.5114 48.0531C93.0491 45.5397 96.1921 42.5077 96.9225 37.8276C97.3189 35.2895 96.4046 34.0838 93.8581 34.1045C92.8246 34.1125 91.746 34.0858 90.7679 34.3587C84.8333 36.014 78.9201 37.7461 73.0031 39.4622C67.203 41.1442 61.4553 43.0392 55.5915 44.4589C51.3996 45.4744 47.0545 45.8587 42.7777 46.5243C42.4718 46.5283 42.1663 46.5324 41.8608 46.5363C40.693 46.5359 39.5253 46.5354 38.3573 46.5348C38.1694 46.5298 37.9821 46.5248 37.7947 46.5198C34.482 46.0369 31.1779 45.4763 27.8515 45.1211C26.925 45.0221 25.9335 45.5317 24.9719 45.7627C24.8388 45.8802 24.7046 45.9968 24.5704 46.1138C23.2245 47.8516 24.0294 49.514 24.9447 51.0034C26.4875 53.5155 28.8654 55.105 31.4847 56.3942C35.0521 58.1485 38.6215 59.8561 42.6839 60.1086C43.1883 60.3349 44.2483 60.2152 43.4132 61.2752C42.8018 61.2737 42.19 61.2717 41.5786 61.2702Z" fill="#A6512B"/>
<path d="M59.8443 78.3571C59.4821 78.4787 59.12 78.6003 58.7576 78.7219C58.0945 78.7957 57.4308 78.8695 56.5658 78.9655C56.5658 77.8838 56.6034 76.8777 56.5578 75.8748C56.4779 74.1229 55.7605 73.7256 54.2075 74.5851C53.4702 74.9935 52.7928 75.5105 52.0896 75.9777C50.0133 73.0399 49.6333 73.0002 46.4574 75.4603C45.9504 74.7339 45.4721 73.989 44.9332 73.2905C44.1831 72.3196 43.3839 72.1667 42.584 73.2634C41.939 74.1481 41.2633 75.0111 40.6393 75.9104C40.0375 76.7765 39.3618 76.9187 38.4714 76.3305C34.4459 73.6704 34.0153 73.2809 36.7327 69.4148C38.6217 66.7275 41.1903 64.5171 43.4555 62.0934C44.3498 61.3385 45.2446 60.5838 46.1389 59.8287C48.2373 58.4758 50.3865 57.5872 52.8004 59.0987C57.0962 63.8996 59.9639 69.4287 61.2736 75.7391C61.381 76.2582 61.2662 76.8227 61.2544 77.3668C61.0571 77.5733 60.8606 77.7798 60.6637 77.9863C60.396 78.12 60.1287 78.2531 59.8619 78.3862L59.8443 78.3571Z" fill="#E1C998"/>
<path d="M46.1375 59.8301C45.2434 60.5851 44.3487 61.3397 43.4544 62.0949C43.4407 61.8209 43.4268 61.5477 43.4131 61.2744C44.2481 60.2144 43.1882 60.3339 42.6836 60.1078C42.6897 59.9702 42.6958 59.833 42.7018 59.6953C43.5462 59.717 44.3912 59.7381 45.2358 59.7598C45.5363 59.7832 45.8372 59.8065 46.1375 59.8301Z" fill="#18150B"/>
<path d="M38.5884 78.7861C38.2347 78.4263 37.881 78.0668 37.5273 77.707C38.0423 77.8432 38.5573 77.9789 39.0717 78.115C39.0476 78.3406 39.0239 78.5666 39.0003 78.7926C38.8633 78.7907 38.7256 78.7881 38.5884 78.7861Z" fill="#041151"/>
<path d="M39 78.7911C39.0237 78.5649 39.0471 78.3389 39.0714 78.1133C39.3105 78.2444 39.5486 78.3756 39.7873 78.5067C39.5261 78.7269 39.2653 78.9464 39.0039 79.1659C39.0026 79.0408 39.0015 78.9162 39 78.7911Z" fill="#070707"/>
<path d="M33.4661 77.1305C33.2194 77.0933 32.9732 77.0567 32.7266 77.0195C32.9732 77.0567 33.2194 77.094 33.4661 77.1305Z" fill="#041151"/>
<path d="M98.7755 23.5566C95.2432 21.1038 91.2709 20.0399 87.0223 19.845C83.3483 17.6556 79.4057 16.9708 75.2434 17.937C72.3809 18.6016 70.3667 20.3504 69.342 23.1497C68.8532 23.4932 68.3393 23.8063 67.8816 24.1864C66.6955 25.1721 65.5344 26.1876 64.3633 27.1909C66.9912 20.5684 72.0457 17.0105 78.9278 15.9002C81.1339 15.5446 83.398 15.545 85.6358 15.3828C88.9258 15.4612 92.0412 16.2569 94.9475 17.7802C96.9886 18.8497 98.333 20.5363 98.9372 22.7793C98.8832 23.0385 98.8293 23.2978 98.7755 23.5566Z" fill="#C5ABE5"/>
<path d="M89.2954 14.3672C90.3021 14.7259 91.3093 15.0845 92.3161 15.4439L92.272 15.5062C91.2746 15.309 90.278 15.1117 89.2812 14.9143C89.2858 14.7315 89.2908 14.5496 89.2954 14.3672Z" fill="#496133"/>
<path d="M89.2932 14.3705C89.2887 14.5529 89.2837 14.7348 89.2791 14.9176C88.4762 14.8167 87.6736 14.7157 86.8711 14.6141C86.8837 14.4825 86.8963 14.3503 86.9089 14.2188C87.7037 14.2691 88.4984 14.3197 89.2932 14.3705Z" fill="#55873A"/>
<path d="M92.3143 15.4453C92.5468 15.4575 92.7795 15.469 93.0121 15.4811C92.9956 15.5649 92.9788 15.6494 92.9623 15.7339C92.7311 15.6579 92.5001 15.5821 92.2695 15.5072C92.27 15.5083 92.3143 15.4453 92.3143 15.4453Z" fill="#401F1B"/>
<path d="M121.621 81.0124C120.389 79.3766 121.197 77.5978 121.258 75.8711C122.095 76.255 123.311 76.4247 123.678 77.0728C124.209 78.0116 122.534 80.7838 121.621 81.0124Z" fill="#DD403D"/>
<path d="M124.285 83.0968C124.162 83.0075 124.04 82.9181 123.918 82.8282C124.719 82.6196 125.519 82.4116 126.318 82.2031C126.404 82.6211 126.489 83.0386 126.573 83.4557C126.265 83.7399 125.958 84.0247 125.651 84.3102C125.195 83.9057 124.74 83.5013 124.285 83.0968Z" fill="#AE2E38"/>
<path d="M110.599 53.1355C110.99 52.8578 111.381 52.5799 111.772 52.3027C112.401 51.9309 113.031 51.559 113.66 51.1869C114.54 50.5748 115.42 49.9626 116.3 49.3507C117.035 49.1597 117.771 48.9684 118.507 48.7773C117.066 51.0729 115.625 53.3687 114.183 55.6647C113.048 56.7357 111.866 57.1239 110.308 56.384C109.427 55.966 108.332 55.9956 106.957 55.7585C108.341 54.7617 109.471 53.949 110.599 53.1355Z" fill="#AEABA6"/>
<path d="M104.742 65.2689C106.458 62.6707 107.746 59.7075 110.772 58.2266C110.992 58.2709 111.212 58.3149 111.432 58.3597C108.553 60.1426 107.089 63.1338 105.133 65.704C105.002 65.5588 104.872 65.4137 104.742 65.2689Z" fill="#401F1B"/>
<path d="M54.7983 60.1759C54.3467 59.7771 53.8951 59.3783 53.4428 58.9792C52.6089 58.6055 51.7754 58.2323 50.9414 57.8585C50.6416 57.7987 50.3422 57.7395 50.0421 57.6796C48.4537 58.2946 46.8651 58.9099 45.2771 59.5244C44.418 59.5003 43.558 59.477 42.6984 59.4536C38.7541 59.0113 35.1671 57.5339 31.7147 55.6717C29.247 54.3403 26.7895 52.9925 25.4688 50.3248C27.1405 50.0831 28.8125 49.841 30.4843 49.5994C30.7431 49.6441 31.0024 49.6882 31.2612 49.7325C34.3377 50.249 37.4138 50.7649 40.4903 51.2814C40.9667 51.3637 41.4428 51.4462 41.9192 51.5284C44.2569 51.8168 46.5943 52.1058 48.932 52.3941C50.3908 52.3915 51.8492 52.3891 53.3082 52.3865C55.4459 51.7931 57.6729 51.4099 59.6994 50.5542C62.327 49.445 64.9156 48.6504 67.7809 49.196C68.0475 49.4797 68.3144 49.7631 68.5812 50.0468C69.5139 52.7211 68.8252 56.5386 66.9628 57.1048C62.9664 58.3203 58.8601 59.1742 54.7983 60.1759Z" fill="#E65E87"/>
<path d="M54.7996 60.175C58.8614 59.1732 62.9677 58.3193 66.9641 57.1039C68.8266 56.5377 69.5152 52.7201 68.5829 50.0455C68.7275 49.8998 68.8724 49.7541 69.017 49.6084C70.7105 51.9882 69.5802 54.3309 68.716 56.7869C75.2449 54.794 81.259 52.1782 86.9642 48.8885C90.23 47.005 92.9455 44.5143 94.7977 41.1398C95.7558 39.3945 96.8601 37.5045 95.8512 35.713C94.9113 34.0436 92.8756 34.8986 91.2846 35.0439C90.5616 35.1097 89.8462 35.3283 89.1429 35.5311C84.3362 36.9178 79.5288 38.3019 74.731 39.7195C68.825 41.4649 62.984 43.4632 57.0146 44.9524C48.2963 47.1272 39.4604 48.0652 30.4948 46.262C28.8089 45.9229 27.0103 46.1385 25.264 46.0983C25.1665 45.9856 25.0695 45.8727 24.9727 45.7596C25.9343 45.5295 26.9265 45.0201 27.8527 45.1191C31.1791 45.4739 34.4832 46.0345 37.7964 46.5178C37.9837 46.5228 38.1711 46.5278 38.3581 46.5323C39.5261 46.5328 40.6942 46.5339 41.8623 46.5343C42.1682 46.5304 42.4737 46.5263 42.7785 46.5217C47.0553 45.8562 51.4008 45.4717 55.5929 44.4569C61.4561 43.0372 67.2038 41.1422 73.0039 39.4598C78.9213 37.7437 84.8345 36.012 90.7687 34.3567C91.7472 34.0838 92.8259 34.1105 93.8587 34.1018C96.4052 34.0814 97.3202 35.2871 96.9237 37.8256C96.1929 42.5057 93.0504 45.5375 89.5122 48.0506C82.626 52.9418 74.7506 55.8195 66.7236 58.2277C63.1703 59.2937 59.5088 60.0022 55.8962 60.8728C55.5306 60.6403 55.1652 60.4076 54.7996 60.175Z" fill="#2E1817"/>
<path d="M50.9404 57.8586C51.7743 58.2325 52.6083 58.6057 53.4422 58.9793C53.2273 59.0195 53.0128 59.0599 52.7976 59.1001C50.3837 57.5883 48.2345 58.4769 46.1361 59.83C45.8356 59.8063 45.5346 59.7827 45.2344 59.7597C45.2628 59.6837 45.2765 59.6059 45.2754 59.525C46.864 58.9101 48.4525 58.2948 50.0411 57.6797C50.3409 57.739 50.6403 57.7989 50.9404 57.8586Z" fill="#2E1817"/>
<path d="M91.8828 31.9947C91.999 31.9474 92.1171 31.9404 92.238 31.9741C92.1195 31.981 92.0009 31.9877 91.8828 31.9947Z" fill="#181E16"/>
<path d="M64.4282 65.9805C65.0155 66.8209 65.6024 67.6614 66.1897 68.5018C66.1821 68.7711 66.174 69.0398 66.1664 69.3091C65.5427 68.5761 64.9187 67.8427 64.2947 67.1097C64.1907 66.9785 64.0867 66.8481 63.9827 66.7169V66.7108C63.9571 66.4883 63.9319 66.2653 63.9062 66.0421C64.0806 66.0215 64.2545 66.0009 64.4282 65.9805Z" fill="#401F1B"/>
<path d="M63.9053 66.043C63.9305 66.2662 63.9561 66.4887 63.9817 66.7117C63.8417 67.101 63.7019 67.4909 63.5618 67.8806C63.4266 67.3059 63.2915 66.7312 63.1562 66.1561C63.4059 66.1183 63.6556 66.0807 63.9053 66.043Z" fill="#AE2E38"/>
<path d="M66.4219 75.2266C66.6937 75.5891 66.9653 75.9519 67.2371 76.3147C66.9649 75.9524 66.6937 75.5891 66.4219 75.2266Z" fill="#AE2E38"/>
<path d="M63.4336 76.215C63.6088 76.1132 63.7836 76.0115 63.959 75.9102C63.7836 76.0115 63.6088 76.1136 63.4336 76.215Z" fill="#18150B"/>
<path d="M59.8594 78.3886C60.1266 78.2556 60.3939 78.122 60.6612 77.9883C60.6501 78.1301 60.6382 78.2716 60.626 78.4134C60.3705 78.4047 60.1151 78.3967 59.8594 78.3886Z" fill="#181E16"/>
<path d="M77.2266 87.8984C77.2622 88.027 77.298 88.1555 77.3332 88.2832C77.2969 88.1546 77.2617 88.0265 77.2266 87.8984Z" fill="#401F1B"/>
<path d="M77.3568 90.5898C77.3171 90.7299 77.2778 90.8701 77.2383 91.0108C77.2778 90.8706 77.3175 90.7305 77.3568 90.5898Z" fill="#401F1B"/>
<path d="M97.2513 69.8247C93.363 71.3454 89.4931 72.9154 85.574 74.3523C84.5779 74.717 83.377 74.9285 82.3548 74.7442C79.2561 74.1844 76.1985 73.3957 73.125 72.6963C73.1311 72.5441 73.1369 72.3919 73.1426 72.2397C76.0845 72.8607 79.026 73.4816 81.9679 74.103C82.5747 74.1035 83.1822 74.1045 83.7891 74.105C84.6777 73.8538 85.5664 73.6026 86.7792 73.26C85.7253 72.1205 84.9339 71.2647 84.1428 70.409C84.2785 70.2718 84.4135 70.1348 84.5485 69.9976C85.1675 70.5506 85.8584 71.0441 86.3884 71.672C87.064 72.4718 87.5875 72.6229 88.6718 72.1698C91.0998 71.1535 93.6594 70.4487 96.1653 69.6172C96.5275 69.686 96.8892 69.7555 97.2513 69.8247Z" fill="#401F1B"/>
<path d="M97.254 69.8255C96.8919 69.7563 96.5302 69.6868 96.168 69.618C95.2401 68.3255 94.3308 67.0187 93.3792 65.7438C91.6772 63.4634 90.7979 63.3247 88.3825 64.9404C87.1868 65.7401 86.0148 66.5762 84.8326 67.3956C84.7102 67.2725 84.5875 67.1494 84.4648 67.0263C85.852 65.9722 87.1697 64.8078 88.6421 63.8905C90.7473 62.5791 91.9916 62.773 93.5459 64.7238C94.4413 65.8482 95.1018 65.7366 96.1072 64.9871C97.5621 63.9024 99.1028 62.9328 100.607 61.9141C100.757 62.035 100.906 62.1566 101.055 62.2782C99.1666 63.6703 97.2788 65.0625 94.9044 66.8126C96.1991 67.7501 97.137 68.4295 98.0754 69.1086C98.0886 69.288 98.1017 69.4677 98.1147 69.6471C97.8279 69.7063 97.5409 69.7663 97.254 69.8255Z" fill="#2E1817"/>
<path d="M68.0234 70.373C68.6368 69.8817 69.296 69.4366 69.855 68.8895C71.5175 67.2644 73.1413 65.5989 74.7794 63.9492C74.9236 64.0977 75.0678 64.2471 75.2126 64.3963C73.4702 66.2732 71.7133 68.1374 69.9918 70.0334C69.2451 70.8548 69.7169 71.2899 70.5785 71.5305C70.6086 71.727 70.6392 71.9234 70.6701 72.1204C69.7877 71.5376 68.9056 70.9553 68.0234 70.373Z" fill="#2E1817"/>
<path d="M104.742 65.2661C104.872 65.411 105.002 65.556 105.132 65.7012C104.32 66.3654 103.506 67.0296 102.693 67.6922C102.568 67.5469 102.443 67.4034 102.319 67.2601C102.293 66.2277 102.268 65.1958 102.242 64.1641H102.833C102.992 64.7342 103.15 65.3044 103.364 66.0699C103.878 65.7696 104.31 65.518 104.742 65.2661Z" fill="#2E1817"/>
<path d="M78.6241 77.0345C77.0989 77.1274 75.5717 77.1967 74.0495 77.3243C73.3658 77.3816 72.6914 77.5549 72.0134 77.676C71.7924 77.9285 71.5707 78.1813 71.3492 78.4336C70.9474 77.3443 71.308 76.8671 72.488 76.9088C74.5324 76.9806 76.5785 76.9958 78.6241 77.0345Z" fill="#18150B"/>
<path d="M98.1129 69.6481C98.0998 69.4681 98.0868 69.2888 98.0742 69.1094C99.3126 68.6025 100.551 68.0962 101.789 67.5898C101.964 67.7049 102.139 67.8198 102.314 67.9355C100.914 68.5061 99.513 69.0773 98.1129 69.6481Z" fill="#401F1B"/>
<path d="M66.168 69.3111C66.1754 69.0419 66.1834 68.7731 66.191 68.5039C66.6808 69.0074 67.1706 69.5111 67.6604 70.0146C67.163 69.7799 66.6652 69.5458 66.168 69.3111Z" fill="#2E1817"/>
<path d="M70.6702 72.1212C70.6393 71.9247 70.6087 71.7277 70.5781 71.5312C71.0736 71.6761 71.5688 71.8207 72.0643 71.9655C72.038 72.1411 72.012 72.3166 71.9863 72.4924C71.5478 72.3682 71.1088 72.2447 70.6702 72.1212Z" fill="#496133"/>
<path d="M71.9844 72.4913C72.0106 72.3159 72.0363 72.1401 72.0623 71.9648C72.3146 72.0302 72.5662 72.096 72.8174 72.1618L72.9692 72.2477L73.1383 72.2089L73.1444 72.2397C73.1383 72.3919 73.1325 72.5441 73.1264 72.6963C72.7456 72.6279 72.3652 72.5597 71.9844 72.4913Z" fill="#18150B"/>
<path d="M86.3024 76.8359C86.0506 76.8722 85.7989 76.9078 85.5469 76.9441C85.7985 76.9078 86.0502 76.8718 86.3024 76.8359Z" fill="#401F1B"/>
<path d="M102.314 67.9343C102.139 67.8195 101.964 67.7038 101.789 67.5887C101.966 67.4797 102.142 67.3707 102.319 67.2617C102.444 67.405 102.568 67.5485 102.693 67.6938C102.567 67.7752 102.44 67.8551 102.314 67.9343Z" fill="#2E1817"/>
<path d="M19.6472 26.5275C19.7627 26.4029 19.8783 26.2789 19.994 26.1543C20.3711 25.97 20.8173 25.8603 21.1158 25.5887C24.8776 22.1648 29.3677 20.2954 34.3067 19.3627C39.1668 18.6512 44.0098 18.3909 48.7848 19.9148C50.0523 20.7512 51.3199 21.5881 52.5874 22.4247C53.5234 23.9041 54.4594 25.3831 55.3953 26.8621C54.5599 26.397 53.7133 25.9504 52.8909 25.463C50.6155 24.1156 48.2885 22.9506 45.5229 23.1972C45.5229 23.1972 45.5646 23.2595 45.5646 23.2591C45.4601 23.2039 45.3566 23.149 45.2526 23.0947C40.2971 20.7136 35.3593 20.5121 30.3263 22.9712C27.9667 24.1243 26.5941 25.9624 25.703 28.2994C24.7349 28.9857 23.6242 29.5389 22.8284 30.3863C21.1569 32.1678 19.6503 34.1044 18.0762 35.9768C16.5596 33.4242 17.3389 30.9617 18.4164 28.5376C18.733 27.8263 19.2317 27.1952 19.6472 26.5275Z" fill="#C5ABE5"/>
<path d="M64.3637 27.1875C64.2089 27.5355 64.0537 27.8838 63.8984 28.2318C64.0537 27.8838 64.2085 27.5355 64.3637 27.1875Z" fill="#C5ABE5"/>
<path d="M51.136 19.8301C51.0832 19.8913 51.0305 19.953 51.1812 19.7773C51.0122 19.935 51.0715 19.8798 51.1303 19.8245L51.136 19.8301Z" fill="#496133"/>
<path d="M91.1187 89.0888C91.0312 88.95 90.9424 88.813 90.8634 88.6698C90.8599 88.6632 90.9504 88.6051 90.9971 88.5703C91.0534 88.7297 91.1096 88.8888 91.1665 89.0475C91.1673 89.0471 91.1187 89.0888 91.1187 89.0888Z" fill="#E1A63B"/>
<path d="M103.265 86.1367C102.39 86.3187 101.514 86.501 100.147 86.7855C99.5256 84.9667 98.8543 83.0009 98.1836 81.0352C98.4619 80.8788 98.7409 80.7227 99.0197 80.5664C100.429 82.4293 101.838 84.2921 103.247 86.155L103.265 86.1367Z" fill="#E1A63B"/>
<path d="M84.5504 69.9977C84.4154 70.1349 84.2801 70.2722 84.1446 70.4092C82.3701 68.6434 80.5952 66.8775 78.8203 65.1115C78.9484 64.9689 79.0765 64.8262 79.2046 64.6836C80.1341 65.4678 81.0284 66.3013 82.0084 67.0167C82.4983 67.3743 83.1459 67.5176 83.7221 67.7571C83.8381 67.8698 83.9536 67.9818 84.0693 68.0938C84.23 68.7282 84.3902 69.3633 84.5504 69.9977Z" fill="#2E1817"/>
<path d="M83.7227 67.7595C83.9697 67.5152 84.2175 67.2716 84.4645 67.0273C84.5872 67.1504 84.7099 67.2736 84.8323 67.3967C84.5781 67.6298 84.3241 67.8628 84.0698 68.096C83.9543 67.9835 83.8382 67.8715 83.7227 67.7595Z" fill="#2E1817"/>
<path d="M78.5864 64.2773C78.7924 64.4135 78.9989 64.5496 79.2053 64.6853C79.0772 64.8275 78.9492 64.9702 78.8211 65.1128C78.6035 64.9682 78.3855 64.8234 78.168 64.6788C78.3071 64.5446 78.4467 64.4111 78.5864 64.2773Z" fill="#2E1817"/>
<path d="M102.319 67.2606C102.143 67.3699 101.966 67.4788 101.789 67.5878C100.551 68.0941 99.3124 68.6011 98.0735 69.1074C97.1356 68.4283 96.197 67.7492 94.9023 66.8121C97.2772 65.0613 99.1652 63.6691 101.053 62.2776C102.791 62.0651 101.71 63.6209 102.243 64.1646C102.268 65.1965 102.293 66.2289 102.319 67.2606Z" fill="#E1C998"/>
<path d="M78.1656 64.6759C78.3835 64.8205 78.6011 64.9653 78.8191 65.1106C80.594 66.8764 82.3685 68.6417 84.1434 70.4075C84.9346 71.2636 85.7257 72.1193 86.7794 73.2587C85.567 73.6013 84.6784 73.853 83.7897 74.1042C83.1827 74.1031 82.5754 74.1022 81.9685 74.1016C79.0266 73.4806 76.0851 72.8592 73.1432 72.2383L73.1376 72.2072C73.0312 72.1916 72.9235 72.176 72.8167 72.1599C72.5648 72.0945 72.3132 72.0287 72.0616 71.963C71.5657 71.8184 71.0702 71.6735 70.5754 71.529C69.7139 71.2888 69.2425 70.8533 69.9888 70.0317C71.7109 68.1363 73.4672 66.2719 75.21 64.3945C76.195 64.4885 77.1803 64.5819 78.1656 64.6759Z" fill="#E1C998"/>
<path d="M25.4688 50.3253C26.789 52.993 29.2472 54.3409 31.7148 55.6722C35.1667 57.5349 38.7543 59.0126 42.698 59.4546C42.693 59.5349 42.6945 59.6153 42.7015 59.6956C42.6954 59.8335 42.6893 59.9711 42.6834 60.1081C38.6212 59.8554 35.0516 58.1478 31.4848 56.3935C28.8649 55.1045 26.487 53.515 24.9442 51.0029C24.0289 49.5135 23.224 47.8511 24.5706 46.1133C24.6941 46.2153 24.8176 46.3174 24.9412 46.4188C24.974 47.4909 25.0065 48.5623 25.0391 49.6345C25.1824 49.8646 25.3255 50.0952 25.4688 50.3253Z" fill="#2E1817"/>
<path d="M42.7758 46.5234C42.4703 46.5273 42.1653 46.5319 41.8594 46.5358C42.1644 46.5315 42.4703 46.5273 42.7758 46.5234Z" fill="#401F1B"/>
<path d="M24.5703 46.1134C24.7045 45.9964 24.838 45.8794 24.9718 45.7617C25.0682 45.8744 25.1656 45.9873 25.2625 46.1C25.1557 46.2064 25.0486 46.313 24.9416 46.4189C24.8174 46.3169 24.6939 46.2155 24.5703 46.1134Z" fill="#2E1817"/>
<path d="M38.3551 46.5341C38.1681 46.5291 37.9808 46.5245 37.793 46.5195C37.9797 46.5241 38.1677 46.5291 38.3551 46.5341Z" fill="#401F1B"/>
<path d="M42.7018 59.6948C42.6949 59.6144 42.6934 59.5337 42.6979 59.4531C43.5583 59.4768 44.4179 59.5005 45.2775 59.5241C45.2781 59.6055 45.264 59.6839 45.2358 59.7593C44.3908 59.7375 43.5464 59.7165 42.7018 59.6948Z" fill="#AE2E38"/>
<path d="M67.7815 49.197C64.9165 48.651 62.3274 49.4463 59.7003 50.5549C57.6737 51.411 55.4465 51.7944 53.3086 52.3876C53.3105 52.1811 53.3129 51.9746 53.3151 51.7681C56.4077 50.7182 59.4942 49.6497 62.5959 48.6258C64.6101 47.9606 66.6167 47.7215 68.4789 49.098C68.2464 49.1313 68.0143 49.1638 67.7815 49.197Z" fill="#401F1B"/>
<path d="M40.4911 51.2818C37.4143 50.7653 34.3382 50.2494 31.2617 49.7329C31.2687 49.5527 31.2752 49.3723 31.2823 49.1914C34.3508 49.7023 37.42 50.2131 40.4885 50.7236C40.4896 50.9101 40.49 51.0959 40.4911 51.2818Z" fill="#401F1B"/>
<path d="M48.9308 52.3937C46.5931 52.1053 44.2557 51.8164 41.918 51.528C41.9225 51.3559 41.9271 51.1839 41.9321 51.0117C44.2641 51.2664 46.5966 51.5206 48.9293 51.7753C48.9297 51.9811 48.9302 52.1876 48.9308 52.3937Z" fill="#401F1B"/>
<path d="M48.9312 52.3927C48.9306 52.1866 48.9301 51.9801 48.9297 51.7743C50.3911 51.7713 51.8521 51.7687 53.3135 51.7656C53.3113 51.9721 53.3093 52.1786 53.3074 52.3851C51.8484 52.3877 50.39 52.3903 48.9312 52.3927Z" fill="#070707"/>
<path d="M25.4687 50.3237C25.3254 50.0935 25.1824 49.8629 25.0391 49.6328C25.7838 49.4932 26.5283 49.354 27.2732 49.2148C28.3433 49.3429 29.4139 49.4706 30.4845 49.5987C28.8125 49.8404 27.1405 50.082 25.4687 50.3237Z" fill="#401F1B"/>
<path d="M30.4852 49.5998C29.4146 49.4717 28.344 49.344 27.2734 49.2159C28.6098 49.2075 29.9461 49.1994 31.2825 49.1914C31.2755 49.3716 31.2684 49.552 31.2619 49.7329C31.0033 49.6882 30.744 49.6439 30.4852 49.5998Z" fill="#070707"/>
<path d="M41.9332 51.0116C41.9286 51.1834 41.9241 51.3551 41.9191 51.5275C41.4434 51.4457 40.967 51.3627 40.4907 51.2802C40.4898 51.0944 40.4891 50.9085 40.4883 50.7227C40.9701 50.8191 41.4514 50.915 41.9332 51.0116Z" fill="#070707"/>
<path d="M67.7812 49.1967C68.014 49.1634 68.2461 49.1309 68.4786 49.0977C68.6575 49.2685 68.8369 49.4392 69.0158 49.61C68.871 49.7557 68.7268 49.9014 68.5815 50.0471C68.3149 49.7638 68.0481 49.48 67.7812 49.1967Z" fill="#2E1817"/>
<path d="M69.0155 49.6075C68.8366 49.4366 68.6572 49.2664 68.4785 49.0956C66.6161 47.7184 64.6095 47.9581 62.5956 48.6229C59.4939 49.6466 56.4071 50.7157 53.3141 51.7652C51.8531 51.7683 50.3917 51.7706 48.9303 51.7737C46.5976 51.519 44.2656 51.2648 41.9331 51.0105C41.4513 50.9141 40.97 50.8177 40.4882 50.7213C37.4193 50.2109 34.3505 49.6998 31.2816 49.1889C29.9457 49.1976 28.6094 49.2056 27.273 49.2137C26.5285 49.3533 25.784 49.4925 25.0395 49.6316C25.0068 48.5599 24.9742 47.4878 24.9414 46.4164C25.0484 46.3104 25.1555 46.2038 25.2625 46.0974C27.0092 46.138 28.8074 45.922 30.4933 46.2611C39.4593 48.064 48.2952 47.1261 57.0135 44.9515C62.9829 43.4629 68.8235 41.4639 74.7295 39.7186C79.5273 38.3008 84.3351 36.9169 89.1419 35.5302C89.8453 35.3272 90.5601 35.1088 91.2831 35.043C92.8741 34.8977 94.9102 34.0427 95.8503 35.7121C96.859 37.5035 95.7548 39.3935 94.7966 41.1387C92.944 44.5138 90.2292 47.0041 86.9631 48.8876C81.258 52.1771 75.2434 54.7931 68.7145 56.786C69.5787 54.3298 70.709 51.9878 69.0155 49.6075Z" fill="#DE91A8"/>
<path d="M84.0703 68.0942C84.3246 67.861 84.5784 67.6278 84.8326 67.3948C86.0152 66.5754 87.1866 65.74 88.3824 64.9401C90.7979 63.3246 91.6774 63.4631 93.3791 65.7434C94.331 67.0186 95.2398 68.3252 96.1682 69.6172C93.6625 70.4492 91.1027 71.1542 88.6742 72.1699C87.5906 72.6236 87.0672 72.4723 86.3915 71.6727C85.8609 71.0445 85.1707 70.5513 84.5512 69.998C84.391 69.3636 84.2308 68.7286 84.0703 68.0942Z" fill="#E1C998"/>
<path d="M81.9688 74.1016C82.576 74.1024 83.1829 74.1031 83.7904 74.104C83.1829 74.1031 82.5756 74.1024 81.9688 74.1016Z" fill="#496133"/>
<path d="M72.8164 72.1602C72.9234 72.1758 73.0309 72.1919 73.138 72.2075C73.1375 72.2075 72.9677 72.2461 72.9677 72.2461L72.8164 72.1602Z" fill="#496133"/>
<path fill-rule="evenodd" clip-rule="evenodd" d="M126.01 70.4657C125.764 70.4668 125.563 70.2677 125.563 70.0217C125.562 69.7757 125.761 69.5751 126.007 69.5742C126.007 69.5742 129.526 69.5627 132.503 70.5786C134.389 71.2224 136.042 72.291 136.588 73.955C136.955 75.0716 136.841 76.4735 135.917 78.2235C133.708 82.4088 131.478 83.9471 129.828 84.4642C128.044 85.0231 126.858 84.4293 126.858 84.4293C126.636 84.3227 126.543 84.0561 126.65 83.8344C126.756 83.6127 127.023 83.5194 127.245 83.6262C127.245 83.6262 131.122 85.397 135.129 77.8073C135.904 76.3387 136.049 75.1702 135.741 74.2331C135.276 72.8173 133.82 71.9701 132.214 71.4223C129.372 70.452 126.01 70.4657 126.01 70.4657Z" fill="black"/>
</svg>
