<svg width="150" height="110" viewBox="0 0 150 110" fill="none" xmlns="http://www.w3.org/2000/svg">
<g clip-path="url(#clip0_1054_5450)">
<path d="M89.2343 109.853L91.4254 109.736C91.9111 109.774 92.3973 109.844 92.8832 109.844C102.256 109.849 111.628 109.846 120.999 109.844H124.528V0.404221H25.4269V109.833H28.9218C29.4641 109.867 30.0063 109.931 30.5484 109.931C47.8941 109.936 65.2395 109.936 82.5854 109.932C83.074 109.932 83.5626 109.882 84.0511 109.856C84.3934 109.874 84.7357 109.892 85.0781 109.911C86.4633 109.891 87.8487 109.872 89.2343 109.853ZM124.956 110.478H25V0H124.956V110.478Z" fill="#F5F9F3"/>
<path d="M55.1457 32.9384C55.1457 37.7451 55.2098 42.5527 55.1165 47.3573C55.075 49.4805 56.0997 49.6643 57.6551 49.3686C59.4647 49.0251 61.295 48.784 63.1213 48.5369C66.6709 48.0571 70.227 47.6231 73.7755 47.1348C78.2862 46.5142 82.7918 45.8525 87.3013 45.2216C89.9334 44.8533 92.5712 44.5219 95.2031 44.1516C97.9951 43.7591 100.782 43.3286 103.574 42.9363C106.261 42.5593 108.958 42.2562 111.638 41.8336C113.533 41.5351 113.783 41.1741 113.784 39.2396C113.791 29.6811 113.767 20.1226 113.813 10.564C113.82 9.00766 113.411 8.32711 111.507 8.57407C109.893 8.78362 108.284 9.02274 106.673 9.25364C103.023 9.77654 99.3734 10.2979 95.7249 10.8284C92.9353 11.234 90.1488 11.6645 87.358 12.0614C84.7804 12.4283 82.1995 12.7726 79.6179 13.1133C76.7666 13.4899 73.9107 13.835 71.0609 14.224C68.2663 14.6051 65.4771 15.0289 62.6843 15.4249C60.9112 15.6763 59.1223 15.8428 57.3637 16.17C54.9861 16.6119 55.1352 17.0725 55.1406 18.8466C55.1553 23.5437 55.1453 28.241 55.1457 32.9384ZM120.998 109.842C111.626 109.843 102.254 109.847 92.882 109.842C92.3957 109.842 91.9094 109.771 91.4238 109.734C91.9261 108.965 92.4059 108.181 92.9357 107.431C96.1375 102.902 98.5669 97.9724 100.364 92.7436C101.054 90.7372 102.125 89.2034 103.954 88.0918C105.251 87.3037 106.455 86.3268 107.579 85.3006C108.659 84.3147 109.646 83.2072 110.554 82.058C111.162 81.2876 111.531 80.3497 110.749 79.3759C108.264 79.0646 106.309 80.5749 103.926 81.3612C104.115 80.7927 104.233 80.4525 104.341 80.109C104.84 78.5211 105.049 76.9134 104.609 75.2756C104.369 74.3811 103.949 73.6534 102.892 73.6281C100.861 74.5721 99.8264 76.2754 99.3051 78.4819C97.8547 77.2904 97.6753 74.8287 95.5529 74.9522C94.2351 75.0294 93.7997 76.3414 94.1137 77.6067C94.5841 79.5056 95.1481 81.3826 95.7114 83.2574C96.068 84.442 95.9519 85.4749 95.1315 86.4645C93.2907 88.6848 91.5511 90.9896 89.6829 93.1864C86.9589 96.3891 83.7107 99.0304 80.4552 101.676C79.3929 101.026 78.7292 100.269 78.7206 99.0169C78.712 97.8256 79.3257 97.1767 80.2816 96.57C82.4471 95.1948 83.319 91.5225 81.0813 89.4497C80.5891 88.9934 80.2313 88.3922 79.9262 88.004C81.1802 86.942 82.3194 86.043 83.3799 85.0591C84.3898 84.1226 84.3642 83.5915 83.6993 82.3577C83.2673 81.5557 82.5695 80.5722 82.7375 79.842C83.0415 78.5207 83.6458 77.0601 84.5947 76.1449C85.9634 74.8249 86.9501 73.3099 87.9375 71.7504C88.4522 70.9376 88.6669 70.0538 88.5768 69.0981C88.2542 65.6724 86.853 62.8707 83.6206 61.3891C81.6042 60.4653 79.4771 59.724 77.3311 59.1624C75.9539 58.8022 74.7393 58.4513 73.9387 57.1765C73.7213 56.8301 73.2885 56.6009 72.922 56.3692C70.1988 54.6466 67.1876 53.9984 64.0165 54.2118C60.9772 54.4165 58.1607 55.3771 55.6189 57.106C54.7646 57.6871 53.8876 58.273 52.9425 58.6694C51.9878 59.0703 50.9754 59.6316 49.875 59.0129C49.892 58.3584 49.924 57.7041 49.924 57.05C49.9271 42.9048 49.9263 28.76 49.9263 14.6149V12.8744C51.6877 12.6092 53.2429 12.3597 54.803 12.1431C58.412 11.642 62.0247 11.161 65.6345 10.6631C69.9985 10.0619 74.3613 9.45164 78.7249 8.8457C81.6343 8.44207 84.5436 8.03491 87.4542 7.63774C91.7669 7.04943 96.0815 6.47423 100.394 5.88259C103.897 5.40179 107.398 4.90181 110.901 4.41729C113.808 4.01522 116.716 3.62315 119.624 3.22656C120.044 3.27592 120.464 3.32586 121.016 3.39107V5.38534C121.016 35.074 121.016 64.7629 121.015 94.4518C121.014 99.5817 121.004 104.712 120.998 109.842Z" fill="#ADADAC"/>
<path d="M120.999 109.846C121.005 104.716 121.015 99.5862 121.015 94.4561C121.017 64.7672 121.017 35.0784 121.017 5.38968V3.39541C120.464 3.33019 120.044 3.28045 119.624 3.23051C119.057 3.14786 118.489 2.99256 117.921 2.99217C88.7167 2.98002 59.5125 2.98081 30.3084 2.98551C29.8922 2.98551 29.476 3.05777 28.9609 3.10517V4.65801C28.9613 22.5136 28.9613 40.3691 28.9668 58.2247C28.9668 58.7125 29.0297 59.2 29.0628 59.6878C29.0503 60.1171 29.0375 60.5468 29.025 60.9761C29.008 61.0822 28.9905 61.1882 28.9735 61.2945C28.9641 61.5121 28.9459 61.7295 28.9459 61.9469C28.9439 75.1904 28.9427 88.4333 28.9455 101.677C28.9459 102.111 28.9862 102.545 29.008 102.979C29.0123 103.284 29.0166 103.589 29.0213 103.893C28.9878 105.874 28.9541 107.855 28.921 109.835H25.4258V0.40625H124.527V109.846H120.999Z" fill="#6A9ABD"/>
<path d="M76.7305 74.4228C76.2317 73.9226 75.9712 73.4455 75.6079 73.3472C75.0474 73.1956 74.747 73.657 74.7008 74.2069C74.6536 74.7629 74.9055 75.2457 75.4617 75.2177C75.8245 75.1995 76.1677 74.7939 76.7305 74.4228ZM73.8994 72.9569C74.7067 72.9894 75.3806 72.3897 75.3181 71.886C75.2501 71.3363 74.8825 71.0157 74.3422 71.0137C73.7181 71.011 73.2821 71.4236 73.314 71.9996C73.335 72.3715 73.7453 72.7217 73.8994 72.9569ZM51.1559 78.3073C51.0829 77.6689 50.7966 77.283 50.1277 77.3157C49.5124 77.3459 49.1092 77.642 49.0882 78.2867C49.0688 78.8843 49.634 79.3784 50.2376 79.3496C50.9239 79.3173 51.1299 78.8784 51.1559 78.3073ZM49.681 74.5005C48.789 74.4621 48.2588 74.9836 48.2739 75.5982C48.2894 76.2216 48.6066 76.6078 49.2273 76.6936C49.861 76.7813 50.3722 76.3158 50.2678 75.6006C50.2041 75.1658 49.8365 74.7757 49.681 74.5005ZM48.2639 73.5297C49.1922 73.5352 49.8083 73.0033 49.785 72.2166C49.7641 71.516 48.9936 70.8045 48.2502 70.7991C47.5217 70.7936 46.9018 71.3797 46.8607 72.1134C46.8145 72.9388 47.3951 73.5246 48.2639 73.5297ZM74.5884 69.4701C75.4526 69.4779 76.1214 68.8953 76.1048 68.1489C76.0897 67.4656 75.4873 66.9402 74.6783 66.9045C73.8982 66.8706 73.3109 67.3935 73.2837 68.1454C73.2563 68.9037 73.807 69.4626 74.5884 69.4701ZM53.0384 75.918C53.9739 75.8978 54.7056 75.0912 54.714 74.07C54.7207 73.2115 53.7716 72.1921 52.9802 72.2078C52.171 72.2236 51.2983 73.2408 51.3267 74.1341C51.3608 75.1971 52.0723 75.9386 53.0384 75.918ZM78.5703 68.1965C77.6097 68.1562 76.7456 69.0467 76.7305 70.0931C76.716 71.1177 77.5781 72.0652 78.5156 72.0544C79.3777 72.0446 80.2475 71.1551 80.2996 70.2301C80.3554 69.2411 79.4999 68.2355 78.5703 68.1965ZM83.4051 73.5428C84.587 72.826 85.4792 72.4177 86.2113 71.8157C88.3074 70.0919 87.7841 67.2281 85.2399 66.2504C84.7344 66.0563 84.2253 65.8603 83.7031 65.7214C81.6863 65.1872 79.6529 64.7685 77.4871 65.0325C81.6595 66.156 83.3363 69.0807 83.4051 73.5428ZM59.9031 94.6146C60.6367 94.6636 61.3956 94.9407 62.1707 94.3545C62.1044 94.0549 62.0376 93.7525 61.9708 93.4497C62.308 93.4458 62.6455 93.4417 62.9827 93.4374C65.4078 95.7534 68.0112 94.8328 69.4974 91.1131C69.2855 90.0981 68.6745 89.5186 67.6056 89.4212C66.7944 89.3474 65.9873 89.1774 65.1765 89.1651C61.4675 89.1098 57.7921 88.7559 54.1535 88.0301C54.0444 87.9796 53.9357 87.9291 53.8266 87.8784C52.3944 87.5638 50.9622 87.2487 49.5296 86.934C49.7838 86.7873 50.0377 86.6412 50.2915 86.4945C51.3682 86.6735 52.445 86.8525 53.5217 87.0321C53.6333 87.0846 53.7444 87.1377 53.8558 87.1902C54.9453 87.3259 56.035 87.4618 57.1244 87.5973C57.3655 87.6622 57.6072 87.727 57.8483 87.7922C62.3147 87.9246 66.7811 88.159 71.2467 88.148C73.6207 88.1422 76.0294 87.8631 78.3045 87.0915C79.5744 86.6606 80.7933 86.0316 81.9595 85.36C82.7421 84.9086 82.9268 84.1378 82.4029 83.2069C81.9891 83.3701 81.606 83.4472 81.308 83.6495C78.3067 85.6853 74.7987 86.1759 71.374 86.4434C64.335 86.9934 57.3506 86.3649 50.5698 84.2173C48.1912 83.4639 45.8255 82.6636 43.4842 81.8027C42.2907 81.364 41.5081 81.7953 40.7843 82.6685C40.053 83.5516 39.7774 84.5007 40.4116 85.52C40.8681 86.2546 41.3299 87.0458 41.9754 87.5922C44.0055 89.3098 45.9935 91.1317 48.2343 92.5345C53.0233 95.5337 57.955 98.2406 63.778 98.8178C68.1191 99.2479 72.3607 98.9794 76.4922 97.6263C77.9753 97.1406 79.4157 96.414 80.4878 95.1633C81.5998 93.8655 81.8005 91.6628 80.825 90.4866C80.3041 89.8587 79.7154 89.2738 79.0908 88.7489C78.2038 88.0033 77.4702 88.0658 76.6116 88.8517C77.2761 89.3936 77.9587 89.9142 78.5998 90.4805C79.8497 91.5851 79.7604 92.3559 78.2916 93.4548C78.4113 92.9315 78.5311 92.4084 78.6903 91.7124C77.7125 90.7786 76.7006 89.8121 75.8261 88.9768C73.7968 89.1153 72.0328 89.2354 70.0102 89.3734C70.9913 91.0534 70.3149 92.2065 69.4702 93.3342C69.1966 93.699 68.7195 94.0277 69.1077 94.6651C72.1057 95.0731 74.8479 93.9389 77.6627 93.076C77.8588 93.2429 78.0607 93.4145 78.2628 93.5856C75.2715 94.9297 72.1131 95.5744 68.8584 95.7197C66.9107 95.8063 64.9525 95.8226 63.0068 95.719C61.7949 95.6545 60.5975 95.3083 59.3939 95.0881C59.5635 94.9305 59.7335 94.7722 59.9031 94.6146ZM29.0252 103.892C29.0207 103.588 29.016 103.283 29.0117 102.978C29.205 102.942 29.3983 102.906 29.5916 102.87C29.9204 102.883 30.2494 102.897 30.5783 102.91L30.7379 102.946L30.9 102.927C31.3246 102.961 31.749 102.994 32.1732 103.028C32.3117 103.097 32.4499 103.228 32.5878 103.227C34.9656 103.221 37.3433 103.2 39.7214 103.181C40.6056 103.097 41.4899 103.013 42.3741 102.929C42.5907 102.927 42.8073 102.925 43.0239 102.923C44.2274 102.902 45.4302 102.881 46.6331 102.86C47.08 102.798 47.5271 102.735 47.9743 102.673C48.6194 102.652 49.2645 102.631 49.9096 102.61C50.127 102.605 50.3443 102.6 50.5619 102.595C51.4426 102.579 52.3233 102.562 53.2037 102.545C53.5178 102.539 53.8321 102.533 54.1463 102.527C54.7032 102.539 55.2598 102.552 55.8168 102.564C55.9533 102.482 56.09 102.399 56.2263 102.316C56.5228 102.309 56.8193 102.303 57.1158 102.297C58.2016 102.268 59.2875 102.24 60.3733 102.212C60.9287 102.122 61.4841 102.031 62.0395 101.941C62.8088 101.85 63.5785 101.758 64.3481 101.667C65.2157 101.628 66.0837 101.59 66.9515 101.551C67.2823 101.477 67.6136 101.404 67.9444 101.33C68.3807 101.302 68.8177 101.273 69.254 101.244L69.4093 101.271L69.5607 101.227C69.8905 101.155 70.2197 101.083 70.5489 101.01C71.9811 100.798 73.4137 100.585 74.8457 100.372C75.2754 100.254 75.7047 100.134 76.1344 100.015C77.3709 99.7565 77.3709 99.7565 77.3192 98.3862C77.1093 98.4647 76.933 98.5311 76.7566 98.5975C76.5452 98.6335 76.3337 98.6695 76.1222 98.7054C75.9732 98.7896 75.8238 98.8742 75.6743 98.9584C75.1644 99.064 74.654 99.1699 74.1442 99.2755C73.0575 99.4202 71.9706 99.5643 70.8834 99.7091C70.6588 99.7145 70.434 99.7206 70.2089 99.7261C68.3662 99.7261 66.523 99.7265 64.6797 99.7265C64.3444 99.7138 64.0093 99.7012 63.674 99.6889C63.4555 99.676 63.2373 99.6632 63.0191 99.6505C62.8225 99.6446 62.6261 99.6392 62.4296 99.6333C61.97 99.5316 61.5106 99.4296 61.0513 99.328C60.9608 99.3011 60.8696 99.2956 60.7765 99.3115C60.3255 99.2001 59.8745 99.0884 59.4235 98.977L59.437 98.9862C59.2115 98.8853 58.9859 98.7845 58.7601 98.6836C58.6751 98.6447 58.587 98.6335 58.4953 98.6501C58.2558 98.552 58.0167 98.4545 57.7772 98.3564C57.4574 98.2414 57.1376 98.1265 56.8178 98.0113C56.5943 97.9204 56.3714 97.8296 56.1482 97.7389C54.6527 96.9653 53.1665 96.1737 51.6604 95.4226C47.9423 93.5674 44.5593 91.2292 41.533 88.3864C40.4893 87.406 39.6795 86.2337 39.3947 84.7999C39.2972 84.3081 39.3186 83.7361 39.4731 83.2618C39.9178 81.8961 41.0081 81.0975 42.2603 80.5256C40.2997 79.884 38.4181 79.2685 36.5364 78.6532C36.2977 78.5562 36.0593 78.4599 35.8206 78.3633C35.6261 78.349 35.4313 78.3345 35.2368 78.3202C34.9941 78.2239 34.7513 78.1273 34.5087 78.031C34.4162 78.0036 34.3216 77.9949 34.226 78.0047C33.8829 77.9033 33.5398 77.8016 33.1967 77.7C32.8702 77.6953 32.5436 77.691 32.2167 77.6863C31.8879 77.5893 31.5591 77.493 31.23 77.396C31.0328 77.377 30.8352 77.3584 30.638 77.3394C30.168 76.8557 29.698 76.3718 29.3354 75.9987C29.5 74.8677 29.9925 74.4915 30.892 74.3479C31.8941 74.1879 32.9681 73.9653 33.8161 73.4494C35.823 72.2295 37.6876 70.7785 39.6609 69.4993C41.295 68.4399 42.9236 67.3162 44.6925 66.5322C48.7331 64.7412 52.9138 64.7957 57.109 66.0638C57.4652 66.1713 57.8506 66.1805 58.2225 66.2353L58.3017 65.8801C57.5142 65.561 56.7521 65.1408 55.9359 64.9416C53.1187 64.2526 50.2903 64.1719 47.3785 64.4819C43.9908 64.8427 41.1127 66.12 38.5283 68.2284C37.2646 69.2597 36.0198 70.3143 34.7593 71.3502C33.633 72.2751 32.738 72.3807 31.4966 71.6829C31.8005 71.4974 32.0579 71.2066 32.3129 71.2086C33.3857 71.2172 34.1691 70.6986 34.9078 70.0088C35.5031 69.4534 36.153 68.957 36.7583 68.4111C38.3405 66.9844 40.0355 65.7214 42.0136 64.8977C45.9827 63.2442 50.0923 62.8231 54.2925 63.7325C55.7097 64.0391 57.1047 64.5356 58.4403 65.1077C59.5353 65.5769 59.5421 65.8405 59.1346 67.2049C58.7686 67.2049 58.382 67.2561 58.0144 67.194C57.3205 67.0771 56.6354 66.9051 55.9511 66.7379C50.9374 65.5121 46.2365 66.2322 41.9452 69.1254C40.3755 70.1839 38.9002 71.3952 37.4535 72.6206C35.7834 74.035 33.9221 74.9216 31.7318 75.0796C31.2408 75.1153 30.7432 75.1133 30.5174 75.8963C31.5922 76.7498 32.8843 76.6675 34.1477 76.6928C34.2668 76.6387 34.3861 76.5845 34.5055 76.53C34.9336 76.4726 35.3617 76.4153 35.7895 76.3581C35.9191 76.4983 36.0484 76.6387 36.178 76.7789C36.0562 76.9419 35.9344 77.1052 35.7387 77.3676C38.904 78.5368 41.8876 79.988 45.4867 79.6539C45.2219 79.1559 45.0158 78.7922 44.8317 78.4183C43.6201 75.9595 43.9162 73.3348 45.7982 71.332C46.5979 70.4804 47.6478 69.8641 48.5841 69.1412C49.6883 69.0269 50.7926 68.9123 51.8968 68.7981C53.6637 68.9705 55.0479 69.8714 56.2379 71.1146C57.8359 72.7841 57.9768 74.8714 57.7316 77.145C59.4262 76.6667 60.6011 75.8152 61.3668 74.4155C61.5754 74.4175 61.7841 74.4198 61.9929 74.4224C61.9514 74.7271 61.9095 75.0322 61.8466 75.4926C62.9214 75.7976 63.9535 76.09 64.9856 76.3829C64.8485 76.5265 64.7108 76.6702 64.5733 76.8138C63.7714 76.6939 62.9727 76.5375 62.1664 76.4691C61.6972 76.4292 61.1696 76.4168 60.7489 76.5902C59.3014 77.1853 57.8984 77.8878 56.4627 78.5124C52.8758 80.0726 49.1274 80.7959 45.2127 80.6367C44.5593 80.6102 43.9038 80.6331 43.2493 80.6331C47.4844 82.4846 51.7184 84.1429 56.2445 84.7921C59.2962 85.23 62.3695 85.7909 65.4339 85.794C68.8294 85.7971 72.242 85.3445 75.6146 84.8616C77.4675 84.5962 79.311 84.0228 80.893 82.8752C81.5326 82.4112 81.9468 81.8795 81.6017 81.0893C81.2377 80.2559 81.493 79.4939 81.72 78.7103C81.8322 78.3222 81.9317 77.9301 82.0958 77.3226C81.2641 77.5835 80.6713 77.8396 80.0526 77.9428C79.4925 78.0361 78.9042 77.9624 78.3284 77.9624C78.3133 77.8563 78.2982 77.7499 78.2834 77.6436C79.139 77.3416 79.9952 77.042 80.8499 76.737C82.3555 76.2002 83.7178 75.4503 84.6957 74.1333C84.764 74.0689 84.8326 74.0048 84.9009 73.9404C84.7969 73.9698 84.6933 73.9989 84.5893 74.0281C83.8755 74.2551 83.1548 74.4635 82.448 74.7116C77.9559 76.2913 73.4239 77.6553 68.576 77.3817C68.5825 77.1724 68.5891 76.9624 68.5954 76.7529C69.4865 76.6959 70.3774 76.6387 71.5182 76.5655C70.5395 74.3732 69.8272 72.3505 70.3194 70.1947C70.8376 67.9241 72.3425 66.4114 74.3771 65.2064H72.854C72.8516 65.0001 72.8487 64.7933 72.846 64.5867C74.626 64.0368 76.4503 63.8498 78.3018 63.9778C79.4355 64.0562 80.5642 64.2052 81.695 64.3225C83.0476 64.7804 84.3778 65.3254 85.838 65.3883C84.6122 64.4582 83.1841 64.1222 81.7077 63.923C81.0265 63.7522 80.3511 63.5532 79.6633 63.4162C76.6494 62.8149 73.6223 62.643 70.5916 63.2767C68.1894 63.7791 66.2225 65.1645 64.2183 66.4758C63.7093 66.809 63.1306 67.0367 62.5838 67.3131C62.6214 66.809 62.7965 66.5434 63.0262 66.3389C67.2562 62.577 72.2451 61.4536 77.7452 62.1216C79.2232 62.3014 80.7012 62.4841 82.1797 62.6651C82.2157 62.5529 82.2515 62.4407 82.2876 62.3283C81.8299 62.0821 81.3796 61.8204 80.9131 61.5923C78.7745 60.5463 76.4526 60.1949 74.1303 60.0206C68.3496 59.5859 62.7183 60.1495 57.4719 62.905C56.7995 63.2585 56.0528 63.491 55.2302 63.2904C57.9775 61.6598 60.7501 60.2229 63.9527 59.5794C67.0989 58.9474 70.2718 59.1066 73.5042 58.7663C72.7753 57.9592 72.0614 57.1678 71.1715 56.7769C67.6091 55.2119 63.9014 54.9209 60.2405 56.3174C58.3823 57.0266 56.6482 58.0982 54.9283 59.1244C52.6735 60.4705 50.3302 61.0484 47.7698 60.2866C46.8891 60.0249 46.0456 59.6309 45.197 59.268C42.3197 58.0383 39.3779 57.665 36.2736 58.2892C33.7227 58.8015 31.459 59.8969 29.2722 61.2255C29.1911 61.142 29.11 61.0582 29.0288 60.9748C29.0413 60.5455 29.054 60.1158 29.0666 59.6865C31.3581 58.5418 33.5864 57.335 36.2139 56.9539C39.5632 56.4684 42.7734 56.6045 45.8251 58.1219C47.1247 58.7684 48.4351 59.1391 49.8796 59.0162C50.9801 59.6348 51.992 59.0735 52.9471 58.6726C53.8922 58.2762 54.7692 57.6903 55.6231 57.1096C58.1654 55.3803 60.9818 54.4197 64.0211 54.215C67.1922 54.0016 70.2035 54.6498 72.9267 56.3725C73.2931 56.6041 73.7259 56.8333 73.9433 57.1797C74.7435 58.4545 75.9585 58.8054 77.3357 59.166C79.4817 59.7273 81.6088 60.4685 83.6252 61.3923C86.8576 62.8739 88.2584 65.6756 88.5814 69.1013C88.6715 70.057 88.4568 70.9409 87.9422 71.7536C86.9547 73.3131 85.9681 74.8281 84.5993 76.1485C83.6505 77.0633 83.0461 78.5239 82.7421 79.8453C82.5741 80.5754 83.2719 81.5589 83.7039 82.3609C84.3688 83.5947 84.3945 84.1258 83.3845 85.0623C82.324 86.0463 81.1848 86.9452 79.9308 88.0072C80.2359 88.3954 80.5937 88.9966 81.0859 89.4529C83.3236 91.5257 82.4517 95.198 80.2859 96.5732C79.3303 97.1799 78.7166 97.8288 78.7252 99.0201C78.7338 100.272 79.3975 101.029 80.4598 101.68C83.7149 99.0336 86.9631 96.3923 89.6871 93.1896C91.5557 90.9929 93.2953 88.688 95.1361 86.4677C95.9565 85.4781 96.0722 84.4452 95.716 83.2606C95.1527 81.3862 94.5887 79.5088 94.1179 77.6099C93.8043 76.3446 94.2397 75.0326 95.5575 74.9555C97.6799 74.8319 97.8593 77.2936 99.3097 78.4851C99.831 76.2786 100.865 74.5753 102.896 73.6313C103.954 73.6566 104.373 74.3844 104.614 75.2788C105.054 76.9166 104.844 78.5243 104.346 80.1122C104.238 80.4557 104.119 80.7959 103.93 81.3644C106.313 80.5781 108.269 79.0678 110.753 79.3792C111.535 80.3533 111.166 81.2908 110.558 82.0612C109.65 83.2104 108.664 84.3179 107.583 85.3042C106.46 86.33 105.255 87.3069 103.958 88.095C102.13 89.2066 101.058 90.7408 100.369 92.7468C98.5716 97.9757 96.1421 102.905 92.9399 107.435C92.4105 108.184 91.9307 108.968 91.4284 109.737L89.2373 109.854C89.3624 109.678 89.4713 109.487 89.6158 109.329C93.0353 105.601 95.5497 101.308 97.4846 96.6617C98.3814 94.509 99.1983 92.323 100.06 90.1552C100.414 89.2655 101.029 88.6255 101.851 88.1104C103.507 87.0733 105.161 86.0222 106.726 84.8555C108.152 83.7927 109.511 82.6135 110.352 80.6208C109.805 80.5816 109.398 80.4402 109.075 80.5489C107.792 80.9802 106.521 81.4549 105.274 81.9831C104.539 82.2945 103.849 82.4463 102.991 82.0495C102.983 79.6251 104.73 77.2055 103.221 74.6864C100.391 75.6237 100.811 78.4076 99.7088 80.4477C97.9396 79.5832 97.7478 77.5649 96.4149 76.3643C96.0797 76.3927 95.6682 76.428 95.0673 76.4789C95.1915 77.162 95.2567 77.7337 95.4018 78.2838C95.9138 80.2205 96.4619 82.1474 96.9778 84.0833C97.215 84.9719 97.0845 85.8197 96.5178 86.5601C95.8576 87.4226 95.1504 88.2497 94.4994 89.1184C91.7521 92.7876 88.6807 96.1451 85.1261 99.055C83.8312 100.115 82.597 101.249 81.2038 102.463C83.464 104.554 84.9593 106.897 85.0811 109.912C84.7388 109.893 84.3964 109.875 84.0541 109.856C83.7415 107.505 82.7437 105.495 81.0028 103.882C80.1664 103.106 79.2422 102.424 78.4169 101.637C77.7058 100.959 76.9749 100.882 76.0276 101.062C73.1468 101.611 70.2589 102.18 67.3467 102.488C63.1274 102.932 58.8882 103.214 54.6511 103.456C49.6503 103.741 44.6451 103.994 39.6384 104.097C36.1036 104.17 32.5629 103.97 29.0252 103.892Z" fill="#0A0E09"/>
<path d="M29.0223 103.89C32.5603 103.968 36.1005 104.167 39.6355 104.095C44.6422 103.992 49.6474 103.739 54.6483 103.453C58.8851 103.212 63.1245 102.93 67.344 102.485C70.256 102.178 73.1441 101.608 76.0249 101.06C76.972 100.88 77.7029 100.957 78.414 101.635C79.2395 102.422 80.1637 103.103 81.0002 103.879C82.741 105.493 83.7386 107.502 84.0514 109.854C83.5628 109.881 83.0741 109.93 82.5855 109.93C65.2399 109.934 47.8944 109.935 30.5486 109.93C30.0063 109.93 29.4644 109.865 28.9219 109.831C28.9556 107.851 28.9887 105.87 29.0223 103.89Z" fill="#0642F1"/>
<path d="M85.0761 109.909C84.9545 106.894 83.4594 104.551 81.1992 102.461C82.5926 101.246 83.8267 100.112 85.1214 99.0522C88.6757 96.1424 91.7471 92.7848 94.4948 89.1157C95.1454 88.2469 95.8526 87.4199 96.5128 86.5574C97.0796 85.8169 97.2102 84.9691 96.9734 84.0805C96.457 82.1446 95.9088 80.2177 95.3973 78.281C95.2518 77.7309 95.1865 77.1593 95.0626 76.4762C95.6634 76.4252 96.0753 76.39 96.41 76.3616C97.7429 77.5617 97.9346 79.5805 99.7041 80.4449C100.806 78.4048 100.386 75.6205 103.217 74.6836C104.725 77.2027 102.978 79.6224 102.986 82.0467C103.844 82.4435 104.534 82.2917 105.269 81.9803C106.516 81.4521 107.787 80.9774 109.071 80.5462C109.394 80.4375 109.801 80.5785 110.348 80.618C109.506 82.6107 108.147 83.7899 106.722 84.8528C105.157 86.0194 103.502 87.0705 101.846 88.1077C101.024 88.6227 100.409 89.2628 100.055 90.1525C99.1933 92.3199 98.3766 94.5063 97.4801 96.659C95.5447 101.305 93.0303 105.599 89.6111 109.327C89.4664 109.484 89.3577 109.675 89.2323 109.851C87.8473 109.87 86.4617 109.889 85.0761 109.909Z" fill="#539736"/>
<path d="M49.8758 59.0153C48.4311 59.1383 47.1207 58.7675 45.8215 58.1217C42.7697 56.6037 39.5596 56.4678 36.2103 56.9534C33.5825 57.3342 31.3545 58.5413 29.063 59.6858C29.0299 59.1984 28.9674 58.7106 28.967 58.2231C28.9613 40.3675 28.9613 22.5116 28.9609 4.65641V3.10357C29.476 3.05578 29.8924 2.98391 30.3085 2.98351C59.5127 2.97881 88.7169 2.97842 117.921 2.99057C118.489 2.99057 119.057 3.14587 119.624 3.22891C116.717 3.62549 113.809 4.01757 110.902 4.42003C107.399 4.90454 103.898 5.40473 100.395 5.88493C96.0823 6.47677 91.7677 7.05177 87.455 7.64048C84.5446 8.03725 81.6352 8.44441 78.7255 8.84844C74.3623 9.45398 69.9993 10.0644 65.6353 10.6661C62.0252 11.1633 58.413 11.6443 54.8036 12.1457C53.2438 12.3623 51.6888 12.612 49.9273 12.8773V14.6174C49.9273 28.7624 49.9277 42.9076 49.925 57.0523C49.925 57.7069 49.8929 58.3612 49.8758 59.0153Z" fill="#252220"/>
<path d="M83.3627 21.9646V40.0872C84.3343 39.9603 85.114 39.8582 86.0677 39.7333V21.4484C87.0428 21.2496 87.8241 21.0906 88.5502 20.9427V17.9318C85.8597 18.3304 83.3081 18.7081 80.8274 19.0753V21.9646H83.3627ZM64.9509 39.6757C65.02 37.5261 64.8718 35.5432 65.0349 33.6036C66.4387 33.3819 67.6553 33.1894 68.8329 33.0027V30.0334C67.5073 30.1791 66.2952 30.3124 65.0445 30.4499V24.4477C66.3692 24.217 67.6304 23.9977 68.8143 23.7913V20.8005C66.5909 21.1186 64.5097 21.4167 62.4661 21.7089C62.1447 24.4503 62.262 41.8801 62.621 43.0973C64.6871 42.8031 66.7683 42.5066 68.8429 42.2115V39.221C67.5609 39.3704 66.3868 39.5081 64.9509 39.6757ZM90.6526 17.6647V39.078C92.8782 38.7656 95.0001 38.468 97.1742 38.1628V35.1625C95.837 35.2886 94.6194 35.4034 93.337 35.5242V29.5661C94.6709 29.3514 95.9329 29.1486 97.1613 28.9513V25.9293C95.816 26.0779 94.6032 26.2121 93.3331 26.3519V20.4261C94.6792 20.1768 95.9429 19.9423 97.1877 19.7114V16.7049C94.9291 17.0364 92.7995 17.3492 90.6526 17.6647ZM71.0473 20.44C70.7189 22.3694 70.7945 40.7413 71.1345 41.922C71.9112 41.7722 72.6918 41.6212 73.5725 41.4512V28.7886C73.6428 28.7825 73.7133 28.7763 73.7833 28.77C74.7964 32.866 75.8098 36.9615 76.8182 41.037C77.3112 41.0071 77.5875 41.0169 77.8519 40.9671C78.1555 40.9097 78.4492 40.7995 78.8217 40.6904C78.8133 33.5597 78.8323 26.4935 78.8145 19.3098C77.7726 19.5099 76.9925 19.6595 76.1138 19.828V28.6423C76.0419 28.6497 75.97 28.6578 75.898 28.6652C75.0889 25.8175 74.2797 22.9695 73.482 20.1629C72.5132 20.2731 71.7637 20.3585 71.0473 20.44ZM102.108 29.6119C103.073 32.0778 104.038 34.5436 105.019 37.0504C106.023 36.8885 106.872 36.7512 107.833 36.5963C106.723 33.6087 105.643 30.7049 104.635 27.9907C105.397 26.9085 106.258 26.0673 106.654 25.0454C107.501 22.8551 107.394 20.5324 106.843 18.2832C106.477 16.7922 104.991 15.7305 103.544 15.8351C102.094 15.9399 100.657 16.2282 99.1836 16.4405V37.7805C100.071 37.704 100.858 37.6364 101.762 37.5585V29.8937C101.877 29.8001 101.993 29.7059 102.108 29.6119ZM55.1476 32.9411C55.1476 28.2438 55.157 23.5466 55.1425 18.849C55.1368 17.0752 54.988 16.6148 57.3655 16.1728C59.1242 15.8455 60.9128 15.679 62.6862 15.4276C65.4789 15.0316 68.2681 14.6078 71.0628 14.2267C73.9125 13.8377 76.7685 13.4926 79.6198 13.116C82.2014 12.7753 84.7822 12.431 87.3599 12.0642C90.1507 11.6672 92.9371 11.2367 95.7267 10.8311C99.3753 10.3008 103.025 9.77925 106.675 9.25635C108.286 9.02545 109.895 8.78633 111.509 8.57677C113.413 8.32982 113.822 9.01057 113.814 10.5667C113.769 20.1253 113.793 29.6838 113.786 39.2423C113.784 41.1771 113.535 41.5378 111.64 41.8363C108.961 42.2589 106.262 42.5621 103.576 42.9393C100.784 43.3313 97.9969 43.7618 95.2048 44.1543C92.5731 44.5242 89.9352 44.856 87.3029 45.2244C82.7934 45.8552 78.288 46.5169 73.7774 47.1376C70.2287 47.6258 66.6728 48.0598 63.1229 48.5396C61.2967 48.7867 59.4665 49.0274 57.6569 49.3713C56.1013 49.6671 55.0769 49.4832 55.1184 47.3602C55.2116 42.5554 55.1476 37.7474 55.1476 32.9411Z" fill="#437B22"/>
<path d="M29.9087 66.5895C30.2219 66.312 30.5589 66.057 30.8433 65.7526C32.2007 64.3003 33.7343 63.0943 35.6753 62.561C37.0781 62.1756 38.5111 61.8708 39.9492 61.6519C41.177 61.4652 42.4613 61.239 43.6665 61.4098C45.6375 61.6897 47.5628 62.2839 49.5105 62.7318C49.9288 62.8281 50.36 62.8661 50.7848 62.9309C50.803 62.8113 50.8216 62.6914 50.8399 62.5718C49.0902 61.353 47.09 60.722 44.9836 60.6778C42.7114 60.63 40.4208 60.753 38.1617 61.0079C35.8729 61.2661 33.7253 62.1013 31.884 63.5181C30.9226 64.258 29.9447 65.0699 29.9087 66.5895ZM81.6928 64.3216C80.5618 64.2043 79.433 64.0553 78.2993 63.9769C76.4481 63.8488 74.6239 64.0359 72.8438 64.586C71.414 65.2058 69.9234 65.7166 68.57 66.4735C66.8673 67.4259 65.2862 68.5935 63.6327 69.6364C63.1911 69.9151 62.6764 70.0771 62.2148 70.2843C60.7497 68.8568 59.1575 67.9574 57.2424 67.848C54.7497 67.7054 52.245 67.5105 49.7576 67.6163C47.5534 67.7101 45.5037 68.5493 43.8978 70.1442C41.4576 72.5674 38.8309 74.7301 35.7871 76.3572C35.359 76.4144 34.9309 76.4717 34.5028 76.5291C34.3839 76.5836 34.2645 76.6378 34.145 76.6923C32.8822 76.667 31.5898 76.7489 30.515 75.8954C30.7409 75.1124 31.2385 75.1143 31.7295 75.0787C33.9198 74.9207 35.7809 74.0343 37.4508 72.6195C38.8981 71.3941 40.373 70.183 41.9431 69.1249C46.2342 66.2313 50.9347 65.5114 55.949 66.7369C56.6333 66.904 57.3184 67.076 58.012 67.1931C58.3796 67.2552 58.7662 67.204 59.1323 67.204C59.5394 65.8396 59.5332 65.5758 58.4382 65.1067C57.1025 64.5347 55.7076 64.0382 54.2904 63.7315C50.09 62.8222 45.9806 63.2437 42.0111 64.8968C40.0334 65.7205 38.3384 66.9839 36.756 68.41C36.1508 68.956 35.501 69.4525 34.9057 70.0083C34.1667 70.6977 33.383 71.2163 32.3105 71.2077C32.0555 71.2057 31.7982 71.4969 31.4939 71.6824C32.7359 72.3796 33.6309 72.274 34.757 71.3491C36.0177 70.3138 37.2624 69.2588 38.5262 68.2275C41.1106 66.1191 43.9887 64.8418 47.376 64.4808C50.288 64.171 53.1163 64.2521 55.9336 64.9407C56.7498 65.1402 57.5121 65.5601 58.299 65.8792L58.2204 66.2344C57.8483 66.1796 57.4629 66.1704 57.1069 66.0629C52.9115 64.7948 48.731 64.7403 44.6904 66.5313C42.9213 67.3151 41.2927 68.439 39.6586 69.4983C37.6853 70.7776 35.8208 72.2286 33.8138 73.4489C32.9656 73.9644 31.892 74.1868 30.8895 74.347C29.9902 74.4906 29.4976 74.8668 29.3331 75.9982C29.6956 76.3709 30.1657 76.8548 30.6357 77.3385C30.3251 77.3789 30.0143 77.4188 29.5893 77.4739V102.869C29.396 102.905 29.2027 102.941 29.0094 102.978C28.9877 102.543 28.9473 102.109 28.9469 101.675C28.9442 88.4313 28.9454 75.1882 28.9473 61.9447C28.9473 61.7273 28.9655 61.5099 28.9751 61.2925C29.0823 61.3088 29.1806 61.2862 29.2699 61.2245C31.4567 59.8959 33.7206 58.801 36.2709 58.2883C39.3756 57.6645 42.3173 58.0372 45.1947 59.2675C46.0431 59.63 46.887 60.024 47.7677 60.2861C50.3279 61.0475 52.6712 60.4696 54.9259 59.1239C56.6454 58.0973 58.38 57.0257 60.2384 56.3165C63.8991 54.92 67.607 55.211 71.1694 56.7764C72.0591 57.1669 72.7729 57.9583 73.5019 58.7653C70.2697 59.1057 67.0966 58.9465 63.9506 59.5785C60.7478 60.2224 57.9752 61.6589 55.2279 63.2899C56.0503 63.4899 56.7968 63.2574 57.4697 62.9041C62.716 60.1486 68.3473 59.5851 74.1276 60.0197C76.4501 60.194 78.7724 60.5454 80.9108 61.5914C81.3773 61.8195 81.8276 62.0812 82.2853 62.3273C82.2494 62.4396 82.2134 62.552 82.1773 62.6642C80.6991 62.483 79.2211 62.3005 77.7427 62.1207C72.2426 61.4525 67.2535 62.5761 63.0239 66.338C62.7943 66.5423 62.6193 66.808 62.5817 67.3119C63.1283 67.0356 63.7066 66.808 64.2162 66.4747C66.2202 65.1635 68.1873 63.7782 70.5895 63.2756C73.6202 62.6421 76.6473 62.814 79.661 63.4152C80.3488 63.5523 81.0244 63.7511 81.7054 63.9219C81.7011 64.0553 81.6971 64.1884 81.6928 64.3216Z" fill="#539439"/>
<path d="M29.2676 61.2267C29.1783 61.2883 29.0798 61.3109 28.9727 61.2946C28.9901 61.1887 29.0071 61.0823 29.0242 60.9766C29.1054 61.0598 29.1865 61.1432 29.2676 61.2267Z" fill="#252220"/>
<path d="M29.5859 102.871V77.4756C30.0113 77.4205 30.3215 77.3802 30.6323 77.3398C30.8295 77.3588 31.0271 77.3778 31.2244 77.3968C31.3573 78.1602 31.6885 78.2495 32.211 77.6867C32.5381 77.6914 32.8646 77.6961 33.191 77.7008C33.5341 77.8024 33.8773 77.9041 34.2204 78.0051C34.3159 77.9957 34.4105 78.0043 34.503 78.0314C34.7456 78.1277 34.9885 78.2243 35.2311 78.321C35.4256 78.3353 35.6201 78.3494 35.8149 78.3641C36.0537 78.4607 36.292 78.557 36.5309 78.6536C38.4124 79.2689 40.2941 79.8844 42.2547 80.526C41.0024 81.0979 39.9122 81.8965 39.4674 83.2621C39.3129 83.7365 39.2915 84.3089 39.3893 84.8007C39.6738 86.2341 40.4838 87.4068 41.5269 88.3868C44.5537 91.2296 47.9367 93.5682 51.6547 95.423C53.1608 96.1745 54.647 96.9661 56.1425 97.7393C56.3658 97.8303 56.5888 97.9212 56.8121 98.0117C57.1319 98.1267 57.4517 98.2418 57.7715 98.3568C58.0106 98.4549 58.2502 98.5528 58.4893 98.6509C58.5813 98.6343 58.6697 98.6454 58.7547 98.6844C58.9803 98.7849 59.2057 98.8857 59.4313 98.9866L59.4178 98.9774C59.8688 99.0888 60.3198 99.2003 60.7709 99.3123C60.8639 99.2964 60.9551 99.3019 61.0456 99.3287C61.5051 99.4304 61.9643 99.532 62.424 99.6341C62.6206 99.6395 62.817 99.6454 63.0131 99.6509C63.1167 99.8438 63.2197 100.037 63.3229 100.229C63.438 100.049 63.5534 99.8693 63.6684 99.6893C64.0036 99.702 64.3389 99.7146 64.674 99.7269C65.5073 99.8201 66.39 99.7715 67.1628 100.04C68.2744 100.425 69.2107 100.005 70.2035 99.7265C70.4283 99.721 70.6533 99.7153 70.8777 99.7099C70.7663 100.143 70.6549 100.577 70.5434 101.011C70.214 101.083 69.8844 101.156 69.555 101.228C69.4528 101.234 69.3508 101.239 69.2483 101.245C68.8116 101.274 68.3753 101.302 67.9387 101.331C67.4644 100.759 67.1268 100.802 66.9458 101.552C66.0782 101.59 65.21 101.629 64.3425 101.667C63.6633 101.297 63.3111 101.338 62.0339 101.941C61.4784 102.032 60.923 102.122 60.3678 102.213C59.2717 101.848 58.1818 101.719 57.1102 102.297C56.8136 102.303 56.5171 102.31 56.2208 102.317C56.0843 102.399 55.9476 102.482 55.8111 102.565C55.2541 102.553 54.6978 102.54 54.1408 102.527C53.8198 102.172 53.5051 102.171 53.198 102.546C52.3173 102.563 51.437 102.579 50.5563 102.596C50.3297 102.196 50.1127 102.215 49.9039 102.61C49.2588 102.631 48.6137 102.653 47.9686 102.674C47.231 102.081 47.0319 102.109 46.6274 102.861C45.4246 102.882 44.2217 102.903 43.0184 102.924C42.7981 102.531 42.5815 102.538 42.3684 102.929C41.4842 103.013 40.6 103.098 39.7157 103.182C39.2631 103.101 38.8133 102.972 38.358 102.947C36.394 102.839 34.4291 102.756 32.4637 102.687C32.3693 102.684 32.2664 102.909 32.1675 103.028C31.7435 102.995 31.319 102.961 30.8944 102.928C30.7872 102.922 30.6801 102.917 30.5726 102.911C30.2438 102.898 29.9148 102.884 29.5859 102.871Z" fill="#539736"/>
<path d="M84.6924 74.1325C83.7144 75.4496 82.3523 76.1994 80.8466 76.7362C79.992 77.0412 79.1358 77.3408 78.2799 77.6428C78.295 77.7492 78.3101 77.8555 78.3246 77.9616C78.9006 77.9616 79.4887 78.0353 80.0494 77.9421C80.6678 77.8388 81.2609 77.5827 82.0926 77.3218C81.9285 77.9293 81.8288 78.3214 81.7162 78.7096C81.4898 79.4931 81.2344 80.2552 81.5985 81.0885C81.9436 81.8787 81.5292 82.4104 80.8897 82.8744C79.3077 84.022 77.464 84.5954 75.611 84.8608C72.2387 85.3438 68.8258 85.7964 65.4306 85.7932C62.3663 85.7901 59.2929 85.2292 56.2413 84.7913C51.7151 84.1421 47.4812 82.4839 43.2461 80.6324C43.9006 80.6324 44.5561 80.6094 45.2094 80.6359C49.1239 80.7951 52.8726 80.0719 56.4591 78.5116C57.8952 77.887 59.298 77.1845 60.7457 76.5894C61.1658 76.416 61.694 76.4284 62.1632 76.4679C62.9691 76.5367 63.7679 76.6932 64.5701 76.813C65.8337 77.4977 67.2111 77.3851 68.5728 77.381C73.4207 77.6546 77.9527 76.2905 82.4447 74.7108C83.1511 74.4627 83.8718 74.2543 84.5861 74.0273L84.6924 74.1325Z" fill="#539736"/>
<path d="M78.2881 93.4543C79.7571 92.3555 79.8464 91.5846 78.5969 90.4805C77.9553 89.9137 77.273 89.3931 76.6085 88.8514C77.4667 88.0657 78.2007 88.0032 79.0879 88.7484C79.7125 89.2733 80.301 89.8583 80.8215 90.4861C81.7976 91.6624 81.5963 93.865 80.4845 95.1627C79.4124 96.4135 77.972 97.1399 76.4887 97.6258C72.3576 98.9789 68.1158 99.2474 63.7745 98.8171C57.9519 98.2402 53.02 95.5332 48.231 92.5341C45.99 91.1313 44.0022 89.3093 41.9719 87.5918C41.3264 87.0458 40.865 86.2544 40.4081 85.5196C39.7745 84.5002 40.0501 83.5511 40.7813 82.6683C41.5046 81.7948 42.2874 81.3636 43.4806 81.8026C45.822 82.6636 48.1883 83.4632 50.5667 84.2168C57.3471 86.3648 64.3315 86.9933 71.3709 86.443C74.7954 86.1754 78.3032 85.6848 81.3047 83.6491C81.6027 83.4467 81.9856 83.3696 82.4 83.2068C82.9233 84.1373 82.7388 84.9085 81.956 85.3596C80.7904 86.0311 79.5713 86.66 78.3012 87.0908C76.0263 87.8628 73.6174 88.1415 71.2436 88.1476C66.7776 88.1585 62.3112 87.9241 57.8448 87.7917C57.6037 87.7269 57.3626 87.6617 57.1211 87.5969C56.0317 87.4613 54.9422 87.3252 53.8523 87.1897C53.7413 87.1372 53.6298 87.0841 53.5184 87.0317C52.4417 86.8525 51.3651 86.6731 50.2884 86.4941C49.7255 86.292 49.163 86.0904 48.6002 85.8883C48.2712 85.7757 47.9424 85.6627 47.6135 85.5501C46.8225 85.2389 46.0517 84.8457 45.2342 84.64C44.4499 84.4428 43.7162 84.6322 43.4099 85.556C43.7646 86.7236 44.6606 87.4514 45.5599 88.1396C48.7171 90.5561 52.1436 92.4941 55.8997 93.8282C57.0653 94.2424 58.2271 94.6678 59.3904 95.0877C60.5944 95.3078 61.7914 95.6541 63.0033 95.7185C64.949 95.8221 66.9076 95.8058 68.8553 95.7193C72.1098 95.5742 75.2682 94.929 78.2593 93.5856L78.2881 93.4543Z" fill="#A7512A"/>
<path d="M49.5277 86.9344C50.9599 87.2491 52.3923 87.5636 53.8245 87.8784C53.9336 87.9289 54.0423 87.98 54.1514 88.0305C57.7902 88.7563 61.4652 89.11 65.1746 89.1654C65.9852 89.1778 66.7925 89.3476 67.6037 89.4212C68.6724 89.5184 69.2836 90.0979 69.4955 91.1131C68.0089 94.8328 65.4057 95.7538 62.9806 93.4378C62.4387 93.0085 61.9554 92.4507 61.3445 92.1748C59.7116 91.4364 58.0138 90.8434 56.3615 90.1462C54.6618 89.4287 53.011 89.2369 51.3974 90.3548C51.3215 90.4075 51.1875 90.3761 50.7854 90.4055C49.1466 89.3777 47.2943 88.2409 45.4728 87.0566C45.0004 86.7493 44.4624 86.3684 44.8359 85.4141C45.7677 85.7039 46.6745 85.9857 47.5809 86.2675C47.9126 86.3948 48.2438 86.5221 48.575 86.6491C48.8924 86.7442 49.2103 86.8392 49.5277 86.9344Z" fill="#D60450"/>
<path d="M64.9827 76.3836C63.9506 76.0906 62.9185 75.7982 61.8438 75.4933C61.9066 75.0329 61.9485 74.7278 61.9898 74.423C62.1808 73.475 62.3714 72.5267 62.6177 71.3036C65.7408 69.1691 69.0835 66.8388 72.8509 65.207H74.374C72.3394 66.4121 70.8345 67.9248 70.3163 70.1954C69.8242 72.3512 70.5365 74.3739 71.5153 76.5661C70.3745 76.6394 69.4834 76.6966 68.5925 76.7536C67.3892 76.6302 66.186 76.507 64.9827 76.3836Z" fill="#F5F9F3"/>
<path d="M48.5799 69.1401C47.6434 69.8631 46.5935 70.4794 45.7939 71.3308C43.9118 73.3339 43.6157 75.9586 44.8274 78.4172C45.0115 78.7912 45.2175 79.1549 45.4823 79.6529C41.8833 79.987 38.8996 78.5358 35.7344 77.3667C35.9302 77.104 36.0518 76.9413 36.1737 76.778C36.3297 76.7357 36.4958 76.7143 36.6413 76.6479C38.6944 75.7102 40.4914 74.4382 42.131 72.8619C44.0068 71.0582 45.8824 69.164 48.6103 68.625C48.6001 68.7966 48.5901 68.9685 48.5799 69.1401Z" fill="#F5F9F3"/>
<path d="M78.2907 93.4545L78.2619 93.5857C78.06 93.4142 77.8579 93.2426 77.6618 93.0762C74.847 93.9386 72.1048 95.0728 69.1074 94.6648C68.7188 94.0272 69.1959 93.6987 69.4693 93.3339C70.3142 92.2062 70.9904 91.0531 70.0095 89.3732C72.0321 89.2351 73.7959 89.115 75.8252 88.9766C76.7001 89.8118 77.712 90.7783 78.6896 91.7121C78.5302 92.4081 78.4105 92.931 78.2907 93.4545Z" fill="#ADADAC"/>
<path d="M48.6104 68.625C45.8824 69.1638 44.0067 71.0584 42.1311 72.8617C40.4915 74.4382 38.6944 75.7102 36.6412 76.6479C36.4959 76.7143 36.3298 76.7357 36.1737 76.778C36.0441 76.6375 35.9148 76.4973 35.7852 76.3569C38.8288 74.7298 41.4556 72.5673 43.8956 70.1442C45.5017 68.5492 47.5514 67.7098 49.7554 67.6162C52.243 67.5103 54.7477 67.7051 57.2408 67.8479C59.1559 67.9574 60.7477 68.8567 62.2127 70.284C62.6748 70.0774 63.1895 69.9148 63.6306 69.6365C65.2845 68.5935 66.8657 67.4257 68.5682 66.4735C69.9212 65.7165 71.412 65.2058 72.8417 64.5859C72.8444 64.7924 72.8473 64.999 72.8497 65.2054C69.082 66.8375 65.7396 69.1673 62.6163 71.302C62.3705 72.5254 62.1796 73.4733 61.9886 74.4212C61.7798 74.4188 61.5711 74.4169 61.3625 74.4145C61.3952 74.0908 61.4118 73.7641 61.4632 73.4435C61.8652 70.9232 61.1841 69.852 58.7313 69.0651C56.5118 68.3522 54.2314 68.4057 51.9473 68.4554C50.8349 68.512 49.7227 68.5684 48.6104 68.625Z" fill="#252220"/>
<path d="M51.9496 68.456C54.2335 68.4056 56.5137 68.3528 58.7336 69.065C61.1859 69.8525 61.8675 70.9238 61.465 73.4437C61.4141 73.7647 61.397 74.0912 61.3641 74.4149C60.599 75.8146 59.4241 76.6661 57.7295 77.1444C57.9743 74.8708 57.8339 72.7835 56.2358 71.114C55.0455 69.8707 53.6616 68.9699 51.8945 68.7975C51.9127 68.6835 51.9313 68.5698 51.9496 68.456Z" fill="#F5F9F3"/>
<path d="M83.4024 73.5408C83.3336 69.0787 81.6568 66.1539 77.4844 65.0306C79.6502 64.7664 81.6836 65.1851 83.7004 65.7195C84.2226 65.8578 84.7318 66.0539 85.2372 66.2483C87.7814 67.226 88.3047 70.0898 86.2086 71.8134C85.4765 72.4158 84.5843 72.8242 83.4024 73.5408Z" fill="#F5F9F3"/>
<path d="M47.5801 86.2639C46.6733 85.9821 45.7669 85.6997 44.8351 85.41C44.4612 86.3642 44.9992 86.7457 45.4716 87.0528C47.2931 88.2372 49.1458 89.3739 50.7842 90.4017C51.1867 90.3725 51.3207 90.4037 51.3966 90.3512C53.0098 89.2333 54.661 89.425 56.3603 90.1424C58.0126 90.8398 59.7108 91.4322 61.3433 92.1708C61.9546 92.4471 62.4379 93.0049 62.9794 93.4341C62.6424 93.4381 62.3051 93.442 61.9679 93.4463C59.7045 92.5197 57.4529 91.5631 55.1725 90.6808C54.1502 90.2852 53.1015 90.1867 52.1485 91.3165C52.9454 91.7174 53.5997 92.0999 54.2934 92.385C56.1531 93.149 58.0301 93.8717 59.9002 94.6108C59.7302 94.769 59.5606 94.9267 59.3906 95.0847C58.2273 94.6646 57.0655 94.2392 55.8999 93.8254C52.1438 92.491 48.7173 90.5527 45.5601 88.1364C44.6608 87.4482 43.7648 86.7208 43.4102 85.5528C43.7165 84.6294 44.4501 84.4396 45.2344 84.6369C46.0519 84.8423 46.8227 85.2357 47.6137 85.5467C47.6026 85.7859 47.5912 86.0246 47.5801 86.2639Z" fill="#252220"/>
<path d="M59.9001 94.6126C58.0298 93.8735 56.153 93.1509 54.2931 92.3869C53.5994 92.1017 52.9457 91.7192 52.1484 91.3184C53.1014 90.1889 54.1502 90.287 55.1723 90.6826C57.4529 91.5649 59.7043 92.5216 61.9678 93.4482C62.0346 93.7505 62.1014 94.0533 62.1674 94.3529C61.3926 94.9389 60.6337 94.6622 59.9001 94.6126Z" fill="#ADADAC"/>
<path d="M78.5704 68.1966C79.5001 68.2358 80.3555 69.2415 80.2997 70.2301C80.2476 71.1554 79.3779 72.0448 78.5158 72.0544C77.5783 72.0649 76.7162 71.1174 76.7306 70.0932C76.7461 69.047 77.6098 68.1563 78.5704 68.1966Z" fill="#F5F9F3"/>
<path d="M53.0364 75.9175C52.0703 75.938 51.3588 75.1964 51.3249 74.1335C51.2963 73.2401 52.1696 72.2231 52.9784 72.2072C53.7702 72.1914 54.7193 73.2109 54.712 74.0695C54.7038 75.0904 53.9721 75.8973 53.0364 75.9175Z" fill="#F5F9F3"/>
<path d="M74.5867 69.4689C73.8055 69.4618 73.255 68.9025 73.2822 68.1442C73.309 67.3924 73.897 66.8698 74.6764 66.9039C75.4855 66.939 76.0881 67.4644 76.1033 68.1483C76.12 68.8945 75.4512 69.4769 74.5867 69.4689Z" fill="#F5F9F3"/>
<path d="M48.2613 73.5276C47.3925 73.5225 46.8118 72.9367 46.858 72.1108C46.8992 71.3776 47.5186 70.7914 48.2472 70.7969C48.991 70.8026 49.7614 71.5141 49.7824 72.214C49.8057 73.0007 49.1896 73.5332 48.2613 73.5276Z" fill="#F5F9F3"/>
<path d="M70.5469 101.008C70.6583 100.575 70.7697 100.141 70.8812 99.707C71.9683 99.5623 73.0548 99.418 74.142 99.2734C74.376 99.6391 74.6096 100.005 74.8437 100.37C73.4115 100.583 71.9789 100.796 70.5469 101.008Z" fill="#539439"/>
<path d="M49.677 74.4981C49.8319 74.7732 50.1999 75.1638 50.2635 75.5981C50.3679 76.3136 49.8568 76.7789 49.2232 76.6911C48.6026 76.6054 48.2847 76.2192 48.2698 75.5958C48.2548 74.981 48.7849 74.4597 49.677 74.4981Z" fill="#F5F9F3"/>
<path d="M51.1504 78.3058C51.1238 78.8767 50.9184 79.3154 50.2321 79.3483C49.6282 79.3771 49.0628 78.8829 49.0825 78.2848C49.1035 77.6401 49.5067 77.3446 50.1219 77.3144C50.7911 77.2817 51.0772 77.6671 51.1504 78.3058Z" fill="#F5F9F3"/>
<path d="M73.8995 72.9551C73.7454 72.7199 73.3351 72.3699 73.3142 71.998C73.282 71.4216 73.7182 71.009 74.3423 71.0117C74.8827 71.0141 75.2503 71.3343 75.3182 71.8842C75.3811 72.3881 74.7068 72.9878 73.8995 72.9551Z" fill="#F5F9F3"/>
<path d="M76.7267 74.4212C76.1639 74.7923 75.8207 75.1979 75.4578 75.2161C74.9016 75.2441 74.6498 74.7613 74.697 74.2053C74.7432 73.6554 75.0436 73.194 75.6041 73.3456C75.9674 73.4439 76.2279 73.921 76.7267 74.4212Z" fill="#F5F9F3"/>
<path d="M74.8462 100.368C74.6122 100.003 74.3786 99.6372 74.1445 99.2716C74.6545 99.1656 75.1647 99.0601 75.6747 98.9545C75.8241 98.8705 75.9731 98.7859 76.1226 98.7017C76.3341 98.6656 76.5456 98.6296 76.7571 98.5938C77.0044 99.2661 76.4878 99.6029 76.1349 100.011C75.7052 100.13 75.2759 100.25 74.8462 100.368Z" fill="#539736"/>
<path d="M64.9826 76.3828C66.1858 76.5062 67.3891 76.6294 68.5923 76.7528C68.5861 76.9623 68.5792 77.1723 68.573 77.3816C67.2113 77.3857 65.8339 77.4983 64.5703 76.8137C64.7078 76.6701 64.8449 76.5264 64.9826 76.3828Z" fill="#252220"/>
<path d="M32.1719 103.028C32.2706 102.91 32.373 102.684 32.468 102.688C34.4333 102.756 36.3984 102.839 38.3617 102.947C38.8174 102.972 39.2673 103.101 39.7195 103.182C37.3419 103.2 34.9642 103.222 32.5865 103.228C32.4486 103.228 32.3101 103.098 32.1719 103.028Z" fill="#539439"/>
<path d="M81.6953 64.3255C81.6998 64.1923 81.7037 64.059 81.708 63.9258C83.1845 64.1251 84.6122 64.461 85.8384 65.3915C84.3782 65.3284 83.048 64.7832 81.6953 64.3255Z" fill="#437B22"/>
<path d="M70.2054 99.7266C69.2129 100.005 68.2766 100.425 67.1646 100.04C66.3918 99.7716 65.5095 99.8198 64.6758 99.727C66.5191 99.727 68.3623 99.7266 70.2054 99.7266Z" fill="#539439"/>
<path d="M51.9496 68.457C51.9313 68.5708 51.9127 68.6848 51.8945 68.7986C50.7906 68.9128 49.6862 69.0275 48.582 69.1417C48.592 68.9697 48.6022 68.7982 48.6126 68.6266C49.7248 68.57 50.8372 68.5136 51.9496 68.457Z" fill="#ADADAC"/>
<path d="M76.1289 100.012C76.4818 99.6039 76.9985 99.267 76.7511 98.5947C76.9274 98.5283 77.104 98.4619 77.314 98.3828C77.3657 99.7533 77.3657 99.7533 76.1289 100.012Z" fill="#539439"/>
<path d="M57.1133 102.299C58.1849 101.72 59.2752 101.849 60.3713 102.214C59.285 102.242 58.1992 102.271 57.1133 102.299Z" fill="#539439"/>
<path d="M62.0352 101.942C63.3123 101.338 63.6646 101.297 64.3436 101.668C63.5739 101.759 62.8046 101.85 62.0352 101.942Z" fill="#539439"/>
<path d="M49.527 86.9362C49.2095 86.8411 48.8917 86.7461 48.5742 86.6509C48.583 86.3975 48.592 86.144 48.6009 85.8906C49.1633 86.0927 49.7262 86.2946 50.2886 86.4964C50.0348 86.6429 49.7808 86.7895 49.527 86.9362Z" fill="#252220"/>
<path d="M46.6328 102.862C47.0372 102.111 47.2364 102.083 47.9739 102.676C47.5268 102.738 47.0799 102.8 46.6328 102.862Z" fill="#539439"/>
<path d="M32.2136 77.6848C31.6911 78.2476 31.3597 78.1583 31.2266 77.3945C31.5558 77.4915 31.8848 77.5878 32.2136 77.6848Z" fill="#539439"/>
<path d="M66.9492 101.548C67.13 100.799 67.4676 100.755 67.9419 101.328C67.611 101.401 67.2802 101.475 66.9492 101.548Z" fill="#539439"/>
<path d="M63.6705 99.6866C63.5556 99.8666 63.44 100.047 63.3251 100.227C63.2218 100.034 63.1186 99.8413 63.0156 99.6484C63.2338 99.6614 63.4524 99.6741 63.6705 99.6866Z" fill="#539439"/>
<path d="M53.2031 102.545C53.5102 102.17 53.8245 102.171 54.1459 102.527C53.8316 102.533 53.5175 102.539 53.2031 102.545Z" fill="#539439"/>
<path d="M58.4916 98.6492C58.2525 98.5513 58.013 98.4536 57.7734 98.3555C58.013 98.4536 58.2521 98.5513 58.4916 98.6492Z" fill="#539439"/>
<path d="M49.9062 102.607C50.115 102.211 50.332 102.192 50.5586 102.592C50.3412 102.597 50.1236 102.602 49.9062 102.607Z" fill="#539439"/>
<path d="M42.3711 102.926C42.5842 102.535 42.8012 102.527 43.0209 102.92C42.8043 102.922 42.5877 102.924 42.3711 102.926Z" fill="#539439"/>
<path d="M69.2539 101.244C69.3563 101.238 69.4588 101.232 69.5606 101.227L69.4092 101.27L69.2539 101.244Z" fill="#539439"/>
<path d="M84.5859 74.0291C84.6897 73.9998 84.7933 73.9706 84.8973 73.9414C84.829 74.0058 84.7606 74.0703 84.6923 74.1343L84.5859 74.0291Z" fill="#539736"/>
<path d="M30.5742 102.906C30.6813 102.912 30.7889 102.918 30.896 102.923L30.7334 102.942L30.5742 102.906Z" fill="#539439"/>
<path d="M71.0467 20.4388C71.7631 20.3573 72.5126 20.2719 73.4818 20.1617C74.2791 22.9683 75.0883 25.8159 75.8977 28.664C75.9698 28.6566 76.0416 28.6486 76.1135 28.6411V19.827C76.9919 19.6586 77.7719 19.5087 78.8142 19.3086C78.8316 26.4923 78.813 33.5585 78.8209 40.6892C78.4486 40.7983 78.1552 40.9085 77.8516 40.9659C77.5869 41.0157 77.3109 41.0059 76.8176 41.0358C75.8092 36.9603 74.7961 32.8645 73.783 28.7688C73.7127 28.7751 73.6422 28.7811 73.5723 28.7874V41.4503C72.6916 41.62 71.9109 41.771 71.1342 41.9209C70.7938 40.7401 70.7182 22.3683 71.0467 20.4388Z" fill="#F5F9F3"/>
<path d="M101.8 25.1664C103.685 25.0763 104.3 24.7226 104.458 23.4359C104.59 22.3686 104.57 21.2654 104.467 20.1922C104.377 19.2402 103.915 18.947 102.904 18.9727C102.545 18.9817 102.189 19.0876 101.8 19.1548V25.1664ZM101.762 29.8937V37.5588C100.858 37.6363 100.071 37.7043 99.1836 37.7807V16.4404C100.657 16.2281 102.094 15.9404 103.544 15.8353C104.992 15.7305 106.477 16.7921 106.843 18.2833C107.394 20.5326 107.501 22.8553 106.654 25.046C106.258 26.0673 105.397 26.9084 104.635 27.9909C105.643 30.7049 106.723 33.6088 107.833 36.5964C106.872 36.7517 106.023 36.8884 105.019 37.0506C104.037 34.5436 103.073 32.0777 102.108 29.6122C102.037 29.3933 101.967 29.1747 101.896 28.9562C101.832 28.9709 101.769 28.9854 101.705 29C101.724 29.2981 101.743 29.5962 101.762 29.8937Z" fill="#F5F9F3"/>
<path d="M90.6523 17.6626C92.7992 17.3475 94.9286 17.0349 97.1872 16.7031V19.7093C95.9425 19.9402 94.6787 20.1746 93.3329 20.4243V26.3498C94.6029 26.2099 95.8156 26.076 97.1608 25.9277V28.9492C95.9327 29.1466 94.6705 29.3497 93.3368 29.564V35.5227C94.619 35.4017 95.8361 35.2867 97.1737 35.1606V38.1611C94.9997 38.4664 92.8777 38.7639 90.6523 39.0763V17.6626Z" fill="#F5F9F3"/>
<path d="M64.9503 39.676C66.3858 39.5085 67.5603 39.3712 68.8423 39.2214V42.2119C66.7673 42.5071 64.6865 42.8036 62.6203 43.0977C62.261 41.8806 62.1436 24.4505 62.465 21.7093C64.5086 21.4171 66.5903 21.119 68.8133 20.8008V23.7917C67.6294 23.9979 66.3686 24.2175 65.0435 24.4482V30.4504C66.2942 30.3127 67.5062 30.1795 68.8323 30.0336V33.0032C67.6547 33.1896 66.4377 33.3821 65.0343 33.604C64.8708 35.5437 65.0194 37.5264 64.9503 39.676Z" fill="#F5F9F3"/>
<path d="M83.3635 21.9625H80.8281V19.0732C83.3089 18.706 85.8605 18.3282 88.551 17.9297V20.9406C87.8248 21.0884 87.0436 21.2475 86.0685 21.4463V39.7312C85.1147 39.8561 84.3351 39.9581 83.3635 40.0851V21.9625Z" fill="#F5F9F3"/>
<path d="M101.759 29.8951C101.741 29.597 101.722 29.299 101.703 29.0013C101.766 28.9864 101.83 28.9717 101.893 28.957C101.964 29.1762 102.035 29.3947 102.106 29.6133C101.99 29.7073 101.875 29.8011 101.759 29.8951Z" fill="#ADADAC"/>
<path d="M29.9102 66.5898C29.9462 65.0703 30.924 64.2583 31.8854 63.5184C33.7268 62.1017 35.8744 61.2664 38.1632 61.0083C40.4222 60.7533 42.7128 60.6303 44.985 60.6781C47.0915 60.7224 49.0916 61.3534 50.8413 62.5721C50.8231 62.6918 50.8045 62.8116 50.7863 62.9313C50.3615 62.8665 49.9302 62.8285 49.5119 62.7321C47.5643 62.2842 45.6389 61.69 43.668 61.4102C42.4627 61.2394 41.1784 61.4656 39.9507 61.6522C38.5126 61.8712 37.0796 62.1759 35.6768 62.5613C33.7358 63.0946 32.2021 64.3006 30.8447 65.753C30.5604 66.0573 30.2233 66.3123 29.9102 66.5898Z" fill="#0A0E09"/>
<path d="M48.5983 85.8892C48.5897 86.1426 48.5805 86.396 48.5718 86.6495C48.2407 86.5222 47.9093 86.3953 47.5781 86.268C47.5891 86.0288 47.6006 85.7901 47.6116 85.5508C47.9406 85.6636 48.2695 85.7766 48.5983 85.8892Z" fill="#0A0E09"/>
<path d="M101.797 25.164V19.1524C102.186 19.0852 102.542 18.9793 102.901 18.9703C103.912 18.9446 104.374 19.2378 104.465 20.1898C104.567 21.263 104.587 22.3662 104.455 23.4335C104.297 24.7202 103.682 25.0739 101.797 25.164Z" fill="#539439"/>
</g>
<defs>
<clipPath id="clip0_1054_5450">
<rect width="150" height="110" fill="white"/>
</clipPath>
</defs>
</svg>
