<svg width="125" height="111" viewBox="0 0 125 111" fill="none" xmlns="http://www.w3.org/2000/svg">
<path d="M70.4637 10.293H30.4154L8.59965 15.2463L2.17085 23.1506L0.800781 32.3195L5.01639 41.8046L41.6922 52.7652H66.775L99.7621 36.4297L98.7082 18.408L70.4637 10.293Z" fill="white"/>
<path fill-rule="evenodd" clip-rule="evenodd" d="M106.803 11.194C106.314 10.7819 106.251 10.0501 106.663 9.56086C107.075 9.07143 107.807 9.00862 108.296 9.42069C108.296 9.42069 121.267 20.2854 123.869 42.7853C125.583 57.608 122.797 77.5409 108.633 102.779C108.32 103.337 107.613 103.536 107.055 103.223C106.497 102.91 106.298 102.203 106.612 101.645C120.449 76.9882 123.24 57.5326 121.566 43.0515C119.085 21.5954 106.803 11.194 106.803 11.194Z" fill="black"/>
<path d="M108.884 12.5712C132.986 44.4477 121.661 71.9575 108.884 99.2883C108.577 99.4593 108.181 99.5579 107.976 99.8113C105.672 102.652 102.811 104.879 99.9925 107.157C98.759 108.154 97.5538 109.187 96.3361 110.203C96.1228 110.217 95.9097 110.245 95.6964 110.245C81.7025 110.246 67.7092 110.247 53.7153 110.242C53.2889 110.242 52.8627 110.196 52.4363 110.171C52.6873 109.984 52.9135 109.741 53.193 109.62C58.194 107.432 62.5603 104.292 66.461 100.529C70.821 96.3224 74.3968 91.4233 78.2231 86.7496C80.3729 84.124 81.6669 81.1231 81.818 77.6871C81.9181 77.5725 82.1044 77.4593 82.1057 77.3434C82.123 75.8496 82.1207 74.3551 82.0981 72.8609C82.0966 72.749 81.9027 72.6394 81.7986 72.5289C81.5608 71.713 81.4266 70.8482 81.0655 70.0906C79.9311 67.7099 78.0339 66.0677 75.5939 65.1769C72.698 64.1201 69.7559 63.1741 66.7963 62.3105C61.1324 60.658 55.4473 59.0763 49.7602 57.5058C44.93 56.172 40.0051 55.3084 35.018 54.8632C32.3582 54.6257 29.6802 54.5936 27.0105 54.4691C26.7356 54.3647 26.4614 54.1719 26.1859 54.17C22.6537 54.1495 19.121 54.1495 15.5885 54.1704C15.3141 54.1719 15.0403 54.3675 14.7663 54.4726C13.3441 54.6815 11.918 54.8704 10.5001 55.106C9.29439 55.3067 8.10623 55.6682 6.89466 55.7632C5.6344 55.8625 4.993 54.773 5.69743 53.7518C6.26232 52.9331 6.93998 52.1081 7.75233 51.559C11.2081 49.2242 15.1083 47.9344 19.1486 47.0595C21.8514 46.4746 24.5796 46.0098 27.2887 45.4521C28.6948 45.1623 30.0929 44.8202 31.4752 44.4328C31.921 44.3078 32.5785 44.2426 32.5222 43.4058C31.7946 43.0597 31.0764 43.2005 30.3503 43.3293C27.5733 43.8221 24.8101 44.5434 22.0116 44.731C18.2677 44.9818 14.4954 44.8636 10.7366 44.8088C8.83321 44.7812 7.29304 43.7646 5.89451 42.5583C5.53112 42.2451 5.20357 41.8572 5.69321 41.172C6.19613 41.3364 6.77114 41.4342 7.25488 41.6987C8.79758 42.5433 10.4316 42.9088 12.1812 42.8867C14.0074 42.8639 15.8471 42.7602 17.6571 42.936C20.1723 43.1803 22.6524 43.1567 25.1693 42.9269C28.0743 42.6616 30.8138 41.8732 33.523 40.8897C35.124 40.3084 36.7228 39.7199 38.3102 39.1034C38.9118 38.87 39.4351 39.0534 39.7616 39.4744C41.0379 41.117 42.2891 42.7823 43.4735 44.4922C44.3528 45.7615 44.954 47.2545 45.9611 48.3996C48.4057 51.1798 51.8619 52.0272 55.3063 52.4652C58.5341 52.8751 61.8265 52.8444 65.0911 52.8602C66.5141 52.8675 67.9537 52.5817 69.36 52.2989C73.9243 51.382 78.2992 49.8743 82.5755 48.0363C85.8941 46.6101 88.6104 44.411 91.0672 41.8315C91.567 41.3069 91.6562 40.7302 91.2418 39.9288C90.722 40.2532 90.221 40.5264 89.7634 40.8592C88.1661 42.0227 86.6461 43.3061 84.9816 44.3626C81.3878 46.644 77.328 47.8651 73.3295 49.1966C69.3463 50.523 65.276 51.3307 61.0426 50.9617C59.7659 50.8506 58.4903 50.7111 57.2109 50.6563C55.0531 50.5637 52.9917 50.0334 50.9794 49.3161C49.5311 48.8001 48.0963 48.2002 47.3021 46.5812C48.4228 46.1883 49.3467 46.7596 50.2844 46.9436C52.3191 47.3432 54.3082 48.0126 56.3543 48.3014C58.5613 48.6125 60.7872 48.6452 63.0524 48.4509C65.8752 48.2089 68.6801 47.9507 71.4575 47.3965C76.3666 46.4177 80.8164 44.4768 84.6252 41.1669C85.9567 40.0097 87.2698 38.8233 88.6753 37.7613C90.7325 36.2071 92.9896 35.0052 95.446 34.1661C97.5186 33.4581 98.3767 31.4849 97.6468 29.5456C97.1449 28.2113 96.3294 27.3985 94.9825 27.0326C91.1492 25.992 88.0794 23.6751 85.267 21.014C81.9331 17.859 77.9586 16.0651 73.532 15.1762C71.8114 14.8306 70.0617 14.6225 68.3194 14.3991C65.2745 14.0096 62.2156 14.0258 59.2306 14.7226C56.9046 15.2658 54.6421 16.0917 52.3684 16.8437C51.5434 17.1165 50.7701 17.28 49.9343 16.9213C50.1362 15.7053 50.9233 15.222 51.8469 14.8322C54.9952 13.5039 58.3335 13.0718 61.6883 12.9536C64.5176 12.8539 67.358 13.142 70.1945 13.161C72.636 13.1778 74.9415 13.7771 77.2373 14.5003C80.9392 15.6663 84.3659 17.3593 87.4494 19.7323C88.76 20.7417 90.1105 21.6999 91.4102 22.7228C92.2206 23.3606 93.061 23.3294 93.9427 23.0898C94.2376 22.2032 93.5804 21.8272 93.1165 21.4552C90.6975 19.5162 88.2698 17.5859 85.7899 15.7266C83.5692 14.0612 80.9224 13.3296 78.3083 12.559C74.4516 11.4218 70.4795 10.9842 66.4936 10.6649C64.8278 10.5311 63.5956 10.3043 62.8535 9.73326C63.509 9.49465 64.0867 9.18755 64.6997 9.07689C68.2627 8.43443 71.8681 8.58177 75.4429 8.80456C78.1426 8.97276 80.8124 9.58845 83.5011 9.96617C89.5572 10.8171 95.0453 12.9354 99.7126 17.0064C100.605 17.7842 101.694 18.3601 102.978 18.2492C103.012 18.0117 103.045 17.9052 103.037 17.8019C103.028 17.6995 102.995 17.589 102.94 17.503C100.836 14.2144 98.0386 11.594 94.4543 10.151C91.211 8.84587 87.7728 7.96966 84.36 7.15731C81.622 6.50537 78.7903 6.25496 76.0083 5.77923C75.0661 5.61798 74.1485 5.31172 73.2194 5.07206C73.2198 4.95424 73.2203 4.83599 73.2203 4.71816C73.7019 4.53162 74.1694 4.28459 74.6673 4.16908C76.2207 3.80991 77.7807 3.47561 79.3472 3.17609C82.8346 2.51003 86.3548 2.21472 89.8582 2.91114C92.3054 3.3972 94.7614 3.96842 97.108 4.79889C100.576 6.02563 103.462 8.26728 106.221 10.6594C107.048 11.3765 107.737 12.2957 108.884 12.5712Z" fill="#539936"/>
<path d="M45.3651 19.4702C45.23 18.4599 44.4813 18.0845 43.8212 17.6486C42.2631 16.6188 40.6611 15.6534 39.1317 14.5839C35.4612 12.017 31.527 10.049 27.0941 9.22522C25.7396 8.97376 24.3265 8.65633 22.9836 8.79397C17.5259 9.35527 12.7899 11.7369 8.44168 14.9679C8.24144 15.117 8.16493 15.4329 7.90714 15.8907C8.52051 15.7704 8.89613 15.7617 9.21398 15.6226C10.7757 14.9403 12.2988 14.1661 13.8781 13.53C17.5672 12.045 21.3414 10.946 25.3943 11.3075C28.0573 11.5449 30.7125 11.8448 33.0787 13.217C35.2026 14.4488 37.2739 15.7704 39.3737 17.0439C40.8342 17.9294 42.2953 18.8147 43.7727 19.6711C44.2906 19.9704 44.8622 20.2195 45.3651 19.4702ZM47.5138 9.65648C45.0148 9.09159 42.5921 8.53576 40.1656 7.997C37.3666 7.37605 34.5801 6.68195 31.7576 6.19547C30.4307 5.96614 29.0191 5.86833 27.6446 6.27008C27.5508 7.2011 28.2502 7.23229 28.7617 7.40998C31.3794 8.31823 34.0401 9.13058 36.4202 10.5972C38.691 11.9966 40.9634 13.3978 43.1669 14.8982C44.3888 15.7299 45.5567 15.6884 46.7873 15.1144C47.9501 14.5717 49.1035 14.003 50.228 13.3856C53.5525 11.5611 56.8967 9.78253 60.4444 8.41835C61.4883 8.01703 62.5437 7.63699 63.5586 7.17075C64.3311 6.816 64.3383 6.16596 63.6058 5.76505C63.1889 5.5372 62.7328 5.35129 62.272 5.23852C57.9388 4.17703 53.6829 2.83289 49.1783 2.45791C47.0691 2.28254 45.018 2.32997 42.9776 2.64276C41.6642 2.84385 40.2897 3.18847 39.188 4.21603C40.1344 5.48682 41.5574 5.77686 42.7668 6.39339C44.1451 7.09592 45.5649 7.71582 46.9671 8.37051C47.4301 8.58656 47.8319 8.8338 47.5138 9.65648ZM33.2214 108.942V108.996C36.5499 108.996 39.8783 109.003 43.2067 108.989C43.7916 108.986 44.397 108.973 44.9573 108.828C48.7909 107.837 52.4619 106.381 56.0559 104.745C59.6524 103.107 62.7119 100.636 65.5248 97.9367C68.1465 95.4219 70.5336 92.6493 72.8926 89.8782C74.5864 87.8888 76.1218 85.7555 77.6204 83.6117C78.9302 81.7385 79.6936 79.6513 79.5893 77.295C79.5231 75.7947 79.551 74.2883 79.5902 72.786C79.6338 71.127 78.8802 69.8688 77.577 68.9964C76.3886 68.2003 75.126 67.4647 73.8032 66.9333C72.0811 66.2415 70.2821 65.7253 68.4909 65.2247C61.5168 63.2746 54.536 61.3468 47.5501 59.4381C44.5157 58.6091 41.453 57.9032 38.2964 57.7085C36.5364 57.6001 34.7776 57.4697 33.0193 57.3301C29.4558 57.0483 25.8972 56.6782 22.3285 56.4885C19.6512 56.3462 16.9614 56.392 14.2778 56.4208C11.9626 56.4463 9.70299 56.9269 7.57812 57.809C6.68567 58.1796 5.95363 58.9746 5.20473 59.6397C4.61391 60.1647 4.70054 60.7288 5.25553 61.3042C6.40744 62.4985 7.52416 63.7271 8.64003 64.9557C9.10543 65.4675 9.57294 65.9863 9.96837 66.5518C11.3007 68.4572 11.7769 70.6508 11.8028 72.9114C11.8308 75.3162 11.6605 77.7231 11.5749 80.1292C11.4643 83.2329 11.3007 86.3358 11.2533 89.4406C11.1926 93.4128 11.201 97.3864 11.2324 101.359C11.2415 102.529 11.3823 103.704 11.5604 104.862C11.6184 105.24 11.9164 105.653 12.2227 105.908C13.3693 106.867 14.5259 107.828 16.104 108.019C18.5366 108.314 20.9595 108.788 23.3995 108.903C26.6668 109.058 29.947 108.942 33.2214 108.942ZM65.5263 16.0806C61.2535 16.1445 60.5459 16.1331 56.2294 17.5924C50.7708 19.4377 46.2308 22.4721 43.5602 27.8034C43.4167 28.0903 43.1688 28.3327 43.0623 28.6288C42.63 29.8313 42.0434 31.0186 41.8609 32.2627C41.3194 35.9509 42.5196 39.1697 45.0353 41.849C45.8957 42.7654 46.9534 43.6602 48.1 44.1119C51.0397 45.2708 54.1009 46.0871 57.2624 46.4497C61.4633 46.9302 65.615 46.5932 69.7535 45.8045C74.9361 44.8172 79.8054 43.1642 83.7963 39.5209C84.4293 38.9431 85.1145 38.4244 85.766 37.8677C88.2627 35.7338 90.8237 33.7105 94.0878 32.8488C94.2415 32.8086 94.3855 32.7266 94.5301 32.6564C95.9849 31.9488 96.2502 30.1188 94.9872 29.1069C94.5037 28.7199 93.8781 28.453 93.2742 28.2842C90.58 27.529 88.3049 26.0919 86.2082 24.2684C84.5117 22.7929 82.8231 21.2321 80.8968 20.1122C76.1785 17.37 71.0559 15.8876 65.5263 16.0806ZM81.8156 77.6888C81.6642 81.1245 80.3705 84.1256 78.2207 86.7508C74.394 91.4245 70.8185 96.3241 66.4585 100.53C62.5578 104.294 58.1915 107.433 53.1899 109.621C52.9109 109.743 52.6845 109.986 52.4334 110.172C52.3274 110.189 52.2214 110.22 52.1154 110.22C39.3362 110.232 26.5564 110.244 13.7772 110.245C13.4686 110.245 13.0599 110.244 12.8674 110.063C10.9487 108.263 8.93407 106.53 9.00067 103.521C9.09046 99.4953 9.10164 95.4683 9.14379 91.4416C9.21187 84.8934 9.27026 78.3447 9.34867 71.7962C9.36806 70.1593 8.82488 68.7344 7.7889 67.5068C6.75228 66.2786 5.67414 65.0835 4.57724 63.9082C3.80578 63.0819 3.41204 62.1863 3.45652 61.0156C3.5343 58.9778 3.52755 56.9332 3.4601 54.8946C3.41752 53.6075 3.91117 52.5783 4.75535 51.7211C5.38727 51.0792 6.12837 50.5232 6.8895 50.0359C7.744 49.4881 8.68808 49.0825 9.56936 48.5735C10.16 48.2322 10.8332 47.9019 10.6022 46.8333C10.0417 46.6177 9.41802 46.3304 8.7665 46.1364C6.91079 45.5842 5.36787 44.5568 4.13692 43.0848C3.81843 42.7035 3.53387 42.1693 3.50816 41.6909C3.42743 40.2017 3.47865 38.7058 3.47865 36.9955C3.85827 37.342 4.09076 37.5402 4.30765 37.7539C5.9686 39.3908 7.96827 40.3014 10.2601 40.6924C13.5645 41.2565 16.8862 41.1386 20.2148 41.1639C25.7775 41.2061 31.078 40.098 36.1762 37.9234C37.944 37.169 39.1625 35.941 39.7457 34.0522C40.7242 30.8837 41.749 27.7277 42.8303 24.5928C43.2643 23.3357 43.1298 22.2679 42.2274 21.3268C41.7481 20.8272 41.2288 20.3346 40.6458 19.9704C38.1006 18.3807 35.5837 16.7313 32.9474 15.3045C28.9203 13.1255 24.6296 12.6525 20.155 13.7235C16.9039 14.5019 13.7843 15.6144 10.8138 17.1358C8.01359 18.5702 5.29853 20.1253 3.47823 23.2147C3.47823 21.9779 3.50437 21.0654 3.4719 20.1552C3.42469 18.852 3.86817 17.7228 4.68874 16.7558C6.11762 15.0716 7.66011 13.4819 9.6132 12.4116C11.912 11.1507 14.2206 9.88391 16.6189 8.8357C19.609 7.52865 22.7124 6.48255 25.7341 5.24358C27.5382 4.50374 29.3644 4.35641 31.2553 4.6456C33.0397 4.91877 34.6902 4.58531 36.0729 3.41464C38.0803 1.71449 40.4556 0.986452 42.9839 0.636978C47.7404 -0.0193919 52.4239 0.61569 57.0244 1.73831C59.7713 2.4088 62.4314 3.44942 65.1058 4.39414C66.4961 4.88526 67.7384 4.93458 69.103 4.19031C72.3633 2.41259 75.8115 1.09817 79.497 0.469408C79.7489 0.426409 79.9626 0.161879 80.1943 0H90.1863C90.6426 0.175791 91.0857 0.448962 91.5572 0.512407C95.9613 1.10512 99.8727 2.86914 103.421 5.48008C105.269 6.83919 107.063 8.27165 108.881 9.67102V12.5728C107.734 12.2973 107.046 11.3781 106.218 10.6604C103.46 8.26849 100.573 6.02726 97.1056 4.80052C94.7583 3.97005 92.3029 3.39841 89.8556 2.91214C86.3518 2.21635 82.8322 2.51124 79.3442 3.17772C77.7781 3.47661 76.2179 3.81112 74.6644 4.17071C74.1666 4.2858 73.6995 4.53325 73.2178 4.71979C73.2174 4.83762 73.2174 4.95545 73.217 5.07369C74.1457 5.31335 75.0634 5.61961 76.0054 5.78044C78.7875 6.25659 81.6193 6.507 84.3572 7.15852C87.7699 7.97129 91.2084 8.84708 94.4516 10.1527C98.0362 11.5957 100.834 14.2154 102.937 17.504C102.992 17.5903 103.025 17.7011 103.034 17.8036C103.043 17.9064 103.009 18.0133 102.975 18.2506C101.692 18.3617 100.602 17.7854 99.7102 17.0077C95.0425 12.9366 89.5548 10.8181 83.4982 9.9678C80.8099 9.59008 78.14 8.97439 75.4405 8.80619C71.8655 8.5834 68.2603 8.43606 64.6971 9.0781C64.0841 9.18855 63.5066 9.49629 62.851 9.73489C63.5926 10.3057 64.8248 10.5327 66.4912 10.6659C70.4764 10.9859 74.4492 11.4234 78.3055 12.5606C80.92 13.3312 83.5665 14.0628 85.7869 15.7278C88.2673 17.5875 90.6947 19.5178 93.1138 21.4564C93.5778 21.8284 94.2352 22.2049 93.9403 23.0914C93.0582 23.3311 92.2182 23.3623 91.4078 22.7244C90.1079 21.7015 88.7574 20.7429 87.4464 19.7339C84.3635 17.3609 80.9366 15.6679 77.2349 14.5019C74.9384 13.7783 72.6329 13.179 70.1915 13.1626C67.3556 13.1436 64.5149 12.8551 61.6858 12.9552C58.3306 13.0734 54.9925 13.5055 51.8445 14.8339C50.9207 15.2236 50.1338 15.7069 49.9317 16.9225C50.7676 17.2817 51.5404 17.1181 52.366 16.8454C54.6397 16.0933 56.9018 15.2675 59.2281 14.7243C62.2126 14.0274 65.2721 14.0112 68.3168 14.4007C70.0593 14.6237 71.809 14.832 73.5292 15.1772C77.9562 16.0665 81.9307 17.8607 85.2646 21.0152C88.077 23.6763 91.1468 25.9936 94.9794 27.0343C96.3267 27.4002 97.1423 28.2129 97.6443 29.5472C98.3741 31.4866 97.516 33.4597 95.4434 34.1677C92.9869 35.0068 90.7299 36.2087 88.6727 37.763C87.2674 38.8249 85.954 40.0114 84.6221 41.1686C80.8139 44.4784 76.3642 46.4193 71.4551 47.3982C68.677 47.9519 65.8724 48.2101 63.0494 48.4525C60.7841 48.6468 58.5589 48.6142 56.3512 48.3028C54.3054 48.0143 52.316 47.3448 50.282 46.9452C49.344 46.7612 48.42 46.1896 47.299 46.5827C48.0933 48.2015 49.5285 48.8018 50.9769 49.3177C52.9893 50.0348 55.0505 50.5654 57.2085 50.6579C58.4877 50.7127 59.7635 50.8522 61.0402 50.9631C65.2733 51.332 69.3439 50.5247 73.327 49.1982C77.3255 47.8667 81.3852 46.6457 84.9792 44.3642C86.6435 43.3073 88.163 42.0243 89.7609 40.8608C90.2185 40.528 90.7196 40.2548 91.2391 39.9304C91.6533 40.7318 91.5646 41.3081 91.0648 41.8331C88.608 44.4127 85.8916 46.6117 82.5731 48.0379C78.2968 49.8759 73.9219 51.3836 69.3574 52.3005C67.9513 52.5832 66.5114 52.8685 65.0885 52.8618C61.8239 52.846 58.5313 52.8763 55.3038 52.4664C51.8595 52.0288 48.4027 51.181 45.9585 48.4008C44.9516 47.2555 44.3502 45.7631 43.4711 44.4938C42.2863 42.784 41.0355 41.1186 39.7592 39.4756C39.4321 39.0546 38.9093 38.8711 38.3078 39.105C36.7198 39.7211 35.1214 40.3101 33.5205 40.8912C30.8114 41.8749 28.0717 42.663 25.1669 42.9282C22.6498 43.1583 20.1699 43.1813 17.6547 42.9376C15.8443 42.7618 14.0044 42.8651 12.1788 42.8883C10.4287 42.9104 8.79495 42.5447 7.25204 41.7004C6.76851 41.4358 6.19329 41.3374 5.69079 41.1734C5.20115 41.8584 5.5287 42.2467 5.89187 42.5597C7.28998 43.7662 8.83036 44.7828 10.7339 44.8104C14.4928 44.8652 18.2653 44.983 22.0092 44.732C24.8077 44.5446 27.5706 43.8238 30.3479 43.3309C31.0736 43.2017 31.7917 43.0609 32.5198 43.4075C32.5758 44.2443 31.9184 44.3094 31.4728 44.434C30.0901 44.8214 28.6924 45.1639 27.2857 45.4533C24.5771 46.0114 21.8484 46.4758 19.146 47.0611C15.1059 47.9354 11.2052 49.2254 7.7499 51.5607C6.93755 52.1097 6.2599 52.9347 5.69479 53.7534C4.99037 54.7746 5.63198 55.8642 6.89224 55.7649C8.10359 55.6694 9.29197 55.3083 10.4974 55.1075C11.9156 54.8716 13.3413 54.6832 14.7638 54.4743C18.8452 54.4728 22.9265 54.4715 27.0076 54.4701C29.6774 54.5953 32.3558 54.6273 35.015 54.8646C40.0025 55.3096 44.9275 56.1732 49.7578 57.5074C55.4446 59.0779 61.1294 60.6596 66.7933 62.3121C69.7535 63.1757 72.6955 64.1217 75.5912 65.1785C78.0314 66.0693 79.9287 67.7115 81.0631 70.0922C81.4237 70.8492 81.5578 71.7146 81.7962 72.5306C81.8025 74.2497 81.8088 75.969 81.8156 77.6888Z" fill="#080906"/>
<path d="M108.884 103.158C107.818 104.107 106.76 105.066 105.684 106.003C104.276 107.23 102.844 108.429 101.444 109.665C100.978 110.075 100.503 110.296 99.8614 110.264C98.688 110.205 97.511 110.22 96.3359 110.203C97.5536 109.187 98.7589 108.154 99.9923 107.157C102.811 104.879 105.672 102.652 107.976 99.8114C108.181 99.5587 108.577 99.4594 108.884 99.2891V103.158Z" fill="#080906"/>
<path d="M27.0094 54.4704C22.9281 54.4718 18.8468 54.4727 14.7656 54.474C15.0394 54.369 15.313 54.1732 15.5875 54.1719C19.1199 54.151 22.6526 54.151 26.1851 54.1719C26.4603 54.1732 26.7346 54.3662 27.0094 54.4704Z" fill="#539636"/>
<path d="M81.8202 77.6895C81.8138 75.9701 81.8071 74.251 81.8008 72.5312C81.9049 72.6421 82.0988 72.7513 82.1001 72.8632C82.1228 74.3574 82.1252 75.8519 82.1079 77.3457C82.1066 77.4616 81.9203 77.5748 81.8202 77.6895Z" fill="#539636"/>
<path d="M34.4566 105.733V105.707C36.0676 105.707 37.679 105.704 39.29 105.708C41.5506 105.713 43.752 105.348 45.9022 104.66C48.7662 103.744 51.4151 102.372 54.0568 100.949C59.0768 98.2461 63.3666 94.7645 66.774 90.1423C68.5756 87.6981 70.5156 85.3259 72.9811 83.4532C75.291 81.6984 76.0132 78.5512 75.0916 75.8208C74.2268 73.2575 72.4215 71.7312 70.077 70.7408C67.9654 69.8492 65.808 69.0583 63.6435 68.3021C58.1042 66.3673 52.4798 64.7114 46.7324 63.5222C42.2502 62.5948 37.7519 61.7308 33.237 60.9825C30.8196 60.5814 28.3414 60.5584 25.909 60.2309C23.2888 59.878 20.6829 59.7724 18.0914 60.3038C17.0073 60.5257 15.9048 60.8489 14.9261 61.3512C12.9663 62.357 12.4435 64.8436 13.8532 66.5467C15.55 68.5957 16.2557 70.8346 16.1031 73.5134C15.8615 77.7393 15.7905 81.979 15.7783 86.2129C15.7696 89.2768 15.4132 92.2783 14.9067 95.2937C14.4767 97.8501 14.7128 100.357 17.0885 102.081C17.7358 102.551 18.4 103.006 19.0941 103.403C22.1557 105.154 25.5747 105.457 28.9803 105.709C30.7964 105.843 32.6304 105.733 34.4566 105.733ZM33.2237 108.942C29.9493 108.942 26.6689 109.059 23.4016 108.904C20.9614 108.789 18.5391 108.314 16.1063 108.019C14.5279 107.828 13.3712 106.867 12.2247 105.909C11.9185 105.653 11.6202 105.24 11.5623 104.863C11.3841 103.705 11.2433 102.53 11.2343 101.36C11.2031 97.3872 11.1944 93.4136 11.2551 89.4412C11.3028 86.3366 11.4668 83.2337 11.5772 80.13C11.6628 77.7239 11.8327 75.317 11.8051 72.9122C11.7789 70.6512 11.3032 68.4576 9.97023 66.5522C9.57523 65.9866 9.1073 65.4683 8.64211 64.9559C7.52623 63.7279 6.40952 62.4986 5.2574 61.3046C4.70241 60.7296 4.61578 60.1655 5.2066 59.6405C5.9555 58.975 6.68754 58.18 7.58019 57.8098C9.70486 56.9277 11.9646 56.4471 14.2801 56.4216C16.9635 56.3923 19.6531 56.3464 22.3306 56.4893C25.8991 56.679 29.4577 57.0487 33.0218 57.3309C34.7795 57.4701 36.5382 57.6005 38.2983 57.7093C41.4555 57.9041 44.5175 58.6093 47.5519 59.439C54.5378 61.3476 61.5187 63.2747 68.4932 65.2251C70.2842 65.7261 72.0832 66.2421 73.805 66.9339C75.1279 67.4655 76.3907 68.2011 77.5789 68.9966C78.8827 69.8696 79.6357 71.1278 79.5922 72.7864C79.5528 74.2891 79.5252 75.7953 79.5914 77.2958C79.6955 79.6522 78.9321 81.7389 77.6225 83.6121C76.1238 85.7564 74.5883 87.8892 72.8949 89.879C70.5356 92.6497 68.1485 95.4223 65.5266 97.9376C62.7138 100.636 59.6549 103.108 56.0582 104.745C52.464 106.382 48.7928 107.837 44.9593 108.829C44.3989 108.974 43.7937 108.987 43.2088 108.989C39.8808 109.004 36.5524 108.997 33.2237 108.997V108.942Z" fill="#AD532A"/>
<path d="M47.5187 9.65516C47.8368 8.83291 47.435 8.58503 46.972 8.36898C45.5698 7.7143 44.1496 7.09503 42.7719 6.39228C41.5619 5.77533 40.1393 5.4853 39.1929 4.21513C40.2946 3.18716 41.6687 2.84232 42.9825 2.64124C45.0224 2.32865 47.0733 2.28101 49.1833 2.4568C53.6878 2.83157 57.9431 4.17572 62.2765 5.23721C62.7377 5.34997 63.1938 5.53567 63.6107 5.76353C64.3428 6.16443 64.3356 6.81511 63.5635 7.16922C62.5482 7.63547 61.4932 8.0155 60.4488 8.41704C56.9016 9.781 53.5574 11.5602 50.2329 13.3845C49.108 14.0017 47.9546 14.5701 46.7917 15.1129C45.5616 15.6869 44.3933 15.729 43.1718 14.8968C40.9683 13.3963 38.6955 11.995 36.4247 10.5957C34.045 9.12905 31.3839 8.31734 28.7666 7.40845C28.2547 7.23098 27.5557 7.19957 27.6491 6.26876C29.024 5.86681 30.4352 5.96524 31.7627 6.19394C34.5846 6.68084 37.3715 7.37452 40.1701 7.99569C42.597 8.53423 45.0199 9.09027 47.5187 9.65516Z" fill="#539636"/>
<path d="M45.3681 19.4713C44.8652 20.2206 44.2936 19.9714 43.7757 19.6721C42.2983 18.8157 40.8372 17.9305 39.3767 17.045C37.2769 15.7714 35.2056 14.4498 33.0818 13.218C30.7155 11.8459 28.0603 11.5459 25.3973 11.3086C21.3445 10.9471 17.5702 12.0461 13.8811 13.531C12.3018 14.1672 10.7787 14.9414 9.21699 15.6237C8.89914 15.7628 8.52353 15.7714 7.91016 15.8918C8.16794 15.434 8.24445 15.118 8.4447 14.969C12.7929 11.7379 17.5289 9.35634 22.9866 8.79503C24.3295 8.65739 25.7426 8.97482 27.0971 9.22628C31.53 10.05 35.4642 12.0181 39.1347 14.585C40.6642 15.6545 42.2661 16.6198 43.8242 17.6497C44.4843 18.0856 45.233 18.461 45.3681 19.4713Z" fill="#539636"/>
<path d="M14.4493 28.4171C14.4993 26.9126 13.7552 26.1329 12.2439 26.1049C11.0149 26.0828 9.81027 27.1569 9.74598 28.3328C9.67073 29.7042 10.7681 30.8546 12.2309 30.937C13.5864 31.0135 14.3937 30.0966 14.4493 28.4171ZM22.6438 28.0841C22.4215 29.298 22.1976 30.8295 21.8488 32.3328C21.4751 33.9442 20.4269 35.0746 18.9594 35.7926C16.8143 36.8429 14.5364 37.3648 12.1485 37.478C8.64823 37.6432 6.6376 35.5236 5.71755 32.9304C4.32218 28.9993 5.65494 23.6484 8.7062 20.9802C10.1745 19.6957 11.8843 19.0045 13.8387 19.0039C14.7465 19.0039 15.6622 19.0614 16.5624 19.182C19.6472 19.5939 21.4262 21.4766 22.1534 24.395C22.4229 25.4774 22.4577 26.6181 22.6438 28.0841Z" fill="#040404"/>
<path d="M50.2096 31.277C50.2026 32.9015 50.8442 33.5884 52.3559 33.5752C53.8986 33.5612 54.7938 32.7112 54.7325 31.214C54.6764 29.8309 54.0504 28.7453 52.6023 28.7725C50.985 28.8029 50.2167 29.5771 50.2096 31.277ZM62.8469 30.5136C62.7196 33.0288 62.4628 35.4684 60.6135 37.4088C60.2815 37.7577 59.9883 38.1858 59.5855 38.4183C56.6032 40.1393 53.3831 40.9575 50.022 40.0337C47.5076 39.3423 46.2907 37.1601 45.7693 34.7867C44.6104 29.5132 47.1024 24.7822 52.024 22.522C56.4904 20.4707 61.5304 22.9995 62.5098 27.8076C62.6907 28.6956 62.7377 29.6106 62.8469 30.5136Z" fill="#040404"/>
<path d="M60.866 69.6117C60.48 69.4273 60.1118 69.1809 59.7058 69.0675C55.3625 67.8593 51.0139 66.672 46.6665 65.4785C43.0259 64.726 39.4003 63.8892 35.7401 63.2482C32.9667 62.7626 30.1496 62.5261 27.3521 62.1792C26.9177 62.1098 26.4833 62.0405 26.0493 61.9711C25.7261 61.9439 25.4037 61.9168 25.0812 61.8896C22.7955 61.4212 20.5112 61.4417 18.2266 61.8997C16.791 62.1872 16.1702 62.9688 16.0279 64.4434C15.927 65.4918 16.3256 66.3141 16.9119 67.1009C18.1718 68.7907 18.7253 70.6481 18.6656 72.792C18.5636 76.4397 18.6614 80.0932 18.6555 83.7437C18.6534 85.193 18.6416 86.6444 18.5592 88.0906C18.3925 91.0268 18.1813 93.9606 17.9755 96.8941C17.8733 98.3533 18.3676 99.5501 19.5912 100.349C20.4824 100.932 21.4288 101.45 22.3996 101.888C25.222 103.162 28.2776 103.53 31.299 103.722C35.1421 103.966 39.0169 104.097 42.8533 103.454C46.1042 102.908 49.1188 101.739 51.8926 99.9548C52.6434 99.5701 53.4058 99.2059 54.1433 98.7972C57.3369 97.0268 60.2924 94.9545 62.6932 92.1538C63.1616 91.6071 63.5538 91.0757 63.6251 90.3489C63.9794 90.1478 64.4246 90.0241 64.6729 89.7328C66.231 87.9066 67.745 86.0429 69.2736 84.1914C70.4894 83.0991 71.8137 82.1019 72.8866 80.8836C73.7472 79.9069 73.7147 76.4661 72.8874 75.7081C72.1842 75.064 71.5487 74.3155 70.76 73.8018C67.7174 71.8207 64.2629 70.7769 60.866 69.6117ZM34.459 105.731C32.6332 105.731 30.7988 105.841 28.9831 105.707C25.5775 105.455 22.1581 105.152 19.0965 103.401C18.4028 103.004 17.7386 102.549 17.0909 102.079C14.7156 100.355 14.4795 97.848 14.9091 95.2917C15.4154 92.2763 15.772 89.2748 15.7811 86.2109C15.7929 81.9769 15.8639 77.7373 16.1055 73.5114C16.2585 70.8325 15.5528 68.5936 13.8556 66.5446C12.4459 64.8415 12.9691 62.355 14.9289 61.3491C15.9076 60.8468 17.0102 60.5237 18.0938 60.3018C20.6853 59.7704 23.2916 59.876 25.9114 60.2288C28.3442 60.5564 30.822 60.5794 33.2398 60.9805C37.7547 61.7287 42.253 62.5927 46.7348 63.5202C52.4822 64.7094 58.1071 66.3653 63.6464 68.3C65.8109 69.0567 67.9678 69.8472 70.0794 70.7388C72.4239 71.7292 74.2296 73.2555 75.0945 75.8188C76.016 78.5492 75.2935 81.6964 72.9839 83.4511C70.5184 85.3239 68.578 87.696 66.7765 90.1402C63.369 94.7624 59.0796 98.2441 54.0597 100.947C51.4175 102.37 48.7687 103.742 45.9046 104.658C43.7548 105.346 41.553 105.711 39.2928 105.706C37.6814 105.702 36.0704 105.705 34.459 105.705V105.731Z" fill="#0E0305"/>
<path d="M63.6227 90.3501C63.5516 91.0764 63.1594 91.6082 62.6908 92.1545C60.2898 94.9552 57.334 97.0278 54.1411 98.7983C53.4036 99.2071 52.6412 99.5713 51.8904 99.956C51.7119 99.7728 51.5665 99.5182 51.35 99.4191C49.6737 98.6506 47.9811 97.9177 46.2986 97.1633C44.3361 96.2835 42.3463 95.4541 40.6497 94.0832C39.494 93.1494 38.2871 92.2741 37.1763 91.2901C35.7392 90.017 34.2233 88.7867 33.0155 87.3129C31.274 85.1878 29.7437 82.8844 28.1975 80.6072C27.5849 79.7054 27.1402 78.684 26.6748 77.6908C25.9052 76.0482 25.6274 74.2867 25.3302 72.5031C24.7862 69.2358 24.9582 66.1698 26.9136 63.3613C27.1461 63.0279 27.2085 62.5766 27.3499 62.1797C30.1474 62.5273 32.9643 62.7633 35.7379 63.249C39.3975 63.89 43.0235 64.7268 46.6637 65.4797C46.5469 65.9345 46.4816 66.4107 46.3027 66.8398C45.845 67.9369 45.5053 69.0867 45.759 70.2412C46.0516 71.5721 46.5278 72.87 47.0121 74.1491C47.5534 75.5788 48.2404 76.9537 48.7799 78.3841C49.5514 80.4318 50.4915 82.3956 51.8498 84.104C52.7028 85.1765 53.6492 86.2704 54.7813 87.0039C56.8708 88.3575 59.2481 89.1585 61.643 89.8486C62.2967 90.037 62.9627 90.1844 63.6227 90.3501Z" fill="#B41253"/>
<path d="M27.3515 62.1788C27.2101 62.5754 27.1475 63.0267 26.9156 63.3602C24.9598 66.1686 24.7882 69.2348 25.3318 72.5021C25.629 74.2851 25.9066 76.047 26.6764 77.6892C27.1418 78.6829 27.587 79.7045 28.1991 80.606C29.7458 82.8835 31.2761 85.1863 33.0175 87.3114C34.2249 88.7856 35.7412 90.0161 37.1783 91.289C38.2891 92.2731 39.4961 93.1483 40.6518 94.082C42.3479 95.453 44.3381 96.2824 46.3003 97.1622C47.9827 97.9166 49.6753 98.6497 51.3516 99.418C51.5681 99.5172 51.7135 99.7716 51.8921 99.9544C49.1182 101.739 46.1036 102.908 42.8525 103.454C39.0163 104.097 35.1413 103.966 31.2984 103.722C28.2771 103.53 25.2214 103.162 22.3988 101.888C21.428 101.45 20.4816 100.932 19.5904 100.349C18.3672 99.5497 17.8725 98.3529 17.975 96.8941C18.1807 93.9602 18.3917 91.0264 18.5584 88.0906C18.6408 86.644 18.6526 85.1926 18.6549 83.7437C18.6609 80.0928 18.563 76.4393 18.6649 72.7915C18.7247 70.6477 18.1712 68.7907 16.9112 67.1005C16.325 66.3141 15.9264 65.4918 16.0274 64.4434C16.1696 62.9688 16.7902 62.1868 18.226 61.8993C20.5107 61.4417 22.7949 61.4208 25.0804 61.8891C25.3658 62.3567 25.6933 62.3282 26.0485 61.9711C26.4829 62.0405 26.9169 62.1094 27.3515 62.1788Z" fill="#E01267"/>
<path d="M63.6223 90.3509C62.9623 90.1852 62.2962 90.0379 61.6426 89.8494C59.2477 89.1593 56.8703 88.3584 54.7809 87.0047C53.6488 86.2712 52.7024 85.1773 51.8493 84.1048C50.4911 82.3964 49.551 80.4326 48.7795 78.3849C48.2399 76.9545 47.553 75.5796 47.0117 74.1499C46.5273 72.8708 46.0512 71.5729 45.7586 70.242C45.5048 69.0876 45.8446 67.9377 46.3022 66.8406C46.4812 66.4115 46.5465 65.9353 46.6633 65.4805C51.0106 66.6733 55.3599 67.8608 59.7026 69.0694C60.1085 69.1822 60.4774 69.4288 60.8634 69.6137C61.146 71.1538 61.3893 72.7033 61.7223 74.2331C62.1449 76.1776 62.7874 78.0605 63.5729 79.8871C64.4306 81.8823 65.796 83.2309 68.1422 83.1681C68.8694 83.1485 69.2332 83.4788 69.2708 84.1931C67.7422 86.0444 66.2281 87.9081 64.6703 89.7347C64.4215 90.026 63.9766 90.1498 63.6223 90.3509Z" fill="#921246"/>
<path d="M69.2709 84.1969C69.2332 83.4823 68.8694 83.152 68.1428 83.1716C65.796 83.2346 64.431 81.8859 63.5729 79.8906C62.7875 78.0644 62.145 76.1813 61.7222 74.2369C61.3898 72.7074 61.1466 71.158 60.8633 69.6172C64.2602 70.7824 67.7151 71.8262 70.7573 73.8073C71.546 74.321 72.1815 75.0694 72.8847 75.7138C73.712 76.4716 73.7445 79.9119 72.8839 80.8893C71.811 82.1074 70.4867 83.1046 69.2709 84.1969Z" fill="#75113D"/>
<path d="M26.0462 61.9726C25.6911 62.3297 25.3635 62.3581 25.0781 61.8906C25.4006 61.9182 25.7237 61.9454 26.0462 61.9726Z" fill="#B41253"/>
<path fill-rule="evenodd" clip-rule="evenodd" d="M3.59559 18.5538C4.01989 18.0753 4.75277 18.0313 5.23124 18.4556C5.70971 18.8799 5.75377 19.613 5.32946 20.0915C5.32946 20.0915 -1.30253 27.7478 5.21902 41.0253C5.50083 41.5995 5.2637 42.2942 4.68975 42.5762C4.11579 42.858 3.42085 42.6209 3.13904 42.047C-4.18094 27.1435 3.59559 18.5538 3.59559 18.5538Z" fill="black"/>
</svg>
