<svg width="150" height="110" viewBox="0 0 150 110" fill="none" xmlns="http://www.w3.org/2000/svg">
<path d="M107.054 42.946H106.976C106.976 42.4125 107.002 41.8777 106.972 41.3462C106.634 35.2679 106.305 29.1888 105.931 23.1129C105.824 21.3782 104.296 20.0605 102.403 20.0519C101.285 20.0471 100.168 20.2489 99.0479 20.3099C94.5587 20.5548 90.0688 20.792 85.5788 21.0118C80.1404 21.278 74.7 21.5167 69.2616 21.7838C67.7864 21.856 66.3101 21.9465 64.842 22.1005C62.8505 22.3091 61.7318 23.5082 61.773 25.4948C61.8259 28.0361 61.9881 30.5755 62.1133 33.1151C62.3557 38.0164 62.6028 42.9172 62.8531 47.8183C62.9659 50.0242 64.2685 51.3024 66.5078 51.2719C68.1607 51.2493 69.811 51.0656 71.4641 50.9807C76.3694 50.7294 81.2748 50.4786 86.1812 50.2513C89.7884 50.0846 93.3984 49.966 97.0063 49.8053C99.1331 49.7107 101.258 49.5775 103.384 49.4589C105.798 49.324 107.049 48.0123 107.054 45.6132C107.056 44.7239 107.054 43.8351 107.054 42.946ZM120.221 109.938C116.885 109.957 113.549 109.976 110.213 109.996C109.609 107.507 109.005 105.019 108.402 102.531C108.09 101.927 107.779 101.323 107.467 100.718C107.415 99.193 107.518 97.6428 107.278 96.1474C106.8 93.1773 106.242 90.2101 105.511 87.293C104.938 85.0093 104.113 82.777 102.694 80.8332C102.596 80.7109 102.497 80.5887 102.399 80.466C102.132 80.1747 101.864 79.8831 101.597 79.5913C100.782 78.6735 100.008 77.712 99.1273 76.8609C98.8087 76.5528 98.2331 76.5103 97.7746 76.3461L97.7929 76.3734C98.3758 75.438 97.4119 75.1384 97.0572 74.5886C96.745 74.1765 96.4328 73.7644 96.1207 73.3523C95.8454 73.2224 95.5696 73.0928 95.2941 72.9635L95.2982 72.9669C95.3315 72.2201 94.9729 71.8643 94.2269 71.8956L94.2306 71.8988C94.1092 71.6165 94.0639 71.2489 93.8557 71.0659C91.3197 68.838 88.7412 66.6581 85.7313 65.075C82.3635 63.3038 78.8572 62.6195 75.1063 63.7313C73.52 64.2016 71.8921 64.5282 70.2903 64.9483C68.7418 65.3539 67.237 65.2798 65.7893 64.5856C64.0314 63.7427 62.3174 62.8008 60.5277 62.0342C59.1305 61.4358 57.6759 60.7902 56.1939 60.6161C54.2746 60.3912 52.3026 60.6144 50.3532 60.6443C50.3418 45.1809 50.33 29.7178 50.3242 14.2544C50.3242 13.9757 50.3977 13.6969 50.4413 13.3842C53.3322 12.9661 56.1298 12.5437 58.9328 12.1602C64.4984 11.3986 70.0686 10.6706 75.6342 9.90595C81.3167 9.12538 86.9951 8.31516 92.6757 7.52235C97.5353 6.84362 102.394 6.16424 107.256 5.49755C111.179 4.96019 115.105 4.44132 119.03 3.91406C119.411 4.00366 119.791 4.09282 120.204 4.18951V6.07014C120.203 27.2944 120.201 48.5185 120.204 69.7428C120.205 83.1409 120.215 96.5395 120.221 109.938Z" fill="#AEAEAC"/>
<path d="M119.027 3.91545C115.102 4.4427 111.176 4.96115 107.253 5.49915C102.391 6.1652 97.5321 6.845 92.6725 7.5233C86.992 8.31655 81.3136 9.12634 75.6313 9.90691C70.0657 10.6716 64.4953 11.3995 58.9297 12.1612C56.1267 12.5447 53.3291 12.9671 50.4384 13.3852C50.3943 13.6982 50.3211 13.9767 50.3211 14.2558C50.3271 29.7192 50.3389 45.1819 50.3503 60.6452C49.6065 60.9574 48.7625 61.1368 48.1392 61.6072C46.5903 62.7764 45.1499 64.0872 43.6513 65.3235C41.6089 67.0084 39.6443 68.8076 37.474 70.3094C35.8325 71.445 34.4035 72.5704 33.67 74.5247C33.0907 76.0678 32.5841 77.4695 33.6227 79.0156C34.4738 80.282 35.1673 81.653 35.9964 82.9352C36.3654 83.5063 36.8967 83.973 37.321 84.4495C35.3007 87.3157 35.324 90.3709 37.8627 93.2408C37.0553 95.1637 37.0048 96.9204 37.5795 98.9069C37.8053 99.6871 37.8485 100.52 37.9748 101.328C37.9748 101.328 38.0066 101.331 38.0062 101.331C37.8698 101.56 37.7336 101.788 37.5973 102.017C37.5587 102.156 37.5196 102.295 37.4809 102.435C37.1483 102.655 36.7431 102.814 36.4962 103.107C35.4535 104.344 34.3865 105.572 33.4693 106.9C32.8226 107.836 32.4032 108.929 31.8822 109.951C31.1661 109.958 30.4504 109.964 29.7343 109.97C29.7134 109.32 29.6752 108.67 29.6748 108.019C29.6711 97.1726 29.672 86.3261 29.672 75.4797C29.6724 52.3052 29.6724 29.1307 29.6771 5.95572C29.6771 5.21683 29.7207 4.47751 29.7452 3.71391C30.2751 3.68383 30.5658 3.65246 30.8567 3.65246C59.7444 3.65203 88.6322 3.65203 117.52 3.66557C118.022 3.666 118.525 3.82886 119.027 3.91545Z" fill="#252220"/>
<path d="M119.031 3.91292C118.529 3.82633 118.026 3.66347 117.524 3.66304C88.636 3.64951 59.7483 3.64951 30.8605 3.64994C30.5696 3.64994 30.2789 3.68131 29.7491 3.71139C29.7246 4.47498 29.681 5.2143 29.681 5.95319C29.6762 29.1281 29.6762 52.3027 29.6758 75.4772C29.6758 86.3235 29.675 97.1701 29.6786 108.017C29.679 108.667 29.7173 109.318 29.7381 109.968H27V0.148438H122.957V109.937H120.222C120.216 96.538 120.206 83.1398 120.204 69.7416C120.202 48.5173 120.204 27.2928 120.204 6.069V4.18793C119.792 4.09168 119.411 4.00209 119.031 3.91292Z" fill="#6B99BA"/>
<path d="M38.0085 101.326L37.9767 101.323C38.3207 101.019 38.6642 100.715 39.008 100.411C39.3653 100.376 39.722 100.34 40.0791 100.305C40.3766 100.358 40.6742 100.411 40.9724 100.464C41.2663 100.576 41.5607 100.688 41.8553 100.8L41.9406 100.845L42.0351 100.824L42.8866 101.208L42.9807 101.231L43.0716 101.197C43.2598 101.305 43.4473 101.413 43.6349 101.521L43.7918 101.545C43.9703 101.648 44.1488 101.752 44.3274 101.855C44.6774 101.976 45.0272 102.097 45.3772 102.218L45.3671 102.212C45.6243 102.341 45.8819 102.471 46.1391 102.601L46.2832 102.584C46.4708 102.7 46.6584 102.815 46.8461 102.93L47.006 102.939C47.6435 103.2 48.2809 103.461 48.9184 103.722C49.4637 103.929 50.0058 104.144 50.5548 104.339C53.4963 105.387 56.6014 105.373 59.6481 105.627C65.7089 106.132 71.7859 106.444 77.8532 106.877C84.0136 107.317 90.1399 107.252 96.1617 105.691C99.6531 104.786 103.072 103.673 106.031 101.498C106.151 101.506 106.239 101.457 106.294 101.35C107.274 101.139 107.275 102.087 107.698 102.535C107.757 102.94 107.789 103.352 107.88 103.75C108.353 105.807 108.841 107.861 109.323 109.915C108.792 109.942 108.262 109.994 107.731 109.994C83.2721 109.998 58.8125 109.998 34.3529 109.995C33.8227 109.994 33.2924 109.941 32.7617 109.913C33.1231 109.245 33.4117 108.524 33.8596 107.92C34.8742 106.553 35.9815 105.254 37.0193 103.903C37.3388 103.487 38.0081 103.13 37.4832 102.429C37.5218 102.29 37.5605 102.15 37.5992 102.011C37.7358 101.783 37.8723 101.555 38.0085 101.326Z" fill="#0642F0"/>
<path d="M37.4854 102.43C38.0103 103.131 37.341 103.487 37.0215 103.903C35.9838 105.255 34.8764 106.553 33.8619 107.921C33.4143 108.525 33.1254 109.246 32.7642 109.914C32.472 109.925 32.1794 109.936 31.8867 109.947C32.408 108.924 32.8271 107.832 33.4739 106.896C34.3913 105.567 35.458 104.34 36.501 103.102C36.7476 102.81 37.1528 102.65 37.4854 102.43Z" fill="#06091C"/>
<path d="M109.328 109.916C108.846 107.861 108.358 105.807 107.885 103.751C107.794 103.352 107.762 102.941 107.703 102.536C107.938 102.533 108.172 102.53 108.406 102.527C109.009 105.015 109.613 107.504 110.216 109.992C109.921 109.966 109.624 109.941 109.328 109.916Z" fill="#10152B"/>
<path d="M97.7927 76.3699L97.7746 76.3428C98.8201 77.4878 99.8652 78.6327 100.911 79.7777C101.033 79.9154 101.156 80.0536 101.279 80.1913C101.384 80.2957 101.488 80.4003 101.592 80.5048C101.751 80.7265 101.909 80.9482 102.067 81.1704C102.899 83.1715 103.938 85.1158 104.513 87.1883C105.375 90.2989 105.979 93.488 106.556 96.6688C106.793 97.9732 106.972 99.3695 106.232 100.64C106.232 100.64 106.239 100.69 106.239 100.689C105.851 100.928 105.463 101.167 105.075 101.406C104.691 101.538 104.284 101.627 103.924 101.809C98.0163 104.788 91.7404 106.17 85.1424 106.066C80.89 105.999 76.6389 105.827 72.3873 105.699C72.151 105.692 71.9153 105.67 71.6798 105.65C67.9834 105.324 64.2866 105.002 60.5902 104.67C58.0098 104.439 55.4245 104.242 52.8526 103.935C51.574 103.782 50.321 103.414 49.0559 103.144C47.8401 102.602 46.6246 102.06 45.4088 101.519C44.6127 101.219 43.8171 100.919 43.0209 100.619C42.0686 100.267 41.1166 99.9139 40.1644 99.5618C39.6799 99.4065 39.1951 99.2509 38.7167 99.0973C38.4636 98.1814 38.1505 97.3434 38.01 96.478C37.7412 94.815 38.6466 93.6481 40.327 93.6548C43.4067 93.6685 45.3795 91.8932 47.0335 89.649C48.6752 87.4222 48.0276 85.7197 45.331 85.1076C43.7834 84.7567 42.1926 84.5092 40.61 84.4237C38.9906 84.3361 37.7552 83.6999 36.8588 82.4163C36.0817 81.304 35.4283 80.1058 34.6669 78.9821C33.7217 77.5877 33.7913 76.1245 34.5755 74.7896C35.2175 73.6977 36.0544 72.6408 37.0292 71.8422C38.4371 70.6889 40.1416 69.8973 41.5493 68.7438C43.3767 67.246 45.0957 65.6017 46.7527 63.9143C48.528 62.1058 50.6781 61.325 53.1277 61.2733C56.2747 61.2071 59.1958 62.0231 61.9021 63.6515C62.9644 64.2909 64.0531 64.946 65.2154 65.3446C66.4208 65.7575 67.7499 66.1374 68.9889 66.0461C70.6734 65.9217 72.3196 65.3186 73.9888 64.9537C75.4267 64.6398 76.8634 64.234 78.3205 64.1141C81.2679 63.8719 83.9407 64.9279 86.3475 66.4715C88.527 67.8691 90.4968 69.5912 92.5915 71.1255C93.0691 71.4759 93.6808 71.6435 94.2304 71.8953L94.2269 71.8921C94.1569 72.6759 94.4994 73.0471 95.2982 72.964L95.2941 72.9599C95.3564 73.2057 95.4187 73.451 95.4808 73.6964C95.6944 73.5806 95.9075 73.4646 96.1207 73.3488C96.4329 73.7609 96.7451 74.173 97.0577 74.5857C96.9659 74.8601 96.7163 75.2346 96.8144 75.3895C97.0553 75.7702 97.456 76.0497 97.7927 76.3699Z" fill="#539A36"/>
<path d="M86.3623 49.152C86.5991 49.1515 86.8359 49.1511 87.0726 49.1505C87.3096 49.15 87.5475 49.15 87.7845 49.1496L87.9617 49.1528L88.139 49.1468C88.6155 49.1438 89.0918 49.1406 89.5684 49.1369C90.5168 49.0256 91.4649 48.9139 92.4133 48.8024C92.8909 48.7983 93.3679 48.7942 93.8455 48.7897C94.6766 48.6776 95.5072 48.5654 96.3376 48.453C97.0419 48.4395 97.8221 48.6148 98.4342 48.3708C99.5714 47.917 100.605 48.1681 101.68 48.4322C102.154 48.32 102.628 48.2072 103.102 48.0947C105.573 48.0556 106.285 47.2421 105.604 45.2401C106.084 44.4082 106.088 43.5786 105.595 42.7501C105.594 42.5129 105.593 42.2759 105.593 42.0387C105.592 41.6825 105.591 41.3267 105.591 40.9709C105.591 40.4965 105.592 40.0221 105.593 39.5477C105.586 38.2429 105.579 36.9383 105.573 35.6333C105.459 34.9223 105.346 34.2107 105.233 33.4991C105.232 31.8475 105.252 30.1953 105.214 28.5441C105.206 28.1739 104.998 27.8076 104.882 27.4395C104.879 26.8502 104.877 26.2604 104.874 25.6706C104.875 24.9133 104.862 24.1553 104.881 23.3979C104.899 22.6545 104.663 22.1416 103.829 22.0997C103.481 21.5914 103.214 20.9185 102.386 21.4015C100.843 21.4073 99.2994 21.4128 97.7563 21.4186C96.6881 21.5308 95.6194 21.6436 94.5511 21.7557C92.177 21.8735 89.8028 21.9912 87.4293 22.1083C86.0712 22.1152 84.7084 22.0533 83.3552 22.1425C80.5559 22.3268 77.7614 22.5918 74.9653 22.8232C73.8971 22.8259 72.8288 22.8285 71.7605 22.8313C70.5732 22.9471 69.3859 23.0625 68.1982 23.1779C67.1918 23.179 66.1831 23.2202 65.1789 23.1693C64.0592 23.1126 63.2909 23.53 63.1702 24.6711C63.0101 26.1837 62.9706 27.709 62.8797 29.2284C62.9901 29.4661 63.1006 29.7041 63.2114 29.9417C63.2183 31.4848 63.2252 33.0279 63.2323 34.571C63.2318 34.805 63.2318 35.039 63.2314 35.273C63.3483 37.2922 63.465 39.3116 63.5818 41.3308C63.694 42.1608 63.8062 42.991 63.9185 43.8212C64.038 45.3593 64.1574 46.8973 64.2769 48.435C64.2784 48.5562 64.2801 48.678 64.2814 48.7994C64.5173 49.0374 64.7532 49.2755 64.9889 49.5136L65.3492 49.8681C65.945 50.4147 66.5421 50.4046 67.1401 49.8717C68.3241 49.8689 69.5082 49.8661 70.6918 49.8636C70.9295 49.8629 71.1667 49.8625 71.4039 49.8621C71.999 49.8612 72.594 49.8603 73.1887 49.8593C74.0197 49.7443 74.8508 49.63 75.6814 49.5149L75.6799 49.514C76.1543 49.5119 76.6283 49.5099 77.1023 49.5078C78.4075 49.503 79.713 49.4981 81.0184 49.4936C81.376 49.4944 81.7333 49.4955 82.0904 49.4964C82.9199 49.3823 83.7501 49.2686 84.5799 49.1552C85.0551 49.1537 85.53 49.1528 86.0052 49.1515C86.1243 49.1515 86.2433 49.152 86.3623 49.152ZM107.052 42.9448C107.052 43.8339 107.054 44.7227 107.052 45.6118C107.047 48.0109 105.796 49.3228 103.382 49.4577C101.256 49.5763 99.1308 49.7095 97.0039 49.8038C93.396 49.9648 89.7865 50.0834 86.1788 50.2501C81.2724 50.4774 76.367 50.7282 71.4621 50.9793C69.809 51.0644 68.1587 51.2479 66.5052 51.2707C64.2666 51.3012 62.9633 50.023 62.8507 47.8169C62.6008 42.916 62.3535 38.0152 62.1114 33.1139C61.9855 30.5743 61.8233 28.0353 61.7706 25.4934C61.7298 23.507 62.8483 22.3079 64.8394 22.0993C66.3079 21.9453 67.7842 21.8548 69.2592 21.7826C74.698 21.5153 80.138 21.2768 85.5768 21.0106C90.0669 20.7906 94.5565 20.5534 99.0452 20.3087C100.165 20.2477 101.283 20.0459 102.401 20.0509C104.294 20.0592 105.822 21.3767 105.929 23.1117C106.303 29.1876 106.632 35.2667 106.97 41.3448C107 41.8765 106.974 42.4113 106.974 42.9448H107.052Z" fill="#BD3034"/>
<path d="M36.9903 88.2979C38.5877 88.4861 40.2073 88.6769 41.8271 88.8673C40.4398 90.2654 38.7001 89.2695 37.2801 89.9283C37.3641 91.4909 37.5654 91.7934 38.7587 92.2057C41.8015 93.2561 46.0065 90.9997 46.8034 87.8736C46.8726 87.6033 46.8124 87.3001 46.8124 86.8449C46.0963 86.5522 45.4257 86.1169 44.7083 86.0162C42.9031 85.7631 41.0783 85.5641 39.2572 85.5259C37.5315 85.49 36.9997 86.1979 36.9903 88.2979ZM94.2316 71.9014C93.6818 71.6496 93.0706 71.482 92.5927 71.132C90.4979 69.5973 88.5287 67.8753 86.349 66.4774C83.9422 64.9339 81.2696 63.8785 78.322 64.1202C76.8649 64.2401 75.4281 64.6464 73.9905 64.9599C72.3207 65.3247 70.6749 65.9282 68.9906 66.0522C67.7516 66.1435 66.4225 65.7637 65.2165 65.3507C64.0541 64.9522 62.9661 64.2969 61.9036 63.6577C59.1973 62.0293 56.2761 61.213 53.1291 61.2798C50.6791 61.3312 48.5295 62.1118 46.7544 63.9202C45.0972 65.6079 43.3779 67.2522 41.5504 68.7499C40.1431 69.9035 38.4388 70.695 37.0307 71.8482C36.0557 72.647 35.2186 73.7039 34.577 74.7958C33.7928 76.1311 33.7232 77.5938 34.6679 78.9882C35.4296 80.1119 36.0834 81.3102 36.8603 82.4225C37.7562 83.706 38.9923 84.3422 40.6117 84.4299C42.1943 84.5158 43.7851 84.7629 45.3327 85.1138C48.0293 85.7257 48.6763 87.4284 47.0352 89.6552C45.3812 91.8993 43.4082 93.6747 40.3285 93.6614C38.6479 93.6543 37.7427 94.8209 38.0117 96.4839C38.1516 97.3496 38.465 98.1875 38.7181 99.1034C39.1966 99.2571 39.6811 99.4124 40.1658 99.568L40.0676 99.6878C39.5516 99.6947 38.9626 99.5965 39.0108 100.419C38.6668 100.722 38.323 101.026 37.9795 101.33C37.8531 100.521 37.8099 99.6887 37.5841 98.9086C37.0094 96.922 37.0597 95.1649 37.8671 93.2426C35.3286 90.3726 35.3054 87.3175 37.3257 84.4512C36.9011 83.9746 36.37 83.5079 36.0011 82.9369C35.1717 81.6546 34.4784 80.2838 33.6274 79.0175C32.5887 77.4711 33.0954 76.0694 33.6746 74.5263C34.4079 72.572 35.8369 71.4466 37.4786 70.3111C39.6489 68.8095 41.6135 67.01 43.656 65.3251C45.1546 64.0889 46.5947 62.7776 48.1439 61.6088C48.7671 61.1387 49.6115 60.9591 50.3547 60.6469C52.3041 60.617 54.276 60.3938 56.1953 60.6192C57.6774 60.7928 59.132 61.4388 60.5292 62.0374C62.3189 62.8038 64.0328 63.7457 65.7908 64.5886C67.2385 65.2824 68.7433 65.357 70.2918 64.9509C71.8935 64.531 73.5215 64.2042 75.1078 63.7344C78.8587 62.6225 82.3652 63.3064 85.733 65.0776C88.7427 66.6607 91.3212 68.8406 93.8571 71.0685C94.0653 71.2517 94.1107 71.6198 94.2316 71.9014Z" fill="#0E1009"/>
<path d="M106.235 100.638C106.974 99.3676 106.796 97.9712 106.559 96.6666C105.982 93.4861 105.378 90.2972 104.515 87.1861C103.941 85.1138 102.901 83.17 102.07 81.1685C102.279 81.0548 102.488 80.9418 102.697 80.8281C104.116 82.7719 104.941 85.0038 105.514 87.288C106.245 90.2046 106.804 93.1716 107.281 96.1419C107.521 97.6373 107.418 99.188 107.47 100.713C107.059 100.688 106.647 100.663 106.235 100.638Z" fill="#0E1009"/>
<path d="M100.909 79.7789C99.864 78.6339 98.8189 77.4889 97.7734 76.3438C98.2319 76.5079 98.8075 76.5507 99.1266 76.8585C100.007 77.7098 100.781 78.6711 101.596 79.5889C101.487 79.6199 101.393 79.6762 101.315 79.758C101.179 79.7649 101.044 79.7722 100.909 79.7789Z" fill="#0E1009"/>
<path d="M106.23 100.641C106.642 100.666 107.054 100.691 107.465 100.716C107.777 101.32 108.088 101.925 108.4 102.529C108.166 102.531 107.931 102.534 107.698 102.537C107.274 102.089 107.274 101.142 106.294 101.353C106.275 101.132 106.256 100.911 106.238 100.69L106.23 100.641Z" fill="#0A1319"/>
<path d="M95.2989 72.9683C94.5003 73.0519 94.1576 72.6802 94.2276 71.8964C94.9736 71.8654 95.3322 72.2213 95.2989 72.9683Z" fill="#0E1009"/>
<path d="M97.7937 76.374C97.457 76.0539 97.0563 75.7743 96.8155 75.3936C96.7173 75.2387 96.9669 74.8642 97.0587 74.5898C97.413 75.1397 98.3768 75.4385 97.7937 76.374Z" fill="#0E1009"/>
<path d="M96.1195 73.3459C95.9064 73.4619 95.6928 73.5777 95.4797 73.6936C95.4174 73.4482 95.3553 73.2024 95.293 72.957C95.5682 73.087 95.8441 73.2166 96.1195 73.3459Z" fill="#0E1009"/>
<path d="M101.594 80.5101C101.49 80.4057 101.386 80.3011 101.281 80.1966C101.293 80.0523 101.306 79.9072 101.318 79.7626C101.396 79.681 101.49 79.6247 101.599 79.5938C101.867 79.8853 102.134 80.1766 102.401 80.4684C102.132 80.4824 101.863 80.4961 101.594 80.5101Z" fill="#0E1009"/>
<path d="M101.594 80.5026C101.863 80.4887 102.131 80.4749 102.4 80.4609C102.498 80.5832 102.597 80.7059 102.696 80.8279C102.486 80.9416 102.278 81.0548 102.069 81.1682C101.91 80.9465 101.752 80.7244 101.594 80.5026Z" fill="#0A1319"/>
<path d="M49.0587 103.148C50.3236 103.418 51.5768 103.786 52.8554 103.939C55.4273 104.246 58.0126 104.443 60.593 104.674C64.289 105.006 67.9858 105.328 71.6826 105.654C71.9179 105.674 72.1538 105.696 72.3895 105.703C76.6417 105.831 80.8924 106.003 85.1452 106.071C91.7428 106.174 98.0192 104.792 103.926 101.813C104.286 101.632 104.693 101.542 105.078 101.41C105.397 101.441 105.716 101.472 106.035 101.503C103.076 103.678 99.6566 104.791 96.1652 105.696C90.1434 107.257 84.0174 107.322 77.8571 106.882C71.7898 106.449 65.7128 106.137 59.6515 105.632C56.6049 105.378 53.5002 105.392 50.5586 104.344C50.0093 104.149 49.4672 103.934 48.9219 103.727C48.9382 103.567 48.9541 103.406 48.97 103.245L49.0587 103.148Z" fill="#0A1319"/>
<path d="M45.4115 101.52C46.6274 102.061 47.8434 102.603 49.0589 103.144L48.9708 103.242C48.3172 103.142 47.6634 103.042 47.01 102.941L46.8502 102.932C46.6624 102.817 46.4748 102.701 46.2872 102.586L46.1431 102.602C45.8859 102.473 45.6283 102.343 45.3711 102.213L45.3812 102.219C45.3911 101.986 45.4016 101.753 45.4115 101.52Z" fill="#0A1319"/>
<path d="M40.1646 99.5625C41.117 99.9146 42.0689 100.267 43.0213 100.619L42.9158 100.749C42.6228 100.775 42.3293 100.8 42.0362 100.826L41.9421 100.847L41.8564 100.802C41.5622 100.69 41.2679 100.577 40.9733 100.465C40.6757 100.413 40.3782 100.359 40.0802 100.306C40.0756 100.098 40.0711 99.8906 40.0664 99.6824L40.1646 99.5625Z" fill="#0E1009"/>
<path d="M45.4076 101.521C45.3977 101.754 45.3872 101.988 45.3773 102.221C45.0273 102.1 44.6775 101.979 44.3275 101.858C44.149 101.755 43.9704 101.651 43.7919 101.548L43.6351 101.524C43.4475 101.416 43.2599 101.308 43.0717 101.2L42.9808 101.235L42.8867 101.211C42.896 101.058 42.9054 100.904 42.9144 100.751L43.0199 100.621C43.816 100.921 44.6116 101.221 45.4076 101.521Z" fill="#0E1009"/>
<path d="M47.0117 102.941C47.6651 103.042 48.3185 103.142 48.9723 103.242C48.9559 103.402 48.94 103.563 48.9241 103.724C48.2867 103.463 47.6492 103.202 47.0117 102.941Z" fill="#071220"/>
<path d="M40.0678 99.6803C40.0723 99.8885 40.0771 100.096 40.0816 100.304C39.7243 100.34 39.3676 100.375 39.0105 100.411C38.9628 99.5889 39.5518 99.6871 40.0678 99.6803Z" fill="#071220"/>
<path d="M106.035 101.505C105.716 101.474 105.397 101.443 105.078 101.412C105.466 101.173 105.854 100.934 106.242 100.695C106.261 100.916 106.28 101.136 106.298 101.357C106.243 101.464 106.155 101.513 106.035 101.505Z" fill="#0E1009"/>
<path d="M42.9187 100.75C42.9092 100.904 42.9002 101.057 42.8905 101.21C42.6067 101.082 42.3231 100.954 42.0391 100.826C42.3321 100.801 42.6256 100.776 42.9187 100.75Z" fill="#071220"/>
<path d="M101.316 79.7617C101.303 79.9067 101.292 80.0511 101.279 80.1962C101.156 80.0584 101.033 79.9203 100.91 79.7828C101.046 79.7759 101.181 79.7686 101.316 79.7617Z" fill="#0A1319"/>
<path d="M93.8503 48.7867C93.3728 48.7908 92.8952 48.7949 92.4176 48.799C91.5876 48.6804 90.7574 48.5618 89.9268 48.4434C89.9268 47.8489 89.9268 47.2541 89.9263 46.6599C90.1689 46.4863 90.4117 46.3127 90.6543 46.139C90.697 45.0918 90.7864 44.044 90.7737 42.9972C90.737 39.9819 90.6592 36.9671 90.598 33.9518C90.6147 32.0207 90.6315 30.0898 90.6487 28.1582C90.8833 28.0381 91.1181 27.9182 91.353 27.7983C91.4821 27.7923 91.6117 27.7865 91.7406 27.7801L91.7221 27.7633C92.579 27.961 93.436 28.1591 94.3805 28.3772C94.4624 28.5684 94.5949 28.8793 94.7273 29.1895C94.7395 29.4467 94.7518 29.7043 94.7645 29.9619C94.7135 32.4669 94.6577 34.9715 94.6295 37.4765C94.6282 37.5764 94.8858 37.6791 95.0231 37.7805C95.0481 38.1413 95.0734 38.502 95.0986 38.8632C95.0595 41.1134 95.0158 43.3633 94.9984 45.6139C94.998 45.6988 95.2563 45.7852 95.3938 45.8711L95.3476 45.826C96.2712 46.4723 96.9846 46.4854 98.1278 45.8782C98.1882 45.7979 98.2683 45.7603 98.3687 45.7652C98.9324 46.3264 98.9324 46.3264 99.5123 45.788C99.247 45.7119 99.0375 45.652 98.828 45.592C98.8272 44.1699 98.8257 42.7482 98.8248 41.3263C99.8995 40.185 99.8436 39.8307 98.4864 39.1889C98.4804 36.2256 98.475 33.2625 98.469 30.299C98.6381 29.7593 99.3828 29.0864 98.1388 28.8733C98.0541 28.8606 97.9692 28.8556 97.8837 28.8574C97.8801 28.6294 97.8771 28.4012 97.8734 28.173C98.7831 28.1672 99.6932 28.1608 100.603 28.155C101.006 28.2803 101.409 28.4057 101.937 28.5703V26.8308C101.568 26.7859 101.287 26.7513 101.006 26.7168C100.928 26.1399 100.85 25.5628 100.772 24.9852C100.719 24.8544 100.665 24.7235 100.612 24.5927C100.376 24.563 100.142 24.5336 99.9062 24.5044C99.6627 24.5085 99.4191 24.5132 99.1752 24.5177C96.8733 24.4631 94.5709 24.4041 92.2687 24.3735C92.1987 24.3727 92.125 24.6657 92.0528 24.8222C91.9015 24.9784 91.7503 25.1348 91.599 25.291C91.2791 25.2979 90.9592 25.3047 90.6388 25.3114C90.4725 25.2123 90.3062 25.1133 90.1399 25.0147C90.0531 25.0394 89.9822 25.0162 89.9263 24.9448C89.0957 24.8308 88.2647 24.7162 87.434 24.6017C87.434 23.7698 87.434 22.9374 87.4336 22.1053C89.8077 21.9878 92.1819 21.8705 94.5556 21.7527C94.934 23.2572 96.3385 22.5825 97.3258 23.2449C97.503 22.5011 97.6321 21.9581 97.761 21.4152C99.3041 21.4098 100.847 21.4038 102.391 21.3984C102.698 22.5174 102.77 22.552 103.834 22.0967C104.668 22.1386 104.903 22.651 104.886 23.3949C104.867 24.1518 104.88 24.9102 104.879 25.6676C103.96 25.9903 103.431 26.6628 103.499 27.6093C103.54 28.1935 103.696 28.9437 104.76 28.7792C104.802 28.3363 104.844 27.8864 104.887 27.4365C105.003 27.8046 105.211 28.1709 105.219 28.5411C105.256 30.1918 105.237 31.8445 105.238 33.4961C104.171 34.6365 104.227 34.9865 105.577 35.6302C105.584 36.9349 105.59 38.2399 105.597 39.5443C105.363 39.7815 104.947 40.0182 104.946 40.2554C104.946 40.4926 105.362 40.7303 105.596 40.9675C105.596 41.3237 105.597 41.6795 105.597 42.0353C105.395 42.1543 105.192 42.2734 104.989 42.3924C105.193 42.5106 105.396 42.6285 105.6 42.7467C106.092 43.5752 106.089 44.4052 105.609 45.2373C104.655 46.1859 103.701 47.1347 102.747 48.0835C102.393 48.1989 102.039 48.3138 101.685 48.4292C100.61 48.1647 99.5764 47.9135 98.4387 48.3673C97.8266 48.6118 97.0469 48.4361 96.3426 48.45C95.5119 48.5624 94.6809 48.6746 93.8503 48.7867Z" fill="#EB2128"/>
<path d="M71.7634 22.8324C72.8317 22.8296 73.9 22.8268 74.9682 22.8242C75.1272 23.1605 75.28 23.5004 75.4467 23.8323C75.6371 24.2122 75.8397 24.5858 76.0373 24.962C75.7365 25.051 75.4321 25.2254 75.1364 25.2115C74.5667 25.1842 73.9977 24.956 73.4357 24.9792C71.7563 25.0497 70.0796 25.1911 68.4044 25.335C68.2108 25.3513 68.0335 25.5576 67.8486 25.6758L67.8518 25.6745C67.7355 25.8004 67.6191 25.9261 67.5028 26.052L67.5123 26.0348C66.9221 26.5073 66.9416 26.9808 67.5106 27.4552C67.5142 27.6632 67.5179 27.8718 67.5211 28.08C67.5714 29.0428 67.6214 30.0055 67.6715 30.9687C67.6827 31.2287 67.6936 31.4887 67.7046 31.7485C67.63 32.5692 67.5555 33.3897 67.4816 34.2107C66.4851 34.8237 66.4868 35.3845 67.4857 35.9906C67.4878 37.1766 67.4897 38.3619 67.4915 39.5479C66.8744 40.1235 67.0244 40.4671 67.8155 40.6162C67.8249 42.2132 67.8094 43.8109 67.8612 45.4066C67.875 45.8314 68.0959 46.2495 68.2218 46.6706L68.2647 46.8206C68.1635 47.7722 68.5574 48.3905 69.7389 48.7366C70.2496 48.2251 70.8398 47.634 71.4304 47.0423C73.6806 47.0356 75.931 47.052 78.1803 47.0023C78.6487 46.9925 79.1117 46.7385 79.5775 46.5967C79.7036 46.3827 79.83 46.1687 79.9567 45.9547C80.0476 45.762 80.1385 45.5697 80.2298 45.3772C80.2595 45.2139 80.2885 45.0504 80.3181 44.8873C80.5521 44.6301 80.912 44.4052 80.9891 44.1076C81.1023 43.6723 81.0123 43.1843 81.0091 42.7185C80.9711 42.5971 80.996 42.4904 81.0845 42.3991C81.548 42.5177 82.011 42.6367 82.4744 42.7557L82.5094 42.9171C82.6332 43.2056 82.7563 43.4946 82.8798 43.7832L82.8571 43.7541C82.9275 43.8908 82.9984 44.0277 83.0689 44.1647C83.102 44.2793 83.1351 44.3938 83.168 44.5083C83.3139 44.8617 83.46 45.215 83.6058 45.5684C83.8149 45.8537 84.0239 46.1395 84.233 46.4252C84.3492 46.518 84.4657 46.6111 84.5819 46.7043C84.103 47.6985 83.0442 47.7234 82.2028 48.0816C81.5312 48.3673 80.875 48.5682 81.0218 49.4947C79.7165 49.4992 78.4106 49.5037 77.1052 49.5086C76.9438 49.0334 76.782 48.5585 76.6202 48.0833C76.4759 48.0934 76.3313 48.1033 76.1873 48.1133C76.0193 48.5804 75.8511 49.0475 75.6835 49.5151L75.6843 49.5159C75.09 49.5138 74.4953 49.5118 73.9004 49.5101C73.0893 48.3591 72.0402 48.5078 71.4072 49.8627C71.1696 49.8636 70.9324 49.864 70.6952 49.8644C70.5572 49.6369 70.4118 49.207 70.2826 49.2121C68.5178 49.2779 66.7554 49.4038 64.9925 49.5146C64.7561 49.2766 64.5202 49.0385 64.2845 48.7998C64.283 48.6786 64.2817 48.5572 64.2804 48.4359C64.1603 46.8979 64.0409 45.3598 63.9214 43.8223C64.7765 42.8612 63.9197 42.1316 63.5847 41.3312C63.4681 39.312 63.3512 37.2928 63.235 35.274C63.235 35.0396 63.2354 34.8056 63.2354 34.5717C63.2285 33.0286 63.2212 31.4855 63.2143 29.9424C63.8724 29.3481 63.3398 29.3062 62.8828 29.2295C62.9741 27.7096 63.0132 26.1843 63.1735 24.6722C63.2945 23.5307 64.0624 23.1132 65.182 23.1699C66.186 23.2208 67.1947 23.1794 68.2016 23.1789C68.8178 24.4025 69.9423 23.8196 70.843 23.8269C71.147 23.8293 71.4564 23.1826 71.7634 22.8324Z" fill="#EC1F28"/>
<path d="M76.0379 24.9609C75.8402 24.5846 75.6376 24.211 75.4472 23.8316C75.2805 23.499 75.1277 23.1597 74.9688 22.823C77.7655 22.5916 80.5595 22.3267 83.3593 22.1428C84.712 22.0532 86.0746 22.1151 87.4327 22.1082V24.6046C87.3442 24.7595 87.255 24.9145 87.1665 25.0694L87.107 24.9881L87.1829 25.0543C86.1032 25.0212 85.0223 24.9553 83.9441 24.9789C83.6947 24.9845 83.4521 25.2952 83.2061 25.4656C83.2349 25.5543 83.2089 25.6233 83.1294 25.6714C83.049 25.8559 82.9689 26.0399 82.889 26.2244C82.5579 27.8679 82.0379 29.4447 81.3233 31.194C80.4108 29.1016 79.6193 27.2854 78.8278 25.4696C78.7829 25.3629 78.7377 25.2556 78.6928 25.1489C78.6374 25.2193 78.582 25.2898 78.5261 25.3598C78.2979 25.3656 78.0695 25.3717 77.8409 25.377C77.2402 25.2385 76.639 25.0994 76.0379 24.9609Z" fill="#EB2028"/>
<path d="M81.0246 49.4943C80.8782 48.5679 81.534 48.367 82.2054 48.0817C83.0474 47.7231 84.1056 47.6986 84.5845 46.704C85.297 46.6971 86.009 46.6903 86.7215 46.6836C87.0781 47.3887 87.4344 48.0943 87.7912 48.7999C87.7902 48.9168 87.7897 49.0335 87.7906 49.1503C87.5529 49.1508 87.316 49.1508 87.0781 49.1512C86.842 49.035 86.6052 48.9185 86.3685 48.8019C86.2494 48.9185 86.1304 49.0354 86.0109 49.1521C85.5361 49.1536 85.0608 49.1544 84.5856 49.1557C83.6596 48.5683 82.7976 48.4484 82.0965 49.4971C81.739 49.4961 81.3817 49.4952 81.0246 49.4943Z" fill="#EB2128"/>
<path d="M87.7883 48.7985C87.4316 48.0929 87.0754 47.3878 86.7188 46.682C86.7301 46.5906 86.7346 46.4989 86.7323 46.4072C86.8505 46.3754 86.9682 46.344 87.0864 46.3122C87.3554 46.2776 87.6239 46.2437 87.8929 46.2091L87.8555 46.1953C88.3727 47.114 89.2478 46.4512 89.9248 46.6624C89.9253 47.2569 89.9252 47.8516 89.9252 48.4459C89.8075 48.6758 89.6893 48.9061 89.5714 49.1365C89.0951 49.1397 88.6185 49.1429 88.1424 49.1466C88.0242 49.0308 87.9065 48.9143 87.7883 48.7985Z" fill="#EC1F28"/>
<path d="M102.746 48.0884C103.7 47.1396 104.654 46.1908 105.609 45.2422C106.29 47.2436 105.577 48.0574 103.107 48.0965L102.746 48.0884Z" fill="#EB2028"/>
<path d="M97.7603 21.418C97.6312 21.9609 97.5023 22.5041 97.3255 23.2472C96.3378 22.5853 94.9333 23.2601 94.5547 21.7555C95.6234 21.6429 96.6916 21.5308 97.7603 21.418Z" fill="#EB2028"/>
<path d="M64.9922 49.5135C66.7551 49.4026 68.5177 49.2767 70.2826 49.211C70.4119 49.2058 70.5574 49.6358 70.6951 49.8635C69.511 49.8661 68.3274 49.8689 67.1431 49.8717C66.5462 49.8702 65.9492 49.8689 65.3521 49.868L64.9922 49.5135Z" fill="#EB2028"/>
<path d="M104.887 27.4369C104.844 27.8866 104.801 28.3365 104.759 28.7795C103.695 28.9441 103.539 28.1938 103.498 27.61C103.431 26.663 103.959 25.9911 104.878 25.668C104.881 26.2577 104.884 26.8471 104.887 27.4369Z" fill="#EB2028"/>
<path d="M71.7611 22.832C71.4541 23.1822 71.1447 23.829 70.8406 23.8266C69.94 23.8193 68.8154 24.4022 68.1992 23.1786C69.3865 23.0632 70.5738 22.9474 71.7611 22.832Z" fill="#EB2028"/>
<path d="M71.4102 49.8641C72.0431 48.5086 73.0923 48.3601 73.9033 49.5111C73.6674 49.6278 73.4311 49.7447 73.195 49.8613C72.6 49.8622 72.0049 49.8633 71.4102 49.8641Z" fill="#EB2028"/>
<path d="M105.578 35.6342C104.228 34.9902 104.172 34.6409 105.239 33.5C105.352 34.2114 105.465 34.9226 105.578 35.6342Z" fill="#EB2028"/>
<path d="M89.5703 49.1359C89.6885 48.9055 89.8062 48.6756 89.9244 48.4453C90.7544 48.5639 91.585 48.6825 92.4152 48.8015C91.4668 48.9128 90.5187 49.0246 89.5703 49.1359Z" fill="#E43239"/>
<path d="M82.0938 49.4941C82.7953 48.4454 83.6573 48.5653 84.5833 49.1529C83.7535 49.2666 82.9235 49.3804 82.0938 49.4941Z" fill="#E82A31"/>
<path d="M75.6797 49.5138C75.8479 49.0467 76.0155 48.5792 76.1835 48.1121C76.3281 48.102 76.4725 48.0919 76.6167 48.082C76.7785 48.5573 76.9402 49.0321 77.1018 49.5074C76.6276 49.5097 76.1537 49.5115 75.6797 49.5138Z" fill="#EB2028"/>
<path d="M63.582 41.332C63.9168 42.1322 64.7743 42.8618 63.9187 43.8229C63.8066 42.9922 63.6942 42.1622 63.582 41.332Z" fill="#EB2028"/>
<path d="M103.834 22.1031C102.77 22.5583 102.699 22.5237 102.391 21.4046C103.218 20.9216 103.486 21.5945 103.834 22.1031Z" fill="#EB2028"/>
<path d="M105.595 40.9701C105.361 40.7324 104.945 40.4948 104.945 40.258C104.946 40.0204 105.362 39.7836 105.597 39.5469C105.595 40.0213 105.595 40.4957 105.595 40.9701Z" fill="#EB2028"/>
<path d="M73.1875 49.8582C73.4236 49.7414 73.66 49.6247 73.8959 49.5078C74.4906 49.5102 75.0853 49.5119 75.68 49.5143C74.849 49.6288 74.0186 49.7437 73.1875 49.8582Z" fill="#E82A31"/>
<path d="M93.8477 48.7898C94.6783 48.6777 95.5093 48.5655 96.34 48.4531L93.8477 48.7898Z" fill="#E43239"/>
<path d="M65.3477 49.8672C65.9447 49.8685 66.5418 49.87 67.1389 49.8708C66.5403 50.4037 65.9435 50.4134 65.3477 49.8672Z" fill="#E82A31"/>
<path d="M102.745 48.0859L103.106 48.0941C102.632 48.2063 102.158 48.3188 101.684 48.4316C102.037 48.3163 102.392 48.2013 102.745 48.0859Z" fill="#E43239"/>
<path d="M105.598 42.7507C105.395 42.6325 105.191 42.5143 104.988 42.3959C105.191 42.2767 105.393 42.1581 105.596 42.0391C105.597 42.2763 105.598 42.5135 105.598 42.7507Z" fill="#EB2028"/>
<path d="M62.8828 29.2305C63.34 29.3072 63.8724 29.3491 63.2146 29.9438C63.1041 29.7057 62.9932 29.4681 62.8828 29.2305Z" fill="#EB2028"/>
<path d="M86.3643 48.8008C86.6011 48.917 86.8374 49.0337 87.0742 49.1501C86.8374 49.1506 86.6006 49.151 86.3639 49.1514C86.363 49.0348 86.363 48.9174 86.3643 48.8008Z" fill="#E43239"/>
<path d="M87.7859 48.8008C87.904 48.9166 88.0218 49.033 88.14 49.1488L87.9627 49.1546L87.7854 49.1512C87.785 49.0343 87.785 48.9177 87.7859 48.8008Z" fill="#E43239"/>
<path d="M86.3653 48.8008C86.364 48.9174 86.364 49.0348 86.3649 49.1514C86.2459 49.1514 86.1268 49.151 86.0078 49.151C86.1268 49.0343 86.2463 48.9174 86.3653 48.8008Z" fill="#E82A31"/>
<path d="M36.9883 88.2929C36.9977 86.1929 37.5295 85.4849 39.2552 85.5208C41.0763 85.5591 42.9011 85.758 44.7063 86.0111C45.4237 86.1119 46.0943 86.5472 46.8104 86.8398C46.8104 87.2951 46.8706 87.5983 46.8014 87.8685C46.0045 90.9947 41.7995 93.2511 38.7568 92.2007C37.5634 91.7884 37.3621 91.4859 37.2781 89.9232C38.6981 89.2645 40.4378 90.2603 41.8251 88.8623C40.2053 88.6719 38.5857 88.4811 36.9883 88.2929Z" fill="#A9512A"/>
<path d="M98.3673 45.7691C98.267 45.7639 98.1866 45.8017 98.1265 45.8821L95.3462 45.8294L95.3926 45.8743C95.294 43.5384 95.1954 41.2025 95.0972 38.8666C95.0719 38.5059 95.0467 38.1451 95.0214 37.7837C94.9354 35.178 94.8491 32.5716 94.7629 29.9658C94.7507 29.7082 94.7382 29.4506 94.726 29.193V27.7672H91.7203L91.7395 27.7839C91.7077 27.4376 91.6759 27.091 91.6441 26.7447C91.6286 26.2612 91.6131 25.7778 91.5977 25.2948C91.7489 25.1386 91.9002 24.9822 92.0516 24.826C94.4256 24.7242 96.7997 24.6228 99.1739 24.5216C99.4175 24.5168 99.6614 24.5123 99.905 24.5078C100.14 24.5375 100.375 24.5669 100.61 24.5959C100.664 24.7274 100.717 24.8582 100.77 24.9891C100.796 25.5784 100.821 26.1682 100.845 26.7576C100.778 27.027 100.711 27.2964 100.644 27.5654C99.6984 27.6726 98.6514 27.3186 97.8721 28.1769C97.8753 28.4051 97.879 28.633 97.8826 28.8612C97.8888 28.9802 97.8957 29.0993 97.9026 29.2183C97.9131 29.4678 97.9234 29.7172 97.934 29.9666C98.0388 33.3908 98.1439 36.8156 98.2487 40.2402C98.2674 40.5964 98.2861 40.9526 98.3052 41.3089C98.3456 42.737 98.3864 44.1652 98.4268 45.5935C98.3701 45.6395 98.3501 45.6981 98.3673 45.7691Z" fill="#FCF3F3"/>
<path d="M89.9239 24.9453C89.9794 25.0162 90.0507 25.0394 90.1375 25.0149C90.182 26.2467 90.2101 27.4789 90.275 28.7098C90.3678 30.4579 90.4873 32.2048 90.5954 33.9525C90.6568 36.9678 90.7344 39.9824 90.7713 42.9977C90.7836 44.0442 90.6944 45.0919 90.6517 46.1393C89.7194 46.1576 88.7865 46.1752 87.8542 46.1934L87.8918 46.2066C87.7855 43.563 87.6628 40.9194 87.5766 38.2745C87.4329 33.8674 87.3122 29.4592 87.1813 25.0517L87.1055 24.9853L87.165 25.0667L89.9239 24.9453Z" fill="#FCF2F3"/>
<path d="M98.2484 40.2423C98.1435 36.8177 98.0384 33.3929 97.9336 29.9688C98.1117 30.0807 98.2892 30.1928 98.4673 30.3046C98.4729 33.2681 98.4787 36.2316 98.4847 39.1949C98.4056 39.5438 98.327 39.8934 98.2484 40.2423Z" fill="#E43239"/>
<path d="M99.1732 24.5231C96.7991 24.6243 94.4249 24.7261 92.0508 24.8275C92.1225 24.6711 92.1967 24.378 92.2667 24.3789C94.5689 24.4094 96.8708 24.4685 99.1732 24.5231Z" fill="#E43239"/>
<path d="M94.7599 29.9648C94.8461 32.5706 94.932 35.177 95.0184 37.7828C94.8811 37.6816 94.6235 37.5789 94.625 37.479C94.6532 34.9744 94.709 32.4694 94.7599 29.9648Z" fill="#E43239"/>
<path d="M90.5948 33.9532C90.4865 32.2058 90.367 30.4586 90.2744 28.7107C90.2093 27.4798 90.1816 26.2474 90.1367 25.0156C90.303 25.1147 90.4693 25.2137 90.6356 25.3123C90.6393 26.2616 90.6425 27.2104 90.6455 28.1594C90.6283 30.0905 90.6116 32.0221 90.5948 33.9532Z" fill="#E43239"/>
<path d="M90.6464 28.1602C90.6432 27.2114 90.6399 26.2622 90.6367 25.3134C90.9566 25.3067 91.2766 25.2998 91.5969 25.293C91.6124 25.7764 91.6278 26.2594 91.6433 26.7428C91.5456 27.0956 91.4482 27.4478 91.3507 27.8003C91.1163 27.9202 90.8812 28.0401 90.6464 28.1602Z" fill="#EB2028"/>
<path d="M95.096 38.8633C95.1946 41.1992 95.2928 43.5351 95.3914 45.871C95.2537 45.7851 94.9957 45.6989 94.9961 45.6138C95.0133 43.3639 95.0569 41.1132 95.096 38.8633Z" fill="#E43239"/>
<path d="M100.644 27.5675C100.711 27.298 100.778 27.029 100.846 26.7596L101.005 26.7227C101.286 26.7572 101.567 26.7914 101.936 26.8367V28.5758C101.408 28.4112 101.005 28.2857 100.602 28.1605C100.616 27.9628 100.63 27.7651 100.644 27.5675Z" fill="#EB2028"/>
<path d="M98.2461 40.2388C98.3247 39.8899 98.4034 39.5403 98.4824 39.1914C99.8397 39.833 99.8955 40.187 98.8204 41.3284C98.6477 41.3215 98.4751 41.3144 98.3024 41.3075C98.2833 40.9513 98.2648 40.5951 98.2461 40.2388Z" fill="#EB2028"/>
<path d="M98.3047 41.3086C98.4772 41.3155 98.6504 41.3228 98.8231 41.3296C98.824 42.7518 98.8253 44.1735 98.8266 45.5956C98.6931 45.5947 98.5599 45.5943 98.4267 45.5935C98.3859 44.1653 98.3455 42.7367 98.3047 41.3086Z" fill="#E43239"/>
<path d="M91.7227 27.7695H94.7278V29.1953C94.5957 28.8851 94.4629 28.5746 94.3817 28.3829C93.4366 28.1653 92.5797 27.9672 91.7227 27.7695Z" fill="#E43239"/>
<path d="M100.643 27.5664C100.629 27.7641 100.615 27.9617 100.6 28.1594C99.6907 28.1656 98.781 28.1717 97.8711 28.1779C98.6502 27.3198 99.6976 27.6736 100.643 27.5664Z" fill="#E43239"/>
<path d="M87.8555 46.1982C88.7879 46.1804 89.7202 46.1624 90.6527 46.1445C90.4105 46.3181 90.168 46.4917 89.9252 46.6653C89.2477 46.4539 88.3731 47.117 87.8555 46.1982Z" fill="#E43239"/>
<path d="M98.4676 30.3043C98.2895 30.1919 98.1118 30.0802 97.9337 29.968C97.9234 29.7186 97.9129 29.4695 97.9023 29.2201C97.9806 29.106 98.0592 28.9923 98.1374 28.8789C99.3814 29.0914 98.6367 29.7643 98.4676 30.3043Z" fill="#EB2028"/>
<path d="M95.3477 45.8281L98.1281 45.8808C96.9844 46.4877 96.2715 46.4742 95.3477 45.8281Z" fill="#E43239"/>
<path d="M89.923 24.9488L87.1641 25.0702C87.253 24.9153 87.3415 24.7604 87.4307 24.6055C88.2613 24.7198 89.0924 24.8343 89.923 24.9488Z" fill="#E43239"/>
<path d="M98.4249 45.5898C98.5581 45.5907 98.6911 45.5911 98.8247 45.592C99.0338 45.6519 99.2432 45.7119 99.509 45.7879C98.9293 46.3264 98.9293 46.3264 98.3653 45.7652C98.3482 45.6943 98.3681 45.6356 98.4249 45.5898Z" fill="#EB2028"/>
<path d="M101.004 26.7198L100.845 26.7565C100.82 26.1672 100.795 25.5774 100.77 24.9883C100.848 25.5652 100.926 26.1427 101.004 26.7198Z" fill="#E43239"/>
<path d="M91.3516 27.7995C91.4487 27.4469 91.5464 27.0948 91.6436 26.7422C91.6754 27.0887 91.7074 27.4351 91.7392 27.7812C91.61 27.7877 91.4805 27.7935 91.3516 27.7995Z" fill="#E43239"/>
<path d="M98.1378 28.8797C98.0596 28.9934 97.9814 29.1072 97.9028 29.2209C97.8961 29.1019 97.8897 28.9828 97.8828 28.8638C97.9683 28.8614 98.0532 28.867 98.1378 28.8797Z" fill="#E43239"/>
<path d="M87.0835 46.3133C86.9653 46.3446 86.8471 46.3764 86.7294 46.4078C85.8962 46.4138 85.0628 46.4192 84.23 46.4248C84.0209 46.1388 83.8119 45.8535 83.6028 45.5677C83.4569 45.2147 83.3113 44.8613 83.1654 44.5076C83.1321 44.3931 83.099 44.2786 83.0659 44.1643C82.9954 44.0274 82.9245 43.8906 82.8541 43.7535L82.8768 43.7829C82.7533 43.4939 82.6302 43.2054 82.5064 42.9164L82.472 42.7553C82.2606 42.1412 82.0494 41.5274 81.838 40.9131C81.7246 40.9299 81.6105 40.9464 81.4968 40.9627C81.3582 41.4412 81.2197 41.9201 81.0815 42.3984C80.993 42.4904 80.9681 42.5965 81.0061 42.7183C80.7758 43.4413 80.5454 44.1643 80.3151 44.8871C80.2859 45.0501 80.2564 45.2134 80.2268 45.3765C80.1355 45.569 80.0446 45.7617 79.9537 45.954C79.827 46.168 79.7006 46.382 79.5745 46.5965H76.4638C77.207 44.2642 77.7042 42.1159 78.5711 40.1285C79.7853 37.3446 79.8003 34.7923 78.3371 32.0718C77.288 30.1207 76.6542 27.9466 75.8008 25.7843C76.5955 25.6257 77.2167 25.5015 77.8374 25.3775C78.0658 25.3722 78.2944 25.3662 78.523 25.3604C78.6139 25.4231 78.7142 25.4598 78.8242 25.4704C79.6158 27.2859 80.4073 29.1016 81.3196 31.1945C82.0344 29.4452 82.5541 27.8684 82.8854 26.2249C82.9654 26.0406 83.0459 25.8565 83.1258 25.6719C83.2058 25.6233 83.2311 25.5548 83.2025 25.4661C84.2354 25.3947 85.2682 25.3234 86.4473 25.2422C86.2761 25.8906 86.1901 26.2885 86.0651 26.674C85.2299 29.2512 84.4171 31.8365 83.5293 34.3955C83.1817 35.3969 83.1617 36.2763 83.6121 37.2722C84.5334 39.3101 85.3459 41.3985 86.1607 43.4826C86.5214 44.4054 86.779 45.3688 87.0835 46.3133Z" fill="#FCF3F4"/>
<path d="M77.8395 25.3773C77.2184 25.5013 76.5972 25.6253 75.8025 25.7838C76.6563 27.9464 77.2897 30.1205 78.3388 32.0712C79.8022 34.7919 79.7874 37.3441 78.5728 40.1276C77.7059 42.115 77.2087 44.2638 76.4653 46.5956H79.576C79.1108 46.7374 78.6478 46.9914 78.1792 47.0019C75.9301 47.0509 73.6797 47.0345 71.4291 47.0414C71.4063 46.9823 71.3977 46.9215 71.4031 46.8588C72.805 46.7552 74.2067 46.6515 75.6456 46.5453V43.6495H71.2082V37.8022C72.6278 37.6885 73.9635 37.5818 75.4626 37.4614C75.4144 36.4063 75.3736 35.5108 75.3272 34.4951H70.8234V28.6459C72.2556 28.5746 73.6473 28.5052 75.2645 28.4242C75.1601 27.3832 75.0709 26.5015 74.9877 25.6749H67.8477C68.0326 25.5567 68.2099 25.3505 68.4028 25.3341C70.0783 25.19 71.7552 25.0488 73.4348 24.9783C73.9968 24.9551 74.5655 25.1837 75.1353 25.2104C75.4308 25.2246 75.7356 25.0501 76.0364 24.9609C76.6372 25.0995 77.2383 25.2387 77.8395 25.3773Z" fill="#E82A31"/>
<path d="M67.8457 25.6738H74.9858C75.0689 26.4997 75.1579 27.3817 75.2629 28.4231C73.6453 28.5041 72.2537 28.5735 70.8214 28.6448V34.4941H75.3252C75.3714 35.509 75.4125 36.4048 75.4606 37.4601C73.962 37.5802 72.6258 37.6875 71.2063 37.8011V43.6484H75.6437V46.5436C74.2046 46.6499 72.8028 46.7535 71.4011 46.8573C70.3548 46.844 69.3082 46.8313 68.2619 46.8182L68.2183 46.6686C68.0462 41.6945 67.8738 36.7206 67.7017 31.7465C67.6904 31.4865 67.6794 31.2261 67.6684 30.9663C67.6186 30.0034 67.5681 29.0406 67.518 28.0778L67.5071 27.453C67.5082 26.9795 67.5086 26.5062 67.5095 26.0326L67.5 26.0496C67.6162 25.9237 67.7325 25.7978 67.8489 25.6719L67.8457 25.6738Z" fill="#FDF5F5"/>
<path d="M67.7037 31.7461C67.8758 36.7202 68.0481 41.6943 68.2206 46.6682C68.095 46.2471 67.8741 45.829 67.8603 45.4042C67.8086 43.8085 67.8245 42.2108 67.8146 40.6138C67.7067 40.2576 67.5986 39.9018 67.4906 39.5456C67.4886 38.3596 67.4869 37.1742 67.485 35.9882C67.4833 35.3952 67.482 34.8018 67.4805 34.2083C67.555 33.3874 67.6291 32.5668 67.7037 31.7461Z" fill="#E82A31"/>
<path d="M68.2653 46.8203C69.3116 46.8336 70.3582 46.8463 71.405 46.8594C71.3992 46.9222 71.4077 46.9834 71.431 47.0425C70.8401 47.6338 70.2499 48.2253 69.7387 48.7368C68.5579 48.3907 68.1639 47.7723 68.2653 46.8203Z" fill="#EB2028"/>
<path d="M81.082 42.3955C81.2206 41.917 81.3588 41.4381 81.4973 40.9596C81.611 40.9432 81.7251 40.9269 81.8392 40.9102C82.05 41.5244 82.2612 42.1383 82.4726 42.7521C82.0091 42.6331 81.5457 42.5145 81.082 42.3955Z" fill="#E9272F"/>
<path d="M67.4803 34.207C67.4816 34.8005 67.4835 35.3939 67.4848 35.9873C66.4857 35.3808 66.4842 34.82 67.4803 34.207Z" fill="#EB2028"/>
<path d="M80.3164 44.8875C80.5469 44.1647 80.7773 43.4417 81.0076 42.7188C81.0108 43.1846 81.1008 43.6721 80.9876 44.1074C80.9098 44.4056 80.5502 44.6303 80.3164 44.8875Z" fill="#E9272F"/>
<path d="M84.2344 46.4269C85.0676 46.4213 85.9006 46.4155 86.7338 46.4102C86.7362 46.5023 86.7316 46.5941 86.7203 46.6854C86.0082 46.6923 85.2958 46.6991 84.5833 46.7058C84.4671 46.6128 84.3506 46.5199 84.2344 46.4269Z" fill="#E43239"/>
<path d="M67.4903 39.5469C67.5986 39.9031 67.7062 40.2593 67.8143 40.6151C67.0232 40.466 66.8733 40.1225 67.4903 39.5469Z" fill="#EB2028"/>
<path d="M67.5135 26.0312C67.5131 26.5048 67.5122 26.9783 67.5118 27.4517C66.9433 26.9773 66.9233 26.5039 67.5135 26.0312Z" fill="#E82A31"/>
<path d="M87.088 46.3152C86.7835 45.3707 86.5259 44.4073 86.1652 43.4845C85.3504 41.4004 84.5378 39.312 83.6165 37.2741C83.1662 36.2782 83.1862 35.3988 83.5338 34.3974C84.4216 31.8385 85.2344 29.2531 86.0696 26.6759C86.1946 26.2905 86.2805 25.8926 86.4518 25.2441C85.2727 25.3253 84.2398 25.3967 83.207 25.468C83.4528 25.2976 83.6956 24.9869 83.9451 24.9816C85.0232 24.9579 86.1041 25.0237 87.1838 25.057C87.3146 29.4643 87.435 33.8727 87.5791 38.2796C87.6655 40.9247 87.7882 43.5676 87.8943 46.2117C87.6253 46.2463 87.357 46.2808 87.088 46.3152Z" fill="#E43239"/>
<path d="M78.8247 25.4692C78.7149 25.4587 78.6143 25.4219 78.5234 25.3592C78.5789 25.2887 78.6347 25.2187 78.6902 25.1484C78.7353 25.2552 78.7798 25.3624 78.8247 25.4692Z" fill="#E82A31"/>
</svg>
