<svg width="150" height="110" viewBox="0 0 150 110" fill="none" xmlns="http://www.w3.org/2000/svg">
<g clip-path="url(#clip0_1054_1008)">
<path d="M118.603 57.2224C117.91 57.2178 117.375 57.8889 117.36 58.7807C117.346 59.6293 117.905 60.2859 118.634 60.2748C119.365 60.2648 119.792 59.723 119.787 58.8138C119.781 57.8778 119.297 57.2267 118.603 57.2224ZM118.305 55.1541C118.31 54.3288 117.655 53.6554 116.867 53.6799C116.019 53.7062 115.444 54.3551 115.433 55.2999C115.423 56.1694 115.877 56.7544 116.586 56.7841C117.445 56.8206 118.299 56.0105 118.305 55.1541ZM83.9723 65.0688C83.9734 63.8657 83.5587 63.3538 82.5973 63.3681C81.6703 63.3824 81.0604 63.9673 81.0777 64.8745C81.0929 65.6624 81.4832 66.6006 82.5463 66.5718C83.5718 66.5452 83.9713 66.1514 83.9723 65.0688ZM82.8015 60.7206C82.7873 59.6171 82.3552 59.1128 81.4212 59.1106C80.4556 59.1083 79.8641 59.7871 79.8945 60.8607C79.9231 61.8286 80.5889 62.5394 81.4446 62.514C82.34 62.4886 82.8157 61.8594 82.8015 60.7206ZM117.215 51.3215C118.639 51.3104 119.376 50.6273 119.358 49.334C119.342 48.1729 118.476 47.3553 117.256 47.3476C116.163 47.3408 115.454 48.1255 115.444 49.3539C115.433 50.6769 116.021 51.3303 117.215 51.3215ZM79.7615 57.6792C81.1773 57.6815 82.0543 56.9199 82.0696 55.674C82.084 54.5129 81.0412 53.4149 79.8927 53.3829C78.7603 53.351 77.8141 54.3662 77.8354 55.5901C77.8556 56.7224 78.736 57.677 79.7615 57.6792ZM86.6291 61.2482C88.0919 61.2504 89.032 60.1358 89.0259 58.4032C89.0197 56.8383 87.7411 55.6475 86.6648 55.5559C85.5355 55.4589 84.1889 57.0623 84.196 58.424C84.2062 60.085 85.2052 61.2448 86.6291 61.2482ZM120.243 52.3137C120.233 53.9502 121.339 55.258 122.758 55.2877C124.123 55.3165 125.351 53.9613 125.376 52.3987C125.4 50.8492 124.197 49.4399 122.835 49.4222C121.406 49.4045 120.252 50.6914 120.243 52.3137ZM99.7163 89.6045C99.7579 88.6908 99.2793 88.1863 98.5758 87.8653C96.4974 86.9151 94.4291 85.9363 92.3332 85.0357C91.0525 84.4861 89.7403 84.0093 88.417 83.5955C87.4047 83.2788 86.1016 83.8869 85.4877 84.8591C85.6443 85.0191 85.7847 85.2309 85.9747 85.3459C86.6801 85.7717 87.3752 86.2374 88.1224 86.5609C90.53 87.6005 92.9502 88.6069 95.3823 89.578C96.361 89.9686 97.3765 90.2666 98.4478 90.1584C98.9203 90.111 99.391 90.0745 99.7163 89.6045ZM110.883 82.3728C111.864 84.0601 111.65 85.5808 110.658 87.0452C110.318 87.5463 109.976 88.0473 109.655 88.5627C109.399 88.971 109.014 89.3463 109.242 89.9807C110.11 90.2974 111.006 90.3262 111.919 90.2523C114.496 90.046 116.964 89.2844 119.415 88.4754C120.373 88.1587 121.3 87.6755 122.179 87.1468C123.256 86.5001 123.333 86.0841 122.511 85.1119C121.576 84.007 120.52 83.026 119.535 81.971C119.142 81.5495 118.706 81.4137 118.161 81.4513C116.441 81.5704 114.718 81.6411 112.997 81.7481C112.295 81.7912 111.598 81.8928 110.883 82.3728ZM104.169 90.2666C104.786 90.1153 105.341 90.0757 105.818 89.8451C107.471 89.0438 108.699 87.724 109.562 85.9968C110.389 84.3426 109.925 82.9643 108.265 82.3739C107.44 82.0803 106.574 81.8189 105.713 81.7592C102.577 81.5441 99.4346 81.4602 96.299 81.2448C94.6567 81.1323 93.0183 80.8961 91.3899 80.6281C89.9274 80.3875 88.479 80.0443 87.0307 79.7141C84.136 79.0566 81.2047 78.551 78.4829 77.1881C77.5092 76.7016 76.5009 76.2921 75.4895 75.9015C75.2496 75.8099 74.7334 75.8661 74.6987 75.9808C74.6073 76.281 74.6012 76.7379 74.7608 76.9764C75.1521 77.5634 75.5831 78.1814 76.1279 78.5741C78.3161 80.1524 80.5329 81.6862 82.7842 83.1563C83.5587 83.6628 84.4196 83.6794 85.2774 83.0913C85.7989 82.7326 86.4433 82.4909 87.058 82.4036C88.4911 82.2016 89.8735 82.5582 91.2081 83.1321C93.0874 83.9388 94.9778 84.7156 96.8419 85.561C98.6806 86.3943 100.494 87.288 101.636 89.2182C101.753 89.4147 101.986 89.5791 102.196 89.653C102.86 89.8893 103.538 90.0745 104.169 90.2666ZM93.4004 63.1241C93.4929 63.1738 93.5854 63.2246 93.678 63.2742C94.7592 62.6983 95.8611 62.1499 96.7839 61.2779C97.2088 60.8763 97.5941 60.4038 97.9203 59.9039C98.8359 58.5013 98.7883 56.8659 98.833 55.2437C98.8685 53.9468 98.345 52.9703 97.4924 52.1801C97.0359 51.7575 96.5177 51.3281 95.9587 51.136C94.5784 50.6626 93.1737 50.0845 91.7529 49.9829C88.5826 49.7555 85.3963 49.7224 82.2181 49.7523C80.2687 49.77 78.3771 50.347 76.7539 51.55C74.7437 53.0387 72.8133 54.6621 71.114 56.5669C68.9694 58.9682 66.5179 60.8652 63.6943 62.2138C63.1384 62.4798 62.495 62.6883 62.0853 63.3912C62.3079 63.5347 62.4635 63.6748 62.6414 63.7411C65.0961 64.6659 67.5261 65.6823 70.0204 66.4593C71.6009 66.9513 73.2769 67.0905 74.9124 67.3719C75.2722 67.4327 75.6867 67.5286 75.9084 67.074C76.1085 66.6622 75.7915 66.4085 75.6023 66.1095C74.642 64.5931 74.0971 62.9058 74.0168 61.0738C73.8948 58.2785 74.8716 55.9023 76.5944 53.8951C77.8648 52.413 79.2349 51.1041 81.1865 50.6626C84.4033 49.9332 87.361 50.25 89.9731 52.627C91.0199 53.5806 91.9702 54.6444 92.5589 55.9642C93.3342 57.7023 93.7074 59.564 93.4115 61.5318C93.3342 62.0494 93.4004 62.5922 93.4004 63.1241ZM73.0238 75.918C73.3673 74.9789 74.0717 74.6379 74.8909 74.7061C75.6543 74.7703 76.4399 74.9215 77.1513 75.2172C79.4067 76.1529 81.6438 77.0845 84.0283 77.6373C86.9889 78.3238 89.9437 78.9804 92.9592 79.2861C95.0378 79.4969 97.1132 79.7506 99.1949 79.9096C101.785 80.1059 104.38 80.2637 106.975 80.3664C110.015 80.4857 113.03 80.149 116.052 79.786C118.063 79.5454 120.036 79.2044 122.004 78.6857C124.1 78.1338 126.011 77.2235 127.738 75.8364C128.355 75.3407 128.813 74.7184 128.893 73.8652C128.998 72.7397 128.501 72.3491 127.558 72.8168C127.006 73.0907 126.492 73.4491 125.946 73.7362C124.797 74.3409 123.676 75.0548 122.471 75.4865C120.206 76.2975 117.858 76.7544 115.486 77.1065C113.313 77.431 111.136 77.6838 108.949 77.7135C106.79 77.7432 104.627 77.6418 102.469 77.5303C100.449 77.4264 98.4265 77.3085 96.4191 77.06C94.4869 76.8206 92.5568 76.4907 90.6562 76.0493C87.9321 75.4169 85.2275 74.6853 82.5321 73.9194C81.2351 73.5507 79.9739 73.0299 78.7085 72.5388C76.8149 71.8038 74.9518 70.9685 73.037 70.3085C72.171 70.0094 71.1821 69.6639 70.3313 70.4575C69.9776 70.7864 69.694 71.2025 69.3668 71.5666C68.191 72.8798 67.9702 74.1887 68.6564 75.8715C69.1534 77.0911 69.8446 78.1957 70.7187 79.1017C72.0328 80.4646 73.4446 81.7205 74.838 82.9908C77.1137 85.0643 79.4982 86.9736 82.1368 88.4822C83.1471 89.0604 84.1421 89.6685 85.1555 90.2412C87.0643 91.3184 88.9649 92.4153 90.899 93.4383C92.7804 94.4325 94.8041 94.9889 96.8246 95.5593C99.7366 96.3815 102.694 96.8295 105.694 96.941C108.838 97.0569 111.94 96.5427 115.045 96.0847C118.303 95.6035 121.289 94.3851 124.036 92.4273C126.21 90.8792 127.19 88.7074 127.037 85.9163C126.991 85.0974 126.754 84.3879 126.137 83.7987C125.361 83.0559 124.685 82.1896 123.966 81.3763C122.934 80.2064 121.483 80.0542 120.124 81.0285C120.545 81.4214 120.951 81.7989 121.355 82.1796C122.069 82.8496 122.83 83.4685 123.483 84.2025C124.696 85.5653 124.564 87.2384 122.94 88.2791C121.4 89.2667 119.708 89.7226 118.046 90.2809C116.834 90.6871 115.565 90.9189 114.307 91.1275C112.547 91.4188 110.779 91.7399 109.004 91.8237C106.468 91.945 103.924 91.8745 101.384 91.8668C98.7954 91.858 96.3145 91.2587 93.9177 90.2115C92.3881 89.5438 90.8585 88.8717 89.3095 88.2602C87.0551 87.3708 84.9135 86.2054 82.8512 84.9121C80.4354 83.3958 78.0123 81.8574 75.883 79.8622C74.7171 78.7707 73.4325 77.7742 73.0238 75.918ZM28.5029 13.3706C28.4094 13.3432 28.3169 13.3155 28.2235 13.2879C27.6777 13.6103 27.3269 14.1334 27.0606 14.7281C25.7983 17.5379 25.3978 20.5759 25.1957 23.6383C25.033 26.0861 25.0817 28.5504 24.9618 31.0036C24.8916 32.4338 24.6264 33.8243 23.6701 34.9532C23.36 35.3196 23.1557 35.813 22.9718 36.281C22.3904 37.7586 21.7978 39.2341 21.2927 40.7428C20.5823 42.8659 19.9032 45.0046 19.2903 47.1621C18.5778 49.6684 17.8725 52.1824 17.3074 54.7304C16.6722 57.5987 16.1 60.4911 15.6822 63.4035C15.3305 65.8524 15.1973 68.343 15.048 70.8204C14.92 72.9415 14.8519 75.0714 14.8559 77.197C14.8619 79.9846 14.9657 82.7723 15.0296 85.5599C15.0317 85.6304 15.0622 85.7 15.1019 85.8644C20.2296 89.6011 26.0667 90.2954 32.2036 90.2954C32.105 89.7358 32.0562 89.3075 31.9526 88.8949C31.6181 87.5596 31.1547 86.2507 30.9382 84.8944C30.4514 81.8431 30.0306 78.7762 29.683 75.7017C29.4054 73.2374 29.1442 70.7565 29.1066 68.2779C29.0152 62.4081 28.8932 56.5347 29.4238 50.6692C29.622 48.4799 29.8903 46.3201 30.4046 44.2036C30.9189 42.0868 31.5847 40.0143 32.0887 37.8966C32.3631 36.7467 32.9516 35.845 33.8075 35.2756C35.7691 33.971 37.6454 32.5508 39.3397 30.8723C40.6488 29.5757 42.1358 28.3871 42.4457 26.1765C42.3329 25.9845 42.1744 25.7154 42.0159 25.4449C41.2606 25.5542 40.7158 25.9648 40.2036 26.4436C39.6172 26.9921 39.0196 27.4966 38.244 27.7337C37.0122 28.1112 36.4603 27.6863 36.382 26.3389C36.2498 24.0655 36.7723 21.8991 37.31 19.7571C37.8567 17.5765 38.4199 15.4058 38.7817 13.1777C38.8661 12.6612 38.7826 12.2517 38.3689 11.9393C37.4654 12.1821 37.3902 13.0419 37.2367 13.7459C36.9502 15.0548 36.8191 16.4045 36.5405 17.7166C36.3444 18.6369 36.0435 19.5374 35.7234 20.4192C35.5678 20.8486 35.1968 21.1177 34.7313 20.9765C34.3197 20.8518 34.2861 20.4512 34.3248 20.0771C34.4296 19.064 34.4743 18.0311 34.6958 17.0468C35.3006 14.3596 35.9694 11.6878 36.6524 9.02265C36.7773 8.53608 36.7479 8.17286 36.4551 7.82869C35.9145 7.59017 35.509 7.78992 35.2131 8.26446C34.9886 8.62768 34.7355 8.99839 34.6217 9.40673C34.0178 11.5675 33.3673 13.7193 33.1092 15.9751C32.9679 17.2055 32.853 18.4394 32.6853 19.6644C32.6375 20.012 32.4801 20.3575 32.3124 20.6632C32.1192 21.0141 31.7534 21.1631 31.4291 21.0053C31.2025 20.8949 30.9962 20.5904 30.9016 20.3222C30.4543 19.0541 30.7644 17.7928 31.0409 16.5546C31.4514 14.7126 31.8937 12.8775 32.3773 11.0555C32.5166 10.5313 32.5137 10.1372 32.0877 9.72347C31.8693 9.74773 31.6101 9.77629 31.3884 9.80078C31.2879 9.99169 31.2044 10.1119 31.1557 10.2477C30.2338 12.8002 29.3973 15.377 29.254 18.1515C29.2123 18.9527 29.1849 19.7737 28.3586 20.1455C27.4774 19.8057 27.6096 19.0452 27.6969 18.3732C27.8036 17.5456 28.0314 16.7378 28.1665 15.9134C28.3048 15.0713 28.3931 14.2184 28.5029 13.3706ZM89.5148 41.9963C89.7374 41.7612 89.8604 41.5583 90.0341 41.4588C91.6065 40.5516 93.1808 39.6479 94.7684 38.7716C98.3655 36.7852 102.247 35.9762 106.218 35.5702C107.861 35.4024 109.507 35.2822 111.154 35.1806C111.722 35.1453 112.297 35.2425 112.869 35.2623C113.713 35.2922 114.559 35.3242 115.402 35.3142C115.562 35.3119 115.72 35.121 115.956 34.9655C114.672 33.4117 113.345 32.1821 111.584 31.4196C109.195 30.3867 106.743 29.8836 104.211 29.8647C102.67 29.8548 101.128 30.1164 99.5871 30.2588C97.4964 30.4529 95.6588 31.4439 93.806 32.4007C92.0343 33.3167 90.4966 34.6299 88.843 35.7434C85.8659 37.7497 82.6125 38.2485 79.2441 37.1881C77.6727 36.6936 76.1655 35.9465 74.6562 35.2446C72.6538 34.3132 70.5439 33.854 68.4054 33.6291C66.3847 33.416 64.3773 33.6665 62.3894 34.2084C60.3576 34.7623 58.3878 35.4908 56.5116 36.4719C54.8152 37.3591 53.2388 38.4748 51.8067 39.8288C50.2842 41.2679 48.7129 42.6452 47.1578 44.0435C46.1983 44.9064 45.2327 45.7616 44.2651 46.6148C43.4033 47.3739 42.5108 48.0958 41.6743 48.886C40.3074 50.1761 39.3468 51.828 38.4199 53.4834C37.9177 54.3805 37.434 55.3616 37.2388 56.3726C36.9907 57.6493 37.068 58.997 36.9634 60.3102C36.8556 61.6542 36.7061 62.994 36.5487 64.3326C36.5313 64.4861 36.3474 64.6162 36.0964 64.9473C35.9531 64.2798 35.8036 63.8383 35.7721 63.3869C35.6756 61.9998 35.6299 60.6092 35.5495 59.221C35.5271 58.8423 35.4519 58.4682 35.3718 57.8656C34.9387 58.1823 34.6328 58.327 34.4254 58.5721C33.3542 59.8368 32.3163 61.1355 31.2482 62.4036C30.8356 62.8935 30.6648 63.4277 30.6719 64.0966C30.7126 67.9435 30.5978 71.7918 31.2533 75.6078C31.6283 77.7919 31.7239 80.0377 32.166 82.2038C32.7292 84.9661 33.0309 87.7934 33.9224 90.4797C34.7192 92.8821 35.3839 95.3353 36.192 97.7323C36.9379 99.9472 36.9807 99.9592 39.0866 100.475C41.3114 101.018 43.5413 101.548 45.7876 101.973C47.2411 102.249 48.7261 102.33 50.1978 102.49C51.0017 102.578 51.8057 102.654 52.6107 102.73C54.7563 102.932 56.9019 103.266 59.0506 103.302C62.3274 103.357 65.6083 103.223 68.8861 103.138C70.6078 103.093 72.3276 102.994 74.0472 102.904C76.5061 102.775 78.9636 102.612 81.4222 102.496C83.582 102.395 85.7439 102.339 87.9048 102.258C90.0656 102.178 92.2275 102.103 94.3873 102.001C95.4312 101.951 96.4759 101.881 97.5148 101.76C99.6867 101.509 101.853 101.191 104.027 100.951C105.868 100.749 107.718 100.626 109.563 100.454C110.266 100.389 110.971 100.309 111.669 100.198C113.294 99.9373 114.917 99.6548 116.541 99.3788C117.866 99.1537 119.21 99.029 120.415 98.2753C121.298 97.7246 121.492 97.2963 121.218 96.0747C121.071 96.057 120.902 95.9974 120.746 96.0262C120.185 96.1321 119.616 96.2205 119.074 96.4003C115.368 97.6307 111.561 98.0345 107.708 98.0237C106.157 98.0191 104.606 97.8547 103.055 97.8525C100.086 97.8493 97.2585 97.0281 94.4696 96.0878C92.811 95.5285 91.2152 94.7238 89.6317 93.9328C87.9232 93.0785 86.2572 92.1205 84.5812 91.1903C83.6533 90.6749 82.7232 90.1607 81.8309 89.5814C80.1558 88.4942 78.4604 87.4327 76.8596 86.2253C75.3676 85.1008 73.9426 83.8581 72.5694 82.5648C70.9647 81.0518 69.3618 79.5144 68.2225 77.5192C67.0007 75.3793 66.7416 73.0828 68.3087 70.8735C68.5954 70.4674 68.9279 70.0965 69.2622 69.7346C70.1495 68.7756 71.2125 68.4069 72.4109 68.8495C74.5728 69.6496 76.7387 70.4475 78.8619 71.3612C81.9355 72.6844 85.1006 73.6811 88.3255 74.3817C91.4154 75.0517 94.4982 75.8364 97.6672 76.025C99.2446 76.1178 100.817 76.398 102.393 76.4268C105.633 76.4853 108.875 76.5712 112.101 76.0184C113.727 75.7402 115.412 75.8264 117.019 75.4709C120.2 74.7669 123.409 74.1026 126.158 71.9793C127.333 71.071 127.562 70.7531 127.227 69.3043C126.87 67.7614 126.908 66.2661 127.609 64.8271C127.817 64.3988 128.041 63.9553 127.978 63.3769C127.456 63.5424 127.01 63.6937 126.558 63.8249C125.587 64.1054 124.62 64.3999 123.641 64.6405C123.189 64.7509 122.711 64.7509 122.296 64.1462C122.68 63.9485 122.988 63.7499 123.319 63.6241C124.336 63.2391 125.377 62.9244 126.379 62.5006C127.283 62.1199 128.226 61.7535 129.012 61.162C130.17 60.2902 131.209 59.2298 132.286 58.2342C132.406 58.1229 132.448 57.9121 132.643 57.5003C131.824 57.8171 131.217 58.0025 130.649 58.2816C127.492 59.8291 124.229 61.0418 120.875 61.9721C120.162 62.1707 119.428 62.2866 118.715 62.4875C116.494 63.1132 114.237 63.5159 111.949 63.6064C108.979 63.7245 106.013 63.6263 103.088 62.9477C101.907 62.6741 100.727 62.3916 99.5413 62.1431C98.6601 61.959 97.8309 61.9764 97.0543 62.6475C95.9384 63.612 94.6099 64.1517 93.2591 64.6185C92.6827 64.8171 92.1035 65.0103 91.5353 65.2354C89.9621 65.8567 88.4212 66.5917 86.8183 67.1048C83.8401 68.0582 80.7595 68.4169 77.6717 68.6409C75.6787 68.7855 73.7069 68.4368 71.7411 68.1135C69.3353 67.7183 67.0556 66.8565 64.8012 65.8952C61.6869 64.5666 58.4661 63.7157 55.1313 63.3792C54.304 63.2953 53.3973 62.3462 53.2469 61.4688C53.0091 60.0805 53.3954 59.3842 54.6312 59.0233C55.0204 58.9097 55.423 58.8512 55.8194 58.7718C58.088 58.3236 60.258 57.5742 62.1392 56.0867C63.6598 54.8839 65.1061 53.5695 66.6094 52.3402C68.1127 51.1095 69.5915 49.8294 71.1831 48.7468C72.6874 47.7229 74.2669 46.8234 76.0049 46.2616C78.2664 45.5311 80.5126 44.7971 82.9042 44.8379C84.3941 44.8633 85.9085 44.6978 87.3692 44.9329C89.3531 45.2529 91.3463 45.6358 93.248 46.4017C93.565 46.5298 93.9198 46.5475 94.2704 46.6191C94.2917 46.3863 94.3263 46.2935 94.299 46.2462C94.2307 46.1314 94.1505 46.0002 94.0448 45.9405C93.1778 45.4594 92.3463 44.828 91.4257 44.5534C89.0259 43.8381 86.5752 43.3316 84.0698 43.3404C82.6877 43.3461 81.3043 43.4288 79.924 43.5247C77.5011 43.6936 75.1216 44.1042 72.8399 45.0688C70.6903 45.9768 68.6819 47.1687 66.8798 48.7225C64.8257 50.496 62.8091 52.3245 60.8272 54.1908C59.6299 55.3176 58.2496 55.5251 56.7676 55.4666C56.3439 55.45 56.0867 55.2138 55.9373 54.8088C56.1224 54.2547 56.5074 54.1665 56.9812 54.1103C58.0078 53.9867 59.0383 53.9194 59.8961 53.095C61.258 51.7872 62.74 50.6252 64.0766 49.2898C66.0078 47.363 68.1615 45.8124 70.5001 44.5677C71.4901 44.0401 72.545 43.6163 73.6112 43.3107C75.0667 42.8924 76.5599 42.6276 78.0377 42.3042C80.4475 41.7755 82.8746 41.8551 85.2956 42.1442C86.7634 42.3185 88.2209 42.5945 89.6764 42.8715C91.3056 43.1815 92.8972 43.6705 94.3334 44.5765C94.8315 44.8899 95.2909 45.4098 95.5765 45.9537C95.8722 46.5155 95.9232 47.2571 95.5084 47.8222C95.1029 48.3738 94.5489 48.1455 94.0144 47.9831C92.7224 47.5913 91.4336 47.161 90.1174 46.8928C88.8002 46.6257 87.4556 46.489 86.1169 46.3851C85.1056 46.3058 84.0851 46.3743 83.0688 46.3643C81.2688 46.3466 79.5226 46.7184 77.8141 47.2746C76.0089 47.863 74.2201 48.5273 72.6294 49.665C71.0286 50.8084 69.4115 51.9307 67.8727 53.1666C66.4133 54.3386 65.0422 55.6409 63.6375 56.8934C61.7713 58.5576 59.6441 59.5454 57.2464 59.8787C56.3907 59.9977 55.545 60.2063 54.7156 60.3707C54.6383 61.449 54.797 61.7966 55.6832 62.0449C57.411 62.5271 59.1726 62.3251 60.9216 62.2004C61.3476 62.1696 61.7836 62.0283 62.182 61.8517C64.416 60.8598 66.4264 59.4393 68.2682 57.7751C70.2054 56.0239 72.0583 54.1599 73.9163 52.3091C74.9976 51.2322 76.2275 50.4309 77.5479 49.7777C78.2207 49.4444 78.8935 49.0007 79.6039 48.8914C81.2667 48.6354 82.9508 48.4554 84.6299 48.418C88.2696 48.3364 91.9145 48.2867 95.4199 49.687C96.8887 50.2742 98.3024 50.89 99.2091 52.3942C99.3229 52.5828 99.5852 52.6667 99.8107 52.8213C100.82 52.1867 101.828 51.5997 102.793 50.9386C104.899 49.4952 106.995 48.0317 109.074 46.5441C112.52 44.0789 116.347 42.9951 120.421 42.9212C121.961 42.8935 123.505 43.1926 125.05 43.283C127.502 43.4277 129.79 44.2741 132.081 45.1293C132.713 45.3655 133.367 45.5388 134.01 45.7397C134.04 45.6646 134.069 45.5907 134.099 45.5156C133.487 45.0785 132.919 44.5223 132.253 44.2333C131.164 43.7621 130.029 43.3823 128.885 43.1087C126.329 42.4974 123.805 41.6973 121.173 41.5053C119.831 41.4071 118.492 41.1509 117.152 41.1565C115.746 41.1631 114.335 41.3617 112.932 41.5406C110.661 41.8308 108.556 42.6992 106.604 43.9639C104.727 45.1812 102.903 46.4944 101.049 47.756C100.688 48.0008 100.32 48.3121 99.8493 48.0239C99.9947 47.1764 100.12 46.9458 100.787 46.4282C101.854 45.5995 102.903 44.7386 104.008 43.9761C105.115 43.2125 106.235 42.4367 107.431 41.8705C110.202 40.5605 113.159 40.0419 116.153 39.7957C118.759 39.5805 121.347 39.9547 123.923 40.2857C125.517 40.49 127.081 40.9523 128.663 41.2824C128.9 41.332 129.154 41.289 129.414 41.289C129.391 41.1631 129.395 41.1146 129.374 41.0935C129.303 41.0173 129.232 40.9346 129.146 40.8817C126.321 39.1359 123.418 37.6769 120.114 37.2906C117.872 37.0292 115.641 36.6793 113.382 36.6385C113.215 36.6362 113.048 36.5932 112.881 36.5866C112.003 36.5523 111.121 36.4419 110.251 36.5115C108.374 36.6605 106.501 36.8813 104.63 37.1174C103.665 37.24 102.678 37.3459 101.756 37.6527C99.5739 38.3777 97.3613 39.0178 95.2838 40.0905C94.0396 40.7328 92.75 41.2756 91.4703 41.8351C90.895 42.0879 90.3024 42.3727 89.5148 41.9963ZM119.844 44.3237L119.824 44.3337C118.779 44.3868 117.734 44.4384 116.688 44.4904C116.483 44.5434 116.276 44.5963 116.071 44.6482C115.873 44.6847 115.676 44.721 115.477 44.7575C115.336 44.796 115.195 44.8348 115.054 44.8733C114.046 45.2783 112.978 45.5599 112.042 46.1072C108.055 48.4368 104.269 51.1263 100.527 53.8885C99.9613 54.3055 99.7345 54.81 99.8057 55.5625C99.8667 56.2093 99.8646 56.8868 99.7558 57.5225C99.5973 58.4474 99.3179 59.3477 99.0556 60.395C99.3747 60.5716 99.7334 60.8464 100.132 60.9788C101.002 61.267 101.885 61.5252 102.775 61.7238C105.805 62.3981 108.862 62.6795 111.951 62.3485C112.198 62.322 112.438 62.2149 112.747 62.1265C112.616 61.6774 112.52 61.3343 112.416 60.9933C112.008 59.637 111.504 58.305 111.21 56.921C110.629 54.1876 111.08 51.6106 112.475 49.2313C113.591 47.3288 115.195 46.1038 117.066 45.2343C117.203 45.1769 117.341 45.1193 117.478 45.062C118.295 44.9252 119.111 44.7883 119.927 44.6516C120.061 44.6527 120.194 44.6536 120.329 44.6548C121.078 44.7817 121.827 44.9076 122.577 45.0345C122.714 45.0962 122.851 45.1592 122.988 45.2209C126.504 46.7064 128.688 49.4233 129.402 53.4668C129.56 54.3651 129.585 55.2911 129.691 56.2005C129.729 56.5381 129.825 56.868 129.904 57.2489C130.196 57.1716 130.373 57.165 130.51 57.0811C131.537 56.4519 132.599 55.876 133.569 55.1541C135.37 53.8101 135.928 51.8049 135.224 49.5569C135.094 49.1408 134.923 48.7402 134.775 48.3298C134.516 47.6025 134.041 47.1522 133.376 46.84C129.174 44.871 124.766 44.1482 120.223 44.2045C120.096 44.2067 119.97 44.2818 119.844 44.3237ZM13.1952 73.1072C13.4645 69.5911 13.6493 66.0653 14.0346 62.5648C14.2937 60.2041 14.802 57.8724 15.2614 55.5427C16.3612 49.9729 17.8349 44.518 19.7823 39.2287C20.6472 36.8813 21.7205 34.6256 22.6648 32.3114C22.8935 31.7507 23.0753 31.1337 23.1232 30.5279C23.3203 28.0382 23.484 25.5442 23.6101 23.049C23.731 20.6897 24.0795 18.3766 24.7534 16.1351C25.0554 15.1287 25.4659 14.1531 25.905 13.2063C26.3208 12.3102 26.9224 11.5786 27.8067 11.146C28.5518 10.7818 29.1513 10.2531 29.5752 9.42328C30.1069 8.38486 31.0916 7.91462 32.1366 7.90691C33.0696 7.90034 33.7689 7.492 34.401 6.87507C35.1389 6.15452 35.9897 5.72623 36.8963 6.19851C37.8049 6.67214 38.2146 7.63212 38.2023 8.75669C38.1983 9.11969 38.2012 9.48291 38.2012 9.81824C39.8632 10.6968 40.4851 11.6767 40.2188 13.7139C39.9536 15.7368 39.4698 17.7365 38.9534 19.7052C38.489 21.4742 38.0164 23.23 37.8801 25.0696C37.8577 25.3798 37.8772 25.6943 37.8772 26.2484C38.3213 25.9659 38.612 25.8224 38.858 25.6161C39.3121 25.2352 39.7239 24.7928 40.1833 24.4207C40.972 23.7818 42.3126 23.6868 42.9518 24.189C43.7458 24.8103 44.1187 26.0276 43.8758 27.1345C43.5678 28.5361 42.8441 29.6761 41.971 30.7188C40.4343 32.5562 38.6201 34.0384 36.638 35.2326C34.9823 36.229 34.0454 37.7597 33.402 39.5762C32.5105 42.0902 32.0023 44.7089 31.6792 47.3739C31.5287 48.6123 31.361 49.8482 31.177 51.0809C30.7481 53.9579 30.675 56.856 30.679 59.9238C31.48 59.1437 32.1873 58.444 32.904 57.7574C33.4874 57.1992 34.0971 56.6739 34.6693 56.1032C35.7387 55.0383 36.3179 53.6103 36.9959 52.2651C38.366 49.5437 40.2128 47.2571 42.52 45.4726C44.9502 43.5943 47.2207 41.5184 49.4761 39.4139C53.3058 35.8395 57.5736 33.1555 62.5926 32.1567C64.9618 31.6856 67.3818 31.838 69.7876 31.9527C72.3815 32.0763 74.7405 33.0011 77.0385 34.2139C78.8152 35.1518 80.6446 35.866 82.6785 35.7622C84.4735 35.6717 86.1403 35.1695 87.673 34.1565C89.1153 33.202 90.5434 32.222 91.9865 31.2696C94.6892 29.4861 97.6459 28.5284 100.764 28.0802C104.317 27.5682 107.795 27.9357 111.172 29.207C112.962 29.8813 114.638 30.8512 116.116 32.169C116.372 32.3964 116.584 32.702 116.765 33.0065C117.485 34.2195 118.515 34.897 119.8 35.1752C122.289 35.7159 124.731 36.4496 127.094 37.4563C128.287 37.9649 129.468 38.5256 130.609 39.1579C132.753 40.3464 134.348 42.2149 135.479 44.4627C136.116 45.7285 136.38 47.2161 136.812 48.6035C136.874 48.898 136.937 49.1916 136.999 49.4864V53.2385C136.56 54.0949 136.161 54.9786 135.674 55.801C134.398 57.9563 133.245 60.2206 131.19 61.6896C130.88 61.9113 130.68 62.3573 130.501 62.7391C129.965 63.8791 129.496 65.0565 128.941 66.1845C128.631 66.8123 128.522 67.4039 128.753 68.0759C129.169 69.2778 129.533 70.506 130.337 71.4936C130.739 71.9892 130.935 72.5642 130.839 73.2143C130.703 74.1334 130.359 74.949 129.828 75.6983C128.864 77.0557 127.529 77.8259 126.17 78.5741C125.606 78.8843 125.045 79.1999 124.439 79.5377C124.621 79.8168 124.726 80.0034 124.854 80.169C125.594 81.1235 126.377 82.0417 127.066 83.0382C127.483 83.6409 127.869 84.3249 128.065 85.0389C128.528 86.7176 128.311 88.3926 127.685 89.9863C127.055 91.5909 126.036 92.8345 124.569 93.6038C123.891 93.9591 123.414 94.4756 123.268 95.3111C122.927 97.2589 123.111 98.9616 124.647 100.378C126.162 101.774 127.544 103.344 128.928 104.898C130.297 106.435 131.143 108.296 131.511 110.404H129.885C129.669 108.654 128.765 107.271 127.744 106.01C126.678 104.694 125.511 103.464 124.318 102.282C123.45 101.424 122.485 100.673 121.52 99.9416C121.256 99.7418 120.815 99.6724 120.488 99.7364C118.636 100.097 116.797 100.531 114.949 100.913C113.496 101.214 112.045 101.561 110.578 101.738C107.631 102.096 104.675 102.367 101.721 102.645C99.1684 102.885 96.6152 103.16 94.057 103.279C91.4612 103.399 88.8643 103.405 86.2735 103.721C84.566 103.93 82.832 103.88 81.1113 103.97C78.5489 104.102 75.9897 104.279 73.4262 104.393C70.9615 104.505 68.4937 104.627 66.027 104.63C62.3426 104.632 58.6562 104.549 54.9718 104.471C53.555 104.44 52.131 104.4 50.7242 104.227C48.418 103.943 46.114 103.609 43.827 103.177C42.0727 102.846 40.3489 102.329 38.6099 101.907C38.3079 101.834 37.9939 101.825 37.5996 101.777C37.9158 102.816 38.1983 103.673 38.4372 104.542C38.801 105.869 39.1557 107.199 39.4677 108.54C39.5368 108.836 39.4138 109.186 39.3794 109.512C39.2979 109.546 39.2167 109.579 39.1344 109.613C38.8527 109.337 38.5021 109.11 38.304 108.776C38.0164 108.291 37.8091 107.743 37.6209 107.2C37.0049 105.424 36.4002 103.644 35.8178 101.855C35.4367 100.688 35.1045 99.5001 34.7455 98.3238C34.145 96.3518 33.5413 94.3819 32.91 92.3203C32.2982 92.3203 31.6964 92.3037 31.0958 92.3237C28.1137 92.4196 25.1723 92.2355 22.2969 91.2279C20.3079 90.5303 18.34 89.792 16.4312 88.8672C16.0908 88.7017 15.7158 88.6223 15.1749 88.4423C15.2593 89.5714 15.3376 90.474 15.3915 91.3769C15.5368 93.7893 15.6559 96.2028 15.8143 98.6141C16.0156 101.681 16.2291 104.748 16.4719 107.811C16.541 108.681 16.7292 109.539 16.8622 110.404H14.4228C14.3904 109.639 14.3752 108.872 14.3223 108.109C14.2257 106.719 14.0793 105.333 14.0012 103.942C13.8496 101.232 13.7237 98.5191 13.5986 95.8065C13.4512 92.5808 13.3171 89.354 13.1778 86.1283C13.1707 85.0257 13.1647 83.9243 13.1586 82.823C13.1565 80.8287 13.1544 78.8358 13.1523 76.8417C13.1665 75.5967 13.181 74.352 13.1952 73.1072Z" fill="#070A09"/>
<path d="M16.8659 110.403C16.7327 109.539 16.5447 108.68 16.4756 107.81C16.2325 104.747 16.0191 101.68 15.8178 98.6132C15.6593 96.2019 15.5405 93.7884 15.3952 91.3771C15.3413 90.4731 15.263 89.5705 15.1797 88.4414C15.7203 88.6214 16.0954 88.7008 16.4349 88.8663C18.3437 89.7911 20.3124 90.5294 22.3004 91.227C25.1768 92.2346 28.1172 92.4187 31.0993 92.3228C31.7001 92.304 32.3017 92.3194 32.9145 92.3194C33.5448 94.381 34.1495 96.3509 34.7503 98.323C35.108 99.4992 35.4414 100.687 35.8215 101.854C36.4049 103.643 37.0097 105.423 37.6246 107.199C37.8136 107.742 38.021 108.29 38.3077 108.775C38.5058 109.109 38.8564 109.337 39.139 109.612C39.2202 109.578 39.3016 109.545 39.3829 109.511C39.4175 109.185 39.5405 108.835 39.4714 108.539C39.1592 107.198 38.8047 105.868 38.4407 104.541C38.2018 103.672 37.9203 102.816 37.6031 101.776C37.9986 101.825 38.3127 101.833 38.6136 101.906C40.3537 102.328 42.0774 102.845 43.8307 103.176C46.1174 103.608 48.4217 103.942 50.7279 104.226C52.1345 104.399 53.5584 104.439 54.9753 104.47C58.6607 104.548 62.3461 104.631 66.0315 104.629C68.4974 104.626 70.9652 104.504 73.431 104.392C75.9931 104.278 78.5535 104.101 81.1148 103.969C82.8357 103.879 84.5695 103.929 86.277 103.72C88.8688 103.404 91.4646 103.398 94.0607 103.278C96.6189 103.159 99.1721 102.884 101.724 102.644C104.679 102.366 107.634 102.095 110.582 101.737C112.049 101.56 113.5 101.213 114.952 100.912C116.801 100.53 118.64 100.096 120.492 99.7355C120.819 99.6715 121.259 99.7409 121.523 99.9407C122.489 100.672 123.454 101.423 124.322 102.281C125.516 103.463 126.683 104.693 127.748 106.009C128.768 107.271 129.673 108.653 129.888 110.403H16.8659Z" fill="#0642F1"/>
<path d="M13.1535 76.8385C13.1556 78.8317 13.1577 80.8258 13.1595 82.8187C13.1057 82.8398 13.052 82.8375 13 82.811V76.8519L13.0752 76.8242L13.1535 76.8385Z" fill="#539836"/>
<path d="M13.1535 76.8403L13.0752 76.826L13 76.8537V73.1016C13.0652 73.1093 13.1301 73.1104 13.1963 73.1059C13.1821 74.3506 13.1677 75.5956 13.1535 76.8403Z" fill="#CE9BB0"/>
<path d="M13 82.8125C13.0518 82.839 13.1046 82.8411 13.1585 82.8213C13.1656 83.9226 13.1716 85.024 13.1779 86.1266L13.0883 86.1398L13 86.1232V82.8125Z" fill="#CE9BB0"/>
<path d="M137 49.4902C136.938 49.1955 136.876 48.9019 136.812 48.6073C136.876 48.5996 136.938 48.5996 137 48.6073V49.4902Z" fill="#CE9BB0"/>
<path d="M53.5467 47.2588C53.9594 46.909 54.2573 46.7004 54.5062 46.4365C55.4159 45.4754 56.2605 44.4335 57.224 43.5429C58.0127 42.8147 58.8726 42.0919 59.8148 41.6624C61.4757 40.9054 63.1344 40.0756 64.9567 39.8216C65.3551 39.7665 65.7517 39.6872 66.147 39.6133C67.9002 39.2809 69.6545 38.9621 71.4403 38.8991C72.9283 38.8483 74.4022 38.9664 75.8534 39.3251C77.7775 39.7985 79.7452 40.0767 81.5972 40.8834C82.3034 41.1913 83.0384 41.5246 83.9459 41.2432C83.702 40.9739 83.5344 40.6791 83.2905 40.5347C82.4345 40.0293 81.5859 39.4786 80.6763 39.1188C78.0702 38.0869 75.3677 37.5462 72.5869 37.5815C71.4098 37.5958 70.2268 37.6432 69.06 37.7933C67.4297 38.0019 65.7903 38.2259 64.1935 38.6231C62.7948 38.9709 61.4045 39.4575 60.0892 40.079C57.8513 41.1351 55.7717 42.4991 54.3283 44.7283C53.9036 45.3838 53.2999 46.0138 53.5467 47.2588ZM89.5147 41.998C90.3034 42.3755 90.896 42.0896 91.4713 41.8379C92.7499 41.2772 94.0398 40.7344 95.2839 40.0921C97.3623 39.0195 99.574 38.3805 101.756 37.6543C102.679 37.3476 103.665 37.2417 104.631 37.1201C106.501 36.8841 108.374 36.6633 110.251 36.5132C111.121 36.4436 112.003 36.554 112.881 36.5882C113.048 36.5948 113.215 36.6379 113.383 36.6413C115.641 36.6821 117.872 37.0308 120.114 37.2922C123.42 37.6786 126.321 39.1376 129.147 40.8834C129.232 40.9362 129.303 41.0192 129.376 41.0952C129.395 41.1174 129.391 41.1648 129.415 41.2906C129.155 41.2906 128.901 41.3337 128.663 41.284C127.083 40.9539 125.517 40.4916 123.924 40.2873C121.347 39.9563 118.759 39.5822 116.153 39.7974C113.16 40.0447 110.202 40.5621 107.432 41.8722C106.235 42.4383 105.115 43.2142 104.01 43.9778C102.903 44.7414 101.854 45.6023 100.786 46.4299C100.121 46.9486 99.9959 47.1781 99.8495 48.0256C100.32 48.3138 100.689 48.0025 101.05 47.7576C102.903 46.4961 104.727 45.1829 106.604 43.9656C108.556 42.7009 110.661 41.8325 112.933 41.5434C114.335 41.3645 115.746 41.1659 117.154 41.1593C118.493 41.1525 119.832 41.4087 121.173 41.5069C123.806 41.6989 126.329 42.4991 128.885 43.1103C130.029 43.384 131.165 43.7638 132.253 44.236C132.919 44.524 133.487 45.0813 134.099 45.5173C134.069 45.5923 134.04 45.6674 134.01 45.7424C133.367 45.5404 132.714 45.3672 132.081 45.1309C129.79 44.2757 127.502 43.4293 125.05 43.2847C123.505 43.1942 121.962 42.8952 120.421 42.924C116.348 42.9967 112.521 44.0805 109.075 46.5457C106.995 48.0344 104.9 49.4968 102.793 50.9402C101.828 51.6023 100.82 52.1895 99.8108 52.823C99.5851 52.6683 99.3228 52.5844 99.209 52.3958C98.3034 50.8917 96.8887 50.2759 95.42 49.6887C91.9155 48.2884 88.2708 48.338 84.63 48.4197C82.9509 48.4573 81.2679 48.6371 79.604 48.8931C78.8944 49.0023 78.2206 49.4461 77.5478 49.7794C76.2274 50.4326 74.9977 51.2338 73.9162 52.3108C72.0584 54.1627 70.2053 56.0255 68.2681 57.7768C66.4264 59.4421 64.4171 60.8614 62.182 61.8534C61.7835 62.0311 61.3475 62.1712 60.9217 62.2021C59.1725 62.3268 57.4111 62.5288 55.6842 62.0465C54.798 61.7994 54.6384 61.4507 54.7157 60.3724C55.5451 60.2091 56.3906 59.9994 57.2474 59.8804C59.6442 59.5471 61.7714 58.5604 63.6374 56.895C65.0421 55.6426 66.4132 54.3402 67.8729 53.1683C69.4116 51.9324 71.0287 50.8101 72.6295 49.6667C74.2201 48.5301 76.009 47.8646 77.814 47.2774C79.5226 46.7212 81.2697 46.3483 83.0689 46.3659C84.0852 46.3759 85.1057 46.3074 86.117 46.3868C87.4555 46.4918 88.8003 46.6274 90.1175 46.8956C91.4337 47.1627 92.7225 47.593 94.0153 47.9848C94.5489 48.1483 95.1029 48.3754 95.5084 47.8238C95.9241 47.2588 95.8723 46.5172 95.5775 45.9553C95.291 45.4114 94.8324 44.8927 94.3336 44.5782C92.8973 43.6733 91.3057 43.1831 89.6763 42.8732C88.2219 42.5972 86.7633 42.3202 85.2957 42.1458C82.8747 41.8567 80.4476 41.7783 78.0377 42.3059C76.5599 42.6303 75.0668 42.894 73.6114 43.3124C72.5451 43.618 71.4902 44.0429 70.5002 44.5693C68.1614 45.8141 66.0077 47.3647 64.0776 49.2914C62.7401 50.6269 61.2581 51.79 59.8962 53.0978C59.0384 53.921 58.0077 53.9884 56.9811 54.1119C56.5076 54.1682 56.1223 54.2563 55.9383 54.8116C56.0868 55.2165 56.3438 55.4528 56.7677 55.4694C58.2497 55.5267 59.6308 55.3204 60.8272 54.1935C62.8101 52.3262 64.8256 50.4976 66.8808 48.7242C68.6818 47.1704 70.6902 45.9785 72.8408 45.0704C75.1217 44.1068 77.502 43.6953 79.9252 43.5264C81.3044 43.4305 82.6876 43.3477 84.07 43.3421C86.5754 43.3343 89.0258 43.8397 91.4256 44.556C92.3465 44.8299 93.1788 45.4611 94.0448 45.9422C94.1504 46.0018 94.2308 46.1331 94.2989 46.249C94.3273 46.2963 94.2918 46.3879 94.2705 46.6219C93.9199 46.5503 93.5662 46.5315 93.249 46.4034C91.3462 45.6375 89.3531 45.2545 87.3691 44.9346C85.9086 44.6995 84.3943 44.865 82.9042 44.8396C80.5126 44.7999 78.2663 45.5327 76.0048 46.2632C74.2679 46.8251 72.6873 47.7245 71.1832 48.7486C69.5925 49.8322 68.1126 51.1123 66.6095 52.3418C65.1062 53.5712 63.6608 54.8855 62.1394 56.0883C60.2579 57.577 58.0881 58.3252 55.8195 58.7744C55.423 58.8528 55.0206 58.9113 54.6313 59.0249C53.3953 59.3859 53.0101 60.0822 53.2479 61.4716C53.3974 62.3479 54.3039 63.297 55.1314 63.3808C58.4671 63.7173 61.6871 64.5682 64.8014 65.8969C67.0555 66.8582 69.3354 67.72 71.7412 68.1152C73.7068 68.4385 75.6787 68.7872 77.6718 68.6425C80.7596 68.4185 83.8413 68.0599 86.8193 67.1065C88.4211 66.5945 89.962 65.8594 91.5354 65.2371C92.1036 65.0119 92.6829 64.8188 93.2602 64.6201C94.6098 64.1533 95.9383 63.6137 97.0553 62.6492C97.8308 61.9781 98.6613 61.9606 99.5415 62.1447C100.728 62.3941 101.907 62.6757 103.089 62.9494C106.013 63.628 108.979 63.7262 111.95 63.6092C114.237 63.5187 116.494 63.1149 118.715 62.4891C119.428 62.2882 120.162 62.1724 120.877 61.9749C124.23 61.0435 127.492 59.8307 130.649 58.2833C131.217 58.0042 131.825 57.8199 132.643 57.502C132.449 57.9137 132.407 58.1255 132.287 58.2359C131.209 59.2315 130.17 60.293 129.013 61.1637C128.226 61.7552 127.283 62.1216 126.38 62.5023C125.377 62.926 124.336 63.2407 123.32 63.6257C122.987 63.7515 122.679 63.9502 122.297 64.149C122.711 64.7526 123.189 64.7537 123.641 64.6421C124.62 64.4027 125.589 64.108 126.558 63.8266C127.01 63.6953 127.458 63.5441 127.979 63.3786C128.041 63.9579 127.817 64.4016 127.609 64.8287C126.908 66.2689 126.87 67.7631 127.228 69.306C127.562 70.755 127.334 71.0738 126.158 71.982C123.409 74.1042 120.201 74.7686 117.019 75.4725C115.412 75.8281 113.727 75.7419 112.101 76.0201C108.875 76.5729 105.634 76.4869 102.393 76.4284C100.817 76.4008 99.2458 76.1205 97.6671 76.0267C94.4992 75.838 91.4164 75.0545 88.3265 74.3833C85.1005 73.6836 81.9357 72.686 78.8621 71.3629C76.7399 70.4491 74.5728 69.6513 72.4109 68.8511C71.2127 68.4088 70.1496 68.7772 69.2621 69.7374C68.9278 70.0982 68.5964 70.4702 68.3089 70.8752C66.7415 73.0846 67.0008 75.3821 68.2224 77.5208C69.3628 79.5172 70.9646 81.0535 72.5706 82.5665C73.9428 83.8597 75.3677 85.1024 76.8597 86.227C78.4605 87.4343 80.1559 88.4959 81.8308 89.583C82.7244 90.1623 83.6542 90.6766 84.5812 91.1919C86.2573 92.1222 87.9231 93.0801 89.6316 93.9344C91.2153 94.7255 92.8109 95.5302 94.4697 96.0895C97.2597 97.0297 100.087 97.851 103.055 97.8553C104.606 97.8575 106.157 98.0208 107.709 98.0253C111.561 98.0373 115.368 97.6324 119.074 96.4019C119.616 96.2221 120.186 96.1337 120.746 96.0278C120.902 95.999 121.072 96.0587 121.219 96.0763C121.493 97.2991 121.299 97.7263 120.416 98.2779C119.21 99.0306 117.867 99.1553 116.541 99.3805C114.917 99.6564 113.295 99.9389 111.669 100.199C110.971 100.311 110.267 100.39 109.564 100.455C107.718 100.627 105.869 100.751 104.027 100.953C101.854 101.192 99.6868 101.51 97.5147 101.762C96.476 101.882 95.4311 101.953 94.3874 102.003C92.2274 102.104 90.0666 102.179 87.9057 102.26C85.7449 102.341 83.583 102.396 81.4222 102.498C78.9636 102.615 76.506 102.776 74.0474 102.905C72.3276 102.997 70.6079 103.095 68.8871 103.14C65.6082 103.224 62.3283 103.359 59.0505 103.304C56.9018 103.267 54.7572 102.935 52.6106 102.732C51.8058 102.656 51.0017 102.58 50.1977 102.491C48.727 102.331 47.2411 102.251 45.7877 101.975C43.5425 101.55 41.3115 101.019 39.0865 100.476C36.9806 99.962 36.938 99.9489 36.1919 97.734C35.384 95.337 34.7202 92.8838 33.9223 90.4823C33.0311 87.7962 32.7291 84.9677 32.1661 82.2055C31.7239 80.0402 31.6284 77.7945 31.2534 75.6095C30.5977 71.7934 30.7126 67.9451 30.672 64.0991C30.6658 63.4294 30.8355 62.8952 31.2492 62.4052C32.3165 61.1371 33.3541 59.8384 34.4266 58.5737C34.6329 58.3298 34.9399 58.184 35.3717 57.8672C35.4531 58.4699 35.5283 58.8451 35.5496 59.2235C35.6298 60.6109 35.6757 62.0023 35.7722 63.3885C35.8037 63.84 35.953 64.2814 36.0965 64.9489C36.3475 64.6179 36.5315 64.4877 36.5488 64.3342C36.7062 62.9956 36.8558 61.6559 36.9633 60.3118C37.0692 58.9986 36.9919 57.6509 37.2389 56.3742C37.435 55.3632 37.9178 54.3822 38.4198 53.485C39.3478 51.8308 40.3073 50.1777 41.6744 48.8876C42.5118 48.0975 43.4032 47.3758 44.2652 46.6165C45.2327 45.7633 46.1982 44.9081 47.1588 44.0451C48.7128 42.6469 50.2852 41.2695 51.8067 39.8305C53.2398 38.4776 54.8163 37.3607 56.5115 36.4735C58.3888 35.4925 60.3575 34.764 62.3893 34.2101C64.3785 33.6682 66.3859 33.4177 68.4053 33.6308C70.5449 33.8557 72.6539 34.3148 74.6561 35.2462C76.1656 35.9493 77.6739 36.6953 79.2442 37.1898C82.6124 38.2502 85.866 37.7514 88.8429 35.745C90.4965 34.6316 92.0345 33.3183 93.8059 32.4035C95.6598 31.4467 97.4965 30.4545 99.5872 30.2616C101.128 30.1181 102.671 29.8564 104.211 29.8675C106.743 29.8852 109.196 30.3895 111.584 31.4213C113.346 32.1838 114.672 33.4133 115.956 34.9671C115.72 35.1227 115.563 35.3136 115.403 35.3158C114.559 35.3258 113.714 35.2938 112.869 35.2639C112.297 35.2442 111.723 35.1469 111.154 35.1823C109.507 35.2839 107.861 35.404 106.218 35.5718C102.247 35.9779 98.3654 36.788 94.7685 38.7744C93.1819 39.6507 91.6075 40.5533 90.0351 41.4604C89.8613 41.5609 89.7373 41.7629 89.5147 41.998Z" fill="#539836"/>
<path d="M28.5027 13.3696C28.3929 14.2174 28.3043 15.0692 28.1661 15.9124C28.031 16.7368 27.8044 17.5446 27.6967 18.3722C27.6092 19.0442 27.477 19.8047 28.3582 20.1445C29.1847 19.7716 29.2121 18.9506 29.2538 18.1505C29.3971 15.3748 30.2346 12.7992 31.1553 10.2467C31.2042 10.1109 31.2875 9.99069 31.3881 9.79956C31.6107 9.7753 31.8688 9.74673 32.0875 9.72247C32.5132 10.1363 32.5164 10.5303 32.3771 11.0545C31.8933 12.8754 31.4512 14.7116 31.0405 16.5536C30.765 17.7918 30.4551 19.0531 30.9014 20.3212C30.9958 20.5894 31.2021 20.8927 31.4299 21.0043C31.7529 21.161 32.1198 21.0131 32.3119 20.6622C32.4798 20.3554 32.6373 20.0099 32.6851 19.6634C32.8528 18.4384 32.9676 17.2036 33.1088 15.9741C33.3681 13.7183 34.0176 11.5665 34.6213 9.40573C34.7351 8.99739 34.9881 8.62555 35.2128 8.26347C35.5085 7.78779 35.9151 7.58917 36.4549 7.82769C36.7476 8.17187 36.7771 8.53486 36.652 9.02165C35.969 11.6869 35.3012 14.3575 34.6954 17.0447C34.4738 18.0301 34.4291 19.063 34.3245 20.0761C34.2859 20.4502 34.3204 20.8508 34.7311 20.9755C35.1976 21.1168 35.5676 20.8465 35.723 20.4171C36.0433 19.5364 36.344 18.6359 36.5403 17.7156C36.8197 16.4035 36.9498 15.0538 37.2365 13.7449C37.391 13.0409 37.4651 12.1811 38.3697 11.9383C38.7824 12.2507 38.8657 12.6602 38.7824 13.1767C38.4205 15.4048 37.8565 17.5755 37.3096 19.7561C36.7729 21.8981 36.2496 24.0645 36.3816 26.3379C36.4599 27.6853 37.0118 28.1102 38.2436 27.7327C39.0192 27.4944 39.6168 26.9911 40.2034 26.4426C40.7156 25.9638 41.2614 25.5532 42.0155 25.4439C42.174 25.7132 42.3337 25.9835 42.4465 26.1744C42.1353 28.3861 40.6494 29.5747 39.3403 30.8713C37.6449 32.5498 35.7698 33.97 33.8071 35.2735C32.9513 35.8428 32.3629 36.7445 32.0885 37.8956C31.5842 40.0133 30.9185 42.0858 30.4042 44.2014C29.8901 46.3179 29.6218 48.4789 29.4234 50.6682C28.893 56.5337 29.016 62.4069 29.1064 68.2769C29.145 70.7555 29.4052 73.2364 29.6836 75.7007C30.0302 78.7752 30.451 81.8421 30.9379 84.8934C31.1545 86.2497 31.6178 87.5584 31.9522 88.8939C32.0559 89.3065 32.1046 89.7348 32.2034 90.2944C26.0673 90.2944 20.2291 89.6001 15.1014 85.8634C15.062 85.699 15.0315 85.6294 15.0294 85.5589C14.9653 82.7713 14.8617 79.9836 14.8556 77.196C14.8515 75.0704 14.9206 72.9405 15.0476 70.8194C15.1971 68.342 15.3303 65.8514 15.6819 63.4025C16.0996 60.4901 16.6719 57.5966 17.308 54.7294C17.8722 52.1814 18.5776 49.6674 19.2901 47.1612C19.904 45.0025 20.5818 42.8649 21.2924 40.7415C21.7976 39.2331 22.391 37.7575 22.9713 36.28C23.1553 35.812 23.3597 35.3186 23.6696 34.9522C24.626 33.8233 24.8914 32.4328 24.9616 31.0015C25.0814 28.5494 25.0326 26.0851 25.1952 23.6362C25.3976 20.5749 25.7981 17.5369 27.0604 14.7271C27.3266 14.1324 27.6772 13.6082 28.2231 13.2869C28.3166 13.3145 28.4091 13.3422 28.5027 13.3696Z" fill="#539836"/>
<path d="M73.0283 75.9209C73.4369 77.7772 74.7216 78.7725 75.8874 79.8651C78.0167 81.8592 80.4388 83.3987 82.8556 84.9139C84.9179 86.2072 87.0596 87.3737 89.3139 88.2632C90.8627 88.8746 92.3915 89.5467 93.9211 90.2144C96.3187 91.2605 98.7988 91.8609 101.388 91.8697C103.928 91.8775 106.472 91.948 109.008 91.8267C110.782 91.7416 112.552 91.4217 114.312 91.1292C115.569 90.9218 116.839 90.6901 118.049 90.2838C119.712 89.7253 121.404 89.2685 122.943 88.282C124.568 87.2402 124.701 85.5683 123.487 84.2054C122.834 83.4715 122.072 82.8525 121.359 82.1814C120.954 81.8018 120.548 81.4232 120.129 81.0305C121.487 80.0571 122.937 80.2093 123.971 81.3792C124.689 82.1925 125.365 83.0588 126.142 83.8004C126.758 84.3908 126.995 85.1003 127.04 85.9192C127.195 88.7103 126.214 90.8819 124.041 92.4302C121.293 94.3869 118.307 95.6053 115.05 96.0865C111.944 96.5456 108.842 97.0598 105.697 96.9428C102.699 96.8313 99.741 96.3832 96.828 95.5611C94.8086 94.9907 92.7849 94.4354 90.9024 93.4401C88.9694 92.4182 87.0687 91.3213 85.1599 90.243C84.1466 89.6714 83.1505 89.0622 82.1402 88.4851C79.5016 86.9753 77.1171 85.0672 74.8414 82.9926C73.448 81.7222 72.0372 80.4675 70.7231 79.1047C69.849 78.1975 69.1568 77.0929 68.6598 75.8733C67.9739 74.1917 68.1954 72.8816 69.3713 71.5695C69.6985 71.2052 69.9821 70.7891 70.3347 70.4592C71.1865 69.6668 72.1755 70.0124 73.0414 70.3103C74.9552 70.9714 76.8194 71.8056 78.7129 72.5417C79.9773 73.0328 81.2396 73.5536 82.5366 73.9223C85.2309 74.6882 87.9366 75.4198 90.6596 76.0511C92.5613 76.4936 94.4914 76.8235 96.4235 77.063C98.4309 77.3115 100.454 77.4282 102.472 77.5321C104.631 77.6436 106.794 77.745 108.954 77.7164C111.141 77.6865 113.317 77.4327 115.491 77.1094C117.862 76.7562 120.209 76.3005 122.475 75.4895C123.68 75.0578 124.8 74.3427 125.951 73.7391C126.496 73.4521 127.011 73.0925 127.562 72.8197C128.506 72.352 129.002 72.7415 128.897 73.8681C128.818 74.7213 128.359 75.3437 127.743 75.8391C126.016 77.2264 124.104 78.1367 122.007 78.6886C120.04 79.2062 118.067 79.5472 116.055 79.7889C113.034 80.1519 110.019 80.4886 106.98 80.3682C104.384 80.2666 101.79 80.1088 99.1994 79.9125C97.1177 79.7536 95.0412 79.4998 92.9626 79.289C89.9481 78.9834 86.9934 78.3267 84.0328 77.6402C81.6472 77.0872 79.4112 76.1558 77.1558 75.2201C76.4443 74.9242 75.6577 74.7721 74.8953 74.709C74.0761 74.6408 73.3718 74.9807 73.0283 75.9209Z" fill="#AA522B"/>
<path d="M93.4008 63.123C93.4008 62.5911 93.3348 62.0481 93.4131 61.5305C93.7088 59.5629 93.3348 57.7013 92.5593 55.9632C91.9708 54.6431 91.0216 53.5793 89.9737 52.6259C87.3624 50.2487 84.4037 49.9319 81.1879 50.6615C79.2365 51.103 77.8665 52.4128 76.595 53.8938C74.872 55.9013 73.8954 58.2772 74.0173 61.0725C74.0975 62.9045 74.6423 64.5918 75.6029 66.1082C75.7919 66.4072 76.1091 66.6612 75.9088 67.0727C75.6873 67.5275 75.2725 67.4325 74.9128 67.3706C73.2773 67.0892 71.6024 66.9502 70.0208 66.458C67.5267 65.681 65.0965 64.6648 62.6418 63.7411C62.4641 63.6738 62.3085 63.5336 62.0859 63.3901C62.4956 62.687 63.139 62.4784 63.6959 62.2125C66.5185 60.8639 68.97 58.9669 71.1146 56.5656C72.8139 54.6608 74.7451 53.0374 76.7545 51.5487C78.3777 50.3459 80.2691 49.7698 82.2186 49.751C85.3968 49.7224 88.5832 49.7544 91.7532 49.9816C93.1742 50.0832 94.5798 50.6615 95.9601 51.135C96.5182 51.327 97.0365 51.7562 97.4928 52.1799C98.3467 52.969 98.8691 53.9457 98.8334 55.2424C98.7887 56.8646 98.8376 58.5003 97.9207 59.9028C97.5945 60.4027 97.2092 60.875 96.7845 61.2768C95.8615 62.1486 94.7598 62.697 93.6794 63.2731C93.5858 63.2235 93.4933 63.1727 93.4008 63.123Z" fill="#F6F6F6"/>
<path d="M104.172 90.2631C103.541 90.0711 102.862 89.8847 102.198 89.6496C101.988 89.5746 101.755 89.4113 101.639 89.2147C100.497 87.2846 98.6836 86.3897 96.8449 85.5576C94.9798 84.7121 93.0893 83.9353 91.211 83.1275C89.8754 82.5548 88.4941 82.1981 87.0602 82.4002C86.4462 82.4875 85.8018 82.7291 85.2794 83.0878C84.4215 83.6748 83.5616 83.6583 82.7861 83.1529C80.5359 81.6828 78.318 80.149 76.1298 78.5707C75.585 78.178 75.1551 77.5588 74.7627 76.9729C74.6042 76.7344 74.6092 76.2764 74.7007 75.9774C74.7364 75.8615 75.2526 75.8053 75.4925 75.898C76.5028 76.2875 77.5122 76.697 78.4849 77.1847C81.2076 78.5464 84.139 79.052 87.0326 79.7107C88.481 80.0408 89.9304 80.3841 91.3919 80.6246C93.0202 80.8926 94.6596 81.1289 96.3012 81.2413C99.4366 81.4567 102.58 81.5406 105.716 81.7558C106.576 81.8152 107.442 82.0757 108.268 82.3705C109.928 82.9597 110.391 84.3392 109.565 85.9934C108.701 87.7195 107.473 89.0393 105.819 89.8405C105.344 90.0722 104.789 90.1119 104.172 90.2631Z" fill="#DB0451"/>
<path d="M115.477 44.7586C115.674 44.7223 115.872 44.6858 116.069 44.6495C116.355 44.9662 116.564 44.9275 116.687 44.4926C117.732 44.4398 118.777 44.3879 119.823 44.3359C119.857 44.442 119.892 44.5479 119.926 44.6538C119.11 44.7896 118.293 44.9263 117.477 45.0633C117.193 44.7089 117.132 44.9805 117.065 45.2354C115.193 46.1051 113.59 47.3299 112.474 49.2326C111.079 51.6119 110.628 54.1887 111.209 56.9224C111.503 58.3061 112.008 59.6381 112.415 60.9944C112.518 61.3354 112.615 61.6798 112.746 62.129C112.437 62.216 112.197 62.3231 111.949 62.3496C108.861 62.6806 105.805 62.3992 102.775 61.7249C101.883 61.5263 101.001 61.2692 100.13 60.9801C99.7317 60.8477 99.3729 60.5729 99.0547 60.3963C99.3159 59.349 99.5966 58.4485 99.754 57.5248C99.8639 56.8881 99.8657 56.2104 99.8048 55.5638C99.7338 54.8122 99.9603 54.3068 100.525 53.8896C104.268 51.1274 108.054 48.4379 112.04 46.1083C112.977 45.561 114.045 45.2796 115.053 44.8746C115.272 45.1746 115.389 45.0268 115.477 44.7586Z" fill="#F6F6F6"/>
<path d="M110.883 82.3727C111.597 81.8927 112.293 81.7912 112.997 81.7481C114.717 81.6411 116.44 81.5703 118.16 81.4513C118.706 81.4137 119.14 81.5495 119.534 81.971C120.519 83.0259 121.575 84.0081 122.509 85.1118C123.332 86.0841 123.255 86.5001 122.178 87.1467C121.298 87.6764 120.371 88.1598 119.414 88.4754C116.963 89.2843 114.495 90.0459 111.918 90.2534C111.006 90.3262 110.109 90.2974 109.241 89.9818C109.013 89.3462 109.399 88.971 109.654 88.5627C109.975 88.0473 110.317 87.5462 110.656 87.0452C111.648 85.5819 111.862 84.06 110.883 82.3727Z" fill="#CE9BB0"/>
<path d="M122.577 45.0321C121.828 44.9051 121.078 44.7795 120.329 44.6525C120.167 44.5421 120.005 44.4317 119.844 44.3204C119.971 44.2796 120.097 44.2045 120.224 44.2022C124.766 44.146 129.174 44.8688 133.376 46.8375C134.041 47.1499 134.516 47.6002 134.776 48.3274C134.923 48.738 135.094 49.1386 135.224 49.5546C135.928 51.8024 135.37 53.8076 133.569 55.1519C132.6 55.8736 131.537 56.4497 130.51 57.0775C130.374 57.1614 130.196 57.1691 129.905 57.2464C129.825 56.8658 129.73 56.5359 129.691 56.198C129.585 55.2877 129.56 54.3629 129.402 53.4646C128.689 49.4211 126.504 46.704 122.989 45.2187C122.939 44.9296 122.843 44.7595 122.577 45.0321Z" fill="#F6F6F6"/>
<path d="M99.7206 89.606C99.3952 90.0762 98.9248 90.1125 98.4522 90.1601C97.3808 90.2682 96.3655 89.9701 95.3868 89.5794C92.9545 88.6084 90.5335 87.6019 88.1256 86.5612C87.3797 86.239 86.6833 85.7733 85.9779 85.3473C85.7879 85.2315 85.6478 85.0206 85.4922 84.8607C86.1061 83.8883 87.4081 83.2793 88.4204 83.5961C89.7448 84.0098 91.057 84.4876 92.3376 85.0371C94.4333 85.9377 96.5017 86.9156 98.5792 87.8656C99.2835 88.188 99.7613 88.6911 99.7206 89.606Z" fill="#CE9BB0"/>
<path d="M120.242 52.3133C120.252 50.6911 121.405 49.4044 122.834 49.4221C124.196 49.4386 125.4 50.8489 125.375 52.3983C125.351 53.961 124.122 55.3161 122.757 55.2875C121.338 55.2576 120.232 53.9501 120.242 52.3133Z" fill="#F6F6F6"/>
<path d="M86.6314 61.2469C85.2074 61.2449 84.2084 60.085 84.1993 58.4242C84.1911 57.0622 85.5378 55.4588 86.6671 55.5549C87.7433 55.6465 89.0219 56.8382 89.0282 58.4019C89.0342 60.1346 88.0941 61.2492 86.6314 61.2469Z" fill="#F6F6F6"/>
<path d="M79.7624 57.6757C78.7369 57.6737 77.8565 56.7189 77.8363 55.5878C77.815 54.3641 78.7611 53.3477 79.8925 53.3796C81.0421 53.4127 82.0849 54.5097 82.0705 55.6716C82.0552 56.9166 81.1782 57.6791 79.7624 57.6757Z" fill="#F6F6F6"/>
<path d="M117.221 51.3216C116.027 51.3304 115.438 50.677 115.449 49.354C115.46 48.1256 116.169 47.3409 117.262 47.3477C118.481 47.3554 119.347 48.173 119.363 49.3341C119.382 50.6273 118.645 51.3105 117.221 51.3216Z" fill="#F6F6F6"/>
<path d="M82.8026 60.7207C82.8168 61.8585 82.3411 62.4874 81.4457 62.5139C80.59 62.5382 79.9243 61.8276 79.8957 60.8609C79.8652 59.7859 80.4567 59.1073 81.4223 59.1094C82.3564 59.1128 82.7884 59.6161 82.8026 60.7207Z" fill="#F6F6F6"/>
<path d="M83.9762 65.0682C83.9752 66.1509 83.5768 66.5447 82.5513 66.5712C81.488 66.6 81.0977 65.6618 81.0824 64.8728C81.0643 63.9656 81.674 63.3809 82.6009 63.3675C83.5626 63.3521 83.9773 63.8652 83.9762 65.0682Z" fill="#F6F6F6"/>
<path d="M118.31 55.1508C118.304 56.0071 117.45 56.8182 116.591 56.7819C115.882 56.751 115.427 56.1661 115.438 55.2975C115.449 54.3529 116.024 53.7029 116.872 53.6764C117.659 53.6532 118.315 54.3253 118.31 55.1508Z" fill="#F6F6F6"/>
<path d="M118.603 57.2188C119.297 57.2231 119.781 57.8743 119.787 58.8102C119.792 59.7194 119.365 60.2613 118.634 60.2712C117.904 60.2823 117.345 59.6257 117.36 58.7771C117.375 57.8854 117.909 57.2142 118.603 57.2188Z" fill="#F6F6F6"/>
<path d="M53.5457 47.257C53.2988 46.012 53.9025 45.382 54.3273 44.7265C55.7706 42.4973 57.8502 41.1333 60.0881 40.0772C61.4034 39.4557 62.7938 38.9692 64.1924 38.6213C65.7892 38.2241 67.4287 38.0001 69.0589 37.7915C70.2258 37.6414 71.4087 37.594 72.5858 37.5798C75.3666 37.5444 78.0692 38.0851 80.6752 39.117C81.5848 39.4768 82.4334 40.0275 83.2894 40.5329C83.5333 40.6773 83.701 40.9721 83.9449 41.2414C83.0373 41.5228 82.3023 41.1895 81.5961 40.8816C79.7441 40.0749 77.7764 39.7967 75.8524 39.3233C74.4011 38.9646 72.9272 38.8465 71.4392 38.8973C69.6534 38.9603 67.8991 39.2791 66.1459 39.6115C65.7506 39.6854 65.3541 39.7647 64.9556 39.8198C63.1333 40.0738 61.4747 40.9036 59.8137 41.6607C58.8715 42.0901 58.0116 42.8129 57.2229 43.5412C56.2594 44.4317 55.4148 45.4736 54.5052 46.4347C54.2563 46.6986 53.9583 46.9072 53.5457 47.257Z" fill="#070A09"/>
</g>
<defs>
<clipPath id="clip0_1054_1008">
<rect width="150" height="110" fill="white"/>
</clipPath>
</defs>
</svg>
