<svg width="150" height="110" viewBox="0 0 150 110" fill="none" xmlns="http://www.w3.org/2000/svg">
<path d="M124.673 55.1214C123.908 55.1168 123.317 55.7997 123.3 56.7071C123.284 57.5706 123.902 58.2388 124.708 58.2275C125.516 58.2173 125.987 57.6659 125.982 56.7408C125.975 55.7884 125.44 55.1258 124.673 55.1214ZM124.344 53.0169C124.35 52.1771 123.626 51.4919 122.755 51.5168C121.819 51.5436 121.183 52.2039 121.171 53.1652C121.16 54.05 121.662 54.6452 122.445 54.6755C123.394 54.7126 124.338 53.8883 124.344 53.0169ZM86.4125 63.1056C86.4136 61.8814 85.9554 61.3605 84.8932 61.375C83.8691 61.3896 83.1952 61.9848 83.2144 62.9079C83.2312 63.7096 83.6624 64.6642 84.8369 64.6349C85.9699 64.6079 86.4113 64.2072 86.4125 63.1056ZM85.1189 58.681C85.1032 57.5582 84.6258 57.0451 83.5939 57.0428C82.5271 57.0405 81.8735 57.7312 81.9072 58.8236C81.9388 59.8085 82.6743 60.5318 83.6197 60.5059C84.609 60.4801 85.1346 59.8399 85.1189 58.681ZM123.141 49.117C124.714 49.1057 125.528 48.4106 125.508 47.0946C125.49 45.9131 124.533 45.0812 123.186 45.0734C121.978 45.0664 121.195 45.8649 121.183 47.1149C121.171 48.4611 121.821 49.126 123.141 49.117ZM81.7602 55.5863C83.3244 55.5886 84.2934 54.8137 84.3102 53.5459C84.3262 52.3645 83.174 51.2471 81.9051 51.2146C80.654 51.1821 79.6086 52.2152 79.6321 53.4606C79.6545 54.6127 80.6272 55.584 81.7602 55.5863ZM89.3478 59.2179C90.9639 59.2202 92.0025 58.086 91.9958 56.323C91.9889 54.7306 90.5763 53.5189 89.3872 53.4257C88.1395 53.327 86.6517 54.9586 86.6595 56.3442C86.6708 58.0344 87.7745 59.2144 89.3478 59.2179ZM126.486 50.1266C126.475 51.7918 127.696 53.1226 129.264 53.1528C130.772 53.1821 132.129 51.8031 132.157 50.2131C132.184 48.6364 130.854 47.2023 129.349 47.1844C127.77 47.1664 126.496 48.4759 126.486 50.1266ZM103.807 88.072C103.853 87.1422 103.324 86.6289 102.547 86.3022C100.251 85.3353 97.9654 84.3393 95.6498 83.423C94.2349 82.8637 92.7851 82.3785 91.3231 81.9575C90.2046 81.6352 88.765 82.254 88.0867 83.2432C88.2597 83.4061 88.4148 83.6216 88.6247 83.7386C89.4041 84.1718 90.1721 84.6457 90.9976 84.9749C93.6576 86.0327 96.3316 87.0569 99.0186 88.045C100.1 88.4425 101.222 88.7456 102.405 88.6356C102.928 88.5874 103.448 88.5502 103.807 88.072ZM116.145 80.7133C117.228 82.4302 116.991 83.9776 115.895 85.4677C115.52 85.9776 115.142 86.4875 114.787 87.0119C114.505 87.4274 114.08 87.8092 114.331 88.4547C115.29 88.777 116.28 88.8063 117.289 88.7311C120.136 88.5212 122.863 87.7462 125.571 86.923C126.63 86.6007 127.654 86.1091 128.625 85.5711C129.814 84.9131 129.9 84.4898 128.991 83.5005C127.958 82.3762 126.791 81.378 125.703 80.3045C125.269 79.8756 124.788 79.7374 124.185 79.7757C122.285 79.8968 120.382 79.9688 118.48 80.0777C117.704 80.1215 116.934 80.2249 116.145 80.7133ZM108.726 88.7456C109.408 88.5918 110.021 88.5514 110.548 88.3168C112.375 87.5014 113.731 86.1585 114.685 84.4009C115.599 82.7177 115.086 81.3152 113.252 80.7144C112.34 80.4157 111.383 80.1497 110.432 80.089C106.968 79.87 103.496 79.7847 100.031 79.5655C98.2169 79.4511 96.4068 79.2107 94.6077 78.938C92.9918 78.6932 91.3916 78.3439 89.7914 78.008C86.5933 77.3389 83.3546 76.8245 80.3476 75.4377C79.2718 74.9426 78.1577 74.5259 77.0404 74.1284C76.7753 74.0352 76.205 74.0924 76.1667 74.2091C76.0656 74.5146 76.0589 74.9795 76.2352 75.2222C76.6675 75.8195 77.1437 76.4484 77.7456 76.848C80.1632 78.454 82.6124 80.0147 85.0997 81.5106C85.9554 82.026 86.9066 82.0429 87.8544 81.4444C88.4305 81.0794 89.1424 80.8335 89.8216 80.7447C91.405 80.5391 92.9323 80.902 94.4067 81.4859C96.4831 82.3068 98.5717 83.0972 100.631 83.9575C102.663 84.8054 104.666 85.7148 105.928 87.6788C106.057 87.8789 106.314 88.0461 106.547 88.1214C107.28 88.3618 108.029 88.5502 108.726 88.7456ZM96.829 61.1268C96.9312 61.1773 97.0334 61.229 97.1356 61.2795C98.3302 60.6935 99.5476 60.1354 100.567 59.2481C101.037 58.8395 101.462 58.3587 101.823 57.85C102.834 56.4229 102.782 54.7588 102.831 53.108C102.87 51.7884 102.292 50.7947 101.35 49.9907C100.846 49.5607 100.273 49.1237 99.6554 48.9283C98.1304 48.4466 96.5784 47.8583 95.0087 47.7549C91.506 47.5235 87.9857 47.4898 84.4743 47.5203C82.3206 47.5383 80.2306 48.1254 78.4373 49.3496C76.2163 50.8644 74.0836 52.5163 72.2061 54.4545C69.8367 56.8979 67.1282 58.8282 64.0085 60.2005C63.3944 60.4711 62.6836 60.6834 62.2309 61.3986C62.4769 61.5446 62.6487 61.6872 62.8453 61.7545C65.5573 62.6956 68.242 63.7299 70.9979 64.5205C72.7441 65.0211 74.5958 65.1628 76.4027 65.4491C76.8002 65.5109 77.2582 65.6085 77.5032 65.146C77.7242 64.727 77.374 64.4688 77.1649 64.1645C76.1039 62.6215 75.502 60.9046 75.4132 59.0405C75.2784 56.1961 76.3577 53.7782 78.261 51.7358C79.6647 50.2276 81.1784 48.8957 83.3346 48.4466C86.8886 47.7044 90.1564 48.0267 93.0423 50.4454C94.1989 51.4158 95.2488 52.4983 95.8992 53.8412C96.7558 55.6098 97.1681 57.5042 96.8412 59.5065C96.7558 60.0332 96.829 60.5855 96.829 61.1268ZM74.3161 74.1452C74.6957 73.1896 75.4739 72.8426 76.3789 72.9121C77.2224 72.9774 78.0903 73.1313 78.8763 73.4321C81.3682 74.3842 83.8398 75.3322 86.4743 75.8947C89.7453 76.5933 93.0098 77.2614 96.3415 77.5724C98.6379 77.787 100.931 78.0451 103.231 78.2069C106.093 78.4067 108.96 78.5672 111.827 78.6717C115.186 78.7931 118.516 78.4505 121.855 78.0811C124.077 77.8363 126.257 77.4894 128.431 76.9615C130.747 76.4 132.859 75.4736 134.767 74.0622C135.448 73.5578 135.954 72.9245 136.042 72.0564C136.159 70.9111 135.61 70.5136 134.568 70.9896C133.958 71.2683 133.39 71.633 132.787 71.9251C131.517 72.5404 130.278 73.2669 128.947 73.7062C126.444 74.5314 123.85 74.9963 121.23 75.3546C118.83 75.6848 116.424 75.942 114.008 75.9722C111.622 76.0024 109.233 75.8993 106.848 75.7858C104.617 75.6801 102.382 75.5602 100.164 75.3073C98.0293 75.0637 95.8969 74.728 93.797 74.2788C90.7874 73.6354 87.7992 72.8909 84.8212 72.1115C83.3883 71.7364 81.9948 71.2065 80.5967 70.7067C78.5047 69.9588 76.4463 69.1089 74.3307 68.4373C73.3739 68.133 72.2813 67.7814 71.3414 68.5888C70.9506 68.9236 70.6373 69.3469 70.2757 69.7175C68.9766 71.0537 68.7328 72.3856 69.4909 74.0979C70.04 75.3389 70.8036 76.4629 71.7693 77.3848C73.2212 78.7716 74.781 80.0495 76.3206 81.3422C78.8348 83.452 81.4693 85.3948 84.3845 86.93C85.5007 87.5183 86.6 88.137 87.7197 88.7198C89.8286 89.8159 91.9285 90.9321 94.0653 91.973C96.144 92.9847 98.3798 93.5509 100.612 94.1313C103.829 94.9679 107.097 95.4237 110.411 95.5373C113.885 95.6551 117.312 95.1319 120.743 94.6659C124.342 94.1763 127.641 92.9365 130.677 90.9443C133.079 89.369 134.161 87.1591 133.992 84.319C133.941 83.4857 133.679 82.7638 132.998 82.1642C132.14 81.4084 131.393 80.5269 130.599 79.6993C129.458 78.5089 127.856 78.3541 126.354 79.3454C126.819 79.7452 127.267 80.1294 127.714 80.5167C128.503 81.1985 129.344 81.8283 130.066 82.5751C131.406 83.9619 131.26 85.6643 129.465 86.7232C127.764 87.7282 125.894 88.1922 124.058 88.7602C122.72 89.1736 121.317 89.4094 119.928 89.6217C117.983 89.9181 116.029 90.2448 114.068 90.3302C111.266 90.4536 108.456 90.3818 105.65 90.374C102.79 90.365 100.049 89.7552 97.4004 88.6896C95.7105 88.0101 94.0205 87.3263 92.3091 86.7041C89.8184 85.799 87.4523 84.6132 85.1738 83.2972C82.5047 81.7542 79.8276 80.1889 77.475 78.1586C76.187 77.048 74.7676 76.034 74.3161 74.1452ZM25.1278 10.5C25.0245 10.4721 24.9223 10.4439 24.8192 10.4158C24.2161 10.7439 23.8285 11.2761 23.5343 11.8813C22.1397 14.7404 21.6972 17.8317 21.4739 20.9479C21.2942 23.4386 21.3479 25.9462 21.2155 28.4425C21.138 29.8978 20.845 31.3127 19.7883 32.4614C19.4457 32.8343 19.2201 33.3363 19.0168 33.8125C18.3745 35.316 17.7198 36.8174 17.1617 38.3526C16.3768 40.5129 15.6266 42.6892 14.9494 44.8846C14.1622 47.4349 13.3829 49.993 12.7586 52.5857C12.0568 55.5044 11.4247 58.4476 10.963 61.411C10.5745 63.9029 10.4273 66.4372 10.2623 68.9582C10.1209 71.1165 10.0457 73.2838 10.0501 75.4467C10.0568 78.2832 10.1714 81.1198 10.242 83.9564C10.2443 84.0281 10.278 84.0989 10.3219 84.2662C15.9872 88.0685 22.4362 88.7749 29.2165 88.7749C29.1076 88.2056 29.0536 87.7697 28.9392 87.3499C28.5696 85.9912 28.0576 84.6593 27.8184 83.2792C27.2806 80.1743 26.8157 77.0535 26.4316 73.9251C26.125 71.4176 25.8364 68.8931 25.7948 66.371C25.6938 60.3982 25.559 54.4217 26.1453 48.4533C26.3642 46.2255 26.6607 44.0278 27.2289 41.8741C27.7971 39.7202 28.5326 37.6113 29.0896 35.4565C29.3927 34.2863 30.0429 33.3688 30.9885 32.7895C33.1558 31.462 35.2287 30.0168 37.1007 28.3089C38.547 26.9895 40.1899 25.7801 40.5323 23.5307C40.4077 23.3353 40.2326 23.0614 40.0575 22.7862C39.223 22.8974 38.6211 23.3152 38.0552 23.8025C37.4073 24.3605 36.747 24.8739 35.8902 25.1152C34.5292 25.4993 33.9195 25.067 33.833 23.6959C33.6869 21.3825 34.2642 19.1781 34.8582 16.9986C35.4622 14.7797 36.0844 12.5709 36.4843 10.3037C36.5775 9.77812 36.4852 9.36146 36.0282 9.04354C35.0299 9.29063 34.9468 10.1655 34.7772 10.8818C34.4607 12.2137 34.3158 13.5871 34.0081 14.9222C33.7914 15.8587 33.459 16.7751 33.1053 17.6723C32.9334 18.1093 32.5235 18.3831 32.0092 18.2394C31.5545 18.1125 31.5173 17.7048 31.56 17.3241C31.6758 16.2933 31.7252 15.2422 31.97 14.2407C32.6381 11.5064 33.3771 8.78768 34.1317 6.0757C34.2697 5.5806 34.2372 5.211 33.9137 4.86079C33.3164 4.61808 32.8684 4.82134 32.5414 5.30421C32.2934 5.6738 32.0138 6.05101 31.8881 6.46652C31.2209 8.66518 30.5022 10.8548 30.2171 13.1502C30.0609 14.4022 29.934 15.6577 29.7487 16.9043C29.6959 17.2579 29.5219 17.6095 29.3367 17.9205C29.1233 18.2777 28.7191 18.4292 28.3608 18.2687C28.1105 18.1563 27.8825 17.8465 27.778 17.5735C27.2838 16.2832 27.6264 14.9998 27.9319 13.7399C28.3855 11.8656 28.8741 9.99822 29.4084 8.14424C29.5623 7.61084 29.5591 7.20987 29.0884 6.78882C28.8471 6.81351 28.5608 6.84258 28.3158 6.86749C28.2048 7.06175 28.1125 7.18403 28.0588 7.32222C27.0402 9.91954 26.116 12.5416 25.9577 15.3647C25.9116 16.1801 25.8813 17.0155 24.9684 17.3938C23.9948 17.048 24.1409 16.2742 24.2373 15.5904C24.3552 14.7483 24.6069 13.9263 24.7562 13.0874C24.9089 12.2306 25.0065 11.3626 25.1278 10.5ZM92.5359 39.6282C92.7819 39.3889 92.9178 39.1824 93.1097 39.0812C94.8469 38.1581 96.5863 37.2385 98.3403 36.3468C102.315 34.3256 106.603 33.5024 110.99 33.0892C112.805 32.9185 114.624 32.7962 116.443 32.6928C117.071 32.6568 117.707 32.7558 118.339 32.7759C119.271 32.8063 120.205 32.8389 121.137 32.8287C121.314 32.8264 121.489 32.6322 121.749 32.4739C120.331 30.8928 118.864 29.6417 116.918 28.8658C114.28 27.8147 111.57 27.3028 108.773 27.2836C107.07 27.2735 105.367 27.5397 103.664 27.6846C101.354 27.8821 99.3241 28.8905 97.277 29.8641C95.3197 30.7962 93.6207 32.1324 91.7937 33.2654C88.5045 35.307 84.9101 35.8145 81.1885 34.7355C79.4524 34.2323 77.7872 33.4722 76.1196 32.7579C73.9073 31.8101 71.5762 31.3429 69.2136 31.1141C66.981 30.8972 64.7632 31.1522 62.5668 31.7035C60.322 32.2672 58.1458 33.0084 56.0728 34.0067C54.1986 34.9095 52.4569 36.0448 50.8747 37.4226C49.1926 38.8869 47.4566 40.2885 45.7385 41.7112C44.6784 42.5893 43.6116 43.4596 42.5424 44.3277C41.5903 45.1001 40.6043 45.8347 39.68 46.6387C38.1698 47.9515 37.1086 49.6324 36.0844 51.3168C35.5296 52.2297 34.9953 53.228 34.7796 54.2567C34.5055 55.5559 34.5908 56.9272 34.4752 58.2635C34.3562 59.6311 34.191 60.9944 34.0171 62.3565C33.9979 62.5127 33.7947 62.6451 33.5173 62.9819C33.3591 62.3027 33.1939 61.8535 33.1591 61.3942C33.0525 59.9827 33.0019 58.5678 32.9131 57.1551C32.8884 56.7698 32.8054 56.3892 32.7168 55.776C32.2383 56.0983 31.9003 56.2454 31.6712 56.4948C30.4877 57.7817 29.3411 59.1032 28.161 60.3936C27.7051 60.8922 27.5164 61.4357 27.5242 62.1163C27.5692 66.0307 27.4423 69.9466 28.1665 73.8296C28.5809 76.052 28.6865 78.3372 29.1749 80.5414C29.7972 83.3521 30.1305 86.2291 31.1154 88.9625C31.9958 91.4071 32.7302 93.9034 33.623 96.3424C34.4471 98.5962 34.4944 98.6085 36.8211 99.1329C39.2791 99.6854 41.7428 100.225 44.2245 100.658C45.8305 100.939 47.4711 101.021 49.0971 101.183C49.9854 101.273 50.8736 101.351 51.763 101.428C54.1335 101.634 56.504 101.973 58.878 102.01C62.4983 102.066 66.1232 101.929 69.7446 101.843C71.6468 101.798 73.547 101.696 75.4468 101.604C78.1634 101.473 80.8787 101.308 83.595 101.19C85.9812 101.087 88.3698 101.03 90.7572 100.948C93.1445 100.866 95.5331 100.789 97.9193 100.686C99.0726 100.635 100.227 100.563 101.375 100.441C103.774 100.185 106.167 99.8617 108.569 99.618C110.604 99.4125 112.648 99.2867 114.686 99.1116C115.463 99.0454 116.241 98.9644 117.013 98.8512C118.808 98.5861 120.602 98.2986 122.395 98.0178C123.859 97.7887 125.344 97.6619 126.676 96.895C127.651 96.3346 127.866 95.8988 127.563 94.6557C127.4 94.6377 127.214 94.577 127.042 94.6063C126.422 94.7141 125.793 94.8041 125.194 94.987C121.099 96.2391 116.894 96.65 112.637 96.6389C110.923 96.6343 109.209 96.467 107.496 96.4647C104.216 96.4615 101.092 95.6258 98.0102 94.6691C96.1777 94.0999 94.4146 93.2812 92.6651 92.4762C90.7775 91.6069 88.9369 90.6322 87.0852 89.6856C86.0599 89.1612 85.0324 88.6379 84.0465 88.0484C82.1958 86.9422 80.3227 85.862 78.554 84.6335C76.9056 83.4892 75.3313 82.2247 73.8141 80.9087C72.0411 79.3692 70.2702 77.8047 69.0115 75.7745C67.6616 73.5971 67.3753 71.2602 69.1067 69.0122C69.4235 68.599 69.7908 68.2215 70.1602 67.8533C71.1404 66.8774 72.315 66.5023 73.639 66.9526C76.0275 67.7668 78.4205 68.5787 80.7663 69.5084C84.1621 70.8549 87.659 71.8691 91.222 72.5819C94.6358 73.2637 98.0418 74.0622 101.543 74.2541C103.286 74.3485 105.023 74.6336 106.765 74.6629C110.343 74.7225 113.926 74.8099 117.49 74.2474C119.287 73.9644 121.148 74.052 122.924 73.6903C126.439 72.9739 129.984 72.2979 133.02 70.1374C134.318 69.2131 134.572 68.8897 134.201 67.4154C133.807 65.8455 133.849 64.324 134.624 62.8596C134.854 62.4238 135.101 61.9726 135.031 61.384C134.455 61.5524 133.962 61.7063 133.463 61.8399C132.39 62.1253 131.321 62.425 130.24 62.6698C129.74 62.7821 129.212 62.7821 128.754 62.1668C129.178 61.9656 129.518 61.7635 129.884 61.6355C131.008 61.2438 132.158 60.9235 133.265 60.4923C134.263 60.105 135.305 59.7321 136.173 59.1302C137.454 58.2432 138.601 57.1641 139.792 56.1511C139.924 56.0378 139.97 55.8232 140.186 55.4043C139.281 55.7266 138.61 55.9153 137.983 56.1993C134.495 57.7739 130.889 59.008 127.184 59.9546C126.396 60.1567 125.585 60.2745 124.797 60.479C122.343 61.1157 119.85 61.5255 117.323 61.6175C114.04 61.7377 110.764 61.6378 107.532 60.9473C106.227 60.6688 104.923 60.3814 103.614 60.1285C102.64 59.9412 101.724 59.9589 100.866 60.6418C99.633 61.6233 98.1652 62.1724 96.6728 62.6474C96.036 62.8495 95.396 63.0461 94.7683 63.2751C93.0301 63.9073 91.3277 64.6552 89.5568 65.1773C86.2664 66.1475 82.8628 66.5125 79.4513 66.7404C77.2494 66.8876 75.0708 66.5328 72.8989 66.2038C70.2409 65.8016 67.7223 64.9247 65.2315 63.9465C61.7907 62.5946 58.2323 61.7287 54.5479 61.3863C53.6338 61.301 52.632 60.3352 52.4659 59.4424C52.2032 58.0297 52.63 57.3212 53.9953 56.9539C54.4253 56.8384 54.8702 56.7788 55.308 56.6981C57.8145 56.242 60.212 55.4795 62.2904 53.9658C63.9705 52.7419 65.5684 51.4045 67.2292 50.1536C68.8901 48.9013 70.524 47.5987 72.2824 46.4971C73.9445 45.4552 75.6896 44.54 77.6097 43.9683C80.1083 43.2249 82.5901 42.4781 85.2324 42.5196C86.8785 42.5455 88.5516 42.3771 90.1654 42.6163C92.3574 42.9418 94.5595 43.3315 96.6605 44.1108C97.0108 44.2412 97.4027 44.2592 97.7901 44.3321C97.8136 44.0952 97.8519 44.0008 97.8217 43.9526C97.7463 43.8358 97.6577 43.7023 97.5409 43.6416C96.583 43.152 95.6643 42.5095 94.6471 42.2301C91.9958 41.5022 89.2882 40.9868 86.5202 40.9958C84.9931 41.0016 83.4647 41.0858 81.9397 41.1834C79.2628 41.3553 76.6339 41.7731 74.1129 42.7545C71.738 43.6785 69.519 44.8913 67.528 46.4724C65.2585 48.277 63.0306 50.1377 60.8409 52.0366C59.518 53.1832 57.993 53.3943 56.3557 53.3348C55.8876 53.318 55.6033 53.0776 55.4384 52.6655C55.6428 52.1017 56.0682 52.0119 56.5917 51.9547C57.7259 51.829 58.8644 51.7605 59.8122 50.9216C61.3169 49.5909 62.9542 48.4085 64.431 47.0496C66.5646 45.089 68.9441 43.5112 71.5278 42.2446C72.6216 41.7078 73.7871 41.2766 74.9651 40.9656C76.5732 40.5399 78.223 40.2705 79.8557 39.9415C82.5181 39.4035 85.1996 39.4844 87.8744 39.7786C89.4961 39.956 91.1065 40.2368 92.7145 40.5187C94.5145 40.8341 96.2729 41.3317 97.8598 42.2536C98.41 42.5725 98.9176 43.1015 99.2332 43.655C99.5599 44.2267 99.6162 44.9813 99.158 45.5562C98.7099 46.1176 98.0979 45.8852 97.5072 45.72C96.0798 45.3214 94.6559 44.8835 93.2018 44.6106C91.7464 44.3388 90.2609 44.1997 88.7818 44.094C87.6645 44.0133 86.537 44.0829 85.4142 44.0728C83.4255 44.0548 81.4963 44.4331 79.6086 44.9991C77.6141 45.5978 75.6379 46.2737 73.8803 47.4314C72.1117 48.5949 70.3251 49.7369 68.625 50.9945C67.0126 52.187 65.4978 53.5122 63.9458 54.7867C61.8839 56.4801 59.5337 57.4853 56.8847 57.8244C55.9393 57.9455 55.0049 58.1578 54.0885 58.3251C54.0031 59.4223 54.1785 59.776 55.1576 60.0286C57.0665 60.5193 59.0128 60.3138 60.9452 60.1869C61.4158 60.1555 61.8975 60.0118 62.3377 59.832C64.8059 58.8227 67.0271 57.3773 69.062 55.6839C71.2023 53.9019 73.2494 52.0052 75.3022 50.122C76.4968 49.0261 77.8557 48.2108 79.3145 47.5461C80.0578 47.207 80.8012 46.7555 81.586 46.6443C83.4232 46.3838 85.2838 46.2006 87.139 46.1625C91.1602 46.0795 95.1872 46.029 99.0601 47.4538C100.683 48.0514 102.245 48.678 103.247 50.2085C103.372 50.4004 103.662 50.4858 103.911 50.6431C105.027 49.9974 106.14 49.4001 107.206 48.7273C109.533 47.2586 111.848 45.7694 114.146 44.2557C117.953 41.7472 122.182 40.6444 126.682 40.5692C128.384 40.5411 130.089 40.8454 131.796 40.9374C134.506 41.0846 137.034 41.9459 139.565 42.8161C140.263 43.0565 140.985 43.2328 141.696 43.4372C141.729 43.3608 141.761 43.2856 141.794 43.2092C141.118 42.7644 140.49 42.1985 139.754 41.9043C138.552 41.4249 137.298 41.0385 136.033 40.76C133.21 40.138 130.421 39.3239 127.513 39.1285C126.031 39.0286 124.551 38.7679 123.071 38.7736C121.517 38.7803 119.958 38.9824 118.409 39.1644C115.899 39.4598 113.573 40.3434 111.417 41.6303C109.343 42.8689 107.327 44.2052 105.279 45.4889C104.88 45.738 104.474 46.0548 103.954 45.7616C104.115 44.8992 104.253 44.6645 104.989 44.1378C106.169 43.2946 107.327 42.4186 108.549 41.6427C109.772 40.8657 111.009 40.0762 112.33 39.5001C115.392 38.1671 118.659 37.6395 121.967 37.3889C124.846 37.17 127.705 37.5506 130.552 37.8875C132.313 38.0953 134.041 38.5658 135.788 38.9017C136.05 38.9522 136.331 38.9084 136.618 38.9084C136.592 38.7803 136.597 38.7309 136.574 38.7095C136.496 38.632 136.417 38.5478 136.322 38.494C133.201 36.7175 129.994 35.2329 126.343 34.8398C123.866 34.5738 121.401 34.2178 118.905 34.1763C118.721 34.174 118.537 34.1301 118.351 34.1235C117.382 34.0886 116.407 33.9763 115.446 34.0471C113.372 34.1987 111.302 34.4234 109.236 34.6635C108.169 34.7884 107.079 34.8961 106.061 35.2082C103.65 35.9461 101.205 36.5973 98.9097 37.6888C97.5352 38.3424 96.1103 38.8947 94.6965 39.4641C94.0609 39.7214 93.4062 40.0111 92.5359 39.6282ZM126.045 41.9964L126.022 42.0065C124.868 42.0605 123.713 42.1131 122.558 42.166C122.331 42.22 122.103 42.2737 121.876 42.3265C121.657 42.3637 121.439 42.4006 121.22 42.4377C121.064 42.477 120.908 42.5164 120.752 42.5556C119.639 42.9677 118.459 43.2542 117.425 43.8112C113.019 46.1817 108.836 48.9184 104.703 51.7291C104.078 52.1534 103.827 52.6667 103.906 53.4324C103.973 54.0906 103.971 54.78 103.851 55.4269C103.675 56.368 103.367 57.2841 103.077 58.3497C103.43 58.5295 103.826 58.8091 104.266 58.9438C105.227 59.237 106.203 59.4998 107.187 59.7019C110.534 60.3881 113.911 60.6744 117.324 60.3375C117.597 60.3105 117.863 60.2016 118.204 60.1117C118.059 59.6546 117.953 59.3056 117.838 58.9586C117.388 57.5785 116.831 56.2231 116.505 54.8148C115.864 52.0334 116.361 49.4112 117.903 46.9901C119.136 45.0542 120.908 43.8077 122.975 42.9229C123.127 42.8646 123.279 42.806 123.43 42.7476C124.333 42.6085 125.235 42.4691 126.137 42.33C126.285 42.3312 126.432 42.3321 126.58 42.3332C127.408 42.4624 128.235 42.5905 129.064 42.7197C129.216 42.7824 129.367 42.8466 129.519 42.9093C133.403 44.4209 135.816 47.1855 136.605 51.3C136.78 52.214 136.807 53.1563 136.924 54.0816C136.966 54.4252 137.072 54.7608 137.159 55.1484C137.482 55.0698 137.677 55.0631 137.829 54.9777C138.964 54.3375 140.137 53.7515 141.209 53.0169C143.199 51.6493 143.815 49.6089 143.037 47.3214C142.893 46.898 142.705 46.4904 142.542 46.0728C142.255 45.3327 141.73 44.8745 140.995 44.5568C136.353 42.5533 131.483 41.8178 126.463 41.875C126.323 41.8773 126.184 41.9537 126.045 41.9964ZM8.21526 71.2851C8.51288 67.7073 8.71706 64.1195 9.14271 60.5576C9.42902 58.1555 9.99057 55.7829 10.4981 53.4123C11.7133 47.7447 13.3414 42.1941 15.493 36.8119C16.4486 34.4234 17.6344 32.128 18.6777 29.7732C18.9303 29.2027 19.1313 28.5749 19.1841 27.9584C19.4019 25.425 19.5828 22.8872 19.7221 20.3483C19.8557 17.9475 20.2407 15.5938 20.9852 13.313C21.3188 12.2889 21.7724 11.2962 22.2576 10.3327C22.7169 9.42098 23.3816 8.67648 24.3587 8.23629C25.1818 7.86577 25.8442 7.32776 26.3125 6.48336C26.8999 5.42672 27.9879 4.94823 29.1424 4.94038C30.1732 4.93369 30.9459 4.51818 31.6442 3.89043C32.4595 3.15723 33.3995 2.72142 34.4012 3.20199C35.405 3.68394 35.8577 4.66076 35.844 5.80508C35.8397 6.17444 35.8429 6.54404 35.8429 6.88526C37.6791 7.77926 38.3662 8.77638 38.072 10.8493C37.779 12.9077 37.2444 14.9425 36.6739 16.9458C36.1608 18.7458 35.6387 20.5324 35.4881 22.4044C35.4634 22.72 35.4848 23.04 35.4848 23.6038C35.9756 23.3164 36.2967 23.1703 36.5685 22.9604C37.0703 22.5728 37.5252 22.1227 38.0328 21.7441C38.9042 21.0939 40.3853 20.9973 41.0915 21.5083C41.9687 22.1404 42.3807 23.3791 42.1124 24.5054C41.7721 25.9317 40.9725 27.0917 40.0079 28.1527C38.3101 30.0224 36.3057 31.5305 34.1158 32.7457C32.2865 33.7596 31.2513 35.3171 30.5405 37.1656C29.5556 39.7237 28.9941 42.3884 28.6372 45.1001C28.4708 46.3603 28.2856 47.6178 28.0823 48.8722C27.6084 51.7997 27.5277 54.7486 27.5321 57.8703C28.4171 57.0765 29.1985 56.3645 29.9903 55.6659C30.6349 55.0979 31.3085 54.5633 31.9407 53.9826C33.1221 52.899 33.7621 51.446 34.5112 50.0772C36.0249 47.308 38.0653 44.9813 40.6144 43.1654C43.2994 41.2542 45.8079 39.1418 48.2998 37.0004C52.531 33.3633 57.2462 30.6321 62.7913 29.6159C65.4089 29.1364 68.0826 29.2915 70.7406 29.4082C73.6065 29.534 76.2128 30.475 78.7518 31.7091C80.7146 32.6635 82.7359 33.3903 84.983 33.2846C86.9662 33.1925 88.8077 32.6815 90.5011 31.6507C92.0946 30.6794 93.6724 29.6823 95.2668 28.7131C98.2529 26.8983 101.52 25.9238 104.965 25.4677C108.89 24.9468 112.733 25.3208 116.464 26.6143C118.441 27.3005 120.293 28.2874 121.925 29.6283C122.209 29.8597 122.443 30.1707 122.643 30.4806C123.438 31.7149 124.577 32.4042 125.996 32.6873C128.746 33.2375 131.444 33.9841 134.055 35.0085C135.373 35.5259 136.678 36.0965 137.939 36.7399C140.307 37.9493 142.069 39.8506 143.319 42.1378C144.023 43.4259 144.315 44.9395 144.792 46.3513C144.86 46.6509 144.93 46.9497 144.999 47.2496V51.0676C144.514 51.939 144.072 52.8383 143.534 53.6751C142.125 55.8682 140.851 58.1723 138.58 59.6671C138.238 59.8927 138.016 60.3465 137.819 60.735C137.227 61.895 136.709 63.0931 136.095 64.2409C135.753 64.8797 135.632 65.4816 135.888 66.1655C136.348 67.3885 136.749 68.6382 137.638 69.6432C138.082 70.1475 138.298 70.7326 138.193 71.394C138.042 72.3293 137.663 73.1592 137.075 73.9217C136.011 75.3029 134.535 76.0866 133.034 76.848C132.411 77.1636 131.791 77.4847 131.121 77.8285C131.322 78.1125 131.438 78.3024 131.579 78.4708C132.397 79.4421 133.263 80.3764 134.024 81.3904C134.485 82.0036 134.911 82.6997 135.128 83.4262C135.639 85.1344 135.4 86.8388 134.708 88.4605C134.012 90.0932 132.886 91.3587 131.265 92.1415C130.516 92.503 129.989 93.0285 129.828 93.8787C129.451 95.8607 129.654 97.5933 131.352 99.0341C133.025 100.455 134.552 102.052 136.081 103.634C137.594 105.198 138.528 107.091 138.935 109.236H137.138C136.9 107.456 135.901 106.049 134.773 104.766C133.595 103.426 132.306 102.175 130.988 100.972C130.029 100.099 128.963 99.335 127.896 98.5905C127.604 98.3872 127.118 98.3166 126.757 98.3817C124.71 98.749 122.678 99.1901 120.637 99.5788C119.032 99.8852 117.428 100.238 115.808 100.419C112.551 100.782 109.286 101.059 106.021 101.342C103.202 101.586 100.381 101.865 97.5543 101.986C94.6864 102.109 91.8173 102.114 88.9549 102.437C87.0684 102.649 85.1526 102.598 83.2515 102.689C80.4205 102.824 77.5929 103.004 74.7607 103.12C72.0377 103.234 69.3112 103.359 66.5858 103.361C62.5152 103.363 58.4422 103.279 54.3716 103.199C52.8062 103.168 51.233 103.127 49.6787 102.951C47.1308 102.662 44.5851 102.322 42.0584 101.883C40.1202 101.546 38.2157 101.019 36.2944 100.59C35.9608 100.516 35.6138 100.507 35.1782 100.458C35.5275 101.516 35.8397 102.387 36.1036 103.272C36.5055 104.622 36.8975 105.975 37.2421 107.339C37.3185 107.641 37.1826 107.997 37.1446 108.329C37.0546 108.364 36.9648 108.397 36.8739 108.432C36.5627 108.151 36.1753 107.92 35.9564 107.58C35.6387 107.087 35.4096 106.529 35.2018 105.976C34.5212 104.169 33.853 102.358 33.2096 100.538C32.7885 99.3497 32.4215 98.1413 32.0249 96.9444C31.3614 94.9376 30.6944 92.9332 29.997 90.8354C29.321 90.8354 28.6561 90.8186 27.9926 90.8389C24.6978 90.9365 21.448 90.7491 18.2712 89.7239C16.0737 89.014 13.8995 88.2628 11.7906 87.3217C11.4145 87.1533 11.0002 87.0725 10.4026 86.8894C10.4958 88.0383 10.5823 88.9567 10.6419 89.8754C10.8024 92.3302 10.9339 94.7861 11.109 97.2397C11.3314 100.36 11.5672 103.481 11.8355 106.598C11.9119 107.483 12.1198 108.357 12.2667 109.236H9.5716C9.53584 108.458 9.519 107.677 9.46063 106.902C9.35381 105.487 9.19209 104.076 9.1058 102.661C8.93831 99.9032 8.79919 97.143 8.66099 94.3828C8.49811 91.1005 8.35 87.817 8.19612 84.5347C8.18827 83.4128 8.18158 82.292 8.17489 81.1715C8.17258 79.1422 8.17028 77.1142 8.16797 75.0851C8.18366 73.8183 8.19958 72.5517 8.21526 71.2851Z" fill="#070A09"/>
<path d="M12.2692 109.237C12.122 108.358 11.9144 107.484 11.838 106.599C11.5695 103.482 11.3337 100.361 11.1113 97.2409C10.9362 94.7873 10.8049 92.3314 10.6443 89.8778C10.5848 88.958 10.4983 88.0396 10.4062 86.8906C11.0036 87.0738 11.4179 87.1546 11.793 87.323C13.902 88.264 16.0771 89.0152 18.2734 89.7251C21.4514 90.7504 24.7001 90.9377 27.9948 90.8401C28.6586 90.821 29.3232 90.8367 30.0004 90.8367C30.6966 92.9345 31.3648 94.9389 32.0285 96.9456C32.4237 98.1425 32.7922 99.351 33.2121 100.539C33.8567 102.359 34.5248 104.171 35.2042 105.977C35.413 106.53 35.6421 107.088 35.9589 107.581C36.1778 107.921 36.5652 108.153 36.8773 108.433C36.9671 108.398 37.0571 108.365 37.1468 108.33C37.1851 107.999 37.321 107.643 37.2446 107.341C36.8997 105.976 36.508 104.623 36.1058 103.273C35.8419 102.389 35.5309 101.517 35.1805 100.459C35.6174 100.509 35.9644 100.518 36.2969 100.592C38.2194 101.021 40.1239 101.547 42.0609 101.884C44.5874 102.323 47.1333 102.664 49.6812 102.952C51.2353 103.128 52.8085 103.169 54.3738 103.2C58.4456 103.28 62.5174 103.364 66.5892 103.362C69.3136 103.36 72.0401 103.235 74.7644 103.122C77.5952 103.005 80.4239 102.825 83.2538 102.691C85.155 102.6 87.0706 102.65 88.9571 102.438C91.8207 102.116 94.6886 102.11 97.5568 101.988C100.383 101.866 103.204 101.587 106.024 101.343C109.288 101.06 112.554 100.784 115.81 100.42C117.431 100.239 119.034 99.8865 120.639 99.5801C122.681 99.1913 124.713 98.7502 126.759 98.3829C127.121 98.3179 127.607 98.3885 127.899 98.5917C128.966 99.3362 130.031 100.1 130.99 100.974C132.31 102.176 133.599 103.427 134.775 104.767C135.903 106.05 136.902 107.457 137.14 109.237H12.2692Z" fill="#0642F1"/>
<path d="M8.16957 75.0849C8.17188 77.113 8.17419 79.1421 8.17626 81.17C8.11674 81.1915 8.05745 81.1892 8 81.1622V75.0985L8.08305 75.0703L8.16957 75.0849Z" fill="#539836"/>
<path d="M8.16957 75.0856L8.08305 75.0711L8 75.0993V71.2812C8.07198 71.2891 8.14373 71.2903 8.21687 71.2856C8.20118 72.5522 8.18526 73.8191 8.16957 75.0856Z" fill="#CE9BB0"/>
<path d="M8 81.1641C8.05722 81.1911 8.11559 81.1931 8.17511 81.1731C8.18295 82.2936 8.18964 83.4144 8.19656 84.5363L8.09759 84.5497L8 84.5329V81.1641Z" fill="#CE9BB0"/>
<path d="M145 47.2519C144.931 46.952 144.863 46.6532 144.793 46.3535C144.863 46.3457 144.931 46.3457 145 46.3535V47.2519Z" fill="#CE9BB0"/>
<path d="M52.7964 44.982C53.2523 44.626 53.5815 44.4138 53.8565 44.1453C54.8615 43.1673 55.7947 42.1072 56.8592 41.2009C57.7306 40.4599 58.6806 39.7244 59.7216 39.2874C61.5567 38.5171 63.3892 37.6727 65.4026 37.4143C65.8428 37.3583 66.2809 37.2775 66.7176 37.2023C68.6546 36.8641 70.5928 36.5397 72.5659 36.4756C74.2099 36.4239 75.8382 36.5441 77.4417 36.9091C79.5674 37.3908 81.7414 37.6739 83.7875 38.4947C84.5678 38.808 85.3799 39.1472 86.3826 38.8609C86.1131 38.5868 85.9278 38.2869 85.6584 38.1399C84.7127 37.6256 83.7751 37.0653 82.7701 36.6991C79.8909 35.6492 76.905 35.0989 73.8327 35.1349C72.5322 35.1494 71.2252 35.1977 69.936 35.3504C68.1349 35.5626 66.3236 35.7906 64.5593 36.1948C63.014 36.5487 61.478 37.0438 60.0247 37.6762C57.5522 38.7508 55.2546 40.1388 53.6599 42.4071C53.1907 43.0741 52.5237 43.7152 52.7964 44.982ZM92.5351 39.6289C93.4065 40.013 94.0612 39.7221 94.6968 39.466C96.1095 38.8955 97.5346 38.3432 98.9091 37.6896C101.205 36.5981 103.649 35.9479 106.06 35.209C107.079 34.8968 108.169 34.7891 109.236 34.6654C111.302 34.4253 113.371 34.2005 115.445 34.0478C116.407 33.977 117.382 34.0893 118.351 34.1242C118.536 34.1309 118.72 34.1747 118.905 34.1782C121.4 34.2197 123.865 34.5745 126.343 34.8405C129.994 35.2337 133.2 36.7183 136.322 38.4947C136.416 38.5485 136.495 38.6329 136.575 38.7102C136.596 38.7328 136.592 38.781 136.619 38.9091C136.331 38.9091 136.05 38.9529 135.788 38.9024C134.041 38.5665 132.312 38.0961 130.551 37.8882C127.705 37.5514 124.846 37.1707 121.966 37.3896C118.659 37.6413 115.392 38.1678 112.33 39.5009C111.009 40.0769 109.771 40.8664 108.55 41.6434C107.327 42.4205 106.168 43.2965 104.989 44.1386C104.253 44.6664 104.115 44.8999 103.953 45.7623C104.473 46.0555 104.881 45.7388 105.279 45.4896C107.327 44.2059 109.342 42.8697 111.416 41.631C113.573 40.3441 115.898 39.4605 118.409 39.1663C119.957 38.9843 121.516 38.7822 123.072 38.7755C124.552 38.7686 126.03 39.0293 127.513 39.1292C130.421 39.3246 133.209 40.1388 136.033 40.7608C137.297 41.0392 138.552 41.4257 139.754 41.9062C140.489 42.1992 141.117 42.7663 141.793 43.21C141.761 43.2863 141.728 43.3627 141.695 43.4391C140.985 43.2335 140.264 43.0572 139.564 42.8168C137.033 41.9466 134.505 41.0854 131.796 40.9382C130.089 40.8461 128.384 40.5418 126.682 40.5711C122.181 40.6452 117.953 41.748 114.146 44.2565C111.848 45.7713 109.533 47.2594 107.205 48.7281C106.14 49.4017 105.026 49.9993 103.911 50.6439C103.661 50.4865 103.372 50.4012 103.246 50.2092C102.245 48.6787 100.682 48.0521 99.0596 47.4545C95.1876 46.0297 91.1608 46.0802 87.1384 46.1633C85.2832 46.2016 83.4237 46.3845 81.5854 46.645C80.8015 46.7562 80.057 47.2077 79.3136 47.5468C77.8549 48.2115 76.4962 49.0268 75.3014 50.1227C73.2488 52.0071 71.2014 53.9026 69.0612 55.6846C67.0263 57.3792 64.8064 58.8234 62.3369 59.8328C61.8967 60.0136 61.415 60.1562 60.9446 60.1876C59.0119 60.3145 57.0659 60.5201 55.1579 60.0293C54.1788 59.7779 54.0026 59.423 54.0879 58.3258C55.0043 58.1597 55.9384 57.9463 56.885 57.8251C59.5331 57.486 61.8833 56.482 63.945 54.7874C65.4969 53.513 67.0118 52.1878 68.6244 50.9952C70.3245 49.7376 72.1111 48.5956 73.8797 47.4322C75.6371 46.2756 77.6135 45.5985 79.6078 45.001C81.4955 44.435 83.4258 44.0555 85.4136 44.0735C86.5364 44.0837 87.6639 44.014 88.7812 44.0947C90.2601 44.2015 91.7458 44.3395 93.2012 44.6124C94.6553 44.8842 96.0793 45.3221 97.5076 45.7208C98.097 45.8871 98.7091 46.1183 99.1571 45.557C99.6165 44.982 99.5593 44.2274 99.2335 43.6557C98.917 43.1022 98.4103 42.5744 97.8592 42.2544C96.2724 41.3336 94.5139 40.8348 92.7137 40.5194C91.1068 40.2387 89.4953 39.9567 87.8739 39.7793C85.199 39.4852 82.5175 39.4053 79.8549 39.9422C78.2221 40.2723 76.5726 40.5407 74.9645 40.9663C73.7865 41.2773 72.621 41.7097 71.5272 42.2454C68.9433 43.512 66.5637 45.0898 64.4313 47.0503C62.9536 48.4092 61.3163 49.5928 59.8116 50.9235C58.8638 51.7612 57.725 51.8297 56.5909 51.9554C56.0676 52.0127 55.642 52.1024 55.4387 52.6674C55.6028 53.0795 55.8868 53.3199 56.3551 53.3367C57.9924 53.3951 59.5183 53.1851 60.8401 52.0385C63.0309 50.1384 65.2577 48.2777 67.5283 46.4731C69.5182 44.8921 71.7372 43.6792 74.1132 42.7552C76.6333 41.7747 79.2631 41.356 81.9403 41.1841C83.4641 41.0865 84.9923 41.0023 86.5196 40.9965C89.2876 40.9887 91.995 41.5029 94.6463 42.2318C95.6637 42.5105 96.5834 43.1527 97.5401 43.6423C97.6568 43.703 97.7457 43.8366 97.8209 43.9545C97.8523 44.0027 97.813 44.0959 97.7895 44.334C97.4021 44.2611 97.0113 44.2419 96.6609 44.1116C94.5587 43.3322 92.3565 42.9426 90.1646 42.617C88.551 42.3778 86.8779 42.5462 85.2315 42.5204C82.5892 42.48 80.1075 43.2256 77.6089 43.969C75.6899 44.5407 73.9436 45.4559 72.2819 46.498C70.5243 47.6006 68.8893 48.9032 67.2286 50.1543C65.5678 51.4052 63.9708 52.7426 62.2898 53.9665C60.2112 55.4814 57.8139 56.2427 55.3074 56.6997C54.8693 56.7796 54.4247 56.8391 53.9947 56.9547C52.6291 57.322 52.2035 58.0305 52.4663 59.4443C52.6314 60.3359 53.633 61.3017 54.5473 61.3871C58.2326 61.7294 61.7901 62.5953 65.2309 63.9472C67.7214 64.9254 70.2403 65.8024 72.8983 66.2045C75.07 66.5335 77.2486 66.8883 79.4507 66.7411C82.8622 66.5132 86.267 66.1482 89.5571 65.1781C91.3269 64.6571 93.0293 63.9092 94.7677 63.2759C95.3954 63.0468 96.0354 62.8502 96.6733 62.6481C98.1644 62.1731 99.6322 61.624 100.866 60.6426C101.723 59.9597 102.641 59.9419 103.613 60.1292C104.923 60.383 106.226 60.6696 107.532 60.948C110.763 61.6385 114.039 61.7384 117.322 61.6194C119.85 61.5273 122.343 61.1164 124.796 60.4797C125.585 60.2753 126.395 60.1574 127.185 59.9564C130.889 59.0087 134.494 57.7746 137.982 56.2C138.61 55.916 139.281 55.7285 140.185 55.405C139.97 55.824 139.925 56.0395 139.791 56.1518C138.601 57.1649 137.453 58.245 136.174 59.131C135.305 59.7329 134.263 60.1057 133.265 60.4931C132.157 60.9243 131.007 61.2445 129.884 61.6362C129.517 61.7643 129.177 61.9664 128.755 62.1687C129.212 62.7828 129.739 62.784 130.239 62.6705C131.321 62.4269 132.391 62.1269 133.462 61.8406C133.962 61.707 134.456 61.5532 135.032 61.3848C135.1 61.9742 134.853 62.4257 134.623 62.8604C133.848 64.3258 133.807 65.8462 134.202 67.4162C134.571 68.8906 134.319 69.215 133.019 70.1392C129.983 72.2987 126.438 72.9746 122.923 73.691C121.148 74.0528 119.286 73.9651 117.489 74.2482C113.925 74.8106 110.344 74.7232 106.764 74.6637C105.022 74.6355 103.286 74.3504 101.542 74.2549C98.0421 74.0629 94.6362 73.2656 91.2224 72.5827C87.6581 71.8707 84.1615 70.8556 80.7657 69.5092C78.421 68.5794 76.0267 67.7675 73.6382 66.9534C72.3144 66.5033 71.1398 66.8782 70.1593 67.8552C69.79 68.2223 69.4238 68.6009 69.1061 69.0129C67.3744 71.2612 67.661 73.5989 69.0106 75.7752C70.2705 77.8066 72.0403 79.3699 73.8147 80.9094C75.3307 82.2254 76.905 83.4899 78.5534 84.6342C80.3221 85.8627 82.1952 86.9429 84.0457 88.0492C85.0329 88.6386 86.0603 89.1619 87.0844 89.6863C88.9363 90.6329 90.7766 91.6076 92.6643 92.4769C94.414 93.2819 96.1768 94.1007 98.0096 94.6698C101.092 95.6266 104.216 96.4622 107.495 96.4666C109.209 96.4689 110.922 96.635 112.637 96.6396C116.893 96.6519 121.098 96.2398 125.194 94.9877C125.792 94.8048 126.422 94.7148 127.041 94.6071C127.213 94.5778 127.4 94.6385 127.563 94.6564C127.866 95.9007 127.652 96.3353 126.676 96.8966C125.343 97.6626 123.86 97.7895 122.395 98.0186C120.601 98.2993 118.809 98.5868 117.012 98.8519C116.24 98.9652 115.463 99.0461 114.686 99.1124C112.647 99.2875 110.604 99.4132 108.569 99.6188C106.168 99.8624 103.774 100.186 101.374 100.442C100.226 100.564 99.0718 100.636 97.9187 100.687C95.5322 100.79 93.1449 100.866 90.7575 100.948C88.3701 101.031 85.9816 101.087 83.5942 101.191C80.8778 101.31 78.1626 101.474 75.4463 101.605C73.5461 101.698 71.6463 101.798 69.745 101.844C66.1224 101.93 62.4986 102.067 58.8772 102.011C56.5032 101.974 54.1338 101.636 51.7621 101.429C50.873 101.351 49.9845 101.274 49.0963 101.184C47.4714 101.021 45.8297 100.939 44.224 100.659C41.7434 100.226 39.2785 99.6861 36.8203 99.1336C34.4936 98.6103 34.4465 98.597 33.6222 96.3432C32.7296 93.9041 31.9961 91.4078 31.1146 88.9642C30.1299 86.231 29.7963 83.3529 29.1743 80.5421C28.6857 78.3389 28.5803 76.0537 28.1659 73.8303C27.4415 69.9473 27.5684 66.0315 27.5236 62.1179C27.5167 61.4364 27.7043 60.8929 28.1613 60.3943C29.3405 59.104 30.4868 57.7825 31.6718 56.4956C31.8997 56.2473 32.2389 56.099 32.716 55.7767C32.8059 56.3899 32.889 56.7717 32.9125 57.1568C33.0011 58.5685 33.0519 59.9843 33.1585 61.3949C33.1933 61.8542 33.3583 62.3034 33.5167 62.9826C33.7941 62.6458 33.9973 62.5134 34.0165 62.3572C34.1904 60.9951 34.3556 59.6318 34.4744 58.2642C34.5914 56.9279 34.506 55.5566 34.779 54.2575C34.9956 53.2287 35.529 52.2304 36.0836 51.3175C37.1089 49.6343 38.169 47.9522 39.6794 46.6395C40.6046 45.8354 41.5895 45.1011 42.5419 44.3284C43.6107 43.4603 44.6775 42.59 45.7388 41.712C47.4557 40.2892 49.193 38.8876 50.8739 37.4233C52.4573 36.0467 54.1991 34.9102 56.072 34.0074C58.1461 33.0092 60.3212 32.2679 62.566 31.7043C64.7637 31.1529 66.9815 30.8979 69.2127 31.1148C71.5766 31.3437 73.9067 31.8109 76.1188 32.7586C77.7866 33.474 79.453 34.2331 81.1879 34.7363C84.9093 35.8153 88.5039 35.3077 91.7929 33.2662C93.6199 32.1332 95.3191 30.7969 97.2762 29.866C99.3244 28.8924 101.354 27.8828 103.664 27.6865C105.366 27.5404 107.071 27.2742 108.772 27.2855C111.569 27.3035 114.28 27.8166 116.918 28.8666C118.865 29.6424 120.33 30.8936 121.749 32.4746C121.488 32.6329 121.314 32.8271 121.138 32.8294C120.204 32.8396 119.271 32.8071 118.338 32.7766C117.706 32.7565 117.071 32.6576 116.443 32.6936C114.623 32.7969 112.804 32.9192 110.99 33.0899C106.602 33.5031 102.314 34.3274 98.3397 36.3487C96.5868 37.2404 94.8473 38.1588 93.11 39.0819C92.9181 39.1841 92.781 39.3897 92.5351 39.6289Z" fill="#539836"/>
<path d="M25.1287 10.4999C25.0074 11.3626 24.9096 12.2293 24.7568 13.0873C24.6076 13.9262 24.3572 14.7482 24.2382 15.5903C24.1415 16.2741 23.9955 17.0479 24.9691 17.3938C25.8822 17.0142 25.9125 16.1788 25.9586 15.3647C26.1169 12.5403 27.0422 9.91947 28.0594 7.32215C28.1134 7.18396 28.2055 7.06168 28.3167 6.86719C28.5626 6.84251 28.8478 6.81344 29.0893 6.78875C29.5597 7.2098 29.5632 7.61077 29.4093 8.14417C28.8748 9.99699 28.3863 11.8655 27.9325 13.7398C27.6282 14.9997 27.2859 16.2831 27.7789 17.5735C27.8832 17.8464 28.1111 18.1551 28.3628 18.2686C28.7197 18.428 29.1251 18.2776 29.3373 17.9205C29.5228 17.6083 29.6968 17.2567 29.7496 16.9042C29.9349 15.6577 30.0618 14.4012 30.2177 13.1501C30.5043 10.8548 31.2218 8.66511 31.8887 6.46645C32.0145 6.05095 32.2941 5.67258 32.5423 5.30414C32.869 4.82011 33.3182 4.61801 33.9146 4.86072C34.238 5.21094 34.2706 5.5803 34.1324 6.07563C33.3777 8.78762 32.6399 11.5051 31.9706 14.2395C31.7259 15.2422 31.6765 16.2933 31.5609 17.3241C31.5182 17.7047 31.5563 18.1124 32.0101 18.2393C32.5255 18.383 32.9343 18.108 33.106 17.6711C33.4599 16.775 33.7921 15.8586 34.009 14.9222C34.3176 13.5871 34.4614 12.2136 34.7781 10.8818C34.9489 10.1654 35.0308 9.29056 36.0302 9.04347C36.4861 9.36139 36.5781 9.77805 36.4861 10.3036C36.0863 12.5708 35.4631 14.7796 34.8589 16.9985C34.266 19.1781 33.6878 21.3825 33.8336 23.6958C33.9201 25.0669 34.5299 25.4993 35.8908 25.1151C36.7477 24.8726 37.408 24.3605 38.0561 23.8024C38.622 23.3151 39.2251 22.8973 40.0581 22.7861C40.2332 23.0602 40.4097 23.3352 40.5343 23.5295C40.1906 25.78 38.5488 26.9894 37.1025 28.3088C35.2294 30.0168 33.1576 31.4619 30.9892 32.7883C30.0438 33.3676 29.3936 34.2851 29.0905 35.4564C28.5333 37.6112 27.7978 39.7202 27.2296 41.8729C26.6616 44.0266 26.3651 46.2255 26.1459 48.4532C25.5599 54.4216 25.6958 60.3979 25.7957 66.371C25.8384 68.8931 26.1259 71.4175 26.4334 73.9251C26.8164 77.0535 27.2812 80.1743 27.8193 83.2792C28.0585 84.6593 28.5704 85.9909 28.9398 87.3498C29.0545 87.7697 29.1082 88.2055 29.2174 88.7749C22.438 88.7749 15.9878 88.0685 10.3225 84.2661C10.2789 84.0989 10.2452 84.028 10.2429 83.9563C10.1721 81.1197 10.0577 78.2832 10.051 75.4466C10.0464 73.2837 10.1227 71.1164 10.263 68.9581C10.4282 66.4372 10.5754 63.9028 10.9639 61.411C11.4253 58.4475 12.0577 55.5032 12.7604 52.5856C13.3838 49.9929 14.1631 47.4348 14.9503 44.8846C15.6286 42.688 16.3775 40.5129 17.1626 38.3523C17.7207 36.8174 18.3763 35.3159 19.0175 33.8124C19.2207 33.3362 19.4466 32.8342 19.789 32.4614C20.8456 31.3127 21.1389 29.8977 21.2164 28.4413C21.3488 25.9461 21.2948 23.4386 21.4745 20.9467C21.6981 17.8316 22.1406 14.7404 23.5352 11.8812C23.8294 11.276 24.2167 10.7426 24.8198 10.4157C24.9232 10.4439 25.0254 10.472 25.1287 10.4999Z" fill="#539836"/>
<path d="M74.3197 74.1464C74.7712 76.0352 76.1905 77.0481 77.4786 78.1598C79.8311 80.1889 82.5071 81.7554 85.1774 83.2973C87.4558 84.6132 89.822 85.8002 92.3127 86.7053C94.0239 87.3275 95.7129 88.0113 97.4029 88.6908C100.052 89.7553 102.792 90.3662 105.652 90.3752C108.459 90.383 111.27 90.4548 114.072 90.3313C116.031 90.2448 117.986 89.9193 119.931 89.6217C121.32 89.4106 122.723 89.1748 124.061 88.7614C125.898 88.1931 127.767 87.7283 129.467 86.7244C131.263 85.6643 131.409 83.9631 130.068 82.5763C129.347 81.8295 128.505 81.1997 127.717 80.5168C127.27 80.1305 126.822 79.7453 126.358 79.3457C127.858 78.3552 129.461 78.51 130.603 79.7005C131.397 80.5281 132.143 81.4096 133.001 82.1643C133.682 82.765 133.945 83.4869 133.994 84.3202C134.165 87.1603 133.081 89.37 130.68 90.9455C127.645 92.9365 124.346 94.1763 120.747 94.6659C117.315 95.1331 113.888 95.6563 110.413 95.5373C107.101 95.4238 103.833 94.9679 100.615 94.1314C98.3834 93.5509 96.1476 92.9859 94.0677 91.9731C91.9321 90.9333 89.8321 89.8171 87.7232 88.7198C86.6036 88.1382 85.5031 87.5183 84.3869 86.9312C81.4717 85.3949 78.8372 83.4532 76.323 81.3422C74.7835 80.0496 73.2248 78.7728 71.7729 77.386C70.8072 76.463 70.0424 75.339 69.4933 74.098C68.7354 72.3868 68.9802 71.0538 70.2793 69.7187C70.6408 69.3479 70.9541 68.9246 71.3438 68.5889C72.2849 67.7825 73.3775 68.1341 74.3343 68.4373C76.4487 69.11 78.5083 69.9588 80.6003 70.7079C81.9973 71.2076 83.3919 71.7376 84.8248 72.1127C87.8017 72.8921 90.791 73.6366 93.7994 74.2788C95.9005 74.7292 98.0329 75.0649 100.168 75.3085C102.385 75.5614 104.62 75.6802 106.85 75.7858C109.235 75.8993 111.625 76.0025 114.011 75.9734C116.428 75.9429 118.832 75.6848 121.234 75.3558C123.854 74.9964 126.447 74.5326 128.95 73.7074C130.282 73.2681 131.519 72.5405 132.79 71.9263C133.393 71.6342 133.961 71.2683 134.57 70.9908C135.613 70.5148 136.161 70.9112 136.046 72.0576C135.958 72.9257 135.452 73.559 134.77 74.0631C132.862 75.4748 130.75 76.4011 128.433 76.9627C126.26 77.4894 124.081 77.8364 121.857 78.0823C118.52 78.4517 115.188 78.7943 111.83 78.6718C108.963 78.5684 106.097 78.4078 103.234 78.2081C100.935 78.0463 98.6404 77.7882 96.3439 77.5736C93.0134 77.2626 89.7489 76.5945 86.4779 75.8959C83.8422 75.3332 81.3718 74.3854 78.8799 73.4333C78.0939 73.1322 77.2248 72.9774 76.3825 72.9133C75.4774 72.8438 74.6992 73.1897 74.3197 74.1464Z" fill="#AA522B"/>
<path d="M96.8283 61.1235C96.8283 60.5823 96.7554 60.0297 96.8419 59.503C97.1686 57.5009 96.7554 55.6066 95.8985 53.838C95.2484 52.4948 94.1996 51.4123 93.0419 50.4422C90.1569 48.0232 86.888 47.7009 83.335 48.4433C81.1791 48.8925 79.6654 50.2253 78.2606 51.7323C76.357 53.775 75.278 56.1926 75.4127 59.037C75.5013 60.9011 76.1032 62.6181 77.1645 64.161C77.3733 64.4654 77.7237 64.7237 77.5025 65.1425C77.2577 65.6053 76.7995 65.5086 76.402 65.4456C74.5951 65.1593 72.7446 65.0179 70.9972 64.517C68.2416 63.7264 65.5566 62.6924 62.8446 61.7524C62.6483 61.6839 62.4764 61.5413 62.2305 61.3953C62.6831 60.6799 63.3939 60.4676 64.0092 60.197C67.1277 58.8247 69.8363 56.8944 72.2056 54.451C74.0831 52.5128 76.2167 50.8609 78.4369 49.3461C80.2302 48.1222 82.3199 47.5359 84.4738 47.5168C87.9852 47.4877 91.5056 47.5202 95.008 47.7514C96.578 47.8548 98.1309 48.4433 99.6558 48.925C100.273 49.1204 100.845 49.5572 101.349 49.9884C102.293 50.7912 102.87 51.7851 102.83 53.1045C102.781 54.7553 102.835 56.4196 101.822 57.8468C101.462 58.3555 101.036 58.836 100.567 59.2449C99.547 60.1319 98.3297 60.69 97.136 61.2763C97.0327 61.2257 96.9305 61.1741 96.8283 61.1235Z" fill="#F6F6F6"/>
<path d="M108.729 88.7427C108.032 88.5472 107.282 88.3576 106.549 88.1184C106.316 88.042 106.059 87.8759 105.931 87.6759C104.669 85.7118 102.665 84.8012 100.634 83.9545C98.5734 83.0942 96.4848 82.3038 94.4096 81.4818C92.9339 80.899 91.4078 80.5361 89.8235 80.7417C89.1452 80.8305 88.4333 81.0764 87.856 81.4414C86.9083 82.0387 85.9582 82.0219 85.1014 81.5076C82.6153 80.0117 80.1649 78.451 77.7473 76.845C77.1454 76.4454 76.6703 75.8153 76.2368 75.2192C76.0617 74.9765 76.0673 74.5104 76.1683 74.2061C76.2078 74.0883 76.7781 74.031 77.0432 74.1254C78.1593 74.5218 79.2746 74.9384 80.3492 75.4347C83.3574 76.8203 86.5961 77.3348 89.7931 78.005C91.3933 78.3409 92.9946 78.6902 94.6093 78.935C96.4084 79.2077 98.2197 79.4481 100.033 79.5625C103.497 79.7817 106.971 79.8671 110.435 80.086C111.385 80.1464 112.342 80.4115 113.255 80.7114C115.088 81.3111 115.601 82.7147 114.688 84.3979C113.733 86.1543 112.377 87.4973 110.549 88.3126C110.024 88.5484 109.411 88.5888 108.729 88.7427Z" fill="#DB0451"/>
<path d="M121.222 42.4418C121.439 42.4048 121.658 42.3677 121.876 42.3308C122.192 42.6531 122.423 42.6136 122.559 42.1711C123.713 42.1174 124.868 42.0646 126.023 42.0117C126.061 42.1197 126.1 42.2274 126.138 42.3352C125.236 42.4734 124.333 42.6125 123.432 42.7518C123.118 42.3912 123.051 42.6676 122.977 42.9269C120.908 43.8119 119.137 45.0582 117.904 46.9943C116.363 49.4154 115.865 52.0374 116.506 54.8191C116.831 56.2271 117.389 57.5825 117.839 58.9626C117.953 59.3096 118.061 59.66 118.204 60.1171C117.863 60.2057 117.598 60.3146 117.324 60.3415C113.912 60.6784 110.536 60.3921 107.188 59.7059C106.203 59.5038 105.229 59.2422 104.266 58.9481C103.826 58.8133 103.43 58.5337 103.078 58.354C103.367 57.2883 103.677 56.372 103.851 55.4321C103.972 54.7842 103.974 54.0946 103.907 53.4367C103.828 52.6719 104.079 52.1576 104.703 51.7331C108.838 48.9224 113.021 46.1857 117.425 43.8152C118.46 43.2582 119.64 42.9719 120.753 42.5599C120.996 42.8651 121.125 42.7147 121.222 42.4418Z" fill="#F6F6F6"/>
<path d="M116.144 80.7132C116.933 80.2248 117.703 80.1215 118.48 80.0776C120.381 79.9687 122.284 79.8967 124.184 79.7756C124.787 79.7373 125.267 79.8755 125.703 80.3044C126.791 81.3779 127.957 82.3773 128.989 83.5004C129.899 84.4897 129.814 84.9131 128.623 85.571C127.652 86.11 126.628 86.6018 125.57 86.923C122.861 87.7462 120.135 88.5211 117.288 88.7322C116.28 88.8063 115.289 88.777 114.33 88.4558C114.079 87.8091 114.504 87.4273 114.786 87.0118C115.141 86.4874 115.519 85.9775 115.893 85.4677C116.99 83.9787 117.226 82.4302 116.144 80.7132Z" fill="#CE9BB0"/>
<path d="M129.066 42.7186C128.239 42.5894 127.41 42.4616 126.583 42.3324C126.404 42.22 126.225 42.1076 126.047 41.9944C126.187 41.9528 126.326 41.8765 126.467 41.8742C131.485 41.817 136.355 42.5525 140.998 44.5557C141.732 44.8736 142.258 45.3318 142.545 46.0717C142.707 46.4895 142.896 46.8972 143.039 47.3205C143.817 49.6078 143.201 51.6482 141.211 53.016C140.141 53.7504 138.966 54.3366 137.831 54.9754C137.681 55.0608 137.484 55.0686 137.163 55.1473C137.074 54.76 136.97 54.4243 136.926 54.0805C136.809 53.1542 136.782 52.2132 136.607 51.2991C135.82 47.1846 133.406 44.4198 129.522 42.9084C129.466 42.6143 129.361 42.4412 129.066 42.7186Z" fill="#F6F6F6"/>
<path d="M103.81 88.0723C103.45 88.5508 102.931 88.5877 102.409 88.6362C101.225 88.7462 100.103 88.4428 99.0218 88.0453C96.3345 87.0572 93.6596 86.0331 90.9993 84.9741C90.1752 84.6463 89.4058 84.1724 88.6265 83.7389C88.4165 83.621 88.2617 83.4065 88.0898 83.2438C88.7681 82.2543 90.2066 81.6346 91.3251 81.9569C92.7882 82.378 94.238 82.8641 95.6529 83.4233C97.9683 84.3397 100.254 85.3347 102.549 86.3014C103.327 86.6295 103.855 87.1414 103.81 88.0723Z" fill="#CE9BB0"/>
<path d="M126.484 50.1258C126.496 48.4751 127.769 47.1658 129.348 47.1838C130.853 47.2006 132.183 48.6356 132.155 50.2123C132.129 51.8023 130.771 53.1813 129.263 53.1522C127.695 53.1218 126.473 51.7913 126.484 50.1258Z" fill="#F6F6F6"/>
<path d="M89.3512 59.218C87.778 59.2159 86.6743 58.0356 86.6641 56.3457C86.6551 54.9598 88.1429 53.3283 89.3906 53.4261C90.5797 53.5193 91.9923 54.7319 91.9992 56.3231C92.0059 58.0862 90.9673 59.2203 89.3512 59.218Z" fill="#F6F6F6"/>
<path d="M81.7613 55.5832C80.6282 55.5811 79.6556 54.6096 79.6332 53.4586C79.6097 52.2134 80.655 51.1792 81.905 51.2117C83.175 51.2454 84.3272 52.3615 84.3113 53.5439C84.2944 54.8107 83.3255 55.5866 81.7613 55.5832Z" fill="#F6F6F6"/>
<path d="M123.145 49.1179C121.826 49.1269 121.175 48.462 121.188 47.1158C121.199 45.8658 121.983 45.0673 123.19 45.0743C124.537 45.0821 125.494 45.914 125.512 47.0955C125.532 48.4115 124.718 49.1066 123.145 49.1179Z" fill="#F6F6F6"/>
<path d="M85.1192 58.6826C85.1349 59.8403 84.6093 60.4803 83.62 60.5073C82.6746 60.532 81.9391 59.8089 81.9075 58.8252C81.8738 57.7314 82.5274 57.0409 83.5942 57.043C84.6262 57.0464 85.1035 57.5586 85.1192 58.6826Z" fill="#F6F6F6"/>
<path d="M86.4164 63.1059C86.4152 64.2075 85.975 64.6083 84.842 64.6353C83.6672 64.6646 83.236 63.7099 83.2192 62.907C83.1991 61.984 83.8728 61.389 84.8969 61.3753C85.9593 61.3597 86.4175 61.8818 86.4164 63.1059Z" fill="#F6F6F6"/>
<path d="M124.349 53.0126C124.342 53.884 123.399 54.7092 122.45 54.6723C121.667 54.641 121.165 54.0457 121.176 53.1619C121.188 52.2007 121.824 51.5393 122.76 51.5123C123.631 51.4888 124.355 52.1726 124.349 53.0126Z" fill="#F6F6F6"/>
<path d="M124.674 55.1172C125.441 55.1216 125.976 55.7842 125.983 56.7366C125.988 57.6617 125.517 58.2131 124.709 58.2232C123.903 58.2346 123.285 57.5664 123.301 56.7029C123.318 55.7955 123.909 55.1126 124.674 55.1172Z" fill="#F6F6F6"/>
<path d="M52.7978 44.9816C52.5251 43.7148 53.192 43.0736 53.6613 42.4067C55.256 40.1383 57.5536 38.7504 60.0261 37.6757C61.4793 37.0434 63.0154 36.5483 64.5607 36.1943C66.3249 35.7901 68.1362 35.5622 69.9374 35.35C71.2266 35.1972 72.5335 35.149 73.834 35.1345C76.9064 35.0985 79.8922 35.6487 82.7715 36.6987C83.7764 37.0648 84.714 37.6252 85.6597 38.1395C85.9292 38.2864 86.1144 38.5863 86.3839 38.8604C85.3813 39.1467 84.5692 38.8076 83.7889 38.4943C81.7427 37.6734 79.5688 37.3903 77.443 36.9086C75.8396 36.5436 74.2112 36.4234 72.5672 36.4751C70.5942 36.5393 68.656 36.8636 66.719 37.2019C66.2822 37.2771 65.8441 37.3578 65.4039 37.4139C63.3905 37.6723 61.558 38.5167 59.723 39.287C58.682 39.724 57.7319 40.4595 56.8605 41.2005C55.7961 42.1067 54.8628 43.1668 53.8579 44.1448C53.5829 44.4134 53.2536 44.6256 52.7978 44.9816Z" fill="#070A09"/>
</svg>
