<svg width="150" height="110" viewBox="0 0 150 110" fill="none" xmlns="http://www.w3.org/2000/svg">
<g clip-path="url(#clip0_1054_118)">
<path d="M82.0845 42.1415C81.174 42.0505 57.0464 48.8563 45.0963 52.2706C39.5424 66.6561 60.1572 72.4528 71.1588 73.553L116.683 68.8868L137.624 56.1401L139.672 48.7425L137.624 43.2796L103.025 42.1415C96.4245 42.1795 82.995 42.2326 82.0845 42.1415Z" fill="#D9D9D9"/>
<path d="M119.339 58.0639C119.369 58.9842 119.92 59.5587 120.72 59.5023C121.531 59.4458 122.002 58.8349 121.946 57.9128C121.892 57.0114 121.322 56.4153 120.549 56.4497C119.798 56.4838 119.309 57.1355 119.339 58.0639ZM120.316 54.3442C120.301 53.5491 119.524 52.8433 118.709 52.8852C117.871 52.9279 117.109 53.7815 117.148 54.6355C117.183 55.4035 117.885 56.0582 118.625 56.0135C119.453 55.9628 120.33 55.0972 120.316 54.3442ZM83.046 64.3408C83.079 63.2764 82.5116 62.6184 81.548 62.6038C80.5975 62.5892 79.9215 63.1428 79.8559 63.9882C79.7776 64.9925 80.526 65.8369 81.4873 65.828C82.4401 65.8199 83.0173 65.2692 83.046 64.3408ZM81.7577 60.0197C81.7634 58.991 81.1554 58.2834 80.242 58.2551C79.296 58.2265 78.5219 59.0611 78.5574 60.0722C78.5913 61.0289 79.2857 61.722 80.2081 61.7202C81.1707 61.7177 81.7513 61.0801 81.7577 60.0197ZM119.119 50.5607C120.519 50.5851 121.502 49.7722 121.499 48.5918C121.496 47.4776 120.592 46.6604 119.298 46.6035C118.055 46.5491 117.178 47.3677 117.173 48.5875C117.168 49.7811 117.917 50.5398 119.119 50.5607ZM78.5348 56.8457C79.9964 56.8339 80.8968 56.1137 80.9396 54.9217C80.9829 53.7358 79.6832 52.5155 78.4299 52.5642C77.3039 52.6084 76.4007 53.553 76.3704 54.7177C76.3374 55.9862 77.2222 56.8564 78.5348 56.8457ZM88.4715 57.5564C88.4331 56.1453 87.1234 54.7824 85.8378 54.816C84.4318 54.8525 83.2463 56.266 83.3242 57.8136C83.4132 59.5874 84.404 60.5942 86.0021 60.5352C87.4318 60.4824 88.5148 59.1754 88.4715 57.5564ZM127.93 51.5879C127.935 49.8938 126.708 48.5788 125.162 48.6212C123.667 48.6619 122.317 50.1132 122.356 51.638C122.395 53.171 123.832 54.588 125.298 54.5393C126.755 54.4906 127.926 53.1779 127.93 51.5879ZM132.768 56.4604C134.761 55.8506 136.601 54.8033 137.591 53.8081C140.137 51.2504 139.26 46.9479 135.84 45.7349C133.662 44.9631 131.409 44.3223 129.136 43.9256C127.529 43.6449 125.833 43.8717 124.176 43.8717C130.392 45.7572 132.69 50.2985 132.768 56.4604ZM114.047 61.5563C114.117 61.2946 114.199 61.1653 114.168 61.0763C113.878 60.2587 113.564 59.4492 113.264 58.635C110.687 51.6362 113.942 46.1897 119.441 44.2704C119.564 44.2276 119.64 44.0497 119.778 43.8876C117.508 43.5291 115.534 44.2217 113.692 45.2524C111.106 46.6985 108.57 48.2349 106.053 49.797C104.084 51.0189 102.177 52.3384 100.609 53.3729C100.225 55.7167 99.9106 57.6385 99.5575 59.8C104.193 61.5358 109.075 61.9749 114.047 61.5563ZM11.6908 112.579H10C11.4062 105.587 14.8663 99.6589 18.642 93.8405C18.4203 93.3827 18.2617 92.943 18.0136 92.5622C15.2958 88.3945 15.6254 84.0082 16.9825 79.5098C17.7675 76.9067 18.4713 74.2764 19.1323 71.6383C20.3175 66.9049 21.9532 62.401 25.4774 58.8413C26.4965 57.8115 27.6765 56.9404 28.6896 55.9059C29.532 55.0455 30.422 54.1482 30.9713 53.0996C32.9536 49.3131 35.6365 46.2355 39.151 43.7558C41.9468 41.7835 44.457 39.4114 47.1509 37.2889C50.376 34.7482 53.8916 32.645 57.9455 31.8158C63.7903 30.6203 69.6065 30.4924 75.1544 33.2764C76.9756 34.1899 78.8544 34.9223 80.9624 34.9421C83.2429 34.9635 85.335 34.4232 87.2672 33.2277C88.7993 32.2797 90.2925 31.2588 91.8767 30.4077C99.736 26.1849 107.714 25.7254 115.725 29.9379C116.919 30.5657 117.982 31.5643 118.889 32.5842C119.802 33.6133 120.866 34.1537 122.149 34.4227C125.803 35.1877 129.335 36.3065 132.735 37.8716C135.369 39.0846 137.373 40.9499 138.836 43.4057C139.646 44.766 140.167 46.2416 140.101 47.8721C140.073 48.569 140.022 49.2772 140.108 49.9643C140.693 54.5975 137.812 57.532 134.927 60.4171C134.255 61.0897 133.637 61.689 133.307 62.6034C133.014 63.4141 132.62 64.2074 132.151 64.9312C131.519 65.9054 131.409 66.8908 131.893 67.9053C132.365 68.8948 132.886 69.8678 133.472 70.794C134.606 72.5872 133.328 75.3835 131.202 75.6749C130.992 75.6403 130.781 75.6052 130.571 75.5702C130.89 75.0994 131.214 74.6314 131.528 74.1573C132.165 73.1943 132.113 72.8148 131.162 71.7341C130.701 71.8688 130.209 72.0118 129.717 72.1554C129.563 72.2619 129.41 72.3685 129.256 72.475C128.439 72.9345 127.621 73.3941 126.804 73.8532C126.728 73.7886 126.651 73.7235 126.574 73.6588C126.548 73.7633 126.523 73.8682 126.498 73.9734C126.276 74.061 126.055 74.1484 125.833 74.2361C125.696 74.3144 125.559 74.3931 125.421 74.4714C125.117 74.5197 124.812 74.5677 124.507 74.616C124.22 74.7282 123.934 74.8402 123.648 74.9519C123.585 75.0032 123.52 75.0054 123.454 74.9592C123.291 75.0439 123.128 75.129 122.966 75.2142C121.96 75.363 120.954 75.5119 119.948 75.6607C119.671 75.752 119.394 75.844 119.117 75.9359C116.191 76.2569 113.266 76.578 110.341 76.8994C108.617 76.8926 106.892 76.8862 105.168 76.8794C102.825 76.7488 100.482 76.6179 98.1388 76.4865C98.0061 75.9394 97.793 75.7695 97.4238 76.3356C96.9588 76.306 96.4933 76.2769 96.0283 76.2478C95.8626 76.169 95.6966 76.0907 95.5303 76.0122C95.116 75.9842 94.7015 75.956 94.2872 75.9277C94.1752 75.9125 94.063 75.8979 93.951 75.8829C92.4233 75.6261 90.8957 75.3689 89.3675 75.1115C89.2511 75.0489 89.1351 74.9861 89.0187 74.9228L89.0338 74.936C88.8096 74.9028 88.5858 74.8698 88.3616 74.8368C87.7673 74.7072 87.173 74.5784 86.5787 74.4491C86.4428 74.3786 86.3071 74.3075 86.1715 74.237C85.7226 74.1355 85.273 74.0342 84.8242 73.9331C84.7857 73.8368 84.7479 73.7405 84.7095 73.6436C84.6398 73.7157 84.5704 73.7877 84.5003 73.8596C83.9132 73.7166 83.3258 73.5737 82.7387 73.4305C82.5928 73.3534 82.4467 73.2764 82.3015 73.199C82.2138 73.2298 82.1317 73.2191 82.0547 73.167C81.8822 73.0677 81.7094 72.968 81.5362 72.8688C80.8934 72.7331 80.2499 72.5979 79.6069 72.4627C79.4351 72.365 79.2634 72.2676 79.0918 72.1704C76.6984 71.3294 74.3047 70.489 71.9113 69.6482C71.4893 68.8747 70.9139 68.7429 70.1883 69.2366C68.9853 69.1233 68.162 69.701 67.3 70.5086C65.9821 71.743 65.8214 73.1899 66.0087 74.8056C66.0986 74.9579 66.1888 75.1101 66.2787 75.2617C66.4246 75.5667 66.5705 75.8713 66.7164 76.1756C66.8409 76.327 66.9654 76.4777 67.0899 76.629C68.2567 77.812 69.3779 79.0443 70.5986 80.1683C73.7869 83.1041 77.3111 85.5959 81.0077 87.8493C81.1545 87.9486 81.3009 88.0471 81.4472 88.1459C81.8836 88.3876 82.3195 88.6289 82.7556 88.8702C82.9916 88.9869 83.2274 89.1037 83.4639 89.2203L83.4576 89.2164C83.5864 89.3254 83.7148 89.4344 83.8431 89.5432L83.8777 89.5082C83.8452 89.7893 83.8131 90.0704 83.7805 90.3518C83.3246 90.2029 82.8694 90.0536 82.4141 89.9047L82.0529 89.6348C81.4784 89.381 80.9046 89.1265 80.3301 88.8727C80.2071 88.753 80.0835 88.6332 79.96 88.5137C78.9477 87.9212 77.9362 87.3292 76.924 86.7374C76.2013 86.2491 75.4786 85.7611 74.7557 85.2733C73.2072 84.0303 71.6585 82.7871 70.11 81.5433C69.9085 81.409 69.7075 81.275 69.5068 81.1407L69.5088 81.1562C69.392 81.0118 69.2753 80.8673 69.1585 80.7235C68.5467 80.0647 67.9348 79.4062 67.323 78.7482C67.1065 78.5137 66.8896 78.2793 66.6727 78.0453C66.4305 77.6957 66.1887 77.3465 65.9466 76.9973C65.8448 76.8717 65.7438 76.7467 65.642 76.6213L65.657 76.6354C65.5359 76.3912 65.4144 76.1469 65.2928 75.9029C65.0725 75.3441 64.8517 74.7851 64.6309 74.2263C64.6314 73.6306 64.6323 73.0347 64.6327 72.4388C64.7422 72.1281 64.8517 71.8174 64.961 71.5069C65.0978 71.2518 65.2348 70.9964 65.3716 70.741C66.2773 69.825 67.1823 68.9093 68.0876 67.9934C69.5077 67.7819 70.8331 68.0485 72.1672 68.5882C74.6357 69.5879 77.1024 70.6422 79.6574 71.3656C83.8315 72.5474 88.0454 73.6388 92.3008 74.4701C95.5323 75.1008 98.846 75.4354 102.138 75.6018C106.781 75.8362 111.415 75.6077 116.052 75.0161C119.471 74.5805 122.811 73.99 126.026 72.7741C127.716 72.1349 129.27 71.2545 130.392 69.6423C129.316 67.2828 129.832 65.0314 130.979 62.6933C128.816 63.0484 126.967 64.0738 124.628 63.5878C126.563 62.226 128.733 62.1151 130.551 61.1794C132.444 60.2052 134.052 58.89 135.693 57.0358C135.08 57.1077 134.835 57.0786 134.646 57.1676C131.012 58.8665 127.231 60.138 123.339 61.097C119.565 62.0266 115.777 62.9311 111.872 62.9614C107.975 62.9919 104.138 62.3491 100.348 61.4666C99.4103 61.2479 98.5653 61.1969 97.651 61.6342C95.5123 62.6559 93.3524 63.6409 91.1597 64.5406C87.0075 66.2444 82.7405 67.5416 78.1998 67.5898C75.406 67.6199 72.6113 67.5504 69.8175 67.5256C69.7319 67.0353 69.6333 66.5806 69.1041 67.2541C68.6395 67.2604 68.175 67.2664 67.7106 67.2725L67.73 67.1733C67.6089 67.0731 67.4878 66.9725 67.3667 66.8724C67.0621 66.8553 66.7583 66.8378 66.4537 66.8207C65.8307 66.5892 65.2077 66.3577 64.5847 66.1262C61.894 65.1821 59.2033 64.2386 56.5126 63.2951C56.2636 63.2157 56.0146 63.1369 55.7656 63.0581C55.0891 62.9755 54.4126 62.8929 53.7355 62.81C53.5886 62.3086 53.3742 62.1661 53.0355 62.6778C51.6753 62.7099 50.384 62.6077 49.8464 61.0401C49.7608 60.8903 49.6752 60.741 49.5896 60.5912C49.5828 60.4701 49.576 60.3486 49.5691 60.227C49.6554 59.9498 49.7414 59.6721 49.8279 59.3944C50.0756 59.0762 50.2702 58.5615 50.5813 58.4775C51.4358 58.247 52.339 58.1973 53.2233 58.0758C53.3915 57.9907 53.56 57.9051 53.7286 57.8199C55.6202 56.998 57.5117 56.1758 59.4032 55.3539C59.4874 55.2772 59.5716 55.2007 59.6556 55.1245C59.7699 55.0776 59.8848 55.0314 59.9995 54.9847C60.1236 54.8832 60.2477 54.781 60.3717 54.6788C60.9708 54.2042 61.5697 53.7294 62.1688 53.2548C62.2666 53.1638 62.3638 53.0729 62.4615 52.9819C63.5905 52.1235 64.7192 51.2654 65.8487 50.4071C65.9989 50.2844 66.1494 50.1624 66.2996 50.0399C66.8302 49.602 67.3068 49.0641 67.9011 48.7457C69.769 47.7451 71.6808 46.8273 73.5752 45.8779L74.0034 45.6157C74.3059 45.5793 74.6088 45.5428 74.9114 45.5057C75.0782 45.4085 75.2446 45.3113 75.4114 45.2139L75.4128 45.213L75.7149 45.0534C75.8492 44.9799 75.9834 44.9066 76.1175 44.8331C76.3822 44.7402 76.6463 44.6474 76.9108 44.555C77.1108 44.5349 77.3111 44.5151 77.511 44.4956L77.6833 44.5058L77.8451 44.4471C78.2683 44.4498 78.6914 44.4523 79.1146 44.4548C79.5106 44.3633 79.906 44.2718 80.3018 44.1805C80.4307 44.1371 80.5597 44.0934 80.6886 44.0497C81.01 44.039 81.3316 44.0278 81.653 44.0171C82.1342 44.0087 82.6151 44.0009 83.0965 43.9932C84.3737 44.0321 85.6507 44.0706 86.9278 44.1095C87.6369 44.2311 88.3461 44.3531 89.0547 44.4751C89.2803 44.5063 89.5061 44.537 89.7317 44.5682C90.4389 44.7646 91.1456 44.961 91.8528 45.1582C91.9662 45.1784 92.08 45.1994 92.1938 45.2203L92.3149 45.264L92.4433 45.2533C92.9964 45.4684 93.5497 45.6828 94.1033 45.8979C94.1705 45.7436 94.2371 45.5895 94.3036 45.4347C93.9549 45.2344 93.6062 45.0341 93.2575 44.8336C92.5619 43.9522 91.5066 43.9877 90.5493 43.7738C90.5051 43.6779 90.4687 43.5798 90.4393 43.4781C90.3203 43.4562 90.2017 43.4344 90.0824 43.4125C90.0294 43.5257 89.9763 43.6395 89.9238 43.7533C89.451 43.6381 88.9789 43.5229 88.5061 43.4075C88.2205 43.3133 87.9351 43.2188 87.6496 43.1246C87.1764 43.0322 86.7032 42.9402 86.2297 42.8478C86.0062 42.8333 85.7829 42.8191 85.5592 42.8046C85.0946 42.7802 84.6302 42.7559 84.1657 42.7315C82.6447 42.7408 81.1238 42.7495 79.6031 42.7584C79.3686 42.7695 79.1342 42.7802 78.8997 42.7909C78.3295 42.8141 77.76 42.838 77.1905 42.8615C76.8687 42.8453 76.5461 42.8287 76.224 42.8128C76.067 42.8804 75.9095 42.948 75.7517 43.0156L75.7631 43.1312C75.3709 43.2266 74.979 43.3224 74.587 43.4178C74.16 43.4173 73.733 43.4173 73.306 43.4169L72.9634 43.4699C69.6119 44.6751 66.4216 46.1852 63.6606 48.4796C61.8751 49.9639 60.1741 51.5568 58.3245 52.9546C57.3838 53.6647 56.199 54.0519 55.1246 54.585C55.0113 54.6005 54.8979 54.6157 54.785 54.6308C54.6771 54.672 54.5667 54.6799 54.4538 54.6535C54.0965 54.6513 53.7389 54.6492 53.3808 54.6472L53.3833 54.6483C53.267 54.2984 53.1514 53.9484 53.0355 53.5985C53.5049 53.5047 53.9742 53.4109 54.4436 53.3169C54.5551 53.3062 54.6669 53.2955 54.7789 53.2849C56.6542 52.9152 57.8779 51.5442 59.2286 50.3768C61.9981 47.9829 64.699 45.4971 68.0725 43.9333C69.6984 43.1799 71.3029 42.3512 73.1657 42.3614C73.3296 42.2749 73.4931 42.1886 73.6569 42.1021C78.7873 40.7364 83.9185 40.819 89.0504 42.0953C89.2147 42.1839 89.3791 42.2724 89.543 42.3609C91.1345 42.8478 92.7993 43.1751 94.2968 43.8648C95.8649 44.5875 96.0137 45.444 95.2487 47.3934C94.1379 47.1234 92.9866 46.8444 91.8353 46.5646C91.6796 46.4795 91.5242 46.3939 91.3689 46.3088C90.1047 46.0978 88.8408 45.8865 87.5766 45.676C87.496 45.6027 87.4001 45.566 87.2897 45.5672C87.0567 45.5549 86.8238 45.5428 86.5907 45.5305C86.0276 45.0316 85.4526 45.0739 84.869 45.4921C84.1568 45.4907 83.4444 45.4889 82.7324 45.4868C82.1506 45.0758 81.5772 45.0359 81.0145 45.5233C80.6658 45.5383 80.3164 45.5535 79.9677 45.5686C79.8534 45.566 79.7551 45.6041 79.6734 45.6824C77.2153 46.0862 74.8492 46.7875 72.5864 47.8366C68.8184 49.584 65.6133 52.1433 62.4908 54.8208C60.5511 56.4834 58.5681 58.063 55.9529 58.5349C55.7993 58.6157 55.6461 58.6958 55.4927 58.7766C54.4481 58.9157 53.4029 59.0543 52.3581 59.1934C52.2512 59.2416 52.1442 59.2897 52.0365 59.3375C51.6917 59.4834 51.3468 59.6286 51.0425 59.7572C50.8829 60.886 51.7836 60.9716 52.3484 61.3528C52.499 61.4302 52.6495 61.5081 52.8002 61.5859C54.4825 61.5902 56.1655 61.5952 57.8479 61.5996C57.9856 61.5276 58.1235 61.4559 58.2612 61.384C58.9719 61.4623 59.6829 61.5401 60.3936 61.618C60.0196 61.9123 59.6454 62.2066 59.0574 62.6691C60.6601 63.2862 61.9921 63.8184 63.338 64.313C66.3403 65.4172 69.4084 66.2648 72.6117 66.5237C73.1302 66.5653 73.6599 66.4763 74.5285 66.4292C73.0674 64.206 72.1547 62.167 72.1852 59.8348C72.2168 57.4837 73.0023 55.4095 74.5258 53.6263C76.0087 51.8905 77.6512 50.3652 79.957 49.7845C80.8251 49.7003 81.6919 49.6031 82.5605 49.5339C88.2731 49.083 93.9904 54.407 93.2939 60.3939C93.222 61.0144 93.2843 61.6505 93.2843 62.2931C96.27 61.7557 98.4067 59.7911 98.9457 57.0499C99.1121 56.2022 99.1018 55.3184 99.1524 54.4498C99.2307 53.1064 98.6081 52.0505 97.5775 51.3103C96.789 50.743 95.8888 50.227 94.9607 49.9823C93.2818 49.5398 91.543 49.3247 89.8329 48.997C89.3709 48.908 88.7206 49.2075 88.5533 48.4352C88.7185 48.2076 88.884 47.9795 89.0492 47.7519C90.9128 48.068 92.7761 48.3847 94.6389 48.7008C94.8055 48.8001 94.9724 48.8998 95.1392 48.999L97.7935 50.0781C97.9423 50.1897 98.0912 50.3014 98.2398 50.4134C98.8027 50.8944 99.3659 51.3754 100.052 51.9619C100.404 51.8062 100.84 51.6726 101.213 51.4395C103.766 49.8423 106.345 48.2816 108.843 46.6006C113.404 43.5316 118.39 41.9592 123.896 42.1042C124.99 42.1329 126.081 42.2612 127.173 42.3434C128.766 42.6434 130.368 42.9086 131.951 43.253C133.467 43.5833 134.868 44.4305 136.507 44.2547C133.843 42.6609 130.956 41.8381 127.878 41.6469C127.336 41.5361 126.794 41.4252 126.251 41.3141C125.972 41.2247 125.693 41.1357 125.413 41.0462C125.101 41.0223 124.788 40.9991 124.476 40.9752C123.506 40.8618 122.536 40.7489 121.566 40.6358C119.936 40.6372 118.306 40.6392 116.676 40.6406C115.982 40.6766 115.288 40.7125 114.594 40.7485C111.471 41.2859 108.564 42.3532 105.941 44.1721C104.606 45.0983 103.22 45.9553 101.827 46.7943C101.387 47.0592 100.908 47.5564 100.198 47.0135C100.394 46.6882 100.506 46.3238 100.751 46.1244C103.464 43.9222 106.279 41.8652 109.604 40.664C116.287 38.2501 123.056 38.6801 129.849 40.1216C130.206 40.1974 130.579 40.2047 130.944 40.2441C131.004 40.1417 131.065 40.039 131.124 39.9363C130.895 39.6766 130.714 39.3234 130.427 39.174C129.501 38.6935 128.551 38.2495 127.582 37.8605C124.473 36.6104 121.186 36.3472 117.885 36.0044C113.096 35.5069 108.378 35.8167 103.672 36.6416C100.102 37.2675 96.7594 38.5736 93.4949 40.1196C92.1608 40.7514 90.8046 41.4291 89.0187 41.3107C89.3417 40.9636 89.4933 40.7077 89.7182 40.5734C93.1685 38.5112 96.771 36.7783 100.693 35.8162C105.576 34.6182 110.547 34.2759 115.56 34.4163C116.221 34.435 116.883 34.4188 117.698 34.4188C116.196 32.3562 115.053 31.4568 113.145 30.6734C108.462 28.7507 103.635 28.6471 98.772 29.6912C95.3222 30.4325 92.2931 32.1722 89.4166 34.1685C86.9763 35.8615 84.3728 36.9543 81.3093 36.8799C78.925 36.8216 76.7542 36.1567 74.617 35.1962C70.8185 33.4888 66.9017 32.4345 62.6611 32.9193C57.519 33.507 52.8532 35.272 48.7745 38.4388C45.9782 40.6099 43.3046 42.9402 40.5882 45.2135C39.0333 46.5145 37.3446 47.7018 35.9998 49.1954C34.2606 51.1272 32.5839 53.2216 32.1551 55.9059C31.8631 57.7323 31.8608 59.6033 31.6901 61.4511C31.6152 62.2663 31.4433 63.0727 31.3154 63.8826C29.906 61.865 30.5914 59.5835 30.125 57.2523C29.6181 57.5491 29.1842 57.7018 28.8865 57.9936C26.5067 60.3263 24.371 62.8681 23.191 66.0227C22.1774 68.7318 21.3011 71.4992 20.5092 74.2818C19.9105 76.3859 19.5413 78.5551 19.0695 80.6952C18.9489 81.3353 18.8278 81.9754 18.7071 82.6159C18.66 82.683 18.6659 82.7456 18.7251 82.803C18.6425 82.9612 18.5594 83.1192 18.4761 83.2773C18.4376 83.8537 18.3987 84.4305 18.3605 85.0072C18.3532 85.8458 18.3459 86.6848 18.3386 87.5234C18.3502 89.0648 18.604 90.5268 19.71 91.7102C19.8593 91.9367 20.0087 92.1634 20.1584 92.3901L20.1527 92.3819C20.2704 92.5125 20.3876 92.6434 20.5049 92.7738C21.0798 93.2484 21.655 93.7233 22.23 94.1983C22.5869 94.4198 22.944 94.6415 23.3005 94.8632C24.5729 95.5529 25.8453 96.2425 27.1172 96.9322C27.3612 97.0602 27.6059 97.1881 27.8501 97.316C28.0757 97.4182 28.3015 97.5209 28.5271 97.6235C28.6486 97.7057 28.7704 97.7878 28.8915 97.87C29.1005 97.9128 29.3101 97.9561 29.5193 97.9989C29.7854 98.1113 30.0514 98.2242 30.3175 98.3364L30.4225 98.3769L30.5324 98.3551C30.6895 98.4498 30.8472 98.5447 31.0043 98.6396C31.1955 98.6615 31.3864 98.6833 31.5772 98.7056C31.7367 98.803 31.8958 98.9002 32.0552 98.9979L32.1861 99.0461L32.3251 99.0432C32.6982 99.1677 33.0713 99.2917 33.4439 99.4162C33.7981 99.5125 34.152 99.6093 34.5062 99.7062C34.7261 99.7529 34.9457 99.8 35.1656 99.8467C35.5048 99.927 35.8432 100.007 36.1821 100.087C36.5548 100.19 36.9269 100.294 37.2993 100.397C37.6048 100.417 37.9102 100.437 38.2157 100.457C38.8501 100.574 39.4842 100.691 40.1184 100.808L40.2219 100.841L40.3246 100.804C40.9433 100.917 41.5619 101.03 42.1811 101.143L42.1715 101.135C42.5245 101.226 42.878 101.318 43.2313 101.408C44.0601 101.517 44.8884 101.625 45.7167 101.734C46.8737 101.835 48.0304 101.937 49.1869 102.038C49.542 102.061 49.8976 102.083 50.2527 102.106C50.9496 102.129 51.6471 102.153 52.344 102.176C52.6786 102.197 53.0132 102.217 53.3478 102.238C54.4053 102.316 55.4626 102.394 56.5206 102.472C59.4464 102.455 62.3725 102.438 65.2992 102.421C66.2017 102.397 67.1045 102.374 68.0072 102.35C68.3739 102.295 68.7413 102.239 69.108 102.183C70.0394 102.161 70.9708 102.139 71.9022 102.117C72.6074 102.134 73.3126 102.151 74.0179 102.168C74.0141 102.574 74.0102 102.979 74.0068 103.385C72.2787 103.462 70.5515 103.557 68.823 103.611C66.6916 103.678 64.5592 103.711 62.4276 103.759C60.7864 103.69 59.146 103.58 57.5044 103.566C56.4963 103.558 55.4865 103.696 54.4773 103.768C49.9422 103.828 45.4351 103.521 40.9697 102.709C37.4336 102.067 33.8443 101.563 30.5524 100.039C27.6098 98.6774 24.7484 97.1375 21.8681 95.6448C20.3287 94.8468 19.9517 94.9144 19.0656 96.3764C18.4645 97.3686 17.8822 98.3724 17.2811 99.3648C14.7773 103.499 12.6363 107.786 11.6908 112.579Z" fill="#090B09"/>
<path d="M62.4282 103.759C64.5601 103.712 66.6924 103.679 68.8236 103.612C70.5522 103.557 72.2794 103.463 74.0074 103.386C74.8266 103.327 75.6456 103.269 76.4646 103.211C76.8129 103.203 77.1616 103.195 77.5103 103.187C79.0565 103.177 80.6043 103.204 82.148 103.142C83.1646 103.101 84.1761 102.931 85.1897 102.819C85.431 102.802 85.6727 102.787 85.9144 102.771L86.0765 102.818L86.2258 102.738C87.1675 102.689 88.1085 102.64 89.0501 102.59C89.6319 102.562 90.2135 102.534 90.7953 102.506C91.841 102.457 92.8867 102.408 93.9328 102.358C94.8672 102.288 95.8015 102.218 96.7359 102.148C97.5531 102.113 98.3695 102.079 99.1867 102.044C99.9995 101.959 100.812 101.873 101.625 101.787C102.677 101.713 103.729 101.638 104.781 101.563C105.131 101.53 105.481 101.497 105.832 101.464C106.306 101.422 106.78 101.379 107.254 101.337C107.484 101.356 107.717 101.411 107.942 101.389C112.673 100.929 117.366 100.221 121.991 99.1075C122.992 98.8658 123.824 99.0911 124.587 99.7082C125.714 100.62 126.88 101.491 127.94 102.475C130.121 104.499 132.137 106.658 132.979 109.634C133.356 110.968 133.755 112.296 134.145 113.627C133.681 113.645 133.216 113.68 132.751 113.68C94.7345 113.683 56.7177 113.682 18.7012 113.682H17.5927C17.472 113.372 17.3557 113.074 17.1627 112.579H11.6914C12.6369 107.786 14.7779 103.5 17.282 99.3654C17.8831 98.3727 18.4654 97.3692 19.0665 96.377C19.9531 94.915 20.33 94.8474 21.8689 95.645C24.7497 97.1381 27.6106 98.678 30.5531 100.04C33.8454 101.564 37.4345 102.068 40.9703 102.71C45.4358 103.522 49.9431 103.828 54.4779 103.769C57.1283 103.765 59.778 103.763 62.4282 103.759Z" fill="#0542F3"/>
<path d="M100.138 88.8497C100.051 87.7471 99.3795 87.265 98.6163 86.957C95.2753 85.6088 91.9208 84.2936 88.5635 82.9869C87.0361 82.3919 85.7817 82.9147 84.6111 83.9479C84.777 84.1837 84.8426 84.3799 84.9755 84.4518C88.9768 86.6279 93.2203 88.1978 97.6036 89.3944C98.4528 89.6263 99.3264 89.4988 100.138 88.8497ZM125.512 85.2362C124.436 83.4794 122.842 82.1604 121.21 80.8905C120.97 80.7032 120.553 80.6697 120.222 80.6813C118.601 80.7387 116.974 80.7733 115.362 80.9422C114.368 81.0457 113.282 80.9226 112.402 81.5818C113.206 83.8093 113.076 84.7184 111.75 86.6686C111.242 87.4173 110.764 88.1866 110.261 88.9639C113.235 90.4517 123.63 87.8909 125.512 85.2362ZM72.6142 75.3336C72.8889 76.6295 73.7074 77.3902 74.6252 77.984C76.9166 79.4665 79.2595 80.8687 81.5844 82.2986C82.4906 82.856 83.3651 82.947 84.3488 82.3618C85.8086 81.4937 87.4106 81.2324 89.0362 81.854C92.4992 83.1774 95.967 84.4955 99.3795 85.9416C100.248 86.3097 101.01 87.0647 101.66 87.7865C103.235 89.5378 104.99 89.9941 107.079 88.9794C108.638 88.2226 109.845 87.049 110.675 85.5383C111.805 83.4806 111.238 82.0516 108.93 81.4655C107.482 81.0976 105.949 80.8832 104.458 80.8969C97.093 80.964 89.8698 79.9202 82.7521 78.1575C80.1204 77.5063 77.5956 76.426 75.0144 75.5638C74.2926 75.3225 73.6004 74.7004 72.6142 75.3336ZM134.147 113.626C133.757 112.295 133.358 110.968 132.98 109.633C132.139 106.657 130.123 104.498 127.942 102.475C126.882 101.49 125.716 100.619 124.589 99.708C123.825 99.0903 122.994 98.8656 121.992 99.1069C117.368 100.221 112.675 100.928 107.944 101.388C107.718 101.41 107.485 101.355 107.256 101.336C107.255 100.924 107.254 100.512 107.253 100.1L107.204 99.9682C108.252 99.8548 109.299 99.7419 110.347 99.6286C110.598 99.6145 110.849 99.6004 111.1 99.5863C111.218 99.5186 111.337 99.451 111.456 99.3834L111.438 99.3971C112.492 99.2888 113.546 99.1806 114.6 99.0723C114.822 99.0552 115.044 99.0381 115.266 99.0213C117.241 99.0971 119.183 98.9969 120.965 98.0022C121.165 97.9861 121.365 97.9702 121.565 97.954C121.797 97.8409 122.031 97.7275 122.263 97.6142H122.263C123.737 96.9352 123.74 96.9279 123.412 95.081C122.649 95.3034 121.901 95.5207 121.153 95.7386C121.05 95.7304 120.958 95.7561 120.874 95.8164C120.51 95.925 120.146 96.0333 119.782 96.1419C119.443 96.1988 119.103 96.2557 118.764 96.3131C118.026 96.4979 117.288 96.6832 116.549 96.8685C116.476 96.8243 116.404 96.8252 116.333 96.8714C115.386 96.9814 114.439 97.0909 113.492 97.2001C113.269 97.2138 113.046 97.2274 112.823 97.2411C112.007 97.2625 111.192 97.2839 110.376 97.3057C110.02 97.3105 109.664 97.3155 109.308 97.3203C108.622 97.3212 107.936 97.3228 107.25 97.3237C105.737 97.283 104.224 97.2415 102.711 97.2006C102.12 97.1097 101.53 97.0187 100.94 96.9274C100.713 96.9031 100.486 96.8783 100.26 96.8539C99.5531 96.6884 98.8464 96.5236 98.1396 96.3588C97.6835 96.2883 97.2271 96.2173 96.7709 96.1467C96.5279 96.062 96.2841 95.9773 96.041 95.8929C95.8454 95.8685 95.6495 95.8446 95.4539 95.8203C95.1835 95.7206 94.9136 95.6204 94.6436 95.5203C94.4554 95.5037 94.2676 95.4866 94.0798 95.4702C93.918 95.371 93.7564 95.2717 93.5945 95.1725C93.5117 95.1272 93.4247 95.1151 93.3328 95.1361C93.1903 95.0475 93.0482 94.959 92.9062 94.8709C92.2044 94.6171 91.5029 94.3631 90.8012 94.1093C90.5667 93.9968 90.3318 93.8851 90.0969 93.7731C89.5454 93.5286 88.9943 93.2835 88.4428 93.0388C88.2978 92.945 88.1528 92.851 88.0078 92.7572C87.9213 92.7033 87.8271 92.6807 87.7254 92.691C87.4754 92.5699 87.2253 92.4492 86.9749 92.3286L86.987 92.3432C86.859 92.2387 86.7307 92.1347 86.6027 92.0304C86.5294 91.9785 86.4491 91.9633 86.3615 91.9847C86.2087 91.8827 86.0555 91.7805 85.9028 91.6783C85.1963 91.2363 84.4895 90.7942 83.7832 90.352C83.8153 90.0709 83.8479 89.7893 83.8806 89.5082C85.2516 90.1264 86.6763 90.6488 87.9846 91.3783C93.8012 94.6235 100.14 95.8861 106.681 96.1501C109.441 96.2614 112.222 95.7231 114.998 95.5442C118.957 95.2897 122.616 94.1243 125.985 92.0495C127.389 91.1841 128.687 90.1303 129.243 88.5331C130.267 85.5938 130.31 84.2452 128.098 82.2596C127.579 81.7937 127.094 81.2898 126.597 80.7997C125.041 79.2655 124.4 79.1706 121.98 80.3624C122.363 80.5589 122.651 80.6531 122.873 80.8302C123.868 81.628 124.928 82.3696 125.81 83.2805C127.206 84.7232 127.287 86.5578 125.24 87.5402C124.51 87.8909 123.788 88.2752 123.028 88.5499C116.422 90.9367 109.539 91.4143 102.615 91.1875C99.9831 91.1015 97.2569 90.6711 94.7788 89.8093C89.6893 88.0393 84.6689 86.0217 80.0621 83.1444C77.1574 81.3298 74.2421 79.5312 71.9639 76.8999C71.4039 76.253 70.8647 75.556 71.3679 74.7282C71.8783 73.8892 72.8238 73.7865 73.707 73.9845C74.7196 74.2117 75.7066 74.5609 76.6942 74.8882C78.3987 75.4518 80.0575 76.2132 81.8013 76.5808C85.5373 77.3688 89.2395 78.3307 93.1004 78.4996C96.9781 78.6692 100.838 79.2441 104.716 79.4057C109.707 79.6133 114.693 79.5787 119.673 78.8287C123.037 78.3216 126.275 77.6071 129.279 75.9742C129.669 75.7627 130.14 75.7015 130.574 75.5701C130.784 75.6052 130.994 75.64 131.205 75.6751C131.333 76.3732 130.919 76.71 130.37 76.9966C129.304 77.5529 128.253 78.1386 127.032 78.801C127.854 79.8166 128.451 80.8507 129.313 81.5656C132.433 84.1562 131.484 90.3044 127.805 92.4201C126.335 93.2643 125.558 94.3023 125.528 95.9837C125.499 97.6497 126.344 98.7381 127.513 99.8373C129.448 101.656 131.327 103.57 132.979 105.644C134.765 107.884 135.01 110.771 135.751 113.626H134.147Z" fill="#0F0C0C"/>
<path d="M49.8045 46.0682C49.9311 46.1504 50.057 46.2326 50.1835 46.3147C50.8327 45.699 51.5274 45.1243 52.1247 44.4608C55.1072 41.1471 58.9344 39.5508 63.2466 38.9048C64.4484 38.725 65.6414 38.3824 66.8453 38.3476C69.0441 38.2834 71.2825 38.1641 73.4405 38.4901C76.0008 38.8761 78.491 39.7181 81.0178 40.3381C81.5577 40.4706 82.1229 40.4981 82.6757 40.5742C82.7163 40.4258 82.7561 40.2773 82.7959 40.1292C82.2353 39.7575 81.7065 39.3202 81.1077 39.025C78.2567 37.6208 75.2135 36.8724 72.0518 36.8446C69.5034 36.8216 66.9343 36.9302 64.4075 37.2455C61.4746 37.6117 58.5954 38.3232 55.9505 39.7459C53.7253 40.9429 51.6776 42.3514 50.3517 44.5755C50.0847 45.023 49.9825 45.5681 49.8045 46.0682ZM112.818 97.2405C113.04 97.2268 113.263 97.2131 113.487 97.1995C114.519 97.8305 115.417 97.2935 116.328 96.8713C116.399 96.8246 116.471 96.8235 116.544 96.8678C117.059 96.882 117.585 96.9616 118.085 96.8824C118.333 96.843 118.536 96.5114 118.759 96.3125C119.098 96.2555 119.437 96.198 119.777 96.1411C120.403 96.9106 120.615 96.2929 120.868 95.8158C120.952 95.7555 121.045 95.7298 121.147 95.7379C121.698 96.0268 122.248 96.3152 122.768 96.5876C122.582 96.9628 122.42 97.288 122.258 97.6135H122.258C122.025 97.7267 121.792 97.84 121.559 97.9534C121.36 97.9695 121.16 97.9855 120.96 98.0016C118.934 97.6329 116.989 97.7239 115.261 99.0204C115.039 99.0375 114.817 99.0546 114.594 99.0717C113.903 98.75 112.479 98.8964 111.432 99.3965L111.451 99.3828C111.332 99.4504 111.213 99.518 111.094 99.5856C110.843 99.5997 110.592 99.6138 110.342 99.6284C109.408 99.5599 108.477 99.4723 107.543 99.4475C107.433 99.4447 107.314 99.7855 107.199 99.9676L107.247 100.099C107.004 100.075 106.76 100.051 106.517 100.026C106.286 100.039 106.055 100.051 105.823 100.063C105.599 100.08 105.376 100.097 105.151 100.114C104.331 99.287 103.686 99.8581 103.035 100.38C102.688 100.4 102.34 100.42 101.993 100.441C101.925 100.355 101.852 100.191 101.788 100.194C100.442 100.255 99.0948 100.317 97.7521 100.427C97.5254 100.446 97.3178 100.692 97.1013 100.834C96.8626 100.932 96.6236 101.03 96.3848 101.128C96.1451 101.098 95.9047 101.069 95.6651 101.04C93.4228 100.473 91.2224 100.645 89.0561 101.413C86.7214 101.556 84.3874 101.699 82.0532 101.841C81.9264 101.803 81.7999 101.765 81.6728 101.727C81.5873 101.654 81.5026 101.519 81.4161 101.519C79.119 101.492 76.8214 101.466 74.5247 101.488C74.3424 101.49 74.1637 101.845 73.9839 102.035L74.0148 102.167C73.3097 102.15 72.6045 102.133 71.8998 102.116C70.9565 101.657 70.0228 101.574 69.1051 102.182C68.7382 102.238 68.3715 102.294 68.0048 102.35C67.102 102.373 66.1993 102.396 65.2961 102.42C62.37 102.437 59.444 102.454 56.5175 102.472C55.5205 102.302 54.5245 102.13 53.525 101.978C53.4792 101.97 53.4057 102.147 53.3449 102.237C53.0103 102.217 52.6757 102.196 52.3411 102.175C51.6626 101.607 50.9636 101.627 50.25 102.106C49.8945 102.083 49.5396 102.06 49.1845 102.038C49.1217 101.882 49.0561 101.59 48.9972 101.592C47.9023 101.618 46.8084 101.679 45.7142 101.733C44.8859 101.625 44.0572 101.516 43.2288 101.408C42.8751 101.317 42.5221 101.226 42.1684 101.134L42.1782 101.143C41.5595 101.03 40.9408 100.917 40.3217 100.803L40.2195 100.84L40.1155 100.807C39.4813 100.691 38.8469 100.573 38.2128 100.456C37.9073 100.436 37.6019 100.416 37.2964 100.397C36.9242 100.293 36.5519 100.19 36.1797 100.086C35.8408 100.006 35.5021 99.9261 35.1632 99.8458C35.0532 99.2836 34.8372 99.2189 34.5033 99.7054C34.1491 99.6086 33.7954 99.5123 33.4414 99.4154C33.0684 99.2908 32.6958 99.1668 32.3227 99.0423L32.1832 99.0453L32.0523 98.9972C31.8932 98.8998 31.7338 98.8022 31.5747 98.705C31.3835 98.6829 31.1928 98.661 31.0018 98.6392C30.8441 98.5443 30.687 98.4496 30.53 98.3547L30.4196 98.3765L30.3151 98.3358C30.049 98.2233 29.7825 98.1111 29.5164 97.9982C29.3072 97.9554 29.098 97.9126 28.8888 97.8694C28.7673 97.787 28.6457 97.7048 28.5246 97.6226C28.2991 97.52 28.0728 97.418 27.847 97.3153C27.603 97.1874 27.3588 97.0595 27.1145 96.9316C25.8424 96.2419 24.5704 95.5522 23.298 94.8625C23.2036 94.5211 23.1093 94.1801 23.0149 93.8387C22.7524 93.9584 22.4898 94.0779 22.2271 94.1976C21.6521 93.7228 21.0772 93.2482 20.5024 92.773C20.3847 92.6426 20.2675 92.5119 20.1503 92.3815L20.1555 92.3892C20.0062 92.1625 19.8569 91.936 19.7071 91.7093C18.6011 90.5259 18.3478 89.0639 18.3359 87.5232C19.0154 86.6898 19.014 85.8508 18.3573 85.0066C18.3963 84.4298 18.4347 83.8533 18.4736 83.2765C18.5563 83.1185 18.6396 82.9603 18.7227 82.8023C18.6633 82.745 18.6576 82.6826 18.7047 82.615C19.4809 82.0985 19.0047 81.3456 19.0671 80.6948C19.5385 78.5543 19.9081 76.3851 20.5067 74.2809C21.2986 71.4985 22.175 68.7309 23.1886 66.0218C24.3685 62.8677 26.5038 60.3258 28.8836 57.9927C29.1813 57.7014 29.6152 57.5487 30.1223 57.2514C30.5889 59.5831 29.9036 61.8643 31.3125 63.8822C31.4404 63.0721 31.6121 62.2656 31.6876 61.4503C31.8583 59.6027 31.8602 57.7314 32.1524 55.9052C32.5815 53.2214 34.2575 51.1266 35.9969 49.1946C37.3417 47.7009 39.0309 46.5137 40.5857 45.2126C43.3021 42.9394 45.9753 40.6097 48.7716 38.4384C52.8508 35.2711 57.5165 33.5061 62.6584 32.9186C66.8988 32.434 70.8161 33.4886 74.6141 35.1953C76.7513 36.1558 78.9225 36.8207 81.3066 36.8792C84.3704 36.9536 86.9739 35.8611 89.4142 34.1676C92.2906 32.1721 95.3191 30.4317 98.7696 29.691C103.632 28.6462 108.459 28.7498 113.142 30.673C115.051 31.4564 116.193 32.3553 117.695 34.418C116.881 34.418 116.218 34.4341 115.557 34.4157C110.544 34.275 105.573 34.618 100.691 35.8153C96.7681 36.7775 93.166 38.5103 89.7151 40.5726C89.4904 40.7069 89.3393 40.9632 89.0158 41.3101C90.8022 41.4282 92.1581 40.7506 93.492 40.1194C96.757 38.5732 100.1 37.2669 103.67 36.6414C108.376 35.816 113.093 35.506 117.882 36.0036C121.183 36.347 124.47 36.6097 127.58 37.8596C128.548 38.2488 129.498 38.6929 130.424 39.1734C130.711 39.3227 130.892 39.6757 131.122 39.9355C131.061 40.0381 131.002 40.1408 130.941 40.2434C130.576 40.2045 130.204 40.1972 129.846 40.1207C123.053 38.6792 116.284 38.2493 109.601 40.6636C106.276 41.8645 103.461 43.9213 100.749 46.1238C100.503 46.3231 100.392 46.6873 100.195 47.0128C100.905 47.5555 101.385 47.0586 101.824 46.7939C103.217 45.9549 104.603 45.0974 105.938 44.1715C108.562 42.3523 111.468 41.2852 114.592 40.7478C115.31 41.1812 116.008 41.224 116.673 40.6397C118.303 40.6384 119.933 40.6363 121.564 40.6349C122.451 41.4516 123.504 40.8553 124.473 40.975C124.786 40.9982 125.098 41.0221 125.411 41.0453C125.69 41.135 125.97 41.2245 126.249 41.3135C126.791 41.4243 127.333 41.5352 127.875 41.646C127.64 41.8786 127.405 42.1106 127.171 42.3425C126.078 42.2604 124.987 42.132 123.893 42.1033C118.388 41.9588 113.402 43.5307 108.84 46.5999C106.343 48.2807 103.764 49.8415 101.21 51.4389C100.837 51.6717 100.402 51.8056 100.05 51.9617C99.363 51.3747 98.8003 50.8935 98.2369 50.4126C98.0881 50.3006 97.9399 50.1893 97.791 50.0775L95.1368 48.9981C94.9699 48.8989 94.8031 48.7996 94.6362 48.7004C92.7729 48.3838 90.9101 48.0676 89.0468 47.751C88.4623 47.7312 87.8782 47.7112 87.2935 47.6914C86.4788 47.6898 85.6637 47.6884 84.8486 47.6868C84.2648 47.7009 83.6816 47.715 83.098 47.7287C81.1063 47.9934 79.1142 48.2579 77.1218 48.5224C77.0237 48.5848 76.9254 48.6476 76.8266 48.7097C74.455 49.5394 72.4265 50.863 70.8593 52.8508C70.4854 53.2043 70.1118 53.5573 69.7379 53.9111C69.681 53.9227 69.6088 53.9163 69.5694 53.9491C66.7888 56.2608 64.1152 58.7125 60.8914 60.4405C60.6882 60.5496 60.6886 61.0374 60.5948 61.3492C60.5268 61.4387 60.4587 61.5277 60.3907 61.6171C59.68 61.5393 58.9694 61.4617 58.2588 61.3838C58.1206 61.4553 57.9829 61.5272 57.8454 61.5987C56.1624 61.5944 54.4801 61.59 52.7977 61.585C52.6471 61.5079 52.4961 61.43 52.3455 61.3522C51.7812 60.9709 50.88 60.8851 51.0394 59.7563C51.3444 59.628 51.6892 59.4825 52.0341 59.3371C52.1411 59.289 52.2487 59.2408 52.3557 59.1925C53.4002 59.0539 54.445 58.9148 55.4898 58.7762C55.6434 58.6956 55.7966 58.6148 55.95 58.534C58.5656 58.0628 60.5486 56.4829 62.4877 54.8202C65.6109 52.1427 68.8155 49.5838 72.584 47.8361C74.8465 46.787 77.2129 46.0857 79.6709 45.6815C79.7688 45.6437 79.8669 45.6057 79.9652 45.5677C80.314 45.5527 80.6627 45.5376 81.0114 45.5226C81.5843 45.5103 82.1568 45.4983 82.7299 45.4864C83.4419 45.488 84.1539 45.4898 84.8666 45.4914C85.4404 45.5046 86.0138 45.5171 86.5878 45.5303C86.8207 45.5424 87.0538 45.554 87.2866 45.5663C87.3825 45.6027 87.4783 45.6387 87.5741 45.6753C88.8383 45.8863 90.1023 46.0973 91.366 46.3081C91.5215 46.3937 91.6772 46.4788 91.8324 46.5637C92.9837 46.8435 94.1355 47.1232 95.2462 47.3927C96.0113 45.4432 95.8624 44.5866 94.2939 43.8644C92.7964 43.1743 91.132 42.8469 89.5405 42.3601C89.3762 42.2715 89.2123 42.183 89.0479 42.0944C83.916 40.8182 78.7848 40.7355 73.654 42.1013C73.4906 42.188 73.3267 42.2745 73.1633 42.3605C71.3005 42.3503 69.6955 43.1797 68.0699 43.9331C64.6965 45.4962 61.9956 47.9827 59.2262 50.3761C57.875 51.5438 56.6518 52.915 54.7757 53.2847C54.6601 53.2514 54.5481 53.2621 54.4407 53.3167C53.9713 53.4101 53.502 53.5039 53.0326 53.5979C52.429 54.1858 52.5701 54.5272 53.3804 54.6479L53.3784 54.6465C53.736 54.6483 54.094 54.6508 54.4514 54.6529C54.5643 54.6791 54.6742 54.6718 54.7821 54.6299L54.9563 54.6401L55.1217 54.5846C56.1961 54.0511 57.3813 53.6646 58.3216 52.9539C60.1712 51.5561 61.872 49.9632 63.6581 48.4787C66.4187 46.1845 69.6092 44.6743 72.9609 43.469L73.3033 43.416C73.7303 43.4164 74.1575 43.4169 74.5846 43.4169C74.9765 43.3218 75.3685 43.2264 75.7604 43.1306L75.7493 43.0147C75.907 42.9471 76.0641 42.8795 76.2216 42.8119C76.5437 42.828 76.8655 42.8444 77.1876 42.8606C77.7737 43.2307 78.3476 43.3104 78.8968 42.79C79.1317 42.7793 79.3662 42.7686 79.6004 42.7579C80.4073 42.8772 81.2115 43.0523 82.0222 43.098C82.6578 43.1335 83.1861 43.1515 83.0936 43.9923C82.6127 44.0007 82.1315 44.0085 81.6505 44.0162C81.3291 44.0269 81.0075 44.0381 80.6861 44.0488C80.5573 44.0925 80.4278 44.1364 80.2989 44.1801C79.9452 44.1651 79.5917 44.1501 79.2382 44.1348C79.1806 44.0809 79.1237 44.0265 79.0668 43.9718C79.0714 44.0099 79.0621 44.0629 79.0835 44.0825C79.118 44.1139 79.1725 44.1241 79.2187 44.1437C79.2007 44.2532 79.1652 44.3567 79.1121 44.4544C78.689 44.4514 78.2654 44.4492 77.8422 44.4462C77.7309 44.4628 77.6199 44.4787 77.5086 44.4949C77.3082 44.5147 77.1084 44.5343 76.9079 44.5541C76.6438 44.647 76.3791 44.7394 76.1151 44.8322C75.9808 44.9058 75.8467 44.9793 75.7124 45.0526L75.4104 45.2126L75.4083 45.2137C75.2421 45.3109 75.0753 45.4081 74.9089 45.5055C74.6059 45.542 74.3034 45.5784 74.0003 45.6155L73.5728 45.877C71.6779 46.8269 69.7659 47.7449 67.8987 48.7448C67.3044 49.0632 66.8277 49.6013 66.2972 50.039C66.1469 50.1615 65.996 50.2842 65.8458 50.4062C64.7168 51.2648 63.588 52.1231 62.4586 52.981C62.3614 53.0721 62.2635 53.1631 62.1663 53.2539C61.567 53.7287 60.9684 54.2033 60.3693 54.6786C60.2452 54.7801 60.1212 54.8823 59.9967 54.9841C59.8824 55.0307 59.7674 55.0774 59.6527 55.1236C59.569 55.1998 59.485 55.2768 59.4007 55.3533C57.5092 56.1752 55.6177 56.9971 53.7257 57.8191C53.5575 57.9046 53.3891 57.9898 53.2204 58.0754C52.3366 58.1965 51.4329 58.2461 50.5784 58.4767C50.2675 58.5609 50.0731 59.0753 49.825 59.3935C49.739 59.6712 49.6527 59.9489 49.5662 60.2266C49.5735 60.3477 49.5803 60.4695 49.5872 60.591C49.6727 60.7403 49.7583 60.8901 49.8435 61.0394C50.3813 62.607 51.6728 62.7097 53.0331 62.6769C53.2662 62.7213 53.4995 62.765 53.733 62.8094C54.4095 62.892 55.0862 62.9746 55.7627 63.0573C56.0117 63.1362 56.2612 63.2155 56.5102 63.2942C59.2004 64.2377 61.8911 65.1819 64.5816 66.1253C64.9182 67.1273 65.7324 66.8444 66.4508 66.82C66.7554 66.8376 67.0597 66.8544 67.3642 66.8715C67.4853 66.9721 67.6064 67.0725 67.7275 67.1731L67.7082 67.2719C67.8336 67.512 67.9595 67.7528 68.0851 67.9932C67.1799 68.9089 66.2742 69.8244 65.3692 70.7401C65.2324 70.9955 65.0953 71.2509 64.9581 71.5063C64.8493 71.817 64.7398 72.1272 64.6303 72.4381C63.9911 73.0329 63.9907 73.6293 64.6283 74.2256C64.8486 74.7844 65.0696 75.3432 65.2904 75.9021C65.4119 76.1463 65.533 76.3903 65.6546 76.635L65.6396 76.6209C65.7406 76.7458 65.8424 76.8715 65.9439 76.9964C66.1856 77.3456 66.428 77.6952 66.6702 78.0446C66.8867 78.2791 67.1036 78.5128 67.3205 78.7473C67.9324 79.406 68.5442 80.0641 69.1556 80.7226C69.2724 80.8671 69.3896 81.011 69.5061 81.1555L69.5039 81.1398C69.7051 81.2741 69.9061 81.4084 70.1068 81.5431C71.6555 82.7862 73.204 84.0294 74.7528 85.2727V86.3557C75.531 86.4925 76.2266 86.6145 76.9215 86.7365C77.9337 87.3285 78.9453 87.9208 79.9575 88.5129C80.0804 88.6326 80.204 88.7521 80.3276 88.8718C80.9014 89.1256 81.476 89.3801 82.0498 89.6339C82.0926 89.7939 82.1354 89.9535 82.1784 90.113C82.256 90.0434 82.3334 89.9735 82.4112 89.9038C82.8669 90.0532 83.3222 90.202 83.7774 90.3513C84.4842 90.7934 85.1909 91.2356 85.8977 91.6777C86.0504 91.7799 86.2036 91.8821 86.3563 91.984C86.4433 91.9627 86.5241 91.9777 86.5974 92.0298C86.7253 92.1338 86.8539 92.2381 86.9818 92.3425L86.9696 92.328C87.2195 92.4486 87.4701 92.5693 87.72 92.6903C87.8218 92.6801 87.916 92.7024 88.0027 92.7566C88.1475 92.8504 88.2925 92.9441 88.437 93.0381C88.9885 93.2833 89.5401 93.5278 90.0916 93.7725C90.1676 94.217 90.1879 94.7778 90.7958 94.1086C91.4974 94.3624 92.1991 94.6165 92.9004 94.8703C93.0429 94.9583 93.1849 95.0469 93.327 95.1354C93.4194 95.1145 93.5066 95.1266 93.5892 95.1719C93.751 95.2711 93.9126 95.3703 94.074 95.4696C94.2623 95.486 94.45 95.503 94.6378 95.5197C94.9082 95.6198 95.1782 95.72 95.4486 95.8197C95.6441 95.844 95.8396 95.8679 96.0356 95.892C96.1242 96.4217 96.2405 96.8708 96.7656 96.1461C97.222 96.2166 97.6781 96.2876 98.1343 96.358C98.5813 96.8007 99.0288 97.2427 99.5448 97.7526C99.8594 97.3531 100.057 97.1032 100.255 96.8533C100.481 96.8776 100.708 96.9024 100.934 96.9266C101.489 97.2486 102.002 97.8425 102.705 97.1999C104.218 97.2414 105.732 97.2821 107.245 97.3231C107.93 97.3222 108.617 97.3206 109.302 97.3197C109.659 97.3149 110.015 97.3099 110.371 97.3051C111.125 98.2632 112.171 98.2356 112.818 97.2405Z" fill="#539836"/>
<path d="M68.0883 67.9932C67.9622 67.7528 67.8368 67.5127 67.7109 67.2719C68.176 67.266 68.6403 67.2598 69.1049 67.2539C69.3427 67.3443 69.5806 67.4349 69.8178 67.5252C72.612 67.55 75.4067 67.6192 78.2001 67.5894C82.7413 67.5409 87.0078 66.2442 91.1605 64.54C93.3527 63.6402 95.513 62.6553 97.6518 61.6333C98.5661 61.1965 99.4103 61.2477 100.349 61.466C104.138 62.3487 107.975 62.9913 111.873 62.9612C115.778 62.931 119.566 62.0264 123.34 61.0963C127.232 60.1378 131.012 58.8664 134.646 57.167C134.836 57.0784 135.08 57.1075 135.693 57.0352C134.053 58.8898 132.445 60.2043 130.552 61.179C128.733 62.1149 126.563 62.2258 124.629 63.5876C126.968 64.0729 128.817 63.0482 130.98 62.6931C129.833 65.0307 129.316 67.2821 130.393 69.6416C129.27 71.2543 127.717 72.1343 126.026 72.7739C122.811 73.9898 119.471 74.5796 116.052 75.016C111.415 75.6075 106.782 75.8361 102.139 75.6012C98.8468 75.4348 95.5331 75.1006 92.3016 74.4692C88.0458 73.6386 83.8323 72.5472 79.6578 71.3652C77.1027 70.642 74.6365 69.587 72.1675 68.588C70.8339 68.0481 69.5085 67.7811 68.0883 67.9932Z" fill="#539636"/>
<path d="M130.572 75.5705C130.139 75.7014 129.667 75.7627 129.277 75.9746C126.274 77.6071 123.036 78.322 119.671 78.8287C114.691 79.5792 109.705 79.6133 104.714 79.4055C100.836 79.2441 96.9763 78.6691 93.0988 78.5C89.2374 78.3307 85.5352 77.3692 81.7998 76.5812C80.0562 76.2136 78.3966 75.4517 76.6929 74.8881C75.7046 74.5613 74.7176 74.2121 73.7049 73.985C72.8218 73.7865 71.8762 73.8896 71.3659 74.7286C70.8626 75.556 71.4021 76.253 71.9623 76.9003C74.2401 79.5311 77.1554 81.3302 80.0605 83.1444C84.6668 86.0217 89.6872 88.0393 94.7768 89.8097C97.2549 90.6715 99.9811 91.1015 102.613 91.1875C109.538 91.4147 116.42 90.9367 123.026 88.5499C123.786 88.2756 124.508 87.8914 125.239 87.5401C127.285 86.5582 127.204 84.7236 125.808 83.2809C124.926 82.3695 123.867 81.6284 122.871 80.8306C122.649 80.6531 122.361 80.5593 121.978 80.3624C124.398 79.1706 125.04 79.2655 126.595 80.8001C127.092 81.2904 127.577 81.7941 128.096 82.2596C130.308 84.2456 130.265 85.5938 129.241 88.5335C128.685 90.1302 127.388 91.1845 125.983 92.05C122.615 94.1243 118.955 95.2897 114.996 95.5446C112.221 95.7231 109.439 96.2618 106.679 96.1505C100.139 95.8865 93.7992 94.6234 87.983 91.3787C86.6742 90.6487 85.2496 90.1264 83.8786 89.5086L83.8445 89.5436C83.7156 89.4346 83.5872 89.3258 83.4584 89.2163L83.4646 89.2207C83.2283 89.1039 82.9923 88.9871 82.7564 88.8706C82.3201 88.6293 81.8844 88.3876 81.4485 88.1463C81.3017 88.0475 81.1554 87.9483 81.0083 87.8495C77.312 85.5963 73.7878 83.1045 70.5995 80.1687C69.3788 79.0447 68.2575 77.8121 67.0912 76.6294C66.9662 76.4781 66.8417 76.3269 66.7172 76.176C66.5713 75.8715 66.4254 75.5667 66.2795 75.2621C66.1896 75.1098 66.0995 74.9582 66.01 74.806C65.8222 73.1896 65.9834 71.7431 67.3009 70.5087C68.1628 69.7014 68.9861 69.1237 70.1896 69.2368C70.7639 69.3741 71.3384 69.5113 71.9126 69.6483C74.3056 70.4889 76.699 71.3298 79.0927 72.1701C79.2643 72.268 79.4359 72.3652 79.6078 72.4631C80.2506 72.5983 80.8941 72.7335 81.5371 72.8687C81.7103 72.9684 81.8828 73.0676 82.056 73.1673C82.1325 73.2195 82.2147 73.2302 82.3021 73.1994C82.448 73.2768 82.5935 73.3535 82.7394 73.4309C83.3271 73.5739 83.9141 73.7168 84.5016 73.86C84.6038 73.908 84.7117 73.9328 84.825 73.9333C85.2744 74.0346 85.7235 74.1356 86.1723 74.2369C86.308 74.3079 86.4436 74.3785 86.5793 74.4493C87.1738 74.5784 87.7682 74.7076 88.3625 74.8365C88.5867 74.8697 88.8104 74.9032 89.0346 74.9362L89.0196 74.9232C89.1357 74.9858 89.252 75.0491 89.3683 75.1119C90.8966 75.3691 92.4241 75.6259 93.9519 75.8833L94.1149 75.9459L94.2879 75.9275C94.7024 75.9561 95.1173 75.9844 95.5316 76.0126C95.6975 76.0909 95.8634 76.1692 96.0291 76.2475C96.4942 76.2773 96.9597 76.3064 97.4247 76.3356C97.663 76.3861 97.9013 76.4366 98.1401 76.4869C100.483 76.6176 102.826 76.7489 105.169 76.8798C106.893 76.8862 108.618 76.893 110.342 76.8998C113.267 76.5782 116.192 76.2573 119.117 75.9359C119.395 75.8444 119.672 75.7524 119.949 75.6609C120.955 75.5116 121.961 75.3627 122.967 75.2141C123.13 75.1294 123.292 75.0443 123.455 74.9596C123.521 75.0058 123.585 75.0033 123.648 74.9523C123.935 74.8403 124.221 74.7281 124.508 74.6161C124.813 74.5681 125.117 74.5199 125.422 74.4718C125.56 74.3931 125.697 74.3148 125.834 74.2365C126.056 74.1488 126.277 74.0612 126.499 73.9738C126.606 73.9469 126.708 73.9071 126.805 73.8536C127.622 73.3941 128.44 72.9347 129.257 72.4752C129.411 72.3686 129.565 72.2621 129.719 72.1551C130.21 72.0122 130.701 71.8688 131.164 71.7345C132.113 72.8152 132.166 73.1947 131.528 74.1575C131.215 74.6318 130.891 75.0996 130.572 75.5705Z" fill="#AA522A"/>
<path d="M79.9565 49.7855C79.9556 49.572 79.954 49.3585 79.9531 49.145C82.0688 49.039 84.1862 48.9538 86.2994 48.8125C86.812 48.7779 87.3121 48.5571 87.8178 48.4219C88.0625 48.4267 88.3077 48.4314 88.5528 48.4364C88.7197 49.2088 89.3704 48.9097 89.832 48.9982C91.5426 49.326 93.2809 49.5409 94.9603 49.9836C95.8883 50.2283 96.7885 50.7447 97.577 51.3113C98.6072 52.0517 99.2298 53.1076 99.1519 54.4515C99.1014 55.3197 99.1116 56.2033 98.9448 57.0512C98.4062 59.7924 96.2696 61.7567 93.2837 62.2941C93.2837 61.6518 93.2211 61.0156 93.2934 60.3949C93.99 54.408 88.2726 49.0842 82.5601 49.5356C81.691 49.6041 80.8242 49.7016 79.9565 49.7855Z" fill="#F1F1F1"/>
<path d="M127.931 51.5852C127.926 53.1751 126.755 54.4882 125.298 54.5365C123.832 54.5857 122.396 53.1683 122.356 51.6353C122.317 50.1109 123.667 48.6591 125.162 48.6182C126.708 48.5761 127.935 49.8917 127.931 51.5852Z" fill="#F1F1F1"/>
<path d="M88.4713 57.5573C88.515 59.1764 87.432 60.4838 86.0019 60.5364C84.4038 60.5951 83.4134 59.5884 83.3239 57.8145C83.2461 56.2669 84.4315 54.8539 85.838 54.817C87.1236 54.7835 88.4333 56.1468 88.4713 57.5573Z" fill="#F1F1F1"/>
<path d="M78.533 56.845C77.2203 56.8557 76.3351 55.9857 76.3681 54.7172C76.3988 53.5523 77.302 52.6079 78.4276 52.5639C79.6809 52.5148 80.9806 53.7353 80.9378 54.9214C80.8943 56.113 79.9945 56.8334 78.533 56.845Z" fill="#F1F1F1"/>
<path d="M119.117 50.5613C117.916 50.5406 117.167 49.7817 117.172 48.588C117.176 47.3682 118.053 46.5497 119.297 46.6041C120.591 46.661 121.495 47.4782 121.498 48.5926C121.501 49.7726 120.518 50.5856 119.117 50.5613Z" fill="#F1F1F1"/>
<path d="M89.0543 44.4743C88.345 44.352 87.6365 44.23 86.9272 44.108C85.9157 43.9435 84.9043 43.7787 83.832 43.6036C83.9681 43.2465 84.0669 42.9884 84.1653 42.7305C84.6296 42.7548 85.0942 42.7792 85.5585 42.8035C85.7818 42.8181 86.0056 42.8322 86.2293 42.8463C86.7025 42.9387 87.1758 43.0312 87.649 43.1236C87.9346 43.2178 88.2201 43.3123 88.5055 43.4065C88.9778 43.5219 89.4506 43.6371 89.9233 43.7525C90.1316 43.7593 90.3401 43.7659 90.5489 43.7727C91.506 43.9869 92.561 43.9514 93.2571 44.8325C92.9855 44.9723 92.7142 45.1123 92.4424 45.2525L92.3145 45.2632L92.1934 45.2193C92.0796 45.1983 91.9658 45.1774 91.8517 45.1571C91.1452 44.96 90.438 44.7636 89.7312 44.5671C89.5626 44.1205 89.3402 44.0657 89.0543 44.4743Z" fill="#539836"/>
<path d="M81.7597 60.0187C81.754 61.0789 81.1726 61.7172 80.21 61.719C79.288 61.7211 78.5935 61.028 78.5598 60.0713C78.5238 59.0606 79.2982 58.2255 80.2446 58.2546C81.1576 58.2824 81.7656 58.9901 81.7597 60.0187Z" fill="#F1F1F1"/>
<path d="M127.172 42.345C127.407 42.113 127.642 41.8806 127.877 41.6484C130.954 41.8396 133.842 42.6627 136.505 44.2565C134.867 44.432 133.466 43.5848 131.95 43.2545C130.366 42.9097 128.765 42.6452 127.172 42.345Z" fill="#539636"/>
<path d="M83.0473 64.3427C83.0181 65.2712 82.4414 65.8218 81.4885 65.83C80.5275 65.8386 79.7789 64.9948 79.8572 63.9899C79.923 63.1447 80.599 62.5916 81.5493 62.6057C82.5128 62.6203 83.0805 63.2784 83.0473 64.3427Z" fill="#F1F1F1"/>
<path d="M120.318 54.3436C120.331 55.0966 119.454 55.9622 118.626 56.013C117.886 56.0576 117.185 55.403 117.15 54.635C117.111 53.7809 117.872 52.9274 118.711 52.8846C119.525 52.8427 120.303 53.549 120.318 54.3436Z" fill="#F1F1F1"/>
<path d="M119.341 58.0649C119.311 57.1364 119.8 56.4848 120.552 56.4506C121.324 56.4163 121.894 57.0124 121.948 57.9138C122.004 58.8359 121.533 59.4468 120.722 59.5032C119.922 59.5597 119.371 58.9852 119.341 58.0649Z" fill="#F1F1F1"/>
<path d="M84.1642 42.7305C84.0659 42.9884 83.9673 43.2467 83.831 43.6036C84.9035 43.7787 85.9146 43.943 86.9264 44.108C85.6492 44.0696 84.3718 44.0306 83.0946 43.9922C83.1866 43.1509 82.6589 43.1334 82.0232 43.0974C81.2124 43.0521 80.4085 42.8771 79.6016 42.7573C81.1223 42.7487 82.6432 42.7393 84.1642 42.7305Z" fill="#539636"/>
<path d="M76.4652 103.21C75.6463 103.269 74.8273 103.326 74.0081 103.385C74.012 102.979 74.0158 102.574 74.0192 102.168L73.9883 102.035C74.5787 102.066 75.1692 102.098 75.7596 102.129C75.995 102.489 76.2299 102.85 76.4652 103.21Z" fill="#0F0C0C"/>
<path d="M62.4269 103.755C59.7767 103.759 57.127 103.762 54.4766 103.765C55.4858 103.693 56.4955 103.554 57.5039 103.563C59.1455 103.577 60.7859 103.686 62.4269 103.755Z" fill="#0F0C0C"/>
<path d="M18.3578 85.0078C19.0145 85.8521 19.0158 86.6911 18.3359 87.5244C18.3432 86.6854 18.3505 85.8468 18.3578 85.0078Z" fill="#539636"/>
<path d="M76.9227 86.7368C76.2277 86.6148 75.5321 86.4926 74.7539 86.356V85.2734C75.4766 85.7612 76.2 86.249 76.9227 86.7368Z" fill="#539636"/>
<path d="M45.7188 101.735C46.8129 101.681 47.9069 101.62 49.0017 101.594C49.0607 101.592 49.1262 101.884 49.189 102.039C48.0318 101.938 46.8753 101.836 45.7188 101.735Z" fill="#539636"/>
<path d="M53.3477 102.24C53.4084 102.149 53.482 101.973 53.5277 101.981C54.5272 102.133 55.5232 102.305 56.5204 102.474C55.4629 102.397 54.4052 102.318 53.3477 102.24Z" fill="#539636"/>
<path d="M88.5536 48.435C88.3084 48.43 88.064 48.4253 87.8188 48.4205C87.6447 48.1771 87.4705 47.9345 87.2969 47.6914C87.8809 47.7112 88.4657 47.7317 89.0498 47.7515C88.8843 47.9791 88.719 48.2074 88.5536 48.435Z" fill="#0B1309"/>
<path d="M92.4414 45.2557C92.713 45.1157 92.9847 44.9762 93.2561 44.8359C93.6048 45.0365 93.9537 45.2368 94.3024 45.4371C94.2353 45.5919 94.1686 45.746 94.1019 45.9003C93.5485 45.6852 92.995 45.4708 92.4414 45.2557Z" fill="#539636"/>
<path d="M124.477 40.9768C123.507 40.8575 122.454 41.4534 121.566 40.6367C122.537 40.7501 123.507 40.8634 124.477 40.9768Z" fill="#539636"/>
<path d="M69.1055 102.183C70.0232 101.575 70.9569 101.658 71.8995 102.118C70.9683 102.14 70.0369 102.161 69.1055 102.183Z" fill="#539636"/>
<path d="M22.2266 94.1983C22.489 94.0786 22.7517 93.9589 23.0139 93.8398C23.1084 94.1808 23.203 94.5222 23.2975 94.8632C22.9404 94.6413 22.5835 94.42 22.2266 94.1983Z" fill="#539636"/>
<path d="M66.4551 66.8202C65.7368 66.8443 64.9219 67.127 64.5859 66.125C65.2089 66.3569 65.8319 66.5884 66.4551 66.8202Z" fill="#539636"/>
<path d="M71.9106 69.644C71.3363 69.507 70.7618 69.3697 70.1875 69.2327C70.9127 68.739 71.4886 68.8708 71.9106 69.644Z" fill="#0F0C0C"/>
<path d="M50.2539 102.108C50.9679 101.629 51.6663 101.609 52.3453 102.178C51.6483 102.155 50.9509 102.131 50.2539 102.108Z" fill="#539636"/>
<path d="M116.679 40.6406C116.013 41.2247 115.316 41.1815 114.598 40.7487C115.292 40.7126 115.985 40.6766 116.679 40.6406Z" fill="#539636"/>
<path d="M78.9006 42.793C78.3514 43.3129 77.7775 43.2332 77.1914 42.8635C77.7609 42.8396 78.3309 42.8164 78.9006 42.793Z" fill="#539636"/>
<path d="M19.0694 80.6953C19.007 81.3465 19.4832 82.099 18.707 82.6155C18.8277 81.9754 18.9488 81.3354 19.0694 80.6953Z" fill="#539636"/>
<path d="M64.63 74.2289C63.9922 73.6321 63.9934 73.0364 64.6319 72.4414C64.6314 73.0373 64.6305 73.6332 64.63 74.2289Z" fill="#539636"/>
<path d="M82.7335 45.4871C82.161 45.4991 81.5881 45.511 81.0156 45.523C81.5783 45.0357 82.1517 45.0755 82.7335 45.4871Z" fill="#0B1309"/>
<path d="M86.5884 45.5311C86.0146 45.5186 85.4408 45.5054 84.8672 45.4928C85.4503 45.0745 86.0258 45.0321 86.5884 45.5311Z" fill="#0B1309"/>
<path d="M53.7351 62.8123C53.5015 62.7679 53.2682 62.7242 53.0352 62.6801C53.3736 62.1684 53.5883 62.3109 53.7351 62.8123Z" fill="#0B1309"/>
<path d="M69.8152 67.5291C69.5773 67.4387 69.3394 67.3481 69.1016 67.2578C69.6308 66.5842 69.73 67.0388 69.8152 67.5291Z" fill="#0B1309"/>
<path d="M53.3839 54.6477C52.5735 54.5277 52.4326 54.1856 53.0363 53.5977C53.1519 53.9477 53.2682 54.2976 53.3839 54.6477Z" fill="#0B1309"/>
<path d="M98.1407 76.4863C97.9024 76.4357 97.6641 76.3857 97.4258 76.3349C97.7943 75.7688 98.0073 75.9386 98.1407 76.4863Z" fill="#0F0C0C"/>
<path d="M79.2394 44.1328C79.5929 44.1478 79.9464 44.1629 80.3001 44.1774C79.9047 44.2689 79.5087 44.3604 79.1133 44.4517C79.1663 44.3545 79.2018 44.2509 79.2198 44.141L79.2394 44.1328Z" fill="#0B1309"/>
<path d="M34.5039 99.7059C34.8376 99.219 35.0541 99.2841 35.164 99.8463C34.9441 99.7996 34.7238 99.7525 34.5039 99.7059Z" fill="#539636"/>
<path d="M89.0547 44.4759C89.3406 44.0673 89.563 44.1221 89.7316 44.5687C89.5061 44.5375 89.2803 44.5068 89.0547 44.4759Z" fill="#539636"/>
<path d="M82.412 89.9067C82.3342 89.9761 82.2563 90.0462 82.1792 90.1156C82.1364 89.9563 82.0936 89.7963 82.0508 89.6367L82.412 89.9067Z" fill="#539636"/>
<path d="M77.5117 44.494C77.623 44.4779 77.7346 44.4619 77.8454 44.4453L77.6838 44.5047L77.5117 44.494Z" fill="#539636"/>
<path d="M94.2891 75.927L94.1154 75.945L93.9531 75.8828C94.0649 75.8974 94.1773 75.9124 94.2891 75.927Z" fill="#0F0C0C"/>
<path d="M126.802 73.8513C126.706 73.9048 126.604 73.9446 126.496 73.9715C126.521 73.8663 126.547 73.7614 126.572 73.6562C126.649 73.7213 126.726 73.7862 126.802 73.8513Z" fill="#0F0C0C"/>
<path d="M84.8239 73.9338C84.7105 73.9334 84.6027 73.9086 84.5 73.8603C84.5701 73.7884 84.6398 73.7165 84.7092 73.6445C84.7477 73.7413 84.7857 73.8376 84.8239 73.9338Z" fill="#0F0C0C"/>
<path d="M57.8477 61.5984C57.9854 61.5269 58.1231 61.4547 58.2612 61.3828C58.1231 61.4547 57.9854 61.5264 57.8477 61.5984Z" fill="#0B1309"/>
<path d="M55.1248 54.5859L54.9593 54.6415L54.7852 54.6312C54.8985 54.616 55.0114 54.601 55.1248 54.5859Z" fill="#0B1309"/>
<path d="M54.4453 53.3161C54.5527 53.2621 54.6645 53.2514 54.7804 53.284C54.6686 53.2947 54.5571 53.3054 54.4453 53.3161Z" fill="#0B1309"/>
<path d="M79.9662 45.5665C79.8679 45.6045 79.7698 45.6425 79.6719 45.6803C79.7536 45.6024 79.8519 45.5646 79.9662 45.5665Z" fill="#0B1309"/>
<path d="M87.5759 45.6752C87.48 45.6388 87.3849 45.6029 87.2891 45.5664C87.3995 45.5653 87.4953 45.6019 87.5759 45.6752Z" fill="#0B1309"/>
<path d="M90.0805 43.4141C90.1996 43.4359 90.3188 43.458 90.4379 43.4803C90.4666 43.5814 90.503 43.6797 90.5474 43.7755C90.3391 43.7687 90.1306 43.7619 89.9219 43.755C89.9749 43.6412 90.0275 43.5279 90.0805 43.4141Z" fill="#539636"/>
<path d="M96.3906 101.129C96.6294 101.031 96.8682 100.933 97.1069 100.835C98.7378 100.704 100.369 100.573 101.999 100.442C102.346 100.422 102.693 100.401 103.04 100.381C103.746 100.293 104.451 100.204 105.157 100.115C105.381 100.098 105.605 100.081 105.829 100.064C106.06 100.052 106.291 100.039 106.522 100.027C106.766 100.052 107.01 100.076 107.253 100.1C107.254 100.512 107.255 100.925 107.256 101.337C106.782 101.379 106.308 101.422 105.834 101.464C105.431 100.942 105.074 100.896 104.783 101.562C103.731 101.637 102.679 101.712 101.627 101.787C100.367 101.251 99.8452 101.307 99.1887 102.044C98.3721 102.078 97.5549 102.113 96.7377 102.147C96.6221 101.808 96.5063 101.468 96.3906 101.129Z" fill="#090B09"/>
<path d="M82.0547 101.842C84.3889 101.699 86.7229 101.557 89.0576 101.414C90.3373 101.442 91.617 101.471 92.8964 101.499C93.2408 101.785 93.5857 102.071 93.9305 102.358C92.8848 102.407 91.8387 102.456 90.793 102.505C90.1846 101.978 89.5959 101.858 89.0478 102.589C88.1066 102.639 87.165 102.688 86.224 102.737C86.1197 102.749 86.0162 102.759 85.9122 102.77C85.6704 102.786 85.4291 102.802 85.1874 102.818C84.4706 102.713 83.7561 102.578 83.0348 102.514C82.5548 102.471 82.0693 102.525 82.0547 101.842Z" fill="#090B09"/>
<path d="M82.0535 101.841C82.0681 102.524 82.5536 102.471 83.0337 102.513C83.755 102.577 84.4695 102.712 85.1863 102.817C84.1727 102.929 83.1616 103.099 82.145 103.141C80.6009 103.203 79.053 103.175 77.5073 103.186C77.505 102.831 77.5025 102.477 77.5 102.121C78.8912 101.99 80.2822 101.858 81.6732 101.727C81.8002 101.765 81.9265 101.803 82.0535 101.841Z" fill="#0F0C0C"/>
<path d="M93.9286 102.36C93.5838 102.074 93.2389 101.787 92.8945 101.501C93.8178 101.348 94.7414 101.196 95.6647 101.043C95.9043 101.072 96.1447 101.101 96.3844 101.13C96.5002 101.47 96.6163 101.81 96.7322 102.149C95.7974 102.22 94.863 102.29 93.9286 102.36Z" fill="#0F0C0C"/>
<path d="M99.1875 102.043C99.8442 101.305 100.366 101.25 101.626 101.786C100.813 101.871 100 101.957 99.1875 102.043Z" fill="#0F0C0C"/>
<path d="M77.5021 102.121C77.5046 102.476 77.5068 102.831 77.5093 103.185C77.1606 103.193 76.8119 103.201 76.4632 103.209C76.2283 102.848 75.9929 102.488 75.7578 102.127C76.3392 102.125 76.9209 102.123 77.5021 102.121Z" fill="#090B09"/>
<path d="M89.0508 102.588C89.5984 101.857 90.1875 101.977 90.7959 102.504C90.2144 102.532 89.6326 102.56 89.0508 102.588Z" fill="#0F0C0C"/>
<path d="M104.781 101.561C105.072 100.895 105.43 100.941 105.832 101.463C105.482 101.496 105.132 101.529 104.781 101.561Z" fill="#0F0C0C"/>
<path d="M85.9141 102.77C86.0183 102.76 86.1219 102.749 86.2259 102.738L86.0766 102.817L85.9141 102.77Z" fill="#0F0C0C"/>
<path d="M72.6133 75.3343C73.5996 74.7016 74.2922 75.323 75.014 75.5642C77.5947 76.4271 80.1195 77.507 82.7517 78.1586C89.8689 79.9209 97.0921 80.9645 104.457 80.8978C105.949 80.8844 107.481 81.0983 108.929 81.466C111.237 82.0521 111.805 83.4811 110.674 85.539C109.845 87.0497 108.637 88.2233 107.078 88.9801C104.989 89.9946 103.235 89.5385 101.659 87.7874C101.009 87.0652 100.248 86.3104 99.379 85.9421C95.9661 84.496 92.4988 83.1781 89.0353 81.8547C87.4104 81.2331 85.8077 81.4942 84.348 82.3623C83.3647 82.948 82.4897 82.8565 81.584 82.2993C79.2591 80.8691 76.9157 79.467 74.625 77.985C73.7072 77.3911 72.888 76.6299 72.6133 75.3343Z" fill="#DA0351"/>
<path d="M125.509 85.2371C123.627 87.8918 113.232 90.4525 110.258 88.9644C110.761 88.1875 111.239 87.4181 111.748 86.669C113.073 84.7188 113.203 83.8097 112.399 81.5827C113.28 80.9235 114.365 81.0466 115.359 80.9426C116.971 80.7742 118.598 80.7398 120.219 80.6817C120.55 80.6701 120.967 80.7036 121.208 80.8914C122.839 82.1613 124.433 83.4803 125.509 85.2371Z" fill="#CD9BAF"/>
<path d="M100.132 88.8476C99.3208 89.4968 98.4472 89.6242 97.598 89.3923C93.2147 88.1957 88.9712 86.6258 84.9699 84.4498C84.837 84.3778 84.7714 84.1816 84.6055 83.9458C85.7761 82.9127 87.0305 82.3898 88.5579 82.9848C91.9152 84.2916 95.2697 85.6068 98.6107 86.9549C99.3739 87.2629 100.046 87.745 100.132 88.8476Z" fill="#CD9BAF"/>
<path d="M115.266 99.024C116.994 97.7272 118.938 97.6357 120.965 98.0049C119.182 98.9996 117.24 99.0998 115.266 99.024Z" fill="#539636"/>
<path d="M122.259 97.6145C122.421 97.289 122.583 96.9642 122.77 96.5893C122.25 96.3164 121.699 96.028 121.148 95.7396C121.896 95.5216 122.645 95.3037 123.408 95.082C123.736 96.9287 123.732 96.936 122.259 97.6145Z" fill="#539636"/>
<path d="M112.821 97.2422C112.175 98.2378 111.129 98.2656 110.375 97.3071C111.191 97.2857 112.006 97.2636 112.821 97.2422Z" fill="#539636"/>
<path d="M100.257 96.854C100.059 97.1039 99.8625 97.3545 99.5473 97.7538C99.0313 97.2437 98.5842 96.8014 98.1367 96.3594C98.8435 96.5242 99.5502 96.6892 100.257 96.854Z" fill="#539636"/>
<path d="M111.434 99.394C112.48 98.894 113.904 98.7476 114.595 99.069C113.541 99.1776 112.488 99.2855 111.434 99.394Z" fill="#539636"/>
<path d="M107.199 99.9687C107.314 99.7873 107.433 99.4463 107.544 99.4492C108.477 99.4736 109.409 99.561 110.342 99.6297C109.294 99.7424 108.247 99.8558 107.199 99.9687Z" fill="#539636"/>
<path d="M116.333 96.8711C115.423 97.2938 114.525 97.8303 113.492 97.1993C114.439 97.0901 115.386 96.9806 116.333 96.8711Z" fill="#539636"/>
<path d="M118.761 96.3125C118.538 96.5119 118.336 96.8431 118.088 96.8825C117.587 96.9619 117.062 96.882 116.547 96.8679C117.285 96.6831 118.023 96.4978 118.761 96.3125Z" fill="#539636"/>
<path d="M102.708 97.1991C102.005 97.8417 101.492 97.2479 100.938 96.9258C101.528 97.0168 102.118 97.1081 102.708 97.1991Z" fill="#539636"/>
<path d="M120.874 95.8164C120.62 96.294 120.408 96.9113 119.781 96.1424C120.146 96.0338 120.509 95.925 120.874 95.8164Z" fill="#539636"/>
<path d="M96.7651 96.1483C96.24 96.8735 96.1237 96.4242 96.0352 95.8945C96.2783 95.9792 96.522 96.0637 96.7651 96.1483Z" fill="#539636"/>
<path d="M90.798 94.1094C90.19 94.7788 90.1698 94.218 90.0938 93.7734C90.3287 93.8857 90.5631 93.9976 90.798 94.1094Z" fill="#539636"/>
<path d="M49.8047 46.0664C49.9827 45.5663 50.0849 45.0212 50.3519 44.5737C51.6778 42.3496 53.7254 40.9411 55.9506 39.744C58.5956 38.3214 61.4747 37.6099 64.4076 37.2436C66.9344 36.9284 69.5036 36.8198 72.052 36.8428C75.2136 36.8706 78.2569 37.619 81.1078 39.0232C81.7067 39.3184 82.2354 39.7557 82.7961 40.1274C82.7562 40.2755 82.7164 40.4239 82.6759 40.5724C82.123 40.4963 81.5578 40.4688 81.0179 40.3363C78.4911 39.7163 76.0009 38.8743 73.4407 38.4883C71.2826 38.1623 69.0442 38.2816 66.8454 38.3458C65.6415 38.3806 64.4486 38.7232 63.2467 38.903C58.9345 39.549 55.1073 41.1453 52.1248 44.459C51.5275 45.1225 50.8328 45.6972 50.1837 46.3129C50.0571 46.2307 49.9312 46.1486 49.8047 46.0664Z" fill="#0B1309"/>
<path d="M87.2974 47.6914C87.4715 47.934 87.6452 48.1773 87.8193 48.42C87.3136 48.5552 86.8135 48.776 86.3009 48.8106C84.1877 48.9522 82.0703 49.0371 79.9546 49.1431C77.7196 49.3352 75.7601 50.1981 74.0028 51.5664C72.9665 52.3737 71.9153 53.1615 70.8706 53.9584C70.8681 53.5892 70.8658 53.22 70.8633 52.8513C72.43 50.863 74.459 49.5401 76.8306 48.7097C76.9289 48.6476 77.0272 48.5852 77.1253 48.5226C79.1177 48.2579 81.1098 47.9934 83.1019 47.7294C83.7154 48.6387 84.3033 48.6246 84.8519 47.6875C85.6672 47.6884 86.4823 47.69 87.2974 47.6914Z" fill="#090B09"/>
<path d="M70.5032 54.2593C67.8992 57.0408 65.1211 59.5984 61.5543 61.1236C61.2577 61.2504 60.9177 61.2764 60.5977 61.3488C60.6921 61.0369 60.6917 60.5487 60.8945 60.4397C64.118 58.712 66.7916 56.2599 69.5729 53.9486C69.6123 53.9161 69.6842 53.9222 69.7407 53.9102C69.9949 54.0269 70.2489 54.143 70.5032 54.2593Z" fill="#090B09"/>
<path d="M77.5043 102.123C76.9232 102.125 76.3414 102.127 75.7601 102.128C75.1692 102.097 74.5787 102.067 73.9883 102.036C74.1688 101.845 74.3472 101.49 74.5291 101.489C76.8262 101.467 79.1234 101.492 81.4212 101.52C81.5072 101.52 81.5919 101.655 81.6775 101.728C80.2863 101.86 78.8953 101.991 77.5043 102.123Z" fill="#539636"/>
<path d="M95.668 101.042C94.7448 101.195 93.8213 101.347 92.8981 101.5C91.6184 101.472 90.3383 101.444 89.0586 101.416C91.2253 100.646 93.4257 100.475 95.668 101.042Z" fill="#539636"/>
<path d="M101.997 100.442C100.367 100.573 98.7357 100.704 97.1055 100.835C97.3219 100.693 97.5295 100.447 97.7562 100.428C99.0985 100.317 100.445 100.256 101.792 100.195C101.856 100.192 101.929 100.356 101.997 100.442Z" fill="#539636"/>
<path d="M84.8515 47.6875C84.3025 48.6253 83.7148 48.639 83.1016 47.7294C83.6847 47.7153 84.2683 47.7016 84.8515 47.6875Z" fill="#0B1309"/>
<path d="M105.152 100.117C104.446 100.205 103.741 100.294 103.035 100.382C103.686 99.8607 104.331 99.2892 105.152 100.117Z" fill="#539636"/>
<path d="M70.5047 54.2605C70.2505 54.1442 69.9964 54.0281 69.7422 53.9114C70.1162 53.5583 70.4901 53.2046 70.8641 52.8516C70.8666 53.2208 70.8691 53.5897 70.8716 53.9585C70.7489 54.0591 70.6269 54.1599 70.5047 54.2605Z" fill="#0B1309"/>
<path d="M79.2226 44.1477C79.1764 44.1282 79.1218 44.1186 79.0874 44.0865C79.066 44.0669 79.0751 44.0143 79.0703 43.9766C79.1277 44.0305 79.1846 44.0849 79.2419 44.1395L79.2226 44.1477Z" fill="#539636"/>
</g>
<defs>
<clipPath id="clip0_1054_118">
<rect width="150" height="110" fill="white"/>
</clipPath>
</defs>
</svg>
