<svg width="150" height="110" viewBox="0 0 150 110" fill="none" xmlns="http://www.w3.org/2000/svg">
<g clip-path="url(#clip0_1054_9251)">
<path d="M48.1711 31.1311L75.202 23.6406L80.6299 35.2563L76.2876 55.8823L45.5657 77.811H25.4825L22.1172 74.4457L23.9627 66.3039L34.8185 49.8031L48.1711 31.1311Z" fill="#D9D9D9"/>
<path d="M85.751 1C88.4289 1.00065 91.1066 1.0013 93.7845 1.00261V8.90801H129.365C129.363 11.5833 129.363 14.2595 129.361 16.9354H124.01V38.9366H129.365C129.364 41.6139 129.363 44.2909 129.363 46.9682H93.9647V71.8333H129.355C129.357 74.5992 129.36 77.365 129.361 80.1306H124.012V102.142H129.366V110.042C128.996 110.085 128.622 110.167 128.248 110.167C110.038 110.173 91.8285 110.172 73.6186 110.169C73.2868 110.169 72.9544 110.128 72.6226 110.106C72.6554 107.445 72.6882 104.784 72.721 102.123H115.682V80.161H72.647C72.6196 78.413 72.5929 76.6644 72.5658 74.9164C72.5645 74.3942 72.5634 73.8718 72.5627 73.3503C72.5705 72.9621 72.5784 72.5746 72.587 72.1864C76.8909 72.139 81.1942 72.0917 85.5849 72.0433V47.0392H72.6324C72.6064 46.5975 72.5803 46.1566 72.5547 45.7156C72.559 44.9229 72.5638 44.1302 72.5681 43.3376C72.5888 41.846 72.6094 40.3553 72.63 38.8643C72.9624 38.888 73.2953 38.9329 73.6277 38.9329C87.1763 38.9373 100.725 38.9384 114.274 38.9312C114.72 38.9312 115.166 38.8413 115.681 38.7862V16.9452H113.42C103.475 16.9452 93.5302 16.9378 83.5857 16.9487C79.9162 16.953 76.2474 16.999 72.5779 17.0257L72.5664 16.8966C72.5638 16.5016 72.5614 16.1069 72.5597 15.7113C72.5608 13.9835 72.5627 12.2555 72.5645 10.5275C72.5753 9.96992 72.587 9.41323 72.5979 8.85633H85.751V1Z" fill="#292623"/>
<path d="M129.355 71.8339H93.9648V46.9688H129.363C129.361 55.2569 129.358 63.5457 129.355 71.8339Z" fill="#954C0B"/>
<path d="M72.5625 73.3511C72.5638 73.8733 72.5649 74.395 72.5655 74.9171C71.6745 75.491 70.7951 76.0824 69.8906 76.635C67.4014 78.1548 65.0524 80.0424 62.3752 81.0891C56.8218 83.2605 53.207 87.55 49.561 91.8576C49.1233 92.3754 48.9946 93.5648 49.2718 94.2066C50.4601 96.9633 53.8273 98.0779 56.6168 97.0404C61.901 95.075 67.2371 93.2502 72.5516 91.3663C72.5431 91.9047 72.5345 92.4434 72.526 92.9827C69.9829 93.7723 67.4277 94.5275 64.8989 95.3627C62.2467 96.2396 59.618 97.1895 56.9814 98.1162C55.8502 98.5135 55.3971 99.2256 55.8556 100.435C57.042 103.568 56.9219 106.844 56.8546 110.112H55.2625C55.038 107.608 54.8397 105.166 54.5942 102.729C54.4127 100.931 53.7303 99.6835 51.8957 98.7356C50.1544 97.8361 48.8745 96.0479 47.3818 94.6608C46.9665 94.2745 46.5722 93.7723 46.0704 93.5873C44.0404 92.8383 42.5903 91.4529 41.3401 89.7485C40.9448 89.2094 40.3408 88.6968 39.722 88.4675C36.3534 87.2163 35.4776 85.8074 36.087 81.9371C35.4235 81.7448 34.7279 81.4397 34.0062 81.3542C31.6255 81.0715 29.2188 80.9758 26.8533 80.6095C23.1274 80.032 20.2834 76.3425 20.048 72.601C19.7971 68.6002 20.5012 65.0028 22.8291 61.6664C23.6333 60.5139 23.9511 58.9921 24.3569 57.6002C24.8567 55.8856 25.2775 54.1418 25.6099 52.3877C25.7803 51.4871 25.8185 50.5173 25.6883 49.6117C24.9355 44.4046 26.6829 40.074 30.2147 36.3457C34.2281 32.1084 39.2945 29.9607 44.9369 28.9418C46.5079 28.6578 48.0545 28.2466 49.6181 27.9222C53.6298 27.09 56.5259 24.8933 58.6547 21.3378C60.8128 17.7326 63.5355 14.4902 66.9248 11.9336C68.5606 10.6993 70.3972 9.73011 72.1428 8.64062C72.2943 8.71292 72.4461 8.78501 72.5983 8.85731C72.5868 9.41464 72.5757 9.97133 72.5642 10.5282C70.5511 11.7812 68.4071 12.8676 66.5536 14.3238C63.3589 16.833 61.4249 20.4055 59.2031 23.7226C57.4393 26.3562 55.1181 28.2692 51.9799 29.0497C49.4017 29.6909 46.8353 30.3987 44.2328 30.9191C38.1086 32.1419 32.9434 34.8517 29.4153 40.1758C27.7887 42.6312 27.176 45.3592 27.3477 48.7788C28.9817 47.6053 30.3452 46.7034 31.6231 45.6929C36.3248 41.9755 41.632 39.3831 47.1981 37.278C47.8295 37.0389 48.5792 37.1117 49.2742 37.0396C49.3083 37.2293 49.3422 37.4187 49.3756 37.6084C48.8606 37.836 48.3432 38.0598 47.8302 38.2921C44.9236 39.6083 41.8571 40.6617 39.1531 42.309C35.5892 44.4803 32.2873 47.0879 28.9307 49.5856C28.3538 50.0151 28.067 50.8345 27.6467 51.4736C27.7765 51.567 27.9057 51.6606 28.0355 51.7546C28.5097 51.5342 29.0023 51.3451 29.4565 51.0891C34.4209 48.2931 39.7148 46.325 45.202 44.8533C45.8746 44.6734 46.6024 44.6994 47.3048 44.6302C47.351 44.8553 47.397 45.0802 47.4437 45.3047C46.7001 45.5868 45.976 45.9439 45.2105 46.1393C39.2326 47.6622 33.6671 50.1812 28.2387 53.0506C27.199 53.6001 26.6423 54.3474 26.5138 55.5276C26.1631 58.7375 25.294 61.7695 23.404 64.4643C22.7969 65.3297 22.3777 66.33 21.9046 67.2847C20.2621 70.5944 21.8518 77.3171 26.1813 78.5855C27.7504 79.0452 29.4403 79.1956 31.0851 79.2714C33.4178 79.3789 35.7674 79.244 37.6611 80.5997C40.4676 78.8493 43.0289 77.0486 45.7697 75.5826C52.5579 71.9513 58.7669 67.5102 64.7528 62.7029C67.2286 60.7141 69.9495 59.0297 72.5588 57.2072V58.5154C71.3251 59.4168 70.0782 60.3005 68.8602 61.223C61.3799 66.8904 54.2392 73.0508 45.6599 77.1176C42.8534 78.4479 40.4389 80.3201 38.3361 82.5854C37.003 84.0217 37.7551 86.1859 39.6801 86.5552C40.8034 86.7706 41.7029 86.4534 42.5582 85.6103C44.7877 83.4129 47.064 81.2571 49.4138 79.1889C51.9617 76.9454 54.366 74.3846 57.2743 72.7403C62.1861 69.9636 67.4446 67.7997 72.5577 65.3784C72.4012 66.0085 72.2453 66.6387 72.0887 67.2682C65.8451 70.0668 59.2218 72.158 54.0768 76.9934C50.634 80.2284 47.1691 83.4407 43.7221 86.6711C42.9288 87.4141 42.5065 88.291 43.1033 89.3447C44.5615 91.9158 47.0223 92.2651 49.0347 90.201C49.4525 89.7722 49.8068 89.2778 50.2458 88.8733C52.7387 86.5741 54.95 83.7774 57.8184 82.1197C62.7712 79.2581 67.9776 76.8369 72.5625 73.3511Z" fill="#0D0D0A"/>
<path d="M129.365 1.00391H93.7852V8.90931H129.365V1.00391Z" fill="#934C0B"/>
<path d="M56.8552 110.11C56.9232 106.843 57.0433 103.566 55.8563 100.434C55.3984 99.2236 55.8509 98.5121 56.9825 98.1148C59.6185 97.188 62.2473 96.2383 64.9002 95.3611C67.4281 94.5259 69.9836 93.7708 72.5266 92.9805C72.5916 96.0277 72.6571 99.0749 72.7218 102.123C72.6893 104.784 72.6565 107.445 72.6237 110.105C67.3675 110.107 62.1114 110.108 56.8552 110.11Z" fill="#0642F2"/>
<path d="M129.363 16.9375H124.008V38.9387H129.363V16.9375Z" fill="#934C0B"/>
<path d="M129.366 102.141H124.012V80.1289H129.361C129.363 87.4661 129.364 94.8033 129.366 102.141Z" fill="#934C0B"/>
<path d="M72.5961 8.85633C72.4446 8.78425 72.2922 8.71195 72.1406 8.63987C72.2935 8.02847 72.5579 7.4212 72.5772 6.80567C72.6357 4.9502 72.5985 3.09126 72.5985 1H85.7492V8.85633H72.5961Z" fill="#934C0B"/>
<path d="M72.558 57.2063C69.9487 59.029 67.2278 60.7132 64.7521 62.7022C58.7662 67.5094 52.5571 71.9505 45.769 75.5811C43.0281 77.047 40.4666 78.8484 37.6608 80.5984C35.7673 79.2434 33.417 79.378 31.0844 79.2705C29.4395 79.1947 27.7497 79.0443 26.1806 78.5846C21.8511 77.3165 20.2614 70.5937 21.9038 67.2831C22.3769 66.3291 22.7966 65.3289 23.4032 64.4634C25.2932 61.7686 26.1623 58.7366 26.513 55.527C26.6422 54.3465 27.1982 53.5994 28.2384 53.0499C33.6669 50.1803 39.2318 47.6615 45.2097 46.1384C45.9752 45.943 46.6993 45.5859 47.4429 45.3038C47.3969 45.0789 47.3502 44.8544 47.304 44.6295C46.6016 44.6985 45.8738 44.6718 45.2012 44.8527C39.7141 46.3241 34.4201 48.2922 29.4558 51.0882C29.0016 51.3442 28.5096 51.5336 28.0347 51.7537C27.9056 51.6597 27.7757 51.5663 27.6459 51.4728C28.0669 50.8336 28.353 50.0142 28.9306 49.5847C32.2865 47.087 35.5884 44.4797 39.1524 42.3083C41.8561 40.6608 44.9229 39.6074 47.8294 38.2912C48.3424 38.0589 48.8598 37.8351 49.3753 37.6071C49.3414 37.4178 49.3073 37.2284 49.2741 37.0387C48.5789 37.111 47.8294 37.038 47.1974 37.2771C41.6312 39.3822 36.324 41.9746 31.6228 45.6921C30.3449 46.7025 28.9809 47.6044 27.3476 48.7781C27.1758 45.3583 27.7883 42.6296 29.4152 40.1751C32.9433 34.851 38.1085 32.141 44.232 30.9175C46.8352 30.3978 49.4009 29.69 51.9791 29.0488C55.1173 28.2683 57.4385 26.3553 59.203 23.7212C61.4241 20.4046 63.3588 16.8322 66.5528 14.323C68.4063 12.8668 70.5503 11.7805 72.5641 10.5273C72.5624 12.2554 72.5604 13.9834 72.5587 15.7114C66.7463 18.007 58.0354 26.3614 57.6133 30.4894C58.7699 29.0768 59.6839 27.9815 60.576 26.8686C63.8931 22.7277 67.59 19.0454 72.5654 16.8964L72.5773 17.0256C72.5702 18.266 72.5634 19.5057 72.5563 20.7455C71.6531 21.0288 70.6196 21.118 70.0143 22.61C71.0775 22.3558 71.8022 22.1819 72.5276 22.0084C72.535 23.3561 72.5428 24.7037 72.5502 26.0515C70.8313 26.5457 69.0414 26.8733 67.4056 27.5642C61.968 29.8604 58.1311 33.8853 55.3466 39.0233C53.5912 42.2634 50.9941 45.1831 51.7292 49.2936C51.7468 49.3913 51.6139 49.5161 51.4891 49.74C51.0397 49.7758 50.5236 49.8298 50.0056 49.8565C40.0226 50.3666 31.8134 54.053 26.5099 62.9484C26.0332 63.7483 25.6159 64.5933 25.0646 65.338C22.9047 68.2584 22.8852 71.3506 24.1566 74.6058C25.2003 77.2787 26.2624 77.838 29.0912 77.0727C29.4757 76.9689 29.8755 76.8779 30.2248 76.6966C35.2426 74.0964 40.3982 71.7205 45.2266 68.8062C50.5477 65.5953 53.7115 60.2681 57.1754 55.2951C57.6793 54.5717 58.3391 53.8013 59.109 53.4422C63.5603 51.3679 68.0668 49.4099 72.5543 47.4133C72.5556 50.6777 72.5569 53.942 72.558 57.2063Z" fill="#539636"/>
<path d="M72.5504 26.0502C72.543 24.7026 72.5352 23.3547 72.5273 22.0071C72.5369 21.5861 72.5467 21.1653 72.5564 20.7443C72.5632 19.504 72.5703 18.2642 72.5771 17.0245C76.2465 16.9978 79.9154 16.9511 83.5848 16.9474C93.5296 16.9366 103.474 16.9437 113.419 16.9437H115.68V38.7849C115.166 38.8401 114.719 38.9297 114.273 38.9297C100.724 38.9371 87.1755 38.9358 73.6268 38.9317C73.2946 38.9317 72.9622 38.8867 72.6292 38.8624C72.5953 37.8993 72.5612 36.9368 72.5273 35.9737C72.5291 35.6741 72.531 35.3745 72.5328 35.0746C72.5382 33.4256 72.543 31.7758 72.5486 30.1268C72.5473 29.2036 72.546 28.2804 72.5449 27.3572C72.5467 26.9217 72.5486 26.4857 72.5504 26.0502Z" fill="#944C0B"/>
<path d="M72.7221 102.122C72.6572 99.0748 72.5923 96.0276 72.5273 92.9804C72.5358 92.4417 72.5443 91.9031 72.5527 91.364C72.5849 87.6296 72.6166 83.8945 72.6481 80.1602H115.683V102.122H72.7221Z" fill="#944C0B"/>
<path d="M72.5599 57.2064C72.5588 53.942 72.5575 50.6777 72.5562 47.4134C72.5836 47.289 72.609 47.1641 72.6333 47.0391H85.5858V72.0432C81.1957 72.0918 76.8918 72.1392 72.5883 72.1869C72.4222 70.547 72.2562 68.9076 72.0898 67.2675C72.2464 66.6372 72.4029 66.0076 72.5588 65.3775C72.5592 63.0898 72.5599 60.8018 72.5599 58.5147V57.2064Z" fill="#934C0B"/>
<path d="M72.6463 80.1626C72.6149 83.8977 72.5827 87.632 72.5512 91.3671C67.2369 93.2503 61.9006 95.0761 56.6165 97.0412C53.8272 98.0784 50.4597 96.9635 49.2708 94.2074C48.9942 93.5652 49.1223 92.3758 49.5609 91.8578C53.2067 87.5502 56.8214 83.2609 62.3748 81.0895C65.0514 80.0432 67.4006 78.1556 69.8898 76.6351C70.7941 76.0832 71.6741 75.4912 72.5651 74.918C72.5925 76.666 72.6192 78.4146 72.6463 80.1626Z" fill="#549836"/>
<path d="M72.0869 67.2695C72.2532 68.909 72.4187 70.5488 72.585 72.1883C72.577 72.5765 72.5685 72.964 72.5607 73.3522C67.9758 76.838 62.7694 79.2587 57.8166 82.1209C54.9483 83.7786 52.7369 86.5746 50.244 88.8738C49.805 89.2786 49.4513 89.7729 49.0329 90.2017C47.0205 92.2663 44.5597 91.9169 43.1016 89.3452C42.5047 88.2922 42.927 87.4153 43.7203 86.6723C47.1673 83.4412 50.6322 80.2298 54.075 76.9939C59.22 72.1588 65.8433 70.0679 72.0869 67.2695Z" fill="#AD522A"/>
<path d="M44.1149 67.3729L44.1446 67.3412C44.3999 67.2672 44.6553 67.1938 44.9113 67.1199C45.0617 66.9258 45.2126 66.7311 45.3637 66.5363L45.3134 66.5789C45.6093 66.3733 45.9052 66.1683 46.2007 65.9627C50.6507 62.8043 53.4717 58.3556 56.2041 53.8655C54.2626 52.0827 52.2647 51.3563 49.3704 51.3684C39.7005 51.409 29.3907 57.3415 25.1863 68.0394C24.3226 70.2375 24.4105 72.4719 25.4477 74.6354C26.0161 75.8204 26.8603 76.3658 28.1916 75.909C28.8825 75.6719 29.6231 75.5451 30.2727 75.2286C33.4994 73.6547 36.7219 72.0691 39.905 70.4103C40.8833 69.9001 41.7336 69.1469 42.6428 68.5045L42.561 68.5319C42.8786 68.4064 43.1965 68.2809 43.5143 68.1558C43.5647 68.0551 43.6394 67.9806 43.7395 67.9309C43.8643 67.7452 43.9898 67.559 44.1149 67.3729ZM72.6326 47.0378C72.6083 47.1627 72.5822 47.2877 72.5549 47.4119C68.0673 49.4092 63.5613 51.3665 59.11 53.4408C58.3396 53.7999 57.6805 54.5702 57.1757 55.2943C53.7125 60.2667 50.5482 65.5938 45.2278 68.8048C40.3987 71.7191 35.2437 74.095 30.2253 76.6958C29.8766 76.8765 29.4763 76.9674 29.0918 77.0712C26.2634 77.8366 25.2008 77.2775 24.157 74.6044C22.8857 71.3498 22.9057 68.2572 25.0656 65.3372C25.6171 64.5919 26.0337 63.7471 26.5109 62.947C31.8138 54.0515 40.0231 50.3651 50.0067 49.8551C50.5239 49.8291 51.0402 49.7744 51.4903 49.7385C51.6151 49.5153 51.748 49.3905 51.7304 49.2921C50.9953 45.1817 53.5918 42.2619 55.3478 39.0219C58.1316 33.8839 61.9685 29.859 67.4062 27.5628C69.0419 26.8719 70.8318 26.5445 72.5512 26.0508C72.5494 26.4861 72.5477 26.9216 72.5457 27.3578C70.2495 28.2688 67.9531 29.1799 65.6562 30.0909C59.0991 33.6809 56.0779 40.022 53.1328 46.37C52.8099 47.0645 53.2322 48.3631 53.7144 49.1248C55.4266 51.8281 58.2984 52.5801 61.6418 51.0797C65.3373 49.4202 68.9219 47.5133 72.5549 45.7143C72.5805 46.1559 72.6065 46.5969 72.6326 47.0378Z" fill="#0E120D"/>
<path d="M68.5233 29.9654C67.9636 31.0153 67.4164 31.6274 67.3813 32.2672C67.3613 32.6365 68.1685 33.0508 68.6028 33.4451C69.0711 32.8871 69.7285 32.3873 69.925 31.7462C70.0207 31.4339 69.2565 30.8584 68.5233 29.9654ZM68.1273 35.534C66.9839 35.3624 65.8183 34.8116 65.2809 36.1829C65.0581 36.7513 65.1085 37.7412 65.473 38.1365C65.8393 38.5351 66.8869 38.7269 67.3945 38.4909C68.5602 37.9485 68.3887 36.7997 68.1273 35.534ZM72.5677 43.3382C71.4735 43.61 70.3937 43.9878 69.2832 44.1339C64.8629 44.7156 61.8431 41.5865 62.3579 37.1528C62.6811 34.3696 64.3104 32.4214 66.1656 30.5646C68.2061 29.1405 70.3812 29.6925 72.5488 30.1293C72.5434 31.7783 72.538 33.4275 72.533 35.0774C72.1322 34.7686 71.7318 34.4599 70.953 33.8593C70.7068 34.7886 70.1894 35.6384 70.4285 36.0622C70.9889 37.0577 71.8404 36.6336 72.5269 35.9756C72.5617 36.9387 72.5955 37.9018 72.6294 38.8649C72.6088 40.3559 72.5881 41.8472 72.5677 43.3382Z" fill="#080808"/>
<path d="M72.566 16.896C67.5906 19.045 63.894 22.7273 60.5763 26.8674C59.6846 27.981 58.7701 29.0764 57.6133 30.4889C58.0354 26.3609 66.7471 18.0061 72.5593 15.7109C72.5617 16.1057 72.5637 16.5012 72.566 16.896Z" fill="#0E120D"/>
<path d="M72.5595 58.5156C72.5588 60.8034 72.5589 63.0907 72.5582 65.3784C67.4453 67.8004 62.1866 69.9637 57.275 72.7404C54.3667 74.3848 51.9624 76.9461 49.4143 79.1889C47.0647 81.2578 44.7885 83.4136 42.5589 85.611C41.7037 86.4534 40.8048 86.7706 39.6808 86.5552C37.7556 86.1866 37.0036 84.0219 38.3369 82.5855C40.4396 80.3201 42.8542 78.4479 45.6606 77.1177C54.2399 73.0509 61.3807 66.8904 68.8609 61.2231C70.0787 60.3005 71.3259 59.4169 72.5595 58.5156Z" fill="#AB522A"/>
<path d="M72.5576 20.7461C72.5478 21.1669 72.5387 21.5879 72.529 22.0088C71.8042 22.1823 71.0788 22.3558 70.0156 22.6105C70.6209 21.1178 71.6544 21.0292 72.5576 20.7461Z" fill="#0E120D"/>
<path d="M72.5495 30.1289C70.3822 29.6927 68.2067 29.1408 66.1669 30.5642C65.9965 30.4072 65.8267 30.2494 65.6562 30.0924C67.9531 29.1814 70.2496 28.2704 72.5458 27.3594C72.5471 28.2826 72.5482 29.2057 72.5495 30.1289Z" fill="#E4E4E3"/>
<path d="M72.5272 35.9756C71.8406 36.6337 70.9885 37.0577 70.4287 36.0624C70.1897 35.6384 70.7071 34.7886 70.9533 33.8594C71.7314 34.4599 72.1324 34.7687 72.5328 35.0774C72.5309 35.377 72.5291 35.676 72.5272 35.9756Z" fill="#E4E4E3"/>
<path d="M41.1826 58.8615C40.1162 59.8103 39.7942 60.7522 40.9714 61.5195C41.3457 61.764 42.5709 61.4965 42.7109 61.1671C43.2374 59.9308 42.4198 59.2825 41.1826 58.8615ZM38.9674 62.2928C38.962 62.064 38.9572 61.8354 38.9518 61.6068C38.2414 61.1586 37.5714 60.532 36.7986 60.3555C36.5214 60.2923 35.7233 61.2757 35.6449 61.8475C35.512 62.818 36.1768 63.578 37.2122 63.3954C37.8423 63.2844 38.3853 62.6774 38.9674 62.2928ZM37.7097 56.1991C38.3373 55.8048 38.9227 55.1795 39.6001 55.0551C43.6256 54.3145 48.7975 58.6942 47.0786 62.9926C46.7601 63.7896 46.4575 64.5928 46.1476 65.3933C45.8691 65.7882 45.5901 66.1831 45.3111 66.5785L45.3615 66.5359C45.1869 66.5579 45.0128 66.5798 44.838 66.6015C44.6063 66.8477 44.374 67.0946 44.1424 67.3408L44.1126 67.3725C43.9878 67.5586 43.8627 67.7448 43.7372 67.9311C43.6371 67.9802 43.5624 68.0553 43.5123 68.1554C43.1944 68.2809 42.8772 68.4066 42.5594 68.5321L42.6406 68.5043C41.5137 68.5223 40.3867 68.5601 39.2605 68.5545C36.8143 68.543 34.8741 67.6072 33.7217 65.3679C32.5425 63.0771 32.7857 60.7698 34.2894 58.8162C35.1505 57.6972 36.5874 57.0195 37.7655 56.1437C37.7361 56.4659 37.5592 56.9353 37.706 57.0821C38.1571 57.5339 38.7025 57.9275 39.2816 58.1865C39.4097 58.2436 39.8276 57.6535 40.112 57.3617C39.6342 56.9383 39.1919 56.4579 38.6593 56.12C38.4459 55.9848 38.0323 56.1632 37.7097 56.1991Z" fill="#080808"/>
<path d="M45.3125 66.5798C45.5915 66.1848 45.8701 65.7895 46.149 65.3945C46.166 65.5843 46.1829 65.7743 46.1998 65.964C45.9039 66.169 45.6086 66.3746 45.3125 66.5798Z" fill="#E4E4E3"/>
<path d="M44.1445 67.3411C44.3764 67.0948 44.6085 66.848 44.8404 66.6016L44.9112 67.1202C44.6554 67.1936 44.3999 67.2677 44.1445 67.3411Z" fill="#549836"/>
<path d="M44.9106 67.1231C44.887 66.9503 44.8633 66.7772 44.8398 66.6044C45.0144 66.5827 45.1892 66.5608 45.3631 66.5391C45.2128 66.7336 45.0617 66.9284 44.9106 67.1231Z" fill="#E4E4E3"/>
<path d="M41.1853 58.8633C42.4224 59.2843 43.2401 59.9326 42.7136 61.1688C42.5735 61.4982 41.3483 61.7657 40.974 61.5212C39.7968 60.7539 40.1188 59.8121 41.1853 58.8633Z" fill="#E4E4E3"/>
<path d="M37.7096 56.1991C38.0322 56.1635 38.4454 55.985 38.6595 56.1203C39.1921 56.4581 39.6335 56.9386 40.112 57.3619C39.8276 57.6535 39.4096 58.2436 39.2817 58.1868C38.7025 57.9277 38.1567 57.5341 37.7059 57.0823C37.5591 56.9355 37.7363 56.4661 37.7654 56.1439L37.7096 56.1991Z" fill="#E4E4E3"/>
</g>
<defs>
<clipPath id="clip0_1054_9251">
<rect width="150" height="110" fill="white"/>
</clipPath>
</defs>
</svg>
