<svg width="150" height="110" viewBox="0 0 150 110" fill="none" xmlns="http://www.w3.org/2000/svg">
<g clip-path="url(#clip0_1054_5161)">
<path d="M42.8945 49.1156C42.8945 44.8706 48.2812 35.7695 50.9745 31.7496L63.999 25.9609L85.5859 28.8553C102.55 32.5938 137.37 41.1079 140.94 45.2565C144.51 49.405 140.739 55.4268 138.407 57.9192L107.655 66.1198L72.8026 71.7878H44.3417C43.8593 65.9992 42.8945 53.3606 42.8945 49.1156Z" fill="#D9D9D9"/>
<path d="M121.82 54.9626C122.864 54.9392 123.618 54.1853 123.613 53.1667C123.607 52.1168 122.964 51.7917 122.038 51.7905C120.882 51.7892 119.9 52.5466 119.915 53.4303C119.929 54.2422 120.851 54.9841 121.82 54.9626ZM123.854 47.3986C123.826 46.421 123.162 45.7772 122.208 45.8035C121.147 45.8327 120.156 46.9024 120.178 47.9933C120.198 48.9171 120.924 49.5519 121.891 49.4912C122.942 49.4253 123.883 48.4222 123.854 47.3986ZM127.322 53.172C128.9 53.1607 130.118 52.0756 130.088 50.7058C130.062 49.4504 128.692 48.3373 127.166 48.3312C125.777 48.3264 124.775 49.3797 124.809 50.811C124.842 52.201 125.886 53.1821 127.322 53.172ZM41.5173 53.0302C41.4331 51.8693 41.3972 50.8804 41.2621 49.906C41.231 49.6817 40.8502 49.3271 40.641 49.3344C38.8391 49.3959 37.0234 49.4193 35.2441 49.6752C34.1184 49.8373 33.7407 50.7572 34.3611 51.7186C34.7277 52.2871 35.4587 52.9108 36.0781 52.9711C37.8138 53.1409 39.5762 53.0302 41.5173 53.0302ZM70.6188 51.0268C70.6439 49.5049 69.7734 48.5358 68.3422 48.4909C66.5434 48.434 64.6582 49.9663 64.5854 51.544C64.5178 53.0164 65.7086 54.0922 67.3977 54.083C69.3436 54.0729 70.5882 52.8915 70.6188 51.0268ZM67.758 39.5202C65.7175 39.5363 64.0077 41.1261 63.9766 43.0361C63.9491 44.7555 65.4631 46.1067 67.4184 46.1072C69.4691 46.1084 71.1299 44.6173 71.1545 42.7551C71.1784 40.8779 69.7375 39.5052 67.758 39.5202ZM81.084 28.1143C75.0023 24.1998 63.9062 24.7347 58.3056 29.0615C65.9389 27.754 73.3928 27.7354 81.084 28.1143ZM77.5365 43.2968C75.0464 43.3171 73.0653 45.1979 73.0646 47.5425C73.0646 50.0495 74.9562 52.2801 77.0935 52.2926C79.5792 52.3069 81.8913 50.0888 81.8517 47.7268C81.811 45.2763 79.865 43.2782 77.5365 43.2968ZM57.0972 67.9584C61.2224 73.6902 78.8817 73.9207 83.3541 68.4997C74.6195 67.4102 65.9848 67.8108 57.0972 67.9584ZM90.2658 62.4505C90.163 62.3065 90.0601 62.1623 89.9573 62.0183C89.6828 61.9925 89.405 61.9245 89.1346 61.9479C84.7704 62.3263 80.4096 62.7448 76.0431 63.095C70.9654 63.5021 65.8861 63.9052 60.8015 64.2016C58.5673 64.3313 56.3177 64.1878 54.0751 64.1825C53.6711 64.1818 53.2664 64.2496 52.577 64.3116C53.9694 65.8649 54.9248 67.5144 57.2169 67.0588C58.0999 66.8837 59.0145 66.7927 59.9149 66.7898C65.3463 66.7693 70.7797 66.7062 76.2092 66.8243C78.9145 66.8829 81.6103 67.3103 84.3136 67.533C84.7118 67.5658 85.2617 67.525 85.5119 67.2824C87.132 65.7083 88.6886 64.0685 90.2658 62.4505ZM85.22 61.0694C86.748 61.0694 88.1739 61.0313 89.5967 61.0827C90.5839 61.1186 91.1059 60.7265 91.5757 59.8343C96.1271 51.1986 94.541 39.1579 86.5878 31.7062C85.2834 30.4836 83.8761 29.7053 82.0939 29.4489C74.4546 28.35 66.8577 28.7692 59.2747 29.9641C57.1368 30.3013 55.1662 30.8312 53.5539 32.5427C46.0168 40.5436 44.7505 51.9559 50.4019 61.4838C51.0884 62.6406 51.8158 63.2863 53.234 63.0646C53.921 62.957 54.6552 63.1589 55.3689 63.2086C56.8138 63.3104 58.2596 63.4042 59.9079 63.5147C59.1163 62.2014 58.4023 61.2392 57.918 60.1727C56.2328 56.4631 56.1826 52.4605 56.8623 48.6337C57.8302 43.1849 60.8314 38.9678 66.5079 37.5011C72.0732 36.0634 77.4128 36.874 82.2606 40.0802C84.7675 41.7375 86.3218 44.1697 86.8558 47.0816C87.6257 51.2811 87.2784 55.4455 85.782 59.4812C85.5883 60.0029 85.4101 60.5316 85.22 61.0694ZM108.985 41.7807C110.023 41.3125 111.062 40.8443 112.1 40.3762C112.253 40.3595 112.405 40.3422 112.558 40.3248C113.948 39.9686 115.338 39.6123 116.728 39.2558C116.921 39.217 117.115 39.1782 117.308 39.1393C119.691 39.1333 122.074 39.1273 124.457 39.122C124.747 39.1651 125.037 39.2086 125.326 39.2517C126.097 39.3803 126.867 39.5088 127.637 39.6367C127.753 39.6864 127.869 39.736 127.985 39.7855C128.537 39.9208 129.089 40.0559 129.641 40.1909C129.749 40.2512 129.856 40.3118 129.964 40.3721C130.497 40.5629 131.06 40.6943 131.556 40.9531C134.459 42.4669 137.347 44.01 140.239 45.5435C140.526 45.5585 140.813 45.5734 141.1 45.5889C140.828 45.1607 140.638 44.6335 140.268 44.3233C138.758 43.0583 137.193 41.8595 135.647 40.6364C135.54 40.5609 135.432 40.4857 135.324 40.4097C132.587 39.0699 129.868 37.6758 126.749 37.43C126.658 37.0786 126.566 36.7269 126.474 36.3755C126.765 36.3953 127.056 36.4155 127.346 36.4353C127.646 36.504 127.946 36.5728 128.246 36.6408C128.422 36.6594 128.597 36.6775 128.773 36.6953C128.991 36.7677 129.208 36.84 129.425 36.9124C132.499 38.203 135.575 39.4939 138.718 40.8139C138.989 39.7114 138.355 38.976 137.534 38.4912C136.186 37.6943 134.751 37.0446 133.353 36.3323C133.229 36.2648 133.106 36.198 132.983 36.1304C132.63 36.0173 132.276 35.9037 131.922 35.7908C131.782 35.7197 131.643 35.6478 131.503 35.5767C130.974 35.465 130.445 35.3538 129.916 35.2419C129.822 35.2269 129.727 35.212 129.634 35.1965L120.174 34.2274C119.308 33.5632 118.442 33.5651 117.576 34.2269C115.091 34.5456 112.607 34.8642 110.123 35.1828C110.029 35.2006 109.935 35.218 109.841 35.2354C109.027 35.4452 108.213 35.655 107.399 35.8644C107.257 35.9425 107.115 36.0209 106.973 36.0993C105.93 36.4831 104.887 36.8668 103.844 37.2501C103.744 37.3087 103.644 37.3668 103.545 37.4254C102.486 37.7558 101.428 38.0865 100.37 38.4172C100.374 38.2288 100.379 38.0405 100.383 37.8528C103.012 36.2727 105.852 35.2402 108.843 34.6022C108.984 34.5306 109.125 34.4582 109.266 34.3864C109.421 34.3673 109.577 34.3483 109.733 34.329C109.863 34.2602 109.994 34.1915 110.123 34.1227C110.292 34.0989 110.462 34.0743 110.631 34.0499C110.844 33.9799 111.056 33.91 111.269 33.8401C111.522 33.8094 111.776 33.779 112.03 33.7486C112.255 33.678 112.481 33.6068 112.706 33.5357C113.057 33.513 113.407 33.4903 113.758 33.4677C114.266 33.4018 114.774 33.3367 115.282 33.2708L120.748 33.2716C122.014 33.3391 123.281 33.4071 124.548 33.4746C125.191 33.4993 125.835 33.5243 126.479 33.5489C126.62 33.6121 126.761 33.6756 126.902 33.7395C127.718 33.8736 128.534 34.0074 129.35 34.142C129.487 34.1999 129.624 34.2578 129.76 34.3164C130.669 34.4356 131.577 34.555 132.485 34.6741C132.531 34.7141 132.575 34.7542 132.621 34.7942C132.583 34.7474 132.544 34.7009 132.506 34.6543C131.451 33.9841 130.396 33.314 129.342 32.6437C129.119 32.5673 128.897 32.4913 128.675 32.4148L128.194 32.3507C128.054 32.279 127.915 32.2072 127.777 32.1363C127.629 32.1206 127.483 32.1051 127.336 32.0902C127.148 32.0685 126.959 32.047 126.77 32.026C125.716 31.8606 124.662 31.6956 123.609 31.5299C123.418 31.5145 123.228 31.4988 123.038 31.4833C122.276 31.4074 121.513 31.3314 120.751 31.2561C120.363 31.2513 119.974 31.2465 119.585 31.2417C116.435 31.1773 113.285 31.1122 110.135 31.0468C109.105 30.3275 108.042 30.5369 106.973 30.9368C105.159 30.9423 103.344 30.9481 101.531 30.9542C101.334 30.9853 101.136 31.0169 100.94 31.0487C98.8366 31.3799 96.7334 31.711 94.8268 32.0111C96.1833 35.1917 97.4191 38.0906 98.6555 40.9895C98.8456 40.9765 99.0356 40.964 99.2257 40.9507C99.6765 40.7529 100.127 40.5544 100.579 40.3566C100.701 40.2889 100.823 40.2213 100.944 40.1538C102.813 39.5453 104.681 38.9372 106.55 38.3287C106.69 38.2587 106.83 38.1888 106.971 38.1188C107.5 37.9975 108.029 37.8767 108.558 37.7554C108.698 37.6883 108.838 37.622 108.977 37.5549C109.143 37.5323 109.309 37.5096 109.475 37.4869C109.692 37.4109 109.908 37.335 110.125 37.259C110.288 37.2375 110.452 37.2161 110.615 37.1946C110.833 37.1283 111.051 37.0617 111.269 36.9949C112.114 36.8765 112.96 36.758 113.805 36.6398C114.006 36.5889 114.206 36.5381 114.407 36.4867C115.115 36.3977 115.823 36.2327 116.531 36.2327C119.664 36.2337 122.798 36.2821 125.931 36.3133C125.92 36.6295 125.909 36.9459 125.899 37.2621C122.747 37.2609 119.595 37.2602 116.443 37.259C116.064 37.32 115.686 37.381 115.307 37.4421C113.389 37.7517 111.47 38.0614 109.552 38.3711C109.458 38.3873 109.363 38.4027 109.268 38.4189L107.695 38.7358C107.55 38.8159 107.404 38.896 107.258 38.9756C106.823 39.0836 106.389 39.1914 105.953 39.299C105.816 39.3702 105.679 39.4406 105.542 39.5117C103.61 40.2464 101.704 41.0674 99.7322 41.6731C98.9442 41.9152 98.9399 42.2864 98.9956 42.8694C99.0607 43.093 99.1258 43.3159 99.1912 43.5394C99.2252 43.8766 99.2592 44.2133 99.2927 44.5505C99.3518 44.6916 99.4112 44.8327 99.4703 44.9731C99.5002 45.5213 99.5301 46.0696 99.56 46.6178C99.6126 46.8301 99.6647 47.0428 99.7172 47.255C100.023 47.2263 100.4 47.303 100.621 47.1516C101.982 46.2215 103.272 45.1866 104.654 44.2915C105.91 43.4779 107.252 42.7975 108.557 42.058C108.7 41.9654 108.842 41.8728 108.985 41.7807ZM11.5313 64.4862C12.587 61.8618 13.5537 59.1966 14.725 56.6245C15.8615 54.1279 17.2078 51.7263 18.4628 49.283C18.5942 49.0283 18.7257 48.7743 18.8578 48.5201C20.6234 44.1386 23.5522 40.9782 28.1501 39.4729C28.8587 39.2409 29.6513 38.6873 30.0107 38.0578C33.0495 32.7279 37.7629 29.2181 42.8111 26.0483C45.7184 24.2224 48.5505 22.262 51.5522 20.6084C53.357 19.6149 55.4234 19.0959 57.3722 18.3636C57.5613 18.3139 57.7502 18.2642 57.939 18.2148C58.2272 18.1651 58.5155 18.1154 58.803 18.0657C59.0888 18.0175 59.3746 17.969 59.6602 17.9205C60.4272 17.8769 61.1944 17.8332 61.9614 17.7891C62.8126 17.7895 63.664 17.7903 64.5154 17.7903C65.1855 17.8477 65.8565 17.9051 66.5272 17.9625C66.7173 17.9994 66.9073 18.0365 67.0981 18.0737C67.1454 18.0693 67.2009 18.0467 67.2392 18.0635C70.9015 19.6364 74.9041 19.9065 78.6658 21.0377C81.2808 21.8233 83.7468 23.1559 86.1956 24.4077C87.0237 24.831 87.569 24.8515 88.4059 24.5155C91.712 23.1863 95.0629 21.9704 98.4008 20.722C98.5706 20.6588 98.7749 20.6868 98.9628 20.6725C99.1499 20.633 99.3369 20.5942 99.524 20.5553C106.085 19.338 112.166 20.3621 117.582 24.4407C117.952 24.7193 118.234 25.1151 118.557 25.4559C118.21 25.4779 117.863 25.5005 117.516 25.5227C115.816 24.5321 114.115 23.542 112.414 22.5522C112.296 22.4904 112.178 22.4294 112.06 22.3679L109.839 21.748L109.409 21.5399C109.074 21.5083 108.74 21.4772 108.406 21.4461C108.313 21.4335 108.22 21.4214 108.128 21.4096C105.482 21.3534 102.837 21.2965 100.192 21.2403C99.8709 21.3204 99.5499 21.4 99.2288 21.4801C98.9406 21.5568 98.6531 21.6325 98.3649 21.7092C98.271 21.7222 98.1772 21.7348 98.0827 21.748C97.3485 21.9571 96.6138 22.1658 95.8791 22.3751C95.7559 22.4366 95.6321 22.4989 95.5084 22.5604C93.1133 23.5391 90.7183 24.5184 88.6983 25.3435C89.8777 26.721 90.9916 28.0799 92.1736 29.3765C92.772 30.0328 93.4937 30.5777 94.1601 31.1725L94.5984 31.1013C94.8046 31.0569 95.0111 31.0135 95.2178 30.9691C95.3123 30.9537 95.4066 30.9375 95.5012 30.9218C96.704 30.7151 97.9063 30.5082 99.1085 30.3013C99.3388 30.2357 99.5689 30.1698 99.799 30.104C100.473 30.021 101.147 29.9385 101.82 29.8553C102.006 29.8495 102.192 29.8427 102.378 29.8362C103.147 29.8362 103.914 29.8367 104.682 29.8374C104.775 29.8399 104.868 29.8427 104.962 29.8452C105.461 29.8787 105.961 29.9115 106.46 29.945C107.213 29.9838 107.966 30.0234 108.719 30.0622C109.573 30.0777 110.426 30.0933 111.28 30.1088C111.56 30.1233 111.84 30.137 112.12 30.1507C114.134 30.1442 116.148 30.137 118.162 30.1305C118.256 30.122 118.35 30.1136 118.444 30.1052C119.019 29.9766 119.594 29.8476 120.4 29.6672C119.875 28.7164 119.454 27.9525 119.032 27.1884C119.296 27.1004 119.56 27.0126 119.823 26.9253C120.183 27.48 120.669 27.9925 120.877 28.5999C121.352 29.9814 122.35 30.4055 123.683 30.6223C125.794 30.9667 127.899 31.4001 129.966 31.9503C131.832 32.4469 133.494 33.3116 134.535 35.1218C134.862 35.6886 135.607 36.0233 136.181 36.4358C137.029 37.045 138.006 37.5229 138.718 38.2587C139.225 38.7824 139.62 39.6314 139.649 40.3511C139.695 41.5308 140.074 42.4275 140.835 43.3009C142.989 45.7712 143.637 50.0148 142.308 52.4451C142.094 52.344 141.878 52.2422 141.664 52.1414C142.621 49.1831 142.037 47.682 139.288 46.1431C137.415 45.0944 135.542 44.0435 133.638 43.0522C126.584 39.3779 119.298 38.6615 111.802 41.5402C107.519 43.1844 103.897 45.9398 100.297 48.7C99.9922 48.9338 99.8583 49.4892 99.792 49.9185C99.4703 51.9878 99.3914 54.1173 98.8424 56.1206C98.4789 57.4477 98.9309 57.8939 99.9635 58.1466C103.43 58.9944 106.879 59.9785 110.393 60.5417C112.636 60.9008 114.983 60.6092 117.338 60.6092C117.261 60.4088 117.233 60.2696 117.161 60.1589C114.668 56.3621 114.584 51.2499 117.149 47.606C119.753 43.9053 123.309 43.0923 127.837 44.3419C130.682 45.1267 132.855 47.0483 133.475 50.0775C133.913 52.2159 133.972 54.4424 133.201 56.5868C133.015 57.104 132.92 57.6534 132.724 58.4204C133.458 58.2195 133.944 58.0868 134.43 57.953C136.962 57.2564 138.937 55.7504 140.56 53.7345C140.869 53.7878 141.178 53.8411 141.487 53.8937C141.436 54.0256 141.423 54.2002 141.329 54.2839C140.392 55.118 140.13 56.13 140.486 57.3181C140.48 57.4981 140.473 57.6773 140.467 57.8572C140.085 59.6773 138.438 60.074 137.115 60.8352C137.076 60.5649 137.038 60.2952 137 60.0258C137.613 59.5205 138.277 59.0637 138.821 58.4923C139.13 58.1676 139.241 57.6558 139.441 57.2284C139.333 57.177 139.225 57.125 139.118 57.0736L134.045 59.0716C133.914 59.1355 133.782 59.2002 133.65 59.2641C121.812 62.9158 110.028 62.6604 98.2076 58.7721C98.039 59.1175 97.8716 59.5063 97.6659 59.8738C96.3902 62.1541 95.1999 64.4898 93.7877 66.6832C92.9747 67.9466 91.7976 68.9755 90.7865 70.1125C90.4614 70.4779 90.0142 70.8677 90.9139 71.0751C91.0072 71.0865 91.1011 71.0978 91.1944 71.1099C93.5832 71.4208 95.9722 71.7314 98.3612 72.0431C98.9782 72.7785 99.6683 72.6128 100.377 72.2044L112.708 72.2027C113.094 72.1603 113.48 72.1171 113.866 72.0746C115.488 71.927 117.11 71.7787 118.732 71.6311C118.824 71.6214 118.916 71.612 119.008 71.6024C119.873 71.4326 120.738 71.2623 121.602 71.0925C121.697 71.078 121.792 71.0643 121.887 71.0501C122.422 70.9394 122.957 70.8289 123.492 70.7182C123.722 70.6405 123.951 70.5633 124.181 70.4857C124.327 70.4676 124.474 70.4492 124.621 70.4311C124.76 70.3619 124.899 70.2925 125.038 70.2237C125.195 70.1998 125.352 70.1764 125.508 70.1533C125.637 70.085 125.766 70.0175 125.896 69.95C126.741 69.6439 127.587 69.3383 128.432 69.0322C128.541 68.9736 128.649 68.915 128.757 68.8559C129.901 68.2508 131.044 67.6458 132.188 67.0409C132.278 66.8267 132.369 66.6128 132.459 66.3986C132.418 65.3943 132.376 64.39 132.333 63.3654C130.667 63.7682 129.287 64.1025 127.907 64.4365C127.812 64.4498 127.717 64.4623 127.621 64.4756C127.01 64.5658 126.4 64.7288 125.788 64.7337C121.208 64.7679 116.627 64.7785 112.047 64.7713C111.592 64.7703 111.136 64.6005 110.681 64.5089C110.687 64.2985 110.692 64.0875 110.697 63.8765C115.863 63.8046 121.029 63.7329 126.195 63.6613C126.287 63.6546 126.379 63.6476 126.472 63.6408C127.295 63.5183 128.118 63.3962 128.941 63.2737C129.074 63.2062 129.206 63.1386 129.339 63.0711C130.456 62.759 131.572 62.4464 132.689 62.1343C132.814 62.0709 132.94 62.0074 133.064 61.9435C133.429 61.821 133.793 61.6985 134.157 61.5759C134.27 61.512 134.383 61.4486 134.496 61.3847C134.841 61.2388 135.186 61.0924 135.531 60.9464L136.09 61.5489C135.892 61.6787 135.711 61.8654 135.493 61.931C133.614 62.4942 133.463 63.9146 133.61 65.5443C133.673 66.2392 133.911 66.5501 134.638 66.6003C135.338 66.648 136.031 66.847 136.714 67.0293C136.768 67.0443 136.717 67.4514 136.714 67.6758C136.55 67.6729 136.387 67.6697 136.223 67.6668C136.13 67.6458 136.037 67.6244 135.944 67.6034C134.434 67.4731 133.075 67.8952 131.727 68.566C130.425 69.2134 129.032 69.6798 127.679 70.2257C127.569 70.2872 127.458 70.3487 127.348 70.4097C126.442 70.6482 125.535 70.8868 124.628 71.126C124.487 71.2215 124.345 71.3173 124.203 71.4128C123.763 71.5074 123.324 71.6024 122.884 71.6969C122.646 71.7799 122.407 71.8624 122.169 71.9449C122.027 71.955 121.885 71.9647 121.743 71.9748C121.601 72.0443 121.46 72.1142 121.318 72.1834C120.976 72.2109 120.633 72.2384 120.292 72.2659C120.061 72.3301 119.83 72.3933 119.599 72.4574C118.481 72.5816 117.363 72.7061 116.245 72.8303C116.031 72.8752 115.816 72.92 115.601 72.9649C109.95 72.9859 104.299 73.0066 98.6475 73.0283C98.0899 73.0008 97.532 72.9733 96.9744 72.9458C95.6172 72.7647 94.26 72.5836 92.903 72.4024C92.7774 72.3532 92.6519 72.3043 92.5263 72.2546C91.6978 72.1243 90.8698 71.9941 90.0417 71.8636C89.9071 71.8038 89.7726 71.744 89.638 71.6844C88.1771 71.9905 88.0299 72.2857 88.7759 73.4917C89.5712 74.777 90.3644 76.0642 91.1978 77.3245C91.638 77.9897 92.0439 78.8315 92.6871 79.1585C93.1461 79.391 93.9737 78.8985 94.6372 78.7323C94.6809 78.7215 94.731 78.7384 94.7783 78.742C94.9237 78.6588 95.0682 78.5763 95.2137 78.4931C95.8844 78.4943 96.5545 78.4955 97.2255 78.4967C97.3174 78.5128 97.4095 78.529 97.5016 78.5459C98.5544 78.6863 99.6072 78.8274 100.66 78.9685C101.074 79.1023 101.487 79.3469 101.902 79.3522C104.613 79.3877 107.325 79.3476 110.035 79.3978C110.451 79.4055 110.861 79.7523 111.274 79.9424C110.805 79.9477 110.337 79.9525 109.869 79.9578C109.657 79.9586 109.446 79.959 109.235 79.9602C106.346 80.0697 103.457 80.1785 100.569 80.2878C100.56 80.42 100.551 80.5529 100.543 80.6848C101.252 80.8235 101.962 80.9617 102.672 81.1004C102.765 81.1153 102.858 81.1303 102.951 81.1452C103.242 81.2193 103.531 81.2936 103.821 81.3676C103.813 81.6882 103.805 82.0085 103.796 82.329C103.566 82.2757 103.337 82.2219 103.106 82.1706C101.254 81.7581 101.095 81.9655 100.353 83.719C99.7985 85.0294 98.8945 86.1934 98.1461 87.4226C98.0282 87.5236 97.9112 87.6247 97.7932 87.7257L97.3497 87.8369C97.2583 87.7455 97.1673 87.6534 97.0759 87.562C97.6189 86.7458 98.1615 85.9291 98.7049 85.1131C98.7797 85.0031 98.8552 84.8932 98.9297 84.7832C99.1396 84.1254 99.3494 83.4672 99.5588 82.8097C99.5928 82.7846 99.6567 82.7559 99.6545 82.7362C99.6449 82.6662 99.6126 82.5992 99.5892 82.5311C99.4594 80.0172 97.0496 78.633 94.7168 79.6182C93.2335 80.2456 92.8796 81.5758 92.3172 82.8162C92.2315 83.0063 92.1466 83.1959 92.0617 83.3855C90.9086 86.1025 88.693 87.4694 86.0391 87.1536C85.2289 87.0574 84.9038 86.7147 84.863 85.8777C84.8254 85.1035 84.6568 84.2996 84.3626 83.584C84.0362 82.7912 83.3756 82.7014 82.8011 83.371C81.6687 84.691 80.5855 86.0535 79.4825 87.3987C79.461 87.4925 79.44 87.5871 79.4191 87.6814C79.3426 88.0605 79.2661 88.4394 79.1894 88.8186C79.202 89.1116 79.2145 89.4052 79.2278 89.698C79.8238 90.9016 80.4658 92.0858 80.9967 93.3174C81.2384 93.8776 81.261 94.5322 81.3831 95.1439C81.3233 95.2676 81.2627 95.3914 81.2024 95.5151C79.907 98.8745 77.1808 101.015 74.5872 103.267C74.7821 102.001 74.2339 101.674 72.9893 101.7C69.142 101.784 65.2921 101.736 61.4436 101.724C60.9211 101.722 60.2103 101.952 60.2318 101.002L62.5089 101.123C63.2778 101.133 64.0468 101.144 64.815 101.154C66.7267 101.154 68.6381 101.154 70.5501 101.153C71.3183 101.146 72.086 101.137 72.8542 101.129C73.2235 101.064 73.5986 100.924 73.9625 100.948C76.2517 101.099 77.3882 99.5517 78.49 97.9386C78.5336 97.8335 78.5008 97.7618 78.3913 97.7235C77.784 97.6176 77.1767 97.512 76.5691 97.4061C76.2869 97.3972 76.0047 97.3882 75.7225 97.3798C72.8721 97.2942 70.0185 97.265 67.1717 97.1096C63.9013 96.9307 60.6365 96.6408 57.3693 96.3993C57.1744 96.3605 56.9795 96.3217 56.7851 96.2821C54.4854 95.9611 52.1861 95.6401 49.8867 95.319C49.7707 95.2693 49.6547 95.2197 49.5387 95.1702C43.7283 93.9787 37.9172 92.7865 32.1061 91.595C31.9918 91.5429 31.8782 91.4915 31.7646 91.4401C30.6684 91.1538 29.4349 91.1232 28.6983 90.1678C28.7634 90.0113 28.8288 89.8548 28.8939 89.6987C30.0681 90.0065 31.2422 90.3145 32.4158 90.6222C32.5388 90.6804 32.6621 90.7383 32.7846 90.7969C33.4274 90.9302 34.07 91.0634 34.712 91.1975C34.8287 91.2566 34.9452 91.3157 35.0617 91.3755C35.2303 91.3994 35.3989 91.4235 35.5675 91.4474C35.7853 91.5161 36.0029 91.5848 36.2212 91.6536C36.3849 91.6751 36.5487 91.6965 36.7125 91.7182C36.9336 91.7906 37.1555 91.8634 37.3767 91.9358C38.0152 92.0518 38.6536 92.1678 39.2928 92.2836C39.52 92.3559 39.7477 92.4283 39.9749 92.5007C42.5248 92.9384 45.0747 93.376 47.6239 93.8135C47.7387 93.8608 47.8535 93.908 47.9676 93.9558C48.9032 94.0911 49.8383 94.2267 50.7739 94.3617L51.1463 94.5178C53.8874 94.8436 56.6202 95.3106 59.371 95.4666C65.7918 95.8313 72.2204 96.0752 78.648 96.3019C80.2693 96.3586 80.8127 95.1319 79.9482 93.6905C79.6349 93.1673 79.3928 92.6017 79.1183 92.0554C79.0192 91.8383 78.9198 91.6213 78.8206 91.4049C78.7734 91.3601 78.7705 91.3123 78.8105 91.2614C78.7317 91.1196 78.6525 90.9775 78.5737 90.8357C78.5558 90.6917 78.5385 90.547 78.5206 90.403C78.4548 90.2619 78.3889 90.1208 78.3233 89.9797C78.3209 89.4044 78.3185 88.8294 78.3166 88.2537C78.3843 88.0217 78.4519 87.7897 78.5199 87.5583C78.661 86.747 78.2538 86.3099 77.5228 86.0851C76.2529 85.6937 74.9676 85.3427 73.7247 84.8794C73.2452 84.7007 72.8632 84.2605 72.4362 83.9402C72.5595 83.9163 72.6832 83.8929 72.8062 83.8695C73.0262 83.89 73.2464 83.9103 73.4664 83.9305C73.834 84.0292 74.2023 84.1286 74.5706 84.2272C74.875 84.3191 75.1798 84.4112 75.484 84.5034L75.6031 84.4978L75.7148 84.5403C75.8583 84.6139 76.0018 84.6881 76.1458 84.7622C76.5768 84.8823 77.0074 85.0024 77.4384 85.1228C77.5759 85.1944 77.7133 85.2663 77.8511 85.3379C78.9605 85.6225 79.5573 84.7342 80.332 84.254C80.5927 84.0244 80.8534 83.795 81.1139 83.5654C81.441 83.2193 81.7526 82.8568 82.0968 82.5292C82.9518 81.7173 83.1204 80.8929 82.3336 79.9036C81.8016 79.2352 81.3411 78.4967 80.9405 77.741C80.4803 76.8742 79.9398 76.6942 78.9666 76.9789C70.2028 79.5406 61.9699 78.2707 54.3353 73.3093C53.209 72.5775 52.085 72.0573 50.7852 72.0257C48.927 71.9808 47.0655 72.0491 45.2061 72.0891C44.683 72.1005 44.1533 72.2582 43.6422 72.202C43.3386 72.1692 43.0658 71.8499 42.7795 71.6591C43.0084 71.4613 43.2146 71.1354 43.4717 71.0882C44.3595 70.9256 45.2635 70.8019 46.1651 70.7715C47.6178 70.7218 49.0737 70.7582 50.6885 70.7582C49.2744 69.058 47.8863 67.6135 46.7761 65.9802C45.9444 64.7563 45.147 63.9368 43.586 64.4252C43.4927 64.4413 43.3993 64.457 43.3062 64.4732C42.6731 64.582 42.0405 64.6907 41.4073 64.7988C41.2776 64.8695 41.1473 64.9399 41.0171 65.0106C39.7901 65.8219 38.5634 66.6338 37.336 67.4449C37.0574 67.3152 36.7788 67.1854 36.5002 67.0559C37.137 66.477 37.773 65.8984 38.4098 65.3195C38.5144 65.2402 38.6191 65.1613 38.7236 65.0817C40.061 64.6027 41.3984 64.1239 42.7358 63.6452C42.8296 63.6343 42.9242 63.6234 43.018 63.6128C43.6099 63.519 44.2018 63.4249 44.7937 63.3311C44.8229 63.2421 44.8528 63.1536 44.882 63.0646C43.9512 60.629 42.9384 58.2202 42.1314 55.7446C41.814 54.7707 41.4852 54.427 40.4257 54.3891C38.6358 54.3252 36.8273 54.1129 35.0815 53.719C33.7735 53.4236 32.9264 52.0128 32.9778 50.7979C33.0388 49.3643 34.1148 48.9451 35.2364 48.5896C35.506 48.5035 35.7889 48.4461 36.0699 48.4065C37.794 48.1639 39.52 47.9301 41.2616 47.6916C41.3463 46.7804 41.4278 45.9094 41.5253 44.8636C40.4712 45.202 39.6336 45.5973 38.7583 45.7145C37.95 45.8226 36.8632 46.3428 36.3497 44.8853C37.2397 44.6222 38.0709 44.4427 38.8487 44.1321C40.2607 43.5669 41.875 43.0631 42.3053 41.4136C43.4473 37.0373 45.6504 33.26 48.4644 29.7873C48.4811 29.7472 48.4979 29.7065 48.5146 29.6664C48.502 29.7106 48.4895 29.755 48.4774 29.7991C47.9222 29.8727 47.3315 29.8505 46.818 30.0384C45.3521 30.5745 43.8513 31.0738 42.4847 31.8109C40.1005 33.0974 37.8203 34.5755 35.4624 35.9134C35.0439 36.1507 34.4617 36.0993 33.9551 36.1811C34.2004 35.7727 34.3594 35.2605 34.7062 34.9766C35.5468 34.2889 36.4399 33.6505 37.3731 33.0938C40.9064 30.9848 44.5783 29.1344 48.6335 28.3068C49.9398 28.0403 50.8539 27.4149 51.8069 26.63C55.7827 23.358 60.2509 21.1178 65.3787 20.3047C66.3943 20.1434 67.4107 19.989 68.4264 19.8313C68.4413 19.7314 68.457 19.6323 68.4725 19.5324C67.8251 19.3069 67.177 19.0816 66.5296 18.8561C66.3094 18.7898 66.0895 18.7239 65.8695 18.6576C64.3049 18.6564 62.7409 18.6552 61.177 18.654C60.7668 18.7194 60.3572 18.7845 59.9479 18.8496C59.5007 18.88 59.0528 18.9106 58.6057 18.941C58.4812 18.9912 58.3563 19.0416 58.2313 19.091C55.959 20.0177 53.6093 20.7951 51.434 21.9111C49.0414 23.1385 46.8084 24.6785 44.5055 26.083C44.3931 26.1631 44.2807 26.2439 44.1683 26.324C43.2368 26.9159 42.3053 27.507 41.3733 28.0982C41.252 28.1935 41.1307 28.289 41.0086 28.384C40.4765 28.7851 39.9546 29.2002 39.4105 29.5844C34.8425 32.8164 31.2523 36.8292 29.3196 42.1704C29.283 42.2259 29.2567 42.2857 29.24 42.3504C29.1742 42.5764 29.1086 42.8016 29.0427 43.0276C28.9974 43.0906 28.9699 43.1605 28.9603 43.237C28.7738 44.4852 28.5866 45.7336 28.3995 46.9818C28.3857 47.2659 28.3713 47.5493 28.357 47.8332C28.2919 48.6098 28.2261 49.387 28.1602 50.1636C28.0312 50.1757 27.9021 50.1882 27.7724 50.2007V50.1839C27.6928 50.0727 27.6132 49.9615 27.5343 49.851L27.5493 45.5505C27.5864 45.5266 27.6576 45.4963 27.6544 45.4794C27.6419 45.4073 27.6067 45.339 27.5804 45.2695C27.6592 44.8858 27.7381 44.502 27.8172 44.1183C27.8573 44.0949 27.9337 44.0638 27.9308 44.0488C27.9152 43.9753 27.8792 43.9061 27.85 43.8349C28.0563 43.0296 28.3044 42.2319 28.4424 41.4152C28.4844 41.1678 28.22 40.8689 28.0958 40.5933C28.0037 40.6106 27.9115 40.6285 27.8196 40.6458C24.3633 41.921 22.0418 44.3865 20.4326 47.6233C19.3511 49.7984 18.2158 51.9465 17.108 54.1081C14.8702 58.4766 12.7293 62.8859 11.5378 67.6835C11.4978 67.7481 11.4739 67.8185 11.4667 67.894L11.4619 67.9058C11.4372 68.0918 11.4129 68.2778 11.389 68.4637C11.2257 69.5202 11.0632 70.5766 10.8999 71.6328C10.6326 71.6371 10.3649 71.6407 10.0977 71.6448C10.2549 70.4975 10.4119 69.3496 10.5692 68.2025C10.6003 68.0134 10.6309 67.8253 10.6621 67.6369C10.7033 67.4432 10.7438 67.2496 10.7851 67.0559C10.8413 66.868 10.8975 66.6796 10.9544 66.492C11.0762 66.0108 11.1987 65.5294 11.3208 65.0482C11.3907 64.861 11.4606 64.6734 11.5313 64.4862Z" fill="#050504"/>
<path d="M67.3788 109.977C66.9017 109.992 66.4251 110.018 65.948 110.018C47.1194 110.02 28.2908 110.021 9.46225 110.018C8.93861 110.018 8.41498 109.975 7.89062 109.951C8.11301 105.543 8.15112 101.115 8.60987 96.7319C9.05704 92.4512 9.93402 88.216 10.6221 83.9606L10.6197 83.9635C10.8105 83.9278 11.0011 83.8912 11.1926 83.8555C11.3981 83.9792 11.6038 84.1029 11.8095 84.2267C11.8416 84.3634 11.8267 84.5586 11.9135 84.629C13.8344 86.1876 15.6744 87.8663 17.7133 89.2546C23.8191 93.4126 30.3415 96.654 37.5696 98.5097C45.0444 100.429 52.6329 101.448 60.2949 101.986C64.2413 102.262 68.2121 102.189 72.1715 102.281C72.7092 102.294 73.2453 102.347 73.7822 102.383C73.8175 102.492 73.8527 102.602 73.8881 102.712C73.3459 103.282 72.7861 103.838 72.2644 104.426C70.6279 106.27 69.0061 108.126 67.3788 109.977Z" fill="#0643F2"/>
<path d="M92.3217 82.8181C92.8846 81.5776 93.238 80.2474 94.7218 79.6203C97.0542 78.635 99.4647 80.0185 99.5937 82.533C99.5467 82.6215 99.5363 82.7148 99.5638 82.8115C99.3539 83.4693 99.1441 84.1268 98.9343 84.785C98.8597 84.895 98.7842 85.005 98.7095 85.1152C98.1668 85.9312 97.6239 86.7471 97.0809 87.5638C97.0583 87.6846 97.0356 87.8055 97.0129 87.9268C97.1265 87.8974 97.2406 87.8682 97.3542 87.8388L97.7978 87.7276C97.9157 87.6267 98.0334 87.5257 98.1511 87.4246C98.8991 86.1948 99.803 85.0315 100.358 83.7204C101.1 81.9674 101.258 81.7599 103.11 82.1724C103.341 82.224 103.571 82.2778 103.801 82.3308C103.886 82.4218 103.97 82.5132 104.055 82.6046C104.051 82.6806 104.071 82.75 104.112 82.8135C104.14 82.998 104.168 83.1827 104.197 83.367C104.673 85.6154 103.975 87.544 102.632 89.325C102.153 89.9601 101.786 90.6793 101.368 91.3602C101.342 91.613 101.316 91.8665 101.289 92.12C101.599 91.9024 101.909 91.6848 102.219 91.4673C102.659 90.9721 103.065 90.4383 103.553 89.996C103.831 89.7442 104.244 89.6414 104.597 89.4721C104.74 89.8424 105.065 90.256 104.989 90.5746C104.821 91.2782 104.577 92.0334 104.139 92.5893C103.349 93.5883 102.393 94.4559 101.506 95.379C101.229 95.6807 100.952 95.9827 100.675 96.2851C100.612 96.3611 100.583 96.4484 100.587 96.5471C100.816 96.5572 101.045 96.5673 101.273 96.577C101.318 96.4892 101.365 96.4011 101.411 96.3134C101.58 96.2333 101.75 96.1537 101.92 96.0736C103.133 95.1522 104.346 94.2311 105.558 93.3098L105.687 93.345L105.816 93.3127C105.936 93.4448 106.055 93.5763 106.174 93.7085C106.145 93.8018 106.147 93.8939 106.181 93.9858C105.817 94.4726 105.514 95.0249 105.078 95.4352C103.538 96.8806 101.952 98.2772 100.384 99.693C100.253 99.7851 100.122 99.877 99.9907 99.9691C99.6441 100.181 99.2977 100.392 98.9516 100.604C96.0539 102.387 92.7939 103.253 89.63 104.396C86.9361 105.368 84.8878 107.285 83.718 109.996C78.6494 109.979 73.5809 109.961 68.5117 109.943C69.2739 109.118 70.0481 108.304 70.7949 107.464C71.6899 106.457 72.5609 105.428 73.4427 104.409C73.5659 104.286 73.6885 104.164 73.8117 104.041C74.0717 103.784 74.3317 103.526 74.5917 103.269C77.1858 101.017 79.912 98.8763 81.207 95.5165C81.2673 95.3932 81.3278 95.2695 81.3881 95.1457C81.2663 94.5341 81.2434 93.8795 81.0012 93.3194C80.4704 92.0879 79.829 90.9034 79.2323 89.7001C79.2198 89.407 79.2072 89.1135 79.194 88.8204C79.2707 88.4415 79.3471 88.0619 79.4236 87.6829C79.4446 87.5889 79.466 87.4946 79.487 87.4007C80.5907 86.0556 81.6732 84.6931 82.8056 83.373C83.3809 82.7032 84.0415 82.793 84.3671 83.5858C84.6618 84.3014 84.83 85.1055 84.8676 85.8798C84.9083 86.7167 85.2342 87.0592 86.0436 87.1555C88.698 87.4707 90.9136 86.1046 92.0663 83.3873C92.1512 83.1977 92.2368 83.0076 92.3217 82.8181Z" fill="#539836"/>
<path d="M120.296 72.2637C120.638 72.2362 120.98 72.2087 121.322 72.1812C121.464 72.112 121.606 72.0425 121.747 71.9726C121.889 71.9632 122.031 71.9528 122.173 71.9434C122.412 71.8602 122.65 71.7777 122.889 71.6947C123.328 71.6002 123.768 71.5052 124.207 71.4106C124.349 71.3151 124.49 71.2193 124.633 71.1238C125.539 70.8853 126.446 70.6468 127.353 70.4075C127.463 70.3465 127.574 70.285 127.684 70.2239C129.036 69.6776 130.429 69.2119 131.731 68.5638C133.079 67.893 134.439 67.4709 135.948 67.6019L136.228 67.6646C136.392 67.6675 136.555 67.6711 136.718 67.674C136.699 67.722 136.683 67.7705 136.672 67.8195C137.491 68.9374 137.589 70.0732 136.759 71.2331C136.702 71.4299 136.646 71.6265 136.59 71.8233L136.62 71.8209C136.295 72.0413 135.97 72.262 135.646 72.4832C135.457 72.6757 135.268 72.8681 135.079 73.0606C134.125 73.8259 133.172 74.5912 132.217 75.3566C130.78 76.132 129.344 76.9079 127.907 77.6834C127.774 77.7521 127.641 77.8213 127.508 77.8901C127.446 77.8609 127.39 77.8705 127.341 77.9195C127.113 78.0032 126.884 78.0869 126.655 78.1706C126.122 78.2502 125.588 78.329 125.055 78.4084C124.864 78.4503 124.673 78.4928 124.483 78.5345C122.382 78.6732 120.28 78.8114 118.179 78.9501C114.239 78.9291 110.297 78.8968 106.355 78.8927C104.458 78.8903 102.561 78.94 100.664 78.9663C99.6116 78.8252 98.5588 78.6848 97.506 78.5437C97.4139 78.5275 97.322 78.5106 97.2298 78.4945C96.5591 78.4933 95.8883 78.4921 95.218 78.4916C95.0728 78.5741 94.9281 78.6573 94.7829 78.7398C94.7356 78.7362 94.6855 78.7193 94.6418 78.7306C93.9781 78.8963 93.15 79.3896 92.6915 79.1563C92.0483 78.83 91.6423 77.9882 91.2024 77.3223C90.3688 76.062 89.5755 74.7748 88.7803 73.4895C88.0343 72.2835 88.1814 71.9888 89.6426 71.6822C89.7769 71.7418 89.9115 71.8016 90.0461 71.8614C90.8741 71.9919 91.7022 72.1221 92.5302 72.2531C92.6563 72.3021 92.7817 72.351 92.9074 72.4007C94.2646 72.5819 95.6216 72.7625 96.9788 72.9436C97.5364 72.9711 98.0943 72.9986 98.6522 73.0261C104.304 73.0051 109.954 72.9837 115.606 72.9627C115.82 72.9178 116.035 72.8737 116.25 72.8288C117.368 72.7044 118.486 72.5802 119.604 72.4557C119.834 72.3918 120.065 72.3279 120.296 72.2637Z" fill="#AD522A"/>
<path d="M95.2187 30.9671C95.0125 31.0112 94.8063 31.0554 94.5993 31.099L94.1611 31.1702C93.4951 30.5754 92.773 30.0313 92.1746 29.3742C90.9925 28.0776 89.8787 26.7187 88.6992 25.3412C90.7192 24.5164 93.1143 23.5376 95.5098 22.5588C95.6331 22.4966 95.7568 22.4351 95.8805 22.3729C96.6147 22.1642 97.3494 21.9551 98.0836 21.7465C98.1782 21.7332 98.272 21.7202 98.3663 21.7069C98.654 21.6305 98.942 21.5545 99.2298 21.478C99.5513 21.3984 99.8723 21.3184 100.193 21.2383C102.838 21.295 105.484 21.3512 108.129 21.4074C108.221 21.4194 108.314 21.4312 108.407 21.4438C108.741 21.4749 109.076 21.5067 109.41 21.5378L109.84 21.7458L112.062 22.3663C112.179 22.4274 112.297 22.4884 112.415 22.5499C114.116 23.54 115.816 24.5306 117.517 25.5207C117.89 25.9642 118.219 26.54 118.924 25.991C118.984 26.0569 119.044 26.1232 119.104 26.189C118.369 26.4712 118.596 26.8214 119.033 27.1869C119.455 27.9502 119.876 28.7143 120.401 29.6649C119.595 29.8455 119.02 29.9746 118.445 30.1031C118.351 30.1116 118.257 30.1198 118.163 30.1282C116.149 30.1355 114.135 30.142 112.121 30.1485C111.841 30.1347 111.562 30.121 111.282 30.1072C110.427 30.0918 109.574 30.0756 108.72 30.06C107.967 30.0211 107.214 29.9823 106.461 29.943C105.961 29.9099 105.462 29.8764 104.963 29.8436C104.87 29.8019 104.777 29.7987 104.683 29.8352C103.915 29.8347 103.147 29.8347 102.38 29.834C102.194 29.8407 102.008 29.8472 101.822 29.8537C101.147 29.9362 100.474 30.0187 99.7999 30.1019C99.5698 30.1678 99.3397 30.2334 99.1094 30.2992C97.9073 30.5062 96.7049 30.7129 95.5028 30.9198C95.4076 30.9353 95.3132 30.9514 95.2187 30.9671Z" fill="#539836"/>
<path d="M114.574 109.955C110.849 109.976 107.124 110.017 103.4 110.015C97.334 110.011 91.2689 109.979 85.2031 109.958C86.474 107.471 88.316 105.667 91.1097 104.975C91.9409 104.769 92.7646 104.525 93.5788 104.258C96.0718 103.441 98.4321 102.367 100.432 100.619L100.408 100.632C101.673 100.141 102.776 100.416 103.868 101.199C105.831 102.604 107.952 103.804 109.821 105.319C111.533 106.707 112.999 108.398 114.574 109.955Z" fill="#0643F2"/>
<path d="M125.053 78.4073C125.586 78.3279 126.12 78.2491 126.654 78.1695C126.882 78.0858 127.111 78.0021 127.34 77.9184C127.388 77.8699 127.444 77.8598 127.506 77.889C127.639 77.8202 127.772 77.751 127.905 77.6823C129.342 76.9068 130.779 76.1309 132.216 75.3555C132.404 75.5455 132.592 75.7363 132.78 75.9269C132.129 76.4691 131.477 77.0115 130.767 77.6039C131.057 78.0385 131.33 78.4153 131.57 78.8115C133.192 81.49 132.806 83.9774 130.138 85.7418C128.507 86.8197 126.553 87.4091 124.744 88.2181C124.554 88.2731 124.366 88.3281 124.176 88.3831C123.981 88.4195 123.787 88.4555 123.592 88.4914C123.309 88.5594 123.026 88.6281 122.744 88.6969C122.359 88.7292 121.974 88.7615 121.589 88.7938C121.113 88.8356 120.637 88.8775 120.16 88.9188C119.298 89.2876 118.435 89.6566 117.573 90.0254C117.564 89.7837 117.555 89.5423 117.547 89.3013C118.029 88.4304 117.208 88.6383 116.898 88.6103C115.692 88.502 114.478 88.4721 113.268 88.413C113.185 88.4094 113.103 88.4053 113.02 88.4017C110.843 88.3657 108.667 88.3298 106.49 88.2941C106.371 88.3365 106.254 88.379 106.136 88.4207C106.002 88.5763 105.729 88.7639 105.757 88.8816C105.937 89.6554 106.181 90.4144 106.405 91.178C106.488 91.2116 106.571 91.2449 106.654 91.2784C106.963 91.2654 107.271 91.2516 107.58 91.2383C107.949 91.2128 108.319 91.1875 108.689 91.1624C109.325 91.13 109.961 91.098 110.597 91.0656C110.819 91.0143 111.041 90.9622 111.264 90.9108C111.637 90.8814 112.01 90.8522 112.383 90.8228C112.584 90.7552 112.785 90.6884 112.986 90.6209C114.001 90.4685 115.016 90.3165 116.031 90.1641C115.327 91.4328 114.002 91.1894 112.886 91.4571C112.348 91.5647 111.809 91.6725 111.27 91.7801C110.601 91.8411 109.932 91.9026 109.263 91.9636C108.976 91.9892 108.689 92.015 108.402 92.0408C107.935 92.4101 106.762 91.8553 106.984 93.124C106.975 93.5048 106.967 93.8857 106.959 94.267C105.956 95.5482 104.927 96.8109 103.962 98.1208C103.613 98.5955 103.416 99.1826 103.15 99.7187C102.134 99.7211 101.087 99.628 100.404 100.63L100.428 100.617C100.141 100.726 99.8568 100.903 99.5645 100.919C99.366 100.93 99.155 100.714 98.9492 100.599C99.2961 100.388 99.6422 100.176 99.9883 99.9645C100.119 99.8724 100.251 99.7805 100.382 99.6879C101.95 98.2725 103.536 96.876 105.075 95.4298C105.512 95.0203 105.814 94.4679 106.178 93.9807C106.209 93.9532 106.27 93.9168 106.265 93.8994C106.245 93.8307 106.205 93.7685 106.173 93.7034C106.053 93.5717 105.933 93.4397 105.814 93.308C105.728 93.3068 105.642 93.3063 105.557 93.3051C104.344 94.2265 103.131 95.1476 101.918 96.069C101.78 95.837 101.642 95.6057 101.504 95.3736C102.39 94.4513 103.346 93.5832 104.136 92.5842C104.576 92.0287 104.819 91.2736 104.987 90.5693C105.063 90.2514 104.738 89.8377 104.595 89.467C104.242 89.6368 103.829 89.7391 103.551 89.9906C103.062 90.433 102.657 90.967 102.216 91.4627C101.933 91.4267 101.65 91.3908 101.366 91.3548C101.783 90.6747 102.151 89.9554 102.63 89.3204C103.973 87.5394 104.67 85.6103 104.194 83.3624L104.111 82.8088C104.069 82.7454 104.05 82.6755 104.052 82.5995C104.275 82.4721 104.497 82.3443 104.719 82.2162C104.825 82.6468 104.93 83.0778 105.035 83.5083C105.108 83.6559 105.179 83.8043 105.251 83.9519C105.35 84.9974 105.448 86.0437 105.546 87.0893C105.637 87.1144 105.728 87.1395 105.818 87.1641C108.406 87.2538 110.993 87.3428 113.581 87.4325C114.748 87.503 115.916 87.5736 117.084 87.6448C118.956 87.6477 120.828 87.6506 122.701 87.6542C123.097 87.5765 123.494 87.4989 123.892 87.4217L124.028 87.3817L124.169 87.3882C124.257 87.3901 124.339 87.3667 124.412 87.3177C125.915 86.7533 127.418 86.1885 128.921 85.6233C129.063 85.5235 129.206 85.4232 129.349 85.3226C130.546 84.1528 131.671 82.9475 131.442 81.0749C131.467 81.0438 131.521 80.9984 131.513 80.9835C131.481 80.9201 131.431 80.8651 131.387 80.8072C131.226 80.5221 131.064 80.2375 130.905 79.9509C129.981 78.2903 129.982 78.2925 128.06 78.6842C127.29 78.8414 126.516 78.9842 125.743 79.1338C125.608 79.2001 125.473 79.2659 125.338 79.3323C124.217 79.4543 123.097 79.5761 121.976 79.6982C121.024 79.6837 120.065 79.7281 119.124 79.6229C118.787 79.585 118.492 79.1839 118.178 78.949C120.279 78.8111 122.38 78.6721 124.481 78.5334C124.672 78.4917 124.862 78.4493 125.053 78.4073Z" fill="#050504"/>
<path d="M74.5914 103.268C74.3314 103.525 74.0714 103.782 73.8114 104.039C73.6882 104.162 73.5649 104.285 73.4419 104.407C72.5606 105.427 71.6896 106.455 70.7941 107.462C70.0478 108.302 69.2731 109.116 68.5114 109.942C68.1337 109.954 67.7558 109.965 67.3778 109.978C69.0052 108.127 70.6272 106.27 72.2634 104.427C72.7854 103.838 73.345 103.283 73.8872 102.713C73.852 102.603 73.8167 102.493 73.7815 102.383C73.2446 102.348 72.7082 102.295 72.1708 102.282C68.2114 102.19 64.2404 102.263 60.2939 101.987C52.6319 101.449 45.0442 100.43 37.5686 98.5102C30.3408 96.6544 23.8181 93.4135 17.7123 89.2556C15.6737 87.8672 13.8337 86.1878 11.9128 84.6294C11.826 84.5595 11.8409 84.3644 11.8086 84.2276C12.0042 84.0093 12.1996 83.7918 12.3957 83.5742C13.6364 84.6138 14.8505 85.6876 16.1228 86.6878C24.706 93.4386 34.5214 97.3717 45.2277 99.1103C50.2012 99.9188 55.2315 100.383 60.2353 101.002C60.2146 101.952 60.9254 101.722 61.4478 101.724C65.2963 101.735 69.1462 101.785 72.9935 101.7C74.2381 101.673 74.7863 102 74.5914 103.268Z" fill="#0F140B"/>
<path d="M10.62 83.9609C9.93188 88.2163 9.05465 92.4515 8.60748 96.7322C8.14897 101.116 8.11086 105.543 7.88824 109.952C6.95578 110.242 6.97725 109.631 7.01198 109.019C7.30913 103.788 7.46084 98.5435 7.96301 93.3323C8.26667 90.1816 9.11447 87.0834 9.71842 83.9617C10.0192 83.9617 10.3192 83.9609 10.62 83.9609Z" fill="#0F140B"/>
<path d="M112.382 90.8251C112.01 90.8545 111.636 90.8837 111.263 90.9131C111.04 90.9645 110.819 91.0163 110.596 91.068C109.96 91.1 109.325 91.1324 108.688 91.1647C108.319 91.1898 107.949 91.2148 107.579 91.2406C107.27 91.2537 106.962 91.2674 106.654 91.2807C106.585 91.2107 106.502 91.1772 106.405 91.1808C106.181 90.4167 105.936 89.6582 105.756 88.8839C105.728 88.7662 106.001 88.5783 106.135 88.423C106.253 88.381 106.371 88.3386 106.489 88.2969C108.666 88.3321 110.843 88.368 113.02 88.4037L113.141 88.4534L113.267 88.4153C114.478 88.4744 115.692 88.5043 116.897 88.6126C117.208 88.6406 118.028 88.4324 117.546 89.3036C117.128 89.5672 116.711 89.8316 116.294 90.0952C116.206 90.1191 116.118 90.143 116.03 90.1664C115.015 90.3188 114 90.4705 112.985 90.6229C112.784 90.6905 112.583 90.7575 112.382 90.8251Z" fill="#539836"/>
<path d="M98.9526 100.602C99.1583 100.716 99.3686 100.932 99.5671 100.921C99.8602 100.906 100.144 100.728 100.431 100.619C98.4318 102.368 96.071 103.441 93.578 104.259C92.7643 104.526 91.9403 104.769 91.1089 104.975C88.3152 105.668 86.4737 107.472 85.2028 109.96C84.7084 109.971 84.2132 109.982 83.7188 109.994C84.8888 107.282 86.9377 105.366 89.6309 104.393C92.7946 103.251 96.0549 102.385 98.9526 100.602Z" fill="#0F140B"/>
<path d="M100.402 100.632C101.086 99.6294 102.132 99.7225 103.148 99.7201C107.973 102.33 112.343 105.511 116.145 109.955H114.568C112.993 108.398 111.527 106.707 109.815 105.319C107.946 103.804 105.825 102.604 103.863 101.199C102.77 100.415 101.667 100.142 100.402 100.632Z" fill="#0F140B"/>
<path d="M10.6164 83.9607C10.3157 83.9607 10.0156 83.9614 9.71484 83.9614C9.75175 80.5572 9.78045 77.1525 9.83375 73.7483C9.84219 73.2336 9.964 72.7205 10.0327 72.207C10.285 72.3995 10.5373 72.5927 10.7896 72.7857C10.7163 74.4902 10.6695 76.1964 10.5626 77.8985C10.4281 80.0388 10.5339 82.0822 12.3907 83.5733C12.1946 83.7909 11.9992 84.0091 11.8036 84.2267C11.5981 84.103 11.3923 83.9792 11.1866 83.8548C11.0737 83.7366 10.9606 83.6174 10.8477 83.4993C10.7701 83.6541 10.6917 83.8087 10.614 83.9636L10.6164 83.9607Z" fill="#050504"/>
<path d="M136.759 71.2349C137.59 70.075 137.492 68.9393 136.672 67.8218C137.446 67.0543 137.72 67.8416 138.015 68.3008C138.724 69.4055 138.265 71.2781 137.127 72.0176C137.051 72.0671 136.839 71.91 136.691 71.849C136.714 71.6445 136.737 71.4395 136.759 71.2349Z" fill="#050504"/>
<path d="M132.779 75.9332C132.591 75.7425 132.403 75.5524 132.215 75.3616C133.169 74.5963 134.123 73.8317 135.077 73.0664C135.154 73.3469 135.23 73.6279 135.307 73.9089C134.465 74.5838 133.622 75.2581 132.779 75.9332Z" fill="#0F140B"/>
<path d="M141.49 53.8929C141.181 53.8398 140.872 53.787 140.562 53.734C140.931 53.2031 141.299 52.6715 141.667 52.1406C141.881 52.2417 142.097 52.3432 142.311 52.4443C142.037 52.9274 141.764 53.4098 141.49 53.8929Z" fill="#0F140B"/>
<path d="M135.308 73.905C135.232 73.624 135.155 73.3438 135.078 73.0628C135.266 72.8703 135.455 72.6771 135.644 72.4846C136 72.3052 136.357 72.1252 136.714 71.9453C136.964 73.1134 135.862 73.3131 135.308 73.905Z" fill="#050504"/>
<path d="M137.003 60.0234C137.042 60.2931 137.08 60.5635 137.119 60.8331C136.777 61.071 136.436 61.309 136.094 61.5468L135.535 60.9443C136.025 60.6375 136.514 60.3302 137.003 60.0234Z" fill="#0F140B"/>
<path d="M10.7954 72.786C10.5432 72.593 10.2914 72.4005 10.0391 72.2073C10.06 72.0202 10.0815 71.8325 10.1025 71.6449C10.3702 71.6413 10.6375 71.6369 10.9047 71.6328C10.8683 72.0173 10.8319 72.4017 10.7954 72.786Z" fill="#0F140B"/>
<path d="M116.293 90.0968C116.71 89.8327 117.128 89.569 117.545 89.3047C117.554 89.5461 117.562 89.7878 117.571 90.0292C117.152 90.1723 116.76 90.8507 116.293 90.0968Z" fill="#0F140B"/>
<path d="M119.035 27.1887C118.598 26.8241 118.371 26.4736 119.105 26.1914C119.345 26.436 119.586 26.6805 119.826 26.9249C119.562 27.0129 119.299 27.1007 119.035 27.1887Z" fill="#0F140B"/>
<path d="M118.922 25.9939C118.217 26.5429 117.888 25.9672 117.516 25.5234C117.862 25.5014 118.209 25.4792 118.556 25.457C118.678 25.6358 118.8 25.8152 118.922 25.9939Z" fill="#0F140B"/>
<path d="M136.715 71.9475C136.358 72.1274 136.001 72.3066 135.645 72.4868L136.618 71.8242C136.672 71.8469 136.704 71.8876 136.715 71.9475Z" fill="#0F140B"/>
<path d="M136.759 71.2344C136.736 71.4389 136.714 71.6439 136.691 71.8485L136.59 71.8251C136.646 71.6285 136.703 71.4312 136.759 71.2344Z" fill="#0F140B"/>
<path d="M10.7911 72.7843C10.8275 72.4001 10.8639 72.0156 10.9004 71.6311C11.0636 70.5747 11.2262 69.5183 11.3895 68.4626C11.4141 68.2761 11.438 68.0902 11.4623 67.9042L11.4672 67.8929L11.5677 67.8019L11.5383 67.6818C12.7305 62.884 14.8707 58.4754 17.1092 54.1064C18.2163 51.9446 19.3516 49.7965 20.4331 47.6222C22.043 44.3849 24.3638 41.9194 27.8206 40.6442C27.9128 40.6268 28.0049 40.609 28.0968 40.5916C28.2208 40.8671 28.4849 41.1661 28.4431 41.4136C28.3057 42.2303 28.0567 43.0284 27.8512 43.833C27.8399 43.9276 27.8291 44.0219 27.8182 44.1169C27.7389 44.5002 27.66 44.8841 27.5809 45.2679C27.5707 45.3617 27.5606 45.4555 27.5505 45.5489C27.5452 46.9825 27.5396 48.4162 27.5348 49.8491C27.6144 49.9603 27.694 50.071 27.7733 50.1822V50.1989C27.9026 50.1863 28.0317 50.1745 28.1609 50.162C28.2265 49.3853 28.2924 48.6087 28.3582 47.8315C28.372 47.5481 28.3862 47.264 28.4007 46.9801C28.5871 45.7317 28.7743 44.4835 28.9607 43.2351L29.0666 43.1497L29.0432 43.026C29.1091 42.8 29.1749 42.5745 29.2405 42.3487L29.344 42.2797L29.3201 42.1685C31.2528 36.8275 34.8437 32.8148 39.4117 29.5833C39.9551 29.1983 40.477 28.7835 41.0091 28.3824C41.1312 28.2873 41.2525 28.1923 41.3745 28.0965C42.306 27.5051 43.2373 26.914 44.1688 26.3228C44.2812 26.242 44.3936 26.1612 44.5067 26.0811C46.8089 24.6769 49.0419 23.1373 51.435 21.9094C53.6101 20.7932 55.9595 20.0161 58.2326 19.0899C58.357 19.0397 58.4819 18.9895 58.6062 18.9394C59.0541 18.9087 59.5012 18.8783 59.9484 18.848C60.358 18.7826 60.768 18.7175 61.1775 18.6523C62.7414 18.6535 64.3061 18.6548 65.87 18.656C66.0899 18.7223 66.3102 18.7886 66.5301 18.8545C67.1782 19.0797 67.8256 19.3053 68.4732 19.5305C68.4575 19.6304 68.4425 19.7302 68.4271 19.8296C67.4112 19.9874 66.3951 20.1415 65.3799 20.3031C60.2516 21.1161 55.7832 23.3561 51.8081 26.6289C50.8544 27.4132 49.9405 28.0384 48.6342 28.3052C44.579 29.1327 40.9069 30.9829 37.3736 33.0922C36.4411 33.6488 35.5473 34.2873 34.7072 34.9754C34.3606 35.2588 34.2009 35.7711 33.9564 36.1799C34.4629 36.0982 35.0451 36.1488 35.4629 35.9115C37.8208 34.5736 40.101 33.0958 42.4852 31.8092C43.8518 31.0719 45.3525 30.5729 46.819 30.0365C47.3325 29.8488 47.9227 29.871 48.4782 29.7974L48.4649 29.7854C45.6514 33.2583 43.4478 37.0354 42.306 41.4117C41.876 43.0612 40.2612 43.5653 38.8497 44.1302C38.0714 44.4416 37.2405 44.6205 36.3507 44.8834C36.8637 46.341 37.9513 45.8209 38.7588 45.7126C39.6341 45.5954 40.4722 45.2003 41.5258 44.862C41.4283 45.9075 41.347 46.7787 41.2621 47.6897C39.5205 47.9283 37.7952 48.162 36.0704 48.4049C35.7894 48.4442 35.5072 48.5016 35.2371 48.5877C34.1153 48.9434 33.0393 49.3626 32.9783 50.7961C32.9269 52.0109 33.7747 53.4219 35.0823 53.7172C36.8278 54.1113 38.6362 54.3235 40.4264 54.3874C41.4862 54.4251 41.8145 54.7688 42.1319 55.7427C42.9392 58.2183 43.9524 60.6271 44.8827 63.0627C44.8253 63.1423 44.7959 63.2313 44.7942 63.33C44.2023 63.4233 43.6104 63.5171 43.0185 63.6109C42.9247 63.6218 42.8301 63.6324 42.7363 63.6433C41.3989 64.1223 40.0617 64.601 38.7248 65.0798C38.6201 65.1594 38.5149 65.239 38.4102 65.3179C37.7742 65.8965 37.1375 66.4754 36.5014 67.054C36.3587 67.2334 36.2156 67.4126 36.0733 67.5921C35.506 68.719 34.9392 69.8461 34.3724 70.9729C34.3001 71.1912 34.2284 71.4092 34.1568 71.627C34.1339 71.7932 34.1119 71.9594 34.089 72.1256C34.021 72.4358 33.9535 72.7462 33.8852 73.0564C33.8662 74.0052 33.7829 74.9574 33.8416 75.9015C33.966 77.908 35.6758 79.8887 37.5183 80.2575C37.8102 80.3004 38.1013 80.344 38.3931 80.3877C42.0412 80.4099 45.6893 80.4321 49.3371 80.4543C49.5238 80.4608 49.7102 80.468 49.8969 80.4745C51.331 80.5893 52.7652 80.7041 54.1995 80.819C54.5797 80.8829 54.96 80.9468 55.3402 81.0107C56.8773 81.2181 58.4137 81.4251 59.9501 81.6325C60.1421 81.6863 60.3334 81.7408 60.5246 81.7946C61.6701 82.0186 62.8157 82.243 63.9612 82.467C64.0545 82.482 64.1476 82.4969 64.2409 82.5119C64.8777 82.6279 65.5137 82.7444 66.1505 82.8604C66.3745 82.9393 66.5989 83.0184 66.8237 83.0973C67.0615 83.1182 67.2995 83.139 67.5381 83.16C67.6809 83.2294 67.8244 83.2987 67.9679 83.3681C68.4987 83.487 69.0296 83.6059 69.5605 83.7249C69.698 83.7902 69.8362 83.8553 69.9737 83.9205C70.1439 83.9439 70.3145 83.967 70.4843 83.9904C70.6958 84.0632 70.9076 84.1363 71.1191 84.2099C71.5544 84.14 72.1808 85.0174 72.4148 83.9484L72.4375 83.9383C72.8636 84.2593 73.2457 84.6988 73.7252 84.8775C74.9688 85.3409 76.2541 85.6918 77.5238 86.0835C78.2543 86.3083 78.6615 86.7453 78.5204 87.5565C78.4528 87.7885 78.3848 88.0205 78.3173 88.2526C78.3197 88.8276 78.3214 89.4028 78.3238 89.9778C78.3896 90.1189 78.4552 90.26 78.5211 90.4011C78.5389 90.5451 78.557 90.6898 78.5744 90.8341C78.6533 90.9756 78.7321 91.1179 78.8117 91.2595C78.771 91.3104 78.7739 91.3582 78.8211 91.403C78.9205 91.6201 79.0196 91.8365 79.1195 92.0535C79.394 92.6001 79.6354 93.1662 79.9494 93.6886C80.8132 95.13 80.2698 96.3569 78.6484 96.3C72.2209 96.074 65.793 95.8297 59.372 95.465C56.6214 95.3089 53.8879 94.842 51.1475 94.5161C51.023 94.464 50.8988 94.4122 50.7743 94.3601C49.8395 94.225 48.9036 94.0892 47.9688 93.9541C47.854 93.9069 47.7392 93.8591 47.6251 93.8118C45.0752 93.3743 42.5253 92.9373 39.9756 92.4995C39.7484 92.4267 39.5205 92.3543 39.2933 92.2819C38.6548 92.1659 38.0164 92.0499 37.3772 91.9346C37.156 91.8615 36.9344 91.7887 36.713 91.7163C36.5492 91.6949 36.3854 91.6734 36.2217 91.6517C36.0041 91.583 35.7858 91.5142 35.5683 91.4455C35.3997 91.4216 35.2311 91.3977 35.0625 91.3738C34.9457 91.3145 34.83 91.2549 34.7132 91.1956C34.0707 91.0622 33.4279 90.9284 32.7858 90.795C32.6626 90.7371 32.5396 90.6785 32.4171 90.6206C31.2427 90.3126 30.0685 90.0048 28.8951 89.6968C28.8298 89.8536 28.7647 90.0101 28.6995 90.1667C29.4354 91.1216 30.6694 91.1519 31.7654 91.4385C31.879 91.4899 31.993 91.5417 32.1066 91.5933C37.9177 92.7848 43.7288 93.9768 49.5399 95.1683C49.6559 95.218 49.7712 95.2677 49.8872 95.3171C52.1865 95.6382 54.4863 95.9592 56.7859 96.2802C56.9808 96.3198 57.1756 96.3586 57.3698 96.3974C60.637 96.6391 63.9018 96.929 67.1727 97.1078C70.019 97.2631 72.8726 97.2925 75.7232 97.3779C76.0054 97.3871 76.2876 97.396 76.5696 97.4042C77.1772 97.5101 77.7845 97.616 78.3921 97.7218C78.38 97.8137 78.4128 97.8856 78.4907 97.937C77.3887 99.5499 76.2529 101.098 73.963 100.947C73.5995 100.922 73.2247 101.063 72.8547 101.128C72.087 101.135 71.3188 101.144 70.5506 101.152H64.816C64.0473 101.142 63.2783 101.132 62.5097 101.121L60.2323 101C55.2278 100.38 50.1981 99.9165 45.224 99.1087C34.5179 97.3702 24.7029 93.4363 16.1191 86.686C14.8468 85.6853 13.6331 84.6115 12.3921 83.5719C10.5357 82.0816 10.4293 80.0375 10.5639 77.8979C10.6707 76.195 10.7175 74.4888 10.7911 72.7843Z" fill="#539836"/>
<path d="M137.003 60.0262C136.513 60.333 136.024 60.6403 135.535 60.9471C135.189 61.0935 134.845 61.2394 134.499 61.3858C134.387 61.4492 134.274 61.5132 134.161 61.5766C133.797 61.6996 133.433 61.8221 133.068 61.9447C132.943 62.0081 132.817 62.0715 132.692 62.135C131.576 62.4475 130.459 62.7596 129.342 63.0722C129.209 63.1393 129.077 63.2068 128.944 63.2744C128.122 63.3969 127.299 63.5194 126.475 63.6419C126.383 63.6487 126.29 63.6552 126.198 63.6617C121.032 63.7336 115.867 63.8059 110.701 63.8776C110.695 64.0886 110.69 64.2992 110.684 64.5102C111.14 64.6016 111.595 64.7715 112.051 64.7719C116.631 64.7797 121.211 64.769 125.791 64.735C126.403 64.7302 127.013 64.5664 127.624 64.4767C127.72 64.4634 127.815 64.4504 127.91 64.4372C129.291 64.1036 130.67 63.7693 132.337 63.3665C132.379 64.3906 132.421 65.3957 132.463 66.4C132.372 66.6139 132.282 66.8274 132.191 67.0413C131.048 67.647 129.904 68.2521 128.761 68.857C128.652 68.9156 128.544 68.9743 128.435 69.0334C127.59 69.3389 126.744 69.645 125.9 69.9506C125.77 70.0186 125.641 70.0862 125.512 70.1537C125.355 70.1778 125.199 70.201 125.042 70.2244C124.903 70.2936 124.763 70.3631 124.624 70.4318C124.477 70.4504 124.331 70.4682 124.185 70.4868C123.955 70.564 123.725 70.6416 123.496 70.7188C122.96 70.83 122.425 70.9405 121.89 71.0512C121.795 71.0649 121.701 71.0792 121.606 71.0929C120.741 71.2634 119.876 71.4332 119.011 71.6035C118.916 71.5808 118.824 71.5905 118.735 71.6322C117.113 71.7798 115.491 71.9277 113.869 72.0758C113.483 72.1182 113.097 72.1607 112.711 72.2031L100.381 72.2055C99.7086 72.1517 99.0366 72.0975 98.3647 72.0437C95.9757 71.7328 93.5866 71.4219 91.1976 71.1103C91.1045 71.0989 91.0104 71.0876 90.9173 71.0758C90.0174 70.8681 90.4646 70.4791 90.79 70.1132C91.8008 68.9767 92.9781 67.9477 93.7912 66.6839C95.2034 64.4909 96.3936 62.1552 97.6693 59.875C97.8751 59.5074 98.0424 59.1188 98.211 58.7732C110.031 62.6615 121.815 62.9169 133.654 59.2645C133.785 59.2006 133.917 59.1367 134.049 59.0728L139.121 57.0742C139.229 57.1261 139.336 57.1774 139.444 57.2295C139.244 57.6565 139.133 58.1688 138.825 58.4929C138.28 59.0643 137.617 59.5211 137.003 60.0262Z" fill="#539836"/>
<path d="M72.4419 83.9394L72.4189 83.9496C72.1512 83.7482 71.9107 83.4426 71.6107 83.3632C70.1184 82.9662 68.6107 82.6295 67.1083 82.2716C67.015 82.2542 66.9219 82.2369 66.8285 82.2195C66.1571 82.0473 65.4858 81.8751 64.8139 81.7029C64.7205 81.6855 64.6267 81.6676 64.5329 81.6503C63.987 81.5451 63.4405 81.44 62.8942 81.3346C62.6795 81.2677 62.4644 81.2007 62.2497 81.1339C61.8575 81.0483 61.4658 80.9621 61.0737 80.8768C60.7975 80.8437 60.5213 80.8109 60.2444 80.7786L60.2492 80.7834C59.9605 80.7094 59.6711 80.6346 59.3824 80.5598C58.8981 80.4696 58.4145 80.3787 57.9302 80.2878C57.8424 80.2388 57.7502 80.2304 57.654 80.2615C57.3084 80.2352 56.9623 80.2084 56.6166 80.1819C56.4888 80.1317 56.3602 80.0811 56.2324 80.0307C55.9406 79.9995 55.6487 79.9692 55.3571 79.938C55.1627 79.8944 54.9685 79.8502 54.7741 79.8059C53.9181 79.7504 53.0614 79.6942 52.2052 79.638C51.6294 79.5943 51.0532 79.5507 50.4775 79.507C50.2795 79.5053 50.081 79.5034 49.8832 79.5017C49.8048 79.4412 49.7231 79.4354 49.6369 79.4844C45.4759 79.4282 41.3148 79.372 37.1539 79.3162C37.0186 79.2087 36.8836 79.1011 36.7485 78.994C36.29 78.5415 35.8315 78.0895 35.3722 77.6375C35.3418 77.5478 35.3107 77.4583 35.2796 77.3691C35.0859 76.3158 34.7379 75.2635 34.7307 74.2094C34.7152 71.9383 35.6491 69.9294 36.8083 68.0218C36.9858 67.8294 37.1641 67.6369 37.3416 67.4442C38.5683 66.633 39.7957 65.8217 41.0224 65.0098C41.1529 64.9394 41.2825 64.8694 41.4129 64.7988C42.0461 64.69 42.6785 64.5812 43.3111 64.4724C43.405 64.4567 43.4983 64.4406 43.5914 64.4247C45.1524 63.936 45.95 64.7558 46.7814 65.9796C47.8912 67.6128 49.28 69.0573 50.6939 70.7575C49.0791 70.7575 47.6232 70.721 46.17 70.7707C45.2689 70.8011 44.3652 70.9256 43.4773 71.0877C43.2202 71.1347 43.014 71.4605 42.7844 71.659C43.0714 71.8491 43.3439 72.1684 43.6476 72.202C44.1582 72.2574 44.6886 72.0997 45.2115 72.0884C47.0709 72.0483 48.9319 71.9801 50.7901 72.0249C52.0904 72.0568 53.2143 72.5768 54.3407 73.3091C61.9752 78.2702 70.2082 79.5398 78.972 76.9781C79.9454 76.6935 80.4852 76.8734 80.9454 77.741C81.3467 78.4962 81.8069 79.2345 82.3385 79.9028C83.1258 80.8922 82.9572 81.7166 82.1024 82.5285C81.758 82.8563 81.4459 83.2185 81.1195 83.5646C80.8588 83.7943 80.5981 84.0239 80.3376 84.2533C79.5622 84.7339 78.9654 85.6225 77.8559 85.3372C77.7182 85.2655 77.5815 85.1937 77.444 85.122C77.013 85.0019 76.5817 84.8818 76.1507 84.7614C76.0072 84.6874 75.8639 84.6138 75.7204 84.5398L75.6085 84.4978L75.4896 84.5026C75.1852 84.4105 74.8803 84.3186 74.5759 84.2265C74.2079 84.1278 73.8396 84.0285 73.4713 83.9298C73.2513 83.9095 73.0313 83.8893 72.8111 83.869C72.6881 83.8922 72.5649 83.9161 72.4419 83.9394Z" fill="#AD522A"/>
<path d="M121.978 79.7016C123.098 79.5795 124.219 79.4577 125.34 79.3357C125.475 79.2694 125.61 79.203 125.745 79.1367C126.517 78.9872 127.292 78.8441 128.062 78.6871C129.983 78.2959 129.982 78.2937 130.906 79.9539C131.066 80.2402 131.228 80.5248 131.389 80.8099C131.364 80.9085 131.381 80.9978 131.444 81.0783C131.673 82.951 130.548 84.1562 129.351 85.326C129.208 85.4258 129.065 85.5264 128.923 85.6268C127.42 86.1919 125.917 86.756 124.414 87.3211C124.333 87.3445 124.252 87.3684 124.171 87.3916L124.03 87.3851L123.894 87.4246C123.497 87.5023 123.099 87.58 122.702 87.6571C120.83 87.654 118.958 87.6511 117.086 87.6475C115.918 87.5771 114.751 87.5059 113.583 87.4352C110.996 87.3462 108.407 87.2565 105.82 87.1675C105.729 87.1424 105.639 87.1173 105.548 87.0927C105.45 86.0464 105.351 85.0009 105.253 83.9553C105.181 83.807 105.109 83.6593 105.037 83.511C104.932 83.0805 104.826 82.6502 104.721 82.2196C104.423 81.9358 104.125 81.6516 103.826 81.3678C103.536 81.2937 103.246 81.2194 102.956 81.1454C102.862 81.1304 102.77 81.1155 102.676 81.1005C101.967 80.9618 101.257 80.8231 100.547 80.6849C100.556 80.553 100.564 80.4201 100.573 80.2879C103.462 80.1787 106.351 80.0692 109.239 79.9604C109.451 79.9592 109.662 79.9587 109.873 79.958C110.342 79.9527 110.81 79.9478 111.278 79.9425C114.193 79.9382 117.107 79.9474 120.022 79.9191C120.675 79.9131 121.326 79.7776 121.978 79.7016Z" fill="#AD522A"/>
<path d="M110.62 37.195C110.456 37.2165 110.293 37.238 110.129 37.2597C109.913 37.3354 109.696 37.4114 109.48 37.4874C109.314 37.51 109.148 37.5327 108.982 37.5556C108.843 37.622 108.703 37.6888 108.563 37.7558C108.034 37.8767 107.505 37.998 106.975 38.1193C106.835 38.1892 106.695 38.2592 106.555 38.3291C104.686 38.9372 102.817 39.5457 100.949 40.1545C100.827 40.222 100.705 40.2896 100.583 40.3564C100.132 40.5549 99.6812 40.7534 99.2304 40.9514C99.0404 40.9644 98.8501 40.977 98.66 40.9902C97.4244 38.0913 96.188 35.1922 94.832 32.0118C96.7379 31.7115 98.8412 31.3798 100.944 31.0487C101.141 31.0176 101.338 30.9857 101.535 30.9541C103.35 30.9488 105.163 30.9428 106.977 30.9375C108.032 30.9739 109.086 31.0103 110.14 31.0475C113.29 31.1126 116.44 31.177 119.59 31.2424C119.979 31.247 120.367 31.2518 120.756 31.2561C121.518 31.3319 122.28 31.4078 123.043 31.4838C123.233 31.4992 123.423 31.5149 123.613 31.5304C124.668 31.6953 125.721 31.861 126.775 32.026C126.964 32.0475 127.153 32.0692 127.341 32.0906C127.488 32.1056 127.635 32.121 127.781 32.136C127.92 32.2079 128.059 32.2795 128.198 32.3514L128.679 32.4153C128.901 32.4913 129.124 32.5677 129.346 32.6437C130.401 33.3137 131.456 33.984 132.511 34.6543L132.49 34.6746C131.582 34.5557 130.673 34.436 129.765 34.3164C129.628 34.2585 129.492 34.2004 129.355 34.1425C128.539 34.0079 127.723 33.874 126.907 33.7395C126.766 33.676 126.625 33.6128 126.483 33.5494C125.84 33.5248 125.196 33.4997 124.553 33.4753C123.286 33.4071 122.019 33.3396 120.753 33.2713H115.287C114.779 33.3371 114.27 33.4023 113.763 33.4674C113.412 33.4908 113.061 33.5135 112.711 33.5361C112.485 33.6073 112.26 33.6784 112.034 33.7491C111.781 33.7795 111.527 33.8101 111.274 33.8405C111.061 33.9105 110.848 33.9804 110.636 34.0504C110.466 34.075 110.298 34.0988 110.129 34.1232C109.998 34.1922 109.868 34.2609 109.738 34.3297C109.582 34.3487 109.427 34.3678 109.271 34.3871C109.13 34.4587 108.989 34.5311 108.848 34.6027C105.856 35.2406 103.016 36.2732 100.388 37.8533C100.256 37.962 100.124 38.0708 99.9921 38.1796C100.12 38.2587 100.247 38.3381 100.375 38.4169C101.433 38.087 102.491 37.7563 103.549 37.4259C103.649 37.3673 103.749 37.3086 103.848 37.2508C104.892 36.8668 105.935 36.4835 106.977 36.0998C107.12 36.0214 107.261 35.9432 107.404 35.8649C108.217 35.6555 109.032 35.4457 109.846 35.2358C109.94 35.2185 110.034 35.2013 110.127 35.1832C112.612 34.8646 115.096 34.546 117.581 34.2274C118.446 34.2274 119.313 34.2279 120.178 34.2279L129.638 35.197C129.733 35.2119 129.826 35.2276 129.921 35.2426C130.45 35.3538 130.979 35.4654 131.508 35.5774L131.927 35.7913C132.281 35.9042 132.634 36.0178 132.988 36.1309C133.111 36.1984 133.234 36.2655 133.357 36.3323C134.756 37.045 136.191 37.6948 137.539 38.4917C138.359 38.9767 138.994 39.7119 138.723 40.8139C135.579 39.4943 132.505 38.2037 129.429 36.9124C129.212 36.8405 128.996 36.7681 128.778 36.6958C128.602 36.6779 128.426 36.6594 128.25 36.6415C127.95 36.5732 127.651 36.5045 127.351 36.4358C127.06 36.416 126.77 36.3957 126.48 36.3759C126.298 36.355 126.117 36.3347 125.936 36.3137C122.802 36.2828 119.669 36.2344 116.536 36.2332C115.828 36.2332 115.119 36.3981 114.411 36.4871C114.211 36.538 114.01 36.5894 113.81 36.6403C112.965 36.7587 112.119 36.8769 111.274 36.9953C111.056 37.0624 110.838 37.1287 110.62 37.195Z" fill="#539836"/>
<path d="M90.2674 62.4491C88.6905 64.0675 87.1335 65.7066 85.5134 67.2807C85.2636 67.5236 84.7129 67.5641 84.3152 67.5313C81.6119 67.3089 78.9156 66.8815 76.2108 66.8229C70.7813 66.7052 65.3479 66.7679 59.9167 66.7882C59.0156 66.7911 58.1015 66.882 57.2185 67.0578C54.9257 67.5127 53.971 65.8634 52.5781 64.3101C53.2679 64.2486 53.6727 64.1804 54.0769 64.1809C56.3193 64.1864 58.5691 64.3304 60.8031 64.2001C65.8879 63.9035 70.9673 63.5007 76.0446 63.0936C80.4115 62.7431 84.772 62.3246 89.1364 61.9462C89.4061 61.9228 89.6847 61.9915 89.9589 62.0173C90.0619 62.1609 90.1646 62.3048 90.2674 62.4491Z" fill="#539836"/>
<path d="M116.448 37.2617C119.6 37.2629 122.752 37.2636 125.904 37.2649C126.187 37.3211 126.471 37.3765 126.755 37.4322C129.873 37.6785 132.592 39.0726 135.33 40.4124C135.437 40.4884 135.545 40.5637 135.653 40.6392C137.198 41.8623 138.764 43.061 140.274 44.3261C140.644 44.6362 140.833 45.1635 141.105 45.5916C140.818 45.5762 140.531 45.5612 140.245 45.5463C137.352 44.0127 134.465 42.4691 131.561 40.9558C131.065 40.697 130.502 40.5656 129.969 40.3748C129.862 40.3145 129.754 40.254 129.646 40.1937C129.094 40.0586 128.542 39.9235 127.991 39.7882C127.875 39.7388 127.759 39.6891 127.643 39.6394C126.872 39.5116 126.102 39.383 125.331 39.2545C125.042 39.2113 124.752 39.1679 124.463 39.1247C122.08 39.13 119.697 39.136 117.314 39.1421C117.12 39.1809 116.927 39.2197 116.733 39.2586C115.343 39.615 113.953 39.9713 112.563 40.3275C112.411 40.3449 112.258 40.3623 112.106 40.3789C111.067 40.8471 110.029 41.3152 108.99 41.7834C108.847 41.8755 108.705 41.9681 108.562 42.0608C107.258 42.8003 105.915 43.4807 104.659 44.2942C103.277 45.1893 101.987 46.2243 100.627 47.1543C100.405 47.3058 100.028 47.2291 99.7226 47.2578C99.67 47.0455 99.6179 46.8328 99.5653 46.6205C99.5354 46.0723 99.5055 45.5241 99.4756 44.9758C99.4165 44.8355 99.3572 44.6944 99.2981 44.5533C99.2646 44.2161 99.2305 43.8794 99.1965 43.5422C99.1312 43.3186 99.0661 43.0957 99.0009 42.8721C98.9452 42.2892 98.9496 41.918 99.7375 41.6758C101.709 41.0702 103.615 40.2491 105.547 39.5145C105.684 39.4433 105.822 39.3729 105.959 39.3017C106.394 39.1942 106.829 39.0864 107.264 38.9783C107.409 38.8987 107.555 38.8186 107.7 38.7386C108.224 38.6327 108.75 38.5275 109.274 38.4216C109.368 38.4055 109.463 38.3893 109.558 38.3739C111.475 38.0642 113.394 37.7545 115.312 37.4448C115.691 37.3838 116.07 37.3227 116.448 37.2617Z" fill="#539836"/>
<path d="M57.0977 67.9565C65.9852 67.8089 74.6204 67.4083 83.355 68.4978C78.8821 73.9189 61.2228 73.6883 57.0977 67.9565Z" fill="#539836"/>
<path d="M81.0872 28.1146C73.3953 27.7354 65.9419 27.754 58.3086 29.062C63.9094 24.735 75.0048 24.1998 81.0872 28.1146Z" fill="#539836"/>
<path d="M41.5201 53.0282C39.5789 53.0282 37.8158 53.1387 36.0809 52.9689C35.461 52.9086 34.7305 52.2851 34.3634 51.7163C33.7435 50.7552 34.1207 49.835 35.2464 49.6729C37.0261 49.417 38.8411 49.3939 40.6438 49.3321C40.8529 49.3251 41.2333 49.6795 41.2644 49.9038C41.4 50.8782 41.4352 51.8671 41.5201 53.0282Z" fill="#539836"/>
<path d="M121.977 79.7016C121.325 79.7776 120.674 79.9131 120.021 79.9192C117.107 79.9474 114.192 79.9382 111.278 79.9426C110.865 79.7525 110.455 79.4057 110.038 79.398C107.328 79.3478 104.617 79.3878 101.906 79.3524C101.491 79.3471 101.078 79.1025 100.664 78.9686C102.561 78.9423 104.458 78.8927 106.355 78.8946C110.296 78.8992 114.238 78.9315 118.179 78.9525C118.493 79.1874 118.788 79.588 119.124 79.6256C120.066 79.7315 121.025 79.6867 121.977 79.7016Z" fill="#0F140B"/>
<path d="M110.139 31.0495C109.085 31.0131 108.031 30.976 106.977 30.9395C108.046 30.5401 109.108 30.3303 110.139 31.0495Z" fill="#0F140B"/>
<path d="M120.176 34.2245C119.31 34.2241 118.444 34.2241 117.578 34.2241C118.444 33.5615 119.31 33.5598 120.176 34.2245Z" fill="#0F140B"/>
<path d="M98.3633 72.0391C99.0352 72.0928 99.7072 72.1466 100.379 72.2011C99.6701 72.6088 98.9803 72.7745 98.3633 72.0391Z" fill="#0F140B"/>
<path d="M37.3381 67.4437C37.1601 67.6364 36.9826 67.8289 36.8043 68.0214C36.5609 67.8784 36.3176 67.7351 36.0742 67.5921C36.2165 67.4133 36.3596 67.2339 36.5023 67.0547C36.7809 67.1845 37.0595 67.3142 37.3381 67.4437Z" fill="#0F140B"/>
<path d="M126.753 37.4287C126.47 37.3733 126.186 37.3171 125.902 37.2614C125.913 36.9452 125.925 36.6289 125.935 36.3125C126.116 36.333 126.297 36.3537 126.479 36.3742C126.57 36.7257 126.662 37.0773 126.753 37.4287Z" fill="#0F140B"/>
<path d="M103.827 81.3672C104.125 81.6511 104.423 81.9352 104.722 82.2186C104.499 82.3464 104.277 82.4745 104.055 82.6019C103.97 82.5109 103.886 82.4195 103.801 82.3279C103.81 82.0076 103.818 81.6877 103.827 81.3672Z" fill="#0F140B"/>
<path d="M100.375 38.4199C100.248 38.3403 100.12 38.2614 99.9922 38.1818C100.124 38.073 100.257 37.9642 100.388 37.8555C100.384 38.0438 100.379 38.2315 100.375 38.4199Z" fill="#0F140B"/>
<path d="M110.684 64.5113C110.689 64.301 110.694 64.09 110.7 63.8789C110.694 64.09 110.689 64.3003 110.684 64.5113Z" fill="#0F140B"/>
<path d="M118.738 71.63C118.827 71.5888 118.919 71.5794 119.014 71.6013C118.922 71.611 118.83 71.6206 118.738 71.63Z" fill="#0F140B"/>
<path d="M11.5399 67.6836L11.5693 67.8037L11.4688 67.8946C11.476 67.8187 11.4999 67.7482 11.5399 67.6836Z" fill="#0F140B"/>
<path d="M136.225 67.6648L135.945 67.6016C136.039 67.623 136.132 67.644 136.225 67.6648Z" fill="#0F140B"/>
<path d="M44.7969 63.3297C44.7986 63.2318 44.828 63.1426 44.8854 63.0625C44.856 63.1515 44.8261 63.2407 44.7969 63.3297Z" fill="#0F140B"/>
<path d="M99.5619 82.8098C99.5344 82.7131 99.5446 82.6203 99.5923 82.5312C99.6157 82.5995 99.6481 82.6663 99.657 82.7363C99.6599 82.756 99.5952 82.7852 99.5619 82.8098Z" fill="#0F140B"/>
<path d="M27.5508 45.5512C27.5609 45.4574 27.571 45.3636 27.5812 45.2695C27.6082 45.3395 27.6434 45.4077 27.6559 45.4801C27.6588 45.4967 27.5877 45.5274 27.5508 45.5512Z" fill="#0F140B"/>
<path d="M27.8203 44.1198C27.8309 44.0255 27.8423 43.931 27.8531 43.8359C27.8818 43.9071 27.9182 43.9766 27.9332 44.0506C27.9363 44.0648 27.8604 44.0967 27.8203 44.1198Z" fill="#0F140B"/>
<path d="M29.0434 43.0273L29.0668 43.1511L28.9609 43.2367C28.9706 43.1602 28.9981 43.0903 29.0434 43.0273Z" fill="#0F140B"/>
<path d="M29.3218 42.1719L29.3457 42.2831L29.2422 42.3518C29.2588 42.2879 29.2851 42.2273 29.3218 42.1719Z" fill="#0F140B"/>
<path d="M105.954 39.3008C105.817 39.3715 105.68 39.4426 105.543 39.513C105.68 39.4426 105.817 39.3715 105.954 39.3008Z" fill="#0F140B"/>
<path d="M131.927 35.7921L131.508 35.5781C131.648 35.6493 131.787 35.7209 131.927 35.7921Z" fill="#0F140B"/>
<path d="M132.509 34.6523C132.547 34.6989 132.585 34.7454 132.624 34.7927C132.579 34.7527 132.533 34.7126 132.488 34.6726L132.509 34.6523Z" fill="#539836"/>
<path d="M50.7773 94.3633C50.9018 94.4151 51.026 94.4672 51.1497 94.5193L50.7773 94.3633Z" fill="#0F140B"/>
<path d="M104.688 29.8377C104.782 29.8017 104.875 29.8041 104.967 29.8459C104.874 29.843 104.781 29.8406 104.688 29.8377Z" fill="#0F140B"/>
<path d="M48.4818 29.8009C48.4943 29.7565 48.5064 29.7123 48.5189 29.668C48.5023 29.7087 48.4854 29.7488 48.4688 29.7893L48.4818 29.8009Z" fill="#539836"/>
<path d="M78.4956 97.9373C78.4179 97.8867 78.3849 97.8148 78.397 97.7227C78.5065 97.761 78.5393 97.8322 78.4956 97.9373Z" fill="#0F140B"/>
<path d="M10.6172 83.9611C10.6949 83.8063 10.7732 83.6517 10.8509 83.4961C10.964 83.615 11.0769 83.7342 11.19 83.8523C10.9992 83.889 10.808 83.9247 10.6172 83.9611Z" fill="#0F140B"/>
<path d="M101.368 91.3594C101.651 91.3953 101.935 91.4313 102.219 91.467C101.909 91.684 101.599 91.9016 101.289 92.1194C101.315 91.8659 101.342 91.6129 101.368 91.3594Z" fill="#0F140B"/>
<path d="M101.502 95.3789C101.641 95.6107 101.778 95.842 101.917 96.074C101.746 96.1536 101.576 96.2337 101.407 96.3133C101.161 96.3044 100.916 96.2947 100.672 96.2851C100.949 95.9831 101.225 95.6806 101.502 95.3789Z" fill="#0F140B"/>
<path d="M101.272 96.5736C101.043 96.5634 100.815 96.5538 100.587 96.5437C100.581 96.4445 100.61 96.3572 100.674 96.2812C100.919 96.2909 101.164 96.3005 101.409 96.3095C101.363 96.398 101.318 96.4858 101.272 96.5736Z" fill="#050504"/>
<path d="M97.3491 87.8375C97.2355 87.8666 97.1214 87.8961 97.0078 87.9253C97.0305 87.8039 97.0532 87.6831 97.0758 87.5625C97.1668 87.6539 97.2582 87.7458 97.3491 87.8375Z" fill="#050504"/>
<path d="M105.559 93.3086C105.644 93.3098 105.73 93.3103 105.815 93.3115L105.687 93.3438L105.559 93.3086Z" fill="#0F140B"/>
<path d="M106.173 93.707C106.206 93.7714 106.246 93.8341 106.266 93.9024C106.27 93.9202 106.21 93.9562 106.179 93.9844C106.146 93.8923 106.144 93.8001 106.173 93.707Z" fill="#0F140B"/>
<path d="M127.342 77.9219C127.113 78.0056 126.885 78.0893 126.656 78.173C126.885 78.0893 127.114 78.0056 127.342 77.9219Z" fill="#0F140B"/>
<path d="M131.445 81.0802C131.383 80.9994 131.364 80.9104 131.39 80.8125C131.434 80.8704 131.484 80.9249 131.516 80.9888C131.523 81.0038 131.47 81.0491 131.445 81.0802Z" fill="#0F140B"/>
<path d="M124.168 87.3907C124.249 87.3673 124.33 87.3435 124.411 87.3203C124.337 87.3686 124.256 87.3927 124.168 87.3907Z" fill="#0F140B"/>
<path d="M113.271 88.4176L113.145 88.4557L113.023 88.4062C113.106 88.4099 113.188 88.414 113.271 88.4176Z" fill="#0F140B"/>
<path d="M106.402 91.1839C106.501 91.1802 106.583 91.2138 106.652 91.2837C106.569 91.2507 106.486 91.2174 106.402 91.1839Z" fill="#0F140B"/>
<path d="M36.0723 67.5938C36.3157 67.7365 36.559 67.8793 36.8029 68.0223C35.6437 69.93 34.7098 71.9389 34.7252 74.2099C34.7325 75.2647 35.0805 76.3168 35.2742 77.3696C35.3053 77.4593 35.3364 77.5483 35.3668 77.638C35.826 78.09 36.2845 78.5425 36.7431 78.9945C36.8781 79.1023 37.0132 79.2092 37.1485 79.3168C41.3093 79.373 45.4704 79.4287 49.6315 79.4849C49.7133 79.4909 49.7958 79.4967 49.8778 79.5022C50.0756 79.5039 50.2741 79.5058 50.4721 79.5075C50.9945 80.249 51.59 80.0367 52.1997 79.639C53.056 79.6947 53.9127 79.7509 54.7687 79.8071C54.9631 79.8508 55.1573 79.8949 55.3517 79.9393C55.6433 79.9697 55.9351 80.0008 56.227 80.0312C56.3548 80.0821 56.4834 80.1322 56.6112 80.1831C56.9568 80.2094 57.3029 80.2357 57.6486 80.262C57.7407 80.2709 57.8326 80.2801 57.9247 80.289C58.4091 80.3792 58.8926 80.4701 59.377 80.5611C59.6657 80.6351 59.9551 80.7099 60.2438 80.7847L60.239 80.7791C60.5159 80.8122 60.7921 80.8442 61.0682 80.8773C61.4604 80.9634 61.8521 81.0488 62.2443 81.1349C62.4589 81.2012 62.6741 81.2683 62.8888 81.3351C63.4351 81.4405 63.9816 81.5456 64.5274 81.6508C64.6212 81.6689 64.7151 81.686 64.8084 81.7041C65.4804 81.8763 66.1516 82.0478 66.8231 82.22C66.9165 82.2374 67.0096 82.2547 67.1029 82.2721C68.6053 82.63 70.113 82.9672 71.6053 83.3638C71.9053 83.4438 72.1458 83.7492 72.4135 83.9508C72.1805 85.0191 71.5539 84.1421 71.1185 84.2113C70.907 84.1385 70.6955 84.0656 70.4837 83.9921C70.3134 83.9687 70.1429 83.9453 69.9731 83.9221C69.8351 83.857 69.6977 83.7916 69.5595 83.7265C69.0286 83.6076 68.4982 83.4887 67.9673 83.3695C67.8238 83.3003 67.6806 83.2309 67.537 83.1621C67.299 83.1406 67.0605 83.1197 66.8226 83.0989C66.5983 83.0198 66.3735 82.9409 66.1495 82.8625C65.5132 82.7461 64.8764 82.63 64.2404 82.5135C64.1471 82.4986 64.054 82.4836 63.9606 82.4694C62.8152 82.2446 61.6698 82.0203 60.5236 81.796C60.3323 81.7422 60.1411 81.6884 59.9498 81.6342C58.4132 81.4272 56.8763 81.2198 55.3396 81.0124C54.9595 80.9484 54.5786 80.885 54.1983 80.8211C52.7641 80.7063 51.33 80.5915 49.8956 80.4767C49.7097 80.4694 49.5232 80.4629 49.3368 80.4557C45.6887 80.4342 42.0406 80.412 38.3926 80.3901C38.1007 80.3464 37.8091 80.3028 37.5173 80.2591C35.6748 79.8908 33.965 77.9101 33.8405 75.9031C33.7826 74.9598 33.8656 74.0069 33.8842 73.0585C33.9524 72.7483 34.0205 72.4381 34.0887 72.1272C34.1107 71.9615 34.1336 71.7954 34.1555 71.6292C34.2279 71.4109 34.2998 71.1926 34.3714 70.9746C34.9382 69.8475 35.5055 68.7206 36.0723 67.5938Z" fill="#050504"/>
<path d="M52.2006 79.6393C51.5906 80.0375 50.9958 80.2497 50.4727 79.5078C51.0484 79.552 51.6248 79.5956 52.2006 79.6393Z" fill="#0F140B"/>
<path d="M49.883 79.5032C49.8012 79.4974 49.7187 79.4919 49.6367 79.4861C49.7228 79.4369 49.8048 79.4429 49.883 79.5032Z" fill="#0F140B"/>
<path d="M57.9246 80.287C57.8325 80.2781 57.7406 80.2691 57.6484 80.2607C57.7447 80.2291 57.8368 80.238 57.9246 80.287Z" fill="#0F140B"/>
</g>
<defs>
<clipPath id="clip0_1054_5161">
<rect width="150" height="110" fill="white"/>
</clipPath>
</defs>
</svg>
