<svg width="150" height="110" viewBox="0 0 150 110" fill="none" xmlns="http://www.w3.org/2000/svg">
<path d="M26.5707 71.5009L48.5493 51.2304L115.95 42.8281L127.777 54.6963V59.0025L119.823 67.6149L121.916 76.9624L126.416 78.9579L125.684 80.3233L133.847 86.52L130.917 87.1502L133.01 94.7122L128.719 93.3468L128.405 97.2329L134.685 109.836H108.31L44.2582 109.206L25.7334 106.685L20.7097 96.7078L16 95.4474L23.5355 94.3971L20.7097 91.8764L16 89.6708L20.0817 88.5155V86.9401L17.5699 83.5792H21.7563L23.5355 80.0082L26.5707 71.5009Z" fill="white"/>
<path d="M114.2 17.8074L113.715 17.7515C113.687 18.3319 113.659 18.9121 113.619 19.7416C114.94 19.0318 114.142 18.376 114.2 17.8074ZM114.54 20.4667C113.362 21.9348 113.362 21.9348 114.881 22.5623C114.749 21.7498 114.645 21.1082 114.54 20.4667ZM35.4276 43.4026C35.2649 43.4268 35.1017 43.4516 34.939 43.4757C35.1234 44.4571 35.3074 45.4379 35.4914 46.4193C36.1637 45.3051 36.2261 44.2924 35.4276 43.4026ZM114.887 33.0212C113.103 33.6356 112.989 35.5627 114.66 37.2305C115.164 35.8032 114.979 34.4263 114.887 33.0212ZM111.378 65.2059C112.287 65.2255 112.674 64.7201 112.683 63.9874C112.69 63.307 112.446 62.6781 111.623 62.5706C110.878 62.4731 110.295 63.0583 110.309 63.8973C110.322 64.6466 110.646 65.1486 111.378 65.2059ZM91.4563 38.4676C92.3231 38.4106 93.0999 38.2313 93.0961 37.3379C93.0913 36.3716 92.5399 35.6116 91.6516 35.0966C90.8832 36.9833 90.8798 37.0341 91.4563 38.4676ZM109.643 62.2055C110.417 62.1889 111.227 61.4064 111.23 60.7403C111.232 60.0417 110.569 59.4016 109.864 59.4224C109.098 59.4453 108.459 60.1589 108.504 60.9567C108.546 61.7192 108.99 62.1021 109.643 62.2055ZM78.7955 69.3371C78.7118 68.6738 78.5316 68.0169 77.6144 67.9505C76.7651 67.8884 76.0715 68.454 76.0516 69.235C76.0306 70.0299 76.6766 70.7124 77.4592 70.7218C78.2243 70.7309 78.7742 70.1918 78.7955 69.3371ZM77.723 65.5624C77.6847 64.7447 76.9759 64.0609 76.2458 64.1363C75.4954 64.2138 74.8911 64.953 74.9313 65.743C74.9729 66.5537 75.6369 67.1801 76.4275 67.1553C77.1708 67.1315 77.7632 66.4037 77.723 65.5624ZM39.3816 16.0423C37.926 15.6858 37.1264 15.8312 36.6787 16.6861C36.4731 17.0791 36.413 17.7895 36.6381 18.1013C36.8664 18.4178 37.5549 18.5947 37.9932 18.525C39.0166 18.3628 39.4909 17.4413 39.3816 16.0423ZM112.257 55.6914C112.252 54.7195 111.478 54.0395 110.334 54.0021C109.227 53.9656 108.516 54.6441 108.528 55.7254C108.54 56.7167 109.232 57.4456 110.181 57.4647C111.315 57.4878 112.261 56.6793 112.257 55.6914ZM74.8099 62.9535C76.0384 62.9984 77.0224 62.1922 77.0059 61.1539C76.9906 60.1799 75.8845 59.1468 74.8656 59.1544C73.9255 59.1615 73.0786 59.9885 73.0135 60.9638C72.9421 62.0248 73.7455 62.9144 74.8099 62.9535ZM83.532 63.837C83.6432 62.5468 82.6573 61.2846 81.455 61.1777C80.3688 61.081 79.1851 62.133 79.0287 63.3335C78.865 64.5919 79.816 65.9619 80.9465 66.0976C82.3921 66.2713 83.3983 65.3914 83.532 63.837ZM104.876 91.39C105.061 90.9331 105.209 90.6682 105.276 90.3844C105.694 88.6235 106.253 86.9809 107.799 85.8073C108.317 85.4145 108.559 84.6543 109.112 83.7653C107.294 83.9447 105.818 84.0905 104.289 84.2409C105.017 86.6126 104.891 87.2621 103.613 89.1455C103.214 89.7335 102.932 90.4006 102.476 91.2591C103.48 91.3137 104.117 91.3482 104.876 91.39ZM115.554 55.7427C114.204 55.7103 113.117 56.7879 113.07 58.2058C113.025 59.5848 114.077 60.7981 115.379 60.8689C116.65 60.9382 117.796 59.7751 117.836 58.3776C117.879 56.9246 116.882 55.7744 115.554 55.7427ZM54.3218 37.4627C57.0007 37.0692 59.4297 36.713 61.9495 36.3433V34.0049C59.2775 33.8474 56.7784 33.8671 54.3218 34.9168V37.4627ZM44.0836 39.008C46.9935 38.4125 49.8506 38.38 52.3161 36.9711C52.5449 34.5158 52.299 34.282 50.0909 34.6676C49.8577 34.7086 49.6098 34.6905 49.3852 34.7565C47.5889 35.2827 45.6591 35.4226 44.0836 36.4529V39.008ZM41.8455 36.4101C39.2236 36.9986 36.7819 37.5467 34.4207 38.0766C33.9282 39.3351 33.721 40.3843 34.4113 41.6384C37.0485 40.5593 39.9173 40.3743 42.5034 38.8093C42.283 38.0069 42.0911 37.306 41.8455 36.4101ZM80.1785 86.5969C80.4496 86.8546 80.5863 87.0771 80.7805 87.1554C84.1885 88.5244 87.5859 89.9227 91.0293 91.1959C91.8033 91.482 92.7735 91.5204 93.5765 90.9192C93.7173 89.7933 92.9902 89.4047 92.2006 89.0871C89.4476 87.9805 86.6917 86.8821 83.9341 85.7884C82.6001 85.2592 81.3825 85.4025 80.1785 86.5969ZM91.9536 106.286C94.806 106.252 97.1688 106.107 99.4186 105.201C101.041 104.549 101.887 103.228 101.9 101.605C101.913 100.015 100.981 98.721 99.4286 98.216C95.5209 96.9458 91.5693 96.4091 87.5774 97.9488C86.2718 98.4527 85.3021 99.37 84.8585 100.618C84.1615 102.578 84.5204 103.803 86.1437 104.731C88.1132 105.857 90.1369 106.545 91.9536 106.286ZM79.9497 56.5047C82.6194 56.9137 84.6463 58.3524 86.276 60.4471C87.9363 62.5794 87.8072 65.1377 87.7486 67.9083C88.6933 67.4111 89.3118 67.0836 89.9318 66.7587C92.5655 65.3763 93.018 62.9648 92.743 60.3582C92.5041 58.1018 90.6462 57.3763 88.7979 56.7637C88.5174 56.6707 88.23 56.5659 87.9397 56.5425C85.287 56.331 82.6332 56.1359 79.9795 55.9361C79.2429 55.95 78.5061 55.9636 77.769 55.9771C74.8618 56.0092 72.3435 57.0343 70.1441 58.9248C69.2045 59.7318 68.2115 60.4765 67.2428 61.2493C67.0682 61.1004 66.8938 60.951 66.7192 60.8019C67.5511 59.9549 68.3222 59.0353 69.2277 58.277C71.0672 56.7366 73.0953 55.3719 75.5243 55.1713C78.6413 54.914 81.7547 54.5691 84.9257 55.0232C88.2011 55.4921 91.3853 55.9134 93.6721 58.7956C94.2461 58.4606 94.7625 58.1835 95.2552 57.868C97.855 56.2029 100.393 54.433 103.055 52.8756C108.846 49.488 115.022 49.5208 121.316 51.0941C122.713 51.4434 124.09 51.8753 125.477 52.2691C125.529 52.129 125.58 51.9887 125.632 51.8486C124.784 51.4871 123.961 51.0435 123.084 50.7771C118.295 49.3218 113.432 48.3932 108.384 48.6234C105.227 48.7677 102.324 49.6365 99.6405 51.2663C98.4739 51.9753 97.3784 52.801 96.2112 53.5081C95.547 53.9105 94.8027 54.18 93.8616 54.618C93.9836 54.0859 93.9752 53.891 94.0659 53.7748C94.2848 53.4953 94.5266 53.2224 94.8012 52.9999C99.2838 49.3708 104.377 47.224 110.165 47.3227C113.4 47.3778 116.626 48.0159 119.855 48.3999C120.206 48.4417 120.546 48.5673 120.896 48.6106C121.187 48.6465 121.486 48.6182 121.782 48.6182C119.049 47.0732 116.57 45.4824 113.132 46.0277C110.302 46.4766 107.41 46.5588 104.543 47.1215C101.548 47.7099 98.4237 47.5851 95.4792 48.6543C94.6693 48.9484 93.732 48.9547 92.8501 48.975C91.0067 49.0173 89.1615 48.9702 87.3168 48.9803C86.1404 48.9864 85.0151 49.2099 83.9279 49.8499C85.3272 50.3179 86.6455 50.6704 87.8842 51.2071C88.5643 51.5018 89.2446 52.011 89.6689 52.6065C89.945 52.9947 89.9086 53.7723 89.7147 54.2563C89.6268 54.4771 88.8036 54.5222 88.3449 54.4491C87.4133 54.3006 86.4946 54.0471 85.5857 53.7847C82.6347 52.9325 79.6132 52.6933 76.5958 53.0852C71.193 53.7877 66.5608 56.2527 62.5335 59.8501C59.418 62.6332 56.1159 64.9341 51.761 65.1679C51.4971 65.1822 51.2522 65.5462 50.9683 65.7706C51.4956 66.7188 52.2692 66.911 53.1256 66.9351C55.1981 66.9935 57.2802 67.125 59.2438 66.2295C59.2486 66.4757 59.2528 66.7221 59.2576 66.9687C58.893 67.2412 58.5283 67.5136 57.9221 67.9667C62.3103 69.6846 66.4406 71.3875 71.3731 71.3154C70.9703 70.6012 70.7348 70.2131 70.5268 69.8112C69.3588 67.5544 68.9002 65.2101 69.9001 62.7802C71.3632 59.2256 73.8684 56.9412 77.8105 56.5037C78.5236 56.5041 79.2368 56.5041 79.9497 56.5047ZM113.523 51.2082C112.675 51.2474 111.827 51.2873 110.979 51.3266C108.492 51.4415 106.205 52.187 104.088 53.4919C102.621 54.3964 101.12 55.2463 99.6731 56.1796C97.6879 57.4594 95.739 58.7952 94.15 59.8558C93.7822 61.9782 93.4923 63.6515 93.2012 65.3322C95.964 66.8492 102.831 67.6373 105.919 66.7425C105.523 65.5742 105.071 64.422 104.741 63.2362C103.272 57.9567 105.862 53.2594 111.008 51.8108C111.837 51.7211 112.665 51.6318 113.494 51.5421C116.141 51.9146 118.311 53.1428 120.003 55.2139C121.73 57.3294 121.696 60.0308 122.243 62.851C123.65 61.954 124.88 61.3367 125.912 60.4803C128.535 58.303 127.852 54.3806 124.68 53.1466C121.094 51.7514 117.361 51.1659 113.523 51.2082ZM81.5098 32.1883C81.4307 31.8646 81.3518 31.5405 81.2331 31.0542C78.6641 31.2954 76.1962 31.5254 73.729 31.7602C73.2375 31.8073 72.7412 31.8672 72.8873 32.5803C72.9666 33.2508 73.0455 33.9213 73.1491 34.7987C75.7895 34.5025 78.2285 34.2862 80.6464 33.9266C81.5182 33.7969 81.8749 33.0962 81.5098 32.1883ZM110.11 29.4645C110.441 28.6474 109.856 28.5596 109.319 28.5377C107.278 28.4548 105.236 28.3771 103.194 28.367C102.653 28.3647 101.947 28.4174 102.047 29.3141V31.0637H109.779C109.904 30.4636 110.007 29.9638 110.11 29.4645ZM100.273 30.0668V29.0597C98.16 29.0597 96.1777 28.9938 94.204 29.0944C93.4758 29.1314 92.4516 29.1652 92.5272 30.407C92.4526 31.1723 92.4118 31.9279 93.1107 32.5114C94.8041 32.2898 96.4977 32.1419 98.1589 31.8216C99.108 31.6388 100.128 31.3252 100.273 30.0668ZM63.8679 35.0487V36.4775C66.2558 36.5644 68.3586 36.058 70.4108 35.3041C71.3546 34.9567 71.5702 34.2013 71.3205 33.275C71.4132 32.4133 70.878 32.2253 70.2094 32.3301C68.1694 32.65 66.1367 33.0141 63.9411 33.388C63.9125 34.04 63.8901 34.5443 63.8679 35.0487ZM90.6728 31.45V30.2394C88.0791 30.4041 85.6619 30.5579 83.1982 30.715V31.8476C83.2338 32.353 83.2698 32.8578 83.3265 33.6661C85.7749 33.2516 88.0247 32.8954 90.2575 32.4513C90.4538 32.4118 90.5369 31.7974 90.6728 31.45ZM115.318 29.6487C115.288 29.3299 115.259 29.011 115.22 28.5938H111.798C111.747 29.0039 111.704 29.3364 111.662 29.6691C111.624 30.193 111.585 30.7165 111.529 31.4771C112.801 31.3242 113.787 31.266 114.747 31.0723C115.539 30.9124 115.775 30.3852 115.318 29.6487ZM71.6588 5.35081C72.7661 4.90528 73.3302 4.19676 73.2197 3.38825C73.1089 2.57343 72.3642 1.91869 71.3532 1.78299C70.6335 1.68657 69.9365 1.70842 69.4865 2.42492C68.6741 3.01245 68.7199 3.81004 69.0527 4.59313C69.3678 5.33422 70.0822 5.45773 70.8052 5.44764C71.0903 5.44386 71.3741 5.38463 71.6588 5.35081ZM104.609 9.16418C105.939 8.99467 106.418 8.57623 106.446 7.59107C106.467 6.83507 106.08 6.36307 105.411 6.13285C104.626 5.86188 104.112 6.25385 103.566 7.46398C103.324 8.39391 103.77 8.90035 104.609 9.16418ZM114.59 14.7502C115.359 14.5614 115.917 14.0274 115.769 13.2891C115.662 12.7568 115.144 12.1764 114.653 11.8851C114.057 11.5319 113.408 11.7223 113.146 12.5148C112.465 14.1766 112.918 14.8784 114.59 14.7502ZM56.7217 43.3144C56.9482 43.2968 57.1747 43.2789 57.4007 43.2613C58.5526 42.3032 57.8801 41.3794 57.3478 40.4534C57.0631 40.2144 56.7851 39.7848 56.4919 39.7735C55.7731 39.7466 55.0136 41.0214 55.0028 42.128C54.9938 43.0899 55.5566 43.3453 56.4025 43.2209C56.5017 43.2775 56.6076 43.3088 56.7217 43.3144ZM73.1577 36.1853C72.629 36.3433 72.1004 36.5016 71.5717 36.6602C69.4839 37.0707 67.396 37.4811 65.3082 37.8916C62.9431 37.8727 60.6146 38.1569 58.1635 38.6367C58.4882 39.2002 58.7213 39.6023 58.9522 40.0056C59.8762 41.6209 59.6614 42.8704 58.2489 44.1055C57.3268 44.9117 55.9127 45.0195 54.9613 44.3555C54.0179 43.6969 53.7644 42.8403 54.19 41.5325C54.4935 40.6001 54.8573 39.6876 55.3262 38.4045C54.087 38.61 53.1691 38.7182 52.2726 38.9198C50.6577 39.2824 49.0547 39.701 47.4471 40.0961C47.0555 40.164 46.6641 40.2325 46.2724 40.3003C46.0573 40.3274 45.8423 40.3543 45.6275 40.3818C44.5594 40.5015 43.4912 40.6211 42.423 40.741C40.4952 41.2208 38.5674 41.701 36.4086 42.2383C37.7881 44.5225 37.6363 46.498 36.2485 48.4478C36.0195 48.7696 36.3289 49.4771 36.3812 49.935C37.9587 49.6968 39.2994 49.522 40.6285 49.2819C41.3813 49.1462 42.1978 49.0509 42.8423 48.6837C45.4762 47.1826 48.3238 46.9406 51.2587 46.965C52.3117 46.9738 53.3749 46.8031 54.4188 46.6289C56.1618 46.338 57.8928 45.9788 59.6287 45.6486C59.8563 45.6572 60.0836 45.6662 60.3115 45.6753C60.7882 45.6979 61.2654 45.7206 61.742 45.7435C63.214 45.7108 64.6926 45.75 66.157 45.6234C67.5075 45.5068 68.839 45.185 70.1858 45.0014C72.1164 44.738 74.1436 44.7987 75.9649 44.2093C78.2589 43.4667 80.5417 42.9937 82.9231 42.9937C84.9531 42.9941 86.94 42.9439 88.8167 41.9923C89.4338 41.6791 90.1786 41.5411 90.8783 41.4819C94.8831 41.1431 98.9037 40.932 102.773 39.6905C102.993 39.6197 103.246 39.6596 103.48 39.6216C105.748 39.2511 108.128 39.6517 110.303 38.6375H114.947C114.227 38.2703 113.875 38.0909 113.523 37.912C112.098 36.4937 112.309 34.7422 112.646 32.9229C105.897 32.633 99.2792 32.5671 92.5872 33.8373C93.0597 34.4 93.5265 34.9182 93.9505 35.4688C95.3124 37.2358 94.4527 39.3181 92.2266 39.6687C90.2883 39.9747 89.4026 39.0148 89.8845 37.1058C90.1233 36.1582 90.407 35.222 90.7435 34.0186C86.2415 34.625 82.0266 35.193 77.8111 35.761C77.0984 35.8024 76.3854 35.8431 75.6727 35.8843C75.3001 35.9446 74.9275 36.0049 74.5549 36.0651C74.0892 36.1055 73.6235 36.1454 73.1577 36.1853ZM44.1882 49.6943L44.2075 49.6731C43.9772 49.8111 43.747 49.9487 43.5167 50.0869C43.2821 50.206 43.0477 50.3255 42.813 50.4446C41.7099 50.5542 40.6064 50.6639 39.503 50.7729C39.2968 50.7937 39.0902 50.8147 38.8836 50.8351C37.2286 51.1216 35.4734 51.2233 34.5254 53.1583C36.3729 54.6957 38.3938 55.2738 40.665 55.0906C40.9065 55.0854 41.1481 55.0801 41.3892 55.0749C41.7922 54.9814 42.1947 54.8879 42.5974 54.7945C44.968 54.3109 47.2556 53.4469 49.7254 53.4047C51.0219 53.3822 52.3124 53.0825 53.6097 52.9472C55.0779 52.7939 56.5515 52.5775 58.0224 52.5817C60.0662 52.5876 62.0663 52.4086 63.964 51.6436C65.4236 51.0557 66.9003 50.7777 68.474 50.7729C70.6819 50.7658 72.846 50.4759 74.8633 49.4367C75.3612 49.1805 76.0388 49.0053 76.5646 49.1179C79.6879 49.7859 82.5717 49.0794 85.3554 47.7298C86.2 47.3208 86.9959 47.253 87.9296 47.4446C90.8771 48.0497 93.8375 48.1798 96.6817 46.9526C98.1863 46.3029 99.7198 46.0847 101.35 46.0319C102.938 45.9807 104.571 45.7805 106.08 45.3102C107.655 44.8197 109.204 44.6607 110.816 44.7109C111.648 44.7371 112.512 44.8804 113.306 44.7115C114.442 44.4704 115.573 44.0855 116.62 43.582C117.308 43.2514 117.659 42.5708 116.946 41.8339C116.597 40.5066 115.638 39.9386 114.378 39.6767C112.334 39.2515 110.375 39.4347 108.495 40.3629C107.616 40.4978 106.737 40.6282 105.858 40.7677C104.043 41.0561 102.176 41.1733 100.426 41.6873C98.4555 42.2667 96.5015 42.6231 94.4627 42.5072C92.1623 42.3767 89.9994 42.7905 87.8909 43.7791C87.0298 44.1828 85.9001 44.4078 84.987 44.2288C82.349 43.7125 79.8656 44.1786 77.4938 45.1839C75.6836 45.9513 73.865 46.2655 71.9409 46.1857C69.5375 46.0861 67.1978 46.3789 64.9555 47.2948C64.4485 47.3721 63.9412 47.4494 63.4344 47.5267L63.2722 47.5078C61.0563 46.9919 58.8316 47.0013 56.6095 47.4418C54.5418 47.8519 52.5483 48.6807 50.3508 48.2457C48.2982 47.8395 46.3798 48.3732 44.591 49.4153C44.4568 49.5084 44.3224 49.6014 44.1882 49.6943ZM112.086 24.3024V24.3066C111.915 24.5154 111.743 24.7242 111.572 24.933C111.487 24.9447 111.425 24.9884 111.384 25.0634C111.249 25.1617 111.113 25.2598 110.978 25.3585C110.516 25.4961 110.054 25.6337 109.592 25.7713C108.477 25.4169 107.836 24.6406 107.567 23.5159C107.057 21.384 106.499 19.2629 106.029 17.1222C105.607 15.201 105.276 13.2592 104.906 11.3261C104.765 11.3118 104.625 11.2971 104.484 11.2824C104.161 12.1455 103.837 13.0086 103.514 13.8718C103.37 14.2263 103.226 14.5803 103.082 14.9347L103.102 14.9353C102.987 15.189 102.872 15.4434 102.756 15.6978C102.519 16.2526 102.281 16.8077 102.043 17.3625C101.962 17.5261 101.881 17.6898 101.799 17.8536C100.739 19.6941 99.795 21.6155 98.5907 23.3552C97.0761 25.5428 94.8447 26.5899 92.1788 26.4323C90.7186 26.3464 89.2727 26.0158 87.82 25.795C84.4116 24.0583 81.236 21.9438 78.9195 18.8785C76.7149 15.9612 74.8306 12.7999 72.819 9.7368C72.2606 8.88691 71.7513 8.00446 71.0572 6.87162C70.8236 7.5583 70.7154 7.87674 70.6072 8.19519C70.392 8.8638 70.1531 9.52611 69.9658 10.2023C68.5502 15.3115 66.7331 20.2455 63.9734 24.8076C62.02 28.0368 59.3229 30.1394 55.5886 30.8232C54.3091 31.0576 53.0215 31.2479 51.7378 31.458C49.3947 31.5117 47.4708 30.6446 45.9595 28.8415C45.235 27.9779 44.4302 27.1774 43.7545 26.2782C42.5417 24.6643 41.4173 22.9845 40.2158 21.3622C39.8365 20.8497 39.3295 20.4316 38.8813 19.9708C38.5753 20.8345 38.5768 21.4836 38.5749 22.1333C38.5663 25.0487 38.5644 27.9647 38.5418 30.8801C38.5374 31.412 38.5025 31.9562 38.3853 32.473C37.9327 34.4704 36.6891 34.971 34.9867 33.8761C34.6795 33.6789 34.3617 33.4985 33.694 33.097C34.0345 34.4746 34.2776 35.4591 34.5225 36.4495C39.1386 35.4388 43.5186 34.4509 47.9137 33.5323C49.6978 33.1592 51.5136 32.9391 53.3148 32.6492C53.7885 32.621 54.2628 32.6007 54.7357 32.5633C57.8049 32.3207 60.8742 32.0768 63.9426 31.8272C64.3554 31.7936 64.7659 31.7256 65.1768 31.6697C70.9358 30.8849 76.695 30.1037 82.453 29.3133C85.5593 28.8871 88.7473 28.9835 91.7428 27.8521C92.2446 27.7559 92.7467 27.6591 93.2483 27.5622C93.4597 27.5442 93.6711 27.5267 93.8825 27.5087C94.8391 27.4032 95.7957 27.298 96.7516 27.1925L96.7498 27.1978C100.428 27.1541 104.106 27.11 107.783 27.0663C108.512 27.0663 109.239 27.0663 109.967 27.0669C110.788 27.0678 111.607 27.0688 112.427 27.0697C112.677 27.0707 112.928 27.0715 113.178 27.0726H115.478C115.235 25.8896 115.029 24.8859 114.823 23.8823C114.382 23.8045 113.941 23.7266 113.5 23.6489C113.414 23.5867 113.319 23.5558 113.213 23.5573C112.726 23.0779 112.479 23.292 112.355 23.8573L112.347 23.8776C112.26 24.019 112.173 24.1608 112.086 24.3024ZM90.677 87.3254L90.6694 87.3205C90.843 87.4226 91.0169 87.5245 91.1904 87.6266C93.1987 87.9877 94.5936 89.2073 95.6841 90.8539C95.8543 90.9715 96.0245 91.0892 96.1953 91.2072C98.9066 91.8328 100.871 90.6663 102.447 88.579C102.659 88.2981 102.844 87.9963 103.042 87.7039C103.177 87.5142 103.311 87.3239 103.446 87.134C103.293 85.2027 102.526 84.3321 100.659 84.1592C98.7264 83.9804 96.7839 83.9092 94.8475 83.7731C92.5031 83.6084 90.1602 83.4252 87.8162 83.2496C87.6994 82.71 87.5033 82.468 87.0871 83.0551C86.1153 82.9289 85.1191 82.8942 84.1814 82.6413C83.6315 82.4932 83.1752 81.9968 82.6768 81.6566C82.9405 81.5484 83.2149 81.3263 83.4663 81.3501C85.9991 81.5864 88.5279 81.863 91.0582 82.1283C91.1938 82.1785 91.3301 82.2294 91.4657 82.2802C94.1774 82.4392 96.8894 82.598 99.6011 82.7575C99.7137 82.7623 99.8268 82.7671 99.9392 82.7717C100.187 82.7747 100.435 82.7778 100.683 82.7808C100.908 82.7841 101.132 82.7879 101.356 82.7913C101.967 82.7913 102.579 82.7917 103.19 82.7917C103.532 82.7837 103.875 82.7751 104.217 82.7671C105.69 82.6161 107.171 82.5151 108.635 82.3025C110.622 82.0139 112.623 81.7462 114.57 81.2736C116.761 80.7418 117.096 80.1647 117.192 77.8329C116.019 78.1499 114.834 78.4702 113.648 78.7905C113.488 78.876 113.329 78.9619 113.169 79.0476C111.528 79.314 109.888 79.5806 108.247 79.8473C108.111 79.9019 107.975 79.9564 107.84 80.011C104.134 80.4368 100.425 80.7527 96.6945 80.3559C96.5603 80.3053 96.4255 80.2544 96.2907 80.2042C92.6852 80.404 89.1709 79.7419 85.6581 79.0672C85.3753 78.9766 85.0921 78.8855 84.8093 78.7947C83.9053 78.6311 83.001 78.4675 82.0969 78.3043C82.0965 78.0001 82.0965 77.6957 82.0961 77.3916C84.9374 77.8705 87.7756 78.371 90.6211 78.8223C95.03 79.5217 99.4575 79.703 103.902 79.1938C104.129 79.1764 104.356 79.1583 104.582 79.1403C105.891 79.0042 107.2 78.8678 108.509 78.7317C108.73 78.6763 108.951 78.6206 109.172 78.5647C110.929 78.2463 112.686 77.9278 114.443 77.609C114.611 77.5132 114.778 77.4172 114.945 77.321C116.152 76.7112 117.356 76.0976 118.566 75.4922C119.484 75.0324 119.781 74.3069 119.655 73.295C119.455 71.6954 119.391 70.0959 120.261 68.6221C120.327 68.511 120.229 68.3036 120.194 68.0407C118.478 68.3331 116.913 69.4178 115.096 68.6983C116.172 68.1238 117.275 67.6411 118.418 67.2914C120.083 66.7824 121.582 66.0268 122.801 64.7594C123.387 64.2512 123.973 63.7431 124.559 63.2348C124.473 63.1066 124.386 62.9791 124.3 62.8514C123.546 63.2453 122.791 63.6391 122.036 64.033C119.162 64.9394 116.331 66.0388 113.402 66.7018C110.127 67.4428 106.772 68.1285 103.438 68.2041C100.466 68.2719 97.4795 67.43 94.4891 67.0817C93.4641 66.9622 92.1782 66.7478 91.4056 67.2216C88.7807 68.8336 85.8618 69.6484 83.0313 70.6676C78.8736 72.1643 74.5463 72.7447 70.1182 72.3294C68.5294 72.1805 66.9405 72.0315 65.3518 71.8824L65.3405 71.8996C64.98 71.7643 64.6193 71.6286 64.2585 71.4929C60.2567 69.8633 56.2147 68.3914 51.8651 67.9791C50.6029 67.8594 49.6251 66.8416 49.6203 65.8304C49.6155 64.8539 50.1574 64.3229 51.6409 64.0225C54.0968 63.5261 56.4937 62.8827 58.5336 61.343C59.8123 60.3778 61.0416 59.3474 62.2915 58.344C64.9838 56.1821 67.77 54.1729 71.0275 52.9277C71.4279 52.8462 71.8369 52.7939 72.2271 52.6781C76.4696 51.4197 80.7399 51.5041 85.0211 52.4223C86.1452 52.6634 87.2473 53.0071 88.3596 53.3041C88.4253 53.1684 88.491 53.0331 88.5561 52.8979C88.1118 52.587 87.7073 52.1666 87.2157 51.9835C84.3672 50.9218 81.419 50.3402 78.3727 50.528C75.958 50.6771 73.631 51.3006 71.367 52.1515C71.0118 52.1904 70.6563 52.2297 70.3011 52.2691C69.221 52.374 68.1412 52.4788 67.0617 52.5836C65.4893 53.5129 63.8329 54.3262 62.3656 55.399C60.3565 56.8677 58.5587 58.6286 56.5335 60.0717C55.6682 60.688 54.4795 60.9323 53.3983 61.1336C52.5332 61.2949 52.2749 60.7431 52.6647 59.8007C55.0605 60.0379 56.6512 58.6211 58.2267 57.1215C59.2155 56.1806 60.2984 55.3387 61.3311 54.4428C61.557 54.2464 61.7481 54.0082 62.1113 53.6242C59.3673 53.678 56.8716 53.4392 54.4566 54.3346C53.8023 54.5773 53.0628 54.7062 52.3653 54.6945C49.5016 54.6451 46.7332 54.9881 43.9479 55.7796C42.0513 56.3186 39.9593 56.1682 37.6945 56.3466C36.9998 57.4048 36.1292 58.6078 35.4006 59.8913C35.001 60.596 34.705 61.4197 34.601 62.2212C34.3868 63.8698 34.3542 65.5414 34.2005 67.1994C34.1461 67.7888 33.9583 68.3654 33.8317 68.9481C33.6741 68.9395 33.5171 68.9309 33.3597 68.9225C33.1497 67.1021 32.9398 65.2813 32.7005 63.2077C27.5866 67.1202 25.8901 72.5962 24.4573 78.094C25.0985 78.3759 25.753 78.5994 26.342 78.9382C27.1615 79.4089 27.8931 80.0418 28.7306 80.4704C30.7392 81.4986 32.8136 82.3989 34.8132 83.4437C36.6196 84.3875 38.2835 85.5012 38.8903 87.673C39.0467 88.2326 39.5575 88.6918 40.0799 89.4507C40.6181 88.5876 40.9771 88.0114 41.3662 87.3873C43.0255 87.1977 44.2638 88.1078 45.4638 89.0991C46.2886 89.7795 47.0626 90.5287 47.9294 91.149C48.4726 91.5381 49.1389 92.0558 49.8506 91.1434C49.8359 90.9768 49.8254 90.748 49.7938 90.522C49.573 88.9333 49.9843 88.4294 51.5377 88.4219C52.8371 88.4158 53.9394 88.934 54.9971 89.6576C56.0701 90.3916 57.1487 91.177 58.337 91.6685C60.1646 92.4245 62.0005 93.3607 64.1607 93.0442C64.3309 92.5113 64.4797 92.0676 64.6141 91.6191C64.9716 90.4254 65.4765 90.0584 66.6904 90.2336C67.1504 90.2996 67.6308 90.4472 68.029 90.6821C69.6116 91.6172 71.1598 92.6115 72.7322 93.5643C73.7223 94.164 74.7326 94.7301 75.8705 95.3903C75.9588 94.8631 76.0179 94.6366 76.0321 94.4074C76.1414 92.6537 76.3995 92.4075 78.1766 92.3789C78.414 92.3751 78.6503 92.3613 78.8872 92.3522L78.8703 92.3405C79.6873 93.0902 80.4797 93.8689 81.3285 94.5812C82.2776 95.3779 83.2252 96.1965 84.2674 96.8569C85.6345 97.723 86.1465 97.5677 87.4853 96.1807C86.7106 95.7657 85.9635 95.3485 85.2018 94.9603C83.6442 94.1659 82.0789 93.3872 80.5172 92.6024C80.5702 92.3861 80.6235 92.1697 80.6769 91.9533C82.1484 92.6846 83.6034 93.4523 85.0959 94.1394C87.7666 95.3684 90.5554 96.1001 93.5265 95.9587C93.6414 95.9648 93.7567 95.9711 93.8716 95.9772C94.9488 96.0973 96.0259 96.2169 97.1031 96.3368C97.2672 96.4208 97.4307 96.5049 97.5948 96.5889C98.3297 96.5357 99.0644 96.4822 99.8712 96.4234C99.7364 92.937 102.071 92.9574 104.409 92.9051C101.222 92.7343 98.0984 92.8648 94.9917 92.6879C92.9496 92.5715 90.8453 92.264 88.9241 91.5941C85.7452 90.4861 82.6389 89.126 79.6037 87.6612C77.5934 86.6914 75.7608 85.3527 73.8485 84.1791L74.309 83.3498C74.6623 83.5538 75.0301 83.7359 75.3669 83.9642C77.1922 85.2013 79.067 86.0312 81.2301 84.7652C81.3953 84.6936 81.5609 84.6219 81.7262 84.5503C83.2593 84.34 84.6433 84.9219 86.0525 85.3697C86.155 85.4292 86.2582 85.4884 86.3608 85.5472C87.6833 86.0722 89.006 86.5969 90.328 87.1216C90.4444 87.1895 90.5606 87.2575 90.677 87.3254ZM29.9628 25.0592C30.7377 24.4565 31.4815 24.4841 32.2007 25.1625C33.2605 26.162 32.4816 27.136 32.091 28.2773C32.6107 29.2221 33.1286 30.2926 33.7712 31.2815C34.1164 31.8125 34.6137 32.3022 35.15 32.6372C36.4616 33.4567 37.4385 33.0321 37.4741 31.5197C37.5612 27.7725 37.5023 24.0217 37.5023 20.359C37.0008 20.0714 36.7492 19.9296 36.4999 19.7838C34.9453 18.8747 34.7111 16.8542 36.2081 15.8799C36.9813 15.377 38.0968 15.1935 39.0459 15.226C40.1287 15.2632 40.7353 16.1259 40.4525 17.2837C40.0952 18.748 40.5873 19.884 41.4101 20.9204C43.4429 23.4813 45.5264 26.0026 47.6278 28.5071C48.6987 29.783 50.1187 30.2054 51.7776 30.1228C57.352 29.8451 61.436 27.4005 64.0211 22.3068C66.2828 17.8517 67.613 13.1202 68.8191 8.32375C69.04 7.44592 68.8334 6.7374 68.2797 6.00472C66.9987 4.30872 67.1657 2.46189 68.5881 1.44459C70.3669 0.172903 73.0815 0.514455 74.1823 2.1487C74.7952 3.05846 74.7659 4.31313 74.0618 5.33863C73.7624 5.77407 73.3838 6.1547 72.9344 6.68719C73.4474 7.60346 73.9312 8.54872 74.4888 9.44797C76.1196 12.0766 77.7014 14.7412 79.4486 17.2907C81.8885 20.852 85.3186 23.171 89.3576 24.5557C92.7741 25.7268 95.8547 24.7834 97.8487 21.8424C100.122 18.4899 101.825 14.8137 103.462 11.1276C103.056 10.3708 102.649 9.71264 102.339 9.01084C101.813 7.81499 102.328 6.80482 103.032 5.86818C103.693 4.98888 104.617 4.8849 105.607 5.08509C107.365 5.44155 108.352 7.08231 107.384 8.57476C106.342 10.1804 106.535 11.7155 106.839 13.3531C107.383 16.2809 107.92 19.2112 108.54 22.1232C108.702 22.8849 109.16 23.5833 109.496 24.3431C111.044 23.7329 111.399 22.5788 111.715 21.4403C111.985 20.4663 112.122 19.4555 112.355 18.4703C112.676 17.1232 112.79 15.9051 111.996 14.5618C111.054 12.9702 112 11.1494 113.805 10.6352C114.22 10.517 114.772 10.5411 115.159 10.7209C116.891 11.5282 117.407 13.7865 116.082 15.1796C115.305 15.9967 115.216 16.7573 115.44 17.7576C116.477 22.3795 116.978 27.0451 116.516 31.7884C116.406 32.9139 116.436 34.0532 116.391 35.1858C116.322 36.918 116.32 38.4932 117.79 39.9159C119.063 41.1483 118.884 42.9458 118.19 44.6615C119.594 45.2961 121.056 45.9233 122.488 46.6104C127.012 48.7791 129.12 53.5902 128.916 58.0787C128.89 58.6576 128.749 59.2867 128.473 59.7884C127.153 62.1847 125.87 64.6142 123.605 66.3186C123.205 66.6196 122.943 67.1353 122.691 67.5924C122.434 68.0587 122.369 68.6586 122.044 69.0556C120.319 71.1669 121.165 73.0255 122.514 74.8633C122.725 75.1505 122.924 75.4462 123.15 75.7678C123.687 75.914 124.249 76.0674 124.865 76.2352C124.763 76.6776 124.675 77.0553 124.569 77.5159C126.59 78.2459 128.567 78.9598 130.545 79.674C129.732 80.5092 128.44 79.8026 127.898 81.1583C128.406 81.4805 128.953 81.799 129.47 82.1605C130.976 83.2135 132.474 84.2789 133.967 85.3504C134.889 86.0123 135.198 86.8897 134.832 87.9986C134.275 88.1124 133.721 88.2259 133.099 88.3532C132.988 91.0436 134.434 93.6065 133.538 96.2486C131.624 96.5433 130.997 94.093 128.811 94.5209C129.365 95.2212 129.731 95.756 130.169 96.2244C131.342 97.4787 132.567 98.6844 133.731 99.9466C134.808 101.113 135.115 102.531 134.962 104.089C134.892 104.799 134.91 105.517 134.888 106.232C134.57 105.746 134.267 105.251 133.932 104.778C132.505 102.77 131.069 100.768 129.637 98.7645C129.516 98.6384 129.396 98.5122 129.276 98.3859L129.281 98.3887C129.162 98.2677 129.042 98.1462 128.922 98.0248L128.926 98.0276C128.803 97.9089 128.68 97.7908 128.557 97.6721V97.6713C128.289 97.6637 128.022 97.656 127.754 97.649L127.747 97.6579C127.639 97.7961 127.531 97.9341 127.424 98.0723C127.368 98.1689 127.331 98.2725 127.312 98.3826C125.881 99.5389 125.065 101.44 123.043 101.973C122.693 101.464 122.37 100.996 121.919 100.341C120.685 101.116 119.584 101.84 118.706 103.082C119.312 103.42 119.729 103.624 120.118 103.872C122.308 105.265 124.336 106.851 126.001 108.868C126.006 109.192 126.013 109.515 126.018 109.839C125.785 109.831 125.551 109.823 125.317 109.814C125.245 109.111 124.891 108.76 124.047 108.888C123.992 109.183 123.931 109.506 123.871 109.829H119.259C119.103 109.278 118.941 108.704 118.718 107.918C120.276 108.024 121.545 108.11 122.885 108.201C122.855 107.172 122.097 107.057 121.57 106.827C119.228 105.81 116.859 104.857 114.501 103.876C114.092 103.705 113.692 103.511 113.258 103.121C116.959 101.761 120.115 99.6049 123.287 97.1388C123.518 97.7392 123.691 98.1889 123.94 98.8394C126.823 97.4264 128.189 95.0496 128.572 91.7748C129.818 92.5967 130.832 93.2668 131.847 93.9363C131.962 93.8571 132.078 93.7779 132.193 93.6985C131.188 91.2894 130.181 88.8802 129.092 86.2713H132.316C131.825 85.6962 131.612 85.292 131.277 85.0775C129.477 83.9254 127.651 82.8131 125.825 81.7021C125.04 81.2238 124.233 80.7817 123.205 80.1904C123.889 79.8748 124.272 79.6984 124.956 79.3827C123.046 78.2036 121.232 78.4162 119.261 78.2629C119.098 79.2338 118.952 80.086 118.813 80.9396C118.552 82.5369 118.128 84.0088 116.194 84.3001C116.102 84.7633 116.024 85.1548 115.941 85.5766C114.12 86.2652 112.12 85.0708 110.212 86.2438C110.737 88.0841 113.084 88.8285 113.111 91.1898C111.181 90.5829 109.321 89.9983 107.209 89.3339C106.478 91.3206 105.796 93.1761 105.07 95.1483C103.942 94.8906 102.984 94.6719 101.868 94.4165C101.281 95.924 101.036 97.3262 102.106 98.6393C103.413 100.242 103.809 101.93 103.138 103.954C102.522 105.812 102.139 107.747 101.603 109.842H99.9086C99.8584 109.093 99.8088 108.344 99.7521 107.492C96.6604 107.77 93.7557 108.031 90.8235 108.294C90.8917 108.803 90.9606 109.32 91.0293 109.836H89.4252C88.6635 108.011 86.9703 107.166 85.1796 106.461C83.6758 105.869 82.749 104.687 82.314 103.237C82.1041 102.536 82.3515 101.617 82.6125 100.875C82.8815 100.111 83.419 99.4417 83.9436 98.5544C82.385 97.1873 80.8992 95.831 79.3427 94.5616C79.0273 94.3045 78.4447 94.3761 77.8243 94.268C77.8896 95.4556 78.7899 96.3416 77.863 97.3087C76.8133 97.5203 75.8251 97.4155 74.7525 96.7592C72.176 95.1823 69.5834 93.5928 66.5396 92.6898C66.4856 92.9326 66.4233 93.133 66.3986 93.3378C66.1811 95.1221 65.74 95.6014 63.9824 95.2546C62.1387 94.8902 60.3258 94.2965 58.556 93.6472C56.9434 93.0555 55.4137 92.2409 53.8343 91.5546C53.251 91.3013 52.6301 91.1348 51.9312 90.8955C51.5647 92.0487 51.2488 93.0437 50.9292 94.0505C49.6117 94.3144 48.5871 93.8399 47.6286 93.2534C46.4125 92.5094 45.2644 91.6534 44.0572 90.8928C43.4902 90.5355 42.8542 90.2878 42.3492 90.0391C41.619 90.8781 41.0687 91.5105 40.369 92.3144C39.6753 91.52 39.1646 90.9648 38.6884 90.3817C38.087 89.6442 37.4992 88.8945 36.9317 88.1305C36.1828 87.1216 35.3135 86.7221 34.0075 87.0865C32.8297 87.4159 31.5704 87.4705 30.0999 86.8252C31.507 86.465 32.6359 86.1759 33.7641 85.8875C33.7559 85.7703 33.748 85.6535 33.7398 85.5363C31.0352 84.2726 28.3304 83.0085 25.4796 81.6761C23.8118 83.2179 22.0627 84.8824 19.3164 84.4501V82.6863H21.5718C21.8812 81.4986 22.199 80.3683 22.469 79.2266C23.2897 75.7523 23.9909 72.2479 25.649 69.0292C26.9549 66.493 28.7442 64.3636 30.9615 62.6237C32.213 61.6419 33.1673 60.4944 33.9008 59.1017C34.5074 57.9495 35.2072 56.8463 35.9377 55.5988C35.7405 55.5481 35.5504 55.483 35.3556 55.4503C33.2467 55.0986 32.805 53.1707 33.9186 51.8511C35.0757 50.4797 35.037 49.0784 34.5641 47.5196C34.2185 46.3817 33.9793 45.2117 33.65 44.0685C33.0694 42.0532 32.806 40.0705 33.1106 37.9244C33.5508 34.821 32.3554 31.9388 31.1306 29.1566C30.8575 28.5354 30.0298 28.1601 29.4578 27.6719C29.6024 27.5246 29.7477 27.3776 29.8927 27.2306C31.5487 27.5318 31.6726 27.4436 31.6244 25.8104C31.0821 25.7633 30.5173 25.715 29.9532 25.6661C29.9566 25.464 29.9595 25.2613 29.9628 25.0592Z" fill="#0F0D09"/>
<path d="M43.935 103.451C42.8244 104.113 41.7142 104.774 40.6033 105.435C40.6412 105.571 40.6791 105.706 40.7167 105.841C43.1576 105.841 45.6023 105.755 48.0386 105.866C50.5092 105.977 52.9718 106.281 55.4382 106.501C55.6846 106.683 55.931 106.864 56.1773 107.046C55.6287 107.483 55.0807 107.921 54.5327 108.359C54.6217 108.523 54.7111 108.688 54.7998 108.853C58.0635 108.727 61.2732 108.02 64.5123 107.654C67.7463 107.29 70.9627 106.772 74.4296 106.288C73.6282 108.307 71.1607 108.062 70.5673 109.841H68.8816C69.1742 109.321 69.4675 108.802 69.9171 108.006C68.2589 108.309 66.7938 108.577 65.329 108.845C64.3406 108.94 63.3434 108.984 62.368 109.154C61.9853 109.221 61.6515 109.57 61.2954 109.789C58.0072 109.804 54.719 109.817 51.4304 109.832C52.0171 109.145 52.604 108.459 53.4547 107.464C52.0431 107.414 51.0128 107.377 49.9825 107.341C48.9028 107.277 47.8238 107.214 46.7443 107.15C45.9211 107.138 45.0982 107.126 44.275 107.114C42.0706 106.932 39.8657 106.75 37.6333 106.565C37.708 106.29 37.7538 106.121 37.7999 105.953C38.5157 105.474 39.5824 105.315 39.5663 103.865H36.787C32.7119 103.725 28.6367 103.586 24.5612 103.447C24.5173 102.255 25.5948 101.966 26.2626 101.364C26.6314 101.032 27.1091 100.821 27.5501 100.549C26.6025 99.2559 26.1793 99.1511 25.1381 100.229C23.1385 102.3 21.2399 104.47 19.2993 106.598C18.9154 103.542 19.4004 100.653 21.1175 97.9439C20.4204 97.7256 19.8814 97.5572 19.2554 97.3612V95.9609C23.0608 97.1391 26.8665 98.3178 30.6719 99.496L30.6786 99.5042C30.3981 99.8396 30.1607 100.229 29.8279 100.499C29.2008 101.007 28.5115 101.443 28.4121 102.333C33.6382 102.609 38.7487 102.879 43.8595 103.149C43.8212 103.266 43.8461 103.366 43.935 103.451Z" fill="#0F0D09"/>
<path d="M44.274 107.115C45.0968 107.127 45.9201 107.139 46.7429 107.151C47.8224 107.215 48.9019 107.279 49.9815 107.342C51.0118 107.379 52.0421 107.415 53.4535 107.465C52.6024 108.46 52.0161 109.146 51.4294 109.833C44.5549 109.852 37.681 109.876 30.8066 109.89C27.0195 109.898 23.2325 109.891 19.2969 109.891V108.475C19.8756 107.993 20.4548 107.51 21.0336 107.028C22.3033 106.792 23.5634 106.45 24.8434 106.34C27.4131 106.12 29.9929 106.026 32.7903 105.867C32.7103 106.219 32.6929 106.73 32.4763 107.133C32.24 107.574 31.8186 107.916 31.3522 108.443C31.8446 108.584 32.1642 108.765 32.4729 108.747C33.4097 108.693 34.3407 108.548 35.2766 108.464C38.0949 108.211 40.9148 107.982 43.7302 107.701C43.9288 107.681 44.0934 107.319 44.274 107.115Z" fill="#BE141A"/>
<path d="M43.9346 103.451C43.8456 103.366 43.8207 103.266 43.859 103.149C44.0889 102.857 44.3185 102.565 44.5971 102.211C44.1423 101.991 43.8358 101.738 43.5057 101.7C40.9972 101.423 38.4883 101.107 35.9708 100.968C34.4283 100.883 33.0462 100.702 32.2673 99.1268C31.6862 99.2648 31.1822 99.3843 30.6782 99.5038L30.6715 99.4963C30.7728 99.0589 30.8734 98.6214 31.0091 98.0349C29.8047 97.5446 28.6676 97.0987 27.5436 96.6202C26.5897 96.2146 25.5496 95.8919 25.2695 94.6828C25.4016 94.3824 25.5331 94.0816 25.6645 93.7812C26.4706 93.8993 27.2773 94.0153 28.0826 94.1375C28.3135 94.1728 28.5663 94.1789 28.7654 94.2822C30.9028 95.3941 33.0364 96.5145 35.1607 97.6505C36.2904 98.2546 36.7321 98.2389 37.9652 97.3766C39.1531 97.9969 40.4157 98.6138 41.6371 99.3037C43.1582 100.163 43.4036 100.148 44.6042 98.8144C45.8752 98.6455 46.5126 99.8214 47.5071 100.252C46.9618 100.71 46.908 101.282 47.1255 101.916C47.2844 102.559 47.4428 103.203 47.6287 103.96C46.6275 104.687 46.1404 103.532 45.3362 103.091C44.9153 103.199 44.425 103.325 43.9346 103.451Z" fill="#E5E4CF"/>
<path d="M56.1766 107.047C55.9302 106.866 55.6839 106.684 55.4375 106.503C55.7578 106.108 56.171 105.757 56.3809 105.31C56.9691 104.056 57.817 103.205 59.2195 102.906C60.0162 102.737 60.7643 102.35 61.5545 102.134C61.9109 102.036 62.3162 102.118 62.7961 102.118C62.5175 102.911 62.2917 103.557 61.9861 104.427C64.1159 104.427 66.0408 104.453 67.9649 104.416C68.7833 104.399 69.6043 104.287 70.4144 104.156C71.089 104.046 71.7417 103.777 72.4178 103.701C73.3356 103.597 74.2964 103.447 75.1845 103.612C76.6711 103.888 78.1142 104.397 79.6516 104.829C80.1461 104.361 80.6955 103.842 81.245 103.323C81.3817 103.393 81.5184 103.463 81.6551 103.533C81.6285 103.957 81.7677 104.52 81.5481 104.782C80.1448 106.468 78.4912 107.867 76.6163 108.883C75.2402 107.925 75.2402 107.925 75.6536 106.281C75.4776 106.058 75.2777 105.771 75.0435 105.515C74.8455 105.299 74.6081 105.12 74.5401 105.059C71.4522 105.373 68.5376 105.654 65.6266 105.97C62.4751 106.312 59.3263 106.687 56.1766 107.047Z" fill="#E5E4CF"/>
<path d="M124.371 96.8996C124.237 96.386 124.138 96.0037 124.016 95.5371C121.888 95.969 120.605 97.5211 119.138 98.7464C118.445 99.3257 117.832 99.7362 116.715 99.2888C117.053 98.7958 117.359 98.3519 117.724 97.82C117.644 97.4642 117.543 97.0229 117.387 96.3354C118.868 96.0633 120.259 95.8081 121.779 95.5296C121.62 94.0495 121.485 92.7902 121.321 91.2537C122.602 91.3144 123.687 91.3656 124.922 91.424C125.852 90.3981 124.877 88.8626 125.512 87.689C127.971 86.8145 129.07 87.7688 128.725 90.5239C127.696 91.0022 127.007 91.808 126.917 93.0526C126.794 94.7347 125.776 95.848 124.371 96.8996Z" fill="#E5E4CF"/>
<path d="M134.893 107.758V109.831H130.283C129.131 108.632 127.977 107.435 126.828 106.233C125.696 105.05 125.717 104.754 126.779 103.563C127.644 102.593 128.441 101.565 129.269 100.562C130.669 101.63 131.562 103.086 132.446 104.576C133.128 105.724 133.273 107.325 134.893 107.758Z" fill="#BE141A"/>
<path d="M47.127 101.914C46.9096 101.28 46.9633 100.709 47.5086 100.251C50.9009 99.5499 54.1617 99.9761 57.2891 101.223C57.425 102.808 57.2816 103.275 56.2205 103.346C53.0987 103.555 49.9529 103.69 47.127 101.914Z" fill="#0F0D09"/>
<path d="M106.786 99.9533C106.412 98.9908 106.602 98.3203 107.522 98.0161C109.426 97.3866 111.318 96.6894 113.264 96.2244C114.814 95.8538 115.637 96.4142 116.33 97.8473C114.167 99.959 109.148 101.098 106.786 99.9533Z" fill="#0F0D09"/>
<path d="M129.268 100.563C128.441 101.566 127.643 102.595 126.779 103.564C125.716 104.755 125.695 105.05 126.827 106.235C127.977 107.436 129.13 108.633 130.282 109.833C129.22 109.833 128.159 109.833 127.097 109.834C126.975 109.508 126.711 109.16 126.756 108.86C126.92 107.761 126.366 107.052 125.598 106.444C124.498 105.573 123.406 104.687 122.25 103.896C121.674 103.503 121.148 103.231 121.673 102.306C122.397 102.583 123.091 102.848 123.784 103.113C125.452 102.072 127.175 101.169 127.816 99.1484C128.702 99.2045 129.138 99.7269 129.268 100.563Z" fill="#8A0507"/>
<path d="M127.816 99.1462C127.176 101.167 125.452 102.07 123.785 103.111C123.091 102.846 122.398 102.581 121.673 102.304C121.149 103.228 121.675 103.501 122.251 103.894C123.407 104.684 124.499 105.571 125.598 106.442C126.366 107.05 126.92 107.758 126.756 108.857C126.711 109.158 126.975 109.506 127.097 109.831H126.393C126.262 109.51 126.132 109.189 126.002 108.868C124.338 106.851 122.309 105.266 120.12 103.872C119.73 103.624 119.314 103.42 118.707 103.082C119.586 101.841 120.687 101.116 121.92 100.341C122.372 100.996 122.694 101.464 123.045 101.973C125.067 101.44 125.883 99.5388 127.313 98.3828C127.481 98.637 127.648 98.892 127.816 99.1462Z" fill="#BE141A"/>
<path d="M71.3125 101.662C71.8199 100.225 72.5452 99.5707 73.7398 99.414C75.1374 99.2308 78.7231 99.5289 80.2524 100.001C80.293 101.358 79.9591 102.07 78.8759 102.235C76.3906 102.612 73.9388 102.309 71.3125 101.662Z" fill="#0F0D09"/>
<path d="M124.605 85.8658C123.911 87.4175 122.762 88.4462 121.434 89.2372C120.085 90.0405 118.968 89.2534 117.809 88.4838C118.387 86.7644 119.563 85.5972 120.917 84.6334C121.871 83.9539 123.223 84.4484 124.605 85.8658Z" fill="#0F0D09"/>
<path d="M34.464 91.3365C33.1938 92.2182 32.1189 92.9958 30.647 92.3686C29.5604 91.9054 28.4586 91.4655 27.4122 90.9221C26.8713 90.6412 26.4357 90.1573 25.8906 89.7145C28.5967 88.2487 31.4451 88.7846 34.464 91.3365Z" fill="#0F0D09"/>
<path d="M25.2689 94.6836C25.5489 95.8927 26.589 96.2153 27.5429 96.6209C28.6668 97.0995 29.804 97.5458 31.0084 98.0357C30.8728 98.6222 30.7715 99.0597 30.6708 99.497C26.8653 98.3184 23.0597 97.1398 19.2543 95.9614C19.2513 95.7061 19.2486 95.4505 19.2461 95.1951C21.2539 95.0247 23.2611 94.854 25.2689 94.6836Z" fill="#F4F4F4"/>
<path d="M91.03 109.835C90.9609 109.319 90.8918 108.803 90.8242 108.294C93.7564 108.03 96.6611 107.77 99.7528 107.492C99.8095 108.344 99.8591 109.093 99.9093 109.842C96.9491 109.84 93.9896 109.837 91.03 109.835Z" fill="#8A0507"/>
<path d="M21.0375 107.027C20.4587 107.509 19.8796 107.991 19.3008 108.473C19.3012 107.848 19.3012 107.223 19.3016 106.598C21.2422 104.469 23.1408 102.3 25.141 100.228C26.1818 99.1504 26.6054 99.2557 27.553 100.548C27.1118 100.821 26.6337 101.031 26.2655 101.364C25.5978 101.966 24.5202 102.255 24.5641 103.446C24.3441 103.514 24.0473 103.512 23.9167 103.66C22.9383 104.765 21.9931 105.9 21.0375 107.027Z" fill="#E40607"/>
<path d="M25.2689 94.6814C23.2611 94.8518 21.2539 95.0226 19.2461 95.1929V94.5785C20.022 94.4138 20.7105 94.268 21.4029 94.1214C21.2133 92.7216 20.1669 92.5199 19.3294 91.9572V90.1602C21.5938 91.4537 23.6286 92.6168 25.6638 93.7799C25.5318 94.0802 25.4003 94.381 25.2689 94.6814Z" fill="#0F0D09"/>
<path d="M127.815 99.1455C127.648 98.8913 127.48 98.6363 127.312 98.3822C127.332 98.2721 127.369 98.1685 127.424 98.0713C127.532 97.9337 127.64 97.7957 127.747 97.6575L127.755 97.6484C128.023 97.6556 128.29 97.6631 128.558 97.6703L128.558 97.6718C128.681 97.7904 128.804 97.9085 128.927 98.0268L128.923 98.0242C129.043 98.1459 129.163 98.2669 129.282 98.3883L129.277 98.3849C129.397 98.5116 129.517 98.6378 129.637 98.7641C131.07 100.768 132.506 102.769 133.932 104.778C134.268 105.25 134.571 105.746 134.889 106.231C134.89 106.739 134.891 107.248 134.892 107.756C133.272 107.323 133.128 105.722 132.446 104.574C131.562 103.084 130.669 101.628 129.268 100.561C129.138 99.7236 128.702 99.2016 127.815 99.1455Z" fill="#E40607"/>
<path d="M104.896 108.987C105.363 107.934 106.206 107.348 107.294 107.016C108.532 107.441 108.628 108.522 108.925 109.751C107.474 109.758 106.104 110.491 104.944 109.171C104.861 109.127 104.845 109.066 104.896 108.987Z" fill="#E5E4CF"/>
<path d="M21.7197 89.0457C20.8555 89.1163 20.1727 89.1723 19.3555 89.2391V85.3008C20.5655 86.2114 21.7269 87.0466 21.7197 89.0457Z" fill="#0F0D09"/>
<path d="M65.3281 108.847C66.7929 108.579 68.258 108.311 69.9162 108.008C69.4666 108.804 69.1733 109.324 68.8807 109.843C67.8092 109.841 66.7381 109.84 65.667 109.839C65.5542 109.508 65.4412 109.177 65.3281 108.847Z" fill="#BE141A"/>
<path d="M65.3305 108.844C65.4435 109.174 65.5565 109.505 65.6694 109.836C64.2121 109.82 62.7548 109.804 61.2969 109.788C61.6529 109.568 61.9868 109.22 62.3694 109.154C63.3449 108.983 64.3421 108.938 65.3305 108.844Z" fill="#8A0507"/>
<path d="M104.895 108.987C104.844 109.066 104.86 109.127 104.943 109.172C104.774 109.411 104.631 109.827 104.432 109.856C103.812 109.945 103.17 109.888 102.496 109.888C103.089 108.341 103.497 108.203 104.895 108.987Z" fill="#1E080A"/>
<path d="M123.871 109.826C123.932 109.503 123.992 109.18 124.047 108.886C124.892 108.757 125.246 109.108 125.318 109.811C124.835 109.816 124.353 109.821 123.871 109.826Z" fill="#1E080A"/>
<path d="M29.962 25.0586C29.9586 25.2609 29.9559 25.463 29.9526 25.6657C29.823 25.8089 29.6934 25.9526 29.5639 26.0961C29.3539 26.0965 29.144 26.0965 28.9336 26.0969C29.2763 25.7509 29.6191 25.4046 29.962 25.0586Z" fill="#1E080A"/>
<path d="M28.9325 26.0981C29.1424 26.0981 29.353 26.0977 29.563 26.0977C29.672 26.4753 29.7813 26.853 29.891 27.2311C29.7459 27.3784 29.6006 27.5254 29.4556 27.6725C28.8839 27.2805 28.6229 26.7848 28.9325 26.0981Z" fill="#0F0D09"/>
<path d="M126.004 108.867C126.134 109.188 126.265 109.51 126.395 109.831C126.27 109.833 126.146 109.836 126.022 109.839C126.016 109.515 126.01 109.191 126.004 108.867Z" fill="#1E080A"/>
<path d="M78.887 92.3537C78.65 92.3627 78.4131 92.3766 78.1763 92.3804C76.3988 92.4083 76.1411 92.6551 76.0318 94.4089C76.0172 94.6381 75.9586 94.8639 75.8702 95.3915C74.732 94.7311 73.7216 94.1654 72.7317 93.5657C71.1591 92.6123 69.6114 91.6183 68.0283 90.6833C67.6306 90.4481 67.1497 90.301 66.6901 90.2344C65.4762 90.0599 64.9714 90.4266 64.6134 91.6206C64.4795 92.0691 64.33 92.5127 64.1598 93.0456C61.9999 93.3622 60.1637 92.4259 58.3361 91.6695C57.1484 91.1784 56.0694 90.393 54.9964 89.6589C53.9385 88.9352 52.8364 88.417 51.5374 88.4233C49.984 88.4309 49.5723 88.9348 49.7936 90.5235C49.8247 90.7489 49.8356 90.9776 49.8503 91.1442C49.1386 92.0567 48.4723 91.5389 47.9285 91.1503C47.0623 90.5302 46.2883 89.7809 45.4636 89.0999C44.2631 88.1091 43.0252 87.1991 41.3653 87.3888C40.9768 88.0129 40.6178 88.5888 40.0796 89.452C39.5572 88.6932 39.046 88.2334 38.8899 87.6745C38.2828 85.5027 36.6187 84.389 34.8129 83.4452C32.8133 82.4001 30.7389 81.4996 28.7301 80.4718C27.8922 80.0427 27.1612 79.4098 26.3417 78.939C25.7525 78.6006 25.0978 78.3771 24.457 78.0952C25.8892 72.5976 27.5859 67.1216 32.6998 63.2091C32.9391 65.2828 33.1495 67.1032 33.3594 68.9237C33.5164 68.9323 33.6738 68.9403 33.8308 68.9489C33.9581 68.3666 34.1458 67.7896 34.2003 67.2004C34.3535 65.5429 34.3859 63.871 34.6007 62.2227C34.7047 61.4211 35.0003 60.5975 35.4003 59.8927C36.1289 58.6087 36.9995 57.4063 37.694 56.3476C39.9591 56.1697 42.051 56.3201 43.9477 55.7811C46.7327 54.989 49.5013 54.6464 52.3648 54.6957C53.0619 54.7077 53.8014 54.5785 54.456 54.3361C56.8713 53.4406 59.3666 53.6792 62.111 53.6253C61.7474 54.0097 61.5567 54.2472 61.3302 54.4443C60.2981 55.3402 59.2153 56.1814 58.2264 57.1229C56.6505 58.6225 55.0603 60.0389 52.6642 59.802C52.2742 60.7441 52.5327 61.2963 53.398 61.135C54.479 60.9334 55.6679 60.6895 56.5332 60.0725C58.558 58.6301 60.3563 56.869 62.3649 55.4005C63.8322 54.3271 65.489 53.5141 67.0608 52.5851C68.1409 52.4802 69.2208 52.3754 70.3004 52.27C70.6559 52.2311 71.0111 52.1916 71.3667 52.1523C71.2537 52.4113 71.1402 52.6706 71.0272 52.9291C67.7695 54.1744 64.9831 56.1833 62.2912 58.3452C61.0414 59.3485 59.812 60.379 58.5333 61.3442C56.4931 62.8842 54.0965 63.5271 51.6406 64.0239C50.1567 64.3239 49.6152 64.8553 49.6196 65.8313C49.6248 66.8431 50.6022 67.8608 51.8641 67.9803C56.214 68.3929 60.2564 69.8648 64.2582 71.4942C64.6191 71.6295 64.9793 71.7652 65.3402 71.9009L65.3515 71.8838C65.3368 72.2577 65.3226 72.6312 65.3084 73.0051C63.9315 73.9731 63.3083 75.421 62.8103 76.9483C62.3819 77.1886 62.3837 77.4277 62.8122 77.6654C62.825 77.8705 62.8378 78.0749 62.8505 78.2794C62.9587 78.5504 63.0672 78.8208 63.1754 79.0913L63.1743 79.0905C63.288 79.331 63.4019 79.5711 63.5153 79.8112C64.4696 80.9426 65.3529 82.1445 66.3918 83.1908C69.2478 86.0688 72.5284 88.3895 76.0442 90.3957C77.0399 90.964 77.9417 91.6964 78.887 92.3537Z" fill="#539836"/>
<path d="M65.3086 73.0026C65.3228 72.6287 65.3375 72.2552 65.3517 71.8813C66.9405 72.0302 68.5292 72.1794 70.1175 72.3283C74.5463 72.7436 78.8734 72.1628 83.0307 70.6665C85.8617 69.6473 88.7807 68.8325 91.4056 67.2205C92.1778 66.746 93.4638 66.9609 94.4891 67.08C97.4794 67.4285 100.465 68.2702 103.437 68.2028C106.772 68.1274 110.127 67.4411 113.402 66.7004C116.331 66.0371 119.162 64.9381 122.036 64.0312C122.291 64.2739 122.546 64.5159 122.8 64.7583C121.582 66.0253 120.083 66.7811 118.418 67.2903C117.274 67.6396 116.171 68.1225 115.096 68.6972C116.912 69.4167 118.478 68.332 120.194 68.0391C120.229 68.3026 120.326 68.5099 120.261 68.6204C119.391 70.0948 119.454 71.6939 119.654 73.2935C119.781 74.3056 119.484 75.0311 118.565 75.4909C117.356 76.0961 116.151 76.7101 114.945 77.3199C114.778 77.4157 114.61 77.5119 114.443 77.6079C112.686 77.9263 110.929 78.2446 109.172 78.5634C108.951 78.6191 108.73 78.675 108.509 78.7306C107.2 78.8667 105.891 79.0029 104.582 79.1392C104.356 79.157 104.129 79.1747 103.902 79.1927C99.4573 79.7015 95.03 79.5202 90.621 78.8212C87.7749 78.37 84.9374 77.8688 82.0954 77.3905L81.3867 77.2884C81.0273 77.1892 80.6679 77.0901 80.3081 76.9905C78.2894 76.3208 76.2627 75.676 74.2551 74.9742C72.41 74.3299 70.5801 73.6395 68.7548 72.94C67.5872 72.493 66.4481 72.4598 65.3086 73.0026Z" fill="#539736"/>
<path d="M72.0926 16.9732C70.8302 18.5352 70.188 20.1822 69.9615 21.9612C69.9014 22.4334 70.2636 23.1066 70.6433 23.4578C71.4368 24.1924 73.1915 24.1958 73.9934 23.6177C74.9511 22.9275 75.362 21.4339 74.8111 20.2417C74.2348 18.9954 73.4394 17.8928 72.0926 16.9732ZM109.592 25.772C110.054 25.6345 110.516 25.4965 110.978 25.3589C111.114 25.2606 111.249 25.1625 111.385 25.0637C111.426 24.9887 111.488 24.9451 111.572 24.9331C111.743 24.7243 111.915 24.5155 112.087 24.3069V24.3029C112.174 24.1611 112.261 24.0198 112.348 23.8784L112.356 23.858C112.642 23.7578 112.928 23.6576 113.214 23.5576C113.319 23.5566 113.415 23.5875 113.5 23.6496C113.634 23.8565 113.768 24.0639 113.903 24.2708C113.786 24.527 113.669 24.7833 113.552 25.0389C113.441 25.1841 113.331 25.3288 113.22 25.4736C113.207 26.0071 113.192 26.5398 113.179 27.0733C112.928 27.0723 112.678 27.0715 112.427 27.0704C111.608 27.0689 110.788 27.0681 109.968 27.067H107.784C107.576 26.9822 107.369 26.8251 107.16 26.8242C103.988 26.8095 100.815 26.8051 97.6424 26.833C97.3441 26.8356 97.0475 27.0708 96.7503 27.1981L96.7526 27.1929C95.796 27.2987 94.8394 27.404 93.8833 27.5094C93.6718 27.5269 93.4606 27.5449 93.2488 27.563C92.7471 27.6592 92.2453 27.756 91.7436 27.8529C88.7476 28.9842 85.5596 28.8874 82.454 29.314C76.6954 30.1041 70.9361 30.8855 65.1771 31.67C64.7662 31.7259 64.3563 31.7938 63.9434 31.8276C60.8747 32.0775 57.8053 32.3214 54.7364 32.564C54.2631 32.6014 53.7888 32.6214 53.3155 32.6493C52.7485 32.5947 52.1821 32.5403 51.5977 32.4838C51.6468 32.1246 51.6927 31.7914 51.7385 31.4587C53.0223 31.2487 54.31 31.0577 55.5896 30.8239C59.3232 30.1402 62.0208 28.0371 63.9741 24.8079C66.7338 20.2459 68.5509 15.3118 69.9661 10.203C70.1539 9.52644 70.3923 8.86455 70.6075 8.19531C71.1427 9.37982 71.5687 10.6301 72.2354 11.7348C73.9202 14.526 75.6196 17.3181 77.4945 19.981C78.898 21.9736 80.5927 23.817 82.7939 24.9312C84.3173 25.7019 85.9536 26.6604 87.8207 25.7954C89.273 26.0159 90.719 26.3468 92.1796 26.4331C94.8451 26.5902 97.0764 25.5435 98.5911 23.3558C99.7955 21.6159 100.74 19.6949 101.8 17.8544C101.881 17.6905 101.963 17.5269 102.044 17.363C102.281 16.8079 102.519 16.2533 102.757 15.6981C102.872 15.4442 102.988 15.1898 103.103 14.9354L103.082 14.935C103.336 14.9564 103.589 14.9772 103.843 14.9982C103.872 15.5694 103.902 16.1407 103.932 16.7121C103.326 17.6943 102.719 18.6772 102.113 19.6598C101.486 21.0747 101.544 21.5005 102.45 22.1591C102.565 22.1967 102.681 22.2341 102.796 22.2717C103.804 23.0575 103.976 23.0375 104.879 22.0305C105.001 21.9284 105.123 21.827 105.245 21.7249C105.847 22.7918 106.44 23.863 107.052 24.924C107.781 26.1882 108.104 26.2894 109.592 25.772Z" fill="#F7CA06"/>
<path d="M107.793 34.6821L107.819 34.7096C107.585 33.577 106.693 33.6482 105.873 33.6936C105.049 33.7391 104.44 34.1572 104.096 34.9497C103.586 36.1279 103.969 37.4628 104.96 37.8571C105.664 38.1375 107.044 37.8262 107.588 37.187C108.238 36.4231 108.556 35.5847 107.793 34.6821ZM65.3084 37.8932C67.3959 37.4828 69.4841 37.0723 71.5719 36.6617C71.7743 36.8833 71.9765 37.1055 72.1785 37.3271C71.499 38.3117 71.0777 39.3462 71.8101 40.4755C72.2934 41.222 73.9933 41.7381 74.8883 41.4819C75.9605 41.1754 76.933 40.0839 77.0276 39.0727C77.1463 37.7983 76.2527 37.3095 75.3107 36.8606C75.0587 36.5957 74.8071 36.3315 74.5551 36.0672C74.9277 36.0069 75.3003 35.9462 75.6729 35.8859C76.4086 36.2447 77.1279 36.3182 77.8111 35.7626C82.0266 35.1946 86.2417 34.6266 90.7437 34.0202C90.4071 35.224 90.1233 36.1596 89.8847 37.1074C89.4028 39.0164 90.2884 39.9764 92.2267 39.6707C94.4529 39.3195 95.3125 37.2374 93.9507 35.4702C93.5266 34.9199 93.0598 34.4021 92.5874 33.8389C99.2794 32.5685 105.897 32.6345 112.647 32.9245C112.309 34.7439 112.098 36.4953 113.524 37.9136C112.989 38.0317 112.454 38.148 111.92 38.268C111.381 38.3896 110.842 38.5152 110.303 38.6392C108.128 39.6537 105.749 39.2531 103.48 39.6233C103.247 39.6613 102.994 39.6214 102.773 39.692C98.9038 40.9334 94.8836 41.1445 90.8785 41.4833C90.1788 41.5428 89.434 41.6808 88.8169 41.994C86.9402 42.9453 84.9531 42.9957 82.9233 42.9957C80.5419 42.9951 78.259 43.4688 75.9651 44.2109C74.1438 44.8003 72.1165 44.7396 70.186 45.0028C68.8392 45.1866 67.5077 45.5082 66.1572 45.625C64.6928 45.7517 63.2146 45.7124 61.742 45.745C61.2654 45.7223 60.7883 45.6996 60.3117 45.6767C60.0842 45.6677 59.8564 45.6593 59.6289 45.6502C59.7409 45.2738 59.7518 44.8117 59.9831 44.5355C60.9964 43.3255 62.1175 42.2051 63.1139 40.9817C63.9093 40.0047 64.5816 38.9267 65.3084 37.8932Z" fill="#F6C806"/>
<path d="M108.245 79.8484C109.886 79.5817 111.527 79.3149 113.167 79.0487C113.327 78.9628 113.486 78.8769 113.646 78.7916C114.831 78.4713 116.017 78.151 117.191 77.834C117.095 80.1658 116.759 80.7429 114.568 81.2747C112.621 81.7473 110.62 82.015 108.633 82.3036C107.169 82.5162 105.688 82.6172 104.215 82.768C103.873 82.7762 103.53 82.7846 103.188 82.7928C102.577 82.7928 101.966 82.7922 101.355 82.7922C101.13 82.789 100.905 82.7852 100.681 82.7819C100.433 82.7789 100.185 82.7756 99.9375 82.7728C99.8274 82.7102 99.7144 82.7054 99.5994 82.7586C96.8877 82.5991 94.1758 82.4401 91.464 82.2813C91.3277 82.2305 91.1921 82.1796 91.0558 82.1294C88.526 81.8641 85.9972 81.5875 83.4646 81.3512C83.213 81.3274 82.9384 81.5499 82.6744 81.6576L82.6334 81.6255C81.3926 81.2548 80.1523 80.8846 78.9115 80.5141C78.7459 80.5023 78.5806 80.4908 78.415 80.479C77.378 80.1501 76.341 79.8213 75.3041 79.4924C75.1167 79.464 74.93 79.4361 74.7429 79.4075C74.5447 79.4321 74.346 79.4573 74.1476 79.4821C73.8746 79.5907 73.6013 79.6999 73.3285 79.8089C73.092 79.5768 72.8561 79.3453 72.6202 79.1132C72.6991 78.1995 71.937 78.3541 71.436 78.1757C71.2778 78.1039 71.1227 78.0251 70.9609 77.9617C70.1087 77.6281 69.2591 77.7813 68.7205 78.4404C68.1024 79.1958 68.7025 79.9745 69.2415 80.45C70.7221 81.756 72.3043 82.9451 73.8464 84.1802C75.7585 85.3538 77.5917 86.6923 79.6018 87.6623C82.6372 89.1271 85.7433 90.4872 88.9218 91.595C90.8436 92.2651 92.9477 92.5726 94.99 92.6888C98.0963 92.8659 101.22 92.7354 104.407 92.9062C102.07 92.9583 99.7347 92.9379 99.8695 96.4242C99.0623 96.4831 98.3278 96.5368 97.5931 96.59C97.429 96.506 97.2649 96.4219 97.1014 96.3379C96.0243 96.218 94.9471 96.0982 93.8699 95.9783C93.7573 95.926 93.642 95.9199 93.5246 95.9598C90.5537 96.1012 87.7647 95.3695 85.0936 94.1405C83.6017 93.4534 82.1467 92.6856 80.6752 91.9542C76.1935 89.5029 71.9133 86.7583 68.0708 83.3589C66.4994 81.969 65.0474 80.5074 64.1641 78.558C63.5162 77.128 64.176 76.0342 65.002 74.9631C65.8039 73.9244 66.7808 73.4215 68.1091 73.8736C69.1739 74.2361 70.2724 74.5086 71.3142 74.9262C74.233 76.0958 77.1486 77.2607 80.279 77.751C80.5283 77.8298 80.7778 77.9085 81.0271 77.9869L81.1766 78.0401L81.3354 78.0348C81.4541 78.0978 81.5728 78.161 81.6915 78.2241C81.8263 78.2512 81.9605 78.2783 82.0953 78.3051C82.9993 78.4684 83.9034 78.6322 84.8076 78.7958C85.0904 78.8866 85.373 78.9775 85.6564 79.0683C89.1692 79.743 92.6835 80.4049 96.289 80.2051C96.4236 80.2555 96.558 80.3064 96.6928 80.357C100.424 80.7538 104.132 80.4376 107.837 80.0121C107.974 79.9575 108.109 79.9028 108.245 79.8484Z" fill="#A9522A"/>
<path d="M59.2442 66.2295C57.2804 67.1248 55.1985 66.9929 53.126 66.9351C52.2695 66.911 51.496 66.7181 50.9688 65.7706C51.2524 65.5456 51.4973 65.1822 51.7612 65.1679C56.1161 64.9341 59.4182 62.6332 62.5339 59.8501C66.5612 56.2527 71.1933 53.7874 76.596 53.0852C79.6134 52.6933 82.6349 52.9325 85.5861 53.7843C86.4948 54.0467 87.4137 54.3004 88.3452 54.4485C88.8038 54.5216 89.627 54.4766 89.715 54.2559C89.9084 53.7723 89.9452 52.9947 89.6691 52.6065C89.245 52.0104 88.5645 51.5018 87.884 51.2071C86.6457 50.6704 85.3274 50.3173 83.9283 49.8499C85.0153 49.2099 86.1402 48.9864 87.3172 48.9797C89.1617 48.9698 91.0069 49.0166 92.8506 48.975C93.7324 48.9544 94.6696 48.9484 95.4796 48.6543C98.4241 47.5847 101.548 47.7094 104.543 47.1215C107.41 46.5581 110.303 46.4762 113.133 46.0273C116.57 45.4824 119.049 47.0726 121.782 48.6177C121.486 48.6177 121.187 48.6461 120.897 48.6106C120.546 48.5673 120.206 48.4415 119.855 48.3999C116.626 48.0155 113.4 47.3778 110.165 47.3227C104.377 47.224 99.2842 49.3708 94.8016 52.9993C94.5268 53.222 94.2852 53.4948 94.0663 53.7742C93.9755 53.891 93.984 54.0859 93.862 54.618C94.8029 54.18 95.5472 53.9099 96.2116 53.5076C97.3786 52.801 98.4742 51.9749 99.6407 51.2663C102.324 49.6365 105.227 48.7671 108.384 48.6234C113.433 48.3932 118.295 49.3218 123.085 50.7767C123.961 51.0435 124.784 51.4867 125.632 51.8482C125.581 51.9887 125.529 52.1286 125.478 52.2692C124.091 51.8753 122.714 51.4434 121.316 51.0937C115.022 49.5206 108.847 49.488 103.056 52.875C100.394 54.4323 97.8552 56.2025 95.2554 57.868C94.7627 58.1835 94.2463 58.4606 93.6724 58.7952C91.3855 55.913 88.2014 55.4916 84.9259 55.0228C81.7549 54.5691 78.6417 54.9136 75.5241 55.1713C73.0956 55.3715 71.0675 56.7362 69.2282 58.277C68.3226 59.0353 67.5513 59.9549 66.7195 60.8015C64.2277 62.6107 61.7362 64.4201 59.2442 66.2295Z" fill="#529237"/>
<path d="M55.7413 48.6689C54.1804 49.6975 54.1349 50.0658 55.439 51.1192C57.0803 50.0828 57.1523 49.4997 55.7413 48.6689ZM45.6277 50.5436C45.9143 51.7504 46.5157 52.2277 47.3479 52.0878C47.7745 52.0162 48.2782 51.5488 48.472 51.1316C48.8123 50.3979 48.4933 49.773 47.5361 49.3356C46.9611 49.6994 46.302 50.117 45.6277 50.5436ZM41.3909 55.0754C41.1493 55.0805 40.9078 55.0857 40.666 55.091C40.0448 54.9164 39.4235 54.7416 38.8594 54.5833C39.1648 54.4005 39.5449 54.1724 39.9257 53.9445C40.9957 52.3317 40.788 51.858 38.9274 51.6639C38.9132 51.3879 38.8989 51.1116 38.8853 50.8354C39.0915 50.8146 39.2981 50.7943 39.5047 50.7732C40.6078 50.6642 41.7112 50.5546 42.8143 50.4449C43.0487 50.3258 43.2834 50.2063 43.5178 50.0872C43.748 49.949 43.9785 49.8114 44.2092 49.6734L44.1897 49.6948C44.3241 49.6018 44.4583 49.5087 44.5927 49.4156C46.3811 48.3738 48.2993 47.8398 50.3521 48.246C52.55 48.6811 54.5429 47.8518 56.6112 47.4422C58.8327 47.0019 61.0576 46.9918 63.2732 47.5081C62.0282 47.7772 59.135 50.2248 58.6332 51.5696C60.1255 51.4532 61.4703 51.3186 62.4472 50.0975C63.1788 50.2029 63.8507 50.1607 64.2208 49.3749C66.0325 49.2562 67.8435 49.1325 69.6554 49.0233C70.1259 48.9949 70.6304 49.1125 71.0612 48.9762C71.3639 48.8808 71.5671 48.47 71.8149 48.2C72.4913 48.6061 73.1858 49.1363 73.6143 47.9234C75.2147 47.1267 76.8533 47.026 78.5404 47.6295C78.9224 47.7663 79.3235 47.8929 79.7239 47.9276C80.368 47.9826 81.0556 48.0463 81.3756 47.2563C81.4985 47.2537 81.6216 47.2514 81.7445 47.2485C83.3357 47.9465 84.784 47.4157 85.9024 46.3751C86.9724 45.3794 88.0027 45.2479 89.28 45.6258C89.4753 45.6831 89.7499 45.4701 89.9883 45.3823C90.4559 45.5336 90.924 45.6846 91.3916 45.8354C91.7426 47.0891 92.8855 46.6593 93.4095 46.432C95.5326 45.5113 97.5573 44.3636 99.6179 43.2996V44.5287C100.685 44.979 101.137 44.3606 101.651 43.9C102.224 44.6994 103.022 44.4062 103.714 44.234C105.223 43.8577 106.705 43.3769 108.198 42.9385C109.167 44.0915 109.548 44.0365 110.173 42.6524C111.139 42.5955 112.106 42.538 113.072 42.481C113.114 42.3634 113.156 42.2458 113.198 42.1279C112.711 41.679 112.224 41.2301 111.737 40.7812C112.575 40.8972 113.412 41.0134 114.249 41.1291C113.688 41.541 113.232 42.0122 113.89 42.6703C114.367 43.1482 114.978 42.8587 115.555 41.9435C116.019 41.9069 116.483 41.8708 116.947 41.8343C117.661 42.5707 117.309 43.2517 116.621 43.5824C115.574 44.0859 114.443 44.4707 113.307 44.7118C112.513 44.8807 111.649 44.7375 110.817 44.7112C109.206 44.6606 107.656 44.82 106.081 45.3107C104.572 45.7808 102.939 45.9812 101.351 46.0325C99.7215 46.085 98.1876 46.3032 96.683 46.9525C93.8388 48.1801 90.8781 48.0496 87.9309 47.4451C86.9973 47.2533 86.2011 47.3207 85.3571 47.7301C82.573 49.0798 79.6889 49.7864 76.5657 49.1182C76.0399 49.0058 75.3623 49.1808 74.8643 49.4371C72.8473 50.4758 70.6829 50.7661 68.4752 50.7732C66.9016 50.7781 65.4248 51.0562 63.965 51.6441C62.0675 52.4085 60.0679 52.5879 58.0237 52.5823C56.553 52.5778 55.0796 52.7942 53.611 52.9475C52.3134 53.0828 51.0236 53.3828 49.7264 53.405C47.2573 53.4473 44.9694 54.3112 42.5987 54.7948C42.1961 54.8883 41.7934 54.9817 41.3909 55.0754Z" fill="#D09617"/>
<path d="M65.3072 37.8915C64.5804 38.9246 63.9081 40.0032 63.1127 40.9798C62.1165 42.2031 60.9952 43.3238 59.9819 44.5339C59.7508 44.8102 59.7399 45.2719 59.6277 45.6485C57.892 45.9789 56.1603 46.3381 54.4179 46.6288C53.3739 46.803 52.3109 46.9733 51.2578 46.9649C48.3228 46.9408 45.4752 47.1828 42.8415 48.6836C42.197 49.0504 41.3802 49.1462 40.6275 49.2821C39.2983 49.5222 37.9578 49.6967 36.3804 49.9349C36.3279 49.477 36.0185 48.7695 36.2475 48.4477C37.6353 46.498 37.787 44.5226 36.4078 42.2382C38.5663 41.7005 40.4942 41.2207 42.422 40.7405C42.7871 40.8565 43.1525 40.9722 43.5176 41.088C42.457 41.7106 41.7719 42.5764 42.1066 43.8582C42.3845 44.9225 43.2608 45.4807 44.2684 45.743C45.2288 45.9936 46.3882 45.4076 46.9996 44.4785C47.9014 43.1085 47.4271 41.778 45.6682 40.7458C45.6543 40.6244 45.6403 40.5029 45.6261 40.3813C45.8413 40.3544 46.0564 40.3273 46.2714 40.3002C46.6631 40.232 47.0545 40.1641 47.4461 40.0963C49.0537 39.7009 50.6563 39.2823 52.2716 38.9193C53.1681 38.7181 54.086 38.6095 55.3247 38.4045C54.8563 39.6877 54.4927 40.6002 54.1889 41.532C53.7634 42.8402 54.0169 43.6969 54.9603 44.3554C55.9117 45.0194 57.326 44.9116 58.2481 44.1054C59.6604 42.8703 59.8751 41.6209 58.9508 40.0055C58.7203 39.6022 58.4873 39.2004 58.1625 38.6366C60.6136 38.1564 62.9421 37.8726 65.3072 37.8915Z" fill="#D09617"/>
<path d="M82.6372 81.6227L82.6784 81.6555C83.1768 81.9952 83.6336 82.4915 84.183 82.64C85.1206 82.8929 86.1169 82.9272 87.0886 83.0534C87.3318 83.1183 87.5748 83.1834 87.8183 83.2483C90.1618 83.4235 92.5047 83.6071 94.8491 83.7718C96.786 83.9075 98.728 83.9787 100.661 84.1577C102.528 84.3304 103.294 85.201 103.448 87.1323C103.313 87.3226 103.179 87.5125 103.044 87.7028C102.846 87.995 102.661 88.2964 102.448 88.5777C100.873 90.6646 98.9087 91.8311 96.1967 91.2057C96.0266 91.0879 95.8564 90.9698 95.6856 90.8522C94.5956 89.2056 93.2007 87.986 91.1921 87.6249C91.0186 87.5228 90.845 87.4209 90.6715 87.3188L90.6791 87.3241C90.5627 87.2562 90.4465 87.1884 90.3301 87.1205C89.0076 86.5956 87.6849 86.0709 86.3629 85.546C86.2597 85.4867 86.1571 85.4275 86.0545 85.368C84.6454 84.9202 83.261 84.3388 81.7279 84.549C81.5623 84.6207 81.3974 84.6923 81.2318 84.7641C79.0691 86.0301 77.1942 85.1996 75.3685 83.963C75.0317 83.7348 74.6644 83.5521 74.3106 83.3485C73.2766 82.6041 72.2296 81.876 71.2121 81.1093C70.5132 80.5829 69.9137 79.9696 69.9595 78.8672H71.3638C71.7837 78.9483 72.2036 79.0294 72.6239 79.1106C72.86 79.3425 73.096 79.5747 73.3319 79.8068C73.8472 79.9742 74.3621 80.1418 74.8777 80.3092C75.1977 80.4061 75.5184 80.5029 75.8385 80.5995C76.0191 80.6899 76.1998 80.78 76.3804 80.8701C77.4515 81.1158 78.5224 81.3616 79.5935 81.6076C79.835 81.6834 80.0768 81.7599 80.3183 81.8357C80.8592 81.971 81.397 82.1794 81.9435 82.2054C82.1648 82.2159 82.4055 81.8286 82.6372 81.6227Z" fill="#D90350"/>
<path d="M99.6177 43.2997C97.5569 44.3636 95.5316 45.5114 93.409 46.432C92.8851 46.6593 91.7422 47.0891 91.3914 45.8355C92.0627 45.0975 91.912 44.502 91.085 43.946C90.403 44.2254 89.9473 44.6037 89.9875 45.3824C89.7495 45.4702 89.4749 45.6832 89.2796 45.6258C88.0019 45.2479 86.972 45.3794 85.902 46.3751C84.7836 47.4157 83.3353 47.9466 81.7441 47.2485C81.9299 47.0013 82.1158 46.7543 82.3017 46.507C82.3329 46.4667 82.3982 46.414 82.3892 46.3879C82.3584 46.301 82.3011 46.2232 82.254 46.1415C82.0005 45.4107 81.5393 45.1646 80.9516 45.7439C80.2541 46.431 80.7544 46.8851 81.3752 47.2563C81.0552 48.0463 80.3676 47.9827 79.7231 47.9276C79.3231 47.893 78.9222 47.7663 78.54 47.6296C76.8529 47.0261 75.2145 47.1267 73.6139 47.9234C73.5695 47.7184 73.5245 47.513 73.4801 47.308C73.2143 46.6849 72.8526 46.7826 72.4525 47.1704C72.2397 47.5134 72.0274 47.8564 71.8145 48.2001C71.5669 48.47 71.3635 48.8809 71.0604 48.9763C70.6302 49.1126 70.1255 48.9949 69.655 49.0233C67.8431 49.1325 66.0321 49.2563 64.2206 49.3749C63.8957 48.4761 63.2134 48.1493 62.4213 48.5872C61.7234 48.9731 62.0544 49.5947 62.4468 50.0975C61.4699 51.3186 60.1251 51.4532 58.6328 51.5696C59.1346 50.2248 62.028 47.7772 63.273 47.5082L63.435 47.5271C63.942 47.4498 64.4494 47.3725 64.9564 47.2952C67.1986 46.3793 69.5388 46.0865 71.9418 46.1861C73.8659 46.2655 75.6845 45.9518 77.4947 45.1845C79.8665 44.179 82.3498 43.7124 84.9879 44.2292C85.9009 44.4081 87.0306 44.1832 87.8918 43.7794C90.0003 42.7909 92.163 42.3771 94.464 42.5078C96.5024 42.6235 98.4562 42.267 100.427 41.6877C102.177 41.1733 104.044 41.0567 105.859 40.7681C106.737 40.6286 107.617 40.4975 108.496 40.3633C108.771 41.1296 109.337 41.2346 110.046 41.0789C110.605 40.9565 111.173 40.8785 111.737 40.7813C112.223 41.2302 112.71 41.6791 113.198 42.128C113.155 42.2458 113.113 42.3634 113.072 42.4811C112.105 42.538 111.139 42.5956 110.172 42.6525C109.399 41.9515 108.755 42.1395 108.198 42.9386C106.705 43.377 105.222 43.8578 103.714 44.234C103.022 44.4062 102.224 44.6995 101.65 43.9C100.978 42.7863 100.836 42.7445 99.6177 43.2997Z" fill="#F3C609"/>
<path d="M92.1393 103.159C94.1279 103.537 95.6423 103.369 96.9928 102.388C97.9475 101.695 98.1692 100.147 97.545 99.1957C96.8126 98.0791 94.8867 97.5567 93.5068 98.1204C93.542 98.2818 93.5315 98.4801 93.6205 98.6097C94.9823 100.59 94.9765 100.577 93.157 101.956C92.833 102.201 92.6155 102.587 92.1393 103.159ZM91.9522 106.286C90.1359 106.545 88.112 105.857 86.1427 104.731C84.5192 103.803 84.1605 102.578 84.8575 100.618C85.301 99.3703 86.2704 98.453 87.5764 97.949C91.5677 96.4093 95.5194 96.946 99.427 98.2162C100.98 98.7212 101.912 100.016 101.899 101.606C101.885 103.228 101.039 104.549 99.4172 105.202C97.1672 106.107 94.8048 106.252 91.9522 106.286Z" fill="#F6DA1D"/>
<path d="M40.5154 25.8777C39.5021 28.1146 39.4391 28.6748 39.9617 29.5978C40.4605 30.4781 41.2861 30.8701 42.0011 30.5659C42.7936 30.2284 43.1539 29.1955 42.5893 28.2839C42.0777 27.4581 41.3164 26.7872 40.5154 25.8777ZM51.7391 31.4566C51.6933 31.7891 51.6479 32.1218 51.598 32.4814C52.1827 32.5379 52.7495 32.5925 53.3159 32.6472C51.5149 32.937 49.6991 33.1576 47.9151 33.5307C43.52 34.4488 39.1397 35.4373 34.5238 36.4475C34.2793 35.4577 34.0359 34.4726 33.6953 33.095C34.363 33.4964 34.6808 33.6773 34.9881 33.8747C36.6905 34.9689 37.9345 34.4684 38.3866 32.4716C38.5038 31.9548 38.5388 31.4106 38.543 30.8781C38.5658 27.9627 38.5677 25.0471 38.5762 22.1313C38.5781 21.482 38.5767 20.8325 38.8825 19.9688C39.3308 20.43 39.8378 20.8476 40.2175 21.3602C41.4186 22.9824 42.5429 24.6629 43.7559 26.2761C44.4315 27.1754 45.2364 27.9759 45.9608 28.8401C47.4719 30.6428 49.396 31.5097 51.7391 31.4566Z" fill="#CD9319"/>
<path d="M67.2462 61.2488C68.2151 60.4758 69.2081 59.7313 70.1476 58.9237C72.3469 57.0338 74.8652 56.0087 77.7725 55.9766C77.7867 56.152 77.8003 56.3276 77.8141 56.5032C73.8718 56.9403 71.3666 59.2251 69.9037 62.7793C68.9036 65.2096 69.3622 67.5534 70.5302 69.8101C70.7383 70.2125 70.9738 70.6003 71.3765 71.3149C66.4443 71.387 62.3138 69.6834 57.9258 67.9658C58.532 67.5131 58.8964 67.2402 59.261 66.9678C62.4557 65.81 65.0366 63.7898 67.2462 61.2488Z" fill="#F4F4F4"/>
<path d="M80.2789 77.75C77.1489 77.2597 74.2329 76.0947 71.3139 74.9251C70.2721 74.5075 69.1738 74.2351 68.109 73.8725C66.7807 73.4205 65.8038 73.9234 65.0023 74.9621C64.1757 76.0332 63.5161 77.127 64.1644 78.557C65.0471 80.5064 66.4993 81.9679 68.0707 83.3579C71.913 86.7572 76.1934 89.5018 80.6751 91.9532C80.6215 92.1698 80.5681 92.3861 80.5148 92.6025C79.9657 92.5151 79.4167 92.4277 78.8678 92.3405L78.8852 92.3523C77.9406 91.6953 77.0384 90.9626 76.0424 90.3946C72.5267 88.3883 69.246 86.0674 66.3901 83.1898C65.3512 82.1431 64.4679 80.9412 63.5136 79.8098C63.4001 79.5697 63.2867 79.3296 63.1728 79.0895L63.1736 79.0899C63.0654 78.8196 62.9572 78.549 62.8488 78.2785C62.836 78.0735 62.8232 77.8691 62.8105 77.6645C62.8101 77.4254 62.8092 77.1862 62.8086 76.9476C63.307 75.4196 63.9297 73.9719 65.3068 73.0037C66.4464 72.4614 67.5855 72.4946 68.7529 72.9416C70.5781 73.6406 72.408 74.3311 74.2532 74.976C76.261 75.6771 78.288 76.3226 80.3067 76.9921C80.2973 77.2446 80.2883 77.4975 80.2789 77.75Z" fill="#141006"/>
<path d="M87.8226 25.7945C85.9559 26.6595 84.3192 25.701 82.7962 24.9299C80.595 23.8158 78.9003 21.9727 77.4968 19.9797C75.6215 17.3168 73.9225 14.5247 72.2373 11.7335C71.5706 10.6294 71.145 9.37854 70.6094 8.19466C70.718 7.87622 70.8262 7.55777 71.0598 6.87109C71.7541 8.00372 72.2634 8.88638 72.8217 9.73627C74.8328 12.7993 76.7175 15.9605 78.9221 18.878C81.2386 21.9433 84.4142 24.0578 87.8226 25.7945Z" fill="#EFDC8C"/>
<path d="M80.1758 86.5971C81.3796 85.4023 82.5972 85.2594 83.9308 85.7886C86.689 86.8823 89.4447 87.9803 92.1977 89.0869C92.9872 89.4045 93.7146 89.7935 93.5737 90.9196C92.7704 91.5208 91.8004 91.4824 91.0263 91.1963C87.5826 89.9231 84.1851 88.5248 80.7778 87.1552C80.5833 87.0775 80.4466 86.8548 80.1758 86.5971Z" fill="#C898AB"/>
<path d="M41.8453 36.4141C42.0906 37.31 42.2831 38.0103 42.5029 38.8131C39.917 40.3776 37.0481 40.5627 34.411 41.6422C33.7211 40.3875 33.9281 39.3389 34.4205 38.08C36.7814 37.5505 39.2233 37.0024 41.8453 36.4141Z" fill="#CD9319"/>
<path d="M44.0859 39.0084V36.4533C45.6615 35.423 47.5912 35.2831 49.388 34.7569C49.6122 34.6909 49.86 34.7088 50.093 34.668C52.3013 34.2824 52.5473 34.5162 52.3183 36.9713C49.8533 38.3802 46.9959 38.4129 44.0859 39.0084Z" fill="#CD9319"/>
<path d="M54.3203 37.4632V34.9173C56.7767 33.8677 59.2758 33.8483 61.9473 34.0055V36.3438C59.4279 36.7135 56.999 37.0704 54.3203 37.4632Z" fill="#CD9319"/>
<path d="M109.589 25.7743C108.101 26.2914 107.779 26.1904 107.05 24.9263C106.437 23.8657 105.844 22.7942 105.242 21.7271C106.061 19.7355 105.545 17.7629 103.929 16.7143C103.9 16.1429 103.87 15.5716 103.84 15.0002C103.731 14.6249 103.621 14.2501 103.512 13.8747C103.835 13.0116 104.159 12.1483 104.482 11.2852C104.623 11.2999 104.763 11.3141 104.904 11.3288C105.275 13.2616 105.605 15.2038 106.026 17.1252C106.496 19.2656 107.055 21.3868 107.565 23.5185C107.834 24.6435 108.474 25.4197 109.589 25.7743Z" fill="#EFDC8C"/>
<path d="M71.0273 52.9271C71.1404 52.6681 71.2534 52.4095 71.3669 52.1503C73.6309 51.2996 75.9579 50.6759 78.3726 50.527C81.4184 50.3396 84.3671 50.9208 87.2151 51.9823C87.7074 52.1661 88.1112 52.5864 88.556 52.8973C88.4903 53.0325 88.4246 53.1676 88.3595 53.3029C87.2467 53.0063 86.1447 52.6628 85.0206 52.4217C80.7398 51.5031 76.4695 51.4187 72.227 52.6771C71.8364 52.7929 71.4278 52.8456 71.0273 52.9271Z" fill="#529237"/>
<path d="M115.555 55.7429C116.883 55.7746 117.88 56.9249 117.838 58.3779C117.798 59.7754 116.651 60.9384 115.381 60.8691C114.079 60.7983 113.026 59.5851 113.072 58.206C113.119 56.7881 114.205 55.7105 115.555 55.7429Z" fill="#F4F4F4"/>
<path d="M104.873 91.3896C104.114 91.3485 103.477 91.3138 102.473 91.2588C102.929 90.4009 103.211 89.7331 103.61 89.1452C104.888 87.2618 105.014 86.6123 104.286 84.241C105.816 84.0902 107.292 83.9444 109.109 83.7656C108.556 84.6544 108.315 85.4141 107.796 85.8074C106.25 86.9805 105.691 88.6238 105.274 90.3841C105.206 90.6685 105.058 90.9328 104.873 91.3896Z" fill="#C898AB"/>
<path d="M83.5293 63.8374C83.3953 65.3918 82.3896 66.2715 80.9436 66.098C79.813 65.9621 78.8627 64.5923 79.0262 63.3339C79.1823 62.1334 80.3658 61.0812 81.452 61.1781C82.6546 61.2848 83.6404 62.547 83.5293 63.8374Z" fill="#F4F4F4"/>
<path d="M81.5088 32.1875C81.8743 33.0952 81.5174 33.7961 80.6454 33.9257C78.2277 34.2853 75.7892 34.5013 73.1484 34.7979C73.0448 33.9205 72.9658 33.25 72.8867 32.579C75.7609 32.4484 78.6349 32.3179 81.5088 32.1875Z" fill="#D09617"/>
<path d="M110.11 29.4662C110.007 29.9659 109.903 30.4652 109.78 31.066H102.047V29.3164C104.735 29.3662 107.422 29.4164 110.11 29.4662Z" fill="#D09617"/>
<path d="M100.273 30.0664C100.129 31.3249 99.1079 31.6385 98.1589 31.8212C96.4981 32.1414 94.8043 32.2894 93.1111 32.5111C92.4122 31.9275 92.4528 31.1719 92.5275 30.4065C95.1093 30.2933 97.6913 30.1798 100.273 30.0664Z" fill="#CD9319"/>
<path d="M71.32 33.2773C71.5695 34.2035 71.3539 34.9591 70.4101 35.3063C68.3579 36.0608 66.2551 36.5666 63.8672 36.4799V35.0515C64.2126 34.9998 64.5646 34.9765 64.9019 34.8931C67.043 34.3617 69.1808 33.8172 71.32 33.2773Z" fill="#D09617"/>
<path d="M78.8672 92.3398C79.4162 92.4272 79.9651 92.5144 80.5141 92.6018C82.0765 93.3866 83.6416 94.1652 85.1991 94.9593C85.9604 95.3479 86.7077 95.7644 87.4822 96.1801C86.144 97.5671 85.6318 97.7223 84.2643 96.8559C83.2221 96.1959 82.2745 95.3773 81.3254 94.5805C80.4773 93.8682 79.6842 93.0895 78.8672 92.3398Z" fill="#539836"/>
<path d="M74.809 62.9554C73.7446 62.9163 72.9412 62.0261 73.0122 60.9651C73.0779 59.99 73.9248 59.163 74.8644 59.1563C75.8838 59.1487 76.9895 60.1812 77.005 61.1554C77.0215 62.1941 76.0375 63.0003 74.809 62.9554Z" fill="#F4F4F4"/>
<path d="M38.8862 50.832C38.9005 51.1083 38.9141 51.3845 38.9283 51.6605C38.7353 51.7958 38.4404 51.8918 38.3698 52.0743C38.1925 52.5337 37.9405 53.0847 38.0619 53.497C38.1423 53.7707 38.8044 53.9075 39.2276 54.0299C39.4353 54.0896 39.6919 53.9762 39.927 53.9411C39.5462 54.169 39.1657 54.3971 38.8603 54.5799C39.4248 54.7383 40.0461 54.913 40.6675 55.0876C38.3964 55.2707 36.3754 54.6929 34.5273 53.1553C35.476 51.2202 37.2307 51.1188 38.8862 50.832Z" fill="#CD9319"/>
<path d="M112.256 55.6907C112.261 56.6786 111.314 57.4875 110.18 57.4644C109.231 57.4448 108.539 56.7159 108.528 55.7247C108.515 54.6437 109.226 53.9652 110.333 54.0014C111.477 54.0392 112.251 54.7191 112.256 55.6907Z" fill="#F4F4F4"/>
<path d="M111.737 40.7786C111.173 40.8763 110.605 40.9536 110.046 41.0761C109.337 41.2317 108.771 41.1273 108.496 40.3606C110.376 39.4324 112.335 39.2492 114.379 39.6744C115.639 39.9367 116.599 40.5047 116.947 41.8314C116.483 41.868 116.019 41.9045 115.555 41.9411C115.119 41.6693 114.684 41.3979 114.249 41.1265C113.412 41.0105 112.574 40.8944 111.737 40.7786Z" fill="#E6C772"/>
<path d="M90.6693 31.4492C90.5334 31.7967 90.4508 32.4111 90.254 32.4499C88.0218 32.8946 85.7714 33.2505 83.323 33.6647C83.2663 32.857 83.2307 32.3518 83.1953 31.8469C85.6862 31.7139 88.1778 31.5816 90.6693 31.4492Z" fill="#CD9319"/>
<path d="M71.32 33.2758C69.1808 33.8157 67.043 34.3601 64.9019 34.8916C64.5646 34.975 64.2126 34.9983 63.8672 35.0499C63.8896 34.5452 63.9118 34.0406 63.9407 33.3886C66.136 33.0147 68.1689 32.6509 70.2087 32.331C70.8773 32.2262 71.4126 32.4139 71.32 33.2758Z" fill="#E6C772"/>
<path d="M71.3627 78.8719H69.9582C69.9123 79.9743 70.512 80.5872 71.2108 81.114C72.2281 81.8808 73.2753 82.6088 74.3095 83.3533L73.8488 84.1823C72.307 82.947 70.7243 81.7579 69.2442 80.4522C68.7052 79.9766 68.1047 79.1979 68.7228 78.4425C69.2618 77.7834 70.111 77.63 70.9631 77.9636C71.1247 78.0273 71.2802 78.106 71.4387 78.1781C71.4132 78.4093 71.3883 78.6408 71.3627 78.8719Z" fill="#1E080A"/>
<path d="M67.2409 61.2486C65.0313 63.7897 62.4504 65.8098 59.2558 66.9676C59.2512 66.7214 59.2468 66.4751 59.2422 66.2289C61.7341 64.4194 64.2255 62.61 66.7174 60.8008C66.892 60.9501 67.0664 61.0993 67.2409 61.2486Z" fill="#141006"/>
<path d="M90.6693 31.4532C88.1778 31.5855 85.6862 31.7178 83.1953 31.8508V30.7175C85.6588 30.5611 88.0756 30.4073 90.6693 30.2422V31.4532Z" fill="#E6C772"/>
<path d="M100.273 30.0673C97.6911 30.1807 95.1091 30.2942 92.5274 30.4074C92.4518 29.1657 93.476 29.1319 94.2036 29.0949C96.1779 28.9943 98.1596 29.0603 100.273 29.0603V30.0673Z" fill="#E6C772"/>
<path d="M110.112 29.4648C107.424 29.415 104.736 29.3648 102.048 29.315C101.949 28.4177 102.655 28.3649 103.196 28.3673C105.238 28.3778 107.28 28.4555 109.321 28.5387C109.858 28.5605 110.443 28.6477 110.112 29.4648Z" fill="#E6C772"/>
<path d="M81.5076 32.1892C78.6336 32.3197 75.7596 32.4501 72.8855 32.5808C72.7389 31.8674 73.2359 31.8082 73.7267 31.7611C76.1942 31.5258 78.6618 31.296 81.231 31.0547C81.3497 31.5414 81.4286 31.8651 81.5076 32.1892Z" fill="#E6C772"/>
<path d="M39.383 16.0408C39.4922 17.4398 39.0175 18.3613 37.9948 18.5234C37.5564 18.5932 36.8678 18.4163 36.6394 18.0998C36.4144 17.788 36.4745 17.0776 36.6802 16.6848C37.128 15.8297 37.9276 15.6845 39.383 16.0408Z" fill="#CD9319"/>
<path d="M77.7196 65.5605C77.7592 66.4018 77.1672 67.1303 76.4239 67.1534C75.6329 67.1781 74.969 66.5518 74.9277 65.7414C74.8871 64.9511 75.4914 64.2124 76.2418 64.1346C76.9724 64.059 77.6807 64.743 77.7196 65.5605Z" fill="#F4F4F4"/>
<path d="M78.7952 69.3366C78.7741 70.1911 78.2242 70.7303 77.4589 70.7213C76.6765 70.7116 76.0309 70.0298 76.0512 69.2345C76.0718 68.4535 76.7648 67.8878 77.6147 67.95C78.5319 68.017 78.7121 68.6732 78.7952 69.3366Z" fill="#F4F4F4"/>
<path d="M115.32 29.6484C115.777 30.3849 115.541 30.9121 114.749 31.072C113.79 31.2657 112.803 31.3245 111.531 31.4768C111.587 30.7162 111.626 30.1927 111.664 29.6694C112.883 29.6623 114.102 29.6552 115.32 29.6484Z" fill="#CD9319"/>
<path d="M71.6594 5.35167C71.3748 5.3859 71.0909 5.44472 70.8058 5.44892C70.0828 5.45901 69.3684 5.3357 69.0534 4.59441C68.7206 3.81153 68.6747 3.01331 69.4871 2.42578C70.1988 2.76901 70.9109 3.11204 71.7407 3.51241C71.7151 4.09468 71.6873 4.72296 71.6594 5.35167Z" fill="#F3C609"/>
<path d="M71.6567 5.35064C71.6845 4.72194 71.7124 4.09366 71.7379 3.51138C70.9082 3.11101 70.1961 2.76799 69.4844 2.42476C69.9344 1.70867 70.6314 1.68704 71.3511 1.78324C72.3621 1.91852 73.1069 2.5739 73.218 3.3885C73.3281 4.19659 72.764 4.90553 71.6567 5.35064Z" fill="#EFDC8C"/>
<path d="M109.645 62.2054C108.992 62.1016 108.549 61.7187 108.506 60.9566C108.462 60.1588 109.101 59.4453 109.866 59.4224C110.571 59.4016 111.235 60.0416 111.232 60.7401C111.229 61.4064 110.42 62.1884 109.645 62.2054Z" fill="#E5E4CF"/>
<path d="M113.549 25.0388C113.666 24.7825 113.783 24.5262 113.9 24.2706C114.207 24.141 114.514 24.012 114.82 23.8828C115.027 24.886 115.233 25.8895 115.476 27.0725H113.176C113.19 26.5396 113.204 26.0063 113.217 25.4734C113.328 25.3282 113.439 25.1835 113.549 25.0388Z" fill="#EFDC8C"/>
<path d="M103.562 7.46333C104.108 6.2534 104.622 5.86186 105.408 6.13241C106.076 6.36263 106.464 6.83463 106.442 7.59105C106.414 8.57622 105.935 8.99465 104.606 9.16374C104.723 8.66738 104.84 8.17144 104.982 7.57025C104.337 7.52173 103.95 7.49232 103.562 7.46333Z" fill="#EFDC8C"/>
<path d="M91.4562 38.4686C90.88 37.035 90.8831 36.9842 91.6515 35.0977C92.5397 35.6125 93.0914 36.3731 93.0963 37.3388C93.1 38.2328 92.3226 38.4115 91.4562 38.4686Z" fill="#A9522A"/>
<path d="M111.378 65.2084C110.646 65.1511 110.322 64.649 110.309 63.8998C110.295 63.0608 110.878 62.4758 111.623 62.5731C112.446 62.6808 112.691 63.3091 112.683 63.9895C112.674 64.7226 112.286 65.228 111.378 65.2084Z" fill="#E5E4CF"/>
<path d="M114.889 33.0234C114.981 34.4285 115.166 35.8054 114.662 37.2328C112.991 35.5649 113.105 33.6379 114.889 33.0234Z" fill="#A9522A"/>
<path d="M56.4037 43.2213C55.5579 43.3457 54.9946 43.0902 55.004 42.1284C55.0145 41.0218 55.7743 39.747 56.4927 39.7739C56.7862 39.7852 57.0637 40.2148 57.349 40.4538C57.1621 40.5679 56.8431 40.6532 56.8105 40.8012C56.6355 41.5995 56.5318 42.4132 56.4037 43.2213Z" fill="#8A0507"/>
<path d="M113.148 12.5147C113.411 11.7222 114.059 11.5319 114.654 11.885C115.147 12.1767 115.664 12.7567 115.771 13.2896C115.919 14.0273 115.362 14.5613 114.592 14.7501C114.686 13.6316 114.019 13.0071 113.148 12.5147Z" fill="#EFDC8C"/>
<path d="M96.7539 27.1986C97.0514 27.0713 97.3477 26.836 97.6462 26.8331C100.818 26.8051 103.991 26.8093 107.164 26.824C107.372 26.8251 107.58 26.9826 107.788 27.0671C104.11 27.1108 100.432 27.1549 96.7539 27.1986Z" fill="#F3C609"/>
<path d="M115.316 29.6484C114.098 29.6552 112.879 29.6623 111.66 29.6694C111.703 29.3363 111.745 29.0036 111.797 28.5938H115.218C115.257 29.0113 115.286 29.3296 115.316 29.6484Z" fill="#E6C772"/>
<path d="M29.8944 27.2286C29.7854 26.8509 29.6761 26.4728 29.5664 26.0951C29.696 25.9512 29.8255 25.808 29.9551 25.6641C30.5197 25.713 31.0838 25.7619 31.6261 25.8084C31.6743 27.4418 31.5506 27.53 29.8944 27.2286Z" fill="#CD9319"/>
<path d="M56.4023 43.2206C56.5304 42.4125 56.6341 41.5988 56.8091 40.8006C56.8417 40.6525 57.1607 40.5672 57.3476 40.4531C57.8795 41.3791 58.5519 42.3029 57.4006 43.261C57.1741 43.2786 56.9476 43.2965 56.7216 43.3141C56.6075 43.3084 56.5011 43.2771 56.4023 43.2206Z" fill="#BE141A"/>
<path d="M113.144 12.5156C114.015 13.008 114.682 13.6325 114.588 14.7511C112.917 14.8796 112.463 14.1778 113.144 12.5156Z" fill="#F3C609"/>
<path d="M35.4258 43.4023C36.2246 44.2921 36.1622 45.3048 35.4903 46.419C35.3059 45.4376 35.1219 44.4568 34.9375 43.4754C35.1006 43.4513 35.2632 43.4267 35.4258 43.4023Z" fill="#1E080A"/>
<path d="M114.54 20.4688C114.644 21.1103 114.749 21.7522 114.881 22.5643C113.362 21.9368 113.362 21.9368 114.54 20.4688Z" fill="#A9522A"/>
<path d="M103.566 7.46484C103.953 7.49383 104.34 7.52324 104.985 7.57176C104.843 8.17295 104.726 8.66889 104.609 9.16526C103.769 8.90184 103.324 8.3954 103.566 7.46484Z" fill="#F6DA1D"/>
<path d="M122.799 64.7599C122.544 64.5175 122.289 64.2755 122.035 64.0329C122.789 63.6393 123.544 63.2454 124.299 62.8516C124.385 62.9795 124.471 63.1072 124.557 63.2349C123.971 63.7435 123.385 64.2518 122.799 64.7599Z" fill="#529237"/>
<path d="M110.301 38.6396C110.839 38.5157 111.378 38.3905 111.917 38.2684C112.451 38.1483 112.986 38.0321 113.521 37.9141C113.873 38.0932 114.224 38.2722 114.944 38.6396H110.301Z" fill="#CD9319"/>
<path d="M114.202 17.8059C114.144 18.3745 114.942 19.0303 113.621 19.7401C113.661 18.9106 113.689 18.3304 113.717 17.75L114.202 17.8059Z" fill="#A9522A"/>
<path d="M79.9762 55.9375C79.9662 56.1268 79.9564 56.316 79.9465 56.5059C79.2334 56.5055 78.5202 56.5055 77.8073 56.5049C77.7935 56.3295 77.7794 56.1539 77.7656 55.9783C78.5024 55.965 79.2394 55.9512 79.9762 55.9375Z" fill="#C898AB"/>
<path d="M113.525 51.207C113.525 51.3194 113.515 51.4305 113.496 51.541C112.667 51.6307 111.838 51.7204 111.01 51.8101C111 51.6488 110.991 51.487 110.98 51.3255C111.828 51.2862 112.677 51.2463 113.525 51.207Z" fill="#C898AB"/>
<path d="M74.5559 36.0664C74.8073 36.3307 75.0593 36.5955 75.3109 36.8598C74.482 36.8699 73.6531 36.8793 72.8242 36.8892C72.9354 36.6548 73.0469 36.4204 73.1581 36.1859C73.6242 36.1462 74.09 36.1063 74.5559 36.0664Z" fill="#D09617"/>
<path d="M45.6264 40.3789C45.6406 40.5005 45.6542 40.6215 45.6684 40.7429L43.5179 41.0855C43.1524 40.9698 42.7873 40.8538 42.4219 40.7381C43.49 40.6186 44.5582 40.4984 45.6264 40.3789Z" fill="#A9522A"/>
<path d="M73.1563 36.1836C73.0446 36.418 72.9336 36.6524 72.8218 36.8869C72.6073 37.0324 72.3921 37.1782 72.1773 37.3238C71.9751 37.1022 71.7727 36.8801 71.5703 36.6585C72.0988 36.5006 72.6276 36.342 73.1563 36.1836Z" fill="#CD9319"/>
<path d="M103.514 13.8711C103.624 14.2465 103.733 14.6212 103.843 14.9966C103.589 14.9758 103.336 14.9548 103.082 14.934C103.226 14.5794 103.37 14.2255 103.514 13.8711Z" fill="#F3C609"/>
<path d="M82.0955 78.3032C81.9607 78.2761 81.8265 78.249 81.6917 78.2226C81.573 78.1593 81.4544 78.0963 81.3353 78.0331L81.1768 78.0379L81.0273 77.9852C81.1471 77.7533 81.2662 77.5212 81.3853 77.2891C81.6218 77.3229 81.8581 77.3569 82.094 77.3907C82.0947 77.6949 82.0951 77.9991 82.0955 78.3032Z" fill="#141006"/>
<path d="M114.823 23.8818C114.516 24.0108 114.209 24.1404 113.902 24.2696C113.768 24.0627 113.634 23.8553 113.5 23.6484C113.941 23.7262 114.382 23.8041 114.823 23.8818Z" fill="#CD9319"/>
<path d="M77.8101 35.7617C77.1269 36.3175 76.4076 36.244 75.6719 35.8857L77.8101 35.7617Z" fill="#D09617"/>
<path d="M87.8193 83.2502C87.5763 83.1851 87.3333 83.1202 87.0898 83.0555C87.5064 82.4686 87.7025 82.7101 87.8193 83.2502Z" fill="#1E080A"/>
<path d="M113.209 23.5538C112.923 23.654 112.638 23.754 112.352 23.8542C112.475 23.2889 112.722 23.0744 113.209 23.5538Z" fill="#CD9319"/>
<path d="M93.5273 95.9594C93.645 95.9197 93.7599 95.9258 93.8725 95.9779C93.7576 95.9718 93.6421 95.9657 93.5273 95.9594Z" fill="#141006"/>
<path d="M99.6016 82.7554C99.7165 82.7022 99.8295 82.7069 99.9398 82.7697C99.8272 82.7648 99.7142 82.76 99.6016 82.7554Z" fill="#1E080A"/>
<path d="M21.0352 107.026C21.9907 105.9 22.936 104.765 23.9144 103.659C24.045 103.512 24.3418 103.513 24.5618 103.445C28.6368 103.585 32.7119 103.724 36.7869 103.864C36.9269 104.063 37.2271 104.382 37.1817 104.444C36.5372 105.319 36.9146 105.731 37.7998 105.952C37.7544 106.121 37.7086 106.289 37.6338 106.565C39.8662 106.749 42.0706 106.931 44.2755 107.113C44.0949 107.316 43.9304 107.679 43.7317 107.699C40.9164 107.98 38.0958 108.209 35.2775 108.462C34.3423 108.546 33.4112 108.691 32.4745 108.745C32.1658 108.763 31.8455 108.582 31.3534 108.441C31.82 107.914 32.2409 107.572 32.4778 107.131C32.6943 106.728 32.7119 106.217 32.7918 105.865C29.9943 106.024 27.4144 106.118 24.845 106.338C23.565 106.448 22.3043 106.789 21.0352 107.026Z" fill="#8A0507"/>
<path d="M30.6771 99.5062C31.1811 99.3864 31.6848 99.2669 32.2658 99.1289C33.0451 100.704 34.4273 100.886 35.9693 100.97C38.4872 101.11 40.9957 101.425 43.5042 101.703C43.8347 101.74 44.1412 101.993 44.596 102.214C44.3174 102.567 44.0872 102.859 43.8574 103.151C38.7468 102.881 33.6367 102.611 28.4102 102.335C28.51 101.445 29.1989 101.009 29.826 100.501C30.1592 100.231 30.3966 99.8416 30.6771 99.5062Z" fill="#F4F4F4"/>
<path d="M37.7981 105.951C36.9124 105.73 36.535 105.318 37.1795 104.443C37.2254 104.381 36.9246 104.063 36.7852 103.863H39.5645C39.5806 105.314 38.5139 105.472 37.7981 105.951Z" fill="#BE141A"/>
<path d="M62.8085 76.9492C62.8089 77.1883 62.8099 77.4269 62.8103 77.6661C62.3825 77.4284 62.38 77.1893 62.8085 76.9492Z" fill="#539736"/>
<path d="M81.3838 77.2896C81.2647 77.5217 81.145 77.7539 81.0259 77.9858C80.7762 77.907 80.5269 77.8286 80.2773 77.7499C80.2868 77.497 80.2958 77.2447 80.3052 76.9922C80.6646 77.0913 81.0244 77.1905 81.3838 77.2896Z" fill="#0F0D09"/>
<path d="M71.7441 19.611C71.5252 20.1414 71.2169 20.6543 71.1059 21.2068C70.8874 22.2938 71.1545 22.5715 72.487 22.8965C73.7576 22.6772 74.2001 22.1079 73.8143 20.8944C73.5244 19.983 73.0072 19.1436 72.591 18.2719H72.1896C72.0412 18.7184 71.8926 19.1644 71.7441 19.611ZM72.0908 16.9727C73.4375 17.8923 74.2328 18.9955 74.8092 20.2416C75.3601 21.4336 74.9492 22.9274 73.992 23.6174C73.1897 24.1957 71.435 24.1919 70.6414 23.458C70.2617 23.1063 69.8996 22.4329 69.9597 21.9607C70.1862 20.1823 70.8282 18.5346 72.0908 16.9727Z" fill="#1E080A"/>
<path d="M103.157 19.2951C102.662 20.5138 102.698 20.6182 103.862 21.3265C105.315 20.1464 105.305 19.0816 103.675 17.8497C103.49 18.366 103.323 18.8306 103.157 19.2951ZM103.932 16.7109C105.548 17.7591 106.065 19.7322 105.245 21.7237C105.123 21.8258 105.001 21.9273 104.879 22.0294C104.185 22.1096 103.491 22.1903 102.796 22.2703C102.681 22.2329 102.566 22.1953 102.45 22.1579C102.338 21.3246 102.225 20.4913 102.113 19.6587C102.719 18.6758 103.326 17.6932 103.932 16.7109Z" fill="#1E080A"/>
<path d="M102.797 22.2683C103.491 22.188 104.186 22.1074 104.88 22.0273C103.977 23.0341 103.805 23.0541 102.797 22.2683Z" fill="#D09617"/>
<path d="M102.111 19.6602C102.223 20.4935 102.336 21.3267 102.448 22.1594C101.542 21.5009 101.485 21.0751 102.111 19.6602Z" fill="#D09617"/>
<path d="M75.6653 38.5274C74.4406 37.5257 73.6297 37.4555 73.0206 38.2256C72.4673 38.9251 72.7654 39.6227 73.9989 40.4459C74.9788 40.2499 75.4016 39.5315 75.6653 38.5274ZM72.1789 37.3263C72.3937 37.1803 72.6088 37.0346 72.8234 36.8888C73.6529 36.8793 74.4818 36.8695 75.3107 36.8594C76.2527 37.3089 77.1469 37.7975 77.0276 39.0721C76.9336 40.0833 75.9605 41.1748 74.8885 41.4813C73.9937 41.7371 72.2938 41.2208 71.8101 40.4749C71.0781 39.345 71.499 38.3111 72.1789 37.3263Z" fill="#141006"/>
<path d="M107.79 34.681C108.553 35.5836 108.235 36.422 107.585 37.186C107.041 37.8252 105.661 38.1365 104.957 37.856C103.966 37.4618 103.583 36.1269 104.093 34.9486C104.437 34.1561 105.046 33.7381 105.87 33.6925C106.69 33.6471 107.582 33.5759 107.816 34.7085C107.193 34.6388 106.571 34.5684 105.948 34.4983C105.185 34.635 104.546 34.9239 104.628 35.8532C104.717 36.8776 105.493 36.8097 106.222 36.7822C107.589 36.7159 107.724 35.724 107.79 34.681Z" fill="#1E080A"/>
<path d="M79.5908 81.6096C78.5197 81.3638 77.4488 81.1178 76.3777 80.8721C76.1971 80.7819 76.0164 80.6918 75.8358 80.6017C75.5157 80.5049 75.1951 80.408 74.875 80.3112C75.0182 80.0383 75.1616 79.7651 75.3054 79.4922C76.3423 79.8211 77.3793 80.1499 78.4163 80.4788C78.5816 80.4906 78.7472 80.5019 78.9126 80.5139C80.1534 80.884 81.3939 81.2546 82.6345 81.6247C82.4028 81.8312 82.1621 82.2179 81.9404 82.2074C81.3943 82.1813 80.8565 81.973 80.3156 81.8383C80.2158 81.3096 80.0377 81.0311 79.5908 81.6096Z" fill="#0F0D09"/>
<path d="M75.3078 79.4907C75.1644 79.7636 75.0206 80.0368 74.8774 80.3097C74.3625 80.1423 73.8472 79.9749 73.332 79.8072C73.605 79.6982 73.8784 79.589 74.1511 79.4804C74.3498 79.4556 74.5484 79.431 74.7468 79.4062C74.9337 79.4344 75.1209 79.4623 75.3078 79.4907Z" fill="#1E080A"/>
<path d="M71.3594 78.8657C71.3849 78.6346 71.4098 78.4031 71.4354 78.1719C71.9356 78.35 72.6984 78.1952 72.6191 79.1092C72.1992 79.0281 71.7793 78.9468 71.3594 78.8657Z" fill="#0F0D09"/>
<path d="M45.625 50.5403C46.2994 50.1132 46.9586 49.6961 47.5336 49.332C48.4906 49.7696 48.8098 50.3941 48.4692 51.1278C48.2754 51.5452 47.7718 52.0128 47.3452 52.0844C46.5125 52.2239 45.9116 51.7471 45.625 50.5403Z" fill="#141006"/>
<path d="M39.9241 53.9447C39.6895 53.9797 39.4322 54.0932 39.2252 54.0333C38.8015 53.9108 38.1401 53.7743 38.0591 53.5004C37.9381 53.088 38.1897 52.5373 38.367 52.0779C38.4379 51.8951 38.7329 51.7993 38.9259 51.6641C40.7865 51.8586 40.9937 52.3316 39.9241 53.9447Z" fill="#141006"/>
<path d="M55.7412 48.668C57.1522 49.4987 57.0802 50.0819 55.4389 51.1183C54.1348 50.0649 54.1803 49.6966 55.7412 48.668Z" fill="#141006"/>
<path d="M62.4442 50.0938C62.0513 49.591 61.7204 48.9692 62.4182 48.5835C63.2107 48.1455 63.8931 48.4724 64.218 49.3712C63.8473 50.1564 63.1758 50.1993 62.4442 50.0938Z" fill="#141006"/>
<path d="M114.246 41.1289C114.681 41.4003 115.117 41.6719 115.552 41.9433C114.975 42.8585 114.364 43.148 113.887 42.6701C113.23 42.012 113.685 41.5408 114.246 41.1289Z" fill="#1E080A"/>
<path d="M99.6172 43.2985C100.836 42.7433 100.978 42.7851 101.65 43.8988C101.136 44.3595 100.684 44.9779 99.6172 44.5275V43.2985Z" fill="#141006"/>
<path d="M108.195 42.9382C108.752 42.1392 109.396 41.9512 110.169 42.6521C109.545 44.0358 109.164 44.0912 108.195 42.9382Z" fill="#1E080A"/>
<path d="M89.9869 45.3817C89.9465 44.6024 90.4019 44.2243 91.0843 43.9453C91.9107 44.5009 92.0616 45.0964 91.3901 45.8348C90.9225 45.684 90.4545 45.5325 89.9869 45.3817Z" fill="#141006"/>
<path d="M73.4772 47.3056C73.5218 47.5106 73.5666 47.716 73.6112 47.921C73.1831 49.1339 72.4882 48.6043 71.8125 48.1977C72.0248 47.8546 72.2374 47.511 72.4499 47.168C72.7925 47.214 73.135 47.2596 73.4772 47.3056Z" fill="#1E080A"/>
<path d="M82.3018 46.5063C82.1159 46.7536 81.9302 47.0008 81.7444 47.2485C81.6213 47.2508 81.4984 47.2533 81.3749 47.256C80.7541 46.8844 80.2544 46.4303 80.9519 45.7432C81.5396 45.1639 82.0001 45.4107 82.2541 46.1415C82.2702 46.2629 82.2857 46.3849 82.3018 46.5063Z" fill="#141006"/>
<path d="M43.4399 44.2961C45.5233 44.3549 45.7854 44.1072 45.4636 42.1669C44.839 42.0474 44.1382 41.913 43.5818 41.8063C42.7211 42.7202 42.6569 43.4481 43.4399 44.2961ZM43.5161 41.0887L45.6667 40.7461C47.4256 41.7787 47.9003 43.1088 46.9986 44.4792C46.3867 45.4083 45.2273 45.994 44.2669 45.7438C43.2593 45.4814 42.3831 44.9233 42.1051 43.8589C41.7702 42.5774 42.4555 41.7109 43.5161 41.0887Z" fill="#0F0D09"/>
<path d="M79.5898 81.6108C80.0367 81.0323 80.2149 81.3109 80.3147 81.8396C80.0732 81.7631 79.8314 81.6871 79.5898 81.6108Z" fill="#1E080A"/>
<path d="M73.4766 47.3074C73.1343 47.2614 72.7919 47.2158 72.4492 47.1698C72.8496 46.782 73.2109 46.6843 73.4766 47.3074Z" fill="#D09617"/>
<path d="M82.2979 46.5055C82.2817 46.3841 82.2662 46.262 82.25 46.1406C82.2971 46.2217 82.3548 46.2994 82.3853 46.3868C82.3947 46.4129 82.3292 46.4652 82.2979 46.5055Z" fill="#CD9319"/>
<path d="M40.4916 27.497C40.3057 29.6333 40.4713 29.8045 42.0431 29.377C42.33 28.1593 41.4283 27.9463 40.4916 27.497ZM40.5129 25.8789C41.3144 26.7885 42.0751 27.4594 42.5869 28.2851C43.1514 29.1968 42.791 30.2296 41.9991 30.5672C41.2836 30.8713 40.4581 30.4798 39.9597 29.599C39.4366 28.676 39.5 28.1158 40.5129 25.8789Z" fill="#1E080A"/>
<path d="M71.7461 19.6126C71.8945 19.166 72.0431 18.72 72.1915 18.2734H72.593C73.0091 19.1452 73.5264 19.9846 73.8163 20.896C74.202 22.1095 73.7595 22.6788 72.489 22.8981C72.4837 22.2712 72.5704 21.6245 72.445 21.0222C72.342 20.5255 71.9887 20.0803 71.7461 19.6126Z" fill="#A9522A"/>
<path d="M71.7455 19.6094C71.9881 20.0772 72.3414 20.5223 72.4444 21.0191C72.5698 21.6213 72.4831 22.2681 72.4884 22.8949C71.1558 22.5699 70.8887 22.2922 71.1073 21.2052C71.2182 20.6527 71.5265 20.1398 71.7455 19.6094Z" fill="#BE141A"/>
<path d="M103.16 19.2931C103.327 18.8286 103.493 18.364 103.678 17.8477C105.308 19.0796 105.319 20.1444 103.865 21.3245C103.872 20.8781 103.97 20.4068 103.856 19.994C103.779 19.7174 103.403 19.5237 103.16 19.2931Z" fill="#A9522A"/>
<path d="M103.157 19.2969C103.4 19.5275 103.776 19.7212 103.853 19.9978C103.966 20.4106 103.869 20.882 103.862 21.3283C102.698 20.62 102.662 20.5156 103.157 19.2969Z" fill="#BE141A"/>
<path d="M75.6655 38.5258C75.4017 39.5299 74.9789 40.2483 73.9991 40.4443C72.7656 39.6211 72.4675 38.9235 73.0207 38.224C73.6299 37.4539 74.4408 37.5241 75.6655 38.5258Z" fill="#040A99"/>
<path d="M107.796 34.6788C107.73 35.7218 107.594 36.7137 106.227 36.78C106.136 36.0188 106.044 35.2578 105.953 34.4961C106.576 34.5663 107.198 34.6366 107.821 34.7064L107.796 34.6788Z" fill="#C898AB"/>
<path d="M105.948 34.4961C106.04 35.2573 106.131 36.0184 106.222 36.7796C105.494 36.8076 104.718 36.875 104.628 35.8505C104.547 34.9212 105.186 34.6324 105.948 34.4961Z" fill="#040A99"/>
<path d="M43.4424 44.2945C42.6594 43.4465 42.7236 42.7186 43.5843 41.8047C44.1407 41.9114 44.8415 42.0458 45.4661 42.1654C45.7878 44.1057 45.5258 44.3533 43.4424 44.2945Z" fill="#040A99"/>
<path d="M40.4906 27.4961C41.4273 27.9454 42.3291 28.1584 42.0421 29.3761C40.4703 29.8036 40.3047 29.6324 40.4906 27.4961Z" fill="#8A0507"/>
</svg>
