<svg width="150" height="110" viewBox="0 0 150 110" fill="none" xmlns="http://www.w3.org/2000/svg">
<path d="M78.5977 71.1589L81.3116 41.4141L115.399 43.0424L120.067 49.1217L120.718 54.6581L117.244 59.4347L98.898 73.8729L78.5977 71.1589Z" fill="white"/>
<path d="M46.7829 20.164C46.6761 20.1581 46.5691 20.1523 46.462 20.146C46.4924 20.2901 46.523 20.4347 46.5534 20.5787C46.6301 20.4406 46.7063 20.3023 46.7829 20.164ZM106.085 26.5183C107.163 26.1753 107.688 25.5433 106.802 24.2091C106.499 25.1835 106.292 25.8511 106.085 26.5183ZM66.9039 61.2327C65.629 60.4819 64.7608 60.4663 64.6811 61.1598C64.6322 61.5819 64.9555 62.2983 65.3101 62.4673C66.3455 62.9605 66.6866 62.2158 66.9039 61.2327ZM65.6442 64.3036C66.6351 65.5008 67.3379 65.7626 67.9847 65.196C68.4902 64.753 68.5366 64.23 68.0505 63.7304C67.4167 63.0782 66.7187 63.2302 65.6442 64.3036ZM64.16 54.8888C63.4665 54.8897 62.7978 55.6487 62.8291 56.3989C62.8643 57.2482 63.7814 58.2489 64.4872 58.118C65.2428 57.9773 65.6535 57.4553 65.6926 56.6713C65.7391 55.7503 64.9961 54.8873 64.16 54.8888ZM100.615 48.5165C99.3267 48.5208 98.5466 49.1509 98.5535 50.1815C98.5594 51.1088 99.1938 51.733 100.083 51.6868C101.025 51.6369 102.158 50.6093 102.156 49.8059C102.155 49.043 101.521 48.513 100.615 48.5165ZM73.3727 58.7198C73.3855 57.1525 72.4512 56.121 71.0504 56.1546C69.8167 56.1844 69.064 56.9069 69.0225 58.1004C68.9713 59.5764 69.9555 60.7803 71.2493 60.8239C72.4232 60.8638 73.3629 59.9331 73.3727 58.7198ZM105.774 55.2712C107.167 55.2701 107.981 54.4579 108.013 53.0362C108.043 51.7565 107.009 50.5737 105.88 50.5943C104.845 50.6132 103.56 52.0652 103.56 53.2155C103.56 54.409 104.489 55.2716 105.774 55.2712ZM47.2899 25.9493C47.0604 26.0982 46.9345 26.1447 46.8607 26.2335C44.3614 29.2548 42.6771 29.4891 39.4672 27.2548C38.7605 26.763 38.0557 26.2678 37.3831 25.7968C33.7757 27.856 31.0811 30.5226 29.913 34.3812C29.19 36.7694 28.7334 39.2535 28.35 41.7247C28.04 43.7263 28.0174 45.7721 27.8669 47.7985C33.5654 39.5463 40.7115 34.0045 51.1713 33.5448C49.8868 31.0315 48.6095 28.5325 47.2899 25.9493ZM113.633 82.2795C113.825 82.3772 114.017 82.4745 114.209 82.5719C115.871 81.2684 117.304 79.7286 118.696 78.1291C120.093 76.5246 121.055 74.7649 121.381 72.6296C122.327 66.422 123.434 60.2373 124.272 54.016C124.648 51.2287 124.704 48.3695 124.603 45.5537C124.378 39.2828 120.231 35.6884 115.356 32.7098C114.977 32.4788 114.267 32.6395 113.764 32.7908C112.504 33.1699 111.297 33.7383 110.027 34.0674C107.335 34.7644 105.839 33.8579 105.065 31.182C104.97 30.8517 104.933 30.5046 104.818 29.8971C103.593 32.1994 102.479 34.2921 101.38 36.3567C101.819 37.2651 102.554 37.439 103.422 37.4731C104.803 37.5274 106.189 37.6006 107.559 37.7779C111.558 38.2962 114.875 39.9982 117.066 43.5141C118.129 45.2187 119.214 46.9155 120.157 48.6865C121.864 51.8937 121.665 54.9042 119.188 57.7493C117.848 59.2867 116.769 61.0504 115.528 62.7729C116.342 63.4807 116.961 64.0068 117.568 64.5479C119.166 65.9765 119.61 67.2961 118.741 69.2517C118.194 70.4801 117.245 71.5375 116.426 72.6335C115.947 73.2742 115.368 73.8409 114.881 74.3873C116.027 76.9832 116.363 78.3391 114.099 81.1019C113.845 81.413 113.784 81.8828 113.633 82.2795ZM47.3828 77.3729C47.4595 77.182 47.5361 76.991 47.6132 76.8001C48.0978 76.8001 48.5958 76.7268 49.0652 76.8123C51.2216 77.2075 53.3691 77.6484 55.5205 78.0694C60.3963 79.0223 65.3179 79.5907 70.2835 79.7114C78.2202 79.9034 86.085 79.2017 93.9224 77.9333C100.001 76.9495 105.967 75.5493 111.877 73.8589C113.903 73.2796 115.428 72.0104 116.752 70.461C117.598 69.4697 118.002 68.297 117.874 66.9689C117.741 65.5896 116.655 64.9519 115.667 64.3473C114.817 63.8266 114.165 64.5967 113.503 65.065C111.867 66.2231 110.307 67.531 108.55 68.4675C102.857 71.5003 96.5969 72.5397 90.2862 73.2816C87.9194 73.5599 85.5292 73.6737 83.1457 73.7597C79.8162 73.8799 76.4765 74.0695 73.154 73.9316C67.7611 73.708 62.3768 73.2596 56.9917 72.8699C55.3052 72.7483 53.631 72.4576 51.9444 72.3371C49.1263 72.1358 46.3029 71.9018 43.4804 71.8833C41.0648 71.8673 39.3035 73.0321 38.4487 75.4082C37.7123 77.4561 38.1055 78.8914 40.0856 79.7603C42.3164 80.7391 44.6359 81.5537 46.9759 82.24C55.6953 84.7956 64.5936 86.2184 73.7025 86.0999C76.3413 86.0656 78.9792 85.9225 81.6165 85.8005C83.4974 85.7134 85.3748 85.5445 87.2557 85.4717C93.8649 85.2153 100.316 83.8501 106.793 82.6918C108.446 82.3963 110.119 81.9734 111.65 81.3042C113.757 80.383 114.832 78.4231 114.526 76.6979C114.319 75.5278 113.692 75.0248 112.544 75.2582C110.642 75.646 108.741 76.0537 106.864 76.55C100.55 78.2194 94.1597 79.4781 87.6591 80.1227C84.3507 80.4505 81.0162 80.5452 77.7191 80.9497C72.1648 81.631 66.6651 80.9627 61.1831 80.3552C57.0195 79.894 52.9067 78.9628 48.781 78.1851C48.2819 78.0913 47.8472 77.6523 47.3828 77.3729ZM35.1247 20.1963C34.5337 20.671 33.9805 21.1629 33.3791 21.5872C32.3017 22.3482 31.1971 23.0701 30.1015 23.8061C27.1667 25.7788 24.8833 28.295 23.4093 31.5469C22.1277 34.3733 21.2779 37.2949 20.9844 40.387C20.5404 45.0635 19.8738 49.7278 19.6472 54.414C19.404 59.4407 19.5588 64.4869 19.5436 69.5248C19.5256 75.6874 20.0091 81.8097 21.0738 87.8824C21.7482 91.7282 22.7812 95.4576 24.5991 98.9429C26.7364 103.041 30.1484 105.695 34.2944 107.504C35.5229 108.04 36.2504 107.819 36.7554 106.612C37.2303 105.477 37.5371 104.241 37.7107 103.02C37.869 101.909 37.6688 100.751 37.7689 99.6262C37.9554 97.5284 37.3866 95.8319 35.6868 94.4705C33.1906 92.4724 31.8323 89.7335 30.9289 86.7265C29.7904 82.9374 28.9855 79.0864 28.5689 75.1492C28.0083 69.8559 27.1876 64.5791 26.8815 59.2717C26.5883 54.1878 26.6969 49.0714 26.8448 43.9753C26.9449 40.5329 27.4915 37.1157 28.674 33.8403C30.291 29.3593 33.3215 26.1948 37.6067 24.0923C38.2071 24.4909 38.7434 24.8118 39.2401 25.1854C39.7909 25.5995 40.269 26.1167 40.8431 26.4923C42.5754 27.6273 44.1207 27.5296 45.2787 26.2717C46.6785 24.7516 46.799 22.904 45.6029 21.3021C44.5994 19.9575 44.6105 19.9263 45.7397 18.6177C46.2725 18 46.8329 17.388 47.2534 16.6964C48.0674 15.3577 47.6049 14.0374 46.0625 13.0254C44.9466 12.2933 44.4088 12.4609 43.2303 13.7875C42.5396 14.5639 41.7782 15.278 41.0148 16.0542C40.2642 15.5008 39.7167 15.0963 39.1678 14.6925C38.5616 14.2465 37.9882 13.7419 37.3401 13.3674C35.9862 12.5856 35.1798 12.6807 34.0732 13.6321C33.0675 14.4966 32.8599 15.4378 33.4779 16.8567C33.9516 17.9442 34.5246 18.989 35.1247 20.1963ZM57.1317 37.9034C57.7082 38.5109 58.2849 39.1182 58.8613 39.7253C59.4727 40.2335 60.0843 40.742 60.6957 41.2505C61.1026 41.6089 61.5088 41.9674 61.9157 42.3254C62.4066 42.7162 62.8975 43.1064 63.3888 43.4968C64.033 43.992 64.6772 44.4872 65.3214 44.9825C65.8444 45.3208 66.367 45.6599 66.8902 45.9988C67.3746 46.2947 67.8586 46.5907 68.3432 46.8872C68.8286 47.1582 69.3137 47.4294 69.7991 47.7008L71.7445 48.7987C72.0737 48.9796 72.4028 49.1602 72.7315 49.3409C75.1389 50.6874 77.5042 52.1169 79.9671 53.3516C81.6971 54.2186 82.4772 53.9626 83.8281 52.5874C85.7684 50.6112 87.7309 48.6556 89.6209 46.6332C94.6483 41.252 99.8262 35.9351 102.918 29.1341C106.47 21.3236 106.619 13.7059 100.775 6.69044C96.8142 1.93474 89.8003 0.466606 84.3726 3.5275C82.5249 4.56922 80.8523 5.94031 79.1712 7.25212C77.3068 8.70745 76.9664 8.59715 75.2535 7.2975C70.327 3.55877 64.8233 2.58869 59.0157 4.60483C53.4219 6.54628 49.9216 10.5538 49.0214 16.501C48.7131 18.5363 48.8269 20.6393 48.7982 22.7116C48.7724 24.5808 49.3286 26.2964 50.2902 27.897C51.4233 29.7827 52.5248 31.6874 53.6401 33.5839C54.0665 34.2515 54.4934 34.9198 54.9198 35.5875C55.3629 36.0744 55.8054 36.5619 56.2479 37.0486C56.5423 37.3339 56.8373 37.6188 57.1317 37.9034ZM89.5693 63.3166C90.7521 63.4671 91.9317 63.679 93.1195 63.7445C93.8614 63.7856 94.6335 63.6801 95.3597 63.5053C96.322 63.2741 96.5721 62.7326 96.2247 61.8235C96.0929 61.4779 95.8658 61.1628 95.6537 60.8536C93.7114 58.0203 93.229 51.7956 97.1214 48.1721C99.1675 46.2674 101.652 45.8859 104.254 45.6651C106.269 45.4942 107.948 46.1603 109.445 47.4567C112.272 49.9041 113.046 53.0842 112.769 56.6431C112.713 57.3616 112.592 58.075 112.442 59.2503C114.425 58.5772 116.128 58.2622 117.557 57.4606C120.889 55.5905 121.123 51.1607 118.103 48.8539C117.11 48.0959 116.012 47.4517 114.896 46.8827C107.406 43.0591 100.222 43.6325 93.4111 48.5375C91.1692 50.1516 89.0208 51.8952 86.8293 53.5794C85.8685 53.7831 85.5316 54.4922 85.4378 55.3571C85.2035 57.5172 84.9925 59.6795 84.7526 62.0361C86.1553 62.7736 87.8119 63.2111 89.5693 63.3166ZM74.3983 52.9014C73.7606 52.5448 73.1232 52.1883 72.4853 51.8323C70.5575 50.1312 68.3959 50.0081 65.9857 50.6357C61.8714 51.7068 58.3079 53.6823 55.2813 56.6436C52.535 59.3304 49.8369 62.0834 45.8116 62.8088C45.7319 62.8229 45.6748 62.9625 45.6079 63.043C49.093 66.1845 58.1327 69.3802 61.1163 68.4577C59.3604 65.9198 58.8231 63.1125 58.852 60.0696C58.8784 57.3112 59.9944 55.1426 61.9943 53.5227C65.1728 50.9473 68.795 50.9951 72.4888 52.3677C73.1169 52.8106 73.745 53.2535 74.3736 53.696C75.3844 55.2653 76.69 56.7245 77.3255 58.4337C77.9755 60.181 77.9681 62.1733 78.2515 64.0765C82.8404 62.7217 84.5454 60.8091 84.1127 55.2536C82.7864 56.4169 81.4031 56.101 80.0327 55.4874C78.1464 54.6431 76.2759 53.7648 74.3983 52.9014ZM100.487 57.0774C100.595 56.5322 100.703 55.9866 100.82 55.4025C100.288 54.7119 99.7446 54.033 98.5926 54.6074V56.8698C99.3666 56.9438 99.9381 56.9992 100.51 57.0543C100.35 57.7029 100.079 58.3486 100.058 59.0016C100.03 59.9038 100.672 60.3334 101.515 60.3862C102.365 60.4394 102.721 59.9413 102.819 59.1315C103.04 57.2995 102.363 56.6861 100.487 57.0774ZM93.7505 46.5307C93.7965 46.4402 93.833 46.3471 93.8603 46.2494C94.3797 46.0477 94.9153 45.88 95.4149 45.6377C101.312 42.7827 107.299 42.1389 113.456 44.8079C114.641 45.3214 115.892 45.6842 117.111 46.1169C117.204 46.1642 117.296 46.2122 117.388 46.26C117.306 46.2025 117.224 46.1447 117.141 46.0872C115.707 42.6307 113.167 40.3738 109.589 39.3583C106.83 38.5754 103.982 38.8255 101.175 39.04C100.242 39.1112 99.0894 39.4361 98.4827 40.0705C96.7204 41.9157 95.1834 43.9764 93.5586 45.9528C93.4667 45.988 93.3783 46.029 93.2919 46.0759C92.8983 46.4925 92.5047 46.9087 92.1108 47.3252C92.2424 47.4439 92.3731 47.5631 92.504 47.6819C92.9198 47.298 93.3349 46.914 93.7505 46.5307ZM91.0276 48.3554C91.2786 48.2318 91.5298 48.1087 91.7808 47.9856C91.7148 47.8973 91.6484 47.8093 91.5819 47.7214C91.4032 47.9387 91.225 48.1556 91.0467 48.373C90.9788 48.4364 90.9115 48.5 90.9573 48.457C90.9217 48.5082 90.9749 48.4316 91.0276 48.3554ZM40.3706 37.7955C40.2252 37.9084 40.0797 38.0211 39.934 38.134C39.5697 38.388 39.2054 38.6418 38.8411 38.8959C35.8079 40.4977 33.343 42.7636 31.2331 45.4337C29.7333 47.3321 28.6935 49.4546 28.6166 51.9061C28.5365 54.45 28.6466 56.9996 28.5967 59.5447C28.5083 64.1249 29.1321 68.6431 29.7865 73.1511C30.3134 76.7834 31.0025 80.3947 31.7001 83.9997C31.9676 85.3823 32.7043 86.5159 33.9594 87.3179C36.1197 88.6981 38.1914 90.217 40.3628 91.5783C41.6788 92.4027 43.1117 93.0395 44.4919 93.761C48.4645 96.4189 52.9907 97.4513 57.6257 97.8156C61.4923 98.1194 65.4019 98.033 69.2868 97.9125C73.1725 97.7913 77.0539 97.4587 80.9309 97.1378C86.8762 96.6465 92.7376 95.5943 98.484 94.0218C102.784 92.8448 107.017 91.4103 110.802 88.9506C113.099 87.4581 113.566 85.8956 112.556 83.0565C111.971 83.0917 111.34 83.0663 110.733 83.1762C105.929 84.0446 101.149 85.0736 96.3229 85.7857C91.8633 86.4436 87.364 86.934 82.8645 87.1939C78.674 87.4366 74.4595 87.337 70.2573 87.2749C67.5583 87.2354 64.8448 87.1357 62.1682 86.8085C56.5662 86.1242 51.036 84.9902 45.6283 83.3774C43.1814 82.6477 40.634 82.0774 38.4967 80.5154C37.7107 79.9416 37.135 79.3311 36.8977 78.3121C36.0546 74.6867 38.9162 70.6842 42.6365 70.6814C46.3404 70.6784 50.0505 70.8753 53.7476 71.136C59.2515 71.5238 64.7388 72.2555 70.2471 72.4478C75.5822 72.6343 80.9348 72.336 86.2793 72.2286C90.7536 72.1387 95.1346 71.3666 99.4585 70.2784C104.111 69.1071 108.628 67.6322 112.253 64.2407C113.537 63.0387 114.676 61.7601 115.74 59.9593C114.244 60.1485 113.077 60.3076 111.907 60.4409C108.219 60.861 104.578 61.5502 101.149 62.9918C95.8917 65.2018 90.5773 65.407 85.1712 63.7239C84.149 63.4056 83.2516 63.4573 82.2533 63.8422C77.5721 65.6458 72.902 67.4911 68.1541 69.1047C65.3609 70.0541 62.3553 70.5743 59.4332 70.1436C54.2927 69.3856 49.5542 67.3626 45.1337 64.6378C44.4759 64.2324 43.4131 63.8314 43.8262 62.8511C44.0972 62.2085 44.9544 61.8094 45.5599 61.3141C45.6489 61.2418 45.7979 61.2414 45.9195 61.2101C48.6833 60.5015 50.8847 58.9235 52.8826 56.9302C55.524 54.2963 58.4661 52.032 61.9817 50.6635C63.7512 49.9748 65.5895 49.4635 67.3972 48.8715C66.8544 48.5087 66.2723 48.3041 65.7078 48.3456C61.395 48.6591 57.2525 49.5647 53.6896 52.1977C51.1146 54.1 48.5607 56.0322 46.0454 58.012C44.0299 59.5985 41.8027 60.6969 39.2766 61.0847C38.3947 61.2199 37.3314 61.6843 36.3462 60.4038C37.2615 60.1376 37.9921 59.8554 38.7496 59.7181C40.8235 59.341 42.7478 58.5952 44.4439 57.362C46.2204 56.0706 47.9289 54.685 49.6519 53.3223C53.1331 50.5697 56.8221 48.2464 61.3121 47.5104C62.3503 47.3399 63.3756 47.0922 64.5419 46.8521C62.2971 45.0429 60.2107 43.3476 58.1027 41.6784C57.8228 41.4565 57.4424 41.252 57.0992 41.2357C53.2417 41.0523 49.3775 41.0327 45.985 43.2466C43.7309 44.7172 41.6117 46.3933 39.4223 47.9637C38.9665 48.2905 38.4674 48.556 37.9882 48.85C37.8716 48.7036 37.7548 48.5571 37.638 48.4105C38.549 46.2431 40.5671 45.0079 42.3566 43.7306C44.2746 42.3617 46.4138 41.1434 48.638 40.4074C50.7713 39.7014 53.1377 39.6975 55.5392 39.3657C54.4265 37.9518 53.3578 36.594 52.2306 35.161C50.4591 35.161 48.6193 34.991 46.8255 35.206C44.7805 35.4507 42.7667 36.0132 41.1238 37.4101C40.8743 37.5376 40.6242 37.6657 40.3745 37.7931L40.3706 37.7955ZM22.2152 109.953C22.2845 109.603 22.3012 109.233 22.4321 108.907C23.0172 107.451 23.5887 105.987 24.2544 104.566C24.9424 103.098 24.9044 101.935 23.9506 100.419C21.4093 96.3792 20.312 91.784 19.5744 87.0951C17.9332 76.6681 17.8136 66.1587 18.1551 55.662C18.344 49.84 19.1539 44.0218 19.9798 38.2439C20.6009 33.9029 22.2059 29.8159 25.2461 26.5435C26.8975 24.7658 28.9058 23.3148 30.7878 21.7583C31.5043 21.1658 32.3178 20.6901 33.2043 20.0811C32.9362 19.1789 32.7379 18.3359 32.4361 17.5321C31.676 15.5047 31.8871 14.0761 33.1906 12.8652C34.3515 11.7875 36.6545 11.4036 38.1215 12.4657C40.084 13.887 41.6049 14.1616 43.4545 12.2315C44.6296 11.005 45.7842 11.3443 47.877 12.8248C50.5321 7.24127 54.5574 3.25155 60.8646 2.19268C66.8774 1.18309 72.3798 2.41392 76.9874 6.68697C78.2378 5.6839 79.2493 4.84952 80.2841 4.04467C84.5196 0.751897 89.2468 -0.682587 94.6022 0.308981C96.9475 0.742995 99.0034 1.76669 100.765 3.37704C104.614 6.89497 106.518 11.3834 107.297 16.4346C107.364 16.8658 107.439 17.2957 107.54 17.9047C108.173 17.7425 108.769 17.4149 109.309 17.4891C110.405 17.6396 111.586 17.8055 112.522 18.3354C113.762 19.0382 114.687 19.0315 115.736 18.079C117.093 16.8493 118.656 17.0773 120.138 17.7983C120.528 17.9883 120.693 18.6392 120.962 19.0784C118.077 16.9372 116.238 18.967 114.553 20.7526C114.271 20.7307 114.194 20.7476 114.149 20.7174C113.421 20.2315 112.702 19.7324 111.971 19.2502C110.691 18.4049 109.148 18.4453 108.149 19.3396C107.188 20.1987 107.055 21.3021 107.707 22.7868C108.131 23.751 108.531 24.7258 108.931 25.6714C108.119 26.6067 107.393 27.3861 106.733 28.2183C105.902 29.2674 105.892 30.5953 106.638 31.6928C107.411 32.8275 108.074 33.1156 109.555 32.7052C111.064 32.2873 112.558 31.7936 114.014 31.2206C114.941 30.8552 115.742 30.9377 116.501 31.4916C117.717 32.3785 118.931 33.2724 120.094 34.2272C123.055 36.6609 125.26 39.6655 125.68 43.525C125.99 46.3831 125.899 49.3181 125.673 52.1942C125.374 55.9955 124.815 59.7796 124.28 63.5589C123.815 66.8415 123.351 70.1334 122.662 73.3734C121.807 77.395 119.01 80.1442 116.04 82.7356C115.49 83.2153 114.821 83.7887 114.659 84.4324C114.326 85.7477 114.3 87.1401 114.154 88.5014C114.148 88.5554 114.189 88.6258 114.228 88.6718C115.179 89.8034 116.132 90.9326 117.084 92.0619C122.654 88.5413 126.273 83.9079 128.031 77.861C129.949 71.2654 130.733 64.4908 131.084 57.6638C131.326 52.9526 131.127 48.2425 130.35 43.5797C129.495 38.4523 127.365 34.0353 123.052 30.8654C121.696 29.8691 120.41 28.7765 118.996 27.6523C119.631 26.4269 120.092 25.157 120.868 24.124C122.189 22.3649 122.352 20.737 120.903 19.0265C121.558 18.2495 122.007 18.8428 122.424 19.2912C123.641 20.6017 123.634 22.6754 122.442 24.523C122.001 25.2069 121.558 25.8902 121.139 26.5876C121.016 26.7928 120.973 27.0457 120.857 27.3811C121.79 28.1432 122.689 28.9187 123.63 29.6391C128.059 33.0281 130.399 37.6626 131.445 42.9931C132.689 49.337 132.462 55.7434 132.005 62.1522C131.625 67.4954 130.678 72.7223 129.308 77.9029C127.887 83.2724 124.97 87.6095 120.79 91.1543C118.924 92.7373 116.956 94.202 115.045 95.7331C114.813 95.9191 114.646 96.1853 114.449 96.4144C113.768 96.6597 113.768 96.6597 113.697 95.5079C113.804 95.4074 113.912 95.3067 114.019 95.2061C114.172 95.0811 114.325 94.9564 114.477 94.8316C114.855 94.5815 115.233 94.3314 115.612 94.0813C115.857 93.8802 116.101 93.6789 116.347 93.4777C116.141 93.2975 115.936 93.1173 115.731 92.9364C115.311 92.3719 114.892 91.8074 114.473 91.2427C114.446 91.1797 114.404 91.1278 114.348 91.0874C113.885 90.6497 113.422 90.2116 112.958 89.7737C112.843 89.762 112.727 89.7496 112.611 89.7379C108.612 91.7145 104.583 93.609 100.284 94.8765C95.2738 96.3529 90.1455 97.1953 84.992 97.9774C76.3784 99.2838 67.7229 99.5495 59.0361 99.3298C58.5994 99.3185 58.1585 99.256 57.7301 99.1657C54.3592 98.457 50.9906 97.7355 47.6216 97.0182C46.8313 96.663 46.0024 96.374 45.2577 95.9411C42.2808 94.2122 39.332 92.4353 36.3672 90.6849C35.6445 90.2581 34.9645 89.5857 33.9633 90.1189C34.0087 91.397 35.0563 91.9342 35.7734 92.6513C37.3925 94.2704 38.9357 95.9391 39.1487 98.3348C39.2929 99.9544 39.2362 101.596 39.2004 103.226C39.1659 104.821 38.6589 106.283 37.7635 107.614C36.6115 109.325 35.7122 109.694 33.8035 108.885C32.3756 108.279 30.9997 107.519 29.6805 106.7C28.5307 105.986 27.4924 105.092 26.2143 104.136C25.3332 106.198 24.5307 108.075 23.7278 109.953H22.2152Z" fill="#0C0D0B"/>
<path d="M115.612 94.0817C115.234 94.3316 114.856 94.5817 114.478 94.8318C114.326 94.9569 114.173 95.0813 114.02 95.2063C113.913 95.3071 113.805 95.4076 113.698 95.5081C113.433 95.8731 113.167 96.2383 112.815 96.7233C113.989 97.5914 114.981 98.3248 115.973 99.0588C116.34 99.3407 116.706 99.6231 117.073 99.9054C117.518 100.325 117.937 100.775 118.411 101.159C121.238 103.444 123.084 106.296 123.558 109.953H45.661C45.6415 109.2 45.7494 108.416 45.5798 107.698C44.7995 104.394 45.6332 101.257 46.5132 98.1339C46.6374 97.6927 47.2409 97.387 47.6224 97.0184C50.9914 97.7357 54.3599 98.4572 57.7309 99.1659C58.1593 99.2562 58.6002 99.3187 59.0368 99.3296C67.7236 99.5497 76.3792 99.284 84.9928 97.9776C90.1465 97.1955 95.2747 96.3531 100.285 94.8763C104.584 93.6092 108.613 91.7147 112.612 89.7383L112.779 89.8217L112.96 89.7739C113.423 90.212 113.886 90.6495 114.349 91.0877L114.323 91.2292L114.474 91.2429C114.893 91.8076 115.313 92.3721 115.732 92.9368C115.692 93.3183 115.652 93.7002 115.612 94.0817Z" fill="#0344FA"/>
<path d="M47.6199 97.0183C47.2385 97.3869 46.6347 97.6933 46.5107 98.1338C45.6305 101.257 44.797 104.394 45.5773 107.698C45.7469 108.416 45.639 109.2 45.6585 109.953H23.7266C24.529 108.075 25.3315 106.198 26.213 104.136C27.4907 105.093 28.5292 105.986 29.6788 106.7C30.9984 107.52 32.3743 108.279 33.8025 108.885C35.7107 109.694 36.6102 109.326 37.7618 107.613C38.6576 106.282 39.1641 104.821 39.1993 103.226C39.2349 101.596 39.2912 99.9546 39.147 98.3351C38.934 95.9394 37.3907 94.2705 35.7721 92.6514C35.0546 91.9345 34.0074 91.3972 33.9616 90.1186C34.9627 89.5858 35.6432 90.2582 36.366 90.685C39.3302 92.4356 42.2791 94.2123 45.256 95.9414C46.0013 96.3741 46.8296 96.6633 47.6199 97.0183Z" fill="#04359F"/>
<path d="M123.555 109.954C123.083 106.297 121.236 103.446 118.409 101.16C117.935 100.777 117.515 100.326 117.07 99.9068C117.31 99.6918 117.55 99.4764 117.789 99.2617C121.449 101.561 123.66 104.881 124.664 109.041C124.734 109.331 124.684 109.65 124.69 109.954H123.555Z" fill="#0E1225"/>
<path d="M120.903 19.0245C122.353 20.7349 122.189 22.3633 120.868 24.1221C120.092 25.1556 119.631 26.4253 118.996 27.6503C120.41 28.7751 121.696 29.8672 123.053 30.864C127.366 34.0333 129.495 38.4505 130.35 43.5783C131.127 48.2404 131.326 52.9508 131.084 57.662C130.733 64.4887 129.949 71.264 128.031 77.8589C126.273 83.9058 122.654 88.5393 117.084 92.0598C116.132 90.931 115.179 89.8014 114.229 88.6702C114.19 88.624 114.148 88.5536 114.154 88.4993C114.3 87.1382 114.326 85.7457 114.659 84.4304C114.822 83.7866 115.491 83.2132 116.04 82.7336C119.01 80.1421 121.807 77.393 122.662 73.3714C123.351 70.1313 123.815 66.8401 124.28 63.5569C124.815 59.7778 125.374 55.9939 125.673 52.1922C125.899 49.316 125.99 46.3817 125.68 43.5229C125.26 39.6641 123.055 36.659 120.094 34.2252C118.931 33.2703 117.717 32.3767 116.501 31.4897C115.742 30.9359 114.942 30.8534 114.014 31.2186C112.558 31.792 111.064 32.2853 109.556 32.7034C108.075 33.1136 107.411 32.8254 106.639 31.6908C105.892 30.5935 105.902 29.2654 106.734 28.2163C107.393 27.3841 108.119 26.6051 108.931 25.6697C108.531 24.7238 108.131 23.7489 107.707 22.7854C107.055 21.3001 107.189 20.1967 108.149 19.3376C109.148 18.4435 110.691 18.4029 111.972 19.2483C112.702 19.7308 113.421 20.2295 114.149 20.7154C114.194 20.7458 114.271 20.7286 114.553 20.7505C116.238 18.965 118.078 16.9356 120.962 19.0768L120.903 19.0245Z" fill="#539736"/>
<path d="M115.97 99.0585C114.978 98.3249 113.986 97.5908 112.812 96.723C113.165 96.238 113.43 95.873 113.695 95.5078C113.766 96.6594 113.766 96.6594 114.447 96.4147C115.118 97.0096 115.789 97.6045 116.46 98.1994C116.235 98.2424 116.009 98.2854 115.772 98.3307C115.848 98.6091 115.909 98.8338 115.97 99.0585Z" fill="#0E1225"/>
<path d="M115.971 99.0584C115.91 98.8336 115.849 98.6089 115.773 98.3306C116.01 98.2852 116.236 98.2422 116.461 98.1992C116.904 98.5527 117.347 98.9059 117.79 99.2596C117.55 99.475 117.311 99.6897 117.071 99.9051C116.704 99.6228 116.338 99.3406 115.971 99.0584Z" fill="#0C0D0B"/>
<path d="M80.5407 48.2653C79.4325 46.9485 79.3225 46.957 78.6755 48.2653H80.5407ZM77.2855 48.4588V46.4709C75.9999 47.4503 75.9893 47.6494 77.2855 48.4588ZM54.5487 22.6943C54.0949 23.7493 53.6412 24.8038 53.0869 26.0933C54.9302 25.2331 55.2003 24.6564 54.5487 22.6943ZM73.8939 48.8861C74.0433 48.9262 74.1929 48.9657 74.3423 49.0057C75.3084 48.1833 75.5082 46.2492 74.5131 44.4406C74.3071 45.9224 74.1006 47.4043 73.8939 48.8861ZM53.4264 20.3228C53.2901 20.2817 53.1533 20.2407 53.0165 20.1997C51.6363 21.6682 51.1841 23.6629 52.1706 25.111C52.6287 23.3635 53.0278 21.843 53.4264 20.3228ZM52.1917 16.1298C49.9595 18.4647 49.3829 20.2181 50.0798 22.2597C50.8616 19.9906 51.5264 18.0604 52.1917 16.1298ZM82.7781 20.1478C82.7644 20.0003 82.8215 19.7014 82.7034 19.5099C82.4366 19.0783 82.084 18.6996 81.7661 18.2997C81.4311 18.689 81.0774 19.065 80.7706 19.4754C80.6682 19.6115 80.6901 19.8382 80.6456 20.0208C80.1822 21.9199 79.4482 22.3623 77.5443 21.9939C76.2553 21.7444 75.8705 20.8975 75.7127 19.7224C75.6645 19.359 75.1052 18.7749 74.8282 18.8012C74.4547 18.8364 73.8501 19.3542 73.8373 19.6834C73.8075 20.4569 73.8881 21.341 74.2485 22.0048C75.4997 24.3075 78.7727 24.9992 80.9891 23.5597C82.1984 22.7744 82.8063 21.6912 82.7781 20.1478ZM90.7556 15.44C88.9867 15.4288 87.2205 17.1505 87.2049 18.902C87.1907 20.519 89.0731 22.6641 90.5324 22.6943C92.3698 22.7325 94.704 20.6958 94.7249 19.0361C94.7459 17.3835 92.6141 15.4518 90.7556 15.44ZM69.3972 22.5782C69.4226 20.4574 66.5092 18.2332 64.264 18.6553C63.1784 18.8594 62.4789 19.4328 62.1586 20.5405C61.6271 22.3741 62.6195 24.7092 64.3393 25.4836C66.1839 26.3145 69.3747 24.482 69.3972 22.5782ZM56.2474 37.05C55.8049 36.5632 55.3625 36.0758 54.92 35.5888C55.5225 33.0989 56.0965 30.6017 56.7466 28.1244C56.9311 27.4196 57.2051 26.7809 56.5696 25.7795C55.9871 27.2956 55.4923 28.4928 55.0709 29.7143C54.786 30.5391 54.6434 31.4135 54.3611 32.2394C54.1989 32.7144 53.8854 33.1385 53.6399 33.5853C52.5243 31.6888 51.4229 29.784 50.2898 27.8984C49.3282 26.2978 48.7719 24.5821 48.7977 22.713C48.8266 20.6406 48.7133 18.5376 49.0209 16.5024C49.9215 10.5552 53.4214 6.54764 59.0156 4.60619C64.8228 2.59071 70.3267 3.56013 75.2531 7.29886C76.9661 8.59852 77.3063 8.70881 79.1707 7.25392C80.8518 5.94167 82.5245 4.57059 84.3721 3.52886C89.7998 0.467968 96.8137 1.9361 100.775 6.69181C106.619 13.7072 106.47 21.325 102.918 29.1355C99.8258 35.9364 94.6482 41.2534 89.6207 46.6346C87.7305 48.657 85.768 50.613 83.8281 52.5888C82.4772 53.964 81.6966 54.2199 79.9669 53.353C77.5037 52.1183 75.1384 50.6888 72.7315 49.3422C72.6279 47.1752 73.6625 45.0112 73.0661 42.8426C72.8804 42.8309 72.695 42.8196 72.5094 42.8079C72.2543 44.8054 71.9994 46.8026 71.744 48.8001L69.7987 47.7021C69.8171 46.5842 69.9007 45.4628 69.8354 44.3499C69.7752 43.3333 70.2205 42.2174 69.2199 40.9262C69.0236 42.3756 68.8853 43.4584 68.7277 44.5383C68.6128 45.3236 68.4721 46.105 68.3427 46.8886C67.8588 46.592 67.3742 46.2961 66.8898 46.0002C66.7159 43.9254 66.9454 41.916 67.7689 39.98C68.1093 39.1795 68.0731 38.3492 67.5696 37.4975C66.941 38.5045 66.4126 39.5336 66.1283 40.6261C65.7582 42.0524 65.5812 43.5287 65.3209 44.9838C64.6767 44.4886 64.0325 43.9934 63.3883 43.4981C63.8586 40.5299 64.3295 37.562 64.8623 34.2021C63.3121 36.1709 62.331 37.9638 62.2689 40.1988C62.2489 40.911 62.039 41.6177 61.9152 42.3268C61.509 41.9688 61.1021 41.6103 60.6957 41.2518C60.6592 38.9773 60.9801 36.7697 61.7341 34.6066C61.9471 33.9971 61.7669 33.2503 61.7669 32.5661C61.6145 32.5412 61.4621 32.5162 61.3092 32.4912C61.1284 32.9079 60.9121 33.3132 60.7719 33.7431C60.1234 35.7338 59.4957 37.7313 58.8608 39.7266C58.2844 39.1196 57.7082 38.5123 57.1313 37.9048C59.4944 33.0388 60.1331 30.7185 59.3956 28.9483C58.9116 30.017 58.4657 30.8781 58.1257 31.7797C57.4678 33.5243 56.8701 35.2918 56.2474 37.05Z" fill="#FB9ED0"/>
<path d="M38.8421 38.8966C39.2064 38.6428 39.5707 38.3888 39.9351 38.1347C40.0805 38.022 40.2262 37.9091 40.3721 37.7962L40.376 37.7939C40.6257 37.6664 40.8752 37.5385 41.1249 37.4109C42.7678 36.0142 44.782 35.4514 46.827 35.2063C48.6203 34.9913 50.4602 35.1618 52.2316 35.1618C53.3593 36.5943 54.4275 37.9526 55.54 39.3666C53.1387 39.6982 50.7724 39.7021 48.639 40.4084C46.4147 41.1444 44.2756 42.3624 42.3576 43.7313C40.5686 45.0082 38.5499 46.2438 37.6391 48.4112C37.7559 48.5578 37.8725 48.7044 37.9893 48.8509C38.4684 48.5569 38.968 48.2907 39.4233 47.964C41.6127 46.3938 43.732 44.7181 45.9859 43.2474C49.3789 41.0334 53.2432 41.053 57.1007 41.2367C57.4435 41.2527 57.8239 41.4575 58.1042 41.6791C60.2117 43.3485 62.2986 45.0438 64.5434 46.8528C63.3766 47.0927 62.3514 47.3406 61.3136 47.5111C56.8236 48.2473 53.1348 50.5705 49.6534 53.3233C47.9297 54.6859 46.2214 56.0715 44.445 57.3629C42.7493 58.5961 40.8244 59.3413 38.7507 59.7184C37.9936 59.8561 37.2626 60.1385 36.3477 60.4047C37.3329 61.6853 38.3962 61.2206 39.2776 61.0849C41.8038 60.6976 44.0314 59.5992 46.0464 58.013C48.5617 56.0329 51.1161 54.1008 53.6906 52.1984C57.254 49.5654 61.3961 48.6598 65.7087 48.3459C66.2734 48.3049 66.8561 48.5096 67.3983 48.8724C65.591 49.4638 63.7527 49.9758 61.9832 50.6643C58.4672 52.033 55.5251 54.297 52.8843 56.9311C50.8857 58.9242 48.6848 60.5022 45.9209 61.2104C45.7989 61.2417 45.65 61.2421 45.561 61.3151C44.9554 61.8103 44.0983 62.2092 43.8273 62.852C43.4139 63.8323 44.4773 64.2327 45.1346 64.6387C49.5552 67.3635 54.2942 69.3864 59.4347 70.1439C62.3564 70.5746 65.3626 70.0551 68.1558 69.1056C72.9034 67.4918 77.5736 65.6461 82.2544 63.843C83.2527 63.4582 84.15 63.4063 85.1722 63.7248C90.5784 65.4079 95.8927 65.2028 101.15 62.9927C104.58 61.5509 108.219 60.8617 111.909 60.4412C113.078 60.3083 114.245 60.1492 115.742 59.9601C114.678 61.7608 113.538 63.0396 112.254 64.2409C108.629 67.6329 104.113 69.108 99.4595 70.2787C95.1356 71.3669 90.7547 72.1396 86.2804 72.2295C80.9363 72.3367 75.5833 72.6353 70.2485 72.4488C64.7403 72.2562 59.2529 71.5241 53.7486 71.1363C50.052 70.876 46.3415 70.6793 42.6375 70.6821C38.9172 70.6851 36.0556 74.6875 36.8991 78.3131C37.136 79.3318 37.7118 79.9423 38.4978 80.5161C40.6355 82.0781 43.1829 82.648 45.6294 83.3782C51.0375 84.9909 56.5676 86.1245 62.1697 86.8092C64.8458 87.136 67.5593 87.2361 70.2583 87.2756C74.4606 87.3377 78.6755 87.4369 82.866 87.1946C87.3651 86.9347 91.8644 86.4445 96.3239 85.7866C101.151 85.0745 105.93 84.0454 110.734 83.1765C111.341 83.067 111.973 83.092 112.557 83.0568C113.567 85.8965 113.101 87.4589 110.803 88.9515C107.018 91.411 102.785 92.8455 98.4851 94.0225C92.7385 95.5953 86.8772 96.6472 80.9319 97.1385C77.0553 97.459 73.1735 97.792 69.2878 97.9128C65.4034 98.0339 61.4934 98.1203 57.6265 97.8166C52.9915 97.452 48.4655 96.4197 44.4934 93.7617C44.3731 93.4217 44.3343 93.0175 44.1202 92.7532C42.8646 91.1991 41.4844 89.7392 40.3083 88.1295C39.0238 86.3711 37.6328 84.6055 36.7873 82.63C34.7708 77.9192 33.4394 72.9303 33.2644 67.8229C33.0607 61.8928 32.6597 55.8991 33.9644 50.0216C34.6387 46.9822 35.5126 44.0014 37.5101 41.454C38.0713 40.7379 39.1415 40.1222 38.8421 38.8966Z" fill="#539736"/>
<path d="M35.1236 20.1954C34.5235 18.988 33.9505 17.9432 33.4768 16.8555C32.8589 15.4366 33.0664 14.4957 34.0721 13.6311C35.1788 12.6797 35.9851 12.5844 37.3391 13.3669C37.9871 13.741 38.5605 14.2455 39.1667 14.6915C39.7156 15.0953 40.2632 15.4998 41.0137 16.053C41.7771 15.277 42.5385 14.563 43.2292 13.7863C44.4077 12.46 44.9455 12.2924 46.0615 13.0245C47.6038 14.0365 48.0663 15.3567 47.2523 16.6953C46.8318 17.387 46.2714 17.9988 45.7386 18.6167C44.6094 19.9253 44.5983 19.9565 45.6018 21.3009C46.7979 22.903 46.6774 24.7507 45.2777 26.2705C44.1196 27.5287 42.5744 27.6264 40.8413 26.4913C40.2679 26.1157 39.7899 25.5985 39.239 25.1843C38.7423 24.8106 38.206 24.4899 37.6057 24.0913C33.3205 26.1938 30.29 29.3587 28.6729 33.8394C27.4905 37.1145 26.9438 40.5319 26.8437 43.9743C26.6958 49.0702 26.5868 54.1868 26.8804 59.2706C27.1865 64.5782 28.0072 69.8549 28.5678 75.1482C28.9844 79.0852 29.7893 82.9364 30.9278 86.7255C31.8313 89.7325 33.1895 92.4715 35.6857 94.4696C37.3855 95.8307 37.9544 97.5279 37.7679 99.6252C37.6678 100.75 37.8679 101.908 37.7097 103.019C37.536 104.24 37.2292 105.476 36.7544 106.611C36.2494 107.818 35.5218 108.039 34.2934 107.503C30.1473 105.694 26.7353 103.04 24.5981 98.9419C22.7801 95.4566 21.7471 91.7272 21.0727 87.8814C20.008 81.8087 19.5245 75.6865 19.5425 69.5238C19.5577 64.4859 19.4029 59.4397 19.6461 54.413C19.8727 49.7268 20.5393 45.0625 20.9833 40.386C21.2768 37.2939 22.1266 34.3722 23.4083 31.5457C24.8823 28.2944 27.1657 25.7779 30.1004 23.8051C31.196 23.0691 32.3007 22.3472 33.378 21.5862C33.9794 21.1618 34.5326 20.67 35.1236 20.1954Z" fill="#539836"/>
<path d="M47.3813 77.3714C47.8457 77.6508 48.2804 78.0898 48.7795 78.1836C52.9045 78.9613 57.018 79.8925 61.1816 80.3537C66.6636 80.9612 72.1633 81.6295 77.7176 80.9482C81.0147 80.5437 84.3491 80.449 87.6576 80.1212C94.1582 79.4765 100.549 78.2179 106.863 76.5485C108.739 76.0522 110.641 75.6445 112.543 75.2567C113.69 75.0233 114.317 75.5263 114.524 76.6964C114.83 78.4216 113.756 80.3815 111.649 81.3027C110.118 81.9719 108.444 82.3952 106.792 82.6903C100.314 83.8486 93.8634 85.2138 87.2542 85.4702C85.3733 85.543 83.4959 85.7119 81.615 85.799C78.9777 85.921 76.3398 86.0641 73.7009 86.0984C64.5921 86.2169 55.6938 84.7941 46.9744 82.2385C44.6343 81.5522 42.3149 80.7376 40.084 79.7588C38.1039 78.8899 37.7107 77.4545 38.4472 75.4067C39.302 73.0306 41.0632 71.8658 43.4789 71.8818C46.3014 71.9003 49.1247 72.1343 51.9429 72.3356C53.6295 72.4561 55.3036 72.7468 56.9902 72.8684C62.3753 73.2581 67.7596 73.7065 73.1525 73.9301C76.475 74.068 79.8147 73.8784 83.1442 73.7582C85.5277 73.6722 87.9179 73.5584 90.2847 73.2801C96.5953 72.5382 102.856 71.4988 108.549 68.466C110.306 67.5295 111.865 66.2216 113.501 65.0635C114.163 64.5952 114.816 63.8251 115.666 64.3458C116.654 64.9504 117.739 65.5881 117.872 66.9674C118 68.2955 117.596 69.4682 116.75 70.4595C115.427 72.0089 113.902 73.2781 111.876 73.8574C105.965 75.5478 99.9991 76.948 93.9209 77.9318C86.0835 79.2002 78.2187 79.9019 70.282 79.7099C65.3164 79.5892 60.3948 79.0208 55.519 78.0679C53.3676 77.6469 51.2201 77.2059 49.0637 76.8108C48.5943 76.7253 48.0963 76.7986 47.6117 76.7986C47.5346 76.9895 47.4579 77.1805 47.3813 77.3714Z" fill="#AD522A"/>
<path d="M38.8403 38.8945C39.1397 40.1201 38.0696 40.7359 37.5083 41.4519C35.5108 43.9994 34.637 46.9801 33.9626 50.0195C32.6579 55.8971 33.059 61.8908 33.2626 67.8209C33.4376 72.9283 34.769 77.9172 36.7855 82.6279C37.631 84.6035 39.022 86.369 40.3065 88.1275C41.4826 89.7372 42.8628 91.1971 44.1184 92.7512C44.3325 93.0154 44.3713 93.4197 44.4916 93.7597C43.1108 93.0384 41.6778 92.4014 40.3625 91.577C38.1911 90.2159 36.1188 88.697 33.9591 87.3165C32.704 86.5141 31.9669 85.3812 31.6998 83.9984C31.0022 80.3936 30.3127 76.7823 29.7857 73.1495C29.1318 68.642 28.5076 64.1238 28.5964 59.5435C28.6459 56.9979 28.5364 54.4489 28.6159 51.9048C28.6925 49.4535 29.7325 47.3308 31.2328 45.4319C33.3423 42.7622 35.8076 40.4966 38.8403 38.8945Z" fill="#496E31"/>
<path d="M72.4903 52.3689C68.7965 50.9965 65.1743 50.9487 61.9957 53.5241C59.9959 55.144 58.8799 57.3121 58.8534 60.0706C58.8246 63.1139 59.3619 65.9212 61.1177 68.4584C58.1341 69.3812 49.0945 66.1859 45.6094 63.0444C45.6762 62.9639 45.7333 62.8243 45.813 62.8102C49.8384 62.0843 52.5365 59.3318 55.2827 56.6449C58.3093 53.6837 61.8729 51.7082 65.9872 50.6365C68.3974 50.009 70.559 50.1326 72.4868 51.8332C72.4883 52.0119 72.4892 52.1902 72.4903 52.3689Z" fill="#F2F2F2"/>
<path d="M117.112 46.1163C115.892 45.6842 114.642 45.3212 113.457 44.8075C107.299 42.1383 101.312 42.7825 95.4154 45.6378C94.9158 45.8794 94.3795 46.047 93.8604 46.2492C93.7599 46.1502 93.6591 46.0514 93.5586 45.9524C95.1839 43.9762 96.7205 41.9151 98.4832 40.0698C99.0892 39.4354 100.242 39.1106 101.175 39.0394C103.982 38.8249 106.83 38.575 109.589 39.3583C113.167 40.3738 115.707 42.6301 117.142 46.0872L117.112 46.1163Z" fill="#529436"/>
<path d="M74.3997 52.9023C76.2771 53.7658 78.1478 54.644 80.0341 55.4884C81.4046 56.102 82.7876 56.4179 84.1146 55.2546C84.5469 60.8101 82.8423 62.7227 78.2529 64.0775C77.9696 62.1743 77.977 60.182 77.3269 58.4347C76.6914 56.7255 75.3859 55.2663 74.375 53.697C74.3833 53.4323 74.3915 53.167 74.3997 52.9023Z" fill="#F5F5F5"/>
<path d="M105.773 55.2705C104.488 55.2709 103.558 54.409 103.559 53.2153C103.559 52.0645 104.844 50.6131 105.879 50.594C107.008 50.5734 108.041 51.7558 108.012 53.0359C107.979 54.4578 107.166 55.2694 105.773 55.2705Z" fill="#F2F2F2"/>
<path d="M73.3718 58.7182C73.362 59.9314 72.4223 60.8622 71.2477 60.8227C69.9544 60.7788 68.9702 59.5753 69.0214 58.0994C69.0631 56.9052 69.8157 56.1829 71.0493 56.1532C72.4501 56.1193 73.3844 57.1515 73.3718 58.7182Z" fill="#F5F5F5"/>
<path d="M86.8311 53.5781C86.7251 54.7347 86.5977 55.8904 86.5195 57.0489C86.4242 58.455 86.3706 59.8641 86.2889 61.4722C86.8662 61.7282 87.6107 62.0111 88.3066 62.3828C88.7638 62.6269 89.152 63.0001 89.5711 63.3155C87.8137 63.21 86.1567 62.7719 84.7539 62.035C84.9943 59.6784 85.2053 57.5157 85.4391 55.3554C85.5334 54.4911 85.8699 53.782 86.8311 53.5781Z" fill="#BEBEBE"/>
<path d="M56.2461 37.0474C56.8688 35.2892 57.4665 33.5217 58.1246 31.7765C58.4639 30.8755 58.9103 30.014 59.3943 28.9453C60.1314 30.7152 59.4931 33.0362 57.13 37.9022C56.8351 37.6173 56.5405 37.3323 56.2461 37.0474Z" fill="#7B4D6F"/>
<path d="M58.8594 39.7234C59.4942 37.7284 60.1219 35.7307 60.7704 33.74C60.9103 33.3103 61.1265 32.9047 61.3078 32.4883C61.46 32.513 61.6131 32.538 61.7653 32.563C61.7653 33.2467 61.9457 33.9935 61.7327 34.6034C60.9784 36.7665 60.6577 38.9742 60.6938 41.2487C60.0824 40.7402 59.4708 40.2319 58.8594 39.7234Z" fill="#89587B"/>
<path d="M61.9141 42.3243C62.0372 41.6152 62.2478 40.9085 62.2673 40.1964C62.3298 37.9614 63.311 36.1685 64.8612 34.1992C64.3284 37.5591 63.8575 40.5275 63.3872 43.4955C62.8959 43.1053 62.405 42.7145 61.9141 42.3243Z" fill="#955E85"/>
<path d="M65.3203 44.9825C65.5806 43.5274 65.7569 42.051 66.1278 40.6247C66.4115 39.5322 66.94 38.5033 67.569 37.4961C68.072 38.3478 68.1081 39.1781 67.7679 39.9786C66.9448 41.9146 66.7148 43.924 66.8892 45.9988C66.3659 45.6603 65.8433 45.3214 65.3203 44.9825Z" fill="#A36891"/>
<path d="M53.6406 33.5831C53.8864 33.1363 54.1999 32.7122 54.3621 32.2372C54.6444 31.4113 54.787 30.5374 55.0716 29.7121C55.4933 28.4906 55.9885 27.2935 56.5706 25.7773C57.2061 26.7787 56.9321 27.4174 56.7476 28.1222C56.0973 30.5995 55.5235 33.0967 54.9207 35.5866C54.4939 34.919 54.0675 34.2507 53.6406 33.5831Z" fill="#734667"/>
<path d="M100.616 48.5156C101.522 48.5122 102.156 49.0422 102.158 49.8051C102.159 50.6084 101.026 51.6365 100.084 51.686C99.195 51.7322 98.561 51.1087 98.5547 50.1811C98.5478 49.1505 99.3283 48.52 100.616 48.5156Z" fill="#EBEBEB"/>
<path d="M100.488 57.0776C102.364 56.6863 103.042 57.2999 102.82 59.1319C102.722 59.9415 102.367 60.4398 101.516 60.3866C100.673 60.3339 100.031 59.904 100.059 59.0019C100.081 58.349 100.352 57.7033 100.511 57.0546L100.488 57.0776Z" fill="#EBEBEB"/>
<path d="M64.1601 54.8867C64.9962 54.8852 65.7392 55.7487 65.6927 56.6695C65.6536 57.4532 65.2429 57.9754 64.4873 58.1161C63.7814 58.247 62.8644 57.2468 62.8292 56.3974C62.7979 55.6466 63.4666 54.8876 64.1601 54.8867Z" fill="#EBEBEB"/>
<path d="M68.3438 46.8878C68.4727 46.1044 68.6134 45.3228 68.728 44.5375C68.8859 43.4576 69.0242 42.3752 69.2205 40.9258C70.2216 42.2165 69.7758 43.3332 69.8358 44.349C69.9018 45.462 69.8182 46.5834 69.7997 47.7013C69.3143 47.4304 68.8292 47.1587 68.3438 46.8878Z" fill="#B875A1"/>
<path d="M71.7461 48.7969C72.001 46.7994 72.2559 44.8024 72.511 42.8047C72.6964 42.8164 72.8825 42.8277 73.0681 42.8394C73.6641 45.008 72.6295 47.1715 72.7331 49.339C72.4044 49.1584 72.0752 48.9777 71.7461 48.7969Z" fill="#C47CAC"/>
<path d="M100.511 57.0533C99.9399 56.9979 99.368 56.9434 98.5938 56.8685V54.6064C99.7464 54.0319 100.29 54.7108 100.822 55.4015C100.705 55.9859 100.596 56.5311 100.488 57.0761L100.511 57.0533Z" fill="#E2E2E2"/>
<path d="M65.6445 64.3022C66.719 63.2285 67.4168 63.0772 68.0508 63.7288C68.5374 64.2288 68.4909 64.7518 67.9848 65.195C67.3382 65.761 66.6354 65.4991 65.6445 64.3022Z" fill="#EBEBEB"/>
<path d="M66.9035 61.2309C66.6866 62.214 66.3458 62.9589 65.3099 62.465C64.9551 62.2965 64.6318 61.58 64.6807 61.1582C64.7604 60.4645 65.6286 60.4801 66.9035 61.2309Z" fill="#E2E2E2"/>
<path d="M74.3969 52.9011C74.3887 53.1658 74.3804 53.4311 74.3722 53.6958C73.7441 53.2533 73.1155 52.8104 72.4874 52.3674C72.4863 52.189 72.4855 52.0103 72.4844 51.832C73.1218 52.1881 73.7597 52.5446 74.3969 52.9011Z" fill="#BEBEBE"/>
<path d="M106.086 26.5167C106.293 25.8491 106.5 25.1819 106.803 24.207C107.689 25.5419 107.164 26.1732 106.086 26.5167Z" fill="#E2E2E2"/>
<path d="M93.749 46.5284C93.3335 46.9125 92.9183 47.2964 92.5026 47.6802C92.3716 47.561 92.2409 47.4423 92.1094 47.3237C92.5032 46.9071 92.8968 46.4904 93.2905 46.0742C93.4433 46.2258 93.5962 46.3771 93.749 46.5284Z" fill="#496E31"/>
<path d="M115.613 94.0823C115.653 93.7009 115.693 93.319 115.732 92.9375C115.938 93.1177 116.143 93.2983 116.349 93.4786C116.104 93.6798 115.858 93.8811 115.613 94.0823Z" fill="#0E1225"/>
<path d="M91.046 48.374C91.2243 48.1567 91.403 47.94 91.5812 47.7227C91.6476 47.8106 91.7141 47.8983 91.7805 47.9869C91.5295 48.1098 91.2783 48.2335 91.0273 48.3564L91.046 48.374Z" fill="#496E31"/>
<path d="M46.7818 20.1626C46.7052 20.3009 46.629 20.4392 46.5523 20.5772L46.4609 20.1445C46.568 20.1508 46.675 20.1567 46.7818 20.1626Z" fill="#89587B"/>
<path d="M91.0268 48.3555C90.9736 48.4317 90.9208 48.5083 90.9564 48.4571C90.9106 48.5001 90.9779 48.4367 91.0452 48.3731L91.0268 48.3555Z" fill="#496E31"/>
<path d="M112.957 89.7739L112.777 89.8223L112.609 89.7383C112.726 89.75 112.841 89.7622 112.957 89.7739Z" fill="#0E1225"/>
<path d="M117.143 46.0859C117.226 46.1435 117.308 46.2012 117.39 46.2588C117.298 46.211 117.206 46.163 117.113 46.1152L117.143 46.0859Z" fill="#529436"/>
<path d="M114.471 91.2412L114.32 91.2275L114.346 91.0859C114.402 91.1263 114.444 91.1782 114.471 91.2412Z" fill="#0E1225"/>
<path d="M93.7515 46.5309C93.5987 46.3795 93.4458 46.2282 93.293 46.0767C93.3794 46.0298 93.4678 45.9883 93.5596 45.9531C93.6601 46.0523 93.7609 46.1509 93.8609 46.2501C93.834 46.3474 93.7975 46.441 93.7515 46.5309Z" fill="#529436"/>
<path d="M69.398 22.5765C69.3752 24.4802 66.1849 26.3128 64.34 25.4819C62.6205 24.7073 61.6281 22.3717 62.1589 20.5389C62.4798 19.4311 63.1791 18.8577 64.2649 18.6536C66.5101 18.2311 69.4234 20.4553 69.398 22.5765Z" fill="#0C070A"/>
<path d="M90.7578 15.4376C92.6163 15.4493 94.7478 17.381 94.7271 19.0341C94.7061 20.6933 92.3721 22.7298 90.5346 22.6918C89.0747 22.6614 87.193 20.517 87.2071 18.8992C87.2227 17.148 88.9883 15.4263 90.7578 15.4376Z" fill="#090507"/>
<path d="M82.7781 20.1456C82.8063 21.6889 82.1984 22.7721 80.9895 23.5576C78.7727 24.9968 75.5004 24.3053 74.2491 22.0024C73.8885 21.3387 73.8079 20.4546 73.8377 19.681C73.8501 19.3518 74.4552 18.8342 74.8282 18.7991C75.1056 18.7726 75.6645 19.3568 75.7133 19.7201C75.8705 20.8953 76.2559 21.7421 77.5447 21.9917C79.4482 22.36 80.1827 21.9175 80.6458 20.0186C80.6905 19.8358 80.6686 19.6093 80.7706 19.473C81.0778 19.0622 81.4311 18.6866 81.7661 18.2969C82.084 18.6975 82.4372 19.0759 82.7034 19.5077C82.8215 19.699 82.7648 19.998 82.7781 20.1456Z" fill="#140B10"/>
<path d="M52.1913 16.1289C51.526 18.0595 50.861 19.9897 50.0794 22.2587C49.3825 20.2172 49.9593 18.464 52.1913 16.1289Z" fill="#623758"/>
<path d="M53.4266 20.3219C53.0282 21.8421 52.6291 23.3626 52.171 25.1106C51.1838 23.662 51.6367 21.6674 53.0169 20.1992C53.1537 20.2403 53.2898 20.2809 53.4266 20.3219Z" fill="#623758"/>
<path d="M73.8945 48.8864C74.101 47.4046 74.307 45.9228 74.5137 44.4414C75.5086 46.25 75.3088 48.1841 74.3422 49.0061C74.1933 48.9665 74.0439 48.9264 73.8945 48.8864Z" fill="#C47CAC"/>
<path d="M54.5482 22.6914C55.1993 24.6528 54.9292 25.2301 53.0859 26.0897C53.6407 24.8009 54.0944 23.7464 54.5482 22.6914Z" fill="#734667"/>
<path d="M77.2845 48.4564C75.9883 47.6466 75.9992 47.4479 77.2845 46.4688V48.4564Z" fill="#C47CAC"/>
<path d="M80.541 48.2657H78.6758C79.3228 46.9573 79.4329 46.9489 80.541 48.2657Z" fill="#C47CAC"/>
</svg>
