<svg width="150" height="110" viewBox="0 0 150 110" fill="none" xmlns="http://www.w3.org/2000/svg">
<g clip-path="url(#clip0_1054_4921)">
<rect x="20" width="110" height="110" rx="55" fill="#55883A"/>
<path d="M28.375 45.955V22.9089C44.3458 9.68731 64.3224 14.2782 72.3143 18.2263L129.954 36.4979V58.993L28.375 45.955Z" fill="white"/>
<path d="M129.95 52.436V99.8669C126.016 101.365 121.892 101.877 117.733 102.118C114.185 102.323 110.631 102.193 107.072 102.376C102.508 102.61 97.9145 102.243 93.3339 102.135C93.2257 102.132 93.1168 102.131 93.0099 102.118C90.5248 101.804 88.0475 101.397 85.5532 101.194C81.8374 100.893 78.3039 100.041 74.9511 98.3756C73.7212 97.7653 72.3668 97.4062 71.0691 96.9322V95.5284C70.4187 95.3453 69.8267 95.1372 69.2171 95.0145C67.6522 94.6988 66.0718 94.4594 64.5121 94.121C60.9184 93.342 57.3575 92.4334 53.9375 91.0596C53.2417 90.7799 52.6218 90.6338 51.972 91.088C51.1836 91.1953 50.3582 91.5064 49.6126 91.373C47.0027 90.9062 44.402 90.3489 41.9367 89.325C39.8188 88.4452 37.6868 87.5927 35.6079 86.6266C33.2836 85.5464 30.9953 84.3839 28.723 83.1959C26.7806 82.181 24.9018 81.0447 22.9555 80.0379C22.3123 79.7054 21.5467 79.6106 20.8369 79.4073C20.8234 79.1386 20.7975 78.8698 20.7975 78.6007C20.7962 63.2649 20.7967 47.9291 20.801 32.5929C20.8015 32.1635 20.847 31.7337 20.8714 31.3043C21.6375 31.2154 22.0846 31.6606 22.4042 32.2635C22.7812 32.9751 23.0811 33.7292 23.4825 34.426C25.3906 37.7377 27.7361 40.4747 31.5673 41.7954C35.4246 43.1253 39.3118 44.0939 43.3846 44.317C44.0108 44.3515 44.7211 44.3504 44.8113 45.2484C44.2001 45.5799 43.5789 45.8941 42.9792 46.2454C39.76 48.1295 36.6764 50.1904 34.126 52.9621C32.7615 54.4454 31.1371 55.5565 29.2901 56.3977C27.634 57.1519 26.0252 58.0265 24.4542 58.9485C23.2986 59.6272 22.2213 60.4571 21.7491 61.8102C20.653 64.949 22.6148 68.5325 25.9363 69.3084C29.1993 70.0707 32.4711 69.6161 35.725 69.1437C38.0592 68.8053 40.3735 68.2785 42.717 68.0743C45.6684 67.8173 48.6405 67.7771 51.6052 67.6933C53.8757 67.6295 56.1094 68.0035 58.2956 68.5703C63.7934 69.9962 69.2927 71.4233 74.7592 72.9626C79.7534 74.3687 84.5006 76.3772 88.8294 79.2887C92.0856 81.4788 95.305 83.7245 98.6044 85.8463C101.19 87.509 104.021 88.4811 107.167 88.1594C107.912 88.083 108.653 87.9586 109.391 87.8239C110.985 87.5334 112.536 87.0994 113.926 86.2346C115.107 85.4996 115.901 84.4563 115.604 83.0283C115.451 82.2952 114.879 81.6358 114.443 80.9789C113.833 80.0588 112.777 79.4261 112.712 78.158C112.64 76.7621 112.45 75.3679 112.452 73.9733C112.454 71.7001 112.223 69.4568 111.731 67.2477C111.114 64.4798 110.416 61.7296 109.753 58.9717C109.969 58.8477 110.172 58.6525 110.402 58.6108C112.855 58.166 115.32 57.7829 117.767 57.3093C121.865 56.5169 125.847 55.4085 129.233 52.7946C129.441 52.6347 129.71 52.554 129.95 52.436Z" fill="#55883A"/>
<path d="M49.7536 29.5879C46.8855 29.724 45.3076 31.5089 45.6679 34.2875C45.9403 36.3903 47.706 37.5608 49.7559 36.9969C51.8466 36.4221 53.5034 33.5402 52.8235 31.4678C52.6438 30.9194 52.108 30.3838 51.5953 30.0774C51.0716 29.7638 50.3748 29.739 49.7536 29.5879ZM109.403 45.729C109.418 42.6386 107.599 41.4062 104.82 42.5207C102.787 43.336 101.914 44.7212 101.946 47.0817C101.98 49.7014 104.233 51.1903 106.638 50.1381C108.583 49.287 109.437 47.7148 109.403 45.729ZM118.757 37.534C118.882 34.8966 117.199 34.1837 115.07 34.4935C112.337 34.8912 110.628 37.2579 110.781 40.2573C110.874 42.0714 112.27 43.3437 114.093 43.2757C116.137 43.1989 117.684 42.0345 118.255 40.0573C118.492 39.2363 118.594 38.3765 118.757 37.534ZM37.8313 24.0832C37.8536 26.7242 39.5866 28.6995 42.3057 29.1833C43.7145 29.434 44.7903 28.9535 45.3625 27.6614C45.8633 26.5315 46.3192 25.365 46.6314 24.1721C47.3981 21.2459 44.4102 18.3941 41.4857 19.2013C39.1088 19.8578 37.8098 21.5925 37.8313 24.0832ZM97.7931 34.9928C97.7484 37.6674 99.8008 39.7901 102.156 39.8402C103.216 39.863 104.246 39.6855 104.98 38.8708C106.109 37.6169 107.02 36.1991 107.443 34.5465C107.789 33.1949 107.478 31.9646 106.404 31.0059C104.133 28.98 98.7099 28.9153 97.9484 33.7166C97.8639 34.2484 97.8179 34.7868 97.7931 34.9928ZM51.0586 24.4462C50.935 26.495 52.2629 27.9363 54.2202 28.9372C55.5497 29.6171 56.8264 29.4516 58.0018 28.5331C59.5387 27.3312 60.4543 25.7435 61.1053 23.9135C61.803 21.9517 60.6146 19.4412 58.2068 18.7446C54.3776 17.6372 51.0981 20.1002 51.0586 24.4462ZM92.179 41.989C92.2132 41.4498 92.2514 40.9111 92.2807 40.3719C92.5097 36.1085 93.4922 32.1537 96.7941 29.1157C97.295 28.6546 97.691 28.0793 98.3477 27.308C94.8795 27.4406 91.777 27.6574 88.7665 28.5876C87.479 28.9852 86.2238 29.4923 84.9257 29.8459C83.2428 30.3039 81.7198 30.1091 80.2085 28.9959C76.0809 25.9558 71.8476 23.0584 67.3073 20.6496C66.3875 20.162 65.457 19.6639 64.1722 19.4314C64.377 20.1267 64.5327 20.5703 64.636 21.0259C64.8852 22.1258 65.2207 23.2215 65.3244 24.3372C65.654 27.8785 65.38 31.3446 63.6773 34.5689C62.8189 35.7727 61.9599 36.9759 61.0227 38.2899C62.4924 38.7082 63.8136 38.2294 65.0735 37.9987C69.4638 37.1961 73.8179 36.1987 78.1919 35.3038C79.231 35.0909 80.2926 34.988 81.4213 34.8233C82.4222 37.3355 84.1629 39.0583 86.105 40.657C87.996 42.2138 89.8209 43.8393 92.179 45.1748V41.989ZM25.8861 27.6708C25.573 28.2693 25.2599 28.8673 25.005 29.3545C26.6399 32.4416 32.4596 36.2549 35.5598 36.2749C34.7718 34.6895 34.0168 33.1705 33.2618 31.6515C32.3295 28.3417 32.7311 25.1415 34.0335 22.0091C34.2261 21.5453 34.3587 21.0564 34.5186 20.5788C30.6999 21.9534 27.9771 24.4401 25.8861 27.6708ZM129.947 39.4421V43.3404C129.67 43.144 129.351 42.987 129.123 42.7444C127.274 40.7745 125.452 38.7802 123.598 36.8147C123.219 36.4131 122.744 36.1025 122.063 35.5454C122.137 36.1215 122.127 36.3359 122.194 36.5225C122.892 38.4642 123.016 40.4804 122.502 42.4349C121.957 44.5102 121.113 46.5076 120.399 48.5393C119.683 49.6362 118.967 50.7328 118.212 51.8896C118.508 51.9729 118.666 52.071 118.801 52.047C121.429 51.5821 124.09 51.2857 126.584 50.2088C127.653 49.7473 128.823 49.5212 129.947 49.1879V51.4619C129 51.8245 128.049 52.1766 127.106 52.5507C123.195 54.1027 119.131 54.8974 114.932 55.0199C112.834 55.0808 110.768 54.8291 108.712 54.4147C106.886 54.0465 105.019 53.8539 103.218 53.395C100.148 52.6125 97.2925 51.2358 94.4238 49.9193C90.2112 47.9863 86.7878 44.9782 83.4718 41.8287C83.2766 41.6433 83.0927 41.4425 82.9284 41.2294C81.9841 40.0028 81.0473 38.7708 80.0609 37.4787C79.5307 37.5084 78.9795 37.4568 78.4716 37.582C76.404 38.0914 74.3216 38.5675 72.296 39.2157C68.0349 40.5785 63.6115 41.1225 59.2123 41.2941C52.7231 41.5469 46.1837 41.845 39.7549 40.4053C37.5228 39.9056 35.263 39.4593 33.0996 38.737C30.1327 37.7459 27.4615 36.1365 25.0847 34.0881C23.7283 32.9186 22.513 31.6277 22.3984 29.6845C22.5053 29.0552 22.565 28.4131 22.7285 27.7983C23.2192 25.9533 24.4927 24.5564 25.8162 23.354C28.5987 20.826 31.6908 18.6763 34.9467 16.7747C39.0101 14.4019 43.487 13.4255 48.0793 12.8203C48.579 12.9176 49.075 13.0599 49.5795 13.105C51.2375 13.2526 52.9367 13.1831 54.5511 13.5246C59.7379 14.622 64.8372 16.0437 69.4446 18.7857C71.6084 20.0734 73.7121 21.4639 75.8187 22.8447C78.3236 24.486 80.8028 26.1672 83.2294 27.7887C86.1011 26.6885 88.7506 25.4187 91.8164 25.407C94.218 25.398 96.6152 24.9267 99.0201 24.8588C101.001 24.8031 102.99 25.0926 104.977 25.1313C108.469 25.1987 111.74 26.2059 114.893 27.5491C119.985 29.7175 124.135 33.212 127.876 37.2238C128.566 37.9638 129.257 38.7026 129.947 39.4421Z" fill="#040404"/>
<path d="M48.0815 12.8191C43.4896 13.4247 39.0123 14.4012 34.9489 16.7739C31.693 18.6751 28.6009 20.8252 25.8188 23.3532C24.4949 24.5556 23.2214 25.9521 22.7307 27.7976C22.5672 28.4117 22.5075 29.054 22.4006 29.6833C21.8782 29.5817 21.3561 29.48 20.834 29.3779C20.8307 22.0127 20.8271 14.6477 20.8242 7.28245C21.1425 7.26408 21.4972 7.3315 21.774 7.21482C24.4722 6.07759 27.1766 4.94413 29.5613 3.20239C29.8299 3.00638 29.9997 2.6749 30.2151 2.40625H44.5093C44.4458 2.48766 44.3909 2.6319 44.317 2.64213C42.0238 2.96484 39.9084 3.80043 37.9034 4.91616C35.7219 6.12978 33.5681 7.39413 31.4162 8.65952C31.2772 8.74155 31.2575 9.02669 31.1824 9.21769C30.6079 9.75562 30.0341 10.2935 29.5381 10.7578C29.6897 11.5502 30.0164 11.8735 30.5823 11.8349C31.1653 11.795 31.78 11.7706 32.3154 11.5677C35.676 10.294 39.048 9.0413 42.3609 7.6515C47.7898 5.37434 53.4553 4.77004 59.2637 5.01844C59.5804 5.03201 59.8987 5.11864 60.2068 5.20401C65.0676 6.55102 69.6856 8.35329 73.4306 11.9255C74.2182 12.677 75.2529 13.1692 76.2294 13.8169C77.028 12.5029 76.7425 11.4926 76.0294 10.5184C75.9102 9.95121 75.9148 9.31684 75.6493 8.82901C74.5949 6.89001 72.976 5.48811 71.0438 4.47822C69.5968 3.72195 68.0837 3.09217 66.6004 2.40625H85.4426C85.3186 3.1573 85.9582 3.27962 86.4026 3.51467C88.923 4.84769 91.4462 6.17528 93.991 7.46092C94.656 7.79679 95.3831 8.06064 96.1124 8.20696C97.1081 8.40652 98.1299 8.52822 99.1452 8.56725C104.479 8.77244 109.819 8.23494 115.144 8.59439C117.586 8.7595 120.028 9.27301 122.414 9.85727C124.96 10.4814 127.44 11.3759 129.949 12.152V23.5225C129.736 23.3651 129.504 23.228 129.313 23.0476C126.328 20.2397 123.005 17.9316 119.201 16.3857C117.83 15.8292 116.356 15.5327 114.96 15.029C113.148 14.3749 111.282 14.3934 109.41 14.4617C109.209 14.4688 109.022 14.8322 108.828 15.0305C106.644 15.29 104.453 15.5031 102.279 15.8304C101.323 15.9742 100.421 16.374 100.131 17.4237C100.492 18.1723 101.065 18.3683 101.774 18.3065C102.895 18.2084 104.019 18.0341 105.139 18.0445C106.912 18.0604 108.683 18.2105 110.456 18.2885C112.531 18.38 114.498 18.8716 116.288 19.9384C118.647 21.3443 120.981 22.8207 122.914 24.7817C125.065 26.9645 127.064 29.298 129.149 31.5476C129.342 31.7561 129.679 31.8317 129.949 31.9688V37.1669C129.745 37.1181 129.475 37.1356 129.347 37.0095C128.265 35.9512 127.216 34.8607 126.144 33.7922C125.201 32.8526 124.322 31.8261 123.272 31.0247C121.832 29.9253 120.249 29.0149 118.742 28.0013C114.695 25.2785 110.167 23.8285 105.366 23.5879C100.652 23.352 95.8995 23.276 91.2103 24.1692C89.0188 24.5865 86.8213 24.9731 84.6306 25.3943C83.6829 25.5765 82.8709 25.3999 82.0435 24.8576C79.9859 23.5085 77.8874 22.2198 75.7758 20.9561C73.2041 19.4164 70.6431 17.8514 68.0014 16.4389C65.6011 15.1553 63.1822 13.8551 60.4663 13.3149C58.9554 13.0147 57.4414 12.7164 55.9178 12.4972C54.7034 12.3223 53.4707 12.1808 52.2469 12.1854C50.969 12.1906 49.6911 12.3801 48.4156 12.5135C48.2946 12.526 48.1925 12.7131 48.0815 12.8191Z" fill="#55873A"/>
<path d="M20.8359 29.3789C21.358 29.4806 21.8805 29.5826 22.4025 29.6843C22.5171 31.6281 23.7324 32.9183 25.0895 34.0879C27.466 36.1363 30.1368 37.7459 33.1041 38.7368C35.2671 39.4592 37.5269 39.9057 39.7594 40.4055C46.1878 41.8447 52.7277 41.5471 59.2168 41.2939C63.6156 41.1227 68.0391 40.5783 72.3005 39.2154C74.3261 38.5673 76.4085 38.0911 78.4761 37.582C78.984 37.457 79.5353 37.5081 80.0651 37.4785C81.0518 38.7706 81.9886 40.0026 82.933 41.2292C83.0968 41.4423 83.2811 41.6435 83.4759 41.8285C86.792 44.9782 90.2157 47.9861 94.4279 49.9191C97.2971 51.2356 100.152 52.6122 103.223 53.3952C105.023 53.8542 106.89 54.0463 108.716 54.4145C110.772 54.8289 112.838 55.081 114.936 55.0196C119.135 54.8971 123.2 54.1031 127.11 52.5505C128.053 52.1764 129.004 51.8242 129.952 51.4621V52.4369C129.711 52.5544 129.442 52.6354 129.235 52.7955C125.848 55.4092 121.866 56.5178 117.769 57.3102C115.322 57.7832 112.857 58.1664 110.403 58.6117C110.173 58.6532 109.97 58.8484 109.755 58.9724C109.381 58.7069 109.006 58.4418 108.455 58.0506C108.031 58.4543 107.696 58.7739 107.339 59.1135C109.938 64.8612 111.647 70.5498 110.96 77.0661C110.548 76.5321 110.361 76.2956 110.18 76.056C109.116 74.6464 108.05 73.2388 106.997 71.8215C106.91 71.7039 106.914 71.5182 106.876 71.3637C106.819 70.673 106.785 69.9793 106.7 69.2917C106.409 66.9048 105.621 64.6433 104.936 62.355C104.329 60.3302 103.44 58.5726 101.193 57.9548C97.3854 56.9073 94.0017 54.9558 90.8301 52.7126C87.8653 50.6163 85.1469 48.1727 82.3061 45.8991C81.3881 45.1641 80.4821 44.3855 79.4649 43.8142C78.8782 43.4844 78.1906 43.3754 77.3483 43.5694C75.0755 44.0927 72.7351 44.3342 70.4143 44.6331C69.0905 44.8038 67.7529 44.8696 66.4213 44.9802C63.8657 45.1917 61.3046 45.3518 58.7565 45.6292C57.0163 45.819 55.2651 46.0557 53.5697 46.4769C50.8191 47.1603 48.6359 48.9603 46.3331 50.4964C46.0732 50.6699 45.993 51.1135 45.83 51.4312C42.9982 51.4974 40.2468 52.1808 37.4639 52.7379C37.4467 52.4605 37.4219 52.3711 37.4432 52.358C40.5749 50.4261 43.7171 48.513 46.838 46.5648C47.5129 46.1436 48.1558 45.6474 48.7307 45.099C49.2932 44.5623 49.1246 44.048 48.2155 43.5666C47.1689 44.0841 45.9907 44.6667 44.8128 45.2491C44.7222 44.3513 44.0119 44.3521 43.3861 44.3179C39.3129 44.0943 35.4261 43.1262 31.5684 41.7963C27.7371 40.4754 25.3917 37.7382 23.4836 34.4267C23.0826 33.7301 22.7827 32.9755 22.4053 32.2641C22.0861 31.6615 21.6385 31.2162 20.8729 31.305C20.8604 30.6629 20.8485 30.021 20.8359 29.3789Z" fill="#2E5822"/>
<path d="M129.949 105.717V111.565C113.268 111.565 96.5875 111.565 79.9072 111.562C79.2607 111.562 78.6139 111.528 77.9674 111.51C77.795 111.396 77.6359 111.246 77.4474 111.174C74.9651 110.213 72.5013 109.199 69.9878 108.327C65.7675 106.864 61.5227 105.468 57.2736 104.089C51.0379 102.065 44.8428 99.9225 38.7676 97.4627C34.5563 95.7575 30.4251 93.8562 26.2523 92.0558C24.4601 91.2829 22.7952 90.2051 20.8516 89.7945C20.8524 88.7968 20.8537 87.7986 20.8549 86.8008C21.4058 87.0089 21.9665 87.1955 22.5065 87.4301C24.0388 88.0954 25.5449 88.8256 27.0936 89.4497C32.2868 91.5444 37.4626 93.689 42.7062 95.6516C47.2872 97.3662 51.9052 99.0149 56.591 100.41C61.1735 101.774 65.8245 102.929 70.5948 103.536C74.8093 104.072 78.9961 104.824 83.2118 105.344C86.6853 105.772 90.1798 106.047 93.6712 106.305C98.6196 106.67 103.57 107.091 108.527 107.235C112.299 107.344 116.085 107.091 119.862 106.931C121.256 106.872 122.641 106.618 124.03 106.448C126.003 106.207 127.976 105.961 129.949 105.717Z" fill="#011AF8"/>
<path d="M129.952 105.713C127.979 105.957 126.006 106.203 124.033 106.444C122.644 106.614 121.259 106.868 119.865 106.927C116.088 107.087 112.302 107.34 108.53 107.231C103.573 107.087 98.6229 106.666 93.6745 106.301C90.1831 106.043 86.6886 105.768 83.2151 105.34C78.9994 104.82 74.8126 104.068 70.5981 103.532C65.8278 102.925 61.1768 101.77 56.5943 100.406C51.9085 99.0109 47.2905 97.3622 42.7095 95.6476C37.4659 93.685 32.2901 91.5404 27.0969 89.4457C25.5482 88.8216 24.0421 88.0914 22.5098 87.4261C21.9698 87.1915 21.4091 87.0049 20.8582 86.7968C20.8517 85.9581 20.8457 85.1193 20.8398 84.2812C21.1521 84.3349 21.4888 84.3309 21.7731 84.4507C24.6842 85.675 27.5624 86.9822 30.4975 88.1442C36.2631 90.4268 42.0411 92.682 47.8512 94.8475C50.5993 95.8716 53.3989 96.8024 56.2388 97.5265C60.4681 98.6047 64.749 99.4853 69.0178 100.404C70.9445 100.819 72.8872 101.173 74.8366 101.462C76.8452 101.759 78.8875 101.846 80.8849 102.198C83.6831 102.692 86.4946 102.979 89.3268 103.122C89.6508 103.138 89.9767 103.124 90.299 103.156C92.2653 103.351 94.2298 103.574 96.198 103.752C97.6919 103.886 99.1905 103.991 100.689 104.065C103.267 104.194 105.847 104.391 108.426 104.376C113.115 104.348 117.805 104.245 122.49 104.053C124.402 103.975 126.301 103.58 128.207 103.331C128.788 103.255 129.371 103.187 129.952 103.115V105.713Z" fill="#02030A"/>
<path d="M129.953 103.114C129.372 103.186 128.789 103.255 128.208 103.331C126.302 103.58 124.404 103.974 122.491 104.053C117.806 104.245 113.116 104.348 108.427 104.375C105.849 104.39 103.268 104.193 100.691 104.065C99.1915 103.99 97.693 103.886 96.199 103.751C94.2308 103.574 92.2663 103.351 90.3 103.156C89.9777 103.124 89.6519 103.138 89.3279 103.121C86.4957 102.979 83.6841 102.692 80.886 102.198C78.8885 101.846 76.8462 101.758 74.8377 101.461C72.8883 101.173 70.9455 100.818 69.0188 100.404C64.7501 99.4849 60.4692 98.6046 56.2399 97.5263C53.4 96.8021 50.6003 95.8711 47.8522 94.8471C42.0421 92.6816 36.2642 90.4265 30.4985 88.1437C27.5634 86.9817 24.6853 85.6745 21.7742 84.4503C21.4899 84.3307 21.1532 84.3344 20.8409 84.2808C20.8405 82.6557 20.8398 81.0309 20.8398 79.4062C21.5496 79.6096 22.3152 79.7039 22.9584 80.0364C24.9047 81.0432 26.7835 82.18 28.7259 83.1951C30.9982 84.3824 33.2865 85.5451 35.6108 86.6256C37.6897 87.5916 39.8217 88.4437 41.9396 89.3235C44.4049 90.3474 47.0056 90.9052 49.6155 91.3715C50.3611 91.5049 51.1865 91.1939 51.9749 91.0866C52.2778 92.5384 53.52 93.1287 54.6324 93.6332C57.3358 94.8592 60.069 96.0488 62.9757 96.7502C65.6625 97.3979 68.3442 98.17 71.072 96.9307C72.3697 97.4048 73.7241 97.7638 74.954 98.3748C78.3068 100.039 81.8403 100.892 85.5561 101.193C88.0504 101.396 90.5277 101.803 93.0128 102.117C93.1197 102.13 93.2286 102.131 93.3368 102.133C97.9174 102.242 102.511 102.608 107.075 102.374C110.634 102.192 114.188 102.322 117.736 102.117C121.895 101.876 126.019 101.364 129.953 99.8654V103.114Z" fill="#2E5822"/>
<path d="M48.082 12.8213C48.1931 12.7153 48.2952 12.5283 48.4162 12.5157C49.6916 12.3824 50.9696 12.1928 52.2475 12.1876C53.4713 12.183 54.7039 12.3245 55.9184 12.4995C57.442 12.7186 58.956 13.0169 60.4669 13.3171C63.1828 13.8573 65.6017 15.1576 68.002 16.4411C70.6436 17.8537 73.2047 19.4186 75.7764 20.9583C77.888 22.222 79.9865 23.5108 82.044 24.8599C82.8715 25.4022 83.6835 25.5788 84.6312 25.3966C86.8219 24.9753 89.0193 24.5887 91.2109 24.1715C95.9001 23.2782 100.653 23.3542 105.367 23.5901C110.167 23.8308 114.695 25.2807 118.743 28.0035C120.25 29.0172 121.833 29.9275 123.272 31.0269C124.322 31.8283 125.202 32.8549 126.144 33.7944C127.216 34.863 128.266 35.9534 129.347 37.0118C129.476 37.1378 129.746 37.1203 129.95 37.1692V39.4432C129.26 38.704 128.569 37.9649 127.879 37.2253C124.137 33.2131 119.988 29.719 114.896 27.5501C111.742 26.2069 108.472 25.1997 104.979 25.1323C102.992 25.0941 101.004 24.8041 99.0226 24.8603C96.6184 24.9281 94.2208 25.3995 91.8192 25.4085C88.7532 25.4197 86.1038 26.6895 83.2322 27.7902C80.8054 26.1683 78.3268 24.4875 75.8215 22.8457C73.7148 21.4653 71.6109 20.0749 69.4471 18.7872C64.84 16.0447 59.7407 14.6234 54.5536 13.5256C52.9399 13.1841 51.2403 13.2541 49.5823 13.1061C49.0777 13.061 48.5818 12.919 48.082 12.8213Z" fill="#2D5722"/>
<path d="M89.9935 2.40625C93.0952 4.19266 96.343 5.48978 99.9782 5.71501C103.268 5.91937 106.543 6.00286 109.835 5.71C114.083 5.33197 118.213 6.24187 122.314 7.17578C124.883 7.76047 127.407 8.53782 129.952 9.22855V12.1524C127.443 11.3761 124.963 10.4816 122.417 9.8579C120.031 9.27301 117.589 8.7595 115.147 8.59439C109.822 8.23494 104.482 8.77245 99.1481 8.56788C98.1327 8.52884 97.1109 8.40652 96.1148 8.20717C95.3859 8.06084 94.6589 7.79741 93.9938 7.46113C91.449 6.17549 88.9258 4.84769 86.4054 3.51488C85.961 3.27983 85.321 3.15751 85.4454 2.40625H89.9935Z" fill="#060706"/>
<path d="M129.948 31.9737C129.677 31.8363 129.34 31.761 129.147 31.552C127.062 29.3028 125.064 26.9691 122.912 24.7865C120.979 22.8252 118.646 21.349 116.286 19.9429C114.496 18.876 112.53 18.3846 110.454 18.2934C108.682 18.2149 106.91 18.065 105.138 18.0488C104.017 18.0389 102.894 18.213 101.772 18.3114C101.063 18.3731 100.49 18.1771 100.129 17.4282C100.419 16.3788 101.321 15.9789 102.277 15.8353C104.451 15.5075 106.642 15.2948 108.827 15.0352C109.134 15.662 109.691 15.3042 110.141 15.3673C110.462 15.3775 110.782 15.3879 111.103 15.3982C111.624 15.51 112.142 15.6284 112.664 15.7324C115.697 16.3367 118.48 17.5202 121.017 19.2949C124.488 21.7222 127.181 24.9349 129.948 28.075V31.9737Z" fill="#040603"/>
<path d="M129.949 28.0709C127.182 24.9308 124.489 21.7176 121.018 19.2904C118.481 17.5161 115.699 16.3325 112.665 15.7282C112.144 15.6239 111.625 15.5055 111.105 15.394C110.798 14.9388 110.477 14.9513 110.143 15.3631C109.692 15.3001 109.136 15.6579 108.828 15.031C109.022 14.8325 109.209 14.4691 109.409 14.4618C111.281 14.3935 113.148 14.3756 114.96 15.0298C116.355 15.5335 117.83 15.8295 119.2 16.3862C123.005 17.9319 126.328 20.2398 129.313 23.048C129.504 23.2285 129.736 23.3655 129.949 23.5228V28.0709Z" fill="#2E5822"/>
<path d="M120.403 48.536C122.604 48.6608 124.59 47.7378 126.669 47.2616C127.757 47.0122 128.856 46.8093 129.95 46.5859V49.1848C128.826 49.5179 127.656 49.744 126.588 50.2053C124.093 51.2824 121.432 51.5788 118.804 52.0439C118.669 52.0679 118.512 51.9696 118.215 51.8865C118.97 50.7295 119.686 49.6325 120.403 48.536Z" fill="#909090"/>
<path d="M31.1875 9.21769C31.2624 9.02711 31.2823 8.74155 31.4213 8.65993C33.573 7.39413 35.727 6.1302 37.9079 4.91616C39.9131 3.80043 42.0287 2.96484 44.3221 2.64213C44.3958 2.6319 44.4503 2.48766 44.5144 2.40625H51.3365C51.3369 2.51083 51.3348 2.61603 51.3308 2.72103C50.7917 2.73648 50.2339 2.66739 49.7162 2.78115C45.5988 3.68625 41.5887 4.92597 37.7132 6.60717C35.5648 7.53941 33.3645 8.35141 31.1875 9.21769Z" fill="#2D5722"/>
<path d="M66.601 2.40625C68.0843 3.09238 69.5975 3.72236 71.0445 4.47843C72.9766 5.48811 74.5956 6.89043 75.6499 8.82901C75.9155 9.31684 75.9109 9.95142 76.0301 10.5184C75.5479 10.0959 75.0373 9.70155 74.5879 9.24691C70.3331 4.94371 65.0695 3.04166 59.1358 2.71915C59.1318 2.61478 59.1297 2.51062 59.1289 2.40625H66.601Z" fill="#2D5722"/>
<path d="M20.8203 7.28245V5.69685C22.8157 4.56819 24.7267 3.48711 26.6379 2.40625H30.2114C29.996 2.67469 29.826 3.00638 29.5576 3.20239C27.1727 4.94413 24.4685 6.07738 21.7705 7.21461C21.4935 7.33129 21.1391 7.2645 20.8203 7.28245Z" fill="#080A07"/>
<path d="M59.1305 2.40625C59.1315 2.51062 59.1336 2.61478 59.1373 2.71915C56.5343 2.71999 53.9313 2.72041 51.3281 2.72124C51.3321 2.61603 51.3342 2.51146 51.3338 2.40625H59.1305Z" fill="#233420"/>
<path d="M112.097 80.9667C111.34 80.2226 110.584 79.4782 109.827 78.7338C109.701 78.4959 109.615 78.223 109.443 78.0256C107.145 75.39 104.859 72.7428 102.511 70.1521C101.869 69.443 101.046 68.8917 100.28 68.3009C97.8495 66.4262 95.005 65.3784 92.1238 64.5186C88.8421 63.5393 85.472 62.8614 82.1599 61.9786C74.5947 59.9619 67.0381 57.9144 59.4854 55.8522C54.6455 54.5305 49.7795 53.444 44.7094 53.7295C42.2711 53.8669 39.9386 54.4121 37.7139 55.4189C35.0992 56.0904 32.5619 56.9684 30.1685 58.2336C28.1141 58.9358 26.2661 60.0225 24.5174 61.2887C23.7184 61.8675 23.3366 62.6413 23.3704 63.6537C23.4309 65.4719 25.0499 67.1796 27.0284 67.332C29.6769 67.5353 32.3164 67.3267 34.9389 66.9441C37.3828 66.5872 39.8086 66.0453 42.2638 65.8411C45.5425 65.5683 48.8419 65.5495 52.1316 65.4093C55.4057 65.2698 58.5454 66.009 61.6646 66.8625C66.1689 68.0955 70.6274 69.5223 75.1746 70.5631C81.3953 71.9865 86.8007 74.9915 91.9403 78.589C94.7188 80.534 97.388 82.6365 100.179 84.5625C102.022 85.8344 104.131 86.7311 106.389 86.4754C108.56 86.2295 110.691 85.5862 112.819 85.0374C113.685 84.8139 114.384 84.2876 114.322 83.1485C113.637 82.4012 113.266 81.2915 112.097 80.9667ZM44.8132 45.253C45.9913 44.6704 47.1692 44.0878 48.2159 43.5703C49.1249 44.0517 49.2936 44.566 48.7306 45.1027C48.1559 45.6511 47.5128 46.1472 46.8384 46.5683C43.7177 48.5162 40.5753 50.43 37.4438 52.3617C37.4222 52.3748 37.4471 52.4642 37.4642 52.7418C40.2471 52.1844 42.9986 51.501 45.8299 51.4351C48.0914 51.4217 50.3596 51.3964 52.5719 51.9486C57.2427 53.1148 61.9114 54.2917 66.5676 55.5143C75.4119 57.8372 84.2461 60.2001 93.0873 62.5363C96.5656 63.4552 99.7393 64.9648 102.456 67.3487C103.953 68.6619 105.404 70.0264 106.876 71.3674C106.914 71.5214 106.91 71.7076 106.998 71.8251C108.051 73.2425 109.117 74.65 110.181 76.0597C110.362 76.2995 110.548 76.5358 110.96 77.07C111.647 70.5531 109.938 64.8649 107.339 59.1174C107.696 58.7775 108.032 58.458 108.455 58.0543C109.007 58.4454 109.381 58.7105 109.755 58.9761C110.418 61.7341 111.115 64.4839 111.732 67.252C112.225 69.4613 112.455 71.7041 112.453 73.9777C112.452 75.3725 112.641 76.7667 112.713 78.1625C112.779 79.4302 113.834 80.0629 114.445 80.983C114.881 81.6404 115.452 82.2996 115.605 83.0322C115.903 84.4605 115.109 85.5037 113.927 86.2389C112.538 87.1037 110.986 87.5379 109.392 87.8285C108.655 87.9627 107.913 88.0871 107.168 88.1635C104.023 88.4856 101.192 87.5131 98.6062 85.8503C95.3064 83.7286 92.087 81.4828 88.8315 79.2933C84.5024 76.3817 79.755 74.3732 74.7611 72.9671C69.2941 71.4279 63.7955 70.0007 58.297 68.5746C56.1115 68.0081 53.8778 67.6334 51.6066 67.6979C48.6419 67.7814 45.6702 67.8219 42.7189 68.0788C40.3749 68.283 38.0606 68.8099 35.7269 69.1482C32.473 69.6206 29.2012 70.0753 25.9383 69.3129C22.6162 68.5364 20.6545 64.9531 21.7506 61.8147C22.2227 60.4617 23.3001 59.6317 24.4561 58.9529C26.0266 58.0311 27.6354 57.1565 29.2916 56.4019C31.1385 55.5606 32.7629 54.4495 34.1281 52.966C36.6779 50.1943 39.7614 48.1336 42.9806 46.2495C43.5803 45.8986 44.202 45.584 44.8132 45.253Z" fill="#080603"/>
<path d="M71.0737 96.9358C68.3456 98.1747 65.6642 97.4029 62.9774 96.7548C60.0701 96.0534 57.3375 94.8642 54.634 93.6383C53.5212 93.1333 52.2794 92.5434 51.9766 91.0919C52.6264 90.6378 53.2463 90.7838 53.9417 91.0635C57.3619 92.437 60.923 93.3456 64.5165 94.1251C66.076 94.4632 67.6568 94.7029 69.2217 95.0183C69.8308 95.141 70.4233 95.3489 71.0737 95.5322V96.9358Z" fill="#040603"/>
<path d="M63.6819 34.5662C68.795 34.5954 73.8489 34.088 78.8576 33.0349C80.6014 32.6685 82.1943 32.8783 83.5397 34.414C85.2405 36.356 87.1363 38.1372 89.0358 39.8927C89.9556 40.7425 90.7997 41.7968 92.1837 41.9866V45.1722C89.8255 43.8366 88.0007 42.2107 86.1097 40.6539C84.1676 39.0556 82.4269 37.3329 81.426 34.8202C80.2973 34.9849 79.2356 35.0885 78.1965 35.3012C73.8226 36.1961 69.4684 37.1934 65.0782 37.996C63.8182 38.2265 62.4971 38.7056 61.0273 38.2868C61.9646 36.9734 62.8236 35.77 63.6819 34.5662Z" fill="#909090"/>
<path d="M49.7576 29.582C50.3788 29.7332 51.0755 29.758 51.5993 30.0715C52.1119 30.378 52.6478 30.9136 52.8275 31.462C53.5074 33.5343 51.8506 36.4162 49.7598 36.9911C47.71 37.5549 45.9443 36.3845 45.6719 34.2816C45.3116 31.5031 46.8894 29.7181 49.7576 29.582Z" fill="#F6F6F6"/>
<path d="M25.8889 27.6719C26.0674 27.9825 26.1686 28.4329 26.4373 28.5818C28.6251 29.795 30.7609 31.138 33.2646 31.6526C34.0196 33.1716 34.7746 34.6906 35.5626 36.276C32.4624 36.2559 26.6427 32.4427 25.0078 29.3556C25.2627 28.8684 25.5758 28.2703 25.8889 27.6719Z" fill="#8E8E8E"/>
<path d="M51.3269 2.72159C53.9299 2.72075 56.5329 2.72034 59.1361 2.7195C65.0693 3.04221 70.3334 4.94427 74.5882 9.24747C75.0376 9.70211 75.5477 10.0968 76.0299 10.5189C76.7428 11.4935 77.0286 12.5038 76.2297 13.8179C75.2538 13.1695 74.2187 12.6775 73.4311 11.9265C69.6861 8.35427 65.0681 6.55158 60.2076 5.20498C59.8992 5.11961 59.5813 5.03256 59.2647 5.01941C53.4562 4.77101 47.7902 5.3749 42.3618 7.65206C39.0483 9.04186 35.6769 10.2949 32.3164 11.5687C31.7805 11.7716 31.1658 11.7956 30.5832 11.8354C30.0173 11.8745 29.69 11.5511 29.5391 10.7583C30.0346 10.2941 30.6089 9.75617 31.1833 9.21825C33.3605 8.35218 35.5606 7.53997 37.709 6.60794C41.5845 4.92673 45.5946 3.68723 49.712 2.78212C50.2299 2.66815 50.7875 2.73703 51.3269 2.72159Z" fill="#030503"/>
<path d="M106.875 71.3632C105.403 70.0218 103.951 68.6577 102.455 67.3445C99.7375 64.9607 96.5638 63.451 93.0851 62.5322C84.2443 60.1959 75.4101 57.8326 66.5657 55.5101C61.9096 54.2871 57.2409 53.1108 52.5701 51.9444C50.3578 51.3918 48.0898 51.4175 45.8281 51.4309C45.9916 51.1125 46.0713 50.6694 46.3314 50.4961C48.6342 48.96 50.8177 47.1598 53.5678 46.4762C55.2632 46.0549 57.0148 45.818 58.7553 45.6289C61.3034 45.3513 63.8644 45.1914 66.4198 44.9793C67.7514 44.8691 69.089 44.8031 70.4128 44.6328C72.7336 44.3337 75.0743 44.0922 77.347 43.5688C78.1887 43.3745 78.8767 43.4839 79.4637 43.8139C80.4802 44.3848 81.3868 45.1634 82.3048 45.8986C85.145 48.1724 87.864 50.6157 90.8282 52.7123C94.0002 54.9551 97.3841 56.907 101.191 57.954C103.438 58.5721 104.327 60.3297 104.934 62.3545C105.62 64.6427 106.407 66.9045 106.699 69.2912C106.783 69.979 106.817 70.6727 106.875 71.3632Z" fill="#55873A"/>
<path d="M77.969 111.508C77.5916 111.526 77.214 111.56 76.8366 111.56C58.6462 111.563 40.4559 111.563 22.2657 111.562H20.896C20.8574 111.244 20.7997 110.992 20.7997 110.74C20.7956 103.973 20.7964 97.2058 20.7993 90.4386C20.7997 90.2232 20.8342 90.0082 20.8526 89.793C22.7964 90.2034 24.4617 91.2811 26.2535 92.0541C30.4263 93.8544 34.5579 95.7559 38.7688 97.4611C44.8445 99.9209 51.0395 102.064 57.2752 104.087C61.5244 105.466 65.7691 106.862 69.9894 108.325C72.5029 109.197 74.9665 110.212 77.4486 111.172C77.6373 111.245 77.7962 111.394 77.969 111.508Z" fill="#0543F5"/>
<path d="M110.141 15.3644C110.475 14.9526 110.796 14.9401 111.103 15.3953C110.782 15.3849 110.461 15.3747 110.141 15.3644Z" fill="#2D5722"/>
<path d="M106.894 83.5739C107.554 83.6906 108.064 83.495 108.427 82.737C108.116 82.2133 107.809 81.5904 107.407 81.0371C104.725 77.3396 101.316 74.3448 97.9385 71.3239C96.8111 70.3148 95.5259 69.5212 94.0833 69.0206C90.686 67.8427 87.3134 66.5823 83.8802 65.5188C76.4544 63.2178 69.0128 60.9557 61.4073 59.3033C56.6186 58.2625 51.7956 57.4363 46.863 57.6367C45.7375 57.6822 44.613 57.8129 43.4933 57.9482C40.9087 58.26 38.4729 59.0639 36.1448 60.2191C35.4524 60.5624 34.9892 61.0102 35.1072 61.8493C34.649 62.8617 34.7696 63.4057 35.6541 63.9011C37.2117 64.7728 38.8724 64.6811 40.4789 64.1503C42.4613 63.4953 44.4874 62.9471 46.5443 62.8824C49.0041 62.8052 51.4696 62.8171 53.9534 63.0659C56.8348 63.3542 59.6627 63.9067 62.4391 64.5532C70.1033 66.3381 77.671 68.4978 85.056 71.269C89.0397 72.7636 92.7907 74.721 96.3611 76.9664C98.8801 78.5501 101.42 80.1894 103.54 82.3517C103.985 82.8057 104.517 83.2059 105.077 83.5046C105.633 83.801 106.262 84.3853 106.894 83.5739ZM37.7129 55.4111C39.9374 54.4044 42.2699 53.8589 44.7086 53.7218C49.779 53.436 54.6445 54.5227 59.4842 55.8443C67.0371 57.9064 74.5935 59.954 82.1587 61.9706C85.4708 62.8536 88.8414 63.5314 92.1232 64.5108C95.0038 65.3708 97.8483 66.4185 100.279 68.2932C101.045 68.8837 101.868 69.435 102.511 70.1441C104.859 72.7352 107.144 75.382 109.442 78.0178C109.615 78.2151 109.7 78.4883 109.826 78.7261C109.699 80.0422 110.328 81.0181 111.343 82.0515C111.627 81.6397 111.861 81.299 112.096 80.959C113.265 81.284 113.635 82.3939 114.321 83.1412C114.382 84.2796 113.684 84.8065 112.817 85.0299C110.69 85.5786 108.558 86.2218 106.388 86.4675C104.13 86.7232 102.021 85.8266 100.178 84.5546C97.3868 82.6285 94.7181 80.5261 91.9391 78.5814C86.7994 74.9836 81.3947 71.9789 75.1736 70.5551C70.6264 69.5143 66.1679 68.0876 61.6639 66.8547C58.5448 66.001 55.405 65.2618 52.1306 65.4013C48.8407 65.542 45.5413 65.5605 42.263 65.8334C39.808 66.0375 37.382 66.5792 34.9381 66.9362C32.3152 67.3192 29.6757 67.5273 27.0272 67.324C25.0487 67.1722 23.4302 65.4639 23.3692 63.646C23.3358 62.6336 23.7172 61.86 24.5169 61.2809C26.2649 60.0145 28.1131 58.928 30.1673 58.2256C30.562 58.4548 30.9567 58.6838 31.406 58.9447C31.6174 58.8979 31.9009 58.8936 32.1261 58.7765C33.5727 58.0214 35.0189 57.2635 36.4383 56.4586C36.9115 56.1906 37.6484 56.1931 37.7129 55.4111Z" fill="#AC522A"/>
<path d="M37.7133 55.4141C37.649 56.1958 36.912 56.1935 36.439 56.4617C35.0193 57.266 33.5738 58.0246 32.1268 58.779C31.902 58.8967 31.6179 58.9009 31.4068 58.9472C30.9572 58.6865 30.5627 58.4577 30.168 58.2287C32.5614 56.9636 35.0986 56.0854 37.7133 55.4141Z" fill="#802D1D"/>
<path d="M112.095 80.9673C111.86 81.3075 111.626 81.6478 111.342 82.06C110.327 81.0266 109.698 80.0505 109.825 78.7344C110.582 79.4787 111.338 80.2231 112.095 80.9673Z" fill="#802D1D"/>
<path d="M35.1082 61.8521C34.9902 61.013 35.4536 60.565 36.146 60.2219C38.4741 59.0667 40.9093 58.2628 43.4944 57.951C44.614 57.8157 45.7385 57.6848 46.8641 57.6395C51.7966 57.4391 56.6196 58.2653 61.4085 59.3061C69.014 60.9585 76.4555 63.2204 83.8812 65.5216C87.3144 66.5855 90.6872 67.8455 94.0843 69.0234C95.5269 69.524 96.8121 70.3176 97.9395 71.3267C101.317 74.3476 104.726 77.3426 107.408 81.0396C107.811 81.593 108.117 82.2159 108.428 82.7398C108.065 83.4978 107.555 83.6934 106.895 83.5767C104.641 81.1851 102.428 78.7533 100.117 76.4179C98.9494 75.2381 97.6346 74.1969 96.336 73.1559C94.2859 71.5125 91.7716 70.8251 89.3603 69.9676C86.1861 68.8389 82.9891 67.7601 79.7565 66.8149C75.3487 65.526 70.9165 64.3096 66.4597 63.2033C63.5619 62.4844 60.6007 62.0218 57.6694 61.4359C53.7158 60.6458 49.7495 60.0302 45.6922 60.2031C44.5965 60.2498 43.5902 60.4751 42.5661 60.8525C41.1663 61.3676 39.7314 61.8494 38.2698 62.1149C37.2451 62.3015 36.1193 62.4255 35.1082 61.8521Z" fill="#0A0302"/>
<path d="M35.1092 61.8541C36.1203 62.4275 37.2461 62.3035 38.2708 62.1169C39.7324 61.8514 41.1673 61.3696 42.5671 60.8545C43.5912 60.4771 44.5975 60.2518 45.6932 60.2051C49.7505 60.0322 53.7168 60.6478 57.6704 61.4379C60.6017 62.0238 63.5629 62.4864 66.4607 63.2053C70.9175 64.3116 75.3497 65.528 79.7575 66.8169C82.9901 67.7621 86.1871 68.8409 89.3613 69.9696C91.7726 70.8271 94.2869 71.5145 96.337 73.1579C97.6356 74.1989 98.9504 75.2401 100.118 76.4199C102.429 78.7553 104.642 81.1871 106.896 83.5787C106.264 84.3898 105.635 83.8056 105.079 83.5092C104.519 83.2107 103.987 82.8105 103.542 82.3565C101.422 80.1939 98.8822 78.5549 96.3631 76.971C92.7928 74.7257 89.0417 72.7684 85.0581 71.2738C77.6732 68.5025 70.1055 66.3429 62.4411 64.5579C59.6647 63.9115 56.8369 63.3589 53.9554 63.0707C51.4716 62.8218 49.0061 62.8097 46.5463 62.887C44.4894 62.9519 42.4633 63.5 40.4809 64.1551C38.8744 64.6857 37.2139 64.7775 35.6561 63.9058C34.7716 63.4109 34.651 62.8665 35.1092 61.8541Z" fill="#802D1D"/>
</g>
<defs>
<clipPath id="clip0_1054_4921">
<rect x="20" width="110" height="110" rx="55" fill="white"/>
</clipPath>
</defs>
</svg>
