<svg width="150" height="110" viewBox="0 0 150 110" fill="none" xmlns="http://www.w3.org/2000/svg">
<g clip-path="url(#clip0_1054_2819)">
<path d="M79.7695 71.3149V55.5381L108.735 53.8125L114.898 65.5219L103.928 75.3824L79.7695 71.3149Z" fill="white"/>
<path d="M38.1319 92.0798C38.7186 94.0364 38.9536 96.2077 41.9608 96.5C40.9523 95.3555 40.1874 94.487 39.474 93.677C39.5906 93.0072 39.685 92.4656 39.823 91.6763C39.0973 91.4312 38.3434 90.8867 37.7498 91.0257C35.0111 91.6676 32.3998 91.1322 29.7266 90.6333C27.9785 90.3069 26.3062 90.8931 24.9176 92.0798H38.1319ZM33.5544 109.95C32.3556 109.955 31.1566 109.961 29.9578 109.967C28.0557 109.316 26.1534 108.665 24.251 108.014C21.3362 106.655 18.4306 105.276 15.504 103.942C12.6989 102.663 10.4899 100.701 9.1257 97.9678C6.17543 92.0559 6.7784 86.4196 10.6758 81.0772C13.9783 76.5509 16.7085 71.8211 17.1216 65.9782C17.3703 62.4565 19.8086 60.671 23.4787 60.5547C24.0028 60.7521 24.5399 60.9222 25.0495 61.152C26.8761 61.9778 27.1345 62.8707 26.0853 64.6429C25.2006 65.2693 24.3156 65.8956 23.4309 66.522C23.5699 66.722 23.7094 66.9219 23.8487 67.1213C24.7845 66.4823 25.72 65.8429 26.6553 65.2039C28.1119 64.6328 29.5254 63.806 31.0348 63.5557C32.9926 63.2311 33.6757 64.2632 33.1193 66.1698C32.951 66.7469 32.7996 67.3289 32.6295 67.9496C34.0031 68.2079 35.1541 68.4246 36.3605 68.6522V70.7248C35.5561 71.9177 34.7517 73.1099 33.9471 74.3025C34.1914 74.322 34.435 74.3417 34.679 74.3609C35.037 75.1379 35.8394 76.0375 35.6653 76.6678C35.2191 78.2859 32.9971 78.9239 31.4105 78.1427C30.7964 77.8402 30.1858 77.5306 29.5737 77.2244C28.9488 77.128 28.1866 76.7541 27.7227 76.9828C25.629 78.0177 23.5455 79.1095 21.5956 80.3896C16.72 83.5896 15.6228 86.8044 17.7677 91.1073C17.4966 91.7199 17.2237 92.3372 16.9505 92.9549C17.0809 93.0609 17.2113 93.1674 17.3425 93.2742C18.0241 92.8802 18.6904 92.457 19.3898 92.0985C22.9166 90.2933 26.3493 88.251 30.0076 86.7684C35.8369 84.4063 40.1925 86.2579 43.4976 90.7476C44.7538 92.4538 45.5801 94.4769 46.6024 96.3558L46.509 96.3893C40.7097 99.4967 36.5952 104.211 33.5544 109.95Z" fill="#539837"/>
<path d="M33.5508 109.951C36.5915 104.212 40.7063 99.4982 46.5055 96.3906L46.5546 96.4838L46.6394 96.4205C46.6739 96.5484 46.7526 96.6371 46.8751 96.6869C47.074 97.1413 47.2729 97.5953 47.4714 98.0497L47.5012 98.1202C47.7946 98.7241 48.0884 99.3281 48.3818 99.932C48.4915 100.346 48.6017 100.761 48.7118 101.175C49.0072 102.196 49.303 103.217 49.599 104.238C49.8044 104.203 50.0105 104.168 50.2161 104.133C50.2888 103.336 50.3613 102.539 50.4404 101.668C50.8856 101.696 51.191 101.735 51.4962 101.73C56.5966 101.67 61.6967 101.604 66.797 101.54C67.1777 101.521 67.5578 101.504 67.9382 101.486C70.0885 101.367 72.2386 101.248 74.3884 101.129L78.1941 100.982C79.5871 100.908 80.9809 100.835 82.3742 100.761C82.7654 100.737 83.1567 100.713 83.5481 100.69C85.184 100.587 86.8196 100.484 88.4555 100.381C88.7113 100.361 88.9667 100.341 89.2224 100.321C90.364 100.222 91.5048 100.124 92.6464 100.025C93.5304 99.9673 94.4142 99.9094 95.2982 99.8509C95.9312 99.7738 96.5645 99.6966 97.1976 99.619C97.7051 99.549 98.212 99.4785 98.719 99.4084C99.2246 99.3505 99.7302 99.2926 100.235 99.2349C100.616 99.1641 100.998 99.0936 101.378 99.0231C101.763 98.9729 102.148 98.9221 102.532 98.8718C102.783 98.8481 103.034 98.8237 103.284 98.7993C103.788 98.6896 104.292 98.5802 104.796 98.47C105.178 98.4064 105.559 98.343 105.94 98.2792C106.825 97.9594 107.71 97.6395 108.595 97.3197C108.99 97.3197 109.385 97.3192 109.781 97.3192C110.031 97.4371 110.281 97.5544 110.531 97.6715C110.825 97.7511 111.119 97.8305 111.413 97.9101C112.007 98.205 112.599 98.4998 113.192 98.7949C113.491 98.873 113.789 98.9517 114.086 99.0298C114.655 99.2941 115.224 99.5586 115.793 99.8236C116.011 99.9219 116.229 100.021 116.448 100.119C116.752 100.351 117.055 100.582 117.359 100.814C118.553 102.48 119.893 104.066 120.891 105.843C121.581 107.073 121.8 108.569 122.23 109.945C121.726 109.975 121.222 110.032 120.719 110.032C92.1672 110.036 63.6153 110.036 35.0639 110.032C34.5595 110.032 34.0554 109.979 33.5508 109.951Z" fill="#0643F2"/>
<path d="M105.644 67.9539C105.936 67.7247 106.228 67.4952 106.52 67.2657C106.196 66.6689 105.871 66.072 105.546 65.4752C105.157 65.8492 104.379 66.3698 104.453 66.5678C104.656 67.1035 105.222 67.5013 105.644 67.9539ZM103.87 65.5157C104.433 64.786 105.053 64.3282 105.049 63.8763C105.046 63.515 104.245 62.8444 103.867 62.8893C103.458 62.9374 102.929 63.616 102.832 64.0962C102.768 64.4155 103.37 64.8686 103.87 65.5157ZM102.886 60.7377C103.132 60.9022 103.378 61.0661 103.624 61.2305C104.39 60.8102 105.276 60.5058 105.858 59.907C106.061 59.6987 105.675 58.4395 105.27 58.2391C104.734 57.9726 103.557 58.0214 103.3 58.3872C102.885 58.9762 102.997 59.9353 102.886 60.7377ZM110.957 62.205C111.025 60.5105 110.351 59.6928 109.059 59.4901C107.914 59.3104 106.698 60.4774 106.745 61.7006C106.793 62.9867 107.469 63.8921 108.813 63.9439C110.157 63.9957 110.85 63.1755 110.957 62.205ZM105.945 98.2798C105.564 98.3431 105.183 98.4067 104.802 98.4706C104.298 98.5802 103.793 98.6899 103.289 98.7994C103.038 98.8238 102.788 98.8482 102.537 98.8726C102.152 98.9229 101.768 98.9732 101.383 99.0232C101.002 99.094 100.621 99.1645 100.241 99.235C99.7349 99.2929 99.2293 99.3506 98.7245 99.4085C98.2169 99.479 97.7098 99.549 97.2028 99.6198C96.5695 99.697 95.9364 99.7739 95.3031 99.8518C94.4189 99.9095 93.5354 99.9679 92.6511 100.026C91.4676 99.6319 90.2779 99.1674 89.2278 100.321C88.9719 100.341 88.716 100.361 88.4604 100.382C87.5771 100.172 86.6936 99.9632 85.8104 99.7541C89.6434 99.3568 93.4809 99.0006 97.3073 98.5492C100.066 98.2235 102.821 97.8316 105.555 97.3428C106.57 97.1616 107.904 96.9313 107.434 95.3995C104.319 95.8112 101.34 96.2044 98.3604 96.5983C98.3594 96.3481 98.3579 96.0979 98.3569 95.8476C101.964 95.2821 105.633 94.9656 108.934 93.188C109.24 93.2109 109.547 93.2339 109.854 93.2565C109.686 93.9737 109.518 94.691 109.297 95.6359C115.065 98.2894 121.638 99.9795 122.82 107.684C128.88 106.115 134.418 103.91 139.309 100.336C141.397 98.8097 142.741 96.6136 143.221 94.0195C144.199 88.7431 143.135 83.801 140.252 79.3539C137.753 75.4992 135.398 71.6571 134.956 66.9469C134.856 65.8842 134.672 64.8087 134.358 63.7911C133.426 60.7656 130.063 59.2135 127.173 60.4057C125.235 61.2056 124.969 62.1964 126.228 63.8399C126.473 64.1601 126.653 64.5311 126.863 64.8782C126.798 64.9721 126.733 65.066 126.669 65.1604C124.777 64.2774 122.885 63.3942 120.672 62.3613C120.376 64.2865 120.172 65.6118 119.968 66.9373C119.79 66.8121 119.611 66.6866 119.433 66.5614C118.512 67.4185 116.926 68.2093 116.832 69.1493C116.706 70.4003 117.742 71.7677 118.036 72.4883C117.451 73.9994 117.054 75.0252 116.656 76.0509C116.503 76.2062 116.35 76.3615 116.197 76.5168C116.106 76.5015 116.014 76.4858 115.923 76.4695C115.036 74.8844 116.102 73.8912 117.196 72.7797C116.566 71.8676 115.957 70.987 115.393 70.172C113.312 72.3737 113.33 74.4821 115.354 76.538C115.948 78.3597 114.991 79.5997 113.682 80.5868C112.924 81.1582 111.92 81.3958 111.132 81.9369C110.74 82.2058 110.585 82.8194 110.322 83.2772C110.061 83.328 109.8 83.3793 109.539 83.4305L109.392 83.4027C109.267 83.3585 109.141 83.3149 109.016 83.2708C108.256 83.3068 107.495 83.3423 106.735 83.3783C106.733 83.0371 106.731 82.6967 106.73 82.3555C108.229 81.8765 109.743 81.4389 111.224 80.908C113.204 80.199 114.014 78.9556 113.537 77.0498C108.505 80.1625 102.967 81.0756 97.2247 81.0751C96.8465 80.8269 96.4679 80.5781 96.0892 80.3299C100.485 79.5615 104.903 78.9028 109.26 77.9572C110.562 77.6749 111.69 76.5898 112.366 76.1885C112.541 73.8471 112.665 72.1991 112.793 70.4938C111.566 70.7146 110.229 70.9557 108.89 71.1968C110.808 69.2595 114.108 69.7249 115.403 66.4882C113.612 67.1126 112.149 67.6662 110.66 68.1326C104.578 70.0365 98.4294 71.31 92.0543 69.7315C89.782 69.1685 87.6035 69.0336 85.5885 70.4876C85.4086 70.3283 85.2279 70.1693 85.0472 70.0101C86.0983 69.1924 87.1275 68.3427 88.2188 67.5819C88.4496 67.421 88.9086 67.5856 89.2623 67.6002C90.5479 68.0819 91.7984 68.7913 93.1267 68.9949C95.4959 69.3573 97.9127 69.4143 100.814 69.6376C97.9743 63.9109 98.4208 59.4292 103.647 56.0227C102.765 56.0424 102.067 56.0956 101.486 56.3841C99.5163 57.3615 97.5565 58.3685 95.6512 59.4652C93.4927 60.7084 91.3974 62.0603 89.2749 63.3648C88.1989 61.905 86.9961 60.5432 85.0817 60.3241C82.6607 60.047 80.2209 59.9348 77.7891 59.7509C76.4032 59.8155 75.0166 59.8794 73.6304 59.9435C73.4436 59.9161 73.2569 59.888 73.0701 59.8606C72.76 59.715 72.4494 59.5688 72.1392 59.4231C76.9847 58.1844 81.7922 58.5401 86.5788 59.7699C86.9357 59.9129 87.2924 60.0556 87.6499 60.1986C88.0381 60.4621 88.4264 60.7257 88.8146 60.9894L88.8095 60.9764C89.0937 61.3459 89.3784 61.7147 89.7546 62.203C91.001 61.3427 92.0861 60.594 93.1718 59.8449C94.5357 58.9811 95.8999 58.1168 97.2641 57.2525C98.2931 56.7181 99.3213 56.1841 100.35 55.6497C100.834 55.484 101.319 55.3186 101.804 55.1532C102.55 55.0238 103.296 54.8949 104.042 54.7655C105.189 54.6659 106.335 54.5665 107.481 54.4664C107.736 54.4701 107.99 54.4736 108.244 54.4765C110.395 54.8685 112.546 55.2602 114.697 55.6522C114.699 55.8841 114.702 56.1156 114.704 56.3468C112.87 56.1947 111.035 56.0424 109.201 55.8901C113.289 57.8676 114.501 61.357 114.75 65.5467C116.986 64.5555 119.177 63.7186 119.432 61.1398C119.587 59.5592 118.983 58.03 117.287 57.2976C117.484 57.0164 117.681 56.7353 117.878 56.4541C115.039 54.2123 111.618 54.0422 108.232 53.7503C108.107 53.7286 107.985 53.6986 107.864 53.6616C107.605 53.563 107.347 53.4646 107.089 53.3663C105.076 53.3823 103.063 53.3981 101.05 53.4143C100.783 53.4971 100.516 53.5792 100.249 53.6621C100.005 53.7 99.7613 53.7382 99.5173 53.7767C99.3689 53.8082 99.2202 53.8398 99.0721 53.8711C98.8975 53.8366 98.7235 53.8021 98.5487 53.7671C98.3626 53.864 98.1767 53.9606 97.9904 54.0575C97.8814 54.1341 97.7722 54.2103 97.6632 54.2867C97.4663 53.9421 97.2688 53.5982 97.0714 53.2536C97.5641 53.0485 98.0569 52.8434 98.5502 52.6383C99.1295 52.5804 99.7081 52.5222 100.287 52.4643C100.456 52.3901 100.624 52.3161 100.792 52.2419C101.128 52.2044 101.463 52.1667 101.799 52.1297C102.165 52.1236 102.53 52.1177 102.896 52.1115C104.055 52.1085 105.213 52.1058 106.372 52.1029C106.994 52.1302 107.616 52.1581 108.239 52.1857C108.464 52.2012 108.689 52.2165 108.913 52.2323C110.406 52.5616 111.899 52.8905 113.817 53.314C112.599 51.7045 111.142 51.4385 109.764 51.035C109.291 50.9026 108.817 50.77 108.344 50.6376C107.935 50.537 107.525 50.4372 107.116 50.3366C106.412 50.3078 105.708 50.2787 105.004 50.2498C103.171 50.062 101.337 49.8746 99.504 49.687C98.97 49.6407 98.4361 49.5946 97.9021 49.5485C98.7797 49.2347 99.6376 48.8242 100.542 48.6379C101.272 48.4878 102.059 48.6073 103.18 48.6073C100.985 45.7226 98.1748 44.9629 95.2923 44.6283C90.3312 44.0517 85.7963 45.2653 81.7222 48.2654C79.2788 50.0647 76.5375 51.1136 73.4132 50.2996C72.2174 49.988 71.047 49.5788 69.8649 49.2145C69.7375 49.1943 69.61 49.1743 69.4823 49.1541C69.2309 49.0141 68.9792 48.8738 68.7275 48.7338L68.7462 48.7481C68.4864 48.65 68.2271 48.5521 67.9673 48.4542C67.8341 48.436 67.7018 48.4175 67.5689 48.3993C67.3202 48.2831 67.0709 48.1668 66.8217 48.0507C66.5907 48.0292 66.3597 48.0085 66.1283 47.9878C65.7245 47.8744 65.3199 47.7618 64.9159 47.6486L61.465 47.3873C61.3447 47.4706 61.2244 47.5537 61.1041 47.637C60.8489 47.6506 60.5931 47.6644 60.3379 47.6777C59.6842 47.7817 59.0304 47.8858 58.3767 47.9898C58.1432 48.0216 57.9098 48.0536 57.6763 48.0852C57.5388 48.1781 57.4012 48.2713 57.2636 48.3643L57.289 48.345C56.7805 48.4821 56.2719 48.6191 55.7634 48.7562L55.7759 48.7486C55.5999 48.8708 55.4232 48.9931 55.2472 49.1154C53.6411 49.9479 51.8993 50.5945 50.4594 51.6522C47.8685 53.5561 45.4988 55.7572 42.9636 57.7406C39.4945 60.4555 37.1967 63.6855 37.513 68.358C37.5754 69.2834 37.0614 70.248 36.8127 71.1946C36.6623 71.0388 36.5122 70.8825 36.3618 70.7267V68.6533C35.1556 68.4265 34.0049 68.2098 32.631 67.951C32.8009 67.3307 32.9523 66.7485 33.1206 66.1709C33.6775 64.2646 32.9939 63.2327 31.0368 63.5571C29.5272 63.8078 28.1132 64.6346 26.6565 65.2051C26.4667 65.0184 26.2769 64.8316 26.0871 64.6447C27.1358 62.872 26.8779 61.9797 25.0508 61.1539C24.5412 60.9236 24.0048 60.754 23.4805 60.5561C23.4815 60.3337 23.4829 60.1113 23.4844 59.889C25.4745 60.1678 27.4338 60.491 27.8144 62.6618C29.6781 62.6618 31.4717 62.4653 33.18 62.7614C33.839 62.8755 34.3039 64.1088 35.0373 65.0675C35.5512 64.4054 36.2777 63.6658 36.7739 62.7959C38.3627 60.011 40.3472 57.6336 42.9747 55.7347C45.5328 53.8859 47.8308 51.67 50.4276 49.884C56.9185 45.4189 63.851 44.6323 71.0795 47.9989C74.7555 49.7114 78.0819 49.087 81.2492 46.8117C85.0908 44.0513 89.3693 42.7672 94.0962 43.0346C98.0774 43.2599 101.649 44.3912 104.442 47.478C105.016 48.1126 106.044 48.4002 106.916 48.6877C108.654 49.2606 110.459 49.6343 112.182 50.2451C118.136 52.3592 120.374 55.2937 120.891 61.5335C121.84 61.7285 122.803 61.9264 123.767 62.1244C123.683 62.0011 123.599 61.8776 123.515 61.7544C124.928 60.8499 126.232 59.5826 127.777 59.1162C131.127 58.1045 133.774 59.711 135.235 63.2196C135.502 63.8586 135.8 64.5276 135.859 65.2021C136.322 70.4957 138.874 74.8972 141.664 79.2336C144.657 83.8848 145.283 89.0074 144.26 94.358C143.35 99.1199 139.964 101.872 135.919 103.798C131.881 105.722 127.664 107.27 123.913 108.822C123.15 109.332 122.693 109.639 122.234 109.946C121.805 108.569 121.586 107.073 120.895 105.843C119.898 104.066 118.558 102.481 117.364 100.814C117.06 100.582 116.756 100.351 116.452 100.12C116.235 100.021 116.016 99.9223 115.798 99.8237C115.229 99.5594 114.66 99.2944 114.092 99.0299C113.793 98.9517 113.496 98.8736 113.198 98.795C112.604 98.5001 112.011 98.2051 111.419 97.9102C111.124 97.8306 110.83 97.7515 110.536 97.6723C110.286 97.5545 110.035 97.4372 109.785 97.3201H108.6C107.715 97.6398 106.83 97.9595 105.945 98.2798Z" fill="#0D110D"/>
<path d="M23.4821 59.8926C23.4806 60.1147 23.4792 60.3371 23.4782 60.5594C19.8081 60.6763 17.3698 62.4613 17.1206 65.9829C16.7079 71.8258 13.9773 76.5562 10.6753 81.0824C6.77739 86.4248 6.17491 92.0611 9.12518 97.9725C10.4891 100.706 12.6979 102.668 15.5035 103.947C18.4296 105.281 21.3357 106.66 24.2505 108.019C23.8622 108.238 23.474 108.456 23.0862 108.675C22.89 109.105 22.694 109.534 22.498 109.963C22.1251 110.001 21.7514 110.038 21.2633 110.087V107.847C19.0234 106.829 16.7994 105.935 14.6838 104.833C10.0972 102.444 7.1129 98.6886 6.22323 93.5939C5.50341 89.4752 6.57229 85.5652 8.74013 81.9955C9.42716 80.8642 10.1921 79.766 11.0332 78.7442C13.8794 75.2883 15.7187 71.4538 15.9933 66.9064C16.1259 64.7151 16.9263 62.7433 18.6337 61.2075C20.0487 59.9347 21.58 59.2795 23.4821 59.8926Z" fill="#161E14"/>
<path d="M23.0859 108.671C23.4742 108.453 23.8625 108.234 24.2502 108.016C26.1523 108.666 28.0547 109.317 29.957 109.968C28.917 109.957 27.8769 109.947 26.8376 109.937C25.5871 109.515 24.3365 109.093 23.0859 108.671Z" fill="#071226"/>
<path d="M23.0879 108.672C24.3385 109.094 25.5891 109.515 26.8396 109.937C25.3931 109.945 23.9465 109.953 22.5 109.96C22.696 109.531 22.892 109.101 23.0879 108.672Z" fill="#0643F2"/>
<path d="M25.2302 87.4254C25.934 84.377 26.6015 81.4891 27.3822 78.1094C25.4348 79.2544 23.8805 79.9969 22.5254 81.0059C20.5449 82.4798 18.7123 84.1416 17.9637 86.6533C17.4657 88.3242 17.7672 89.6383 19.5924 90.5073C21.4657 89.483 23.3929 88.4299 25.2302 87.4254ZM78.1943 100.981L74.3889 101.129C72.3748 101.055 70.3611 100.97 68.3466 100.933C68.2135 100.931 68.0744 101.292 67.9384 101.484C67.5577 101.503 67.1776 101.52 66.797 101.538C66.1393 101.423 65.4814 101.214 64.8222 101.209C60.7887 101.179 56.7543 101.197 52.7203 101.195C51.384 101.194 50.0474 101.181 48.7115 101.173C48.6016 100.759 48.4919 100.345 48.3817 99.9312C48.0884 99.3273 47.7945 98.7233 47.5012 98.1194L47.4713 98.0489C47.2729 97.5945 47.0737 97.1402 46.8748 96.6861C46.7525 96.6363 46.6739 96.5469 46.6393 96.4192L46.5992 96.3561C45.5771 94.4771 44.7508 92.454 43.4941 90.7479C40.1891 86.2581 35.8332 84.4066 30.0046 86.7687C26.3456 88.2512 22.9132 90.2936 19.3868 92.0988C18.687 92.4572 18.0204 92.8805 17.3388 93.2744C17.2084 93.1677 17.0775 93.0612 16.9471 92.9552C17.22 92.3374 17.4936 91.7201 17.7643 91.1075C15.6193 86.8047 16.7171 83.5899 21.5921 80.3899C23.542 79.1097 25.6261 78.0179 27.7197 76.9831C28.1829 76.7543 28.9454 77.1283 29.57 77.2247C29.5666 77.4739 29.5631 77.7231 29.5589 77.9723C29.2823 78.3261 28.8519 78.6414 28.7531 79.0392C28.1866 81.3197 27.6987 83.6192 27.1848 85.9123C27.1335 85.9986 27.0822 86.0856 27.0309 86.1719C27.1572 86.1595 27.2836 86.1474 27.4101 86.1356C28.5633 85.8191 29.7147 85.4957 30.8699 85.1875C36.0972 83.7945 40.5071 85.0441 43.8185 89.4012C45.0705 91.0486 46.1293 92.8612 47.123 94.6817C48.0558 96.3901 48.7867 98.2091 49.6436 100.059C54.2714 100.803 58.8489 100.927 63.47 100.681C70.5351 100.306 77.6081 100.088 84.6783 99.8028C84.3017 100.098 83.925 100.394 83.5486 100.689C83.1566 100.712 82.7654 100.736 82.3739 100.76C80.9809 100.834 79.5876 100.907 78.1943 100.981Z" fill="#0D110D"/>
<path d="M38.1284 92.0789H24.9141C26.3027 90.8922 27.975 90.306 29.723 90.6324C32.3962 91.1313 35.0076 91.6668 37.7463 91.0248C38.3399 90.8858 39.0938 91.4304 39.8195 91.6754C39.6814 92.4647 39.587 93.0063 39.4704 93.6761C40.1838 94.4861 40.9488 95.3546 41.9573 96.4992C38.95 96.2068 38.7151 94.0355 38.1284 92.0789Z" fill="#44762D"/>
<path d="M29.5625 77.9777C29.5662 77.7285 29.5696 77.4793 29.5736 77.23C30.1857 77.5362 30.7963 77.8456 31.4106 78.1483C32.9972 78.9293 35.2185 78.2913 35.6652 76.6732C35.8392 76.0428 35.0363 75.1436 34.6791 74.3665C34.4351 74.3466 34.1908 74.3273 33.9472 74.3081C34.7511 73.1155 35.5557 71.9231 36.3601 70.7305C36.5102 70.8863 36.6611 71.0426 36.8112 71.1984C36.3936 72.0175 35.9758 72.8362 35.5713 73.629C37.6676 75.8989 37.2488 77.796 34.5066 79.1176C32.5135 80.0778 31.0044 79.2475 29.5625 77.9777Z" fill="#0A1507"/>
<path d="M26.0846 64.6445C26.2745 64.8314 26.4643 65.0182 26.6546 65.2049C25.7186 65.8446 24.7833 66.4835 23.8478 67.123C23.7087 66.9231 23.5692 66.7229 23.4297 66.523C24.3147 65.8968 25.1994 65.2709 26.0846 64.6445Z" fill="#161E14"/>
<path fill-rule="evenodd" clip-rule="evenodd" d="M46.5566 96.4861L46.5117 96.4153L46.6007 96.3594L46.6453 96.4301L46.5566 96.4861Z" fill="#071226"/>
<path d="M48.7148 101.176C50.0512 101.183 51.387 101.196 52.7234 101.196C56.7573 101.199 60.7918 101.181 64.8257 101.212C65.4847 101.217 66.1424 101.426 66.8005 101.541C61.7002 101.606 56.6001 101.671 51.4997 101.732C51.194 101.736 50.8886 101.697 50.4439 101.67C50.3643 102.54 50.2918 103.337 50.2191 104.134C50.0135 104.169 49.8079 104.205 49.602 104.24C49.306 103.219 49.0107 102.197 48.7148 101.176Z" fill="#071226"/>
<path d="M67.9414 101.489C68.0775 101.296 68.217 100.935 68.3496 100.938C70.3639 100.974 72.3779 101.059 74.3919 101.133C72.2418 101.251 70.0915 101.37 67.9414 101.489Z" fill="#071226"/>
<path d="M83.5547 100.69C83.9311 100.395 84.3078 100.099 84.6845 99.8037C85.0604 99.7869 85.4361 99.7702 85.8118 99.7539C86.6953 99.9629 87.5785 100.172 88.4615 100.381C86.8257 100.484 85.1903 100.587 83.5547 100.69Z" fill="#071226"/>
<path d="M89.2266 100.323C90.2767 99.1698 91.4664 99.6342 92.6504 100.028C91.509 100.127 90.3682 100.225 89.2266 100.323Z" fill="#071226"/>
<path d="M85.8084 99.7535C85.4329 99.7703 85.0568 99.7871 84.6813 99.8038C77.6111 100.089 70.5381 100.307 63.473 100.682C58.8519 100.928 54.2741 100.804 49.6463 100.06C48.7897 98.2101 48.0588 96.3916 47.126 94.6828C46.1323 92.8623 45.0735 91.0497 43.8212 89.4022C40.5101 85.0448 36.1002 83.7953 30.8729 85.1886C29.7177 85.4967 28.566 85.8199 27.4131 86.1366C27.3394 86.0605 27.2642 85.986 27.1875 85.9133C27.7017 83.6202 28.1896 81.3205 28.7558 79.0403C28.8549 78.6429 29.2853 78.3271 29.5624 77.9734C31.0038 79.2431 32.5132 80.0736 34.5065 79.1132C37.2487 77.7917 37.6668 75.8945 35.5712 73.6246C35.9752 72.8323 36.393 72.0132 36.8106 71.1945C37.0589 70.2474 37.5736 69.2833 37.5105 68.3574C37.195 63.6854 39.492 60.4554 42.9616 57.7405C45.4968 55.7566 47.8665 53.556 50.4574 51.6521C51.8975 50.5943 53.6394 49.9473 55.2452 49.1153C55.4212 48.993 55.5979 48.8707 55.7739 48.7485L55.7609 48.7556C56.2699 48.6185 56.7785 48.4815 57.287 48.3444L57.2616 48.3637C57.3992 48.2707 57.5367 48.178 57.6743 48.0851C57.9077 48.053 58.1412 48.021 58.3746 47.9897C59.0284 47.8857 59.6821 47.7816 60.3359 47.6776C60.591 47.6638 60.8469 47.65 61.1023 47.6364C61.2226 47.5531 61.3429 47.4698 61.4625 47.3867L64.9139 47.6485C65.3179 47.7612 65.7225 47.8743 66.1265 47.987C66.3572 48.0079 66.5887 48.0291 66.8197 48.0501C67.0689 48.1662 67.3177 48.2825 67.5669 48.3987C67.6998 48.4169 67.8324 48.4354 67.9652 48.4536C68.2246 48.5515 68.4844 48.6494 68.7442 48.7475L68.7255 48.7337C68.9772 48.8737 69.2286 49.0135 69.4803 49.1535C69.6078 49.1737 69.735 49.1942 69.8629 49.2139C70.0872 49.6583 70.3116 50.103 70.5359 50.5478C70.3715 50.4817 70.207 50.4161 70.0431 50.3508C69.7976 50.3503 69.5513 50.3498 69.3058 50.3493C69.1128 50.3436 68.9205 50.3385 68.7275 50.3335C67.451 50.3298 66.1746 50.3259 64.8981 50.3222C64.6915 50.3289 64.485 50.335 64.2784 50.3417C63.3365 50.4787 62.394 50.6151 61.4519 50.7521C61.2768 50.7425 61.1023 50.7334 60.927 50.7238C60.7357 50.8283 60.544 50.9328 60.3527 51.0381C60.1273 51.0558 59.9023 51.0736 59.677 51.0913C59.3964 51.1973 59.1157 51.3038 58.8351 51.4106C58.6377 51.4342 58.4397 51.4581 58.2423 51.482C58.0584 51.5871 57.8747 51.6926 57.6911 51.7978C53.1952 53.8599 51.4092 55.4911 51.5361 57.5953C56.9286 51.714 63.6111 50.6934 70.9653 52.1383C71.5069 52.2738 72.0485 52.4094 72.5901 52.5443L73.2813 52.6219C73.4169 52.7264 73.5522 52.8317 73.6873 52.9362L73.6935 52.9071C73.1682 53.1763 72.6677 53.5296 72.1109 53.693C71.3804 53.9075 70.6064 53.9721 69.8508 54.1015C67.3825 55.179 64.7643 56.0125 62.4877 57.4035C60.2065 58.7973 58.2654 60.7477 56.1755 62.4541C55.7912 62.5825 55.4071 62.711 55.0228 62.8389C54.5833 62.849 54.1442 62.8591 53.7047 62.8692C53.525 63.0393 53.3455 63.2094 53.1658 63.3795C53.752 63.8168 54.3377 64.2544 54.9239 64.692C55.2116 64.4671 55.4988 64.2423 55.7867 64.0175C56.0227 63.9366 56.2588 63.8565 56.4947 63.7764C56.5159 64.3528 56.5369 64.9293 56.5581 65.5059L56.5623 65.5005C55.9238 65.7384 55.2853 65.977 54.6469 66.2157C54.4479 66.2445 54.2483 66.2733 54.0488 66.3024C53.4841 66.42 52.9191 66.5383 52.3543 66.6562C52.165 66.6606 51.9752 66.6653 51.7853 66.6697C51.6071 66.813 51.4284 66.9554 51.2497 67.0982C51.1254 67.3245 51.0012 67.5505 50.8767 67.7763C50.858 68.0246 50.8392 68.2726 50.8205 68.5208C50.8656 68.6295 50.8797 68.7417 50.8641 68.8583C50.9985 69.1218 51.1331 69.3856 51.2682 69.6496L51.2442 69.6304C51.4087 69.7556 51.5731 69.8811 51.7375 70.007C51.9574 70.0618 52.1775 70.117 52.3974 70.1724C52.5527 70.2444 52.7075 70.3171 52.8629 70.3891L52.991 70.3632L53.1165 70.4027C53.9078 70.5272 54.6986 70.6509 55.4897 70.7754C55.7177 70.7976 55.9455 70.82 56.1735 70.843C56.2916 70.8602 56.4104 70.8767 56.5292 70.894C57.0511 71.0296 57.5727 71.1656 58.0946 71.3012C58.2396 71.3808 58.3843 71.46 58.529 71.5396L58.6853 71.5381L58.8324 71.5909C58.9737 71.6934 59.1142 71.796 59.2552 71.8985L59.2461 71.8761C60.0053 72.1391 60.7646 72.4026 61.5241 72.6654L61.5103 72.6492C61.8184 72.7751 62.1263 72.9004 62.434 73.0263C63.1319 73.1908 63.8297 73.3547 64.5276 73.5191C64.5328 73.8953 64.5377 74.2717 64.5429 74.6479C64.412 74.7601 64.2809 74.8722 64.15 74.9849C64.0267 75.118 63.903 75.2509 63.7794 75.3832L63.7886 75.3741C63.6623 75.5077 63.5354 75.6411 63.4084 75.7742L63.4203 75.7614C63.2978 75.932 63.175 76.1026 63.0527 76.2732C63.071 76.3614 63.0508 76.44 62.9913 76.5081C62.8841 76.6792 62.7771 76.8507 62.6706 77.0223C62.7024 77.1069 62.6913 77.1857 62.6366 77.2587C62.6736 78.1388 62.7106 79.0188 62.7478 79.8989C62.978 80.3695 63.2085 80.8401 63.439 81.3109C63.2928 82.6596 63.9185 83.3212 65.2556 83.3513C65.6478 83.728 66.0402 84.1039 66.4319 84.4801C66.566 84.6028 66.6999 84.7251 66.834 84.8476L66.8212 84.8348C66.9521 84.9652 67.0832 85.0961 67.2141 85.2268L67.2023 85.2144C67.3359 85.3424 67.4693 85.4703 67.6034 85.5983L67.5908 85.5835C67.7237 85.7129 67.856 85.8418 67.9892 85.9707L67.9758 85.951C68.215 86.0945 68.4541 86.2387 68.693 86.3824L68.7102 86.394C68.8448 86.5118 68.9789 86.6289 69.1128 86.7463L69.1012 86.7357C69.2646 86.8575 69.4285 86.9797 69.592 87.102C71.6353 88.3395 73.6649 89.6011 75.725 90.8105C82.7104 94.9125 90.078 97.5433 98.3586 96.5977C101.338 96.2043 104.317 95.8106 107.432 95.3994C107.902 96.9307 106.567 97.1615 105.553 97.3426C102.819 97.8315 100.064 98.2229 97.3048 98.5486C93.4789 99.0005 89.6414 99.3567 85.8084 99.7535Z" fill="#539836"/>
<path d="M116.652 76.0519C117.05 75.0262 117.447 73.9999 118.032 72.4893C117.738 71.7688 116.702 70.4013 116.828 69.1498C116.922 68.2103 118.508 67.419 119.429 66.5624C119.607 66.6871 119.786 66.8126 119.964 66.9378C120.168 65.6128 120.372 64.2876 120.668 62.3623C122.881 63.3952 124.773 64.278 126.665 65.161C126.729 65.067 126.794 64.9731 126.859 64.8792C126.649 64.5316 126.469 64.1606 126.224 63.8409C124.965 62.1974 125.231 61.2066 127.169 60.4067C130.059 59.2141 133.422 60.7661 134.354 63.7916C134.668 64.8097 134.852 65.8852 134.952 66.9475C135.394 71.6576 137.749 75.4997 140.248 79.3545C143.131 83.8021 144.195 88.7434 143.217 94.0205C142.737 96.6146 141.393 98.8103 139.305 100.336C134.414 103.911 128.876 106.116 122.816 107.685C121.634 99.9805 115.061 98.2899 109.293 95.6364C109.514 94.692 109.682 93.9747 109.85 93.2576C110.61 92.7532 111.37 92.2481 112.13 91.7437C113.259 92.0371 112.738 92.6043 112.329 93.0998C111.872 93.6535 111.364 94.1652 110.608 94.9913C113.799 95.0118 113.199 91.6269 114.608 91.1442C119.148 90.9142 123.096 90.7143 127.538 90.4895C126.65 90.1485 126.198 89.8271 125.748 89.8286C123.704 89.8352 121.658 89.9124 119.615 90.0038C117.514 90.0983 115.354 90.767 113.436 89.2927C113.353 88.4365 113.27 87.5804 113.186 86.724C113.105 86.6084 113.024 86.492 112.943 86.3759C113.02 86.1215 113.097 85.8673 113.174 85.6129C116.467 84.6259 119.805 84.3513 122.982 85.82C126.11 87.2666 129.096 89.0203 132.156 90.6184C132.802 90.9559 133.495 91.2041 133.945 91.3986C134.274 90.3125 134.352 89.5207 134.73 88.9155C135.506 87.6711 135.592 86.5078 134.97 85.1729C133.041 81.0364 129.785 78.2723 125.852 76.1848C124.508 75.4724 123.288 75.5661 121.961 76.4478C119.516 78.0719 118.875 77.9525 116.652 76.0519Z" fill="#539836"/>
<path d="M64.5426 74.6479C64.5375 74.2719 64.5325 73.8953 64.5273 73.5191C65.541 73.6263 66.5549 73.7333 67.5686 73.841C68.3081 73.9547 69.0449 74.1502 69.7865 74.1684C75.368 74.306 80.5877 72.8619 85.5865 70.4872C87.6012 69.0335 89.7797 69.1686 92.052 69.7309C98.4274 71.3093 104.576 70.0363 110.658 68.132C112.147 67.6661 113.609 67.112 115.401 66.4883C114.105 69.7243 110.805 69.2588 108.888 71.1962C110.226 70.9551 111.564 70.7145 112.79 70.4936C112.662 72.199 112.539 73.8465 112.364 76.1878C111.687 76.5899 110.56 77.6746 109.258 77.9571C104.901 78.9027 100.482 79.5611 96.087 80.3295C95.7724 80.3123 95.4576 80.2792 95.1431 80.2802C86.7315 80.3091 78.6479 78.687 70.7742 75.7397C68.8329 75.013 66.6271 74.9925 64.5426 74.6479Z" fill="#539537"/>
<path d="M106.734 83.3772C107.494 83.3412 108.255 83.3057 109.015 83.2694C109.14 83.3136 109.266 83.3574 109.391 83.4016L109.538 83.4294C110.137 84.2252 110.67 85.085 111.353 85.8021C112.317 86.8153 112.867 88.017 112.142 89.2028C111.26 90.6456 110.018 91.8688 108.933 93.1869C105.632 94.9648 101.963 95.281 98.3559 95.8465C96.21 95.7916 94.0399 95.9237 91.9214 95.6506C81.8801 94.3574 73.6471 89.3403 66.1955 82.8371C65.2686 82.0285 64.6042 80.8928 63.9155 79.8446C63.1481 78.6762 63.4989 77.5693 64.3008 76.5278C65.1335 75.4458 66.1583 75.0707 67.4672 75.5255C68.72 75.9608 69.9878 76.3557 71.2288 76.8211C79.6125 79.9644 88.2557 81.5037 97.2241 81.074C102.967 81.0745 108.504 80.1614 113.537 77.0484C114.013 78.9545 113.203 80.1984 111.223 80.9074C109.742 81.4378 108.228 81.8754 106.729 82.3544C102.033 82.6741 97.3405 83.092 92.6385 83.2717C90.2749 83.3624 87.8788 83.1432 85.5258 82.8422C82.8327 82.4976 80.1706 81.9072 77.4949 81.4235C77.3761 81.3814 77.2573 81.3392 77.1385 81.2971C74.9728 80.6354 72.8072 79.974 70.6416 79.3122C70.3897 79.2436 70.1375 79.1751 69.8853 79.1061C69.129 79.1544 68.3727 79.2025 67.6166 79.2508C67.5343 79.5044 67.4527 79.7584 67.3709 80.0115C67.8861 80.3589 68.4018 80.7059 68.9175 81.053C69.2209 81.2505 69.5244 81.4475 69.8274 81.6449L69.8229 81.8236C69.8229 82.0189 69.8229 82.2144 69.8224 82.4098C69.8989 82.5758 69.9289 82.8092 70.0584 82.8984C73.9508 85.5768 77.7883 88.3577 82.4013 89.7367C82.7306 89.8225 83.0602 89.9083 83.3896 89.9941C83.7514 90.1321 84.1133 90.2702 84.4747 90.4082C85.1472 90.7223 85.7891 91.1593 86.4956 91.3309C91.3665 92.5144 96.2893 92.3434 101.168 91.5131C103.634 91.0933 106.093 90.3833 108.421 89.4646C110.595 88.6065 110.626 87.2223 108.875 85.6579C108.1 84.9657 107.444 84.1416 106.734 83.3772Z" fill="#A7512B"/>
<path d="M76.2387 68.0574C75.2815 67.4909 74.7475 66.9249 74.2735 66.9712C73.8746 67.0102 73.2012 67.8254 73.268 68.1816C73.3624 68.6897 73.9853 69.3908 74.4527 69.4494C74.8607 69.5007 75.3658 68.777 76.2387 68.0574ZM75.3069 73.2354C75.9367 72.4005 76.5976 71.8958 76.5286 71.5273C76.431 71.0057 75.7957 70.5849 75.3895 70.1205C74.9738 70.5149 74.2471 70.8915 74.2232 71.3086C74.1939 71.8066 74.7668 72.3396 75.3069 73.2354ZM73.0594 66.5544C73.9232 65.5405 74.6977 65.0191 74.8674 64.3456C75.1622 63.1752 74.1522 62.4896 73.2128 62.5966C72.5738 62.6698 71.655 63.5361 71.5577 64.1573C71.4682 64.7243 72.3145 65.4389 73.0594 66.5544ZM77.6483 68.4111C78.9301 68.6374 80.0422 68.7735 80.5258 67.3068C80.8971 66.1804 80.8522 65.0699 79.6657 64.5944C79.0586 64.3513 78.0015 64.4563 77.5075 64.8522C76.164 65.9302 76.8025 67.1726 77.6483 68.4111ZM85.5882 70.488C80.5894 72.8627 75.3697 74.3067 69.7884 74.1697C69.0469 74.1514 68.3099 73.9555 67.5703 73.8418V73.1496H69.8087C67.4298 66.456 68.4896 63.0818 73.6787 60.5375C75.0552 60.4147 76.4315 60.2915 77.8085 60.168C82.5608 61.5842 84.3108 63.9539 84.3808 68.9599C84.3857 69.3131 84.8147 69.6607 85.0466 70.0108C85.2268 70.1698 85.4075 70.329 85.5882 70.488Z" fill="#090908"/>
<path d="M93.3124 55.7191C93.3905 55.8211 93.4686 55.9232 93.5468 56.0252C93.7716 55.8638 93.9959 55.7018 94.2203 55.5399C94.1295 55.4213 94.0391 55.302 93.9489 55.1827C93.7366 55.3619 93.5246 55.5404 93.3124 55.7191ZM94.3664 54.7924C94.4732 54.9963 94.5802 55.2009 94.6867 55.405C95.2901 55.0878 95.8936 54.7705 96.4971 54.4532C96.393 54.2543 96.289 54.0554 96.185 53.8564C95.5785 54.1685 94.9726 54.4801 94.3664 54.7924ZM92.4562 57.1967C92.6901 56.8853 92.9241 56.5742 93.318 56.0511C92.7621 56.009 92.4409 55.9846 92.1202 55.9602C91.9809 56.0679 91.8424 56.1754 91.7039 56.2836C91.639 56.4059 91.5739 56.5276 91.5096 56.6499C90.9177 57.0843 90.3258 57.5189 89.7342 57.9532C89.8022 58.0706 89.8708 58.1879 89.9386 58.305C90.2894 58.2806 90.6397 58.2562 90.9897 58.2315C91.165 58.1199 91.3395 58.0082 91.5145 57.8965C91.5318 57.8026 91.5451 57.7082 91.5537 57.6133C91.7571 57.5677 91.9602 57.5218 92.1638 57.4762C92.2612 57.3828 92.3586 57.2899 92.4562 57.1967ZM108.342 50.6387C108.815 50.7711 109.288 50.9034 109.761 51.0361C109.478 51.4354 109.194 51.8343 108.911 52.2339C108.686 52.2181 108.462 52.2023 108.237 52.187C107.614 52.1592 106.992 52.1318 106.369 52.1045C105.211 52.1069 104.052 52.1099 102.894 52.1131C102.528 52.119 102.162 52.1252 101.796 52.1313C101.461 52.1683 101.126 52.2058 100.79 52.2435C100.621 52.3174 100.454 52.3916 100.285 52.4658C99.7059 52.5235 99.1269 52.5815 98.548 52.6399C98.0548 52.845 97.562 53.0498 97.0692 53.2549C97.2667 53.5991 97.4636 53.9437 97.6611 54.2883C97.9076 54.239 98.1544 54.19 98.4009 54.1407C98.6237 54.0514 98.8466 53.9619 99.0694 53.8727C99.2181 53.8411 99.3667 53.8098 99.5151 53.7778C99.7592 53.7396 100.003 53.7016 100.247 53.6636C100.514 53.5808 100.781 53.498 101.048 53.4159C101.752 53.6134 102.456 53.8108 103.389 54.0726C102.701 54.541 102.251 54.8477 101.802 55.1543C101.317 55.3202 100.832 55.4856 100.348 55.651C99.0968 55.7583 97.5854 55.3639 97.262 57.2539C95.8978 58.1181 94.5336 58.9822 93.1691 59.8465C92.3145 59.9552 91.443 59.9931 90.6106 60.195C89.9834 60.3474 89.4064 60.7092 88.8073 60.9777L88.8125 60.991C88.4242 60.727 88.036 60.4637 87.6472 60.1997C87.2903 60.057 86.9336 59.9145 86.5761 59.7713C86.4975 59.1451 86.4189 58.5192 86.3397 57.8928C86.3331 57.5041 86.3264 57.1158 86.32 56.7271C86.3488 56.682 86.4127 56.6139 86.4011 56.5957C86.3479 56.5138 86.2727 56.4463 86.2051 56.3738C85.9409 56.1534 85.6759 55.9333 85.4114 55.7129C85.1242 55.5694 84.8375 55.4257 84.5505 55.282C84.2039 55.1664 83.8578 55.0513 83.5117 54.9359C83.6466 54.4106 83.7817 53.8853 83.9167 53.3599C84.8912 52.9611 85.8662 52.5617 86.8406 52.1626C86.9994 52.0714 87.1589 51.98 87.3176 51.8888C87.5178 51.8491 87.7182 51.8094 87.9186 51.7699C88.1035 51.6639 88.2882 51.5582 88.4728 51.4522C88.8561 51.3314 89.2392 51.2101 89.6225 51.0893C89.8626 51.0338 90.102 50.9786 90.3416 50.9234C90.7227 50.8204 91.1046 50.7173 91.4862 50.6138C91.8764 50.5194 92.2669 50.4245 92.6576 50.3296C92.8834 50.3091 93.1092 50.2889 93.3358 50.2687C94.6233 50.1183 95.9108 49.9682 97.1986 49.8183C97.399 49.7276 97.5995 49.6371 97.8001 49.5469L97.9 49.5493C98.4339 49.5962 98.9679 49.6423 99.5018 49.6884C99.9623 49.8915 100.414 50.2472 100.883 50.2697C102.253 50.3345 103.629 50.2664 105.002 50.2509C105.706 50.2803 106.41 50.3091 107.113 50.3382C107.523 50.4385 107.933 50.5386 108.342 50.6387Z" fill="#539836"/>
<path d="M97.9006 49.5475L97.8005 49.5443C97.1793 49.285 96.5001 48.7151 95.9455 48.8171C92.8651 49.3841 89.7661 49.9516 86.7715 50.8474C84.8531 51.4218 83.1041 52.5639 81.2794 53.4511C81.3566 53.6389 81.4332 53.8265 81.5104 54.0149C82.3128 53.7957 83.1152 53.5768 83.9171 53.3581C83.782 53.8835 83.6472 54.4088 83.5121 54.9341C80.6461 54.6417 77.7839 54.2855 74.9112 54.0814C73.2332 53.9621 71.5387 54.0863 69.8516 54.1006C70.6069 53.9717 71.3814 53.9074 72.1116 53.6927C72.668 53.5292 73.1684 53.176 73.6937 52.907C74.5915 53.0606 75.4898 53.2149 76.3876 53.3692C76.4455 53.155 76.5035 52.9415 76.5614 52.7273C74.5531 52.0004 72.5445 51.2736 70.5361 50.5469C70.3118 50.1027 70.0875 49.6582 69.8631 49.2135C71.0454 49.5784 72.2156 49.9876 73.4115 50.2992C76.536 51.1131 79.2772 50.0637 81.7204 48.2644C85.7946 45.2649 90.3294 44.0513 95.2908 44.6274C98.173 44.9624 100.984 45.7217 103.178 48.6071C102.057 48.6071 101.271 48.4868 100.54 48.6374C99.6363 48.8233 98.7787 49.2337 97.9006 49.5475Z" fill="#539438"/>
<path d="M98.8745 84.4604C100.67 87.1284 97.7422 88.4618 97.5788 90.8076C101.81 90.8579 105.571 89.9382 109.521 87.7366C108 86.2952 106.796 85.1546 105.592 84.0142C103.441 84.1569 101.373 84.2945 98.8745 84.4604ZM77.4927 81.4278C80.1686 81.9115 82.8307 82.5019 85.5241 82.8465C87.8765 83.1467 90.2726 83.3661 92.6365 83.2757C97.3382 83.0955 102.031 82.6779 106.727 82.3586C106.729 82.6991 106.73 83.0402 106.732 83.3814C107.442 84.1451 108.098 84.9699 108.873 85.6617C110.624 87.2265 110.593 88.61 108.418 89.4683C106.091 90.3876 103.633 91.0975 101.166 91.5173C96.2871 92.3471 91.3645 92.5182 86.4941 91.3344C85.7871 91.1631 85.1449 90.726 84.4729 90.4117C84.6065 90.252 84.7399 90.092 84.8735 89.9323C86.4367 90.1088 87.9258 91.8837 89.6384 90.0871C89.4976 89.7895 89.3433 89.4641 89.1897 89.139C89.2398 88.8745 89.2896 88.6095 89.3398 88.3452C89.7084 88.5868 90.1915 88.7485 90.426 89.084C91.6857 90.887 93.4561 90.8924 95.1746 90.2286C97.0601 89.5004 97.9656 87.8453 98.4766 85.5931C97.3234 85.1704 96.3196 84.5726 95.2633 84.4579C91.9973 84.1042 88.711 83.9346 85.4324 83.6935C85.3074 83.6834 85.1831 83.6738 85.0586 83.6634C84.5217 83.5833 83.9848 83.5032 83.4482 83.4228C83.3545 83.3711 83.2539 83.3452 83.1467 83.3459C79.3484 82.476 75.5494 81.6065 71.7509 80.7366C71.6266 80.6964 71.5026 80.6569 71.3789 80.6168C71.1262 80.6005 70.8733 80.5842 70.6211 80.568C70.6273 80.1509 70.6332 79.7335 70.6393 79.3164C72.805 79.9778 74.9708 80.6397 77.1364 81.3008C77.2553 81.3435 77.3741 81.3856 77.4927 81.4278Z" fill="#180809"/>
<path d="M86.3405 57.8897C86.4192 58.5161 86.4983 59.1422 86.5769 59.7681C81.7909 58.5382 76.9834 58.1825 72.1379 59.4215C70.9263 60.0716 69.6077 60.5791 68.5245 61.3978C65.2291 63.8878 62.0244 66.4982 58.7843 69.0612C56.538 69.213 54.2082 69.9752 51.9766 68.4587C52.3054 68.0726 52.3705 67.9203 52.4679 67.8959C52.8312 67.8047 53.2049 67.7497 53.5759 67.6908C56.1902 67.2737 58.5545 66.3357 60.5394 64.5137C61.5149 63.6184 62.5732 62.8103 63.6223 61.9998C69.8626 57.177 76.6535 55.6013 84.2503 58.4064C84.8072 58.6119 85.6375 58.079 86.3405 57.8897Z" fill="#539438"/>
<path d="M97.2228 81.075C88.2551 81.505 79.6111 79.9655 71.2275 76.8217C69.9865 76.3568 68.7192 75.9619 67.4667 75.5265C66.1577 75.0717 65.1329 75.4469 64.2995 76.5288C63.498 77.5704 63.1467 78.6774 63.9141 79.8457C64.6029 80.8938 65.2673 82.029 66.1942 82.8381C73.6465 89.3414 81.8793 94.3584 91.9205 95.6516C94.0386 95.9248 96.2089 95.7929 98.3553 95.8476C98.3563 96.0978 98.3577 96.348 98.3587 96.5982C90.0781 97.5434 82.7105 94.9131 75.7253 90.8113C73.6652 89.6012 71.6354 88.34 69.5921 87.102C69.4287 86.9803 69.2647 86.858 69.1013 86.7357L69.1131 86.7463C68.979 86.629 68.8444 86.5119 68.7106 86.3945L68.6933 86.383C68.4542 86.2388 68.2151 86.095 67.9762 85.9511L67.9893 85.9713C67.8564 85.8424 67.7238 85.7129 67.5909 85.584L67.603 85.5988C67.4696 85.4709 67.336 85.3424 67.2021 85.2145L67.2142 85.2273C67.0833 85.0962 66.9524 84.9658 66.8215 84.8349L66.8341 84.8477C66.7002 84.7252 66.5661 84.6029 66.432 84.4806C66.0398 84.1044 65.6479 83.728 65.2557 83.3518C64.6502 82.6717 64.0446 81.9911 63.4391 81.3109C63.2086 80.8406 62.9784 80.37 62.7479 79.8989C62.7109 79.0189 62.6737 78.1388 62.6367 77.2588C62.6914 77.1863 62.7028 77.1074 62.6702 77.0224C62.7772 76.8513 62.8845 76.6797 62.9915 76.5086C63.0509 76.4401 63.0713 76.3619 63.0528 76.2737C63.1753 76.1026 63.2981 75.932 63.4204 75.7614L63.4088 75.7748C63.5355 75.6411 63.6625 75.5078 63.7889 75.3747L63.7798 75.3838C63.9031 75.2509 64.0263 75.118 64.1503 74.9849C64.2812 74.8728 64.4121 74.7606 64.543 74.6484C66.627 74.9931 68.8333 75.0133 70.7741 75.7397C78.6483 78.6876 86.7319 80.3091 95.1434 80.2803C95.458 80.279 95.7728 80.3126 96.0876 80.3298C96.466 80.5781 96.8441 80.8268 97.2228 81.075Z" fill="#191508"/>
<path d="M73.6764 60.5397C68.4873 63.0842 67.4275 66.4583 69.8064 73.1513H67.5681C64.8813 72.3605 62.1847 71.5976 59.5184 70.7414C59.1937 70.6369 57.9259 70.6906 58.8237 69.6375C60.9889 68.2566 63.1966 66.9357 65.309 65.4781C67.9361 63.6657 70.485 61.7402 73.0675 59.8633C73.2541 59.8906 73.441 59.9185 73.6278 59.9459C73.6439 60.1438 73.6601 60.3418 73.6764 60.5397Z" fill="#F4F4F3"/>
<path d="M112.805 84.9301C114.944 83.8363 117.184 83.4313 119.564 83.9103C123.435 84.69 127.031 86.1075 130.382 88.2285C131.162 88.7225 132.59 89.1492 133.189 88.7701C134.372 88.0209 134.451 86.5911 133.894 85.2005C132.491 81.6954 129.488 79.8049 126.571 77.8101C124.923 76.6835 123.47 76.4449 121.644 77.7955C119.582 79.3202 117.809 78.7236 116.195 76.5174C116.348 76.362 116.502 76.2067 116.655 76.0519C118.878 77.9528 119.518 78.0721 121.964 76.4478C123.29 75.5663 124.511 75.4719 125.854 76.1851C129.787 78.2725 133.043 81.0367 134.972 85.1732C135.594 86.508 135.509 87.6713 134.732 88.9152C134.354 89.5207 134.276 90.3125 133.947 91.3986C133.497 91.2044 132.804 90.9561 132.158 90.6187C129.099 89.0198 126.112 87.2668 122.984 85.8198C119.807 84.3508 116.47 84.6259 113.177 85.6127C113.053 85.3852 112.928 85.1574 112.805 84.9301Z" fill="#161E14"/>
<path d="M89.2539 67.5921L89.262 67.5992C88.9083 67.5844 88.4495 67.4195 88.2186 67.581C87.1275 68.3412 86.098 69.191 85.0469 70.0089C84.8149 69.6589 84.3863 69.3113 84.3811 68.958C84.3111 63.9521 82.5616 61.5823 77.8088 60.1661C77.8024 60.0271 77.7957 59.8885 77.7891 59.75C80.2207 59.9332 82.6604 60.0458 85.0814 60.3231C86.9958 60.5423 88.1993 61.9035 89.2749 63.3636L89.2519 63.3962C89.0108 64.7007 88.7601 66.0036 88.5607 67.314C88.5521 67.3702 89.0123 67.4977 89.2539 67.5921Z" fill="#F4F4F3"/>
<path d="M117.285 57.2946C118.982 58.0269 119.586 59.5563 119.43 61.1362C119.176 63.715 116.983 64.5526 114.747 65.5439C114.499 61.3539 113.287 57.864 109.199 55.8867C111.034 56.0391 112.868 56.1912 114.702 56.3435C115.563 56.6608 116.424 56.9775 117.285 57.2946Z" fill="#F4F4F3"/>
<path d="M73.0655 59.8594C70.483 61.7364 67.9343 63.6619 65.3072 65.4743C63.1948 66.9319 60.9875 68.2522 58.8217 69.6337C58.8086 69.4429 58.7948 69.2526 58.7812 69.0623C62.0214 66.4985 65.2259 63.8887 68.5215 61.3987C69.6052 60.58 70.9238 60.0719 72.1346 59.4219C72.4447 59.5681 72.7554 59.7137 73.0655 59.8594Z" fill="#161E14"/>
<path d="M110.951 62.2059C110.845 63.1764 110.152 63.9966 108.808 63.9448C107.464 63.893 106.788 62.9876 106.74 61.7015C106.693 60.4783 107.908 59.3113 109.054 59.491C110.346 59.6937 111.019 60.5114 110.951 62.2059Z" fill="#F4F4F3"/>
<path d="M112.803 84.9295C112.927 85.1568 113.051 85.3845 113.175 85.6121C113.098 85.8667 113.021 86.1211 112.943 86.3753C113.025 86.4916 113.106 86.6072 113.187 86.7236C113.27 87.5797 113.354 88.4359 113.437 89.2923C113.001 90.1095 112.566 90.9259 112.13 91.7431C111.37 92.2477 110.611 92.7521 109.851 93.2572C109.544 93.2338 109.237 93.2111 108.93 93.1882C110.016 91.8701 111.258 90.6469 112.14 89.204C112.864 88.0183 112.315 86.8165 111.35 85.8034C110.667 85.0868 110.135 84.2264 109.535 83.4307C109.797 83.3794 110.058 83.3286 110.319 83.2773C111.147 83.8281 111.975 84.3788 112.803 84.9295Z" fill="#180809"/>
<path d="M102.883 60.7378C102.993 59.9354 102.881 58.9762 103.296 58.3873C103.554 58.0214 104.73 57.9726 105.267 58.2391C105.672 58.4395 106.058 59.6987 105.855 59.907C105.272 60.5058 104.387 60.8102 103.62 61.2305C103.375 61.0661 103.129 60.9022 102.883 60.7378Z" fill="#E9E9E9"/>
<path d="M108.23 53.75C111.617 54.0419 115.037 54.212 117.876 56.4538C116.816 56.1863 115.756 55.9193 114.696 55.6518C112.544 55.2599 110.394 54.8682 108.243 54.4762C108.239 54.2342 108.234 53.9921 108.23 53.75Z" fill="#44762D"/>
<path d="M108.229 53.7473C108.233 53.9894 108.237 54.2315 108.241 54.4736C107.987 54.4706 107.733 54.4672 107.479 54.4635C106.288 54.0488 105.093 53.5977 104.04 54.7625C103.293 54.8919 102.547 55.0208 101.801 55.1503C102.251 54.8431 102.7 54.5367 103.388 54.0681C102.455 53.8063 101.751 53.6088 101.047 53.4113C103.06 53.3951 105.073 53.3793 107.086 53.3633C107.344 53.4616 107.602 53.56 107.861 53.6586C107.982 53.6956 108.104 53.7257 108.229 53.7473Z" fill="#539438"/>
<path d="M108.91 52.2325C109.193 51.8334 109.477 51.434 109.76 51.0352C111.139 51.4387 112.596 51.7044 113.814 53.3139C111.895 52.8912 110.403 52.5618 108.91 52.2325Z" fill="#539438"/>
<path d="M88.8086 60.975C89.4081 60.7065 89.9847 60.3447 90.6126 60.1923C91.4443 59.9904 92.3162 59.9525 93.1711 59.8438C92.086 60.5924 91.0008 61.3416 89.7542 62.2019C89.378 61.7136 89.0933 61.3445 88.8086 60.975Z" fill="#539438"/>
<path d="M103.867 65.5154C103.367 64.8681 102.765 64.415 102.829 64.0958C102.925 63.6156 103.454 62.9369 103.864 62.8888C104.242 62.8442 105.042 63.5145 105.046 63.8759C105.05 64.3277 104.43 64.7855 103.867 65.5154Z" fill="#E9E9E9"/>
<path d="M105.641 67.9553C105.219 67.5027 104.653 67.1048 104.45 66.5691C104.375 66.3712 105.153 65.8505 105.543 65.4766C105.868 66.0734 106.192 66.6702 106.517 67.267C106.225 67.4965 105.933 67.726 105.641 67.9553Z" fill="#E9E9E9"/>
<path d="M105.004 50.2498C103.63 50.2656 102.254 50.3331 100.885 50.2683C100.417 50.2459 99.9639 49.8906 99.5039 49.6875C101.337 49.8749 103.171 50.0627 105.004 50.2498Z" fill="#539438"/>
<path d="M114.695 55.6523C115.756 55.9193 116.816 56.1868 117.876 56.4538C117.679 56.7353 117.482 57.0165 117.285 57.2978C116.424 56.9806 115.564 56.6638 114.703 56.3465C114.7 56.1151 114.698 55.8838 114.695 55.6523Z" fill="#161E14"/>
<path d="M97.2617 57.2513C97.5851 55.361 99.0965 55.7554 100.348 55.6484C99.3189 56.1829 98.2907 56.7168 97.2617 57.2513Z" fill="#539438"/>
<path d="M77.7876 59.75C77.7942 59.8885 77.8009 60.0271 77.8076 60.1664C76.431 60.2891 75.0545 60.4124 73.6775 60.5356C73.6612 60.3377 73.6452 60.1405 73.6289 59.9425C75.0151 59.8779 76.4014 59.8141 77.7876 59.75Z" fill="#CA98AD"/>
<path d="M104.039 54.7626C105.093 53.5978 106.287 54.0491 107.478 54.4638C106.332 54.5631 105.186 54.6632 104.039 54.7626Z" fill="#44762D"/>
<path d="M98.4002 54.1404C98.1537 54.1895 97.9069 54.2388 97.6602 54.2881C97.7694 54.2114 97.8786 54.1348 97.9875 54.0586C98.112 54.0778 98.2372 54.0931 98.3627 54.1044L98.4002 54.1404Z" fill="#539438"/>
<path d="M99.0693 53.8736C98.8464 53.9628 98.6236 54.0523 98.4008 54.1415L98.3633 54.1055C98.4242 53.9934 98.4851 53.8817 98.5459 53.7695C98.7207 53.804 98.8948 53.839 99.0693 53.8736Z" fill="#539438"/>
<path d="M98.5466 53.7695C98.4857 53.8817 98.4249 53.9934 98.364 54.1055C98.238 54.0944 98.1133 54.0792 97.9883 54.0594C98.1746 53.9628 98.3605 53.8659 98.5466 53.7695Z" fill="#0A1507"/>
<path d="M27.4104 86.1369C27.2839 86.149 27.1577 86.1606 27.0312 86.1729C27.0825 86.0866 27.1338 86.0003 27.1851 85.9141C27.2617 85.9865 27.3367 86.0607 27.4104 86.1369Z" fill="#539836"/>
<path d="M58.7837 69.0635C58.7972 69.2538 58.8106 69.4446 58.8241 69.6349C57.9263 70.6885 59.1941 70.6348 59.519 70.7388C62.1851 71.5952 64.8817 72.3579 67.5687 73.1492V73.8414C66.5545 73.7344 65.5411 73.6267 64.5274 73.5197C63.8296 73.3553 63.1317 73.1914 62.4338 73.0269C62.1257 72.9015 61.8178 72.7758 61.5096 72.6498L61.5234 72.666C60.7639 72.403 60.0047 72.1402 59.2459 71.8767L59.2545 71.8991C59.114 71.7966 58.973 71.6941 58.8322 71.5915L58.6851 71.5387L58.5288 71.5402C58.3841 71.4611 58.2389 71.3815 58.0944 71.3018C57.5726 71.1663 57.0504 71.0307 56.5286 70.8946C56.4174 70.8283 56.2986 70.811 56.1729 70.8433C55.9448 70.8211 55.7175 70.7982 55.4895 70.7758C54.6985 70.6515 53.9072 70.5278 53.1158 70.4033L52.9911 70.3644L52.8622 70.3902C52.7074 70.3175 52.5521 70.2455 52.3973 70.1731C52.1769 70.1176 51.9572 70.0624 51.7368 70.0074C51.5724 69.8822 51.4085 69.7567 51.2441 69.631L51.2675 69.6502C51.1329 69.3862 50.9983 69.1229 50.8639 68.8589C50.8797 68.7428 50.8649 68.6301 50.8203 68.5214C50.839 68.2732 50.8578 68.0249 50.8765 67.7774C51.001 67.5509 51.1252 67.3251 51.2495 67.0988C51.4277 66.9561 51.6064 66.8136 51.7852 66.6708C51.975 66.6664 52.1643 66.6617 52.3541 66.6573C52.9189 66.539 53.4839 66.4211 54.0486 66.3028C54.2481 66.274 54.447 66.2451 54.6467 66.216C55.2852 65.9777 55.9231 65.7395 56.5616 65.5009L56.5579 65.5066C57.7293 64.7929 59.0176 64.2173 60.0515 63.3414C64.1794 59.8444 68.4818 56.7332 74.0394 55.9682C76.1897 56.0146 78.3403 56.0607 80.4902 56.1073C81.9545 56.517 83.4187 56.9272 84.883 57.3371C84.9415 57.1037 84.9999 56.8707 85.0581 56.6373C83.5334 56.3057 82.0084 55.9744 80.4833 55.6431C79.0939 55.5028 77.7048 55.3628 76.3157 55.2228C76.1178 55.3399 75.9203 55.4572 75.7224 55.5745C75.5076 55.5243 75.2929 55.4745 75.0787 55.4242C71.0697 54.6511 67.3784 55.6024 64.0941 57.8412C61.4436 59.6479 59.0191 61.7857 56.4941 63.7768C56.2581 63.8571 56.022 63.9373 55.7861 64.0179C55.4989 64.2427 55.211 64.4678 54.9238 64.6926C54.3376 64.255 53.7514 63.8175 53.1651 63.3799C53.3453 63.21 53.5248 63.04 53.7045 62.8699C54.1436 62.8598 54.5831 62.8496 55.0226 62.8395C55.4069 62.7116 55.791 62.5832 56.1753 62.4547C58.2655 60.7484 60.2058 58.798 62.487 57.4042C64.7641 56.0128 67.3818 55.1796 69.8506 54.1021C71.5378 54.0873 73.2323 53.9636 74.9103 54.0822C77.783 54.2863 80.645 54.6425 83.5117 54.9348C83.8578 55.0502 84.2039 55.1653 84.55 55.2812C84.8369 55.4247 85.1241 55.5684 85.4108 55.7121C85.6758 55.9322 85.9403 56.1526 86.2051 56.3723C86.2046 56.5027 86.2428 56.6205 86.3195 56.726C86.3261 57.1148 86.333 57.503 86.3397 57.892C85.6369 58.0811 84.8064 58.6141 84.2497 58.4085C76.6522 55.6034 69.8612 57.1789 63.6215 62.0014C62.5723 62.8124 61.5141 63.6205 60.5386 64.5158C58.5537 66.3381 56.1896 67.2753 53.5746 67.6926C53.2036 67.7521 52.8306 67.8063 52.4673 67.8977C52.3696 67.9224 52.3048 68.0747 51.976 68.461C54.2076 69.9776 56.5372 69.2151 58.7837 69.0635Z" fill="#0A1507"/>
<path d="M56.4961 63.7774C59.0211 61.7864 61.4456 59.6486 64.0959 57.8417C67.3804 55.6028 71.0712 54.6523 75.0802 55.4253C74.7341 55.6065 74.388 55.7877 74.0412 55.9689C68.4838 56.7343 64.1807 59.8451 60.0533 63.3419C59.0194 64.218 57.7314 64.7936 56.5599 65.5077C56.5387 64.9306 56.5173 64.354 56.4961 63.7774Z" fill="#539537"/>
<path d="M70.5373 50.5495C72.5457 51.2762 74.5542 52.003 76.5626 52.7299C76.5047 52.9437 76.4467 53.1576 76.3888 53.3719C75.491 53.2175 74.5932 53.0632 73.6949 52.9092L73.6892 52.9385C73.5536 52.8335 73.4183 52.729 73.2827 52.6237C73.0527 52.5978 72.8225 52.5727 72.592 52.5468C72.0504 52.4112 71.5088 52.2756 70.9672 52.14C63.6125 50.6952 56.9303 51.7163 51.5375 57.5973C51.4106 55.4934 53.1971 53.8617 57.693 51.8001C57.8766 51.6946 58.06 51.5893 58.2437 51.4838C58.4416 51.4599 58.6391 51.4362 58.837 51.4128C59.1176 51.3063 59.3984 51.1996 59.6791 51.0931C59.904 51.0753 60.1293 51.0576 60.3541 51.0398C60.5459 50.9353 60.7372 50.8306 60.9292 50.7255C61.1037 50.7352 61.2788 50.7448 61.4533 50.7546C62.396 50.6176 63.3379 50.4805 64.2803 50.3434C64.4869 50.3373 64.693 50.3306 64.8995 50.3242C66.176 50.3282 67.4527 50.3319 68.7291 50.3353C68.9219 50.341 69.1147 50.3459 69.3077 50.3511C69.5532 50.3516 69.799 50.3521 70.0445 50.3526C70.2089 50.4181 70.3729 50.484 70.5373 50.5495Z" fill="#0A1507"/>
<path d="M63.4389 81.3125C64.0443 81.9926 64.6498 82.6728 65.2552 83.3529C63.9179 83.3233 63.2922 82.6609 63.4389 81.3125Z" fill="#539537"/>
<path d="M56.1758 70.8439C56.3017 70.8116 56.4198 70.8289 56.5315 70.8952C56.4127 70.8779 56.2946 70.8612 56.1758 70.8439Z" fill="#539537"/>
<path d="M112.132 91.7433C112.567 90.9269 113.003 90.1097 113.439 89.293C115.356 90.7669 117.516 90.0978 119.617 90.0037C121.661 89.9122 123.706 89.8351 125.75 89.8284C126.201 89.8269 126.652 90.1486 127.54 90.4893C123.099 90.7141 119.149 90.914 114.609 91.144C113.2 91.6267 113.801 95.0116 110.609 94.9911C111.366 94.1653 111.874 93.6533 112.331 93.0996C112.74 92.6041 113.261 92.0367 112.132 91.7433Z" fill="#44762D"/>
<path d="M85.4302 83.6919C88.709 83.933 91.9953 84.1026 95.2614 84.4568C96.3177 84.5709 97.3215 85.169 98.4747 85.5918C97.9636 87.8441 97.0582 89.4992 95.1726 90.2277C93.4539 90.8915 91.6837 90.8854 90.424 89.0826C90.1896 88.7471 89.7064 88.5857 89.3379 88.3436C87.053 87.3164 84.7927 86.2268 82.4737 85.2826C80.8339 84.6153 79.1606 84.1164 77.4076 85.2452C76.9964 85.5099 76.057 85.2501 75.5092 84.9553C73.579 83.9174 71.7139 82.7596 69.8239 81.6475C69.5202 81.4501 69.2167 81.2531 68.9133 81.0559C68.8223 80.7939 68.7316 80.5321 68.6406 80.2695C69.3 80.3686 69.9592 80.4675 70.6191 80.5666C70.8713 80.5828 71.124 80.5991 71.3769 80.6151C71.5007 80.6553 71.6247 80.6955 71.7489 80.7354C75.5474 81.6049 79.3465 82.4743 83.1447 83.3443C83.2453 83.3702 83.3459 83.3961 83.4462 83.4214C83.9826 83.5016 84.5198 83.5819 85.0567 83.662C85.1812 83.6722 85.3059 83.6818 85.4302 83.6919Z" fill="#D70450"/>
<path d="M69.8252 81.6484C71.7153 82.7612 73.5806 83.9188 75.5108 84.9567C76.0583 85.251 76.9978 85.5111 77.409 85.2461C79.1627 84.1178 80.8355 84.6167 82.4753 85.2835C84.7943 86.2277 87.0543 87.3173 89.3392 88.3445C89.2897 88.6095 89.2394 88.874 89.1891 89.1383C86.4972 88.0649 83.804 86.9941 81.1136 85.9161C79.9025 85.4307 78.8205 85.4871 77.744 86.768C79.3722 87.5564 80.8796 88.2863 82.3871 89.0155C82.391 89.2571 82.3952 89.4987 82.3991 89.7402C77.7856 88.3612 73.9482 85.5806 70.0562 82.9022C69.9268 82.813 69.8967 82.5793 69.8203 82.4134V81.8272L69.8252 81.6484Z" fill="#280A0E"/>
<path d="M70.6189 80.5631C69.9597 80.4643 69.2998 80.3652 68.6406 80.2663C69.0543 79.8795 69.4679 79.4927 69.8816 79.1055C70.1338 79.1745 70.3854 79.243 70.6376 79.3116C70.6317 79.7289 70.6251 80.146 70.6189 80.5631Z" fill="#280A0E"/>
<path d="M69.886 79.1055C69.4724 79.4922 69.0587 79.8795 68.6451 80.2663C68.7358 80.5286 68.8268 80.7906 68.918 81.0524C68.4025 80.7053 67.8868 80.3583 67.3711 80.0109C67.4532 79.7577 67.535 79.5038 67.6166 79.2502C68.3734 79.2019 69.1297 79.1538 69.886 79.1055Z" fill="#180809"/>
<path d="M82.399 89.7404C82.3949 89.4988 82.3909 89.2572 82.3867 89.0156C82.8531 89.1734 83.319 89.3307 83.7854 89.4887C83.6526 89.658 83.5197 89.8276 83.3871 89.9977C83.0577 89.9119 82.7284 89.8262 82.399 89.7404Z" fill="#180809"/>
<path d="M84.4763 90.4076C84.1144 90.2695 83.7525 90.1315 83.3906 89.9934C83.5235 89.8236 83.6566 89.654 83.7895 89.4844C84.1519 89.632 84.5142 89.7799 84.8771 89.9281C84.7432 90.0878 84.6096 90.2478 84.4763 90.4076Z" fill="#180809"/>
<path d="M77.6465 68.4075C76.801 67.1698 76.1625 65.9266 77.5058 64.8486C77.9998 64.4527 79.0563 64.3477 79.6635 64.5908C80.8507 65.0666 80.8953 66.1768 80.5243 67.3032C80.0407 68.7704 78.9286 68.6341 77.6465 68.4075Z" fill="#F4F4F3"/>
<path d="M73.0552 66.5546C72.3102 65.4392 71.4639 64.7245 71.5534 64.1575C71.6508 63.5363 72.5695 62.6698 73.2085 62.5969C74.148 62.4899 75.1579 63.1759 74.8631 64.3459C74.6935 65.0193 73.919 65.5407 73.0552 66.5546Z" fill="#E9E9E9"/>
<path d="M75.3071 73.2358C74.7673 72.34 74.1946 71.807 74.2237 71.309C74.2479 70.8919 74.9748 70.5153 75.3905 70.1211C75.796 70.5848 76.432 71.0061 76.5294 71.5279C76.5979 71.8965 75.937 72.4009 75.3071 73.2358Z" fill="#E9E9E9"/>
<path d="M76.2371 68.0576C75.3642 68.7771 74.8591 69.5009 74.4511 69.4496C73.9837 69.3909 73.3608 68.6899 73.2663 68.1818C73.1995 67.8256 73.873 67.0104 74.2719 66.9714C74.7459 66.9251 75.2799 67.4911 76.2371 68.0576Z" fill="#E9E9E9"/>
<path d="M83.9155 53.3578C83.1131 53.5767 82.3112 53.7958 81.5086 54.0147C81.4314 53.8269 81.3545 53.639 81.2773 53.4507C83.1023 52.5635 84.8508 51.4216 86.7699 50.8475C89.7638 49.9512 92.8635 49.3837 95.9437 48.8167C96.4986 48.7149 97.1772 49.2849 97.7989 49.5447C97.5983 49.6349 97.3978 49.7254 97.1974 49.8156C95.9096 49.966 94.6221 50.1161 93.3346 50.2665C93.108 50.2867 92.8822 50.3069 92.6564 50.3274C92.2657 50.4223 91.8752 50.5172 91.485 50.6116C91.1034 50.7151 90.7215 50.8182 90.3404 50.9212C90.1008 50.9764 89.8614 51.0317 89.6218 51.0871C89.238 51.2079 88.8549 51.3292 88.4716 51.45C88.2869 51.556 88.1023 51.6617 87.9174 51.7677C87.717 51.8072 87.5171 51.8469 87.3164 51.8866C87.1577 51.9778 86.9987 52.0692 86.8394 52.1604C85.865 52.5595 84.89 52.9589 83.9155 53.3578Z" fill="#0A1507"/>
<path d="M90.9901 58.2298C90.6398 58.2542 90.2893 58.2791 89.939 58.3035C89.8709 58.1862 89.8024 58.0691 89.7344 57.9513C90.3263 57.5174 90.9176 57.0828 91.5093 56.6484C91.5241 56.9692 91.5389 57.2904 91.5539 57.6118C91.5448 57.7067 91.5322 57.8011 91.5149 57.8951C91.3399 58.0067 91.1651 58.1181 90.9901 58.2298Z" fill="#0A1507"/>
<path d="M94.3672 54.7915C94.9734 54.4794 95.5793 54.1671 96.1857 53.8555C96.29 54.0544 96.394 54.2528 96.498 54.4518C95.8946 54.7695 95.2911 55.0868 94.6877 55.4041C94.5809 55.2 94.4739 54.9953 94.3672 54.7915Z" fill="#0D110D"/>
<path d="M91.5558 57.6145C91.5413 57.2933 91.5265 56.9726 91.5117 56.6512C91.5763 56.5289 91.6411 56.4066 91.7062 56.2844C91.8448 56.1766 91.9833 56.0692 92.1223 55.9609C92.443 55.9853 92.7645 56.0097 93.3201 56.0519C92.927 56.5752 92.6923 56.8868 92.4583 57.1979C92.361 57.2914 92.2636 57.3843 92.1665 57.4775C91.9631 57.5233 91.7595 57.5689 91.5558 57.6145Z" fill="#0D110D"/>
<path d="M93.3125 55.72C93.5247 55.5413 93.7367 55.3628 93.949 55.1836C94.0392 55.3029 94.1297 55.4222 94.2204 55.5408C93.9961 55.7028 93.7718 55.8647 93.5469 56.0262C93.4688 55.9241 93.3906 55.8221 93.3125 55.72Z" fill="#0D110D"/>
<path d="M86.3217 56.7248C86.245 56.6193 86.207 56.5015 86.207 56.3711C86.2746 56.4436 86.3495 56.5111 86.403 56.593C86.4151 56.6117 86.3507 56.6797 86.3217 56.7248Z" fill="#539438"/>
<path d="M89.2519 67.5943C89.0103 67.4999 88.5501 67.3725 88.5587 67.3163C88.7581 66.0058 89.0088 64.703 89.2499 63.3984C89.4474 63.9035 89.8312 64.4202 89.8011 64.9115C89.7469 65.8133 89.4484 66.701 89.2519 67.5943Z" fill="#0D110D"/>
<path d="M98.8738 84.4579C101.372 84.292 103.441 84.1544 105.592 84.0117C106.795 85.1521 107.999 86.2927 109.52 87.7341C105.57 89.9357 101.81 90.8554 97.5781 90.8051C97.7416 88.4593 100.669 87.1259 98.8738 84.4579Z" fill="#CA98AD"/>
<path d="M84.8716 89.9267C84.5092 89.7791 84.1464 89.6314 83.784 89.4833C83.3181 89.3257 82.8517 89.168 82.3853 89.0107C80.8783 88.2808 79.3709 87.5511 77.7422 86.7627C78.8192 85.4816 79.9009 85.4254 81.1123 85.9105C83.8027 86.9885 86.4959 88.0596 89.1878 89.1334C89.3416 89.4588 89.4959 89.7842 89.6365 90.0815C87.9242 91.8784 86.435 90.1035 84.8716 89.9267Z" fill="#CA98AD"/>
<path d="M83.4494 83.4209C83.3489 83.395 83.2485 83.3691 83.1484 83.3438C83.2549 83.3433 83.3555 83.3691 83.4494 83.4209Z" fill="#280A0E"/>
<path d="M74.0391 55.9676C74.3852 55.7864 74.7318 55.6052 75.0779 55.4241C75.2926 55.4739 75.5073 55.5241 75.722 55.5739C75.9195 55.4566 76.1174 55.3393 76.3149 55.2227C77.7045 55.3622 79.0936 55.5022 80.4829 55.6425C80.4849 55.797 80.4874 55.9518 80.4898 56.1067C78.3395 56.0606 76.1894 56.014 74.0391 55.9676Z" fill="#539438"/>
<path d="M80.4915 56.109C80.4891 55.9542 80.4866 55.7993 80.4844 55.6445C82.0091 55.9761 83.5342 56.3074 85.0594 56.639C85.001 56.8724 84.9428 57.1054 84.8844 57.3388C83.4201 56.9286 81.9558 56.5192 80.4915 56.109Z" fill="#44762D"/>
</g>
<defs>
<clipPath id="clip0_1054_2819">
<rect width="150" height="110" fill="white"/>
</clipPath>
</defs>
</svg>
