<svg width="150" height="110" viewBox="0 0 150 110" fill="none" xmlns="http://www.w3.org/2000/svg">
<path d="M120.522 49.7393C121.617 49.264 122.708 50.0169 123.115 48.617C121.091 48.2507 121.091 48.2507 120.522 49.7393ZM120.826 51.8905H124.23C123.791 50.1961 122.624 50.1435 120.826 51.8905ZM124.746 54.4497C123.632 53.4065 122.542 53.7476 121.42 53.9842C121.893 55.5075 123.233 55.7185 124.746 54.4497ZM119.399 47.1343C117.941 46.8302 117.044 47.1992 116.276 47.9328C115.719 48.466 115.154 48.9999 114.664 49.5923C113.757 50.6889 112.59 51.2599 111.253 51.6976C110.154 52.0572 108.9 52.5206 108.18 53.344C106.45 55.3231 105.576 57.7592 105.341 60.5746C107.856 60.6356 109.953 59.7298 111.832 58.4062C112.889 57.6614 113.955 57.0819 115.207 57.0148C116.665 56.9366 118.132 57.0616 119.595 57.062C120.06 57.062 120.525 56.9457 120.99 56.8824C121.043 56.7602 121.096 56.6378 121.15 56.5154C119.292 55.858 119.186 54.362 119.189 52.8003C118.019 51.8835 117.845 50.8414 118.625 49.5364C119.024 48.8693 119.125 48.0249 119.399 47.1343ZM28.9636 66.0201C27.6734 66.873 27.145 68.2775 26.5999 69.655C25.1142 73.4105 24.2462 77.339 23.4645 81.2824C23.2233 82.4982 23.2146 83.7735 23.9073 84.9259C24.5469 85.9907 25.3557 86.269 26.4497 85.6432C26.9417 85.3617 27.443 84.9466 27.7198 84.4661C28.7543 82.6719 29.7042 80.8287 30.6718 78.9966C31.0818 78.2204 31.4565 77.4254 31.7752 76.7841C32.7651 76.4415 33.371 76.702 33.882 77.311C34.2647 77.7666 34.6698 78.2043 35.0767 78.6385C37.4226 81.1394 40.1562 83.1156 43.3566 84.3433C47.8087 86.0508 52.4745 85.8632 57.0993 85.4748C59.0804 85.3083 61.023 84.6361 62.9699 84.1416C63.3009 84.0576 63.5652 83.7113 64.183 83.2399C62.7128 82.6621 61.6107 82.078 60.4355 81.7957C57.0563 80.9829 53.9025 79.6372 50.9424 77.8687C48.2497 76.2598 45.4851 74.7091 43.6051 72.0468C43.1231 71.3644 42.4926 70.9187 41.5292 70.8651C38.156 70.6768 35.2169 69.4806 32.7985 67.0164C31.8063 66.0055 30.4647 65.6192 28.9636 66.0201ZM111.368 11.6223C111.247 11.507 111.128 11.3916 111.008 11.276C110.26 9.80939 109.057 9.24329 107.448 9.48693C106.733 9.56518 106.019 9.64343 105.304 9.72167C104.477 9.76923 103.65 9.81716 102.823 9.86472C102.454 9.95566 102.085 10.046 101.715 10.1366C100.969 10.2946 100.174 10.3384 99.4882 10.6341C97.9254 11.3082 96.8058 10.6934 95.8492 9.38027C96.655 9.63338 97.4604 9.88613 98.213 10.1224C99.5234 9.90071 100.791 9.68681 102.059 9.47272C102.175 9.4191 102.291 9.3653 102.407 9.31168C104.458 9.13283 106.509 8.95455 108.56 8.77627C108.545 8.65198 108.53 8.52769 108.515 8.40303C107.563 8.14991 106.61 7.89717 105.658 7.64405C105.659 7.48301 105.661 7.32197 105.663 7.16112C106.35 7.20715 107.036 7.25319 107.913 7.3123C107.75 6.79565 107.73 6.48398 107.572 6.27406C105.905 4.04695 103.638 2.93633 100.891 2.67469C98.632 2.45984 96.5595 3.16786 94.4482 3.78076C92.4799 4.35217 90.5193 5.27504 88.3997 4.45808C87.4109 4.07689 86.4084 3.68376 85.5005 3.14645C82.0338 1.09459 78.2722 0.422572 74.537 1.74652C71.4945 2.82512 68.7136 4.64527 65.8294 6.16019C63.9428 7.15164 63.0665 8.82609 62.7145 10.8581C62.6109 11.4575 62.3642 12.0323 62.1829 12.6183C62.029 12.5897 61.8748 12.5609 61.7211 12.5321C61.8197 11.4617 61.9178 10.3912 62.0544 8.90813C60.3711 10.3185 58.8465 11.3075 57.701 12.6253C56.0625 14.5099 54.9034 16.7406 54.1549 19.1549C53.4711 21.3595 52.8264 23.5796 52.0348 25.7459C51.7466 26.5348 51.1801 27.2833 50.575 27.8832C49.1413 29.3053 47.5946 30.6131 46.1176 31.9928C43.2461 34.674 42.2096 38.0439 42.7507 41.8447C42.8971 42.8748 43.5646 43.9564 44.2874 44.7446C45.0227 45.5466 46.0575 46.1614 47.0719 46.6051C51.7997 48.6719 56.8634 49.3036 61.9286 49.8655C63.9291 50.0876 65.9456 50.1677 67.8165 50.3026C68.8316 51.1173 69.6601 52.0691 70.7059 52.5367C71.6836 52.974 72.9181 53.1148 73.9904 52.9835C75.0057 52.8596 76.3941 53.2654 77.0038 51.9683C76.5624 50.8814 74.7534 51.2749 74.9436 49.5489C76.019 49.6361 77.0292 49.7181 78.06 49.8019C78.3109 48.6662 78.0382 48.1373 76.9831 48.0785C76.2687 48.0387 75.4015 48.3462 74.8212 47.1799C75.7221 46.8368 76.5697 46.5138 77.4788 46.1674C77.0667 45.1029 76.4833 45.1453 75.7287 45.4994C75.1261 45.7817 74.4722 46.2595 73.8349 45.5848C73.7604 44.2967 75.2738 44.612 75.6139 43.5544C75.296 43.4007 74.9385 43.0627 74.6475 43.1126C72.4583 43.4862 70.1277 43.6158 68.8873 46.1131C67.9326 45.4638 67.1729 44.7872 66.29 44.3732C62.105 42.4119 57.9291 40.3972 53.2473 39.8622C52.7047 39.8 52.1577 39.7779 52.0554 38.9156C53.5658 37.6305 55.7105 37.7774 57.385 36.817C59.0725 35.8498 60.7492 34.8638 62.4479 33.8758C62.9437 34.5251 62.6838 35.0421 62.2405 35.4747C61.6901 36.0116 61.073 36.4796 60.505 36.9993C59.8783 37.5722 59.2746 38.1701 58.4783 38.9314C59.5128 39.4526 60.2384 39.8328 60.9766 40.1871C62.8973 41.1087 64.8353 41.9963 66.7422 42.9451C67.5177 43.3308 68.2123 43.6182 69.094 43.1821C69.8304 42.8174 70.6446 42.5749 71.4503 42.3921C73.2591 41.9813 75.0537 41.0603 76.9386 42.3011C77.2179 42.4849 77.9428 42.1715 78.3639 41.9233C79.2678 41.3906 80.1077 40.7502 81.0255 40.1185C81.3025 40.4939 81.4673 40.718 81.7435 41.0922C80.5933 42.1225 79.5068 43.095 78.3742 44.1095C78.5648 44.5942 78.7044 45.0434 78.9118 45.4587C79.5176 46.6703 79.7322 47.965 79.5168 49.2725C78.8717 53.1767 77.9151 54.4018 73.6449 54.8106C71.5341 55.0128 69.8695 54.0471 68.3104 52.7648C67.7738 52.3234 67.1645 51.8245 66.5183 51.6921C65.2483 51.4318 63.927 51.4314 62.6315 51.285C59.8671 50.9723 57.1102 50.5777 54.3401 50.3322C52.9575 50.2098 51.5879 49.5207 50.0803 50.1004C49.5119 52.5064 48.1895 54.5387 46.8172 56.5472C45.8472 57.9667 44.8554 59.3738 43.9511 60.8343C41.8566 64.2177 42.323 67.9893 44.9829 70.9426C48.576 74.9317 52.9897 77.5626 58.0433 79.2417C60.9114 80.1947 63.7461 81.2112 66.3895 82.7479C70.0083 84.8522 73.4889 87.1263 76.1973 90.351C78.8643 93.5269 80.265 97.0461 78.3313 101.176C77.9079 102.08 77.9075 102.995 78.3213 104.013C78.9933 104.201 79.6636 104.423 80.3502 104.573C85.204 105.633 90.0565 106.7 94.9192 107.718C97.4324 108.244 99.981 108.279 102.362 108.109C103.271 107.444 103.201 106.722 102.699 106.135C102.132 105.471 101.48 104.79 100.72 104.392C97.5099 102.716 94.2269 101.206 90.6302 100.501C89.7776 100.335 88.9669 99.9575 87.9069 99.5996C88.1784 98.774 88.2892 98.0031 88.6585 97.3871C90.435 94.4243 91.9645 91.3559 92.9721 88.0433C94.3063 83.6558 93.3586 79.8397 90.0531 76.6422C88.9006 75.5272 87.6894 74.4732 86.5234 73.3715C82.759 69.8134 78.2641 67.4107 73.6339 65.2253C72.2938 64.5928 70.92 64.0319 69.5699 63.4201C69.0618 63.1899 68.6031 62.8962 69.0192 61.9976C69.5752 62.1066 70.2124 62.1399 70.777 62.3601C72.1032 62.8765 73.3819 63.5137 74.7018 64.0472C79.3713 65.9329 83.555 68.6052 87.4135 71.8132C88.2723 72.5269 89.1482 73.2196 90.0779 73.9717C90.8867 73.5183 91.6228 73.1455 92.3185 72.7088C95.17 70.9184 97.4597 68.4925 99.6538 65.9962C101.3 64.1226 102.77 62.0562 103.49 59.6381C104.203 57.246 105.099 54.9559 106.147 52.6913C107.12 50.5879 107.428 48.3068 106.888 45.8922C104.832 46.0329 102.888 46.2349 100.94 46.2798C98.8668 46.3273 96.9852 45.5216 95.2011 44.5724C93.5492 43.6933 91.668 43.051 90.8282 41.0655C91.4839 41.1464 92.0413 41.3995 92.5917 41.6676C94.6117 42.6516 96.5626 43.8276 98.6663 44.5773C100.858 45.3586 103.177 45.474 105.449 44.5405C106.414 44.1432 107.037 43.4904 107.348 42.5561C107.571 41.8888 107.717 41.1736 107.755 40.4721C107.842 38.8399 108.291 37.3448 109.055 35.8985C109.42 35.2085 109.517 34.3775 109.747 33.5698C109.079 33.1869 108.623 32.9247 108.166 32.6627C108.322 32.5308 108.478 32.3988 108.635 32.2673H110.408C110.729 31.5727 111.079 30.8156 111.405 30.1107C111.077 29.6946 110.862 29.422 110.647 29.1491C110.65 28.9049 110.653 28.6605 110.655 28.4159C111.251 28.261 111.847 28.106 112.424 27.9557V25.9133C110.956 25.6729 109.527 25.3277 108.08 25.2258C105.247 25.0255 102.405 24.9607 99.5672 24.8399C99.5684 24.6178 99.5699 24.3958 99.571 24.1737C103.594 24.2666 107.617 24.359 111.312 24.4437C112.579 23.5765 113.602 22.892 114.606 22.1802C115.08 21.8441 115.517 21.455 115.97 21.0901C116.049 20.9095 116.128 20.729 116.207 20.5482C116.491 20.2989 116.933 20.1003 117.032 19.7915C117.693 17.7317 116.778 15.3219 114.914 14.1039C113.984 13.4952 113.024 12.9306 112.078 12.3461C111.959 12.2248 111.84 12.1038 111.72 11.9825C111.603 11.8633 111.486 11.744 111.369 11.6242L111.368 11.6223ZM112.878 24.7823C113.119 25.3363 113.226 25.679 113.406 25.977C113.971 26.9101 113.916 27.7922 113.212 28.6111C112.65 29.2655 112.29 29.9826 112.296 30.8613C112.297 30.9752 112.243 31.0938 112.198 31.2035C111.371 33.2123 110.499 35.2035 109.732 37.2351C109.359 38.2243 109.035 39.2754 108.949 40.3201C108.725 43.047 108.624 45.7855 108.521 48.5211C108.498 49.1359 108.668 49.7585 108.756 50.4322C111.161 50.2674 112.883 49.2015 114.33 47.6287C116.158 45.644 118.419 45.0843 120.999 45.5454C122.401 45.7963 123.54 46.3753 124.23 47.764C124.672 48.6528 125.426 49.3811 125.996 50.2122C128.118 53.3129 127.259 56.4836 123.849 57.989C121.578 58.9915 119.226 59.5325 116.724 58.9049C115.436 58.5815 114.229 58.9109 113.15 59.6297C110.819 61.1814 108.193 61.8925 105.485 62.3612C104.61 62.5126 103.858 62.8214 103.419 63.5946C100.997 67.862 97.1256 70.669 93.3836 73.6108C92.9636 73.9406 92.5449 74.2762 92.1623 74.6475C92.0021 74.8034 91.9388 75.059 91.7669 75.3953C92.1447 76.0008 92.5022 76.6763 92.9545 77.2806C95.2288 80.3221 95.6348 83.7075 94.7331 87.2815C93.8722 90.6946 92.6633 93.9795 90.6207 96.8997C90.3519 97.2843 90.1408 97.7088 89.7696 98.3426C91.7182 99.1196 93.5731 99.8437 95.4156 100.598C97.3933 101.407 99.4246 102.12 101.313 103.105C103.222 104.101 104.554 105.688 104.876 107.93C104.359 109.295 103.294 109.607 102.008 109.615C98.3609 109.638 94.7511 109.321 91.1794 108.568C87.279 107.746 83.3824 106.902 79.4674 106.157C76.2766 105.549 75.721 103.511 76.8823 101.24C78.9334 97.2291 77.4238 93.9365 74.8006 91.0036C72.3694 88.286 69.4212 86.1421 65.9637 84.4822C63.1673 86.0983 60.0037 86.8681 56.7245 87.1926C51.7417 87.6858 46.8045 87.3798 42.1419 85.4856C40.1986 84.6957 38.499 83.2829 36.7351 82.0844C35.4718 81.2252 34.2858 80.2519 32.8894 79.1961C31.8834 80.7391 31.0339 82.078 30.1464 83.3911C29.4822 84.374 28.867 85.4165 28.0586 86.2713C25.8966 88.5575 23.0994 87.9079 22.3494 84.8975C22.0121 83.5453 21.9049 82.0484 22.09 80.6703C22.6623 76.4171 23.8067 72.2887 25.3451 68.2794C25.8832 66.8776 26.5961 65.5809 27.9646 64.7715C29.0657 64.1203 30.1989 63.9053 31.3584 64.5205C32.3498 65.047 33.304 65.6468 34.2509 66.2512C35.2524 66.891 36.2169 67.5886 37.2137 68.236C38.4459 69.0365 39.7492 69.1746 41.2308 68.5543C41.2308 68.175 41.3267 67.7508 41.2158 67.3902C40.202 64.0931 41.436 61.3195 43.237 58.6961C44.3806 57.0305 45.6113 55.4243 46.7992 53.7889C47.9548 52.1976 47.8596 50.4621 47.4447 48.6592C46.4844 48.102 45.5458 47.5922 44.643 47.0263C42.8854 45.9236 41.8236 44.3446 41.4743 42.2877C40.6636 37.5155 42.2061 33.6227 45.8625 30.518C47.0419 29.5163 48.2405 28.5372 49.4221 27.5376C50.4013 26.7097 51.0085 25.6864 51.3815 24.4287C52.1064 21.9845 52.8739 19.5395 53.8407 17.184C55.3396 13.5323 57.7021 10.5072 61.012 8.27723C64.115 6.18672 67.1081 3.95961 70.4183 2.14818C75.724 -0.755493 80.8858 -0.687667 86.0574 2.18266C88.4038 3.48501 90.699 3.75708 93.2523 2.93236C95.1662 2.31452 97.1467 1.71848 99.1337 1.55517C102.316 1.29409 105.303 2.04454 107.586 4.52704C108.027 5.00581 108.482 5.52039 108.747 6.10184C110.099 9.07277 112.276 11.215 115.05 12.89C116.906 14.0103 118.106 15.7096 118.311 17.9549C118.486 19.872 117.925 21.476 116.231 22.5682C115.144 23.2687 114.073 23.9918 112.878 24.7823Z" fill="#0B100A"/>
<path d="M75.5417 29.6522C75.5076 29.6122 75.4729 29.5728 75.4388 29.5328C75.4009 29.569 75.335 29.6035 75.3325 29.6418C75.3302 29.6791 75.3931 29.72 75.4276 29.7596C75.4657 29.7238 75.5036 29.6878 75.5417 29.6522ZM73.6603 13.294C73.0057 12.3336 72.1615 12.1707 71.1367 12.7777C71.9783 12.9495 72.8193 13.1218 73.6603 13.294ZM73.1818 25.9873C73.3858 28.0137 73.6925 28.4203 74.8352 28.5914C74.2694 27.7 73.7257 26.8436 73.1818 25.9873ZM75.7586 7.06205C77.5598 6.56926 79.5683 6.97376 81.2297 5.8711C79.3099 5.82127 77.4175 5.88834 75.7586 7.06205ZM84.9683 67.4204C85.5086 68.3396 86.3985 68.5649 87.3811 68.419C87.7355 68.3665 88.2467 68.0742 88.3276 67.79C88.4362 67.4065 88.3395 66.7891 88.0768 66.5161C87.655 66.0777 87.0249 65.8388 86.5704 65.568C85.3216 66.1824 85.3216 66.1824 84.9683 67.4204ZM75.2493 4.3916C77.7764 4.3916 80.0991 4.13886 82.3382 4.46208C84.6286 4.79269 86.8373 5.68789 89.0817 6.33679C87.0988 3.77282 78.4124 2.47502 75.2493 4.3916ZM115.971 21.0888C115.517 21.4538 115.081 21.8428 114.607 22.1791C113.602 22.8909 112.579 23.5752 111.313 24.4428C107.618 24.3579 103.595 24.2651 99.5719 24.1728C98.348 23.9767 97.1265 23.7658 95.9 23.5874C93.2718 23.205 90.6817 22.5643 87.9847 22.6704C86.6352 22.7234 85.2741 22.5082 83.9194 22.3977C82.3293 22.2678 80.7426 22.0817 79.1505 21.9919C78.0283 21.9286 77.0178 22.2049 76.528 23.3896C76.0244 24.6076 76.6961 25.4598 77.4922 26.2012C79.4065 27.9849 81.7414 28.9978 84.2699 29.4773C87.6289 30.1143 91.0047 30.6893 94.3951 31.1211C96.5439 31.3952 98.6943 31.8988 100.918 31.352C101.785 31.1387 102.8 31.3596 103.714 31.5445C105.213 31.8475 106.684 32.2825 108.166 32.6618C108.623 32.9236 109.08 33.186 109.747 33.5687C109.517 34.376 109.42 35.2072 109.056 35.8972C108.292 37.3437 107.843 38.8384 107.755 40.4711C107.718 41.1725 107.571 41.8879 107.349 42.5552C107.038 43.4894 106.415 44.1421 105.449 44.5392C103.178 45.4731 100.858 45.3575 98.6668 44.5764C96.5634 43.8265 94.6122 42.6507 92.5922 41.6661C92.0422 41.3984 91.4844 41.1452 90.8287 41.0643C91.6689 43.0499 93.5497 43.6923 95.2016 44.5714C96.9858 45.5206 98.8673 46.3264 100.941 46.2789C102.889 46.234 104.833 46.0314 106.889 45.891C107.428 48.3057 107.12 50.587 106.148 52.6902C105.1 54.955 104.204 57.2446 103.491 59.6371C102.771 62.0552 101.301 64.1217 99.6543 65.9953C97.4605 68.4916 95.1705 70.9174 92.319 72.7076C91.6233 73.1442 90.8872 73.517 90.0784 73.9702C89.1491 73.2186 88.2729 72.526 87.414 71.8121C83.5555 68.6043 79.3722 65.932 74.7027 64.0457C73.3824 63.5126 72.1037 62.8756 70.7775 62.3586C70.2133 62.1388 69.5757 62.1054 69.0197 61.9965C68.604 62.8951 69.0623 63.189 69.5704 63.419C70.9209 64.0304 72.2943 64.5919 73.6344 65.2243C78.265 67.4092 82.7595 69.8125 86.5243 73.3704C87.6899 74.4719 88.9011 75.5263 90.054 76.6412C93.3591 79.8382 94.3068 83.6543 92.9726 88.0422C91.9651 91.3547 90.4359 94.4234 88.659 97.3862C88.2897 98.0021 88.1789 98.7731 87.9078 99.5984C88.9674 99.9566 89.7785 100.333 90.6307 100.5C94.2274 101.204 97.5108 102.715 100.72 104.391C101.48 104.789 102.132 105.469 102.7 106.134C103.201 106.721 103.272 107.443 102.363 108.108C99.9815 108.278 97.4333 108.243 94.9197 107.717C90.057 106.699 85.2045 105.632 80.3511 104.571C79.6645 104.422 78.9938 104.2 78.3222 104.012C77.9084 102.994 77.9084 102.079 78.3319 101.175C80.2655 97.0448 78.8652 93.526 76.1978 90.35C73.4898 87.1252 70.0089 84.8513 66.39 82.747C63.7466 81.2101 60.9119 80.1938 58.0439 79.2406C52.9902 77.5612 48.5765 74.9302 44.9834 70.9411C42.3236 67.9884 41.8575 64.2168 43.952 60.8332C44.8559 59.3725 45.8481 57.9657 46.8178 56.5463C48.1904 54.5376 49.5124 52.5055 50.0808 50.0995C51.5887 49.5196 52.958 50.2088 54.341 50.3312C57.1111 50.5762 59.8676 50.9708 62.632 51.2835C63.9279 51.4299 65.2492 51.4307 66.5192 51.6908C67.1651 51.8234 67.7744 52.3221 68.3113 52.7639C69.87 54.046 71.5346 55.0117 73.6457 54.8097C77.9156 54.4005 78.8726 53.1758 79.5173 49.2712C79.7331 47.9641 79.5181 46.6693 78.9124 45.4574C78.7049 45.0422 78.5653 44.5928 78.3747 44.1084C79.5076 43.094 80.5938 42.1213 81.7444 41.0912C81.4682 40.7165 81.303 40.4929 81.0264 40.1174C80.1086 40.7491 79.2684 41.3896 78.3644 41.9224C77.9433 42.1704 77.2184 42.4838 76.9391 42.3002C75.0546 41.0594 73.26 41.9802 71.4508 42.3909C70.6451 42.574 69.831 42.8163 69.0945 43.1806C68.2128 43.6171 67.5182 43.3299 66.7431 42.944C64.8358 41.9952 62.8982 41.1077 60.9771 40.1862C60.2393 39.8317 59.5133 39.4513 58.4792 38.9304C59.2755 38.1692 59.8792 37.5712 60.5055 36.9983C61.0739 36.4786 61.6906 36.0107 62.241 35.4737C62.6843 35.041 62.9443 34.5242 62.4484 33.8749C60.7497 34.8627 59.073 35.8489 57.3855 36.8161C55.711 37.7761 53.5663 37.6296 52.0563 38.9147C52.1586 39.7769 52.7056 39.7991 53.2482 39.8613C57.9296 40.3963 62.1055 42.411 66.2905 44.3723C67.1738 44.7861 67.9331 45.4627 68.8878 46.1119C70.128 43.6148 72.4588 43.4853 74.648 43.1116C74.939 43.0618 75.2965 43.3996 75.6148 43.5535C75.2743 44.6108 73.7609 44.2956 73.8358 45.5839C74.4727 46.2586 75.1266 45.7806 75.7292 45.4979C76.4842 45.1444 77.0672 45.1017 77.4797 46.1665C76.5706 46.5128 75.723 46.8357 74.8221 47.179C75.402 48.3449 76.2692 48.0372 76.9837 48.0772C78.0388 48.1363 78.3118 48.6647 78.0609 49.8004C77.0301 49.7172 76.0195 49.6352 74.9445 49.548C74.7539 51.2738 76.5629 50.8805 77.0043 51.9672C76.3946 53.2641 75.0066 52.8583 73.9913 52.9825C72.919 53.1136 71.6844 52.9729 70.7065 52.5356C69.661 52.0682 68.8325 51.1158 67.8174 50.3017C65.9461 50.1666 63.93 50.0861 61.9295 49.8644C56.8639 49.3023 51.8002 48.6708 47.0724 46.6036C46.058 46.1603 45.0232 45.5451 44.2879 44.7437C43.5655 43.9555 42.898 42.8739 42.7512 41.8438C42.2101 38.0426 43.247 34.6729 46.1181 31.9913C47.5955 30.6122 49.1419 29.3043 50.5759 27.8822C51.181 27.282 51.7471 26.5337 52.0357 25.7447C52.8269 23.5786 53.472 21.3584 54.1554 19.1538C54.9039 16.7391 56.063 14.5086 57.7015 12.6242C58.847 11.3062 60.3716 10.3174 62.0549 8.90682C61.9187 10.3903 61.8202 11.4608 61.7217 12.5312C61.8757 12.5598 62.0295 12.5886 62.1838 12.6174C62.3647 12.031 62.6114 11.4564 62.7154 10.8566C63.067 8.82516 63.9433 7.15052 65.8303 6.15927C68.7145 4.64396 71.4954 2.824 74.5375 1.74559C78.2727 0.421644 82.0347 1.09347 85.5014 3.14552C86.4093 3.68245 87.4114 4.07558 88.4005 4.45715C90.5199 5.27411 92.4808 4.35124 94.4487 3.77983C96.56 3.16655 98.6329 2.45891 100.892 2.67376C103.639 2.93522 105.906 4.04602 107.573 6.27313C107.73 6.48286 107.75 6.79472 107.914 7.31138C107.037 7.25226 106.35 7.20623 105.663 7.15981C105.287 6.99839 104.918 6.7195 104.533 6.6943C101.516 6.4948 98.5041 6.55694 95.5191 7.09615C95.3382 7.12911 95.1948 7.37238 94.8763 7.65998C95.7946 7.65998 96.4971 7.6884 97.1966 7.65449C98.9639 7.56942 100.729 7.40175 102.497 7.37503C103.549 7.35893 104.604 7.54688 105.658 7.64274C106.611 7.89586 107.563 8.14898 108.516 8.4021C108.531 8.52639 108.546 8.65105 108.561 8.77515C106.51 8.95362 104.459 9.1319 102.408 9.31018C102.292 9.36399 102.176 9.41761 102.06 9.47141C100.791 9.68569 99.524 9.89979 98.2138 10.1211C97.4613 9.8852 96.6555 9.63208 95.8498 9.37934C96.8063 10.6925 97.9262 11.3069 99.4891 10.633C100.175 10.3369 100.97 10.2937 101.716 10.1357C102.085 10.0451 102.455 9.95416 102.824 9.8636C103.651 9.81566 104.478 9.76811 105.304 9.72056C106.019 9.64231 106.734 9.56406 107.449 9.486C109.058 9.24236 110.26 9.80846 111.009 11.2751C111.128 11.3905 111.248 11.506 111.368 11.6214L111.37 11.6233C111.487 11.7427 111.604 11.8618 111.721 11.9812C111.84 12.1023 111.959 12.2235 112.079 12.3448C111.832 12.5863 111.585 12.8279 111.338 13.0696C110.344 12.7076 109.361 12.3071 108.352 11.9911C106.243 11.3302 104.098 11.6513 102.018 12.0449C100.358 12.359 98.6632 12.8203 97.3759 14.0855C97.1506 13.844 96.9105 13.6138 96.7023 13.358C96.1946 12.7343 95.8175 11.9198 95.1777 11.5047C93.7556 10.5817 92.2055 9.85602 90.707 9.05024C89.6029 7.99779 88.14 7.88885 86.7693 7.72478C82.7232 7.24033 79.1647 8.8551 75.4447 10.4739C75.6184 11.0657 75.6279 11.6627 75.9255 12.0191C77.5045 13.908 78.8618 16.0542 81.3041 17.0207L81.7137 17.3251C81.8395 17.3422 81.9653 17.359 82.0911 17.3759C82.1309 17.2154 82.1709 17.0551 82.2107 16.8949C82.3405 16.9041 82.4701 16.9132 82.6 16.9225C82.6502 17.1813 82.7001 17.4403 82.7505 17.6991C82.8692 17.7643 82.9886 17.8295 83.1074 17.8948C86.5696 18.5034 90.0316 18.1955 93.4938 17.8956C93.6223 17.8357 93.7507 17.7755 93.8792 17.7152C94.5523 17.7359 95.2253 17.7567 95.8984 17.7774C97.7701 19.114 99.7879 20.128 102.066 20.5687C102.505 20.6646 102.945 20.7604 103.384 20.8563L103.416 20.8614C103.76 20.9127 104.104 20.9641 104.448 21.0154C104.61 21.091 104.772 21.1662 104.934 21.2418C106.602 21.2418 108.271 21.2422 109.94 21.2426C110.533 21.228 111.127 21.2134 111.72 21.1992C112.679 21.1221 113.639 21.045 114.598 20.9683C114.714 20.9472 114.831 20.9266 114.948 20.9054L115.069 20.8629L115.198 20.8675C115.379 20.8809 115.56 20.894 115.741 20.9074C115.785 21.0094 115.861 21.07 115.971 21.0888Z" fill="#539836"/>
<path d="M28.9643 66.0191C30.4654 65.6184 31.807 66.0049 32.7988 67.0154C35.2176 69.4796 38.1564 70.6758 41.5293 70.8641C42.4931 70.9179 43.1236 71.3636 43.6054 72.0458C45.4855 74.7083 48.2502 76.2588 50.9431 77.8677C53.9032 79.6365 57.0566 80.9821 60.4362 81.7947C61.6112 82.0774 62.7135 82.6615 64.1835 83.2391C63.5653 83.7103 63.3012 84.0566 62.9702 84.1408C61.0233 84.6351 59.0811 85.3075 57.0998 85.4742C52.4748 85.8628 47.8088 86.05 43.3572 84.3425C40.1563 83.1148 37.4233 81.1388 35.0772 78.6375C34.6701 78.2033 34.265 77.7658 33.8827 77.3102C33.3713 76.701 32.7654 76.4411 31.7759 76.7831C31.4572 77.4248 31.0821 78.2194 30.6725 78.9958C29.7049 80.8279 28.7549 82.6711 27.7205 84.4651C27.4431 84.9462 26.9424 85.3611 26.4498 85.6422C25.356 86.2682 24.5472 85.9897 23.9074 84.9253C23.2147 83.7725 23.224 82.4978 23.4648 81.2816C24.2465 77.3386 25.1148 73.4095 26.6002 69.6544C27.1453 68.2765 27.6741 66.872 28.9643 66.0191Z" fill="#539736"/>
<path d="M110.647 29.1472C110.862 29.4199 111.077 29.6925 111.405 30.1087C111.079 30.8141 110.729 31.5708 110.408 32.2654H108.635C106.697 31.1595 104.528 30.5409 102.384 30.6072C97.0014 30.7741 91.7208 30.1877 86.4767 29.1173C84.6323 28.7406 82.778 28.2996 81.021 27.641C79.363 27.0194 77.8132 26.0886 77.1602 24.3105C77.6994 22.5633 78.4887 22.6273 80.3384 22.7846C82.8747 23 85.4117 23.2145 87.9463 23.4488C89.7125 23.6118 91.4786 23.7832 93.2391 23.996C95.3516 24.2516 97.4582 24.5553 99.5673 24.8379C102.405 24.9586 105.247 25.0236 108.08 25.2237C109.527 25.3262 110.956 25.671 112.424 25.9114V27.954C111.847 28.1041 111.251 28.259 110.655 28.4142C108.383 27.8151 106.124 27.1647 103.835 26.6371C102.459 26.3195 101.034 25.9893 99.6402 26.023C96.7987 26.0908 93.9647 26.4233 91.1251 26.6056C88.2574 26.79 85.4436 26.3847 82.6621 25.7123C82.1142 25.5797 81.5645 25.3825 80.7457 26.1515C82.0155 26.4165 82.9594 26.6162 83.9044 26.8104C87.6669 27.5821 91.4334 27.4608 95.2427 27.113C97.5872 26.8989 100.008 26.9768 102.34 27.3089C105.14 27.7075 107.881 28.5163 110.647 29.1472Z" fill="#A9522B"/>
<path d="M119.402 47.1343C119.128 48.0246 119.027 48.8694 118.628 49.5361C117.848 50.8411 118.022 51.8835 119.192 52.7999C119.188 54.362 119.294 55.8576 121.153 56.515C121.099 56.6374 121.046 56.7598 120.992 56.8824C120.527 56.9453 120.063 57.062 119.598 57.0616C118.135 57.0613 116.667 56.9366 115.21 57.0148C113.958 57.0819 112.892 57.6615 111.835 58.4059C109.956 59.7294 107.859 60.6356 105.344 60.5746C105.579 57.7592 106.453 55.3231 108.183 53.344C108.903 52.5206 110.157 52.0574 111.256 51.6976C112.593 51.2596 113.759 50.6886 114.667 49.5923C115.157 48.9999 115.722 48.466 116.279 47.9329C117.047 47.1989 117.944 46.8302 119.402 47.1343Z" fill="#539536"/>
<path d="M99.5692 24.8398C97.4601 24.5572 95.3533 24.2535 93.2414 23.9981C91.4806 23.7851 89.7144 23.6136 87.9483 23.4507C85.4135 23.216 82.877 23.0015 80.3403 22.7865C78.491 22.6292 77.7011 22.5652 77.1619 24.312C77.8152 26.0905 79.365 27.0213 81.0233 27.6431C82.7802 28.3011 84.6342 28.7425 86.4786 29.1192C91.7225 30.1896 97.0037 30.776 102.386 30.6093C104.529 30.5428 106.699 31.1616 108.637 32.2673C108.48 32.3991 108.324 32.5306 108.168 32.6627C106.686 32.2834 105.214 31.8484 103.716 31.5454C102.801 31.3605 101.786 31.1396 100.92 31.3529C98.6958 31.8997 96.5454 31.3963 94.3966 31.1223C91.0062 30.6902 87.6304 30.1152 84.2714 29.4782C81.7429 28.9989 79.408 27.9858 77.4937 26.2024C76.6975 25.4607 76.0259 24.6089 76.5295 23.3905C77.0193 22.2058 78.0298 21.9295 79.152 21.9928C80.744 22.0826 82.3308 22.2687 83.9209 22.3986C85.2756 22.5095 86.6366 22.7243 87.9862 22.6713C90.6831 22.5655 93.2733 23.2059 95.9015 23.5884C97.128 23.7667 98.3495 23.9776 99.5734 24.1737C99.5719 24.3957 99.5707 24.6178 99.5692 24.8398Z" fill="#1C190B"/>
<path d="M112.271 17.8672C111.899 17.589 111.645 17.2516 111.396 17.255C111.153 17.2584 110.916 17.6103 110.675 17.8092C110.927 18.065 111.141 18.4278 111.445 18.5326C111.598 18.585 111.912 18.1697 112.271 17.8672ZM115.055 17.5343C114.466 16.9915 114.134 16.4447 113.696 16.3392C113.095 16.1946 112.755 16.7185 112.731 17.334C112.705 18.0136 113.007 18.5951 113.699 18.5614C114.081 18.5426 114.439 18.024 115.055 17.5343ZM104.447 21.0154C104.103 20.9637 103.759 20.9124 103.414 20.861C103.751 20.1625 104.342 20.2976 104.949 20.3482C106.348 20.4656 107.751 20.5331 109.253 20.627C107.618 17.2565 108.172 15.49 111.006 14.5404C111.017 14.7782 111.029 15.0164 111.04 15.2541C111.006 15.7861 110.973 16.3492 111.715 16.3774C112.274 16.399 112.57 16.0476 112.485 15.5008C112.446 15.2477 112.227 15.0224 112.089 14.7846C112.093 14.44 112.097 14.0948 112.101 13.75C115.348 15.0976 116.569 16.817 116.206 20.5469L115.969 21.0888C115.86 21.07 115.783 21.0094 115.74 20.9071C115.559 20.894 115.378 20.8805 115.197 20.8671L115.068 20.8625L114.946 20.905C114.83 20.9262 114.713 20.9472 114.596 20.9679C113.637 21.045 112.678 21.1221 111.719 21.1988C111.114 20.7788 110.52 20.7356 109.938 21.2422C108.27 21.2422 106.601 21.2418 104.932 21.2415C104.77 21.1662 104.609 21.0906 104.447 21.0154Z" fill="#0B0C0A"/>
<path d="M110.647 29.1497C107.881 28.5188 105.14 27.71 102.341 27.3114C100.009 26.9793 97.5876 26.9014 95.243 27.1155C91.4338 27.4633 87.6673 27.5846 83.9048 26.8129C82.9597 26.6187 82.0159 26.419 80.7461 26.154C81.5649 25.385 82.1146 25.5822 82.6625 25.7148C85.444 26.3872 88.2578 26.7925 91.1255 26.6081C93.9651 26.4259 96.7991 26.0934 99.6406 26.0255C101.035 25.9918 102.46 26.322 103.836 26.6396C106.124 27.1672 108.384 27.8176 110.656 28.4167C110.653 28.6611 110.65 28.9053 110.647 29.1497Z" fill="#230F08"/>
<path d="M116.205 20.5461C116.568 16.816 115.347 15.097 112.1 13.749C111.845 13.5222 111.591 13.2952 111.336 13.0684C111.583 12.8269 111.829 12.5853 112.077 12.3438C113.023 12.9286 113.982 13.493 114.913 14.1018C116.776 15.3198 117.692 17.7295 117.031 19.7895C116.932 20.0982 116.489 20.2965 116.205 20.5461Z" fill="#4F8439"/>
<path d="M105.657 7.64665C104.603 7.5504 103.548 7.36283 102.496 7.37894C100.728 7.40584 98.9626 7.57314 97.1953 7.6582C96.4956 7.69193 95.7931 7.66408 94.875 7.66408C95.1933 7.37629 95.3363 7.13283 95.5176 7.10024C98.5026 6.56104 101.514 6.49852 104.531 6.69783C104.917 6.7236 105.285 7.00248 105.662 7.1639C105.66 7.32494 105.659 7.48561 105.657 7.64665Z" fill="#1C241A"/>
<path d="M124.747 54.4482C123.234 55.717 121.894 55.5059 121.422 53.983C122.544 53.746 123.634 53.405 124.747 54.4482Z" fill="#4F8439"/>
<path d="M120.824 51.8882C122.622 50.1412 123.79 50.1939 124.228 51.8882H120.824Z" fill="#4F8439"/>
<path d="M120.52 49.739C121.089 48.2504 121.089 48.2504 123.112 48.6167C122.706 50.0166 121.614 49.2637 120.52 49.739Z" fill="#539536"/>
<path d="M90.3161 14.4927C91.3259 14.6213 91.867 14.5434 91.673 13.688C91.6198 13.4531 91.2189 13.2962 90.8108 12.9702C90.6253 13.5412 90.5002 13.9258 90.3161 14.4927ZM92.4002 12.3468C92.3882 11.6684 92.6233 10.8491 91.3953 10.7895C90.6598 11.4035 90.537 12.0202 91.5243 12.7223C91.8291 12.5804 92.137 12.4366 92.4451 12.2932C92.4765 12.4467 92.5731 12.6231 92.5286 12.75C92.284 13.4506 92.393 14.0804 93.0618 14.4087C93.3545 14.5521 93.9412 14.4989 94.1705 14.2899C94.7381 13.7729 94.5736 13.1263 94.1487 12.5524C94.0835 12.4643 93.9642 12.4164 93.866 12.3468H92.4002ZM97.8229 14.5764C97.3688 15.0811 96.8411 15.5406 96.4889 16.1086C96.2907 16.4284 96.3824 16.9278 96.3432 17.3461C96.1941 17.4903 96.0452 17.6343 95.8961 17.7785C95.2229 17.7576 94.5494 17.737 93.8764 17.7163C93.748 17.7762 93.6193 17.8363 93.4913 17.8965C90.0292 18.196 86.567 18.5041 83.105 17.8954C82.9861 17.8306 82.8669 17.7654 82.7479 17.7002C82.6977 17.4412 82.6475 17.1824 82.5977 16.9236C85.0479 17.3323 87.4933 17.8291 90.206 17.3355C88.6094 16.0307 88.283 14.3839 88.5012 12.5871C88.6532 11.3374 89.5605 10.6633 90.616 10.0373C90.5052 9.85713 90.3862 9.66482 90.2678 9.47233C90.4135 9.33194 90.5588 9.19155 90.7047 9.05078C92.2027 9.85713 93.7533 10.5828 95.1754 11.5054C95.8148 11.9207 96.1916 12.7354 96.7 13.3591C96.9082 13.6145 97.1478 13.8445 97.3733 14.0866C97.523 14.25 97.6728 14.4129 97.8229 14.5764Z" fill="#0B0C0A"/>
<path d="M90.7079 9.05348C90.5622 9.19387 90.4167 9.33426 90.271 9.47502C85.3907 7.39475 80.9317 8.86667 76.4068 11.0754C77.6544 13.3357 79.5161 14.8612 81.4131 16.3547C81.3769 16.5775 81.3409 16.8007 81.3046 17.0239C78.8626 16.0578 77.5053 13.9112 75.9264 12.0227C75.6283 11.6661 75.619 11.0693 75.4453 10.4771C79.1656 8.85833 82.724 7.24356 86.7697 7.72801C88.1409 7.89208 89.6033 8.0014 90.7079 9.05348Z" fill="#1C241A"/>
<path d="M97.8244 14.5743C97.6745 14.411 97.5249 14.2477 97.375 14.0842C98.6624 12.8189 100.357 12.358 102.017 12.0439C104.097 11.65 106.243 11.329 108.351 11.9897C109.36 12.3063 110.343 12.7062 111.337 13.0683C111.592 13.2952 111.847 13.522 112.102 13.7486C112.097 14.0938 112.094 14.4386 112.09 14.7838C111.74 14.9403 111.391 15.0966 111.041 15.2531C111.029 15.015 111.018 14.7772 111.007 14.5394C111.147 14.436 111.288 14.3327 111.649 14.0673C106.822 11.8896 102.292 12.0783 97.8244 14.5743Z" fill="#1C241A"/>
<path d="M75.2461 4.39392C78.4089 2.47734 87.0955 3.77496 89.0782 6.33874C86.8339 5.69021 84.6251 4.79463 82.3348 4.46402C80.0957 4.14118 77.7731 4.39392 75.2461 4.39392Z" fill="#1C241A"/>
<path d="M84.9688 67.4227C85.3219 66.1847 85.3219 66.1847 86.5712 65.5703C87.0252 65.8411 87.6553 66.08 88.0772 66.5184C88.34 66.7914 88.437 67.4088 88.3281 67.7923C88.2472 68.0765 87.7358 68.3688 87.3815 68.4213C86.3994 68.5668 85.5091 68.3419 84.9688 67.4227Z" fill="#0B100A"/>
<path d="M95.8945 17.7798C96.0438 17.6356 96.1929 17.4918 96.3422 17.3477C98.2522 18.201 100.163 19.0539 102.073 19.9069C102.069 20.1286 102.065 20.3498 102.062 20.5711C99.784 20.1305 97.7662 19.1165 95.8945 17.7798Z" fill="#1C241A"/>
<path d="M75.7617 7.06168C77.4204 5.88797 79.3128 5.8209 81.2328 5.87073C79.5712 6.97339 77.5627 6.56889 75.7617 7.06168Z" fill="#1C241A"/>
<path d="M73.1836 25.9883C73.7275 26.8446 74.2713 27.701 74.8374 28.5924C73.6949 28.4213 73.3876 28.0148 73.1836 25.9883Z" fill="#1C241A"/>
<path d="M73.66 13.2955C72.8189 13.1233 71.9777 12.9511 71.1367 12.7788C72.1615 12.1722 73.0054 12.3351 73.66 13.2955Z" fill="#1C241A"/>
<path d="M102.062 20.5705C102.066 20.3492 102.07 20.1275 102.074 19.9062C102.71 19.9483 103.409 19.9049 103.381 20.8581C102.942 20.7622 102.502 20.6664 102.062 20.5705Z" fill="#0B0C0A"/>
<path d="M109.941 21.2443C110.523 20.7376 111.118 20.7806 111.722 21.2009C111.128 21.2155 110.535 21.2297 109.941 21.2443Z" fill="#1C241A"/>
<path d="M81.3047 17.0209C81.3407 16.7976 81.3767 16.5744 81.4131 16.3516C81.6789 16.5327 81.9451 16.7136 82.2113 16.8951C82.1713 17.0554 82.1315 17.2157 82.0915 17.3764C81.9657 17.3595 81.8399 17.3426 81.7147 17.3254L81.3047 17.0209Z" fill="#0B0C0A"/>
<path d="M75.5413 29.6506C75.5032 29.6862 75.4653 29.7222 75.4272 29.758C75.3927 29.7184 75.3298 29.6775 75.3321 29.6402C75.3346 29.6019 75.4005 29.5674 75.4384 29.5312C75.4725 29.5712 75.5072 29.6106 75.5413 29.6506Z" fill="#1C241A"/>
<path d="M115.055 17.536C114.439 18.0258 114.082 18.5438 113.699 18.5627C113.008 18.5968 112.706 18.015 112.732 17.3354C112.756 16.7198 113.096 16.1964 113.697 16.3405C114.135 16.4459 114.467 16.9929 115.055 17.536Z" fill="#E5E5E5"/>
<path d="M112.272 17.8661C111.913 18.1686 111.598 18.5839 111.445 18.5315C111.142 18.4267 110.927 18.0639 110.676 17.8081C110.916 17.6092 111.154 17.2573 111.397 17.2539C111.646 17.2505 111.9 17.588 112.272 17.8661Z" fill="#E5E5E5"/>
<path d="M111.042 15.2546C111.391 15.0981 111.741 14.9417 112.09 14.7852C112.228 15.0229 112.447 15.2482 112.487 15.5013C112.572 16.0481 112.275 16.3996 111.717 16.3783C110.975 16.3495 111.007 15.7866 111.042 15.2546Z" fill="#E5E5E5"/>
<path d="M92.4023 12.3468H93.8682C93.9663 12.4157 94.0861 12.4641 94.1513 12.552C94.5758 13.1256 94.7403 13.7723 94.173 14.2893C93.9434 14.4987 93.3565 14.5521 93.0643 14.4087C92.395 14.0803 92.2862 13.4506 92.5308 12.7494C92.5753 12.6224 92.4787 12.4464 92.4472 12.293L92.4023 12.3468Z" fill="#E5E5E5"/>
<path d="M92.4438 12.293C92.1358 12.4364 91.8279 12.5802 91.5231 12.7221C90.5358 12.0198 90.6585 11.4031 91.394 10.7891C92.6221 10.8489 92.387 11.6682 92.3989 12.3466L92.4438 12.293Z" fill="#E5E5E5"/>
<path d="M90.3164 14.4913C90.5006 13.9244 90.6256 13.5398 90.8111 12.9688C91.2192 13.2948 91.6201 13.4517 91.6733 13.6866C91.8673 14.542 91.3262 14.6199 90.3164 14.4913Z" fill="#E5E5E5"/>
</svg>
