<svg width="108" height="108" viewBox="0 0 108 108" fill="none" xmlns="http://www.w3.org/2000/svg">
<mask id="mask0_1054_5129" style="mask-type:alpha" maskUnits="userSpaceOnUse" x="0" y="0" width="108" height="108">
<circle cx="54" cy="54" r="54" fill="#D9D9D9"/>
</mask>
<g mask="url(#mask0_1054_5129)">
<path d="M-0.324219 56.8642V28.6842C19.0342 9.81585 79.9615 9.18282 108.005 11.2249V46.5519L98.3057 63.6029L32.7566 67.789L-0.324219 56.8642Z" fill="white"/>
<path d="M17.5186 56.5761C19.5222 56.5534 21.1314 55.0674 21.1301 53.2414C21.1289 51.5124 19.2933 49.7728 17.5284 49.828C15.6285 49.887 13.9992 51.5137 14.0194 53.3317C14.0394 55.136 15.616 56.5973 17.5186 56.5761ZM84.6919 43.0576C86.9116 43.0478 88.8546 41.1663 88.8795 39.003C88.9051 36.8117 87.1236 35.2922 84.5251 35.2881C82.3375 35.2844 80.8564 36.8307 80.8744 39.1002C80.8921 41.3199 82.5774 43.0674 84.6919 43.0576ZM33.5079 64.6025C34.4117 65.3368 34.895 64.844 35.4288 64.3513C38.283 61.7187 40.4353 58.6158 41.7342 54.9488C42.9365 51.5539 43.9841 48.1102 44.4009 44.5183C44.5985 42.8132 44.3131 41.1622 42.9949 39.9088C41.7501 38.7253 40.4483 37.6007 39.1474 36.4778C38.6379 36.0379 38.0882 35.6056 37.0937 35.6967C37.3271 36.2652 37.4243 36.7392 37.6832 37.0961C40.656 41.1939 41.1061 45.8117 40.4385 50.6301C39.7498 55.6024 37.8496 60.025 34.243 63.6227C33.9855 63.88 33.7995 64.2085 33.5079 64.6025ZM29.3048 49.8931C29.5735 49.8739 30.0591 49.8631 30.538 49.8008C33.6067 49.4004 36.1397 46.5113 35.8546 43.5206C35.5581 40.4085 33.6392 38.1202 30.0111 38.0906C29.3671 38.0857 28.7159 38.0881 28.0796 38.1747C24.3388 38.6842 22.0974 41.9029 22.969 45.4803C23.6569 48.3054 25.826 49.869 29.3048 49.8931ZM105.359 26.9662C105.385 23.0047 101.992 19.5267 98.1446 19.3799C93.8319 19.2153 90.1113 23.1336 90.1047 26.7418C90.096 31.3774 93.7569 34.5873 97.6978 34.643C102.185 34.7063 105.731 31.0521 105.359 26.9662ZM63.3544 27.9595C63.2682 31.3035 64.7542 33.8164 67.6745 35.459C70.6473 37.1315 73.5968 37.0563 76.5314 35.2528C78.8867 33.8054 80.4294 31.6633 81.411 29.2116C82.5582 26.3487 82.5164 23.3837 80.6479 20.7483C78.3116 17.452 74.7918 16.6011 70.7996 17.6109C67.1223 18.5414 62.9343 24.1764 63.3544 27.9595ZM71.2348 58.0304C70.5707 57.5615 70.0984 57.2283 69.6267 56.894C66.5089 54.6851 63.8955 51.9698 62.1639 48.5737C58.2934 40.9841 57.2969 33.0319 59.8607 24.8192C61.0728 20.9353 62.8835 17.3413 66.2104 14.7463C66.5487 14.4825 66.8865 14.2068 67.172 13.8893C67.5215 13.4999 67.448 13.1098 66.9635 12.7374C66.66 12.8268 66.2739 12.8711 65.958 13.0437C63.0807 14.6154 60.1852 16.1766 57.9303 18.6299C53.3225 23.6434 50.1635 29.5251 47.574 35.7737C46.3141 38.8139 45.9422 41.8708 46.5861 45.0688C47.2761 48.4974 48.4461 51.7119 51.1547 54.1001C52.9656 55.6972 54.8007 57.2916 56.777 58.6691C58.3931 59.7961 60.2291 60.6097 61.9768 61.5451C62.8298 62.0017 63.736 62.0489 64.6229 61.6728C66.8442 60.7304 68.9783 59.6254 71.2348 58.0304ZM107.92 12.9696V44.933C106.507 45.5644 105.123 46.275 103.675 46.8145C96.6394 49.4369 89.5661 51.9605 82.5501 54.6355C80.118 55.5626 77.7429 56.6978 75.4699 57.9681C73.1451 59.2668 71.0005 60.8853 68.7306 62.289C67.6479 62.958 66.4568 63.4528 65.3147 64.0268C63.2937 64.1495 61.411 63.6772 59.6583 62.6823C56.1185 60.673 52.92 58.2183 50.0281 55.3517C48.7386 54.0738 47.3782 52.8667 46.0378 51.6413C45.9016 51.5165 45.6804 51.4855 45.3921 51.3673C44.5871 53.4752 43.813 55.5024 43.0393 57.5295C42.6741 58.2434 42.3507 58.9822 41.9368 59.666C40.3799 62.2364 38.6187 64.6382 36.0249 66.2759C35.5891 66.5512 35.0602 66.7876 34.5573 66.8281C32.5882 66.9873 30.6123 67.1444 28.6385 67.1519C18.9262 67.187 9.21387 67.174 -0.498016 67.1781C-0.513535 61.424 -0.529055 55.6702 -0.539061 49.9162C-0.539469 49.8292 -0.469223 49.7422 -0.431446 49.6548C2.49172 51.305 4.72182 51.503 7.55677 50.296C10.1706 49.1833 12.1715 47.3391 13.5103 44.8567C16.1059 40.0442 13.3453 33.6872 8.1222 32.5314C5.49493 31.9504 2.88215 32.1581 0.471539 33.5542C0.183409 33.7213 -0.137802 33.8315 -0.448395 33.9702V29.191C-0.240312 29.1471 0.0124912 29.1641 0.169932 29.0495C2.36287 27.4586 4.83392 26.4361 7.3448 25.4864C9.55612 24.6498 11.787 23.9093 14.1876 23.9073C15.9624 23.9056 17.7385 23.8895 19.5124 23.9371C22.2432 24.0098 24.7954 24.8409 27.179 26.0922C32.4703 28.8698 37.2709 32.385 41.9002 36.1439C42.4579 36.5964 43.1028 36.9413 43.6398 37.2922C43.9045 37.0978 44.0239 37.053 44.0711 36.9681C44.3821 36.4063 44.6947 35.8444 44.9753 35.2671C47.2087 30.6782 49.6736 26.228 52.6785 22.0872C54.3206 19.8242 55.9581 17.5801 58.2873 15.9395C60.7385 14.213 63.0566 12.2834 65.7938 10.9978C72.0438 8.06155 78.6443 6.655 85.5339 6.55249C86.4471 6.53901 87.376 6.48694 88.272 6.6211C90.5432 6.9611 92.7996 7.39932 95.0628 7.79486C98.8508 8.45647 102.392 9.76746 105.674 11.7821C106.394 12.2244 107.17 12.5761 107.92 12.9696Z" fill="#030302"/>
<path d="M65.3125 64.0274C66.4548 63.4536 67.6453 62.9588 68.7284 62.2896C70.9984 60.8861 73.1429 59.2676 75.4679 57.9687C77.7407 56.6985 80.1158 55.5632 82.5475 54.6361C89.5635 51.961 96.6372 49.4375 103.673 46.8151C105.121 46.2756 106.505 45.565 107.918 44.9336V51.0678C107.256 50.9892 106.794 51.3247 106.395 51.7962C105.391 52.979 104.363 54.1425 103.384 55.3453C101.021 58.2464 98.7855 61.2594 96.3046 64.0545C93.0713 67.6965 89.0097 70.3338 84.772 72.6443C79.5426 75.4956 73.9138 77.3759 68.1573 78.8119C64.1343 79.8153 60.0574 80.6338 55.9721 81.3468C53.0348 81.8594 50.0506 82.2208 47.0737 82.3619C43.2266 82.5449 39.3869 82.4258 35.5412 81.8159C30.5625 81.026 25.7301 79.8314 21.0889 77.8748C16.7147 76.031 12.316 74.2526 7.68486 73.1493C4.99183 72.5081 2.28614 71.9004 -0.496324 71.7707C-0.497549 70.24 -0.498775 68.7093 -0.5 67.1786C9.21189 67.1746 18.924 67.1878 28.6363 67.1525C30.6101 67.1451 32.586 66.9879 34.5553 66.8288C35.0583 66.7882 35.5871 66.5519 36.0227 66.2765C38.6165 64.6388 40.3777 62.2371 41.9344 59.6668C42.3487 58.9827 42.672 58.2439 43.0371 57.5301C44.451 57.4206 45.6637 57.8159 46.5563 58.9685C47.0092 59.5535 47.438 60.1573 47.8659 60.7614C49.4782 63.0362 51.3545 65.0071 53.7414 66.5272C55.4591 67.6213 57.3607 67.5427 59.2144 67.8372C59.445 67.8741 59.708 67.6814 59.9606 67.6107C61.9373 67.0577 63.4529 65.708 65.1112 64.6087C65.247 64.5189 65.2486 64.2261 65.3125 64.0274Z" fill="#55873A"/>
<path d="M107.922 54.2928V71.0818C107.724 71.1189 107.474 71.0928 107.338 71.2047C106.551 71.8514 105.815 72.559 105.02 73.193C102.091 75.5256 99.222 77.9426 96.1898 80.1327C91.7539 83.3364 86.9702 85.9592 81.952 88.1623C75.8312 90.85 69.4268 92.3795 62.7985 93.0499C61.0967 93.2219 59.3916 93.3756 57.6849 93.4871C54.9608 93.6652 52.2329 93.9386 49.5088 93.918C46.4621 93.8955 43.4174 93.5898 40.3722 93.4085C36.6318 93.1861 32.892 92.9435 29.15 92.7504C25.9258 92.5837 22.7709 91.9954 19.7499 90.9123C14.7235 89.11 9.75256 87.1507 4.76328 85.2432C3.05961 84.5922 1.34084 84.0293 -0.507812 84.006C-0.506996 80.8825 -0.506179 77.7588 -0.505362 74.6351C0.396806 74.7278 1.29857 74.832 2.20196 74.9108C5.83452 75.2271 9.39276 75.9369 12.824 77.1554C15.8931 78.245 18.8908 79.5343 21.9449 80.6697C25.5523 82.0107 29.2519 83.0664 33.066 83.5949C36.292 84.0417 39.5384 84.3978 42.7881 84.5878C44.807 84.7058 46.8474 84.3948 48.8795 84.3584C51.8845 84.3041 54.8361 83.8504 57.795 83.3795C63.7552 82.4306 69.6589 81.239 75.3137 79.0886C81.0185 76.9185 86.6339 74.553 91.5082 70.7432C93.6987 69.0312 95.9805 67.4237 97.7779 65.2773C100.527 61.9943 103.242 58.6809 105.922 55.3414C106.471 54.6571 107.013 54.1844 107.922 54.2928Z" fill="#B05229"/>
<path d="M107.921 74.3125V89.1642C106.538 89.2015 105.609 90.1932 104.527 90.8294C101.346 92.7006 98.2673 94.7544 95.0335 96.5267C92.4628 97.9361 89.7157 99.0212 87.06 100.278C83.1896 102.11 79.2617 103.786 75.01 104.511C71.9631 105.032 68.9066 105.804 65.8428 105.864C55.9528 106.057 46.0575 105.999 36.1647 105.976C34.0257 105.972 31.8771 105.799 29.7507 105.551C27.0503 105.236 24.3598 104.812 21.6802 104.347C18.3695 103.773 15.0724 103.121 11.9191 101.9C8.3331 100.512 4.73994 99.1409 1.14638 97.7723C0.602794 97.5655 0.03899 97.4134 -0.515625 97.2357C-0.509907 93.8896 -0.503781 90.543 -0.497859 87.1969C0.388177 87.3798 1.27483 87.5604 2.16025 87.747C5.83774 88.523 9.31368 89.9297 12.7635 91.3467C18.9968 93.9072 25.442 95.4769 32.1556 95.8871C37.181 96.1945 42.2134 96.4414 47.2464 96.571C53.9412 96.7434 60.6254 96.6909 67.2405 95.3276C73.2825 94.082 79.1533 92.3175 84.6784 89.5871C92.1428 85.8984 98.8666 81.0404 105.44 75.9692C106.225 75.3631 107.092 74.8622 107.921 74.3125Z" fill="#B05229"/>
<path d="M107.916 4.25191V10.709C107.4 10.4605 106.793 10.3126 106.384 9.94468C104.789 8.50831 102.829 7.80279 100.857 7.18896C99.0997 6.64169 97.2813 6.22635 95.4598 5.9619C92.4188 5.52082 89.3602 5.15163 86.2964 4.94028C84.664 4.82776 82.9983 5.25577 81.359 5.18266C78.5506 5.05769 75.8371 5.68868 73.1696 6.27107C68.337 7.32639 63.6705 8.89936 59.7329 12.1588C57.2398 14.2229 55.0237 16.5331 53.0767 19.0764C51.1751 21.561 49.5107 24.2276 47.7576 26.8251C47.4166 27.3297 47.1478 27.8833 46.8456 28.4146C46.5693 27.0824 46.6559 25.8492 46.5522 24.6326C46.2957 21.6373 47.1995 18.8142 48.0169 16.0487C48.9757 12.8031 50.3994 9.69943 52.599 7.01212C54.2706 4.9707 56.0633 3.1486 58.4639 1.94197C59.4272 1.45841 60.4184 0.785973 60.4676 -0.536853C60.8415 -0.554414 61.2156 -0.5877 61.5893 -0.5877C73.9715 -0.590558 86.3544 -0.590558 98.7366 -0.5877C99.1103 -0.5877 99.4844 -0.553598 99.8583 -0.535628C100.721 0.325496 101.683 0.990992 102.879 1.36101C104.361 1.81863 105.673 2.62257 106.849 3.64951C107.15 3.91252 107.557 4.05444 107.916 4.25191Z" fill="#56893A"/>
<path d="M60.4726 -0.535156C60.4234 0.787466 59.4322 1.45991 58.4689 1.94407C56.0683 3.1503 54.2756 4.97219 52.604 7.01422C50.4044 9.70133 48.9806 12.805 48.0219 16.0502C47.2045 18.8159 46.3007 21.639 46.5572 24.6343C46.6609 25.8507 46.5743 27.0841 46.8506 28.4161C47.1528 27.8848 47.4216 27.3318 47.7626 26.8268C49.5157 24.2293 51.1801 21.5627 53.0821 19.0781C55.0287 16.5348 57.2447 14.2246 59.7379 12.161C63.6755 8.90085 68.3419 7.32808 73.1746 6.27276C75.8421 5.69017 78.5555 5.05919 81.364 5.18436C83.0033 5.25747 84.669 4.82986 86.3014 4.94238C89.3652 5.15312 92.4238 5.52232 95.4648 5.96339C97.2863 6.22804 99.1047 6.64319 100.862 7.19045C102.834 7.80428 104.794 8.51001 106.389 9.94637C106.798 10.3143 107.405 10.462 107.921 10.7107V12.9708C107.171 12.5773 106.395 12.2257 105.675 11.7836C102.393 9.76871 98.8519 8.45794 95.0635 7.79612C92.8009 7.40057 90.5445 6.96236 88.2732 6.62236C87.3767 6.4882 86.4482 6.54027 85.5346 6.55375C78.6454 6.65646 72.045 8.0628 65.7951 10.999C63.0578 12.2849 60.7397 14.2144 58.2884 15.9407C55.9593 17.5813 54.322 19.8255 52.6796 22.0887C49.6747 26.2295 47.21 30.6795 44.9764 35.2683C44.6959 35.8456 44.3832 36.4078 44.0722 36.9693C44.0251 37.0543 43.9056 37.099 43.6409 37.2934C43.1039 36.9428 42.459 36.5977 41.9015 36.1452C37.2721 32.3858 32.4715 28.8711 27.1799 26.0935C24.7967 24.8424 22.2444 24.011 19.5136 23.9381C17.7396 23.891 15.9635 23.9069 14.1888 23.9085C11.7884 23.9106 9.55724 24.651 7.34593 25.4872C4.83505 26.4374 2.36399 27.4594 0.170648 29.0508C0.0136157 29.1653 -0.239188 29.1484 -0.447066 29.1923C-0.472592 28.0871 -0.497912 26.9818 -0.523438 25.8762C0.967856 25.9089 2.21472 25.1193 3.52754 24.6063C7.19788 23.1722 10.9726 22.1859 14.9076 22.0489C17.1328 21.9713 19.3908 22.0807 21.5964 22.3827C25.6529 22.9373 29.2063 24.7692 32.506 27.1366C33.6211 27.936 34.7859 28.6669 35.928 29.4287C36.6349 29.9842 37.4189 30.4659 38.0331 31.1095C39.3566 32.4967 40.9998 33.3492 42.7102 34.0934C43.1494 34.2847 43.6993 34.2222 44.3271 34.29C44.3271 33.6704 44.3389 33.2512 44.3248 32.833C44.2154 29.5846 44.1312 26.3345 43.963 23.0893C43.927 22.3978 43.5783 21.7234 43.3734 21.0411C43.6011 18.6965 43.7784 16.3457 44.0784 14.0104C44.2268 12.853 44.5239 11.7195 45.1578 10.6746C47.0548 7.54617 49.5197 4.95708 52.5217 2.90566C54.3269 1.67248 56.2548 0.619203 58.1275 -0.514735C58.9092 -0.521678 59.6911 -0.528213 60.4726 -0.535156Z" fill="#74A75B"/>
<path d="M107.922 74.3148C107.093 74.8645 106.226 75.3654 105.44 75.9715C98.8675 81.0427 92.1437 85.9007 84.6793 89.5894C79.1542 92.3198 73.2833 94.0843 67.2414 95.3299C60.6262 96.6932 53.9421 96.7457 47.2473 96.5733C42.2143 96.4436 37.1819 96.1968 32.1565 95.8894C25.4429 95.4792 18.9976 93.9095 12.7643 91.349C9.31455 89.932 5.83861 88.5253 2.16112 87.7493C1.27569 87.5627 0.389047 87.3821 -0.496989 87.1992C-0.500869 86.1361 -0.504545 85.0736 -0.507812 84.0106C1.34084 84.0336 3.05961 84.5964 4.76328 85.248C9.75256 87.1553 14.7235 89.1148 19.7499 90.9171C22.7709 92.0002 25.9258 92.5881 29.15 92.7547C32.892 92.9483 36.6318 93.1907 40.3722 93.4131C43.4174 93.5944 46.4621 93.9001 49.5088 93.9226C52.2329 93.9428 54.9608 93.67 57.6849 93.4915C59.3916 93.3798 61.0967 93.2264 62.7985 93.0541C69.4268 92.3837 75.8312 90.8542 81.952 88.1671C86.9702 85.9635 91.7539 83.341 96.1898 80.1372C99.222 77.9472 102.091 75.5304 105.02 73.1976C105.815 72.5638 106.551 71.8556 107.338 71.2095C107.474 71.0974 107.724 71.1237 107.922 71.0859V74.3148Z" fill="#0A0403"/>
<path d="M-0.507812 74.6409C-0.50332 73.685 -0.499236 72.7292 -0.494744 71.7733C2.28772 71.903 4.99341 72.5101 7.68644 73.1517C12.3176 74.2546 16.7163 76.033 21.0907 77.8771C25.7321 79.8338 30.5641 81.028 35.5432 81.8182C39.3885 82.4282 43.2284 82.5468 47.0757 82.3643C50.0526 82.2228 53.0366 81.8617 55.9741 81.3488C60.0596 80.6363 64.1359 79.8173 68.1591 78.8138C73.9153 77.3783 79.5448 75.4976 84.7736 72.6467C89.0117 70.3357 93.0732 67.6984 96.3062 64.0565C98.7875 61.2613 101.023 58.2487 103.385 55.3474C104.365 54.1449 105.392 52.9809 106.396 51.7982C106.796 51.3267 107.258 50.9916 107.919 51.07V54.2986C107.011 54.19 106.469 54.6629 105.92 55.3474C103.239 58.687 100.525 62 97.7754 65.2831C95.9784 67.4293 93.6961 69.0372 91.5056 70.7492C86.6313 74.5586 81.0159 76.9245 75.3111 79.094C69.6565 81.245 63.7532 82.4362 57.7923 83.3855C54.8334 83.8564 51.8821 84.3101 48.8772 84.3638C46.8448 84.4004 44.8046 84.7118 42.7856 84.5938C39.5364 84.4032 36.2893 84.0475 33.064 83.6007C29.2497 83.0725 25.5499 82.0167 21.9425 80.6755C18.8888 79.54 15.8905 78.251 12.8213 77.1612C9.39072 75.9427 5.83207 75.2331 2.19992 74.9168C1.29612 74.838 0.394764 74.7336 -0.507812 74.6409Z" fill="#080603"/>
<path d="M-0.469271 100.088C-0.484994 99.1371 -0.500106 98.1862 -0.515625 97.2356C0.0389899 97.4132 0.60259 97.5654 1.14577 97.7722C4.73974 99.1408 8.33248 100.512 11.9187 101.9C15.0724 103.121 18.3693 103.773 21.6802 104.347C24.3595 104.812 27.0501 105.235 29.7505 105.551C31.8765 105.799 34.0251 105.972 36.1643 105.976C46.0573 105.999 55.9526 106.057 65.8425 105.864C68.9064 105.804 71.9625 105.031 75.01 104.511C79.2615 103.786 83.1894 102.11 87.0598 100.278C89.7151 99.0211 92.4628 97.936 95.0335 96.5266C98.2673 94.7543 101.346 92.7004 104.527 90.8293C105.609 90.193 106.538 89.2014 107.921 89.1641V91.4242C107.311 91.7572 106.675 92.0511 106.096 92.4317C104.489 93.4903 102.948 94.6571 101.304 95.652C96.6655 98.4565 91.7165 100.638 86.726 102.72C82.5059 104.48 78.2564 106.169 74.0205 107.89H25.5909C25.0493 107.795 24.5074 107.7 23.9658 107.606C23.5542 107.503 23.1472 107.377 22.7312 107.302C16.1718 106.12 9.95835 103.81 3.74037 101.509C2.352 100.995 0.934624 100.56 -0.469271 100.088Z" fill="#080503"/>
<path d="M74.0156 107.896C78.252 106.175 82.5015 104.486 86.7211 102.726C91.712 100.644 96.6611 98.4624 101.299 95.6575C102.944 94.6628 104.484 93.4962 106.092 92.4376C106.671 92.057 107.306 91.7632 107.916 91.4297V104.344C107.569 104.434 107.158 104.435 106.885 104.629C105.666 105.499 104.481 106.417 103.302 107.341C103.165 107.449 103.147 107.707 103.073 107.896H74.0156Z" fill="#55873A"/>
<path d="M-0.471017 100.09C0.932878 100.562 2.35025 100.997 3.73863 101.511C9.9566 103.812 16.1701 106.122 22.7295 107.304C23.1454 107.379 23.5524 107.505 23.9641 107.608C23.9698 107.702 23.9735 107.797 23.9751 107.892H-0.5625C-0.532278 105.291 -0.501443 102.69 -0.471017 100.09Z" fill="#55863A"/>
<path d="M99.8594 -0.534505C102.545 -0.552883 105.231 -0.571465 107.917 -0.589844V4.25303C107.558 4.05557 107.151 3.91365 106.85 3.65063C105.674 2.6237 104.362 1.81975 102.881 1.36213C101.684 0.992115 100.723 0.326619 99.8594 -0.534505Z" fill="#436E2D"/>
<path d="M103.074 107.891C103.148 107.703 103.166 107.444 103.303 107.337C104.482 106.413 105.668 105.495 106.886 104.625C107.159 104.431 107.57 104.43 107.917 104.34V107.891H103.074Z" fill="#030602"/>
<path d="M23.9759 107.894C23.9742 107.799 23.9706 107.704 23.9648 107.609C24.5068 107.704 25.0483 107.799 25.5903 107.894H23.9759Z" fill="#426C2D"/>
<path d="M65.3145 64.0267C65.2506 64.2254 65.249 64.5183 65.1132 64.6081C63.4549 65.7073 61.9393 67.0571 59.9626 67.6101C59.71 67.6807 59.447 67.8735 59.2164 67.8366C57.3627 67.5421 55.4611 67.6207 53.7434 66.5266C51.3565 65.0065 49.4802 63.0355 47.8678 60.7607C47.44 60.1567 47.0112 59.5529 46.5583 58.9678C45.6657 57.8153 44.453 57.42 43.0391 57.5294C43.8128 55.5023 44.5871 53.4752 45.3919 51.3672C45.6804 51.4854 45.9016 51.5165 46.0378 51.6412C47.3782 52.8666 48.7386 54.0737 50.0279 55.3518C52.92 58.2182 56.1185 60.6729 59.6577 62.6825C61.4108 63.6773 63.2931 64.1495 65.3145 64.0267Z" fill="#426C2D"/>
<path d="M33.5078 64.6018C33.7998 64.2079 33.9854 63.8789 34.2429 63.622C37.85 60.024 39.7501 55.6013 40.4389 50.6292C41.1064 45.8106 40.6563 41.193 37.6836 37.0948C37.4246 36.7383 37.3274 36.2645 37.0936 35.6958C38.0881 35.6048 38.6378 36.0373 39.1477 36.4771C40.4483 37.5996 41.7501 38.7246 42.9949 39.9081C44.313 41.1615 44.5985 42.8123 44.4008 44.5174C43.984 48.1089 42.9365 51.5528 41.7341 54.9481C40.4352 58.6152 38.2833 61.718 35.4292 64.3506C34.8954 64.8429 34.4116 65.3357 33.5078 64.6018Z" fill="#F3F3F3"/>
<path d="M17.515 56.5736C15.6125 56.5948 14.0358 55.1335 14.0158 53.3292C13.9956 51.5112 15.6249 49.8845 17.5248 49.8255C19.2898 49.7704 21.1253 51.51 21.1266 53.2389C21.1278 55.0649 19.5187 56.5509 17.515 56.5736Z" fill="#F5F5F5"/>
<path d="M-0.523438 25.8776C-0.518945 24.1627 -0.514044 22.4478 -0.509552 20.7333C1.81959 20.1254 3.82016 18.8785 5.72496 17.4685C5.97899 17.2804 6.05557 16.8534 6.21403 16.5371C7.65121 16.4144 9.08757 16.2786 10.526 16.1761C11.1147 16.1342 11.7112 16.1986 12.2999 16.1542C13.5159 16.0628 13.927 15.6842 14.2351 14.421C13.6685 13.7941 12.9337 13.6197 12.0869 13.6046C9.45922 13.5574 6.85278 13.7259 4.26941 14.2166C3.9629 14.0205 3.66129 13.8161 3.34947 13.6291C1.41302 12.4672 0.6056 9.98875 2.0924 8.18645C2.66396 7.49441 3.04419 6.64309 3.62311 5.9588C4.64187 4.75462 5.49687 3.43281 6.79785 2.42997C7.7627 1.68626 8.37572 0.485348 9.14536 -0.51157C11.3851 -0.536483 13.6252 -0.582837 15.8647 -0.582021C19.9732 -0.580387 24.0816 -0.550573 28.1899 -0.532399C29.2428 1.12328 30.3626 2.74138 31.3232 4.44893C31.8933 5.46238 32.2052 6.63696 32.0071 7.8291C31.7188 9.56502 31.1333 11.2303 30.0874 12.642C28.9445 14.1847 27.6878 15.6419 25.5631 15.927C24.2129 16.1079 22.8847 16.455 21.4751 16.7425C21.1523 17.6833 22.0406 17.8275 22.5911 18.0923C26.9621 20.1971 30.7435 23.1088 34.122 26.5484C34.9088 27.3488 35.9063 28.1099 35.9284 29.4301C34.7863 28.6678 33.6215 27.9376 32.5064 27.1375C29.2067 24.7704 25.6529 22.9389 21.597 22.3839C19.3914 22.0823 17.1328 21.9728 14.908 22.0502C10.9728 22.1872 7.19788 23.1731 3.52754 24.6074C2.21513 25.1208 0.967856 25.9104 -0.523438 25.8776Z" fill="#56883A"/>
<path d="M35.9241 29.4318C35.9021 28.1116 34.9047 27.3506 34.1181 26.5501C30.7392 23.1105 26.9578 20.1988 22.5872 18.0941C22.0367 17.8292 21.148 17.685 21.4713 16.7443C22.8809 16.4568 24.2086 16.1096 25.5588 15.9287C27.6835 15.6436 28.9402 14.1864 30.0833 12.6433C31.129 11.232 31.7145 9.56676 32.0032 7.83083C32.2011 6.63869 31.8893 5.46412 31.3193 4.45066C30.3586 2.74312 29.2389 1.12501 28.1856 -0.530664C31.838 -0.532298 35.4898 -0.533523 39.1415 -0.535156C39.0225 0.0259931 39.0529 0.686998 38.7578 1.13134C37.6313 2.82766 37.7187 4.77493 37.578 6.64074C37.4718 8.0479 37.6723 9.49815 37.8865 10.9063C38.3903 14.2187 39.8034 17.1966 41.4619 20.0691C42.0966 21.5183 42.0966 21.5183 43.3698 21.044C43.5744 21.7262 43.9232 22.4011 43.9593 23.0921C44.1276 26.3377 44.2115 29.5874 44.3211 32.8359C44.335 33.2543 44.3228 33.6737 44.3228 34.2931C43.6955 34.2251 43.1453 34.2878 42.7059 34.0966C40.9959 33.3521 39.3523 32.5 38.0292 31.1128C37.415 30.4686 36.6311 29.987 35.9241 29.4318Z" fill="#436E2D"/>
<path d="M43.3704 21.0402C42.0974 21.514 42.0974 21.514 41.4627 20.0654C41.4405 19.1652 41.4213 18.2647 41.3962 17.3646C41.3339 15.0867 41.4636 12.8364 42.3398 10.6916C42.8411 9.93425 43.2769 9.12193 43.857 8.43009C45.3381 6.66313 46.9201 4.98029 48.3905 3.20454C49.373 2.01731 50.2329 0.728174 51.1483 -0.515217C53.4736 -0.515217 55.799 -0.515625 58.1245 -0.515625C56.2515 0.618313 54.3232 1.67139 52.5185 2.90518C49.5167 4.95599 47.0518 7.54528 45.1547 10.6735C44.5209 11.719 44.2238 12.8521 44.0753 14.0093C43.7753 16.3446 43.5981 18.6956 43.3704 21.0402Z" fill="#050804"/>
<path d="M42.3412 10.6956C41.4649 12.8405 41.3353 15.0909 41.3975 17.3685C41.4223 18.2687 41.4419 19.1692 41.4637 20.0693C39.8054 17.1966 38.3925 14.2189 37.8887 10.9065C37.6745 9.49794 37.4738 8.0481 37.5802 6.64053C37.7205 4.77493 37.6335 2.82786 38.7601 1.13134C39.0549 0.686589 39.0247 0.0261974 39.1436 -0.535156C42.2625 -0.535156 45.3817 -0.535156 48.5005 -0.534748C48.6069 0.405606 48.426 1.24917 47.756 1.97164C46.892 2.90342 46.0713 3.87603 45.2106 4.81108C43.9511 6.17903 42.8603 7.65052 42.2211 9.41892C42.0598 9.8651 41.8207 10.3152 42.3412 10.6956Z" fill="#55883A"/>
<path d="M9.14118 -0.509249C8.37154 0.488078 7.75852 1.68899 6.79367 2.4329C5.49269 3.43554 4.6381 4.75694 3.61892 5.96153C3.04001 6.64581 2.65978 7.49673 2.08863 8.18938C0.601826 9.99127 1.40884 12.4697 3.3457 13.6314C3.65752 13.8186 3.95872 14.0228 4.26522 14.2195C2.67734 14.681 1.08967 15.1429 -0.498011 15.6048C-0.501278 11.0619 -0.504545 6.519 -0.507812 1.97631C0.858305 1.61344 2.07352 1.08067 2.32285 -0.539062C4.59583 -0.529261 6.8682 -0.519051 9.14118 -0.509249Z" fill="#76AB5C"/>
<path d="M-0.496206 15.5989C1.09147 15.137 2.67915 14.6753 4.26682 14.2134C6.8504 13.7227 9.45684 13.5542 12.0845 13.6014C12.9314 13.6165 13.6665 13.7904 14.2327 14.4173C13.925 15.6805 13.5139 16.0591 12.2975 16.151C11.7092 16.1953 11.1127 16.131 10.5238 16.1729C9.08519 16.2754 7.64924 16.4112 6.21206 16.5335C5.74832 16.5999 5.28069 16.6458 4.82205 16.7361C3.03201 17.0881 1.24483 17.4545 -0.542969 17.8155C-0.527449 17.0767 -0.51193 16.3377 -0.496206 15.5989Z" fill="#050804"/>
<path d="M42.341 10.6952C41.8205 10.3148 42.0597 9.86469 42.221 9.41851C42.8601 7.65011 43.951 6.17863 45.2105 4.81067C46.0712 3.87563 46.8919 2.90301 47.7559 1.97123C48.4259 1.24876 48.6068 0.405198 48.5004 -0.535156C49.3834 -0.527192 50.2664 -0.519432 51.1491 -0.511673C50.2343 0.731719 49.3744 2.02085 48.3914 3.20829C46.9213 4.98383 45.3394 6.66667 43.8579 8.43384C43.2781 9.12548 42.8426 9.9378 42.341 10.6952Z" fill="#71A159"/>
<path d="M-0.542969 17.8132C1.24483 17.4522 3.03201 17.0859 4.82205 16.7338C5.28069 16.6436 5.74852 16.5976 6.21206 16.5312C6.05319 16.8476 5.97661 17.275 5.723 17.4624C3.81819 18.873 1.81721 20.1193 -0.51193 20.7274C-0.52214 19.7562 -0.532759 18.7848 -0.542969 17.8132Z" fill="#73A55A"/>
<path d="M2.32326 -0.539062C2.07392 1.08067 0.858713 1.61344 -0.507812 1.97631V-0.539062H2.32326Z" fill="#47702F"/>
</g>
</svg>
