<svg width="150" height="110" viewBox="0 0 150 110" fill="none" xmlns="http://www.w3.org/2000/svg">
<path d="M106.691 32.8969L106.614 33.0094L106.746 33.0223L106.691 32.8969ZM126.496 79.7997C126.647 78.2174 126.794 76.9692 126.88 75.7175C126.958 74.5859 126.295 73.8755 125.304 73.571C124.314 73.2665 123.266 73.1493 122.266 72.9541C122.222 76.1289 124.268 77.8218 126.496 79.7997ZM123.135 79.3249C122.671 80.7291 122.229 82.0642 121.765 83.4669C123.088 84.9733 123.703 86.7362 123.654 88.6619C124.375 88.8642 124.942 89.0228 125.751 89.2493C125.908 88.6276 126.201 88.0796 126.146 87.5681C125.957 85.7897 125.698 84.0136 125.366 82.2554C125.139 81.0526 124.513 80.0501 123.135 79.3249ZM118.519 63.9847C119.9 66.1787 120.941 68.2522 121.492 70.5573C121.595 70.9842 122.159 71.5788 122.549 71.6096C124.097 71.7308 125.661 71.6596 127.226 71.6596C127.937 70.1997 128.4 68.7939 128.371 67.2467C128.344 65.8491 127.94 65.1278 126.609 64.9279C123.993 64.5361 121.353 64.3054 118.519 63.9847ZM128.052 63.1784C128.623 62.5239 129.088 62.1151 129.399 61.6116C130.572 59.7148 129.445 57.6481 127.244 57.5161C123.722 57.3047 120.22 57.4395 116.82 58.4093C111.564 59.9082 106.175 60.4325 100.76 60.7372C96.4714 60.9785 92.1717 61.0147 87.8805 61.2174C86.5062 61.282 85.1389 61.5628 83.7761 61.7869C80.6912 62.2946 77.6204 62.9005 74.5245 63.3255C72.5561 63.5961 70.5481 63.563 68.5674 63.7615C67.0141 63.9172 65.4407 64.0897 63.9391 64.4891C62.1733 64.9587 61.2075 66.6232 61.8005 68.3076C62.1388 69.2671 62.8929 70.2449 63.7281 70.8345C67.054 73.1841 70.873 74.4438 74.8903 74.5758C79.6002 74.7306 84.3279 74.4856 89.0432 74.2943C93.1434 74.128 97.238 73.8071 101.334 73.5306C103.351 73.3948 105.233 73.0377 106.52 71.1533C107.478 69.752 108.977 69.0733 110.656 68.7707C111.168 68.6786 111.828 68.4782 112.089 68.0992C112.94 66.8616 113.64 65.519 114.423 64.1729C108.731 63.6912 103.398 64.4644 98.2078 66.3023C94.3477 67.6684 90.4084 68.7185 86.4202 69.6777C81.3246 70.9041 76.2047 70.5239 71.083 70.6172C70.6374 70.6252 70.1858 70.2885 69.7703 70.1246C70.0324 69.0434 70.6874 69.1402 71.2844 69.1397C73.164 69.1379 75.0435 69.1583 76.9227 69.1421C80.8596 69.1083 84.744 68.6116 88.5379 67.5739C93.4716 66.2252 98.3906 64.8191 103.294 63.3635C106.348 62.4569 109.469 62.3122 112.608 62.3439C115.145 62.3691 117.68 62.5392 120.216 62.6446C120.761 62.6674 121.307 62.6749 121.85 62.7144C123.895 62.8615 125.938 63.0191 128.052 63.1784ZM109.031 32.0558C108.467 32.1707 107.903 32.2856 107.338 32.4007C107.394 32.5663 107.449 32.7322 107.504 32.8978C108.025 32.6309 108.546 32.3641 109.068 32.0972C109.27 32.0558 109.472 32.015 109.674 31.9736C109.649 31.8926 109.624 31.8108 109.6 31.729C109.41 31.8383 109.221 31.9471 109.031 32.0558ZM102.45 34.9318C102.21 35.0592 101.97 35.1863 101.73 35.3141C99.2359 36.4587 97.5448 38.2695 96.9843 41.0201C95.8461 42.4087 95.6912 44.1392 95.3226 45.7957C95.0017 47.0754 94.5349 48.3405 94.9232 49.7146C96.3641 51.4646 98.0116 52.9893 100.305 53.4582C101.771 53.7577 103.297 53.8404 104.799 53.8712C107.703 53.9306 110.61 53.9339 113.514 53.8627C115.013 53.8256 116.529 53.694 117.998 53.4062C122.838 52.4583 126.906 49.8713 130.875 47.1195C131.234 46.8712 131.41 46.3612 131.671 45.9728C133.288 44.7446 133.766 43.1201 133.124 41.0396C132.999 39.7759 132.311 38.8136 131.505 37.888C129.511 35.5986 127 34.0675 124.227 32.9514C121.917 32.0227 119.517 31.3175 117.002 31.7495C115.234 32.053 113.47 32.5074 111.776 33.1001C108.724 34.1681 105.726 35.3902 102.571 36.5996C102.555 36.5855 102.342 36.4511 102.219 36.2592C102.133 36.1243 102.169 35.911 102.15 35.7325C102.289 35.5102 102.428 35.2875 102.566 35.0648C102.804 34.9222 103.041 34.7798 103.279 34.6375C103.897 34.6777 104.436 34.5656 104.694 33.908C105.138 33.7863 105.583 33.6644 106.028 33.5427C105.32 33.0494 104.933 33.331 104.671 33.8829C104.058 33.8382 103.502 33.9174 103.212 34.5637C102.958 34.6863 102.704 34.8092 102.45 34.9318ZM128.013 31.6532C127.886 31.5392 127.759 31.4253 127.632 31.3111C127.359 31.0828 127.113 30.8039 126.807 30.6336C123.746 28.924 120.585 27.4359 117.255 26.312C115.723 25.7952 114.128 25.5758 112.603 25.9359C109.027 26.7798 105.469 27.7385 102.4 29.9222C101.074 30.8657 99.7649 31.8536 98.3502 32.6481C95.753 34.107 92.9416 32.3316 92.916 28.9832C94.0533 30.1459 95.0306 31.1455 96.1799 32.3204C102.211 27.9561 108.328 23.8486 116.541 24.1427C115.566 23.2556 114.871 22.6225 113.9 21.7387C111.095 21.8796 107.962 22.1009 104.826 22.1766C101.607 22.2539 98.4784 22.8372 95.4063 23.7015C92.4452 24.5348 89.5337 25.5422 86.5764 26.4805C86.3685 25.3878 87.1426 25.1703 87.7081 24.9565C90.1805 24.0215 92.67 23.1278 95.1774 22.2905C96.1989 21.9496 97.2747 21.7525 98.338 21.5559C102.202 20.8417 106.107 20.5558 110.03 20.4219C111.025 20.388 112.012 20.1226 113.377 19.9032C112.628 19.0062 112.132 18.2713 111.501 17.6798C108.773 15.1205 105.421 14.0696 101.771 13.9275C97.2256 13.7503 93.1244 15.2236 89.2497 17.4803C86.9603 18.8138 84.6669 20.1477 82.3157 21.3658C79.0599 23.0536 75.6557 23.1814 72.1905 22.026C70.9357 21.608 69.701 21.106 68.4201 20.7959C66.1469 20.2457 63.866 19.6006 61.5508 19.3731C56.2172 18.849 51.4218 20.5097 47.0836 23.5448C45.7503 24.477 44.5191 25.5534 43.2401 26.5622C39.5783 29.4505 36.13 32.5696 32.9206 35.9571C30.7517 38.2467 29.4695 40.803 29.6536 44.0765C29.7577 45.9282 29.4542 47.8048 29.2923 49.6664C29.2662 49.9695 29.0203 50.2535 28.7283 50.8467C27.7282 48.1232 28.0719 45.5298 27.793 42.7259C26.9254 43.6705 26.2953 44.3011 25.7277 44.984C23.8786 47.2088 21.8944 49.3175 20.5969 51.9697C17.4284 58.4478 16.2939 65.4511 15.1503 72.4569C14.7048 75.1842 14.4835 77.9595 13.8624 80.644C13.4137 82.5841 14.1151 83.7883 15.5388 84.8129C18.9909 87.2961 22.781 89.1395 26.7398 90.6584C30.918 92.2615 35.2527 93.2532 39.6727 93.8459C42.4167 94.2138 45.1825 94.5401 47.946 94.6172C53.5688 94.7739 59.1815 94.437 64.7876 93.9688C67.6157 93.7329 70.4588 93.6782 73.2944 93.5285C73.8341 93.5001 74.3706 93.4136 74.9077 93.3476C77.3554 93.0471 79.7996 92.7103 82.2516 92.4521C84.3479 92.2312 86.4531 92.0987 88.6281 91.9211C89.2152 91.2102 89.6073 90.1023 90.9015 90.2317C91.9114 90.3325 92.9202 90.4441 94.1724 90.5766C94.7529 89.6007 95.3835 88.5259 96.0265 87.4589C98.4538 83.4326 100.885 79.4095 103.315 75.3846C103.679 75.0694 103.812 74.7957 103.183 74.6599C101.926 74.7835 100.666 74.8932 99.4106 75.0327C94.3094 75.5989 89.2032 76.0732 84.0629 76.0439C82.2436 76.0333 80.4189 75.972 78.6067 76.0866C74.6674 76.3354 70.9296 75.3908 67.268 74.1698C65.1591 73.4664 63.1246 72.4901 61.605 70.7131C59.2071 67.9082 59.9993 64.3333 63.4452 63.1147C64.8391 62.6216 66.3758 62.3533 67.8556 62.3178C71.4235 62.2309 74.9514 61.8442 78.4549 61.2294C82.5432 60.5117 86.6107 59.6317 90.7671 59.4294C95.0557 59.2205 99.359 59.2555 103.641 58.9621C106.876 58.7403 110.13 58.3703 113.3 57.7071C117.722 56.7815 122.107 55.7285 126.869 55.6726C128.517 53.9861 130.366 52.3084 131.943 50.4046C133.03 49.0922 134.37 47.8363 134.598 45.9707C134.695 45.655 134.792 45.3392 134.89 45.023C134.798 44.9845 134.705 44.9455 134.613 44.9065C134.47 45.1217 134.327 45.3374 134.184 45.5526C134.093 45.8354 134.087 46.2115 133.897 46.3854C133.018 47.1851 132.117 47.9674 131.171 48.6853C126.051 52.5701 120.283 54.8739 113.869 55.2561C109.946 55.4896 105.996 55.3881 102.062 55.2826C99.8657 55.2237 97.7847 54.6107 96.1874 52.904C95.8228 52.5145 95.3449 52.2229 94.8948 51.9227C93.8557 51.2303 92.7948 51.0647 91.6807 51.7984C91.0772 52.1954 90.4333 52.5316 89.8006 52.8826C85.0482 55.5206 80.086 57.4311 74.5231 57.1614C73.2023 57.0972 71.8736 56.9986 70.5739 56.7704C69.1045 56.5127 67.5925 56.2661 66.2247 55.7076C61.9041 53.9445 58.2655 51.103 55.1562 47.7118C52.2727 44.567 52.38 43.6111 54.7688 40.1149C55.6416 38.8373 56.6844 37.5109 58.7523 36.8594C58.3362 37.8088 58.0865 38.4408 57.7848 39.0473C57.5511 39.5179 57.253 39.9563 56.9833 40.4092C56.403 41.0731 55.7414 41.684 55.2589 42.413C54.318 43.8329 54.5057 44.6939 55.868 45.9698C56.0349 46.2785 56.137 46.656 56.3797 46.8841C57.3911 47.8363 58.4027 48.7965 59.4911 49.6565C62.5814 52.0975 65.7807 54.3044 69.8386 54.9013C72.9014 55.3519 75.9313 55.6379 79.0124 55.0519C83.2219 54.2515 87.0463 52.5462 90.6529 50.3024C92.293 49.2823 93.1401 47.7494 93.3238 45.8394C93.482 44.0319 93.6711 42.2224 93.0342 40.4572C93.0412 40.0949 93.0699 39.7322 93.0523 39.3711C92.8902 36.1175 91.5511 33.6562 88.5259 32.1242C85.2676 30.4741 81.8607 29.368 78.2686 28.8056C76.8477 28.5833 75.4126 28.4504 73.9842 28.277C74.4719 27.7771 74.996 27.5001 75.5547 27.3767C76.8463 27.0913 78.1096 27.0034 79.471 27.2875C82.9099 28.0045 86.2304 29.0259 89.3446 30.6336C91.4702 31.7309 93.3086 33.1624 93.9328 35.6761C94.0766 36.2545 94.3094 36.8228 94.5819 37.3547C94.8716 37.9209 95.2571 38.4379 95.8176 39.3156C97.351 35.8175 100.087 34.0546 103.032 32.5962C105.913 31.1697 108.811 29.7094 112.236 29.4946C112.262 30.0047 112.277 30.291 112.292 30.5779C111.939 30.7137 111.585 30.8502 111.231 30.9864C110.906 31.1617 110.582 31.337 110.256 31.5124C110.294 31.5928 110.331 31.6736 110.369 31.7537C110.656 31.644 110.943 31.5343 111.23 31.4248C111.597 31.3083 111.966 31.192 112.334 31.0757C114.16 30.7066 115.971 30.2065 117.815 30C120.734 29.6727 123.41 30.5784 125.931 32.0103C126.924 32.5739 127.954 33.074 128.967 33.6031C129.69 34.0946 130.412 34.586 131.135 35.0775C131.158 35.1726 131.186 35.2657 131.218 35.3578C131.468 35.5995 131.719 35.8417 131.969 36.0835C132.036 36.169 132.102 36.2545 132.168 36.3405C132.214 36.2449 132.259 36.1495 132.305 36.0541C132.094 35.8128 131.882 35.572 131.671 35.3312C131.554 35.1945 131.436 35.0578 131.318 34.9208C130.692 34.208 130.066 33.4953 129.44 32.7825C129.195 32.5459 128.95 32.3089 128.705 32.0725C128.48 31.9353 128.254 31.7984 128.029 31.6612L128.013 31.6532ZM133.017 109.876C132.434 109.877 131.851 109.878 131.268 109.88C131.197 106.922 130.862 103.997 129.767 101.231C128.336 97.6203 126.799 94.051 125.269 90.3725H123.778C123.59 93.5102 123.449 96.51 123.22 99.5028C123.029 102.014 122.742 104.518 122.484 107.024C122.386 107.977 122.251 108.927 122.132 109.878C121.644 109.889 121.156 109.899 120.668 109.91C120.686 109.305 120.619 108.683 120.735 108.097C121.276 105.361 121.383 102.596 121.448 99.818C121.479 98.5022 121.736 97.1892 121.931 95.8804C122.354 93.0427 122.175 90.2219 121.651 87.4239C121.514 86.6885 121.33 85.8461 120.398 85.5874C119.3 86.1334 119.174 86.1092 118.969 87.1901C118.086 91.8474 116.584 96.385 116.276 101.154C116.206 102.234 116.146 103.337 115.872 104.375C115.659 105.185 115.66 106.215 114.647 106.66C113.63 106.394 113.79 105.611 113.853 104.907C113.934 104.01 114.058 103.116 114.18 102.223C114.368 100.856 114.532 99.4833 114.775 98.1256C115.273 95.3485 115.698 92.5503 116.379 89.8169C116.955 87.5063 117.4 85.1105 119.146 83.2322C120.244 82.0527 120.729 80.5315 120.728 78.9004C120.727 77.2035 120.722 75.5056 120.654 73.8113C120.631 73.2466 120.408 72.69 120.271 72.1064C118.823 72.3454 118.036 73.1949 117.473 74.2011C116.979 75.0853 116.618 76.0617 116.321 77.0348C115.109 81.0061 113.794 84.932 112.173 88.7634C110.723 92.1927 109.249 95.6262 108.588 99.3404C108.461 100.052 108.238 100.989 106.956 101.281C106.956 100.265 106.76 99.3381 106.991 98.5349C107.89 95.4225 108.873 92.3313 109.922 89.2659C111.265 85.34 112.701 81.4463 114.101 77.5397C114.605 76.1313 114.908 74.592 115.688 73.3558C116.568 71.9615 117.882 70.8409 119.244 69.3406C119.052 67.8432 118.41 66.2586 116.565 65.0376C116.078 65.5181 115.417 65.9165 115.132 66.4984C114.236 68.3266 113.319 70.1732 112.706 72.106C111.552 75.7422 110.127 79.2328 108.253 82.5622C105.761 86.9902 103.754 91.6166 102.79 96.6568C102.542 97.956 102.404 99.374 101.218 100.742C100.894 99.9393 100.474 99.3722 100.479 98.809C100.488 97.8625 100.741 96.9131 100.937 95.9748C101.743 92.103 103.45 88.5706 105.118 85.0273C106.404 82.2968 107.749 79.5937 109.019 76.8553C109.652 75.4911 110.194 74.0834 110.742 72.6815C111.142 71.6587 110.963 70.7164 110.369 70.3621C109.694 69.9599 108.69 70.2216 108.001 71.1258C107.42 71.8879 106.976 72.7546 106.47 73.5738C104.41 76.9077 102.285 80.204 100.308 83.5865C98.5463 86.6028 96.7736 89.6524 96.2966 93.2034C95.9847 95.528 95.8641 97.8787 95.5458 100.202C95.2775 102.161 94.8901 104.106 94.4675 106.038C94.3239 106.694 94.1341 107.47 93.0034 107.705C92.896 107.103 92.6804 106.548 92.7264 106.015C92.8138 105.002 93.0267 103.996 93.2303 102.996C93.7897 100.253 93.8686 97.4779 93.7213 94.7006C93.6264 92.9022 92.6249 92.2681 90.5418 92.7316C90.5418 93.6208 90.4483 94.5796 90.558 95.5141C91.1261 100.355 90.7542 105.137 89.7726 109.889C89.2621 109.885 88.7512 109.881 88.24 109.878C88.7476 105.552 89.2581 101.225 88.9781 96.8582C88.9144 95.8661 88.6852 94.885 88.5132 93.7775C86.2431 93.9566 84.1982 94.1133 82.1543 94.2803C79.0213 94.5368 75.8695 94.6597 72.7602 95.0901C66.3929 95.972 59.984 96.1087 53.5824 96.3329C50.8081 96.4301 48.0125 96.2901 45.2429 96.0618C41.8742 95.7838 38.4607 95.5787 35.1778 94.8465C28.0653 93.2602 21.2836 90.7425 15.2254 86.5504C14.6541 86.1548 13.992 85.8898 13.097 85.4197C12.7627 86.6321 12.469 87.5843 12.2397 88.5522C11.5857 91.307 10.9579 94.0686 10.3201 96.8272C10.2569 96.8072 10.1935 96.803 10.1284 96.8149C9.69283 92.4852 10.4404 88.272 11.2476 84.0402C12.3926 78.0356 13.2459 71.9744 14.449 65.9825C15.2203 62.1398 16.2255 58.3229 17.4352 54.5945C18.8365 50.2753 21.4593 46.6485 24.5733 43.3433C26.4358 41.3656 28.1886 39.2663 29.8167 37.0916C33.4445 32.245 37.9413 28.2899 42.5734 24.4817C44.4345 22.9516 46.4857 21.6332 48.5352 20.3554C52.9641 17.5943 57.884 17.0396 62.907 17.7634C66.1246 18.2267 69.3448 18.9808 72.4221 20.023C75.905 21.2021 79.0859 20.8882 82.2204 19.1918C84.9352 17.7225 87.5824 16.1255 90.3245 14.7098C95.1032 12.2421 100.19 11.3839 105.479 12.4498C109.422 13.2445 112.857 15.1613 114.832 18.7607C117.17 23.0214 120.698 25.8015 124.955 27.7496C129.644 29.8959 132.954 33.293 135.074 37.9413C136.02 40.0171 136.498 42.1592 136.416 44.4512C136.349 46.3393 135.836 48.0163 134.569 49.4437C133.324 50.8472 132.085 52.256 130.86 53.6776C130.351 54.2682 129.886 54.8971 129.325 55.6047C132.483 58.4255 132.132 61.4216 130.083 64.1043C129.979 66.3112 130.051 68.1352 129.758 69.8986C129.546 71.1724 128.634 72.3306 128.429 73.6036C128.234 74.8171 128.659 76.1169 128.609 77.3703C128.568 78.3821 128.329 79.4179 127.994 80.3795C127.073 83.03 127.501 85.5327 128.939 87.7969C130.689 90.5519 132.716 93.1291 134.516 95.8541C135.713 97.6668 136.79 99.5674 137.796 101.494C139.133 104.054 139.665 106.841 139.762 109.894H138.061C138.261 106.44 137.066 103.324 135.323 100.497C133.243 97.1232 130.827 93.9556 128.54 90.7101C128.352 90.4436 128.037 90.267 127.781 90.048C127.667 90.095 127.552 90.142 127.438 90.1892C127.644 91.2271 127.712 92.3181 128.088 93.2908C128.736 94.9724 129.596 96.5718 130.331 98.221C131.986 101.929 133.436 105.688 133.017 109.876Z" fill="#090D08"/>
<path d="M10.3179 96.8255C10.9557 94.0667 11.5835 91.3053 12.2375 88.5503C12.4673 87.5831 12.7607 86.6302 13.0945 85.418C13.9899 85.8881 14.6519 86.1535 15.223 86.5487C21.2818 90.7405 28.0633 93.2585 35.1756 94.8445C38.459 95.577 41.872 95.7821 45.2405 96.0598C48.01 96.2884 50.8057 96.4284 53.5802 96.3312C59.9823 96.1068 66.3905 95.9701 72.758 95.0886C75.8671 94.658 79.0191 94.5349 82.1519 94.2791C84.196 94.1113 86.2409 93.9546 88.5108 93.7756C88.6827 94.8831 88.9123 95.8648 88.9757 96.8562C89.256 101.224 88.7455 105.55 88.2378 109.876C87.6338 109.899 87.0291 109.942 86.4251 109.942C61.6212 109.946 36.8178 109.945 12.0136 109.946H10.1133V97.6869C10.1816 97.3996 10.2495 97.1128 10.3179 96.8255Z" fill="#0642F2"/>
<path d="M89.7734 109.89C90.7552 105.138 91.1266 100.356 90.5586 95.5158C90.4489 94.5808 90.5428 93.6218 90.5428 92.7333C92.6252 92.2693 93.6275 92.9039 93.7224 94.7018C93.869 97.4796 93.7907 100.254 93.2314 102.997C93.0274 103.997 92.8148 105.003 92.7274 106.017C92.6814 106.55 92.8966 107.105 93.0042 107.706C94.1349 107.471 94.3245 106.695 94.468 106.04C94.8911 104.108 95.2785 102.162 95.5464 100.204C95.8647 97.8799 95.9852 95.5294 96.2972 93.2048C96.7741 89.6541 98.5469 86.6037 100.309 83.5877C102.286 80.205 104.411 76.9091 106.471 73.575C106.977 72.7558 107.421 71.8896 108.002 71.1273C108.691 70.2233 109.694 69.9611 110.37 70.3637C110.964 70.718 111.142 71.6596 110.743 72.6827C110.195 74.085 109.653 75.4927 109.02 76.857C107.75 79.5948 106.406 82.2979 105.12 85.0285C103.451 88.5722 101.743 92.1042 100.938 95.976C100.742 96.9148 100.489 97.8642 100.48 98.8107C100.474 99.3733 100.894 99.9409 101.219 100.744C102.405 99.3757 102.542 97.9577 102.791 96.6578C103.755 91.6183 105.762 86.9918 108.254 82.5634C110.128 79.2338 111.553 75.7439 112.707 72.1076C113.32 70.1746 114.236 68.3283 115.133 66.4999C115.418 65.9177 116.079 65.5197 116.566 65.0391C118.411 66.2602 119.053 67.8448 119.245 69.3418C117.883 70.8423 116.568 71.9627 115.689 73.357C114.909 74.5937 114.606 76.1327 114.102 77.5413C112.702 81.4473 111.266 85.3415 109.923 89.2671C108.874 92.333 107.891 95.4237 106.992 98.5361C106.76 99.3393 106.957 100.266 106.957 101.283C108.238 100.99 108.462 100.053 108.588 99.3421C109.25 95.6279 110.724 92.1939 112.174 88.7651C113.794 84.9332 115.11 81.0072 116.322 77.0365C116.619 76.0634 116.979 75.087 117.474 74.2027C118.036 73.1965 118.824 72.3468 120.272 72.1081C120.409 72.6912 120.632 73.2477 120.655 73.8125C120.723 75.5073 120.727 77.2051 120.729 78.9013C120.73 80.5327 120.245 82.0543 119.147 83.2339C117.401 85.1122 116.955 87.5075 116.38 89.8185C115.699 92.5519 115.274 95.35 114.776 98.1268C114.532 99.485 114.369 100.857 114.181 102.225C114.059 103.118 113.935 104.012 113.854 104.909C113.79 105.612 113.631 106.395 114.648 106.662C115.661 106.217 115.66 105.187 115.873 104.376C116.147 103.338 116.207 102.236 116.277 101.155C116.584 96.3862 118.087 91.8486 118.969 87.1918C119.174 86.1109 119.301 86.1346 120.399 85.5891C121.331 85.8473 121.515 86.6902 121.652 87.4253C122.176 90.2235 122.354 93.0439 121.932 95.8818C121.737 97.1901 121.48 98.5039 121.449 99.8197C121.384 102.598 121.276 105.362 120.736 108.098C120.62 108.684 120.686 109.306 120.669 109.911C110.37 109.905 100.072 109.898 89.7734 109.89Z" fill="#539637"/>
<path d="M122.133 109.877C122.251 108.925 122.387 107.976 122.485 107.023C122.743 104.517 123.03 102.013 123.221 99.5014C123.449 96.5082 123.591 93.5088 123.778 90.3711H125.27C126.799 94.0496 128.337 97.6189 129.767 101.23C130.863 103.995 131.197 106.921 131.269 109.878C129.562 109.88 127.856 109.881 126.149 109.883C126.155 106.175 126 105.567 124.974 104.939C124.53 106.568 124.079 108.222 123.628 109.877C123.13 109.877 122.632 109.877 122.133 109.877Z" fill="#539637"/>
<path d="M133.017 109.874C133.435 105.687 131.985 101.928 130.331 98.2198C129.595 96.5706 128.736 94.971 128.087 93.2898C127.712 92.3168 127.644 91.226 127.438 90.1878C127.552 90.1408 127.666 90.0939 127.781 90.0469C128.037 90.2658 128.352 90.4425 128.54 90.7089C130.827 93.9542 133.243 97.1218 135.323 100.496C137.066 103.323 138.26 106.438 138.06 109.893C136.379 109.887 134.698 109.881 133.017 109.874Z" fill="#0841E6"/>
<path d="M123.629 109.88C124.08 108.225 124.53 106.57 124.974 104.941C126.001 105.569 126.155 106.178 126.15 109.885C125.31 109.884 124.469 109.882 123.629 109.88Z" fill="#090D08"/>
<path d="M10.3179 96.8275C10.2495 97.1149 10.1816 97.4017 10.1133 97.689C10.1175 97.398 10.1217 97.1069 10.126 96.8151C10.191 96.8033 10.2552 96.8076 10.3179 96.8275Z" fill="#2F4127"/>
<path d="M45.8755 46.8294H51.42C50.4526 45.6996 49.3949 45.5434 48.2666 45.5539C47.3971 45.5615 46.49 45.4926 45.8755 46.8294ZM56.5756 74.7068C56.4691 74.7482 56.3632 74.7895 56.2572 74.8314C56.377 75.2921 56.4367 75.7802 56.6273 76.2099C57.7613 78.7735 60.0983 80.1394 62.2235 81.7016C62.376 81.8132 62.7871 81.5731 63.35 81.4254C61.9557 80.2143 60.7214 79.2513 59.6196 78.1551C58.5349 77.0756 57.5846 75.862 56.5756 74.7068ZM78.0134 26.6548C78.0352 25.6756 77.4495 25.6072 76.9273 25.4832C75.3516 25.1085 73.7705 24.7542 72.1972 24.3701C68.0206 23.3491 63.81 23.4066 59.6139 24.1157C56.623 24.6203 53.813 25.7301 51.1508 27.1925C50.7209 27.4284 50.2374 27.6431 50.7789 28.4586C51.4327 28.1903 52.1305 27.9189 52.8157 27.6213C56.8323 25.875 60.9579 24.6612 65.4061 24.7814C69.1037 24.8811 72.691 25.6333 76.2819 26.4074C76.839 26.5274 77.4122 26.5711 78.0134 26.6548ZM52.9724 32.7453C52.8735 32.9196 52.7749 33.0935 52.6762 33.2678C52.7944 33.2692 52.9121 33.2711 53.0305 33.2725C54.7342 32.5463 56.4854 31.912 58.1289 31.0682C59.7612 30.2299 61.939 30.5158 63.378 28.4889C62.6396 28.4889 62.1488 28.3669 61.7532 28.5093C59.6148 29.2778 57.4664 30.0357 55.3925 30.9575C54.4974 31.3555 53.7736 32.138 52.9724 32.7453ZM103.313 75.386C100.884 79.4104 98.4525 83.4343 96.0252 87.4598C95.3817 88.5271 94.7512 89.6016 94.1714 90.578C92.919 90.4455 91.9097 90.3334 90.8997 90.2329C89.6055 90.1037 89.2139 91.2111 88.6263 91.9225C86.4518 92.1001 84.3461 92.2321 82.2503 92.453C79.7979 92.7119 77.3542 93.048 74.9067 93.3485C74.3694 93.4145 73.8328 93.501 73.2934 93.5297C70.4573 93.6791 67.6144 93.7343 64.7859 93.9702C59.1798 94.4381 53.5671 94.7748 47.9447 94.6181C45.1812 94.541 42.4154 94.2154 39.6714 93.8473C35.2517 93.2541 30.9168 92.2625 26.7385 90.6598C22.7793 89.1405 18.9896 87.2974 15.5376 84.8138C14.1139 83.7895 13.4124 82.585 13.8613 80.6452C14.482 77.9604 14.7038 75.1856 15.1487 72.4579C16.2921 65.4525 17.4273 58.4488 20.5958 51.9708C21.8926 49.3189 23.8773 47.21 25.726 44.9849C26.2941 44.302 26.9241 43.6714 27.792 42.7273C28.0701 45.5307 27.7264 48.1245 28.7265 50.8476C29.0185 50.2549 29.2645 49.9704 29.291 49.6676C29.4532 47.8057 29.7564 45.9291 29.6521 44.0779C29.4682 40.8039 30.75 38.2481 32.9193 35.958C36.1287 32.5705 39.577 29.4516 43.2384 26.5636C44.5178 25.5546 45.7493 24.4779 47.0818 23.5457C51.4205 20.5107 56.2154 18.8504 61.549 19.3741C63.8643 19.6022 66.1452 20.2466 68.4186 20.797C69.6997 21.1071 70.9345 21.609 72.1888 22.0274C75.654 23.1823 79.0586 23.0547 82.3145 21.3672C84.6652 20.1486 86.959 18.8152 89.248 17.4817C93.1227 15.2245 97.2245 13.7517 101.769 13.9284C105.42 14.0705 108.772 15.1214 111.499 17.6807C112.13 18.2729 112.627 19.0076 113.376 19.9045C112.01 20.1235 111.024 20.389 110.029 20.4233C106.106 20.5567 102.2 20.8426 98.3362 21.5568C97.2729 21.7534 96.1977 21.9505 95.1757 22.2919C92.6688 23.1287 90.1787 24.0229 87.7066 24.9576C87.1413 25.1712 86.3668 25.3887 86.5754 26.4819C89.5325 25.5436 92.4442 24.5359 95.4045 23.7029C98.4767 22.8381 101.606 22.2555 104.824 22.1775C107.96 22.1021 111.093 21.8808 113.899 21.74C114.869 22.6234 115.565 23.257 116.539 24.1441C108.327 23.8497 102.21 27.9575 96.1786 32.3213C95.0293 31.1464 94.0516 30.1468 92.9147 28.9846C92.9403 32.3333 95.7518 34.1079 98.3489 32.649C99.7632 31.8545 101.072 30.8666 102.399 29.9231C105.468 27.7394 109.026 26.7807 112.602 25.9373C114.127 25.5774 115.722 25.7966 117.253 26.3134C120.584 27.4371 123.745 28.9249 126.806 30.6345C127.112 30.8055 127.357 31.0837 127.631 31.3123C127.757 31.4262 127.884 31.5401 128.011 31.6541L128.027 31.6625C128.253 31.7995 128.478 31.9367 128.703 32.0734C128.949 32.3105 129.193 32.5468 129.438 32.7839C129.28 33.0573 129.123 33.331 128.966 33.6045C127.953 33.0749 126.923 32.5755 125.93 32.0112C123.408 30.5797 120.733 29.6739 117.814 30.0009C115.97 30.2076 114.158 30.708 112.332 31.0766C112.318 30.9108 112.304 30.7451 112.29 30.5788C112.275 30.2927 112.261 30.0058 112.234 29.4963C108.81 29.7107 105.912 31.1711 103.031 32.5978C100.086 34.056 97.3497 35.8184 95.8159 39.3166C95.2556 38.4389 94.8698 37.9218 94.5802 37.3563C94.3076 36.8244 94.0748 36.2559 93.9315 35.677C93.3071 33.1633 91.4692 31.7321 89.3436 30.6345C86.2286 29.0269 82.9086 28.0059 79.4699 27.2889C78.1078 27.0048 76.8451 27.0922 75.553 27.3777C74.9945 27.501 74.4702 27.7784 73.9825 28.2781C75.4108 28.4513 76.846 28.5843 78.2669 28.8065C81.8592 29.3689 85.2659 30.475 88.5244 32.1251C91.5493 33.6578 92.8887 36.1192 93.0505 39.3722C93.0686 39.7331 93.0397 40.0963 93.0329 40.4583C90.0554 40.463 87.0777 40.4672 84.1002 40.4719C82.9286 40.4743 81.7565 40.4773 80.5844 40.4802C79.3896 40.4762 78.1943 40.4724 76.999 40.4682C74.3504 40.4701 71.7015 40.4719 69.0529 40.4738C67.3095 40.498 65.5663 40.5513 63.8229 40.5394C61.5424 40.5234 59.2625 40.456 56.982 40.4102C57.2512 39.9577 57.5496 39.5188 57.7831 39.0483C58.0848 38.4419 58.335 37.8097 58.751 36.8604C56.6827 37.5125 55.6398 38.8382 54.7671 40.1163C52.3788 43.612 52.2714 44.5684 55.1545 47.7127C58.2638 51.1044 61.9028 53.9454 66.223 55.709C67.5912 56.2672 69.1032 56.5136 70.5727 56.7714C71.8718 57 73.2013 57.0986 74.5214 57.1623C80.0843 57.432 85.0467 55.522 89.7989 52.8835C90.432 52.5325 91.0759 52.1963 91.679 51.7993C92.7935 51.0661 93.854 51.2313 94.8936 51.9236C95.3434 52.2238 95.8215 52.5154 96.1859 52.9054C97.783 54.6121 99.864 55.2248 102.061 55.2836C105.994 55.389 109.944 55.4912 113.867 55.257C120.281 54.8752 126.05 52.5711 131.17 48.6863C132.116 47.9683 133.017 47.1862 133.895 46.3863C134.085 46.2132 134.091 45.8366 134.182 45.5535C134.32 45.693 134.458 45.8326 134.596 45.9724C134.368 47.8372 133.029 49.0934 131.941 50.4059C130.365 52.3098 128.515 53.9877 126.868 55.674C122.106 55.7299 117.721 56.7829 113.299 57.708C110.128 58.3715 106.875 58.7417 103.639 58.963C99.3577 59.2567 95.0547 59.2214 90.7654 59.4305C86.609 59.6333 82.5414 60.5126 78.4532 61.2303C74.9497 61.8459 71.4222 62.2323 67.8538 62.3188C66.374 62.3549 64.8373 62.6232 63.444 63.1161C59.9976 64.3347 59.2054 67.9096 61.6038 70.714C63.1233 72.491 65.1578 73.4674 67.267 74.1707C70.9284 75.3921 74.6659 76.3363 78.6052 76.0875C80.4172 75.9731 82.2423 76.0347 84.0612 76.0452C89.2019 76.0746 94.3081 75.5998 99.4089 75.0336C100.665 74.8946 101.924 74.7848 103.182 74.6613C103.226 74.9025 103.27 75.1443 103.313 75.386Z" fill="#539836"/>
<path d="M128.052 63.1779C125.937 63.0189 123.894 62.8613 121.85 62.714C121.306 62.675 120.76 62.667 120.215 62.6446C117.679 62.5387 115.143 62.3691 112.607 62.3435C109.469 62.3117 106.347 62.4569 103.293 63.3635C98.3897 64.8187 93.4712 66.225 88.5374 67.5742C84.7433 68.6112 80.8592 69.1085 76.9223 69.1421C75.0426 69.1583 73.1629 69.1379 71.2832 69.1393C70.6865 69.1397 70.0315 69.043 69.7694 70.1243C70.185 70.2881 70.637 70.6252 71.0824 70.6168C76.2043 70.5242 81.3237 70.9041 86.4193 69.678C90.4075 68.718 94.3468 67.6682 98.2067 66.3018C103.397 64.4644 108.73 63.6913 114.422 64.1724C113.639 65.5188 112.94 66.8612 112.088 68.0988C111.827 68.4777 111.167 68.6781 110.656 68.7704C108.977 69.0728 107.477 69.752 106.519 71.1529C105.232 73.0372 103.35 73.3943 101.333 73.5304C97.2371 73.8066 93.143 74.1278 89.0423 74.2943C84.3275 74.4853 79.5993 74.7304 74.8892 74.5756C70.8726 74.4435 67.0529 73.1836 63.7277 70.8348C62.8925 70.2444 62.1377 69.2666 61.8001 68.3074C61.2064 66.6229 62.1729 64.9582 63.9382 64.4886C65.4403 64.0892 67.0132 63.9168 68.5665 63.761C70.5472 63.563 72.5556 63.5959 74.5241 63.3257C77.62 62.9 80.6901 62.2941 83.7752 61.7869C85.1385 61.5623 86.5053 61.2816 87.8796 61.217C92.1709 61.0147 96.4705 60.9783 100.759 60.737C106.175 60.4321 111.563 59.9077 116.819 58.4091C120.219 57.4393 123.722 57.3045 127.244 57.5157C129.445 57.6477 130.572 59.7146 129.399 61.6112C129.087 62.1146 128.622 62.5234 128.052 63.1779Z" fill="#AC522A"/>
<path d="M93.323 45.8398C93.139 47.7498 92.2919 49.2823 90.6521 50.3023C87.0452 52.5464 83.2208 54.2517 79.0108 55.0524C75.9302 55.6383 72.9003 55.3524 69.8378 54.9018C65.7793 54.3048 62.5803 52.0979 59.4903 49.657C58.4011 48.7969 57.3898 47.8367 56.3782 46.8846C56.1359 46.6567 56.034 46.2792 55.8672 45.9705C60.1274 45.938 64.3883 45.9059 68.649 45.8734C73.8985 45.8702 79.148 45.8669 84.3982 45.8636C87.3729 45.8554 90.3481 45.8478 93.323 45.8398Z" fill="#549837"/>
<path d="M96.9805 41.0217C97.541 38.2716 99.232 36.4603 101.726 35.3157C101.866 35.4555 102.006 35.595 102.147 35.7346C102.165 35.9127 102.129 36.126 102.215 36.2608C102.338 36.4528 102.551 36.5871 102.567 36.6012C105.722 35.3923 108.72 34.1704 111.773 33.1022C113.466 32.5097 115.23 32.0551 116.998 31.7511C119.513 31.3195 121.914 32.0243 124.223 32.9537C126.996 34.0692 129.507 35.6002 131.501 37.8898C132.307 38.8152 132.995 39.7775 133.12 41.0412C132.523 41.0748 131.926 41.1351 131.329 41.138C127.544 41.1575 123.759 41.1647 119.973 41.1755C118.596 41.1802 117.22 41.1849 115.843 41.1894C114.799 41.1859 113.754 41.1826 112.71 41.1793C109.701 41.1774 106.692 41.176 103.682 41.1741C101.448 41.1234 99.2144 41.0724 96.9805 41.0217Z" fill="#549838"/>
<path d="M131.672 45.974C131.412 46.3624 131.235 46.8726 130.877 47.1209C126.908 49.8724 122.839 52.4597 117.999 53.4077C116.53 53.6954 115.014 53.827 113.515 53.8639C110.612 53.9353 107.704 53.9323 104.8 53.8726C103.298 53.8416 101.772 53.7591 100.307 53.4598C98.0128 52.9907 96.3659 51.4657 94.9246 49.7157C94.5361 48.3419 95.0033 47.0768 95.324 45.7969C98.3415 45.823 101.359 45.849 104.377 45.8746C109.351 45.8728 114.325 45.8704 119.298 45.8685C121.753 45.8549 124.208 45.8201 126.663 45.8354C128.333 45.8457 130.002 45.9256 131.672 45.974Z" fill="#549837"/>
<path d="M68.648 45.8705C64.3871 45.9027 60.1269 45.9351 55.8662 45.9673C54.5036 44.6909 54.3161 43.8303 55.2568 42.4104C55.7393 41.6814 56.4009 41.0706 56.9812 40.4062C59.2616 40.4518 61.5421 40.5197 63.8225 40.5355C65.5655 40.5477 67.3091 40.4941 69.0521 40.4699C68.9177 42.2702 68.7829 44.0702 68.648 45.8705Z" fill="#F6F9F4"/>
<path d="M131.671 45.9724C130.001 45.924 128.331 45.8441 126.661 45.8337C124.207 45.8185 121.752 45.8532 119.297 45.8669C120.04 44.3772 120.601 42.8607 119.977 41.1734C123.762 41.1626 127.547 41.1554 131.333 41.1361C131.93 41.133 132.526 41.0729 133.123 41.0391C133.766 43.1196 133.287 44.7441 131.671 45.9724Z" fill="#F6F9F4"/>
<path d="M118.52 63.9844C121.355 64.3051 123.994 64.5358 126.61 64.9276C127.942 65.1271 128.345 65.849 128.372 67.2466C128.401 68.7939 127.939 70.199 127.227 71.6593C125.662 71.6593 124.098 71.7305 122.55 71.609C122.16 71.5785 121.595 70.9841 121.493 70.557C120.942 68.2514 119.901 66.1786 118.52 63.9844Z" fill="#AA522B"/>
<path d="M93.3237 45.839C90.3488 45.847 87.3737 45.8545 84.399 45.8628C84.7831 44.0385 84.6605 42.2425 84.1016 40.4702C87.0788 40.466 90.0563 40.4613 93.0341 40.457C93.6707 42.2216 93.4818 44.031 93.3237 45.839Z" fill="#F3F7F0"/>
<path d="M104.373 45.8729C101.355 45.8469 98.3378 45.8208 95.3203 45.7952C95.6887 44.1387 95.8435 42.4082 96.982 41.0195C99.2157 41.0703 101.45 41.121 103.684 41.172C103.19 42.8445 103.683 44.3732 104.373 45.8729Z" fill="#F2F6EF"/>
<path d="M123.135 79.3242C124.514 80.0494 125.139 81.0519 125.366 82.2547C125.699 84.0129 125.957 85.7886 126.147 87.5674C126.201 88.0789 125.908 88.6265 125.751 89.2486C124.942 89.0221 124.375 88.8631 123.654 88.6613C123.703 86.7355 123.088 84.9722 121.766 83.4663C122.23 82.0635 122.671 80.7279 123.135 79.3242Z" fill="#549239"/>
<path d="M126.497 79.7987C124.269 77.8209 122.223 76.1277 122.266 72.9531C123.266 73.1484 124.314 73.2656 125.305 73.5701C126.296 73.8745 126.958 74.5849 126.88 75.7166C126.794 76.9683 126.649 78.2165 126.497 79.7987Z" fill="#539039"/>
<path d="M128.965 33.6019C129.122 33.3284 129.28 33.0549 129.437 32.7812C130.063 33.494 130.689 34.207 131.315 34.9193C131.258 34.9753 131.196 35.0281 131.132 35.0765C130.41 34.585 129.687 34.0933 128.965 33.6019Z" fill="#4F7F38"/>
<path d="M109.069 32.0956C108.548 32.3624 108.027 32.6293 107.505 32.8962C107.45 32.7306 107.396 32.5647 107.34 32.3996C107.905 32.2847 108.469 32.1698 109.033 32.0547L109.069 32.0956Z" fill="#2F4127"/>
<path d="M103.211 34.5661C103.501 33.9198 104.057 33.8406 104.67 33.8853L104.693 33.9104C104.435 34.568 103.896 34.68 103.277 34.6398L103.211 34.5661Z" fill="#2F4127"/>
<path d="M104.672 33.8804C104.934 33.3281 105.321 33.0469 106.029 33.5405C105.584 33.6619 105.139 33.7836 104.695 33.9056L104.672 33.8804Z" fill="#2F4127"/>
<path d="M112.292 30.5781C112.306 30.744 112.32 30.9096 112.334 31.0759C111.966 31.1922 111.598 31.3085 111.23 31.4248C111.231 31.2787 111.231 31.1328 111.232 30.9867C111.586 30.8502 111.939 30.7144 112.292 30.5781Z" fill="#486A36"/>
<path d="M134.598 45.9705C134.46 45.8309 134.322 45.6914 134.184 45.5516C134.327 45.3366 134.47 45.1214 134.613 44.9062C134.705 44.9448 134.797 44.9838 134.89 45.0225C134.793 45.3385 134.695 45.6547 134.598 45.9705Z" fill="#486A36"/>
<path d="M131.971 36.0843C131.72 35.8425 131.47 35.6008 131.219 35.3586C131.37 35.3497 131.521 35.341 131.673 35.332C131.884 35.5728 132.095 35.8134 132.306 36.0547C132.194 36.0657 132.082 36.0756 131.971 36.0843Z" fill="#486A36"/>
<path d="M111.233 30.9883C111.232 31.1344 111.232 31.2808 111.231 31.4271C110.944 31.5366 110.657 31.6463 110.37 31.756C110.333 31.6755 110.295 31.5946 110.258 31.5143C110.582 31.3393 110.908 31.1635 111.233 30.9883Z" fill="#2F4127"/>
<path d="M102.151 35.7303C102.011 35.5908 101.87 35.451 101.73 35.3114C101.971 35.1841 102.211 35.0568 102.451 34.9297L102.567 35.0622C102.428 35.2849 102.29 35.5076 102.151 35.7303Z" fill="#486A36"/>
<path d="M109.031 32.0573L109.6 31.7305C109.624 31.8122 109.65 31.8933 109.674 31.975C109.472 32.0159 109.27 32.0573 109.068 32.0979L109.031 32.0573Z" fill="#2F4127"/>
<path d="M103.315 75.3849C103.271 75.1432 103.227 74.9019 103.184 74.6602C103.813 74.7959 103.679 75.0694 103.315 75.3849Z" fill="#2F4127"/>
<path d="M102.453 34.9306C102.707 34.808 102.961 34.6851 103.215 34.5625L103.281 34.636C103.044 34.7786 102.806 34.921 102.569 35.0636L102.453 34.9306Z" fill="#486A36"/>
<path d="M106.691 32.8984L106.746 33.0239L106.613 33.011L106.691 32.8984Z" fill="#2F4127"/>
<path d="M131.973 36.0843C132.084 36.0756 132.196 36.0657 132.308 36.0547C132.262 36.1503 132.217 36.2457 132.172 36.3411C132.105 36.2551 132.039 36.1698 131.973 36.0843Z" fill="#2F4127"/>
<path d="M131.669 35.3323C131.519 35.3412 131.367 35.3504 131.216 35.3593C131.184 35.2672 131.156 35.1737 131.133 35.079C131.197 35.0302 131.258 34.978 131.316 34.9219C131.434 35.0588 131.552 35.1956 131.669 35.3323Z" fill="#4F7F38"/>
<path d="M75.6335 42.8761C74.9395 42.5051 74.3308 42.1793 73.7273 41.8569C72.9445 43.2412 72.9765 43.9497 73.6996 44.3792C74.3621 44.7727 74.8749 44.4402 75.6335 42.8761ZM84.1041 40.472C84.6635 42.2439 84.7861 44.0399 84.4016 45.8641C79.1521 45.8674 73.9023 45.8712 68.6523 45.8745C68.7872 44.0742 68.922 42.2742 69.0571 40.4739C71.7055 40.472 74.3546 40.4702 77.0029 40.4688C76.8871 42.2025 77.0814 42.6717 78.054 43.0062C79.68 43.5651 80.692 42.5563 80.5884 40.48C81.7605 40.4772 82.9321 40.4749 84.1041 40.472Z" fill="#080A08"/>
<path d="M78.0139 26.6527C77.4127 26.5691 76.8395 26.5254 76.2822 26.4058C72.6915 25.6313 69.1042 24.8795 65.4066 24.7792C60.9582 24.6591 56.8328 25.873 52.8162 27.6192C52.131 27.9174 51.4332 28.188 50.7794 28.4563C50.2379 27.6411 50.7214 27.4264 51.1511 27.1903C53.8135 25.7281 56.6235 24.6183 59.6144 24.1134C63.8105 23.4044 68.0209 23.347 72.1977 24.3681C73.771 24.7526 75.3519 25.1064 76.9278 25.4812C77.45 25.6057 78.0357 25.6736 78.0139 26.6527Z" fill="#0A1707"/>
<path d="M52.9727 32.7427C53.7742 32.1349 54.4981 31.3524 55.3927 30.9549C57.4666 30.033 59.6151 29.2747 61.7536 28.5062C62.1492 28.3643 62.6398 28.4862 63.3782 28.4862C61.9392 30.5127 59.7614 30.2273 58.1291 31.065C56.486 31.9089 54.7346 32.5432 53.0307 33.2699C53.0112 33.0941 52.9922 32.9184 52.9727 32.7427Z" fill="#0A1707"/>
<path d="M56.5759 74.7031C57.5852 75.8583 58.5355 77.0719 59.6201 78.1514C60.722 79.2476 61.956 80.2106 63.3503 81.4216C62.7882 81.5694 62.3763 81.8095 62.2241 81.6979C60.0989 80.1356 57.7618 78.7698 56.6278 76.2062C56.4373 75.7765 56.3779 75.2883 56.2578 74.8276C56.3638 74.7858 56.4702 74.7445 56.5759 74.7031Z" fill="#0C1B08"/>
<path d="M80.5841 40.48C80.6878 42.5563 79.6757 43.5654 78.0497 43.0065C77.0771 42.6722 76.8828 42.2025 76.9987 40.4688C78.194 40.4725 79.3888 40.4763 80.5841 40.48Z" fill="#E7EDE6"/>
<path d="M45.875 46.8267C46.4896 45.4899 47.3966 45.5588 48.2661 45.5513C49.3945 45.5407 50.4521 45.6969 51.4196 46.8267H45.875Z" fill="#10220B"/>
<path d="M52.972 32.7461C52.9915 32.9218 53.0106 33.0975 53.0301 33.2733C52.9116 33.2714 52.794 33.27 52.6758 33.2681C52.7745 33.0943 52.8734 32.9199 52.972 32.7461Z" fill="#10220B"/>
<path d="M110.922 43.2724C110.966 42.3905 110.262 41.6535 109.376 41.6558C108.552 41.6577 107.931 42.2793 107.901 43.134C107.871 43.961 108.456 44.67 109.241 44.7621C110.055 44.857 110.879 44.1261 110.922 43.2724ZM104.377 45.8728C103.688 44.373 103.195 42.8443 103.688 41.1719C106.697 41.1733 109.707 41.1752 112.715 41.1766C112.442 42.7593 112.655 43.3093 113.668 43.6276C115.249 44.1238 116.195 43.0652 115.849 41.1869C117.226 41.1822 118.602 41.1775 119.979 41.1733C120.603 42.8605 120.043 44.377 119.299 45.8662C114.325 45.8686 109.351 45.8705 104.377 45.8728Z" fill="#0A0C09"/>
<path d="M115.848 41.1861C116.193 43.0649 115.247 44.123 113.667 43.6266C112.654 43.3085 112.441 42.7585 112.715 41.1758C113.759 41.1795 114.803 41.1828 115.848 41.1861Z" fill="#EFF1ED"/>
<path d="M75.6332 42.8785C74.8746 44.4427 74.3618 44.7751 73.6993 44.3816C72.9762 43.9521 72.9442 43.2436 73.727 41.8594C74.3305 42.1817 74.9393 42.5075 75.6332 42.8785Z" fill="#DCDCDD"/>
<path d="M110.92 43.2728C110.877 44.1265 110.053 44.8574 109.24 44.7625C108.454 44.6704 107.87 43.9614 107.9 43.1344C107.93 42.2798 108.551 41.6581 109.375 41.6563C110.26 41.6539 110.964 42.3909 110.92 43.2728Z" fill="#E8E8E8"/>
</svg>
