<svg width="150" height="110" viewBox="0 0 150 110" fill="none" xmlns="http://www.w3.org/2000/svg">
<g clip-path="url(#clip0_1054_8971)">
<path d="M39.5586 63.2604L50.6683 45.3139L123.919 33.5938L132.954 41.0409L133.93 46.901L127.582 53.0052L90.1017 72.6609L39.5586 63.2604Z" fill="white"/>
<path d="M4 109.502C4.01563 104.237 4.0315 98.9704 4.04712 93.7046C4.35038 93.3818 4.77768 93.1103 4.93615 92.7282C5.70137 90.884 6.42119 89.02 7.10193 87.1433C7.54242 85.931 7.88914 84.684 8.36258 83.1836C9.27895 83.8353 9.92527 84.2694 10.5435 84.7399C11.7741 85.6783 12.9588 86.6804 14.2166 87.5801C19.7223 91.5169 25.8971 93.9258 32.4946 95.2036C35.8507 95.8536 39.2842 96.1073 42.6824 96.5404C43.1485 96.5873 43.6139 96.6349 44.0792 96.682C44.5302 96.7204 44.9814 96.7589 45.4329 96.7978C45.5343 97.0786 45.6363 97.3598 45.7384 97.6409C45.3733 97.9012 45.0088 98.1612 44.6438 98.4217C44.5344 98.4054 44.4543 98.4462 44.4035 98.5446C43.9982 98.8427 43.5924 99.1403 43.1866 99.438C42.9004 99.6038 42.6145 99.7696 42.3283 99.9354C42.0453 100.116 41.7623 100.297 41.4793 100.478C41.1927 100.632 40.9063 100.787 40.6196 100.941C40.1076 101.248 39.5956 101.555 39.0835 101.862C38.9883 101.828 38.9187 101.857 38.8757 101.949C38.4929 102.152 38.11 102.355 37.7272 102.559C37.6212 102.538 37.5438 102.576 37.495 102.673C37.2462 102.865 36.9976 103.057 36.7488 103.248L36.7593 103.236C36.5876 103.468 36.4167 103.7 36.2455 103.932C36.5488 104.126 36.9014 104.53 37.1458 104.473C37.7106 104.34 38.2236 103.984 38.7576 103.718C39.1458 103.565 39.5343 103.412 39.9225 103.258C40.1337 103.15 40.3444 103.041 40.5559 102.932C42.1845 101.906 43.8131 100.88 45.4417 99.8543C45.5992 99.7476 45.7562 99.6409 45.9134 99.5347C46.2165 99.292 46.5192 99.0493 46.8225 98.807C46.968 98.7021 47.1133 98.5968 47.2593 98.4923C48.1542 97.8096 49.0491 97.1267 49.944 96.4442C50.1447 96.305 50.3456 96.1654 50.5463 96.0262C50.6845 95.9112 50.8232 95.7962 50.9617 95.6817C51.2315 95.4724 51.5015 95.2632 51.7713 95.0544C51.9618 94.9201 52.1515 94.7861 52.3419 94.6522C52.5637 94.5204 52.7861 94.3881 53.0078 94.2564C53.2949 94.2757 53.5816 94.295 53.868 94.3143C53.9398 94.4142 54.0113 94.5148 54.0831 94.6146L54.1051 94.6596C54.3576 95.4519 54.6108 96.2437 54.8635 97.0356C54.9895 97.5105 55.1155 97.9859 55.242 98.4608C55.3201 98.6874 55.3985 98.9137 55.4768 99.1403C55.5555 99.3835 55.6338 99.6262 55.7127 99.8694C55.7557 99.9712 55.7987 100.073 55.8414 100.175C55.9535 100.525 56.0658 100.873 56.1783 101.222C56.4904 101.865 56.8032 102.507 57.116 103.15C57.2822 103.542 57.4488 103.935 57.615 104.328C57.7965 104.613 57.9779 104.898 58.1595 105.183C58.6772 105.953 59.1951 106.723 59.6485 107.397C59.2332 108.2 58.8969 108.851 58.5607 109.502H4Z" fill="#0642F2"/>
<path d="M111.162 96.8369C110.282 97.0054 109.645 97.0508 109.063 97.2547C107.771 97.7071 107.262 98.6702 107.571 99.9687C107.825 101.035 108.67 101.443 109.626 101.462C109.996 101.469 110.635 101.011 110.708 100.67C110.956 99.5101 111.006 98.3076 111.162 96.8369ZM97.729 87.8354C97.3236 89.3331 97.2582 89.4769 98.1987 90.2453C99.5712 91.3668 101.03 92.3945 102.517 93.3619C105.495 95.2999 108.653 95.7826 111.991 94.3093C112.569 94.0539 113.137 93.7533 113.741 93.5853C114.279 93.4356 114.86 93.4415 115.422 93.3788C115.495 93.5148 115.567 93.6508 115.639 93.7868C115.084 94.6255 114.585 95.5096 113.962 96.2951C112.57 98.0519 112.446 99.9625 113.162 101.983C114.218 104.962 116.772 105.517 118.905 103.249C119.179 102.957 119.434 102.641 119.661 102.311C120.375 101.27 121.081 100.223 121.771 99.1658C122.2 98.5095 122.693 98.1806 123.679 98.7866C123.271 99.8444 122.928 100.923 122.445 101.935C121.875 103.129 122.237 104.052 123.106 104.863C124.615 106.273 126.866 106.22 128.413 104.836C131.87 101.742 133.509 97.6993 134.528 93.318C134.799 92.1486 134.389 91.2501 133.396 90.6817C130.811 89.202 128.287 87.5658 125.569 86.3804C121.536 84.6209 117.38 84.8787 113.357 86.6228C109.737 88.1926 106.006 88.7364 102.096 88.1992C100.683 88.0053 99.2504 87.9577 97.729 87.8354ZM94.0889 87.7902C93.6516 87.7902 93.4203 87.747 93.2118 87.7965C87.1139 89.2589 81.2853 88.4717 75.574 85.9555C74.1639 85.3341 72.4376 85.0518 70.8988 85.169C65.4802 85.5822 61.1199 88.5576 56.7626 91.452C55.9923 91.9635 55.5567 92.7339 55.8018 93.6801C56.7961 97.5162 57.8209 101.35 60.0672 104.698C61.199 106.385 62.7529 107.266 64.8669 107.194C67.0275 107.12 68.1849 105.912 67.8218 103.795C67.6482 102.783 67.2517 101.81 67.061 100.8C66.903 99.964 66.8993 99.0989 66.8266 98.2465C67.018 98.1779 67.2094 98.1088 67.4009 98.0404C67.7371 98.4233 68.1502 98.7632 68.3946 99.1983C69.0134 100.299 69.4141 101.55 70.1666 102.54C71.0463 103.698 72.0938 104.804 73.2763 105.639C74.4862 106.493 75.7141 105.688 76.7628 104.972C77.7676 104.286 78.2957 103.339 78.1426 102.029C77.8606 99.6183 77.0412 97.4767 75.3266 95.7155C75.0871 95.4698 74.7711 95.2203 74.6886 94.9185C74.5802 94.5232 74.5087 93.9411 74.7194 93.6869C74.9062 93.4618 75.5715 93.4242 75.9014 93.5748C76.4601 93.83 76.9743 94.2465 77.4126 94.6877C78.5663 95.849 79.9402 96.1601 81.5188 95.997C84.7284 95.6644 87.6535 94.5178 90.3838 92.8767C92.2359 91.7641 93.7934 90.3506 94.0889 87.7902ZM79.9251 99.9975C80.2488 100.386 80.6092 101.129 80.8891 101.1C82.0208 100.981 83.2922 101.006 84.3157 99.5455C83.8088 99.1653 83.3151 98.7957 82.8214 98.4253C81.6997 98.2636 80.5777 98.102 79.4553 97.9398C79.3747 98.0885 79.2944 98.237 79.2138 98.3855C79.4507 98.9226 79.688 99.4603 79.9251 99.9975ZM44.405 98.5447C44.4555 98.4458 44.5356 98.405 44.645 98.4211C45.2312 98.4714 45.816 98.5185 45.7391 97.6402C45.6375 97.3595 45.5357 97.0787 45.4341 96.7971C44.9829 96.7586 44.5314 96.7202 44.0807 96.6816C43.6151 96.6345 43.1492 96.5874 42.6836 96.5403C42.6821 96.3098 42.6804 96.079 42.6794 95.8485C44.3552 95.8986 46.0314 95.9494 47.7071 95.9997C47.8714 95.8971 48.0355 95.7946 48.1999 95.692C48.677 95.2877 49.1475 94.8755 49.6314 94.4797C54.2648 90.6895 59.112 87.2318 64.6117 84.773C68.9672 82.8252 73.301 82.4163 77.7039 84.6873C78.9152 85.3116 80.2503 85.7631 81.5803 86.0778C85.6003 87.0294 89.6469 87.1861 93.6521 85.977C94.6072 85.6889 95.3319 85.7328 95.8498 86.8902C96.786 85.7846 97.8142 86.0073 98.911 86.2898C99.9006 86.5444 100.932 86.6973 101.953 86.7547C105.871 86.9771 109.605 86.0847 113.195 84.6223C116.029 83.4681 118.928 82.9932 121.956 83.3002C122.995 83.4059 124.021 83.6491 125.038 83.8268C124.377 81.7883 123.762 79.8918 123.147 77.9953C123.544 77.3195 123.845 76.5601 124.354 75.9826C126.265 73.8168 127.58 71.4491 127.302 68.4429C127.919 68.3413 128.535 68.24 129.151 68.1384C129.226 68.1233 129.3 68.1072 129.375 68.0898C129.823 71.3979 128.742 74.1768 126.5 76.5889C125.468 77.6987 125.38 78.8875 125.954 80.3823C127.1 83.3683 128.645 85.7384 131.742 87.1654C134.534 88.4509 137.048 90.3388 139.659 91.9457V93.746C138.747 93.4681 137.834 93.191 136.778 92.8699C135.486 97.8505 133.39 102.312 130.189 106.398C131.225 107.484 132.187 108.493 133.15 109.502H130.733C129.72 108.585 129.1 107.039 127.233 107.572C125.178 108.16 123.409 107.445 121.772 106.193C121.247 105.791 120.587 105.564 119.99 105.256C119.772 105.362 119.555 105.467 119.337 105.572C119.283 105.689 119.191 105.743 119.062 105.734C117.82 105.976 116.578 106.219 115.336 106.461C115.173 106.403 115.01 106.344 114.847 106.286C114.582 106.106 114.316 105.927 114.05 105.747C113.745 105.484 113.441 105.222 113.136 104.96C112.904 104.749 112.671 104.537 112.438 104.325C112.039 104.101 111.639 103.877 111.239 103.653L111.272 103.644C110.966 103.54 110.659 103.436 110.354 103.333C110.017 103.301 109.68 103.271 109.343 103.239C108.992 103.198 108.64 103.158 108.289 103.118C108.04 102.953 107.792 102.788 107.543 102.623C107.084 102.201 106.625 101.779 106.165 101.358C105.974 100.972 105.782 100.586 105.591 100.201C105.574 99.734 105.558 99.2674 105.541 98.8003C105.633 98.5227 105.726 98.2448 105.818 97.9672C105.485 97.7552 105.152 97.5436 104.818 97.3321C104.713 97.3365 104.608 97.3407 104.502 97.3453C104.263 97.3563 104.024 97.3668 103.785 97.3778C103.495 97.2422 103.204 97.1067 102.914 96.9712C103.265 96.8291 103.617 96.6863 104.176 96.4592C101.002 94.7041 97.8398 93.1663 95.7111 89.8776C93.6887 93.5382 90.2986 95.0733 86.9647 96.6831C86.9967 96.7966 87.0287 96.9107 87.0604 97.0247H101.73C101.73 97.1749 101.73 97.3248 101.731 97.4745C101.143 97.5216 100.554 97.568 99.9665 97.6146C99.8713 97.6205 99.7761 97.6256 99.6813 97.6315C95.0497 97.746 90.4178 97.8605 85.7016 97.9765C85.8137 98.6794 85.8755 99.0682 85.9375 99.4571C85.9265 99.7084 85.9155 99.9599 85.9048 100.211C85.4758 101.376 84.7001 102.119 83.4223 102.254C83.1933 102.34 82.9638 102.425 82.7347 102.511C82.3377 102.56 81.9412 102.609 81.5449 102.658C81.2436 102.777 80.9428 102.896 80.6415 103.015C80.2215 103.618 79.7859 104.211 79.3847 104.827C78.4129 106.316 77.2963 107.568 75.3015 107.479C74.1849 107.358 73.0688 107.238 71.9522 107.117C70.4542 106.147 69.2837 106.533 68.1497 107.837C66.747 109.449 64.8459 109.466 62.9511 108.997C62.0343 108.769 61.28 108.745 60.6335 109.502H58.5614C58.8982 108.851 59.2344 108.2 59.6497 107.397C59.1963 106.722 58.6784 105.953 58.1608 105.183C57.9793 104.898 57.7977 104.613 57.6163 104.328C57.45 103.935 57.2837 103.542 57.1167 103.149C57.008 102.408 57.1497 101.545 56.1796 101.222C56.067 100.873 55.9547 100.524 55.8421 100.175C55.7994 100.073 55.7564 99.9708 55.7134 99.8688C55.6351 99.6261 55.5567 99.3829 55.4776 99.1402C55.3997 98.9134 55.3213 98.6868 55.2429 98.4604C55.1167 97.9855 54.9907 97.5106 54.8647 97.0352C55.2051 96.0544 54.8593 95.2918 54.1058 94.6597L54.0843 94.614C54.0128 94.5141 53.941 94.4138 53.8695 94.3139C53.5828 94.2946 53.2957 94.2751 53.009 94.2558C52.7873 94.3882 52.5649 94.52 52.3427 94.6523C52.1527 94.7861 51.9625 94.92 51.7725 95.054C51.5027 95.2625 51.2329 95.4718 50.9624 95.681C50.8244 95.796 50.6857 95.9106 50.5478 96.0258C50.3468 96.1647 50.1461 96.3044 49.9447 96.4436C49.0498 97.1268 48.1554 97.8092 47.2605 98.4917C47.1145 98.5969 46.9692 98.7014 46.8232 98.8067C46.5205 99.0494 46.2177 99.2913 45.9149 99.534C45.7574 99.6407 45.6004 99.7469 45.4429 99.8536C43.8143 100.879 42.1857 101.905 40.5571 102.931C40.3456 103.04 40.1349 103.149 39.9237 103.258C39.5355 103.411 39.147 103.565 38.7588 103.718C38.3869 103.778 37.9896 103.946 37.6507 103.866C37.3221 103.789 37.0545 103.456 36.76 103.235L36.75 103.248C36.9991 103.056 37.2474 102.864 37.4964 102.673C37.5445 102.575 37.6224 102.537 37.7286 102.558C38.1115 102.355 38.4944 102.152 38.8772 101.948C38.9199 101.857 38.989 101.828 39.0848 101.862C39.5968 101.555 40.1088 101.248 40.6208 100.94C40.9075 100.786 41.1941 100.632 41.4808 100.478C41.7635 100.297 42.0465 100.116 42.3295 99.9347C42.6157 99.7689 42.9016 99.6031 43.1878 99.4373C43.9027 99.5602 44.478 99.4933 44.405 98.5447Z" fill="#060A08"/>
<path d="M99.962 97.6111C100.55 97.5645 101.138 97.5176 101.727 97.471C102.411 97.4385 103.096 97.4065 103.781 97.3743C104.02 97.3633 104.259 97.3523 104.498 97.3413L104.658 97.3894L104.814 97.3281C105.147 97.5401 105.48 97.7518 105.813 97.9637C105.721 98.2413 105.629 98.5192 105.537 98.7968C105.553 99.2634 105.57 99.7303 105.586 100.197C105.778 100.583 105.97 100.968 106.161 101.354C106.62 101.776 107.08 102.197 107.539 102.619C107.787 102.784 108.036 102.949 108.284 103.114C108.636 103.155 108.988 103.195 109.339 103.235C109.676 103.267 110.012 103.298 110.349 103.329C110.655 103.433 110.961 103.536 111.267 103.64L111.235 103.649C111.635 103.873 112.034 104.097 112.434 104.322C112.667 104.533 112.899 104.745 113.132 104.956C113.436 105.218 113.741 105.481 114.046 105.743C114.312 105.923 114.577 106.103 114.843 106.283C115.006 106.341 115.169 106.399 115.331 106.457C116.68 107.218 117.606 107.037 119.058 105.73C119.187 105.739 119.278 105.685 119.332 105.568C119.55 105.463 119.768 105.358 119.985 105.253C120.584 105.56 121.243 105.787 121.768 106.19C123.404 107.441 125.173 108.156 127.229 107.569C129.096 107.035 129.716 108.582 130.729 109.498H60.6289C61.2755 108.741 62.0302 108.766 62.9471 108.993C64.8418 109.463 66.7432 109.444 68.1452 107.833C69.2798 106.53 70.4497 106.144 71.9476 107.113C72.9785 108.027 74.1156 107.96 75.2977 107.475C77.2918 107.565 78.4089 106.313 79.3802 104.823C79.7818 104.208 80.2177 103.615 80.6376 103.011C80.9382 102.893 81.2395 102.773 81.5403 102.654C81.9366 102.605 82.3336 102.556 82.7302 102.507C82.9597 102.421 83.1887 102.336 83.418 102.25C84.6957 102.115 85.4712 101.372 85.9002 100.207C85.9112 99.9564 85.9222 99.7049 85.9332 99.4531C85.8714 99.0647 85.8092 98.6755 85.6978 97.973C90.4137 97.8565 95.0451 97.7417 99.677 97.628L99.8228 97.6812L99.962 97.6111Z" fill="#0642F2"/>
<path d="M133.149 109.503C132.186 108.494 131.224 107.485 130.188 106.4C133.388 102.313 135.484 97.8519 136.776 92.8711C137.832 93.1922 138.745 93.4696 139.658 93.7467C144.804 96.8853 145.003 105.391 144.154 108.736C143.685 110.585 139.704 107.595 139.71 109.503H133.149Z" fill="#0642F2"/>
<path d="M79.6442 33.6654C80.8152 34.2455 82.0646 34.709 83.1395 35.4317C85.1023 36.7512 87.0396 36.5353 89.0098 35.6173C92.6406 33.9254 96.2609 32.2113 99.8661 30.4672C100.762 30.0341 101.585 29.45 102.442 28.9353V28.404C101.345 28.0624 100.269 27.5858 99.1453 27.4029C95.2776 26.7727 91.8441 28.1156 88.4345 29.7679C85.7164 31.0855 82.8587 32.1146 80.0624 33.2715C79.923 33.4029 79.7838 33.5343 79.6442 33.6654ZM42.6774 95.8469C42.6788 96.0776 42.68 96.3081 42.6815 96.5384C39.2834 96.1052 35.8499 95.8515 32.4938 95.2015C25.8963 93.9238 19.7215 91.5148 14.2157 87.5781C12.958 86.6785 11.7733 85.6762 10.5427 84.7381C9.92443 84.2674 9.27811 83.8332 8.36174 83.1815C7.88781 84.682 7.54157 85.9289 7.10109 87.1412C6.42035 89.0179 5.70053 90.8819 4.93531 92.7256C4.77684 93.1085 4.34954 93.3798 4.04628 93.7026C3.85534 91.5571 4.28264 89.53 4.82445 87.4394C6.39202 81.3866 7.82872 75.2939 9.08912 69.1699C10.1828 63.8587 12.528 59.3828 16.6144 55.7727C21.1965 51.7251 24.5421 46.6869 27.4978 41.4114C31.9224 33.5133 38.5482 28.5332 47.1435 25.9577C50.5555 24.9353 53.9106 23.7941 57.5273 23.6105C61.3495 23.4163 64.7711 24.7187 68.1609 26.1467C73.3219 28.3202 78.3994 28.4143 83.5035 25.9787C85.8864 24.8416 88.3032 23.7631 90.7588 22.794C97.2305 20.2397 103.576 20.1362 109.482 24.3002C112.747 26.6025 116.218 28.3657 119.953 29.8036C125.32 31.87 129.524 35.6383 133.138 40.0436C134.453 41.6473 134.814 43.6588 135.104 45.6592C135.05 45.9156 134.996 46.1713 134.942 46.4276C134.192 46.2999 133.441 46.1717 132.691 46.0443C132.695 45.3408 132.701 44.6374 132.705 43.9332C132.729 43.8836 132.783 43.8241 132.771 43.7852C132.74 43.6871 132.679 43.598 132.63 43.5054C132.109 42.5107 131.789 41.3108 131.026 40.5646C129.456 39.0295 127.649 37.7371 125.939 36.3449C125.075 35.5311 124.286 34.6127 123.331 33.9254C121.434 32.562 119.489 31.1922 116.915 31.8458C116.803 31.861 116.692 31.8768 116.579 31.892C114.619 32.2187 112.658 32.5456 110.697 32.8721C110.583 32.8857 110.469 32.8992 110.355 32.9128C108.302 33.3892 106.144 33.609 104.22 34.3981C100.847 35.7821 97.5648 37.4156 94.3466 39.1353C92.0026 40.3879 89.6495 41.1917 86.9763 40.7883C86.1291 40.6608 85.2813 40.5363 84.4333 40.4103C84.1718 40.3361 83.9103 40.2623 83.6488 40.1879C83.2257 40.163 82.8032 40.1373 82.3801 40.1117C82.2707 40.1039 82.1613 40.0953 82.0522 40.087C79.2269 40.1215 76.4018 40.1556 73.5766 40.1901C73.4125 40.2648 73.2481 40.3393 73.0841 40.414C72.0185 40.6393 70.9478 40.844 69.8879 41.0937C65.4474 42.1398 61.2987 43.9332 57.2736 46.0394C57.1261 46.1461 56.9786 46.2523 56.8307 46.3585C55.4938 47.4155 54.157 48.4726 52.8202 49.5291C52.5352 49.2561 52.25 48.9826 51.9651 48.7089C51.9724 48.6137 51.9788 48.5192 51.9849 48.424C54.1763 46.9301 56.3677 45.4366 58.5599 43.9427C58.6666 43.8621 58.7733 43.7816 58.8805 43.7005C67.3522 39.4515 76.2844 37.7247 85.8178 38.915C85.1985 38.2257 84.5625 37.7921 83.903 37.3977C79.9167 35.0159 75.745 33.7579 71.1163 35.3313C69.1148 36.0111 67.1122 36.6875 65.11 37.3658C64.8841 37.4715 64.6582 37.577 64.4326 37.6827C62.9447 38.3993 61.3908 39.0059 59.9819 39.8539C56.4781 41.9606 53.0409 44.1771 49.5764 46.349C49.4545 46.4621 49.3322 46.5751 49.2099 46.6879L49.2228 46.6735C49.0111 46.8037 48.7997 46.9343 48.588 47.0652L48.5533 47.0891C48.4332 47.1892 48.3128 47.2896 48.1924 47.3894L48.1951 47.3858C47.8625 47.5379 47.5305 47.6902 47.1977 47.8424C47.0675 47.4605 46.9379 47.0793 46.8075 46.6974C49.3097 44.9641 51.8113 43.2305 54.3135 41.4971C54.4598 41.4024 54.6063 41.3084 54.7528 41.2141C60.0644 38.0692 65.5463 35.2947 71.5739 33.5738C71.1058 33.2312 70.6555 33.0508 70.1953 32.9023C66.0688 31.5714 61.8657 30.7668 57.5029 31.0745C57.3981 31.086 57.2941 31.0974 57.1893 31.1084C55.1036 31.7047 53.0175 32.3005 50.9315 32.8967C50.826 32.9265 50.7386 32.9839 50.67 33.0686C49.4216 33.8275 48.1726 34.5871 46.9242 35.346C46.7782 35.4678 46.6324 35.5902 46.4859 35.712C45.2333 36.6696 43.9802 37.6273 42.7274 38.5849C42.6888 38.3537 42.65 38.1227 42.6114 37.8915C43.9483 36.5812 45.1615 35.1052 46.6512 34.0011C48.6124 32.5488 50.681 31.1617 53.2067 30.7898C53.3776 30.6931 53.5493 30.5959 53.7209 30.4985C54.3763 30.3669 55.0321 30.2345 55.6875 30.1022C55.9446 30.0304 56.2019 29.9584 56.4593 29.8866C58.7794 29.8846 61.0995 29.8824 63.4196 29.881C63.6681 29.9579 63.9165 30.0346 64.165 30.1115C66.5132 30.622 68.8763 31.0745 71.2074 31.6539C75.9804 32.8406 80.5281 32.2406 84.9151 30.1095C86.9287 29.1314 88.9265 28.1193 90.9607 27.1863C94.8115 25.4195 98.6799 25.2066 102.6 27.0608C103.62 27.5431 104.775 27.7423 105.868 28.0712C106.039 28.2067 106.209 28.3417 106.38 28.477C106.412 28.5932 106.376 28.6806 106.27 28.7392C106.135 28.8652 105.999 28.9907 105.864 29.1162C99.8551 31.9865 93.8461 34.8564 87.8346 37.7276C88.6018 39.253 88.6018 39.253 89.9989 39.5218C90.1066 39.5076 90.2148 39.4939 90.3227 39.4798C92.4748 38.4018 94.5993 37.2637 96.7861 36.2611C99.3279 35.096 101.925 34.0487 104.497 32.9509C104.61 32.9275 104.724 32.9033 104.837 32.8799C107.488 32.3386 110.139 31.7972 112.79 31.2554C112.896 31.2491 113.003 31.2427 113.109 31.2361C113.874 31.0938 114.639 30.9509 115.571 30.7773C112.507 28.7869 109.69 26.8296 106.75 25.0791C103.283 23.0152 99.4507 22.5581 95.5999 23.5802C92.8472 24.3107 90.1762 25.4222 87.557 26.5644C83.4281 28.3657 79.3392 30.0395 74.6646 29.7931C71.0609 29.6036 67.8427 28.3129 64.6241 26.9463C62.1885 25.9127 59.6774 25.3499 57.0638 25.691C50.6099 26.5315 44.5601 28.6321 38.955 31.9332C35.2463 34.1173 32.591 37.3973 30.3607 40.9704C26.1812 47.6656 21.709 54.1012 15.9068 59.5354C13.9899 61.331 12.6765 63.6145 12.0824 66.1714C11.0061 70.8007 10.1598 75.4834 9.07862 80.1113C8.76657 81.4504 9.12941 82.2569 10.0875 83.0795C14.9731 87.2767 20.3336 90.6273 26.5177 92.5938C31.7891 94.27 37.1967 95.2299 42.6774 95.8469Z" fill="#0B0E0B"/>
<path d="M36.7598 103.234C37.0541 103.455 37.3219 103.788 37.6498 103.866C37.9887 103.946 38.3862 103.777 38.7581 103.717C38.2241 103.983 37.7116 104.339 37.1461 104.472C36.9024 104.529 36.5494 104.125 36.2461 103.93C36.417 103.699 36.5887 103.467 36.7598 103.234Z" fill="#0B0E0B"/>
<path d="M54.1055 94.6562C54.8592 95.2884 55.2042 96.051 54.8643 97.0323C54.6111 96.2404 54.3579 95.4481 54.1055 94.6562Z" fill="#0B0E0B"/>
<path d="M56.1797 101.219C57.1505 101.542 57.0089 102.404 57.1175 103.146C56.8048 102.504 56.4925 101.861 56.1797 101.219Z" fill="#0B0E0B"/>
<path d="M44.4008 98.5391C44.474 99.4884 43.8985 99.5548 43.1836 99.4322C43.5896 99.1348 43.995 98.8367 44.4008 98.5391Z" fill="#0B0E0B"/>
<path d="M45.7387 97.6406C45.8156 98.5189 45.2308 98.4713 44.6445 98.4215C45.0091 98.161 45.3741 97.9012 45.7387 97.6406Z" fill="#0B0E0B"/>
<path d="M38.879 101.945C38.4962 102.149 38.1133 102.352 37.7305 102.555C38.1133 102.352 38.4962 102.149 38.879 101.945Z" fill="#0B0E0B"/>
<path d="M46.9234 35.345C48.1719 34.5861 49.4208 33.8267 50.6692 33.0676C50.7566 33.0102 50.8433 32.9526 50.9307 32.8957C53.0164 32.2994 55.1029 31.7037 57.1886 31.1074L57.3492 31.1267L57.5018 31.0735C61.8649 30.7658 66.0685 31.5704 70.1945 32.9013C70.6548 33.05 71.105 33.2305 71.5731 33.573C65.5453 35.2937 60.0637 38.0682 54.752 41.2131C54.6055 41.3074 54.459 41.4014 54.3125 41.4956C51.8105 43.2295 49.309 44.9633 46.8067 46.6964C46.105 47.2734 45.4025 47.8504 44.7 48.4271C40.9081 48.3038 37.122 48.2274 33.6692 50.1986C32.4422 50.8988 31.2214 51.6123 30.0154 52.3482C29.2502 52.8153 28.4305 53.2426 27.7856 53.8482C25.7637 55.7478 25.1183 58.2896 24.726 60.9115C24.5748 61.9199 24.2469 63.0089 24.4771 63.9429C24.8808 65.5815 25.645 67.1329 26.2811 68.7117C26.3614 68.9105 26.5682 69.0675 26.7377 69.2196C27.7146 70.0984 28.6957 70.9723 29.6806 71.8425C29.9363 72.0691 30.1863 72.3154 30.4781 72.4869C31.9829 73.372 33.4865 74.261 35.0216 75.0921C35.5437 75.3751 36.2 75.7319 36.7184 75.6366C37.8955 75.4206 38.9349 75.7141 40.019 76.0288C40.6685 76.2175 41.3586 76.3489 42.0332 76.3604C44.3882 76.3997 46.7444 76.3923 49.1002 76.3621C49.5888 76.3557 50.1943 76.325 50.542 76.0488C52.2217 74.7144 54.7493 75.4311 56.2199 73.6523C56.2466 73.6198 56.3308 73.6244 56.3874 73.6286C58.1145 73.7426 59.0125 72.3008 60.2817 71.5571C60.376 71.5529 60.47 71.5492 60.5642 71.5456C61.5892 74.3169 64.2023 74.8888 66.5513 75.601C69.7096 76.5581 72.9446 77.3175 76.1925 77.9133C81.4608 78.8797 86.7434 79.8605 92.0633 80.4253C96.3773 80.8834 100.755 80.8206 105.105 80.8389C109.051 80.8558 112.975 80.4597 116.828 79.5456C118.938 79.045 121.039 78.511 123.144 77.9921C123.759 79.8891 124.374 81.7856 125.036 83.8244C124.018 83.6466 122.993 83.403 121.953 83.2977C118.926 82.9908 116.026 83.4657 113.192 84.6199C109.602 86.0822 105.868 86.9739 101.95 86.7522C100.93 86.6941 99.8978 86.542 98.9081 86.2873C97.8118 86.0048 96.7836 85.7814 95.847 86.8877C95.3291 85.7304 94.6047 85.6864 93.6492 85.9745C89.6439 87.1832 85.598 87.0269 81.5775 86.0749C80.248 85.7607 78.9121 85.3092 77.7013 84.6843C73.2981 82.4133 68.9644 82.8228 64.6086 84.7705C59.1092 87.2293 54.2619 90.6868 49.6291 94.4773C49.1446 94.8731 48.6739 95.2852 48.197 95.6896C48.0327 95.7921 47.8684 95.8939 47.7043 95.9965C46.0285 95.9464 44.3523 95.8961 42.6766 95.8458C37.1957 95.2283 31.7883 94.2685 26.5169 92.5923C20.3326 90.6257 14.9724 87.2757 10.0868 83.0787C9.12864 82.2558 8.76556 81.4489 9.07834 80.1106C10.159 75.4823 11.0053 70.7996 12.0816 66.1704C12.6757 63.6135 13.9891 61.33 15.9058 59.5344C21.7083 54.1004 26.1805 47.6646 30.3599 40.9689C32.5902 37.3962 35.2455 34.1163 38.9542 31.9322C44.5594 28.631 50.6092 26.5305 57.0631 25.6895C59.6771 25.3492 62.1877 25.9117 64.6233 26.9453C67.8424 28.3119 71.0601 29.6028 74.6635 29.7921C79.3384 30.0384 83.4273 28.3647 87.556 26.5634C90.1754 25.4207 92.8464 24.3097 95.5989 23.5792C99.45 22.5571 103.283 23.0144 106.749 25.0781C109.689 26.8286 112.506 28.7858 115.57 30.7763C114.638 30.9499 113.873 31.0928 113.109 31.2351C112.999 31.1975 112.893 31.2036 112.789 31.2544C110.138 31.7957 107.487 32.3375 104.836 32.8789C104.723 32.9025 104.61 32.926 104.496 32.9502C101.924 34.0479 99.3276 35.0945 96.7851 36.2601C94.5985 37.2629 92.474 38.401 90.3217 39.4788C90.2094 39.4558 90.1009 39.4695 89.9979 39.5208C88.601 39.2519 88.601 39.2519 87.8338 37.7269C93.8453 34.8554 99.8543 31.9857 105.863 29.1152C105.999 28.9897 106.134 28.8642 106.269 28.7382C106.375 28.6796 106.411 28.5922 106.379 28.4762C106.208 28.3407 106.038 28.2057 105.867 28.0702C104.774 27.7413 103.619 27.542 102.599 27.0598C98.6791 25.2058 94.8107 25.418 90.9599 27.1853C88.9258 28.1185 86.928 29.1304 84.9143 30.1085C80.5273 32.2399 75.9796 32.8398 71.2066 31.6529C68.8755 31.073 66.5124 30.6205 64.164 30.1105C63.9157 30.0338 63.6671 29.9569 63.4188 29.8795C61.0987 29.8814 58.7786 29.8836 56.4585 29.8851C56.2011 29.9574 55.9438 30.0294 55.6872 30.1012C55.0311 30.2335 54.3752 30.3659 53.7199 30.4977C53.5485 30.5949 53.3773 30.6916 53.2059 30.789C50.6802 31.1609 48.6116 32.5478 46.6509 34.0003C45.1608 35.1045 43.9475 36.5797 42.6107 37.8904C42.4664 38.098 42.3213 38.3058 42.1765 38.5133C42.3601 38.537 42.543 38.5604 42.7266 38.5839C43.9792 37.6263 45.2326 36.6686 46.4851 35.711C46.6316 35.5887 46.7774 35.4668 46.9234 35.345Z" fill="#549836"/>
<path d="M124.401 67.844C122.764 66.8695 121.865 67.7959 120.908 68.1174C117.925 69.1217 115.034 70.47 111.992 71.2147C103.829 73.2133 95.4735 72.9757 87.1491 72.857C85.2621 72.8304 83.3693 72.6238 81.4948 72.3802C76.9801 71.7932 72.6256 70.5809 68.3981 68.8895C67.8472 68.6688 67.2024 68.6829 66.601 68.5882C66.5392 68.7682 66.4779 68.9481 66.4161 69.1281C66.8996 69.4492 67.3435 69.8716 67.8724 70.0735C69.8535 70.8314 71.8379 71.5993 73.8655 72.2144C79.7971 74.0134 85.9331 74.5333 92.0713 74.5057C97.2208 74.482 102.387 74.0835 107.51 73.5251C112.491 72.982 117.277 71.5024 121.833 69.3737C122.626 69.003 123.348 68.4774 124.401 67.844ZM123.145 77.9941C121.04 78.513 118.939 79.0465 116.829 79.547C112.976 80.4612 109.052 80.8573 105.106 80.8409C100.756 80.8226 96.3782 80.8848 92.0645 80.4268C86.7442 79.8618 81.4619 78.8812 76.1934 77.9153C72.9455 77.3195 69.7107 76.5596 66.5521 75.6025C64.2035 74.8905 61.5904 74.3184 60.5653 71.5468C60.5026 69.2912 60.4816 67.0516 62.5731 65.5029C62.6818 65.4223 62.6757 65.1869 62.7233 65.0238C64.7834 63.9507 66.9968 63.7236 69.2495 64.0025C70.8337 64.1985 72.3902 64.6121 73.9634 64.9034C78.9174 65.8215 83.8828 66.8817 88.9388 66.65C93.3852 66.4459 97.8496 66.0327 102.236 65.2968C106.612 64.5636 110.9 63.3141 115.227 62.2911C115.788 62.1641 116.35 62.0364 116.911 61.9092C117.368 61.8821 117.825 61.855 118.282 61.8281C119.919 64.1975 122.339 65.1327 125.053 65.5898C126.25 65.7917 127.2 65.6667 127.725 64.4146C128.144 63.4172 128.904 62.9161 130.004 62.9721C129.989 63.5107 129.975 64.0496 129.962 64.5882C129.644 65.2607 129.327 65.9334 129.009 66.6056C128.476 66.6529 127.944 66.7005 127.301 66.7582V68.4417C127.578 71.4482 126.263 73.8152 124.353 75.9817C123.843 76.5584 123.542 77.3185 123.145 77.9941Z" fill="#AE542A"/>
<path d="M94.0858 87.7878C93.7909 90.3481 92.2328 91.7616 90.3813 92.8743C87.6512 94.5154 84.7254 95.662 81.5157 95.9946C79.9377 96.1577 78.5632 95.8466 77.41 94.6853C76.9713 94.2441 76.4575 93.8276 75.8991 93.5724C75.5685 93.4217 74.9036 93.4593 74.7171 93.6845C74.5056 93.9386 74.5774 94.5207 74.6861 94.9161C74.7688 95.2179 75.0841 95.4674 75.3236 95.713C77.0382 97.4742 77.8583 99.6158 78.1401 102.027C78.2934 103.337 77.7646 104.284 76.7598 104.97C75.7118 105.685 74.4837 106.491 73.274 105.637C72.0915 104.802 71.0438 103.696 70.1636 102.538C69.4115 101.547 69.0108 100.296 68.3921 99.1959C68.1479 98.7608 67.7348 98.4209 67.3983 98.038C67.2069 98.1064 67.0155 98.1755 66.824 98.2441C66.8963 99.0965 66.9005 99.9616 67.0585 100.798C67.2489 101.808 67.6457 102.781 67.8188 103.793C68.1819 105.909 67.0245 107.117 64.8639 107.191C62.7498 107.263 61.1964 106.383 60.0647 104.696C57.8178 101.347 56.7931 97.5138 55.7988 93.6776C55.5537 92.7315 55.9897 91.9611 56.7603 91.4496C61.1176 88.5552 65.4779 85.5797 70.8963 85.1666C72.4351 85.0494 74.1616 85.3317 75.5717 85.9531C81.2823 88.4692 87.1109 89.2564 93.2093 87.7941C93.418 87.7438 93.649 87.7878 94.0858 87.7878Z" fill="#549836"/>
<path d="M97.7308 87.8301C99.2522 87.9524 100.685 88 102.097 88.1941C106.008 88.7318 109.739 88.1878 113.359 86.6178C117.382 84.8734 121.537 84.6156 125.571 86.375C128.289 87.5607 130.813 89.1967 133.397 90.6763C134.391 91.2448 134.801 92.1433 134.529 93.3134C133.51 97.6943 131.872 101.737 128.415 104.831C126.867 106.215 124.616 106.268 123.108 104.858C122.239 104.047 121.876 103.124 122.446 101.93C122.93 100.918 123.272 99.8395 123.681 98.7816C122.694 98.1753 122.202 98.5042 121.773 99.1612C121.082 100.218 120.376 101.265 119.662 102.306C119.435 102.636 119.181 102.952 118.906 103.244C116.773 105.512 114.219 104.957 113.164 101.979C112.448 99.9572 112.572 98.0466 113.964 96.2898C114.587 95.5043 115.086 94.6209 115.641 93.7815C115.569 93.6454 115.496 93.5094 115.424 93.3734C114.861 93.4367 114.281 93.4311 113.742 93.58C113.139 93.748 112.571 94.0493 111.993 94.3045C108.655 95.7778 105.497 95.2946 102.519 93.3568C101.031 92.3892 99.5728 91.3615 98.1998 90.24C97.26 89.4723 97.3254 89.3285 97.7308 87.8301Z" fill="#549836"/>
<path d="M101.726 97.0258H87.0567C87.0247 96.9117 86.9927 96.7977 86.9609 96.6837C90.2946 95.0744 93.6849 93.5395 95.7073 89.8789C97.8355 93.1676 100.998 94.7052 104.172 96.4605C103.613 96.6873 103.261 96.8297 102.91 96.9725C102.516 96.9904 102.12 97.0082 101.726 97.0258Z" fill="#549836"/>
<path d="M111.159 96.8359C111.003 98.3066 110.953 99.5091 110.705 100.669C110.632 101.01 109.993 101.468 109.623 101.461C108.668 101.442 107.823 101.034 107.568 99.9677C107.259 98.6692 107.768 97.7062 109.06 97.2537C109.642 97.0498 110.28 97.0044 111.159 96.8359Z" fill="#549836"/>
<path d="M82.8221 98.4219C83.3158 98.792 83.8091 99.1619 84.3164 99.5421C83.2929 101.003 82.021 100.978 80.889 101.096C80.6099 101.125 80.2491 100.382 79.9258 99.9941C79.9927 99.5101 80.0596 99.0264 80.1433 98.4219H82.8221Z" fill="#549836"/>
<path d="M127.301 68.4414V66.7576C127.944 66.7002 128.477 66.6531 129.009 66.6055C129.056 67.116 129.103 67.6263 129.15 68.1369C128.534 68.2382 127.917 68.3398 127.301 68.4414Z" fill="#0B0E0B"/>
<path d="M119.062 105.73C117.611 107.037 116.685 107.218 115.336 106.458C116.578 106.215 117.82 105.973 119.062 105.73Z" fill="#0B0E0B"/>
<path d="M82.819 98.4229H80.1402C80.0565 99.0275 79.9896 99.5112 79.9227 99.9951C79.6851 99.4575 79.4483 98.9203 79.2109 98.3826C79.2913 98.2347 79.3723 98.086 79.4529 97.9375C80.5749 98.0991 81.6973 98.2613 82.819 98.4229Z" fill="#579938"/>
<path d="M75.299 107.479C74.117 107.963 72.9806 108.03 71.9492 107.117C73.0658 107.238 74.1824 107.358 75.299 107.479Z" fill="#0B0E0B"/>
<path d="M101.727 97.022C102.121 97.0044 102.516 96.9866 102.911 96.9688C103.202 97.1043 103.492 97.2395 103.782 97.375C103.097 97.4075 102.412 97.4395 101.728 97.472C101.727 97.3218 101.727 97.1721 101.727 97.022Z" fill="#0B0E0B"/>
<path d="M81.5433 102.656L80.6406 103.013C80.9412 102.894 81.2425 102.775 81.5433 102.656Z" fill="#0B0E0B"/>
<path d="M99.9646 97.6133L99.8255 97.6834L99.6797 97.6301C99.7747 97.6243 99.8694 97.6191 99.9646 97.6133Z" fill="#0B0E0B"/>
<path d="M104.82 97.3281L104.664 97.3894L104.504 97.3413C104.609 97.3372 104.715 97.3325 104.82 97.3281Z" fill="#0B0E0B"/>
<path d="M110.699 32.8745C112.66 32.5475 114.621 32.2206 116.581 31.8941L116.753 31.9005L116.918 31.8477C119.49 31.1943 121.436 32.5641 123.333 33.9278C124.288 34.6149 125.077 35.5335 125.942 36.3473C123.371 36.34 120.8 36.3327 118.228 36.3253C117.448 36.4774 116.667 36.6296 115.886 36.7819C112.715 37.6841 109.543 38.5856 106.371 39.4878C105.986 39.5957 105.602 39.7034 105.218 39.8111C100.766 41.4231 96.5928 43.5298 93.0523 46.8315C92.74 46.5392 92.4675 46.3885 92.3498 46.159C90.2678 42.1102 82.7291 40.9875 78.3269 42.3107C73.9465 42.6491 69.6955 43.4644 65.8247 45.6868C65.7043 45.8064 65.5847 45.9268 65.4643 46.0465L65.4973 46.0225C64.9637 46.1673 64.4 46.2442 63.9021 46.4681C60.5997 47.9539 57.5117 49.7825 54.8607 52.2835C53.7727 51.7825 52.6849 51.2815 51.5977 50.7799C51.7378 50.5743 51.8785 50.3687 52.0191 50.1632C52.2865 49.9524 52.5541 49.7422 52.8219 49.5315C54.1592 48.4745 55.4961 47.4175 56.8329 46.3609C56.9804 46.2547 57.1279 46.148 57.2758 46.0418C61.3005 43.9356 65.4496 42.1417 69.8896 41.0962C70.9496 40.8461 72.0203 40.6418 73.0863 40.4161C73.2504 40.3414 73.4147 40.2667 73.5788 40.192C76.4036 40.1578 79.2291 40.1239 82.0544 40.0894L82.2161 40.1327L82.3823 40.1139C82.805 40.139 83.2281 40.1647 83.6506 40.1903C83.9121 40.264 84.1736 40.3383 84.4351 40.412C85.2831 40.5382 86.1308 40.663 86.9786 40.7907C89.6513 41.1941 92.0048 40.3895 94.3489 39.1374C97.567 37.4177 100.849 35.784 104.222 34.4005C106.146 33.6106 108.304 33.3916 110.357 32.9153C110.471 32.9016 110.585 32.8879 110.699 32.8745Z" fill="#579938"/>
<path d="M65.1129 37.3649C67.1151 36.6871 69.1177 36.0107 71.1192 35.3304C75.7479 33.7577 79.9196 35.015 83.9059 37.3973C84.5654 37.7912 85.2014 38.2253 85.8207 38.9141C76.2873 37.7236 67.3551 39.4506 58.8834 43.7001C58.7762 43.7807 58.6695 43.8617 58.5628 43.9423C56.3706 45.4361 54.1792 46.9297 51.9878 48.4236C50.7833 48.3105 49.5793 48.1982 48.2734 48.0756C48.2576 47.9325 48.2278 47.6588 48.198 47.3854L48.1953 47.389C48.3157 47.2887 48.4361 47.1888 48.5562 47.0882L48.5909 47.0643C48.8026 46.9339 49.014 46.8032 49.2257 46.6724L49.2128 46.6878C49.3351 46.5747 49.4574 46.4617 49.5798 46.3488C53.0438 44.1762 56.481 41.9597 59.9848 39.853C61.3937 39.0057 62.9476 38.3984 64.4355 37.6818C64.6611 37.5761 64.887 37.4706 65.1129 37.3649Z" fill="#549836"/>
<path d="M80.063 33.2696C82.859 32.1125 85.7168 31.0833 88.4349 29.7658C91.8445 28.113 95.278 26.7706 99.1456 27.4008C100.269 27.5839 101.345 28.0598 102.442 28.4018V28.9332C101.586 29.4479 100.762 30.0319 99.8664 30.4651C96.2613 32.2094 92.641 33.9233 89.0101 35.6146C87.0399 36.5332 85.1022 36.749 83.1398 35.4291C82.065 34.7068 80.8151 34.2434 79.6445 33.6635C79.7842 33.5321 79.9234 33.4007 80.063 33.2696Z" fill="#549836"/>
<path d="M132.446 46.3113C132.528 46.2217 132.61 46.1323 132.692 46.043C133.443 46.1709 134.193 46.2986 134.944 46.4263C134.878 47.2897 134.812 48.1533 134.746 49.0167C134.644 49.0074 134.555 49.0382 134.481 49.1097C133.784 48.7464 133.087 48.3828 132.391 48.0193C132.41 47.4499 132.428 46.8807 132.446 46.3113Z" fill="#549836"/>
<path d="M48.196 47.3828C48.2258 47.6565 48.2561 47.93 48.2717 48.0738C49.5778 48.1957 50.7818 48.3087 51.9858 48.421C51.9794 48.5162 51.9731 48.611 51.9662 48.7062C51.641 48.987 51.3158 49.2673 50.9903 49.5481C50.7722 49.669 50.5542 49.7893 50.3362 49.9102C49.9391 49.76 49.5494 49.5842 49.1431 49.4666C48.2378 49.2036 47.3241 48.9697 46.4141 48.724C46.6756 48.4288 46.9371 48.1344 47.1986 47.8394C47.5311 47.6873 47.8632 47.5352 48.196 47.3828Z" fill="#579938"/>
<path d="M47.1961 47.8436C46.9346 48.1386 46.6731 48.4336 46.4116 48.7285C45.8661 48.8526 45.3206 48.9768 44.7747 49.1009C44.7495 48.877 44.7244 48.6533 44.6992 48.4299C45.4017 47.8529 46.1042 47.2762 46.8059 46.6992C46.9363 47.0806 47.066 47.4622 47.1961 47.8436Z" fill="#081105"/>
<path d="M50.9922 49.5497C51.3177 49.2689 51.6429 48.9878 51.9681 48.707C52.2533 48.9805 52.5378 49.2542 52.8227 49.5277C52.5551 49.7384 52.2873 49.9486 52.0194 50.1594C51.6773 49.956 51.3348 49.7531 50.9922 49.5497Z" fill="#081105"/>
<path d="M42.7293 38.5841C42.5457 38.5606 42.3628 38.5369 42.1797 38.5135C42.324 38.306 42.469 38.0982 42.6133 37.8906C42.6519 38.1219 42.6907 38.3528 42.7293 38.5841Z" fill="#081105"/>
<path d="M50.9334 32.8945C50.846 32.9522 50.7593 33.009 50.6719 33.0667C50.7405 32.9819 50.8277 32.9243 50.9334 32.8945Z" fill="#081105"/>
<path d="M90 39.5212C90.103 39.4704 90.2112 39.4562 90.3243 39.4799C90.2161 39.4936 90.1082 39.5075 90 39.5212Z" fill="#081105"/>
<path d="M112.793 31.2582C112.896 31.2077 113.003 31.2013 113.112 31.239C113.006 31.2453 112.899 31.2521 112.793 31.2582Z" fill="#081105"/>
<path d="M82.3826 40.1106L82.2163 40.1294L82.0547 40.0859C82.1638 40.0942 82.2732 40.1021 82.3826 40.1106Z" fill="#081105"/>
<path d="M57.5047 31.0742L57.3518 31.1274L57.1914 31.1082C57.2959 31.0967 57.3999 31.0857 57.5047 31.0742Z" fill="#081105"/>
<path d="M132.708 43.9322C132.683 43.7896 132.658 43.6467 132.633 43.5039C132.682 43.5969 132.743 43.6858 132.774 43.7842C132.786 43.823 132.732 43.8821 132.708 43.9322Z" fill="#DBA39C"/>
<path d="M116.914 31.8477L116.75 31.9002L116.578 31.8938C116.69 31.8787 116.803 31.8628 116.914 31.8477Z" fill="#081105"/>
<path d="M134.482 49.1144C134.556 49.0426 134.644 49.0113 134.747 49.0214C135.346 49.4364 136.027 49.7707 136.529 50.2808C138.749 52.5323 139.106 55.5732 138.012 58.5139C137.086 61.0025 135.246 62.5637 133.229 63.9267C132.379 64.5005 131.066 64.3901 129.963 64.5908C129.977 64.0522 129.992 63.5131 130.005 62.9742C130.436 60.3425 128.257 58.8284 127.207 56.7137C128.174 56.0061 129.165 55.4289 129.971 54.6568C131.219 53.4591 132.342 52.1296 133.518 50.856C133.839 50.2754 134.161 49.695 134.482 49.1144Z" fill="#FBBDC6"/>
<path d="M44.7744 49.1028C45.3199 48.9785 45.8653 48.8545 46.4108 48.7305C47.3213 48.9759 48.2353 49.2095 49.1399 49.4727C49.5464 49.5904 49.9359 49.7667 50.3334 49.9162C50.0992 50.2211 49.8653 50.5266 49.6312 50.8315C46.96 50.8367 44.2848 50.7505 41.62 50.8806C40.0468 50.9575 38.3806 51.1138 36.9517 51.7054C34.8767 52.5642 32.9624 53.8204 31.0096 54.958C28.4458 56.4518 27.5367 58.9351 27.1446 61.6829C26.8804 63.5313 27.3993 65.2647 28.4321 66.7316C30.3491 69.4541 33.0101 71.451 36.1196 72.4342C38.2309 73.1015 40.4177 73.9657 42.8074 73.6597C44.392 73.4573 46.0243 73.5852 47.6336 73.6319C49.0337 73.6722 50.298 73.3892 51.6202 72.8469C53.4571 72.0931 55.2424 71.364 56.9177 70.2369C59.5052 68.4953 60.9885 66.2186 61.3252 63.1475C61.4116 62.362 61.5616 61.5836 61.6824 60.8022C62.0277 60.8435 62.3722 60.8845 62.717 60.9253C62.7184 62.2924 62.7197 63.6595 62.7206 65.0266C62.673 65.19 62.6794 65.4253 62.5705 65.5057C60.4789 67.0544 60.4999 69.294 60.5631 71.5498C60.4691 71.5535 60.3749 71.5572 60.2806 71.5613C60.0763 71.0141 59.8724 70.4665 59.5808 69.6851C58.8164 70.4416 58.2723 71.2444 57.5157 71.6758C55.6185 72.758 53.7191 74.0628 51.6478 74.5575C48.8032 75.2375 45.8067 75.0952 42.8418 75.0659C38.2827 75.0205 34.2189 73.8472 30.6399 71.0356C26.4692 67.7584 24.8392 63.0435 26.8934 57.7745C27.8444 55.3367 30.3684 54.613 31.7721 52.719C31.894 52.5544 32.3193 52.6343 32.5901 52.5554C32.9102 52.4628 33.3136 52.4079 33.5123 52.1862C35.129 50.3828 37.4615 50.3828 39.5416 49.8424C41.2352 49.4027 43.0264 49.335 44.7744 49.1028Z" fill="#7B9C54"/>
<path d="M44.7806 49.096C43.0326 49.3282 41.2413 49.3958 39.5478 49.8356C37.4677 50.3759 35.1351 50.3759 33.5185 52.1794C33.3197 52.4011 32.9164 52.456 32.5963 52.5485C32.3255 52.6274 31.9001 52.5476 31.7783 52.7121C30.3746 54.6062 27.8506 55.3299 26.8995 57.7677C24.8453 63.0366 26.4754 67.7515 30.6461 71.0288C34.2251 73.8404 38.2888 75.0136 42.848 75.059C45.8129 75.0883 48.8094 75.2307 51.654 74.5507C53.7253 74.056 55.6246 72.7512 57.5218 71.669C58.2785 71.2375 58.8225 70.4347 59.587 69.6783C59.8786 70.4596 60.0825 71.0073 60.2868 71.5545C59.0171 72.2982 58.1196 73.74 56.3921 73.626C56.3357 73.6223 56.2519 73.6172 56.2246 73.6497C54.7544 75.4285 52.2263 74.7118 50.5469 76.046C50.1994 76.3221 49.5939 76.3531 49.1048 76.3592C46.7498 76.3898 44.3931 76.3971 42.0378 76.3578C41.3637 76.3463 40.6739 76.2154 40.0237 76.0262C38.94 75.7115 37.9009 75.418 36.723 75.6338C36.2046 75.729 35.5488 75.3723 35.0262 75.0896C33.4912 74.2584 31.988 73.3694 30.4827 72.4843C30.1914 72.3129 29.9414 72.0665 29.6853 71.8399C28.701 70.9697 27.7192 70.0963 26.7423 69.217C26.5728 69.0649 26.3663 68.9079 26.2862 68.7092C25.6496 67.1308 24.8856 65.5794 24.4818 63.9408C24.2515 63.0063 24.5802 61.9173 24.7306 60.9094C25.123 58.287 25.7688 55.7452 27.7908 53.8456C28.4351 53.24 29.2548 52.8127 30.0205 52.3456C31.2265 51.6097 32.4468 50.8962 33.6743 50.196C37.1268 48.2248 40.9134 48.301 44.7051 48.4245C44.7303 48.6484 44.7554 48.8723 44.7806 49.096Z" fill="#579938"/>
<path d="M62.7258 65.0232C62.7249 63.6561 62.7236 62.2889 62.7227 60.9218C63.629 61.0049 64.5354 61.0886 65.4417 61.1716L65.5934 61.198L65.7394 61.1482C66.3425 61.0493 66.9448 60.9499 67.5475 60.851C67.7137 60.8422 67.8795 60.8334 68.0453 60.8244C68.2367 60.8564 68.4287 60.8889 68.6208 60.9206C69.6395 60.8679 70.6589 60.8151 71.6778 60.7626C72.0543 60.5331 72.4304 60.3041 72.8064 60.0746C73.388 59.9684 73.9696 59.8626 74.5512 59.7564C75.5638 59.6424 76.614 59.6602 77.5816 59.3863C79.6255 58.8078 81.909 58.9338 83.6495 57.4207C84.171 57.4771 84.7155 57.6556 85.2097 57.5635C86.2557 57.3684 87.2751 57.032 88.306 56.7539C87.8587 57.2046 87.4478 57.6995 86.9577 58.0963C86.1422 58.7565 85.2761 59.3538 84.4315 59.9771C87.1926 59.8883 90.8981 57.3057 91.9791 55.0667C91.25 55.1853 90.6198 55.2879 89.9891 55.3904C90.5507 54.5776 91.1125 53.7647 91.6167 53.0352C93.0429 53.8155 94.1852 54.5937 95.4385 55.0974C99.3381 56.665 103.429 56.0331 107.465 55.964C107.535 55.963 107.603 55.7972 107.671 55.7078C109.264 55.826 110.858 55.9437 112.451 56.0619C112.792 56.0504 113.132 56.0384 113.471 56.0267C113.441 55.9598 113.426 55.8897 113.429 55.816C113.666 55.8783 113.901 55.9405 114.138 56.0028C113.606 57.6214 114.07 59.0662 114.826 60.506C115.1 61.0273 115.103 61.6912 115.23 62.2904C110.903 63.3135 106.614 64.5629 102.239 65.2961C97.8521 66.0321 93.3882 66.4447 88.9414 66.6493C83.8856 66.881 78.9199 65.8209 73.9664 64.903C72.3927 64.6117 70.8362 64.1979 69.252 64.0018C66.9998 63.7225 64.7859 63.95 62.7258 65.0232Z" fill="#579938"/>
<path d="M133.513 50.8536C132.337 52.1271 131.215 53.4571 129.966 54.6543C129.161 55.4264 128.169 56.0036 127.202 56.7119C128.253 58.8264 130.431 60.34 130.001 62.9724C128.901 62.9165 128.141 63.4176 127.722 64.4147C127.197 65.6669 126.248 65.7919 125.05 65.5902C122.336 65.1329 119.916 64.1977 118.279 61.8285C118.372 61.5697 118.624 61.2115 118.534 61.0669C117.437 59.3155 117.436 57.3453 117.32 55.3949C117.951 54.8865 118.909 54.501 119.154 53.8488C120.057 51.4357 121.897 50.2395 124.152 49.4388C123.534 50.8902 122.915 52.3415 122.311 53.7594C125.9 52.6868 129.119 51.044 131.793 48.4492V50.4101C132.443 50.5774 132.978 50.7154 133.513 50.8536Z" fill="#DBA39C"/>
<path d="M124.399 67.8401C123.346 68.4734 122.624 68.9991 121.831 69.3698C117.275 71.4984 112.489 72.9781 107.508 73.5212C102.385 74.0796 97.2188 74.4781 92.0692 74.5017C85.931 74.5293 79.7951 74.0095 73.8634 72.2104C71.8359 71.5954 69.8515 70.8275 67.8703 70.0696C67.3414 69.8676 66.8975 69.4452 66.4141 69.1241C66.4758 68.9442 66.5371 68.7642 66.5989 68.5843C67.2003 68.679 67.8451 68.6649 68.396 68.8856C72.6235 70.577 76.9781 71.7893 81.4928 72.3762C83.3673 72.6199 85.2601 72.8265 87.147 72.8531C95.4715 72.9718 103.826 73.2093 111.99 71.2108C115.032 70.4661 117.923 69.1178 120.906 68.1135C121.863 67.792 122.762 66.8656 124.399 67.8401Z" fill="#0B0E0B"/>
<path d="M117.322 55.3933C117.438 57.3435 117.439 59.3137 118.536 61.0654C118.626 61.2097 118.374 61.5679 118.281 61.8269C117.824 61.8541 117.367 61.8807 116.91 61.908C116.885 61.6306 116.966 61.2693 116.82 61.09C115.561 59.5381 115.499 57.6988 115.477 55.8414C115.7 55.741 115.925 55.6402 116.149 55.5391C116.515 55.4649 116.881 55.3906 117.248 55.3164L117.322 55.3933Z" fill="#949E68"/>
<path d="M115.481 55.8398C115.503 57.6965 115.565 59.5366 116.824 61.0883C116.97 61.2677 116.89 61.6291 116.915 61.9062C116.353 62.0335 115.792 62.1609 115.231 62.2881C115.104 61.6892 115.101 61.0255 114.827 60.5035C114.071 59.0636 113.607 57.6191 114.139 56.0003C114.586 55.947 115.034 55.8931 115.481 55.8398Z" fill="#7B9C54"/>
<path d="M70.5966 45.284C69.5322 45.2413 68.2801 46.3154 68.1954 47.3443C68.1158 48.3076 69.289 49.6298 70.3011 49.7182C71.3559 49.8097 72.5902 48.7105 72.6359 47.6381C72.6859 46.4697 71.697 45.3285 70.5966 45.284ZM77.835 53.6925C79.5046 53.725 80.7714 52.4834 80.798 50.7879C80.8231 49.1847 79.507 47.8454 77.8701 47.8071C76.2371 47.769 74.9245 49.0733 74.9213 50.7371C74.9176 52.4311 76.1285 53.6596 77.835 53.6925ZM78.325 42.3086C84.2237 44.9693 85.4098 50.0556 84.8126 53.8417C84.6197 55.0655 84.0464 56.2297 83.6467 57.4212C81.9063 58.9344 79.6228 58.8084 77.5788 59.3868C76.6112 59.6608 75.561 59.6429 74.5484 59.757C74.264 57.1382 72.2921 55.2496 71.5154 52.8369C71.4516 52.6399 70.7816 52.4582 70.4996 52.5613C70.2042 52.6692 69.8286 53.1451 69.8518 53.431C69.9366 54.4924 69.9554 55.6456 70.4015 56.5703C71.0092 57.8312 71.9856 58.9151 72.8036 60.0751C72.4276 60.3041 72.0516 60.5337 71.6751 60.7632C70.6561 60.8157 69.6367 60.8684 68.6181 60.9212C68.4259 60.8894 68.234 60.8569 68.0425 60.825C67.8877 60.7205 67.7329 60.6152 67.5781 60.5102C65.1115 58.3371 63.7188 55.725 63.711 52.3227C63.7054 49.9938 64.4227 47.9855 65.4956 46.0205L65.4626 46.0446C65.5828 45.9247 65.7027 45.8051 65.823 45.6847C69.6939 43.463 73.9449 42.647 78.325 42.3086Z" fill="#060A08"/>
<path d="M113.156 41.5611C113.11 40.2971 112.184 39.3953 110.976 39.4393C109.737 39.4847 108.707 40.4555 108.718 41.5667C108.727 42.6379 110.055 43.9513 111.071 43.8954C112.107 43.8382 113.195 42.6201 113.156 41.5611ZM109.957 47.682C111.239 49.1433 111.805 50.7443 111.198 52.7036C110.957 53.4837 111.823 53.9603 112.523 53.4534C112.954 53.1418 113.325 52.6406 113.53 52.1449C114.109 50.7468 113.32 48.0758 112.092 47.1621C111.367 46.6218 110.634 46.4899 109.957 47.682ZM107.668 55.7098C103.753 52.956 101.067 46.7629 105.254 40.5229C105.625 40.1776 105.997 39.8326 106.369 39.4874C109.54 38.5852 112.712 37.6835 115.885 36.7812C116.467 36.8477 117.05 36.9141 117.632 36.981C121.109 38.5825 123.573 41.0051 124.125 44.9775C122.871 45.323 121.618 45.6683 120.365 46.014C120.364 45.5035 120.426 44.9832 120.35 44.4838C120.151 43.1724 118.951 42.196 117.584 42.1647C116.243 42.1332 115.027 43.1287 114.794 44.446C114.532 45.9315 115.24 47.0774 116.916 47.8812C116.531 48.6203 116.235 49.4251 115.744 50.0846C114.462 51.8038 113.893 53.7845 113.426 55.8179C113.424 55.8917 113.438 55.9618 113.469 56.0287C113.129 56.0404 112.788 56.0519 112.448 56.0633C110.855 55.9456 109.261 55.8275 107.668 55.7098Z" fill="#060A08"/>
<path d="M54.8577 52.2812C54.6939 52.4846 54.5303 52.6875 54.3672 52.8909C53.0804 52.4072 51.7943 51.924 50.5078 51.44C50.8702 51.2193 51.232 50.9981 51.5946 50.7773C52.6819 51.2784 53.7697 51.7799 54.8577 52.2812Z" fill="#7B9C54"/>
<path d="M51.5952 50.7772C51.2333 50.998 50.8708 51.2192 50.5089 51.4399C50.2171 51.236 49.9251 51.0319 49.6328 50.828C49.8672 50.5226 50.1009 50.2176 50.3353 49.9122C50.5533 49.7918 50.7714 49.6712 50.9894 49.5508C51.3315 49.7537 51.6741 49.9571 52.0166 50.1607C51.876 50.3661 51.7358 50.5717 51.5952 50.7772Z" fill="#0B0E0B"/>
<path d="M117.634 36.9801C117.052 36.9136 116.469 36.8472 115.887 36.7803C116.668 36.6282 117.448 36.4766 118.228 36.3242L117.634 36.9801Z" fill="#949E68"/>
<path d="M106.368 39.4844C105.996 39.8296 105.625 40.1749 105.253 40.5206C105.24 40.2831 105.228 40.0452 105.215 39.8077C105.599 39.7 105.984 39.5923 106.368 39.4844Z" fill="#DBA39C"/>
<path d="M131.798 48.4451C129.125 51.0399 125.905 52.6827 122.316 53.7553C122.92 52.3374 123.539 50.8861 124.157 49.4347C124.234 48.9593 124.311 48.4832 124.387 48.0073C124.363 47.6821 124.339 47.3561 124.315 47.0304C124.37 46.6893 124.426 46.3489 124.481 46.0078C127.137 46.1084 129.792 46.2088 132.448 46.3091C132.429 46.8788 132.411 47.4477 132.392 48.0173C132.194 48.1602 131.997 48.3023 131.798 48.4451Z" fill="#FBBDC6"/>
<path d="M124.478 46.0116C124.423 46.3525 124.367 46.6931 124.312 47.0339C120.789 47.3865 116.658 51.2109 116.149 55.5403C115.925 55.6414 115.701 55.7418 115.477 55.8426C115.029 55.8961 114.582 55.9498 114.134 56.0033C113.898 55.941 113.662 55.8787 113.426 55.8165C113.893 53.783 114.462 51.8028 115.744 50.0836C116.235 49.4241 116.531 48.6188 116.916 47.8797C118.453 47.9723 119.654 47.4456 120.364 46.0131C121.618 45.6673 122.871 45.3216 124.125 44.9766C124.243 45.3211 124.36 45.6663 124.478 46.0116Z" fill="#0B0E0B"/>
<path d="M131.797 48.4473C131.995 48.3045 132.193 48.1624 132.391 48.0195C133.088 48.3831 133.784 48.7464 134.481 49.11C134.16 49.6906 133.839 50.271 133.518 50.8517C132.983 50.7135 132.447 50.5755 131.797 50.4082V48.4473Z" fill="#949E68"/>
<path d="M49.6368 50.8285C49.9286 51.0324 50.2204 51.2363 50.5124 51.4404C51.7989 51.9241 53.085 52.4078 54.3717 52.8913C54.2545 53.1244 54.1378 53.3576 54.0206 53.591C53.815 53.7253 53.6097 53.8594 53.4041 53.9937C53.0671 53.9324 52.7026 53.9336 52.3967 53.8008C48.5034 52.1099 44.3903 52.6119 40.3359 52.6134C39.3223 52.6139 38.2158 52.6986 37.315 53.1052C35.2523 54.0354 33.2757 55.1615 31.2999 56.272C30.8763 56.5099 30.4221 56.9664 30.2961 57.4111C29.8642 58.9293 29.3688 60.4781 29.294 62.0339C29.2406 63.1564 29.7423 64.3352 30.1293 65.4426C30.805 67.3734 32.635 68.0942 34.121 69.2401C36.7361 71.2558 39.8527 71.83 42.7974 71.7307C45.8485 71.6283 49.0249 71.9668 52.0829 70.6131C54.0599 69.738 55.8282 68.7945 57.2625 67.235C58.7509 65.6166 59.65 63.7663 59.2744 61.4719C59.2112 61.0863 59.3174 60.6732 59.345 60.2725C59.5306 60.2657 59.7164 60.2596 59.9019 60.2527C60.4972 60.4346 61.093 60.6173 61.688 60.7992C61.5672 61.5805 61.4173 62.3589 61.3308 63.1439C60.9941 66.2156 59.5108 68.4917 56.9228 70.2334C55.2483 71.3605 53.4627 72.0901 51.6258 72.8433C50.3031 73.3856 49.0396 73.6691 47.6393 73.6283C46.0299 73.5817 44.3972 73.4535 42.813 73.6564C40.4233 73.9624 38.236 73.0985 36.1252 72.4312C33.0152 71.4472 30.3547 69.4508 28.4377 66.7281C27.4049 65.2611 26.886 63.5283 27.1502 61.6799C27.5424 58.9315 28.4514 56.4483 31.0152 54.9545C32.9683 53.8169 34.8824 52.5606 36.9573 51.7019C38.3862 51.1103 40.0524 50.9545 41.6258 50.8771C44.2905 50.7467 46.9658 50.8331 49.6368 50.8285Z" fill="#949E68"/>
<path d="M89.3377 56.0218C89.5533 55.8116 89.7682 55.6009 89.9838 55.3907C90.614 55.2876 91.2447 55.1851 91.9738 55.0664C90.8929 57.3059 87.1871 59.888 84.4258 59.9774C85.2704 59.3535 86.1364 58.7568 86.9517 58.0966C87.4425 57.6998 87.8534 57.2044 88.3003 56.7536L88.2903 56.7546C88.6397 56.5104 88.9883 56.266 89.3377 56.0218Z" fill="#081105"/>
<path d="M65.4414 61.1719C65.5408 61.1641 65.6397 61.1563 65.739 61.1484L65.593 61.198L65.4414 61.1719Z" fill="#7B9C54"/>
<path d="M67.543 60.8531C67.554 60.739 67.5649 60.625 67.5759 60.5117C67.7307 60.6162 67.8855 60.7212 68.0403 60.8265C67.8746 60.8352 67.7088 60.8443 67.543 60.8531Z" fill="#7B9C54"/>
<path d="M124.382 48.0117C124.305 48.4878 124.229 48.9633 124.152 49.4391C121.897 50.2393 120.057 51.4355 119.154 53.8491C118.91 54.5013 117.951 54.8868 117.32 55.3947L117.246 55.3178C117.247 53.5851 118.251 52.2923 119.376 51.2138C120.81 49.8398 122.046 48.0259 124.382 48.0117Z" fill="#949E68"/>
<path d="M124.383 48.0082C122.047 48.0223 120.811 49.8363 119.377 51.2102C118.252 52.2887 117.248 53.5816 117.247 55.3142C116.881 55.3884 116.514 55.4629 116.148 55.5376C116.658 51.208 120.789 47.3833 124.311 47.0312C124.335 47.3565 124.359 47.6824 124.383 48.0082Z" fill="#AE542A"/>
<path d="M53.4006 53.9927C53.6062 53.8582 53.8115 53.7244 54.0171 53.5898C55.6767 54.9064 57.8498 55.6223 58.922 57.6155C59.3613 58.433 59.5795 59.3693 59.8984 60.2515C59.7129 60.2584 59.527 60.2652 59.3415 60.2716C57.5481 59.7459 55.7112 59.3327 53.9712 58.6664C51.593 57.7559 51.4492 56.798 52.8295 55.0077C53.0644 54.7035 53.2123 54.3326 53.4006 53.9927Z" fill="#FBBDC6"/>
<path d="M53.3992 53.9941C53.2109 54.334 53.0629 54.7049 52.828 55.0091C51.4477 56.7994 51.5916 57.7573 53.9698 58.6678C55.7097 59.3341 57.5466 59.7472 59.34 60.2729C59.3125 60.6734 59.2062 61.0868 59.2695 61.4725C59.645 63.7665 58.746 65.6171 57.2575 67.2352C55.8228 68.7949 54.055 69.7389 52.0779 70.614C49.02 71.967 45.8436 71.629 42.7924 71.7316C39.8477 71.8305 36.7311 71.2562 34.1161 69.2406C32.6301 68.0952 30.8 67.3739 30.1244 65.443C29.7374 64.3357 29.2356 63.1573 29.2891 62.0349C29.3638 60.4783 29.8592 58.9302 30.2912 57.4115C30.4172 56.9669 30.8713 56.5108 31.295 56.2722C33.2703 55.162 35.2473 54.0359 37.3101 53.1053C38.2108 52.699 39.3174 52.6148 40.3309 52.6143C44.3854 52.6121 48.4984 52.1101 52.3917 53.801C52.6977 53.9338 53.0617 53.9328 53.3992 53.9941Z" fill="#DBA39C"/>
<path fill-rule="evenodd" clip-rule="evenodd" d="M137.945 92.6396C137.563 92.4634 137.395 92.0097 137.572 91.6273C137.748 91.2449 138.202 91.0774 138.584 91.2537C138.584 91.2537 148.168 95.5812 145.545 109.643C145.478 110.004 145.162 110.266 144.795 110.266H132.06C131.639 110.266 131.297 109.924 131.297 109.503C131.297 109.082 131.639 108.74 132.06 108.74H144.154C146.142 96.5019 137.945 92.6396 137.945 92.6396Z" fill="black"/>
</g>
<defs>
<clipPath id="clip0_1054_8971">
<rect width="150" height="110" fill="white"/>
</clipPath>
</defs>
</svg>
