<svg width="150" height="110" viewBox="0 0 150 110" fill="none" xmlns="http://www.w3.org/2000/svg">
<path d="M80.7421 57.7041L54.5547 30.668L132.511 27.3945L133.966 47.8838L121.236 57.7041H80.7421Z" fill="#D9D9D9"/>
<path d="M141.851 45.2679L141.914 45.1602L141.812 45.1493L141.851 45.2679ZM141.474 46.0571C141.517 46.0173 141.59 45.9798 141.594 45.9356C141.598 45.8917 141.532 45.8418 141.497 45.7943C141.457 45.8365 141.386 45.8765 141.383 45.9216C141.379 45.9659 141.444 46.0154 141.474 46.0571ZM119.632 47.1342C119.905 47.9775 120.363 48.4964 121.162 48.2748C121.473 48.1885 121.877 47.6582 121.859 47.3529C121.833 46.9327 121.543 46.3321 121.196 46.1674C120.407 45.7921 119.945 46.35 119.632 47.1342ZM119.778 45.9555C120.183 45.2647 120.668 44.7924 120.704 44.288C120.752 43.6268 120.226 43.2199 119.27 43.2948C118.978 43.6842 118.609 44.1748 118.18 44.7463C118.737 45.1679 119.107 45.4483 119.778 45.9555ZM76.8897 54.0891C75.4947 52.5785 75.1225 52.5882 74.0588 54.0581C75.1346 55.3961 75.3398 55.4043 76.8897 54.0891ZM118.948 41.9981C119.661 41.3727 120.168 40.928 120.673 40.4845C119.32 38.9368 118.818 38.9315 117.673 40.4009C118.013 40.8276 118.376 41.2818 118.948 41.9981ZM76.7085 51.016C77.6292 49.6734 77.751 49.0153 77.1981 48.3633C76.6964 47.7714 75.8667 47.6351 75.1858 48.0738C74.5183 48.5042 74.0636 49.0861 74.2423 49.9367C74.4058 50.7158 75.2474 51.0652 76.7085 51.016ZM82.4926 32.9859C82.4645 33.1564 82.4361 33.3271 82.408 33.4978C85.113 34.1753 87.8164 34.8617 90.5251 35.5247C91.1546 35.6786 91.803 35.755 92.4846 35.8746C92.4829 34.8957 91.7321 34.7703 91.2239 34.6049C88.3809 33.6794 85.5032 32.8902 82.4926 32.9859ZM123.784 41.6365C123.971 42.0407 124.071 42.4146 124.289 42.6993C125.466 44.2366 127.278 44.1217 128.281 42.4677C128.801 41.6115 128.589 40.7425 127.737 40.2328C126.304 39.3774 124.933 39.8262 123.784 41.6365ZM82.0716 54.65C83.3551 54.7792 85.3575 53.3127 85.4144 52.2017C85.4668 51.1799 83.8922 49.6535 82.6618 49.533C81.3549 49.4057 79.3923 50.968 79.2727 52.231C79.1585 53.4439 80.3532 54.4766 82.0716 54.65ZM134.116 46.7654C136.757 45.49 139.113 44.4999 141.132 42.9156C142.685 41.6967 142.818 40.1322 141.41 38.7581C140.63 37.9967 139.659 37.3076 138.645 36.9351C136.725 36.2305 134.73 35.7075 132.734 35.2451C131.457 34.949 130.122 34.8962 128.813 34.7344C133.079 37.6315 134.466 41.6557 134.116 46.7654ZM83.9659 44.2419C88.4524 46.1345 90.5404 49.6007 90.7251 54.3154C96.9876 52.5378 98.3161 49.3577 97.7111 44.1622C95.2604 43.1355 89.2291 43.104 83.9659 44.2419ZM118.979 86.7653C119.499 86.8819 119.675 86.9542 119.851 86.9561C123.771 87.0041 126.56 84.9959 128.6 81.8927C129.718 80.1915 131.145 79.0371 133.01 78.3829C135.076 77.6586 136.992 76.6799 138.695 75.3015C141.038 73.4048 141.816 70.771 142.035 67.9324C142.114 66.9152 141.216 66.0178 140.208 65.9404C138.45 65.8054 136.714 65.8514 135.251 67.4033C135.251 67.9067 135.264 68.523 135.248 69.1387C135.168 72.214 134.33 74.711 130.859 75.5435C129.754 75.8085 128.689 76.4557 127.741 77.1213C124.608 79.3217 122.14 82.2106 119.741 85.1523C119.413 85.5546 119.278 86.1145 118.979 86.7653ZM97.2291 42.388C94.7915 39.615 92.4947 37.3251 89.1282 36.5069C87.0824 36.0091 85.0393 35.5104 82.9014 35.5751C80.4708 35.6483 77.999 35.3957 75.6155 35.7523C72.3711 36.2378 69.2519 37.3428 66.3715 38.9821C62.6529 41.0982 58.9484 43.2395 55.2475 45.3864C54.1997 45.9941 53.1857 46.6599 52.1564 47.2993C52.2007 47.4247 52.2449 47.5503 52.2892 47.6756C55.8153 47.5139 59.3436 47.389 62.8663 47.1698C64.0903 47.0937 65.3231 46.8721 66.5117 46.5629C69.1389 45.8789 71.747 45.1185 74.3517 44.3506C79.4902 42.8356 84.7707 42.2347 90.0918 42.0318C92.31 41.9469 94.5429 42.241 97.2291 42.388ZM132.891 68.3371C131.38 67.8877 129.834 67.4532 128.304 66.9671C125.645 66.1223 122.938 65.3061 120.164 65.2545C116.187 65.1803 112.202 65.4407 108.225 65.6368C106.937 65.7004 105.626 65.8876 104.388 66.2377C102.428 66.7927 100.513 67.5131 98.5918 68.1984C94.9173 69.5089 91.303 71.0171 87.5686 72.1219C83.5369 73.3139 79.3261 73.1546 75.1579 73.0142C74.7025 72.9989 74.2566 72.6915 73.8614 72.5404C73.7259 71.7344 74.0491 71.3207 74.6887 71.2031C75.5369 71.0472 76.3982 70.862 77.2536 70.8642C80.5535 70.8726 83.8803 70.9706 87.0715 70.0487C89.9805 69.2078 92.8117 68.0934 95.6615 67.0565C97.9286 66.2316 100.171 65.3371 102.427 64.4812C104.725 63.6097 107.168 63.626 109.561 63.3881C111.048 63.2402 112.58 63.4546 114.045 63.2174C117.42 62.6714 120.758 63.0879 124.05 63.5966C127.146 64.0748 130.168 65.0362 133.279 65.7988C134.112 65.1262 135.024 64.3895 135.982 63.6163V61.0586C135.169 60.4258 134.308 59.7551 133.414 59.0582C129.669 60.9338 125.794 60.7478 121.941 60.7403C115.156 60.7281 108.374 60.6011 101.604 61.3976C96.9129 61.9502 92.3444 62.958 87.7972 64.1829C85.178 64.8883 82.5161 65.4858 79.8375 65.9024C77.6969 66.2348 75.4952 66.157 73.333 66.382C71.8018 66.5408 70.2599 66.7886 68.7798 67.2011C67.0284 67.6887 65.7891 68.9236 65.6744 70.764C65.5619 72.5709 66.7716 73.7329 68.3426 74.4569C71.2907 75.8162 74.335 76.8181 77.6334 76.8206C78.6944 76.8218 79.773 76.7459 80.8139 76.9021C83.7013 77.3349 86.4818 76.9139 89.216 76.0333C90.1575 75.7304 91.0556 75.2966 91.9841 74.9508C96.7487 73.1766 101.676 71.9926 106.639 70.9403C109.276 70.3806 111.978 70.1166 114.621 70.5533C118.826 71.2473 123.009 72.1209 127.147 73.1398C128.809 73.5491 130.153 73.3287 131.572 72.5416C133.33 71.5673 133.755 70.3649 132.891 68.3371ZM15.1758 73.2795C14.0878 74.0052 13.8065 74.7908 13.8693 75.702C13.954 76.9365 14.1637 78.1646 14.1945 79.3986C14.2284 80.781 14.744 81.9009 15.6169 82.9392C16.7866 84.3313 17.5916 85.903 18.0016 87.71C18.5462 90.1112 19.6345 92.2717 21.4831 93.9566C23.8254 96.0907 26.223 98.1638 28.5746 100.288C29.7852 101.382 31.2326 101.857 32.8024 101.866C39.1708 101.9 45.5401 101.913 51.9083 101.855C53.5496 101.84 55.1749 101.423 56.0915 99.8566C56.6819 98.8469 57.1972 97.7601 57.5372 96.6445C58.3567 93.9537 56.9203 91.4211 54.2157 90.5891C53.0943 90.2441 51.9643 89.9262 50.8458 89.5719C47.961 88.659 45.0445 87.8297 42.2102 86.7796C40.0755 85.9886 38.5001 84.5282 38.1912 82.0809C37.9594 80.2439 37.7681 78.4001 37.4671 76.5745C37.2669 75.3592 37.4659 73.9848 36.4497 73.0372C35.2342 73.0741 35.08 73.9695 34.8554 74.704C34.1988 76.8485 33.3921 78.8967 32.0185 80.715C31.4949 81.408 30.9523 81.8876 30.1509 82.044C28.7884 81.6832 28.1708 80.8231 28.0974 79.4691C28.014 77.9251 27.8001 76.3878 27.7329 74.8432C27.6936 73.9288 27.3833 73.3214 26.3683 72.9856C26.0014 73.5016 25.6336 73.9877 25.2994 74.496C24.7888 75.2721 24.273 76.0473 23.8099 76.8521C23.177 77.951 22.1652 78.4973 21.02 78.8528C19.6551 79.2761 18.826 79.0206 17.9648 77.8286C17.3127 76.9263 16.7468 75.9612 16.1607 75.0132C15.8424 74.4991 15.5616 73.9623 15.1758 73.2795ZM117.399 35.996C117.608 35.8265 117.817 35.6566 118.027 35.4871C117.772 35.4415 117.517 35.3957 117.262 35.3503C116.648 35.4522 116.029 35.5351 115.418 35.6602C113.653 36.0237 111.809 36.1895 110.142 36.819C105.865 38.4346 102.473 41.3645 99.5217 44.3026C99.2082 46.5309 98.941 48.4244 98.6699 50.3509C101.389 51.9146 111.015 52.9051 114.2 51.8477C113.884 51.2347 113.568 50.6462 113.274 50.0471C112.099 47.6511 111.816 45.198 112.697 42.6273C113.616 39.9455 115.361 37.8728 117.399 35.996ZM132.558 29.3258C133.317 29.9552 134.178 30.0864 135.213 29.6485C134.62 29.3876 134.026 29.1272 133.433 28.8663C132.623 28.4085 131.844 27.8806 130.997 27.5045C126.863 25.6673 122.466 24.9767 117.997 24.7803C114.882 24.6433 111.753 24.7027 108.634 24.7856C107.156 24.8249 105.676 25.0688 104.213 25.3176C100.053 26.0249 96.0776 27.376 92.1686 28.9223C90.32 29.6538 88.514 30.4925 86.3691 31.421C89.2543 32.4678 92.0144 32.8177 94.1205 34.5569C95.7097 33.7408 97.2247 33.0286 98.6759 32.2056C103.836 29.2807 109.469 28.3318 115.293 28.1815C117.352 28.1286 119.416 28.1143 121.474 28.1881C123.394 28.2572 125.312 28.4288 127.224 28.6262C129.007 28.8105 130.78 29.0886 132.558 29.3258ZM140.921 35.9987C141.009 36.0542 141.097 36.11 141.185 36.1658C141.098 36.1083 141.012 36.0513 140.926 35.9941C140.785 34.7589 140.078 33.9127 138.96 33.5048C137.11 32.8291 135.248 32.1545 133.342 31.6693C129.444 30.6756 125.509 29.7828 121.444 30.043C119.04 30.197 116.623 30.3943 114.255 30.8182C110.872 31.4234 107.778 32.8261 104.912 34.7393C103.16 35.9085 101.341 36.9766 99.5782 38.1303C98.6667 38.7275 97.8122 39.4125 96.7934 40.1596C97.5031 41.123 98.0926 41.9231 98.7157 42.7689C100.042 41.5914 101.176 40.5299 102.368 39.5391C104.429 37.8277 106.682 36.4708 109.221 35.5232C113.166 34.0511 117.297 33.7551 121.41 33.4418C124.448 33.2105 127.517 33.3521 130.572 33.3836C131.428 33.3926 132.307 33.5068 133.131 33.7354C135.03 34.2628 136.898 34.9017 138.785 35.4706C139.486 35.682 140.209 35.8248 140.921 35.9987ZM109.439 30.3766C109.621 30.3357 109.803 30.2947 109.985 30.2537C109.942 30.1773 109.899 30.1007 109.856 30.0241C109.719 30.1431 109.581 30.262 109.443 30.3813C109.319 30.3689 109.194 30.3563 109.07 30.3439C102.83 31.0905 95.5824 34.297 93.9848 37.1352C94.47 37.6749 94.9884 38.252 95.5783 38.9079C96.6164 38.2564 97.474 37.7765 98.2691 37.2091C101.697 34.7633 105.273 32.5686 109.06 30.7188C109.186 30.6048 109.312 30.4906 109.439 30.3766ZM72.6701 46.4363C72.4664 46.4589 72.263 46.481 72.0593 46.5035C70.1377 47.0168 68.2432 47.7486 66.2879 47.9935C63.1435 48.3878 59.9583 48.455 56.7908 48.6729C56.0799 48.7217 55.3723 48.8221 54.6379 48.9014C54.665 50.2718 55.5132 50.7386 56.3531 51.1011C59.2056 52.3314 62.077 53.5176 64.9581 54.6791C65.566 54.924 66.245 54.9931 66.8667 55.1376C68.4316 50.9607 69.7393 48.9988 72.3161 46.8886C72.4575 46.7613 72.5991 46.6337 72.7404 46.5064C72.7892 46.4029 72.8374 46.2989 72.8862 46.1951C72.8141 46.2753 72.7421 46.3561 72.6701 46.4363ZM13.5136 85.0272L13.5216 85.0345C13.4016 84.887 13.2818 84.7401 13.162 84.5927C12.8039 83.2862 12.364 81.9955 12.1073 80.6694C11.6829 78.4755 11.3607 76.234 12.0466 74.0491C12.4964 72.616 12.8393 70.9868 14.6183 70.5295C17.3848 71.5831 18.4427 74.3898 20.6579 76.2648C21.2001 75.7188 21.7331 75.3092 22.1019 74.7855C22.8863 73.6711 23.5977 72.5047 24.3172 71.3464C25.6869 69.1428 27.3234 68.9993 28.8539 71.0724C29.3852 71.7926 29.745 72.7104 29.9387 73.5915C30.2484 75.0008 30.3543 76.4549 30.5646 78.0242C31.6703 77.5012 31.6977 76.5548 31.8519 75.7699C32.1838 74.0789 32.9726 72.6194 33.9692 71.2698C35.0254 69.8402 36.6759 69.6988 38.0484 70.8353C39.0488 71.6638 39.6606 72.7026 39.7474 74.0265C39.8609 75.7585 40.0747 77.4881 40.1002 79.2206C40.1337 81.4977 41.1232 83.0663 43.1127 84.1572C45.1432 85.2709 47.2964 85.9835 49.5177 86.58C51.7769 87.1872 54.1122 87.4845 56.2508 88.5865C59.0492 90.0292 60.3285 92.3063 60.3373 95.3356C60.3402 96.3855 60.0027 97.4364 59.7856 98.6888C62.0152 98.5242 64.1117 98.312 66.2134 98.2262C70.5678 98.0484 74.9249 97.9422 79.2805 97.7977C83.1368 97.6694 86.9942 97.5533 90.8488 97.3821C92.2084 97.3217 93.573 97.1825 94.9156 96.9597C97.4721 96.5354 100.02 96.0531 102.56 95.5403C104.294 95.1901 106.01 94.7481 107.226 94.4656C108.428 92.4736 109.242 90.8643 110.309 89.4441C111.079 88.4194 112.184 87.6462 113.14 86.7604C117.275 82.9254 121.234 78.8928 125.986 75.4736C122.589 74.0835 119.238 72.9834 115.741 72.7688C112.842 72.5906 109.846 72.6243 107.007 73.1628C102.286 74.0585 97.6529 75.4183 92.9918 76.6167C91.4991 77.0003 90.0518 77.5664 88.5528 77.9207C85.0146 78.7565 81.4053 78.7451 77.7968 78.6741C73.7164 78.5936 69.9874 77.3038 66.5803 75.1696C64.8636 74.0937 63.6762 72.5608 63.9892 70.2432C64.3221 67.7748 65.341 65.9904 67.9893 65.6177C70.9282 65.204 73.8687 64.7123 76.8254 64.5394C80.0732 64.3493 83.2205 63.7193 86.2638 62.7053C91.1597 61.0737 96.1144 59.9367 101.276 59.5218C105.24 59.2037 109.19 58.7995 113.173 58.822C117.48 58.8465 121.789 58.8346 126.097 58.8252C126.653 58.824 127.228 58.8228 127.761 58.6896C132.809 57.4271 133.681 56.898 137.106 53.1318C137.148 53.0855 137.197 53.0424 137.228 52.9895C138.107 51.5065 139.774 50.5793 140.209 48.7818C140.58 48.075 140.952 47.3682 141.324 46.6611C140.382 46.9308 139.948 47.536 139.704 48.2949C139.224 48.7733 138.73 49.2401 138.264 49.7321C136.608 51.4779 134.963 53.2349 133.308 54.9822C132.966 55.342 132.612 55.7176 131.906 55.2302C132.038 54.8951 132.099 54.4611 132.339 54.1806C133.541 52.7761 134.803 51.4214 136.019 50.0281C136.456 49.5277 136.826 48.9685 137.226 48.4365C137.585 48.035 137.943 47.6334 138.301 47.2317C138.353 47.1323 138.404 47.0326 138.455 46.9332C138.403 47.0319 138.351 47.1306 138.299 47.2292C137.621 47.1175 137.093 47.3464 136.718 47.9235C136.084 48.156 135.439 48.3626 134.819 48.6259C132.998 49.398 131.218 50.2726 129.367 50.9607C125.874 52.2599 122.172 52.691 118.513 53.1391C115.321 53.5302 112.073 53.4737 108.849 53.6035C107.041 53.676 105.298 53.3227 103.531 52.9449C101.81 52.5773 100.128 51.7056 98.1343 52.2017C96.8593 54.3694 95.0192 56.1242 92.6848 57.2387C90.4436 58.3085 88.2058 59.5206 85.292 59.5575C85.5679 58.928 85.7258 58.5689 85.8829 58.2098C86.1147 58.163 86.3465 58.1164 86.5788 58.0696C87.3285 57.8313 88.0785 57.5929 88.8285 57.3541C90.5452 57.0364 92.0646 56.3279 93.315 55.0881C93.3875 55.0283 93.46 54.9681 93.4145 55.0059C93.4518 54.9604 93.3924 55.0329 93.333 55.1054C91.8801 55.3466 90.4601 55.6907 89.1658 56.431C88.5528 56.4921 87.9396 56.5534 87.3261 56.615C86.926 56.7178 86.5259 56.8206 86.1259 56.9237C83.777 57.1921 81.4284 57.4608 79.08 57.729C76.0825 57.6012 73.085 57.4734 70.0875 57.3456C69.3661 57.2067 68.645 57.068 67.9234 56.929C67.646 56.8202 67.3684 56.7108 67.0912 56.6019C66.8749 56.583 66.6586 56.5646 66.4428 56.5457C66.1562 56.4254 65.8694 56.3049 65.5833 56.1846C65.5025 56.1473 65.4198 56.142 65.3345 56.1681C65.1698 56.0607 65.0052 55.9531 64.8405 55.8459C64.2152 55.6024 63.5899 55.3597 62.9645 55.1168C62.8391 55.0976 62.7138 55.0787 62.5882 55.0595C62.507 55.0222 62.4235 55.0173 62.3382 55.044L61.8411 54.7159C61.7482 54.6745 61.6515 54.6633 61.5511 54.6822C61.2728 54.5673 60.9937 54.4521 60.7153 54.337C60.6222 54.2972 60.5269 54.2875 60.4277 54.3071C60.1544 54.1852 59.8814 54.0634 59.6081 53.9417L59.6181 53.9497C59.3603 53.8309 59.1028 53.7121 58.8453 53.5933L58.8473 53.595C58.5982 53.4815 58.3497 53.368 58.1007 53.2545C57.9925 53.2075 57.8803 53.1908 57.7631 53.2041C57.4981 53.0831 57.2333 52.9621 56.9683 52.8414C56.8793 52.8009 56.7872 52.7885 56.6909 52.804C56.4138 52.6772 56.1369 52.5506 55.8597 52.4236C55.6138 52.3125 55.3677 52.2017 55.1221 52.0907C54.9914 51.9903 54.8612 51.8899 54.7305 51.79C54.6265 51.7291 54.5137 51.7007 54.3935 51.7044C54.1374 51.5582 53.8816 51.4117 53.625 51.2655C53.4958 51.1668 53.3658 51.0684 53.2364 50.9697C52.9835 50.8429 52.7303 50.7158 52.4772 50.5888L52.4837 50.5934C52.231 50.4673 51.9784 50.3409 51.7257 50.2149C51.4745 50.0982 51.2236 49.9813 50.9724 49.8647C50.8463 49.847 50.7202 49.8291 50.5941 49.8116C50.5114 49.775 50.4265 49.7709 50.3402 49.7983C49.9326 49.6797 49.525 49.5604 49.1172 49.4416L49.1261 49.4503C48.6155 49.3269 48.1048 49.2042 47.5942 49.0808C47.5112 49.0461 47.4261 49.0398 47.3388 49.0621C47.1805 48.8167 47.0214 48.5709 46.8626 48.3257C46.8823 48.2261 46.8847 48.1262 46.8704 48.0255C47.4101 47.7617 47.939 47.47 48.493 47.2404C49.2306 46.9349 50.0502 46.7821 50.7267 46.382C54.6616 44.0545 58.541 41.6329 62.4883 39.3267C64.8221 37.9632 66.9913 36.2645 69.6877 35.5865C72.0717 34.9871 74.4509 34.3707 76.8322 33.7616C77.7054 33.7485 78.579 33.7354 79.4522 33.7223C79.8302 33.7218 80.2077 33.7219 80.5858 33.7216L81.8537 33.4609C81.8423 33.2866 81.8309 33.1125 81.8195 32.9379C80.9061 32.83 79.9931 32.7221 79.0802 32.614C77.7025 32.5349 76.325 32.4559 74.9467 32.3768C74.8005 32.4474 74.6538 32.5182 74.5074 32.5888C73.7828 32.6055 73.0588 32.6217 72.3345 32.6382C71.7026 32.7546 71.0712 32.8708 70.4391 32.9871C68.622 33.5298 66.7476 33.9309 64.9991 34.643C61.1105 36.2266 57.9574 38.9334 54.85 41.6741C52.4328 43.8062 49.8773 45.7196 46.8473 46.914C45.9068 46.7792 46.0467 46.1861 46.2053 45.506C49.5088 44.143 52.1425 41.8761 54.7657 39.5847C57.3876 37.2947 60.0793 35.103 63.2725 33.613C66.6819 32.0218 70.16 30.8895 74.0149 31.0692C77.1928 31.2176 80.383 31.0995 83.5583 31.0995C87.033 28.9982 90.852 27.6949 94.6179 26.2766C98.3981 24.853 102.278 23.8189 106.335 23.6118C110.341 23.4074 114.348 23.2452 118.514 23.0577C118.327 22.7382 118.24 22.5134 118.089 22.3458C116.614 20.703 114.853 19.5707 112.774 18.7135C108.77 17.0613 104.63 17.0933 100.476 17.3464C98.7174 17.4534 96.9575 17.9985 95.2597 18.5375C91.9193 19.5981 89.0378 21.5483 86.1171 23.4331C82.1483 25.9946 77.8644 26.674 73.3313 25.1152C72.2215 24.7335 71.135 24.2711 70.0674 23.782C65.8599 21.8555 61.4238 20.8665 56.8507 21.4639C51.7146 22.1354 46.8318 23.7883 42.6144 26.9405C40.0801 28.8343 37.6616 30.8825 35.177 32.8431C32.6901 34.8052 30.0202 36.5622 27.9434 38.9909C25.6852 41.6314 23.42 44.3013 23.0451 47.9705C22.9256 49.1431 22.9481 50.3295 22.8376 51.5034C22.7028 52.9354 22.4964 54.3607 22.2859 56.076C21.0605 54.7618 21.4603 53.466 21.3328 52.2837C21.197 51.0206 21.0556 49.7578 20.8885 48.2355C20.1407 48.8466 19.5268 49.2631 19.014 49.7803C15.1249 53.7034 12.6943 58.4367 11.2191 63.7222C10.0249 68.0005 8.64906 72.2286 7.93885 76.6305C7.67649 78.2572 7.32587 79.87 7.0446 81.3367C8.73951 83.2292 10.4536 84.6458 12.3912 85.7939C12.6254 85.9433 12.8602 86.0924 13.0944 86.2415C13.4482 86.4905 13.8024 86.7398 14.1564 86.9893C14.5667 87.3722 14.9775 87.7551 15.3882 88.1382C15.4893 88.0475 15.5907 87.957 15.6918 87.8666C15.491 87.217 15.3514 86.5359 14.628 86.1579C14.3885 85.9096 14.1484 85.661 13.9089 85.4125C13.7772 85.284 13.6455 85.1557 13.5136 85.0272ZM6.04875 86.9389C6.03008 83.2566 6.0051 79.5749 6.00001 75.8924C5.99928 75.3999 6.04365 74.8924 6.16441 74.4164C7.22476 70.2526 8.26862 66.0832 9.39395 61.9366C10.5176 57.7978 12.2772 53.9577 15.2468 50.79C16.3952 49.5645 17.6847 48.469 18.9385 47.3464C20.391 46.0462 21.6119 44.6025 22.5219 42.8445C24.2354 39.5359 26.6352 36.7901 29.6112 34.5075C33.2226 31.7372 36.6968 28.7894 40.3095 26.021C44.4204 22.8718 48.9443 20.438 54.1396 19.7853C58.534 19.2332 63.0019 19.0326 67.3298 20.351C69.1086 20.8927 70.7984 21.7401 72.5057 22.4991C76.6201 24.3286 80.6207 24.161 84.5039 21.8655C86.1668 20.8825 87.7883 19.8299 89.4497 18.8454C95.0846 15.5063 101.165 14.4547 107.634 15.2553C111.367 15.7172 114.774 16.99 117.864 19.0974C118.567 19.5772 119.208 20.2157 119.715 20.9021C120.459 21.9101 121.379 22.5558 122.574 22.8701C124.021 23.2505 125.45 23.7076 126.908 24.0398C131.245 25.0283 135.122 27.0113 138.587 29.7127C140.133 30.9181 141.684 32.4047 142.563 34.1086C143.809 36.5242 144.376 39.2542 144.121 42.0781C143.632 47.4897 141.151 51.9059 137.468 55.7569C136.876 56.3769 136.352 57.0617 135.805 57.7057C138.053 59.9396 138.253 60.6004 137.558 63.2817C138.477 63.416 139.416 63.4601 140.298 63.7087C141.184 63.9582 142.065 64.3236 142.851 64.7998C143.665 65.2937 144.224 66.0694 144.317 67.0827C144.521 69.3065 144.283 71.4303 143.032 73.3692C141.249 76.1329 138.835 78.1763 135.795 79.3491C133.502 80.2346 132.219 81.666 132.009 84.1383C131.807 86.5339 131.814 88.8658 132.929 91.0818C134.131 93.4719 135.236 95.9044 137.299 97.747C138.318 98.6573 139.222 99.7067 140.118 100.745C142.28 103.251 143.258 106.223 143.459 109.663H141.676C141.413 107.026 140.695 104.54 139.008 102.448C137.995 101.192 136.959 99.9077 135.725 98.8891C134.012 97.4762 132.782 95.7304 131.498 93.9692C129.979 91.8849 128.161 89.8488 125.435 89.6563C121.773 89.3983 118.078 89.5174 114.401 89.625C113.469 89.6527 112.48 90.1253 111.65 90.6187C110.517 91.2923 110.376 92.6199 110.307 93.7605C110.164 96.128 108.917 96.6314 107.316 96.9823C101.606 98.2344 95.799 98.8195 89.9798 99.2128C84.8279 99.5608 79.6643 99.7555 74.5035 99.9531C69.7107 100.137 64.914 100.236 60.119 100.375C59.6305 100.39 59.1421 100.43 58.6678 100.456C57.7825 102.058 57.4368 103.598 57.9986 105.346C58.4513 106.756 58.669 108.241 58.991 109.693C58.1868 109.683 57.3822 109.674 56.5784 109.665C56.4666 108.685 56.4329 107.688 56.2283 106.728C55.728 104.388 54.8837 103.718 52.5247 103.713C48.6043 103.705 44.6837 103.72 40.7636 103.731C38.0258 103.738 35.287 103.792 32.55 103.747C31.3194 103.727 30.5384 104.202 30.124 105.336C29.5951 106.782 29.0619 108.226 28.5312 109.671C27.7259 109.68 26.9209 109.687 26.1156 109.696C26.6971 108.262 27.2722 106.825 27.8624 105.394C28.4136 104.058 28.3447 102.856 27.1699 101.857C26.6488 101.413 26.1704 100.918 25.6355 100.492C23.5485 98.8307 21.4135 97.2281 19.3622 95.5242C18.0188 94.4084 16.893 93.1051 16.4032 91.3343C16.2708 90.8575 15.8079 90.4017 15.3841 90.0884C13.6901 88.8372 11.9467 87.6535 10.2324 86.4299C9.0991 85.6213 7.98395 84.7876 6.75751 83.8895C6.62148 85.0296 6.50509 86.0039 6.38918 86.9782C6.27692 86.9561 6.16344 86.943 6.04875 86.9389Z" fill="#080A08"/>
<path d="M58.9916 109.695C58.6699 108.243 58.4524 106.758 57.9994 105.348C57.4379 103.6 57.7831 102.06 58.6687 100.459C59.1432 100.432 59.6311 100.392 60.1201 100.378C64.9146 100.238 69.7113 100.14 74.5046 99.9558C79.6654 99.7574 84.8287 99.563 89.9809 99.2152C95.7996 98.8222 101.607 98.2364 107.316 96.9849C108.918 96.6334 110.165 96.1305 110.308 93.7624C110.376 92.6223 110.518 91.2945 111.651 90.6209C112.48 90.1277 113.471 89.6546 114.402 89.6272C118.079 89.5196 121.774 89.4005 125.436 89.6588C128.162 89.8508 129.98 91.8871 131.499 93.9717C132.783 95.7326 134.012 97.4784 135.725 98.8918C136.96 99.9099 137.996 101.195 139.009 102.45C140.696 104.542 141.414 107.028 141.677 109.665C141.18 109.692 140.684 109.741 140.188 109.741C113.495 109.745 86.8022 109.744 60.1095 109.742C59.7368 109.742 59.3643 109.711 58.9916 109.695Z" fill="#0743F1"/>
<path d="M6.38976 86.9756C6.50567 86.0011 6.62206 85.0268 6.75809 83.8867C7.98453 84.7853 9.09968 85.6187 10.233 86.4276C11.9473 87.6509 13.6907 88.8345 15.3847 90.0861C15.8085 90.3989 16.2714 90.8548 16.4038 91.332C16.8936 93.1025 18.0194 94.4061 19.3627 95.5217C21.4141 97.2253 23.5491 98.8284 25.6361 100.49C26.171 100.915 26.6494 101.41 27.1705 101.854C28.3453 102.854 28.4141 104.055 27.863 105.392C27.2728 106.822 26.6976 108.259 26.1162 109.693H6.05078V90.2883C6.78573 89.2476 6.17469 88.0694 6.38976 86.9756Z" fill="#0743F1"/>
<path d="M28.5352 109.671C29.0664 108.226 29.5996 106.782 30.128 105.336C30.5424 104.202 31.3234 103.727 32.5542 103.747C35.291 103.792 38.0298 103.738 40.7676 103.731C44.6882 103.72 48.6086 103.705 52.5292 103.713C54.8877 103.718 55.7325 104.388 56.2323 106.728C56.4374 107.688 56.4711 108.685 56.5824 109.665C55.6496 109.691 54.7165 109.74 53.7835 109.741C46.0512 109.747 38.3191 109.747 30.5863 109.742C29.9027 109.741 29.2187 109.696 28.5352 109.671Z" fill="#0643E5"/>
<path d="M6.38731 86.9768C6.17224 88.0706 6.78328 89.2488 6.04833 90.2895C6.04784 89.1724 6.04736 88.0546 6.04688 86.9375C6.16157 86.9414 6.27505 86.9545 6.38731 86.9768Z" fill="#0643E5"/>
<path d="M42.8373 36.4737C43.356 36.117 43.7204 35.9303 44.0039 35.6588C44.7238 34.9679 45.3918 34.2233 46.1086 33.5291C48.8541 30.8679 52.1334 29.2244 55.8743 28.4887C57.6897 28.1316 59.502 27.6005 61.3327 27.5149C64.053 27.3872 66.7988 27.458 69.5155 27.6774C72.6767 27.933 75.671 28.9715 78.6181 30.1174C78.9503 30.2464 79.3472 30.2093 79.7136 30.2491L79.8698 29.8803C79.4699 29.5384 79.1001 29.1514 78.6656 28.8619C75.9142 27.029 72.7836 26.1663 69.5708 25.9636C62.8979 25.5424 56.2841 25.8545 50.0966 28.8726C47.8396 29.9739 45.7793 31.3293 44.1845 33.2907C43.5012 34.1307 42.8778 35.0412 42.8373 36.4737ZM45.6963 49.4802C45.4211 49.3582 45.1457 49.2362 44.933 49.1419C43.6659 49.7124 43.7277 50.7866 43.8749 51.7541C44.1491 53.5586 45.4565 54.5746 46.9652 55.4674C47.2167 55.1815 47.4068 54.965 47.5947 54.7511C47.046 53.9318 46.5656 53.2141 46.085 52.4966C46.0889 51.8414 46.1379 51.1819 46.0782 50.5328C46.045 50.1736 45.8295 49.8308 45.6963 49.4802ZM60.4222 54.304C60.5214 54.2846 60.6169 54.2945 60.7098 54.3343C60.9881 54.4492 61.2667 54.5644 61.5456 54.6796C61.6455 54.6602 61.7422 54.6718 61.8356 54.713L62.3329 55.0411C62.418 55.0144 62.5014 55.0195 62.5826 55.0566C62.6357 55.1599 62.6891 55.2632 62.7424 55.3668C62.8149 55.2824 62.887 55.198 62.959 55.1141C63.5843 55.3568 64.2097 55.5998 64.8352 55.843C64.9999 55.9504 65.1645 56.0576 65.3292 56.1652C65.4138 56.1388 65.497 56.1444 65.5777 56.1817C65.8638 56.3022 66.1507 56.4223 66.4373 56.5425L67.0857 56.599C67.3628 56.7079 67.6405 56.817 67.9179 56.9259C68.639 57.0651 69.3606 57.204 70.0819 57.3427C70.1089 57.5263 70.136 57.7098 70.1629 57.8934C69.7728 57.984 69.3824 58.075 68.992 58.1664C68.5228 57.4829 68.0064 57.5541 67.462 58.0711C67.2072 58.0512 66.953 58.0321 66.6987 58.0129C66.5479 57.9251 66.3975 57.8376 66.2469 57.7503C66.1514 57.7765 66.0576 57.7724 65.9652 57.7379C65.5731 57.0003 64.9145 57.4465 64.3716 57.38C63.6495 57.2253 62.9274 57.0709 62.2054 56.9159C62.0519 56.8202 61.8986 56.7244 61.7456 56.6281C60.6508 56.2363 59.5565 55.8442 58.4622 55.4524C58.3066 55.3454 58.1504 55.2382 57.9947 55.1313C57.8961 55.1473 57.8027 55.132 57.7142 55.0857C57.5631 54.9735 57.4126 54.8614 57.2613 54.7492C56.9121 54.6085 56.5627 54.4681 56.2133 54.3278C56.0598 54.2196 55.9065 54.1119 55.7531 54.004C55.6529 54.021 55.5576 54.0082 55.4655 53.966C55.2157 53.8421 54.9662 53.7179 54.7165 53.5943L54.7155 53.5938C54.556 53.4837 54.3962 53.3738 54.2364 53.264C54.143 53.2805 54.0533 53.2686 53.9677 53.2276C53.8084 53.1142 53.6491 53.0007 53.4898 52.8872C53.1445 52.8503 52.7992 52.814 52.4539 52.7771C52.1062 52.3026 51.8737 52.3698 51.7454 52.9279C51.7534 53.0307 51.7357 53.1294 51.6928 53.2235C51.2197 53.4851 51.2442 53.7334 51.7132 53.9694C53.0196 54.6701 54.29 55.4519 55.641 56.0522C57.6141 56.9295 59.6293 57.7183 61.6542 58.4695C64.8158 59.6423 68.1647 59.8775 71.4735 60.2599C72.7443 60.4071 74.0721 60.443 75.2722 59.7081V58.9377C75.3561 58.6661 75.4404 58.3946 75.536 58.0883C76.3485 58.0883 77.0733 58.1303 77.79 58.0723C78.2245 58.0369 78.6465 57.8466 79.074 57.7261C81.4228 57.4574 83.7714 57.1892 86.1203 56.9205C86.5204 56.8177 86.9205 56.7149 87.3206 56.6119C87.9338 56.5508 88.5473 56.4894 89.1605 56.4278C89.0477 56.7358 88.9352 57.0435 88.8225 57.3514C88.0727 57.5898 87.3227 57.8286 86.5728 58.067C86.4021 57.9685 86.2314 57.8708 86.0604 57.7724C85.9996 57.9174 85.9385 58.0619 85.8773 58.2066C85.7197 58.5662 85.5624 58.9253 85.2864 59.5548C88.2 59.518 90.4381 58.3056 92.6793 57.236C95.0136 56.1216 96.8538 54.3665 98.1287 52.1986C100.123 51.7029 101.804 52.5739 103.525 52.9422C105.292 53.3193 107.036 53.6733 108.844 53.6008C112.067 53.4708 115.315 53.5271 118.507 53.1362C122.166 52.6884 125.868 52.2565 129.361 50.9578C131.212 50.2699 132.993 49.3951 134.813 48.6228C135.434 48.3597 136.078 48.1528 136.712 47.9208C136.882 48.0915 137.051 48.2627 137.221 48.4334C136.82 48.9659 136.45 49.525 136.013 50.0255C134.797 51.4183 133.536 52.773 132.333 54.1779C132.093 54.4584 132.032 54.892 131.9 55.2276C132.606 55.715 132.961 55.3394 133.302 54.9793C134.957 53.2318 136.602 51.4753 138.258 49.7292C138.725 49.2374 139.218 48.7704 139.699 48.2923L140.203 48.7792C139.768 50.5766 138.102 51.5034 137.222 52.9869C137.191 53.0397 137.142 53.0826 137.101 53.1285C133.675 56.8951 132.804 57.4244 127.756 58.6865C127.223 58.8201 126.647 58.8213 126.091 58.8225C121.783 58.8315 117.475 58.8439 113.167 58.8191C109.184 58.7968 105.234 59.201 101.27 59.5192C96.1089 59.9336 91.1541 61.071 86.2583 62.7026C83.215 63.7167 80.0676 64.3461 76.8194 64.5362C73.8629 64.7094 70.9224 65.2014 67.9838 65.615C65.3357 65.9877 64.3166 67.7721 63.9837 70.2403C63.6709 72.5576 64.858 74.091 66.575 75.1664C69.9821 77.3009 73.7109 78.5907 77.7912 78.6709C81.3998 78.7422 85.0093 78.7536 88.5473 77.9173C90.0458 77.5635 91.4936 76.9976 92.9865 76.6138C97.6474 75.415 102.281 74.0556 107.001 73.1602C109.84 72.6214 112.837 72.5879 115.735 72.7661C119.233 72.9807 122.583 74.0808 125.981 75.4702C121.229 78.8901 117.27 82.9225 113.134 86.757C112.179 87.6433 111.073 88.4163 110.303 89.4412C109.237 90.8612 108.423 92.4707 107.22 94.4624C106.004 94.7454 104.289 95.1872 102.555 95.5376C100.014 96.0499 97.4665 96.5327 94.9101 96.957C93.5675 97.1799 92.2028 97.319 90.8433 97.3792C86.9886 97.5504 83.1313 97.6668 79.275 97.7945C74.9196 97.9391 70.5623 98.0453 66.2079 98.2232C64.1061 98.3088 62.0097 98.5215 59.7801 98.6861C59.9971 97.4337 60.3346 96.3828 60.3317 95.3327C60.3232 92.3037 59.0437 90.0266 56.2453 88.5838C54.1066 87.4815 51.7714 87.1843 49.5122 86.5773C47.2909 85.9806 45.1379 85.268 43.1069 84.1545C41.1177 83.0634 40.1281 81.4948 40.0947 79.2177C40.0692 77.485 39.8553 75.7559 39.7421 74.0239C39.6553 72.6992 39.0433 71.6612 38.0428 70.8326C36.6704 69.6961 35.0199 69.8373 33.9636 71.2671C32.9668 72.6165 32.1785 74.0762 31.8463 75.7673C31.6924 76.5519 31.6645 77.4983 30.559 78.0213C30.349 76.452 30.2428 74.9976 29.9332 73.5884C29.7392 72.7075 29.3796 71.7897 28.8484 71.0698C27.3178 68.9966 25.6814 69.1399 24.3119 71.3438C23.5922 72.5018 22.8808 73.6684 22.0966 74.7823C21.7276 75.3066 21.1946 75.7161 20.6524 76.2617C18.4372 74.3871 17.3792 71.5804 14.6123 70.5266C12.8338 70.9842 12.4904 72.6134 12.0409 74.0464C11.3551 76.2314 11.6776 78.4723 12.1017 80.6667C12.3583 81.9929 12.7986 83.2833 13.1565 84.5898C13.276 84.7367 13.3961 84.8841 13.5161 85.0318L13.5083 85.0243C13.6402 85.1528 13.7717 85.2811 13.9036 85.4098C14.1431 85.6584 14.3829 85.9064 14.6225 86.1552C14.4654 86.4323 14.308 86.7093 14.1509 86.9864C13.7966 86.7371 13.4426 86.4876 13.0888 86.2386C12.8546 86.0892 12.6199 85.9401 12.3852 85.791C10.448 84.6431 8.73422 83.2263 7.03906 81.3338C7.32034 79.8673 7.67096 78.2544 7.93356 76.6273C8.64353 72.2259 10.0189 67.9976 11.2135 63.7196C12.6888 58.4338 15.1193 53.7007 19.0084 49.7777C19.5208 49.2602 20.1352 48.8434 20.8825 48.2329C21.0501 49.7546 21.1914 51.0172 21.3275 52.2803C21.4548 53.4631 21.0549 54.7586 22.2804 56.0731C22.4909 54.3581 22.6972 52.9328 22.832 51.5005C22.9426 50.3269 22.9198 49.14 23.0396 47.9673C23.4145 44.2982 25.6797 41.6288 27.9379 38.988C30.0144 36.5593 32.6846 34.8023 35.1714 32.8402C37.6561 30.8798 40.0745 28.8316 42.6089 26.9379C46.8263 23.7854 51.709 22.1325 56.8452 21.4613C61.4183 20.8638 65.8546 21.8529 70.0618 23.7794C71.1295 24.2684 72.216 24.7308 73.326 25.1125C77.8589 26.6706 82.1427 25.9917 86.1116 23.4304C89.0322 21.5457 91.9133 19.5954 95.2542 18.5346C96.952 17.9953 98.7119 17.4505 100.471 17.3433C104.625 17.0906 108.764 17.0586 112.768 18.7104C114.847 19.568 116.609 20.7004 118.084 22.3427C118.234 22.5105 118.321 22.735 118.509 23.0544C114.342 23.2425 110.335 23.4042 106.33 23.6089C102.272 23.8157 98.3925 24.8504 94.6118 26.274C90.8464 27.6922 87.0274 28.995 83.5527 31.0968C80.3775 31.0968 77.1872 31.2147 74.0096 31.0665C70.1545 30.8866 66.6764 32.0192 63.2669 33.6101C60.0737 35.1001 57.3818 37.2921 54.7601 39.5818C52.137 41.8729 49.5032 44.1396 46.1997 45.5031C46.0414 46.1834 45.9012 46.7763 46.842 46.9111C46.8498 47.2819 46.8571 47.6521 46.8648 48.0226C46.8791 48.123 46.8767 48.2234 46.8571 48.3228C47.0159 48.5682 47.1745 48.8136 47.3333 49.0592C47.4206 49.0372 47.5059 49.0432 47.5886 49.0777C47.9543 49.801 48.5993 49.3681 49.1206 49.4474L49.1116 49.4385C49.3517 50.1307 49.9009 49.7658 50.3347 49.7956C50.421 49.7682 50.5059 49.7723 50.5885 49.8087C50.6431 49.9135 50.6969 50.018 50.7515 50.123C50.8233 50.0359 50.8948 49.9489 50.9671 49.8621C51.218 49.9787 51.469 50.0953 51.7202 50.2122C51.9728 50.3383 52.2255 50.4644 52.4782 50.5905L52.4716 50.5861C52.7248 50.7129 52.9779 50.84 53.2306 50.967C53.3603 51.0652 53.4903 51.1639 53.6195 51.2621C53.876 51.4088 54.1319 51.555 54.3879 51.7017C54.5084 51.6981 54.6209 51.7262 54.725 51.7868C54.8556 51.8872 54.9859 51.9876 55.1166 52.0875C55.3622 52.1986 55.6081 52.3099 55.8542 52.4209C56.1311 52.5475 56.4082 52.6743 56.6856 52.8014C56.7816 52.7858 56.8738 52.798 56.9628 52.8382C57.2278 52.9595 57.4928 53.0802 57.7576 53.201C57.8747 53.1879 57.987 53.2046 58.0951 53.2519C58.3442 53.3654 58.5927 53.4786 58.8417 53.5921L58.8398 53.5906C59.0973 53.7092 59.355 53.828 59.6125 53.9468L59.6026 53.9386C59.8759 54.0608 60.1492 54.1823 60.4222 54.304Z" fill="#539836"/>
<path d="M15.178 73.2824C15.5638 73.9652 15.8448 74.5021 16.1627 75.0161C16.749 75.9642 17.3152 76.929 17.9667 77.8313C18.8285 79.0235 19.6568 79.2791 21.0219 78.8555C22.1674 78.5 23.1794 77.9537 23.8118 76.8551C24.275 76.0503 24.7907 75.2748 25.3014 74.4989C25.636 73.9904 26.0033 73.5045 26.3707 72.9883C27.3854 73.3241 27.6956 73.9315 27.7353 74.8466C27.802 76.3905 28.0161 77.928 28.0998 79.4723C28.1728 80.8258 28.7906 81.6859 30.1528 82.0467C30.9542 81.8903 31.4974 81.4112 32.0209 80.7177C33.394 78.8999 34.2012 76.8512 34.8574 74.707C35.0821 73.973 35.2366 73.0768 36.4516 73.0399C37.4681 73.9878 37.2688 75.3621 37.4691 76.5772C37.7705 78.403 37.9613 80.2468 38.1931 82.0836C38.502 84.5311 40.0779 85.9921 42.2124 86.7828C45.0465 87.8329 47.9634 88.662 50.8477 89.5746C51.9662 89.9289 53.0962 90.2473 54.2181 90.5921C56.9227 91.4238 58.3587 93.9564 57.5391 96.6472C57.1996 97.7628 56.6839 98.8498 56.0934 99.8593C55.1769 101.425 53.5516 101.843 51.9107 101.858C45.5421 101.916 39.1732 101.903 32.8043 101.869C31.2345 101.86 29.7872 101.384 28.577 100.291C26.2252 98.1668 23.8278 96.0936 21.4855 93.9593C19.6364 92.2746 18.5486 90.1142 18.0035 87.7129C17.5935 85.906 16.7887 84.3342 15.6188 82.9424C14.7459 81.9039 14.2304 80.7837 14.1964 79.4015C14.1661 78.1676 13.9559 76.9392 13.8715 75.705C13.8089 74.7938 14.0897 74.0081 15.178 73.2824Z" fill="#539836"/>
<path d="M132.892 68.3374C133.756 70.365 133.331 71.5675 131.573 72.5417C130.154 73.3286 128.81 73.5492 127.148 73.1397C123.009 72.1213 118.826 71.2476 114.622 70.5534C111.979 70.1167 109.276 70.381 106.639 70.9404C101.677 71.993 96.7495 73.177 91.9849 74.9512C91.0564 75.2968 90.1583 75.7305 89.2168 76.0336C86.4826 76.9141 83.7021 77.3353 80.8147 76.9022C79.7738 76.7463 78.6952 76.8217 77.6342 76.8207C74.3358 76.8183 71.2915 75.8166 68.3434 74.4573C66.7729 73.7333 65.5627 72.5713 65.6752 70.7644C65.7899 68.9237 67.0292 67.6886 68.7806 67.2012C70.2609 66.7887 71.8026 66.5409 73.3338 66.3816C75.496 66.1569 77.6977 66.2352 79.8383 65.9025C82.5169 65.4859 85.1793 64.8885 87.798 64.1833C92.3452 62.9583 96.9137 61.9499 101.605 61.398C108.375 60.601 115.156 60.7283 121.942 60.7407C125.795 60.7474 129.67 60.9334 133.414 59.0586C134.309 59.7552 135.17 60.4262 135.983 61.0583V63.6164C135.025 64.3897 134.113 65.1266 133.28 65.799C130.169 65.0364 127.147 64.0752 124.051 63.5968C120.759 63.0881 117.421 62.6715 114.046 63.2176C112.581 63.4547 111.049 63.2406 109.562 63.3883C107.169 63.6264 104.726 63.6094 102.428 64.4813C100.172 65.3373 97.9294 66.2318 95.6623 67.0567C92.8124 68.0938 89.9813 69.2079 87.0723 70.0484C83.8811 70.9707 80.5543 70.8728 77.2544 70.8643C76.399 70.8621 75.5377 71.0469 74.6895 71.203C74.0499 71.3209 73.7267 71.7345 73.8622 72.5405C74.2574 72.6916 74.7033 72.9988 75.1587 73.0143C79.3269 73.155 83.5377 73.3143 87.5694 72.1215C91.3038 71.017 94.9181 69.5091 98.5926 68.1985C100.514 67.5133 102.429 66.7929 104.389 66.2381C105.627 65.8877 106.937 65.7008 108.225 65.6372C112.203 65.4411 116.188 65.1804 120.165 65.2546C122.939 65.3062 125.646 66.1222 128.305 66.9674C129.835 67.4536 131.381 67.8881 132.892 68.3374Z" fill="#AB522A"/>
<path d="M97.229 42.3908C94.5428 42.2436 92.3098 41.9497 90.0917 42.0344C84.7705 42.2375 79.4901 42.8384 74.3516 44.3532C71.7466 45.1211 69.1388 45.8817 66.5113 46.5658C65.323 46.8749 64.0902 47.0965 62.8664 47.1727C59.3435 47.3921 55.8152 47.5167 52.2889 47.6787C52.2448 47.5531 52.2006 47.4278 52.1562 47.3019C53.1856 46.6627 54.1996 45.9971 55.2471 45.3895C58.9483 43.2421 62.6526 41.1015 66.3714 38.985C69.2518 37.3453 72.3708 36.2404 75.6154 35.7552C77.9989 35.3985 80.4705 35.6512 82.9013 35.5779C85.0394 35.5132 87.0823 36.0125 89.1281 36.5095C92.4946 37.3279 94.7914 39.6176 97.229 42.3908Z" fill="#539636"/>
<path d="M132.556 29.3259C130.778 29.0892 129.005 28.8111 127.222 28.6268C125.31 28.429 123.391 28.2576 121.472 28.1887C119.414 28.1145 117.35 28.1288 115.291 28.1821C109.467 28.332 103.834 29.281 98.6741 32.206C97.2224 33.0292 95.7079 33.7414 94.1184 34.5571C92.0125 32.8183 89.2522 32.4682 86.3672 31.4216C88.5116 30.4932 90.3176 29.654 92.1665 28.9227C96.0757 27.3766 100.051 26.0256 104.211 25.3178C105.673 25.0692 107.154 24.8255 108.632 24.7863C111.751 24.7031 114.88 24.6437 117.995 24.7809C122.463 24.9771 126.861 25.6679 130.995 27.5047C131.841 27.8812 132.621 28.4086 133.431 28.8669C133.139 29.0197 132.847 29.1729 132.556 29.3259Z" fill="#539437"/>
<path d="M118.98 86.7683C119.28 86.1175 119.415 85.5576 119.743 85.1554C122.141 82.2137 124.61 79.3246 127.743 77.1241C128.69 76.4582 129.756 75.8116 130.861 75.546C134.332 74.7139 135.17 72.2166 135.25 69.1413C135.266 68.5256 135.252 67.9097 135.252 67.4059C136.716 65.8545 138.452 65.8082 140.21 65.9435C141.218 66.0208 142.116 66.9178 142.037 67.9354C141.817 70.7736 141.04 73.4079 138.696 75.3045C136.993 76.683 135.077 77.6614 133.012 78.3859C131.147 79.0401 129.72 80.1946 128.602 81.8958C126.562 84.999 123.772 87.0069 119.853 86.9592C119.677 86.957 119.501 86.885 118.98 86.7683Z" fill="#539437"/>
<path d="M140.921 36.0014C140.208 35.8273 139.487 35.685 138.785 35.4736C136.897 34.9042 135.03 34.2653 133.131 33.7384C132.307 33.5093 131.427 33.3951 130.571 33.3866C127.517 33.3551 124.448 33.2132 121.409 33.4448C117.297 33.7576 113.165 34.0541 109.221 35.5259C106.682 36.4733 104.428 37.8304 102.368 39.5421C101.175 40.5328 100.042 41.5944 98.7153 42.7719C98.0919 41.9261 97.5027 41.1254 96.793 40.1626C97.8119 39.4155 98.6661 38.7303 99.5778 38.1333C101.341 36.9791 103.16 35.911 104.912 34.7418C107.778 32.8291 110.872 31.4264 114.254 30.8207C116.622 30.3973 119.04 30.1997 121.444 30.0457C125.508 29.7853 129.444 30.6786 133.342 31.6718C135.247 32.1575 137.11 32.8315 138.96 33.5073C140.077 33.9152 140.785 34.7614 140.925 35.9971L140.921 36.0014Z" fill="#529138"/>
<path d="M83.9688 44.2425C89.2324 43.1043 95.2633 43.1359 97.714 44.1627C98.319 49.3583 96.9909 52.5384 90.7285 54.316C90.5433 49.6012 88.4553 46.135 83.9688 44.2425Z" fill="#F6F6F6"/>
<path d="M134.119 46.7653C134.469 41.6556 133.081 37.6315 128.816 34.7344C130.125 34.8961 131.459 34.949 132.737 35.245C134.733 35.7074 136.728 36.2305 138.648 36.9353C139.661 37.3075 140.633 37.9967 141.413 38.758C142.821 40.1321 142.688 41.6964 141.134 42.9155C139.115 44.5001 136.76 45.4899 134.119 46.7653Z" fill="#F6F6F6"/>
<path d="M46.8702 48.0239C46.8627 47.6532 46.8549 47.2824 46.8477 46.9122C49.8772 45.7177 52.4331 43.8041 54.8503 41.6725C57.9574 38.9313 61.1101 36.225 64.9992 34.6409C66.7472 33.929 68.6218 33.5277 70.4394 32.9856C71.0694 32.8602 71.8101 33.3364 72.3344 32.6366C73.0584 32.6201 73.7829 32.6034 74.5069 32.5872C74.6536 32.5161 74.8003 32.4458 74.9468 32.375C76.3245 32.454 77.7023 32.5331 79.08 32.6124C79.9156 33.3742 80.8993 32.8844 81.8191 32.9361C81.8307 33.1104 81.8421 33.285 81.8535 33.4594C81.4309 33.5462 81.0082 33.633 80.5856 33.7198C80.2076 33.7198 79.83 33.7203 79.452 33.7207C78.5706 33.18 77.6957 33.1112 76.832 33.7595C74.4509 34.3686 72.0715 34.9853 69.6877 35.5847C66.9909 36.2624 64.822 37.9612 62.4879 39.3249C58.5411 41.6311 54.6619 44.0529 50.7268 46.38C50.0498 46.7805 49.2305 46.9333 48.4929 47.2388C47.9386 47.4684 47.41 47.7596 46.8702 48.0239Z" fill="#529138"/>
<path d="M72.3149 46.8853C69.7381 48.9958 68.431 50.9574 66.866 55.1346C66.2443 54.9898 65.5654 54.9207 64.957 54.6758C62.0764 53.5144 59.2045 52.3279 56.3525 51.0981C55.5121 50.7356 54.6639 50.2686 54.6367 48.8983C55.3717 48.8188 56.0792 48.7184 56.7902 48.6694C59.9574 48.4519 63.1423 48.3848 66.287 47.9903C68.2426 47.7454 70.1365 47.0136 72.0582 46.5C72.1438 46.6285 72.2293 46.7568 72.3149 46.8853Z" fill="#F6F6F6"/>
<path d="M109.059 30.7147C105.273 32.5643 101.697 34.7595 98.2687 37.2053C97.4734 37.7725 96.6162 38.2526 95.5774 38.9041C94.9877 38.248 94.4693 37.6709 93.9844 37.1311C95.5821 34.2925 102.829 31.0867 109.069 30.3398C109.066 30.465 109.062 30.5898 109.059 30.7147Z" fill="#529138"/>
<path d="M82.0719 54.6516C80.3537 54.4783 79.1585 53.4456 79.2732 52.2327C79.3925 50.9696 81.3551 49.4073 82.6618 49.5346C83.8922 49.6552 85.467 51.1816 85.4149 52.2033C85.3579 53.3144 83.3553 54.7809 82.0719 54.6516Z" fill="#F0F0F0"/>
<path d="M123.785 41.635C124.935 39.8247 126.305 39.3759 127.738 40.2313C128.591 40.741 128.802 41.61 128.283 42.4662C127.279 44.1201 125.468 44.2351 124.291 42.6978C124.073 42.4131 123.973 42.0392 123.785 41.635Z" fill="#F0F0F0"/>
<path d="M82.4953 32.9884C85.5056 32.8924 88.3833 33.6821 91.2261 34.6077C91.7343 34.773 92.485 34.8981 92.4872 35.8768C91.8051 35.7577 91.157 35.6811 90.5278 35.5271C87.8191 34.864 85.1157 34.178 82.4102 33.5003C82.4383 33.3296 82.4671 33.1591 82.4953 32.9884Z" fill="#4E803A"/>
<path d="M76.7083 51.0169C75.2469 51.0659 74.4052 50.7162 74.2423 49.9376C74.0633 49.0865 74.5182 48.5046 75.1855 48.0747C75.8666 47.6355 76.6959 47.7723 77.1976 48.3642C77.7504 49.0157 77.629 49.6738 76.7083 51.0169Z" fill="#F0F0F0"/>
<path d="M118.947 41.9998C118.375 41.283 118.013 40.8289 117.672 40.4021C118.817 38.933 119.319 38.9383 120.672 40.486C120.167 40.9295 119.66 41.3745 118.947 41.9998Z" fill="#F0F0F0"/>
<path d="M79.0745 57.731C78.647 57.8518 78.2246 58.0424 77.7901 58.077C77.0738 58.1352 76.3488 58.093 75.536 58.093C75.441 58.3995 75.3566 58.6708 75.2722 58.9424C74.5458 58.2795 73.6503 58.5554 72.8157 58.5084C72.1113 58.4686 71.3495 58.6755 70.8594 57.8884C70.7959 57.7868 70.4036 57.8896 70.1635 57.8981C70.1366 57.7148 70.1094 57.5312 70.082 57.3477C73.0795 57.4754 76.077 57.6032 79.0745 57.731Z" fill="#529138"/>
<path d="M76.8932 54.0905C75.3435 55.4055 75.1379 55.397 74.0625 54.0595C75.126 52.5891 75.4982 52.5797 76.8932 54.0905Z" fill="#F0F0F0"/>
<path d="M119.774 45.9549C119.104 45.4474 118.733 45.1674 118.176 44.7455C118.605 44.1742 118.974 43.6837 119.267 43.294C120.222 43.2191 120.748 43.6262 120.701 44.2872C120.664 44.7918 120.179 45.2641 119.774 45.9549Z" fill="#F0F0F0"/>
<path d="M119.629 47.1375C119.942 46.3533 120.404 45.7954 121.193 46.1703C121.54 46.3352 121.83 46.9355 121.855 47.3562C121.874 47.6613 121.47 48.1918 121.158 48.2781C120.36 48.4997 119.902 47.9804 119.629 47.1375Z" fill="#F0F0F0"/>
<path d="M88.8242 57.3521C88.937 57.0442 89.0495 56.7365 89.1617 56.4285C90.4558 55.6885 91.8758 55.3439 93.3289 55.1031L93.3112 55.0859C92.0606 56.3257 90.541 57.0338 88.8242 57.3521Z" fill="#4E803A"/>
<path d="M132.559 29.3262C132.851 29.1732 133.142 29.0199 133.434 28.8672C134.028 29.1276 134.621 29.3885 135.214 29.6489C134.179 30.0868 133.318 29.9559 132.559 29.3262Z" fill="#4E803A"/>
<path d="M14.1562 86.9872C14.3134 86.7103 14.4707 86.4329 14.6281 86.1562C15.3512 86.5338 15.4913 87.2149 15.6916 87.8645C15.5905 87.9549 15.4894 88.0454 15.388 88.1358C14.9773 87.753 14.567 87.3701 14.1562 86.9872Z" fill="#4E803A"/>
<path d="M140.207 48.7848L139.703 48.2979C139.947 47.5384 140.381 46.9335 141.323 46.6641C140.951 47.3709 140.579 48.0779 140.207 48.7848Z" fill="#4E803A"/>
<path d="M137.227 48.4339C137.057 48.2627 136.888 48.092 136.719 47.9208C137.094 47.3437 137.622 47.1151 138.3 47.2266L138.302 47.229C137.944 47.6308 137.585 48.0321 137.227 48.4339Z" fill="#4E803A"/>
<path d="M81.8171 32.9411C80.8977 32.8895 79.9135 33.3793 79.0781 32.6172C79.9913 32.7253 80.9042 32.833 81.8171 32.9411Z" fill="#4E803A"/>
<path d="M76.832 33.7625C77.6957 33.1139 78.5706 33.1827 79.452 33.7232C78.5788 33.7363 77.7052 33.7494 76.832 33.7625Z" fill="#4E803A"/>
<path d="M72.3327 32.6367C71.8085 33.3365 71.0675 32.8603 70.4375 32.9856C71.0692 32.8693 71.701 32.7531 72.3327 32.6367Z" fill="#4E803A"/>
<path d="M117.398 35.9975C117.353 35.782 117.307 35.5671 117.262 35.3516C117.516 35.3971 117.771 35.443 118.026 35.4888C117.817 35.6583 117.607 35.828 117.398 35.9975Z" fill="#529138"/>
<path d="M49.1257 49.4479C48.6044 49.3686 47.9594 49.8014 47.5938 49.0781C48.1044 49.2015 48.6151 49.3247 49.1257 49.4479Z" fill="#529138"/>
<path d="M50.3441 49.7981C49.9104 49.7687 49.3616 50.1337 49.1211 49.4414C49.5292 49.5602 49.9365 49.6795 50.3441 49.7981Z" fill="#529138"/>
<path d="M109.442 30.3806C109.579 30.2613 109.717 30.1427 109.855 30.0234C109.897 30.1001 109.94 30.1767 109.983 30.2533C109.801 30.2943 109.619 30.335 109.438 30.376L109.442 30.3806Z" fill="#4E803A"/>
<path d="M85.8828 58.2114C85.9437 58.0669 86.0048 57.9219 86.0659 57.7773C86.2366 57.8753 86.4073 57.9735 86.5782 58.072C86.3464 58.118 86.1146 58.1648 85.8828 58.2114Z" fill="#4E803A"/>
<path d="M72.7363 46.5073C72.5944 46.6349 72.4533 46.7622 72.3115 46.8895C72.2259 46.761 72.1403 46.6327 72.0547 46.5042C72.2584 46.4821 72.4618 46.4596 72.6655 46.4375L72.7363 46.5073Z" fill="#529138"/>
<path d="M62.9623 55.12C62.8902 55.2043 62.818 55.2882 62.746 55.3726C62.6924 55.2693 62.639 55.1658 62.5859 55.0625C62.7115 55.0819 62.8369 55.1008 62.9623 55.12Z" fill="#529138"/>
<path d="M72.668 46.4371C72.7402 46.3563 72.8122 46.2761 72.8843 46.1953C72.836 46.2993 72.7873 46.4029 72.7388 46.5069L72.668 46.4371Z" fill="#529138"/>
<path d="M93.3344 55.1058C93.3938 55.0333 93.4532 54.9608 93.4158 55.0064C93.4614 54.9686 93.3889 55.0285 93.3164 55.0886L93.3344 55.1058Z" fill="#4E803A"/>
<path d="M109.059 30.7147C109.062 30.5898 109.066 30.465 109.069 30.3398C109.193 30.3522 109.318 30.3646 109.443 30.3772L109.439 30.3728C109.312 30.4865 109.185 30.6007 109.059 30.7147Z" fill="#4E803A"/>
<path d="M141.471 46.06C141.44 46.0183 141.376 45.9685 141.379 45.9244C141.383 45.8793 141.453 45.8391 141.493 45.7969C141.528 45.8442 141.594 45.8944 141.59 45.9382C141.586 45.9821 141.513 46.0202 141.471 46.06Z" fill="#4E803A"/>
<path d="M141.848 45.267L141.809 45.1484L141.911 45.1593L141.848 45.267Z" fill="#4E803A"/>
<path d="M140.926 35.9922C141.013 36.0497 141.099 36.1064 141.185 36.1639C141.097 36.1081 141.009 36.0523 140.922 35.9968L140.926 35.9922Z" fill="#529138"/>
<path d="M50.972 49.8658C50.9005 49.9527 50.8285 50.0399 50.7567 50.1272C50.7021 50.0222 50.6481 49.9175 50.5938 49.8125C50.7198 49.8302 50.8459 49.8481 50.972 49.8658Z" fill="#529138"/>
<path d="M138.297 47.2297C138.349 47.131 138.401 47.0323 138.454 46.9336C138.402 47.033 138.351 47.1327 138.299 47.2321L138.297 47.2297Z" fill="#4E803A"/>
<path d="M42.8438 36.4771C42.8842 35.0445 43.5077 34.134 44.1909 33.2941C45.7857 31.3327 47.846 29.9772 50.103 28.8759C56.2905 25.8578 62.9043 25.5457 69.5773 25.9669C72.7901 26.1696 75.9207 27.0324 78.6721 28.8652C79.1066 29.1548 79.4764 29.5417 79.8762 29.8836L79.72 30.2524C79.3537 30.2127 78.9567 30.2498 78.6245 30.1208C75.6775 28.9748 72.6831 27.9363 69.522 27.6807C66.8053 27.4613 64.0595 27.3905 61.3391 27.5183C59.5084 27.6039 57.6962 28.1349 55.8807 28.4921C52.1398 29.2277 48.8606 30.8712 46.115 33.5324C45.3982 34.2266 44.7302 34.9713 44.0103 35.6621C43.7269 35.9337 43.3624 36.1204 42.8438 36.4771Z" fill="#081105"/>
<path d="M70.1657 57.8936C70.4058 57.8853 70.7981 57.7821 70.8616 57.8837C71.3517 58.6707 72.1135 58.4641 72.8179 58.5041C73.6525 58.5512 74.548 58.2748 75.2744 58.9379V59.7083C74.0744 60.4435 72.7471 60.4073 71.4763 60.2607C68.1675 59.8783 64.8181 59.6428 61.657 58.4702C59.6316 57.719 57.6166 56.9297 55.6438 56.053C54.2927 55.4521 53.0224 54.6704 51.7159 53.9696C51.7089 53.7211 51.7019 53.4725 51.6953 53.2237C51.738 53.1301 51.7554 53.0312 51.7482 52.9282C51.9846 52.8782 52.2205 52.8278 52.4567 52.7773C52.802 52.8142 53.1473 52.8511 53.4925 52.8879C53.6519 53.0014 53.8112 53.1149 53.97 53.2283C54.0561 53.2688 54.1458 53.2812 54.2391 53.2645C54.3989 53.3741 54.5585 53.4844 54.7183 53.594L54.719 53.5945C54.9685 53.7186 55.2183 53.8425 55.4682 53.9664C55.5599 54.0089 55.6557 54.0217 55.7556 54.0048C55.9088 54.1127 56.0623 54.2203 56.2156 54.328C56.5652 54.4684 56.9146 54.609 57.264 54.7494C57.4148 54.8617 57.5659 54.9739 57.7165 55.0864C57.805 55.1323 57.8988 55.1475 57.9975 55.1315C58.1532 55.2387 58.3089 55.3456 58.4648 55.4531C59.5591 55.8449 60.6534 56.237 61.7479 56.6288C61.9014 56.7246 62.0546 56.8204 62.2076 56.9167C62.9297 57.0711 63.6523 57.2261 64.3742 57.3803C64.9054 57.5001 65.4367 57.6191 65.9677 57.7387C66.0603 57.7726 66.1542 57.7767 66.2495 57.7505C66.3998 57.8383 66.5506 57.9258 66.701 58.0136C66.9556 58.0328 67.2099 58.0519 67.4643 58.0713C67.9747 58.1031 68.4844 58.1351 68.9943 58.1666C69.3847 58.0757 69.7753 57.9845 70.1657 57.8936Z" fill="#081105"/>
<path d="M46.0912 52.4992C46.5716 53.2167 47.0524 53.9344 47.6011 54.7537C47.4132 54.9676 47.2229 55.1844 46.9714 55.4705C45.4625 54.5772 44.1553 53.5617 43.8808 51.7567C43.7339 50.7895 43.672 49.7151 44.9392 49.1445C45.1516 49.2389 45.4273 49.3613 45.7025 49.4833C45.703 50.169 45.6628 50.8579 45.721 51.5385C45.7493 51.8668 45.9622 52.1794 46.0912 52.4992Z" fill="#081105"/>
<path d="M46.0932 52.5003C45.9642 52.1805 45.7513 51.8679 45.7229 51.5396C45.6648 50.859 45.705 50.1701 45.7045 49.4844C45.8381 49.8345 46.053 50.1774 46.0862 50.537C46.1461 51.1861 46.0968 51.8456 46.0932 52.5003Z" fill="#529138"/>
<path d="M68.999 58.1697C68.4891 58.1377 67.9787 58.1057 67.4688 58.0742C68.0131 57.5574 68.5296 57.4864 68.999 58.1697Z" fill="#529138"/>
<path d="M65.9686 57.7404C65.4373 57.6211 64.906 57.5015 64.375 57.3822C64.9179 57.4487 65.5765 57.0028 65.9686 57.7404Z" fill="#529138"/>
<path d="M51.6989 53.2266C51.706 53.4751 51.7125 53.7236 51.7193 53.9724C51.2503 53.7365 51.2254 53.4882 51.6989 53.2266Z" fill="#529138"/>
<path d="M52.4585 52.7812C52.2223 52.8316 51.9864 52.8816 51.75 52.932C51.8783 52.3736 52.1108 52.3064 52.4585 52.7812Z" fill="#529138"/>
</svg>
