<svg width="150" height="110" viewBox="0 0 150 110" fill="none" xmlns="http://www.w3.org/2000/svg">
<g clip-path="url(#clip0_1054_4553)">
<path fill-rule="evenodd" clip-rule="evenodd" d="M130.881 111.101C97.8322 111.116 16.7599 111.983 14.8731 112.193C13.5565 112.339 14.3065 105.542 14.306 104.217C14.3023 98.6892 16.2679 89.1411 16.873 83.4333C17.3385 79.0437 24.3172 70.5043 26.5435 66.2593C26.8173 65.7373 29.7234 64.1869 29.7438 63.5977L29.8027 64.8639C33.3681 66.3516 36.6555 68.3225 39.6895 70.6978C41.1205 71.8174 41.0872 72.0795 40.2926 73.6964C39.0811 76.1582 37.4213 78.1025 34.8204 79.2521C33.3477 79.9035 31.9211 80.7772 30.7875 82.2231C32.2346 82.8263 33.0538 81.7451 34.074 81.3642C35.1422 80.9665 35.969 79.8831 37.5196 80.2007C37.4896 80.7643 37.5539 81.343 37.4169 81.8701C36.2651 86.3212 35.1776 90.7925 33.8601 95.1954C33.0323 97.964 31.7072 100.552 29.8005 102.787C29.6125 103.008 30.1448 104.109 30.7573 105.429C31.3225 105.092 31.7643 104.595 32.1121 104.022C32.8147 102.867 33.4702 101.672 34.0114 100.434C34.8113 98.6065 35.4937 96.7254 36.2562 94.7887C37.1277 95.2592 37.9276 95.7425 38.7693 96.1361C45.4758 99.2717 52.5136 101.052 59.9377 101.15C63.7107 101.199 67.4881 101.216 71.2598 101.126C73.7923 101.066 76.3195 100.793 78.8498 100.616C79.0914 100.571 79.3341 100.526 79.5769 100.481L83.8375 100.199C84.1647 100.151 84.4911 100.103 84.8183 100.055C89.7709 99.7103 94.7192 99.275 99.677 99.0503C103.448 98.8803 107.04 98.0461 110.521 96.69C113.268 95.6196 115.947 94.3716 118.683 93.2678C119.816 92.8112 120.979 92.3108 122.406 92.6091C123.225 95.0742 124.811 97.1103 126.474 99.1219C127.864 100.803 129.157 102.577 130.354 104.401C131.663 106.394 132.605 108.557 132.474 111.033C131.943 111.057 131.413 111.1 130.881 111.101Z" fill="#0542F3"/>
<path d="M82.6107 41.5901C80.385 42.4177 78.335 43.1053 76.3458 43.9364C72.8681 45.3887 69.802 47.4227 67.6406 50.6021C67.3357 51.0502 67.1562 51.5839 66.7285 52.4726C67.7038 52.311 68.2565 52.2609 68.7872 52.1239C71.4575 51.4374 73.7129 49.9649 75.9383 48.4012C77.6998 47.1649 79.0932 45.4506 81.2546 44.7C82.2566 44.3513 82.9422 43.2862 82.6107 41.5901ZM60.268 62.1702C65.4985 62.4505 80.9732 52.1443 82.6546 47.4259C81.2791 46.4003 80.5509 46.3918 79.3991 47.3339C78.3971 48.1541 77.4175 49.0183 76.3415 49.7317C74.7759 50.7691 73.2328 51.9689 71.4981 52.5946C68.785 53.5742 66.3615 54.8799 64.2911 56.8765C62.7212 58.3909 61.1898 59.9233 60.268 62.1702ZM67.1914 61.3875C67.555 61.8504 67.7667 62.2002 68.0535 62.4707C70.2629 64.5572 72.6981 66.3538 75.5212 67.4896C76.81 68.0072 78.2547 68.2981 79.6462 68.3676C83.3465 68.5537 86.9461 67.7988 90.4818 66.7764C92.0646 66.3198 93.6858 65.8855 95.153 65.1658C96.9112 64.3017 97.5218 62.659 97.4651 60.718C97.4106 58.887 96.1733 58.1662 94.7231 57.6647C92.0463 56.7387 89.3962 55.6681 86.6488 55.0276C82.3369 54.0202 78.197 54.7334 74.3716 57.0509C72.5022 58.1844 70.6072 59.2741 68.7294 60.394C68.2396 60.6858 67.77 61.0122 67.1914 61.3875ZM66.8331 48.6099C69.3582 47.0644 70.8168 45.6571 71.1548 44.4603C69.7197 43.3491 68.2685 42.8873 66.4642 43.8261C64.7436 44.7224 62.8998 45.3822 61.1 46.1234C60.8079 46.2431 60.4658 46.2442 60.146 46.2997C61.7587 43.9256 64.6281 43.7182 66.7958 42.1706C66.7018 41.8007 66.6086 41.434 66.4675 40.8777C65.2236 41.0319 64.0217 41.0297 62.9116 41.3484C60.9373 41.9151 58.9952 42.6177 57.0798 43.3641C51.4589 45.5555 46.0187 48.1424 40.8083 51.1742C39.1947 52.1132 37.5883 53.2555 36.3798 54.6522C34.6933 56.6006 33.3576 58.8581 31.9235 61.0184C31.2381 62.0504 31.3866 62.6794 32.3727 63.4386C32.7427 63.7241 33.193 63.9039 33.5962 64.1477C35.8153 65.4897 38.046 66.8137 40.2395 68.1954C41.0233 68.6896 41.7141 69.3301 42.5922 70.0168C43.4445 69.1965 44.1804 68.4662 44.9396 67.7603C47.2593 65.6022 50.041 64.2695 53.1411 63.9328C55.8468 63.6386 57.5184 62.0613 59.0819 60.1652C60.5459 58.3887 61.9973 56.6028 63.4196 54.7933C64.3565 53.602 65.2312 52.3614 66.0834 51.2118C65.8333 50.6599 65.7263 50.3133 65.535 50.0215C64.9158 49.0782 64.0838 48.4216 62.8933 48.5573C61.7192 48.6911 61.2294 49.5552 60.9801 50.6043C60.9128 50.8909 60.8038 51.1668 60.7289 51.4512C60.3652 52.8297 59.8283 53.3432 58.4188 53.4437C57.2381 53.5271 56.049 53.5175 54.864 53.5056C54.5763 53.5026 54.2897 53.3304 54.0031 53.2362C53.9935 53.1154 53.984 52.9945 53.9742 52.8736C54.8427 52.5698 55.7003 52.2331 56.5805 51.9678C58.2382 51.4695 59.6637 50.7754 60.0391 48.8376C60.1931 48.0408 60.793 47.5736 61.5416 47.2153C62.98 46.5275 64.2827 46.7201 65.535 47.6087C65.9616 47.9114 66.3659 48.2473 66.8331 48.6099ZM132.471 111.035C132.602 108.558 131.659 106.396 130.351 104.402C129.154 102.579 127.861 100.805 126.472 99.1236C124.808 97.112 123.223 95.0759 122.403 92.6107C120.976 92.3124 119.813 92.8129 118.681 93.2695C115.945 94.3733 113.266 95.6213 110.518 96.6916C107.038 98.0467 103.444 98.8819 99.6747 99.0519C94.7166 99.2766 89.7673 99.7119 84.8146 100.056C84.4885 100.104 84.1613 100.152 83.8341 100.201C82.4138 100.295 80.9947 100.389 79.5746 100.482C79.3318 100.528 79.0889 100.573 78.8461 100.618C76.3169 100.795 73.7899 101.068 71.2575 101.128C67.4845 101.218 63.7084 101.2 59.9343 101.151C52.5102 101.054 45.4733 99.2734 38.7657 96.1378C37.9242 95.7441 37.1252 95.2608 36.2537 94.7904C35.4901 96.727 34.8088 98.607 34.0078 100.436C33.4668 101.673 32.8111 102.869 32.1096 104.024C31.5835 104.888 30.8434 105.581 29.7888 105.812C29.791 104.805 29.7943 103.797 29.7975 102.79C31.7042 100.555 33.0293 97.9665 33.8572 95.1966C35.1746 90.7948 36.2613 86.3224 37.4139 81.8726C37.5509 81.3452 37.4867 80.7666 37.5166 80.2021C35.966 79.8845 35.1392 80.9677 34.071 81.3657C33.0508 81.7463 32.2316 82.8275 30.7845 82.2244C31.9181 80.7786 33.3448 79.9047 34.8175 79.2536C37.4183 78.1039 39.0781 76.1597 40.2888 73.6978C41.0843 72.0807 41.1175 71.8197 39.6865 70.699C36.6525 68.3237 33.3652 66.3528 29.7997 64.8653C29.4276 62.7712 29.961 60.9179 31.2422 59.2379C31.7053 58.6304 32.0829 57.9578 32.4893 57.3097C34.9896 53.3184 38.2429 50.1989 42.6191 48.2868C46.7182 46.4967 50.7626 44.5834 54.8427 42.7514C55.7003 42.3665 56.6554 42.1834 56.7344 40.9548C56.7483 40.7442 57.2242 40.5622 57.4874 40.3677L57.4479 40.3206C57.5773 40.4361 57.7056 40.5527 57.8339 40.6693L59.2167 40.711C59.4916 41.1921 59.7771 41.1291 60.068 40.726C61.1471 40.5206 62.2218 40.2906 63.3063 40.1174C64.7456 39.8874 66.1883 39.7207 67.461 40.7055C67.9026 41.2253 68.2524 41.8958 68.8052 42.2327C70.1131 43.0326 71.5174 43.6733 73.0926 44.486C73.8894 44.0272 74.9352 43.4262 75.9811 42.8242C77.1211 42.3676 78.2367 41.8295 79.4087 41.4798C80.3455 41.1997 81.3573 40.9889 82.3219 41.0327C83.5795 41.0905 84.1388 42.1033 83.7186 43.299C83.4737 43.9942 83.1196 44.6508 82.8074 45.3405C83.3239 45.7554 83.7325 46.0837 84.1409 46.4122C84.1442 46.5179 84.1518 46.6228 84.1635 46.7288C83.9077 47.4376 83.6533 48.1457 83.3977 48.8548C82.8576 49.4612 81.63 49.7189 82.3326 50.9541C81.508 50.9732 80.6182 50.8952 80.5787 52.108C80.5861 52.1946 80.585 52.2813 80.5765 52.3688C79.9113 52.4107 79.5359 52.7539 79.4729 53.4244C79.0622 53.5614 78.6505 53.6982 78.2397 53.8352C79.5917 53.9837 80.8438 53.927 82.092 53.8254C82.3519 53.8041 82.5979 53.617 82.8502 53.5067L82.9496 53.5314L83.0501 53.5154C84.6201 53.7132 86.1901 53.9099 87.7589 54.1079C89.871 54.7987 91.9981 55.4436 94.089 56.1922C95.86 56.8275 97.601 57.5578 98.4801 59.4378C98.5687 59.6261 98.8136 59.7405 99.1451 60.0271C101.609 57.699 104.468 56.0252 107.643 54.9034C108.231 54.7718 108.819 54.6413 109.408 54.51C109.761 54.6383 110.116 54.7655 110.468 54.8927L111.165 54.9142C111.183 55.0156 111.187 55.1172 111.18 55.2189C110.207 55.4627 109.229 55.682 108.265 55.9557C104.958 56.8948 102.057 58.5149 99.8403 61.1906C99.0244 62.1768 98.2886 63.2526 98.4224 64.6204C100.949 66.0566 106.722 67.2212 110.48 67.079C110.804 67.1218 111.128 67.1656 111.452 67.2095C112.194 67.1357 112.937 67.0619 113.678 66.988C114.164 66.9474 114.652 66.9068 115.139 66.8662C117.104 66.4865 119.087 66.1786 121.03 65.7058C123.028 65.2214 125.024 64.6771 126.95 63.9658C128.327 63.458 128.495 62.8622 128.093 61.4473C127.487 59.3169 126.079 57.8796 124.07 57.0413C122.767 56.4979 121.423 56.0552 120.098 55.5686C120.171 54.5313 120.959 55.0189 121.474 54.9249C121.734 55.0382 121.984 55.1889 122.256 55.2597C125.384 56.0789 127.881 57.6091 128.945 60.9019C129.637 63.0428 129.083 64.3423 126.937 65.2097C126.501 65.3862 126.047 65.5251 125.59 65.6385C122.395 66.432 119.207 67.2597 115.994 67.9783C114.738 68.2597 113.428 68.3441 112.137 68.4212C107.46 68.697 103.03 67.4457 98.5913 66.2214C97.8427 66.0149 96.8993 65.8716 96.2234 66.1422C91.1468 68.1741 85.8692 69.2767 80.4504 69.7665C79.6451 69.8392 78.7992 69.7248 78.0002 69.5622C75.2882 69.0146 72.9032 67.7089 70.7089 66.094C68.9604 64.8076 67.3357 63.3531 65.6333 61.9531C64.2955 62.4547 62.9949 63.014 61.6497 63.4302C59.5771 64.0717 57.5078 64.8503 55.3774 65.1541C49.7394 65.9572 45.2755 68.4308 42.788 73.685C41.1292 77.1873 39.6298 80.7753 38.8022 84.6092C38.1615 87.5791 37.3317 90.5093 36.5702 93.522C37.8569 94.2139 39.0664 94.9593 40.3528 95.5346C41.9645 96.2565 43.6039 96.9504 45.2905 97.4607C51.4268 99.3161 57.7173 100.165 64.1274 100.054C67.0183 100.004 69.9079 99.8711 72.7986 99.7749C73.0231 99.7686 73.2476 99.7621 73.4723 99.7556C74.1781 99.7226 74.8851 99.6959 75.5909 99.6572C77.9392 99.5267 80.291 99.436 82.6341 99.2445C84.558 99.0884 86.4723 98.8103 88.3921 98.5858C88.637 98.5269 88.8819 98.467 89.1268 98.4082C89.7212 98.3708 90.3159 98.3343 90.9117 98.2981C91.0335 98.2937 91.1544 98.2905 91.2762 98.2864C95.5102 98.0147 99.7442 97.7418 103.977 97.4702C104.131 97.3912 104.285 97.313 104.439 97.234C104.877 97.1934 105.315 97.1526 105.753 97.112C105.906 97.0264 106.059 96.942 106.212 96.8564C108.631 95.958 111.05 95.0587 113.47 94.1614C115.501 93.4086 117.49 92.4974 119.575 91.9444C122.482 91.1734 123.265 90.506 123.643 87.6614C123.889 85.8113 123.42 85.1365 121.558 84.6958C121.047 84.5751 120.53 84.4329 120.009 84.4029C117.19 84.2414 114.369 84.1109 111.549 83.9697C111.551 83.6894 111.553 83.4083 111.555 83.128C113.848 83.1506 116.143 83.11 118.433 83.2157C120.24 83.3002 122.04 83.5633 124.043 83.7676C124.358 82.666 124.628 81.7272 124.897 80.7892C124.947 80.5582 124.996 80.3283 125.046 80.0973C124.909 79.0493 124.15 78.7251 123.253 78.5627C123.127 78.4932 123.002 78.4235 122.876 78.354C122.42 78.3349 121.965 78.3145 121.509 78.2952C121.508 77.9585 121.507 77.6215 121.506 77.2848C122.458 77.3134 123.411 77.3434 124.364 77.3723C124.478 77.3466 124.593 77.3221 124.708 77.2976C124.851 77.1734 124.994 77.0505 125.137 76.9274C125.227 76.8397 125.316 76.7522 125.406 76.6645C126.673 74.6164 126.226 73.6068 123.908 73.2764C123.796 73.2603 123.69 73.2015 123.581 73.163C123.468 73.1235 123.354 73.084 123.241 73.0443C122.084 73.0443 120.926 73.0432 119.769 73.0432C119.653 73.0914 119.535 73.1407 119.419 73.1897C118.13 73.3856 116.842 73.5801 115.554 73.7757C115.411 73.8433 115.268 73.9106 115.126 73.9779C114.882 74.0133 114.637 74.0476 114.393 74.0827C114.375 73.8057 114.357 73.5278 114.339 73.2497C117.358 72.2134 120.52 72.0573 123.498 71.8658C124.087 70.9087 124.472 70.0329 125.079 69.3548C125.898 68.4403 126.86 67.6448 127.812 66.8597C129.716 65.2856 130.832 63.3435 130.364 60.84C129.781 57.714 128.009 55.5174 124.872 54.558C124.209 54.3547 123.564 54.0907 122.911 53.8543C123.064 53.3944 123.217 52.9346 123.37 52.4747C124.419 52.8705 125.506 53.189 126.509 53.6769C129.957 55.3515 131.777 58.1139 131.845 61.9714C131.876 63.768 131.264 65.3325 129.995 66.6137C129.08 67.5378 128.117 68.4125 127.213 69.3461C126.566 70.0136 125.98 70.7396 125.434 71.361C125.529 71.6584 125.531 71.8017 125.604 71.8723C127.863 74.0656 127.953 74.8259 126.429 77.7327C126.202 78.1636 126.15 78.7379 126.172 79.2397C126.251 80.9764 126.181 82.6597 125.19 84.1858C125.014 84.4585 124.879 84.8723 124.947 85.1695C125.491 87.5663 124.718 89.7138 123.719 91.9081C124.189 93.5936 125.18 95.0522 126.237 96.4693C127.898 98.6926 129.631 100.865 131.226 103.133C132.813 105.391 133.767 107.913 133.861 110.711C133.775 110.82 133.688 110.929 133.6 111.037C133.224 111.036 132.848 111.036 132.471 111.035Z" fill="#090D0D"/>
<path d="M91.1055 24.4476L91.0466 24.5332L91.1398 24.5471L91.1055 24.4476ZM135.919 26.5096C136.551 29.0377 135.626 31.1797 134.256 33.2117C133.684 33.3346 133.113 33.4566 132.541 33.5784C132.455 33.5046 132.283 33.3924 132.297 33.3624C132.785 32.277 133.291 31.1991 133.869 29.9585C133.652 29.5531 133.329 28.9478 132.954 28.2452C131.716 29.0611 130.485 29.2376 129.291 28.1041C129.079 27.903 128.623 27.9725 128.288 27.887C127.848 27.7736 127.359 27.718 126.991 27.4827C125.816 26.7373 124.709 25.8871 123.532 25.1491C123.102 24.8808 122.544 24.8165 122.061 24.6647C121.68 25.531 122.891 26.827 121.195 26.6646C120.489 26.1661 119.769 25.5567 118.992 25.4722C118.104 25.3747 116.998 25.4935 116.287 25.9672C114.953 26.857 113.832 26.3609 112.628 25.9127C112.315 25.7961 112.005 25.4913 111.716 25.5161C109.944 25.6635 108.321 25.2881 106.74 24.4711C106.093 24.1365 105.27 23.9962 104.532 24.0101C102.714 24.0434 100.9 24.2177 98.9991 24.3406C98.6407 25.363 97.8054 25.5085 96.859 25.4025C96.0485 25.3117 95.2367 25.1224 94.4282 25.1385C92.6531 25.1726 90.8799 25.3597 89.1056 25.3812C88.2393 25.3919 87.2801 24.8829 86.5241 25.1192C85.1048 25.563 83.8879 25.0486 82.5982 24.7963C82.027 24.6849 81.3609 24.2798 80.9149 24.4561C79.7321 24.9235 78.884 24.2316 77.9205 23.8979C77.6499 23.805 77.3868 23.6895 77.0424 23.5525C76.1783 24.2839 75.3055 25.0786 74.0597 24.3406C73.723 24.7225 73.4192 25.0658 73.2833 25.2197C71.6193 25.4872 70.182 25.7182 68.7167 25.9533C68.5693 25.6893 68.3832 25.3567 68.2002 25.0293C67.366 25.2957 66.6272 25.7566 65.9385 25.6913C65.1962 25.6218 64.5001 25.0592 63.7376 24.6904C63.5674 25.2336 63.4349 25.6594 63.2862 26.1361C62.5749 26.0903 61.9483 26.0497 61.312 26.0078C61.1109 25.302 60.9559 24.7566 60.7633 24.084C59.2459 23.8595 57.7476 23.638 56.1937 23.4081C56.0975 23.7974 56.0022 24.1782 55.8739 24.6904C55.52 24.4381 55.2601 24.2518 54.8825 23.9823C53.4014 25.0358 51.9725 26.2881 50.0519 26.7823C49.9119 28.1041 49.7953 29.3221 49.6392 30.5349C49.6134 30.7316 49.4123 30.9049 49.2927 31.0888C48.9857 30.5521 48.6798 30.0151 48.5312 29.7542C48.7013 28.8418 48.8424 28.1918 48.9375 27.5361C49.0124 27.0207 48.8263 26.2859 49.1077 26.0165C50.0841 25.0829 49.5845 24.3855 48.9633 23.6295C49.0723 23.3909 49.1813 23.1514 49.2905 22.912C49.4648 22.8905 49.6969 22.9322 49.8038 22.836C51.8529 20.9794 53.9296 19.1689 56.4759 17.9904C56.6557 17.907 56.675 17.4813 56.7691 17.2151C57.8353 16.7454 58.9016 16.276 59.9678 15.8066C60.0875 15.7146 60.2062 15.6214 60.3261 15.5296C60.6767 15.4953 61.0276 15.4612 61.3784 15.428C61.4501 15.768 61.5217 16.1091 61.6329 16.6375C62.0445 15.783 62.0445 15.783 61.3708 15.4343C62.2071 15.0943 63.0435 14.7543 63.8787 14.4141C63.606 14.9842 63.3333 15.5541 63.0263 16.1968C63.5096 16.6128 63.8872 16.9369 64.3824 17.3625C64.7151 16.7754 64.9621 16.3392 65.2305 15.8653C65.6143 15.8653 66.193 15.6931 66.3962 15.8963C67.1222 16.6247 67.6485 16.6942 68.4579 15.9508C68.7671 15.6664 69.5947 15.8344 70.1393 15.9777C70.3253 16.0268 70.3572 16.6321 70.4771 16.9775C70.5081 17.0663 70.6065 17.1304 70.6846 17.2192C71.1775 17.1026 71.6771 16.9851 72.2535 16.8492C72.9368 18.3688 74.0842 18.0149 75.2747 17.5208C75.5046 17.924 75.6939 18.2577 75.8585 18.5475C76.605 18.6502 77.5129 18.5091 77.9322 18.8962C78.5877 19.5015 79.2711 19.4459 79.8925 19.325C81.5982 18.9946 83.2719 18.5037 84.8664 18.1005C85.444 18.2983 85.9689 18.5486 86.5219 18.6513C87.34 18.802 88.1796 18.8308 89.0062 18.9411C90.1686 19.0972 90.3846 18.9314 90.5644 17.678C90.5922 17.4802 90.6393 17.2845 90.6767 17.0876L90.8456 17.0963C90.8949 17.5486 90.9431 18.001 90.9878 18.417C92.4572 19.1871 92.8166 19.1474 94.2187 18.8341C94.857 18.6919 95.5854 18.9325 96.2698 19.0223C96.6966 19.0779 97.1189 19.2438 97.5403 19.2351C97.9778 19.2256 98.4129 19.0651 98.8139 18.9785C99.0387 19.4171 99.1872 19.7056 99.3893 20.1014C99.7679 19.6939 100.072 19.3656 100.335 19.0834C102.431 19.4789 104.446 19.8598 106.52 20.2523C105.527 18.7774 105.527 18.7774 106.007 18.1261C107.425 18.2726 108.776 18.4116 110.37 18.5753C110.908 19.1411 111.664 19.9366 112.421 20.7313C112.457 20.6372 112.493 20.543 112.528 20.449C113.37 20.6414 114.211 20.8329 115.158 21.05C115.929 20.5474 116.824 19.9644 117.908 19.2588C118.337 20.0447 118.708 20.725 119.146 21.5292C119.805 19.7614 121.1 18.7325 122.675 17.9122C123.545 18.9325 124.586 18.6823 125.773 18.5369V16.8953C128.166 17.8193 129.891 19.5614 131.445 21.5131C132.048 22.6562 132.73 23.6979 133.849 24.4637C134.636 25.0037 135.236 25.8176 135.919 26.5096Z" fill="#294504"/>
<path d="M49.2941 31.0869C49.4139 30.903 49.615 30.7287 49.6406 30.5331C49.7967 29.3203 49.9122 28.1022 50.0533 26.7804C51.9741 26.2852 53.403 25.034 54.8841 23.9805C55.2615 24.25 55.5214 24.4362 55.8755 24.6885C56.0027 24.1764 56.0978 23.7945 56.1951 23.4062C57.749 23.6362 59.2473 23.8576 60.7649 24.081C60.9573 24.7548 61.1125 25.3001 61.3136 26.0049C61.9497 26.0468 62.5765 26.0874 63.2876 26.1343C63.4363 25.6575 63.569 25.2318 63.7379 24.6874C64.5004 25.0574 65.1978 25.6189 65.9399 25.6894C66.6286 25.7548 67.3676 25.2939 68.2018 25.0264C68.3846 25.3549 68.5707 25.6875 68.7183 25.9504C70.1834 25.7153 71.6207 25.4843 73.2849 25.2179C73.4206 25.0639 73.7243 24.7196 74.0613 24.3388C75.3071 25.0767 76.1797 24.281 77.0438 23.5506C77.3882 23.6865 77.6513 23.8021 77.9218 23.8961C78.8854 24.2287 79.7335 24.9206 80.9163 24.4532C81.3623 24.278 82.0286 24.682 82.5996 24.7945C83.8893 25.0457 85.1053 25.5611 86.5255 25.1173C87.2817 24.88 88.2409 25.39 89.1072 25.3794C90.8813 25.357 92.6544 25.1699 94.4298 25.1356C95.2383 25.1206 96.0499 25.3099 96.8606 25.3998C97.807 25.5055 98.6423 25.3601 99.0005 24.3388C100.902 24.2159 102.716 24.0415 104.534 24.0072C105.272 23.9933 106.094 24.1345 106.741 24.4682C108.323 25.2852 109.944 25.6616 111.717 25.5131C112.007 25.4895 112.315 25.7932 112.628 25.9098C113.834 26.359 114.954 26.854 116.288 25.9654C116.999 25.4906 118.106 25.3729 118.993 25.4693C119.77 25.5537 120.491 26.1632 121.197 26.6617C122.893 26.8252 121.681 25.5292 122.063 24.6618C122.545 24.8147 123.104 24.8779 123.532 25.1473C124.711 25.8842 125.818 26.7355 126.992 27.4809C127.361 27.7151 127.849 27.7718 128.289 27.884C128.624 27.9707 129.081 27.9012 129.292 28.1012C130.487 29.2347 131.718 29.0593 132.955 28.2434C133.33 28.9449 133.653 29.5513 133.871 29.9566C133.292 31.1961 132.786 32.2752 132.297 33.3606C132.285 33.3894 132.457 33.5028 132.542 33.5766C131.719 35.0215 130.884 36.461 130.085 37.9207C129.987 38.0993 130.083 38.3848 130.088 38.6202C128.507 40.2425 127.019 41.9803 124.837 42.8561C124.574 42.961 124.292 43.0177 124.018 43.0967C124.037 42.5235 124.055 41.9503 124.075 41.3771C124.614 41.2317 125.258 41.2251 125.669 40.9119C126.571 40.2242 127.353 39.3816 128.178 38.6093C128.09 38.1721 127.901 37.7144 127.93 37.2715C127.992 36.324 127.574 35.6876 127.038 34.9294C126.238 33.7959 125.373 33.1018 123.97 32.9991C123.416 32.9585 122.9 32.5297 122.339 32.4196C121.378 32.2324 120.718 31.2111 119.613 31.4784C118.587 31.6451 117.917 30.9918 117.201 30.4388C117.463 30.1501 117.724 29.8613 118.034 29.5202C117.85 29.2391 117.69 28.8005 117.546 28.8059C116.261 28.8498 115.513 27.7718 114.441 27.4049C114.061 27.2755 113.648 27.1984 113.248 27.191C111.991 27.1643 110.808 26.7151 109.456 27.0659C108.34 27.3558 107.039 26.9022 105.818 26.8371C104.757 26.7804 103.604 27.0649 102.649 26.7377C100.966 26.1612 99.7031 27.576 98.1598 27.3899C98.1353 27.3866 98.0724 27.7064 98.0274 27.8764C97.4382 27.8754 96.8489 27.8745 96.2605 27.8723C96.173 27.6743 96.0938 27.3098 95.9987 27.3054C95.1003 27.2637 94.1977 27.2659 93.3004 27.3119C93.2085 27.3172 93.1347 27.6862 93.0522 27.8862C92.8214 27.8969 92.5904 27.9075 92.3594 27.9181C91.3969 27.4852 89.8193 27.5899 88.4365 28.178C86.656 28.1845 84.8754 28.1919 83.0948 28.1984C82.4884 27.7342 81.8905 27.6852 81.3088 28.2401C80.2489 28.3684 79.1902 28.4967 78.1316 28.6251C77.769 28.6005 77.4064 28.5749 77.0438 28.5504C76.9272 28.5545 76.8117 28.5588 76.6962 28.5621C74.8879 28.6893 73.0752 28.7664 71.2731 28.9555C69.4242 29.1503 67.5858 29.454 65.7421 29.7106C63.6589 28.1472 62.1178 29.7845 60.4805 30.5982C60.5307 31.2528 60.5799 31.9039 60.6238 32.4741C59.858 32.9819 58.8068 32.8536 58.9127 33.9659C58.6795 34.705 58.3919 35.4321 58.226 36.1861C57.9481 37.4469 57.7481 38.7248 57.5149 39.9954C54.8915 39.003 52.5269 37.5613 50.3143 35.8557C50.3903 35.4546 50.4535 35.0504 50.5442 34.6535C50.8041 33.5275 50.3208 32.4142 49.293 31.7993C49.2941 31.5618 49.2941 31.3245 49.2941 31.0869Z" fill="#1F3209"/>
<path d="M77.0424 28.5508C77.405 28.5753 77.7686 28.6012 78.1312 28.6257C79.2444 28.7968 80.3567 28.9679 81.6411 29.1657C79.1065 29.3604 76.7356 29.5421 74.3806 29.7239C74.2759 31.296 73.9111 32.6382 71.8601 32.3366C71.6888 33.4113 71.5166 34.4893 71.3231 35.7021C70.3413 35.776 69.4794 35.8411 68.5223 35.9127C68.8956 36.715 70.2195 36.8657 69.797 38.0913C68.4902 38.0229 68.3308 39.1725 67.7372 39.9157C68.1276 40.2794 68.9713 39.7403 68.858 40.6589C68.3929 40.6739 67.9277 40.6888 67.4624 40.7049C66.1899 39.7201 64.7471 39.8857 63.3076 40.1157C62.2232 40.2889 61.1484 40.5199 60.0694 40.7253C59.7849 40.7199 59.5016 40.7145 59.2181 40.7093L57.8353 40.6676C57.7058 40.5521 57.5775 40.4355 57.4492 40.3189L57.4879 40.366C57.4963 40.2429 57.5059 40.1189 57.5146 39.9958C57.7467 38.7255 57.9466 37.4475 58.2245 36.1865C58.3904 35.4327 58.6792 34.7054 58.9124 33.9665C59.2491 33.9055 59.6299 33.9268 59.9144 33.7707C61.6639 32.8115 63.4082 31.8403 65.1097 30.801C65.4241 30.6084 65.5353 30.0823 65.7407 29.711C67.5844 29.4544 69.4227 29.1507 71.2728 28.9561C73.0737 28.7668 74.8864 28.6886 76.6948 28.5625L76.8691 28.5797L77.0424 28.5508Z" fill="#7A2B33"/>
<path d="M118.043 11.8268C121.412 12.8437 124.784 13.8555 127.627 16.0618C127.475 16.2234 127.324 16.3836 127.172 16.5451C126.54 16.2714 125.914 15.9826 125.275 15.726C122.956 14.7945 120.634 13.8737 118.312 12.9497C117.95 12.8418 117.588 12.7337 117.225 12.6258C116.874 12.5999 116.51 12.6203 116.17 12.5411C110.917 11.3274 105.574 10.7861 100.209 10.4023C99.9518 10.3178 99.6941 10.2345 99.4363 10.15C99.2105 10.1435 98.986 10.1372 98.7605 10.1307C98.2769 10.1263 97.7936 10.1222 97.3101 10.1189C97.0802 10.12 96.8514 10.1211 96.6225 10.1222C96.4953 10.1233 96.3691 10.1242 96.2419 10.1252C87.0532 9.97131 77.933 10.6954 68.8793 12.2684C68.7531 12.3561 68.6278 12.4438 68.5017 12.5315C67.8621 12.5925 67.1905 12.5519 66.5885 12.7348C64.5298 13.3583 62.4359 13.9228 60.4671 14.7689C58.2447 15.7227 55.8204 16.2928 53.9081 17.9045C53.552 17.7931 53.1959 17.682 52.8398 17.5708C56.9025 15.1163 61.2264 13.2235 65.7971 11.9872C70.1218 10.8172 74.4852 9.75202 78.8818 8.89007C82.7124 8.13929 86.6213 7.97688 90.5396 8.0025C98.9229 8.05809 107.162 9.24419 115.347 10.9264C115.633 10.9852 115.901 11.1307 116.178 11.2354C116.354 11.2931 116.528 11.3519 116.703 11.4097C116.886 11.4568 117.068 11.5039 117.251 11.5508C117.515 11.6429 117.779 11.7349 118.043 11.8268Z" fill="#39550E"/>
<path d="M119.503 50.3674C118.006 51.0689 116.631 51.7137 115.119 52.4239C115.152 52.7756 115.197 53.2483 115.242 53.7209C115.892 52.8516 116.682 52.5639 117.594 52.3842C118.145 52.2763 118.699 52.012 119.167 51.6933C119.593 51.4026 119.978 50.9618 119.503 50.3674ZM111.168 54.9136L110.472 54.8921C110.515 54.4526 110.558 54.013 110.602 53.5575C111.434 53.4847 112.149 53.4215 113.03 53.3447C112.585 52.395 111.933 52.1586 111.172 52.0796C107.988 51.826 104.803 51.5726 101.618 51.319C101.405 50.6774 101.191 50.0369 100.975 49.3919C101.829 48.8165 102.693 48.236 103.806 47.4852C102.722 47.3182 101.978 47.2049 101.232 47.0905C101.003 47.0798 100.773 47.0692 100.544 47.0585C100.522 46.9439 100.512 46.8286 100.517 46.7109C101.824 46.7183 103.131 46.727 104.439 46.7344C104.639 46.9643 104.813 47.3612 105.044 47.3975C106.254 47.5911 107.499 47.5974 108.695 47.8467C110.825 48.2905 112.957 48.561 115.137 48.5128C116.958 48.4711 118.782 48.5043 120.465 48.5043C120.779 48.947 120.981 49.2314 121.255 49.6166C121.493 48.7664 121.678 48.1033 121.863 47.4402C122.182 47.6819 122.503 47.9235 122.823 48.1643C122.885 48.6294 122.947 49.0947 123.008 49.5588C122.745 49.7054 122.332 49.792 122.245 50.0089C121.936 50.7834 121.737 51.6015 121.497 52.4024C119.953 52.8601 118.408 53.3178 116.638 53.843C116.602 53.9051 116.407 54.2366 116.224 54.5488C114.84 54.5488 113.547 54.5221 112.256 54.5649C111.89 54.5777 111.531 54.7915 111.168 54.9136Z" fill="#1D1F24"/>
<path d="M122.819 48.1662C122.5 47.9243 122.179 47.6838 121.859 47.4421C121.5 47.4293 121.14 47.4154 120.781 47.4026C120.666 45.4616 120.551 43.5195 120.437 41.5785C120.125 41.9228 120.066 42.2618 120.087 42.5955C120.192 44.2115 120.319 45.8261 120.438 47.441C118.769 47.2967 117.102 47.1523 115.434 47.0068C115.372 45.1492 115.724 43.2681 115.16 41.402H116.533C116.998 41.3913 117.464 41.3805 117.929 41.3698C118.178 41.3677 118.427 41.3655 118.676 41.3635C118.792 41.2576 118.906 41.1527 119.021 41.0479L119.023 41.047C119.669 41.047 120.326 40.9699 120.958 41.0672C121.707 41.1838 122.15 40.8116 122.582 40.3281C122.705 40.9528 122.828 41.5774 122.951 42.2029C123.036 42.8393 123.361 43.1793 124.04 43.0757L124.137 43.1131C124.084 43.3248 124.032 43.5375 123.98 43.7494L123.448 45.6648C123.281 46.3385 123.114 47.0133 122.947 47.6881C122.904 47.8475 122.862 48.0069 122.819 48.1662Z" fill="#3B3E44"/>
<path d="M49.293 31.0881C49.293 31.3257 49.293 31.563 49.2919 31.8005C48.9198 32.4293 48.5476 33.058 48.1755 33.6879C46.4268 31.4058 46.1852 28.8445 46.7692 26.1292C47.5007 25.2961 48.2321 24.462 48.9636 23.6289C49.585 24.3849 50.0844 25.0823 49.108 26.0148C48.8268 26.2842 49.0118 27.02 48.938 27.5344C48.8429 28.1912 48.7005 28.8401 48.5305 29.7535C48.6803 30.0134 48.9862 30.5514 49.293 31.0881Z" fill="#39550E"/>
<path d="M111.168 54.9151C111.531 54.7931 111.89 54.5793 112.256 54.5665C113.546 54.5237 114.839 54.5493 116.223 54.5493C116.406 54.2382 116.602 53.9066 116.638 53.8445C118.408 53.3196 119.952 52.8619 121.497 52.4042C121.755 52.648 122.015 52.8918 122.438 53.2885C122.757 52.1154 123.004 51.2042 123.252 50.293C123.292 51.0203 123.333 51.7474 123.374 52.4758C123.22 52.9357 123.068 53.3955 122.914 53.8554C122.435 54.2126 121.955 54.5686 121.476 54.9258C120.962 55.02 120.174 54.5324 120.1 55.5687C119.587 55.4883 119.073 55.3494 118.558 55.3376C116.1 55.2788 113.642 55.2551 111.183 55.22C111.191 55.1173 111.185 55.0157 111.168 54.9151Z" fill="#3B3E44"/>
<path d="M127.172 16.546C127.324 16.3845 127.475 16.224 127.627 16.0625C128.792 17.0497 130.085 17.9223 131.096 19.0485C132.942 21.105 134.874 23.1379 135.798 25.8446C135.871 26.0555 135.881 26.2876 135.921 26.5099C135.237 25.8179 134.638 25.0042 133.849 24.464C132.731 23.6982 132.049 22.6567 131.445 21.5134C131.478 21.2407 131.629 20.904 131.522 20.7051C130.527 18.8537 128.729 17.8229 127.172 16.546Z" fill="#4C5259"/>
<path d="M48.965 23.6287C48.2335 24.4618 47.5021 25.2959 46.7695 26.129C46.9224 25.4948 46.9469 24.789 47.2528 24.2403C48.0549 22.8041 48.9789 21.4374 49.8537 20.0428C50.8292 20.1978 51.4503 19.8162 51.7905 18.8387C51.5359 18.7681 51.3798 18.7243 51.2247 18.6815C51.7628 18.3113 52.3016 17.9403 52.8397 17.5703C53.1957 17.6815 53.5529 17.7926 53.9089 17.904C53.922 18.0547 53.9359 18.2067 53.9498 18.3574C53.1006 19.0558 52.2493 19.7519 51.4034 20.4545C50.5617 21.154 49.5649 21.7218 49.2922 22.9111C49.1832 23.1506 49.0742 23.389 48.965 23.6287Z" fill="#4C5259"/>
<path d="M130.086 38.6212C130.08 38.3848 129.985 38.1004 130.083 37.9206C130.882 36.462 131.716 35.0226 132.541 33.5766C133.112 33.4548 133.684 33.3327 134.255 33.2109C133.351 35.3871 132.244 37.4084 130.086 38.6212Z" fill="#3B3E44"/>
<path d="M48.1758 33.6873C48.5479 33.0585 48.9201 32.4295 49.2933 31.8008C50.32 32.4157 50.8033 33.529 50.5445 34.6541C50.4527 35.0519 50.3895 35.4551 50.3135 35.8561C49.6014 35.1333 48.8879 34.4103 48.1758 33.6873Z" fill="#294504"/>
<path d="M123.982 43.7507C124.035 43.5377 124.087 43.3261 124.14 43.1133C124.823 44.85 125.24 46.5537 123.577 48.0177C123.348 47.8979 123.148 47.7932 122.949 47.6894C123.117 47.0146 123.284 46.3398 123.451 45.665C123.642 45.5259 123.977 45.4041 123.997 45.2436C124.057 44.7538 123.996 44.249 123.982 43.7507Z" fill="#539936"/>
<path d="M123.251 50.2911C123.004 51.2024 122.756 52.1136 122.437 53.2867C122.015 52.89 121.755 52.6462 121.496 52.4013C121.737 51.6001 121.934 50.782 122.245 50.0089C122.331 49.7918 122.744 49.7051 123.007 49.5586C123.088 49.8024 123.17 50.0473 123.251 50.2911Z" fill="#4C5259"/>
<path d="M51.2255 18.6836C51.3816 18.7264 51.5366 18.7702 51.7924 18.8408C51.4511 19.8182 50.8299 20.1999 49.8555 20.0449C50.3123 19.5914 50.7689 19.1369 51.2255 18.6836Z" fill="#39550E"/>
<path d="M124.042 43.0761C123.363 43.1788 123.039 42.8399 122.953 42.2024C123.165 41.9436 123.356 41.6603 123.601 41.4367C123.697 41.3492 123.913 41.395 124.074 41.3789C124.056 41.9523 124.037 42.5266 124.017 43.0998L124.042 43.0761Z" fill="#99AAC2"/>
<path d="M59.7761 65.5018H63.7984C62.3417 64.2805 61.4209 64.2301 59.7761 65.5018ZM71.3753 89.7951C71.5025 89.6433 71.6289 89.4902 71.7561 89.3385C70.8459 88.6367 69.8898 87.9845 69.0376 87.2177C68.2023 86.4658 67.4717 85.5965 66.6953 84.7795C67.2388 87.516 69.2588 88.7064 71.3753 89.7951ZM121.473 54.9261C121.952 54.57 122.431 54.2126 122.91 53.8555C123.564 54.0919 124.209 54.357 124.872 54.5591C128.008 55.5186 129.78 57.7151 130.365 60.8412C130.832 63.3447 129.716 65.2868 127.811 66.8609C126.86 67.646 125.898 68.4415 125.079 69.356C124.472 70.0341 124.086 70.9099 123.499 71.8669C120.52 72.0584 117.358 72.2156 114.339 73.2519C113.692 73.314 113.044 73.3737 112.397 73.438C108.889 73.7867 105.387 74.2111 101.872 74.4626C98.7551 74.6849 95.6238 74.6925 92.5021 74.8443C91.3888 74.8988 90.2593 74.9962 89.1783 75.2507C85.0288 76.2282 80.8226 76.5597 76.5728 76.6806C75.2701 76.7169 73.8971 77.1585 72.7099 77.7328C70.9549 78.583 70.6182 80.184 71.5036 81.9046C72.2598 83.3752 73.5655 84.1848 75.0146 84.7046C78.4465 85.9343 81.9275 86.8082 85.663 86.6017C90.3729 86.3408 95.1136 86.7995 99.8096 86.0702C101.376 85.9825 102.976 86.0637 104.502 85.7676C106.646 85.3505 108.735 84.652 110.847 84.0736C111.081 84.0393 111.315 84.005 111.549 83.972C114.369 84.1121 117.189 84.2425 120.008 84.4041C120.529 84.434 121.046 84.5763 121.559 84.6981C123.419 85.1377 123.888 85.8125 123.642 87.6636C123.264 90.5072 122.483 91.1746 119.574 91.9456C117.491 92.4986 115.5 93.4098 113.469 94.1626C111.05 95.0599 108.631 95.9592 106.212 96.8576C106.059 96.9432 105.906 97.0287 105.753 97.1132C105.315 97.1538 104.878 97.1946 104.439 97.2352C104.285 97.3142 104.131 97.3924 103.977 97.4714C99.7432 97.743 95.5094 98.0159 91.2765 98.2875C91.1545 98.2917 91.0327 98.2949 90.9107 98.2993C90.3162 98.3355 89.7215 98.3731 89.1258 98.4093C88.8809 98.4682 88.636 98.5281 88.3911 98.588C86.4726 98.8114 84.5583 99.0896 82.6342 99.2468C80.29 99.4372 77.9384 99.5279 75.591 99.6584C74.8852 99.6981 74.1782 99.7248 73.4713 99.757C73.2479 99.7633 73.0234 99.7698 72.7987 99.7772C69.908 99.8723 67.0184 100.006 64.1266 100.055C57.7165 100.166 51.4271 99.3173 45.2905 97.4629C43.6042 96.9527 41.9637 96.2577 40.3531 95.5358C39.0665 94.9605 37.8559 94.2151 36.5703 93.5232C37.332 90.5105 38.1618 87.5813 38.8023 84.6103C39.629 80.7765 41.1284 77.1895 42.787 73.6862C45.2756 68.432 49.7395 65.9594 55.3764 65.1553C57.5068 64.8515 59.5772 64.0729 61.6498 63.4324C62.9942 63.0162 64.2945 62.4559 65.6323 61.9543C67.336 63.3543 68.9605 64.8087 70.7089 66.0951C72.9035 67.7101 75.2873 69.0158 77.9995 69.5644C78.7993 69.726 79.6441 69.8404 80.4494 69.7677C85.8695 69.2778 91.1471 68.1753 96.2226 66.1433C96.8985 65.8728 97.8417 66.0161 98.5914 66.2226C103.031 67.4469 107.46 68.6992 112.136 68.4224C113.428 68.3453 114.737 68.2609 115.993 67.9795C119.206 67.2608 122.394 66.4332 125.589 65.6396C126.046 65.5263 126.501 65.3874 126.937 65.2108C129.082 64.3445 129.637 63.044 128.945 60.903C127.88 57.6114 125.384 56.0811 122.255 55.2609C121.984 55.1901 121.734 55.0394 121.473 54.9261Z" fill="#539936"/>
<path d="M66.8359 48.6097C66.3674 48.2472 65.9642 47.9115 65.5376 47.6088C64.2853 46.7213 62.9828 46.5276 61.5444 47.2152C60.7958 47.5735 60.1957 48.0409 60.0417 48.8386C59.6652 50.7755 58.2408 51.4694 56.5833 51.9679C55.7031 52.233 54.8453 52.5699 53.977 52.8737C53.9866 52.9944 53.9961 53.1153 54.0048 53.2363C54.2925 53.3303 54.5791 53.5024 54.8668 53.5057C56.0516 53.5174 57.2399 53.5281 58.4205 53.4436C59.83 53.3431 60.367 52.8298 60.7304 51.4514C60.8064 51.1669 60.9143 50.891 60.9829 50.6055C61.232 49.5553 61.7218 48.6912 62.8961 48.5574C64.0864 48.4215 64.9184 49.0783 65.5376 50.0225C65.7291 50.3135 65.8359 50.66 66.0862 51.2117C65.2338 52.3613 64.3591 53.6019 63.4222 54.7932C61.9999 56.6029 60.5487 58.3897 59.0847 60.1651C57.521 62.0611 55.8497 63.6387 53.144 63.9327C50.0425 64.2696 47.2619 65.6021 44.9424 67.7602C44.1832 68.4661 43.4463 69.1964 42.595 70.0167C41.7169 69.3302 41.025 68.6895 40.2421 68.1966C38.0477 66.8138 35.8168 65.4898 33.5988 64.1476C33.1945 63.9038 32.7455 63.7243 32.3753 63.4385C31.3894 62.6793 31.2407 62.0505 31.9261 61.0186C33.3604 58.8593 34.6961 56.6018 36.3826 54.6521C37.5911 53.2565 39.1973 52.1133 40.8111 51.1743C46.0215 48.1425 51.4618 45.5556 57.0816 43.3642C58.9981 42.6178 60.9391 41.9152 62.9142 41.3483C64.0243 41.0307 65.2254 41.0318 66.4701 40.8789C66.6112 41.4339 66.7044 41.8008 66.7984 42.1707C64.6307 43.7181 61.7615 43.9257 60.1488 46.2999C60.4684 46.2443 60.8097 46.2432 61.1026 46.1233C62.9014 45.3823 64.7462 44.7223 66.4671 43.8273C68.2711 42.8872 69.7223 43.3492 71.1574 44.4604C70.8185 45.6572 69.3608 47.0656 66.8359 48.6097Z" fill="#539936"/>
<path d="M115.557 73.7755C116.846 73.5799 118.134 73.3851 119.422 73.1895C119.539 73.1402 119.655 73.091 119.773 73.043C120.93 73.043 122.087 73.0441 123.244 73.0441C123.358 73.0836 123.471 73.1231 123.585 73.1628C123.694 73.2012 123.799 73.2601 123.912 73.2762C126.229 73.6066 126.676 74.616 125.41 76.664C125.32 76.7517 125.23 76.8395 125.141 76.9272C124.997 77.0501 124.855 77.1732 124.712 77.2971C124.596 77.3217 124.482 77.3464 124.367 77.372C123.415 77.3421 122.462 77.3132 121.51 77.2843C120.989 77.1871 120.469 77.0105 119.948 77.0051C115.864 76.9593 111.781 76.9443 107.697 76.9272C107.404 76.9261 107.101 76.9539 106.818 77.0266C103.572 77.8586 100.316 78.6576 97.0871 79.5525C92.6414 80.7857 88.1691 81.7673 83.5126 81.5889C82.3297 81.5428 81.1449 81.5632 79.961 81.5856C79.5845 81.5921 79.2102 81.7022 78.7226 81.7845C79.0745 82.9845 79.9204 82.9267 80.7118 82.8989C82.716 82.8314 84.7189 82.732 86.722 82.6497C87.491 82.6176 88.2748 82.6818 89.0267 82.5524C93.144 81.8466 97.2176 80.9503 101.188 79.6211C104.392 78.5484 107.681 77.9174 111.075 77.9976C114.555 78.079 118.034 78.1945 121.513 78.295C121.969 78.3141 122.424 78.3345 122.88 78.3538C123.006 78.4233 123.131 78.4928 123.257 78.5623C124.153 78.7249 124.913 79.0488 125.05 80.0968C124.999 80.3278 124.95 80.5578 124.901 80.7888C124.631 81.7267 124.362 82.6657 124.047 83.7672C122.043 83.5631 120.244 83.2999 118.436 83.2155C116.147 83.1095 113.85 83.1501 111.558 83.1278C111.05 83.2989 110.54 83.4699 110.032 83.641C108.285 84.0121 106.539 84.3834 104.792 84.7555C104.676 84.7661 104.558 84.7768 104.441 84.7885C102.899 84.9307 101.357 85.0731 99.8151 85.2164C98.5244 85.2859 97.2334 85.4014 95.9416 85.4186C91.634 85.4741 87.3262 85.5019 83.0195 85.5254C79.8123 85.5415 76.8437 84.6378 74.0791 83.0679C73.4823 82.7289 72.9189 82.2252 72.5157 81.6701C71.7681 80.6414 72.0193 79.4125 73.0867 78.7462C73.6236 78.4105 74.2652 78.14 74.8866 78.064C76.5838 77.8564 78.3003 77.8115 80.0005 77.6243C82.6901 77.3271 85.3735 76.9743 88.0566 76.6288C89.8641 76.3968 91.6596 76.0107 93.4723 75.9122C97.487 75.695 101.509 75.6321 105.526 75.4705C106.762 75.4204 108.005 75.3262 109.223 75.1251C110.958 74.8396 112.673 74.4353 114.397 74.0825C114.641 74.0471 114.886 74.0128 115.129 73.9777C115.272 73.9103 115.415 73.8428 115.557 73.7755Z" fill="#AB522A"/>
<path d="M78.2109 56.2075C76.3192 57.6138 75.257 59.1464 74.9813 61.143C74.6027 63.8797 76.3543 66.5116 78.8323 66.8764C81.3272 67.2431 83.6746 66.705 85.7259 65.2026C87.8337 63.6583 88.2594 61.1569 86.8755 58.9186C85.4178 56.5594 82.0352 55.0922 79.3295 55.6845C78.9391 55.7691 78.5937 56.0514 78.227 56.2429C78.6922 56.6053 79.0611 56.6063 79.4237 56.6589C80.1059 56.7572 80.5069 57.2095 80.4984 57.8587C80.49 58.4855 79.9969 58.7795 79.3981 58.7666C78.7456 58.7538 78.2419 58.4544 78.151 57.754C78.103 57.3764 78.1755 56.9839 78.2109 56.2075ZM67.1914 61.3868C67.77 61.0125 68.2394 60.6853 68.7292 60.3933C70.6084 59.2747 72.5034 58.1839 74.3727 57.0512C78.1981 54.7328 82.3378 54.0205 86.6498 55.0268C89.3971 55.6686 92.0462 56.739 94.723 57.6641C96.1742 58.1657 97.4115 58.8865 97.4652 60.7185C97.5229 62.6584 96.9122 64.302 95.154 65.165C93.6856 65.8859 92.0655 66.319 90.4827 66.7767C86.9461 67.798 83.3474 68.5542 79.646 68.3682C78.2558 68.2976 76.8098 68.0077 75.5224 67.489C72.6979 66.3533 70.2638 64.5567 68.0534 62.4702C67.7678 62.2008 67.5562 61.851 67.1914 61.3868Z" fill="#F6F6F6"/>
<path d="M111.179 55.2188C113.638 55.2541 116.097 55.2776 118.555 55.3353C119.071 55.3482 119.583 55.4873 120.097 55.5674C121.422 56.0551 122.767 56.4978 124.069 57.0412C126.079 57.8795 127.487 59.3168 128.092 61.4461C128.495 62.8621 128.327 63.4568 126.949 63.9657C125.024 64.677 123.028 65.2213 121.03 65.7057C119.087 66.1783 117.104 66.4864 115.138 66.8661C115.114 66.6575 115.089 66.4491 115.065 66.2393C115.644 65.7484 116.249 65.2834 116.799 64.7614C118.197 63.4342 118.709 61.8045 118.152 59.9553C117.562 57.9972 116.169 56.7459 114.18 56.3866C113.114 56.1932 111.974 56.4112 110.866 56.4433C110.343 56.6081 109.82 56.7737 109.298 56.9396C107.27 58.2647 106.313 60.5296 106.723 62.8215C107.109 64.9807 108.749 65.8459 110.483 66.6469C110.482 66.7902 110.481 66.9345 110.48 67.0778C106.722 67.2211 100.949 66.0565 98.4221 64.6203C98.2883 63.2514 99.0241 62.1767 99.84 61.1905C102.057 58.5148 104.957 56.8936 108.265 55.9556C109.229 55.6819 110.207 55.4626 111.179 55.2188Z" fill="#F6F6F6"/>
<path d="M104.439 46.7332C103.131 46.7258 101.824 46.7182 100.516 46.7108C98.8626 46.6144 97.2092 46.5182 95.5568 46.422C95.0361 46.361 94.5164 46.3 93.9879 46.2381C94.3453 45.2809 93.4972 44.1825 94.4736 43.4736C94.0404 42.4436 92.4245 42.4651 92.8031 41.0994H89.8182C89.5564 42.8917 89.3071 44.6006 89.0568 46.3098C87.4195 46.3439 85.7822 46.3771 84.1439 46.4103C83.7353 46.0829 83.3269 45.7546 82.8101 45.3397C83.1226 44.6499 83.4765 43.9923 83.7214 43.2971C84.1417 42.1025 83.5824 41.0886 82.3247 41.0319C81.36 40.9872 80.3485 41.1978 79.4116 41.4779C78.2394 41.8287 77.1241 42.3657 75.984 42.8223C75.7754 42.0276 75.5669 41.233 75.3594 40.4375C75.6536 40.4331 75.9467 40.4288 76.2406 40.4246C76.4215 40.4214 76.6021 40.4192 76.7828 40.417C77.9239 40.4127 79.0651 40.4064 80.2071 40.4031C82.192 40.3977 84.179 40.3487 86.1628 40.4138C86.8997 40.4385 87.3746 40.2247 87.72 39.6172C87.7276 39.8662 87.7361 40.1144 87.7445 40.3636C87.9682 40.4448 88.1926 40.5263 88.4174 40.6075C88.6579 40.6107 88.8996 40.6137 89.1412 40.617C89.4343 40.5347 89.7264 40.4524 90.0192 40.3699H90.1252C91.0599 40.3871 91.9957 40.4042 92.9303 40.4203C93.3281 40.4843 93.725 40.5486 94.1216 40.6137C94.3622 40.617 94.603 40.6203 94.8425 40.6235C95.065 40.6148 95.2863 40.6064 95.5088 40.599C95.6456 40.5721 95.7826 40.5454 95.9194 40.5197C96.0275 40.5412 96.1365 40.5636 96.2446 40.586C99.7769 40.6407 103.309 40.6854 106.84 40.7614C107.34 40.772 107.837 40.9336 108.336 41.0245H106.398C105.428 42.8566 104.383 44.5696 105.117 46.6947C104.891 46.7075 104.664 46.7203 104.439 46.7332Z" fill="#99AAC2"/>
<path d="M60.2695 62.1694C61.1914 59.9225 62.7227 58.3899 64.2927 56.8757C66.3631 54.8789 68.7865 53.5732 71.4996 52.5936C73.2344 51.968 74.7774 50.768 76.343 49.7307C77.4191 49.0174 78.3987 48.1533 79.4007 47.3331C80.5525 46.3908 81.2807 46.3995 82.6561 47.4251C80.9748 52.1435 65.5001 62.4495 60.2695 62.1694Z" fill="#539936"/>
<path d="M114.396 74.0833C112.672 74.4361 110.957 74.8404 109.222 75.1259C108.004 75.3269 106.762 75.4212 105.526 75.4713C101.509 75.6328 97.4865 75.6958 93.4729 75.9129C91.6602 76.0115 89.8635 76.3975 88.0571 76.6296C85.3729 76.9751 82.6896 77.3279 80 77.6251C78.2997 77.8133 76.5832 77.8572 74.886 78.0648C74.2646 78.1408 73.623 78.4113 73.0861 78.7469C72.0188 79.4133 71.7676 80.6421 72.5162 81.6719C72.9194 82.226 73.4817 82.7297 74.0786 83.0686C76.8431 84.6386 79.8128 85.5422 83.0189 85.5262C87.3267 85.5038 91.6345 85.4749 95.941 85.4193C97.2329 85.4022 98.5238 85.2867 99.8157 85.2172C99.8146 85.5005 99.8146 85.785 99.8135 86.0694C95.1166 86.7989 90.3768 86.3401 85.6669 86.6009C81.9303 86.8074 78.4504 85.9337 75.0176 84.7026C73.5694 84.184 72.2637 83.3745 71.5066 81.9029C70.6221 80.1834 70.959 78.5824 72.714 77.7321C73.8999 77.1579 75.2742 76.7163 76.5767 76.6798C80.8267 76.5588 85.0329 76.2264 89.1822 75.2499C90.2624 74.9954 91.3927 74.8981 92.5049 74.8436C95.6277 74.6917 98.759 74.6843 101.875 74.4617C105.391 74.2094 108.893 73.7858 112.401 73.4372C113.048 73.3731 113.695 73.3121 114.342 73.25C114.36 73.5281 114.378 73.8052 114.396 74.0833Z" fill="#100D0B"/>
<path d="M92.7861 46.2476C92.7711 46.2049 92.7561 46.1632 92.7411 46.1204H91.4654C91.4665 46.1632 91.4665 46.2049 91.4665 46.2476H92.7861ZM89.0547 46.3119C89.304 44.6028 89.5543 42.8939 89.8162 41.1016H92.8C92.4224 42.4672 94.0384 42.4457 94.4715 43.4757C93.4952 44.1846 94.3432 45.283 93.9859 46.2403C94.5143 46.3021 95.0341 46.3631 95.5537 46.4242C95.5419 46.9748 95.8702 47.0935 96.345 47.0872C97.7439 47.0679 99.1428 47.0679 100.542 47.0594C100.771 47.0701 101 47.0807 101.229 47.0914C101.173 47.4327 101.228 47.8658 101.037 48.0966C100.348 48.9299 99.577 49.6954 98.8102 50.5135H89.444C89.4429 50.4623 89.4419 50.411 89.4419 50.3596C91.2044 50.1629 92.9678 49.9662 94.7849 49.763C94.6201 48.9596 94.1452 48.8528 93.5818 48.8572C92.6962 48.8645 91.7936 48.9672 90.9274 48.8378C89.6077 48.6411 88.0729 48.7757 87.4003 47.1545C87.3747 47.0924 87.0709 47.1461 86.8827 47.1461C86.6893 47.6904 86.5021 48.2186 86.2752 48.8561H83.3984C83.6531 48.147 83.9087 47.4379 84.1631 46.729H89.9093C89.9071 46.6348 89.905 46.5407 89.9028 46.4465C89.6205 46.4016 89.3372 46.3566 89.0547 46.3119Z" fill="#4C5259"/>
<path d="M82.6127 41.5898C82.9442 43.286 82.2586 44.3511 81.2566 44.6998C79.0952 45.4504 77.7018 47.1647 75.9403 48.401C73.7149 49.9646 71.4595 51.4371 68.7892 52.1236C68.2585 52.2606 67.7058 52.3108 66.7305 52.4723C67.1582 51.5837 67.3377 51.05 67.6426 50.6019C69.804 47.4224 72.8701 45.3885 76.3478 43.9362C78.337 43.1051 80.387 42.4175 82.6127 41.5898Z" fill="#539936"/>
<path d="M107.646 54.9032C104.471 56.0251 101.612 57.6986 99.1479 60.0269C98.8164 59.7404 98.5715 59.6257 98.4829 59.4377C97.6038 57.5575 95.8627 56.8271 94.0917 56.1929C92.0009 55.4443 89.8738 54.7984 87.7617 54.1075C88.5872 54.0135 89.4151 53.9364 90.2364 53.8176C90.8257 53.7332 91.4062 53.5921 91.9913 53.4766C92.3442 53.4776 92.6972 53.4787 93.05 53.4798C93.4169 53.5932 93.7815 53.7931 94.1517 53.8048C95.3909 53.8476 96.6348 53.7909 97.8743 53.8402C98.3009 53.8572 98.7202 54.0754 99.1438 54.2006C99.0485 54.7502 99.3062 55.0144 99.8175 54.8518C100.306 54.6967 100.753 54.4091 101.218 54.1791C101.466 54.1696 101.716 54.1598 101.965 54.1503C103.853 54.284 105.742 54.4167 107.631 54.5502C107.638 54.6679 107.644 54.7855 107.646 54.9032Z" fill="#539936"/>
<path d="M121.51 78.2976C118.031 78.197 114.552 78.0815 111.072 78.0001C107.678 77.92 104.389 78.5509 101.185 79.6237C97.2146 80.9529 93.1411 81.848 89.0237 82.555C88.2721 82.6844 87.4881 82.6201 86.7192 82.6522C84.7161 82.7345 82.713 82.834 80.7088 82.9015C79.9164 82.9293 79.0716 82.987 78.7188 81.787C79.2075 81.7047 79.5818 81.5947 79.9583 81.5882C81.142 81.5658 82.327 81.5454 83.5098 81.5914C88.1661 81.7699 92.6385 80.7883 97.0841 79.5551C100.313 78.6601 103.569 77.8611 106.815 77.0292C107.098 76.9564 107.401 76.9286 107.694 76.9297C111.777 76.9458 115.861 76.9619 119.946 77.0077C120.466 77.0131 120.986 77.1896 121.506 77.2869C121.508 77.6238 121.509 77.9606 121.51 78.2976Z" fill="#100D0B"/>
<path d="M107.628 54.5505C105.739 54.4168 103.851 54.283 101.962 54.1495C102.21 54.0351 102.465 53.9302 102.699 53.7913C102.73 53.773 102.655 53.5772 102.629 53.4628C101.716 52.9389 100.797 52.9751 99.8722 53.4308C99.1911 53.3271 98.5131 53.204 97.8296 53.1217C96.2394 52.9323 94.6469 53.6627 93.0545 53.1206C92.9733 53.0735 92.8911 53.0277 92.8086 52.9805C92.8889 53.0296 92.9679 53.0789 93.0472 53.1282C93.0472 53.2456 93.0472 53.3622 93.0483 53.4788C92.6941 53.4777 92.3413 53.4777 91.9883 53.4767C91.4227 53.3592 90.8591 53.1516 90.2911 53.1399C88.1768 53.0982 86.0604 53.1056 83.945 53.1377C83.6445 53.1421 83.3484 53.3837 83.0512 53.5153L82.9495 53.5314L82.8501 53.5055C81.725 53.4788 80.5988 53.451 79.4727 53.4243C79.5358 52.7539 79.9123 52.4095 80.5773 52.3687H84.7942C84.4585 52.0522 84.2948 51.8982 84.1322 51.7454C89.1341 51.8405 94.1336 51.4801 99.144 51.9987C102.82 52.3796 106.544 52.2981 110.246 52.3945C110.551 52.4019 110.862 52.1902 111.17 52.0802C111.929 52.1581 112.581 52.3956 113.026 53.3453C112.146 53.4222 111.432 53.4853 110.599 53.5581C110.555 54.0125 110.512 54.4532 110.469 54.8927C110.115 54.7655 109.761 54.6371 109.407 54.5099C108.803 54.0381 108.209 53.988 107.628 54.5505Z" fill="#3B3E44"/>
<path d="M83.3978 48.8543H86.2746C86.5015 48.2171 86.6886 47.6886 86.882 47.1454C87.0703 47.1454 87.374 47.0909 87.3997 47.1528C88.0723 48.7742 89.6071 48.6394 90.9267 48.8361C91.793 48.9655 92.6955 48.8641 93.5812 48.8554C94.1446 48.8511 94.6194 48.9581 94.7842 49.7623C92.9672 49.9645 91.2048 50.1612 89.4412 50.3581C89.4412 50.4093 89.4423 50.4608 89.4434 50.512H98.8095C99.5764 49.6939 100.347 48.9292 101.036 48.0951C101.228 47.8652 101.172 47.4309 101.229 47.0898C101.973 47.2043 102.718 47.3187 103.803 47.4854C102.689 48.2351 101.825 48.817 100.972 49.3913C101.188 50.0372 101.401 50.6777 101.615 51.3195C95.1874 51.1975 88.7601 51.0757 82.3326 50.9536C81.63 49.7185 82.8578 49.4597 83.3978 48.8543Z" fill="#3B3E44"/>
<path d="M82.3359 50.9531C88.7634 51.0749 95.1907 51.197 101.618 51.3188C104.803 51.5723 107.987 51.8257 111.172 52.0793C110.864 52.1894 110.554 52.4011 110.249 52.3937C106.546 52.2973 102.822 52.3787 99.1476 51.9979C94.1361 51.4792 89.1377 51.8396 84.1347 51.7445C82.951 51.8652 81.766 51.9862 80.582 52.106C80.6207 50.8932 81.5104 50.9722 82.3359 50.9531Z" fill="#4C5259"/>
<path d="M75.3594 40.4375C75.568 41.2321 75.7756 42.0279 75.984 42.8223C74.9382 43.4246 73.8932 44.0256 73.0966 44.4843C71.5212 43.6714 70.116 43.0309 68.8081 42.232C68.2551 41.8941 67.9065 41.2237 67.4648 40.7039C67.9301 40.6889 68.3954 40.6739 68.8605 40.659C69.5696 40.6546 70.2787 40.6718 70.9865 40.644C72.4453 40.5873 73.9019 40.5081 75.3594 40.4375Z" fill="#4C5259"/>
<path d="M83.0508 53.5175C83.3491 53.3859 83.6452 53.1443 83.9446 53.1391C86.06 53.108 88.1764 53.1004 90.2918 53.1421C90.8587 53.153 91.4234 53.3614 91.9879 53.4791C91.4041 53.5946 90.8233 53.7346 90.2341 53.8202C89.4116 53.9378 88.5851 54.0149 87.7594 54.11C86.1894 53.9122 84.6205 53.7153 83.0508 53.5175Z" fill="#4C5259"/>
<path d="M89.0574 46.3125C89.3399 46.3572 89.6232 46.4022 89.9055 46.4471C89.9077 46.5413 89.9098 46.6353 89.912 46.7296H84.1669C84.1552 46.6247 84.1478 46.5188 84.1445 46.413C85.7829 46.3798 87.4202 46.3455 89.0574 46.3125Z" fill="#3B3E44"/>
<path d="M80.5801 52.1087C81.764 51.988 82.949 51.867 84.1327 51.7461C84.2954 51.9002 84.4591 52.0531 84.7947 52.3697H80.5781C80.5866 52.283 80.5877 52.1953 80.5801 52.1087Z" fill="#1D1F24"/>
<path d="M79.4754 53.4258C80.6016 53.4536 81.7265 53.4803 82.8526 53.5081C82.6003 53.6181 82.3544 53.8053 82.0945 53.8268C80.8463 53.9284 79.5942 53.9851 78.2422 53.8363C78.653 53.6996 79.0646 53.5626 79.4754 53.4258Z" fill="#4C5259"/>
<path d="M113.679 66.9882C112.936 67.062 112.195 67.1359 111.453 67.2108C111.481 67.0204 111.51 66.831 111.538 66.6406C112.263 66.6482 112.988 66.6556 113.712 66.6632C113.665 66.7681 113.654 66.876 113.679 66.9882Z" fill="#4C5259"/>
<path d="M110.031 83.6422C110.54 83.4711 111.049 83.3 111.557 83.1289C111.556 83.409 111.554 83.6904 111.552 83.9715C111.319 84.0048 111.085 84.0391 110.85 84.0731C110.578 83.9298 110.304 83.7855 110.031 83.6422Z" fill="#100D0B"/>
<path d="M113.681 66.9897C113.656 66.8775 113.667 66.7696 113.714 66.6647C114.165 66.5236 114.617 66.3822 115.068 66.2422C115.092 66.4508 115.117 66.6593 115.142 66.869L113.681 66.9897Z" fill="#99AAC2"/>
<path d="M111.537 66.6406C111.509 66.831 111.482 67.0204 111.453 67.2108C111.129 67.1669 110.805 67.1231 110.48 67.0792C110.482 66.9348 110.483 66.7915 110.484 66.6471C110.836 66.645 111.186 66.6428 111.537 66.6406Z" fill="#99AAC2"/>
<path d="M107.629 54.5527C108.21 53.9902 108.804 54.0403 109.408 54.5121C108.82 54.6435 108.232 54.774 107.644 54.9055C107.642 54.7879 107.637 54.6704 107.629 54.5527Z" fill="#4C5259"/>
<path d="M59.2188 40.7109C59.5021 40.7161 59.7865 40.7216 60.0701 40.727C59.7791 41.1302 59.4936 41.1921 59.2188 40.7109Z" fill="#4C5259"/>
<path d="M125.774 16.8967V18.5383C124.588 18.6838 123.546 18.9339 122.676 17.9137C121.101 18.7339 119.806 19.7629 119.147 21.5306C118.709 20.7264 118.338 20.0462 117.91 19.2591C116.825 19.965 115.93 20.5488 115.159 21.0503C114.212 20.8343 113.371 20.642 112.53 20.4505C112.494 20.5445 112.458 20.6387 112.422 20.7327C111.665 19.9381 110.909 19.1426 110.371 18.5767C108.777 18.413 107.426 18.273 106.009 18.1275C105.528 18.7789 105.528 18.7789 106.521 20.2527C104.447 19.8612 102.432 19.4804 100.336 19.0837C100.072 19.367 99.769 19.6942 99.3903 20.1029C99.1882 19.7071 99.0395 19.4174 98.815 18.9799C98.4139 19.0666 97.9797 19.227 97.5411 19.2366C97.1199 19.2452 96.6974 19.0794 96.2708 19.0238C95.5862 18.9339 94.858 18.6923 94.2195 18.8355C92.8176 19.1478 92.4593 19.1886 90.9888 18.4174C90.9439 18.0025 90.8957 17.55 90.8466 17.0978L90.6777 17.0891C90.6401 17.286 90.593 17.4816 90.5652 17.6794C90.3857 18.9328 90.1696 19.0976 89.0072 18.9426C88.1804 18.8323 87.3408 18.8034 86.5227 18.6517C85.97 18.55 85.4448 18.2986 84.8672 18.1008C83.2727 18.5051 81.5992 18.996 79.8933 19.3264C79.2719 19.4474 78.5887 19.503 77.933 18.8966C77.514 18.5105 76.606 18.6517 75.8604 18.549C75.6958 18.2591 75.5054 17.9254 75.2766 17.5211C74.0853 18.0164 72.9378 18.3703 72.2543 16.8496C71.6779 16.9855 71.1785 17.1041 70.6854 17.2196C70.6075 17.1318 70.5089 17.0678 70.4792 16.979C70.3583 16.6336 70.3261 16.0282 70.14 15.9792C69.5957 15.8348 68.7681 15.6678 68.4589 15.9523C67.6493 16.6957 67.1232 16.6251 66.397 15.8978C66.1938 15.6945 65.6164 15.8667 65.2313 15.8667C64.964 16.3396 64.7159 16.7758 64.3832 17.3639C63.8882 16.9384 63.5106 16.6142 63.0273 16.1982C63.3341 15.5556 63.6068 14.9857 63.8806 14.4144C65.5617 13.9717 67.2259 13.4328 68.9305 13.1065C71.4907 12.6167 74.0787 12.2745 76.655 11.8703C77.1396 11.7763 77.6229 11.682 78.1073 11.588C80.8002 11.3453 83.4909 10.9304 86.1871 10.8928C93.7918 10.7879 101.383 10.6694 108.938 12.1163C112.033 12.7088 115.182 13.1569 118.296 13.729C118.538 13.8317 118.778 13.9333 119.02 14.0349L119.015 14.0306C119.151 14.1354 119.287 14.2401 119.423 14.3449C120.839 14.8584 122.254 15.3717 123.67 15.8849C123.781 15.9748 123.892 16.0658 124.005 16.1555H124.008C123.986 16.6529 124.209 16.8978 124.722 16.8763C125.065 16.8613 125.41 16.8752 125.754 16.8763L125.774 16.8967Z" fill="#39550E"/>
<path d="M123.668 15.8836C122.253 15.3702 120.837 14.8569 119.422 14.3436C119.285 14.2388 119.15 14.1339 119.013 14.0293L119.018 14.0334C118.777 13.9318 118.536 13.8302 118.294 13.7286C115.18 13.1554 112.031 12.7072 108.936 12.1149C101.381 10.6679 93.79 10.7866 86.1861 10.8915C83.4902 10.9288 80.7984 11.3438 78.1055 11.5865C77.622 11.6807 77.1376 11.7747 76.6543 11.869C74.0769 12.2743 71.4889 12.6154 68.9287 13.1052C67.2239 13.4313 65.561 13.9704 63.8788 14.4142C63.0425 14.7542 62.2061 15.0944 61.3698 15.4333L61.3774 15.4279C61.0266 15.4611 60.6757 15.4954 60.3251 15.5295C60.2063 15.6216 60.0864 15.7145 59.9679 15.8066C58.9016 16.276 57.8354 16.7456 56.7691 17.2139C55.8279 17.5958 54.888 17.9775 53.9468 18.3583C53.934 18.2074 53.9201 18.0557 53.9062 17.9048C55.8184 16.2931 58.2429 15.7232 60.4651 14.7692C62.4339 13.9233 64.528 13.3586 66.5867 12.7352C67.1898 12.5522 67.8603 12.5939 68.4999 12.532C68.626 12.4443 68.7522 12.3566 68.8772 12.2689C77.9312 10.6957 87.0513 9.9718 96.2399 10.1257C96.3671 10.1246 96.4935 10.1236 96.6207 10.1225C96.8496 10.1214 97.0795 10.1203 97.3083 10.1192C97.7875 10.6488 98.2708 10.639 98.7595 10.1312C98.9842 10.1375 99.2087 10.144 99.4343 10.1514C99.692 10.2347 99.9498 10.3183 100.207 10.4028C105.572 10.7866 110.915 11.3277 116.168 12.5416C116.508 12.6206 116.872 12.6004 117.223 12.626C117.586 12.7342 117.948 12.8421 118.31 12.9502C120.632 13.874 122.954 14.7948 125.274 15.7265C125.913 15.9831 126.538 16.2718 127.17 16.5456C128.727 17.8225 130.525 18.8523 131.521 20.7047C131.628 20.9036 131.476 21.2403 131.444 21.513C129.891 19.5603 128.165 17.8192 125.772 16.8952L125.752 16.875C125.17 16.6353 124.589 16.3947 124.006 16.1542H124.002C123.891 16.0643 123.779 15.9733 123.668 15.8836Z" fill="#9A3A47"/>
<path d="M53.9505 18.3593C54.8904 17.9774 55.8316 17.5968 56.7717 17.2148C56.6786 17.4812 56.6582 17.9079 56.4786 17.9902C53.9323 19.1698 51.8554 20.9803 49.8064 22.8368C49.6994 22.9332 49.4673 22.8905 49.293 22.9128C49.5657 21.7237 50.5635 21.1557 51.4053 20.4564C52.2501 19.7538 53.1014 19.0575 53.9505 18.3593Z" fill="#39550E"/>
<path d="M61.3711 15.4321C62.0448 15.7819 62.0448 15.7819 61.6329 16.6364C61.5218 16.108 61.4501 15.7669 61.3785 15.4258L61.3711 15.4321Z" fill="#39550E"/>
<path d="M91.1057 24.4453L91.14 24.5447L91.0469 24.5309L91.1057 24.4453Z" fill="#1F3209"/>
<path d="M75.358 40.4387C73.9005 40.5093 72.4438 40.5885 70.985 40.6452C70.2772 40.673 69.5681 40.6558 68.859 40.6601C68.9724 39.7415 68.1287 40.2804 67.7383 39.917C68.3319 39.1736 68.4912 38.0228 69.797 38.0923C70.2206 36.8658 68.8966 36.7149 68.5223 35.914C69.4793 35.8413 70.3413 35.777 71.3231 35.7032C71.5165 34.4895 71.6887 33.4115 71.8611 32.3377C73.9111 32.6392 74.2758 31.2973 74.3805 29.724C76.7366 29.5434 79.1075 29.3614 81.6422 29.1669C80.3577 28.9691 79.2443 28.7978 78.1312 28.6267C79.1898 28.4973 80.2496 28.369 81.3084 28.2407C81.9029 28.2268 82.4987 28.2129 83.0944 28.199C84.875 28.1925 86.6556 28.1862 88.4361 28.1797L89.4852 28.2696C88.881 28.3807 88.28 28.536 87.6706 28.5948C85.8813 28.7659 84.088 28.8994 82.2965 29.0471C82.3041 29.0803 82.3126 29.1144 82.32 29.1476C85.182 29.3208 88.0449 29.493 90.9067 29.6652C90.4853 30.6149 90.0628 31.5634 89.6863 32.4104C87.9485 32.618 86.4706 32.7934 84.9252 32.9773C85.1959 33.3848 85.3861 33.6714 85.5776 33.958C85.0706 34.5963 85.2793 35.3536 85.8386 35.5599C86.5218 35.8124 86.631 36.2946 86.846 36.7792C87.1538 37.4742 87.4126 38.1928 87.6919 38.9009C87.7003 39.1403 87.709 39.38 87.7164 39.6206L87.7186 39.6184C87.3731 40.2259 86.8994 40.4398 86.1614 40.4152C84.1787 40.3499 82.1917 40.3992 80.2057 40.4046C79.0648 40.4076 77.9225 40.4142 76.7814 40.4185C76.6007 40.4205 76.4201 40.4226 76.2403 40.4259C75.9463 40.4302 75.6521 40.4346 75.358 40.4387Z" fill="#9A3A47"/>
<path d="M122.584 40.3275C122.152 40.8108 121.71 41.1831 120.96 41.0676C120.329 40.969 119.671 41.0472 119.025 41.0472C119.632 40.3157 120.238 39.5843 120.947 38.7286C120.106 37.7416 119.306 36.8015 118.458 35.8058C118.307 35.3097 118.313 34.4349 117.909 34.159C116.036 32.8821 114.245 31.155 111.625 32.1153C110.758 31.604 110.106 30.5935 108.886 30.9646C108.724 30.6374 108.576 30.3358 108.483 30.1486C107.227 29.8855 106.107 29.6438 104.984 29.418C101.315 28.6792 97.6023 29.0309 93.9064 28.9541C93.3106 28.941 93.0294 29.1829 93.0207 29.7656C92.7834 29.3006 92.5459 28.8364 92.3086 28.3711C92.3255 28.2204 92.3427 28.0706 92.3598 27.9208C92.5908 27.9102 92.8208 27.8984 93.0518 27.8878C94.1213 27.8835 95.1906 27.8791 96.2601 27.875C96.8494 27.8761 97.4386 27.877 98.0268 27.878C101.382 28.0074 104.738 28.0962 108.088 28.2867C109.304 28.3561 110.507 28.661 111.714 28.877C112.514 29.0192 113.429 28.9999 114.079 29.4C115.069 30.0073 116.122 30.217 117.202 30.4415C117.916 30.9945 118.588 31.6467 119.613 31.4811C119.888 31.7881 120.194 32.0736 120.435 32.4062C121.148 33.3954 122.059 34.2884 122.183 35.593C122.333 37.1695 122.452 38.749 122.584 40.3275Z" fill="#7A2B33"/>
<path d="M122.584 40.3285C122.451 38.7501 122.333 37.1706 122.183 35.5941C122.059 34.2895 121.148 33.3965 120.435 32.4073C120.194 32.0747 119.888 31.7891 119.613 31.4821C120.717 31.2138 121.379 32.2351 122.338 32.4233C122.9 32.5323 123.415 32.9611 123.97 33.0017C125.373 33.1044 126.238 33.7986 127.037 34.9321C127.573 35.6914 127.992 36.3277 127.929 37.2741C127.9 37.7179 128.089 38.1758 128.177 38.612C127.353 39.3854 126.571 40.2269 125.67 40.9145C125.259 41.2278 124.613 41.2343 124.075 41.3798C123.913 41.3948 123.696 41.3498 123.601 41.4375C123.356 41.661 123.166 41.9445 122.953 42.2033C122.83 41.5787 122.707 40.9532 122.584 40.3285Z" fill="#100D0B"/>
<path d="M117.201 30.4417C116.121 30.2172 115.07 30.0075 114.078 29.4002C113.428 29.0012 112.514 29.0205 111.713 28.8772C110.506 28.6623 109.303 28.3563 108.088 28.2869C104.738 28.0965 101.381 28.0077 98.0273 27.8793C98.0723 27.7093 98.1353 27.3895 98.1598 27.3917C99.703 27.5789 100.965 26.1641 102.648 26.7406C103.603 27.0678 104.757 26.7833 105.817 26.84C107.039 26.9051 108.34 27.3587 109.456 27.0688C110.808 26.718 111.991 27.1672 113.247 27.1928C113.646 27.2013 114.061 27.2784 114.44 27.4078C115.513 27.7747 116.261 28.8527 117.545 28.8088C117.69 28.8034 117.849 29.242 118.033 29.522C117.724 29.8642 117.463 30.153 117.201 30.4417Z" fill="#1D1F24"/>
<path d="M65.7432 29.7102C65.538 30.0825 65.4266 30.6075 65.1111 30.8001C63.4098 31.8405 61.6655 32.8117 59.9169 33.7698C59.6324 33.9259 59.2507 33.9046 58.9138 33.9656C58.807 32.8533 59.8591 32.9817 60.6249 32.4736C60.581 31.9037 60.5319 31.2523 60.4816 30.598C62.1178 29.784 63.6599 28.1467 65.7432 29.7102Z" fill="#1D1F24"/>
<path d="M96.2591 27.8739C95.1896 27.8783 94.1203 27.8826 93.0508 27.8878C93.1331 27.6868 93.2069 27.3179 93.2989 27.3135C94.1972 27.2675 95.0988 27.2653 95.997 27.3072C96.0934 27.3114 96.1725 27.6761 96.2591 27.8739Z" fill="#1D1F24"/>
<path d="M92.3601 27.9215C92.343 28.0713 92.326 28.222 92.31 28.3718C92.1002 28.344 91.8907 28.3151 91.6821 28.2873C90.9495 28.2819 90.2181 28.2765 89.4866 28.2712L88.4375 28.1814C89.8203 27.5932 91.3977 27.4883 92.3601 27.9215Z" fill="#1D1F24"/>
<path d="M83.0946 28.2012C82.4988 28.2151 81.9041 28.229 81.3086 28.2429C81.8913 27.6879 82.4882 27.737 83.0946 28.2012Z" fill="#1D1F24"/>
<path d="M77.0429 28.5508L76.8697 28.5797L76.6953 28.5625C76.8108 28.5584 76.9274 28.5551 77.0429 28.5508Z" fill="#1D1F24"/>
<path d="M98.7598 10.1291C98.2722 10.637 97.7876 10.6467 97.3086 10.1172C97.793 10.1204 98.2763 10.1248 98.7598 10.1291Z" fill="#4C5259"/>
<path d="M104.438 46.7337C104.663 46.7209 104.89 46.7081 105.116 46.6953C108.556 46.7991 111.995 46.9027 115.436 47.0054C117.104 47.1497 118.772 47.2952 120.44 47.4396C120.557 47.4491 120.671 47.4363 120.783 47.4012C121.142 47.414 121.501 47.4268 121.861 47.4407C121.676 48.1027 121.491 48.7657 121.253 49.6159C120.981 49.2319 120.777 48.9464 120.463 48.5037C118.78 48.5037 116.956 48.4715 115.135 48.5121C112.956 48.5614 110.823 48.2898 108.693 47.846C107.497 47.5968 106.252 47.5905 105.043 47.3979C104.812 47.3606 104.637 46.9648 104.438 46.7337Z" fill="#100D0B"/>
<path d="M119.502 50.3672C119.977 50.9617 119.592 51.4024 119.165 51.6931C118.698 52.0118 118.144 52.2761 117.593 52.384C116.681 52.5637 115.89 52.8514 115.24 53.7208C115.195 53.2481 115.15 52.7754 115.117 52.4237C116.629 51.7135 118.005 51.0687 119.502 50.3672Z" fill="#3B3E44"/>
<path d="M100.542 47.0582C99.1431 47.0658 97.7442 47.0658 96.3453 47.0849C95.8716 47.0915 95.5422 46.9727 95.555 46.4219C97.2073 46.5183 98.8606 46.6145 100.514 46.7106C100.51 46.8272 100.519 46.9438 100.542 47.0582Z" fill="#3B3E44"/>
<path d="M93.0195 29.7641C93.0269 29.1811 93.3083 28.9395 93.9038 28.9512C97.5998 29.0294 101.314 28.6764 104.982 29.4154C106.105 29.6421 107.226 29.8837 108.481 30.1458C108.573 30.334 108.722 30.6345 108.885 30.9628C110.105 30.5917 110.757 31.6013 111.622 32.1135C114.242 31.1532 116.034 32.8793 117.907 34.1572C118.311 34.4321 118.305 35.3079 118.456 35.8043C119.304 36.8 120.105 37.7398 120.946 38.7271C120.237 39.5825 119.63 40.314 119.024 41.0454H119.021C118.906 41.1503 118.792 41.2552 118.677 41.3611C118.428 41.3631 118.179 41.3652 117.93 41.3674C117.457 41.2658 116.986 41.1631 116.513 41.0604C113.787 41.0487 111.06 41.037 108.333 41.0252C107.834 40.9332 107.338 40.7727 106.838 40.7621C103.306 40.6861 99.774 40.6403 96.2428 40.5856C96.2608 39.4746 96.2791 38.3623 96.2984 37.2511C96.1625 37.1892 96.0279 37.1271 95.892 37.065C96.3892 36.6491 96.9667 36.2973 97.3592 35.7988C97.6919 35.3774 97.8117 34.7882 98.0266 34.2727C98.2277 33.9989 98.4298 33.7252 98.742 33.3007C97.6309 33.1318 96.6855 32.9147 95.7315 32.86C94.6023 32.7948 93.8483 32.3146 93.475 31.2581C93.3018 30.7672 93.1702 30.2624 93.0195 29.7641Z" fill="#9A3A47"/>
<path d="M108.333 41.0273C111.06 41.0393 113.786 41.0521 116.513 41.0638C116.523 41.1761 116.529 41.2894 116.533 41.4017H115.161C115.724 43.2691 115.373 45.1502 115.434 47.0078C111.994 46.904 108.554 46.8013 105.114 46.6975C104.38 44.5726 105.425 42.8594 106.395 41.0273H108.333Z" fill="#4C5259"/>
<path d="M120.784 47.4023C120.673 47.4374 120.558 47.4502 120.442 47.4407C120.322 45.8258 120.195 44.2111 120.09 42.5951C120.068 42.2614 120.129 41.9225 120.44 41.5781C120.555 43.5191 120.669 45.4612 120.784 47.4023Z" fill="#4C5259"/>
<path d="M123.981 43.75C123.995 44.2483 124.056 44.7531 123.996 45.2429C123.976 45.4033 123.641 45.5251 123.449 45.6643L123.981 43.75Z" fill="#99AAC2"/>
<path d="M116.536 41.4014C116.532 41.2881 116.524 41.1758 116.516 41.0625C116.987 41.1652 117.46 41.2679 117.932 41.3695C117.466 41.3801 117.001 41.3908 116.536 41.4014Z" fill="#7A2B33"/>
<path d="M110.031 83.6406C110.304 83.7839 110.578 83.9283 110.85 84.0716C108.738 84.6502 106.649 85.3485 104.505 85.7655C102.979 86.0619 101.38 85.9805 99.8125 86.0682C99.8136 85.7838 99.8147 85.5004 99.8147 85.216C101.357 85.0738 102.899 84.9303 104.441 84.7881C104.558 84.7774 104.675 84.7657 104.792 84.7551C106.538 84.3838 108.285 84.0117 110.031 83.6406Z" fill="#090D0D"/>
<path d="M71.3752 89.7929C69.2588 88.7054 67.2385 87.5139 66.6953 84.7773C67.4717 85.5954 68.2021 86.4637 69.0373 87.2166C69.8897 87.9835 70.8457 88.6348 71.7558 89.3374C71.6286 89.4892 71.5025 89.6412 71.3752 89.7929Z" fill="#100D0B"/>
<path d="M59.7773 65.5013C61.4222 64.2297 62.343 64.2801 63.7996 65.5013H59.7773Z" fill="#1F3209"/>
<path d="M80.7945 61.3421C80.0567 60.8823 79.693 60.524 79.2836 60.4565C79.0814 60.4235 78.5456 60.9988 78.5947 61.1817C78.6921 61.5475 79.0471 62.0158 79.3776 62.094C79.6663 62.1613 80.0673 61.7527 80.7945 61.3421ZM81.3935 59.9037C82.0233 60.4265 82.5752 60.8855 83.034 61.2661C83.972 60.9817 84.6574 60.5581 84.4618 59.7604C84.3354 59.2502 83.7611 58.6481 83.2574 58.4792C82.3699 58.1809 81.9443 58.9584 81.3935 59.9037ZM78.2119 56.2088C78.1756 56.9852 78.1029 57.3787 78.152 57.7562C78.2418 58.4566 78.7455 58.7552 79.3988 58.7691C79.9979 58.7808 80.4898 58.4877 80.4983 57.86C80.5079 57.2108 80.1069 56.7584 79.4236 56.66C79.0621 56.6088 78.6932 56.6077 78.2279 56.244C78.5936 56.0536 78.9401 55.7714 79.3294 55.6858C82.0351 55.0944 85.4177 56.5617 86.8765 58.9198C88.2604 61.1582 87.8336 63.6607 85.7258 65.2037C83.6745 66.7064 81.3271 67.2444 78.8333 66.8775C76.3542 66.5127 74.6025 63.8819 74.9812 61.1443C75.258 59.1475 76.3191 57.6162 78.2119 56.2088Z" fill="#090D0D"/>
<path d="M110.43 60.0993C109.708 61.2372 109.736 62.049 110.476 62.3356C111.075 62.5666 111.497 62.265 111.753 61.7463C112.103 61.0383 111.759 60.5987 110.43 60.0993ZM115.538 59.7806C115.5 59.0406 114.847 58.4255 114.169 58.523C113.37 58.6385 113.173 59.2662 113.119 59.9208C113.064 60.5848 113.667 61.1784 114.288 61.1677C115.015 61.156 115.575 60.5335 115.538 59.7806ZM111.539 66.641C111.188 66.6432 110.838 66.6453 110.487 66.6475C108.751 65.8466 107.112 64.9813 106.726 62.8221C106.317 60.5303 107.272 58.2653 109.301 56.9403C109.51 57.1476 109.719 57.3541 109.929 57.5616C109.879 58.1166 109.909 58.7113 110.582 58.771C110.873 58.7979 111.34 58.4566 111.487 58.1637C111.73 57.675 111.702 57.1198 111.016 56.8942C110.96 56.876 110.904 56.8599 110.848 56.8428C110.855 56.7103 110.862 56.5766 110.87 56.4439C111.977 56.4118 113.118 56.1949 114.184 56.3873C116.173 56.7466 117.565 57.9978 118.156 59.956C118.713 61.806 118.201 63.4348 116.803 64.7621C116.252 65.2851 115.648 65.7491 115.068 66.2411C114.617 66.3811 114.166 66.5224 113.714 66.6625C112.989 66.656 112.264 66.6486 111.539 66.641Z" fill="#090D0D"/>
<path d="M110.87 56.4453C110.862 56.5778 110.856 56.7115 110.848 56.8441C110.541 57.0836 110.235 57.3233 109.928 57.5628C109.719 57.3552 109.51 57.1479 109.301 56.9414C109.824 56.7758 110.347 56.611 110.87 56.4453Z" fill="#3B3E44"/>
<path d="M91.5253 38.7405L91.4343 38.6795L91.4215 38.7757L91.5253 38.7405ZM90.1253 40.3724L90.0193 40.3713C89.7275 40.4538 89.4344 40.5361 89.1413 40.6184C88.8997 40.6151 88.6591 40.6121 88.4175 40.6088C88.1927 40.5276 87.9693 40.4462 87.7448 40.365C87.7361 40.1157 87.7288 39.8676 87.7201 39.6185L87.7179 39.6207C87.9906 39.256 88.3148 38.919 88.5232 38.5212C88.9361 37.7309 89.0217 36.963 88.0933 36.4263C87.4839 35.7728 86.8742 35.1203 86.2656 34.467C87.5362 33.8906 88.102 35.0263 88.8378 35.5535C89.2173 35.3236 89.535 35.1312 89.8515 34.9397C90.4462 35.0852 91.0406 35.2306 91.6353 35.3761L91.6119 35.3513C91.8737 35.8262 92.1358 36.301 92.4856 36.933C91.8867 37.0207 91.4076 37.0913 90.9284 37.161C90.3585 36.9684 89.8943 37.0379 89.6398 37.6699C90.2771 38.1641 90.5745 37.4967 91.0011 37.2882C91.9176 37.455 92.8332 37.6219 93.8577 37.8091C93.4148 36.3546 94.5625 35.9792 95.1719 35.2829C95.804 34.7441 96.436 34.205 97.2541 33.5078C97.3995 33.8179 97.5387 34.114 97.6787 34.4114C96.974 35.0808 96.2703 35.7504 95.5666 36.4198C94.9687 36.994 95.0608 37.5855 95.525 38.1854C96.2586 38.8612 95.7579 39.7468 95.9195 40.5211C95.7827 40.5467 95.6457 40.5734 95.5089 40.6003C95.4008 40.5126 95.2918 40.4249 95.1836 40.3372C95.1441 39.8923 95.1035 39.4485 95.0673 39.041C94.1571 38.8667 93.3775 38.7179 92.4962 38.549C92.4706 38.9437 92.4513 39.2442 92.4311 39.5501C91.4493 39.2881 90.7658 39.7725 90.1253 40.3724Z" fill="#9A3A47"/>
<path d="M90.125 40.373C90.7655 39.7742 91.4479 39.2888 92.4308 39.5517C92.4499 39.246 92.4692 38.9444 92.4948 38.5508C93.3772 38.7197 94.1558 38.8684 95.0668 39.0428C95.1032 39.4492 95.1428 39.8941 95.1834 40.3379C95.07 40.434 94.9567 40.5302 94.8423 40.6255C94.6028 40.6223 94.362 40.619 94.1215 40.616C93.7248 40.5517 93.3279 40.4875 92.9301 40.4234C91.9955 40.4063 91.0597 40.3902 90.125 40.373Z" fill="#7A2B33"/>
<path d="M95.5651 36.4188C96.2688 35.7494 96.9736 35.0798 97.6772 34.4104C97.7938 34.3644 97.9115 34.3184 98.0281 34.2734C97.814 34.7878 97.6944 35.3781 97.3607 35.7995C96.9681 36.297 96.3906 36.6498 95.8934 37.0658C96.0293 37.1279 96.1639 37.1897 96.2998 37.2507C96.2816 38.363 96.2623 39.4742 96.2443 40.5852C96.1351 40.5639 96.0271 40.5416 95.919 40.519C95.7564 39.7458 96.2571 38.8602 95.5234 38.1833C95.5373 37.5951 95.5512 37.0069 95.5651 36.4188Z" fill="#7A2B33"/>
<path d="M94.8398 40.6236C94.9532 40.5274 95.0665 40.4323 95.1798 40.3359C95.2891 40.4237 95.397 40.5114 95.5062 40.5991C95.2836 40.6076 95.0624 40.6151 94.8398 40.6236Z" fill="#4C5259"/>
<path d="M92.7856 46.2483H91.4659C91.4659 46.2056 91.4659 46.1639 91.4648 46.1211H92.7406C92.7556 46.1639 92.7706 46.2056 92.7856 46.2483Z" fill="#99AAC2"/>
<path d="M102.63 53.4631C102.655 53.5765 102.73 53.7721 102.698 53.7914C102.465 53.9304 102.21 54.0342 101.962 54.1497C101.713 54.1592 101.464 54.169 101.216 54.1785C100.517 53.5231 99.8285 53.8481 99.1409 54.2011C98.7176 54.0748 98.2983 53.8576 97.8714 53.8407C96.6322 53.7903 95.3894 53.847 94.1488 53.8053C93.7788 53.7925 93.4152 53.5936 93.0474 53.4792C93.0474 53.3626 93.0463 53.2449 93.0474 53.1284L93.0547 53.121C94.6462 53.6631 96.2385 52.9327 97.8287 53.1221C98.5132 53.2033 99.1913 53.3272 99.8724 53.431C100.791 53.4416 101.711 53.4525 102.63 53.4631Z" fill="#4C5259"/>
<path d="M99.1405 54.2009C99.8281 53.8479 100.517 53.5229 101.215 54.1784C100.75 54.4083 100.303 54.6971 99.8142 54.8521C99.3042 55.0136 99.0454 54.7494 99.1405 54.2009Z" fill="#100D0B"/>
<path d="M102.632 53.4655C101.713 53.4548 100.794 53.444 99.875 53.4333C100.799 52.9778 101.719 52.9413 102.632 53.4655Z" fill="#1D1F24"/>
<path d="M93.047 53.1281C92.968 53.079 92.8887 53.0298 92.8086 52.9805C92.8909 53.0276 92.9732 53.0736 93.0546 53.1207L93.047 53.1281Z" fill="#4C5259"/>
<path d="M124.009 16.1523C124.591 16.3931 125.173 16.6326 125.756 16.8732C125.411 16.8721 125.066 16.8571 124.723 16.8721C124.21 16.8947 123.987 16.6498 124.009 16.1523Z" fill="#294504"/>
<path d="M98.0276 34.2741C97.911 34.3201 97.7934 34.3648 97.6768 34.4109C97.5378 34.1136 97.3986 33.8173 97.2523 33.5072C96.434 34.2046 95.802 34.7435 95.1699 35.2826C95.1443 34.8857 95.1187 34.4879 95.1089 34.3403C94.0963 33.7777 93.2643 33.3146 92.3755 32.8218C92.383 32.8109 92.2537 32.9907 92.1338 33.1553C91.7543 32.9191 91.4473 32.7276 91.073 32.4944C90.6248 33.3895 90.2377 34.1638 89.8495 34.9391C89.533 35.1306 89.2164 35.3232 88.8367 35.5531C88.1011 35.0257 87.5342 33.89 86.2636 34.4664C86.0348 34.2964 85.806 34.1275 85.5771 33.9575C85.3867 33.6709 85.1965 33.3843 84.9258 32.9768C86.4701 32.7929 87.948 32.6175 89.6858 32.4099C90.0634 31.563 90.4848 30.6144 90.9062 29.6658C91.165 29.2049 91.4227 28.745 91.6805 28.2852C91.89 28.314 92.0997 28.3418 92.3081 28.3696C92.5457 28.8349 92.783 29.3 93.0205 29.7652C93.1712 30.2635 93.3028 30.7683 93.476 31.2592C93.8492 32.3159 94.6033 32.796 95.7325 32.8613C96.6865 32.9158 97.6318 33.1318 98.743 33.3018C98.4308 33.7265 98.2298 34.0003 98.0276 34.2741Z" fill="#99AAC2"/>
<path d="M91.6813 28.2856C91.4236 28.7454 91.1648 29.2053 90.907 29.6651C88.0452 29.493 85.1823 29.3208 82.3203 29.1475C82.3129 29.1143 82.3045 29.08 82.2969 29.047C84.0883 28.8994 85.8817 28.7656 87.6709 28.5946C88.2804 28.5357 88.8813 28.3807 89.4856 28.2695C90.2181 28.2747 90.9498 28.2802 91.6813 28.2856Z" fill="#7A2B33"/>
<path d="M85.5773 33.957C85.8061 34.127 86.035 34.2959 86.2638 34.4659C86.8735 35.1195 87.482 35.7719 88.0915 36.4252C87.958 37.2509 87.8253 38.0753 87.6916 38.8999C87.4126 38.1919 87.1546 37.4743 86.8457 36.7782C86.6307 36.2936 86.5215 35.8114 85.8393 35.56C85.279 35.3526 85.0703 34.5954 85.5773 33.957Z" fill="#7A2B33"/>
<path d="M87.6914 38.9005C87.8249 38.0759 87.9576 37.2504 88.0913 36.4258C89.0195 36.9616 88.934 37.7304 88.5212 38.5209C88.3126 38.9187 87.9886 39.2554 87.7159 39.6202C87.7083 39.3796 87.6999 39.1399 87.6914 38.9005Z" fill="#99AAC2"/>
<path d="M81.3945 59.9032C81.9454 58.9588 82.3709 58.1804 83.2585 58.4787C83.7633 58.6476 84.3364 59.2508 84.4628 59.761C84.6584 60.5576 83.973 60.9823 83.0351 61.2667C82.5763 60.885 82.0244 60.4271 81.3945 59.9032Z" fill="#F6F6F6"/>
<path d="M80.7928 61.3401C80.0657 61.7507 79.6647 62.1593 79.3759 62.092C79.0455 62.0138 78.6905 61.5455 78.593 61.1797C78.5439 60.9968 79.0798 60.4215 79.2819 60.4545C79.6914 60.522 80.0551 60.8803 80.7928 61.3401Z" fill="#F6F6F6"/>
<path d="M115.536 59.7796C115.573 60.5326 115.013 61.155 114.285 61.1668C113.665 61.1774 113.062 60.5838 113.117 59.9199C113.171 59.2653 113.367 58.6365 114.167 58.5221C114.845 58.4237 115.498 59.0397 115.536 59.7796Z" fill="#F6F6F6"/>
<path d="M110.428 60.0977C111.757 60.597 112.101 61.0367 111.751 61.7447C111.495 62.2634 111.073 62.565 110.474 62.3339C109.734 62.0474 109.706 61.2356 110.428 60.0977Z" fill="#F6F6F6"/>
<path d="M109.926 57.5624C110.233 57.3229 110.539 57.0832 110.846 56.8438C110.902 56.8609 110.958 56.877 111.013 56.895C111.699 57.1208 111.728 57.6757 111.485 58.1645C111.338 58.4576 110.871 58.7987 110.579 58.772C109.908 58.712 109.877 58.1174 109.926 57.5624Z" fill="#F6F6F6"/>
<path d="M89.8516 34.9399C90.2387 34.1655 90.6269 33.3913 91.0739 32.4961C91.4482 32.7282 91.7552 32.9197 92.1358 33.1561C92.2546 32.9924 92.384 32.8126 92.3766 32.8224C93.2653 33.3164 94.0983 33.7784 95.111 34.3409C95.1207 34.4896 95.1464 34.8863 95.172 35.2832C94.5625 35.9804 93.4149 36.3547 93.8578 37.8091C92.8332 37.622 91.9176 37.4552 91.0012 37.2883L90.9285 37.161C91.4076 37.0916 91.8868 37.021 92.4856 36.9344C92.1358 36.3023 91.8738 35.8264 91.6119 35.3516C92.1625 35.557 92.7134 35.7622 93.2653 35.9676C93.4802 34.466 93.4802 34.466 92.1209 33.9677C91.9595 34.4341 91.7969 34.9046 91.6354 35.3761C91.0407 35.2307 90.4462 35.0852 89.8516 34.9399Z" fill="#F6F6F6"/>
<path d="M90.9253 37.161L90.998 37.2882C90.5714 37.4967 90.275 38.1641 89.6367 37.6699C89.8912 37.0379 90.3565 36.9684 90.9253 37.161Z" fill="#99AAC2"/>
<path d="M95.5639 36.4219C95.55 37.01 95.5361 37.5982 95.5222 38.1864C95.058 37.5876 94.966 36.9961 95.5639 36.4219Z" fill="#99AAC2"/>
<path d="M91.5217 38.7407L91.418 38.7759L91.4308 38.6797L91.5217 38.7407Z" fill="#7A2B33"/>
<path d="M91.633 35.3744C91.7954 34.9026 91.9581 34.4321 92.1185 33.9648C93.4787 34.4642 93.4787 34.4642 93.2627 35.9658C92.7121 35.7604 92.1613 35.555 91.6094 35.3496L91.633 35.3744Z" fill="#99AAC2"/>
<path fill-rule="evenodd" clip-rule="evenodd" d="M30.4109 60.588C30.8097 60.2877 31.3773 60.3679 31.6775 60.7667C31.9778 61.1655 31.8979 61.7333 31.4989 62.0336C31.4989 62.0336 23.6918 67.9408 18.5898 81.1159C16.4933 86.5299 14.3469 108.423 14.8721 111.922C14.9462 112.416 14.6055 112.877 14.1118 112.951C13.6179 113.025 13.1569 112.684 13.0829 112.191C12.5421 108.587 14.7436 86.0383 16.9026 80.4626C22.2243 66.7204 30.4109 60.588 30.4109 60.588Z" fill="black"/>
</g>
<defs>
<clipPath id="clip0_1054_4553">
<rect width="150" height="110" fill="white"/>
</clipPath>
</defs>
</svg>
