<svg width="150" height="110" viewBox="0 0 150 110" fill="none" xmlns="http://www.w3.org/2000/svg">
<path d="M78.3947 43.2224C77.3254 41.9801 77.0084 41.9732 75.8668 43.0893C76.7112 44.6055 77.1754 44.6454 78.3947 43.2224ZM114.842 42.8268C114.896 44.2592 115.73 44.8089 116.806 44.1087C117.042 43.9552 117.322 43.5946 117.29 43.3707C117.246 43.0616 116.988 42.6666 116.711 42.529C116.056 42.2031 115.379 42.2402 114.842 42.8268ZM76.8108 41.2297C77.4689 40.8763 78.5408 40.9303 78.4576 39.7115C78.4155 39.0966 77.7223 38.628 76.9092 38.6317C76.2852 38.6348 75.7622 38.8387 75.5637 39.5124C75.334 40.292 75.6047 40.6778 76.8108 41.2297ZM117.599 39.3471C116.995 39.0955 116.485 38.7848 115.935 38.6767C115.11 38.5143 114.423 39.109 114.386 39.8845C114.344 40.7436 114.849 41.2311 115.783 41.2326C116.823 41.2341 117.158 40.9188 117.599 39.3471ZM85.0747 41.3939C83.8306 39.0931 81.8575 38.7347 80.4492 40.4117C79.8756 41.0954 79.802 41.8005 80.4228 42.397C81.7732 43.6949 82.9602 44.0238 84.361 42.4829C84.6387 42.1777 84.8222 41.786 85.0747 41.3939ZM123.973 41.3383C123.935 40.1487 122.135 39.0864 120.77 39.4479C119.71 39.7288 118.813 40.5369 118.77 41.2938C118.705 42.4263 119.572 42.8195 120.377 43.2498C120.565 43.3501 120.758 43.4528 120.962 43.5084C122.233 43.8555 124.012 42.5678 123.973 41.3383ZM112.726 37.476C112.162 37.5596 111.956 37.557 111.773 37.6222C109.166 38.5486 106.559 39.4726 103.96 40.4229C103.063 40.7514 102.149 41.0741 101.319 41.5359C100.16 42.1805 100.16 43.5505 101.306 44.216C101.741 44.4689 102.31 44.5766 102.823 44.5968C103.994 44.6419 105.168 44.5879 106.341 44.5824C107.499 44.5768 108.659 44.5811 109.952 44.5811C108.996 41.5131 111.499 39.9255 112.726 37.476ZM74.4718 37.1445C72.8118 37.5036 71.4828 37.74 70.2561 38.4353C69.1479 39.0634 67.982 39.5927 66.8261 40.1322C64.9947 40.987 63.1458 41.8036 61.314 42.6577C60.6963 42.9454 60.0497 43.2348 59.8463 43.9496C60.0745 44.7948 60.7121 44.6699 61.2853 44.6704C64.0027 44.6717 66.7195 44.6767 69.4369 44.6643C70.0585 44.6615 70.6804 44.5953 71.2451 44.5616C71.4457 43.1121 71.3779 41.7176 71.8712 40.5628C72.3673 39.4012 73.4217 38.4778 74.4718 37.1445ZM138.693 44.8465C138.502 44.1048 138.418 43.595 138.24 43.1208C137.45 41.0224 135.84 39.7703 133.793 39.0792C132.133 38.5188 130.433 38.067 128.731 37.6428C128.097 37.4843 127.41 37.5401 126.544 37.486C127.191 40.0834 127.57 42.4688 126.174 44.9359C130.326 45.3313 134.332 45.2481 138.693 44.8465ZM133.375 36.0515C136.11 37.636 137.867 40.0723 139.205 42.8418C139.861 44.2012 139.83 45.6483 139.203 47.0109C138.785 47.9191 138.193 48.7469 137.679 49.6111C137.56 49.468 137.441 49.3251 137.323 49.1823C137.598 48.3889 137.874 47.5954 138.236 46.5513C138.059 46.4507 137.838 46.2332 137.596 46.2047C136.387 46.0647 135.175 45.919 133.961 45.8856C133.12 45.8626 132.273 46.0944 131.431 46.0816C127.434 46.0213 123.437 45.9294 119.441 45.822C116.407 45.7403 113.374 45.6274 110.341 45.5113C107.842 45.4157 105.343 45.2948 102.844 45.1854C101.659 45.1847 100.473 45.1841 99.2866 45.1834C98.5207 45.1921 97.7545 45.201 96.9885 45.2095C96.995 45.0792 97.0017 44.9492 97.008 44.8189C97.7301 44.6684 98.4518 44.5184 99.1073 44.3823C99.4846 43.6113 99.3531 42.978 98.8748 42.5077C98.2764 41.9197 97.6457 41.2793 96.9012 40.9421C94.4311 39.8226 91.906 38.8245 89.3959 37.7939C89.0813 37.6647 88.7318 37.6209 88.326 37.5188C88.3586 37.8132 88.3312 37.9878 88.3985 38.1115C89.3414 39.8498 90.1556 41.6238 90.3591 43.6326C90.4272 44.3091 90.9705 44.5772 91.6251 44.6207C92.4744 44.6771 93.3229 44.7505 94.1721 44.8165C94.1786 44.9578 94.1844 45.0994 94.1909 45.241C90.9722 45.3235 87.7535 45.4062 84.5347 45.4887C78.7618 45.5102 72.9885 45.5321 67.2156 45.5538C65.2792 45.5158 63.3427 45.478 61.406 45.4398C61.1663 45.3658 60.9264 45.292 60.6867 45.2179C59.5165 45.2933 58.4289 45.2027 57.8777 43.6601C58.4704 43.2359 59.0521 42.6898 59.7362 42.3518C62.6937 40.8902 65.7106 39.5462 68.6479 38.0468C70.8249 36.9354 73.1405 36.3527 75.5212 36.2611C79.8687 36.0937 84.2338 35.7463 88.5659 36.5207C89.2398 36.6414 89.9309 36.7624 90.5608 37.0157C92.7771 37.9081 94.9665 38.8677 97.1756 39.7781C97.5801 39.9446 98.0302 40.0009 98.769 40.1861C98.5836 39.3849 98.5428 38.8677 98.3448 38.4196C97.7306 37.0314 96.807 35.8283 95.5948 34.9432C94.8002 34.3628 93.8262 33.7885 92.8835 33.6924C89.5533 33.3519 86.2046 33.15 82.8579 33.0349C81.0574 32.9731 79.2477 33.2579 77.4411 33.2714C75.5424 33.2855 73.7228 33.728 72.0302 34.4471C69.5448 35.5025 67.1919 36.864 64.7479 38.0216C63.1571 38.7753 61.5741 39.6902 59.3024 39.2651C60.1012 38.7664 60.5975 38.3936 61.1455 38.1254C63.8221 36.8156 66.5317 35.5717 69.194 34.2336C73.122 32.2587 77.3059 31.4619 81.659 31.3968C83.2629 31.3731 84.8678 31.4166 86.4723 31.4176C86.8767 31.4181 87.2814 31.3731 87.7263 31.3464C87.0296 29.75 86.7319 29.3835 85.2445 28.2358C84.4014 28.54 83.582 28.9469 82.7151 29.129C79.4603 29.8138 76.2661 29.408 73.1383 28.3861C70.7715 27.6129 68.4278 26.8113 65.9288 26.4952C62.8401 26.1046 59.7979 26.0768 56.745 26.7807C52.7197 27.7093 49.0361 29.469 45.4346 31.3925C40.3721 34.0964 35.8478 37.5368 31.9265 41.7452C30.6388 43.1269 29.583 44.6767 29.1546 46.5183C28.8445 47.8505 28.8619 49.2554 28.6602 50.617C28.513 51.6118 28.5438 52.7045 27.5616 53.5598C26.5494 51.3076 27.3957 49.0149 26.9624 46.825C25.9393 46.8333 25.1874 47.2076 24.494 47.8687C22.8927 49.3955 21.6802 51.2036 20.5924 53.0986C19.0878 55.7216 17.6158 58.361 17.0022 61.3798C16.4444 64.1255 15.7533 66.8459 15.2596 69.6022C14.9897 71.1094 14.9092 72.6692 14.9263 74.2029C14.9396 75.3588 15.1482 76.5562 16.3502 77.2165C17.1891 77.6774 18.0148 78.1635 18.8631 78.6073C22.3658 80.4398 26.0778 81.6771 29.9609 82.3871C32.669 82.8821 35.3943 83.2851 38.1045 83.7684C41.6622 84.4028 45.2229 84.9961 48.8528 84.9338C52.8538 84.8652 56.8538 84.7265 60.8543 84.6933C67.629 84.637 74.4043 84.664 81.1594 84.025C82.8 83.8695 84.4477 83.7903 86.0906 83.6535C87.3073 83.5519 88.5249 83.4451 89.7353 83.2861C92.677 82.9001 95.615 82.4876 98.5534 82.0762C100.969 81.7381 103.403 81.4925 105.791 81.0175C110.097 80.1612 114.4 79.2647 118.656 78.1943C122.135 77.3194 125.545 76.1669 128.973 75.1408C129.286 73.829 130.008 72.7154 129.674 71.4275C129.443 71.3105 129.31 71.2121 129.161 71.1722C126.191 70.3738 123.236 71.2527 120.273 71.2725C119.374 71.2786 118.475 71.4253 117.578 71.5287C114.999 71.8253 112.424 72.1637 109.842 72.4247C108.096 72.6004 106.34 72.6705 104.589 72.7923C101.726 72.9903 98.8654 73.2869 95.9993 73.3683C92.4186 73.4697 88.8323 73.4369 85.2495 73.3828C82.9079 73.3475 80.5656 73.2094 78.2286 73.0435C76.9637 72.9532 75.7064 72.7293 74.4512 72.5289C71.6791 72.0871 68.9182 71.5691 66.1389 71.1809C63.1925 70.7694 60.2896 70.1969 57.4725 69.2346C55.9319 68.7081 54.5843 67.8562 53.531 66.6075C52.3938 65.2601 52.4921 63.9744 53.8689 62.9005C54.5691 62.3542 55.3737 61.8942 56.1985 61.5624C58.9891 60.4397 61.9367 60.5285 64.861 60.6573C67.1396 60.7574 69.4115 61.019 71.6865 61.2085C72.2021 61.6714 72.718 62.1341 73.3381 62.6908C72.954 62.7739 72.8029 62.8067 72.6518 62.8393C70.9007 62.7101 69.1358 62.6762 67.4015 62.43C64.5227 62.021 61.6583 62.0542 58.8117 62.536C57.215 62.8063 55.5339 63.0989 54.7063 64.7618C54.8229 65.7693 55.3631 66.4836 56.0878 66.9124C57.176 67.5563 58.3267 68.2418 59.5388 68.5032C63.164 69.2854 66.825 69.914 70.4865 70.5147C72.4735 70.8409 74.4881 71.0048 76.4932 71.2143C79.5009 71.5285 82.5071 72.0089 85.5219 72.0786C91.7084 72.2215 97.901 72.2782 104.071 71.5304C106.919 71.1856 109.793 71.0519 112.654 70.8148C113.978 70.7047 115.303 70.5907 116.624 70.4542C119.423 70.1654 122.223 69.8895 125.015 69.5488C126.219 69.402 127.439 69.2116 128.588 68.844C129.429 68.5744 130.21 68.0416 130.94 67.5192C131.68 66.9903 131.95 65.8821 131.635 65.2291C131.293 64.5206 130.663 64.2963 129.558 64.5499C128.629 64.7634 127.711 65.0228 126.79 65.2664C124.998 65.7402 123.227 66.3279 121.41 66.6659C119.067 67.1017 116.692 67.3813 114.322 67.6519C110.471 68.0922 106.62 68.5711 102.756 68.8447C99.2463 69.0931 95.7197 69.1352 92.2 69.1769C90.5006 69.1971 88.7982 69.0145 87.0982 68.9118C85.2377 68.7991 83.3775 68.6795 81.5181 68.5496C80.1381 68.4532 78.7568 68.367 77.3823 68.2227C74.5843 67.9289 71.7859 67.6332 68.9962 67.2723C66.9453 67.0072 64.9044 66.6594 62.8672 66.3031C62.1245 66.1733 61.6231 65.7632 61.867 64.6904C62.6223 64.7729 63.3484 64.8263 64.0659 64.9357C66.3715 65.2873 68.6692 65.6943 70.9793 66.0142C73.0304 66.2981 75.1102 66.4002 77.1478 66.7521C80.1965 67.2791 83.2652 67.5715 86.3463 67.5878C89.8658 67.6067 93.3863 67.3815 96.9064 67.3713C100.856 67.3596 104.789 67.2695 108.711 66.7161C112.282 66.2122 115.889 65.9416 119.452 65.3882C124.357 64.6272 129.064 63.1793 133.483 60.8611C134.746 60.1983 135.518 59.223 135.861 57.8111C135.12 57.2789 134.408 56.9491 133.482 57.2496C131.619 57.8543 129.74 58.4066 127.868 58.9805C127.718 58.9529 127.568 58.9258 127.251 58.8674C127.918 58.0026 128.532 57.2075 129.145 56.4124C129.378 56.2394 129.611 56.0661 129.843 55.8931C129.939 55.8803 130.027 55.8464 130.108 55.7915C130.236 55.6823 130.365 55.5726 130.493 55.4632C130.602 55.3559 130.71 55.2491 130.819 55.1419C131.136 54.9091 131.159 54.6933 130.781 54.5007C130.278 54.1835 130.497 53.8112 130.824 53.6208C131.73 53.0923 132.681 52.6394 133.614 52.1563C133.625 52.2892 133.636 52.4214 133.647 52.5541C133.193 52.9683 132.74 53.3828 132.111 53.9582C132.767 54.3876 133.227 54.7135 133.711 54.9973C134.262 55.3206 134.844 55.5937 135.399 55.9115C137.17 56.9248 137.408 58.8426 135.946 60.2869C135.415 60.8116 134.883 61.337 134.338 61.8473C133.836 62.3173 133.316 62.7678 132.747 63.2776C133.715 64.8758 133.44 66.3754 132.821 68.016C131.695 71.0054 130.824 74.0906 129.819 77.1268C129.502 78.084 129.098 79.012 128.735 79.9536C128.552 79.697 128.37 79.4406 128.187 79.184C128.246 78.9625 128.304 78.741 128.363 78.5196C128.41 78.4175 128.458 78.3161 128.505 78.2141L128.506 78.2113C128.86 78.073 128.935 77.8719 128.646 77.589C128.585 77.1248 128.337 76.8693 127.851 76.8817C127.43 76.4196 127.282 76.681 127.203 77.1257C127.075 77.1604 126.947 77.1952 126.819 77.2299C126.745 77.2429 126.68 77.2733 126.623 77.3218C126.289 77.3964 125.955 77.4711 125.621 77.5458C125.553 77.48 125.484 77.4145 125.415 77.3487C125.387 77.4453 125.358 77.5419 125.329 77.6385C125.106 77.7145 124.882 77.7907 124.659 77.8671C124.49 77.5185 124.403 77.6548 124.339 77.9212C124.174 77.9436 124.008 77.9662 123.842 77.9887C123.444 77.8582 123.11 77.8615 123.026 78.3815C122.819 78.4271 122.612 78.4731 122.404 78.5187C121.908 77.9347 121.835 78.3698 121.753 78.7882C121.224 78.9221 120.694 79.0559 120.164 79.1896C119.557 79.2339 118.949 79.266 118.345 79.3407C118.288 79.3481 118.264 79.6199 118.224 79.7689C117.795 79.8733 117.367 79.978 116.938 80.0826C116.432 79.5947 116.11 79.6931 115.974 80.3837C115.336 80.5147 114.699 80.646 114.062 80.7771C113.628 80.1961 113.505 80.5642 113.402 80.993C113.196 81.0168 112.989 81.0405 112.783 81.0642C112.673 81.0722 112.564 81.0809 112.455 81.0894C112.024 81.1855 111.593 81.2822 111.163 81.3788C110.787 80.9011 110.62 81.1434 110.506 81.5688C110.19 81.6111 109.874 81.6536 109.557 81.6964C109.084 81.2272 108.743 81.2502 108.587 81.9578C108.273 81.9958 107.959 82.034 107.646 82.0723C107.323 81.5514 107.124 81.7318 106.973 82.1897C106.66 82.2483 106.347 82.3076 106.034 82.3662C105.638 81.8662 105.47 82.102 105.373 82.5697C105.166 82.5972 104.96 82.6248 104.753 82.6524C103.865 82.2158 103.565 82.2629 103.129 82.9079C102.919 82.9355 102.708 82.9631 102.498 82.9904C101.989 82.6359 101.498 82.3849 101.2 83.2208C100.885 83.2529 100.57 83.2855 100.254 83.3181C99.7914 82.8254 99.4525 82.8471 99.2777 83.5523C98.9629 83.5884 98.6477 83.6244 98.3326 83.6604C97.6733 83.1882 97.4038 83.2299 97.0271 83.8632C96.8209 83.8906 96.6142 83.9173 96.4075 83.9447C95.8981 83.6046 95.4035 83.3469 95.1024 84.1768C94.5748 84.2195 94.0468 84.2627 93.5194 84.3055C93.4121 84.205 93.2893 84.0061 93.1994 84.02C92.2597 84.1639 91.3246 84.3381 90.3918 84.522C90.34 84.5324 90.3198 84.7033 90.2848 84.799C89.7555 84.8394 89.2264 84.8798 88.697 84.9202C88.0225 84.4054 87.2932 84.6214 86.5791 84.7894C86.5059 84.8068 86.4879 85.0608 86.4442 85.205C86.1283 85.228 85.812 85.2508 85.4961 85.2736C85.3365 85.1679 85.1685 84.9601 85.018 84.972C83.7351 85.0771 82.4548 85.2148 81.1766 85.3715C81.0954 85.3815 81.0433 85.631 80.9775 85.7689C79.5956 85.8181 78.2132 85.8672 76.831 85.9167C76.7702 85.8351 76.7107 85.6837 76.6482 85.6822C75.1271 85.6473 73.6055 85.613 72.0849 85.6316C71.9492 85.6329 71.8174 85.996 71.6836 86.1909C71.2566 86.1977 70.8295 86.2048 70.4024 86.212C70.2915 86.116 70.1814 85.9391 70.0685 85.9373C68.8249 85.9165 67.5808 85.9109 66.3374 85.9386C66.1889 85.9419 66.0456 86.1699 65.8995 86.2936C61.6231 86.3735 57.3468 86.4536 53.0703 86.534C52.4537 85.9109 52.4882 86.4708 52.4402 86.8803C52.4476 86.9762 52.4498 87.0718 52.447 87.1675C52.5625 87.2772 52.6782 87.387 52.7939 87.4967C53.7414 88.0462 54.6891 88.5955 55.6362 89.145C55.672 90.0664 56.405 89.6624 56.8596 89.7879C56.9942 89.8782 57.1282 89.9681 57.2628 90.058C56.9495 90.2812 56.664 90.6003 56.3155 90.7011C55.9302 90.8127 55.4653 90.6398 55.0741 90.7415C54.4455 90.9043 53.548 90.6757 53.3986 91.6974C53.3343 91.7443 53.2631 91.7612 53.1849 91.748C53.0421 91.839 52.899 91.9299 52.7561 92.0209C52.6945 92.0659 52.6257 92.0839 52.5499 92.0748C51.76 92.08 51.0713 92.2537 50.7991 93.1228C50.199 93.4105 49.5986 93.6977 48.9985 93.9849C48.4518 94.1176 47.9049 94.25 47.3458 94.3855C47.3211 94.1895 47.3026 94.0412 47.2844 93.8927C47.6915 93.5709 48.0988 93.2489 48.5061 92.9269C48.9705 93.0205 49.2445 92.8722 49.2295 92.3574C49.294 92.2986 49.3698 92.2726 49.4569 92.2789C49.593 92.1879 49.7291 92.0969 49.8655 92.0057C49.925 91.9558 49.9936 91.9343 50.0713 91.9406C50.5411 92.0609 50.8412 91.9423 50.8362 91.3965C50.9046 91.3409 50.9825 91.3162 51.0705 91.322C51.5271 91.4202 51.8015 91.2771 51.8011 90.7706C51.8716 90.7134 51.9522 90.6859 52.0429 90.6876C52.1691 90.5847 52.2954 90.4822 52.422 90.3795C52.6174 90.0958 52.8128 89.812 53.0764 89.4292C50.9471 88.4413 48.9861 87.3421 46.7833 86.9141C43.6612 86.3082 40.511 85.8481 37.3785 85.2968C31.9997 84.3504 26.6191 83.4053 21.4072 81.0822C20.9817 81.4891 20.5008 81.9483 20.0201 82.4077C19.633 82.6111 19.3481 82.8595 19.6054 83.3469C19.6011 83.9879 19.5971 84.6286 19.593 85.2697C19.8679 86.7554 20.0983 88.2514 20.4354 89.7228C20.62 90.5283 20.9856 91.2921 21.2694 92.0743C21.3032 92.2704 21.3369 92.4667 21.371 92.6627C21.4502 92.8785 21.529 93.0948 21.6083 93.311C21.5744 93.42 21.5892 93.5218 21.6528 93.6167C21.7635 95.0178 22.0538 96.3637 22.8654 97.5493C22.898 97.7365 22.9305 97.9236 22.9631 98.1106C23.1958 99.0626 23.38 100.031 23.6831 100.96C23.8177 101.373 24.1926 101.708 24.4584 102.078C24.4265 102.148 24.4367 102.21 24.4888 102.266C24.6006 102.484 24.7124 102.701 24.8242 102.919C24.8596 103.022 24.895 103.126 24.9304 103.23C25.0967 103.479 25.2632 103.728 25.4295 103.977C25.4858 104.155 25.542 104.334 25.5987 104.512C25.5934 105.137 25.8138 105.636 26.3927 105.935C26.3579 106.002 26.3668 106.062 26.4191 106.116C26.4094 106.599 26.4904 107.03 27.0249 107.212C27.0753 107.381 27.125 107.551 27.1749 107.72C27.3512 108.048 27.5271 108.376 27.7032 108.703L27.6951 108.692C27.7199 108.957 27.7448 109.223 27.77 109.489C27.1421 109.477 26.514 109.465 25.8863 109.453C25.0654 107.849 24.2234 106.256 23.4316 104.638C22.8018 103.352 22.1129 102.076 21.666 100.724C20.9187 98.4647 20.2461 96.1704 19.7174 93.8508C18.8125 89.8776 17.665 85.93 17.8153 81.7896C17.8561 80.6686 17.4809 79.819 16.4687 79.2877C16.4253 79.2317 16.3725 79.1861 16.3107 79.1503C16.239 79.1559 16.2036 79.1232 16.2041 79.0517C15.9361 78.3376 15.381 78.1943 14.6356 78.2545C14.4222 78.7643 13.6045 79.0509 14.1936 79.8103C14.1017 80.2398 14.0097 80.6697 13.9176 81.0996C13.2945 81.5082 13.7001 82.1443 13.5724 82.6624C13.5518 82.7833 13.5314 82.9047 13.5112 83.0258C12.7964 83.531 12.7767 84.3122 12.6976 85.0702C12.6234 85.3427 12.5491 85.6149 12.4749 85.8878C11.8064 86.5444 11.5018 87.3623 11.4151 88.2763C11.4325 88.3521 11.4197 88.4229 11.3776 88.4887C11.2775 88.4763 11.1774 88.4704 11.0764 88.4704C10.9121 86.6475 10.9779 84.8505 11.6218 83.1064C12.8991 79.6492 12.893 75.9871 13.319 72.3939C13.9298 67.2415 14.8032 62.1508 16.8094 57.318C18.2951 53.7397 20.0563 50.3445 23.0317 47.7408C23.873 47.0044 24.7308 46.2744 25.6492 45.6409C27.285 44.5121 28.7395 43.2307 30.0194 41.6876C32.7589 38.384 35.8889 35.494 39.5937 33.2631C44.4916 30.3136 49.4412 27.4924 54.9742 25.8454C59.785 24.4135 64.5377 24.3985 69.2895 26.0825C71.0486 26.7054 72.8422 27.2319 74.6225 27.7944C76.9096 28.5165 79.2612 28.7452 81.58 28.1657C83.115 27.782 84.6628 27.2108 86.0215 26.412C89.5876 24.3154 93.4836 23.2267 97.4761 22.4833C101.889 21.6618 106.313 21.9332 110.684 22.9527C111.671 23.1829 112.653 23.4408 113.625 23.7302C114.935 24.1212 116.146 24.7765 116.875 25.9355C117.866 27.5122 119.27 28.4736 120.914 29.1907C121.106 29.2745 121.269 29.4245 121.445 29.5437C121.449 29.7213 121.451 29.8989 121.454 30.0767C120.455 29.9769 119.454 29.7773 118.457 29.7943C114.296 29.8644 110.136 29.9966 105.976 30.1167C105.662 30.1254 105.351 30.238 105.036 30.2639C103.185 30.4148 101.333 30.5826 99.4788 30.6771C99.0315 30.6996 98.5715 30.4658 97.7796 30.2639C99.5285 29.3205 100.978 28.8761 102.539 28.8605C106.069 28.8248 109.6 28.8188 113.13 28.789C114.231 28.7795 115.312 28.6525 116.302 28.1342C115.736 25.9235 114.369 24.7452 112.3 24.3455C110.43 23.9842 108.566 23.5059 106.677 23.3442C104.135 23.1269 101.54 22.8869 99.0255 23.1712C96.5809 23.4478 94.1764 24.2721 91.8179 25.0492C90.1754 25.5903 88.6406 26.4578 87.1217 27.1502C87.1217 27.6301 87.0098 27.9866 87.1392 28.1392C88.2591 29.4603 89.4224 30.7446 90.444 31.8946C95.9459 32.3389 99.2328 35.0867 100.407 40.3559C103.053 39.444 105.675 38.604 108.251 37.6371C111.769 36.3166 115.415 35.7867 119.139 35.5778C122.313 35.3998 125.366 36.1634 128.449 36.6864C130.243 36.9906 132.015 37.43 134.08 37.8688C133.576 37.2528 133.279 36.8892 132.981 36.5253C133.112 36.3674 133.244 36.2094 133.375 36.0515Z" fill="#0B0C0A"/>
<path d="M67.126 103.808C64.7091 105.4 63.8122 107.599 64.9777 108.985C66.5624 107.97 66.5843 105.925 67.9769 104.748C67.6312 104.366 67.4024 104.113 67.126 103.808ZM20.0208 82.4073C20.5017 81.9477 20.9826 81.4885 21.4082 81.082C26.62 83.4047 32.0006 84.3503 37.3792 85.2967C40.512 85.8479 43.6621 86.3076 46.7842 86.9135C48.9871 87.3415 50.9479 88.4412 53.0773 89.4286C52.8135 89.8118 52.6184 90.0952 52.4229 90.3789C52.2964 90.4818 52.17 90.5845 52.0436 90.687C51.9531 90.6857 51.8726 90.7133 51.802 90.7702C51.5586 90.9543 51.3148 91.138 51.0714 91.3219C50.9832 91.3158 50.9055 91.3403 50.8371 91.3959C50.582 91.5774 50.3273 91.7589 50.0722 91.94C49.9945 91.9337 49.9261 91.9556 49.8664 92.0056C49.7301 92.0963 49.5939 92.1877 49.4576 92.2787C49.3705 92.2722 49.295 92.2984 49.2305 92.3571C48.9893 92.547 48.7483 92.7368 48.5071 92.9268C48.0997 93.2488 47.6924 93.5703 47.2851 93.8923C46.6433 94.0365 46.2842 94.363 46.4807 95.1589C47.5704 95.2163 48.3898 94.8385 48.9995 93.9848C49.5996 93.6973 50.1999 93.4099 50.8 93.1224C51.503 92.9724 52.1661 92.7553 52.5508 92.0744C52.6264 92.0837 52.6954 92.0657 52.7571 92.0208C52.8999 91.9298 53.0428 91.8388 53.1859 91.7478C53.2641 91.7606 53.3353 91.7439 53.3995 91.6973C54.7863 91.1393 56.1721 91.1645 57.5577 91.7007L57.5534 91.6962C57.5673 92.1226 57.581 92.549 57.5949 92.9752C57.4642 93.1548 57.3337 93.3341 57.2028 93.5139C57.0443 93.6606 56.8853 93.8078 56.7266 93.955C56.2603 94.4928 55.7934 95.0311 55.3269 95.5691C55.2359 95.6657 55.1447 95.7627 55.0533 95.8594C54.9888 95.9197 54.9545 95.994 54.9504 96.0826C54.7537 96.3275 54.557 96.5722 54.3603 96.8175C54.1542 97.0704 53.9484 97.3234 53.7424 97.5767C53.6696 97.6037 53.5969 97.6304 53.5242 97.6573C53.55 97.6936 53.5754 97.7296 53.6012 97.7656C53.413 98.067 53.2252 98.3686 53.0369 98.6704C52.8526 98.9114 52.6685 99.1526 52.4842 99.3936C52.4245 99.4594 52.3936 99.5364 52.3923 99.6257C52.2925 99.7572 52.1926 99.8892 52.0929 100.021C52.0486 100.077 52.0289 100.14 52.0341 100.212C51.5547 100.433 51.1533 100.713 51.1999 101.327C50.5723 102.183 49.6762 102.909 49.8351 104.145C49.78 104.208 49.7249 104.271 49.6693 104.334C49.7422 104.361 49.815 104.387 49.8875 104.413C49.9424 104.496 50.0193 104.542 50.1183 104.551C50.2867 105.166 50.7258 105.331 51.1157 104.884C51.5286 104.41 51.7508 103.771 52.056 103.204L52.0868 103.164C52.1446 103.081 52.2026 102.999 52.2603 102.916C52.3318 102.725 52.4036 102.535 52.4751 102.345C52.6516 102.1 52.8285 101.856 53.005 101.611C53.1583 101.339 53.3112 101.066 53.4642 100.794C53.5952 100.633 53.7259 100.473 53.8568 100.312C54.3611 99.6042 54.8661 98.8957 55.3707 98.1875C55.5707 97.945 55.7704 97.7027 55.9704 97.4604C56.9285 96.3752 57.8864 95.2899 58.8441 94.2047C59.9258 93.6684 60.9936 93.995 62.0625 94.2564C62.2303 94.277 62.3979 94.2972 62.5657 94.3176C63.2631 95.2061 64.328 95.1665 65.2868 95.3947C65.4974 95.4369 65.7076 95.479 65.918 95.5211C66.6238 95.9293 67.3436 96.2541 68.1769 95.8956C68.5929 95.9032 69.0086 95.9108 69.4248 95.9184C69.7581 95.9471 70.0918 95.9753 70.4251 96.004C71.5317 96.0493 72.6388 96.1325 73.7457 96.1331C78.2009 96.136 82.6559 96.1136 87.1109 96.1006C87.6461 96.1985 88.181 96.2969 88.716 96.395C88.9661 96.6379 89.216 96.8811 89.4659 97.1238C89.7488 97.9801 90.0315 98.8362 90.3146 99.6925C90.4108 99.9118 90.5072 100.131 90.6034 100.35L90.6171 100.377C90.6996 100.574 90.7821 100.771 90.8644 100.968C90.9104 101.246 90.9564 101.525 91.0025 101.803C91.0919 101.958 91.1811 102.113 91.2706 102.269C91.4013 102.492 91.5322 102.715 91.6627 102.938C91.6117 102.914 91.558 102.902 91.5016 102.9C91.5179 103.009 91.5342 103.118 91.5505 103.226C91.5639 103.339 91.5772 103.451 91.5904 103.564C91.6032 104.338 91.6162 105.111 91.629 105.885C91.5969 106.069 91.5648 106.253 91.5324 106.437C90.9547 106.431 90.9197 106.788 91.0053 107.225C90.9642 107.391 90.9232 107.555 90.8822 107.72C90.1303 107.726 90.3426 108.283 90.3196 108.705C90.2703 108.937 90.2213 109.17 90.1724 109.402C89.4705 109.421 88.7688 109.441 88.0673 109.46C88.0662 109.309 88.0647 109.157 88.0636 109.006C88.4943 108.578 88.9249 108.15 89.3554 107.723C89.452 107.49 89.5489 107.258 89.6455 107.026C89.7004 106.617 89.7553 106.208 89.8101 105.798C90.5205 105.141 90.5163 104.502 89.797 103.871C89.6837 103.427 89.5949 102.975 89.4514 102.54C89.2829 102.032 89.0171 101.596 88.381 101.602C88.3185 101.535 88.2555 101.466 88.1923 101.398C88.1584 101.489 88.1248 101.579 88.0909 101.669L88.1016 101.646C87.9815 101.898 87.7622 102.148 87.7577 102.402C87.7318 103.872 87.7568 105.342 87.7646 106.811C87.7275 107.013 87.6899 107.214 87.6528 107.415C87.5801 107.528 87.5073 107.641 87.4346 107.755C87.4196 107.959 87.4053 108.163 87.3903 108.367C87.4005 108.472 87.4109 108.578 87.4211 108.684C87.4628 108.751 87.4797 108.825 87.4717 108.905C87.4539 109.089 87.4359 109.274 87.4183 109.459C86.9435 109.497 86.4682 109.567 85.9932 109.567C67.5592 109.573 49.1254 109.573 30.6914 109.567C30.2155 109.567 29.7396 109.498 29.2636 109.461C28.7011 109.286 28.0304 109.33 27.6961 108.691L27.7041 108.703C27.6804 108.294 27.9091 107.749 27.1763 107.72C27.1259 107.55 27.076 107.381 27.0258 107.211C27.1448 106.669 26.9494 106.3 26.4201 106.116C26.3678 106.062 26.3589 106.001 26.3936 105.934C26.0425 105.508 26.4511 104.659 25.5996 104.512C25.5429 104.333 25.4867 104.155 25.4305 103.976C25.5052 103.567 25.4574 103.238 24.9313 103.229C24.8959 103.126 24.8605 103.022 24.8252 102.918C24.7133 102.701 24.6015 102.484 24.4897 102.266C24.4376 102.21 24.4274 102.147 24.4593 102.078C24.0857 100.848 23.7189 99.6166 23.3264 98.3933C23.2878 98.2726 23.0889 98.2033 22.964 98.1102C22.9315 97.923 22.8989 97.7359 22.8663 97.5487C22.7187 96.159 22.5331 94.7807 21.6537 93.6163C21.5901 93.5217 21.5751 93.4196 21.6092 93.3104C21.53 93.0946 21.451 92.8784 21.3717 92.6621C21.3378 92.4661 21.3042 92.27 21.2703 92.0742C21.3098 90.1114 20.5521 88.3111 20.0899 86.4541C19.9919 86.0603 20.3107 85.4226 19.5938 85.2691C19.5981 84.6284 19.602 83.9875 19.6063 83.3463C20.2006 83.2343 19.9587 82.7538 20.0208 82.4073Z" fill="#0743F2"/>
<path d="M97.4153 109.496C95.4558 109.496 93.4963 109.497 91.5369 109.497C92.843 107.469 93.5306 105.302 93.0295 102.867C92.9796 102.772 92.9299 102.678 92.8799 102.583C92.4983 101.397 92.2822 100.12 91.6908 99.0503C91.0115 97.8216 90.7987 96.6157 90.9793 95.2805C91.5143 95.0547 92.0488 94.8293 92.5838 94.6039C94.8001 93.5983 97.2012 92.8688 99.1956 91.5326C104.007 88.3104 109.219 85.9927 114.6 83.9816C115.072 83.805 115.787 83.5614 116.089 83.7744C117.101 84.4892 118.119 85.2725 118.66 86.512C117.877 87.2528 117.003 87.5577 116.092 87.8664C114.489 88.4092 112.888 88.9924 111.367 89.7258C110.287 90.2469 109.391 91.0802 109.261 92.3713C109.441 92.4984 109.482 92.552 109.528 92.557C112.21 92.8434 112.438 93.0555 112.482 95.7768C112.496 96.6422 112.826 97.131 113.574 97.5328C115.336 98.4799 117.488 97.9477 118.46 96.3259C119.033 95.3693 119.584 94.3944 120.23 93.4875C120.944 92.4851 121.753 91.5493 123.119 91.4291C124.503 92.0394 126.103 92.3266 126.938 94.0292C126.507 94.4535 126.112 94.9654 125.604 95.312C124.774 95.8786 123.869 96.3372 122.996 96.8428C122.168 97.3222 121.322 97.7745 120.521 98.296C120.101 98.5696 119.587 98.89 119.985 99.666C120.27 99.6069 120.581 99.5957 120.845 99.4778C122.3 98.8266 123.76 98.1814 125.187 97.4705C126.15 96.9905 127.025 97.0406 127.891 97.6418C128.282 97.9134 128.669 98.1916 129.019 98.4397C129.31 99.1091 129.253 99.6732 128.666 100.044C126.512 101.403 124.435 102.925 121.889 103.51C121.405 103.622 120.924 103.635 120.876 104.335C121.635 105.115 122.491 104.877 123.338 104.515C124.412 104.056 125.448 103.492 126.549 103.115C127.214 102.888 127.97 102.931 128.647 102.856C128.851 103.471 128.984 103.869 129.104 104.232C127.977 106.596 127.977 106.596 123.655 107.645C123.921 108.222 124.175 108.772 124.429 109.323C123.955 109.381 123.48 109.439 123.006 109.498C121.546 107.076 119.696 106.97 118.07 108.411C117.579 108.845 116.973 109.15 116.417 109.516C115.589 108.328 114.51 108.026 113.385 107.626C112.012 107.138 111.066 108.055 109.953 108.266C108.755 106.931 108.755 106.931 107.336 106.486C107.121 106.576 106.862 106.654 106.634 106.784C104.595 107.953 104.596 107.956 102.883 106.479C99.8891 106.29 98.3391 107.145 97.4153 109.496Z" fill="#549737"/>
<path d="M16.4675 79.2888C17.4793 79.8203 17.8547 80.6695 17.8141 81.7907C17.6634 85.9311 18.8109 89.8784 19.7162 93.8517C20.2449 96.1713 20.9175 98.466 21.6644 100.726C22.1117 102.077 22.8004 103.354 23.43 104.64C24.2218 106.257 25.0642 107.85 25.8847 109.454C25.3558 109.494 24.8267 109.567 24.2974 109.568C20.3958 109.578 16.4942 109.573 12.5927 109.573H11.0987C11.0674 109.147 11.026 108.842 11.0257 108.536C11.0223 102.341 11.0229 96.1459 11.0264 89.9512C11.0264 89.7393 11.0668 89.5274 11.0883 89.3155C11.1842 89.0402 11.2802 88.7648 11.3764 88.4895C11.4185 88.4242 11.4309 88.3534 11.4139 88.2774C12.2739 87.706 12.3486 86.7863 12.4733 85.8887C12.5475 85.6162 12.6222 85.3438 12.6964 85.0713C13.3854 84.5558 13.5725 83.8411 13.5095 83.0269C13.53 82.9056 13.5506 82.7846 13.5708 82.6637C13.6861 82.1424 13.8011 81.6215 13.916 81.1004C14.008 80.671 14.1001 80.2411 14.1919 79.8112C14.4457 79.4855 14.6993 79.1597 14.9486 78.8398C15.4004 78.9167 15.8016 78.9847 16.2024 79.0526C16.202 79.1243 16.2378 79.1573 16.3092 79.1512C16.362 79.1972 16.4148 79.2428 16.4675 79.2888Z" fill="#0743F2"/>
<path d="M114.476 94.6888C114.425 95.0705 114.351 95.3302 114.363 95.5859C114.422 96.9097 115.209 97.3504 116.395 96.7514C117.222 96.3337 117.645 95.65 117.792 94.6888H114.476ZM118.531 93.5533C118.859 93.0937 119.349 92.5365 119.69 91.8995C120.191 90.9648 119.789 89.6383 118.901 89.531C117.823 89.4012 116.702 89.5377 115.61 89.6589C115.303 89.6932 114.912 90.0197 114.772 90.3135C114.3 91.2983 113.833 92.314 114.185 93.5533H118.531ZM124.43 109.324C124.175 108.774 123.921 108.223 123.655 107.647C127.978 106.598 127.978 106.598 129.105 104.233C128.984 103.871 128.852 103.472 128.647 102.858C127.971 102.932 127.214 102.889 126.55 103.117C125.449 103.493 124.413 104.058 123.338 104.517C122.491 104.878 121.635 105.116 120.877 104.336C120.925 103.637 121.405 103.623 121.89 103.512C124.436 102.926 126.512 101.404 128.666 100.045C129.254 99.6749 129.31 99.1104 129.019 98.441C128.669 98.1933 128.283 97.9149 127.891 97.6431C127.025 97.0419 126.151 96.9922 125.187 97.4722C123.76 98.1826 122.301 98.8283 120.845 99.4795C120.582 99.5974 120.27 99.6082 119.986 99.6677C119.588 98.8915 120.102 98.5713 120.522 98.2977C121.323 97.7758 122.169 97.3239 122.997 96.8441C123.87 96.3389 124.774 95.8803 125.605 95.3137C126.112 94.9671 126.507 94.4552 126.938 94.0309C126.104 92.3281 124.504 92.0407 123.119 91.4303C121.753 91.5511 120.944 92.4866 120.23 93.4892C119.584 94.3957 119.033 95.371 118.46 96.3276C117.489 97.9492 115.336 98.4816 113.574 97.5341C112.827 97.1322 112.497 96.6439 112.482 95.7781C112.438 93.057 112.21 92.8451 109.529 92.5585C109.482 92.5535 109.441 92.5001 109.262 92.3726C109.392 91.0816 110.287 90.2484 111.368 89.7271C112.889 88.9936 114.49 88.4105 116.092 87.8679C117.004 87.559 117.878 87.2546 118.661 86.5133C118.12 85.274 117.101 84.4907 116.089 83.7761C115.788 83.5632 115.073 83.8063 114.6 83.9828C109.22 85.9944 104.007 88.3119 99.1963 91.5343C97.2016 92.87 94.8003 93.6 92.5844 94.6052L92.5469 94.5629C92.5486 94.3432 92.5503 94.1234 92.5521 93.9039L92.6491 93.8618L92.7544 93.8731C92.8988 93.7752 93.0432 93.6775 93.1876 93.5796C93.4051 93.479 93.6225 93.3785 93.84 93.2778C93.8893 93.3457 93.9384 93.4135 93.9879 93.4814C94.0298 93.3813 94.0715 93.2808 94.1131 93.1807C94.3945 93.0811 94.6755 92.9812 94.9566 92.8818C95.461 93.029 95.7882 92.9226 95.7667 92.3164L95.8631 92.2665L95.9714 92.2732C96.1154 92.1787 96.2591 92.0843 96.4031 91.9898C97.1328 91.5571 97.8627 91.1246 98.5922 90.6919C98.8154 90.5777 99.0391 90.4635 99.2623 90.3491L99.2549 90.3574C99.992 90.4846 100.546 90.3439 100.586 89.4505C100.781 89.3324 100.977 89.214 101.173 89.0959C101.645 89.1126 102.208 89.2796 102.189 88.4828C102.245 88.4289 102.312 88.4085 102.388 88.4211C103.66 88.2322 104.045 87.9973 104.427 87.1796C104.917 86.9482 105.408 86.7172 105.899 86.4857C106.052 86.3948 106.206 86.304 106.36 86.213C106.948 85.9792 107.537 85.7449 108.126 85.5111C109.156 85.2074 110.191 84.9188 111.211 84.5829C111.35 84.5376 111.411 84.2586 111.507 84.0877C112.148 83.8487 112.788 83.6096 113.428 83.3708C114.234 83.8148 114.625 83.2505 115.027 82.7134L115.143 82.6639L115.268 82.6662C116.029 82.7742 116.681 82.6639 116.962 81.8158C117.135 81.7711 117.308 81.7261 117.481 81.6812C117.732 81.5349 117.982 81.3887 118.233 81.2422C118.781 81.2776 119.328 81.313 119.876 81.3484C119.852 81.6221 119.828 81.8961 119.804 82.1699C118.747 81.9884 118.044 82.6493 117.166 83.2173C117.475 83.6035 117.707 83.9474 117.991 84.2406C119.577 85.8748 120.813 85.6805 121.947 83.6333C122.234 83.6415 122.522 83.6496 122.809 83.6576C123 85.0819 122.467 86.1001 121.194 86.8088C120.57 87.156 119.894 87.5735 119.889 88.7414C120.266 89.0716 120.795 89.5325 121.323 89.9939C121.672 90.0243 122.021 90.0547 122.371 90.0855C123.021 90.3063 123.665 90.5473 124.323 90.7436C125.528 91.1031 126.553 91.7601 127.387 92.6748C127.726 93.0463 128.053 93.5589 128.103 94.037C128.2 94.9619 128.633 95.6048 129.285 96.2049C130.837 97.6318 131.196 99.027 130.407 100.915C130.057 101.752 129.959 102.556 130.207 103.39C130.544 104.526 130.253 105.502 129.512 106.345C128.743 107.22 127.949 108.083 127.083 108.858C126.335 109.529 125.424 109.8 124.43 109.324Z" fill="#090F09"/>
<path d="M90.9799 95.2809C90.7995 96.6166 91.0118 97.8224 91.6914 99.0509C92.283 100.121 92.4989 101.398 92.8805 102.584C92.9305 102.678 92.9804 102.773 93.0304 102.868C93.5312 105.302 92.8439 107.47 91.5373 109.498C91.3271 109.485 91.1169 109.473 90.9068 109.46C90.8607 109.085 91.7244 108.646 90.8282 108.33C90.8462 108.127 90.8638 107.924 90.8818 107.721C90.9228 107.556 90.9641 107.391 91.0051 107.226C91.1805 106.963 91.3564 106.701 91.5323 106.438C91.5644 106.254 91.5965 106.07 91.6289 105.885C91.7205 105.848 91.8145 105.819 91.9111 105.796C92.1217 105.639 92.5349 105.422 92.5091 105.334C92.3623 104.829 92.1107 104.356 91.8948 103.872C91.8521 103.797 91.8449 103.718 91.8736 103.637C91.8032 103.404 91.7329 103.171 91.6623 102.939C91.5314 102.716 91.4009 102.492 91.27 102.269C91.1807 102.114 91.0913 101.959 91.0023 101.803C90.9562 101.525 90.9102 101.247 90.8642 100.968C90.7817 100.772 90.6994 100.574 90.6169 100.377L90.603 100.351C90.5974 100.14 90.5922 99.9293 90.5867 99.7185C90.671 99.6675 90.8312 99.5765 90.8288 99.5713C90.3944 98.7447 90.458 97.6377 89.4655 97.1246C89.2154 96.8815 88.9655 96.6385 88.7158 96.3958C88.3196 95.7338 88.0354 95.6817 87.1105 96.1009C82.6555 96.1142 78.2003 96.1368 73.7453 96.1335C72.6382 96.1328 71.5316 96.0497 70.4247 96.0045C70.1459 95.3382 69.8101 95.3386 69.4245 95.9188C69.0085 95.9114 68.5923 95.904 68.1765 95.8966C67.5755 95.3814 66.8384 95.3213 66.0976 95.2948C66.0403 95.2926 65.9775 95.4426 65.9178 95.5219C65.7072 95.4793 65.4971 95.4372 65.2867 95.3951C64.5834 94.5216 63.545 94.4943 62.5653 94.3182C62.3977 94.2976 62.2299 94.2774 62.0623 94.257C61.9505 94.0496 61.8636 93.6833 61.7229 93.6614C60.9873 93.5461 60.2348 93.4562 59.4953 93.4966C59.266 93.509 59.0604 93.9569 58.8438 94.2055C57.8861 95.2909 56.9279 96.376 55.9702 97.4612C55.4372 97.4288 55.2646 97.6939 55.3703 98.1878C54.8655 98.8963 54.361 99.6045 53.8564 100.313C53.7255 100.473 53.595 100.634 53.4641 100.794C53.3108 101.067 53.1577 101.339 53.0049 101.612C52.502 101.621 52.3839 101.908 52.4747 102.346C52.403 102.536 52.3314 102.726 52.2599 102.916C52.1672 102.974 52.1093 103.057 52.0867 103.165L52.0559 103.204C51.7473 103.448 51.4494 103.707 51.1275 103.931C50.8037 104.156 50.4555 104.346 50.1179 104.552C50.0189 104.542 49.942 104.496 49.8873 104.413C49.8869 104.321 49.8695 104.232 49.835 104.146C49.676 102.91 50.5719 102.184 51.1995 101.328C51.8761 101.253 52.1987 100.915 52.0339 100.212C52.0285 100.141 52.048 100.078 52.0925 100.022C52.1924 99.8898 52.2921 99.758 52.3919 99.6262C52.3935 99.5372 52.4241 99.4599 52.484 99.3944C52.9866 99.3959 53.1291 99.123 53.0366 98.6707C53.2246 98.3693 53.4128 98.0676 53.6011 97.7662C53.6658 97.7165 53.7127 97.6535 53.7422 97.5771C53.948 97.3242 54.1541 97.0708 54.3599 96.8178C54.8944 96.8437 55.0577 96.5718 54.95 96.0829C54.9543 95.995 54.9887 95.9203 55.0531 95.8601C55.1443 95.7631 55.2353 95.6663 55.3265 95.5696C55.7933 95.0314 56.2599 94.4936 56.7262 93.9554C56.8852 93.8082 57.0437 93.6614 57.2026 93.5142L57.5945 92.9758C58.0567 92.9894 58.2133 92.7504 58.2109 92.3088C58.2087 91.8418 57.9961 91.6603 57.5528 91.6967L57.5573 91.7013C57.5765 91.4169 57.5956 91.1322 57.6192 90.7803C57.9848 90.7505 58.271 90.7273 58.5569 90.7039C58.6655 90.6982 58.7654 90.7251 58.8563 90.7846C59.0465 90.8793 59.2374 90.9737 59.4276 91.0686C59.5618 91.1207 59.6955 91.1726 59.8297 91.2249C59.8872 91.3159 59.9708 91.3674 60.0791 91.3787C60.2079 91.4264 60.3366 91.4744 60.4654 91.5226C60.5548 91.5812 60.6445 91.6405 60.7344 91.6996L60.7722 91.7237C60.9817 91.8181 61.1908 91.9125 61.3999 92.007C61.6218 92.1199 61.8432 92.2324 62.0647 92.3453C62.2028 92.4306 62.3411 92.5157 62.4789 92.601C62.8726 92.7467 63.266 92.893 63.6596 93.0387C63.7032 93.187 63.7089 93.435 63.7962 93.468C64.8125 93.8518 65.8381 94.2105 66.871 94.5477C66.9407 94.5705 67.085 94.3633 67.1951 94.2633C67.6194 94.3104 68.0436 94.3575 68.4681 94.4048C69.1492 95.0219 70.1066 95.0853 71.3642 94.5963C72.8623 94.6093 74.3606 94.6224 75.8587 94.6354C75.9384 95.5306 76.6388 95.2066 77.0865 95.1956C81.708 95.0809 86.3428 95.5316 90.9519 94.892C90.961 95.0214 90.9706 95.1515 90.9799 95.2809Z" fill="#0B0C0A"/>
<path d="M97.4141 109.495C98.3379 107.144 99.8879 106.289 102.882 106.479C104.595 107.955 104.594 107.953 106.633 106.784C106.861 106.653 107.119 106.575 107.335 106.485C108.754 106.93 108.754 106.93 109.952 108.265C111.064 108.054 112.011 107.138 113.384 107.625C114.508 108.025 115.588 108.328 116.416 109.515C116.972 109.149 117.578 108.845 118.069 108.41C119.695 106.969 121.545 107.075 123.004 109.497C122.193 109.401 121.383 109.305 120.296 109.176C118.665 109.968 116.629 109.504 114.638 109.466C114.275 109.459 113.922 108.942 113.553 108.652C112.625 108.366 112.117 109.128 111.455 109.535H109.296C108.726 109.142 108.213 108.788 107.581 108.352C106.309 109.635 104.761 109.725 103.13 109.512C102.956 109.096 102.778 108.674 102.602 108.254C101.408 107.898 101.034 108.624 100.818 109.495H97.4141Z" fill="#090F09"/>
<path d="M123.537 30.6797C126.14 32.0221 128.747 33.3567 131.341 34.7161C131.661 34.8835 131.912 35.1814 132.196 35.4191C132.025 35.4792 131.854 35.5392 131.683 35.5993C130.64 35.2233 129.577 34.8913 128.556 34.4618C125.632 33.2325 122.621 32.5243 119.426 32.6919C116.874 32.8257 114.32 32.9025 111.767 33.0145C111.452 33.0284 111.137 33.0936 110.826 33.1537C108.439 33.6164 106.056 34.1034 103.664 34.54C102.767 34.7037 101.85 34.755 100.924 34.8598C100.781 33.731 101.543 33.5867 102.091 33.4134C104.771 32.5671 107.511 31.8738 110.317 31.7781C114.213 31.6446 118.117 31.7399 122.017 31.7518C122.45 31.7533 122.882 31.8517 123.471 31.9244C123.272 31.5128 123.161 31.2835 123.05 31.054C123.212 30.9292 123.375 30.8047 123.537 30.6797Z" fill="#090F09"/>
<path d="M122.372 90.0851C122.022 90.0547 121.673 90.0239 121.324 89.9935C121.678 89.1179 121.88 88.1337 122.414 87.3872C124.037 85.1203 125.788 82.9455 127.489 80.7344L127.577 80.8114C127.682 81.0199 127.788 81.2287 127.893 81.4374C126.869 82.7737 125.829 84.0984 124.827 85.4508C124.103 86.4276 123.372 87.4085 122.757 88.4533C122.486 88.9133 122.491 89.5362 122.372 90.0851Z" fill="#030B35"/>
<path d="M133.646 52.5534C133.635 52.4208 133.624 52.2886 133.613 52.1559C134.111 51.3081 134.956 50.9479 135.808 50.5977C135.942 50.7179 136.076 50.8382 136.211 50.9585C135.356 51.4902 134.501 52.0217 133.646 52.5534Z" fill="#050D25"/>
<path d="M123.537 30.678C123.375 30.8031 123.212 30.9275 123.05 31.0524L121.454 30.076C121.451 29.8984 121.448 29.7208 121.445 29.543C122.143 29.9214 122.84 30.2998 123.537 30.678Z" fill="#050D25"/>
<path d="M136.212 50.9603C136.077 50.8398 135.943 50.7195 135.809 50.5992L137.324 49.1836C137.442 49.3262 137.561 49.4691 137.679 49.6122C137.19 50.0614 136.701 50.5108 136.212 50.9603Z" fill="#0B0C0A"/>
<path d="M128.188 79.1836C128.371 79.44 128.553 79.6966 128.735 79.9531C128.594 80.2394 128.452 80.5251 128.311 80.8115C128.066 80.8111 127.821 80.8107 127.576 80.8104L127.488 80.7334C127.721 80.2166 127.955 79.7001 128.188 79.1836Z" fill="#030B35"/>
<path d="M133.375 36.0513C133.244 36.2089 133.112 36.3668 132.981 36.525C132.548 36.2161 132.116 35.9071 131.684 35.5984C131.854 35.5383 132.025 35.4781 132.196 35.418C132.589 35.629 132.982 35.84 133.375 36.0513Z" fill="#090F09"/>
<path d="M27.6953 108.691C28.0301 109.33 28.701 109.286 29.2631 109.462C28.7657 109.47 28.2678 109.48 27.7704 109.488C27.7452 109.223 27.7205 108.957 27.6953 108.691Z" fill="#0742EC"/>
<path d="M90.8278 108.328C91.724 108.645 90.8603 109.083 90.9064 109.459C90.6615 109.44 90.4168 109.42 90.1719 109.401C90.2207 109.169 90.2698 108.936 90.3191 108.704C90.4884 108.579 90.6584 108.453 90.8278 108.328Z" fill="#050D25"/>
<path d="M88.0632 109.007C88.0643 109.159 88.0654 109.31 88.0669 109.462C87.8502 109.461 87.6342 109.461 87.418 109.461C87.4356 109.276 87.4538 109.091 87.4714 108.906C87.6685 108.94 87.8659 108.974 88.0632 109.007Z" fill="#0742EC"/>
<path d="M11.3793 88.4868C11.2833 88.7619 11.1871 89.0372 11.0914 89.3125C11.087 89.0313 11.0827 88.7499 11.0781 88.4688C11.1791 88.4688 11.2792 88.4746 11.3793 88.4868Z" fill="#030B35"/>
<path d="M127.574 80.8125C127.819 80.8127 128.064 80.8132 128.309 80.8136C128.17 81.0216 128.03 81.23 127.89 81.4385C127.785 81.2296 127.68 81.0211 127.574 80.8125Z" fill="#0B0C0A"/>
<path d="M54.9379 38.3752C57.0958 36.1161 60.0542 35.3019 62.6208 33.7982C60.277 33.1427 58.4174 34.283 56.6844 35.4822C55.792 36.0998 54.5388 36.7495 54.9379 38.3752ZM51.1486 79.1954C51.9124 78.2144 51.7337 77.4519 50.5367 77.0068C48.444 76.228 46.6975 74.9911 45.1955 73.3751C44.6199 72.7555 43.9751 72.6141 43.1574 72.9707C43.2859 74.2612 43.995 75.1878 44.9163 75.9119C46.7578 77.3594 48.767 78.5258 51.1486 79.1954ZM52.6093 34.2224C53.4268 34.3768 54.2214 34.2835 55.0419 33.9443C58.1427 32.6629 61.3993 31.8835 64.7033 31.4486C67.1748 31.1231 69.6989 31.1946 72.1992 31.0925C72.6263 31.0749 73.0725 31.144 73.4752 31.0395C73.7636 30.9648 73.9944 30.668 74.4266 30.3343C73.9776 30.2073 73.7881 30.1049 73.5994 30.1077C69.9773 30.1635 66.3564 29.8662 62.7319 30.3697C59.3879 30.8339 56.3192 32.1842 53.1013 33.0424C52.59 33.1788 52.3023 33.5594 52.6093 34.2224ZM137.324 49.1835L135.81 50.599C134.958 50.9493 134.113 51.3099 133.615 52.1577C132.682 52.6402 131.731 53.0931 130.825 53.6217C130.498 53.8124 130.279 54.1843 130.783 54.5017C130.796 54.7153 130.808 54.9294 130.82 55.1431C130.712 55.2501 130.603 55.3569 130.495 55.4642C130.366 55.5734 130.238 55.683 130.109 55.7927C130.029 55.8476 129.941 55.8813 129.845 55.8941C129.731 55.5339 129.618 55.1739 129.505 54.8137C129.512 54.5962 129.519 54.3782 129.526 54.1602C130.431 54.1037 130.066 53.4066 130.098 52.9541C130.129 52.5236 130.307 51.9256 129.52 51.915C129.503 51.3807 129.486 50.8468 129.469 50.3125C129.576 50.2187 129.682 50.1249 129.788 50.0311C130.619 49.8949 131.472 49.8331 132.275 49.6005C132.974 49.3982 133.869 49.3943 134.235 48.2501C133.706 48.1988 133.245 48.0547 132.824 48.1309C131.378 48.3923 129.946 48.731 128.508 49.0397C128.212 48.9368 127.865 48.8999 127.629 48.7193C126.308 47.7097 124.78 47.6185 123.239 47.7696C121.577 47.9322 120.016 48.4348 118.922 49.82C118.547 50.2949 118.079 50.7877 118.365 51.5465C118.558 51.4977 118.763 51.5101 118.839 51.4174C120.252 49.6796 122.165 49.4989 124.197 49.6691C125.643 49.7903 127.171 51.2243 127.178 52.7029C127.185 54.1365 126.592 55.0638 124.935 55.5235C123.357 55.9605 121.91 55.7008 120.436 55.2501C117.066 54.2197 113.713 53.1334 110.326 52.1623C108.51 51.641 106.659 51.2224 104.733 51.2582C102.491 51.2992 100.247 51.2615 98.0039 51.2576C98.6973 50.6203 99.3988 49.9916 100.081 49.3426C100.634 48.817 100.779 48.2108 100.318 47.3656C99.9805 47.5662 99.655 47.696 99.413 47.9168C98.6802 48.5857 98.0278 49.3504 97.254 49.9651C96.3581 50.6766 95.3668 51.2684 94.4171 51.9122C93.6557 52.0937 92.8487 52.1697 92.1407 52.4747C89.0331 53.8132 85.9683 55.2497 82.8603 56.5865C80.9355 57.4139 79.0023 58.2656 76.9988 58.8544C74.3226 59.6408 72.5065 58.0196 72.7375 55.3456C73.9522 53.5117 75.5072 52.5581 77.7489 52.8388C78.6995 52.9576 79.4466 53.3677 80.2158 53.8336C80.5371 54.028 80.8873 54.1747 81.3878 54.4248C81.284 53.9815 81.2716 53.765 81.185 53.584C80.386 51.913 77.3028 50.6952 75.2779 51.0676C73.7499 51.3481 72.3688 51.9152 71.0207 52.6289C70.2361 52.5372 69.4332 52.5199 68.67 52.3381C67.1886 51.9849 65.7329 51.5253 64.2587 51.1418C63.892 51.0463 63.4936 51.0715 63.1232 51.042C62.9215 52.05 63.5934 52.2113 64.103 52.3996C66.1359 53.1508 68.2273 53.6762 70.3957 53.8549C70.3885 54.0664 70.4319 54.2954 70.3661 54.4867C69.7641 56.2375 70.0344 57.9011 70.8323 59.5182C71.1117 60.0846 71.4026 60.6459 71.6882 61.2095C69.413 61.0197 67.1411 60.7585 64.8623 60.6582C61.9381 60.5293 58.9901 60.4405 56.2 61.5636C55.3752 61.8951 54.5705 62.355 53.8703 62.9013C52.4936 63.9751 52.3953 65.2611 53.5325 66.6087C54.586 67.8569 55.9332 68.7093 57.474 69.2354C60.2911 70.1979 63.1939 70.7704 66.1406 71.1818C68.9197 71.57 71.6806 72.0883 74.4525 72.5301C75.7078 72.7301 76.9649 72.9544 78.2303 73.0443C80.5669 73.2104 82.9091 73.3486 85.2512 73.384C88.8338 73.4381 92.4199 73.4711 96.0006 73.3691C98.8671 73.2876 101.727 72.9915 104.59 72.7931C106.341 72.6717 108.098 72.6018 109.843 72.4255C112.426 72.1647 115 71.826 117.579 71.5297C118.476 71.4267 119.375 71.2795 120.275 71.2735C123.238 71.2537 126.192 70.375 129.162 71.1734C129.311 71.2129 129.444 71.3112 129.675 71.4287C130.009 72.7164 129.287 73.8298 128.975 75.1418C125.546 76.1679 122.137 77.3201 118.658 78.1953C114.402 79.2659 110.098 80.1624 105.793 81.0187C103.404 81.4935 100.97 81.7391 98.5549 82.0769C95.6165 82.4886 92.6785 82.9011 89.7363 83.2871C88.5263 83.4458 87.3085 83.5531 86.0918 83.6543C84.4493 83.7913 82.8017 83.8705 81.1609 84.0257C74.4058 84.6647 67.6305 84.638 60.8558 84.6942C56.8548 84.7277 52.8549 84.8662 48.8543 84.9348C45.2246 84.9971 41.6632 84.404 38.106 83.7693C35.3953 83.286 32.6705 82.8833 29.9622 82.388C26.0793 81.6779 22.3673 80.4405 18.8646 78.6081C18.0165 78.1647 17.1906 77.6784 16.3517 77.2172C15.1497 76.557 14.9411 75.3598 14.928 74.2041C14.9107 72.6699 14.9912 71.1104 15.2613 69.6034C15.7548 66.8469 16.4459 64.1262 17.0039 61.3806C17.6174 58.3622 19.0888 55.7223 20.5941 53.0996C21.6814 51.2044 22.8938 49.3964 24.4952 47.8701C25.1891 47.2088 25.941 46.834 26.9638 46.826C27.3972 49.0161 26.5509 51.3088 27.5629 53.5609C28.5455 52.7057 28.5147 51.6128 28.6619 50.6177C28.8632 49.2564 28.8462 47.8517 29.1561 46.5194C29.5846 44.6779 30.6405 43.1279 31.928 41.7462C35.8493 37.5382 40.3736 34.0972 45.4356 31.3937C49.0376 29.47 52.7209 27.7101 56.7463 26.7817C59.7993 26.0776 62.8416 26.1056 65.9305 26.4962C68.429 26.8125 70.773 27.6139 73.1398 28.3872C76.2676 29.4092 79.4615 29.815 82.7165 29.1304C83.5831 28.9481 84.4027 28.5412 85.2457 28.2366C86.7336 29.3845 87.0311 29.7514 87.7278 31.3474C87.2827 31.3739 86.8782 31.4188 86.4735 31.4184C84.8692 31.4175 83.2643 31.3739 81.6605 31.398C77.3075 31.4631 73.1235 32.2595 69.1954 34.2346C66.5332 35.5731 63.8238 36.8168 61.1472 38.1262C60.599 38.3943 60.1026 38.7678 59.3041 39.2663C61.5756 39.6916 63.1585 38.7765 64.7494 38.0226C67.1934 36.8647 69.5463 35.5036 72.0316 34.4478C73.724 33.7294 75.5439 33.2862 77.4426 33.2721C79.2492 33.2587 81.0591 32.9738 82.8592 33.0357C86.206 33.1508 89.5548 33.3529 92.8847 33.6931C93.8277 33.7895 94.8016 34.3636 95.5963 34.9444C96.8082 35.8295 97.732 37.0321 98.3463 38.421C98.5445 38.8685 98.5847 39.3861 98.7705 40.1873C98.0317 40.0021 97.5816 39.9456 97.1769 39.7789C94.9677 38.8685 92.7786 37.9089 90.5622 37.0167C89.9324 36.7634 89.2415 36.6422 88.5674 36.5219C84.2353 35.7475 79.8697 36.0946 75.5229 36.2618C73.142 36.3537 70.8264 36.9364 68.6494 38.0476C65.712 39.5474 62.695 40.8909 59.7379 42.3526C59.0535 42.6908 58.4719 43.2369 57.8792 43.6613C58.4304 45.2039 59.5177 45.2943 60.6882 45.2189C60.9281 45.2927 61.1676 45.3668 61.4075 45.441C63.344 45.479 65.2804 45.5168 67.2173 45.555C67.4457 45.6438 67.6739 45.8097 67.903 45.8103C73.1795 45.8249 78.4559 45.8264 83.732 45.8073C84.0006 45.8067 84.2681 45.6002 84.5364 45.4894C87.7549 45.4072 90.9737 45.3247 94.1924 45.2419C95.1301 45.6922 96.0616 45.5921 96.9902 45.2107C97.7561 45.202 98.5221 45.1931 99.2881 45.1842C100.474 45.5961 101.66 45.6006 102.846 45.1864C105.345 45.296 107.843 45.4167 110.343 45.5122C113.375 45.6282 116.408 45.7411 119.442 45.8229C123.439 45.9304 127.435 46.022 131.432 46.0826C132.275 46.0952 133.122 45.8635 133.962 45.8866C135.176 45.9202 136.389 46.0659 137.597 46.2059C137.839 46.2339 138.06 46.4515 138.237 46.552C137.875 47.5961 137.6 48.3899 137.324 49.1835Z" fill="#549836"/>
<path d="M98.0043 51.2569C100.248 51.2604 102.491 51.2986 104.734 51.2571C106.66 51.2217 108.511 51.6399 110.327 52.1612C113.713 53.1328 117.067 54.219 120.437 55.2492C121.911 55.7002 123.357 55.9598 124.935 55.5223C126.593 55.0631 127.186 54.1358 127.178 52.7018C127.171 51.2232 125.644 49.7894 124.198 49.668C122.166 49.498 120.252 49.6787 118.84 51.4167C118.764 51.5094 118.559 51.497 118.365 51.5459C118.079 50.7866 118.547 50.2938 118.922 49.8189C120.016 48.434 121.577 47.9315 123.24 47.7685C124.781 47.6174 126.308 47.709 127.629 48.7186C127.866 48.899 128.212 48.9357 128.508 49.0391C128.49 49.7004 128.863 49.9809 129.474 50.0313C129.465 50.1246 129.464 50.218 129.47 50.3114C129.487 50.8457 129.503 51.38 129.52 51.9141C129.523 52.6625 129.524 53.4111 129.527 54.1595C129.52 54.3775 129.512 54.595 129.505 54.813C128.856 55.2277 129.291 55.8847 129.147 56.4127C128.534 57.2076 127.92 58.0027 127.252 58.8674C127.57 58.9254 127.719 58.953 127.869 58.9804C127.172 59.3012 126.362 59.488 125.799 59.9656C123.38 62.0161 120.487 62.5762 117.469 62.8218C116.422 62.9071 115.376 62.9976 114.329 63.086C114.248 62.9112 114.19 62.601 114.083 62.5829C112.469 62.3081 110.85 62.0716 109.232 61.8265C108.95 61.6244 108.694 61.3591 108.381 61.2331C107.608 60.9229 106.779 60.7409 106.027 60.3909C104.109 59.4986 102.268 58.4803 100.839 56.8546C100.621 56.6077 100.25 56.4955 99.911 56.2983C99.4425 56.8761 99.081 57.3891 98.6524 57.8381C97.1914 59.3686 95.5617 60.6925 93.7432 61.7851C93.5156 61.9216 93.3869 62.2232 93.2125 62.4481C91.8072 62.66 90.4478 62.9809 89.4065 64.0546C88.5784 64.2063 87.7501 64.3555 86.9229 64.5101C85.3771 64.7986 83.8412 65.174 82.2829 65.3462C81.4688 65.4365 80.6146 65.1797 79.7805 65.0657C78.9995 64.9588 78.1831 64.9447 77.4495 64.6942C75.8285 64.1412 74.2499 63.4653 72.6536 62.8394C72.8048 62.8066 72.9559 62.774 73.3402 62.6904C72.7199 62.1342 72.204 61.6715 71.6881 61.2086C71.4026 60.645 71.1121 60.0839 70.8327 59.5171C70.0348 57.9004 69.7645 56.2364 70.3665 54.4858C70.4325 54.2943 70.3889 54.0655 70.3961 53.8542C70.9519 53.6224 71.1501 53.2085 71.0212 52.6282C72.369 51.9145 73.7503 51.3474 75.2784 51.0665C77.3034 50.6946 80.3862 51.9121 81.1854 53.5831C81.2721 53.7644 81.2844 53.9808 81.3882 54.4242C80.8878 54.1741 80.5375 54.0273 80.2162 53.8325C79.447 53.3666 78.6999 52.9569 77.7493 52.8379C75.5076 52.557 73.9526 53.511 72.7379 55.3447C72.5069 58.019 74.323 59.6402 76.9994 58.8536C79.0028 58.265 80.936 57.413 82.8607 56.5853C85.9687 55.249 89.0335 53.8121 92.1406 52.474C92.8491 52.169 93.6557 52.0928 94.4175 51.9113C95.6132 51.6931 96.8086 51.4751 98.0043 51.2569Z" fill="#6E4722"/>
<path d="M72.6525 62.8403C74.2485 63.4663 75.8272 64.1421 77.4477 64.6951C78.182 64.9457 78.9982 64.9598 79.7791 65.0666C80.6131 65.1806 81.4674 65.4375 82.2814 65.3471C83.8398 65.175 85.3757 64.7996 86.9216 64.511C87.7488 64.3564 88.5771 64.2073 89.4052 64.0555C92.3818 64.0696 95.358 64.0916 98.3347 64.095C100.089 64.0968 101.85 64.1608 103.596 64.0349C107.177 63.7765 110.751 63.4094 114.327 63.087C115.374 62.9986 116.421 62.9081 117.468 62.8227C120.486 62.5772 123.379 62.017 125.798 59.9666C126.361 59.4889 127.171 59.3022 127.868 58.9813C129.74 58.4077 131.62 57.8553 133.482 57.2507C134.408 56.9504 135.12 57.2802 135.862 57.8124C135.518 59.224 134.746 60.1991 133.483 60.8622C129.064 63.1803 124.357 64.6278 119.452 65.3893C115.889 65.9427 112.283 66.2134 108.711 66.7171C104.79 67.2706 100.856 67.3609 96.9072 67.3724C93.3866 67.3828 89.8665 67.6077 86.3471 67.5891C83.266 67.5728 80.1973 67.2801 77.1481 66.7534C75.1105 66.4012 73.0307 66.2994 70.9796 66.0152C68.6697 65.6954 66.3722 65.2885 64.0667 64.9368C63.3491 64.8274 62.6231 64.7739 61.8673 64.6912C61.6239 65.7644 62.1252 66.1743 62.868 66.3042C64.9052 66.6607 66.9461 67.0083 68.9965 67.2734C71.7862 67.634 74.5851 67.9302 77.3826 68.2237C78.7576 68.3681 80.1389 68.4545 81.5184 68.5507C83.378 68.6803 85.2381 68.8001 87.099 68.9126C88.799 69.0155 90.5012 69.1981 92.2003 69.1779C95.7204 69.1362 99.247 69.0941 102.756 68.8457C106.62 68.5722 110.471 68.0928 114.322 67.6531C116.692 67.3824 119.067 67.1029 121.41 66.667C123.228 66.3291 124.998 65.7414 126.791 65.2672C127.712 65.0238 128.63 64.7644 129.558 64.5512C130.663 64.2972 131.294 64.5217 131.636 65.2301C131.951 65.8832 131.681 66.9914 130.941 67.52C130.21 68.0426 129.43 68.5754 128.588 68.8451C127.439 69.2127 126.22 69.4031 125.016 69.5498C122.224 69.8905 119.423 70.1667 116.625 70.4552C115.303 70.5918 113.979 70.7058 112.654 70.8154C109.793 71.0529 106.919 71.1867 104.072 71.5317C97.9013 72.2792 91.7088 72.2225 85.5223 72.0797C82.5078 72.0095 79.5016 71.5291 76.4939 71.2153C74.4887 71.0058 72.474 70.8421 70.487 70.5158C66.8258 69.915 63.1648 69.2863 59.5392 68.5044C58.3274 68.2426 57.1767 67.5576 56.0883 66.9132C55.3638 66.4844 54.8232 65.7701 54.707 64.7631C55.5342 63.1002 57.2156 62.8075 58.812 62.5372C61.6586 62.0552 64.5235 62.022 67.4018 62.431C69.1361 62.6773 70.901 62.7113 72.6525 62.8403Z" fill="#A9522B"/>
<path d="M128.189 79.1855C127.955 79.7021 127.722 80.2186 127.489 80.7353C125.788 82.9462 124.037 85.1213 122.414 87.3882C121.88 88.1346 121.678 89.119 121.324 89.9944C120.796 89.5333 120.268 89.0719 119.89 88.7421C119.895 87.5738 120.571 87.1567 121.195 86.8093C122.468 86.1005 123.001 85.0822 122.81 83.6581C122.872 83.0732 122.636 82.6409 122.112 82.3871C121.373 82.0295 120.622 81.6941 119.877 81.3487C119.329 81.3133 118.782 81.2779 118.234 81.2425C117.983 81.389 117.733 81.5356 117.482 81.6817C117.309 81.7267 117.136 81.7716 116.962 81.8165C116.398 82.0999 115.834 82.3832 115.269 82.6668L115.144 82.6646L115.028 82.7141C114.495 82.9332 113.962 83.1522 113.429 83.3711C112.789 83.6104 112.149 83.8492 111.508 84.088C110.257 84.2689 109.108 84.6899 108.127 85.5114C107.538 85.7457 106.949 85.9795 106.361 86.2134C106.207 86.3043 106.053 86.3957 105.9 86.4865C105.409 86.7175 104.918 86.9487 104.428 87.18C103.668 87.462 102.835 87.6244 102.389 88.4219C102.313 88.4093 102.246 88.4297 102.19 88.4831C101.851 88.6876 101.513 88.8919 101.174 89.0964C100.978 89.2145 100.782 89.3327 100.586 89.4508C100.143 89.7534 99.6997 90.0554 99.2561 90.3581L99.2635 90.3496C99.0399 90.4638 98.8167 90.578 98.5933 90.6925C97.8633 91.1252 97.1338 91.5574 96.4043 91.9901C96.2601 92.0846 96.1166 92.1793 95.9727 92.2737L95.8639 92.267L95.7673 92.3171C95.4974 92.5054 95.2275 92.694 94.9574 92.8823C94.6765 92.9819 94.3953 93.0818 94.1144 93.1812C94.0152 93.1908 93.924 93.2229 93.8412 93.2785C93.6235 93.379 93.4059 93.4793 93.1888 93.5799C93.0444 93.678 92.9001 93.7755 92.7557 93.8736L92.6502 93.8623L92.5533 93.9045C90.3253 94.4666 88.0577 94.5688 85.7706 94.5619C82.467 94.5519 79.1634 94.6086 75.8593 94.6368C74.3612 94.624 72.8631 94.611 71.3652 94.5979C70.431 94.0584 69.4422 94.3513 68.4687 94.406C68.0444 94.3591 67.6204 94.312 67.1957 94.2647C66.0172 93.8567 64.8389 93.4483 63.6604 93.0399C63.2668 92.8942 62.8734 92.7485 62.4798 92.6024C62.3417 92.5171 62.2036 92.4318 62.0657 92.3464C61.8443 92.234 61.6224 92.1211 61.4009 92.0086C61.1918 91.9137 60.9823 91.8193 60.7732 91.7248L60.735 91.7007C60.6456 91.6417 60.5559 91.5831 60.4664 91.5238C60.3377 91.4758 60.2089 91.428 60.08 91.3798C59.9968 91.3286 59.9134 91.2776 59.8303 91.2263C59.6965 91.1742 59.5624 91.1219 59.4286 91.07C59.238 90.9756 59.0476 90.8807 58.857 90.7862C58.766 90.7263 58.6661 90.6994 58.558 90.705C58.1266 90.4901 57.6954 90.2749 57.264 90.0598C57.1298 89.9695 56.9954 89.8798 56.861 89.7895C56.4535 89.5754 56.0455 89.3609 55.6378 89.1466C54.6903 88.5971 53.7428 88.0475 52.7955 87.498C52.6798 87.3884 52.5643 87.2787 52.4486 87.1691C52.4514 87.0731 52.4488 86.9776 52.4414 86.8821C52.6516 86.7664 52.8617 86.6511 53.0719 86.5353C57.3482 86.4554 61.6245 86.3751 65.9011 86.2952C66.867 86.3606 67.8325 86.4691 68.7989 86.4741C69.3334 86.4769 69.8688 86.3061 70.4043 86.2134C70.8309 86.2064 71.258 86.1997 71.685 86.1925C73.1186 86.194 74.5527 86.2099 75.9856 86.1836C76.2694 86.1788 76.5504 86.011 76.8324 85.9183C78.2143 85.8692 79.5967 85.8195 80.9787 85.7704C82.485 85.6052 83.9911 85.4402 85.4975 85.2754C85.8136 85.2524 86.1297 85.2294 86.4456 85.2068C87.2088 85.2068 88.0067 85.4821 88.6989 84.9215C89.2278 84.8814 89.7571 84.841 90.286 84.8006C91.3644 84.636 92.4426 84.4717 93.521 84.3071C94.0486 84.2643 94.576 84.2211 95.1036 84.1783C95.5389 84.101 95.974 84.0235 96.4093 83.9462C96.6156 83.9193 96.822 83.892 97.0287 83.8648C97.464 83.7971 97.8987 83.7295 98.334 83.662C98.6493 83.626 98.9641 83.5897 99.2793 83.5537C99.6046 83.476 99.93 83.3978 100.255 83.3194C100.571 83.2871 100.886 83.2547 101.202 83.2222C101.634 83.1455 102.067 83.0686 102.499 82.9922C102.71 82.9647 102.92 82.9371 103.13 82.9095C103.672 82.8246 104.213 82.7393 104.755 82.6544C104.961 82.6268 105.168 82.5988 105.375 82.5712C105.595 82.5037 105.815 82.4358 106.035 82.3678C106.348 82.309 106.661 82.2503 106.974 82.1913C107.199 82.1522 107.422 82.1129 107.647 82.0736C107.961 82.0354 108.274 81.9976 108.588 81.9594C108.912 81.8723 109.235 81.7851 109.558 81.698C109.875 81.6552 110.191 81.6127 110.507 81.5703C110.726 81.5069 110.945 81.4435 111.164 81.3806C111.595 81.284 112.025 81.1873 112.456 81.0907C112.565 81.0823 112.675 81.0742 112.784 81.0658C112.991 81.0419 113.197 81.0182 113.404 80.995C113.623 80.9227 113.843 80.8508 114.063 80.7787C114.7 80.6478 115.338 80.5165 115.975 80.3853C116.296 80.2848 116.618 80.1847 116.939 80.0842C117.368 79.9795 117.796 79.8751 118.225 79.7704C118.872 79.5772 119.519 79.3844 120.166 79.1912C120.695 79.0574 121.225 78.9237 121.755 78.79C121.972 78.7001 122.189 78.6102 122.406 78.5203C122.613 78.4747 122.82 78.4287 123.027 78.3831C123.464 78.5943 123.671 78.3288 123.843 77.9903C124.009 77.9677 124.175 77.9449 124.341 77.9228C124.447 77.9046 124.553 77.8865 124.66 77.8685C124.884 77.7925 125.107 77.7161 125.33 77.6401C125.441 77.6503 125.538 77.6195 125.623 77.5476C125.957 77.4727 126.291 77.398 126.625 77.3233C126.69 77.2925 126.755 77.2621 126.82 77.2313C126.948 77.1968 127.076 77.162 127.205 77.1273C127.421 77.0459 127.637 76.9647 127.853 76.8832C128.339 76.8709 128.586 77.1262 128.647 77.5908C128.601 77.7982 128.554 78.0055 128.508 78.2129L128.506 78.2161C128.459 78.3175 128.411 78.4196 128.364 78.5209C128.306 78.7424 128.247 78.9641 128.189 79.1855Z" fill="#0742EC"/>
<path d="M131.685 35.6001C132.118 35.9091 132.55 36.2181 132.982 36.5268C133.28 36.8907 133.578 37.2544 134.082 37.8703C132.016 37.4315 130.244 36.9921 128.45 36.6879C125.368 36.1649 122.315 35.4015 119.14 35.5793C115.416 35.7882 111.77 36.3182 108.252 37.6386C105.677 38.6057 103.054 39.4455 100.408 40.3574C99.2341 35.0882 95.9468 32.3406 90.4453 31.8962C89.4238 30.7461 88.2605 29.4619 87.1406 28.1407C87.0112 27.9881 87.123 27.6316 87.123 27.1517C88.6419 26.4594 90.1767 25.5918 91.8192 25.0507C94.1775 24.2739 96.5823 23.4493 99.0268 23.1727C101.541 22.8887 104.136 23.1284 106.678 23.3457C108.568 23.5075 110.431 23.9858 112.301 24.347C114.37 24.7468 115.738 25.925 116.304 28.1357C115.313 28.654 114.232 28.781 113.131 28.7903C109.601 28.8201 106.071 28.8264 102.541 28.8622C100.979 28.8776 99.5296 29.322 97.781 30.2654C98.573 30.4673 99.0329 30.7014 99.4801 30.6784C101.335 30.5841 103.186 30.4161 105.038 30.2654C105.353 30.2396 105.663 30.1271 105.977 30.1182C110.137 29.9981 114.298 29.8659 118.459 29.7958C119.456 29.7788 120.457 29.9784 121.455 30.0782L123.051 31.0548C123.162 31.2843 123.273 31.5136 123.473 31.9255C122.883 31.8525 122.452 31.7539 122.02 31.7529C118.119 31.7405 114.215 31.6452 110.319 31.7787C107.513 31.8749 104.772 32.5679 102.093 33.4144C101.545 33.5873 100.783 33.7321 100.925 34.8609C101.851 34.756 102.769 34.7048 103.666 34.5408C106.058 34.104 108.441 33.6174 110.827 33.1546C111.139 33.0942 111.454 33.0295 111.769 33.0156C114.322 32.9034 116.876 32.8267 119.427 32.6925C122.623 32.5251 125.634 33.2336 128.557 34.4627C129.579 34.8919 130.641 35.2239 131.685 35.6001Z" fill="#539437"/>
<path d="M138.695 44.8448C134.334 45.2469 130.327 45.3301 126.176 44.9347C127.571 42.4676 127.192 40.0817 126.546 37.4844C127.411 37.5389 128.099 37.4831 128.733 37.6411C130.434 38.0658 132.134 38.5172 133.795 39.0776C135.841 39.7686 137.452 41.0208 138.241 43.1196C138.42 43.5938 138.504 44.1036 138.695 44.8448Z" fill="#F6F6F5"/>
<path d="M74.4732 37.1445C73.423 38.4776 72.3687 39.4012 71.8726 40.5628C71.3791 41.7176 71.4471 43.112 71.2464 44.5616C70.6817 44.5953 70.0601 44.6615 69.4381 44.6643C66.7211 44.6767 64.0037 44.6717 61.2867 44.6702C60.7135 44.67 60.0756 44.7948 59.8477 43.9498C60.0509 43.2348 60.6977 42.9454 61.3154 42.6577C63.1472 41.8036 64.9959 40.987 66.8273 40.1323C67.9834 39.5925 69.1493 39.0634 70.2575 38.4353C71.4838 37.7401 72.8127 37.5036 74.4732 37.1445Z" fill="#F6F6F5"/>
<path d="M112.727 37.4766C111.5 39.9261 108.997 41.5136 109.953 44.5815C108.66 44.5815 107.501 44.5773 106.342 44.5825C105.169 44.5882 103.995 44.6425 102.824 44.5967C102.31 44.5769 101.743 44.4694 101.307 44.2165C100.161 43.5508 100.161 42.1806 101.32 41.5362C102.151 41.0744 103.064 40.7518 103.962 40.4235C106.56 39.4727 109.167 38.5485 111.774 37.6227C111.957 37.5575 112.163 37.5599 112.727 37.4766Z" fill="#F6F6F5"/>
<path d="M94.1703 44.817C93.3211 44.751 92.4726 44.6776 91.6231 44.621C90.9689 44.5775 90.4255 44.3096 90.3571 43.6331C90.1541 41.6245 89.3397 39.8505 88.3967 38.1118C88.3294 37.9883 88.3566 37.8135 88.3242 37.5195C88.73 37.6211 89.0796 37.6652 89.3942 37.7944C91.904 38.8248 94.4293 39.8233 96.8996 40.9424C97.6437 41.28 98.2748 41.9203 98.873 42.508C99.3515 42.9787 99.4829 43.612 99.1053 44.3826C98.4501 44.5191 97.7284 44.6692 97.0062 44.8192C96.0607 44.8185 95.1156 44.8179 94.1703 44.817Z" fill="#F6F6F5"/>
<path d="M123.972 41.3371C124.011 42.5666 122.232 43.8541 120.961 43.5072C120.758 43.4516 120.564 43.3489 120.377 43.2484C119.572 42.8183 118.704 42.4251 118.769 41.2926C118.812 40.5357 119.71 39.7276 120.77 39.4467C122.135 39.0854 123.935 40.1475 123.972 41.3371Z" fill="#F6F6F5"/>
<path d="M85.0756 41.3921C84.8229 41.7842 84.6397 42.1758 84.362 42.4815C82.9611 44.0222 81.7742 43.6931 80.4237 42.3951C79.803 41.7987 79.8766 41.0935 80.4502 40.4103C81.8584 38.7328 83.8316 39.0917 85.0756 41.3921Z" fill="#F6F6F5"/>
<path d="M117.598 39.3459C117.158 40.9174 116.822 41.2329 115.783 41.2311C114.849 41.2301 114.344 40.7426 114.385 39.8835C114.423 39.1075 115.11 38.5131 115.935 38.6753C116.484 38.7834 116.994 39.0941 117.598 39.3459Z" fill="#F6F6F5"/>
<path d="M76.8096 41.2304C75.6035 40.6785 75.3332 40.2933 75.5627 39.513C75.7609 38.8393 76.2837 38.6357 76.9084 38.6328C77.721 38.6289 78.4141 39.0972 78.4562 39.7123C78.5394 40.9314 77.4677 40.8769 76.8096 41.2304Z" fill="#F6F6F5"/>
<path d="M84.5344 45.4883C84.2662 45.599 83.9988 45.8048 83.7302 45.8059C78.4536 45.825 73.1775 45.8237 67.9009 45.8092C67.6721 45.8085 67.4439 45.6424 67.2148 45.5534C72.9882 45.5317 78.7611 45.5098 84.5344 45.4883Z" fill="#549737"/>
<path d="M114.84 42.8269C115.377 42.2407 116.055 42.2031 116.71 42.5292C116.986 42.6666 117.245 43.0614 117.288 43.3707C117.32 43.5946 117.04 43.9552 116.804 44.1092C115.728 44.8094 114.894 44.2594 114.84 42.8269Z" fill="#F6F6F5"/>
<path d="M78.3951 43.2213C77.1757 44.6443 76.7116 44.6043 75.8672 43.0882C77.0088 41.972 77.3258 41.979 78.3951 43.2213Z" fill="#F6F6F5"/>
<path d="M57.2624 90.0586C57.6939 90.2735 58.1248 90.4887 58.556 90.7039C58.2703 90.7273 57.9844 90.7505 57.6187 90.7807C57.5951 91.1322 57.5757 91.4169 57.5566 91.7017C56.171 91.1652 54.7852 91.14 53.3984 91.698C53.5478 90.6759 54.4454 90.9049 55.0737 90.7416C55.4652 90.6402 55.93 90.8133 56.3154 90.7017C56.6639 90.6009 56.9494 90.2814 57.2624 90.0586Z" fill="#030B35"/>
<path d="M19.5938 85.2695C20.3107 85.4226 19.9922 86.0603 20.0901 86.4543C20.5523 88.3115 21.3098 90.1119 21.2705 92.0742C20.9863 91.2919 20.6209 90.5279 20.4366 89.723C20.099 88.2514 19.8686 86.755 19.5938 85.2695Z" fill="#0742EC"/>
<path d="M76.831 85.9153C76.5489 86.0081 76.268 86.1759 75.9842 86.1809C74.5513 86.2069 73.1172 86.1906 71.6836 86.1896C71.8173 85.9946 71.9489 85.6316 72.0848 85.6303C73.6055 85.6116 75.1273 85.6459 76.6479 85.6809C76.7109 85.6824 76.77 85.8337 76.831 85.9153Z" fill="#030B35"/>
<path d="M70.4016 86.2102C69.8667 86.303 69.3308 86.4734 68.7963 86.471C67.8301 86.466 66.8644 86.357 65.8984 86.2919C66.0443 86.1681 66.1878 85.9402 66.3366 85.9369C67.5798 85.9091 68.8239 85.9147 70.0675 85.9356C70.1804 85.9373 70.29 86.1143 70.4016 86.2102Z" fill="#030B35"/>
<path d="M85.4952 85.2745C83.989 85.4395 82.4827 85.6048 80.9766 85.7696C81.0423 85.6317 81.0945 85.3824 81.1757 85.3727C82.4538 85.2159 83.7341 85.0783 85.0171 84.9732C85.1675 84.9608 85.3356 85.1688 85.4952 85.2745Z" fill="#030B35"/>
<path d="M48.9983 93.987C48.3884 94.8407 47.5692 95.2185 46.4795 95.1612C46.283 94.3652 46.6423 94.0385 47.2841 93.8945C47.3024 94.0428 47.3208 94.1911 47.3454 94.3874C47.9046 94.2519 48.4518 94.1192 48.9983 93.987Z" fill="#030B35"/>
<path d="M22.9648 98.1094C23.0893 98.2025 23.2886 98.2718 23.327 98.3925C23.7198 99.6157 24.086 100.847 24.4599 102.077C24.1939 101.706 23.8192 101.372 23.6844 100.959C23.3815 100.03 23.1972 99.0616 22.9648 98.1094Z" fill="#0742EC"/>
<path d="M21.6523 93.6172C22.5317 94.782 22.7173 96.1598 22.8649 97.55C22.0531 96.3644 21.7631 95.0182 21.6523 93.6172Z" fill="#0742EC"/>
<path d="M93.5197 84.3057C92.4418 84.4703 91.3631 84.6347 90.2852 84.7992C90.3201 84.7033 90.3403 84.5324 90.3924 84.5226C91.3249 84.3383 92.2603 84.1642 93.1999 84.0202C93.2898 84.0063 93.4123 84.2056 93.5197 84.3057Z" fill="#030B35"/>
<path d="M94.1719 44.8164C95.1172 44.8173 96.0623 44.8179 97.0078 44.8186C97.0013 44.9491 96.9946 45.0793 96.9883 45.2096C96.0599 45.5913 95.1287 45.6914 94.1905 45.2411C94.1843 45.0995 94.1782 44.958 94.1719 44.8164Z" fill="#6E4722"/>
<path d="M16.2041 79.0515C15.8033 78.9836 15.4021 78.9154 14.9503 78.8386C14.7011 79.1588 14.4475 79.4843 14.1939 79.8102C13.6051 79.0513 14.4223 78.7643 14.6357 78.2545C15.3815 78.1944 15.9364 78.3379 16.2041 79.0515Z" fill="#030B35"/>
<path d="M88.6981 84.9197C88.0059 85.4803 87.208 85.2055 86.4453 85.205C86.4887 85.0607 86.5065 84.8066 86.5801 84.7897C87.2938 84.6217 88.0233 84.405 88.6981 84.9197Z" fill="#030B35"/>
<path d="M12.4734 85.8867C12.3487 86.7841 12.2741 87.7038 11.4141 88.2754C11.5003 87.3611 11.8053 86.5435 12.4734 85.8867Z" fill="#030B35"/>
<path d="M102.843 45.1853C101.657 45.5996 100.471 45.5952 99.2852 45.1836C100.471 45.1838 101.657 45.1845 102.843 45.1853Z" fill="#090F09"/>
<path d="M13.5128 83.0273C13.5757 83.8415 13.3881 84.5563 12.6992 85.0717C12.7785 84.3138 12.798 83.5326 13.5128 83.0273Z" fill="#030B35"/>
<path d="M120.163 79.1914C119.516 79.3846 118.869 79.5774 118.223 79.7707C118.262 79.6217 118.287 79.3499 118.344 79.343C118.947 79.2678 119.556 79.2357 120.163 79.1914Z" fill="#030B35"/>
<path d="M52.5514 92.0742C52.1669 92.7553 51.5038 92.9724 50.8008 93.1222C51.0728 92.2531 51.7613 92.0794 52.5514 92.0742Z" fill="#030B35"/>
<path d="M129.145 56.4122C129.288 55.8842 128.853 55.2272 129.503 54.8125C129.616 55.1725 129.729 55.5327 129.843 55.8926C129.61 56.0657 129.377 56.2392 129.145 56.4122Z" fill="#539437"/>
<path d="M102.497 82.9916C102.064 83.0682 101.632 83.1451 101.199 83.2215C101.497 82.3858 101.988 82.637 102.497 82.9916Z" fill="#030B35"/>
<path d="M98.3329 83.6622C97.8978 83.7297 97.4624 83.7972 97.0273 83.8648C97.404 83.2314 97.6735 83.1898 98.3329 83.6622Z" fill="#030B35"/>
<path d="M104.754 82.6531C104.212 82.7384 103.671 82.8233 103.129 82.9087C103.565 82.2636 103.866 82.2163 104.754 82.6531Z" fill="#030B35"/>
<path d="M96.4071 83.9438C95.972 84.0213 95.5367 84.0984 95.1016 84.1759C95.4027 83.3461 95.8977 83.6038 96.4071 83.9438Z" fill="#030B35"/>
<path d="M25.5978 104.512C26.4497 104.658 26.0407 105.508 26.3917 105.934C25.8127 105.635 25.5923 105.136 25.5978 104.512Z" fill="#0742EC"/>
<path d="M116.937 80.0813C116.616 80.1819 116.294 80.282 115.973 80.3825C116.11 79.6921 116.432 79.5935 116.937 80.0813Z" fill="#030B35"/>
<path d="M55.6367 89.1445C56.0447 89.3588 56.4524 89.5729 56.8604 89.7874C56.4057 89.6617 55.6725 90.0658 55.6367 89.1445Z" fill="#030B35"/>
<path d="M13.9176 81.0977C13.8026 81.6183 13.6873 82.1396 13.5724 82.6605C13.7001 82.1424 13.2945 81.5065 13.9176 81.0977Z" fill="#030B35"/>
<path d="M109.556 81.6957C109.233 81.7828 108.909 81.8703 108.586 81.9573C108.742 81.2498 109.083 81.227 109.556 81.6957Z" fill="#030B35"/>
<path d="M100.253 83.3177C99.928 83.3958 99.6026 83.474 99.2773 83.5519C99.4519 82.8468 99.791 82.825 100.253 83.3177Z" fill="#030B35"/>
<path d="M26.4188 106.117C26.9481 106.302 27.1433 106.671 27.0245 107.213C26.4898 107.031 26.4086 106.599 26.4188 106.117Z" fill="#0742EC"/>
<path d="M27.1758 107.719C27.9085 107.748 27.6799 108.293 27.7036 108.702C27.5277 108.374 27.3516 108.046 27.1758 107.719Z" fill="#0742EC"/>
<path d="M20.0207 82.4062C19.9588 82.753 20.2004 83.2332 19.6064 83.3453C19.3491 82.8581 19.6335 82.6097 20.0207 82.4062Z" fill="#0742EC"/>
<path d="M114.062 80.7767C113.842 80.8484 113.622 80.9207 113.402 80.9925C113.505 80.5637 113.628 80.1957 114.062 80.7767Z" fill="#030B35"/>
<path d="M50.0703 91.9388C50.3254 91.7573 50.5803 91.576 50.8354 91.3945C50.8402 91.9408 50.5402 92.0591 50.0703 91.9388Z" fill="#030B35"/>
<path d="M53.0719 86.5321C52.8617 86.6478 52.6516 86.7631 52.4414 86.8789C52.4898 86.4692 52.4551 85.9094 53.0719 86.5321Z" fill="#030B35"/>
<path d="M24.9297 103.23C25.4558 103.24 25.5033 103.568 25.4286 103.978C25.2623 103.729 25.096 103.48 24.9297 103.23Z" fill="#0742EC"/>
<path d="M48.5078 92.9289C48.7488 92.7389 48.99 92.5494 49.231 92.3594C49.2462 92.8737 48.972 93.022 48.5078 92.9289Z" fill="#030B35"/>
<path d="M111.164 81.3796C110.945 81.443 110.727 81.5063 110.508 81.5693C110.622 81.144 110.789 80.9017 111.164 81.3796Z" fill="#030B35"/>
<path d="M107.646 82.0703C107.421 82.1096 107.197 82.1489 106.973 82.1879C107.124 81.73 107.323 81.5498 107.646 82.0703Z" fill="#030B35"/>
<path d="M106.036 82.3651C105.816 82.4331 105.595 82.5006 105.375 82.5686C105.472 82.1009 105.64 81.8651 106.036 82.3651Z" fill="#030B35"/>
<path d="M122.405 78.5175L121.754 78.7869C121.834 78.3686 121.908 77.9335 122.405 78.5175Z" fill="#030B35"/>
<path d="M123.843 77.9897C123.671 78.3282 123.464 78.5935 123.027 78.3825C123.112 77.8627 123.445 77.859 123.843 77.9897Z" fill="#030B35"/>
<path d="M127.851 76.8799C127.635 76.9613 127.419 77.0425 127.203 77.1239C127.282 76.6793 127.43 76.4177 127.851 76.8799Z" fill="#030B35"/>
<path d="M51.0703 91.321C51.3139 91.1371 51.5575 90.9534 51.8011 90.7695C51.8013 91.2761 51.5271 91.4191 51.0703 91.321Z" fill="#030B35"/>
<path d="M128.508 78.2123C128.554 78.005 128.601 77.7972 128.647 77.5898C128.937 77.873 128.861 78.074 128.508 78.2123Z" fill="#030B35"/>
<path d="M130.819 55.1411C130.806 54.9275 130.794 54.7136 130.781 54.5C131.159 54.6926 131.136 54.9084 130.819 55.1411Z" fill="#6E4722"/>
<path d="M16.4708 79.2861C16.418 79.2401 16.3653 79.1945 16.3125 79.1484C16.3744 79.1843 16.4271 79.2303 16.4708 79.2861Z" fill="#030B35"/>
<path d="M125.621 77.5452C125.536 77.6173 125.439 77.6481 125.328 77.6377C125.357 77.5413 125.386 77.4443 125.415 77.3477C125.483 77.4134 125.552 77.4792 125.621 77.5452Z" fill="#030B35"/>
<path d="M124.659 77.8651C124.553 77.8831 124.446 77.9011 124.34 77.9191C124.404 77.6527 124.49 77.5168 124.659 77.8651Z" fill="#030B35"/>
<path d="M126.821 77.2305C126.755 77.2613 126.69 77.2917 126.625 77.3225C126.682 77.2743 126.747 77.2435 126.821 77.2305Z" fill="#030B35"/>
<path d="M88.0639 109.005C87.8665 108.971 87.6692 108.937 87.472 108.903C87.4803 108.824 87.4631 108.75 87.4215 108.682C87.4113 108.577 87.4008 108.471 87.3906 108.366C87.4056 108.162 87.4199 107.958 87.4349 107.754C87.5074 107.64 87.5804 107.527 87.6531 107.414C87.6905 107.213 87.7276 107.011 87.7649 106.81C88.2823 105.76 88.443 104.677 88.202 103.511C88.0774 102.908 88.1295 102.268 88.1019 101.644L88.0913 101.668C88.197 101.685 88.2936 101.662 88.3813 101.602C89.0175 101.595 89.2832 102.03 89.4517 102.539C89.5952 102.973 89.6842 103.426 89.7974 103.87C89.8017 104.513 89.8063 105.155 89.8104 105.798C89.7557 106.206 89.7007 106.615 89.646 107.025C89.5494 107.257 89.4524 107.489 89.3557 107.721C88.9252 108.149 88.4947 108.577 88.0639 109.005Z" fill="#030B35"/>
<path d="M67.124 103.809C67.4004 104.114 67.6293 104.367 67.9749 104.749C66.5823 105.926 66.5604 107.971 64.9757 108.986C63.8102 107.6 64.7071 105.401 67.124 103.809Z" fill="#050D25"/>
<path d="M88.1014 101.645C88.129 102.268 88.0768 102.908 88.2015 103.511C88.4425 104.677 88.2818 105.76 87.7644 106.811C87.7568 105.341 87.7316 103.871 87.7575 102.402C87.762 102.147 87.9813 101.897 88.1014 101.645Z" fill="#0742EC"/>
<path d="M58.8438 94.2068C59.0604 93.9584 59.2658 93.5105 59.4951 93.4981C60.2346 93.4577 60.9873 93.5476 61.7229 93.6625C61.8636 93.6848 61.9505 94.0511 62.0621 94.2584C60.9932 93.9968 59.9254 93.6703 58.8438 94.2068Z" fill="#030B35"/>
<path d="M89.4648 97.125C90.4573 97.6385 90.3937 98.7451 90.8281 99.5717C90.8309 99.5771 90.6705 99.6681 90.5862 99.7189C90.4948 99.7148 90.4043 99.7065 90.3138 99.6937C90.0311 98.8376 89.748 97.9813 89.4648 97.125Z" fill="#050D25"/>
<path d="M50.1172 104.551C50.4546 104.345 50.8024 104.155 51.1266 103.929C51.4485 103.706 51.7464 103.447 52.0545 103.203C51.7492 103.77 51.5274 104.41 51.1144 104.883C50.7242 105.331 50.2855 105.166 50.1172 104.551Z" fill="#030B35"/>
<path d="M62.5664 94.3164C63.5458 94.4925 64.5847 94.5198 65.2877 95.3933C64.3287 95.1656 63.2636 95.2048 62.5664 94.3164Z" fill="#050D25"/>
<path d="M65.918 95.5201C65.9781 95.4408 66.0406 95.2908 66.098 95.293C66.839 95.3199 67.5756 95.3796 68.1768 95.8948C67.3435 96.2533 66.6238 95.9281 65.918 95.5201Z" fill="#050D25"/>
<path d="M89.8103 105.799C89.8058 105.156 89.8014 104.514 89.7969 103.871C90.5162 104.502 90.5207 105.141 89.8103 105.799Z" fill="#0742EC"/>
<path d="M87.1094 96.1008C88.0343 95.6813 88.3185 95.7334 88.7147 96.3954C88.1798 96.297 87.6443 96.1991 87.1094 96.1008Z" fill="#050D25"/>
<path d="M57.5508 91.6959C57.9941 91.6595 58.2065 91.841 58.2091 92.308C58.2115 92.7496 58.0547 92.9887 57.5927 92.975C57.5788 92.5486 57.5647 92.1221 57.5508 91.6959Z" fill="#030B35"/>
<path d="M52.0332 100.211C52.1984 100.914 51.8758 101.252 51.199 101.326C51.1521 100.712 51.5538 100.432 52.0332 100.211Z" fill="#030B35"/>
<path d="M91.8734 103.638C91.8447 103.719 91.8517 103.798 91.8947 103.873C91.8999 104.515 91.9055 105.156 91.911 105.797C91.8146 105.82 91.7205 105.85 91.6285 105.887C91.6157 105.113 91.6027 104.34 91.5898 103.566C91.688 103.576 91.7824 103.6 91.8734 103.638Z" fill="#0742EC"/>
<path d="M69.4258 95.9175C69.8114 95.3369 70.1473 95.3369 70.426 96.003C70.0923 95.9744 69.7591 95.9461 69.4258 95.9175Z" fill="#050D25"/>
<path d="M90.8283 108.331C90.659 108.457 90.4892 108.582 90.3196 108.707C90.3426 108.285 90.1303 107.728 90.8822 107.723C90.8646 107.925 90.8465 108.129 90.8283 108.331Z" fill="#0742EC"/>
<path d="M91.5313 106.438C91.3554 106.7 91.1795 106.963 91.0039 107.225C90.9179 106.788 90.9533 106.431 91.5313 106.438Z" fill="#0742EC"/>
<path d="M52.4734 102.347C52.3824 101.909 52.5005 101.623 53.0034 101.613C52.8269 101.858 52.6499 102.102 52.4734 102.347Z" fill="#030B35"/>
<path d="M53.0372 98.6719C53.1294 99.1241 52.9872 99.3968 52.4844 99.3955C52.6687 99.1543 52.8528 98.9133 53.0372 98.6719Z" fill="#030B35"/>
<path d="M55.3693 98.1867C55.2638 97.6928 55.4362 97.4277 55.969 97.4596C55.7691 97.7019 55.5691 97.9442 55.3693 98.1867Z" fill="#030B35"/>
<path d="M54.9497 96.082C55.0572 96.571 54.8937 96.8428 54.3594 96.817C54.5561 96.5721 54.753 96.3269 54.9497 96.082Z" fill="#030B35"/>
<path d="M91.8724 103.635C91.7814 103.597 91.6869 103.573 91.5888 103.563C91.5756 103.45 91.5623 103.338 91.5489 103.225C91.5326 103.116 91.5163 103.007 91.5 102.898C91.5565 102.9 91.6101 102.913 91.6611 102.937C91.7314 103.17 91.802 103.402 91.8724 103.635Z" fill="#050D25"/>
<path d="M90.3125 99.6914C90.4026 99.704 90.4936 99.7122 90.5848 99.7164C90.5902 99.9274 90.5954 100.138 90.6008 100.349C90.5049 100.13 90.4087 99.9107 90.3125 99.6914Z" fill="#0742EC"/>
<path d="M88.3803 101.603C88.2926 101.664 88.1956 101.686 88.0898 101.669C88.1237 101.578 88.1578 101.489 88.1917 101.398C88.2544 101.466 88.3174 101.535 88.3803 101.603Z" fill="#0742EC"/>
<path d="M52.0859 103.162C52.1087 103.055 52.1667 102.972 52.2594 102.914C52.2017 102.997 52.1437 103.08 52.0859 103.162Z" fill="#030B35"/>
<path d="M53.7416 97.5781C53.7123 97.6545 53.6652 97.7175 53.6005 97.767C53.5747 97.731 53.5493 97.6949 53.5234 97.6589C53.5962 97.632 53.6689 97.605 53.7416 97.5781Z" fill="#030B35"/>
<path d="M49.8338 104.145C49.8686 104.231 49.886 104.32 49.8862 104.412C49.8132 104.386 49.7405 104.36 49.668 104.333C49.7231 104.27 49.7787 104.207 49.8338 104.145Z" fill="#030B35"/>
<path d="M90.9811 95.2814C90.9718 95.152 90.9622 95.0219 90.9531 94.8925C91.4848 94.7824 92.0163 94.6724 92.5483 94.5625L92.5856 94.6048C92.0506 94.8302 91.5161 95.056 90.9811 95.2814Z" fill="#090F09"/>
<path d="M118.532 93.5517H114.186C113.834 92.312 114.301 91.2966 114.773 90.3117C114.913 90.0182 115.305 89.6914 115.612 89.6571C116.703 89.5358 117.824 89.3992 118.903 89.5295C119.791 89.6367 120.192 90.9631 119.692 91.8975C119.35 92.5346 118.86 93.0921 118.532 93.5517Z" fill="#539437"/>
<path d="M92.5475 94.5613C92.0158 94.6714 91.4843 94.7812 90.9526 94.8913C86.3435 95.5314 81.7087 95.0806 77.0872 95.1948C76.6395 95.2063 75.9391 95.5301 75.8594 94.6351C79.163 94.6069 82.4669 94.55 85.7705 94.5598C88.0576 94.5669 90.3254 94.4647 92.553 93.9023C92.5512 94.1221 92.5493 94.3416 92.5475 94.5613Z" fill="#050D25"/>
<path d="M121.945 83.6307C120.811 85.6779 119.575 85.8722 117.989 84.238C117.704 83.9449 117.473 83.601 117.164 83.2147C118.042 82.6467 118.745 81.9858 119.802 82.1673C120.434 82.7759 121.559 82.663 121.945 83.6307Z" fill="#539437"/>
<path d="M114.474 94.6875H117.79C117.643 95.6487 117.22 96.3324 116.393 96.7501C115.207 97.3491 114.42 96.9084 114.361 95.5846C114.349 95.3289 114.423 95.0692 114.474 94.6875Z" fill="#F6F6F5"/>
<path d="M121.948 83.6326C121.562 82.6649 120.437 82.7778 119.805 82.1692C119.829 81.8954 119.853 81.6214 119.877 81.3477C120.622 81.6927 121.373 82.0281 122.112 82.3861C122.635 82.6395 122.872 83.0722 122.81 83.6571C122.523 83.6489 122.235 83.6408 121.948 83.6326Z" fill="#050D25"/>
<path d="M108.125 85.5093C109.106 84.6873 110.256 84.2664 111.507 84.0859C111.41 84.2568 111.349 84.536 111.211 84.5812C110.191 84.9166 109.156 85.2056 108.125 85.5093Z" fill="#050D25"/>
<path d="M102.387 88.4216C102.832 87.6241 103.665 87.4617 104.425 87.1797C104.044 87.9978 103.658 88.2323 102.387 88.4216Z" fill="#050D25"/>
<path d="M113.43 83.3684C113.963 83.1493 114.496 82.9302 115.029 82.7109C114.627 83.2481 114.236 83.8128 113.43 83.3684Z" fill="#050D25"/>
<path d="M115.27 82.6666C115.834 82.3831 116.398 82.0997 116.963 81.8164C116.682 82.664 116.031 82.7745 115.27 82.6666Z" fill="#050D25"/>
<path d="M99.2539 90.3563C99.6973 90.0539 100.141 89.7517 100.584 89.4492C100.545 90.3429 99.9908 90.4838 99.2539 90.3563Z" fill="#050D25"/>
<path d="M101.172 89.0938C101.51 88.8893 101.849 88.685 102.188 88.4805C102.208 89.2773 101.644 89.1108 101.172 89.0938Z" fill="#050D25"/>
<path d="M94.957 92.8816C95.2271 92.6933 95.497 92.5046 95.7671 92.3164C95.789 92.9222 95.4616 93.0288 94.957 92.8816Z" fill="#050D25"/>
<path d="M93.8398 93.2767C93.9228 93.2216 94.014 93.1892 94.113 93.1797C94.0713 93.28 94.0296 93.3803 93.9875 93.4806C93.9382 93.4126 93.8891 93.3447 93.8398 93.2767Z" fill="#050D25"/>
<path d="M92.7539 93.8715C92.8983 93.7733 93.0427 93.6758 93.1871 93.5781C93.0427 93.6758 92.8983 93.7737 92.7539 93.8715Z" fill="#050D25"/>
<path d="M63.6602 93.0391C64.8387 93.4475 66.0169 93.8554 67.1954 94.2636C67.0858 94.3637 66.941 94.5708 66.8713 94.548C65.8389 94.2108 64.8128 93.8522 63.7967 93.4683C63.7097 93.4353 63.7036 93.1874 63.6602 93.0391Z" fill="#050D25"/>
<path d="M68.4688 94.4058C69.4421 94.351 70.431 94.0582 71.3649 94.5977C70.1073 95.0862 69.1498 95.023 68.4688 94.4058Z" fill="#050D25"/>
<path d="M91.9108 105.795C91.9054 105.154 91.8997 104.513 91.8945 103.871C92.1103 104.355 92.362 104.829 92.5092 105.333C92.5346 105.422 92.1214 105.638 91.9108 105.795Z" fill="#050D25"/>
<path d="M59.8281 91.2266C59.9113 91.2778 59.9947 91.3288 60.0778 91.3801C59.9692 91.3692 59.8861 91.3178 59.8281 91.2266Z" fill="#030B35"/>
<path d="M52.6067 34.2221C52.2997 33.5591 52.5871 33.1787 53.0985 33.0421C56.3165 32.1841 59.3853 30.8336 62.7295 30.3694C66.3536 29.8661 69.9746 30.1632 73.597 30.1071C73.7852 30.1043 73.9752 30.207 74.424 30.334C73.9915 30.6677 73.7609 30.9645 73.4726 31.0392C73.0698 31.1434 72.6241 31.0746 72.197 31.0922C69.6963 31.1945 67.1721 31.1226 64.7007 31.4483C61.3966 31.8829 58.1401 32.6628 55.0392 33.944C54.2188 34.2834 53.4241 34.3763 52.6067 34.2221Z" fill="#090F09"/>
<path d="M51.1472 79.1945C48.7657 78.5247 46.7567 77.3586 44.9151 75.9111C43.9937 75.1872 43.2846 74.2606 43.1562 72.9698C43.9735 72.6131 44.6185 72.7547 45.1941 73.3743C46.6961 74.9901 48.4422 76.227 50.5351 77.0058C51.7323 77.4513 51.911 78.2138 51.1472 79.1945Z" fill="#090F09"/>
<path d="M54.9357 38.3742C54.5366 36.7484 55.7898 36.0988 56.6821 35.4811C58.4152 34.282 60.2748 33.1417 62.6185 33.7972C60.052 35.3009 57.0936 36.1151 54.9357 38.3742Z" fill="#090F09"/>
<path d="M71.0202 52.6299C71.1492 53.21 70.951 53.624 70.3952 53.8557C68.227 53.677 66.1351 53.1514 64.1025 52.4006C63.5929 52.2124 62.9209 52.051 63.1226 51.043C63.4933 51.0718 63.8912 51.0471 64.2582 51.1424C65.7326 51.5263 67.1881 51.9859 68.6695 52.3389C69.4327 52.5209 70.2356 52.5382 71.0202 52.6299Z" fill="#090F09"/>
<path d="M98.0008 51.2557C96.8052 51.4739 95.6097 51.6919 94.4141 51.9101C95.3637 51.2661 96.3551 50.6747 97.2509 49.9628C98.0245 49.3482 98.6769 48.5837 99.4101 47.915C99.652 47.6937 99.9774 47.5643 100.315 47.3633C100.776 48.2089 100.631 48.8149 100.078 49.3403C99.3958 49.9897 98.6943 50.6181 98.0008 51.2557Z" fill="#090F09"/>
<path d="M129.47 50.0324C128.86 49.982 128.486 49.7015 128.505 49.0402C129.942 48.731 131.375 48.3927 132.821 48.1311C133.242 48.0551 133.703 48.1988 134.232 48.2505C133.866 49.3943 132.971 49.3982 132.272 49.601C131.469 49.8335 130.616 49.8954 129.785 50.0315C129.68 50 129.575 50.0005 129.47 50.0324Z" fill="#090F09"/>
<path d="M129.526 54.1595C129.524 53.4111 129.522 52.6625 129.52 51.9141C130.307 51.9247 130.129 52.5226 130.098 52.9532C130.066 53.4054 130.431 54.1028 129.526 54.1595Z" fill="#539437"/>
<path d="M129.472 50.032C129.577 50.0001 129.682 49.9997 129.787 50.0312C129.681 50.1245 129.575 50.2183 129.468 50.3121C129.463 50.2187 129.464 50.1254 129.472 50.032Z" fill="#539437"/>
<path d="M93.2109 62.4465C93.3855 62.2215 93.5142 61.9204 93.7418 61.7836C95.5603 60.6909 97.19 59.3669 98.651 57.8367C99.0798 57.3877 99.4411 56.8746 99.9098 56.2969C100.249 56.4942 100.62 56.606 100.837 56.8531C102.267 58.4789 104.108 59.4974 106.026 60.3897C106.777 60.7397 107.607 60.9212 108.379 61.2319C108.692 61.3574 108.949 61.6232 109.231 61.8249C107.615 62.0387 106.003 62.3985 104.383 62.4363C100.661 62.5229 96.9353 62.453 93.2109 62.4465Z" fill="#539437"/>
<path d="M93.2123 62.4497C96.9367 62.4562 100.662 62.5261 104.385 62.4395C106.004 62.4017 107.616 62.042 109.232 61.8281C110.85 62.0737 112.469 62.3097 114.082 62.5846C114.19 62.603 114.248 62.9133 114.329 63.0878C110.752 63.41 107.178 63.7778 103.597 64.036C101.851 64.1617 100.09 64.0976 98.336 64.0959C95.3593 64.0926 92.3829 64.0703 89.4062 64.0562C90.4475 62.9827 91.8069 62.6618 93.2123 62.4497Z" fill="#0B0C0A"/>
</svg>
