<svg width="150" height="110" viewBox="0 0 150 110" fill="none" xmlns="http://www.w3.org/2000/svg">
<path d="M109.795 32.9618C109.804 33.0932 109.809 33.1684 109.813 33.2439C109.863 33.2089 109.911 33.1753 109.96 33.1405C109.92 33.0967 109.88 33.0528 109.795 32.9618ZM114.548 47.5325C114.521 46.6528 113.982 45.9957 113.264 45.971C112.471 45.9428 111.829 46.6876 111.863 47.5976C111.902 48.5916 112.486 49.2005 113.354 49.1152C114.309 49.0209 114.559 48.3704 114.548 47.5325ZM74.4738 55.0473C74.6522 54.1298 74.9546 53.1424 73.892 52.4615C73.2875 52.0741 71.9686 52.3188 71.7733 52.9592C71.5788 53.5949 71.5788 54.4241 71.8316 55.0271C72.1497 55.7876 73.0875 55.7383 74.4738 55.0473ZM112.909 43.9692C112.961 43.184 112.247 42.4044 111.431 42.3529C110.584 42.3 109.751 43.0549 109.686 43.9367C109.629 44.7095 110.209 45.4768 110.91 45.5587C111.744 45.6553 112.858 44.7713 112.909 43.9692ZM71.7406 51.3989C72.7271 51.3965 73.3639 50.7778 73.4044 49.7836C73.4481 48.685 72.8035 47.9277 71.8003 47.8997C70.8432 47.8739 70.0996 48.6817 70.1208 49.7229C70.141 50.6811 70.8376 51.4022 71.7406 51.3989ZM111.94 39.9904C113.142 39.9904 114.127 39.0649 114.121 37.9392C114.115 36.7833 113.17 35.9219 111.92 35.932C110.529 35.943 109.715 36.6441 109.664 37.8696C109.612 39.1469 110.516 39.9893 111.94 39.9904ZM72.5136 44.3949C72.5338 43.2223 71.3318 42.0383 70.1041 42.0226C68.919 42.0068 67.8674 43.0638 67.8495 44.2917C67.8314 45.4555 68.7448 46.3888 69.9468 46.436C71.5116 46.4979 72.491 45.7195 72.5136 44.3949ZM80.224 47.1371C80.2487 45.7239 78.922 44.295 77.5954 44.3051C76.3463 44.3141 74.9983 45.679 74.9579 46.9753C74.8972 48.886 75.9016 50.1329 77.5258 50.1656C79.2289 50.198 80.1904 49.1208 80.224 47.1371ZM117.915 37.9258C116.458 37.9684 114.955 39.5376 114.961 41.0114C114.969 42.5673 116.603 44.1502 118.117 44.0693C119.621 43.9885 120.823 42.4977 120.743 40.8083C120.669 39.2367 119.344 37.8854 117.915 37.9258ZM77.4506 38.4919C77.9224 38.7571 78.383 39.0446 78.867 39.284C82.4694 41.0566 86.2034 46.0799 85.1319 50.7698C85.0373 51.1842 85.2362 51.665 85.3385 52.3964C86.5977 51.6427 87.6311 51.0933 88.5915 50.4374C91.1529 48.6882 91.4874 46.0293 91.1291 43.2963C90.8113 40.8678 88.8139 39.9274 86.7291 39.2896C83.7309 38.373 80.6465 38.1494 77.4506 38.4919ZM108.528 33.436C102.702 35.8723 97.6612 39.6119 92.7715 42.8144C92.3535 45.1834 92.0009 47.1785 91.5998 49.4467C96.3066 51.3157 101.372 51.6504 106.701 51.2125C106.077 49.26 105.444 47.6402 105.049 45.963C104.147 42.1338 104.544 38.5347 107.315 35.478C107.731 35.0198 108.146 34.5626 108.562 34.1044C108.827 33.9088 109.092 33.7146 109.357 33.519C109.322 33.4325 109.289 33.3471 109.254 33.2606C109.012 33.3191 108.771 33.3774 108.528 33.436ZM118.283 33.2585C123.735 35.7173 125.469 40.4397 125.743 46.3787C127.46 45.3341 128.871 44.5781 130.169 43.6638C133.476 41.3373 132.066 35.7982 128.602 34.7873C125.179 33.7863 121.758 33.0224 118.224 32.6877L116.733 32.5901C116.725 32.6766 116.716 32.762 116.708 32.8473C117.233 32.9844 117.757 33.1214 118.283 33.2585ZM67.9619 39.6973C68.0158 39.5917 68.0696 39.4871 68.1237 39.3827C68.0146 39.4523 67.9057 39.5221 67.7966 39.5917C67.6159 39.6693 67.4339 39.7455 67.2531 39.823C64.739 41.8484 62.1297 43.767 59.7413 45.9327C57.5992 47.8762 55.3582 49.5936 52.732 50.8102C51.9153 51.1878 51.1491 51.6751 49.936 52.347C55.2886 54.4184 60.1558 56.4022 65.8263 56.4325C65.5816 55.7888 65.4972 55.4383 65.3253 55.1383C62.653 50.4799 63.0371 45.7329 66.4218 41.6406C66.8149 41.1643 67.1767 40.6621 67.5528 40.1712C67.6899 40.013 67.826 39.8545 67.9619 39.6973ZM5.04694 109.702C5.04482 104.4 5.1257 99.0962 5.00321 93.7974C4.95149 91.5689 5.52559 89.6301 6.64088 87.7831C7.31608 86.6679 8.0169 85.569 8.76285 84.3717C8.43819 83.7898 8.14173 83.1765 7.77099 82.6125C6.56119 80.7726 5.96475 78.7562 6.26802 76.5748C6.64441 73.8665 7.06899 71.157 7.63839 68.4835C8.31241 65.3191 9.11573 62.1794 9.94797 59.051C11.3689 53.7085 14.1729 49.2398 18.5842 45.8619C19.9534 44.8129 20.9845 43.5267 21.7385 41.9979C23.2807 38.8683 25.4645 36.2769 28.1975 34.1234C31.7157 31.3533 35.1857 28.5213 38.7217 25.7738C44.3081 21.4308 50.6234 19.5045 57.7115 19.946C61.0005 20.1515 64.0864 20.8638 67.0058 22.3914C69.7435 23.8248 72.6753 24.4706 75.6622 23.5373C77.4685 22.9721 79.2018 22.0308 80.8115 21.0107C84.2545 18.8283 87.7851 16.9344 91.865 16.2559C97.6916 15.2876 103.284 15.8346 108.445 18.9024C109.542 19.555 110.528 20.4648 111.394 21.413C112.27 22.3724 113.192 23.0417 114.489 23.3137C118.757 24.2101 122.902 25.475 126.779 27.553C131.772 30.23 133.961 35.96 133.792 40.7016C133.77 41.3081 133.613 41.9629 133.333 42.4965C131.803 45.4216 130.239 48.33 127.524 50.3901C127.141 50.6811 126.786 51.0775 126.562 51.5023C125.899 52.7615 125.221 54.0263 124.731 55.3562C124.494 56.0023 124.479 56.8583 124.692 57.5121C125.033 58.5622 125.531 59.6082 126.179 60.4978C126.837 61.4043 127.044 62.257 126.676 63.2813C125.984 63.3981 125.291 63.5162 124.6 63.633C124.675 62.9489 125.128 62.1446 124.001 61.8075C122.473 62.6635 120.929 63.5296 119.383 64.3956C116.268 65.0292 113.152 65.6616 110.037 66.2952C109.779 66.3773 109.52 66.4581 109.263 66.5402C108.398 66.658 107.533 66.776 106.668 66.8952C105.545 66.9131 104.421 66.93 103.298 66.9478C103.178 66.9568 103.057 66.9659 102.936 66.9749C102.561 66.9862 102.185 66.9972 101.81 67.0073C100.326 66.4064 98.8351 66.4638 97.341 66.9681C95.4685 66.8592 93.596 66.7501 91.7246 66.6413C91.7347 66.3481 91.7458 66.0547 91.7559 65.7627C94.1588 65.8112 96.5615 65.9179 98.9632 65.893C101.54 65.8662 104.117 65.7145 106.694 65.6179C107.056 65.601 107.416 65.5841 107.778 65.5674C109.595 65.3123 111.41 65.0168 113.233 64.8092C116.506 64.4361 119.387 63.0892 122.141 61.3672C123.09 60.7731 123.336 59.9822 123.013 58.988C121.968 55.763 123.473 53.0636 124.766 50.3217C124.892 50.0544 125.149 49.8329 125.382 49.634C126.367 48.795 127.365 47.9728 128.359 47.1437C128.601 46.8844 128.842 46.6236 129.083 46.3641C129.011 46.3013 128.938 46.2383 128.865 46.1755C128.55 46.3462 128.237 46.5157 127.922 46.6855C124.014 48.0493 120.153 49.5689 116.187 50.7329C112.091 51.9347 107.862 52.9007 103.58 52.667C99.771 52.4603 95.9841 51.7191 92.2087 51.0867C91.1529 50.9101 90.2934 50.9788 89.3779 51.5068C88.2558 52.1538 87.0975 52.7526 85.9058 53.2557C84.2512 53.9523 82.5505 54.5374 80.871 55.1755C76.9023 56.6829 72.7922 57.4693 68.5515 57.5906C68.4326 57.5939 68.3134 57.5974 68.1932 57.6019C67.4407 57.604 66.6879 57.6075 65.9354 57.6108C65.5771 57.1503 65.2108 57.1514 64.8389 57.5939C63.9618 57.4862 63.0844 57.3771 62.2058 57.2695C61.9632 57.2525 61.7197 57.2356 61.4759 57.2189C60.9916 57.1874 60.5075 57.1559 60.0232 57.1256C59.8817 57.0548 59.7402 56.984 59.5986 56.9145C56.2344 55.7865 52.87 54.6599 49.5058 53.5321C49.3238 53.4287 49.1418 53.3264 48.9608 53.2232C47.8926 53.0558 46.8255 52.8873 45.7572 52.7187C45.5865 52.6367 45.4146 52.5537 45.2437 52.4705C44.6687 52.4357 44.0937 52.402 43.5184 52.3684C43.2252 52.2772 42.9332 52.1874 42.6401 52.0976C40.9561 51.819 40.4899 51.3505 40.4708 49.9194C40.453 48.5961 40.7809 48.203 42.3175 47.8525C43.4589 47.5932 44.6125 47.3931 45.7605 47.1674C45.8752 47.1011 45.9897 47.036 46.1042 46.9706C47.9466 45.9856 49.8617 45.1139 51.6085 43.9816C53.1542 42.9797 54.5168 41.6899 55.9535 40.5206C59.9177 37.2922 64.2166 34.7323 69.3198 33.7705C69.439 33.755 69.558 33.7402 69.6772 33.7256C73.6684 32.9743 77.6427 33.0516 81.5944 33.9908C83.0604 34.339 84.514 34.7377 86.3842 35.2185C85.3677 33.8166 84.1299 33.7705 83.1277 33.2999C82.9457 33.2011 82.7637 33.1033 82.5818 33.0046C81.8875 32.9496 81.1924 32.8934 80.4969 32.8384C80.3441 32.7608 80.1925 32.6832 80.0397 32.6068C75.4701 32.3226 70.9173 31.4565 66.3151 32.1676C66.1914 32.1846 66.0668 32.2013 65.9422 32.2182C65.6589 32.3383 65.3839 32.49 65.0895 32.5732C61.0567 33.719 57.4398 35.6623 54.2034 38.3133C52.3398 39.84 50.5458 41.4508 48.6822 42.9761C47.4837 43.9579 46.0482 44.3164 44.5159 44.196C44.1644 44.1692 43.8296 43.9153 43.3465 43.7042C43.9834 42.8391 44.6238 42.6336 45.4111 42.7707C45.528 42.7606 45.6448 42.7493 45.7628 42.7392C46.6839 42.2596 47.7073 41.909 48.5071 41.2743C50.7908 39.4648 52.889 37.4124 55.2313 35.6882C58.864 33.0159 62.862 31.1017 67.4654 30.7905C67.9506 30.7747 68.4359 30.7601 68.9211 30.7444C71.5452 30.7423 74.1682 30.7411 76.7923 30.7387C77.4515 30.8321 78.1121 30.9252 78.7728 31.0197C79.3612 31.0723 79.9511 31.1252 80.5397 31.1779C80.6869 31.2543 80.8341 31.3319 80.981 31.4095C82.9897 31.6667 84.9139 32.2194 86.6618 33.2493C87.0695 33.4898 87.2987 34.0357 87.6097 34.4401C87.0909 34.8221 87.0954 35.1982 87.6222 35.5678C87.4863 35.9386 87.3504 36.3093 87.2143 36.6801C87.1043 36.7732 86.9943 36.8665 86.8831 36.9598C86.4707 36.8688 86.0393 36.8293 85.6495 36.6801C82.4572 35.4578 79.2006 34.5839 75.7398 34.7962C73.4032 34.9389 71.0689 35.0983 68.7347 35.2511C68.5515 35.3555 68.3696 35.4601 68.1864 35.5645C66.4735 36.1993 64.7604 36.8338 63.0463 37.4686C62.8944 37.5664 62.7428 37.6642 62.5923 37.7617C59.5279 40.0389 56.4333 42.2753 53.4105 44.6051C51.1503 46.3474 48.9204 48.0862 45.9391 48.3558C45.7617 48.4468 45.583 48.5366 45.4045 48.6264C45.1584 48.6422 44.9125 48.6591 44.6663 48.676C44.5429 48.6737 44.4374 48.7153 44.3485 48.7985C43.5915 48.9511 42.8342 49.1027 41.6964 49.3308C42.1614 49.9914 42.3749 50.6125 42.7917 50.8126C43.4297 51.1191 44.2037 51.2348 44.9247 51.2562C46.5189 51.3056 48.1161 51.2449 49.7124 51.2303C49.8932 51.1248 50.0731 51.0204 50.2538 50.9158C51.0974 50.5304 51.9411 50.1463 52.7846 49.7622C52.9351 49.6578 53.0858 49.5543 53.2374 49.45C56.6263 47.091 59.8817 44.5703 62.7666 41.5933C63.0957 41.2531 63.5506 41.034 63.9481 40.7587C64.1066 40.624 64.2662 40.4893 64.4256 40.3544C66.041 38.8178 68.0146 37.7439 70.1401 37.4977C73.5189 37.1058 76.9529 37.044 80.3622 37.0743C84.7162 37.1124 88.9051 37.8449 92.1504 41.3777C92.7423 41.1273 93.3376 40.952 93.852 40.6419C95.0731 39.9039 96.2448 39.0827 97.4579 38.3302C100.093 36.6923 102.634 34.8545 105.408 33.4966C111.131 30.6917 117.22 31.0556 123.279 32.1013C125.404 32.4688 127.465 33.2089 129.556 33.7785C129.617 33.7842 129.679 33.7943 129.74 33.8088C129.869 33.8267 129.998 33.8436 130.126 33.8615C130.048 33.7842 129.968 33.7066 129.888 33.6302C129.753 33.5234 129.62 33.4167 129.485 33.31C128.715 32.927 127.983 32.4159 127.17 32.1834C121.435 30.5445 115.639 29.1504 109.616 29.6143C107.483 29.7795 105.349 30.2895 103.278 30.868C100.186 31.7306 97.6713 33.7313 95.0115 35.4319C94.2676 35.9082 93.4577 36.2802 92.6782 36.6991C92.5726 36.5754 92.467 36.4532 92.3615 36.3295C92.594 35.9555 92.7468 35.4804 93.0715 35.222C95.9921 32.8943 99.0227 30.7286 102.617 29.548C108.1 27.7474 113.688 27.6935 119.326 28.6506C121.261 28.9786 123.201 29.2729 125.139 29.583C123.002 28.1259 120.822 26.8004 118.34 26.2129C111.955 24.6998 105.492 24.2045 98.9688 25.1188C95.7203 25.5749 92.5152 26.2522 89.4531 27.4991C87.9121 28.1271 86.3348 28.6708 84.7745 29.2515C84.6005 29.3604 84.4275 29.4683 84.2533 29.5762C82.5044 30.4625 82.5044 30.4625 81.1002 30.0671C89.8352 24.1337 99.7035 23.0239 110.08 23.3057C109.235 21.7005 108.085 20.7378 106.766 20.1021C101.264 17.4488 95.5169 17.2544 89.7037 18.8001C86.4921 19.6538 83.6646 21.3725 80.97 23.2968C78.6357 24.9639 76.0812 25.8725 73.1629 25.8995C70.5287 25.9242 68.1653 25.1435 65.8388 24.0585C61.8779 22.2116 57.6937 21.2084 53.3609 21.8185C47.9419 22.5823 42.968 24.6009 38.7083 28.18C35.9046 30.5354 33.1288 32.9326 30.2205 35.1533C28.0637 36.8002 26.1855 38.6819 24.6748 40.8993C23.7064 42.319 22.6798 43.7726 22.5573 45.6071C22.4494 47.2189 22.3506 48.8321 22.1898 50.4385C22.0878 51.4741 22.0765 52.5537 21.4441 53.6163C20.1826 51.4102 21.1935 49.0331 20.369 46.7372C17.3878 49.1354 14.9816 51.8315 13.6752 55.2239C12.1172 59.2689 10.8275 63.432 9.67056 67.6118C8.79553 70.7773 8.31805 74.0383 8.3204 77.3666C8.32134 80.5142 9.58851 82.9867 12.0934 84.6806C15.3354 86.8733 18.8313 88.6415 22.573 89.8635C27.6683 91.5294 32.9525 92.2608 38.2478 92.7742C42.8735 93.2235 47.5331 93.4762 52.1802 93.4941C56.4535 93.5098 60.7276 93.0573 65.0042 92.8854C69.7851 92.6934 74.5704 92.6214 79.349 92.4046C80.1509 92.3675 81.0934 92.0461 81.6922 91.5306C83.3816 90.0814 84.9261 88.4616 86.5281 86.9093C86.7573 86.9105 86.9853 86.9105 87.2143 86.9105C87.2143 87.0294 87.2178 87.1486 87.2235 87.2664C88.3646 89.2008 89.3095 91.3171 91.5629 91.9046C91.766 93.0436 91.9491 93.949 92.0829 94.8623C92.2164 95.7745 92.3413 96.6911 92.3895 97.6089C92.4177 98.1459 92.4109 98.7435 92.2087 99.2231C91.51 100.872 91.474 100.856 93.2208 101.88V103.713C93.2445 104.536 93.0186 105.505 94.3128 105.582C94.5328 106.094 94.7531 106.607 94.9574 107.081C96.4571 106.386 96.747 105.338 96.5706 104.074C96.5683 103.577 96.5671 103.081 96.565 102.584C96.6851 102.212 96.8064 101.84 96.9266 101.469C97.3862 101.24 97.4266 100.989 96.9625 100.716C96.9738 100.348 96.9863 99.9801 96.9985 99.6129C97.2242 99.395 97.4501 99.1759 97.6758 98.9579C97.4671 98.7828 97.2581 98.6074 97.0479 98.4323C97.1636 97.5796 97.2783 96.7283 97.3928 95.8756C97.6243 95.6161 97.8557 95.3567 98.087 95.0984C99.2385 94.7949 99.9776 94.1491 99.9438 92.8584L99.9506 92.8527C100.43 92.8516 100.935 92.9393 101.383 92.8179C101.691 92.7347 101.922 92.3642 102.187 92.1214C102.18 91.9697 102.174 91.8193 102.167 91.6688C102.532 91.67 102.898 91.6721 103.263 91.6733C103.526 91.6923 103.79 91.7104 104.053 91.7295C104.178 91.7363 104.301 91.7429 104.426 91.7464C104.562 92.9898 105.601 93.31 106.451 93.1605C107.518 92.9719 108.352 93.4325 109.288 93.5987C109.655 93.7188 110.021 93.8378 110.389 93.9582C110.375 94.039 110.358 94.1187 110.338 94.1984C107.346 94.7095 104.481 95.5016 101.908 97.2572C100.175 98.4424 98.6037 99.6376 98.2309 101.861C98.1759 101.969 98.1206 102.079 98.0668 102.187C98.0567 102.698 98.0477 103.209 98.0388 103.719C98.0534 103.965 98.0691 104.211 98.0849 104.456L98.095 104.438C98.161 104.569 98.2273 104.7 98.2936 104.832C98.833 106.754 99.8507 108.266 101.817 108.966C101.95 109.071 102.083 109.176 102.215 109.281L102.24 109.287C102.222 109.425 102.204 109.563 102.185 109.702H93.9655C92.712 108.582 91.5403 108.582 89.8566 109.702H86.8673C89.3229 107.089 89.8991 103.863 89.8004 100.446C89.7677 99.2769 89.6294 98.1019 89.4341 96.9472C88.9836 94.2793 88.1547 91.725 87.0829 89.0997C84.4534 90.9151 82.2122 92.8763 80.3667 95.2173C79.6713 96.1003 79.2904 97.309 79.0109 98.4311C78.3357 101.145 79.1019 103.799 79.4748 106.856C80.4937 102.607 81.3148 102.545 83.394 103.235C83.5231 103.847 83.7927 104.602 83.8219 105.365C83.8849 107.065 83.1648 108.487 82.01 109.702H79.7691C81.9797 107.92 82.5717 106.573 82.0493 103.884C81.6821 104.734 81.289 105.242 81.2732 105.761C81.2373 106.968 80.8284 107.874 79.8467 108.596C79.5735 108.797 79.5387 109.325 79.3951 109.702H78.2739C78.1279 109.074 77.9819 108.446 77.8359 107.818C77.7717 107.062 77.7078 106.306 77.6448 105.55C77.9436 104.41 78.3099 103.264 77.4203 102.202C77.3786 101.937 77.3359 101.672 77.2945 101.407C77.3403 100.373 77.3864 99.3411 77.4325 98.3077C77.4797 98.1064 77.527 97.9066 77.5752 97.7065C78.0245 96.7753 78.474 95.8441 78.9232 94.9129C78.994 94.7264 79.0648 94.54 79.1367 94.3545C79.3344 94.2635 79.5331 94.1737 79.7679 94.067C78.73 93.0157 77.1685 92.9259 76.0193 93.7738C75.6331 93.7919 75.2454 93.811 74.858 93.8289C73.8593 93.756 72.8594 93.6189 71.8631 93.6347C71.2565 93.6436 70.6545 93.8862 70.05 94.0245C68.6684 94.0896 67.2879 94.1559 65.9072 94.221C64.4099 93.9133 62.9158 93.6728 61.4578 94.3917C59.2056 94.4737 56.9522 94.5558 54.6988 94.6378C54.4226 94.5433 54.1473 94.3693 53.871 94.367C50.9638 94.3468 48.0555 94.3468 45.1471 94.3658C44.8697 94.3682 44.5935 94.5377 44.317 94.6298C42.7917 94.5736 41.2673 94.5163 39.7418 94.4592C38.9498 93.7649 38.095 93.8155 37.2075 94.2433C36.5763 94.1681 35.945 94.0917 35.3138 94.0165C34.0297 93.4233 32.9805 93.2696 31.9764 93.5268C31.5988 93.4673 31.2203 93.4076 30.843 93.3481C30.5891 92.7225 30.2059 92.7359 29.7465 93.1245C29.3635 93.0549 28.9815 92.9865 28.5997 92.9179C28.3301 92.3732 27.9605 92.3473 27.5157 92.7056C27.1191 92.6169 26.7236 92.5281 26.327 92.4394C26.1733 92.2575 26.0496 91.9608 25.8608 91.9114C24.0704 91.4408 22.2686 91.0126 20.4701 90.5723C20.0658 90.3995 19.6614 90.2265 19.257 90.0535C19.0885 89.2165 18.3785 89.5783 17.8965 89.4368C17.7045 89.3559 17.5112 89.276 17.3191 89.1951C17.2495 89.1413 17.172 89.1032 17.0878 89.0818L17.0272 89.0426C16.6475 87.999 15.6645 88.1471 14.8603 87.9428L14.7919 87.8943C14.5817 87.0565 13.9166 86.9474 13.2113 86.9037C13.0799 86.898 12.9741 86.8418 12.8956 86.7363C12.4419 85.7971 11.5353 85.5702 10.6467 85.4052C10.4377 85.3668 10.1469 85.778 9.89295 85.9826C9.85017 86.0881 9.774 86.1521 9.66374 86.1768C9.48412 86.4488 9.3031 86.7217 9.12231 86.9935C8.98408 87.1992 8.8449 87.4046 8.70572 87.6092C7.77898 87.69 8.11352 88.428 8.01478 88.9403C7.7778 89.4086 7.54177 89.8771 7.30597 90.3455L7.26671 90.4252C7.1903 90.6027 7.1139 90.7801 7.03749 90.9576C6.7803 91.5205 6.52193 92.0821 6.26473 92.6437C6.16811 93.0841 6.07148 93.5244 5.97486 93.9659C5.26722 94.1827 5.25923 94.5692 5.71202 95.0657C5.69392 99.7116 5.68052 104.359 5.64902 109.006C5.64784 109.239 5.50067 109.47 5.42098 109.702H5.04694Z" fill="#080B09"/>
<path d="M65.9044 94.2228C67.2849 94.1577 68.6665 94.0914 70.047 94.0263C71.6647 94.3206 73.2756 94.4777 74.8549 93.8307C75.2424 93.8128 75.6301 93.7938 76.0175 93.7757C76.6882 93.8083 77.3679 93.7914 78.0283 93.8913C78.4112 93.9487 78.7662 94.1946 79.1337 94.3563C79.0629 94.5418 78.9921 94.7283 78.9202 94.9147C78.4709 95.8459 78.0214 96.7771 77.5722 97.7083C77.5249 97.9084 77.4767 98.1082 77.4295 98.3095C76.5378 99.3046 76.6567 100.345 77.2915 101.409C77.334 101.674 77.3756 101.939 77.4172 102.204C77.4925 103.321 77.5677 104.436 77.6418 105.551C77.7059 106.307 77.7687 107.063 77.8329 107.82C77.7295 108.447 77.6272 109.075 77.5249 109.704H5.41797C5.4979 109.472 5.64484 109.24 5.64719 109.008C5.67751 104.361 5.69091 99.7135 5.70902 95.0675C5.79671 94.7003 5.88416 94.334 5.97185 93.9666C6.06848 93.5262 6.1651 93.0859 6.26173 92.6456C6.52009 92.0839 6.77729 91.5211 7.03566 90.9595C7.11206 90.782 7.18729 90.6045 7.2637 90.427L7.38713 90.4035L7.30296 90.3473C7.53994 89.879 7.77597 89.4104 8.01177 88.9421C8.24217 88.4982 8.47232 88.0546 8.70366 87.611C8.84189 87.4065 8.9813 87.201 9.12048 86.9953C9.30033 86.7235 9.48112 86.4506 9.66191 86.1786C9.77193 86.1539 9.84834 86.0899 9.88995 85.9844C10.8907 86.2359 11.8918 86.4875 12.8926 86.7381C12.9713 86.8436 13.0769 86.8998 13.2083 86.9055C13.7352 87.2358 14.263 87.5659 14.7898 87.8962L14.8573 87.9434C15.5795 88.3106 16.3019 88.6781 17.0241 89.0444L17.0848 89.0825C17.1624 89.1205 17.24 89.1589 17.3161 89.1969C17.5094 89.2778 17.7015 89.3578 17.8935 89.4386C18.3475 89.6441 18.8012 89.8496 19.2552 90.0553C19.6596 90.2283 20.0639 90.4013 20.4683 90.5741C22.2745 91.656 24.2178 92.3054 26.324 92.4413C26.7206 92.5299 27.1172 92.6188 27.5136 92.7074C27.8743 92.7781 28.2361 92.8489 28.5967 92.9197C28.9797 92.9883 29.3617 93.0567 29.7435 93.1263C30.1086 93.2006 30.4749 93.2758 30.8409 93.3499C31.2185 93.4094 31.5958 93.4691 31.9734 93.5286C33.0473 93.9576 34.1043 94.4946 35.3108 94.0183C35.942 94.0935 36.5732 94.1699 37.2056 94.2451C38.0506 94.3171 38.8953 94.389 39.74 94.461C41.2643 94.5181 42.7899 94.5743 44.314 94.6316C44.5242 94.7339 44.7343 94.9248 44.9443 94.926C47.9817 94.9438 51.0191 94.9429 54.0556 94.9227C54.27 94.9215 54.4823 94.7384 54.6958 94.6396C56.9492 94.5576 59.2025 94.4755 61.4559 94.3935C62.9387 94.3361 64.4214 94.2799 65.9044 94.2228Z" fill="#0542F3"/>
<path d="M98.2284 101.858C98.6013 99.6345 100.172 98.4392 101.906 97.2551C104.477 95.4982 107.342 94.7064 110.334 94.1953C110.721 94.6312 111.346 95.0165 111.449 95.5118C111.82 97.3012 112.168 99.1222 112.243 100.942C112.365 103.877 112.464 106.839 111.523 109.699H103.303C102.947 109.561 102.592 109.422 102.237 109.284L102.213 109.278C102.079 109.173 101.946 109.068 101.814 108.962C99.847 108.263 98.8293 106.751 98.2912 104.829C98.2249 104.697 98.1576 104.566 98.0913 104.435L98.0822 104.452C98.0667 104.207 98.0509 103.961 98.0352 103.716C98.0441 103.205 98.0542 102.695 98.0631 102.184C98.1181 102.075 98.1732 101.966 98.2284 101.858Z" fill="#539836"/>
<path d="M82.0102 109.704C83.1649 108.489 83.885 107.067 83.8211 105.368C83.7929 104.603 83.5223 103.849 83.393 103.238C81.3138 102.548 80.4926 102.608 79.4737 106.858C79.1009 103.801 78.3359 101.147 79.0108 98.433C79.2894 97.3108 79.6703 96.1022 80.3668 95.2192C82.2123 92.8781 84.4523 90.917 87.083 89.1016C88.1548 91.7269 88.9826 94.2812 89.4342 96.949C89.6296 98.1038 89.7666 99.2788 89.8005 100.448C89.8981 103.865 89.323 107.091 86.8675 109.704H82.0102Z" fill="#539836"/>
<path d="M128.7 92.8588C133.019 95.5636 135.776 99.4302 136.97 104.359C137.391 106.096 137.452 107.92 137.677 109.704H136.183C136.061 108.846 135.958 107.984 135.812 107.129C135.131 103.171 133.7 99.5952 130.553 96.9095C130.373 96.7139 130.192 96.5186 130.012 96.322C129.914 96.3782 129.815 96.4332 129.716 96.4882C129.871 96.8881 130.025 97.2868 130.18 97.6856C130.984 100.099 130.64 102.491 129.152 104.389C127.636 106.324 127.55 107.909 129.085 109.704H126.843C126.496 108.426 125.701 107.775 124.341 107.771C123.556 107.767 122.772 107.607 121.986 107.517C121.898 107.439 121.794 107.412 121.679 107.437C121.647 106.949 121.615 106.461 121.582 105.974C121.67 105.928 121.721 105.858 121.737 105.76C122.413 105.71 123.092 105.594 123.766 105.62C125.697 105.69 126.911 104.648 127.693 103.046C128.093 102.226 128.309 101.304 128.525 100.409C129.058 98.2091 128.26 96.4264 126.204 95.5457C124.852 94.9683 123.396 94.6392 121.988 94.1989C122.011 94.1359 122.016 94.0719 122.001 94.0056C122.129 93.3732 122.256 92.7396 122.384 92.106L122.563 92.1096L122.74 92.0995C124.751 92.1601 126.818 91.7804 128.7 92.8588Z" fill="#080B09"/>
<path d="M121.735 105.755C121.72 105.853 121.668 105.923 121.58 105.968C121.24 106.016 120.898 106.063 120.631 106.101C120.445 107.403 120.28 108.551 120.115 109.699H114.138C114.129 109.572 114.119 109.445 114.11 109.319C114.001 107.944 113.892 106.569 113.783 105.196C113.779 104.95 113.773 104.703 113.767 104.458C113.767 103.154 113.729 101.848 113.781 100.546C113.82 99.5779 113.978 98.614 114.082 97.648C115.068 97.8591 116.056 98.0714 117.299 98.3378C116.726 98.733 116.399 98.9589 115.993 99.2396C116.468 99.3532 116.757 99.4206 117.284 99.5452C116.779 99.8485 116.522 100.002 116.194 100.2C116.637 100.319 116.956 100.405 117.13 100.452C116.717 100.87 116.302 101.291 115.697 101.903C116.461 102.115 116.86 102.226 117.225 102.328C116.829 102.63 116.416 102.944 116.004 103.259C116.096 103.379 116.187 103.5 116.278 103.621C116.478 103.476 116.804 103.169 116.859 103.212C117.395 103.631 117.897 103.942 118.15 102.996C118.288 102.484 118.524 101.767 118.294 101.428C117.571 100.352 117.972 99.3038 117.973 98.1309C119.28 98.2534 120.267 96.9672 121.569 97.6828C121.624 100.373 121.68 103.065 121.735 105.755Z" fill="#747173"/>
<path d="M130.557 96.9102C133.704 99.5961 135.135 103.172 135.815 107.131C135.962 107.985 136.064 108.847 136.187 109.705H129.087C127.554 107.91 127.638 106.325 129.155 104.389C130.643 102.492 130.987 100.099 130.184 97.6864C130.307 97.4281 130.432 97.1685 130.557 96.9102Z" fill="#0542F3"/>
<path d="M113.769 104.459C113.774 104.705 113.779 104.951 113.785 105.196C112.69 105.279 113.039 106.091 113.077 106.687C113.141 107.693 113.282 108.695 113.392 109.699H111.524C112.464 106.839 112.366 103.878 112.244 100.943C112.169 99.1222 111.822 97.3024 111.45 95.5119C111.348 95.0175 110.721 94.6312 110.336 94.1953C110.356 94.1166 110.373 94.0357 110.386 93.956C111.23 93.8977 112.073 93.8392 112.972 93.7773C113.696 94.5616 113.326 95.4994 113.291 96.3994C113.194 98.8728 113.099 101.347 113.067 103.822C113.063 104.031 113.524 104.247 113.769 104.459Z" fill="#35323A"/>
<path d="M121.987 107.516C122.773 107.605 123.557 107.766 124.342 107.77C125.702 107.774 126.496 108.424 126.843 109.703H121.613C121.621 109.202 121.63 108.702 121.638 108.201C121.755 107.973 121.87 107.744 121.987 107.516Z" fill="#539836"/>
<path d="M79.3984 109.7C79.5421 109.323 79.5759 108.795 79.8498 108.594C80.8306 107.872 81.2406 106.966 81.2766 105.759C81.2924 105.24 81.6843 104.732 82.0517 103.883C82.575 106.571 81.9819 107.918 79.7725 109.7H79.3984Z" fill="#539836"/>
<path d="M121.641 108.201C121.633 108.702 121.624 109.202 121.616 109.703H120.121C120.285 108.555 120.45 107.407 120.635 106.105C120.904 106.067 121.244 106.02 121.586 105.973C121.618 106.46 121.65 106.948 121.683 107.436C121.186 107.664 121.121 107.917 121.641 108.201Z" fill="#9E9DA1"/>
<path d="M113.394 109.702C113.285 108.698 113.143 107.696 113.078 106.69C113.041 106.094 112.692 105.282 113.786 105.199C113.895 106.574 114.004 107.948 114.113 109.323C113.998 109.45 113.882 109.576 113.768 109.702H113.394Z" fill="#201D23"/>
<path d="M89.8555 109.703C91.5404 108.583 92.7121 108.583 93.9656 109.703H89.8555Z" fill="#539836"/>
<path d="M77.5273 109.701C77.6296 109.073 77.7328 108.444 77.8351 107.816C77.9823 108.444 78.1282 109.073 78.2745 109.701H77.5273Z" fill="#201D23"/>
<path d="M102.243 109.285C102.598 109.423 102.954 109.563 103.309 109.701H102.188C102.206 109.563 102.225 109.423 102.243 109.285Z" fill="#35323A"/>
<path d="M113.766 109.704C113.88 109.577 113.996 109.451 114.111 109.324C114.121 109.451 114.13 109.577 114.14 109.704H113.766Z" fill="#35323A"/>
<path d="M113.77 104.459C113.525 104.247 113.065 104.031 113.068 103.822C113.101 101.347 113.195 98.8726 113.293 96.3992C113.328 95.4992 113.697 94.5614 112.974 93.7771C112.074 93.839 111.232 93.8975 110.388 93.9558C110.021 93.8357 109.654 93.7155 109.287 93.5963C109.154 93.3469 109.068 92.9259 108.883 92.8774C107.401 92.4855 106.063 91.5047 104.425 91.7429C104.301 91.7396 104.177 91.7339 104.052 91.7259C104.441 91.0409 104.83 90.3544 105.329 89.4737C107.902 89.303 110.586 89.1255 113.306 88.9459C113.324 88.5818 113.339 88.2752 113.355 87.9696C113.25 86.7217 113.144 85.4748 113.04 84.2269C113.274 83.6953 113.507 83.164 113.794 82.5114C113.326 82.4552 112.988 82.4148 112.65 82.3743C112.274 82.3755 111.897 82.3767 111.519 82.3778C109.53 82.4956 107.541 82.6125 105.552 82.7305C105.066 82.1924 104.568 82.1721 104.059 82.699C103.583 82.7317 103.107 82.7653 102.63 82.798C102.102 82.7878 101.574 82.7766 101.045 82.7665C100.809 82.7665 100.573 82.7676 100.336 82.7676C99.4053 82.7587 98.4705 82.7002 97.5438 82.7587C96.8442 82.8024 96.1544 82.9957 95.4602 83.1226C93.5987 83.2371 91.7362 83.3516 89.875 83.4663C89.9131 83.1316 89.9526 82.7968 89.9761 82.5991C90.9207 82.3699 91.6958 82.1813 92.4709 81.9937C94.2536 81.9902 96.0387 82.0341 97.8191 81.9711C99.2772 81.9194 100.731 81.741 102.186 81.6185C103.68 81.615 105.173 81.6117 106.666 81.6084C107.166 81.606 107.666 81.6039 108.165 81.6016C109.286 81.4835 110.406 81.3646 111.526 81.2466C116.512 81.114 121.499 80.9814 126.485 80.8478C127.209 80.8782 127.24 80.3974 127.232 79.8593C127.203 77.935 127.186 76.0119 127.165 74.0877C127.063 71.0952 126.961 68.1015 126.859 65.1078C126.991 64.5844 127.121 64.0597 127.251 63.5352C127.494 63.4701 127.738 63.405 127.98 63.3398C128.26 63.578 128.54 63.8161 128.819 64.0543C128.859 64.9192 128.91 65.783 128.936 66.6479C129.044 70.2549 129.145 73.8608 129.248 77.4677C129.305 78.6215 129.361 79.7751 129.418 80.9287C129.301 81.1488 129.185 81.3691 129.07 81.5903L129.046 81.5938C128.844 81.7027 128.464 81.8195 128.47 81.9182C128.526 83.1327 128.558 84.3571 128.767 85.5488C128.897 86.2948 129.101 87.1688 130.149 87.2542C130.212 87.3327 130.253 87.4216 130.271 87.5203C130.122 89.4782 131.446 90.6555 133.046 91.9236C130.959 91.8148 129.328 91.7295 127.698 91.6451C128.483 90.6421 130.262 90.723 129.612 88.6403H118.894C121.89 90.0029 124.986 89.8108 128.097 89.6018C124.861 90.6746 121.531 90.0657 118.25 90.2286C118.33 89.521 118.409 88.8133 118.503 87.991C118.366 87.7585 118.112 87.325 117.858 86.8912C119.273 86.879 120.691 86.9105 122.104 86.843C123.687 86.769 125.265 86.6049 126.845 86.4803C127.096 86.2184 127.537 85.9769 127.565 85.6939C127.65 84.8501 127.572 83.9897 127.559 83.136C127.361 82.6383 127.164 82.1409 126.924 81.5364C122.688 81.7038 118.505 81.8689 114.317 82.0341C114.508 83.0001 114.508 83.0001 115.249 83.491C115.38 84.6167 115.51 85.7432 115.642 86.8689C115.647 87.9752 115.763 89.0908 114.728 89.9253C114.563 90.0591 114.647 90.8128 114.864 91.0239C115.079 91.2318 115.656 91.2407 115.985 91.1105C116.421 90.9386 116.771 90.5476 117.156 90.2512C117.208 90.5925 117.259 90.933 117.321 91.3498C118.876 91.3498 120.3 91.3575 121.725 91.3453C122.268 91.3397 122.737 91.3879 122.741 92.0946L122.562 92.1056L122.385 92.1023C121.641 92.0922 120.93 92.1529 120.439 93.1144C120.994 93.429 121.498 93.7155 122.002 94.0019C122.016 94.067 122.012 94.1312 121.989 94.194C121.865 94.6209 121.74 95.0476 121.617 95.4745C119.273 95.7317 116.93 95.9743 114.592 96.2743C114.413 96.2981 114.284 96.7203 114.132 96.9573C114.116 97.1877 114.1 97.4178 114.085 97.6494C113.98 98.6154 113.823 99.5793 113.784 100.547C113.731 101.849 113.77 103.155 113.77 104.459Z" fill="#201D23"/>
<path d="M137.327 80.4653C136.643 79.9013 135.985 79.9789 135.346 80.5426C134.932 81.073 134.395 81.5481 134.133 82.1445C133.569 83.4228 134.196 85.1246 135.392 85.919C136.381 86.5761 136.888 86.4762 138.123 85.3797C138.247 85.2697 138.372 85.1596 138.497 85.0494C139.554 83.6463 139.301 82.358 138.159 81.1459C137.881 80.919 137.605 80.6921 137.327 80.4653ZM129.249 77.4683C129.146 73.8624 129.045 70.2553 128.937 66.6494C128.911 65.7845 128.86 64.9196 128.82 64.0547C130.865 64.1365 132.909 64.2174 134.953 64.2982C134.988 64.5747 135.024 64.851 135.06 65.1274C133.117 65.8767 131.897 67.3077 131.203 69.2352C130.41 69.4645 130.349 69.8521 130.955 70.3846L130.846 71.1113C129.947 71.7987 129.947 72.3437 130.847 73.0276C130.877 73.2714 130.907 73.514 130.938 73.7578C130.362 74.2588 130.688 74.4297 131.218 74.5272C132.053 76.365 133.289 77.6928 135.437 77.8646C136.413 78.0118 137.4 78.2488 138.261 77.4986C138.566 77.4267 138.872 77.3559 139.177 77.2851C139.305 77.1065 139.433 76.929 139.56 76.7503L139.549 76.7639C139.678 76.6346 139.806 76.5065 139.934 76.3774L139.927 76.3887C140.055 76.1325 140.183 75.8776 140.312 75.6214L140.292 75.6439C140.423 75.5125 140.555 75.3799 140.686 75.2485L140.669 75.2699C140.817 75.0125 140.967 74.7543 141.115 74.496C142.311 73.1456 141.632 71.5246 141.76 70.0195C142.133 69.8935 142.504 69.7677 142.878 69.6408C143.012 73.4075 143.148 77.1749 143.283 80.9416C143.291 81.0784 143.3 81.2155 143.308 81.3525C142.699 81.4256 142.09 81.4997 141.481 81.574C141.212 81.8333 140.759 82.0604 140.706 82.358C140.504 83.4858 140.433 84.6373 140.313 85.7784C140.178 86.266 140.044 86.7524 139.911 87.2388L139.923 87.2231C139.614 87.4781 139.305 87.7318 138.995 87.9869C138.919 88.0363 138.855 88.0993 138.804 88.1769C138.554 88.3553 138.303 88.534 138.053 88.7126C136.232 89.373 134.658 88.8102 133.599 87.3601C132.864 86.3546 132.575 85.0214 132.088 83.8351C132.108 83.734 132.113 83.6329 132.099 83.5307C131.921 82.7288 131.741 81.9254 131.561 81.1235C130.99 81.0246 130.419 80.9268 129.847 80.828C129.839 79.972 129.876 79.1104 129.796 78.2612C129.771 77.9827 129.44 77.732 129.249 77.4683Z" fill="#BEBABC"/>
<path d="M118.249 90.2308C121.53 90.069 124.861 90.6779 128.096 89.605C124.985 89.814 121.889 90.0049 118.893 88.6434H129.613C130.261 90.725 128.484 90.6453 127.698 91.6472C129.329 91.7326 130.958 91.8179 133.046 91.927C131.445 90.6587 130.123 89.4815 130.27 87.5234C130.683 88.0853 131.112 88.6357 131.507 89.2107C132.587 90.7835 134.777 91.5631 136.559 90.9934C138.141 91.3821 139.427 90.7294 140.644 89.8297C140.821 90.015 141 90.2005 141.177 90.3857C139.555 92.7649 137.077 93.0042 134.548 92.9334C133.004 92.8897 131.471 92.5549 129.926 92.4381C129.53 92.4078 129.11 92.7087 128.7 92.857C126.818 91.7798 124.751 92.1583 122.74 92.0977C122.737 91.39 122.267 91.3428 121.724 91.3473C120.299 91.3609 118.875 91.3517 117.32 91.3517C117.259 90.9361 117.207 90.5947 117.156 90.2531C117.52 90.2454 117.885 90.2385 118.249 90.2308Z" fill="#3F3E45"/>
<path d="M134.952 64.3032C132.907 64.2223 130.864 64.1405 128.82 64.0596C128.54 63.8215 128.26 63.5833 127.98 63.3452C128.881 63.2328 129.782 63.1204 130.899 62.9812C131.007 62.5858 131.176 62.0757 131.282 61.5535C131.426 60.8391 131.658 60.1853 132.504 60.1538C133.361 60.1211 134.271 60.0797 134.811 60.9714C135.257 61.7084 135.676 62.461 136.118 63.2248C137.609 63.3003 139.028 63.3137 140.433 63.4653C141.137 63.5405 141.813 63.8652 142.5 64.0775C142.385 64.1875 142.269 64.2978 142.152 64.4078C139.752 64.373 137.352 64.3382 134.952 64.3032Z" fill="#3F3E45"/>
<path d="M142.152 64.4043C142.268 64.2943 142.385 64.1842 142.501 64.0742C142.785 64.574 143.289 65.0604 143.318 65.5748C143.589 70.3602 143.777 75.1488 143.992 79.9377C144.016 80.4634 144.027 80.9677 143.282 80.943C143.147 77.1754 143.012 73.4089 142.877 69.6424C142.821 67.871 143.246 66.0321 142.152 64.4043Z" fill="#747173"/>
<path d="M127.251 63.5384C127.121 64.0632 126.991 64.5865 126.859 65.1112C126.722 65.5403 126.485 65.9637 126.466 66.3986C126.404 67.7297 126.427 69.0641 126.416 70.3976C126.309 70.3943 126.201 70.3908 126.093 70.3875C125.9 68.4968 124.967 66.913 123.812 65.3539C124.541 65.1808 125.088 65.0518 125.634 64.9225C125.631 64.8202 125.629 64.717 125.627 64.6147C125.252 64.527 124.877 64.4396 124.502 64.3531C124.535 64.1126 124.566 63.8732 124.599 63.633C125.291 63.5161 125.983 63.3981 126.675 63.2812C126.867 63.3666 127.059 63.4531 127.251 63.5384Z" fill="#3F3E45"/>
<path d="M141.179 90.384C141.001 90.1987 140.823 90.0135 140.645 89.8292C142.319 87.3736 142.938 84.6169 142.965 81.6906C143.089 81.6704 143.197 81.6178 143.289 81.5312C143.378 81.6142 143.549 81.7087 143.542 81.7805C143.283 83.9327 143.772 86.2132 142.4 88.1802C141.923 88.8653 141.583 89.6472 141.179 90.384Z" fill="#747173"/>
<path d="M143.288 81.5341C143.196 81.6207 143.088 81.6736 142.964 81.6926C142.47 81.6543 141.975 81.6162 141.48 81.5769C142.089 81.5038 142.698 81.4298 143.307 81.3555L143.288 81.5341Z" fill="#F5F5F5"/>
<path d="M40.609 35.3439C40.7214 35.4403 40.8337 35.5381 40.9461 35.6347C41.547 35.0517 42.1773 34.4957 42.7434 33.8802C44.6293 31.8311 46.8446 30.255 49.4394 29.2676C52.5342 28.0917 55.7839 27.6065 59.0642 27.3356C63.5989 26.9616 67.9529 27.8253 72.2138 29.3217C73.0404 29.6116 73.9055 29.7936 74.8828 30.0609C74.8007 29.6193 74.821 29.4531 74.7502 29.3925C74.4728 29.1555 74.1817 28.9275 73.8695 28.7399C70.6466 26.8088 67.0892 25.9867 63.3967 25.8708C61.0512 25.7967 58.6854 25.9932 56.3434 26.2201C51.7591 26.6628 47.4411 27.9918 43.768 30.8574C42.3108 31.994 40.9753 33.4027 40.609 35.3439ZM87.2156 36.6795C87.3515 36.3087 87.4874 35.9368 87.6233 35.5663C87.62 35.1911 87.6155 34.8147 87.6111 34.4395C87.2998 34.034 87.0706 33.4892 86.6629 33.2487C84.915 32.2176 82.9908 31.6649 80.9823 31.4077C80.8352 31.3301 80.688 31.2537 80.5408 31.1764C79.9512 31.1235 79.3625 31.0706 78.7738 31.0179C78.1135 30.9246 77.4528 30.8315 76.7934 30.737C74.1693 30.7393 71.5463 30.7415 68.9224 30.7438C68.4372 30.7584 67.9517 30.7741 67.4665 30.7887C62.8631 31.1009 58.8653 33.0151 55.2324 35.6876C52.8903 37.4106 50.7909 39.463 48.5082 41.2728C47.7084 41.9073 46.685 42.2578 45.7639 42.7374C45.6417 42.6958 45.5248 42.7062 45.4124 42.7701C44.6239 42.633 43.9847 42.8376 43.3478 43.7025C43.8307 43.9136 44.1655 44.1675 44.5172 44.1955C46.0481 44.3147 47.4839 43.9573 48.6836 42.9756C50.5472 41.4491 52.3409 39.8382 54.2045 38.3127C57.4408 35.6618 61.058 33.7173 65.0906 32.5714C65.3849 32.4882 65.6602 32.3366 65.9433 32.2176C66.0679 32.1995 66.1927 32.1828 66.3162 32.1659C70.9184 31.455 75.4703 32.322 80.041 32.6051C80.1938 32.6826 80.3455 32.759 80.4983 32.8366C81.1923 32.8928 81.8877 32.9478 82.5831 33.004C82.7651 33.1016 82.947 33.2006 83.129 33.2993C84.1298 33.77 85.369 33.816 86.3855 35.217C84.5151 34.7362 83.0615 34.3372 81.5945 33.9891C77.6437 33.051 73.6683 32.9725 69.6783 33.7239C69.5537 33.6926 69.4347 33.7084 69.3211 33.769C64.2179 34.7315 59.919 37.2905 55.9536 40.5188C54.5179 41.6894 53.1555 42.9779 51.6098 43.9799C49.863 45.1133 47.9477 45.9838 46.1055 46.9691C45.991 47.0352 45.8763 47.1005 45.7618 47.1657C44.6138 47.3925 43.459 47.5914 42.3188 47.8519C40.7808 48.2013 40.4541 48.5946 40.4722 49.9189C40.4912 51.349 40.9574 51.8173 42.6411 52.0959C42.9331 52.1868 43.2265 52.2766 43.5197 52.3667C44.0947 52.4003 44.6698 52.4351 45.2451 52.4687C45.4157 52.5519 45.5876 52.6352 45.7583 52.7181C46.8265 52.8855 47.8939 53.0541 48.9621 53.2227C49.1429 53.3247 49.3249 53.4281 49.5057 53.5304C52.8713 54.6581 56.2355 55.785 59.6 56.9127C59.7415 56.9835 59.883 57.0542 60.0245 57.1238C60.5086 57.1553 60.9929 57.1857 61.477 57.2172C61.7196 57.2339 61.9634 57.2508 62.2072 57.2677C63.0845 57.3766 63.9629 57.4845 64.8402 57.5933C65.2053 57.599 65.5704 57.6046 65.9365 57.6102C66.6893 57.6069 67.4418 57.6034 68.1943 57.6001L68.3754 57.6316L68.5528 57.5888C72.7933 57.4687 76.9025 56.6823 80.8723 55.1737C82.5516 54.5357 84.2523 53.9517 85.9059 53.2539C87.0988 52.7518 88.2569 52.152 89.378 51.5062C90.2935 50.9782 91.154 50.9086 92.21 51.0859C95.9854 51.7174 99.7721 52.4586 103.581 52.6664C107.863 52.9001 112.092 51.9341 116.188 50.7321C120.155 49.5672 124.016 48.0475 127.924 46.6849C128.069 46.8377 128.215 46.9893 128.361 47.1419C127.366 47.9711 126.368 48.7944 125.384 49.6335C125.15 49.8324 124.893 50.0526 124.767 50.3211C123.474 53.0619 121.969 55.7624 123.015 58.9874C123.337 59.9816 123.091 60.7723 122.142 61.3666C119.389 63.0887 116.507 64.4343 113.234 64.8074C111.411 65.0153 109.597 65.3105 107.779 65.5668C107.417 65.5835 107.056 65.5992 106.694 65.6162C104.118 65.7128 101.541 65.8644 98.9645 65.8915C96.5628 65.9171 94.1589 65.8094 91.7572 65.761C91.3719 65.697 90.9866 65.634 90.6012 65.5701C89.3578 65.461 88.1132 65.351 86.8696 65.2421C86.3719 65.2062 85.8744 65.1702 85.3767 65.1342C84.604 64.9903 83.8322 64.8467 83.0603 64.704C82.3292 64.6053 81.599 64.5063 80.8678 64.4075L80.8857 64.4198C80.3791 64.2963 79.8725 64.1727 79.367 64.049L79.3816 64.0636C78.7346 63.9357 78.0876 63.8064 77.4404 63.6785C77.3405 63.7065 77.245 63.6987 77.1507 63.6548C76.907 63.6289 76.6632 63.6021 76.4194 63.5751C76.043 63.4808 75.6657 63.3863 75.2881 63.292C74.8635 62.3742 74.0795 62.5282 73.3145 62.6293C73.2223 62.6157 73.137 62.5877 73.0561 62.5428C72.7415 62.4215 72.4282 62.3013 72.1136 62.18C70.695 61.6181 69.2774 61.0544 67.8574 60.4949C66.0322 59.7771 64.2516 58.8852 62.3677 58.383C58.653 57.3935 55.356 60.5376 55.9132 64.3502C56.0119 65.0355 56.2985 65.3611 56.9928 65.2837C57.1096 65.3364 57.2309 65.3554 57.3588 65.3409L57.3477 65.323C57.1601 65.4836 56.9725 65.6441 56.7861 65.8059C56.9241 67.2125 57.9665 68.0031 58.873 68.8861C59.2382 69.2625 59.6021 69.6386 59.9672 70.0162C61.0916 70.9486 62.2173 71.8798 63.3417 72.8122C63.5249 72.9974 63.7068 73.1827 63.8888 73.367C64.2034 73.4928 64.5179 73.6186 64.8313 73.7434L64.8369 73.7479C65.1064 74.1713 65.2827 74.7353 65.6647 74.9948C67.0701 75.9507 68.5437 76.8055 69.9919 77.6986C70.3951 77.9838 70.7971 78.268 71.2005 78.5523C71.9159 78.8983 72.6327 79.2442 73.3483 79.5902C73.4774 79.6845 73.6067 79.779 73.7358 79.8733C75.6005 80.7765 77.4641 81.6795 79.3287 82.5827C81.0418 84.188 83.1751 84.917 85.38 85.4932C85.7632 85.9651 86.1462 86.4369 86.5292 86.9087C84.9275 88.4611 83.3829 90.0797 81.6933 91.53C81.0935 92.0444 80.1522 92.3658 79.3501 92.4029C74.5703 92.6208 69.7862 92.6925 65.0053 92.8846C60.7289 93.0567 56.4546 93.5093 52.1804 93.4923C47.5344 93.4745 42.8748 93.2217 38.2491 92.7734C32.9536 92.259 27.6696 91.5276 22.5741 89.8629C18.8312 88.6397 15.3367 86.8728 12.0936 84.68C9.58983 82.985 8.32266 80.5125 8.32031 77.365C8.31937 74.0366 8.79662 70.7756 9.67164 67.6112C10.8288 63.4303 12.1183 59.2672 13.6765 55.2231C14.9829 51.8307 17.3889 49.1348 20.3703 46.7366C21.1948 49.0326 20.1837 51.4084 21.4452 53.6146C22.0776 52.5519 22.0889 51.4724 22.1912 50.4368C22.3517 48.8304 22.4507 47.2174 22.5584 45.6065C22.6809 43.7721 23.7075 42.3185 24.6759 40.8976C26.1868 38.6802 28.065 36.7984 30.2218 35.1516C33.1301 32.9309 35.9047 30.5336 38.7096 28.1782C42.9691 24.6003 47.9432 22.5806 53.3622 21.818C57.6947 21.2067 61.8792 22.211 65.8399 24.0577C68.1664 25.1417 70.5298 25.9237 73.164 25.899C76.0825 25.8708 78.6368 24.9633 80.971 23.2962C83.6659 21.372 86.4934 19.6532 89.7048 18.7984C95.518 17.2526 101.265 17.4471 106.766 20.1003C108.086 20.736 109.235 21.6999 110.08 23.304C99.7046 23.0233 89.8362 24.132 81.1013 30.0653C82.5055 30.4608 82.5055 30.4608 84.2546 29.5756C84.4276 29.4665 84.6016 29.3589 84.7758 29.251C86.3362 28.6691 87.912 28.1265 89.4545 27.4986C92.5166 26.2504 95.7214 25.5743 98.9699 25.1182C105.492 24.2028 111.957 24.6981 118.342 26.2112C120.823 26.7987 123.003 28.1253 125.14 29.5813C123.202 29.2723 121.262 28.978 119.327 28.6489C113.689 27.6918 108.101 27.7456 102.619 29.5474C99.024 30.7281 95.9932 32.8938 93.0726 35.2214C92.7479 35.4798 92.5951 35.9537 92.3616 36.329C92.4684 36.4514 92.5739 36.5749 92.6795 36.6974C93.4591 36.2784 94.269 35.9065 95.0126 35.4314C97.6727 33.7295 100.188 31.7289 103.279 30.8663C105.35 30.2889 107.482 29.7778 109.617 29.6137C115.64 29.1499 121.436 30.5437 127.171 32.1817C127.984 32.4142 128.717 32.9264 129.486 33.3085C129.51 33.4646 129.533 33.6207 129.557 33.7768C127.467 33.2071 125.405 32.468 123.28 32.1008C117.221 31.0551 111.132 30.69 105.409 33.4949C102.636 34.854 100.094 36.6908 97.4592 38.3284C96.2459 39.0822 95.0744 39.9022 93.8521 40.6401C93.3389 40.9502 92.7434 41.1256 92.1515 41.376C88.9062 37.8432 84.7173 37.1109 80.3633 37.0726C76.954 37.0434 73.5202 37.1052 70.14 37.496C68.0147 37.7421 66.0423 38.816 64.4269 40.3526C64.2673 40.4885 64.1079 40.6234 63.9483 40.7582C63.5517 41.0335 63.0968 41.2514 62.7676 41.5918C59.883 44.5686 56.6277 47.0904 53.2373 49.4494C53.0869 49.5526 52.9364 49.6572 52.786 49.7604C51.9422 50.1446 51.0987 50.5299 50.2549 50.914C50.0741 51.0186 49.8945 51.1242 49.7135 51.2286C48.1174 51.2443 46.52 51.3038 44.926 51.2556C44.2048 51.2331 43.4308 51.1186 42.7928 50.812C42.376 50.6108 42.1615 49.9896 41.6975 49.3302C42.8356 49.1012 43.5926 48.9493 44.3498 48.7977C44.4554 48.7563 44.5609 48.7159 44.6665 48.6743C44.9136 48.6574 45.1597 48.6416 45.4056 48.6249C45.5843 48.5349 45.763 48.4451 45.9405 48.3553C48.9217 48.0844 51.1513 46.3457 53.4116 44.6045C56.4344 42.2736 59.5292 40.0371 62.5925 37.76C62.7441 37.6624 62.8958 37.5646 63.0474 37.4668C64.7605 36.8323 66.4746 36.1975 68.1878 35.564C68.3709 35.4584 68.5529 35.354 68.736 35.2494C71.0703 35.0978 73.4045 34.9384 75.7397 34.7945C79.202 34.5834 82.4583 35.4572 85.6508 36.6795C86.0406 36.8288 86.472 36.868 86.8842 36.9581C86.9954 36.8647 87.1056 36.7726 87.2156 36.6795Z" fill="#539836"/>
<path d="M63.8876 73.3666C63.7056 73.1813 63.5225 72.9958 63.3405 72.8118C63.2585 72.3724 63.3203 71.803 63.0652 71.5199C62.3385 70.7088 61.4837 70.0134 60.6792 69.2731C60.3153 68.9002 59.9514 68.5274 59.5875 68.1555C58.9753 67.3994 58.3631 66.6436 57.7497 65.8887C57.616 65.6999 57.4812 65.5102 57.3465 65.3214L57.3566 65.3393C57.3329 65.1528 57.3094 64.9652 57.2868 64.7788L57.1016 63.5746L57.2015 63.4554L57.123 63.3219C57.1994 62.9286 57.2758 62.5355 57.3519 62.1424C57.4218 62.0301 57.4913 61.9165 57.5609 61.8044C58.1181 61.0572 58.6753 60.3103 59.2313 59.5632C59.4043 59.4442 59.5762 59.325 59.748 59.207C61.8902 59.4094 63.9661 59.6182 65.8984 60.8708C67.5238 61.9245 69.2872 62.9624 71.3744 62.9613C71.5576 63.0692 71.7419 63.1768 71.9248 63.2848C72.6731 63.5184 73.4212 63.7533 74.1681 63.9868C74.2929 64.0093 74.4163 64.0307 74.5412 64.053L74.6545 64.1003L74.7758 64.0777C75.0701 64.1856 75.3656 64.2935 75.66 64.4015L79.2816 65.1921C79.5656 65.2899 79.851 65.3877 80.1352 65.4855C81.5888 65.7314 83.0356 66.0582 84.4993 66.1842C85.1127 66.2368 85.7629 65.8652 86.3965 65.6853C86.5169 65.6954 86.6359 65.7124 86.755 65.7359C86.9481 66.6953 87.7142 66.2145 88.2434 66.3311C89.4036 66.4334 90.5629 66.5368 91.7233 66.6391C93.5958 66.7479 95.4686 66.857 97.3411 66.9659C98.8307 66.9793 100.32 66.9929 101.81 67.0051C102.185 66.995 102.56 66.984 102.936 66.9727L103.12 67.0042L103.298 66.9457C104.422 66.9278 105.545 66.9109 106.668 66.893C106.675 67.0613 106.68 67.2299 106.687 67.3985C106.183 68.379 105.194 67.9916 104.419 68.2048C104.16 68.2274 103.9 68.25 103.641 68.2723C103.14 68.2937 102.638 68.3139 102.137 68.3353L101.527 68.2678C100.979 68.2408 100.386 68.0624 99.891 68.2105C96.2346 69.3147 92.4972 69.7384 88.6939 69.6843C86.0058 69.3058 83.3053 68.9945 80.6306 68.5351C75.8205 67.7074 71.0432 66.7277 66.479 64.9135C65.6219 64.5733 64.7165 64.3093 63.8088 64.152C62.7542 63.9701 62.0296 64.8519 62.2699 65.892C62.6305 67.4523 65.1827 69.3284 66.8665 69.2722C66.9464 69.3081 67.0092 69.3641 67.0564 69.4384L67.0508 69.6192C66.9161 69.7619 66.7811 69.9046 66.6464 70.0461C67.5214 70.6705 68.3965 71.2952 69.2715 71.9198C73.3795 74.992 77.9853 77.1577 82.6402 79.2179C83.4682 79.5841 84.4387 79.6269 85.3428 79.8199C85.5069 80.8837 84.9375 82.3677 86.8369 82.4375C86.8157 82.7777 86.7955 83.1193 86.7753 83.4606C86.1393 83.4989 85.3833 83.336 85.3217 84.3335C83.3513 83.5159 81.3822 82.698 79.4119 81.8803C77.537 80.9018 75.6621 79.9234 73.7874 78.9449C73.6828 78.8833 73.5704 78.8596 73.4503 78.8765C73.0932 78.6541 72.7359 78.4317 72.3776 78.2081C71.6351 77.7767 70.8937 77.3453 70.1512 76.9139C69.2245 76.239 68.2989 75.5638 67.3722 74.8876C67.2765 74.7999 67.181 74.7111 67.0844 74.6236C66.4104 74.1372 65.8534 73.3475 64.8345 73.7474L64.8301 73.743C64.7177 73.479 64.6065 73.2149 64.4941 72.9509C64.2919 73.0892 64.0898 73.2283 63.8876 73.3666Z" fill="#AA522C"/>
<path d="M96.0215 74.5841V71.0433C94.6038 71.923 95.2036 73.0642 95.1711 74.0191C95.1664 74.1729 95.6439 74.3426 96.0215 74.5841ZM88.694 69.6842C92.4976 69.7381 96.2347 69.3146 99.8923 68.2116C100.387 68.0621 100.98 68.2419 101.528 68.2687C101.376 68.6047 101.226 68.9406 101.075 69.2763C100.51 69.163 99.9452 69.0495 99.3396 68.9293C99.1532 70.3897 98.97 71.6658 98.833 72.9464C98.7465 73.7629 98.8981 74.4661 99.9396 74.5088C100.931 75.8254 102.132 75.2367 103.308 74.8796C103.813 74.7571 104.318 74.6346 104.824 74.5121C105.056 74.3539 105.441 74.238 105.499 74.0314C105.929 72.479 106.12 70.9008 105.819 69.4832C105.255 68.9686 104.837 68.5868 104.419 68.2059C105.196 67.9925 106.183 68.379 106.687 67.3993C107.546 67.1118 108.405 66.8252 109.263 66.5377C109.521 66.4568 109.779 66.3748 110.037 66.293C110.031 66.4119 110.03 66.5299 110.032 66.648C109.462 67.2308 108.891 67.8126 108.223 68.4946C108.218 68.5238 108.153 68.7102 108.172 68.8865C108.398 70.8985 108.651 72.9081 108.86 74.9212C108.897 75.2727 108.86 75.6895 108.701 75.9928C107.905 77.5115 107.056 79.0031 106.231 80.4951C105.31 80.4951 104.566 80.4558 103.83 80.5063C103.091 80.5569 102.301 80.6096 102.186 81.6195C100.731 81.742 99.2778 81.9204 97.8197 81.9722C96.0393 82.0352 94.2545 81.9912 92.4718 81.9936V70.1403C90.7643 70.5188 89.377 70.8265 87.9897 71.1343C87.1661 71.2612 86.3428 71.3882 85.5195 71.5151C85.5205 71.2321 85.5228 70.949 85.5252 70.666C86.5822 70.3392 87.638 70.0122 88.694 69.6842Z" fill="#3F3E45"/>
<path d="M108.56 34.1068C108.144 34.5641 107.729 35.0225 107.313 35.4795C104.542 38.5372 104.145 42.1353 105.047 45.9657C105.441 47.6417 106.075 49.2615 106.699 51.2152C101.369 51.6531 96.3045 51.3174 91.5977 49.4482C91.9987 47.1802 92.3514 45.1861 92.7694 42.8171C97.6591 39.6134 102.7 35.874 108.526 33.4375C108.537 33.6611 108.549 33.8835 108.56 34.1068Z" fill="#F5F5F5"/>
<path d="M67.5546 40.1724C67.1782 40.6633 66.8166 41.1654 66.4233 41.6417C63.0389 45.734 62.6547 50.4811 65.3259 55.1395C65.4989 55.4395 65.5819 55.79 65.8281 56.4337C60.1576 56.4034 55.2901 54.4196 49.9375 52.3482C51.1508 51.6763 51.9168 51.189 52.7335 50.8114C55.3586 49.5948 57.6009 47.8774 59.7431 45.9339C62.13 43.7682 64.7407 41.8496 67.2546 39.8242C67.3545 39.9399 67.4547 40.0556 67.5546 40.1724Z" fill="#F5F5F5"/>
<path d="M77.4492 38.4919C80.6451 38.1494 83.7298 38.373 86.728 39.2896C88.8128 39.9274 90.8101 40.8678 91.1292 43.2963C91.4875 46.0293 91.1515 48.6882 88.5916 50.4374C87.63 51.0933 86.5977 51.6427 85.3371 52.3964C85.2351 51.665 85.0362 51.1843 85.1305 50.7698C86.2023 46.0799 82.4683 41.0566 78.8659 39.284C78.3816 39.0446 77.9211 38.7571 77.4492 38.4919Z" fill="#F5F5F5"/>
<path d="M118.227 32.6875C121.761 33.0211 125.181 33.7861 128.605 34.7857C132.069 35.7978 133.479 41.3371 130.172 43.6634C128.872 44.5779 127.463 45.3337 125.746 46.3785C125.472 40.4384 123.737 35.7169 118.285 33.2581C118.266 33.0684 118.246 32.8772 118.227 32.6875Z" fill="#F5F5F5"/>
<path d="M85.3242 84.3364C85.3858 83.3389 86.1419 83.5019 86.7778 83.4638C87.8101 83.4659 88.8436 83.4682 89.8768 83.4704C91.7383 83.3559 93.6007 83.2411 95.462 83.1266C96.6191 83.3154 97.7751 83.5042 98.9713 83.6996C99.1487 84.0602 99.3545 84.4815 99.6824 85.152C99.9587 84.1512 100.149 83.4614 100.34 82.7716C100.576 82.7705 100.811 82.7705 101.047 82.7695C101.063 83.5973 101.673 83.4816 102.199 83.4995C101.939 84.9971 101.68 86.4944 101.42 87.9905C99.8171 88.0895 99.8171 88.0895 99.3453 89.7824C98.1536 90.1654 96.9099 90.5665 95.5452 91.0056C95.5036 90.4553 95.4801 90.1541 95.4575 89.8541C95.4575 89.607 95.4575 89.3611 95.4566 89.114C95.2767 88.2872 95.0959 87.4592 94.8656 86.4034C92.4965 86.4358 90.1399 86.4596 87.7831 86.5191C87.591 86.5235 87.4057 86.7751 87.2158 86.9112C86.9877 86.9112 86.7585 86.9112 86.5305 86.91C86.1475 86.4382 85.7645 85.9675 85.3813 85.4957C85.3623 85.1094 85.3433 84.7229 85.3242 84.3364Z" fill="#49464F"/>
<path d="M113.354 87.9703C113.339 88.2759 113.323 88.5824 113.305 88.9466C110.585 89.1262 107.901 89.3037 105.328 89.4744C104.829 90.3551 104.44 91.0415 104.053 91.7266C103.789 91.7087 103.526 91.6897 103.262 91.6716C103.284 91.1852 103.305 90.6988 103.328 90.2135C104.004 90.2227 104.355 89.8778 104.413 89.2127C104.537 87.8064 104.662 86.3998 104.787 84.9935C105.401 84.9542 106.014 84.9161 106.854 84.8621C106.298 83.9544 105.925 83.3422 105.551 82.7312C107.54 82.6131 109.53 82.4963 111.518 82.3785C111.708 82.6176 111.897 82.8558 112.086 83.0951C112.274 82.8548 112.462 82.6155 112.65 82.375C112.987 82.4154 113.324 82.4559 113.794 82.5121C113.506 83.1647 113.273 83.696 113.039 84.2275C112.788 84.4285 112.308 84.6531 112.326 84.8261C112.429 85.8349 112.638 86.8336 112.851 87.8266C112.868 87.9063 113.179 87.9242 113.354 87.9703Z" fill="#3F3E45"/>
<path d="M93.2199 103.712V101.879C91.4732 100.856 91.5091 100.871 92.2067 99.2223C92.41 98.7427 92.4168 98.1451 92.3886 97.6093C92.3404 96.6903 92.2156 95.7737 92.0821 94.8615C91.9483 93.9494 91.7652 93.0429 91.562 91.9038C89.3086 91.3163 88.3638 89.2012 87.2227 87.2656C87.9696 87.386 88.7167 87.5061 89.4636 87.6263C90.2027 89.5764 91.7193 90.6637 93.5895 91.3568C94.496 92.2543 95.3487 93.1406 95.143 94.6189C95.0903 94.9974 95.5542 95.4479 95.7801 95.8647C95.6565 96.9621 95.5328 98.0598 95.4094 99.1584C94.287 99.6178 94.5804 100.344 95.0454 101.103C95.0443 101.718 95.0419 102.335 95.041 102.951C94.9173 103.586 94.7937 104.221 94.6702 104.856C94.1871 104.475 93.703 104.093 93.2199 103.712Z" fill="#201D23"/>
<path d="M117.913 37.9267C119.342 37.8851 120.669 39.2364 120.743 40.809C120.821 42.4974 119.619 43.9891 118.115 44.07C116.601 44.1509 114.968 42.5682 114.961 41.0123C114.954 39.5385 116.456 37.9683 117.913 37.9267Z" fill="#F5F5F5"/>
<path d="M80.2268 47.1367C80.192 49.1204 79.2314 50.1979 77.5286 50.1652C75.9044 50.1327 74.9001 48.8858 74.9595 46.9761C75.0011 45.6786 76.3492 44.3139 77.5982 44.3047C78.9249 44.2946 80.2515 45.7235 80.2268 47.1367Z" fill="#F5F5F5"/>
<path d="M72.512 44.3971C72.4896 45.7205 71.51 46.5001 69.9452 46.4382C68.7422 46.391 67.83 45.4576 67.8479 44.2928C67.866 43.066 68.9162 42.0079 70.1013 42.0236C71.3292 42.0405 72.5322 43.2245 72.512 44.3971Z" fill="#F5F5F5"/>
<path d="M103.328 90.2131C103.307 90.6995 103.284 91.1847 103.263 91.6712C102.897 91.6702 102.532 91.6679 102.167 91.6667C102.065 91.5454 101.961 91.4241 101.859 91.3028C101.714 90.8208 101.569 90.34 101.424 89.8581C101.419 89.6054 101.413 89.3526 101.406 89.0987C101.411 88.7292 101.414 88.3587 101.418 87.9879C101.677 86.4906 101.936 84.993 102.197 83.4957C102.341 83.2632 102.486 83.0307 102.631 82.7982C103.107 82.7655 103.583 82.7319 104.058 82.6992C104.049 83.3272 104.04 83.9551 104.032 84.583C102.904 86.3467 103.436 88.3203 103.328 90.2131Z" fill="#747173"/>
<path d="M111.938 39.9921C110.514 39.991 109.609 39.1486 109.662 37.8713C109.713 36.6458 110.527 35.9447 111.918 35.9337C113.168 35.9236 114.113 36.785 114.119 37.9421C114.125 39.0666 113.14 39.9933 111.938 39.9921Z" fill="#F5F5F5"/>
<path d="M89.4649 87.627C88.718 87.5066 87.9709 87.3865 87.225 87.2663C87.2184 87.1483 87.2148 87.0293 87.2148 86.9102C87.4036 86.7743 87.5901 86.5227 87.7821 86.5171C90.139 86.4585 92.4958 86.435 94.8648 86.4023C95.095 87.4584 95.2748 88.2862 95.4556 89.113C93.5674 88.6694 91.4947 88.9388 89.8211 87.6516C89.7424 87.591 89.5851 87.6324 89.4649 87.627Z" fill="#3F3E45"/>
<path d="M95.043 102.952C95.0439 102.335 95.0463 101.72 95.0474 101.103C95.1687 100.455 95.2901 99.8067 95.4114 99.1585C95.5348 98.0608 95.6585 96.9634 95.7821 95.866C96.0224 95.3885 96.2617 94.9113 96.5212 94.3945C96.8132 94.5147 97.0749 94.6214 97.3356 94.7281C97.3558 95.1099 97.3749 95.4931 97.3939 95.8749C97.2794 96.7276 97.1647 97.5801 97.049 98.4328C97.0323 98.8258 97.0166 99.2203 96.9997 99.6134C96.9874 99.9806 96.975 100.348 96.9637 100.715C96.9515 100.967 96.939 101.219 96.9277 101.469C96.8076 101.841 96.6863 102.213 96.5662 102.585C95.9798 102.38 95.7405 103.621 95.043 102.952Z" fill="#49464F"/>
<path d="M71.7413 51.3982C70.8381 51.4005 70.1418 50.6793 70.1215 49.7222C70.1002 48.6798 70.8426 47.8734 71.8008 47.899C72.804 47.9261 73.4488 48.6843 73.4049 49.7819C73.3644 50.7771 72.7276 51.3961 71.7413 51.3982Z" fill="#F5F5F5"/>
<path d="M112.907 43.9657C112.855 44.7679 111.742 45.6518 110.907 45.5552C110.205 45.4734 109.626 44.706 109.684 43.9333C109.749 43.0514 110.58 42.2965 111.428 42.3504C112.244 42.4021 112.957 43.1817 112.907 43.9657Z" fill="#F5F5F5"/>
<path d="M74.4763 55.0487C73.0902 55.7397 72.1522 55.789 71.8343 55.0285C71.5816 54.4252 71.5816 53.5951 71.7758 52.9606C71.9714 52.3202 73.29 52.0755 73.8944 52.4629C74.9571 53.1437 74.655 54.13 74.4763 55.0487Z" fill="#F5F5F5"/>
<path d="M124.6 63.6302C124.567 63.8695 124.536 64.1098 124.503 64.3491C123.668 64.3794 122.834 64.4086 122 64.4378C121.734 64.5445 121.469 64.65 121.204 64.7568C120.602 64.7725 120 64.7883 119.396 64.804C119.392 64.667 119.387 64.5299 119.383 64.3929C120.929 63.5268 122.473 62.6607 124.001 61.8047C125.128 62.1418 124.675 62.9461 124.6 63.6302Z" fill="#AA522C"/>
<path d="M54.6982 94.6376C54.4847 94.7363 54.2724 94.9194 54.058 94.9206C51.0216 94.9408 47.9841 94.9418 44.9467 94.9239C44.7365 94.9227 44.5266 94.733 44.3164 94.6296C44.5929 94.5386 44.8691 94.3679 45.1477 94.3667C48.0549 94.3465 50.9632 94.3465 53.8714 94.3667C54.1478 94.3691 54.4229 94.543 54.6982 94.6376Z" fill="#201D23"/>
<path d="M114.549 47.5308C114.56 48.3677 114.31 49.0194 113.355 49.1125C112.486 49.1978 111.902 48.5901 111.865 47.595C111.83 46.6861 112.471 45.9413 113.265 45.9695C113.983 45.9942 114.522 46.6501 114.549 47.5308Z" fill="#F5F5F5"/>
<path d="M119.383 64.3945C119.387 64.5316 119.392 64.6675 119.396 64.8045C119.169 65.0394 118.981 65.3944 118.707 65.4809C118.193 65.6436 117.631 65.6528 117.087 65.7235C114.736 66.0324 112.383 66.3402 110.032 66.6479C110.03 66.5299 110.031 66.4121 110.036 66.2941C113.152 65.6605 116.267 65.0281 119.383 64.3945Z" fill="#49464F"/>
<path d="M101.86 91.3047C101.962 91.426 102.065 91.5473 102.168 91.6674C102.174 91.8191 102.181 91.9695 102.188 92.1202C101.386 92.1919 100.415 91.745 99.9502 92.8525L99.9445 92.8582C99.2042 93.1097 98.4627 93.3625 97.7227 93.6143C97.9629 91.9888 98.546 91.4067 100.01 91.3484C100.626 91.3237 101.243 91.3193 101.86 91.3047Z" fill="#201D23"/>
<path d="M104.426 91.748C106.064 91.5087 107.4 92.4905 108.882 92.8814C109.067 92.9308 109.155 93.3521 109.288 93.6015C108.352 93.4341 107.518 92.9736 106.451 93.1624C105.601 93.3117 104.562 92.9915 104.426 91.748Z" fill="#121007"/>
<path d="M95.0426 102.949C95.7401 103.618 95.9795 102.377 96.5658 102.582C96.5679 103.078 96.5691 103.575 96.5714 104.071C96.2019 104.516 95.8323 104.962 95.3492 105.545C95.2728 105.55 94.9784 105.564 94.6853 105.58C94.6808 105.338 94.6763 105.096 94.6719 104.854C94.7953 104.22 94.919 103.584 95.0426 102.949Z" fill="#3F3E45"/>
<path d="M26.3257 92.4374C24.2195 92.3016 22.275 91.6522 20.4688 90.5703C22.2672 91.0106 24.069 91.4388 25.8595 91.9094C26.0483 91.9588 26.1719 92.2555 26.3257 92.4374Z" fill="#201D23"/>
<path d="M74.8585 93.8256C73.2791 94.4726 71.6682 94.3153 70.0508 94.0198C70.655 93.8827 71.2573 93.6392 71.8638 93.63C72.8602 93.6154 73.86 93.7525 74.8585 93.8256Z" fill="#201D23"/>
<path d="M94.6842 105.583C94.9785 105.567 95.2729 105.551 95.3481 105.548C95.8322 104.964 96.2017 104.519 96.5704 104.074C96.7467 105.339 96.458 106.387 94.9571 107.081C94.7528 106.606 94.5325 106.094 94.3125 105.583L94.4989 105.577L94.6842 105.583Z" fill="#201D23"/>
<path d="M97.7201 93.6152C98.4602 93.3637 99.2005 93.1109 99.942 92.8594C99.9744 94.1489 99.2353 94.7949 98.084 95.0982C97.9592 94.9733 97.8346 94.8476 97.7109 94.7218C97.7133 94.3534 97.7166 93.9838 97.7201 93.6152Z" fill="#121007"/>
<path d="M65.9055 94.222C64.4225 94.2791 62.9398 94.3353 61.457 94.3927C62.9139 93.6737 64.4079 93.9142 65.9055 94.222Z" fill="#201D23"/>
<path d="M79.1357 94.3528C78.7683 94.1911 78.4133 93.9452 78.0303 93.8878C77.3699 93.7879 76.6903 93.8048 76.0195 93.7721C77.1687 92.9241 78.7302 93.0139 79.7669 94.0653C79.5321 94.172 79.3346 94.2618 79.1357 94.3528Z" fill="#201D23"/>
<path d="M35.314 94.016C34.1086 94.4923 33.0505 93.9542 31.9766 93.5261C32.9809 93.2689 34.0301 93.4229 35.314 94.016Z" fill="#201D23"/>
<path d="M77.2965 101.409C76.6617 100.345 76.5426 99.304 77.4345 98.3086C77.3884 99.3421 77.3426 100.376 77.2965 101.409Z" fill="#201D23"/>
<path d="M77.6466 105.551C77.5714 104.435 77.4971 103.319 77.4219 102.203C78.3117 103.264 77.9454 104.409 77.6466 105.551Z" fill="#201D23"/>
<path d="M91.7235 66.6407C90.563 66.5384 89.4026 66.4352 88.2422 66.333C88.8005 66.3094 89.3746 66.3544 89.9104 66.2319C90.1765 66.17 90.3721 65.8005 90.6002 65.5703C90.9855 65.6343 91.3706 65.6982 91.755 65.7624C91.7449 66.0544 91.7336 66.3475 91.7235 66.6407Z" fill="#121007"/>
<path d="M12.8972 86.7359C11.8961 86.4844 10.8953 86.234 9.89453 85.9822C10.1482 85.7779 10.4404 85.3667 10.6482 85.4048C11.5367 85.5689 12.4444 85.7958 12.8972 86.7359Z" fill="#201D23"/>
<path d="M94.6842 105.585L94.4989 105.58L94.3125 105.585C93.0183 105.508 93.2442 104.538 93.2205 103.715C93.7048 104.097 94.1877 104.478 94.6708 104.86C94.6753 105.101 94.6797 105.344 94.6842 105.585Z" fill="#121007"/>
<path d="M39.745 94.4567C38.9003 94.3848 38.0556 94.3131 37.2109 94.2412C38.0984 93.8131 38.9532 93.7625 39.745 94.4567Z" fill="#201D23"/>
<path d="M101.809 67.0083C100.319 66.9949 98.8294 66.9825 97.3398 66.9691C98.8339 66.4648 100.325 66.4074 101.809 67.0083Z" fill="#121007"/>
<path d="M109.265 66.5391C108.407 66.8256 107.548 67.1132 106.69 67.3995C106.684 67.2312 106.678 67.0626 106.672 66.8941C107.536 66.776 108.401 66.6571 109.265 66.5391Z" fill="#49464F"/>
<path d="M99.9492 92.852C100.414 91.7445 101.385 92.1926 102.187 92.1206C101.92 92.3635 101.69 92.734 101.381 92.8172C100.933 92.9385 100.429 92.8508 99.9492 92.852Z" fill="#121007"/>
<path d="M17.0262 89.0421C16.3038 88.6749 15.5816 88.3086 14.8594 87.9414C15.6636 88.1457 16.6466 87.9988 17.0262 89.0421Z" fill="#201D23"/>
<path d="M14.7924 87.896C14.2656 87.5657 13.739 87.2354 13.2109 86.9062C13.9174 86.949 14.5813 87.0591 14.7924 87.896Z" fill="#201D23"/>
<path d="M118.222 32.6876C118.241 32.8774 118.262 33.0685 118.281 33.2582C117.756 33.1212 117.232 32.9841 116.707 32.847C116.715 32.7617 116.724 32.6752 116.732 32.5898L118.222 32.6876Z" fill="#9E9DA1"/>
<path d="M8.70751 87.6094C8.47735 88.053 8.24696 88.4966 8.01562 88.9405C8.11554 88.4282 7.78077 87.6902 8.70751 87.6094Z" fill="#201D23"/>
<path d="M97.7144 94.7227C97.839 94.8484 97.9639 94.9733 98.0885 95.099C97.8571 95.3574 97.6258 95.617 97.3942 95.8765C97.3752 95.4933 97.3562 95.1103 97.3359 94.7283C97.4617 94.7262 97.5887 94.725 97.7144 94.7227Z" fill="#201D23"/>
<path d="M28.5996 92.9192C28.2378 92.8485 27.8772 92.7777 27.5156 92.7081C27.9604 92.3487 28.33 92.3745 28.5996 92.9192Z" fill="#201D23"/>
<path d="M87.6125 34.4375C87.617 34.8127 87.6217 35.1889 87.625 35.5641C87.0981 35.1945 87.0936 34.8193 87.6125 34.4375Z" fill="#0A1208"/>
<path d="M96.9961 99.6101C97.013 99.217 97.0297 98.8228 97.0455 98.4297C97.2556 98.6048 97.4646 98.78 97.6746 98.9554C97.4477 99.1733 97.222 99.3922 96.9961 99.6101Z" fill="#201D23"/>
<path d="M5.9749 93.9648C5.88721 94.3309 5.79975 94.6983 5.71206 95.0646C5.25927 94.5681 5.26726 94.1828 5.9749 93.9648Z" fill="#201D23"/>
<path d="M19.255 90.0503C18.8011 89.8448 18.3473 89.6393 17.8945 89.4336C18.3765 89.5763 19.0853 89.2145 19.255 90.0503Z" fill="#201D23"/>
<path d="M30.8396 93.3485C30.4736 93.2732 30.1085 93.1992 29.7422 93.1237C30.2027 92.7351 30.5859 92.7229 30.8396 93.3485Z" fill="#201D23"/>
<path d="M128.359 47.1439C128.213 46.9911 128.068 46.8385 127.922 46.6857C128.236 46.516 128.55 46.3453 128.864 46.1758C128.937 46.2386 129.01 46.3016 129.083 46.3643C128.842 46.6239 128.6 46.8846 128.359 47.1439Z" fill="#49464F"/>
<path d="M96.9258 101.469C96.9382 101.217 96.9495 100.967 96.9618 100.715C97.4258 100.989 97.3854 101.238 96.9258 101.469Z" fill="#201D23"/>
<path d="M108.561 34.1013C108.55 33.878 108.539 33.6556 108.527 33.432C108.77 33.3747 109.011 33.3164 109.253 33.2578C109.288 33.3432 109.321 33.4297 109.356 33.515C109.091 33.7106 108.826 33.906 108.561 34.1013Z" fill="#BEBABC"/>
<path d="M65.9361 57.6089C65.5712 57.6033 65.2049 57.5976 64.8398 57.592C65.2118 57.1493 65.5778 57.1484 65.9361 57.6089Z" fill="#0A1208"/>
<path d="M129.887 33.6328C129.966 33.7104 130.046 33.788 130.125 33.8644C129.997 33.8475 129.867 33.8294 129.738 33.8127C129.784 33.7497 129.834 33.689 129.887 33.6328Z" fill="#49464F"/>
<path d="M69.3203 33.7681C69.4339 33.7063 69.5528 33.6917 69.6774 33.723C69.5585 33.7378 69.4393 33.7533 69.3203 33.7681Z" fill="#0A1208"/>
<path d="M7.30489 90.3438L7.38928 90.3999L7.26562 90.4234L7.30489 90.3438Z" fill="#201D23"/>
<path d="M129.554 33.7769C129.53 33.6208 129.507 33.4647 129.484 33.3086C129.618 33.4153 129.752 33.5221 129.887 33.6288C129.834 33.685 129.784 33.7445 129.738 33.8072C129.678 33.7927 129.616 33.7825 129.554 33.7769Z" fill="#49464F"/>
<path d="M17.3212 89.1954C17.2436 89.1573 17.1672 89.1189 17.0898 89.082C17.1752 89.1034 17.2516 89.1415 17.3212 89.1954Z" fill="#201D23"/>
<path d="M68.5497 57.5898L68.3722 57.6326L68.1914 57.6011C68.3104 57.5978 68.4307 57.5934 68.5497 57.5898Z" fill="#0A1208"/>
<path d="M109.797 32.9648C109.881 33.0558 109.921 33.0998 109.962 33.1435C109.913 33.1783 109.864 33.2119 109.815 33.247C109.81 33.1715 109.806 33.0963 109.797 32.9648Z" fill="#49464F"/>
<path d="M103.295 66.9492L103.118 67.0075L102.934 66.976C103.054 66.9671 103.175 66.9582 103.295 66.9492Z" fill="#121007"/>
<path d="M67.7969 39.5916C67.906 39.522 68.0148 39.4524 68.1239 39.3828C68.0698 39.4872 68.016 39.5916 67.9621 39.6971L67.834 39.7152L67.7969 39.5916Z" fill="#9E9DA1"/>
<path d="M67.2539 39.8202C67.4359 39.7438 67.6167 39.6662 67.7986 39.5898L67.8346 39.7123L67.9627 39.6945C67.8268 39.8527 67.6907 40.0111 67.5548 40.1684C67.4537 40.0527 67.3538 39.9371 67.2539 39.8202Z" fill="#F5F5F5"/>
<path d="M45.4102 42.7684C45.5225 42.7044 45.6394 42.6943 45.7619 42.7359C45.645 42.7472 45.527 42.7573 45.4102 42.7684Z" fill="#0A1208"/>
<path d="M44.6655 48.6758C44.5599 48.7174 44.4532 48.7578 44.3477 48.7995C44.4363 48.7153 44.5418 48.6749 44.6655 48.6758Z" fill="#0A1208"/>
<path d="M121.618 95.4759C121.742 95.0489 121.866 94.6222 121.99 94.1953C123.399 94.6368 124.854 94.9659 126.205 95.5433C128.263 96.4228 129.06 98.2067 128.528 100.405C128.311 101.302 128.095 102.223 127.695 103.043C126.913 104.646 125.699 105.687 123.768 105.616C123.094 105.591 122.416 105.706 121.739 105.758C121.684 103.066 121.628 100.376 121.573 97.6855C121.571 97.3148 121.569 96.9452 121.566 96.5757C121.583 96.2094 121.601 95.8422 121.618 95.4759Z" fill="#539836"/>
<path d="M122.003 94.0019C121.5 93.7155 120.996 93.4289 120.441 93.1144C120.932 92.1528 121.642 92.0934 122.386 92.1023C122.259 92.7359 122.131 93.3683 122.003 94.0019Z" fill="#35323A"/>
<path d="M130.556 96.9066C130.431 97.165 130.306 97.4246 130.183 97.6829C130.028 97.2842 129.873 96.8852 129.719 96.4853C129.817 96.4303 129.915 96.3753 130.014 96.3203C130.194 96.5157 130.375 96.7113 130.556 96.9066Z" fill="#35323A"/>
<path d="M121.635 108.2C121.115 107.915 121.18 107.663 121.676 107.435C121.792 107.41 121.894 107.437 121.984 107.515C121.867 107.743 121.752 107.972 121.635 108.2Z" fill="#747173"/>
<path d="M121.566 96.5781C121.568 96.9477 121.57 97.3173 121.573 97.6878C120.271 96.9724 119.283 98.2574 117.977 98.1349C117.976 99.3087 117.575 100.357 118.298 101.432C118.527 101.772 118.292 102.488 118.153 103.001C117.901 103.947 117.398 103.635 116.861 103.217C116.808 103.174 116.482 103.481 116.282 103.626C116.191 103.504 116.1 103.384 116.008 103.264C116.42 102.949 116.832 102.635 117.229 102.333C116.864 102.231 116.465 102.12 115.701 101.908C116.305 101.296 116.721 100.875 117.133 100.457C116.959 100.41 116.64 100.324 116.198 100.205C116.526 100.007 116.783 99.8537 117.287 99.5502C116.76 99.4256 116.472 99.3572 115.997 99.2448C116.403 98.9639 116.73 98.7382 117.303 98.3427C116.06 98.0754 115.072 97.8641 114.086 97.653C114.102 97.4228 114.117 97.1913 114.133 96.9611C115.889 96.7634 117.637 97.4945 119.404 96.9724C120.102 96.7655 120.844 96.7048 121.566 96.5781Z" fill="#49464F"/>
<path d="M110.034 66.6487C112.386 66.3409 114.737 66.032 117.089 65.7243C117.632 65.6523 118.195 65.6444 118.709 65.4814C118.982 65.3951 119.171 65.039 119.398 64.8053C120.001 64.7895 120.603 64.7738 121.205 64.758C121.47 64.6513 121.735 64.5457 122.002 64.439C122.835 64.4099 123.67 64.3807 124.505 64.3516C124.88 64.4381 125.254 64.5255 125.629 64.6132C125.631 64.7155 125.634 64.8187 125.636 64.921C125.089 65.0503 124.543 65.1793 123.815 65.3524C124.97 66.9115 125.902 68.4953 126.095 70.386C125.683 70.1793 125.272 69.9724 124.885 69.7794C124.748 70.3129 124.781 71.0363 124.444 71.324C123.807 71.8664 123.363 71.1272 122.898 70.7499C122.165 70.1568 121.414 70.3117 120.639 70.6925C120.212 70.9015 119.745 71.0261 119.109 71.2554C118.827 70.7252 118.568 70.2376 118.319 69.7726C117.571 70.2231 117.161 70.469 117.089 70.5129C114.997 70.5331 115.633 68.0954 113.938 67.8157C113.583 68.5605 113.245 69.2693 112.793 70.2186C113.338 70.5454 113.808 70.8275 114.172 71.0454C113.417 73.7525 113.591 74.5143 115.228 75.9834C116.338 75.2433 117.003 75.7767 117.501 76.836C117.02 77.4764 116.588 78.0527 116.086 78.721C115.546 78.2222 115.124 77.8336 114.759 77.4967C112.698 78.028 112.573 80.0218 111.528 81.2485C110.408 81.3663 109.288 81.4844 108.167 81.6033C107.917 81.363 107.665 80.9328 107.414 80.934C107.165 80.9349 106.918 81.3675 106.668 81.6101C105.176 81.6134 103.682 81.6169 102.188 81.6202C102.302 80.6093 103.093 80.5576 103.831 80.5059C104.568 80.4553 105.311 80.4958 106.233 80.4958C107.057 79.0041 107.906 77.5122 108.703 75.9935C108.861 75.6902 108.898 75.2736 108.861 74.9219C108.652 72.9078 108.399 70.8992 108.174 68.8875C108.155 68.71 108.22 68.5245 108.224 68.4942C108.893 67.8136 109.463 67.2305 110.034 66.6487Z" fill="#3B363D"/>
<path d="M111.527 81.2493C112.572 80.0225 112.698 78.0287 114.757 77.4974C115.122 77.8343 115.546 78.2241 116.086 78.7218C116.587 78.0534 117.018 77.4781 117.499 76.8368C117.001 75.7774 116.337 75.244 115.227 75.9841C113.59 74.5159 113.416 73.7533 114.171 71.0471C113.808 70.8292 113.336 70.5461 112.792 70.2193C113.244 69.27 113.582 68.5624 113.937 67.8164C115.632 68.0962 114.996 70.5339 117.089 70.5137C117.161 70.4697 117.57 70.2238 118.319 69.7733C118.566 70.2384 118.826 70.7259 119.109 71.2573C119.744 71.0269 120.212 70.9034 120.638 70.6933C121.414 70.3136 122.164 70.1575 122.897 70.7506C123.363 71.128 123.805 71.8671 124.442 71.3247C124.78 71.037 124.748 70.3136 124.884 69.7802C125.27 69.9743 125.682 70.1801 126.094 70.3867C126.201 70.39 126.31 70.3935 126.418 70.398C126.434 71.6438 126.45 72.8905 126.465 74.1374C126.472 76.375 126.479 78.6127 126.486 80.8503C121.499 80.9829 116.514 81.1167 111.527 81.2493Z" fill="#35323A"/>
<path d="M89.873 83.4677C88.8397 83.4656 87.8072 83.4632 86.774 83.4609C86.7942 83.1195 86.8144 82.7779 86.8355 82.4377C86.5974 81.7905 86.3592 81.1424 86.1211 80.4954C87.3725 79.7854 87.9038 78.7138 88.0129 77.2715C88.169 75.218 87.3793 73.1792 87.987 71.1337C89.3743 70.8259 90.7628 70.5191 92.4703 70.1406V81.9939C91.6952 82.1827 90.9201 82.3703 89.9743 82.6004C89.9517 82.7981 89.9125 83.1329 89.873 83.4677Z" fill="#35323A"/>
<path d="M126.842 86.482C125.263 86.6068 123.684 86.7707 122.102 86.8459C120.689 86.9122 119.271 86.8819 117.855 86.8932C117.116 86.8864 116.378 86.8786 115.639 86.8706C115.508 85.7452 115.378 84.6196 115.246 83.4928L126.844 83.1211C126.843 84.2423 126.843 85.362 126.842 86.482Z" fill="#3F3E45"/>
<path d="M136.561 90.9947C134.778 91.5644 132.589 90.7848 131.508 89.212C131.114 88.637 130.685 88.0866 130.271 87.5247C130.253 87.4248 130.213 87.3362 130.15 87.2586C129.782 85.3715 129.414 83.4841 129.047 81.597L129.071 81.5938C129.816 81.6431 130.562 81.6916 131.308 81.7409C131.528 82.3576 130.762 83.4124 132.099 83.5338C132.113 83.636 132.108 83.7371 132.088 83.8382C131.154 84.4436 131.626 85.2749 131.869 85.9409C132.661 88.1214 134.148 89.5007 136.575 89.6255C136.571 90.0816 136.565 90.5386 136.561 90.9947Z" fill="#9E9DA1"/>
<path d="M126.845 83.1245L115.247 83.4964C114.506 83.0055 114.506 83.0055 114.316 82.0395C118.504 81.8742 122.686 81.7092 126.922 81.543C127.162 82.1462 127.359 82.6437 127.557 83.1426C127.32 83.1357 127.082 83.1301 126.845 83.1245Z" fill="#35323A"/>
<path d="M115.645 86.8711C116.383 86.8789 117.122 86.8857 117.86 86.8934C118.115 87.3272 118.369 87.7607 118.506 87.9932C118.413 88.8167 118.333 89.5232 118.252 90.2308C117.888 90.2377 117.523 90.2454 117.159 90.2534C116.773 90.5499 116.423 90.942 115.988 91.1127C115.659 91.2429 115.081 91.234 114.867 91.0262C114.651 90.8151 114.566 90.0613 114.731 89.9276C115.766 89.093 115.65 87.9775 115.645 86.8711Z" fill="#080B09"/>
<path d="M121.566 96.5802C120.844 96.707 120.102 96.7676 119.403 96.9745C117.636 97.4966 115.889 96.7655 114.133 96.9632C114.286 96.7262 114.414 96.3038 114.593 96.2803C116.931 95.9815 119.276 95.7377 121.618 95.4805C121.601 95.8465 121.583 96.214 121.566 96.5802Z" fill="#35323A"/>
<path d="M126.466 74.1366C126.451 72.8896 126.434 71.6427 126.418 70.3957C126.428 69.0625 126.406 67.7279 126.467 66.3968C126.487 65.9621 126.724 65.5387 126.861 65.1094C126.963 68.1031 127.064 71.0956 127.166 74.0893C126.932 74.1051 126.7 74.1208 126.466 74.1366Z" fill="#747173"/>
<path d="M104.031 84.5835C104.04 83.9556 104.049 83.3276 104.058 82.6997C104.567 82.174 105.065 82.1931 105.551 82.7321C105.925 83.3434 106.298 83.9544 106.854 84.8633C106.014 84.9159 105.401 84.9552 104.787 84.9947C104.535 84.8576 104.283 84.7206 104.031 84.5835Z" fill="#49464F"/>
<path d="M126.465 74.1371C126.698 74.1213 126.931 74.1056 127.164 74.0898C127.186 76.0141 127.203 77.9372 127.232 79.8614C127.24 80.3984 127.209 80.8803 126.485 80.85C126.478 78.6124 126.471 76.3747 126.465 74.1371Z" fill="#49464F"/>
<path d="M100.337 82.769C100.148 83.4588 99.9564 84.1483 99.6802 85.1493C99.3522 84.4798 99.1465 84.0585 98.969 83.6967C97.7738 83.5013 96.6169 83.3125 95.4609 83.124C96.1552 82.9971 96.8449 82.8038 97.5448 82.7601C98.4716 82.7015 99.4061 82.7601 100.337 82.769Z" fill="#35323A"/>
<path d="M129.045 81.5977C129.412 83.4848 129.781 85.3719 130.148 87.2592C129.101 87.1736 128.897 86.2998 128.766 85.5538C128.558 84.3621 128.525 83.1366 128.469 81.9233C128.464 81.8233 128.844 81.7065 129.045 81.5977Z" fill="#3F3E45"/>
<path d="M129.25 77.4688C129.441 77.7318 129.771 77.9822 129.798 78.262C129.878 79.1111 129.84 79.9716 129.848 80.8287C129.705 80.8623 129.562 80.8962 129.42 80.9298C129.364 79.7762 129.306 78.6226 129.25 77.4688Z" fill="#9E9DA1"/>
<path d="M126.85 83.125C127.087 83.1306 127.325 83.1363 127.562 83.1431C127.576 83.9956 127.653 84.856 127.568 85.6998C127.54 85.9828 127.099 86.2254 126.848 86.4862C126.849 85.365 126.849 84.245 126.85 83.125Z" fill="#49464F"/>
<path d="M113.353 87.9693C113.179 87.9232 112.867 87.9053 112.85 87.8256C112.637 86.8326 112.428 85.8339 112.325 84.8251C112.307 84.6521 112.788 84.4276 113.038 84.2266C113.144 85.4733 113.248 86.7214 113.353 87.9693Z" fill="#49464F"/>
<path d="M129.418 80.9331C129.561 80.8995 129.704 80.8656 129.847 80.832C130.418 80.9308 130.99 81.0286 131.561 81.1264C131.477 81.3318 131.392 81.5364 131.308 81.7418C130.562 81.6925 129.816 81.6443 129.07 81.5947C129.186 81.3746 129.303 81.1532 129.418 80.9331Z" fill="#49464F"/>
<path d="M106.664 81.6127C106.912 81.3701 107.161 80.9375 107.41 80.9375C107.66 80.9366 107.912 81.3656 108.163 81.6059C107.663 81.6082 107.164 81.6106 106.664 81.6127Z" fill="#35323A"/>
<path d="M102.628 82.8022C102.483 83.0347 102.339 83.2672 102.194 83.4997C101.667 83.4816 101.058 83.5975 101.043 82.7695C101.571 82.7808 102.1 82.7909 102.628 82.8022Z" fill="#35323A"/>
<path d="M112.651 82.375C112.463 82.6155 112.275 82.8548 112.087 83.0951C111.898 82.8558 111.708 82.6176 111.52 82.3785C111.897 82.3773 112.273 82.3762 112.651 82.375Z" fill="#35323A"/>
<path d="M131.204 69.237C131.898 67.3092 133.118 65.8782 135.061 65.1289C136.488 65.2074 137.973 65.1378 138.824 66.6453C138.345 66.6319 137.861 66.6476 137.384 66.5983C135.653 66.4219 134.373 67.0038 133.73 68.7101C133.601 69.0089 133.471 69.3087 133.342 69.6086C132.591 72.0014 132.679 74.2356 134.566 76.1318C134.975 76.4767 135.384 76.8216 135.794 77.1665C135.675 77.3999 135.557 77.6324 135.438 77.8661C133.291 77.6954 132.054 76.3665 131.218 74.5287C131.125 74.2727 131.033 74.0167 130.94 73.7604C130.909 73.5166 130.879 73.2728 130.848 73.0293V71.1128L130.957 70.3861C131.039 70.0029 131.122 69.6199 131.204 69.237Z" fill="#201D23"/>
<path d="M138.82 66.6463C137.969 65.1377 136.483 65.2085 135.057 65.13C135.021 64.8535 134.985 64.5773 134.949 64.3008C137.35 64.3358 139.75 64.3706 142.15 64.4054C143.244 66.033 142.818 67.8719 142.874 69.6433C142.501 69.7703 142.129 69.896 141.757 70.0221C141.517 70.295 141.096 70.5534 141.073 70.8442C140.987 71.8553 141.039 72.8785 141.039 73.9782C140.72 73.8637 140.558 73.8052 140.396 73.7469C140.538 72.054 140.383 70.4229 139.395 68.9672C139.464 68.9481 139.529 68.9188 139.591 68.8818L139.76 68.8875L139.93 68.8863C140.434 68.8188 140.984 68.7739 140.281 68.1382C140.16 68.0101 140.039 67.882 139.918 67.755L139.93 67.7618C139.745 67.5136 139.558 67.2653 139.373 67.0171C139.176 66.8868 138.979 66.7566 138.782 66.6273L138.82 66.6463Z" fill="#B6B1B1"/>
<path d="M136.562 90.9921C136.567 90.536 136.573 90.079 136.577 89.6229C137.079 89.4612 137.58 89.2994 138.081 89.1386C138.726 89.1229 138.918 88.7646 138.806 88.1771C138.856 88.0995 138.92 88.0368 138.997 87.9874C139.587 88.0739 139.977 87.9187 139.925 87.2233L139.912 87.2391C140.548 86.8921 141.036 86.5035 140.314 85.7789C140.435 84.6375 140.506 83.4863 140.708 82.3594C140.76 82.0606 141.213 81.8338 141.483 81.5742C141.977 81.6125 142.472 81.6518 142.967 81.6899C142.94 84.6161 142.321 87.374 140.646 89.8284C139.43 90.7281 138.144 91.3807 136.562 90.9921Z" fill="#B6B1B1"/>
<path d="M140.401 73.7444C140.563 73.8029 140.724 73.8612 141.044 73.9759C141.044 72.8762 140.992 71.8528 141.077 70.8407C141.102 70.5497 141.522 70.2925 141.761 70.0195C141.634 71.5237 142.313 73.1458 141.118 74.496C140.968 74.7544 140.819 75.0115 140.671 75.2699L140.687 75.2485C140.556 75.3799 140.425 75.5125 140.293 75.6439L140.313 75.6216C140.185 75.8765 140.056 76.1327 139.928 76.3887L139.936 76.3774C139.808 76.5056 139.68 76.6349 139.551 76.7639L139.562 76.7505C139.435 76.929 139.307 77.1065 139.18 77.284C138.873 77.3559 138.568 77.4267 138.262 77.4974C137.44 77.3862 136.616 77.275 135.794 77.1638C135.384 76.819 134.975 76.4741 134.566 76.1292C134.701 75.9888 134.836 75.8485 134.971 75.7081C137.481 77.0773 138.842 76.6842 140.114 74.2242C140.2 74.0589 140.306 73.904 140.401 73.7444Z" fill="#9E9DA1"/>
<path d="M138.121 85.38C136.887 86.4754 136.38 86.5753 135.391 85.9182C134.194 85.124 133.567 83.4231 134.131 82.1437C134.393 81.5473 134.931 81.0733 135.343 80.543C135.531 80.7856 135.719 81.0273 135.905 81.2699C135.7 81.8934 135.353 82.5077 135.315 83.1401C135.229 84.6038 135.939 85.2195 137.529 85.2498C137.727 85.2924 137.924 85.3363 138.121 85.38Z" fill="#35323A"/>
<path d="M138.078 89.1431C137.577 89.3049 137.076 89.4666 136.574 89.6272C134.147 89.5026 132.66 88.123 131.868 85.9439C131.625 85.2777 131.153 84.4454 132.087 83.8398C132.574 85.0261 132.863 86.3596 133.597 87.3649C134.658 88.8152 136.231 89.3777 138.052 88.7174C138.06 88.8601 138.069 89.0016 138.078 89.1431Z" fill="#49464F"/>
<path d="M138.159 81.1484C139.302 82.3606 139.554 83.6501 138.496 85.0531C138.353 84.9095 138.207 84.7656 138.063 84.6217C137.992 83.5647 137.921 82.5066 137.852 81.4484C137.954 81.3485 138.057 81.2486 138.159 81.1484Z" fill="#747173"/>
<path d="M135.905 81.2727C135.718 81.0301 135.531 80.7872 135.344 80.5458C135.983 79.982 136.642 79.9044 137.325 80.4673C137.31 80.7075 137.294 80.9492 137.278 81.1895C137.03 81.1502 136.782 81.1119 136.533 81.0738C136.485 80.9278 136.438 80.7806 136.319 80.4111C136.253 80.8175 136.226 80.9861 136.199 81.1547C136.12 81.2433 136.022 81.2828 135.905 81.2727Z" fill="#49464F"/>
<path d="M131.304 81.7432C131.388 81.5389 131.474 81.3332 131.558 81.1289C131.737 81.9308 131.916 82.7341 132.096 83.5372C130.759 83.4147 131.524 82.3601 131.304 81.7432Z" fill="#747173"/>
<path d="M130.846 71.1094C130.846 71.7484 130.846 72.3864 130.847 73.0256C129.947 72.3415 129.946 71.7968 130.846 71.1094Z" fill="#9E9DA1"/>
<path d="M135.793 77.168C136.617 77.2792 137.439 77.3904 138.263 77.5016C137.402 78.2518 136.415 78.016 135.438 77.8676C135.556 77.6351 135.674 77.4014 135.793 77.168Z" fill="#3B363D"/>
<path d="M131.201 69.2383C131.119 69.6213 131.036 70.0042 130.954 70.3874C130.348 69.8561 130.409 69.4673 131.201 69.2383Z" fill="#9E9DA1"/>
<path d="M140.312 85.7812C141.035 86.5046 140.546 86.8935 139.91 87.2417C140.044 86.7552 140.179 86.2677 140.312 85.7812Z" fill="#747173"/>
<path d="M137.281 81.1898C137.297 80.9495 137.313 80.709 137.329 80.4688C137.606 80.6956 137.883 80.9225 138.16 81.1482C138.058 81.2493 137.955 81.3494 137.852 81.4493C137.662 81.3628 137.471 81.2763 137.281 81.1898Z" fill="#747173"/>
<path d="M138.078 89.1412C138.069 88.9997 138.06 88.8582 138.051 88.7155C138.301 88.5368 138.552 88.3581 138.802 88.1797C138.915 88.7681 138.722 89.1255 138.078 89.1412Z" fill="#747173"/>
<path d="M130.938 73.7578C131.031 74.0138 131.124 74.2701 131.218 74.5273C130.687 74.4295 130.36 74.2588 130.938 73.7578Z" fill="#9E9DA1"/>
<path d="M139.923 87.2266C139.976 87.9217 139.585 88.0769 138.996 87.9913C139.305 87.7365 139.614 87.4814 139.923 87.2266Z" fill="#747173"/>
<path d="M138.063 84.6211C138.207 84.7647 138.352 84.9086 138.496 85.0513C138.373 85.1613 138.248 85.2714 138.123 85.3816C137.927 85.3388 137.729 85.2951 137.531 85.2511C137.709 85.0412 137.885 84.831 138.063 84.6211Z" fill="#49464F"/>
<path d="M40.6055 35.3445C40.9717 33.4033 42.3073 31.9946 43.7644 30.858C47.4376 27.9924 51.7556 26.6634 56.3399 26.2207C58.6819 25.9938 61.0477 25.7973 63.3932 25.8713C67.0856 25.9873 70.6431 26.8094 73.866 28.7404C74.1782 28.9281 74.4693 29.1561 74.7467 29.3931C74.8174 29.4537 74.7972 29.6199 74.8793 30.0614C73.902 29.7941 73.0368 29.6122 72.2102 29.3223C67.9494 27.8259 63.5954 26.9622 59.0607 27.3362C55.7804 27.6071 52.5307 28.0923 49.4359 29.2682C46.8411 30.2556 44.6258 31.8317 42.7399 33.8808C42.1738 34.4963 41.5435 35.0523 40.9426 35.6353C40.8302 35.5387 40.7178 35.4409 40.6055 35.3445Z" fill="#0A1208"/>
<path d="M79.2837 65.1967L75.6623 64.4061C75.3667 64.2982 75.0724 64.1903 74.7771 64.0826L74.6568 64.1061L74.5434 64.0577C74.4186 64.0354 74.2952 64.014 74.1703 63.9917C73.4223 63.758 72.6754 63.5231 71.9271 63.2894C71.743 63.1815 71.5599 63.0738 71.3755 62.9659C69.2895 62.9671 67.5261 61.9292 65.9006 60.8755C63.9684 59.6229 61.8925 59.4141 59.7503 59.2117C59.5785 59.3309 59.4054 59.4498 59.2336 59.5679C58.6764 60.315 58.1204 61.0619 57.5632 61.809C57.4936 61.9223 57.424 62.0347 57.3542 62.1471C57.2781 62.5402 57.2016 62.9333 57.1252 63.3266C57.0319 63.4041 57.0242 63.4871 57.1027 63.5793L57.2882 64.7834C57.1904 64.952 57.0914 65.1194 56.9938 65.2868C56.2984 65.3653 56.013 65.0397 55.9131 64.3544C55.3571 60.5419 58.6541 57.3977 62.3688 58.3872C64.2514 58.8882 66.033 59.7802 67.8585 60.4991C69.2785 61.0586 70.6961 61.6224 72.1137 62.184C72.4281 62.3044 72.7426 62.4257 73.0572 62.547C73.138 62.5919 73.2234 62.6199 73.3144 62.6323C73.9726 62.8536 74.6309 63.075 75.2892 63.2962C75.6655 63.3905 76.0431 63.485 76.4204 63.5793C76.6642 63.6063 76.908 63.632 77.1518 63.659C77.2449 63.703 77.3415 63.7107 77.4405 63.6816C78.0875 63.8106 78.7345 63.9399 79.3815 64.0678L79.3669 64.0523C79.8735 64.1757 80.3801 64.2994 80.8856 64.4228L80.8687 64.4106C81.5989 64.5093 82.3303 64.6083 83.0605 64.7082C83.8332 64.8509 84.605 64.9946 85.3778 65.1373C85.717 65.3216 86.0575 65.5068 86.3979 65.6912C85.7652 65.8698 85.115 66.2427 84.5016 66.1898C83.0379 66.0628 81.5911 65.7361 80.1375 65.4901C79.8521 65.3923 79.5679 65.2945 79.2837 65.1967Z" fill="#080B09"/>
<path d="M85.3233 84.3321C85.3423 84.7186 85.3614 85.1051 85.3804 85.4914C83.1743 84.9152 81.0422 84.185 79.3281 82.5809C79.3561 82.3472 79.3843 82.1135 79.4123 81.8789C81.3826 82.6966 83.353 83.5145 85.3233 84.3321Z" fill="#121007"/>
<path d="M79.4117 81.8844C79.3835 82.1181 79.3555 82.3518 79.3275 82.5854C77.4628 81.6822 75.5991 80.779 73.7344 79.876C73.7525 79.567 73.7703 79.2581 73.7873 78.9492C75.6619 79.9277 77.5368 80.9059 79.4117 81.8844Z" fill="#080B09"/>
<path d="M67.3696 74.8908C68.2952 75.566 69.222 76.241 70.1475 76.9162C70.0949 77.1778 70.0408 77.4397 69.987 77.7002C68.539 76.8073 67.0664 75.9523 65.66 74.9964C65.2792 74.7368 65.1029 74.1731 64.832 73.7494C65.8498 73.3507 66.4069 74.1404 67.0821 74.6268C67.1776 74.7145 67.2742 74.8031 67.3696 74.8908Z" fill="#080B09"/>
<path d="M60.6781 69.2773C61.4824 70.0177 62.3372 70.7128 63.0641 71.5239C63.3189 71.8081 63.2573 72.3766 63.3392 72.8158C62.2147 71.8834 61.0893 70.951 59.9648 70.0198C60.203 69.7715 60.44 69.5244 60.6781 69.2773Z" fill="#080B09"/>
<path d="M57.7512 65.8918C58.3633 66.6479 58.9755 67.4028 59.5877 68.1586C59.3496 68.4024 59.1114 68.645 58.8721 68.8888C57.9656 68.0058 56.9232 67.2152 56.7852 65.8086C57.1075 65.8356 57.4288 65.8638 57.7512 65.8918Z" fill="#080B09"/>
<path d="M90.603 65.574C90.375 65.8044 90.1794 66.174 89.9133 66.2347C89.3775 66.3581 88.8034 66.312 88.2462 66.3367C87.7172 66.2189 86.9511 66.6997 86.7578 65.7414C86.795 65.5764 86.833 65.4111 86.8702 65.2461C88.1148 65.3549 89.3582 65.4652 90.603 65.574Z" fill="#080B09"/>
<path d="M69.9883 77.6983C70.0421 77.4364 70.0948 77.176 70.1488 76.9141C70.8913 77.3455 71.6339 77.7769 72.3752 78.2094C71.9833 78.3228 71.59 78.4375 71.1969 78.552C70.7935 78.2677 70.3915 77.9823 69.9883 77.6983Z" fill="#121007"/>
<path d="M58.875 68.8892C59.1132 68.6466 59.3525 68.4028 59.5906 68.1602C59.9546 68.5318 60.3185 68.9049 60.6824 69.2778C60.4443 69.5249 60.2061 69.772 59.9691 70.019C59.604 69.6429 59.2401 69.2653 58.875 68.8892Z" fill="#121007"/>
<path d="M71.1992 78.5537C71.5923 78.439 71.9844 78.3245 72.3775 78.2109C72.7358 78.4333 73.0931 78.6557 73.4514 78.8781C73.4166 79.1163 73.3818 79.3535 73.347 79.5905C72.6314 79.2456 71.9146 78.8995 71.1992 78.5537Z" fill="#080B09"/>
<path d="M75.2861 63.2956C74.6279 63.0744 73.9696 62.8529 73.3125 62.6317C74.0775 62.5306 74.8615 62.3778 75.2861 63.2956Z" fill="#49464F"/>
<path d="M86.8678 65.2407C86.8298 65.4058 86.7926 65.571 86.7545 65.7361C86.6365 65.7114 86.5164 65.6945 86.396 65.6855C86.0558 65.5012 85.7154 65.3171 85.375 65.1328C85.8727 65.1688 86.3704 65.2048 86.8678 65.2407Z" fill="#121007"/>
<path d="M63.8867 73.3649C64.0889 73.2266 64.2911 73.0875 64.4933 72.9492C64.6056 73.2132 64.7168 73.4772 64.8292 73.7413C64.5147 73.6155 64.2013 73.4906 63.8867 73.3649Z" fill="#080B09"/>
<path d="M57.7512 65.8903C57.4288 65.8623 57.1075 65.8341 56.7852 65.8071C56.9728 65.6454 57.1592 65.4848 57.3468 65.3242C57.4815 65.513 57.6162 65.7015 57.7512 65.8903Z" fill="#121007"/>
<path d="M73.3477 79.5885C73.3825 79.3516 73.4172 79.1134 73.452 78.8764C73.5722 78.8595 73.6834 78.883 73.788 78.9448C73.7699 79.2538 73.7532 79.5627 73.7351 79.8716C73.606 79.7773 73.4767 79.683 73.3477 79.5885Z" fill="#121007"/>
<path d="M56.9922 65.2807C57.09 65.1133 57.1887 64.9447 57.2865 64.7773C57.31 64.9638 57.3338 65.1514 57.3573 65.3378C57.2303 65.3524 57.109 65.3333 56.9922 65.2807Z" fill="#121007"/>
<path d="M85.5255 70.6667C85.5234 70.9498 85.521 71.2328 85.5199 71.5159C85.502 72.1349 85.4851 72.7548 85.4681 73.375C85.3008 73.5445 85.1324 73.7131 84.9639 73.8828C83.7966 73.4648 82.6341 73.0334 81.4602 72.6347C79.6068 72.0056 77.8139 72.0338 76.0942 73.1122C75.6325 73.4009 75.0741 73.5356 74.5597 73.7413C74.4417 73.694 74.3237 73.6468 74.2059 73.6007C72.8095 72.9032 71.4144 72.2056 70.0191 71.5081C69.0317 70.8183 68.0443 70.1286 67.0581 69.4388C67.0111 69.3647 66.9469 69.3086 66.8672 69.2726C66.5381 69.0199 66.2077 68.766 65.8786 68.5132C65.7698 68.4291 65.6607 68.3458 65.5518 68.2617L65.4463 68.1606C65.3675 68.0741 65.289 67.9887 65.2091 67.9022C64.6307 67.2383 63.8702 66.6508 64.1622 65.3164C65.0417 65.6354 65.7641 65.9206 66.5009 66.162C68.55 66.8328 70.5697 67.6438 72.6646 68.1122C76.9288 69.0636 81.2355 69.8265 85.5255 70.6667Z" fill="#D50650"/>
<path d="M85.5238 70.6671C81.2338 69.8269 76.9271 69.064 72.6629 68.1126C70.568 67.6442 68.5483 66.8332 66.4992 66.1624C65.7624 65.921 65.04 65.6358 64.1605 65.3168C63.8685 66.6512 64.629 67.2387 65.2074 67.9026C65.2558 68.0171 65.3343 68.1024 65.4446 68.161L65.5501 68.2621C65.659 68.3462 65.7681 68.4295 65.8769 68.5136C66.2061 68.7664 66.5364 69.0203 66.8655 69.273C65.1817 69.3292 62.6305 67.4534 62.2689 65.893C62.0284 64.8527 62.753 63.9709 63.809 64.1528C64.7156 64.3101 65.6209 64.5741 66.4781 64.9146C71.0431 66.7288 75.8196 67.7082 80.6296 68.5362C83.3041 68.9967 86.0046 69.3068 88.6927 69.6853C87.6369 70.0121 86.5799 70.3401 85.5238 70.6671Z" fill="#121007"/>
<path d="M70.0167 71.5078C71.4117 72.2053 72.807 72.9031 74.2021 73.6006C74.3201 73.6479 74.439 73.6937 74.5571 73.741C75.0717 73.5355 75.6298 73.4006 76.0915 73.1119C77.8112 72.0335 79.6041 72.0055 81.4576 72.6346C82.6316 73.0333 83.7942 73.4647 84.9612 73.8825C84.9814 74.3576 85.0016 74.833 85.0218 75.3081C83.3853 74.7733 81.7564 74.2116 80.1098 73.7118C78.6089 73.2569 77.8832 73.6354 77.0004 75.4012C79.803 76.5302 82.59 77.6534 85.378 78.7758C85.3658 79.124 85.3533 79.4721 85.3409 79.8205C84.4367 79.6282 83.4662 79.5845 82.6382 79.2182C77.9833 77.1581 73.3776 74.9924 69.2695 71.9213C69.519 71.7831 69.7672 71.646 70.0167 71.5078Z" fill="#121007"/>
<path d="M103.307 74.8804C102.132 75.2375 100.931 75.8262 99.9381 74.5097C99.4427 73.1807 99.2967 71.9789 100.623 70.932C100.984 70.6478 100.936 69.8423 101.075 69.2772C101.225 68.9414 101.376 68.6055 101.527 68.2695L102.136 68.3358C102.487 70.5253 103.71 72.5563 103.307 74.8804Z" fill="#080B09"/>
<path d="M104.418 68.207C104.836 68.5888 105.254 68.9697 105.818 69.4843C106.119 70.9019 105.928 72.4801 105.497 74.0325C105.44 74.2403 105.055 74.3559 104.822 74.5132C104.567 74.0315 104.157 73.5698 104.088 73.062C103.87 71.4758 103.78 69.8717 103.641 68.2745C103.899 68.2519 104.159 68.2294 104.418 68.207Z" fill="#35323A"/>
<path d="M85.3445 79.8245C85.3568 79.4763 85.3692 79.1282 85.3805 78.7797C85.2625 77.624 85.1435 76.4681 85.0243 75.3121C85.0053 74.837 84.9851 74.3618 84.9648 73.8867C85.1322 73.717 85.3008 73.5484 85.4691 73.3789C86.315 73.4711 86.1116 74.127 86.1152 74.6381C86.1309 76.5927 86.1229 78.5461 86.1241 80.4997C86.3622 81.1467 86.5992 81.7948 86.8374 82.4418C84.9378 82.3734 85.5074 80.8883 85.3445 79.8245Z" fill="#3F3E45"/>
<path d="M103.641 68.2734C103.78 69.8709 103.87 71.475 104.088 73.0611C104.159 73.5699 104.569 74.0304 104.823 74.5136C104.317 74.6361 103.813 74.7583 103.307 74.8808C103.71 72.5566 102.486 70.5256 102.137 68.3364C102.638 68.3162 103.14 68.2948 103.641 68.2734Z" fill="#201D23"/>
<path d="M70.0206 71.5093C69.7712 71.6475 69.5229 71.7846 69.2735 71.9228C68.3985 71.2982 67.5235 70.6735 66.6484 70.0491C66.7831 69.9064 66.9181 69.7637 67.0528 69.621L67.0584 69.4414C68.0458 70.13 69.0332 70.8195 70.0206 71.5093Z" fill="#201D23"/>
<path d="M57.1011 63.5758C57.0223 63.4848 57.0291 63.4006 57.1234 63.3242L57.2021 63.4578L57.1011 63.5758Z" fill="#121007"/>
<path d="M86.1198 80.4984C86.1186 78.545 86.1266 76.5905 86.1121 74.6371C86.1074 74.126 86.3119 73.4698 85.4648 73.3776C85.4818 72.7577 85.4987 72.1375 85.5154 71.5176C86.3389 71.3906 87.1622 71.2637 87.9855 71.1367C87.3781 73.1823 88.1677 75.221 88.0114 77.2746C87.9025 78.7169 87.3712 79.7885 86.1198 80.4984Z" fill="#3B363D"/>
<path d="M101.075 69.2769C100.936 69.843 100.984 70.6473 100.625 70.9315C99.2982 71.9784 99.4442 73.1816 99.9395 74.5094C98.8983 74.4678 98.7466 73.7635 98.8332 72.9468C98.969 71.6662 99.1534 70.3901 99.3398 68.9297C99.9452 69.051 100.51 69.1634 101.075 69.2769Z" fill="#201D23"/>
<path d="M96.0195 74.5837C95.6419 74.3423 95.1644 74.1726 95.1691 74.0188C95.2016 73.0639 94.6018 71.9227 96.0195 71.043V74.5837Z" fill="#201D23"/>
<path d="M97.7133 94.7202C97.5875 94.7226 97.4605 94.7238 97.3348 94.7259C97.074 94.6191 96.8124 94.5124 96.5204 94.3923C96.2608 94.909 96.0215 95.3865 95.7813 95.8637C95.5553 95.4471 95.0915 94.9967 95.1441 94.6182C95.3499 93.1397 94.4972 92.2536 93.5906 91.3548C93.4402 89.8911 94.6803 90.1608 95.4566 89.8507C95.4789 90.1519 95.5015 90.4528 95.5431 91.0022C96.9078 90.5628 98.1524 90.1629 99.3444 89.7788C99.815 88.0861 99.815 88.0861 101.418 87.9883C101.415 88.359 101.411 88.7295 101.408 89.0991C101.204 89.1993 101.002 89.298 100.799 89.397C101.008 89.5507 101.216 89.7047 101.425 89.8587C101.57 90.3404 101.715 90.8223 101.859 91.3031C101.243 91.3177 100.626 91.3233 100.009 91.3471C98.5457 91.4054 97.9627 91.9872 97.7222 93.6139C97.7201 93.9823 97.7166 94.3518 97.7133 94.7202Z" fill="#3F3E45"/>
<path d="M95.4565 89.8559C94.6814 90.166 93.4401 89.8963 93.5908 91.36C91.7204 90.6669 90.2049 89.5796 89.4648 87.6295C89.585 87.6361 89.7423 87.5935 89.8208 87.6542C91.4947 88.9425 93.567 88.6719 95.4553 89.1167C95.4553 89.3626 95.4565 89.61 95.4565 89.8559Z" fill="#35323A"/>
<path d="M104.03 84.582C104.282 84.7191 104.533 84.8562 104.786 84.9932C104.661 86.3995 104.536 87.8059 104.412 89.2113C104.354 89.8761 104.003 90.2222 103.327 90.2121C103.435 88.3205 102.902 86.3467 104.03 84.582Z" fill="#201D23"/>
<path d="M95.4102 99.1602C95.2889 99.8083 95.1676 100.456 95.0463 101.105C94.5813 100.346 94.2881 99.6207 95.4102 99.1602Z" fill="#3F3E45"/>
<path d="M101.426 89.8609C101.218 89.7069 101.01 89.5532 100.801 89.3992C101.003 89.3005 101.206 89.2015 101.41 89.1016C101.415 89.3555 101.421 89.6082 101.426 89.8609Z" fill="#49464F"/>
<path d="M133.727 68.7115C134.368 67.0061 135.65 66.4233 137.381 66.6008C137.857 66.649 138.34 66.6333 138.821 66.6479L138.783 66.6276C138.78 66.7659 138.779 66.9041 138.778 67.0421C138.93 67.2645 139.08 67.4869 139.232 67.7105C139.035 67.8892 138.839 68.069 138.643 68.2486C136.921 67.3489 135.481 67.8172 134.22 69.1596C134.056 69.0103 133.89 68.8608 133.727 68.7115Z" fill="#BEBABC"/>
<path d="M134.563 76.1326C132.676 74.2375 132.588 72.0022 133.338 69.6094C133.545 69.6207 133.753 69.6319 133.96 69.6432C133.173 71.8538 133.435 73.8881 134.967 75.7113C134.832 75.8516 134.698 75.9922 134.563 76.1326Z" fill="#9E9DA1"/>
<path d="M133.962 69.6394C133.755 69.6281 133.548 69.6168 133.34 69.6058C133.47 69.3058 133.601 69.007 133.73 68.707C133.895 68.8566 134.059 69.0058 134.223 69.1554C134.136 69.3171 134.049 69.4777 133.962 69.6394Z" fill="#BEBABC"/>
<path d="M133.959 69.6401C134.046 69.4783 134.133 69.3177 134.22 69.156C135.481 67.8136 136.921 67.3439 138.643 68.245C138.894 68.4853 139.144 68.7246 139.396 68.9649C140.383 70.4208 140.539 72.0519 140.397 73.7446C140.302 73.9042 140.196 74.0591 140.11 74.2244C138.838 76.6833 137.477 77.0775 134.967 75.7083C133.435 73.8852 133.172 71.8507 133.959 69.6401Z" fill="#121007"/>
<path d="M139.401 68.9662C139.15 68.7257 138.899 68.4866 138.648 68.2461C138.845 68.0665 139.04 67.8866 139.237 67.707C139.469 67.7249 139.703 67.7428 139.936 67.7609L139.925 67.7529C140.045 67.881 140.166 68.0091 140.287 68.1361C140.99 68.7718 140.441 68.8179 139.936 68.8853C139.875 68.7976 139.814 68.7099 139.753 68.6234C139.701 68.709 139.649 68.7943 139.598 68.8797C139.536 68.9178 139.471 68.946 139.401 68.9662Z" fill="#9E9DA1"/>
<path d="M139.93 67.7604C139.697 67.7425 139.464 67.7244 139.231 67.7075C139.079 67.4851 138.929 67.2615 138.777 67.0391C138.976 67.0314 139.175 67.0236 139.373 67.0156C139.559 67.2639 139.745 67.5121 139.93 67.7604Z" fill="#747173"/>
<path d="M139.594 68.8822C139.645 68.7969 139.697 68.7115 139.75 68.625C139.811 68.7127 139.871 68.8004 139.933 68.8867L139.763 68.8878L139.594 68.8822Z" fill="#BEBABC"/>
<path d="M139.377 67.0199C139.178 67.0276 138.979 67.0354 138.781 67.0434C138.782 66.9051 138.784 66.7669 138.785 66.6289C138.982 66.7591 139.179 66.8894 139.377 67.0199Z" fill="#201D23"/>
<path d="M138.06 84.6179C137.883 84.8278 137.706 85.038 137.529 85.2479C135.938 85.2188 135.228 84.6033 135.316 83.1396C135.353 82.506 135.699 81.8915 135.905 81.2692C136.022 81.2793 136.12 81.24 136.199 81.1512C136.322 81.1749 136.433 81.1479 136.532 81.0703C136.781 81.1086 137.029 81.1467 137.278 81.185C137.468 81.2716 137.658 81.3581 137.849 81.4443C137.92 82.5025 137.989 83.5597 138.06 84.6179Z" fill="#BEBABC"/>
<path d="M136.534 81.0768C136.435 81.1544 136.323 81.1812 136.199 81.1577C136.226 80.9891 136.254 80.8205 136.319 80.4141C136.439 80.7825 136.487 80.9296 136.534 81.0768Z" fill="#35323A"/>
<path d="M65.4481 68.1646C65.3379 68.1061 65.2582 68.0207 65.2109 67.9062C65.2897 67.9928 65.3694 68.0781 65.4481 68.1646Z" fill="#201D23"/>
<path d="M85.0253 75.3076C85.1445 76.4636 85.2626 77.6195 85.3815 78.7764C82.5947 77.6531 79.8065 76.531 77.0039 75.4009C77.8879 73.6351 78.6124 73.2564 80.1133 73.7115C81.7599 74.2113 83.3889 74.773 85.0253 75.3076Z" fill="#B6B1B1"/>
</svg>
