<svg width="150" height="110" viewBox="0 0 150 110" fill="none" xmlns="http://www.w3.org/2000/svg">
<path d="M29.0312 38.4317V23.125L119.786 24.5363C121.595 26.2732 125.3 30.4852 125.648 33.438C125.995 36.3908 123.259 38.0698 121.848 38.5402L110.558 46.1393L68.7634 51.0244L29.0312 38.4317Z" fill="#D9D9D9"/>
<path d="M23.8327 32.3398C23.7853 32.195 23.7378 32.0497 23.6905 31.9049C22.3287 31.668 21.3717 32.2328 20.8703 33.7239C21.8576 33.2623 22.8454 32.8009 23.8327 32.3398ZM30.1696 73.7468C32.0218 76.4162 34.4618 77.3952 36.7867 76.6079C34.713 75.7115 32.5027 74.7555 30.1696 73.7468ZM29.9955 20.4807C30.0719 20.6746 30.1481 20.8689 30.225 21.0632C30.7769 20.8498 31.3427 20.6664 31.8785 20.4184C35.3279 18.8237 38.6677 16.92 42.2371 15.6753C48.6776 13.429 55.3611 13.457 62.0735 14.3639C65.9449 14.8867 69.5188 16.3381 73.1622 17.5992C73.8811 17.848 74.6484 17.9544 75.3935 18.1263C70.7197 14.4416 59.9297 11.8352 48.1933 13.1498C41.4394 13.9065 35.5738 16.8796 29.9955 20.4807ZM16 79.011V19.9542C16.7134 19.3415 17.5988 18.8467 18.1117 18.0964C20.6771 14.3409 24.1883 11.582 28.0899 9.56631C32.9674 7.04668 38.164 5.14301 43.7215 4.57156C46.927 4.57656 50.1323 4.58112 53.3378 4.58611C55.6329 4.775 57.9279 4.96389 60.223 5.15343L60.393 5.19881L60.5689 5.19338C63.4619 5.86992 66.378 6.46047 69.2415 7.24556C72.4242 8.11771 75.3803 7.54887 78.2759 6.21252C78.9798 5.88728 79.6383 5.45783 80.3537 5.16494C82.6313 4.232 84.726 2.69026 87.3837 2.9864C89.7674 2.98727 92.1505 2.9877 94.534 2.98857C102.944 2.47727 114.801 11.6495 115.02 16.818C110.117 13.5843 104.684 12.5903 99.0365 12.4107C97.8409 12.4079 96.6452 12.4055 95.4496 12.4025C90.038 12.1984 84.9062 13.5812 79.8337 15.2317C79.2178 15.4321 78.7447 16.0737 78.2054 16.5112C78.3176 16.6732 78.4303 16.8349 78.5423 16.9971C79.7104 16.4741 80.8307 15.7231 82.0544 15.4686C86.6054 14.5215 91.1904 13.7382 95.7622 12.8932L99.0237 12.9813C101.439 13.3873 103.848 13.8294 106.269 14.1911C110.134 14.7688 113.226 16.9009 116.35 19.0367C110.593 17.2563 104.715 16.5874 98.7986 17.25C89.5618 18.2839 83.2898 20.3617 82.1447 22.6043C82.7112 22.3575 83.0375 22.2259 83.3545 22.0746C83.7284 21.8963 84.0786 21.6557 84.4659 21.5196C92.1607 18.813 100.026 17.1198 108.214 18.2572C111.335 18.6908 114.389 19.6394 117.446 20.4592C118.258 20.677 119.274 21.0504 119.023 22.4054C112.908 19.2796 106.505 18.6776 99.9237 19.3361C93.4662 19.9818 87.2919 21.5161 81.9352 25.3971C82.5397 25.4255 83.0327 25.1548 83.5538 24.9589C87.001 23.6617 90.3838 22.1158 93.9267 21.177C96.8441 20.4039 99.9439 20.2352 102.978 20.0135C109.419 19.5428 115.399 20.9432 120.726 24.7616C120.95 24.9229 121.45 24.6986 121.823 24.6535C122.025 24.9498 122.228 25.246 122.431 25.5423C120.993 25.5295 122.419 26.7224 121.797 27.0528C121.519 26.9951 121.24 26.9377 120.962 26.8804C120.844 26.86 120.727 26.8398 120.61 26.8201C120.505 26.7764 120.397 26.7632 120.285 26.7812C120.17 26.7421 120.055 26.7028 119.94 26.6637C119.475 26.6023 119.01 26.5408 118.545 26.4792L118.459 26.5782L118.333 26.5411C115.223 26.1331 112.112 25.3871 109.002 25.3912C103.404 25.399 97.8066 25.8567 92.2091 26.1262C92.091 26.1318 91.9731 26.1377 91.855 26.1435C91.3559 26.1917 90.8563 26.2395 90.3565 26.2879L89.6819 26.4249L89.6845 26.4214C89.5651 26.3874 89.4492 26.3952 89.3354 26.4442C88.5902 26.5367 87.8447 26.6294 87.0991 26.7224C86.9899 26.6477 86.8974 26.6724 86.8223 26.7975L86.4584 26.8307C86.3416 26.8472 86.2252 26.8637 86.1086 26.8804C83.4073 27.7146 80.6824 27.9525 77.919 27.2041L78.0106 27.1373L78.0816 27.2256C77.6995 27.1716 77.3174 27.1171 76.9359 27.063C76.7527 26.9809 76.5698 26.8984 76.387 26.8159L76.3651 26.8099L76.2605 26.7059L76.1345 26.7499C75.3957 26.6394 74.6571 26.5287 73.9182 26.4182C73.8001 26.3778 73.6818 26.337 73.5637 26.2962C73.307 26.249 73.0504 26.2015 72.7938 26.1542L72.4407 26.124C69.3286 25.8893 66.2167 25.6541 63.1045 25.4192C62.258 25.4164 61.4108 25.414 60.5639 25.411C55.8941 25.6487 51.2244 25.8869 46.5545 26.1244C46.4327 26.089 46.3159 26.1014 46.2045 26.1615C45.9466 26.2065 45.6893 26.2519 45.4318 26.2968C45.3071 26.3344 45.1825 26.3715 45.0579 26.4091C44.9561 26.3815 44.8558 26.3869 44.7576 26.4256C44.6391 26.4401 44.5212 26.4544 44.4026 26.4685C43.8021 26.5841 43.2013 26.7 42.6006 26.8155C42.4202 26.9002 42.24 26.9842 42.0597 27.0689C41.1602 27.233 40.2607 27.3978 39.3612 27.5619C39.1031 27.656 38.8443 27.75 38.5857 27.8446C38.4821 27.8268 38.3835 27.8425 38.2906 27.8915L37.1961 28.5867L37.2003 28.5843C35.9488 28.9784 34.706 29.4042 33.4435 29.7594C31.7808 30.2273 30.1305 30.1901 28.5139 29.4834C29.3865 29.197 30.2658 29.1141 31.1384 28.9854C31.844 28.8814 32.6063 28.8599 33.2303 28.5628C35.1615 27.6423 37.0042 26.5317 38.9454 25.6344C42.1305 24.1613 45.2833 22.5457 48.6008 21.4478C53.5606 19.8066 58.7661 19.9698 63.9018 20.3772C65.9555 20.54 67.9727 21.2951 69.9813 21.869C72.028 22.4541 74.032 23.191 76.0822 23.7624C76.5596 23.8957 77.1474 23.6291 77.6192 23.5566C77.8291 21.8475 77.0612 21.1518 75.7884 20.6614C67.7013 17.5429 59.4403 16.3679 50.8184 17.9085C45.305 18.8938 40.0173 20.3969 35.188 23.2987C34.7564 23.5577 34.3814 23.9122 33.98 24.2221C34.069 24.3371 34.1583 24.4518 34.2473 24.5666C34.6698 24.3921 35.0992 24.2327 35.5135 24.0405C37.5047 23.1154 39.4194 21.9462 41.497 21.3038C44.8497 20.2673 48.2886 19.48 51.7262 18.7568C59.7238 17.0746 67.4162 18.5684 74.9558 21.2576C75.6048 21.489 76.1423 22.0333 76.7316 22.4322C76.6263 22.6467 76.5212 22.8616 76.4159 23.0763C75.0644 22.6004 73.707 22.1406 72.3619 21.6466C66.2968 19.419 60.0643 18.579 53.6707 19.6385C50.6184 20.1444 47.5202 20.6972 44.6263 21.7398C41.9062 22.7198 39.4491 24.4159 36.8366 25.716C34.3765 26.9401 31.9265 28.1968 29.0083 27.9877C28.4227 27.9456 27.7848 28.6347 26.777 29.2131C27.6111 29.9396 28.1055 30.3703 28.5994 30.8007C29.474 30.8927 30.3483 30.9852 31.2226 31.0773C31.828 31.4935 32.6104 31.7831 33.0108 32.3454C36.0841 36.6702 40.4257 39.2853 45.2477 40.9536C52.1376 43.3376 59.3042 42.7084 66.3899 41.97C70.8135 41.509 74.5563 39.1181 78.3791 37.0629C79.5224 36.4487 80.3995 36.5299 81.5205 37.1971C83.8161 38.5636 86.1229 40.0457 88.6211 40.9117C97.6635 44.0465 106.862 45.3094 116.195 42.0868C118.071 41.4385 119.866 40.5498 121.698 39.7721L121.678 39.7528C121.07 40.5691 120.582 41.5264 119.829 42.173C118.101 43.6574 116.61 45.2045 116.656 47.6827C116.302 48.1764 115.947 48.6699 115.593 49.1634C114.913 49.3743 114.234 49.5872 113.552 49.795C109.981 50.886 106.464 52.2243 102.827 53.0125C95.8845 54.5173 88.8527 55.4591 81.7066 55.2429C76.3375 55.0803 70.9652 55.0251 65.5946 54.9224C64.292 54.9042 62.989 54.886 61.6866 54.8679C61.1798 54.8651 60.6733 54.8621 60.1665 54.8588C56.4888 54.8564 52.8109 54.8534 49.1332 54.851C48.9849 54.8579 48.8368 54.8651 48.6887 54.8721C48.3396 54.8873 47.9907 54.9029 47.6416 54.9183C46.2772 55.0347 44.9016 55.0746 43.5507 55.2796C36.7204 56.3161 33.0149 59.8796 32.904 66.3293C32.8523 69.3465 35.0671 71.8427 38.0811 71.7469C40.2392 71.6783 42.3715 71.015 44.5336 70.7888C47.7356 70.4538 50.9513 70.1164 54.1663 70.0641C58.1052 69.9992 62.0491 70.2273 65.9911 70.329C70.5299 70.33 75.0694 70.3314 79.6082 70.3322C80.2649 70.3424 80.9261 70.4043 81.5783 70.3539C86.5207 69.9731 91.4692 69.6494 96.4001 69.1509C100.912 68.6949 105.418 68.1354 109.898 67.4383C112.117 67.0928 114.271 66.3349 116.775 65.6799C116.639 68.4759 116.536 71.0865 116.377 73.6936C116.207 76.462 115.55 77.4964 112.899 78.1686C108.913 79.1788 104.863 79.9368 100.84 80.8024C99.108 76.6666 96.4229 76.7756 92.4529 81.2831C91.8372 81.14 91.1327 80.9761 90.2258 80.7653C90.7353 79.8547 91.1433 79.2049 91.4746 78.5175C92.1353 77.1473 91.936 74.8196 91.0549 74.1107C89.7116 73.0297 88.5961 74.0251 87.4515 74.6103C87.2393 74.7188 87.0439 74.8586 86.8375 74.9791C83.9655 76.6522 81.0815 78.3058 78.2243 80.0045C76.5846 80.9794 74.6987 81.756 73.4416 83.1056C71.6448 85.0349 69.6523 85.8306 67.1286 85.8026C59.0666 85.7127 51.0043 85.6647 42.9421 85.6009C37.0101 84.4135 31.0494 83.3513 25.1579 81.9874C22.043 81.2666 19.0487 80.0201 16 79.011Z" fill="#539836"/>
<path d="M16 109.619V79.7305C20.6274 81.2609 25.2381 82.843 29.8904 84.2925C31.5361 84.8053 33.2724 85.0674 34.9859 85.314C37.3933 85.6612 39.8176 85.8872 42.235 86.1649C46.0898 86.2539 49.9443 86.3436 53.799 86.433C57.7244 86.4509 61.6499 86.4687 65.5751 86.4858C66.5534 86.4986 67.5313 86.5114 68.5092 86.5238C68.4769 86.8419 68.4447 87.1599 68.4122 87.4782C68.0745 87.7813 67.7371 88.0842 67.3993 88.3875C66.829 88.9861 66.2584 89.5853 65.6882 90.1844C65.4292 90.3943 65.17 90.6047 64.911 90.8147C64.417 91.3136 63.9231 91.8123 63.4294 92.3112L63.433 92.3108C63.3167 92.4354 63.2003 92.5605 63.0839 92.6851C62.6156 93.2503 62.1473 93.8152 61.6792 94.3799C61.5515 94.5362 61.4241 94.6928 61.2971 94.8491L61.2906 94.8578C61.1944 94.9262 61.0593 94.9733 61.007 95.0664C58.3165 99.848 55.6325 104.633 52.9483 109.418C52.2329 109.444 51.5171 109.493 50.8017 109.494C39.8536 109.499 28.9058 109.495 17.9579 109.502C17.3055 109.503 16.6529 109.578 16 109.619Z" fill="#0744F3"/>
<path d="M16 18.8738C16.7634 18.113 17.5113 17.3362 18.293 16.5947C20.1834 14.8007 21.9409 12.8228 24.0187 11.2793C29.0643 7.53188 34.8567 5.41066 40.965 4.10688C41.5975 3.88607 42.23 3.66548 42.8626 3.44468C48.7198 2.71408 54.5079 3.05235 60.2206 4.56413C60.2215 4.7604 60.2223 4.95689 60.223 5.15316C57.9283 4.96427 55.6329 4.77495 53.3383 4.58584C50.1328 4.58106 46.9275 4.5765 43.722 4.57151C38.1645 5.14296 32.9678 7.04663 28.0903 9.56626C24.1883 11.5817 20.6773 14.3411 18.1117 18.0965C17.5993 18.8466 16.7134 19.3412 16 19.9539V18.8738Z" fill="#121910"/>
<path d="M42.235 86.1659C39.8176 85.8882 37.3926 85.6622 34.9857 85.3157C33.2722 85.0684 31.5359 84.8068 29.8902 84.2939C25.2378 82.8442 20.6272 81.2619 16 79.7317V79.0117C19.0485 80.0209 22.0428 81.2673 25.1577 81.9884C31.0492 83.3521 37.0103 84.414 42.9421 85.6014C42.7065 85.7896 42.4705 85.9779 42.235 86.1659Z" fill="#121910"/>
<path d="M81.0361 33.2763C80.9788 34.0457 80.9214 34.8156 80.85 35.7746C81.4929 36.2091 82.1931 36.7605 82.9617 37.1894C89.9667 41.0966 97.4965 43.3663 105.498 43.1249C109.437 43.0061 113.394 41.8665 117.232 40.7917C119.095 40.2698 120.69 38.8084 122.432 37.819C124.976 36.3745 125.866 34.2876 125.004 31.4733H125.539C126.221 33.9628 126.126 36.2251 123.752 37.8717C123.482 38.0587 123.219 38.4254 123.176 38.7398C122.886 40.8193 121.609 42.1355 119.961 43.2527C118.41 44.3045 117.481 45.8025 117.228 47.6878C117.037 47.686 116.847 47.6843 116.657 47.6828C116.61 45.2046 118.101 43.6574 119.829 42.1735C120.582 41.5265 121.07 40.5692 121.678 39.7528C121.702 39.7081 121.727 39.664 121.751 39.6195C121.734 39.6703 121.716 39.7214 121.698 39.7722C119.866 40.5499 118.071 41.4385 116.194 42.0868C106.863 45.3095 97.6634 44.0465 88.6212 40.9118C86.1229 40.0457 83.8162 38.5637 81.5205 37.1976C80.3995 36.53 79.5223 36.4488 78.379 37.063C74.5565 39.1182 70.8134 41.5091 66.3901 41.97C59.3045 42.7084 52.1375 43.3376 45.2478 40.9537C40.4261 39.2854 36.084 36.6702 33.0107 32.3455C32.611 31.7832 31.8283 31.4935 31.2226 31.0773C30.3482 30.9853 29.4739 30.8928 28.5998 30.8007C28.1054 30.3704 27.6115 29.9396 26.7773 29.2132C27.7852 28.6348 28.4226 27.9457 29.0082 27.9878C31.9269 28.1969 34.3764 26.9402 36.8367 25.7161C39.4495 24.416 41.9066 22.7199 44.6264 21.7398C47.5204 20.6972 50.6188 20.1445 53.6708 19.6386C60.0642 18.5791 66.2967 19.4191 72.3619 21.6467C73.7069 22.1406 75.0643 22.6005 76.4163 23.0764C76.5216 22.8617 76.6269 22.6467 76.732 22.4322C76.1425 22.0334 75.6047 21.4891 74.9562 21.2576C67.4162 18.5684 59.7238 17.0747 51.7265 18.7569C48.2885 19.4801 44.8496 20.2674 41.4969 21.3039C39.4196 21.9463 37.5046 23.1155 35.5134 24.0406C35.0992 24.2328 34.6697 24.3921 34.2472 24.5669C34.1582 24.4518 34.069 24.3372 33.9799 24.2221C34.3814 23.9123 34.7563 23.5577 35.188 23.2987C40.0173 20.397 45.3051 18.8939 50.8186 17.9086C59.4404 16.368 67.7013 17.5434 75.7884 20.6614C77.0613 21.1519 77.8291 21.8475 77.6191 23.5567C77.148 23.6292 76.5596 23.8958 76.0821 23.7625C74.0319 23.191 72.0282 22.4541 69.9812 21.869C67.9727 21.2952 65.9561 20.5401 63.9022 20.3772C58.7663 19.9699 53.5605 19.8066 48.6007 21.4478C45.2836 22.5458 42.1311 24.1613 38.9454 25.6345C37.0041 26.5318 35.1619 27.6423 33.2302 28.5629C32.6065 28.8604 31.844 28.8814 31.1383 28.9854C30.2657 29.1142 29.3869 29.1971 28.5138 29.4835C30.1309 30.1902 31.7812 30.2273 33.4434 29.7594C34.706 29.4042 35.9487 28.9785 37.2006 28.5844C37.2022 28.8254 37.2043 29.0657 37.2063 29.3067C35.9555 29.8233 34.7045 30.34 33.2834 30.9267C37.6123 37.908 44.4245 40.1347 51.6816 41.5951L51.7645 41.7151L51.8653 41.6098C56.6223 41.4761 61.4362 41.7468 66.1217 41.0961C70.938 40.427 75.3114 38.0748 79.4624 35.5304C80.0504 35.1697 80.1474 34.0054 80.4718 33.2133C80.6598 33.2342 80.848 33.2552 81.0361 33.2763Z" fill="#121910"/>
<path d="M61.8664 30.0093C61.1734 31.0643 60.4389 31.693 60.5177 32.1926C60.6047 32.743 61.4389 33.1751 61.9478 33.659C62.4328 33.144 63.2312 32.6716 63.3076 32.1019C63.3723 31.6175 62.605 31.0213 61.8664 30.0093ZM67.0956 27.1443C65.8335 27.1727 64.8928 28.288 64.9199 29.7229C64.9427 30.9214 65.9165 31.9056 67.0759 31.9015C68.3284 31.8965 69.338 30.8782 69.3421 29.6153C69.3471 28.1543 68.4018 27.1145 67.0956 27.1443ZM37.2055 29.3059C37.2036 29.0649 37.2018 28.8239 37.1999 28.5833L37.1953 28.5859L38.2898 27.8907C38.3832 27.8414 38.4813 27.8258 38.5849 27.8432C38.8434 27.7491 39.1022 27.6549 39.3608 27.5609C40.2603 27.3968 41.1598 27.2322 42.0589 27.0678C42.2391 26.9834 42.4198 26.8987 42.6002 26.8147C43.201 26.6987 43.8013 26.583 44.402 26.4675C44.5204 26.4532 44.6387 26.4391 44.7568 26.4247C44.8554 26.3859 44.9552 26.38 45.0571 26.4082C45.1821 26.3707 45.3068 26.3331 45.4314 26.296C45.6889 26.251 45.9462 26.2057 46.2037 26.1607C46.3205 26.1483 46.4373 26.136 46.5541 26.1234C51.2236 25.8854 55.8933 25.6477 60.5635 25.4102C60.5598 25.5111 60.5635 25.6123 60.5741 25.713C60.0107 27.1178 60.8972 27.8692 61.902 28.7134C62.7081 27.8243 63.83 27.1827 63.0831 25.7382C63.0987 25.632 63.1059 25.5252 63.1042 25.418C66.2159 25.6531 69.328 25.8878 72.4399 26.1232C72.5578 26.1329 72.6755 26.1429 72.793 26.1531C73.0496 26.2007 73.3062 26.2476 73.5628 26.2951C73.6814 26.3359 73.7993 26.3763 73.9178 26.4174C74.6562 26.5279 75.3953 26.6384 76.1337 26.7485C76.208 26.7799 76.2853 26.7997 76.3647 26.8088L76.3862 26.8149C76.5695 26.8974 76.7523 26.9797 76.9351 27.0622C77.317 27.1162 77.6991 27.1703 78.0808 27.2244C78.1116 28.4443 77.2634 27.8039 76.8348 27.74C75.1337 27.4847 73.4463 27.1369 72.0294 26.8739C72.3351 29.0911 72.8492 31.2614 72.8789 33.4387C72.9135 35.9922 71.0007 37.4842 69.0851 38.7656C65.9642 40.8521 62.0926 40.6475 59.4186 38.3637C55.6944 35.1832 55.1692 31.8969 57.6114 26.1779C51.909 26.1494 46.4012 26.9078 40.9169 27.9215C40.5196 28.1432 40.1223 28.3651 39.7247 28.5866C38.8851 28.8263 38.0451 29.0662 37.2055 29.3059Z" fill="#060706"/>
<path d="M109.068 26.1712C108.889 25.9979 108.71 25.8247 108.531 25.6514C107.692 25.7124 106.853 25.7739 105.433 25.8774C106.194 27.0579 106.7 27.8423 107.46 29.0206C108.148 27.8011 108.608 26.9862 109.068 26.1712ZM109.579 32.0242C108.543 31.4063 107.902 30.7176 107.401 30.8079C106.848 30.9078 106.424 31.7215 105.943 32.2244C106.465 32.7022 106.964 33.5216 107.515 33.5588C108.03 33.5933 108.6 32.7967 109.579 32.0242ZM114.877 29.7006C114.866 28.2405 113.946 27.1441 112.723 27.1347C111.545 27.1256 110.513 28.3061 110.5 29.6759C110.49 30.7491 111.576 31.974 112.579 32.0198C113.652 32.0689 114.885 30.8253 114.877 29.7006ZM118.335 26.5405C118.066 26.8232 117.797 27.1059 117.387 27.5373C118.579 29.6782 119.184 32.2322 118.124 34.6888C117.497 36.1407 116.237 37.4536 114.972 38.4656C112.166 40.7097 108.221 40.7687 105.585 38.8785C101.411 35.8858 100.898 33.394 103.054 26.1325C98.6055 26.4565 94.2217 26.7754 89.8384 27.0941C89.8054 26.9882 89.7583 26.8887 89.6964 26.7967C89.6931 26.6714 89.6895 26.5464 89.6862 26.4213L89.6836 26.4245L90.3582 26.2871C90.858 26.2389 91.3575 26.1911 91.8567 26.1427C91.9748 26.1371 92.0927 26.1312 92.2108 26.1256C97.8083 25.8561 103.406 25.3985 109.004 25.3906C112.114 25.3865 115.225 26.1325 118.335 26.5405Z" fill="#060706"/>
<path d="M118.301 49.9844C119.911 52.1764 119.192 54.2353 117.913 56.2156C120.71 60.8486 120.694 62.8022 117.757 64.8664C117.231 71.2037 116.411 77.6221 117.961 84.0292C117.93 84.06 117.867 84.108 117.873 84.1191C117.911 84.1901 117.963 84.2528 118.011 84.318C118.43 85.4559 118.849 86.5938 119.268 87.7317C119.273 87.9286 119.278 88.1257 119.283 88.3224C118.136 88.058 116.99 87.794 115.844 87.5295L115.773 87.3902L115.635 87.4512C112.573 86.7753 109.512 86.0992 106.451 85.4233C106.282 85.3788 106.113 85.3336 105.944 85.2891C104.121 84.9752 102.297 84.6612 100.474 84.3473C100.55 83.8942 100.627 83.4413 100.703 82.9881C101.3 83.3351 101.858 83.8468 102.501 84.0014C106.219 84.8972 109.954 85.7212 113.69 86.5421C114.883 86.8046 116.095 86.9857 117.718 87.2803C117.208 83.8896 116.761 80.9199 116.313 77.9458C114.057 78.5713 112.074 79.1619 110.069 79.6676C107.002 80.4416 103.92 81.1568 100.845 81.8969C100.843 81.5326 100.841 81.1678 100.839 80.8031C104.862 79.9379 108.912 79.1795 112.899 78.169C115.55 77.4971 116.207 76.4632 116.377 73.6941C116.536 71.0874 116.638 68.477 116.774 65.6808C114.271 66.3356 112.116 67.0935 109.898 67.439C105.418 68.1361 100.911 68.6961 96.3998 69.152C91.4689 69.6503 86.5204 69.9742 81.578 70.355C80.9256 70.405 80.2647 70.3431 79.6079 70.3331C79.1333 70.1468 78.6593 69.9603 78.1851 69.7743C79.4392 69.7135 80.6978 69.7056 81.946 69.5843C90.2787 68.7731 98.6105 67.9496 106.94 67.1046C110.776 66.7155 114.428 65.6436 117.763 63.7028C118.424 63.3183 119.181 62.2794 119.112 61.6255C118.967 60.2544 118.408 58.8887 117.815 57.6164C117.384 56.6902 116.54 56.5903 115.516 56.9868C113.359 57.8223 111.182 58.6562 108.945 59.2246C99.6461 61.5875 90.2279 63.2907 80.6116 63.4846C73.9043 63.6199 67.1915 63.5378 60.4822 63.4594C57.9139 63.4297 55.3493 63.0148 52.7817 63.002C49.6922 62.9861 46.5998 63.1765 43.5133 63.3546C42.5614 63.4095 41.6237 63.7165 40.6797 63.908C40.8727 63.3348 41.1719 62.9933 41.5197 62.9329C43.9275 62.5163 46.3494 61.8211 48.759 61.8519C53.5397 61.9136 58.3117 62.535 63.0938 62.6516C69.4985 62.8083 75.9208 62.9484 82.316 62.6566C91.4607 62.239 100.463 60.7268 109.226 57.9606C111.109 57.3659 113.04 56.9253 114.916 56.3109C118.463 55.1491 119.022 53.9865 117.911 50.3787C118.041 50.2471 118.171 50.1159 118.301 49.9844Z" fill="#121910"/>
<path d="M61.2877 4.7906C63.9749 5.31862 66.6769 5.78043 69.3457 6.38944C73.7382 7.39186 77.4511 6.09308 81.0806 3.60884C82.5659 2.5923 84.6721 2.07209 86.5015 2.05755C90.7859 2.02368 95.2526 1.74555 99.3211 2.81007C106.824 4.77279 112.998 8.95944 116.181 16.5366C116.412 17.0852 116.641 17.6562 116.987 18.1324C118.577 20.3228 120.208 22.4827 121.824 24.6539C121.452 24.6988 120.952 24.9233 120.727 24.762C115.401 20.9434 109.42 19.5432 102.98 20.0139C99.9453 20.2353 96.8456 20.4043 93.9282 21.1774C90.3853 22.1164 87.0024 23.6623 83.5553 24.9591C83.0342 25.1556 82.5411 25.4257 81.9367 25.3973C87.2933 21.517 93.4677 19.9824 99.9251 19.3365C106.506 18.678 112.91 19.2798 119.024 22.4056C119.276 21.051 118.259 20.6774 117.447 20.4594C114.391 19.6396 111.336 18.691 108.216 18.2574C100.027 17.1199 92.1622 18.8132 84.4674 21.5198C84.08 21.6564 83.7298 21.8965 83.356 22.0747C83.039 22.2261 82.7126 22.3579 82.1462 22.6049C83.2912 20.3621 89.5633 18.2848 98.8 17.2504C104.717 16.5878 110.595 17.2565 116.351 19.0369C113.228 16.9013 110.136 14.769 106.271 14.1917C103.85 13.83 101.44 13.3882 99.0252 12.9817C99.0293 12.7915 99.0339 12.6013 99.038 12.4111C104.685 12.5905 110.118 13.5849 115.021 16.8184C114.802 11.6504 102.945 2.47766 94.5355 2.98875C92.152 2.98832 89.7689 2.98745 87.3852 2.9868C84.7275 2.69044 82.6327 4.23239 80.3552 5.16512C79.6398 5.45845 78.9813 5.88768 78.2774 6.21271C75.3817 7.54905 72.4257 8.11855 69.243 7.24596C66.3795 6.46065 63.4634 5.87032 60.5703 5.194L61.2877 4.7906Z" fill="#121910"/>
<path d="M100.839 80.8018C100.841 81.1666 100.843 81.5309 100.844 81.8957C100.797 82.2596 100.75 82.623 100.703 82.9869C100.627 83.44 100.55 83.8931 100.474 84.346C100.15 84.977 99.8261 85.6077 99.5021 86.2382C98.3922 85.0875 99.7501 84.034 99.6322 82.9222C99.6704 82.8095 99.7088 82.6966 99.7472 82.5839C99.7472 82.0018 99.7477 81.42 99.7477 80.8379C99.7514 80.7182 99.7188 80.6093 99.6502 80.5103C99.425 79.2881 98.6617 78.893 97.4688 78.9184C96.0467 78.9485 95.007 79.4479 94.155 80.6431C93.1235 82.0909 91.8976 83.3992 90.756 84.7681C91.0941 83.8382 91.4319 82.9085 91.8019 81.8911C90.7721 81.5133 89.7501 81.0611 88.9238 82.2294C88.2121 83.2366 87.5688 84.2928 86.8955 85.3272C86.8708 85.4844 86.8464 85.6416 86.8217 85.7992C86.5748 85.7931 86.3282 85.7868 86.0815 85.781C85.9725 85.7896 85.864 85.7983 85.755 85.8074C85.5188 85.8752 85.2819 85.9423 85.0455 86.01C85.0372 85.718 85.029 85.4262 85.0211 85.1342C86.7012 83.0601 88.394 80.9962 90.0567 78.9086C91.0515 77.6597 91.0231 76.2819 90.3737 74.5211C89.6496 74.7673 88.9151 74.8978 88.3033 75.2443C84.8878 77.1795 81.4995 79.1626 78.1078 81.1395C77.1266 81.7109 76.1051 82.237 75.206 82.9213C73.174 84.4694 71.2067 86.1029 69.2127 87.7016C69.018 87.2849 69.6719 86.3591 68.5084 86.5241C67.5305 86.5113 66.5524 86.499 65.5745 86.4861C61.6491 86.4683 57.7238 86.4508 53.798 86.433C49.9435 86.3437 46.0888 86.2543 42.2344 86.1648C42.4699 85.9766 42.706 85.7886 42.9415 85.6003C51.0035 85.6648 59.0658 85.7126 67.128 85.802C69.6517 85.8302 71.6442 85.0347 73.4408 83.1054C74.6982 81.7554 76.584 80.979 78.2237 80.0044C81.0809 78.3057 83.9649 76.6521 86.8369 74.9786C87.0431 74.8585 87.2388 74.7183 87.4509 74.6097C88.5953 74.0248 89.7111 73.0291 91.0548 74.1106C91.9352 74.8194 92.1345 77.1467 91.474 78.5173C91.1432 79.2043 90.7346 79.8541 90.225 80.7647C91.1319 80.9755 91.8366 81.1399 92.4522 81.283C96.4221 76.775 99.1074 76.6664 100.839 80.8018Z" fill="#060706"/>
<path d="M29.9961 20.4808C35.5744 16.8797 41.4403 13.9067 48.1939 13.1501C59.9303 11.8354 70.7205 14.4417 75.3941 18.1266C74.649 17.9546 73.8817 17.8482 73.1628 17.5994C69.5194 16.3388 65.9455 14.887 62.0741 14.3642C55.3617 13.4573 48.6782 13.4293 42.2377 15.6753C38.6683 16.9203 35.328 18.8239 31.8791 20.4184C31.3433 20.6666 30.7777 20.8501 30.2252 21.0635C30.1489 20.8692 30.0725 20.6751 29.9961 20.4808Z" fill="#121910"/>
<path d="M65.9899 70.3286C62.048 70.2272 58.1041 69.999 54.1652 70.0637C50.9506 70.1165 47.7349 70.4537 44.5324 70.7887C42.3708 71.0147 40.2381 71.6782 38.0799 71.7468C35.0659 71.8428 32.8511 69.3462 32.9032 66.3293C33.0138 59.8799 36.7195 56.316 43.5495 55.2795C44.9004 55.0743 46.2765 55.0343 47.6408 54.918C47.64 55.1119 47.6395 55.3055 47.6387 55.4994C46.5162 55.654 45.3724 55.7198 44.2749 55.9816C41.4066 56.6657 38.5057 57.1076 36.2546 59.4746C34.1966 61.6388 33.831 64.2005 33.6686 66.8902C33.5778 68.3928 34.7466 69.864 36.3886 70.28C37.5126 70.5646 38.771 70.6901 39.9061 70.5019C49.2855 68.9493 58.6994 69.1545 68.1283 69.7856C67.4153 69.9669 66.7029 70.1475 65.9899 70.3286Z" fill="#121910"/>
<path d="M65.5954 54.9224C70.9662 55.0255 76.3385 55.0805 81.7076 55.2431C88.8535 55.4595 95.8855 54.5173 102.828 53.0127C106.465 52.2245 109.982 50.886 113.554 49.7952C114.234 49.5872 114.914 49.3744 115.594 49.1641C115.71 49.3503 115.826 49.5373 115.943 49.7242C112.999 50.8378 110.129 52.2588 107.094 52.9935C102.519 54.1015 97.8493 55.2641 93.1821 55.4485C83.8835 55.8156 74.5595 55.5332 65.2461 55.5186C65.3625 55.3202 65.4793 55.1213 65.5954 54.9224Z" fill="#121910"/>
<path d="M95.7643 12.8935C91.1919 13.7386 86.6072 14.5219 82.0561 15.469C80.8326 15.7234 79.7121 16.4744 78.5444 16.9975C78.4317 16.8353 78.3195 16.6735 78.207 16.5116C78.7466 16.0741 79.2194 15.4325 79.8358 15.2321C84.9083 13.5816 90.0401 12.1988 95.4514 12.4029C95.5559 12.5664 95.6599 12.7301 95.7643 12.8935Z" fill="#121910"/>
<path d="M65.5952 54.9228C65.4791 55.1217 65.3623 55.3201 65.2459 55.519C59.3777 55.5129 53.5088 55.5064 47.6406 55.5001C47.6411 55.3062 47.6419 55.1128 47.6424 54.9187C47.9913 54.9035 48.3404 54.8878 48.6895 54.8726C48.8376 54.8655 48.9857 54.8585 49.1337 54.8516C52.8117 54.854 56.4894 54.8568 60.1673 54.8594C60.6739 54.8626 61.1806 54.8655 61.6874 54.8685C62.9898 54.8865 64.2927 54.9048 65.5952 54.9228Z" fill="#060706"/>
<path d="M89.8357 27.0958C88.1287 27.3641 86.4224 27.6327 84.7154 27.9009C84.337 28.1264 83.9588 28.3522 83.5803 28.5778C82.8815 28.9745 82.183 29.3709 81.5455 29.7324C80.8853 29.3466 80.2552 28.9786 79.6258 28.6106C79.1121 28.372 78.598 28.134 78.0843 27.8959C78.0289 27.6657 77.9738 27.4354 77.918 27.2052C80.6819 27.9536 83.4067 27.7157 86.1078 26.8813C86.2242 26.8648 86.341 26.8483 86.4573 26.8318L86.8217 26.7988C86.9194 26.796 87.0119 26.7708 87.0981 26.7232C87.8436 26.6305 88.5892 26.538 89.3348 26.4453C89.4544 26.5628 89.574 26.6809 89.6941 26.7983C89.7556 26.8904 89.8031 26.9898 89.8357 27.0958Z" fill="#060706"/>
<path d="M65.9922 70.3293C66.7052 70.1482 67.4176 69.9675 68.1306 69.7863C71.4828 69.7821 74.8349 69.7776 78.1871 69.7734C78.6611 69.9599 79.1353 70.1464 79.6097 70.3329C75.0704 70.3319 70.5314 70.3306 65.9922 70.3293Z" fill="#060706"/>
<path d="M30.1719 73.7461C32.505 74.7548 34.7152 75.7108 36.7889 76.6079C34.464 77.3949 32.0237 76.416 30.1719 73.7461Z" fill="#121910"/>
<path d="M122.955 28.6747L122.835 28.6879L122.768 28.5876C122.492 28.3657 122.216 28.1436 121.94 27.9213C121.007 27.7489 120.057 27.6336 119.152 27.3685C118.886 27.2908 118.745 26.7871 118.547 26.4785C119.012 26.54 119.477 26.6014 119.941 26.6629C120.056 26.7022 120.172 26.7408 120.287 26.7801C120.399 26.7623 120.507 26.7751 120.611 26.8188C120.729 26.8389 120.846 26.8589 120.963 26.8791C121.242 26.9364 121.52 26.9942 121.799 27.0515C122.13 26.8444 122.461 26.6368 122.792 26.4297C123.043 26.8646 123.295 27.2995 123.546 27.7343C123.349 28.0478 123.152 28.3611 122.955 28.6747Z" fill="#060706"/>
<path d="M23.8334 32.3385C22.8462 32.7997 21.8583 33.2611 20.8711 33.7227C21.3724 32.2315 22.3295 31.6668 23.6912 31.9037C23.7385 32.0485 23.7861 32.1937 23.8334 32.3385Z" fill="#121910"/>
<path d="M95.7621 12.893C95.6577 12.7295 95.5537 12.5658 95.4492 12.4023C96.6449 12.4049 97.8407 12.4078 99.0364 12.4106C99.0323 12.6008 99.0277 12.791 99.0236 12.9812C97.9363 12.9519 96.8492 12.9223 95.7621 12.893Z" fill="#060706"/>
<path d="M115.942 49.7247C115.826 49.5378 115.71 49.3513 115.594 49.1643C115.948 48.6708 116.302 48.1769 116.657 47.6836C116.847 47.6851 117.037 47.6864 117.228 47.6882C117.294 48.1272 117.36 48.5657 117.426 49.0047C117.41 49.279 117.394 49.5534 117.378 49.8274C116.899 49.7931 116.421 49.7588 115.942 49.7247Z" fill="#060706"/>
<path d="M122.79 26.4313C122.459 26.6389 122.128 26.846 121.797 27.0536C122.419 26.7231 120.992 25.5298 122.431 25.5431C122.55 25.8392 122.67 26.1352 122.79 26.4313Z" fill="#121910"/>
<path d="M63.1046 25.418C63.1063 25.5252 63.0994 25.632 63.0835 25.738C62.2474 25.7293 61.4111 25.7211 60.5747 25.7126C60.5639 25.6119 60.5602 25.5111 60.5639 25.4102C61.4111 25.4125 62.2576 25.4154 63.1046 25.418Z" fill="#121910"/>
<path d="M61.2883 4.78873L60.5709 5.19214L60.395 5.19713L60.225 5.15175C60.2244 4.95548 60.2235 4.75899 60.2227 4.5625C60.5779 4.63806 60.9331 4.71318 61.2883 4.78873Z" fill="#060706"/>
<path d="M46.5533 26.1252C46.4365 26.1376 46.3197 26.15 46.2031 26.1624C46.3149 26.1022 46.4315 26.0896 46.5533 26.1252Z" fill="#121910"/>
<path d="M76.3638 26.811C76.2841 26.8023 76.2071 26.7822 76.1328 26.7511L76.259 26.707L76.3638 26.811Z" fill="#121910"/>
<path d="M87.101 26.7216C87.0144 26.7691 86.9224 26.7943 86.8242 26.7971C86.8993 26.6721 86.9916 26.6469 87.101 26.7216Z" fill="#121910"/>
<path d="M89.6953 26.7988C89.5756 26.6814 89.456 26.5633 89.3359 26.4458C89.4499 26.3967 89.5659 26.3891 89.6851 26.4234C89.6883 26.5485 89.692 26.674 89.6953 26.7988Z" fill="#121910"/>
<path d="M69.2155 87.7041C71.2091 86.1053 73.1764 84.4715 75.2088 82.9234C76.1074 82.2389 77.1294 81.7132 78.1101 81.1416C81.5021 79.1652 84.8902 77.1818 88.3056 75.2469C88.9179 74.8997 89.6522 74.7694 90.3765 74.5234C91.0259 76.2845 91.0543 77.6621 90.0595 78.9109C88.3964 80.9983 86.704 83.0624 85.0235 85.1361C80.3716 86.8252 78.0128 90.8052 75.4348 94.6551C76.1854 94.7304 76.7898 94.603 77.3385 94.3526C78.6948 93.7336 79.9866 92.955 81.3749 92.4279C83.9809 91.4385 86.3242 90.1371 87.9285 87.7632C88.8762 86.7618 89.8235 85.7605 90.7708 84.7594L90.7584 84.7707C91.9 83.4015 93.1263 82.093 94.1578 80.6455C95.0093 79.4498 96.0495 78.9511 97.4716 78.9205C98.664 78.8953 99.4274 79.2907 99.653 80.5126C99.636 80.5527 99.5943 80.6046 99.6067 80.6307C99.6432 80.7058 99.701 80.7709 99.75 80.8402V82.5862C99.7116 82.6989 99.6732 82.8116 99.635 82.9247C99.7528 84.0361 98.395 85.09 99.5049 86.2407C99.422 86.3665 99.339 86.4924 99.2565 86.6181C98.9261 86.7251 98.4738 86.7299 98.2862 86.9557C97.3455 88.0882 96.4735 89.2786 95.5779 90.4487C95.3552 90.7164 95.1326 90.9845 94.9103 91.2529C94.7264 91.3193 94.5423 91.3859 94.3584 91.4524C93.8136 92.1769 93.2696 92.9019 92.7252 93.6264C90.9119 95.1657 90.1648 97.2526 89.3652 99.609C91.2449 99.01 94.1804 96.4402 94.7815 95.0656C95.7573 94.2089 96.7336 93.3524 97.7094 92.4954C97.9169 92.3248 98.1245 92.1543 98.3318 91.9834C98.7326 91.5531 99.1328 91.1228 99.5333 90.6929C99.6282 90.6562 99.702 90.5943 99.7546 90.5068C100.764 89.6 102.317 89.6725 103.552 90.6834C104.674 91.6022 105.038 93.0714 104.287 94.1574C103.341 95.5263 102.301 96.8314 101.284 98.15C99.5036 100.456 97.7072 102.748 95.9314 105.057C95.8493 105.164 95.8977 105.371 95.8621 105.821C99.0021 104.07 99.9617 100.586 102.424 98.5725C104.433 99.9939 104.827 102.015 103.606 104.089C102.554 105.877 101.515 107.675 100.471 109.468C96.1605 109.519 91.8494 109.569 87.5386 109.619C82.356 109.595 77.173 109.552 71.9903 109.552C66.6286 109.551 61.2665 109.592 55.905 109.615C55.3818 109.519 54.859 109.422 54.3359 109.325C55.1306 107.86 55.94 106.403 56.7166 104.929C58.0228 102.449 59.3077 99.9581 60.6015 97.4717C60.7248 97.2036 60.8481 96.935 60.9712 96.6664L60.9649 96.6899C62.1508 95.2376 63.3365 93.7857 64.5224 92.3334L64.5293 92.3276C64.6622 92.0948 64.7951 91.8621 64.9279 91.6295L64.9514 91.6888C65.5421 91.1921 66.1331 90.6953 66.7239 90.1985L66.728 90.2274C67.4415 89.4927 68.1543 88.7578 68.8673 88.0226C68.9832 87.9167 69.0996 87.8101 69.2155 87.7041Z" fill="#549937"/>
<path d="M131.342 101.139C132.118 103.148 132.851 105.432 133.3 109.491H103.445C103.422 109.399 103.372 109.324 103.297 109.266C103.57 107.821 103.594 106.263 104.183 104.962C104.86 103.464 105.299 102.038 104.818 100.479C104.492 99.4235 103.93 98.4411 103.424 97.3143C104.717 95.4846 106.328 93.637 105.274 90.793C108.222 91.4482 110.828 92.0275 113.434 92.6068L113.493 92.6806L113.588 92.6706L113.607 92.7416L113.6 92.6823C113.898 92.7411 114.195 92.8002 114.493 92.8593C116.697 93.3868 118.915 93.8652 121.103 94.4546C123.968 95.2271 127.015 95.652 129.037 98.2233C129.802 99.1973 130.574 100.167 131.342 101.139Z" fill="#0744F3"/>
<path d="M123.486 94.1343C123.963 94.3695 124.441 94.6044 124.918 94.8395C124.965 94.6641 125.013 94.4886 125.06 94.3134C124.534 94.2552 124.008 94.1971 123.482 94.1389C123.551 93.4419 123.619 92.7452 123.688 92.0483C123.821 92.05 123.955 92.0515 124.088 92.0533C123.998 91.3303 123.906 90.6079 123.817 89.8867C122.195 90.2794 121.477 91.3101 121.344 93.6608C122.028 93.8121 122.757 93.973 123.486 94.1343ZM131.342 101.141C130.573 100.17 129.802 99.1996 129.036 98.2256C127.015 95.6548 123.967 95.2297 121.103 94.4574C118.915 93.8675 116.697 93.3892 114.492 92.8616C114.493 92.7155 114.493 92.5693 114.494 92.4232C116.194 92.7695 117.895 93.1156 119.434 93.4291C120.095 92.1386 120.694 91.1253 121.122 90.0434C121.263 89.6863 120.962 89.1535 120.863 88.701C120.873 88.5165 120.884 88.3326 120.894 88.1484C122.57 88.5154 124.262 88.8267 125.912 89.2857C126.37 89.4127 126.895 89.9073 127.059 90.355C127.436 91.3828 127.61 92.4855 127.953 93.9211C127.774 94.0431 127.335 94.3397 126.738 94.7451C127.819 95.9027 128.921 96.8967 129.785 98.0667C130.457 98.9782 130.833 100.109 131.342 101.141Z" fill="#121910"/>
<path d="M113.433 92.6083C110.828 92.029 108.222 91.4498 105.274 90.7945C106.328 93.6385 104.716 95.4862 103.424 97.3158C103.93 98.4426 104.491 99.4251 104.818 100.481C105.298 102.04 104.86 103.466 104.182 104.963C103.593 106.264 103.57 107.822 103.296 109.267C102.915 109.058 102.533 108.849 102.057 108.589C101.897 108.852 101.722 109.139 101.547 109.426C101.188 109.44 100.828 109.453 100.468 109.468C101.513 107.674 102.55 105.876 103.603 104.088C104.824 102.014 104.43 99.9928 102.42 98.5718C99.959 100.585 98.9991 104.069 95.8594 105.82C95.8943 105.37 95.8461 105.163 95.9282 105.056C97.7044 102.748 99.5008 100.455 101.28 98.1493C102.298 96.8308 103.338 95.5257 104.284 94.1563C105.035 93.0703 104.671 91.6015 103.549 90.6827C102.314 89.6714 100.761 89.5993 99.7514 90.5062C99.6433 90.2804 99.5351 90.0548 99.427 89.8286C99.4064 89.5064 99.3853 89.1837 99.3647 88.8611C99.3753 88.7109 99.3858 88.5604 99.3964 88.4102C102.243 89.187 105.09 89.9656 107.937 90.7405C109.888 91.2715 111.841 91.7967 113.792 92.3243C113.673 92.419 113.553 92.5139 113.433 92.6083Z" fill="#121910"/>
<path d="M122.953 28.6747C123.15 28.3612 123.348 28.0479 123.545 27.7344C124.091 28.628 124.639 29.5212 125.185 30.4147C125.079 30.5647 124.973 30.7149 124.867 30.8647C124.229 30.1348 123.591 29.4046 122.953 28.6747Z" fill="#121910"/>
<path d="M120.896 88.146C120.885 88.3299 120.875 88.5145 120.865 88.6984C120.337 88.5727 119.81 88.4467 119.284 88.3212C119.279 88.1241 119.274 87.9272 119.27 87.7305C119.812 87.8688 120.353 88.0073 120.896 88.146Z" fill="#539836"/>
<path d="M101.547 109.427C101.722 109.139 101.897 108.853 102.057 108.59C102.532 108.85 102.914 109.059 103.296 109.268C103.371 109.326 103.42 109.401 103.443 109.494L101.547 109.427Z" fill="#549937"/>
<path d="M117.379 49.8266C117.395 49.5521 117.411 49.2783 117.426 49.0039C117.718 49.3302 118.01 49.657 118.303 49.9833C118.172 50.1147 118.042 50.2462 117.912 50.3778C117.735 50.1941 117.557 50.0102 117.379 49.8266Z" fill="#121910"/>
<path d="M124.867 30.8683C124.974 30.718 125.08 30.5682 125.186 30.418C125.304 30.7703 125.422 31.1232 125.54 31.4755H125.005C124.959 31.273 124.913 31.0708 124.867 30.8683Z" fill="#060706"/>
<path d="M118.014 84.3161C117.966 84.2505 117.913 84.1878 117.875 84.1172C117.87 84.1062 117.932 84.0582 117.964 84.0273C118.003 84.0899 118.051 84.1498 118.077 84.218C118.086 84.2388 118.037 84.2827 118.014 84.3161Z" fill="#549937"/>
<path d="M60.6008 97.4711C59.3068 99.9573 58.0217 102.448 56.7157 104.928C55.9393 106.403 55.1297 107.86 54.3351 109.324C53.873 109.356 53.4115 109.388 52.9492 109.42C55.6336 104.635 58.3174 99.8496 61.0079 95.068C61.0604 94.9749 61.1953 94.9278 61.2915 94.8594C61.1825 95.469 61.073 96.0789 60.9638 96.6888L60.9703 96.6656C60.847 96.9341 60.7241 97.2025 60.6008 97.4711Z" fill="#121910"/>
<path d="M60.9648 96.6887C61.0741 96.079 61.183 95.4691 61.2925 94.8593L61.2986 94.8506C61.426 94.6943 61.5532 94.5379 61.6807 94.3816C62.149 93.8167 62.6175 93.2515 63.0858 92.6866C63.2022 92.562 63.3182 92.4371 63.4345 92.3125H63.4313C63.7947 92.3194 64.1586 92.326 64.5221 92.3327C63.3364 93.7845 62.1505 95.2368 60.9648 96.6887Z" fill="#060706"/>
<path d="M68.8658 88.0226C68.1528 88.7573 67.44 89.4923 66.7266 90.2274C66.9511 89.6147 67.1753 89.002 67.3994 88.3897C67.7375 88.0867 68.0749 87.7838 68.4125 87.4805C68.5638 87.6611 68.7149 87.842 68.8658 88.0226Z" fill="#060706"/>
<path d="M67.3984 88.3867C67.1739 88.9994 66.95 89.6117 66.7255 90.2244L66.7214 90.1955C66.3764 90.1914 66.0318 90.1875 65.6875 90.1833C66.2576 89.5843 66.8282 88.9857 67.3984 88.3867Z" fill="#121910"/>
<path d="M65.6874 90.1836C66.032 90.1877 66.377 90.1916 66.7213 90.1958C66.1306 90.6925 65.5398 91.1893 64.949 91.6858C64.9362 91.3955 64.923 91.1046 64.9102 90.8141C65.1692 90.6042 65.4284 90.3938 65.6874 90.1836Z" fill="#060706"/>
<path d="M64.9111 90.8164C64.9239 91.1069 64.9369 91.3978 64.9497 91.6883L64.9258 91.6288C64.793 91.8616 64.6605 92.0943 64.5276 92.3269L64.5207 92.3327C64.1568 92.3262 63.7934 92.3195 63.4297 92.313C63.9232 91.814 64.4171 91.3153 64.9111 90.8164Z" fill="#121910"/>
<path d="M68.8674 88.0198C68.7165 87.8391 68.5654 87.6583 68.4141 87.4776C68.4466 87.1596 68.4788 86.8415 68.5109 86.5234C69.6748 86.3582 69.0209 87.2846 69.2157 87.7013C69.0997 87.8072 68.9833 87.9138 68.8674 88.0198Z" fill="#121910"/>
<path d="M80.7617 31.8403C80.874 31.1892 80.9862 30.5376 81.0985 29.8867C81.2824 29.9167 81.466 29.9473 81.6495 29.9775C81.5399 30.6227 81.43 31.268 81.3204 31.9133C81.1343 31.889 80.9478 31.8646 80.7617 31.8403Z" fill="#121910"/>
<path d="M80.7627 31.8398C80.9488 31.8642 81.1353 31.8885 81.3214 31.9128C81.2265 32.367 81.132 32.821 81.0372 33.2752C80.8489 33.2541 80.6609 33.2331 80.4727 33.212C80.5693 32.7546 80.6661 32.2973 80.7627 31.8398Z" fill="#060706"/>
<path d="M51.8668 41.609L51.7663 41.7143L51.6836 41.5942L51.7806 41.5352L51.8668 41.609Z" fill="#539836"/>
<path d="M121.7 39.7742C121.717 39.7231 121.735 39.6723 121.753 39.6211C121.729 39.6658 121.704 39.7103 121.68 39.7548L121.7 39.7742Z" fill="#539836"/>
<path d="M61.8663 30.0117C62.6049 31.0237 63.3722 31.6199 63.3075 32.1043C63.2311 32.674 62.4327 33.1464 61.9477 33.6614C61.4388 33.1775 60.6046 32.7454 60.5175 32.195C60.4387 31.6955 61.1732 31.0667 61.8663 30.0117Z" fill="#EAE8E5"/>
<path d="M60.5741 25.7148C61.4104 25.7235 62.2467 25.7318 63.083 25.7405C63.8299 27.1849 62.7081 27.8261 61.9017 28.7152C60.8976 27.871 60.0104 27.1196 60.5741 25.7148Z" fill="#EAE8E5"/>
<path d="M109.577 32.0251C108.598 32.7976 108.028 33.5942 107.514 33.5597C106.962 33.5225 106.463 32.7031 105.941 32.2253C106.422 31.7224 106.847 30.9087 107.4 30.8088C107.9 30.7185 108.541 31.4072 109.577 32.0251Z" fill="#EAE8E5"/>
<path d="M109.065 26.1721C108.605 26.9872 108.145 27.802 107.456 29.0215C106.696 27.8433 106.19 27.0588 105.43 25.8784C106.849 25.7748 107.688 25.7134 108.527 25.6523C108.707 25.8256 108.886 25.9989 109.065 26.1721Z" fill="#EAE8E5"/>
<path d="M117.378 49.8254C117.556 50.009 117.733 50.1929 117.911 50.3766C119.023 53.9842 118.464 55.1466 114.917 56.3089C113.041 56.9231 111.109 57.3638 109.226 57.9583C100.464 60.7248 91.4613 62.237 82.3164 62.6541C75.9215 62.9461 69.4992 62.8058 63.094 62.6495C58.3118 62.5323 53.5399 61.9109 48.7592 61.8494C46.3501 61.8186 43.9277 62.5138 41.5203 62.9309C41.1725 62.991 40.8729 63.3328 40.6803 63.9057C41.6243 63.7145 42.5616 63.4075 43.5135 63.3525C46.6004 63.1743 49.6928 62.9841 52.7819 62.9993C55.3495 63.0125 57.9141 63.4272 60.4824 63.4574C67.1919 63.5353 73.9049 63.6174 80.6118 63.4826C90.2281 63.2885 99.6468 61.5854 108.946 59.2226C111.182 58.6539 113.36 57.8198 115.516 56.9845C116.541 56.5876 117.384 56.6879 117.815 57.6137C118.408 58.8867 118.967 60.2519 119.113 61.6234C119.182 62.2774 118.425 63.3163 117.764 63.7008C114.428 65.6416 110.776 66.7135 106.94 67.1025C98.6107 67.9476 90.2793 68.7707 81.9466 69.5822C80.6984 69.7036 79.4394 69.7114 78.1853 69.7715C74.8335 69.7761 71.4812 69.7802 68.1294 69.7844C58.7005 69.1536 49.2863 68.948 39.907 70.5011C38.7721 70.6889 37.5137 70.5638 36.3892 70.2787C34.7472 69.8627 33.5782 68.3916 33.669 66.8889C33.8316 64.1995 34.1972 61.6373 36.2557 59.4733C38.5068 57.1063 41.4072 56.6645 44.276 55.9804C45.3731 55.7187 46.517 55.6532 47.6397 55.4981C53.5079 55.5047 59.3768 55.511 65.245 55.517C74.5584 55.5316 83.8824 55.8141 93.1811 55.4469C97.8482 55.2628 102.518 54.0997 107.093 52.9924C110.128 52.2577 112.998 50.8362 115.942 49.7227C116.42 49.757 116.899 49.791 117.378 49.8254Z" fill="#AF532A"/>
<path d="M119.284 88.3228C119.811 88.4488 120.338 88.5747 120.865 88.7C120.964 89.1526 121.265 89.6857 121.124 90.043C120.696 91.1245 120.097 92.1382 119.436 93.4287C117.896 93.1152 116.196 92.7689 114.497 92.4224C114.263 92.3898 114.029 92.3573 113.795 92.3247C111.843 91.7969 109.89 91.2713 107.939 90.7406C105.092 89.9657 102.245 89.1874 99.3981 88.4103C98.2244 87.9029 99.3156 87.2138 99.2555 86.6172C99.338 86.4919 99.4209 86.366 99.5038 86.2402C99.8278 85.6093 100.152 84.9784 100.475 84.3477C102.299 84.6616 104.122 84.9756 105.946 85.2895C106.114 85.334 106.284 85.3792 106.452 85.4237C109.514 86.0996 112.575 86.7752 115.636 87.4515L115.704 87.577L115.846 87.5299C116.992 87.7944 118.138 88.0584 119.284 88.3228Z" fill="#EAE8E5"/>
<path d="M100.703 82.9876C100.75 82.6237 100.797 82.2603 100.845 81.8964C103.92 81.1562 107.002 80.4406 110.069 79.667C112.074 79.1614 114.057 78.5708 116.313 77.9453C116.761 80.9194 117.208 83.8891 117.718 87.2798C116.095 86.9851 114.883 86.8041 113.69 86.5416C109.954 85.7207 106.219 84.8967 102.501 84.0009C101.858 83.8463 101.3 83.3346 100.703 82.9876Z" fill="#0744F3"/>
<path fill-rule="evenodd" clip-rule="evenodd" d="M115.637 87.4492L115.802 87.3945L115.846 87.5278L115.681 87.5826L115.637 87.4492Z" fill="#549937"/>
<path d="M86.084 85.7812C86.3306 85.7873 86.5775 85.7932 86.8241 85.7993C87.1669 86.1645 87.5098 86.5296 87.8528 86.8948C85.1115 89.6565 81.906 91.5978 77.7695 92.697C79.978 89.8337 81.8921 87.2463 85.0479 86.0105C85.2843 85.943 85.5208 85.8753 85.7576 85.8075L85.9246 85.8423L86.084 85.7812Z" fill="#0744F3"/>
<path d="M85.0466 86.0091C81.8906 87.2447 79.9767 89.8325 77.768 92.6954C81.9047 91.5963 85.11 89.6551 87.8513 86.8932L87.9273 86.9494V87.7597C86.3226 90.1336 83.9793 91.4346 81.3732 92.4244C79.985 92.9518 78.6936 93.7302 77.3373 94.3492C76.7886 94.5995 76.1837 94.7272 75.4336 94.6516C78.0114 90.8017 80.3699 86.822 85.0223 85.1328C85.0305 85.4248 85.0384 85.7169 85.0466 86.0091Z" fill="#121910"/>
<path d="M86.8945 85.3281C87.5678 84.2937 88.2107 83.2377 88.9228 82.2305C89.7492 81.0615 90.7711 81.5142 91.8011 81.8922C91.4309 82.9096 91.0931 83.8391 90.7546 84.7692L90.767 84.7579C89.9352 85.0584 89.103 85.3591 88.271 85.6598C87.8121 85.5493 87.3533 85.4388 86.8945 85.3281Z" fill="#AF532A"/>
<path d="M86.898 85.3281C87.3568 85.4389 87.8156 85.5494 88.2745 85.6599C88.1593 86.0902 88.0438 86.5205 87.9287 86.9513L87.8527 86.8953C87.5099 86.5301 87.167 86.1649 86.8242 85.7999C86.849 85.6427 86.8733 85.4853 86.898 85.3281Z" fill="#121910"/>
<path d="M86.0841 85.7812L85.9248 85.8423L85.7578 85.8075C85.8664 85.7988 85.9751 85.7899 86.0841 85.7812Z" fill="#121910"/>
<path d="M99.7471 80.8393C99.6981 80.7701 99.6401 80.7054 99.6038 80.6298C99.5914 80.6038 99.6331 80.5519 99.6501 80.5117C99.7182 80.6105 99.7508 80.7197 99.7471 80.8393Z" fill="#121910"/>
<path d="M94.7799 95.064C94.1787 96.4388 91.2431 99.0084 89.3633 99.6074C90.1629 97.251 90.9102 95.1644 92.7234 93.625C92.8641 93.7681 93.0047 93.9109 93.1454 94.054C92.8061 94.7295 92.4665 95.4049 92.1274 96.0801C92.2724 96.157 92.4181 96.2336 92.5634 96.3105C93.1411 95.7015 93.7186 95.0925 94.2961 94.4835C94.4577 94.6769 94.6186 94.8706 94.7799 95.064Z" fill="#121910"/>
<path d="M99.365 88.8608C99.3856 89.1834 99.4067 89.5056 99.4273 89.8282C99.3589 89.8704 99.3192 89.9309 99.3081 90.0106C99.1034 90.1858 98.8984 90.3617 98.6937 90.5371C98.4453 90.7677 98.1969 90.9987 97.9485 91.2293C97.699 91.4675 97.4494 91.7054 97.1997 91.9432C96.5347 92.3772 95.8696 92.8108 95.2333 93.2255C94.8194 92.3887 94.5873 91.9197 94.3555 91.451C94.5394 91.3845 94.7235 91.3181 94.9074 91.2517C95.3229 91.1212 95.7383 90.9909 96.1538 90.8604C97.2757 90.2768 97.5245 88.2863 99.365 88.8608Z" fill="#539836"/>
<path d="M94.3558 91.4492C94.5877 91.9178 94.82 92.3869 95.2338 93.2237C95.87 92.809 96.535 92.3754 97.2002 91.9414C97.3689 92.1253 97.5381 92.309 97.7068 92.4927C96.731 93.3492 95.7553 94.2057 94.779 95.0627C94.6176 94.869 94.4568 94.6756 94.2954 94.4817C94.2716 94.2155 94.2477 93.9495 94.2097 93.5281C93.7509 93.7539 93.4476 93.9033 93.1447 94.0522C93.004 93.9094 92.8633 93.7663 92.7227 93.6234C93.2674 92.8985 93.8115 92.1742 94.3558 91.4492Z" fill="#060706"/>
<path d="M99.3642 88.8613C97.5237 88.2868 97.2749 90.2773 96.153 90.8609C95.9605 90.7233 95.7672 90.5854 95.5742 90.4475C96.4703 89.2775 97.3418 88.0873 98.283 86.955C98.4701 86.729 98.9228 86.724 99.2528 86.6172C99.3132 87.2138 98.2217 87.9027 99.3961 88.4099C99.3852 88.5604 99.375 88.7106 99.3642 88.8613Z" fill="#060706"/>
<path d="M87.9258 86.9511C88.0415 86.5208 88.1566 86.09 88.2721 85.6597C89.1039 85.359 89.9361 85.0585 90.7683 84.7578C89.821 85.7592 88.8733 86.7601 87.9258 87.7614V86.9511Z" fill="#060706"/>
<path d="M97.9492 91.2299C98.1976 90.9994 98.446 90.7683 98.6939 90.5378C98.9295 90.5369 99.1649 90.536 99.4 90.5352C99.4441 90.5873 99.4877 90.6392 99.5311 90.6919C99.1305 91.1222 98.7304 91.5523 98.3296 91.9827C98.203 91.7317 98.076 91.4809 97.9492 91.2299Z" fill="#060706"/>
<path d="M95.5776 90.4453C95.7708 90.5832 95.9634 90.721 96.1564 90.8587C95.7411 90.9892 95.3255 91.1195 94.9102 91.2499C95.1325 90.9818 95.3552 90.7135 95.5776 90.4453Z" fill="#121910"/>
<path d="M97.9485 91.2305C98.0753 91.4815 98.2023 91.7322 98.3289 91.9832C98.1213 92.1539 97.914 92.3247 97.7064 92.4956C97.5375 92.3119 97.3684 92.128 97.1992 91.9443C97.4493 91.7066 97.699 91.4686 97.9485 91.2305Z" fill="#121910"/>
<path d="M99.3086 90.0105C99.3197 89.9308 99.3594 89.8702 99.4278 89.8281C99.5359 90.0537 99.644 90.2795 99.7522 90.5051C99.6998 90.593 99.6262 90.6549 99.5309 90.6912C99.4877 90.6384 99.4439 90.5863 99.3998 90.5344C99.3696 90.3598 99.3392 90.1848 99.3086 90.0105Z" fill="#060706"/>
<path d="M113.793 92.3242C114.027 92.3568 114.261 92.3896 114.495 92.4221C114.494 92.5685 114.494 92.7146 114.493 92.8607C114.195 92.8017 113.898 92.7426 113.6 92.6838L113.588 92.672L113.493 92.682L113.434 92.6082C113.553 92.5138 113.673 92.4189 113.793 92.3242Z" fill="#060706"/>
<path d="M113.59 92.6719L113.602 92.6834L113.608 92.7433L113.59 92.6719Z" fill="#121910"/>
<path d="M122.698 92.3653C122.39 92.3401 122.544 92.3529 122.698 92.3653C122.535 92.1367 122.617 92.2509 122.698 92.3653ZM123.486 94.1311C122.757 93.9698 122.029 93.8089 121.344 93.6576C121.477 91.3071 122.195 90.2764 123.816 89.8828C123.907 90.6043 123.998 91.3273 124.088 92.0501C123.955 92.0483 123.821 92.0468 123.688 92.0451C123.62 92.742 123.551 93.439 123.483 94.1357L123.486 94.1311Z" fill="#549937"/>
<path d="M123.484 94.1374C124.01 94.1956 124.536 94.2535 125.062 94.3117C125.015 94.4871 124.968 94.6626 124.92 94.8378C124.443 94.6031 123.966 94.3679 123.488 94.1328L123.484 94.1374Z" fill="#549937"/>
<path d="M93.1472 94.0558C93.4503 93.9064 93.7531 93.7575 94.2119 93.5312C94.2499 93.9531 94.2738 94.2191 94.2979 94.4853C93.7201 95.0943 93.1426 95.7033 92.5649 96.3123C92.4196 96.2354 92.2744 96.1588 92.1289 96.0819C92.4685 95.4065 92.8076 94.7312 93.1472 94.0558Z" fill="#0744F3"/>
<path d="M99.3095 90.0117C99.3401 90.1861 99.3705 90.3611 99.4007 90.5356C99.1656 90.5365 98.9304 90.5374 98.6953 90.538C98.8998 90.3628 99.105 90.1869 99.3095 90.0117Z" fill="#121910"/>
<path d="M122.701 92.3664C122.538 92.1378 122.62 92.252 122.701 92.3664C122.393 92.3412 122.547 92.354 122.701 92.3664Z" fill="#121910"/>
</svg>
