<svg width="110" height="110" viewBox="0 0 110 110" fill="none" xmlns="http://www.w3.org/2000/svg">
<mask id="mask0_1054_9728" style="mask-type:alpha" maskUnits="userSpaceOnUse" x="0" y="0" width="110" height="110">
<circle cx="55" cy="55" r="55" fill="#D9D9D9"/>
</mask>
<g mask="url(#mask0_1054_9728)">
<path d="M1.60547 54.9406V7.91406L43.4611 9.27998L100.83 54.9406L109.61 68.5022V86.3567L102.586 94.0644L89.1217 99.0403L1.60547 54.9406Z" fill="white"/>
<path d="M92.7343 99.6622C91.8971 99.277 91.2581 98.9306 90.5831 98.6823C88.8254 98.0352 86.9874 97.5702 85.2962 96.786C77.4151 93.1335 70.6191 87.8976 64.1993 82.1256C60.0486 78.3939 56.6104 74.0776 53.6083 69.3919C53.204 68.7609 52.7166 68.1815 52.2479 67.5932C51.8096 67.0423 51.1579 66.6601 50.5641 67.0242C50.1688 67.266 49.8523 67.9803 49.8647 68.4742C49.8932 69.5904 50.088 70.7132 50.3204 71.8111C51.3587 76.7091 53.0994 81.3759 54.9668 86.0087C55.9878 88.5423 57.2981 90.8101 59.3764 92.6316C62.4085 95.2893 66.1227 96.559 69.803 97.9111C70.0957 98.0184 70.4417 98.018 70.7609 98.0073C71.6004 97.9796 71.9534 97.5993 71.8025 96.7729C71.7305 96.3799 71.5136 95.9535 71.2339 95.6688C69.8054 94.2134 68.3362 92.7979 66.8794 91.3703C64.3421 88.8843 61.7517 86.4505 59.2859 83.8958C57.9102 82.4712 56.7431 80.8451 55.4779 79.313C55.0037 78.7389 54.7278 78.1412 55.1791 77.3858C56.1819 77.2772 56.7267 77.9742 57.348 78.5516C60.3031 81.2961 63.1727 84.1425 66.2501 86.7422C70.3884 90.2382 74.5166 93.7394 79.3198 96.3943C82.9346 98.3923 86.5585 100.106 90.7152 100.489C91.3841 100.55 91.9846 100.545 92.7343 99.6622ZM82.9098 26.2621C83.0161 26.1518 83.1227 26.0416 83.229 25.9319C83.0704 25.4447 82.9999 24.9016 82.7348 24.4815C82.1343 23.531 81.5318 22.5527 80.7628 21.7446C78.6542 19.5279 76.5343 17.3114 74.279 15.2481C71.5686 12.7678 68.5253 10.7283 64.9332 9.74797C61.1654 8.71943 57.363 7.81246 53.5597 6.92169C52.4202 6.65475 51.2242 6.49416 50.0581 6.51328C48.6711 6.53611 48.1823 7.52074 48.8288 8.73446C49.0801 9.2055 49.3806 9.65879 49.7122 10.0775C53.7619 15.1939 56.8846 20.9001 60.164 26.5056C61.7633 29.239 63.3323 31.99 64.9004 34.7411C65.4965 35.7876 66.3369 36.3679 67.5469 36.6238C73.4729 37.8783 79.2895 39.5503 85.0422 41.4382C87.9949 42.4068 90.9145 43.4754 93.8598 44.4674C94.5357 44.6953 95.2546 44.7956 95.9539 44.9543C96.037 44.8493 96.1202 44.7443 96.2033 44.6392C95.9613 44.1505 95.8255 43.5568 95.461 43.1897C93.0371 40.7533 90.6237 38.3011 88.0854 35.9874C86.6655 34.6935 85.0582 33.5865 83.454 32.517C80.1596 30.3202 76.3713 29.2156 72.7222 27.8017C70.7223 27.0262 68.763 26.1444 66.7943 25.2905C66.0013 24.9469 65.3831 24.4681 65.8696 23.1931C71.6406 23.4848 77.2336 25.142 82.9098 26.2621ZM31.7154 0H45.9448C46.1553 1.11947 46.738 1.76242 47.9447 1.96302C54.2669 3.01477 60.4734 4.55904 66.5885 6.47679C70.1755 7.60152 73.4159 9.33058 76.2789 11.7935C79.5957 14.6469 82.6138 17.7858 85.2574 21.2582C86.6655 23.1086 87.6626 25.2439 87.8158 27.6173C87.9586 29.8328 88.8357 31.6549 90.3234 33.2374C92.462 35.5123 94.5683 37.8193 96.7504 40.0526C98.501 41.8449 99.8866 43.826 100.87 46.1541C102.168 49.2277 106.028 51.2324 107.389 53.727V58.5418C106.923 58.2351 106.422 57.9695 105.995 57.6148C103.521 55.5599 101.249 53.1949 98.5597 51.4847C94.7644 49.0723 90.6512 47.1419 86.4097 45.5996C79.2667 43.0026 72.1003 40.4374 64.4836 39.5587C63.6242 39.4594 62.7264 39.6928 61.9496 39.7622C61.6144 40.7114 61.8838 41.1637 62.5508 41.3883C63.2615 41.6273 63.9737 41.8741 64.7025 42.0431C67.5138 42.6954 70.3559 43.2262 73.1423 43.9685C80.9739 46.0552 88.2839 49.3752 95.1476 53.6575C99.6587 56.4719 103.959 59.5735 107.389 63.7171V67.2749C106.557 66.519 105.7 65.7871 104.894 65.0042C96.1286 56.4953 85.9595 50.3608 74.2169 46.9193C71.5387 46.1344 68.8317 45.3586 66.0835 44.9264C63.4154 44.5063 61.3632 45.2593 60.5025 48.5027C60.4063 48.8665 60.2713 49.2202 60.1737 49.584C59.2494 53.0239 58.159 56.4243 56.2379 59.434C54.5639 62.0567 54.6628 64.5821 55.9439 67.231C56.2483 67.8597 56.5289 68.5045 56.8887 69.1006C59.1819 72.9002 61.8474 76.436 65.1927 79.3494C71.2511 84.627 77.7027 89.3835 84.8014 93.2006C87.1295 94.4528 89.5337 95.5324 92.1867 95.9143C95.1646 96.3434 98.0118 96.1044 100.455 94.1199C102.541 92.4258 104.583 90.6784 106.656 88.9688C106.859 88.8022 107.143 88.7351 107.389 88.6217V92.5028C105.177 94.1759 102.955 95.8365 100.758 97.5282C99.9108 98.1804 98.9968 98.8032 98.3287 99.6163C97.1122 101.097 95.5945 102.049 93.7917 102.488C90.5509 103.276 87.2626 103.744 83.9059 103.552C81.6904 103.426 81.2867 104.051 81.8836 106.245C82.2571 107.616 82.429 109.042 82.7127 110.558H79.2765C78.6532 109.036 78.4516 107.273 77.0086 106.208C76.0203 105.479 75.0091 104.705 73.8879 104.245C68.7761 102.15 63.633 100.131 58.4769 98.1472C56.8015 97.5025 55.964 98.0418 55.6147 99.8045C55.4701 100.536 55.4149 101.286 55.336 102.03C55.279 102.563 55.3403 103.129 55.1778 103.624C55.0667 103.962 54.6755 104.412 54.3822 104.432C54.0825 104.453 53.5832 104.077 53.4636 103.763C53.141 102.918 52.894 102.026 52.7601 101.132C52.1788 97.265 51.7368 93.3753 51.0804 89.522C50.0772 83.6336 48.3295 77.9508 45.9612 72.465C45.6872 71.8297 45.3198 71.2181 44.9033 70.665C44.2436 69.7878 43.2923 69.5904 42.3278 70.1211C41.4343 70.6132 40.5814 71.1789 39.7191 71.7257C38.2925 72.6299 36.7385 73.1279 35.0779 73.4483C32.3102 73.9824 29.5381 73.8553 26.7585 73.7488C25.5789 73.7035 24.3927 73.6774 23.2243 73.5281C20.7286 73.2096 18.2459 72.7872 15.7508 72.4613C12.1738 71.995 8.68625 71.2158 5.35126 69.7995C4.17618 69.3004 2.95037 68.9222 1.74778 68.489C1.72104 66.8954 1.69451 65.3016 1.66797 63.7077C2.21121 63.8984 2.77339 64.049 3.29536 64.2863C5.24433 65.1732 7.16988 66.1116 9.13115 66.9699C9.44394 67.1067 9.89255 66.9331 10.2785 66.9032C10.2053 66.4636 10.1689 66.0126 10.0424 65.5886C9.98914 65.4109 9.75439 65.2791 9.58775 65.1443C8.00563 63.8619 6.42253 62.5809 4.83573 61.3037C3.79938 60.4694 2.75758 59.6422 1.71792 58.8117C1.71187 57.1166 1.70563 55.4221 1.70017 53.727C3.78495 55.6652 5.81001 57.6731 7.96875 59.5251C11.1063 62.2177 14.3628 64.7574 18.0219 66.7436C21.222 68.4807 24.6765 69.4241 28.1931 70.1838C30.0203 70.5781 31.8731 70.8624 33.721 71.1541C34.5257 71.2812 35.2184 71.0679 35.5177 70.1888C35.2157 69.1263 34.3025 68.9051 33.4306 68.6432C32.15 68.258 30.8541 67.922 29.5828 67.5083C25.9431 66.3231 22.5357 64.636 19.2692 62.6513C13.4763 59.1325 7.79547 55.4683 3.09262 50.4956C2.7006 50.0812 2.19131 49.7762 1.73646 49.4204V44.172C2.15853 44.6431 2.4163 44.9067 2.64772 45.192C6.26291 49.6478 10.5414 53.3722 15.0524 56.9043C20.1787 60.9176 25.7885 63.8246 32.0641 65.4682C36.1045 66.526 40.1066 66.6376 44.1261 65.1722C52.6438 62.0665 58.517 51.8662 56.4588 42.5805C55.9503 40.286 55.4775 37.817 54.2655 35.8801C51.7224 31.8159 48.6048 28.1149 44.5915 25.3629C37.992 20.8375 30.9983 17.0636 23.2727 14.806C18.3622 13.371 13.419 12.0929 8.26281 11.8575C6.07715 11.758 3.89988 11.4747 1.67402 11.2708V8.40625C2.53337 8.43376 3.40405 8.38205 4.24994 8.50342C7.58551 8.98383 10.9289 9.43283 14.2387 10.0565C17.5985 10.6895 21.0045 11.2595 24.2438 12.3091C31.1183 14.5357 37.5092 17.8521 43.5938 21.744C48.4479 24.8494 52.9962 28.3459 57.1146 32.3902C57.6585 32.9241 58.1646 33.618 59.1719 33.4819C59.5029 31.6292 58.7719 30.1922 57.581 28.9416C56.2446 27.5375 54.8308 26.2065 53.5098 24.7892C51.7284 22.8779 49.671 21.3188 47.38 20.1176C42.1491 17.376 36.8995 14.6655 31.5974 12.0657C26.7671 9.69704 21.6291 8.13267 16.431 6.813C14.1579 6.236 11.8097 5.94428 9.48589 5.58621C6.89397 5.18658 4.29112 4.85935 1.69256 4.50031C1.68748 3.53909 1.68241 2.57749 1.67734 1.61627C5.56317 2.04146 9.45643 2.41123 13.3335 2.9057C18.6334 3.58163 23.692 5.27205 28.5933 7.25926C33.8628 9.39634 38.9261 12.0423 44.0799 14.4649C45.7814 15.2645 47.4769 16.0776 49.1935 16.8437C49.6421 17.0441 50.1594 17.0898 50.9754 17.2859C50.6234 16.6841 50.5122 16.3803 50.3079 16.1645C49.462 15.271 48.5927 14.3989 47.723 13.5279C43.3829 9.17935 38.6964 5.25429 33.5789 1.84165C32.8657 1.36592 32.332 0.620517 31.7154 0Z" fill="#040604"/>
<path d="M1.67809 1.61608C1.66541 1.07732 1.65272 0.538562 1.64062 0H31.7162C32.3328 0.620322 32.8665 1.36592 33.5797 1.84165C38.6972 5.25449 43.3836 9.17974 47.7237 13.5277C48.5934 14.3989 49.4627 15.271 50.3086 16.1649C50.5129 16.3805 50.6242 16.6839 50.9762 17.2857C50.1601 17.0896 49.6429 17.0439 49.1942 16.8435C47.4777 16.0776 45.7822 15.2643 44.0806 14.4647C38.9268 12.0423 33.8636 9.39634 28.5941 7.25965C23.6928 5.27186 18.6342 3.58143 13.3342 2.90589C9.45718 2.41162 5.56393 2.04146 1.67809 1.61608Z" fill="#55863A"/>
<path d="M107.393 63.7139C103.962 59.5703 99.6617 56.4687 95.151 53.6546C88.2873 49.372 80.9773 46.0519 73.1457 43.9651C70.3592 43.2228 67.5166 42.6921 64.7053 42.04C63.9767 41.871 63.2649 41.6243 62.5542 41.3849C61.8866 41.1603 61.6177 40.708 61.9526 39.7595C62.7298 39.6894 63.6274 39.4564 64.487 39.5554C72.1033 40.434 79.2701 42.9992 86.413 45.5962C90.6546 47.1385 94.7674 49.069 98.5627 51.482C101.253 53.1919 103.525 55.5569 105.998 57.6114C106.425 57.9662 106.926 58.2319 107.393 58.5391L109.481 67.464L107.393 63.7139Z" fill="#54843B"/>
<path d="M1.70546 91.2525C1.68438 85.5459 1.65316 79.8398 1.64848 74.1332C1.64653 72.2529 1.71287 70.3725 1.74839 68.4922C2.95098 68.9254 4.17718 69.3035 5.35187 69.8025C8.68685 71.2193 12.1744 71.9981 15.7518 72.4649C18.2465 72.7903 20.7292 73.2128 23.2249 73.5311C24.3937 73.6805 25.5799 73.7067 26.7597 73.7519C29.5388 73.8583 32.3108 73.9853 35.0791 73.4512C36.7395 73.1314 38.2937 72.6329 39.7197 71.7286C40.582 71.1821 41.4353 70.6162 42.3284 70.1243C43.2933 69.5933 44.2442 69.7908 44.9043 70.6685C45.3204 71.2217 45.6878 71.8328 45.9618 72.4682C48.3301 77.9539 50.0782 83.6371 51.081 89.5252C51.7374 93.3784 52.18 97.268 52.7607 101.135C52.8951 102.029 53.1416 102.921 53.4642 103.766C53.5842 104.08 54.0831 104.457 54.3834 104.435C54.6761 104.415 55.0674 103.966 55.1784 103.627C55.3413 103.132 55.2802 102.566 55.3366 102.033C55.4155 101.289 55.4707 100.539 55.6153 99.808C55.9646 98.0452 56.8021 97.5056 58.4779 98.1507C63.6336 100.134 68.7771 102.153 73.8885 104.248C75.0097 104.708 76.0209 105.482 77.0092 106.212C78.4522 107.276 78.6544 109.039 79.2775 110.56C78.9022 110.579 78.5274 110.613 78.1525 110.613C62.663 110.616 47.1737 110.615 31.6848 110.613C31.363 110.613 31.0418 110.583 30.7203 110.568C30.1316 110.127 29.575 109.632 28.9491 109.253C24.2653 106.417 19.4678 103.755 14.9022 100.741C10.3843 97.7591 6.09493 94.4296 1.70546 91.2525Z" fill="#55883A"/>
<path d="M82.9097 26.2658C77.2335 25.1459 71.6405 23.4887 65.8695 23.197C65.383 24.4723 66.0012 24.9508 66.7942 25.2948C68.7629 26.1483 70.7222 27.0305 72.7221 27.8056C76.3713 29.2195 80.1595 30.3245 83.4539 32.5209C85.0581 33.5904 86.6654 34.6978 88.0854 35.9919C90.6236 38.3054 93.037 40.7576 95.4609 43.194C95.8254 43.5604 95.9612 44.1542 96.2032 44.643C96.1201 44.7482 96.0369 44.8532 95.9538 44.9582C95.2545 44.7995 94.5356 44.6996 93.8597 44.4717C90.9144 43.4793 87.9948 42.4111 85.0421 41.4421C79.2894 39.5542 73.4728 37.8819 67.5468 36.628C66.3368 36.3718 65.4964 35.7915 64.9003 34.7454C63.3322 31.9939 61.7628 29.2429 60.1639 26.5095C56.8845 20.9044 53.7618 15.1978 49.7121 10.0818C49.3805 9.66267 49.08 9.20977 48.8287 8.73834C48.1822 7.52462 48.671 6.53999 50.058 6.51716C51.2241 6.49804 52.4201 6.65902 53.5597 6.92557C57.363 7.81634 61.1653 8.72331 64.9331 9.75185C68.5252 10.7326 71.5685 12.7721 74.2789 15.2524C76.5342 17.3159 78.6541 19.5324 80.7627 21.7483C81.5317 22.5565 82.1343 23.5353 82.7341 24.4858C82.9999 24.9055 83.0699 25.449 83.2289 25.9358C83.1226 26.0461 83.0161 26.1557 82.9097 26.2658Z" fill="#55863A"/>
<path d="M92.7371 99.6639C91.9874 100.547 91.3869 100.552 90.718 100.49C86.5613 100.107 82.9374 98.394 79.3226 96.396C74.5194 93.7411 70.3912 90.2399 66.2529 86.7439C63.1755 84.1442 60.3059 81.2978 57.3508 78.5533C56.7295 77.9759 56.1847 77.2789 55.1819 77.3876C54.7306 78.1429 55.0065 78.7406 55.4807 79.3147C56.7459 80.8468 57.913 82.4729 59.2887 83.8975C61.7545 86.4522 64.3449 88.886 66.8822 91.372C68.339 92.7996 69.8082 94.2151 71.2367 95.6705C71.5164 95.9552 71.7333 96.3816 71.8053 96.7746C71.9562 97.601 71.6032 97.9813 70.7637 98.009C70.4445 98.0197 70.0985 98.0201 69.8058 97.9128C66.1255 96.5607 62.4113 95.291 59.3792 92.6333C57.3009 90.8118 55.9906 88.544 54.9696 86.0104C53.1022 81.3776 51.3615 76.7108 50.3232 71.8129C50.0908 70.7149 49.896 69.5921 49.8675 68.4759C49.8551 67.982 50.1716 67.2677 50.5669 67.0259C51.1607 66.6618 51.8124 67.044 52.2507 67.5949C52.7194 68.1832 53.2068 68.7626 53.6111 69.3936C56.6132 74.0793 60.0514 78.3956 64.2021 82.1273C70.6219 87.8993 77.4179 93.1352 85.299 96.7877C86.9902 97.5719 88.8282 98.0369 90.5859 98.684C91.2609 98.9324 91.8999 99.2787 92.7371 99.6639Z" fill="#54843B"/>
<path d="M1.67578 8.40594L1.69432 4.5C4.29288 4.85904 6.89573 5.18628 9.48766 5.5859C11.8115 5.94397 14.1597 6.23628 16.4328 6.81328C21.6309 8.13295 26.7688 9.69673 31.5991 12.0654C36.9012 14.6657 42.1508 17.3757 47.3817 20.1179C49.6727 21.3185 51.7302 22.8782 53.5116 24.7889C54.8326 26.2062 56.2463 27.5376 57.5828 28.9413C58.7737 30.1925 59.5046 31.6289 59.1737 33.4818C58.1664 33.6176 57.6602 32.9243 57.1164 32.3899C52.998 28.3458 48.4497 24.8492 43.5956 21.7443C37.511 17.8518 31.1201 14.536 24.2456 12.3088C21.0062 11.2593 17.6002 10.6894 14.2405 10.0564C10.9307 9.43252 7.58728 8.98353 4.25171 8.5035C3.40581 8.38174 2.53514 8.43365 1.67578 8.40594Z" fill="#54843B"/>
<path d="M1.70312 53.7284C1.71522 52.293 1.72732 50.8575 1.73942 49.4219C2.19466 49.7776 2.70337 50.082 3.09597 50.497C7.79843 55.4692 13.4797 59.1339 19.2721 62.6527C22.539 64.6372 25.946 66.3239 29.5864 67.5092C30.8571 67.9234 32.1529 68.2594 33.4334 68.644C34.306 68.9065 35.2186 69.1272 35.5211 70.1899C35.222 71.0693 34.5286 71.2822 33.7243 71.1556C31.876 70.8638 30.0237 70.5795 28.1961 70.1852C24.6794 69.4255 21.2254 68.4817 18.0252 66.745C14.3658 64.7586 11.1096 62.2192 7.9721 59.5265C5.81356 57.6742 3.7879 55.6667 1.70312 53.7284Z" fill="#54843B"/>
<path d="M1.66797 63.7089C1.68475 62.077 1.70153 60.445 1.71831 58.8125C2.75758 59.643 3.79958 60.4701 4.83592 61.3043C6.42253 62.5816 8.00602 63.8627 9.58814 65.1455C9.75439 65.2803 9.98972 65.4114 10.0424 65.5894C10.1689 66.0138 10.2057 66.4642 10.2787 66.9044C9.89255 66.9342 9.44394 67.1079 9.13115 66.9707C7.17047 66.1127 5.24433 65.1744 3.29575 64.2875C2.77339 64.0498 2.2118 63.8994 1.66797 63.7089Z" fill="#54843B"/>
<path d="M29.1534 46.5429C30.0362 46.3173 31.524 46.0451 32.9309 45.5452C34.1714 45.1049 34.6573 43.9968 34.2512 42.803C33.7899 41.4488 32.9785 40.3041 31.7061 39.5782C30.3228 38.7887 28.7986 39.0003 27.7369 40.1859C26.5597 41.502 26.1111 43.0859 26.4233 44.83C26.6526 46.1091 27.2581 46.553 29.1534 46.5429ZM29.651 27.1541C32.9161 27.0079 35.894 28.0601 38.3653 30.0114C41.9772 32.8632 43.4169 36.7982 42.5327 41.3573C41.8082 45.0909 39.7748 48.2551 37.2781 51.0178C35.0696 53.4612 32.0173 54.2931 28.7735 54.1744C25.6816 54.0611 22.6803 53.3278 19.8888 52.034C16.2287 50.3386 14.3307 47.3919 13.4875 43.3646C12.2024 37.2254 17.6461 30.2416 22.8801 28.4168C25.0873 27.647 27.3067 27.1086 29.651 27.1541Z" fill="#030303"/>
<path d="M1.67188 105.746C1.68397 102.285 1.69607 98.8243 1.70817 95.3633C2.01628 95.5627 2.3361 95.7471 2.63114 95.9641C5.98993 98.435 9.26715 101.027 12.7225 103.354C16.4852 105.887 20.4126 108.175 24.2682 110.571C19.197 110.571 14.1263 110.57 9.05563 110.57C6.90217 108.491 4.3799 106.976 1.67188 105.746Z" fill="#A25B37"/>
<path d="M24.2718 110.57C20.4162 108.175 16.4888 105.886 12.7261 103.353C9.2707 101.026 5.99406 98.4343 2.63507 95.964C2.33965 95.7464 2.02022 95.5624 1.71171 95.3628C1.71035 93.9916 1.7084 92.621 1.70703 91.25C6.0967 94.4271 10.3855 97.7566 14.9039 100.739C19.4694 103.753 24.2665 106.415 28.9508 109.25C29.5768 109.629 30.1333 110.124 30.7218 110.565C28.5717 110.567 26.4219 110.568 24.2718 110.57Z" fill="#040604"/>
<path d="M1.67188 105.746C4.3799 106.976 6.90217 108.491 9.05563 110.57C7.45966 110.556 5.86348 110.541 4.26692 110.527C3.41459 110 2.56206 109.473 1.70973 108.946C1.69705 107.879 1.68436 106.813 1.67188 105.746Z" fill="#040604"/>
<path d="M1.71094 108.945C2.56327 109.472 3.4158 110 4.26813 110.527H1.71094V108.945Z" fill="#A25B37"/>
<path d="M86.3811 73.2791C85.7631 73.4239 85.1011 73.4719 84.5354 73.7304C82.5817 74.6239 82.4024 76.2747 84.0872 77.5934C85.3752 78.6019 86.8873 78.9314 88.4782 78.8405C89.9856 78.7537 90.6377 77.7993 90.3198 76.2989C89.9481 74.5451 88.4085 73.3967 86.3811 73.2791ZM97.9516 72.9515C98.1854 76.5208 96.7393 79.3391 94.097 81.6153C93.4047 82.2118 92.6872 82.7814 91.9588 83.3342C89.6031 85.1212 86.9689 85.5423 84.1619 84.7584C81.5146 84.0189 78.9974 82.9962 76.7701 81.2992C73.7762 79.0192 72.7151 76.0706 73.1349 72.3782C73.9355 65.3322 81.1157 59.8913 87.0393 59.9856C91.7829 60.0613 95.2504 61.98 96.8097 66.4774C97.5413 68.5879 97.8937 70.7428 97.9516 72.9515Z" fill="#030303"/>
<path d="M29.1585 46.5427C27.2632 46.5528 26.6577 46.1089 26.4284 44.8298C26.1162 43.0857 26.5648 41.5018 27.742 40.1857C28.8037 39.0001 30.3279 38.7885 31.7112 39.578C32.9836 40.3039 33.795 41.4486 34.2563 42.8028C34.6623 43.9966 34.1765 45.1047 32.936 45.545C31.5291 46.0449 30.0413 46.3171 29.1585 46.5427Z" fill="#F6F6F6"/>
<path d="M86.3819 73.2773C88.4093 73.395 89.9489 74.5434 90.3206 76.2972C90.6385 77.7976 89.9864 78.7519 88.479 78.8388C86.8881 78.9297 85.376 78.6001 84.0879 77.5917C82.4032 76.273 82.5825 74.6222 84.5362 73.7287C85.1018 73.4701 85.7639 73.4221 86.3819 73.2773Z" fill="#F6F6F6"/>
<path fill-rule="evenodd" clip-rule="evenodd" d="M105.698 65.3805C105.318 64.88 105.417 64.1654 105.917 63.7859C106.418 63.4062 107.132 63.5045 107.512 64.005C107.512 64.005 111.109 68.7342 111.429 75.2171C111.707 80.8632 111.399 88.715 106.433 93.1299C105.964 93.5473 105.244 93.5049 104.826 93.0354C104.409 92.566 104.451 91.8459 104.921 91.4285C107.085 89.5044 108.18 86.81 108.731 83.9952C109.311 81.0294 109.283 77.922 109.155 75.3293C108.872 69.5803 105.698 65.3805 105.698 65.3805Z" fill="black"/>
<path fill-rule="evenodd" clip-rule="evenodd" d="M104.23 54.9152C103.652 54.2288 103.74 53.202 104.426 52.624C105.113 52.046 106.139 52.1342 106.717 52.8207C106.717 52.8207 115.399 62.3121 111.317 81.8182C111.133 82.6966 111.088 84.9084 110.209 84.7246C109.331 84.5408 108.767 83.6783 108.951 82.7999C112.661 65.0732 104.23 54.9152 104.23 54.9152Z" fill="black"/>
</g>
</svg>
