<svg width="150" height="110" viewBox="0 0 150 110" fill="none" xmlns="http://www.w3.org/2000/svg">
<path d="M51.6719 34.7519L57.5822 20.9294C68.2588 14.3519 114.683 19.2135 119.735 21.978C123.777 24.1896 123.58 29.2547 122.977 31.5107L120.403 38.9462L104.864 48.0023H74.5504L51.6719 34.7519Z" fill="#D9D9D9"/>
<path d="M63.0871 109.761H54.778C54.7818 109.664 54.7776 109.569 54.7656 109.473C57.5436 109.474 60.3222 109.476 63.1008 109.478C63.0896 109.572 63.0854 109.666 63.0871 109.761Z" fill="#989898"/>
<path d="M63.0902 109.759C63.0885 109.664 63.0927 109.57 63.1039 109.476C64.2582 109.475 65.413 109.474 66.5672 109.473C66.5586 109.568 66.5534 109.663 66.5521 109.759H63.0902Z" fill="#B8B8B8"/>
<path d="M66.5508 109.759C66.5521 109.664 66.5573 109.568 66.5658 109.473C67.371 109.472 68.1765 109.47 68.9816 109.469C68.9786 109.566 68.9759 109.662 68.9742 109.759H66.5508Z" fill="#E4E4E4"/>
<path d="M54.7679 109.472C54.7805 109.568 54.7847 109.664 54.7809 109.76H53.3962C53.4017 109.661 53.3975 109.563 53.3828 109.465C53.8446 109.468 54.3062 109.47 54.7679 109.472Z" fill="#B8B8B8"/>
<path d="M53.3799 109.465C53.3943 109.563 53.3987 109.661 53.3932 109.76H52.3545C52.3572 109.662 52.3545 109.565 52.3477 109.467C52.6918 109.466 53.0357 109.466 53.3799 109.465Z" fill="#E4E4E4"/>
<path d="M25.0807 98.462C25.0759 93.5723 25.0712 88.683 25.0664 83.7933C25.1705 83.2347 25.2742 82.6761 25.3777 82.1169C26.287 78.182 27.5114 74.3832 29.9965 71.0137C30.3904 71.3771 30.6589 71.5939 30.8911 71.8438C33.9406 75.1229 37.6812 77.4281 41.6179 79.4574C44.8889 81.1438 48.3977 82.1826 51.9384 83.0768C54.8098 83.8019 57.7398 84.2951 60.644 84.8907C60.791 84.9578 60.9376 85.0249 61.0842 85.092C61.4081 85.1256 61.7315 85.1588 62.0554 85.1923C62.0415 85.4064 62.0283 85.6205 62.0144 85.8346C61.3466 86.0218 60.8526 86.3202 61.1849 87.324C61.7956 87.2579 62.4264 87.2805 63.0011 87.112C68.5836 85.477 73.8703 83.1361 78.7703 80.0204C82.5843 77.5953 86.23 74.9058 89.9748 72.3689C91.0005 71.674 91.9664 70.813 93.663 70.625C93.8476 70.8843 94.1576 71.3024 94.4483 71.7336C95.2163 72.8724 95.9762 74.0173 96.7392 75.1595C96.9541 75.6047 97.1688 76.0493 97.3834 76.4945C97.487 76.7429 97.5911 76.9911 97.6952 77.2397C97.8366 77.6943 97.9785 78.1488 98.1201 78.6029C98.2456 79.5236 98.3708 80.4444 98.486 81.2904C97.9072 81.8034 97.4513 82.2072 96.9958 82.611C96.928 82.6639 96.8599 82.7172 96.7916 82.7702C95.2563 83.7576 93.7206 84.7445 92.1853 85.7315C92.0253 85.8846 91.8657 86.0373 91.7058 86.1904C91.1694 86.4489 90.6328 86.7072 90.0966 86.9654C89.8131 87.1606 89.5298 87.3559 89.2463 87.5511C88.7216 87.8066 88.1966 88.0624 87.6715 88.3183C87.5222 88.4172 87.3726 88.5162 87.2233 88.6155C87.1331 88.5922 87.0509 88.6094 86.9773 88.6666C86.8273 88.7642 86.6776 88.8622 86.528 88.9598C85.8653 89.2515 85.2025 89.5434 84.5398 89.8351C84.4395 89.9078 84.3395 89.98 84.2392 90.0523L84.2199 90.0677C83.7658 90.2934 83.3116 90.5194 82.8575 90.7451C80.068 92.0696 77.2791 93.3943 74.4903 94.7187C74.4018 94.7786 74.3131 94.8383 74.2245 94.8981C73.9747 95.0104 73.7248 95.1225 73.475 95.2348C73.3223 95.3324 73.1696 95.4301 73.0175 95.5277C72.7065 95.6541 72.3955 95.7811 72.085 95.9075C71.8533 96.0192 71.6211 96.1315 71.3893 96.2438C70.5817 96.5894 69.7739 96.9357 68.9668 97.2819C68.8097 97.3864 68.6528 97.4905 68.4963 97.5949C68.0799 97.7425 67.6641 97.8901 67.2479 98.0374C67.0157 98.1398 66.7838 98.2422 66.5516 98.3446C65.7225 98.483 65.0149 98.7724 64.843 99.7238C64.805 100.13 64.9974 100.437 65.3926 100.336C65.8988 100.206 66.3667 99.9249 66.8509 99.7091C67.2103 99.5707 67.5695 99.4321 67.9291 99.2937C68.3011 99.1028 68.673 98.9122 69.0454 98.7213C69.481 98.5656 69.9167 98.4104 70.3529 98.2552C70.8009 98.0477 71.2486 97.8405 71.6968 97.6333C72.875 97.1147 74.0539 96.5955 75.2321 96.0764C75.3152 96.0192 75.3985 95.962 75.4817 95.9048C75.6304 95.8447 75.7787 95.7845 75.9276 95.7239C76.0119 95.6691 76.0961 95.6146 76.1804 95.5599C76.3249 95.5044 76.4698 95.4489 76.6147 95.394C76.7068 95.3351 76.7989 95.2762 76.891 95.2171C79.6759 93.8371 82.4609 92.4576 85.246 91.0774C85.4012 90.9794 85.557 90.8814 85.7122 90.7834C86.7396 90.3129 87.7975 89.8978 88.788 89.3591C90.6289 88.357 92.4304 87.2826 94.2483 86.2381C94.3963 86.1357 94.5442 86.0329 94.6922 85.9301C95.36 85.4773 96.0283 85.0245 96.6965 84.5721C96.845 84.4516 96.9934 84.3313 97.1417 84.2108C97.914 83.6758 98.6864 83.1413 99.4593 82.6063C99.5306 82.5495 99.6021 82.4928 99.6734 82.4356C99.9504 82.2562 100.227 82.0765 100.504 81.8972C100.581 81.8383 100.659 81.7798 100.736 81.7209C100.996 81.6107 101.257 81.5007 101.517 81.3905C101.866 81.2818 102.215 81.1729 102.563 81.0637C103.251 80.9068 103.938 80.7497 104.625 80.5928C104.856 80.5051 105.086 80.4174 105.318 80.3297C105.666 80.2233 106.016 80.1171 106.364 80.0105C106.53 79.9163 106.696 79.8218 106.861 79.727C107.042 79.7047 107.223 79.682 107.404 79.6591C108.091 79.5173 108.778 79.3753 109.464 79.2334C109.88 79.2837 110.296 79.3341 110.711 79.3844C110.874 79.4893 111.037 79.5947 111.199 79.6996C114.532 81.7089 118.259 82.4987 122.026 83.0806C124.602 83.4785 124.617 83.3838 125.371 85.8811C125.404 85.9896 125.404 86.1078 125.419 86.2218C125.509 86.5675 125.599 86.9133 125.689 87.2596C125.69 89.8109 125.692 92.363 125.693 94.9149C123.905 96.6501 121.861 98.0066 119.586 99.018C118.8 99.3673 118.026 99.7585 117.213 100.028C114.283 100.998 111.362 102.01 108.392 102.845C105.026 103.79 101.568 104.296 98.0866 104.659C94.3292 105.05 90.5841 105.561 86.8304 105.987C84.3795 106.265 81.9229 106.498 79.4669 106.727C75.9276 107.057 72.3917 107.516 68.8446 107.644C64.1768 107.813 59.4987 107.673 54.8266 107.744C51.7637 107.791 48.7296 107.485 45.7495 106.904C39.5407 105.696 33.6146 103.594 27.9094 100.854C26.7299 100.288 25.8027 99.5207 25.0807 98.462Z" fill="#0542F3"/>
<path d="M118.15 48.3851C117.294 47.1939 116.66 47.1762 115.66 48.3851H118.15ZM77.3158 30.8768H75.7636C75.1619 31.532 75.1139 32.1536 75.7013 32.6142C75.9993 32.8481 76.6151 32.9848 76.9247 32.8338C77.6097 32.4989 77.8511 31.8604 77.3158 30.8768ZM107.278 29.212C106.68 30.0346 106.802 30.6343 107.392 31.1734C109.197 31.2384 109.479 30.863 108.787 29.212H107.278ZM75.5911 27.9222C75.6119 27.2532 74.9947 26.6734 74.2666 26.6768C73.5919 26.6803 73.1067 27.1426 73.0487 27.8389C72.9833 28.6236 73.434 29.2021 74.1616 29.2667C74.9156 29.3336 75.5671 28.7209 75.5911 27.9222ZM106.521 27.6875C106.914 25.9693 106.847 25.8473 105.279 25.4176C104.342 26.3663 104.144 26.8545 104.543 27.4358C105.093 28.2353 105.804 28.0578 106.521 27.6875ZM109.888 25.3476C108.86 25.8395 108.498 26.5293 108.876 27.5159C109.7 28.241 110.434 28.2852 111.137 27.4707C111.459 26.3998 111.092 25.7083 109.888 25.3476ZM80.0921 28.7127C80.1239 27.8173 79.472 27.0334 78.7237 27.0683C78.1117 27.0965 77.4654 27.7748 77.4065 28.4503C77.332 29.3096 77.9754 30.1448 78.7319 30.171C79.4633 30.1963 80.0619 29.5548 80.0921 28.7127ZM107.184 46.0378C104.758 46.5207 102.648 46.9405 100.164 47.4351C101.491 48.3205 102.533 49.0143 103.51 49.6661C104.744 48.4475 105.837 47.3684 107.184 46.0378ZM119.184 58.5899C118.405 59.3071 118.104 60.0205 118.033 60.9504C117.946 62.0754 117.521 63.1458 116.776 64.0718C116.326 64.6311 116.015 65.302 115.534 66.1003C116.77 66.0637 117.485 67.1998 118.689 66.7785C120.638 65.051 122.224 63.105 121.948 60.2606C120.565 58.5807 120.565 58.5807 119.184 58.5899ZM113.66 43.7061C114.165 44.6668 114.606 45.5055 115.134 46.5117C118.352 45.8731 121.292 44.764 123.306 42.0478C123.398 41.0053 123.489 40.0709 122.357 39.5839C119.282 40.4261 116.561 42.084 113.66 43.7061ZM116.992 57.8742C118.7 56.6515 119.413 55.6849 119.944 53.9242C120.631 51.648 118.823 49.4373 116.514 50.0076C114.824 50.4247 113.163 51.2527 112.635 53.055C112.842 54.1728 113.015 55.1047 113.197 56.086C114.812 56.1325 116.056 56.7419 116.992 57.8742ZM111.683 78.1868C113.178 79.4577 114.922 79.8225 116.564 80.2941C118.751 80.9225 120.918 81.8096 123.614 81.6888C121.661 78.6179 119.636 76.0633 117.318 73.6426C115.421 75.1726 113.623 76.6227 111.683 78.1868ZM94.1046 64.6157C93.6152 64.5375 93.1757 64.4584 92.7336 64.3972C91.4278 64.2157 90.1191 64.055 88.8152 63.8615C86.4332 63.5084 84.0611 63.0748 81.6705 62.8056C80.7853 62.7059 79.8129 62.8344 78.9636 63.1122C78.0532 63.4098 77.1806 63.9616 77.3289 65.3013C82.4867 67.8187 87.9651 68.1916 93.5175 67.8299C94.5032 66.8532 94.2783 65.788 94.1046 64.6157ZM102.116 57.4713C102.4 57.1255 102.646 56.8124 102.906 56.5121C104.028 55.2157 105.074 53.839 106.303 52.6521C107.502 51.4939 108.846 50.5795 110.755 51.1929C111.632 51.4747 112.377 50.8304 112.876 50.0497C113.476 49.1109 113.331 48.0618 113.31 47.0391C113.289 46.0223 112.848 45.2935 111.499 45.0052C110.773 45.5127 109.837 46.0528 109.039 46.7508C107.96 47.6961 106.959 48.7365 105.976 49.7849C105.248 50.5628 104.43 51.1202 103.149 51.3151C102.527 50.9159 101.744 50.4589 101.011 49.9315C99.3727 48.7533 97.6534 48.2721 95.6815 49.7633C95.2571 51.4007 96.2578 52.732 96.7434 54.153C97.4757 56.298 99.5365 57.5255 102.116 57.4713ZM70.2017 39.7977C70.2732 39.6301 70.3222 39.5725 70.3102 39.5342C70.243 39.3199 70.188 39.0951 70.0791 38.9016C68.7615 36.5577 68.4406 34.0359 68.6221 31.3911C68.7813 29.0766 69.831 27.367 71.7938 26.1655C73.2052 25.3015 74.7585 24.8431 76.3768 24.7894C79.1283 24.6977 81.4808 25.9867 82.1904 28.4719C83.1011 31.6607 83.2035 34.8267 81.5774 37.8686C81.3797 38.2389 81.2407 38.641 80.9548 39.3075C84.3694 38.179 87.1764 36.7535 89.1765 34.0449C92.2472 29.8873 90.4009 24.4229 85.4195 23.0537C80.4848 21.6972 75.6664 22.0091 71.2346 24.6763C67.3415 27.0196 63.5947 29.6082 59.7988 32.1111C59.3996 32.3742 59.1029 32.7913 58.6471 33.2493C62.0423 36.5501 65.5558 39.1613 70.2017 39.7977ZM112.145 36.1939C113.733 36.1758 114.898 35.535 116.103 35.0736C118.11 34.3051 119.912 33.202 121.453 31.6809C122.332 30.8135 122.682 29.8041 122.661 28.5756C122.634 26.9724 121.831 25.8275 120.618 24.9674C117.57 22.8071 114.186 21.2771 110.478 20.9138C103.893 20.2682 98.1596 22.5112 93.0987 26.6563C92.4268 27.2067 92.0962 27.8663 91.9685 28.6993C91.6743 30.6158 91.3428 32.5265 91.0061 34.5627C92.9155 36.9474 99.8427 39.6701 103.665 38.0112C102.968 37.0187 102.276 36.0382 101.59 35.0534C99.6837 32.3166 100.082 26.8549 103.451 24.2574C106.838 21.6461 110.551 21.6276 112.637 26.4183C113.654 28.754 113.697 31.085 112.939 33.4769C112.669 34.327 112.437 35.1888 112.145 36.1939ZM100.483 80.089C102.215 79.5834 103.777 79.0831 105.363 78.6742C109.682 77.5594 113.373 75.4462 116.317 72.0508C117.164 71.0743 117.558 70.0417 117.407 68.8608C115.948 67.5758 114.492 67.7916 113.019 68.5519C112.718 68.7077 112.48 69.0173 112.169 69.117C111.795 69.2366 111.374 69.2074 110.789 69.2585C111.04 68.678 111.119 68.3283 111.317 68.0683C111.872 67.3392 112.47 66.6422 113.061 65.9421C113.875 64.9777 114.784 64.0807 115.501 63.0502C116.65 61.3973 116.286 59.5485 114.668 58.192C113.724 58.0879 113.044 58.6019 112.418 59.2198C111.319 60.3061 110.223 61.3955 109.14 62.4968C108.659 62.9858 108.175 63.3269 107.309 62.7105C107.571 62.2018 107.771 61.6213 108.127 61.1624C108.83 60.2579 109.592 59.3954 110.378 58.5619C112.133 56.7018 111.896 54.229 109.739 52.6701C107.971 53.0653 106.798 54.3177 105.706 55.6637C105.095 56.4185 104.597 57.269 103.95 57.9886C102.692 59.3866 101.476 59.6349 99.7765 58.9029C98.7847 58.4759 97.8446 57.9237 96.8405 57.5323C95.0128 56.8206 93.7644 57.6991 93.9166 59.6663C93.9845 60.5448 94.4069 61.4032 94.7166 62.2535C94.9886 63.0012 95.4218 63.7002 95.6187 64.463C96.0483 66.1247 95.5358 67.7014 94.9465 69.3962C95.9732 70.9956 97.1764 72.6066 98.0898 74.3671C99.0217 76.164 99.669 78.1087 100.483 80.089ZM80.0526 67.556C79.8964 67.4601 79.7403 67.3645 79.5845 67.2692C79.1392 67.1827 78.6724 67.1543 78.2522 67C76.1072 66.2103 74.0245 65.2746 72.1288 63.9886C70.91 63.1618 69.7609 62.2327 68.5804 61.3494C68.8334 61.109 69.0862 60.8686 69.339 60.6284C71.1792 61.7936 73.0194 62.9597 74.8596 64.125C74.9711 64.1516 75.0828 64.1787 75.1941 64.2054C75.8174 64.1926 76.152 63.7995 76.5154 63.3406C77.1032 62.5978 77.7405 61.8445 78.8578 61.9538C79.0252 61.8638 79.1924 61.774 79.3598 61.684C80.3437 61.3864 81.3018 61.3014 82.3481 61.5391C84.0985 61.9364 85.8897 62.1524 87.6637 62.4447C87.9432 63.2077 88.0868 63.243 88.7121 62.7011C89.1701 62.7446 89.6276 62.7885 90.0852 62.8319C90.3937 63.5539 90.5346 63.5831 91.1346 63.0495C91.7126 63.0533 92.2905 63.0577 92.8682 63.0619C92.9322 62.9608 92.9963 62.8594 93.0603 62.7583C92.8175 61.8247 92.5284 60.9 92.3422 59.9552C92.0407 58.4217 92.5631 57.1611 93.7768 56.188C94.1707 55.8715 94.5841 55.5798 94.9269 55.3232C95.1122 54.2575 94.9892 53.4777 93.9093 53.1806C93.483 52.5454 93.1442 52.5122 92.5107 53.0434C91.3061 53.0455 90.1006 53.0803 88.8984 53.0348C88.347 53.0138 87.8017 52.8335 87.2534 52.7255C87.5802 52.2727 87.9114 51.9107 88.5792 51.9502C89.6354 52.0131 90.6982 51.9635 91.7582 51.9614C91.8897 51.8926 92.0219 51.8241 92.1538 51.7553C92.5059 51.7326 92.8583 51.7097 93.2104 51.687C93.3713 52.0563 93.4724 51.9317 93.5545 51.6457C93.856 50.5332 94.1578 49.4206 94.4889 48.1998C94.006 48.1998 93.6083 48.1765 93.2134 48.204C91.9582 48.2923 90.7058 48.4505 89.4492 48.4892C85.9455 48.5971 82.4668 48.3108 78.9844 47.8978C75.9726 47.5409 72.9929 47.1241 70.1044 46.1689C68.1581 45.5253 66.2004 44.9141 64.251 44.2784C62.7622 43.7934 61.2737 43.5719 59.7226 44.0243C58.5601 44.3633 57.7001 45.0582 57.5977 46.2435C57.3436 49.1828 57.3935 52.1132 59.1163 54.7055C60.5397 56.8477 61.8699 59.0741 63.5002 61.0497C64.952 62.8094 66.5897 64.5143 68.4406 65.8277C73.3936 69.3416 78.9335 71.6001 84.9242 72.7004C85.7331 72.8491 86.5261 72.7858 87.2357 72.2947C88.4067 71.484 89.5807 70.6777 91.1044 69.628C90.215 69.4818 89.6944 69.379 89.1687 69.3128C88.0932 69.1769 87.0147 69.0608 85.9379 68.9361C85.8462 68.6299 85.7373 68.5437 85.593 68.9088C84.8988 68.792 84.2047 68.6749 83.5107 68.5577C83.3604 68.4721 83.2104 68.3861 83.0604 68.3005C82.0575 68.0522 81.055 67.8042 80.0526 67.556ZM79.3451 21.17C80.6206 21.1761 81.8966 21.1824 83.1721 21.1885C84.5475 21.5511 86.0664 21.6611 87.2633 22.3389C88.8282 23.2249 90.1386 24.56 91.7462 25.8528C95.6715 22.904 99.9834 20.6213 105.012 19.7254C110.219 18.7983 114.861 20.3353 119.605 22.5564C118.341 19.7233 117.949 19.2859 115.319 18.7647C113.482 18.4004 111.592 18.2448 109.718 18.1352C108.705 18.0757 107.671 18.2783 106.654 18.4168C104.734 18.6791 102.79 18.8545 100.909 19.2928C97.6525 20.0524 94.6119 21.3488 92.0415 23.568C91.5664 23.9778 91.0924 24.1997 90.4774 23.8085C90.3763 22.806 91.1948 22.443 91.7719 21.9368C94.1621 19.8385 97.0809 18.8534 100.089 18.1041C104.263 17.0639 108.47 16.3199 112.805 16.9912C113.263 17.0622 113.772 16.8012 114.315 16.681C113.223 14.478 112.224 12.3719 110.404 10.8981C108.521 9.37365 106.322 8.29035 103.978 7.74203C100.699 6.97522 97.4055 7.04576 94.1711 8.23963C91.5061 9.22265 88.8837 10.3107 85.9951 10.6518C83.4142 10.9563 80.9677 10.6169 78.6053 9.7315C75.5692 8.59349 72.6952 7.13784 69.33 6.87493C67.0864 6.69991 64.9955 6.94033 62.9704 7.65681C59.9149 8.73724 57.2115 10.484 54.977 12.8493C52.2148 15.7724 49.4753 18.7212 46.8343 21.7526C45.6784 23.0798 44.7038 24.5894 43.8071 26.1104C43.0886 27.3293 42.6224 28.6947 42.0241 29.986C41.6771 30.7343 41.473 31.6165 40.4751 31.9248C40.1328 31.3622 40.2774 30.9155 40.4739 30.4131C40.9904 29.0917 41.4449 27.746 41.9244 26.4097V25.5545C41.5877 25.9693 41.422 26.1741 41.2562 26.3783C40.7582 26.8433 40.1939 27.2553 39.7729 27.7821C37.5413 30.5748 35.7501 33.6273 34.6897 37.0545C33.378 41.293 32.2607 45.5953 30.8419 49.7965C29.1819 54.7116 29.1372 59.6877 29.8425 64.7198C30.3778 68.5386 32.4152 71.476 35.4408 73.8258C38.3193 76.0612 41.5162 77.6696 44.8643 79.0475C48.6212 80.5938 52.5176 81.6432 56.4856 82.4462C58.8827 82.9309 61.2842 83.4365 63.7084 83.7276C65.1615 83.9019 66.6723 84.1126 68.1384 83.5457C73.0731 81.6384 77.593 78.9645 81.9955 76.078C82.8247 75.5343 83.5532 74.8376 84.3917 74.1604C81.574 73.2937 78.9306 72.631 76.3993 71.673C70.6215 69.4865 65.5089 66.2904 61.8041 61.2072C59.8873 58.5773 58.0101 55.9213 56.7672 52.8659C55.7284 50.3109 55.6948 47.7663 56.5337 45.1983C56.736 44.58 57.1371 43.8832 57.6566 43.5379C59.17 42.5313 60.8812 42.0262 62.709 42.4851C64.1957 42.8584 65.6763 43.2906 67.1114 43.827C71.5258 45.4767 76.1064 46.5607 80.775 46.7196C86.7928 46.9247 92.8323 47.1173 98.8477 46.184C102.067 45.6843 105.246 45.124 108.34 44.104C112.767 42.6457 116.82 40.3887 120.934 38.2616C121.073 38.1899 121.152 38.0023 121.332 37.7765C121.074 36.7039 120.803 35.5768 120.529 34.438C119.814 34.8185 119.265 35.1264 118.703 35.4069C115.879 36.8135 112.842 37.6097 109.838 38.5094C107.532 39.2 105.18 39.6593 102.796 39.8339C98.6021 40.141 94.7396 39.0482 91.2877 36.6395C90.6266 36.1779 90.0272 35.8624 89.2728 36.2097C88.0347 37.1337 86.816 38.0986 85.4733 38.84C82.9528 40.2312 80.2232 40.9193 77.3539 41.3555C72.9923 42.0182 68.9447 41.3021 65.0109 39.4856C62.1193 38.1502 59.7075 36.1131 57.2317 34.1715C56.3812 33.5044 55.5558 32.805 54.8698 32.2443C54.4841 30.0299 55.336 28.6684 56.9874 27.7171C58.1279 27.0604 59.2526 26.371 60.4253 25.7771C63.2821 24.3301 66.1497 22.9023 69.0396 21.5221C70.465 20.8415 71.949 20.2836 73.4066 19.6703C70.9917 19.3754 68.7029 19.7866 66.4298 20.386C64.3457 20.9361 62.5339 21.9858 60.8133 23.2455C60.175 23.7129 59.5029 24.3373 58.4944 23.7171C59.4865 22.2358 60.8244 21.3652 62.2199 20.5833C65.2304 18.8968 68.5335 18.2324 71.9271 18.1493C74.4451 18.0879 76.9747 18.2684 79.4905 18.4558C80.7879 18.5531 82.0737 18.8709 83.3498 19.1561C83.6718 19.2278 83.9364 19.5569 84.5539 20.0045C83.7412 20.2648 83.2926 20.4083 82.844 20.5521C81.5538 20.5395 80.2633 20.5052 78.9735 20.5288C78.6156 20.5353 78.261 20.7124 77.9045 20.8114C77.2717 20.8196 76.6353 20.7872 76.0071 20.844C74.3659 20.9923 72.7473 21.2426 71.3435 22.2108C71.0116 22.2817 70.6476 22.2882 70.3531 22.4338C66.3106 24.438 62.2707 26.4467 58.2522 28.4968C57.7056 28.7759 57.236 29.2476 56.8038 29.6997C55.813 30.7357 55.875 31.1446 57.1224 32.1957C58.1539 31.5141 59.1958 30.8135 60.2503 30.1315C64.1783 27.5903 67.9228 24.7596 72.0996 22.6091C74.4355 21.7299 76.8195 21.0922 79.3451 21.17ZM100.502 81.8987C100.226 82.0781 99.9495 82.2579 99.6728 82.4371C99.5718 82.4569 99.4999 82.5141 99.4583 82.6079C98.6858 83.1429 97.9135 83.6779 97.1407 84.2125C96.9924 84.3328 96.8439 84.4533 96.6955 84.5736C96.0277 85.0266 95.3594 85.479 94.6912 85.9318C94.5433 86.0345 94.3953 86.1373 94.2477 86.2397C92.4295 87.2843 90.628 88.3586 88.7868 89.3605C87.797 89.8999 86.7386 90.3144 85.7112 90.7849C85.556 90.8829 85.4006 90.9811 85.2451 91.0791C82.4604 92.459 79.6753 93.8388 76.8904 95.2187C76.7678 95.2325 76.6757 95.2914 76.6138 95.3955C76.4692 95.451 76.3243 95.5061 76.1795 95.5615C76.0706 95.5804 75.9863 95.6351 75.9266 95.7257C75.7783 95.7859 75.6294 95.8462 75.4811 95.9064C75.3722 95.9284 75.2889 95.9855 75.2311 96.078C74.0529 96.597 72.8745 97.1161 71.6962 97.6347C71.2219 97.7857 70.4417 97.2765 70.3517 98.2566C69.9161 98.4118 69.4801 98.5676 69.0444 98.7228C68.5813 98.7361 67.9598 98.4416 67.9285 99.2953C67.5689 99.4337 67.2094 99.5721 66.85 99.7107C66.1808 99.7159 65.5116 99.7205 64.842 99.7252C65.0144 98.7741 65.7215 98.4846 66.551 98.346C66.7127 98.4402 66.8744 98.534 67.0361 98.6282C67.1062 98.4316 67.1768 98.2357 67.2469 98.0391C67.6631 97.8915 68.0793 97.7439 68.4953 97.5966C68.6522 97.4925 68.8088 97.388 68.9657 97.2835C69.7735 96.9373 70.5811 96.5915 71.3883 96.2452C71.5328 96.3503 71.6768 96.4555 71.8209 96.5606C71.9086 96.3434 71.9963 96.1263 72.084 95.9089C72.395 95.7825 72.7055 95.6557 73.0165 95.5293C73.169 95.4317 73.3217 95.3341 73.4744 95.2365C73.7238 95.1242 73.9738 95.0119 74.2235 94.8996C74.3419 94.8817 74.4304 94.8218 74.4893 94.7204C77.2788 93.3957 80.0677 92.0712 82.8565 90.7466C83.3562 90.612 84.1694 91.1075 84.219 90.0694L84.2382 90.0537C84.3385 89.9815 84.4386 89.9094 84.5393 89.8371C85.202 89.5451 85.8643 89.253 86.527 88.9615C86.6771 88.8639 86.8267 88.7662 86.9764 88.6682C87.05 88.611 87.1321 88.5943 87.2223 88.617C87.372 88.5176 87.5213 88.4187 87.6706 88.3199C88.1956 88.0639 88.7207 87.8086 89.2457 87.5525C89.7454 87.6713 90.1197 87.6076 90.0955 86.9672C90.6322 86.7089 91.1685 86.4504 91.7052 86.1918C91.8648 86.0393 92.0247 85.8862 92.1843 85.7331C93.72 84.7461 95.2553 83.7591 96.7911 82.7717C96.8853 82.7519 96.9531 82.6987 96.9949 82.6127C97.4507 82.2087 97.9062 81.8049 98.4854 81.2918C98.3703 80.4459 98.2446 79.5252 98.1196 78.6049C98.3874 78.1155 98.3039 77.8477 97.6942 77.2412C97.5905 76.9931 97.4864 76.7445 97.3825 76.4959C97.2292 76.0216 97.7381 75.2281 96.7386 75.161C95.9753 74.0188 95.2157 72.8741 94.4474 71.7353C94.1566 71.3038 93.8464 70.8859 93.6621 70.6266C91.9658 70.8144 90.9996 71.6758 89.9739 72.3704C86.2294 74.9074 82.5839 77.597 78.7693 80.0225C73.8697 83.1377 68.583 85.4784 63.0005 87.1135C62.4255 87.2822 61.7946 87.2593 61.1839 87.326C60.8514 86.3219 61.3456 86.0233 62.0138 85.8363C62.2392 85.7343 62.4651 85.6328 62.6909 85.531C62.4785 85.4187 62.2665 85.3061 62.0545 85.1938C61.7309 85.1602 61.4072 85.127 61.0836 85.0935C60.937 85.0266 60.79 84.9598 60.6434 84.8927C57.7392 84.2967 54.8088 83.8033 51.9374 83.0783C48.3971 82.1843 44.888 81.1452 41.6169 79.4591C37.6807 77.4296 33.9396 75.1249 30.8905 71.8453C30.6579 71.5955 30.3895 71.3788 29.996 71.0154C27.5104 74.3848 26.2864 78.184 25.3772 82.1189C25.2662 82.1151 25.1554 82.1099 25.0449 82.1025C25.0298 80.7776 24.9699 79.4509 25.0189 78.1279C25.0439 77.4553 25.1537 76.7419 25.4168 76.1295C26.3255 74.0176 27.2927 71.9292 28.2913 69.8577C28.7674 68.8707 28.868 67.9371 28.5498 66.8654C27.8101 64.3732 27.4093 61.826 27.4132 59.2061C27.4174 56.1097 28.2406 53.1715 28.9729 50.2141C30.3277 44.7425 32.0138 39.3719 33.989 34.0914C35.2839 30.6291 37.3809 27.7037 39.9668 25.1055C40.3698 24.7003 40.8247 24.3137 41.3227 24.0418C43.442 22.8863 45.0729 21.207 46.5932 19.3754C49.2797 16.1392 52.0449 12.9663 55.2389 10.2131C57.2988 8.43696 59.6164 7.02174 62.1618 6.04711C66.2814 4.46964 70.4106 4.80004 74.5009 6.20288C75.5882 6.5758 76.6778 6.98761 77.6908 7.52392C81.4579 9.51988 85.3242 9.43332 89.2515 8.16509C90.6739 7.70638 92.0566 7.12526 93.4663 6.62422C97.9277 5.03874 102.374 4.93674 106.748 6.90811C108.108 7.52087 109.416 8.25984 110.7 9.02151C112.323 9.98393 113.52 11.3587 114.362 13.0561C115.267 14.8805 116.427 16.5112 118.118 17.7132C119.675 18.8206 120.609 20.3731 121.336 22.1088C121.706 22.9944 122.221 23.8441 122.799 24.613C124.37 26.6992 124.892 28.9311 123.956 31.419C123.633 32.2792 123.25 33.117 122.907 33.9701C122.42 35.1836 122.502 36.3207 123.331 37.3878C123.753 37.93 124.123 38.518 124.475 39.1092C125.63 41.0463 125.296 43.1032 123.517 44.4801C122.34 45.3911 121.062 46.172 119.675 47.1152C120.06 47.9224 120.337 48.7355 120.799 49.4249C121.936 51.1223 122.234 52.8889 121.6 54.8407C121.39 55.4874 121.334 56.185 121.203 56.8864C121.451 57.1138 121.639 57.3316 121.867 57.4888C123.627 58.6986 124.263 60.4791 123.347 63.006C122.851 64.377 121.956 65.6538 121.032 66.8073C120.09 67.9847 119.014 68.9992 119.052 70.6777C119.063 71.1654 118.763 71.6604 118.555 72.308C118.931 72.7902 119.348 73.3208 119.76 73.8546C121.448 76.0384 123.146 78.2145 124.816 80.4116C125.573 81.4076 125.901 82.536 125.768 83.8081C125.685 84.6071 125.719 85.4187 125.7 86.2246C125.606 86.2345 125.512 86.2342 125.418 86.2233C125.403 86.1099 125.403 85.9915 125.37 85.8832C124.617 83.3858 124.601 83.48 122.026 83.0823C118.258 82.5004 114.531 81.7103 111.198 79.7012C111.036 79.5962 110.873 79.4913 110.711 79.3862C110.295 79.3355 109.879 79.2852 109.463 79.2349C108.614 78.5912 108.013 79.1481 107.403 79.6612C107.223 79.6835 107.041 79.7064 106.861 79.7287C106.695 79.8232 106.529 79.9178 106.363 80.0125C106.014 80.1187 105.666 80.2249 105.317 80.3311C104.812 79.6995 104.713 80.1334 104.624 80.5944C103.937 80.7513 103.25 80.9082 102.562 81.0653C101.893 80.5109 101.746 80.5569 101.516 81.3921C101.256 81.5021 100.996 81.6123 100.736 81.7223C100.633 81.7504 100.555 81.8089 100.502 81.8987Z" fill="#080A09"/>
<path d="M25.0781 98.4612C25.8001 99.5199 26.7273 100.287 27.9069 100.853C33.612 103.593 39.5381 105.695 45.7469 106.904C48.7271 107.484 51.7611 107.79 54.824 107.743C59.4962 107.672 64.1742 107.812 68.842 107.643C72.3891 107.515 75.925 107.056 79.4643 106.726C81.9203 106.497 84.3769 106.264 86.8278 105.986C90.5816 105.56 94.3266 105.049 98.084 104.658C101.566 104.295 105.024 103.789 108.39 102.844C111.36 102.009 114.28 100.997 117.21 100.027C118.023 99.7576 118.797 99.3664 119.584 99.0171C121.858 98.0057 123.902 96.6492 125.69 94.9141V97.2502C124.14 98.8232 122.079 99.7443 120.069 100.69C112.756 104.13 104.991 105.868 96.9812 106.67C91.4267 107.226 85.8836 107.899 80.3301 108.464C76.5515 108.848 72.7632 109.136 68.9793 109.467C68.1742 109.468 67.3686 109.47 66.5635 109.472C65.4093 109.473 64.2547 109.474 63.0999 109.475C60.3219 109.473 57.5433 109.471 54.7647 109.469C54.3031 109.467 53.8414 109.464 53.3794 109.462C53.0355 109.463 52.6913 109.464 52.3474 109.464C43.3855 108.939 35.0076 106.325 27.0074 102.372C26.3446 102.044 25.7241 101.633 25.0781 101.257V98.4612Z" fill="#080A15"/>
<path d="M25.043 82.1016C25.1539 82.1086 25.2645 82.1141 25.3755 82.1176C25.2718 82.6762 25.1677 83.2352 25.0639 83.7938C25.0571 83.2297 25.0498 82.6659 25.043 82.1016Z" fill="#0F2B8E"/>
<path d="M125.418 86.2227C125.512 86.2333 125.606 86.2343 125.7 86.2238C125.696 86.5696 125.692 86.9149 125.689 87.2604C125.598 86.9145 125.508 86.5683 125.418 86.2227Z" fill="#0F2B8E"/>
<path d="M64.8445 99.7256C65.5137 99.7208 66.1833 99.7157 66.8525 99.7109C66.3682 99.9269 65.9003 100.208 65.3942 100.338C64.9989 100.439 64.8068 100.132 64.8445 99.7256Z" fill="#02061D"/>
<path d="M107.402 79.6612C108.013 79.1486 108.613 78.5913 109.463 79.2355C108.776 79.3773 108.089 79.5192 107.402 79.6612Z" fill="#02061D"/>
<path d="M70.3516 98.2562C70.4414 97.276 71.2215 97.7853 71.6959 97.6346C71.2478 97.8415 70.7996 98.0489 70.3516 98.2562Z" fill="#02061D"/>
<path d="M84.2179 90.0664C84.1685 91.1049 83.3548 90.6092 82.8555 90.7438C83.3096 90.5179 83.7637 90.2921 84.2179 90.0664Z" fill="#02061D"/>
<path d="M96.7383 75.1602C97.7381 75.2269 97.2288 76.0204 97.3825 76.4951C97.1674 76.0499 96.9528 75.6053 96.7383 75.1602Z" fill="#02061D"/>
<path d="M97.6953 77.2422C98.3052 77.8485 98.3885 78.1163 98.1207 78.6054C97.9788 78.1512 97.8372 77.6967 97.6953 77.2422Z" fill="#02061D"/>
<path d="M101.516 81.3894C101.745 80.5542 101.892 80.5078 102.562 81.0626C102.213 81.1713 101.865 81.2806 101.516 81.3894Z" fill="#02061D"/>
<path d="M67.9297 99.2946C67.9611 98.4411 68.5825 98.7356 69.0458 98.7219C68.6736 98.9127 68.3017 99.1038 67.9297 99.2946Z" fill="#02061D"/>
<path d="M67.2465 98.0391C67.1765 98.2356 67.106 98.4316 67.0358 98.6282C66.8741 98.534 66.7125 98.4404 66.5508 98.3462C66.7826 98.2438 67.0148 98.1414 67.2465 98.0391Z" fill="#02061D"/>
<path d="M72.0863 95.9102C71.9986 96.1275 71.9109 96.3447 71.8232 96.5618C71.6791 96.4568 71.5346 96.3515 71.3906 96.2465C71.6223 96.1344 71.8545 96.0225 72.0863 95.9102Z" fill="#02061D"/>
<path d="M90.096 86.9688C90.1201 87.609 89.746 87.6726 89.2461 87.5541C89.5292 87.3592 89.8125 87.164 90.096 86.9688Z" fill="#02061D"/>
<path d="M62.056 85.1953C62.2681 85.3076 62.4801 85.4203 62.6924 85.5326C62.4667 85.6344 62.241 85.7358 62.0156 85.8378C62.029 85.6237 62.0427 85.4094 62.056 85.1953Z" fill="#0F2B8E"/>
<path d="M104.625 80.5955C104.714 80.1344 104.813 79.7 105.317 80.3323C105.087 80.42 104.856 80.5077 104.625 80.5955Z" fill="#02061D"/>
<path d="M100.5 81.899C100.553 81.8092 100.63 81.7507 100.733 81.7227C100.655 81.7816 100.577 81.8401 100.5 81.899Z" fill="#02061D"/>
<path d="M96.9933 82.6094C96.9511 82.6954 96.8832 82.7487 96.7891 82.769C96.8573 82.7156 96.9254 82.6628 96.9933 82.6094Z" fill="#02061D"/>
<path d="M74.4884 94.7188C74.4295 94.8204 74.3409 94.88 74.2227 94.8982C74.3113 94.8383 74.3998 94.7786 74.4884 94.7188Z" fill="#02061D"/>
<path d="M76.6133 95.3955C76.6752 95.2914 76.7673 95.2325 76.8897 95.2188C76.7973 95.2777 76.7054 95.3366 76.6133 95.3955Z" fill="#02061D"/>
<path d="M75.9258 95.7228C75.9855 95.632 76.0697 95.5775 76.1786 95.5586C76.0943 95.6135 76.0101 95.6682 75.9258 95.7228Z" fill="#02061D"/>
<path d="M75.2305 96.0778C75.2882 95.985 75.3712 95.9278 75.48 95.9062C75.3969 95.9634 75.3136 96.0206 75.2305 96.0778Z" fill="#02061D"/>
<path d="M99.457 82.6083C99.4988 82.5141 99.5701 82.4573 99.6715 82.4375C99.5998 82.4943 99.5283 82.5515 99.457 82.6083Z" fill="#02061D"/>
<path d="M88.5545 16.7323C88.6836 16.8789 88.8125 17.0255 88.9419 17.1717C89.4744 16.9159 90.0365 16.7065 90.5335 16.3942C91.5958 15.7281 92.613 14.9901 93.6692 14.3146C96.1708 12.7142 98.8436 11.7522 101.885 11.7983C104.136 11.8323 106.316 12.0687 108.45 12.9598C108.701 12.6902 108.916 12.4593 109.316 12.0296C109.017 11.8607 108.822 11.7333 108.614 11.6357C108.253 11.4672 107.893 11.2942 107.518 11.1631C104.273 10.0311 100.999 10.2445 97.7263 11.001C94.4612 11.7552 91.9287 13.8561 89.2676 15.7044C88.9467 15.9271 88.7884 16.3839 88.5545 16.7323ZM59.4115 19.2365C60.1894 18.8171 60.8427 18.4916 61.4702 18.1221C63.6406 16.8446 65.8791 15.7069 68.3364 15.1031C71.2668 14.3832 74.2518 14.2681 77.1744 15.0078C78.7549 15.4072 80.226 16.2364 81.751 16.8604C82.4021 17.1271 82.959 17.6865 83.9203 17.6091C83.7851 17.1915 83.7805 16.7877 83.5805 16.6285C82.7798 15.9908 81.9785 15.3079 81.0694 14.8612C77.6157 13.1632 73.8677 12.9108 70.1671 13.3546C66.1517 13.8368 62.5302 15.5616 59.2557 18.0543C59.3002 18.3892 59.3427 18.7122 59.4115 19.2365ZM41.9237 26.4097C41.4443 27.746 40.9897 29.0916 40.4729 30.413C40.2767 30.9154 40.1322 31.3623 40.4746 31.9247C41.4723 31.6164 41.6765 30.7343 42.0237 29.9862C42.6214 28.6947 43.0879 27.3292 43.8066 26.1103C44.7033 24.5893 45.6777 23.0799 46.8337 21.7528C49.4746 18.7212 52.2141 15.7723 54.9763 12.8492C57.211 10.484 59.9143 8.73718 62.9697 7.65693C64.9948 6.94045 67.0857 6.70004 69.3293 6.87506C72.6946 7.13778 75.5687 8.59343 78.6049 9.73144C80.9671 10.6165 83.4135 10.9562 85.9944 10.6517C88.883 10.3106 91.5055 9.22258 94.1706 8.23919C97.4051 7.0457 100.699 6.97515 103.977 7.74196C106.321 8.29029 108.52 9.37358 110.403 10.8982C112.223 12.372 113.222 14.478 114.314 16.6812C113.771 16.8007 113.262 17.0621 112.804 16.9912C108.469 16.3199 104.263 17.0638 100.088 18.1036C97.0804 18.8533 94.1615 19.8386 91.7712 21.9367C91.1941 22.4429 90.3758 22.8059 90.4769 23.8084C91.0917 24.1996 91.5657 23.9779 92.041 23.5676C94.6114 21.349 97.6518 20.0523 100.909 19.2927C102.79 18.8546 104.733 18.679 106.654 18.4167C107.67 18.2783 108.704 18.0758 109.717 18.1351C111.591 18.2447 113.481 18.4005 115.318 18.7646C117.949 19.2859 118.341 19.7232 119.604 22.5566C114.86 20.3352 110.218 18.7982 105.011 19.7253C99.9827 20.6212 95.6711 22.9039 91.7455 25.8528C90.1379 24.5601 88.8275 23.2248 87.2626 22.3388C86.0657 21.6611 84.5468 21.551 83.1716 21.1884C83.0618 20.9764 82.9525 20.764 82.8433 20.552C83.2919 20.4083 83.7405 20.2647 84.5533 20.0045C83.9353 19.5568 83.6713 19.2279 83.3491 19.1557C82.0732 18.8708 80.7873 18.553 79.4899 18.456C76.974 18.2684 74.4444 18.0874 71.9264 18.1492C68.533 18.2318 65.2297 18.8964 62.2189 20.5835C60.8239 21.3652 59.4859 22.2357 58.4937 23.7173C59.5023 24.3369 60.1739 23.7129 60.8126 23.2454C62.5333 21.9857 64.3451 20.936 66.4291 20.386C68.7023 19.7862 70.9911 19.3753 73.4059 19.6704C71.9483 20.2836 70.4643 20.8414 69.0392 21.5223C66.1492 22.9022 63.2816 24.33 60.4246 25.7771C59.2519 26.371 58.1273 27.0604 56.9868 27.7172C55.3349 28.668 54.4835 30.03 54.8692 32.2443C55.5551 32.805 56.3805 33.5043 57.2312 34.1714C59.707 36.113 62.1186 38.1502 65.0103 39.4855C68.944 41.3017 72.9918 42.0182 77.3534 41.3554C80.2225 40.9194 82.9521 40.2312 85.4728 38.8399C86.8154 38.0987 88.034 37.1332 89.2723 36.2099C90.0266 35.8619 90.626 36.178 91.287 36.6394C94.7391 39.0481 98.6014 40.141 102.795 39.8338C105.18 39.6592 107.531 39.1999 109.837 38.5094C112.842 37.6097 115.878 36.8137 118.702 35.4068C119.265 35.1266 119.813 34.8187 120.528 34.4379C120.802 35.5767 121.073 36.7035 121.332 37.7765C121.152 38.0022 121.072 38.1898 120.934 38.2615C116.819 40.3886 112.766 42.6456 108.339 44.1039C105.245 45.1235 102.067 45.6842 98.847 46.1839C92.8318 47.1172 86.7921 46.9241 80.7743 46.7195C76.1058 46.5607 71.5253 45.4766 67.1107 43.8269C65.6756 43.2906 64.195 42.8584 62.7083 42.4851C60.8805 42.0264 59.1694 42.5312 57.656 43.5379C57.1364 43.8833 56.7353 44.58 56.5332 45.1983C55.6941 47.7662 55.7277 50.3108 56.7666 52.8658C58.0094 55.9212 59.8866 58.5772 61.8034 61.2071C65.5084 66.2903 70.6208 69.4865 76.3982 71.6729C78.9299 72.6305 81.5733 73.2938 84.3912 74.1603C83.5525 74.8375 82.824 75.5344 81.9949 76.0779C77.5925 78.9645 73.0726 81.6386 68.1377 83.5459C66.6716 84.1127 65.1609 83.9018 63.7077 83.7278C61.2835 83.4366 58.8821 82.9308 56.485 82.4462C52.5169 81.6431 48.6207 80.594 44.8636 79.0474C41.5157 77.6695 38.3187 76.0608 35.4404 73.8258C32.4145 71.4759 30.3774 68.5387 29.8418 64.7197C29.1366 59.6878 29.1814 54.7115 30.8414 49.7965C32.2597 45.5952 33.3773 41.2931 34.689 37.0545C35.7496 33.6273 37.5402 30.5749 39.7722 27.782C40.1932 27.2552 40.7575 26.8432 41.2555 26.3784C41.4782 26.3887 41.7011 26.3994 41.9237 26.4097Z" fill="#539836"/>
<path d="M100.485 80.0865C99.6712 78.1062 99.0239 76.1619 98.092 74.3652C97.1786 72.6041 95.9754 70.9935 94.9489 69.3941C95.538 67.6993 96.0507 66.1222 95.6209 64.4605C95.4236 63.6977 94.9906 62.9988 94.7184 62.2514C94.4088 61.4011 93.9868 60.5424 93.9188 59.6636C93.7666 57.6967 95.0147 56.8181 96.8428 57.5302C97.847 57.9211 98.7866 58.4738 99.7784 58.9005C101.478 59.6324 102.694 59.3841 103.952 57.9861C104.599 57.2665 105.097 56.416 105.709 55.6616C106.8 54.3152 107.973 53.0628 109.741 52.668C111.898 54.2269 112.135 56.6997 110.38 58.5594C109.593 59.3927 108.832 60.256 108.129 61.1603C107.773 61.6192 107.573 62.1997 107.312 62.708C108.177 63.3248 108.661 62.9833 109.142 62.4949C110.225 61.3931 111.321 60.3037 112.421 59.2177C113.045 58.5998 113.726 58.0858 114.671 58.1899C116.288 59.5458 116.652 61.3948 115.502 63.0478C114.785 64.0786 113.877 64.9758 113.063 65.9394C112.471 66.6401 111.874 67.3371 111.319 68.0661C111.122 68.3258 111.042 68.6759 110.791 69.2564C111.376 69.2049 111.797 69.2345 112.171 69.1149C112.483 69.0152 112.72 68.7052 113.021 68.5495C114.494 67.7891 115.95 67.5737 117.409 68.8583C117.56 70.0396 117.166 71.0722 116.319 72.0489C113.375 75.4441 109.684 77.5569 105.365 78.6717C103.779 79.081 102.217 79.5813 100.485 80.0865Z" fill="#539836"/>
<path d="M87.2505 52.7241C87.7985 52.832 88.3438 53.0122 88.8951 53.0334C90.098 53.0789 91.3035 53.0437 92.508 53.0416C92.9742 53.0875 93.4403 53.1331 93.9061 53.179C94.9863 53.4759 95.1089 54.256 94.9236 55.3216C94.5814 55.578 94.1681 55.8699 93.7736 56.186C92.5605 57.1597 92.0375 58.4201 92.3395 59.9537C92.5256 60.8986 92.8146 61.8231 93.0571 62.7564C92.9936 62.858 92.9294 62.959 92.8653 63.0605C92.2874 63.0561 91.7098 63.0519 91.1319 63.0475C90.7822 62.9752 90.4322 62.9026 90.0825 62.8303C89.625 62.7869 89.167 62.743 88.7094 62.6997C88.3598 62.6141 88.0101 62.5285 87.6608 62.4433C85.887 62.1508 84.0952 61.935 82.3454 61.5377C81.2987 61.2998 80.3405 61.385 79.3565 61.6822C79.1893 61.7724 79.0225 61.8624 78.8551 61.9522C77.7375 61.8429 77.1005 62.596 76.5121 63.3392C76.1491 63.7981 75.8145 64.1906 75.1915 64.2036C75.0798 64.1769 74.9682 64.1502 74.8569 64.1235C73.0167 62.9577 71.1765 61.7922 69.3363 60.6268C69.1479 60.4973 68.9592 60.3684 68.7704 60.239C67.9197 59.3057 67.0759 58.3656 66.212 57.4447C66.067 57.2905 65.8344 57.2182 65.6422 57.108C65.4916 56.8854 65.3408 56.6625 65.1898 56.4398C64.3679 55.0684 63.5202 53.7119 62.7328 52.3211C62.1608 51.3106 62.0985 50.2573 62.741 49.2287C62.953 49.1044 63.1646 48.9805 63.3763 48.8567C64.091 48.8523 64.8052 48.8481 65.5196 48.8438C65.7497 48.9215 65.9798 48.9989 66.2098 49.0769C66.5354 49.1324 66.8608 49.1879 67.1865 49.2434C67.315 49.3147 67.4441 49.386 67.5727 49.4575C67.955 49.577 68.3338 49.7086 68.7195 49.8148C70.5327 50.3141 72.3481 50.8062 74.1627 51.3011C74.3963 51.3772 74.6298 51.4538 74.8637 51.5299C75.2039 51.5781 75.5436 51.6262 75.8839 51.6744C76.1203 51.7508 76.3566 51.8279 76.593 51.9045C79.6158 52.4481 82.6232 53.1335 85.7234 53.0149C86.2 52.9968 86.67 52.8105 87.1426 52.7018L87.2505 52.7241Z" fill="#E00152"/>
<path d="M87.2527 52.725L87.1447 52.7027C86.9892 52.4583 86.833 52.2141 86.6773 51.9695C86.5543 51.9092 86.4317 51.849 86.3087 51.7883C84.0226 51.6112 81.7361 51.4339 79.4497 51.2564C79.3066 51.1763 79.1634 51.0968 79.0202 51.0168C78.4732 50.979 77.9266 50.9411 77.3796 50.9033C77.1173 50.8126 76.8553 50.7222 76.5934 50.6315C76.1299 50.5211 75.6658 50.4101 75.2022 50.2995C75.0878 50.2871 74.973 50.2745 74.8586 50.2622C73.4893 49.9094 72.12 49.5567 70.7508 49.2042C70.623 49.1217 70.4949 49.0391 70.3672 48.9564C69.5946 48.796 68.8227 48.6357 68.0503 48.4752C67.8969 48.381 67.7434 48.2868 67.5893 48.1926C67.2424 48.0864 66.8948 47.9802 66.5474 47.874C66.4325 47.8569 66.3177 47.8401 66.2029 47.8229C64.0165 47.0599 62.5239 47.4552 60.9546 49.2971C60.8556 52.4295 62.4009 54.9372 64.4514 57.2315C64.675 57.4729 64.8984 57.7144 65.1221 57.9562C65.8403 58.7354 66.5585 59.5148 67.2763 60.2936C67.3794 60.3947 67.4824 60.4951 67.5851 60.5958C67.6685 60.6465 67.7585 60.6772 67.8555 60.6869C68.0969 60.9077 68.338 61.1283 68.5794 61.3489C69.7599 62.2318 70.9094 63.1611 72.1282 63.9877C74.0239 65.2739 76.1066 66.2098 78.2517 66.9989C78.6719 67.1537 79.1384 67.1818 79.5836 67.2685C79.7397 67.364 79.8959 67.4595 80.0515 67.5551C81.0543 67.8035 82.0568 68.0517 83.0592 68.2998C83.2093 68.3854 83.3595 68.471 83.5099 68.5569C84.2041 68.674 84.8983 68.7915 85.5922 68.9083C85.707 68.9175 85.822 68.9264 85.9368 68.9354C87.014 69.0597 88.0921 69.1762 89.1682 69.3121C89.6938 69.3785 90.2145 69.4807 91.1039 69.6275C89.5802 70.6772 88.4057 71.4835 87.2347 72.2942C86.5251 72.7853 85.7326 72.8486 84.9236 72.6997C78.9325 71.5996 73.3925 69.3409 68.44 65.827C66.5886 64.5136 64.9511 62.8085 63.4992 61.0492C61.8693 59.073 60.5391 56.8472 59.1155 54.705C57.3928 52.1126 57.343 49.1823 57.5966 46.2428C57.6995 45.0577 58.5592 44.3622 59.722 44.0234C61.2732 43.5713 62.7616 43.7929 64.25 44.2779C66.1999 44.9132 68.1571 45.5246 70.1039 46.1684C72.9917 47.1236 75.972 47.5404 78.9836 47.8973C82.4663 48.3097 85.9446 48.596 89.4486 48.4881C90.7048 48.4494 91.9574 48.2916 93.2129 48.2035C93.6072 48.1758 94.0054 48.1991 94.4884 48.1991C94.1572 49.4197 93.8554 50.5327 93.5534 51.6452C93.439 51.6589 93.3246 51.6726 93.2098 51.6865C92.8577 51.7092 92.5054 51.7321 92.1532 51.7548C92.0211 51.8236 91.8892 51.8921 91.757 51.9609C90.6974 51.963 89.6343 52.0124 88.5787 51.9496C87.9108 51.91 87.5796 52.2722 87.2527 52.725Z" fill="#9E5937"/>
<path d="M102.116 57.4739C99.5356 57.5281 97.4752 56.3006 96.7423 54.1556C96.2567 52.7346 95.2562 51.4033 95.6806 49.766C97.6527 48.2747 99.3722 48.7559 101.01 49.9341C101.743 50.4615 102.527 50.9185 103.148 51.3177C104.429 51.1229 105.247 50.5654 105.976 49.7875C106.958 48.7391 107.959 47.6987 109.039 46.7534C109.836 46.0555 110.772 45.5153 111.498 45.0078C112.847 45.2961 113.288 46.0249 113.309 47.0417C113.33 48.0644 113.475 49.1136 112.875 50.0523C112.377 50.8331 111.631 51.4773 110.754 51.1955C108.846 50.5822 107.501 51.4965 106.302 52.6548C105.073 53.8416 104.027 55.2183 102.905 56.5147C102.645 56.8154 102.399 57.1281 102.116 57.4739Z" fill="#539637"/>
<path d="M94.1047 64.6132C94.2784 65.7852 94.5034 66.8503 93.5177 67.8274C87.9653 68.1887 82.4868 67.8158 77.3291 65.2984C77.1807 63.9587 78.0534 63.4073 78.9637 63.1093C79.8131 62.8315 80.7854 62.7034 81.6706 62.8031C84.0613 63.0723 86.4338 63.5055 88.8154 63.859C90.1193 64.0525 91.4279 64.2132 92.7337 64.3943C93.1759 64.4559 93.6153 64.5345 94.1047 64.6132Z" fill="#CB9AAE"/>
<path d="M111.684 78.1851C113.623 76.6209 115.422 75.1708 117.319 73.6406C119.637 76.0614 121.661 78.6156 123.614 81.687C120.918 81.8077 118.751 80.9206 116.565 80.2922C114.922 79.8205 113.179 79.4558 111.684 78.1851Z" fill="#0841E8"/>
<path d="M116.991 57.8754C116.054 56.7429 114.811 56.1336 113.195 56.0877C113.013 55.1062 112.84 54.1739 112.633 53.0561C113.161 51.2538 114.823 50.426 116.512 50.0088C118.821 49.4386 120.629 51.649 119.942 53.9253C119.411 55.686 118.698 56.6528 116.991 57.8754Z" fill="#529336"/>
<path d="M113.66 43.7042C116.561 42.0819 119.281 40.424 122.357 39.582C123.489 40.0688 123.398 41.0034 123.305 42.0459C121.292 44.7615 118.352 45.8711 115.134 46.5098C114.605 45.5034 114.165 44.6649 113.66 43.7042Z" fill="#9E5937"/>
<path d="M72.099 22.6092C67.9223 24.7598 64.1779 27.5904 60.2493 30.1317C59.1953 30.8136 58.1532 31.5147 57.122 32.1959C55.8743 31.1448 55.8126 30.7358 56.8034 29.7002C57.2356 29.2478 57.7048 28.7761 58.2514 28.497C62.2702 26.4469 66.3102 24.4382 70.3522 22.434C70.6468 22.2883 71.0109 22.2819 71.3431 22.2109C71.5951 22.3434 71.847 22.4763 72.099 22.6092Z" fill="#518F37"/>
<path d="M119.182 58.591C120.562 58.5821 120.562 58.5821 121.945 60.2617C122.221 63.1067 120.636 65.0525 118.687 66.7796C117.482 67.2012 116.768 66.0649 115.531 66.1015C116.012 65.3032 116.323 64.6325 116.774 64.0729C117.519 63.1475 117.943 62.0769 118.03 60.9515C118.101 60.0223 118.402 59.3088 119.182 58.591Z" fill="#529438"/>
<path d="M107.181 46.0391C105.833 47.3696 104.741 48.4487 103.507 49.6674C102.529 49.0156 101.489 48.3218 100.16 47.4364C102.646 46.9418 104.754 46.522 107.181 46.0391Z" fill="#935537"/>
<path d="M80.0899 28.7125C80.0598 29.5542 79.4611 30.1958 78.7298 30.1704C77.9732 30.1441 77.3298 29.309 77.4043 28.4501C77.4632 27.7741 78.1096 27.0959 78.7216 27.0675C79.4699 27.0328 80.1217 27.8168 80.0899 28.7125Z" fill="#EDEDED"/>
<path d="M109.888 25.3477C111.092 25.7088 111.459 26.3999 111.137 27.4712C110.434 28.2853 109.7 28.241 108.877 27.5163C108.498 26.5293 108.861 25.8399 109.888 25.3477Z" fill="#E8E8E8"/>
<path d="M106.521 27.6881C105.803 28.058 105.093 28.2356 104.543 27.436C104.143 26.8547 104.342 26.3667 105.279 25.418C106.847 25.8475 106.914 25.9697 106.521 27.6881Z" fill="#E4E4E4"/>
<path d="M75.5918 27.9247C75.5678 28.7237 74.9161 29.3361 74.1619 29.2696C73.4341 29.2045 72.984 28.6265 73.0492 27.8414C73.1074 27.1455 73.592 26.6831 74.2673 26.6797C74.9952 26.6759 75.612 27.2561 75.5918 27.9247Z" fill="#EDEDED"/>
<path d="M72.0997 22.6082C71.8476 22.4753 71.5958 22.3424 71.3438 22.2099C72.7473 21.2418 74.3662 20.9915 76.0071 20.8431C76.6355 20.7863 77.272 20.8187 77.9045 20.8105C78.385 20.9301 78.8649 21.0496 79.3453 21.1691C76.8191 21.0914 74.4354 21.7291 72.0997 22.6082Z" fill="#4C7939"/>
<path d="M107.28 29.2109H108.789C109.481 30.862 109.198 31.2374 107.393 31.1724C106.803 30.6336 106.682 30.0336 107.28 29.2109Z" fill="#EDEDED"/>
<path d="M77.3156 30.8789C77.8506 31.8625 77.6098 32.5016 76.9242 32.8362C76.6146 32.9875 75.9988 32.8503 75.7008 32.6163C75.1132 32.1557 75.1618 31.5348 75.7635 30.8789H77.3156Z" fill="#EDEDED"/>
<path d="M79.3431 21.1727C78.8627 21.0532 78.3828 20.9336 77.9023 20.8141C78.2585 20.7151 78.6133 20.538 78.9715 20.5315C80.2609 20.5079 81.5515 20.5422 82.842 20.5548C82.9512 20.7668 83.0605 20.9792 83.1697 21.1912C81.8943 21.1851 80.6186 21.1788 79.3431 21.1727Z" fill="#426C32"/>
<path d="M118.15 48.3844H115.66C116.661 47.1755 117.294 47.1932 118.15 48.3844Z" fill="#794C34"/>
<path d="M68.5796 61.3473C68.3384 61.1267 68.0972 60.9065 67.8555 60.6859C68.1613 60.5367 68.4669 60.3874 68.7727 60.2383C68.9615 60.3677 69.1498 60.4966 69.3388 60.6261C69.0858 60.8665 68.8326 61.1069 68.5796 61.3473Z" fill="#180609"/>
<path d="M93.9063 53.1803C93.4401 53.1345 92.974 53.0886 92.5078 53.043C93.1412 52.5118 93.4801 52.545 93.9063 53.1803Z" fill="#180609"/>
<path d="M90.082 62.832C90.4317 62.9043 90.7817 62.9769 91.1314 63.0492C90.5314 63.5828 90.3903 63.5537 90.082 62.832Z" fill="#180609"/>
<path d="M87.6641 62.4453C88.0135 62.5309 88.3632 62.6161 88.7125 62.7017C88.0871 63.2436 87.9436 63.2083 87.6641 62.4453Z" fill="#180609"/>
<path d="M41.9223 26.4102C41.6995 26.3999 41.4768 26.3894 41.2539 26.3787C41.42 26.1745 41.586 25.9697 41.9223 25.5547V26.4102Z" fill="#426C32"/>
<path d="M85.9383 68.9389C85.8233 68.93 85.7085 68.921 85.5938 68.9118C85.7379 68.5467 85.8466 68.6327 85.9383 68.9389Z" fill="#180609"/>
<path d="M74.8594 64.125C74.9707 64.1517 75.0822 64.1788 75.194 64.2055C75.0822 64.1784 74.9707 64.1517 74.8594 64.125Z" fill="#180609"/>
<path d="M93.2109 51.6898C93.3253 51.6759 93.4403 51.6622 93.5547 51.6484C93.4729 51.9344 93.3715 52.0591 93.2109 51.6898Z" fill="#180609"/>
<path d="M59.4136 19.2345C59.3448 18.7106 59.302 18.3876 59.2578 18.0523C62.5323 15.5597 66.1538 13.8346 70.1688 13.353C73.8694 12.9088 77.6176 13.1612 81.0713 14.859C81.9805 15.3063 82.7817 15.9892 83.582 16.6266C83.782 16.7858 83.7868 17.1896 83.9222 17.6071C82.9611 17.6845 82.4042 17.1255 81.7525 16.8588C80.2281 16.2344 78.7568 15.4056 77.1764 15.0058C74.2533 14.2665 71.2683 14.3818 68.3385 15.1017C65.8806 15.7049 63.6427 16.843 61.4717 18.1202C60.8442 18.4896 60.1914 18.8151 59.4136 19.2345Z" fill="#081106"/>
<path d="M88.5547 16.7335C88.7886 16.3852 88.9469 15.9284 89.2677 15.7057C91.9289 13.8573 94.4613 11.7565 97.7265 11.0023C100.999 10.2457 104.274 10.0324 107.518 11.1643C107.893 11.2955 108.254 11.4684 108.614 11.637C108.823 11.7346 109.017 11.8619 109.316 12.0308C108.916 12.4606 108.701 12.6915 108.45 12.961C106.316 12.0699 104.136 11.8335 101.885 11.7996C98.8437 11.7534 96.1709 12.7155 93.6694 14.3158C92.6131 14.9913 91.596 15.7293 90.5337 16.3955C90.0366 16.7078 89.4746 16.9171 88.9421 17.173C88.8126 17.0267 88.6838 16.8801 88.5547 16.7335Z" fill="#081006"/>
<path d="M70.7538 49.2055C72.1231 49.5582 73.4925 49.9109 74.8618 50.2634C74.9455 50.5555 75.0492 50.6703 75.2054 50.301C75.6694 50.4114 76.1329 50.5223 76.597 50.6329C76.8589 50.7237 77.1209 50.8144 77.3827 50.9046C77.9298 50.9425 78.4768 50.9803 79.0238 51.0182C79.1666 51.0983 79.3098 51.1782 79.453 51.2577C81.7391 51.4354 84.0258 51.6125 86.3119 51.7902C86.4349 51.8504 86.5575 51.9105 86.6805 51.9713C86.8366 52.2155 86.9922 52.4598 87.1483 52.7044C86.6753 52.8128 86.2052 52.9991 85.7287 53.0176C82.6285 53.1358 79.6211 52.4502 76.5983 51.9067C76.5161 51.72 76.4336 51.533 76.351 51.3463C76.197 51.4563 76.0431 51.5665 75.8891 51.6766C75.5489 51.6285 75.2092 51.5803 74.8691 51.532C74.7697 51.0449 74.6468 50.6302 74.168 51.3033C72.3532 50.8087 70.5384 50.3164 68.7249 49.8171C68.3392 49.7109 67.9603 49.5792 67.5785 49.4596C67.4494 49.3883 67.3203 49.317 67.1918 49.2455C66.8662 49.19 66.5407 49.1346 66.2151 49.0791C66.1421 48.5372 65.9537 48.3355 65.5249 48.8465C64.8105 48.8503 64.0962 48.8547 63.382 48.8589C63.17 48.9828 62.9583 49.1067 62.7463 49.2308C62.1038 50.2596 62.1665 51.3132 62.7381 52.3234C63.5255 53.7143 64.3732 55.0706 65.1951 56.4421C64.9482 56.7056 64.7013 56.9693 64.4544 57.233C62.4039 54.9386 60.8588 52.431 60.9576 49.2985C62.5269 47.4564 64.0197 47.0614 66.2061 47.8242C66.2547 47.918 66.3037 48.0112 66.3527 48.105C66.4185 48.0286 66.4847 47.9519 66.5504 47.8755C66.898 47.9817 67.2456 48.0879 67.5929 48.1941C67.7466 48.2882 67.9001 48.3824 68.0536 48.477C68.8259 48.637 69.5979 48.7975 70.3702 48.9578C70.4979 49.0404 70.6261 49.1229 70.7538 49.2055Z" fill="#080A09"/>
<path d="M68.7717 60.2403C68.4659 60.3894 68.1603 60.5387 67.8545 60.6874C67.7577 60.6777 67.6675 60.647 67.5843 60.5962C67.4816 60.4956 67.3784 60.3951 67.2757 60.2941C66.5575 59.5152 65.8393 58.7358 65.1211 57.9566C65.2952 57.6741 65.4694 57.3915 65.6435 57.1094C65.8359 57.2196 66.0685 57.2918 66.2134 57.4461C67.0774 58.3669 67.9212 59.3067 68.7717 60.2403Z" fill="#080A09"/>
<path d="M65.6427 57.1097C65.4685 57.3922 65.2944 57.6744 65.1201 57.9569C64.8965 57.7152 64.6729 57.4738 64.4492 57.2322C64.6961 56.9686 64.9434 56.7049 65.1903 56.4414C65.3411 56.6641 65.4917 56.8868 65.6427 57.1097Z" fill="#180609"/>
<path d="M75.8867 51.6745C76.0408 51.5643 76.1946 51.4543 76.3487 51.3438C76.4312 51.5308 76.5138 51.7174 76.596 51.9045C76.3594 51.8276 76.1233 51.751 75.8867 51.6745Z" fill="#180609"/>
<path d="M74.1641 51.301C74.6426 50.628 74.7656 51.0427 74.8649 51.5298C74.6314 51.4537 74.3974 51.3773 74.1641 51.301Z" fill="#180609"/>
<path d="M65.5195 48.8455C65.9483 48.3349 66.1367 48.5363 66.2103 49.0785C65.9798 49.0007 65.7497 48.9233 65.5195 48.8455Z" fill="#180609"/>
<path d="M75.2029 50.2991C75.0468 50.669 74.9433 50.5536 74.8594 50.2617C74.9738 50.2741 75.0885 50.2865 75.2029 50.2991Z" fill="#180609"/>
<path d="M66.548 47.8714C66.4817 47.948 66.4159 48.0245 66.3497 48.1011C66.3011 48.0073 66.2521 47.9139 66.2031 47.8203C66.3183 47.8375 66.4331 47.8542 66.548 47.8714Z" fill="#180609"/>
</svg>
