<svg width="150" height="110" viewBox="0 0 150 110" fill="none" xmlns="http://www.w3.org/2000/svg">
<g clip-path="url(#clip0_1054_6928)">
<path d="M37.0649 21.1299C13.1186 41.1166 11.7673 88.7736 14.0849 110.104L118.968 112.225L130.753 94.6659V84.649L128.514 81.7028L130.753 56.3659L134.406 44.817V41.0459L132.756 37.9819L125.568 31.3825L106.477 9.69883L95.1633 5.57422L80.1969 8.52037L37.0649 21.1299Z" fill="#D9D9D9"/>
<path d="M76.1543 55.5965C77.1501 55.2165 77.5519 54.7416 77.2158 53.997C77.0843 53.7057 76.6626 53.5448 76.0993 53.117C75.7545 53.4806 75.4566 53.7948 75.0894 54.1821C75.5516 54.796 75.8406 55.1805 76.1543 55.5965ZM116.656 52.5416C117.587 52.1313 117.99 51.6717 117.668 50.9123C117.534 50.5944 117.184 50.3667 116.834 49.9931C116.393 50.4126 116.043 50.7457 115.618 51.1499C115.992 51.651 116.286 52.0458 116.656 52.5416ZM116.259 48.3541C115.752 47.9612 115.342 47.6437 114.795 47.2185C114.343 47.8238 114.023 48.2511 113.618 48.793C114.202 49.1778 114.606 49.444 115.091 49.7635C115.489 49.2827 115.805 48.9011 116.259 48.3541ZM76.1734 57.5536C77.6533 58.3152 77.7061 58.3017 78.482 56.9793C78.1939 56.2352 77.6573 55.7841 76.8538 56.0127C76.1076 56.2253 75.9532 56.8459 76.1734 57.5536ZM92.072 39.1925C90.3823 37.7979 88.4673 37.3772 86.3611 37.6935C88.1972 38.4668 90.0356 39.2201 92.072 39.1925ZM117.377 42.5492C116.847 41.6074 116.256 40.9918 115.17 41.3321C114.5 41.5426 113.925 42.0126 114.166 42.7298C114.345 43.2608 114.85 43.9122 115.344 44.0603C116.394 44.374 116.973 43.6337 117.377 42.5492ZM72.9566 48.6075C73.2392 50.0336 74.1306 50.345 75.2657 50.3019C76.1349 49.7221 76.6549 48.9532 76.258 47.9864C76.076 47.5431 75.4413 47.0717 74.9605 47.01C73.9036 46.8737 73.3545 47.6546 72.9566 48.6075ZM77.1626 36.3651C76.5941 36.8028 76.0963 37.1858 75.599 37.5688C75.6881 37.7029 75.7772 37.8368 75.8662 37.9704C77.0096 37.8227 78.1499 37.6179 79.2982 37.5415C80.4036 37.4684 81.5415 37.6692 82.621 37.4892C83.7009 37.3086 84.7731 38.3831 86.2676 37.2961C83.0379 36.5115 80.1834 36.2756 77.1626 36.3651ZM121.357 47.6635C122.334 47.6876 123.522 46.5433 123.546 45.5538C123.57 44.6031 122.364 43.4284 121.375 43.4392C120.484 43.4491 119.402 44.5159 119.322 45.4612C119.238 46.469 120.318 47.6371 121.357 47.6635ZM82.5498 53.4474C84.1961 52.4471 84.5979 51.7212 84.1466 50.5625C83.7242 49.4786 82.6733 48.7529 81.7576 48.9127C80.824 49.0753 80.0719 50.1178 80.0592 51.2656C80.0458 52.4634 80.6124 52.9595 82.5498 53.4474ZM107.238 34.4657C103.432 34.3608 95.2387 37.9834 93.6174 40.6288C94.1513 41.162 94.7134 41.7241 95.1001 42.1109C99.2877 39.4735 103.228 36.9914 107.238 34.4657ZM130.699 51.5609C130.903 54.2544 131.138 57.3406 131.368 60.3614C132.393 60.718 133.266 61.0223 134.231 61.3587C134.832 56.9927 134.472 52.873 133.124 48.4288C132.231 49.5825 131.563 50.4449 130.699 51.5609ZM85.9348 97.0571C87.6049 99.0011 88.9507 100.67 90.4115 102.232C91.5273 103.425 92.4276 103.414 93.6047 102.28C95.345 100.602 97.0312 98.8688 98.726 97.1452C99.0112 96.8553 99.2252 96.4961 99.5682 96.0419C95.0339 96.3799 90.7123 96.7014 85.9348 97.0571ZM123.897 38.4192C127.582 41.7948 129.141 45.7132 128.541 50.48C128.802 50.48 128.97 50.5333 129.055 50.472C131.315 48.8439 133.092 46.8051 134.025 44.1602C134.238 43.558 134.144 42.7145 133.889 42.1085C133.203 40.4728 131.875 39.1817 130.24 38.8239C128.194 38.3761 126.017 38.5267 123.897 38.4192ZM115.426 86.2353C115.831 86.6873 115.903 86.8417 116.004 86.8646C116.253 86.9209 116.535 86.9897 116.77 86.9268C119.667 86.1511 122.644 85.5539 125.18 83.8383C126.082 83.2278 127.059 82.5182 127.594 81.6133C129.62 78.1828 131.34 74.5911 132.458 70.7453C132.701 69.9084 132.872 69.0505 133.138 67.9498C132.139 68.2397 131.477 68.4315 130.9 68.5989C130.677 69.7432 130.591 70.735 130.276 71.6478C129.943 72.6111 129.568 73.6571 128.906 74.3931C125.619 78.0523 122.033 81.3859 117.858 84.0509C116.958 84.6253 116.243 85.4891 115.426 86.2353ZM90.6486 56.1857C95.0957 55.0138 96.9298 52.832 96.9803 48.9902C97.0194 46.0318 95.2248 43.7371 92.2728 43.4972C89.0264 43.2335 85.7517 43.3091 82.4883 43.2591C82.2132 43.2554 81.9351 43.423 81.4677 43.571C81.9106 43.7402 82.1548 43.8227 82.3904 43.9252C87.0237 45.9378 90.3038 48.9419 90.2147 54.4691C90.2062 55.0058 90.4799 55.5477 90.6486 56.1857ZM111.287 39.8272C108.998 40.0325 100.625 45.074 98.4986 47.2152C98.125 49.443 97.809 51.3323 97.4606 53.4104C101.511 55.2655 105.838 55.4015 110.504 54.6115C106.631 49.5403 106.922 44.6752 111.287 39.8272ZM129.515 33.5654C129.265 33.316 129.059 32.9721 128.758 32.8326C127.283 32.147 125.819 31.4118 124.284 30.8888C121.745 30.0236 119.063 29.9138 116.423 29.5397C112.152 28.934 107.916 29.2675 103.734 29.7771C97.9035 30.4882 92.4915 32.7456 87.122 35.4155C89.4419 36.33 91.6534 37.2012 93.8352 38.061C96.4577 36.8523 99.1585 35.565 101.894 34.358C106.259 32.4319 110.969 32.7897 115.556 32.5066C120.174 32.2217 124.748 32.9622 129.515 33.5654ZM72.2882 73.7886C73.9397 73.5868 75.3284 73.3358 76.7265 73.2606C81.4988 73.004 85.9654 71.7819 90.0686 69.2909C90.7896 68.8537 91.5674 68.5027 92.3395 68.1574C97.6235 65.7911 103.272 65.2657 108.944 65.0965C114.947 64.9178 120.928 65.3152 126.843 66.5095C128.448 66.8336 130.106 66.7025 131.673 66.1123C132.554 65.7807 133.041 65.1073 133.024 64.157C133.007 63.1992 132.352 62.757 131.511 62.663C128.99 62.3809 126.466 62.1148 123.937 61.9366C123.177 61.8826 122.399 62.1963 121.624 62.2413C119.213 62.3809 116.8 62.5506 114.387 62.5663C109.224 62.601 104.071 62.803 98.9429 63.4165C96.623 63.6939 94.2938 63.9982 92.0175 64.5077C88.7874 65.2311 85.6383 66.3537 82.3888 66.9429C78.296 67.6851 74.1318 68.0269 70.0086 68.6152C68.6029 68.8155 67.2138 69.1841 65.8453 69.5749C64.3878 69.9914 63.4156 71.7612 64.517 73.5527C65.0063 74.3486 65.8116 75.1219 66.6556 75.5014C72.0987 77.9488 77.7952 78.6257 83.6276 77.3136C86.9197 76.5731 90.1494 75.5459 93.3928 74.6006C97.3557 73.4457 101.352 72.6002 105.519 72.9069C109.356 73.1895 113.196 73.4384 117.034 73.7115C117.29 73.7297 117.539 73.8386 117.794 73.8845C120.283 74.3328 122.772 74.7766 125.025 75.1794C127.794 73.935 128.757 71.7869 128.942 69.1049C128.533 68.9586 128.121 68.7328 127.685 68.667C123.89 68.098 120.106 67.3125 116.287 67.069C111.339 66.7539 106.358 66.8623 101.445 67.7549C97.4531 68.4796 93.6678 69.7757 90.0544 71.673C85.1742 74.2352 79.923 75.3762 74.3979 75.1844C73.6111 75.157 72.839 75.1174 72.2882 73.7886ZM72.889 61.0659L72.8873 61.0629C68.638 60.7541 64.3414 60.7251 60.1583 58.6348C59.431 60.9299 58.6909 62.9908 58.1278 65.0996C56.9404 69.5443 55.7025 73.9642 55.9526 78.6735C56.1468 82.3362 58.4064 84.197 60.8015 84.6653C63.2727 85.1483 65.7345 85.6797 68.2004 86.1898C74.2668 88.2073 79.7415 91.2949 84.5242 95.2484C89.7605 95.5937 94.7207 94.7923 99.678 94.0086C101.571 93.7093 103.307 93.0369 104.529 91.4073C104.876 90.9456 105.361 90.5727 105.827 90.2173C111.374 85.9949 116.932 81.7866 122.475 77.5604C122.781 77.3275 122.99 76.9683 123.427 76.4522C120.348 75.9673 117.598 75.4955 114.835 75.1155C113.354 74.9117 111.848 74.8978 110.359 74.7429C104.48 74.1315 98.702 74.1009 93.0237 76.2787C87.5123 78.3931 81.7468 79.4869 75.8019 79.1046C73.7992 78.9759 71.8168 78.5281 69.825 78.226C69.4073 78.074 68.9949 77.9054 68.5713 77.7727C66.5463 77.1394 64.697 76.2035 63.3578 74.5075C61.8532 72.6016 62.1831 71.3002 63.3331 69.9984C64.7673 68.3736 66.6083 67.7405 68.6232 67.3754C69.9398 67.1369 71.2563 66.8984 72.5732 66.6598C74.0613 66.5055 75.5561 66.3961 77.0367 66.1863C79.2838 65.8679 81.5606 65.6379 83.7549 65.0892C89.419 63.6736 95.0073 61.9064 100.886 61.5616C106.159 61.2519 111.432 60.9521 116.709 60.7459C119.847 60.6231 122.993 60.6942 126.134 60.6627C126.639 60.6572 127.144 60.5691 127.712 60.5132C128.376 57.8278 129.863 55.373 128.842 52.4841C128.531 52.4841 128.195 52.4193 127.894 52.4945C125.127 53.1872 122.394 54.0583 119.596 54.5778C115.706 55.2997 111.777 55.8439 107.847 56.3139C104.295 56.7389 100.861 55.7855 97.4443 54.9905C96.6378 54.8029 96.0259 54.9436 95.4242 55.3461C92.5657 57.26 89.3271 58.2301 86.0654 59.138C81.8995 60.2971 77.6344 60.7235 73.3253 60.7968C73.1798 60.8863 73.0344 60.9764 72.889 61.0659ZM104.807 28.1767C107.817 28.136 110.828 28.1074 113.837 28.0445C114.434 28.0323 115.028 27.8897 115.623 27.8072C115.656 27.637 115.689 27.4666 115.722 27.2969C115.01 26.8993 114.334 26.41 113.581 26.1206C110.735 25.0286 107.77 24.7229 104.742 24.939C102.743 24.2944 100.768 23.5612 98.7376 23.0389C97.5975 22.7454 96.4064 22.9111 95.4509 23.8155C95.0785 24.1683 94.6266 24.4403 94.1972 24.7283C90.3795 27.2896 86.5462 29.8285 82.7489 32.4199C82.0204 32.9167 81.4291 33.6144 80.7024 34.2856C80.3333 34.4143 79.832 34.5885 79.3309 34.7631C79.3547 34.8902 79.3783 35.017 79.4021 35.144C80.2907 35.144 81.1792 35.1634 82.0668 35.1386C82.9068 35.1153 83.8315 35.2569 84.5692 34.9576C86.7812 34.0596 88.8887 32.9073 91.0939 31.9912C94.3735 30.6286 97.6777 29.3121 101.239 28.8218C102.435 28.6571 103.618 28.3943 104.807 28.1767ZM133.821 39.0935C133.92 39.1489 134.02 39.2048 134.119 39.2602C134.026 39.1984 133.933 39.1362 133.841 39.0737C133.803 37.3235 132.888 36.2999 131.2 35.9654C129.106 35.5501 127.002 35.185 124.909 34.7686C121.283 34.0471 117.647 34.2852 114.011 34.6305C111.937 34.8275 109.847 35.103 107.99 36.0835C105.468 37.4154 103.008 38.871 100.565 40.3436C99.023 41.273 97.5591 42.33 95.913 43.4284C96.6597 44.3556 97.2148 45.0457 97.8212 45.7992C100.13 44.3056 102.352 42.9485 104.486 41.4674C106.99 39.7304 109.763 38.5903 112.697 38.0136C115.426 37.4767 118.233 37.2591 121.017 37.0989C123.402 36.9617 125.805 37.0666 128.197 37.1385C129.781 37.1858 131.254 37.7008 132.625 38.5029C133.008 38.7266 133.422 38.8981 133.821 39.0935ZM69.6419 48.0088C67.9885 49.1595 66.4072 50.4369 64.6638 51.4308C62.2649 52.7988 61.6366 55.1656 60.6094 57.5395C63.5523 58.5992 66.295 59.6652 69.2758 59.7197C69.3475 59.4639 69.3892 59.3968 69.3788 59.3388C69.3446 59.1488 69.3168 58.9513 69.2416 58.7757C67.6882 55.1439 67.5051 51.5857 69.7984 48.1557C69.8686 48.0435 69.9388 47.9306 70.0091 47.8184C69.8867 47.8815 69.7642 47.9454 69.6419 48.0088ZM92.5749 41.7957C92.2367 41.5197 91.9388 41.1457 91.5525 40.9831C89.2505 40.0158 86.8865 39.2686 84.3554 39.2262C80.644 38.8357 76.9686 39.008 73.4476 40.3076C72.3358 40.7177 71.3221 41.5025 70.398 42.2768C69.6148 42.9327 68.9784 43.7852 68.3611 44.613C67.2173 46.1466 65.6188 47.363 65.0437 49.299C64.9869 49.3895 64.9301 49.4805 64.8731 49.5717C64.928 49.4786 64.9825 49.3855 65.0374 49.2926C66.4692 48.323 67.9371 47.4012 69.3258 46.3741C72.8081 43.7984 76.6999 42.429 81.0175 42.2016C81.7171 42.1644 82.4081 41.9758 83.1032 41.8577C86.2468 42.0145 89.3905 42.1714 92.5344 42.3282C92.7496 42.4015 92.965 42.4741 93.1807 42.5474C93.2127 42.4745 93.2455 42.4024 93.2775 42.33C93.0435 42.1521 92.8095 41.9739 92.5749 41.7957ZM123.989 28.884C124.677 29.0905 125.355 29.3392 126.055 29.4961C129.253 30.2119 131.405 32.2306 133.245 34.8402C134.979 37.2987 135.823 39.9752 135.748 42.8981C135.713 44.2764 135.145 45.642 134.772 47.2098C137.996 58.8667 135.802 70.0336 130.134 80.7418C129.255 81.2909 128.095 81.6232 128.35 83.0482C126.764 84.7827 124.787 85.9143 122.578 86.6187C120.03 87.4321 117.481 88.2879 114.876 88.8722C109.278 90.1273 104.557 92.6921 100.766 97.0953C98.3402 99.9127 95.5543 102.422 92.9299 105.069C91.685 104.546 90.4403 104.024 89.1961 103.501C88.7739 103.104 88.3525 102.707 87.9304 102.31C87.7732 102.168 87.6162 102.026 87.459 101.885L87.5031 101.902C86.219 100.44 84.9649 98.9516 83.6455 97.5228C80.3124 93.9141 76.3169 91.2484 71.6822 89.6559C68.6727 88.6219 65.591 87.7432 62.4829 87.0625C58.7828 86.252 55.0367 85.7653 51.2649 86.9383C50.036 87.3206 48.6952 87.3593 47.4 87.5028C46.8806 87.5606 46.3055 87.5353 46.3126 86.7538C48.3098 86.1789 50.3075 85.6055 52.3043 85.0285C53.1483 84.785 54.1545 84.884 54.4435 84.374C54.2526 81.5377 54.0914 79.1412 53.9294 76.7442C54.1705 74.7356 54.3249 72.711 54.6697 70.7201C55.6439 65.0901 57.5579 59.7534 59.9401 54.5778C60.7579 52.8007 61.4763 50.9474 62.5296 49.3153C66.6799 42.8872 71.6872 37.2353 78.0674 32.8984C80.2299 31.4286 82.4135 29.9894 84.5602 28.4968C87.9952 26.1076 91.4163 23.6979 94.8246 21.2705C96.1426 20.3315 97.0955 19.1309 97.3088 17.4419C97.3581 17.0485 97.6185 16.6813 97.8163 16.2227C98.8345 16.7744 98.8493 17.6059 98.7687 18.3477C98.5634 20.2431 99.575 21.3042 101.149 21.9365C102.229 22.37 103.364 22.8242 104.504 22.9191C108.437 23.2465 112.261 23.9793 115.946 25.4095C117.407 25.9761 118.891 26.4812 120.364 27.0141C120.922 27.2519 121.48 27.4904 122.037 27.7284L122.006 27.6912C122.115 27.7961 122.224 27.9005 122.334 28.0049C122.753 28.1727 123.172 28.3398 123.591 28.5072L123.582 28.4968C123.718 28.626 123.853 28.7549 123.989 28.884Z" fill="#080907"/>
<path d="M128.354 83.0521C128.099 81.6274 129.258 81.2948 130.138 80.7452C130.741 81.9637 131.371 83.1693 131.942 84.4026C133.091 86.8878 133.229 89.4125 132.037 92.0707C132.626 92.6323 133.252 93.1749 133.816 93.7761C135.851 95.9459 136.8 98.6363 137.36 101.477C138.017 104.808 138.256 108.162 137.655 111.687C136.815 111.529 135.933 111.909 135.362 110.993C135.374 108.777 135.593 106.537 135.34 104.351C135.106 102.325 134.542 100.289 133.807 98.3792C132.985 96.2448 132.032 95.8959 129.651 96.2082C126.643 100.011 122.262 102.45 119.36 106.491C120.665 106.697 121.887 106.652 123.105 106.713C123.94 106.755 124.871 106.743 125.577 107.107C127.273 107.981 129.174 108.75 129.566 110.999C129.392 111.432 129.838 112.334 128.75 112.075C127.393 110.6 126.242 108.819 124.063 108.457C122.918 108.267 121.732 108.329 120.571 108.213C119.767 108.131 118.974 107.939 118.024 107.769C118.134 106.51 118.222 105.503 118.312 104.483C115.773 103.374 113.288 103.978 110.849 104.996C108.754 105.871 106.67 106.776 104.61 107.73C102.673 108.627 100.774 109.606 98.8455 110.556C99.0036 111.193 99.1097 111.62 99.216 112.048C97.9282 112.055 96.6408 112.062 95.353 112.07C95.0013 111.44 94.6499 110.811 94.2983 110.181C93.3121 108.387 91.8706 107.066 89.8833 106.597C87.9348 106.138 85.9326 105.828 83.937 105.666C80.827 105.414 77.7022 105.343 74.5833 105.196C73.4796 105.155 72.3744 105.129 71.2711 105.07C68.8765 104.939 66.4444 105.014 64.0974 104.605C59.2169 103.752 54.3826 102.632 49.5269 101.635C48.0154 101.324 46.4961 101.053 44.9801 100.764C42.8865 100.101 40.72 99.6081 38.7152 98.7412C34.7377 97.0207 30.8485 95.0941 26.9233 93.2531C26.9624 92.757 27.0013 92.2606 27.0607 91.5132C30.1558 92.8812 33.0412 94.1902 35.9541 95.4345C39.4237 96.9167 43.7626 97.9467 45.1107 97.5529C42.2711 96.0367 39.966 94.0809 38.089 91.6735C35.539 88.4033 33.4117 84.9256 33.5913 80.5498C33.6818 78.3451 33.8081 76.1402 33.9882 73.941C34.3068 70.0608 35.0716 66.2647 36.3302 62.5754C37.3534 59.5767 38.3897 56.5832 39.4209 53.5871C40.571 50.9702 41.6838 48.3358 42.8806 45.7399C45.6747 39.6784 49.6259 34.3294 53.4743 28.9346C55.5106 26.0804 57.7919 23.3876 60.1123 20.753C61.9978 18.6113 63.9465 16.4677 66.1599 14.6882C68.3651 12.9155 70.9353 11.5959 73.345 10.0776L73.3292 10.0663C73.4619 10.0901 73.5845 10.0653 73.6978 9.99249C78.1241 8.76124 78.1241 8.76124 79.0568 7.61247C77.73 7.50948 76.5049 7.33129 75.281 7.33436C69.9234 7.34708 64.6487 8.13925 59.4528 9.3573C57.8468 9.7337 56.1277 10.3903 54.8879 11.4283C49.4724 15.9612 45.4902 21.5042 43.7944 28.4899C43.4189 28.7838 43.0432 29.0781 42.6678 29.372C42.0385 28.48 42.6642 27.6685 42.8978 26.8784C43.9125 23.4394 44.9648 20.008 46.8261 16.8016C43.8236 17.6987 41.1336 19.0758 38.7079 20.9757C38.5688 21.1202 38.4293 21.2642 38.2903 21.4087L38.3027 21.3868C37.5115 21.903 36.7205 22.4184 35.9296 22.9344C32.9106 25.1157 30.7693 28.0925 28.6375 31.062C27.7327 32.3227 26.7312 33.6143 26.237 35.0506C23.93 41.7593 21.5735 48.4634 19.6307 55.2815C16.64 65.7738 14.626 76.4667 14.2296 87.4122C14.1525 89.3715 14.0748 91.3301 13.9972 93.2887C14.0008 94.0561 14.0036 94.8235 14.0071 95.5907C14 97.1496 13.9204 98.712 14.0008 100.267C14.1837 103.808 14.4455 107.347 14.6751 110.886H13.3015C11.9717 102.757 11.7299 94.7022 12.2646 86.5844C12.6946 80.0546 13.5218 73.5893 14.775 67.1799C16.9325 56.1472 20.0083 45.392 24.6173 35.0965C26.1959 31.5706 28.6933 28.751 31.084 25.8367C33.9238 22.3743 37.2584 19.4313 41.1134 17.1455C42.9009 16.0858 44.8411 15.2739 46.7429 14.4174C48.5353 13.6101 50.2323 12.7121 51.77 11.4342C52.902 10.4938 54.2843 9.7898 55.6528 9.20929C62.9067 6.13398 70.4622 5.11979 78.2983 5.99209C81.0962 6.30368 83.879 6.13209 86.6878 5.64539C90.2868 5.02151 93.9332 4.70427 97.609 5.37222C102.429 6.24734 106.507 8.47629 109.747 12.0649C113.818 16.5747 117.71 21.2459 121.654 25.8678C122.362 26.6969 122.951 27.6275 123.594 28.5111L122.337 28.009C122.228 27.9046 122.119 27.8002 122.01 27.6953L122.041 27.7323C121.713 27.4537 121.385 27.1754 121.058 26.8968C120.278 26.0172 119.445 25.1791 118.729 24.2505C115.53 20.0971 112.039 16.2317 108.1 12.7487C105.711 10.6362 103.143 8.85764 100.117 7.91416C97.4556 7.08452 94.744 6.33549 91.8612 6.77176C87.0731 7.49651 82.3539 8.47134 77.8788 10.3741C71.9365 12.9007 66.3044 15.9329 62.2194 21.1252C58.3837 26.0007 54.5801 30.9085 50.9493 35.9366C45.5451 43.4195 42.1483 51.8979 39.0256 60.5162C36.5346 67.3911 35.8141 74.4833 35.935 81.7049C35.9571 83.0422 36.1827 84.5056 36.7736 85.6801C38.7088 89.5292 41.4384 92.7975 45.0711 95.1589C47.2524 96.5773 49.5665 97.8409 51.9446 98.8951C54.3169 99.947 56.7867 100.858 59.4434 100.992C62.2045 101.957 65.0453 102.547 67.9648 102.713C70.5582 102.859 73.1546 102.965 75.7505 103.058C80.2329 103.22 84.7162 103.358 89.1995 103.505C90.4438 104.028 91.6884 104.55 92.9334 105.072C93.6654 105.71 94.36 106.4 95.1442 106.966C95.6316 107.318 96.2545 107.484 96.8164 107.733C97.4973 107.566 98.2199 107.494 98.8514 107.215C101.949 105.85 105.006 104.395 108.108 103.04C110.66 101.927 113.155 100.709 116.076 100.631C117.656 100.589 119.267 100.057 120.779 99.5086C122.143 99.0139 123.601 98.5102 124.417 97.1171C125.292 96.5882 126.192 96.0953 127.038 95.524C129.962 93.5489 130.768 90.6883 130.313 87.3662C130.092 85.7525 129.619 84.2122 128.354 83.0521Z" fill="#166C8F"/>
<path d="M14.6746 110.889C14.4451 107.35 14.1835 103.811 14.0003 100.269C13.9202 98.7148 13.9999 97.1524 14.0069 95.5935C14.1127 94.8272 14.219 94.0608 14.3253 93.2941C14.4427 91.315 14.5606 89.3356 14.6782 87.356C15.1097 83.8162 15.4034 80.2527 16.0016 76.7409C17.1751 69.8479 18.6875 63.0225 20.5948 56.2885C21.7506 52.207 23.7719 48.6596 26.9137 45.7773V63.6082C27.9891 62.8403 28.6368 61.8612 29.4877 61.1143C31.8165 59.0699 34.1723 57.0465 36.6442 55.1822C37.4668 54.5618 38.1225 53.4522 39.4202 53.5898C38.3895 56.5855 37.3532 59.5795 36.33 62.5782C35.0714 66.2675 34.3059 70.0635 33.988 73.9437C33.8072 76.143 33.6816 78.3479 33.5911 80.5525C33.411 84.9284 35.5383 88.406 38.0883 91.6763C39.9658 94.0836 42.2702 96.0394 45.1105 97.5556C43.7624 97.9495 39.4235 96.9195 35.9539 95.4372C33.041 94.193 30.1556 92.884 27.06 91.516C27.0011 92.2634 26.962 92.7598 26.9224 93.2559C26.9196 93.9684 26.8983 94.6814 26.9174 95.3936C26.9745 97.4795 26.5509 99.6297 27.7204 101.572C28.3068 102.474 28.7704 103.492 29.5002 104.258C32.4491 107.351 35.8516 109.888 39.518 112.077H27.1456C27.0218 111.787 26.879 111.452 26.6391 110.889H14.6746Z" fill="#3FB1E3"/>
<path d="M27.7195 101.57C26.55 99.6277 26.9731 97.4775 26.9165 95.3916C26.8967 94.6794 26.9186 93.9664 26.9214 93.2539C30.8474 95.0949 34.7358 97.0214 38.7141 98.742C40.7189 99.6089 42.8853 100.102 44.9785 100.764C44.8529 101.571 45.2823 102.117 45.8562 102.582C48.2799 104.546 50.9024 106.077 54.1069 106.324C54.3341 106.565 54.5274 106.966 54.7937 107.022C57.3802 107.569 59.9596 108.321 62.5779 108.51C68.6043 108.945 74.6524 109.075 80.6892 109.376C83.0862 109.496 85.4768 109.74 87.8703 109.928C87.3449 110.648 86.8191 111.369 86.2937 112.089C82.3709 112.107 78.448 112.137 74.5254 112.14C64.9772 112.147 55.4293 112.144 45.8819 112.139C45.1645 112.139 44.447 112.094 43.7293 112.07C42.8184 111.605 41.8808 111.185 41.0017 110.666C37.3501 108.512 33.8781 106.116 30.7142 103.268C29.881 102.519 28.7264 102.126 27.7195 101.57Z" fill="#75B5FC"/>
<path d="M99.2143 112.045C99.108 111.618 99.0017 111.19 98.8438 110.553C100.773 109.604 102.671 108.624 104.608 107.727C106.668 106.773 108.752 105.868 110.847 104.993C113.286 103.975 115.772 103.372 118.31 104.479C118.221 105.5 118.133 106.507 118.022 107.766C118.972 107.936 119.765 108.128 120.57 108.209C121.73 108.327 122.916 108.264 124.062 108.454C126.24 108.816 127.391 110.597 128.748 112.072C121.837 112.094 114.926 112.128 108.015 112.133C105.081 112.135 102.148 112.076 99.2143 112.045Z" fill="#3FB1E3"/>
<path d="M124.347 104.863C125.858 106.211 127.42 107.014 129.447 106.957V101.97C127.736 102.983 125.277 102.246 124.347 104.863ZM129.564 110.999C129.173 108.75 127.273 107.981 125.576 107.106C124.869 106.743 123.938 106.755 123.104 106.713C121.886 106.652 120.663 106.697 119.359 106.491C122.261 102.449 126.642 100.011 129.65 96.2083C132.031 95.8963 132.983 96.2451 133.806 98.3793C134.541 100.289 135.105 102.324 135.339 104.351C135.592 106.537 135.373 108.777 135.361 110.993C133.428 110.995 131.496 110.997 129.564 110.999Z" fill="#75B5FC"/>
<path d="M27.7188 101.566C28.7256 102.123 29.8803 102.516 30.7135 103.265C33.8774 106.112 37.3494 108.509 41.0009 110.663C41.8801 111.181 42.8177 111.601 43.7286 112.067C42.3244 112.069 40.9203 112.07 39.5163 112.072C35.8499 109.883 32.447 107.346 29.4985 104.253C28.7685 103.487 28.3044 102.469 27.7188 101.566Z" fill="#166C8F"/>
<path d="M86.2969 112.087C86.8222 111.367 87.3481 110.646 87.8734 109.926C90.0156 110.01 92.1581 110.095 94.2996 110.18C94.6515 110.809 95.0031 111.439 95.3545 112.068C92.3351 112.075 89.3161 112.081 86.2969 112.087Z" fill="#3FB1E3"/>
<path d="M69.828 78.2287C71.8198 78.5308 73.8015 78.9787 75.8044 79.1071C81.7491 79.4896 87.5153 78.3958 93.0267 76.2819C98.7048 74.1034 104.483 74.134 110.362 74.7456C111.85 74.9009 113.357 74.9144 114.838 75.1183C117.6 75.4982 120.351 75.97 123.429 76.4549C122.993 76.971 122.783 77.3302 122.478 77.5631C116.934 81.7893 111.377 85.9976 105.83 90.22C105.364 90.5752 104.879 90.9483 104.532 91.41C103.309 93.0396 101.574 93.712 99.6805 94.0113C94.7237 94.7948 89.7633 95.5964 84.5272 95.2511C79.7445 91.2976 74.2691 88.21 68.2031 86.1925C68.4614 84.5563 68.6776 82.9112 68.9939 81.2866C69.1951 80.2521 69.5449 79.2466 69.828 78.2287Z" fill="#539936"/>
<path d="M72.2926 73.7917C72.8431 75.1206 73.615 75.1602 74.4018 75.1873C79.9273 75.3794 85.1785 74.2384 90.0586 71.6762C93.6717 69.7788 97.4569 68.4825 101.45 67.7578C106.363 66.8657 111.343 66.757 116.292 67.0726C120.11 67.3156 123.894 68.1012 127.689 68.6706C128.125 68.7359 128.537 68.9615 128.946 69.1081C128.762 71.79 127.798 73.9381 125.029 75.1823C122.776 74.7795 120.287 74.336 117.799 73.8877C117.543 73.8417 117.294 73.7328 117.038 73.7144C113.2 73.4413 109.36 73.1926 105.523 72.91C101.356 72.6039 97.3601 73.4488 93.3971 74.6035C90.1531 75.5495 86.9241 76.576 83.6315 77.3168C77.7995 78.6286 72.103 77.9519 66.6595 75.5045C65.816 75.1251 65.0101 74.3517 64.5208 73.5556C63.4199 71.7643 64.3921 69.9945 65.8492 69.578C67.2176 69.187 68.6073 68.8186 70.0129 68.6181C74.1354 68.03 78.2996 67.688 82.3927 66.9458C85.6422 66.3566 88.7912 65.2342 92.0214 64.5109C94.2975 64.0013 96.6273 63.697 98.9472 63.4194C104.075 62.8059 109.227 62.6041 114.391 62.5695C116.804 62.5537 119.217 62.384 121.627 62.2445C122.403 62.1995 123.181 61.8862 123.941 61.9397C126.47 62.1177 128.994 62.384 131.514 62.6659C132.355 62.7599 133.012 63.2023 133.029 64.1606C133.046 65.1105 132.558 65.7839 131.678 66.1152C130.111 66.7059 128.452 66.8372 126.848 66.5126C120.932 65.3181 114.951 64.921 108.947 65.1001C103.276 65.2689 97.6271 65.7942 92.3434 68.1606C91.5715 68.5059 90.7934 68.8566 90.0725 69.294C85.9695 71.7851 81.5027 73.0076 76.7309 73.2638C75.3327 73.339 73.944 73.5898 72.2926 73.7917Z" fill="#AC5129"/>
<path d="M73.3307 60.8034C77.6399 60.7301 81.9054 60.3038 86.0708 59.1446C89.3326 58.2367 92.5717 57.2666 95.4302 55.3528C96.0314 54.9503 96.6437 54.8096 97.4498 54.9972C100.867 55.7922 104.3 56.7455 107.853 56.3206C111.783 55.8506 115.711 55.3064 119.602 54.5845C122.4 54.065 125.133 53.1939 127.9 52.5012C128.201 52.426 128.536 52.4908 128.848 52.4908C129.869 55.3797 128.381 57.8344 127.717 60.5199C127.15 60.5758 126.645 60.6639 126.14 60.6693C122.998 60.7009 119.853 60.6297 116.715 60.7525C111.438 60.9588 106.164 61.2586 100.892 61.5683C95.0128 61.9131 89.4245 63.6803 83.7603 65.0959C81.566 65.6446 79.2893 65.8746 77.0422 66.193C75.562 66.4028 74.0675 66.5121 72.5786 66.6665C72.1711 66.5633 71.7629 66.4598 71.2578 66.3316C71.4037 65.8878 71.5067 65.5911 71.5991 65.2913C72.0321 63.8846 72.462 62.4771 72.8928 61.0695L72.8945 61.0726C73.0399 60.983 73.1853 60.893 73.3307 60.8034Z" fill="#539936"/>
<path d="M72.8891 61.0648C72.4582 62.4724 72.0283 63.8799 71.5949 65.2865C71.503 65.5863 71.4 65.8831 71.2541 66.3269C71.7587 66.4551 72.1669 66.5586 72.5749 66.6618C71.2581 66.9003 69.9415 67.1388 68.625 67.3774C66.61 67.7425 64.769 68.3758 63.3348 69.9999C62.1849 71.3021 61.8549 72.6036 63.3596 74.5094C64.6988 76.2055 66.548 77.1414 68.5731 77.7747C68.9966 77.9074 69.4091 78.0761 69.8267 78.2279C69.5437 79.2461 69.1939 80.2513 68.9926 81.2853C68.6766 82.9107 68.4607 84.5551 68.2021 86.1917C65.7363 85.6817 63.2745 85.1502 60.8033 84.6675C58.4082 84.199 56.1486 82.3382 55.9544 78.6757C55.7043 73.9661 56.9422 69.5462 58.1296 65.1015C58.6926 62.993 59.4327 60.9314 60.1601 58.6367C64.3431 60.7271 68.6398 60.7563 72.8891 61.0648Z" fill="#376623"/>
<path d="M129.518 33.5702C124.751 32.9666 120.177 32.2265 115.559 32.5115C110.972 32.7943 106.263 32.4368 101.897 34.3626C99.1609 35.5698 96.4608 36.8572 93.8375 38.0653C91.6557 37.2055 89.4447 36.3342 87.125 35.4204C92.4938 32.7505 97.9063 30.4928 103.737 29.7819C107.919 29.2719 112.154 28.9389 116.426 29.5439C119.066 29.9179 121.747 30.0278 124.286 30.8932C125.821 31.4165 127.285 32.1518 128.761 32.837C129.061 32.977 129.268 33.3204 129.518 33.5702Z" fill="#539936"/>
<path d="M104.812 28.1807C103.623 28.3982 102.44 28.661 101.244 28.8258C97.6829 29.316 94.379 30.6326 91.0989 31.9951C88.894 32.9112 86.7864 34.0635 84.5744 34.9615C83.8367 35.2609 82.9121 35.1194 82.0719 35.1425C81.1845 35.1673 80.2959 35.148 79.4078 35.148C79.384 35.0209 79.3597 34.8941 79.3359 34.7671C79.8373 34.5924 80.3383 34.4183 80.7079 34.2896C81.4343 33.6183 82.0254 32.9207 82.7542 32.4241C86.5514 29.8326 90.3845 27.2935 94.2025 24.7323C94.6319 24.4445 95.0835 24.1718 95.4561 23.8194C96.4114 22.9151 97.6028 22.7494 98.7431 23.0428C100.773 23.5651 102.749 24.2983 104.747 24.943C104.641 25.8252 104.509 26.7052 104.449 27.5905C104.437 27.7779 104.684 27.9832 104.812 28.1807Z" fill="#376623"/>
<path d="M133.822 39.0957C133.423 38.9003 133.009 38.7285 132.626 38.505C131.255 37.703 129.783 37.188 128.198 37.1404C125.806 37.0687 123.403 36.9639 121.018 37.1008C118.234 37.2611 115.427 37.4788 112.697 38.0157C109.763 38.593 106.991 39.7323 104.488 41.4693C102.353 42.9507 100.131 44.3078 97.8225 45.8014C97.2153 45.0479 96.6603 44.3578 95.9141 43.4305C97.5601 42.3322 99.024 41.2749 100.566 40.3458C103.009 38.873 105.469 37.4176 107.991 36.0861C109.848 35.1052 111.938 34.8294 114.012 34.6326C117.649 34.2873 121.284 34.0493 124.91 34.7707C127.004 35.1872 129.107 35.5523 131.201 35.9673C132.889 36.3018 133.804 37.3254 133.841 39.0764L133.822 39.0957Z" fill="#539936"/>
<path d="M59.4414 100.993C60.049 99.8018 61.3437 100.159 62.2091 100.069C66.4085 99.6293 70.634 99.3656 74.8562 99.2315C78.4736 99.1167 81.9057 100.138 85.2584 101.438C85.962 101.71 86.7537 101.756 87.5046 101.906L87.4605 101.889C87.6179 102.031 87.7751 102.172 87.9321 102.314C88.354 102.711 88.7757 103.108 89.1975 103.506C84.7147 103.358 80.2309 103.22 75.7485 103.059C73.1528 102.965 70.5569 102.859 67.9629 102.713C65.0433 102.548 62.203 101.957 59.4414 100.993Z" fill="#9FABB8"/>
<path d="M115.43 86.2393C116.247 85.4926 116.961 84.6288 117.861 84.0549C122.037 81.3892 125.622 78.0563 128.909 74.3972C129.571 73.6604 129.947 72.6146 130.28 71.6514C130.595 70.7385 130.681 69.7465 130.904 68.6022C131.481 68.4351 132.143 68.243 133.142 67.9531C132.876 69.0545 132.705 69.9124 132.462 70.7489C131.344 74.5952 129.624 78.1869 127.597 81.6169C127.063 82.5217 126.086 83.2312 125.184 83.8418C122.648 85.5574 119.671 86.1547 116.774 86.9308C116.539 86.9938 116.256 86.9249 116.008 86.8686C115.906 86.8453 115.835 86.6909 115.43 86.2393Z" fill="#9FABB8"/>
<path d="M69.802 48.1588C67.5085 51.5888 67.6921 55.1471 69.2455 58.7793C69.3207 58.9544 69.3485 59.1519 69.3824 59.3419C69.3931 59.3997 69.3513 59.4671 69.2792 59.7228C66.2989 59.6688 63.5554 58.6023 60.6133 57.5424C61.64 55.1688 62.2688 52.8019 64.6677 51.434C66.4106 50.4401 67.9923 49.1626 69.6457 48.0117C69.6983 48.0607 69.7501 48.1093 69.802 48.1588Z" fill="#9FABB8"/>
<path d="M65.0454 49.3036C65.6203 47.3681 67.2187 46.1517 68.363 44.6174C68.9801 43.7898 69.6162 42.9373 70.3994 42.2814C71.3236 41.5076 72.3373 40.7223 73.449 40.3122C76.97 39.0126 80.6461 38.841 84.3571 39.2308C83.9395 40.1079 83.522 40.9851 83.1049 41.8624C82.4098 41.9809 81.7185 42.1695 81.019 42.2062C76.7014 42.4337 72.8098 43.803 69.328 46.3787C67.9385 47.4063 66.4707 48.3276 65.0391 49.2973L65.0454 49.3036Z" fill="#376623"/>
<path d="M85.9375 97.0622C90.7157 96.7063 95.0366 96.3844 99.5709 96.0469C99.2287 96.5011 99.0144 96.8602 98.7295 97.1502C97.0339 98.8733 95.348 100.608 93.6074 102.285C92.4308 103.419 91.53 103.43 90.4145 102.237C88.9539 100.675 87.6081 99.006 85.9375 97.0622Z" fill="#166C8F"/>
<path d="M46.3141 86.7589C46.0548 82.8971 48.7547 78.7051 52.4602 77.2348C52.9392 77.0449 53.4402 76.9103 53.9316 76.75C54.0929 79.1465 54.2545 81.543 54.4457 84.3794C54.1567 84.8894 53.1499 84.7904 52.3058 85.0343C50.3091 85.6106 48.3113 86.1841 46.3141 86.7589Z" fill="#9FABB8"/>
<path d="M130.703 51.5616C131.567 50.4453 132.236 49.5829 133.129 48.4297C134.476 52.8739 134.837 56.9931 134.236 61.3593C133.27 61.0234 132.397 60.7192 131.372 60.3618C131.143 57.341 130.908 54.2553 130.703 51.5616Z" fill="#9FABB8"/>
<path d="M107.241 34.471C103.232 36.9962 99.2914 39.4783 95.1038 42.1157C94.7171 41.7294 94.1549 41.1672 93.6211 40.6334C95.2424 37.9887 103.436 34.3661 107.241 34.471Z" fill="#539936"/>
<path d="M104.809 28.1816C104.681 27.9841 104.433 27.7788 104.446 27.5914C104.506 26.7061 104.637 25.8261 104.744 24.9439C107.771 24.7277 110.737 25.0334 113.583 26.1254C114.336 26.4148 115.012 26.9041 115.723 27.302C115.69 27.4717 115.657 27.6418 115.624 27.812C115.029 27.8945 114.436 28.0371 113.839 28.0493C110.83 28.1123 107.819 28.141 104.809 28.1816Z" fill="#539936"/>
<path d="M83.1094 41.862C83.527 40.985 83.9447 40.1077 84.3616 39.2305C86.8932 39.2731 89.2572 40.02 91.5587 40.9878C91.9455 41.1502 92.2429 41.5242 92.5818 41.8002C92.5679 41.9777 92.5545 42.1554 92.5406 42.3327C89.3972 42.1757 86.253 42.0189 83.1094 41.862Z" fill="#539936"/>
<path d="M77.1654 36.3695C80.1862 36.2799 83.041 36.5161 86.2704 37.3002C84.7759 38.3875 83.7037 37.313 82.6238 37.493C81.5438 37.6736 80.4064 37.4728 79.3012 37.5461C78.1529 37.6222 77.0124 37.8265 75.8686 37.975C75.7795 37.8409 75.6904 37.7073 75.6016 37.5732C76.0991 37.1904 76.5969 36.8069 77.1654 36.3695Z" fill="#376623"/>
<path d="M72.9609 48.6091C73.3583 47.6566 73.9075 46.8755 74.9646 47.0115C75.4451 47.0733 76.0803 47.5454 76.2618 47.9882C76.6587 48.9548 76.1392 49.7241 75.2698 50.3035C74.1349 50.3466 73.2431 50.0359 72.9609 48.6091Z" fill="#9FABB8"/>
<path d="M92.0741 39.1961C90.0377 39.224 88.1993 38.4705 86.3633 37.6971C88.4699 37.3811 90.3844 37.8016 92.0741 39.1961Z" fill="#4C7F37"/>
<path d="M76.1586 55.6006C75.8449 55.1846 75.5559 54.8002 75.0938 54.1862C75.461 53.7989 75.7589 53.4848 76.1037 53.1211C76.667 53.5489 77.0886 53.7098 77.2202 54.0012C77.5563 54.7457 77.1544 55.2206 76.1586 55.6006Z" fill="#9FABB8"/>
<path d="M120.371 27.0196C120.601 26.979 120.831 26.939 121.061 26.8984C121.388 27.177 121.716 27.4556 122.044 27.734C121.486 27.4957 120.929 27.2576 120.371 27.0196Z" fill="#9FABB8"/>
<path d="M92.5391 42.3291C92.5525 42.1516 92.5664 41.9744 92.5796 41.7969C92.8141 41.9748 93.0482 42.153 93.2822 42.3312C93.2501 42.4033 93.2174 42.4754 93.1853 42.5483C92.9694 42.475 92.7542 42.4024 92.5391 42.3291Z" fill="#4C7F37"/>
<path d="M133.844 39.0781C133.936 39.1403 134.029 39.2023 134.122 39.2646C134.023 39.2087 133.923 39.1533 133.824 39.0975L133.844 39.0781Z" fill="#539936"/>
<path d="M65.0432 49.2969L64.8789 49.5764C64.9357 49.4854 64.9927 49.3942 65.0495 49.3032L65.0432 49.2969Z" fill="#376623"/>
<path d="M69.6445 48.0108C69.7666 47.9474 69.8889 47.8837 70.011 47.8203C69.9413 47.9325 69.871 48.0449 69.8008 48.1578C69.7489 48.1083 69.6969 48.0593 69.6445 48.0108Z" fill="#9FABB8"/>
<path d="M39.4206 53.5835C38.1229 53.4461 37.4674 54.5557 36.6446 55.176C34.1729 57.0404 31.8169 59.0638 29.4883 61.1079C28.6367 61.8551 27.9891 62.8342 26.9141 63.6025V45.7712C27.1856 45.1167 27.4573 44.4619 27.7293 43.8074C28.0659 43.6542 28.4814 43.58 28.7254 43.3351C29.9799 42.0734 31.1902 40.7672 32.4161 39.4771C32.5492 39.4789 32.6826 39.4811 32.8158 39.483C32.5997 40.1469 32.4835 40.8672 32.145 41.4609C31.6036 42.4119 30.8037 43.2232 30.3165 44.1949C29.7287 45.368 28.6794 46.4149 28.9742 48.134C29.4982 47.6235 29.9715 47.278 30.2951 46.8259C31.3064 45.4116 32.2742 43.9649 33.2349 42.5154C35.3144 39.3762 37.4936 36.3247 40.2799 33.7469C40.8602 33.2098 41.2526 32.4702 41.7928 31.7409C41.4247 31.678 41.2387 31.6459 41.0532 31.6141C41.5911 30.8656 42.1292 30.117 42.6675 29.3685L43.7946 28.4865C44.0425 28.4266 44.3357 28.4321 44.5318 28.297C47.1266 26.5105 49.1863 24.163 51.0944 21.712C53.2772 18.9087 55.9141 16.7061 58.897 14.8114C62.1925 12.7187 65.9421 11.8374 69.5442 10.5744C70.7243 10.1602 72.0734 10.2272 73.3447 10.0742C70.935 11.5925 68.3652 12.912 66.1601 14.6846C63.9467 16.4643 61.998 18.6084 60.112 20.7497C57.7923 23.3842 55.5106 26.077 53.4742 28.9312C49.6256 34.3258 45.6747 39.6755 42.8803 45.7366C41.6835 48.3325 40.5712 50.9668 39.4206 53.5835Z" fill="#75B5FC"/>
<path d="M73.3473 10.0755C72.0757 10.2283 70.7266 10.1615 69.5465 10.5757C65.9444 11.8387 62.1948 12.7198 58.8993 14.8125C55.9166 16.7074 53.2795 18.91 51.0967 21.7133C49.1881 24.164 47.1284 26.5118 44.5341 28.2981C44.3383 28.4331 44.0448 28.4277 43.7969 28.4876C45.4924 21.5019 49.4745 15.9593 54.89 11.426C56.1302 10.3885 57.8491 9.73165 59.4549 9.35501C64.6507 8.13695 69.9255 7.34503 75.2835 7.33206C76.5077 7.32924 77.7321 7.50718 79.0595 7.61018C78.1264 8.75895 78.1264 8.75894 73.6999 9.99091C73.6218 9.90865 73.5441 9.82616 73.4658 9.7439C73.4208 9.85091 73.3765 9.95767 73.3319 10.0644L73.3473 10.0755Z" fill="#94C6FA"/>
<path d="M32.8177 39.485C32.6848 39.4831 32.5511 39.481 32.418 39.4791C32.9242 37.4274 33.3065 35.3347 33.9681 33.3339C34.7956 30.8301 35.8812 28.4122 36.8004 25.9367C37.356 24.4396 37.8068 22.9038 38.3044 21.3855L38.2921 21.4072C38.4317 21.2629 38.5707 21.1189 38.7095 20.9749C41.1353 19.0745 43.8252 17.6971 46.8277 16.8008C44.9672 20.0071 43.9148 23.4381 42.8997 26.8771C42.6666 27.6671 42.0401 28.4786 42.6694 29.3705C42.1313 30.119 41.593 30.8676 41.0547 31.6162C37.9447 33.8578 35.3712 36.6604 32.8177 39.485Z" fill="#3FB1E3"/>
<path d="M96.8164 107.731C96.947 104.752 98.7651 102.898 101.08 101.394C103.55 99.7883 106.314 98.9038 109.134 98.1576C113.722 96.944 118.358 96.1179 123.131 96.4108C123.634 96.4415 124.411 96.1214 124.417 97.1158C123.6 98.509 122.142 99.0122 120.779 99.5069C119.267 100.056 117.656 100.588 116.076 100.63C113.155 100.708 110.66 101.926 108.108 103.039C105.006 104.393 101.948 105.849 98.8511 107.214C98.2195 107.492 97.4971 107.564 96.8164 107.731Z" fill="#9FABB8"/>
<path d="M56.0001 106.543C55.3694 106.469 54.7385 106.395 54.1077 106.321C50.9028 106.074 48.2802 104.543 45.8564 102.578C45.2832 102.114 44.8535 101.568 44.9789 100.762C46.4946 101.051 48.0146 101.322 49.5259 101.632C54.3818 102.63 59.2159 103.749 64.0966 104.602C66.4432 105.012 68.8757 104.937 71.2701 105.067C72.3734 105.127 73.4783 105.152 74.5826 105.193C73.7112 105.4 72.8483 105.736 71.9678 105.793C66.9115 106.119 61.878 106.912 56.7878 106.565C56.5255 106.558 56.2629 106.55 56.0001 106.543Z" fill="#3FB1E3"/>
<path d="M38.2997 21.3867C37.8019 22.905 37.3513 24.4406 36.7958 25.9372C35.8766 28.4129 34.791 30.8311 33.9632 33.3351C33.3019 35.3359 32.9193 37.4286 32.4133 39.4803C31.1875 40.7705 29.9772 42.0763 28.7226 43.3381C28.4787 43.583 28.0631 43.6573 27.7266 43.8107C28.8958 40.531 29.9489 37.2045 31.2664 33.9856C32.6398 30.6299 34.2764 27.382 35.7696 24.0746C35.9211 23.7392 35.8789 23.3161 35.9265 22.9343L38.2997 21.3867Z" fill="#94C6FA"/>
<path d="M14.2285 87.4144C14.3779 87.3946 14.5278 87.3753 14.6772 87.3555C14.5596 89.335 14.4418 91.3139 14.3244 93.2935C14.2146 93.2973 14.1055 93.2963 13.9961 93.2904C14.0732 91.3318 14.1509 89.373 14.2285 87.4144Z" fill="#94C6FA"/>
<path d="M13.9961 93.2852C14.1055 93.291 14.2148 93.292 14.3246 93.288C14.2184 94.0545 14.1123 94.8207 14.006 95.5872C14.0025 94.8197 13.9996 94.0523 13.9961 93.2852Z" fill="#75B5FC"/>
<path d="M73.3281 10.0666C73.3727 9.95963 73.4177 9.85286 73.4622 9.74609C73.5402 9.82859 73.6185 9.91084 73.696 9.99286C73.5834 10.0657 73.4606 10.0904 73.3281 10.0666Z" fill="#75B5FC"/>
<path d="M124.348 104.866C125.277 102.249 127.736 102.986 129.447 101.973V106.96C127.42 107.017 125.858 106.214 124.348 104.866Z" fill="#3FB1E3"/>
<path d="M32.8146 39.486C35.3681 36.6615 37.9416 33.8589 41.0516 31.6172C41.2376 31.649 41.4238 31.6811 41.7912 31.744C41.2515 32.4732 40.8593 33.2128 40.2788 33.75C37.4924 36.3277 35.3132 39.3792 33.2332 42.5184C32.273 43.9679 31.3052 45.4146 30.2939 46.829C29.9705 47.2811 29.497 47.6266 28.9731 48.1371C28.6782 46.418 29.7275 45.371 30.3153 44.198C30.8025 43.2262 31.6027 42.415 32.1438 41.4639C32.4823 40.8702 32.5985 40.15 32.8146 39.486Z" fill="#94C6FA"/>
</g>
<defs>
<clipPath id="clip0_1054_6928">
<rect width="150" height="110" fill="white"/>
</clipPath>
</defs>
</svg>
