<svg width="150" height="110" viewBox="0 0 150 110" fill="none" xmlns="http://www.w3.org/2000/svg">
<path d="M74.3599 95.2937C73.6499 95.4854 73.1583 95.6184 72.4689 95.8044C73.1927 96.3188 73.7522 96.7158 74.6091 97.324C74.4996 96.4331 74.4438 95.9775 74.3599 95.2937ZM80.4467 58.8463C80.4532 57.7151 79.9331 57.091 78.9769 57.0826C77.8956 57.0735 77.106 57.7931 77.1431 58.7547C77.1824 59.7688 77.8085 60.3918 78.8034 60.4079C79.9008 60.4252 80.4403 59.9127 80.4467 58.8463ZM79.174 54.5703C79.1932 53.4675 78.5864 52.7683 77.5719 52.7249C76.6211 52.6839 75.8259 53.4518 75.7932 54.442C75.7607 55.4279 76.5144 56.2722 77.4404 56.2879C78.4613 56.3054 79.1551 55.6176 79.174 54.5703ZM114.614 43.4549C114.65 44.6118 115.566 45.4208 116.816 45.3979C118.215 45.3726 119.171 44.5457 119.149 43.3815C119.124 42.0948 118.25 41.3353 116.852 41.3826C115.459 41.4299 114.577 42.2469 114.614 43.4549ZM75.799 46.9711C74.5309 46.9581 73.4498 48.0084 73.4731 49.231C73.4944 50.362 74.5524 51.3219 75.7678 51.3129C77.3022 51.3015 78.2448 50.5477 78.2772 49.3049C78.3095 48.0727 77.1543 46.9845 75.799 46.9711ZM83.4709 54.9663C85.1758 54.9677 86.2466 53.7578 86.2244 51.8563C86.2092 50.5477 84.7561 49.2012 83.3938 49.233C82.0801 49.2635 80.768 50.563 80.7484 51.8536C80.7194 53.7865 81.7501 54.9654 83.4709 54.9663ZM123.016 49.6582C124.574 49.6801 125.917 48.3292 125.938 46.7194C125.959 45.1166 124.657 43.7005 123.121 43.6559C121.557 43.6107 120.065 45.1027 120.082 46.6973C120.097 48.2544 121.467 49.6369 123.016 49.6582ZM64.0051 65.7886C60.4409 69.7413 64.2029 75.4189 68.8947 76.5715C69.2002 74.3946 66.75 68.9453 64.0051 65.7886ZM44.594 54.3085C44.6489 54.4043 44.7038 54.4998 44.7587 54.5955C45.4472 54.3542 46.1506 54.146 46.8221 53.8656C50.7915 52.2067 54.7875 50.5968 58.1989 47.922C59.9229 46.5702 61.6524 45.2239 63.4198 43.9272C68.376 40.2887 73.8811 38.1625 80.1783 38.2703C80.6993 38.2794 81.2204 38.2716 81.7419 38.2716C80.6024 37.7491 79.4366 37.4431 78.2515 37.3382C71.5592 36.7466 65.4337 38.5654 60.0493 42.2398C54.8932 45.7583 50.0997 49.7799 45.1562 53.5921C44.9217 53.7731 44.7792 54.0673 44.594 54.3085ZM116.92 28.5506C115.555 26.6533 114.078 25.4539 112.364 24.747C107.028 22.5464 101.504 22.458 95.9414 23.8636C92.1226 24.8282 88.9581 27.0558 85.7015 29.0792C84.1229 30.0594 82.418 30.6238 80.5887 30.835C79.4342 30.968 78.2635 30.966 76.8874 31.0351C78.2076 32.5492 79.7362 33.4935 81.1732 34.5647C82.4909 35.5472 83.7782 35.6159 85.211 35.0397C87.5073 34.1163 89.8112 33.2104 92.09 32.2479C96.2226 30.5028 100.479 29.1809 104.995 28.89C108.251 28.6799 111.519 28.654 114.782 28.5526C115.373 28.5344 115.964 28.5506 116.92 28.5506ZM130.995 34.4276C131.372 34.5267 131.748 34.6259 132.124 34.725C132.157 34.6081 132.191 34.4915 132.225 34.3746C131.814 34.1754 131.402 33.976 130.991 33.7768C128.87 32.6104 126.69 31.5506 124.285 31.0945C122.121 30.6838 119.932 30.3773 117.743 30.1147C113.264 29.5779 108.754 29.5833 104.321 30.2934C97.9592 31.3118 91.8952 33.3564 86.1104 36.1454C85.7027 36.3419 85.3392 36.6256 84.6171 37.0827C87.1084 38.1152 89.2171 39.039 91.3741 39.8396C91.7889 39.9936 92.448 39.7666 92.9008 39.5397C95.1665 38.4028 97.3644 37.1352 99.6539 36.0488C103.738 34.1113 108.066 33.15 112.63 33.0852C117.735 33.0126 122.823 33.109 127.884 33.8173C128.144 33.8935 128.404 33.9699 128.664 34.0461C129.441 34.1729 130.218 34.3003 130.995 34.4276ZM112.552 39.4797C112.346 39.5572 112.12 39.6045 111.936 39.7166C107.809 42.2394 103.685 44.7658 99.5686 47.3033C99.2064 47.5268 98.8983 47.8333 98.5651 48.1009C98.6643 48.138 98.7638 48.1753 98.8635 48.2123C98.5102 50.1473 98.1566 52.0827 97.7927 54.0759C100.036 55.7137 109.587 56.9052 112.569 55.8206C112.04 55.4698 111.525 55.1608 111.046 54.8058C109.321 53.5282 108.36 51.8979 108.272 49.7203C108.107 45.6248 109.621 42.3651 113.039 39.9558C113.725 39.5624 114.607 39.4476 115.184 38.5681C114.039 38.5086 113.278 38.9451 112.552 39.4797ZM71.1757 46.5268C70.3884 47.1216 69.5864 47.6985 68.8171 48.314C64.9648 51.3963 61.0937 54.4491 56.4816 56.4418C56.1703 56.5762 55.9122 56.8265 55.5827 57.0553C59.414 59.4693 69.2994 61.8352 71.2825 60.8688C71.2923 60.764 71.3404 60.6435 71.3037 60.5571C71.2217 60.3606 71.1113 60.1715 70.9877 59.9962C69.4762 57.857 68.9802 55.5041 69.2574 52.9313C69.5012 50.6685 70.3448 48.6687 71.6919 46.8415C71.6498 46.6737 71.6078 46.5059 71.5655 46.3381C71.4354 46.4013 71.3056 46.4638 71.1757 46.5268ZM62.4289 94.4809C64.9031 94.1344 67.368 94.0025 69.8106 94.7103C70.2303 94.8317 70.6792 94.8815 71.1185 94.9147C73.1789 95.0689 74.2277 94.0577 74.3286 92.0693C74.4893 88.8965 73.6516 85.5761 75.8675 82.6125C74.1229 81.5618 72.4915 80.5788 70.7724 79.5429C70.6236 80.7462 70.4223 81.8005 70.3772 82.8608C70.2607 85.5804 69.1953 87.881 67.2257 89.7726C65.6119 91.3219 63.9281 92.8026 62.2755 94.3138C62.1293 94.3847 61.9828 94.4556 61.8369 94.5264C61.8703 94.5902 61.9044 94.6539 61.9378 94.7173C62.1017 94.6387 62.2654 94.5595 62.4289 94.4809ZM54.6749 65.1492C56.9952 64.4453 59.3197 63.7506 61.2939 61.6694H54.6793C54.5705 61.6747 54.4614 61.6799 54.3526 61.6851C53.9016 61.7438 53.4509 61.8027 52.9999 61.8613C51.7399 62.0103 50.4283 61.9934 49.2309 62.3438C47.0173 62.9907 44.8565 63.8184 42.7074 64.6526C42.2448 64.8327 41.9236 65.3582 41.5369 65.7247C41.6062 65.8639 41.6754 66.0026 41.745 66.1417C45.2996 66.3059 48.8516 66.3668 52.3868 65.6808C53.041 65.5221 53.6947 65.3639 54.3484 65.2056C54.4575 65.1865 54.5663 65.1679 54.6749 65.1492ZM104.986 35.9344C103.79 36.2957 102.525 36.5206 101.41 37.0456C99.0046 38.1791 96.6764 39.4672 94.1949 40.7544C95.0049 41.4522 95.6011 41.9651 96.1735 42.4581C99.1774 40.384 102.094 38.3708 105.01 36.3576C105.297 36.2189 105.585 36.0802 105.872 35.9415C105.838 35.8596 105.804 35.778 105.77 35.6964C105.508 35.7757 105.247 35.8548 104.986 35.9344ZM116.673 50.2637C116.562 50.7981 116.398 51.3281 116.352 51.8677C116.286 52.6448 116.605 53.2603 117.437 53.4566C118.094 53.6116 118.648 53.3936 118.962 52.7774C119.575 51.5775 118.736 50.3399 117.363 50.3851C117.122 50.3929 116.879 50.329 116.637 50.2976C116.838 50.1187 117.065 49.96 117.235 49.7565C117.88 48.9895 117.833 48.2285 117.129 47.6489C116.443 47.0832 115.536 47.1073 114.899 47.7342C114.341 48.2844 114.185 48.9456 114.543 49.646C115.013 50.5664 115.823 50.5143 116.673 50.2637ZM74.6591 44.5479C73.7485 45.0322 72.8381 45.5166 71.9275 46.0009C72.0611 46.1191 72.1947 46.2373 72.3281 46.3551C73.1945 45.8647 74.0608 45.374 74.927 44.8831C76.0658 44.6105 77.2043 44.3378 78.3431 44.0654C79.3548 44.0593 80.3668 44.0466 81.3785 44.0497C81.921 44.0511 82.4636 44.0793 83.0061 44.0954C88.1512 45.4142 91.4412 49.656 91.3216 54.8076C91.3059 55.4779 91.3192 56.1496 91.3192 56.8574C95.3809 55.8358 97.2507 53.407 97.3726 49.4581C97.4417 47.2119 96.4026 45.7469 94.4285 44.8478C93.6444 44.4906 92.7521 44.2523 91.8896 44.1814C88.966 43.9397 86.034 43.7971 83.1054 43.6164C81.517 43.6632 79.9286 43.7103 78.3403 43.7571C77.1132 44.0206 75.8862 44.2844 74.6591 44.5479ZM118.651 37.7796C118.317 37.8326 117.983 37.8851 117.65 37.9381C116.823 37.8955 116.065 38.0638 115.365 38.4037C115.4 38.5306 115.434 38.6577 115.469 38.7846C116.201 38.6177 116.933 38.4508 117.666 38.2837C118 38.2707 118.335 38.2578 118.67 38.245C119.132 38.1939 119.592 38.1429 120.053 38.0915C121.204 38.1629 122.363 38.1682 123.503 38.3164C128.177 38.9256 132.784 44.8349 130.029 49.9129C129.67 50.5746 129.283 51.2214 128.909 51.8749C128.669 51.9713 128.43 52.0684 128.19 52.1648C128.311 52.2953 128.431 52.4256 128.551 52.5566C128.697 52.4684 128.843 52.3802 128.989 52.2924C131.035 51.4911 133.101 50.7333 135.117 49.867C135.862 49.5468 136.526 49.0136 137.167 48.5061C138.896 47.1373 139.326 45.3888 138.839 43.2928C138.326 41.0884 136.68 40.1479 134.724 39.5192C129.942 37.9833 125.035 37.3444 120.003 37.6825C119.552 37.7148 119.102 37.7473 118.651 37.7796ZM130.332 37.0108C130.678 37.0361 131.023 37.0613 131.368 37.0861C133.28 37.8191 135.192 38.552 137.402 39.4001C136.403 37.8917 133.881 36.7248 131.333 36.3614C131.144 36.331 130.955 36.3 130.765 36.2691C130.401 36.1827 130.036 36.0959 129.672 36.0088C128.16 35.7741 126.648 35.5392 125.137 35.3041C124.871 35.2275 124.605 35.1506 124.34 35.0738C120.953 34.4246 117.541 34.2646 114.127 34.7598C112.665 34.9724 111.229 35.3953 109.8 35.7866C107.415 36.4396 105.461 37.8521 103.474 39.2232C101.324 40.7075 99.1036 42.0952 96.7999 43.5993C97.2149 44.58 97.5998 45.4909 98.027 46.5015C98.7022 46.1978 99.1732 46.0434 99.5819 45.793C102.2 44.1889 104.858 42.6393 107.399 40.9269C110.829 38.6163 114.551 37.1156 118.681 36.5708C118.822 36.5117 118.963 36.4526 119.103 36.3935C119.627 36.3714 120.15 36.3496 120.674 36.3276C121.894 36.3296 123.113 36.3319 124.333 36.3339C124.755 36.3505 125.177 36.3667 125.598 36.383C125.836 36.4397 126.074 36.4965 126.312 36.5536C127.428 36.6809 128.543 36.8087 129.659 36.936C129.883 36.9613 130.108 36.986 130.332 37.0108ZM95.3185 56.394C95.305 56.5048 95.2917 56.6162 95.2781 56.7269C94.9647 56.8461 94.6513 56.9648 94.3378 57.0835C92.3352 57.8386 90.3115 58.545 88.3343 59.3588C84.5935 60.8991 80.686 61.7722 76.677 62.2824C75.5713 62.3143 74.4657 62.3459 73.3601 62.3777C72.6845 62.3768 72.0088 62.3759 71.3338 62.3752C68.5808 62.063 65.8284 61.7508 62.9728 61.427C63.397 62.3525 63.8846 63.0589 65.0185 62.9941C65.2373 62.9803 65.4555 62.9664 65.6743 62.9525C66.8974 63.0671 68.1205 63.1824 69.3436 63.2972C69.6663 63.3989 69.9888 63.5012 70.3116 63.6033C70.5452 63.6976 70.7787 63.7924 71.0123 63.8866C71.194 63.917 71.3757 63.9475 71.5574 63.978C71.8133 64.0833 72.0688 64.1879 72.3246 64.2931C74.2728 65.033 76.1755 65.9316 78.1796 66.4782C81.6777 67.4316 85.2159 68.2759 88.7775 68.9705C94.0298 69.9944 99.3416 70.6499 104.711 70.6699C106.364 70.6758 108.018 70.5033 109.672 70.4125C110.667 70.3825 111.661 70.3521 112.656 70.322C114.459 70.1374 116.26 69.9144 118.066 69.7766C122.002 69.4757 125.585 68.2122 128.866 66.1099C130.048 65.3527 130.194 65.0774 129.751 63.704C129.154 61.8586 129.294 60.1201 130.162 58.4011C130.302 58.123 130.317 57.7847 130.39 57.4743C130.43 57.3986 130.471 57.3231 130.512 57.2474C130.439 57.2922 130.366 57.3365 130.294 57.3813C129.064 57.6635 127.841 57.9768 126.602 58.2165C125.791 58.3738 124.927 58.6565 124.031 57.89C125.034 57.5018 125.87 57.0439 126.766 56.8545C130.198 56.1289 132.86 54.1883 135.33 51.9102C135.409 51.7276 135.488 51.545 135.568 51.3624C135.355 51.4215 135.142 51.4811 134.929 51.5402C134.612 51.6228 134.282 51.6785 133.977 51.7919C131.501 52.7087 129.081 53.8133 126.543 54.5191C122.941 55.5211 119.275 56.334 115.598 57.0371C112.103 57.7051 108.556 57.6417 105.031 57.1005C102.594 56.7262 100.161 56.3317 97.7355 55.9479C95.6658 58.7519 95.7197 58.8538 92.6203 60.4079C90.875 61.2831 88.92 61.7661 87.0526 62.4064C86.3311 62.6537 86.039 62.3261 86.0247 61.503C88.9504 60.5519 92.0488 59.9666 94.3495 57.7665C94.6879 57.4429 95.0263 57.1196 95.3648 56.7965C95.5028 56.6819 95.6413 56.5666 95.7798 56.4518C95.8003 56.364 95.8211 56.2758 95.8417 56.188C95.6672 56.2567 95.4925 56.3254 95.3185 56.394ZM72.3554 29.5183L72.3631 29.5231C72.1345 29.4196 71.9063 29.3157 71.6776 29.2122C71.595 29.1784 71.5088 29.1652 71.4196 29.1736C71.0769 29.0374 70.7346 28.901 70.392 28.7648C70.1822 28.6831 69.9718 28.6013 69.7618 28.5196C69.5119 28.4196 69.2618 28.3196 69.0117 28.2197C65.1497 26.6863 61.1495 26.5099 57.1005 27.1963C50.961 28.2375 45.8197 31.1625 41.2566 35.2107C39.2551 36.986 37.0712 38.5672 34.98 40.248C33.9141 41.1043 32.7277 41.8685 31.8437 42.8794C29.732 45.2944 27.5408 47.7171 27.1431 51.0689C27.0163 52.1376 27.0707 53.226 26.9742 54.2999C26.847 55.721 26.6526 57.1369 26.4871 58.555C26.3722 58.5589 26.2575 58.5625 26.1428 58.5664C25.9798 58.1851 25.8168 57.8038 25.6538 57.4227C25.5779 57.1683 25.502 56.9143 25.4265 56.6601C25.4632 56.5905 25.4608 56.5218 25.4202 56.4541C25.4123 55.6594 25.4162 54.8643 25.3917 54.0703C25.3667 53.2622 25.313 52.4545 25.2567 51.3492C24.7558 51.8054 24.532 52.0093 24.3083 52.2133C20.8366 54.9993 18.3395 58.5077 17.0879 62.6599C15.4412 68.1219 14.1595 73.6886 12.7428 79.2155C12.313 80.8921 12.566 82.4003 14.0864 83.5277C16.8574 85.5818 19.5278 87.7798 22.4093 89.6748C26.466 92.3431 30.9541 94.1912 35.6536 95.5411C36.2683 95.7176 36.8005 95.8015 37.3288 95.2815C38.9564 93.6787 40.6216 92.1118 42.2791 90.5243C42.2791 90.4899 42.3001 90.4238 42.2756 90.3851C42.1889 90.2487 42.092 90.1168 41.9902 89.9904C38.9401 86.2139 37.3891 81.9165 37.411 77.1213C37.4271 73.5378 38.2189 70.0799 39.4553 66.7095C40.1071 64.9327 41.2587 63.6442 43.0645 62.9259C43.6281 62.702 44.1804 62.4502 44.7503 62.2438C48.3128 60.9514 51.9872 60.2722 55.7987 60.3354C57.0169 60.3554 58.2356 60.3384 59.4542 60.3384C58.2178 59.5385 56.8723 59.151 55.7177 58.4611C54.5642 57.7726 52.9826 57.9582 51.9417 56.8956C52.2105 56.6523 52.2829 56.5275 52.3695 56.5171C55.4993 56.131 58.1356 54.6369 60.5808 52.8574C63.8159 50.5034 66.9006 47.954 70.1147 45.5713C72.0625 44.1266 74.2053 42.8903 76.6793 42.6216C79.2044 42.3474 81.7634 42.3037 84.3086 42.2869C86.1882 42.2746 88.0769 42.3972 89.9467 42.5938C91.3071 42.7369 92.6458 43.0873 93.9892 43.3701C94.3888 43.4545 94.7692 43.625 95.1585 43.7557C92.6717 40.9556 89.3259 40.2096 85.8089 39.8662C84.7624 39.7666 83.7156 39.6675 82.6686 39.5679C81.1861 38.9647 79.6692 39.3662 78.2429 39.6398C73.6719 40.517 69.1703 41.6664 65.3868 44.5275C63.5079 45.9481 61.6703 47.4211 59.8204 48.8774C56.6848 51.3458 53.0816 52.9904 49.4067 54.5191C48.1157 55.0564 46.8627 55.6801 45.5719 56.2735C46.1065 57.49 48.0627 56.9732 47.9438 58.6919C45.6996 58.8338 44.1739 57.6678 42.5573 56.3215C42.8641 55.9859 43.1042 55.7233 43.3445 55.4602C43.7026 55.2442 44.0608 55.028 44.4193 54.812C44.3712 54.7133 44.3233 54.6141 44.2752 54.5155C43.8586 54.5377 43.4424 54.5593 43.0258 54.5816C42.2487 53.7999 43.0542 53.4031 43.4996 53.0318C46.944 50.1603 50.372 47.2671 53.8934 44.4865C58.0006 41.2435 62.5527 38.7189 67.5256 36.9287C70.6496 35.8037 73.8468 35.4462 77.1471 35.9276C78.3692 36.1059 79.6021 36.2136 80.8301 36.3535C80.8717 36.2509 80.9133 36.1479 80.9548 36.0454C80.4737 35.7284 80.0183 35.3628 79.5066 35.1024C77.1328 33.8926 74.5949 33.139 71.9504 32.7896C69.8772 32.5153 67.7837 32.2557 65.6976 32.24C64.0553 32.2275 62.4058 32.5717 60.7665 32.8034C58.3551 33.1443 56.0033 33.7116 53.7661 34.6807C51.2924 35.7527 49.2795 37.4087 47.4389 39.308C46.9982 39.7628 46.6658 40.4722 45.8496 40.4874C45.783 40.2723 45.7066 40.1605 45.73 40.0745C45.7996 39.8176 45.8813 39.5568 46.0058 39.3214C46.8877 37.6566 48.2311 36.4067 49.7741 35.3214C53.4326 32.7486 57.6627 31.785 62.0137 31.1459C62.1244 31.1349 62.2351 31.1245 62.346 31.1138C62.9077 31.0406 63.4694 30.9676 64.031 30.8941C66.1276 30.9012 68.2242 30.9076 70.3209 30.9142C70.5515 30.9799 70.7822 31.0454 71.0132 31.1111C71.1239 31.1254 71.2346 31.1402 71.3448 31.1545C71.6337 31.182 71.9222 31.2093 72.2113 31.2368C72.4787 31.3307 72.7461 31.4251 73.0135 31.5192L73.1242 31.5533L73.2401 31.5433C73.4967 31.6288 73.7539 31.7145 74.0108 31.8002C74.1117 31.8428 74.217 31.8637 74.3268 31.8637L74.9403 31.9349C74.8565 31.7823 74.7721 31.6293 74.6876 31.4767C74.0535 30.9212 73.4194 30.3655 72.7853 29.81C72.6422 29.7125 72.4988 29.6156 72.3554 29.5183ZM59.7314 92.4397C59.8265 92.5432 59.9218 92.6462 60.0173 92.7496C60.8693 93.6478 60.8693 93.6478 61.9999 92.7292L65.7133 89.2123C67.272 88.1332 68.4411 86.7303 68.829 84.9083C69.1502 83.4019 69.295 81.836 69.2849 80.298C69.2805 79.5715 68.9099 78.6791 68.3897 78.1609C67.481 77.2552 66.3621 76.5235 65.0332 76.2232C64.9426 76.197 64.8496 76.1875 64.7555 76.1932C64.4902 75.8066 64.2777 75.3712 63.9521 75.0415C61.1724 72.2288 60.6378 69.3352 62.2706 65.7474C62.4268 65.4034 62.5758 65.0539 62.7661 64.7274C63.2036 63.9771 62.9768 63.412 62.2344 62.8702C61.3903 63.4402 60.6133 64.1667 59.6868 64.5492C57.6141 65.4048 55.4666 66.089 53.3495 66.8429C52.9116 66.8798 52.469 66.8921 52.0356 66.9573C48.2694 67.5251 44.4952 67.7807 40.5976 67.2559C39.2091 70.8598 38.6572 74.6008 38.7121 78.4433C38.7693 79.0229 38.7184 79.6372 38.9025 80.1759C39.6531 82.3789 40.4429 84.5709 41.2968 86.7382C41.4759 87.1925 41.9876 87.5229 42.3457 87.9106C42.7672 88.5702 43.1888 89.23 43.6696 89.9822C44.7734 89.5438 45.758 89.1534 46.7427 88.7628C49.154 88.8321 51.5647 88.9017 53.9761 88.9713C54.2919 89.0641 54.6074 89.1562 54.9231 89.2482C55.1693 89.3626 55.4157 89.477 55.6621 89.5914C56.437 90.0061 57.2122 90.4208 57.9873 90.8356C58.1083 90.9352 58.2292 91.0343 58.35 91.1337L58.3638 91.1459C58.4721 91.2355 58.5803 91.3251 58.6884 91.4147L58.7164 91.4568C58.8211 91.5559 58.925 91.6546 59.0296 91.7537C59.1522 91.874 59.2755 91.995 59.3989 92.1155C59.4948 92.2089 59.5908 92.3028 59.6873 92.3967L59.7314 92.4397ZM107.672 109.633H106.339C105.129 107.107 105.849 104.511 106.14 101.855C104.221 101.734 102.304 101.962 100.674 100.847C100.787 100.529 100.899 100.211 101.011 99.894C101.786 100.147 102.561 100.401 103.336 100.653C104.292 101.58 105.951 101.348 106.656 100.189C107.696 99.1194 107.803 97.7983 107.727 96.4275C107.839 95.7501 107.951 95.0725 108.064 94.3952C108.435 94.3856 108.807 94.3765 109.179 94.367V96.2872C110.367 95.4697 111.459 94.718 112.551 93.967C112.526 93.8704 112.5 93.7744 112.474 93.6778C111.407 93.7501 110.341 93.8226 109.274 93.8947C108.434 93.203 108.446 93.11 109.427 92.7339C110.187 92.6405 110.948 92.5561 111.706 92.4518C114.781 92.0297 117.636 91.0006 120.31 89.4788C120.491 89.344 120.671 89.2091 120.852 89.0743C120.808 88.9897 120.764 88.9049 120.721 88.8201C120.359 88.9417 119.996 89.0641 119.634 89.1862C118.13 89.4245 116.626 89.6625 115.122 89.9008C114.868 89.9681 114.614 90.0357 114.359 90.1034C112.729 90.2603 111.098 90.4172 109.436 90.5777C109.381 91.1694 109.337 91.6446 109.292 92.1202C109.088 91.9383 108.849 91.7815 108.688 91.5684C108.519 91.3433 108.424 91.0641 108.297 90.8085C108.269 89.7282 108.242 88.648 108.215 87.5677C108.211 87.3628 108.207 87.1584 108.202 86.9538C108.134 86.3942 108.066 85.8344 107.999 85.2744C107.866 85.1875 107.733 85.1004 107.601 85.0136L107.015 85.0127C106.466 84.5311 105.965 84.3201 105.67 85.2434C103.896 85.8144 102.123 86.3847 100.35 86.9556C99.8881 86.8355 99.4269 86.7155 98.9656 86.5954C98.9904 85.7548 98.3911 86.3785 98.1115 86.2507C98.0431 86.2002 97.994 86.1361 97.9637 86.0577C97.9936 85.8349 98.0235 85.6118 98.0534 85.3887C99.7024 85.6996 101.318 85.7544 102.86 84.9269C103.183 84.7539 103.594 84.7366 103.964 84.6475C104.362 84.5288 104.76 84.4097 105.233 84.2685C104.835 84.014 104.592 83.858 104.348 83.7018C104.899 83.6025 105.45 83.5024 106.001 83.4028C106.21 83.3846 106.418 83.3662 106.626 83.3485C107.2 83.5693 107.774 83.7903 108.348 84.0111C108.784 84.4822 109.22 84.9535 109.747 85.5222C110.712 85.4545 111.856 85.374 113 85.2935C112.999 85.5809 112.997 85.8683 112.996 86.1552C112.259 86.2143 111.522 86.2735 110.785 86.3321C110.53 86.4017 110.275 86.4708 110.02 86.5399C109.897 86.5625 109.775 86.5847 109.653 86.6073C109.551 86.7259 109.449 86.8451 109.348 86.9638C109.389 87.6498 109.43 88.3358 109.481 89.1771C110.735 89.0961 111.874 89.0227 113.013 88.9492C113.12 88.9413 113.227 88.934 113.334 88.926C113.759 88.9026 114.183 88.8797 114.607 88.8562C114.729 88.8067 114.851 88.7576 114.972 88.708C115.873 88.5622 116.774 88.4163 117.675 88.2705C117.785 88.2576 117.895 88.2446 118.005 88.2319L118.149 88.1975L118.298 88.2166C118.407 88.1718 118.517 88.127 118.627 88.0827C119.27 88.0097 119.914 87.9372 120.557 87.8642C120.701 87.7998 120.844 87.736 120.987 87.6716C121.66 87.5436 122.333 87.4154 123.006 87.2876C123.117 87.2685 123.228 87.2494 123.34 87.2303C123.737 87.115 124.134 86.9999 124.531 86.8851C124.688 86.7937 124.846 86.7025 125.003 86.6111C125.179 86.4867 125.34 86.336 125.53 86.2416C129.51 84.2789 130.218 80.2441 127.093 77.1056C126.29 76.3 125.376 75.5958 124.485 74.8789C122.961 73.6534 122.714 73.6522 120.774 74.7291C121.2 75.2177 121.615 75.695 122.03 76.1722C121.992 76.4792 121.953 76.7861 121.915 77.0931C121.424 76.7518 120.872 76.4692 120.453 76.0581C119.435 75.0551 118.24 74.7525 116.836 74.918C114.811 75.1568 112.778 75.3316 110.751 75.5538C110.403 75.592 110.067 75.7323 109.646 75.8471C110.537 77.2375 111.959 78.3469 110.969 80.1175C110.874 79.7818 110.8 79.4399 110.68 79.1134C110.565 78.8021 110.402 78.5069 110.261 78.2048C109.285 77.5174 108.308 76.8305 107.332 76.1431C106.959 75.6631 106.567 75.2968 106.002 75.9242C104.78 75.8289 103.557 75.7332 102.335 75.6381C102.347 75.3537 102.358 75.069 102.37 74.7841C104.581 74.7207 106.791 74.6572 109.002 74.5942C109.412 75.1067 109.756 75.0947 110.022 74.4708C111.946 74.3091 113.868 74.1174 115.795 73.9921C120.156 73.7081 124.287 72.5583 128.195 70.7238C129.347 70.1833 130.319 69.2218 131.251 68.3318C131.545 68.0505 131.675 67.2363 131.471 66.9084C131.087 66.2943 130.411 66.5603 129.86 66.8946C129.163 67.3182 128.463 67.7388 127.765 68.1606C127.623 68.247 127.481 68.3332 127.34 68.4196C126.799 68.6513 126.259 68.8834 125.718 69.1153C125.594 69.1947 125.47 69.2743 125.346 69.3543C124.281 69.6108 123.215 69.8673 122.149 70.1238C121.992 70.2029 121.834 70.2816 121.676 70.3602C120.897 70.4812 120.118 70.6019 119.339 70.7229C118.982 70.23 118.79 70.4121 118.666 70.8782C117.44 71.0133 116.214 71.1486 114.987 71.2841C114.774 71.295 114.561 71.3059 114.348 71.3168C114.014 71.3427 113.681 71.3689 113.347 71.395C112.932 70.8768 112.584 70.8489 112.334 71.5281C108.666 71.5562 104.999 71.5842 101.331 71.6124C101.227 71.6072 101.123 71.6019 101.02 71.5967C100.462 71.5301 99.9042 71.4642 99.3465 71.398C99.038 70.9237 98.7036 70.9189 98.346 71.3468C96.7896 71.2049 95.234 71.0633 93.6783 70.9216C93.4693 70.2081 93.1178 70.219 92.6682 70.7338C91.7796 70.6124 90.8914 70.4908 90.003 70.3691C89.7407 70.2868 89.4782 70.2047 89.2161 70.1226C88.704 70.0717 88.1918 70.0208 87.6801 69.9696C87.579 69.4621 87.3973 69.2361 86.9942 69.7834C85.4436 69.4444 83.8933 69.1054 82.3431 68.7661C82.2345 68.7497 82.1261 68.7331 82.018 68.7161C81.567 68.6097 81.1165 68.5033 80.666 68.3966C80.4228 68.3166 80.1799 68.237 79.9375 68.1572C79.6157 68.0892 79.2936 68.021 78.9718 67.9532C78.9003 67.8645 78.8069 67.8123 78.6913 67.7963L78.6806 67.7902C78.518 67.7033 78.3555 67.6162 78.1929 67.5294C77.574 67.3868 76.9556 67.244 76.3367 67.101C76.1965 67.0223 76.0562 66.9432 75.9161 66.8641C75.4968 66.7486 75.069 66.656 74.66 66.5126C72.6473 65.807 70.6402 65.0869 68.6308 64.3723C68.5282 64.3293 68.4255 64.2865 68.3227 64.2436H64.9638C65.6336 65.4687 66.1668 66.4439 66.7 67.4193C66.793 67.549 66.8862 67.6788 66.9791 67.8084C67.2332 68.2006 67.4873 68.5926 67.7414 68.9848C67.7561 69.0801 67.7704 69.1756 67.7851 69.2709C67.8605 69.2222 67.9364 69.1736 68.0123 69.1249C68.3472 69.0974 68.6821 69.0706 69.0171 69.0435C69.0145 69.3834 69.0112 69.7234 69.0086 70.0635C68.3563 70.6072 68.9809 70.7859 69.3069 71.0499C69.6922 71.4642 70.0781 71.8784 70.4634 72.2927C70.1755 72.4385 69.8637 72.5558 69.6149 72.7493C69.5535 72.797 69.6941 73.0917 69.7418 73.2734C69.8132 73.7218 69.8847 74.1699 69.9562 74.6181C69.9727 74.7238 69.9893 74.8293 70.0057 74.9351C70.0276 75.2063 70.0496 75.4776 70.0713 75.7493C70.1491 75.9085 70.2273 76.0679 70.3048 76.227C70.3263 76.5354 70.3478 76.8434 70.3688 77.1513C70.4354 77.3769 70.502 77.6027 70.5683 77.8287C70.9413 78.1525 71.3135 78.4769 71.686 78.8007C71.8315 78.9046 71.9777 79.0081 72.1232 79.112C72.865 79.5538 73.6065 79.9954 74.3478 80.4367C74.4853 80.5392 74.6229 80.6413 74.7605 80.7437C75.6236 81.1923 76.4871 81.6413 77.3503 82.09C77.8062 82.1857 78.2625 82.2812 78.7189 82.3774C79.2584 82.6086 79.7983 82.8398 80.3376 83.0711C80.4618 83.162 80.5854 83.2528 80.7096 83.3437L80.7106 83.328C80.4775 83.6611 80.2449 83.9945 80.0118 84.328C79.5683 84.1932 79.1243 84.0584 78.6806 83.9237C78.1478 83.1511 77.9166 83.1459 77.34 83.8944C76.4805 84.1759 76.1844 84.8926 75.9205 85.6339C75.729 85.8988 75.3731 86.1616 75.3705 86.4281C75.3334 90.0065 75.3338 93.5852 75.3705 97.1635C75.3735 97.4313 75.7262 97.6955 75.9161 97.9618C75.9749 98.289 76.0345 98.6164 76.0933 98.9438C76.0693 99.2628 76.0454 99.5819 76.0214 99.9011C75.4445 100.358 75.8166 100.472 76.2715 100.556C76.822 102.114 77.695 102.723 79.6804 101.784C81.858 100.752 83.9188 99.4864 86.031 98.3229C86.1697 98.2303 86.3082 98.1373 86.4472 98.0448C86.5341 98.0405 86.6177 98.0214 86.6971 97.9866C86.8213 97.9074 86.9454 97.8283 87.0696 97.7487L87.1392 97.7149C88.1101 97.4732 89.0849 97.2369 89.6786 96.2062C89.3974 96.0866 89.2075 96.0063 89.0183 95.9254C89.0125 95.5184 89.0071 95.1116 89.0017 94.7051L88.9968 94.7094C89.4013 94.6503 89.9408 94.6635 89.3581 94.0734C89.2241 93.5709 89.0898 93.0689 88.9557 92.5661C89.1143 91.5297 89.9016 91.4754 90.7326 91.4888C90.7155 92.6193 90.62 93.7549 90.7022 94.8781C90.7942 96.1414 91.4827 96.4497 92.8777 95.9911C93.1201 96.0341 93.3625 96.0771 93.6045 96.1203C93.7974 97.113 94.7589 97.1557 95.4547 97.4784C96.837 98.1196 98.2619 98.6764 99.669 99.2681C99.5579 99.5937 99.4467 99.9197 99.3353 100.246C97.6122 99.575 95.8895 98.9043 94.3182 98.2926C93.878 102.106 93.4429 105.869 93.008 109.633H91.6752C91.6203 109.393 91.4935 109.144 91.522 108.914C91.7326 107.203 91.993 105.499 92.2016 103.788C92.4463 101.784 92.6544 99.7744 92.8744 97.7999C91.6051 97.3565 90.577 97.631 89.6442 98.0978C86.2158 99.814 82.8181 101.589 79.3772 103.359C79.3156 103.962 79.2303 104.547 79.2002 105.136C79.1241 106.634 79.0722 108.134 79.0106 109.633H78.0107V103.732C75.7514 103.034 74.717 101.948 74.7159 99.9575C74.7149 98.6542 74.0535 98.0225 73.0229 97.4647C70.856 96.2933 68.4794 95.9249 66.0713 95.7062C64.7086 95.5823 63.3841 95.8481 62.0316 96.384C62.6223 98.339 62.6767 100.241 62.1874 102.096C61.459 104.858 60.1373 107.366 58.3472 109.633H57.0143C57.2103 109.153 57.339 108.634 57.6136 108.201C58.9593 106.083 60.1476 103.897 60.7696 101.463C61.8614 97.1939 59.8851 93.0704 55.5822 91.0472C53.1862 89.9199 50.6154 89.9809 48.0872 90.3303C46.5238 90.5463 44.7909 90.8137 43.5246 91.6312C39.1932 94.4256 36.1634 98.3981 33.6705 102.777C34.5589 104.868 35.9254 106.556 37.3396 108.217C37.7146 108.658 38.0157 109.159 38.3511 109.633H36.351C35.3238 107.936 33.9973 106.492 32.5773 105.17C30.8023 106.116 29.0292 108.021 28.3526 109.633H26.6863C26.9455 109.112 27.1211 108.528 27.4796 108.084C28.5652 106.736 29.7967 105.496 30.8327 104.115C32.5117 101.877 34.0804 99.5589 35.7811 97.1526C26.6143 94.4095 18.7767 89.8904 11.838 83.6993C10.773 92.4015 10.1467 100.994 10.3554 109.633H8.02277C7.89735 103.9 8.3126 98.1926 8.7171 92.477C9.4383 82.2873 11.6841 72.4089 14.7503 62.6808C16.203 58.0726 18.7821 54.1507 22.69 51.1689C24.4905 49.7951 25.8154 48.15 26.8407 46.2025C28.1999 43.6207 30.0802 41.4342 32.3975 39.617C36.0233 36.7734 39.6487 33.9287 43.3177 31.1386C46.8069 28.4849 50.6235 26.3598 55.0289 25.6242C61.1357 24.6049 67.151 24.6035 72.8788 27.5501C77.1413 29.7429 81.4196 29.4926 85.4964 26.8873C86.2837 26.3837 87.1259 25.9607 87.901 25.4416C93.15 21.9255 98.984 20.6622 105.28 21.0753C110.556 21.4209 115.008 23.435 118.665 27.1481C118.994 27.481 119.436 27.7654 119.881 27.9189C120.713 28.2056 121.589 28.3732 122.443 28.6017C125.808 29.5035 129.202 30.2998 132.278 32.0158C136.891 34.589 140.275 37.9865 140.741 43.4486L140.721 45.7692C140.699 46.0868 140.678 46.4051 140.656 46.7228C140.103 47.7737 139.686 48.9236 138.969 49.8551C137.447 51.8324 135.8 53.7217 134.149 55.6007C130.811 59.4011 130.319 61.5244 133.034 65.2047C133.066 65.2483 133.088 65.2995 133.12 65.3434C133.873 66.3691 133.89 67.4212 133.322 68.543C132.581 70.0094 131.405 71.0219 129.961 71.7893C128.82 72.3953 127.686 73.0149 126.473 73.6695C127.542 74.9169 128.481 76.0467 129.458 77.144C130.58 78.4037 130.999 79.8632 130.834 81.494C130.557 84.2332 129.386 86.4424 126.819 87.811C125.854 88.3253 125.08 88.9779 124.92 90.3851C125.235 90.8233 125.76 91.0507 126.175 91.401C129.355 94.0839 132.486 96.821 135.687 99.4798C138.069 101.458 139.856 103.78 140.636 106.769C140.757 107.075 140.879 107.381 141 107.687V109.633H139C138.87 108.63 138.919 107.565 138.576 106.636C137.587 103.959 135.736 101.809 133.52 100.036C130.213 97.3895 126.765 94.9104 123.385 92.3492C122.146 91.4101 120.924 90.6941 119.403 91.8906C119.039 92.1771 118.498 92.2692 118.025 92.4031C115.552 93.1032 113.288 94.1178 111.651 96.1701C111.357 96.5384 110.878 96.7631 110.504 97.0757C109.713 97.736 108.835 98.3174 108.962 99.5668C108.997 99.9102 108.675 100.379 108.378 100.643C107.783 101.171 107.649 101.779 107.659 102.52C107.691 104.89 107.672 107.262 107.672 109.633Z" fill="#080B07"/>
<path d="M38.3485 109.632C38.0136 109.158 37.7126 108.657 37.337 108.216C35.9233 106.555 34.5569 104.867 33.668 102.776C36.1609 98.3973 39.1907 94.4248 43.5221 91.6303C44.7888 90.8129 46.5217 90.5457 48.0851 90.3295C50.613 89.98 53.1837 89.9191 55.5801 91.0464C59.8826 93.0696 61.8588 97.1931 60.7677 101.463C60.1455 103.896 58.957 106.082 57.6111 108.2C57.3369 108.632 57.2077 109.152 57.0118 109.632H38.3485Z" fill="#539936"/>
<path d="M107.674 109.632C107.673 107.261 107.692 104.89 107.661 102.519C107.651 101.779 107.784 101.171 108.38 100.642C108.676 100.379 108.998 99.909 108.963 99.5661C108.837 98.3162 109.715 97.7353 110.506 97.0749C110.88 96.7625 111.358 96.5377 111.652 96.1695C113.29 94.117 115.553 93.1024 118.027 92.4026C118.5 92.2682 119.041 92.1763 119.405 91.8898C120.925 90.6936 122.147 91.4096 123.386 92.3485C126.766 94.9096 130.215 97.3885 133.522 100.035C135.738 101.808 137.588 103.959 138.577 106.635C138.92 107.563 138.872 108.629 139.002 109.632H107.674Z" fill="#1F1F1F"/>
<path d="M10.3564 109.633C10.1474 100.994 10.7738 92.4009 11.8388 83.6992C18.7775 89.8902 26.6146 94.4094 35.7821 97.1527C34.0807 99.5588 32.5124 101.876 30.833 104.115C29.7974 105.496 28.5659 106.736 27.4804 108.084C27.1219 108.528 26.9461 109.112 26.687 109.633H10.3564Z" fill="#1F1F1F"/>
<path d="M58.3477 109.632C60.1373 107.366 61.459 104.858 62.1879 102.096C62.6772 100.241 62.6227 98.3384 62.0314 96.3834C63.3841 95.8475 64.7086 95.5819 66.0718 95.7058C68.4794 95.9244 70.8562 96.2927 73.0229 97.4642C74.054 98.0219 74.7154 98.6538 74.7161 99.9571C74.7175 101.948 75.7516 103.033 78.0108 103.732V109.632H58.3477Z" fill="#1F1F1F"/>
<path d="M79.0117 109.635C79.0734 108.136 79.125 106.637 79.2014 105.138C79.2313 104.55 79.3167 103.964 79.3786 103.361C82.8193 101.592 86.2169 99.8169 89.6459 98.1005C90.5782 97.6336 91.606 97.3587 92.8756 97.8028C92.6556 99.7774 92.4475 101.786 92.2027 103.79C91.9942 105.501 91.7338 107.206 91.5231 108.917C91.4949 109.147 91.6212 109.395 91.6763 109.635H79.0117Z" fill="#F9F9F9"/>
<path d="M97.1159 102.175C96.3001 102.187 95.6098 102.929 95.6235 103.779C95.6362 104.582 96.298 105.31 97.0087 105.303C97.7327 105.295 98.5343 104.432 98.5338 103.661C98.5328 102.889 97.8416 102.165 97.1159 102.175ZM100.674 100.847C102.304 101.963 104.221 101.734 106.14 101.856C105.849 104.512 105.128 107.107 106.339 109.633H98.0069C97.9742 109.313 98.0471 108.924 97.885 108.688C97.6064 108.284 97.2388 107.799 96.8048 107.665C96.1497 107.462 95.6338 107.934 95.4066 108.529C95.2802 108.859 95.3561 109.263 95.341 109.633H93.0078C93.4427 105.869 93.8778 102.106 94.318 98.293C95.8893 98.9046 97.612 99.5751 99.3353 100.246C99.7814 100.446 100.228 100.647 100.674 100.847Z" fill="#F8F7F7"/>
<path d="M28.3555 109.631C29.0325 108.02 30.8056 106.115 32.5801 105.168C34.0001 106.49 35.3269 107.934 36.3542 109.631H28.3555Z" fill="#1F1F1F"/>
<path d="M95.3408 109.633C95.356 109.263 95.2805 108.86 95.4066 108.529C95.6339 107.934 96.1496 107.462 96.8051 107.665C97.2386 107.799 97.6067 108.284 97.8848 108.689C98.0469 108.925 97.974 109.313 98.0072 109.633H95.3408Z" fill="#130A07"/>
<path d="M140.743 43.4495C140.842 43.3665 140.928 43.3774 141.002 43.4827V45.7524C140.911 45.7819 140.818 45.7881 140.723 45.7701L140.743 43.4495Z" fill="#789B67"/>
<path d="M140.721 45.7677C140.815 45.7857 140.909 45.78 141 45.75V46.723C140.885 46.7225 140.771 46.722 140.656 46.7216C140.678 46.4039 140.699 46.0856 140.721 45.7677Z" fill="#EAEAEA"/>
<path d="M140.637 106.77C140.758 106.751 140.879 106.733 141 106.715V107.687C140.879 107.382 140.758 107.076 140.637 106.77Z" fill="#80A771"/>
<path d="M85.8085 39.8652C89.3255 40.2088 92.6713 40.9548 95.1577 43.755C94.7686 43.624 94.3877 43.4539 93.9886 43.3698C92.6454 43.0862 91.3067 42.7359 89.9461 42.5928C88.0765 42.3964 86.1876 42.274 84.3082 42.2863C81.763 42.3029 79.2038 42.3464 76.6782 42.6206C74.205 42.8893 72.0619 44.126 70.1139 45.5703C66.9 47.9535 63.8153 50.5028 60.5798 52.8569C58.135 54.6359 55.4987 56.13 52.3689 56.516C52.2818 56.527 52.2101 56.6513 51.9413 56.8946C52.982 57.9576 54.5638 57.7716 55.7166 58.4606C56.8715 59.1502 58.2172 59.5379 59.4531 60.3373C58.2352 60.3373 57.0161 60.3544 55.7979 60.3344C51.9864 60.2714 48.3117 60.9508 44.7497 62.2428C44.18 62.4497 43.6277 62.7014 43.0641 62.9254C41.2584 63.6432 40.1067 64.9317 39.4549 66.7085C38.2178 70.0789 37.4265 73.5373 37.4102 77.1203C37.3887 81.9159 38.9395 86.2129 41.9894 89.9898C42.0917 90.1163 42.1886 90.2477 42.2748 90.3841C42.2993 90.4232 42.2787 90.4889 42.2787 90.5237C40.6212 92.111 38.9556 93.6777 37.328 95.2811C36.8002 95.8009 36.2674 95.717 35.653 95.5401C30.9538 94.1902 26.4657 92.3423 22.4085 89.6738C19.5274 87.7788 16.8566 85.5812 14.0855 83.5266C12.5654 82.3993 12.3127 80.8918 12.7422 79.2149C14.1586 73.6878 15.4406 68.1214 17.0871 62.6589C18.3387 58.5067 20.8362 54.9985 24.3075 52.2123C24.544 52.4449 24.9478 52.6552 24.985 52.9146C25.0821 53.6011 24.9724 54.3137 25.0394 55.0076C25.0866 55.4967 25.2877 55.9717 25.4198 56.4531C25.4605 56.5208 25.4621 56.5895 25.4257 56.6595C25.5016 56.9135 25.5775 57.1677 25.6529 57.4217C25.8164 57.803 25.9792 58.1841 26.1422 58.5654C26.2571 58.562 26.3718 58.5581 26.4862 58.554C26.6518 57.1361 26.8461 55.7205 26.9736 54.2989C27.0701 53.2252 27.0157 52.137 27.1425 51.0679C27.54 47.7166 29.7316 45.2934 31.8431 42.8789C32.7273 41.8677 33.9137 41.1035 34.9792 40.247C37.0708 38.5662 39.2543 36.9855 41.256 35.2097C45.8193 31.1614 50.9602 28.2365 57.0999 27.1953C61.1487 26.5088 65.1491 26.6853 69.0113 28.2192C69.2614 28.3192 69.5113 28.4186 69.761 28.5186C69.9714 28.6005 70.1812 28.6821 70.3916 28.764C70.734 28.9004 71.0766 29.0364 71.419 29.1726C71.5084 29.1642 71.5941 29.1773 71.6766 29.2117C71.9052 29.3151 72.1339 29.4186 72.3625 29.522L72.3546 29.5177C72.4982 29.6146 72.6416 29.7119 72.785 29.809C73.4191 30.3645 74.0532 30.9202 74.6872 31.4757C74.5667 31.6048 74.4464 31.7335 74.3264 31.8627C74.2162 31.8631 74.1106 31.8418 74.0097 31.7997C73.753 31.7135 73.4964 31.6278 73.2395 31.5423L73.1239 31.5523L73.0132 31.5189C72.7457 31.4245 72.4781 31.3302 72.2107 31.2358C71.9218 31.2083 71.6334 31.181 71.3445 31.1537C71.2338 31.1392 71.1231 31.1248 71.0121 31.1101C70.7818 31.0446 70.5509 30.9793 70.3201 30.9136C70.2204 30.7988 70.1218 30.5855 70.0205 30.5841C68.1299 30.5618 66.2389 30.5593 64.3481 30.5766C64.2413 30.5775 64.1365 30.7833 64.0302 30.8931C63.4685 30.9666 62.9071 31.0398 62.3454 31.1132C62.2347 31.1237 62.124 31.1344 62.0128 31.1448C57.6623 31.7845 53.4323 32.7483 49.7737 35.3206C48.23 36.4061 46.8873 37.6556 46.0055 39.3206C45.8807 39.5562 45.7988 39.8166 45.7294 40.0735C45.7058 40.1597 45.7826 40.2713 45.8492 40.4864C46.6655 40.4714 46.9976 39.7622 47.4383 39.307C49.2786 37.4082 51.292 35.7522 53.7658 34.6801C56.0025 33.7108 58.3543 33.1435 60.7661 32.8027C62.4052 32.571 64.0543 32.2269 65.6966 32.2392C67.7833 32.2549 69.8761 32.5148 71.9501 32.7886C74.5943 33.1383 77.132 33.8916 79.5063 35.1014C80.0175 35.3622 80.4729 35.7274 80.9543 36.0444C80.9127 36.1474 80.8713 36.2499 80.8293 36.3527C79.6013 36.2126 78.3684 36.1048 77.1463 35.9266C73.846 35.4452 70.6492 35.8031 67.5252 36.9277C62.5521 38.7181 58.0002 41.2424 53.8931 44.4857C50.3712 47.2666 46.9431 50.1597 43.4985 53.0313C43.0539 53.4021 42.2479 53.7989 43.0254 54.5806C43.1316 54.8737 43.2374 55.1666 43.3437 55.4597C43.1039 55.7223 42.8635 55.9849 42.5569 56.3205C44.1733 57.6668 45.699 58.8328 47.9434 58.6916C48.0621 56.9722 46.1059 57.4894 45.5713 56.2725C46.8623 55.6793 48.1149 55.0554 49.4061 54.5185C53.0808 52.9899 56.6842 51.3453 59.8198 48.8764C61.6697 47.4201 63.5073 45.9476 65.3864 44.5264C69.1694 41.6656 73.6708 40.516 78.2425 39.6392C79.6683 39.3654 81.1857 38.9637 82.668 39.5671C83.655 40.2647 84.7601 39.784 85.8085 39.8652Z" fill="#539836"/>
<path d="M109.67 70.4153C108.017 70.506 106.363 70.6786 104.709 70.6724C99.3402 70.6527 94.0284 69.9965 88.7766 68.9728C85.2145 68.2784 81.6762 67.4341 78.1782 66.4803C76.1741 65.9344 74.2718 65.0353 72.3236 64.2954C72.0678 64.1906 71.8119 64.0853 71.5559 63.9807C71.3742 63.9503 71.1925 63.9198 71.0108 63.8893C70.7773 63.7945 70.5437 63.7002 70.3102 63.6056C69.9879 63.5037 69.6649 63.4016 69.3421 63.2995C69.2882 63.1081 69.234 62.9168 69.1875 62.7524C69.937 62.6212 70.6348 62.4996 71.3324 62.3773C72.0078 62.3782 72.6835 62.3791 73.3591 62.3805C74.4755 62.7081 75.5865 62.8438 76.676 62.2847C80.6846 61.7747 84.5921 60.9014 88.3333 59.3616C90.31 58.5473 92.3337 57.8409 94.3364 57.0857C94.3404 57.3136 94.3443 57.5414 94.3481 57.7688C92.0474 59.9689 88.9489 60.5546 86.0237 61.5053C86.038 62.3282 86.3297 62.6565 87.0516 62.4086C88.919 61.7684 90.8741 61.2856 92.6194 60.4102C95.7183 58.8563 95.6644 58.7542 97.7345 55.9507C100.16 56.334 102.593 56.7283 105.03 57.1028C108.555 57.644 112.102 57.7079 115.596 57.0396C119.274 56.3368 122.94 55.5232 126.542 54.5216C129.079 53.8161 131.499 52.7115 133.975 51.7942C134.281 51.6808 134.61 51.6251 134.928 51.543C135.062 51.666 135.195 51.7894 135.328 51.9125C132.859 54.1908 130.197 56.1314 126.765 56.857C125.869 57.0462 125.033 57.5039 124.03 57.8923C124.925 58.659 125.789 58.3761 126.601 58.2192C127.84 57.9796 129.063 57.6658 130.292 57.3836L130.388 57.4766C130.315 57.787 130.301 58.1253 130.161 58.4034C129.293 60.1228 129.153 61.8614 129.749 63.7063C130.193 65.0801 130.047 65.3548 128.865 66.1122C125.584 68.215 122.001 69.4783 118.065 69.7786C116.258 69.9169 114.458 70.1399 112.655 70.3243C111.648 69.963 110.647 69.8218 109.67 70.4153Z" fill="#539836"/>
<path d="M109.002 74.5968C106.792 74.6602 104.582 74.7236 102.371 74.7871C102 74.725 101.631 74.6302 101.258 74.6063C97.6389 74.3769 94.0189 74.1591 90.3994 73.9376C90.2819 73.8978 90.1649 73.8582 90.0479 73.8182C88.4189 73.6552 86.7904 73.4922 85.1616 73.3291C85.056 73.3316 84.9507 73.3344 84.8449 73.3369C84.5217 73.1729 84.2162 72.9387 83.8724 72.8557C80.7412 72.1022 77.6031 71.3753 74.467 70.6406C73.7589 70.3537 73.0505 70.0667 72.3424 69.78C71.2342 69.5356 70.1263 69.2909 69.0181 69.046C68.6832 69.0735 68.3483 69.1004 68.0133 69.1274C67.9302 69.0679 67.8401 69.0208 67.7427 68.9874C67.4886 68.5951 67.2345 68.2031 66.9804 67.8114C66.8872 67.6813 66.7942 67.5519 66.7008 67.4219C66.1676 66.4469 65.6347 65.4717 64.9648 64.2461H68.3235C68.4263 64.2891 68.529 64.3323 68.6318 64.3752C70.641 65.0899 72.6488 65.8095 74.6613 66.5156C75.0698 66.659 75.4976 66.7511 75.9168 66.8671C76.0572 66.9457 76.1973 67.0249 76.3379 67.104C76.9564 67.2468 77.5753 67.3894 78.1937 67.5324C78.3562 67.6192 78.5193 67.7061 78.6818 67.7932L78.6926 67.7993C78.786 67.8514 78.8792 67.9035 78.9726 67.9558C79.2944 68.024 79.6165 68.0917 79.9383 68.1602C80.1812 68.2395 80.4238 68.3196 80.6667 68.3991C81.1172 68.5058 81.5682 68.6126 82.0187 68.7191C82.1273 68.7357 82.2357 68.7527 82.3438 68.7691C83.8946 69.1083 85.4451 69.4473 86.9954 69.7864C87.2241 69.8482 87.4522 69.9103 87.6809 69.9726L89.2169 70.1256C89.4794 70.2077 89.7415 70.2898 90.0042 70.3716C90.8924 70.4933 91.7808 70.6149 92.669 70.7368C93.0058 70.7993 93.3425 70.8614 93.6791 70.9242C95.2352 71.0658 96.7911 71.2075 98.3468 71.3494C98.6803 71.3666 99.0143 71.3837 99.3478 71.4005C99.9055 71.4671 100.463 71.5331 101.021 71.5993L101.174 71.6493L101.332 71.6149C105 71.5872 108.667 71.5588 112.335 71.531C112.673 71.4862 113.011 71.4419 113.348 71.3976C113.682 71.3714 114.015 71.3457 114.348 71.3198C114.561 71.3089 114.775 71.2975 114.988 71.2866C116.214 71.1515 117.441 71.0163 118.667 70.8807C118.892 70.8294 119.116 70.7775 119.34 70.7259C120.119 70.6049 120.898 70.4842 121.677 70.3632C121.834 70.2841 121.993 70.2054 122.15 70.1268C123.216 69.8703 124.281 69.6133 125.347 69.3569C125.471 69.2773 125.595 69.1977 125.719 69.1183C126.259 68.8862 126.8 68.6543 127.341 68.4221C127.483 68.3362 127.624 68.2495 127.766 68.1636C128.465 67.7413 129.164 67.3207 129.861 66.8975C130.412 66.5633 131.087 66.2973 131.472 66.911C131.676 67.2388 131.547 68.0531 131.252 68.3348C130.32 69.2248 129.348 70.1859 128.197 70.7263C124.288 72.5608 120.157 73.7107 115.796 73.9947C113.87 74.1202 111.947 74.3121 110.023 74.4733C109.683 74.5147 109.343 74.5554 109.002 74.5968Z" fill="#A8512B"/>
<path d="M116.92 28.548C115.964 28.548 115.372 28.5323 114.782 28.5505C111.519 28.6515 108.25 28.6774 104.994 28.8875C100.479 29.1783 96.2226 30.5003 92.09 32.2458C89.8108 33.2079 87.5071 34.1142 85.2106 35.0373C83.7782 35.6133 82.4907 35.5446 81.173 34.5626C79.7358 33.4914 78.2077 32.5467 76.8867 31.0328C78.2635 30.9637 79.4343 30.9659 80.5887 30.8325C82.4181 30.6217 84.123 30.0569 85.701 29.0767C88.9579 27.0537 92.122 24.8261 95.9412 23.8611C101.504 22.4557 107.028 22.5439 112.364 24.7444C114.077 25.4514 115.555 26.6512 116.92 28.548Z" fill="#539437"/>
<path d="M84.8419 73.3322C84.9473 73.3295 85.053 73.327 85.1584 73.3242C85.4076 73.5935 85.6189 74.0446 85.9118 74.1021C87.5952 74.4325 89.2978 74.6699 90.9943 74.9388C91.0893 74.9664 91.1844 74.9936 91.2799 75.0216C92.4089 75.106 93.5376 75.1899 94.6666 75.274C94.8973 75.2872 95.1278 75.3001 95.3581 75.3133C96.6849 75.4032 98.0114 75.4927 99.3382 75.5828L101.36 75.6419L102.333 75.6358C103.555 75.7315 104.777 75.8268 106 75.9218C106.443 75.9948 106.886 76.068 107.33 76.141C108.306 76.8284 109.282 77.5153 110.258 78.2024C110.609 79.4893 110.318 80.5774 109.256 81.4657C108.979 81.6974 108.799 82.0385 108.575 82.33C107.925 82.6685 107.274 83.0071 106.624 83.3463C106.416 83.3645 106.208 83.3823 105.999 83.4007C104.049 83.4919 102.222 82.9976 100.432 82.31C99.6204 81.9982 98.7959 81.7174 97.9781 81.4225C97.8774 81.3709 97.7774 81.3191 97.677 81.2674C96.9215 80.9482 96.1758 80.6044 95.4086 80.314C92.4981 79.2129 89.6002 78.0755 86.6557 77.0669C85.5984 76.7044 84.4185 76.5444 83.3271 77.1574C82.9911 77.2742 82.6547 77.3913 82.3184 77.5082C81.4361 77.7622 80.5542 78.0159 79.6723 78.2699C78.7984 77.8538 77.9249 77.4377 77.0517 77.0219C76.8931 76.9423 76.7345 76.8627 76.576 76.7831C76.0661 76.4391 75.5563 76.0957 75.0462 75.752C74.8166 75.578 74.5873 75.4036 74.3573 75.2297C74.0763 75.1257 73.7956 75.0216 73.5146 74.9172L73.5223 74.9225C72.502 74.045 71.4816 73.1678 70.4612 72.2906C70.0759 71.8763 69.69 71.4618 69.3047 71.0475C69.328 70.7271 69.3507 70.4068 69.3738 70.0859C70.3629 70.2915 71.352 70.4968 72.341 70.7024C73.1244 70.9759 73.9077 71.2494 74.6912 71.5227C75.6915 71.7931 76.6918 72.0637 77.6919 72.334C77.7848 72.377 77.8778 72.42 77.9709 72.4632C79.3164 72.746 80.6619 73.0291 82.0078 73.3122C82.1068 73.3561 82.2059 73.3995 82.3051 73.4429C83.1571 73.5453 84.0346 74.1946 84.8419 73.3322Z" fill="#DB0351"/>
<path d="M127.884 33.8178C122.823 33.1095 117.735 33.0131 112.63 33.0856C108.065 33.1504 103.738 34.1118 99.6537 36.0493C97.3642 37.1357 95.1661 38.4033 92.9007 39.5402C92.448 39.7671 91.7885 39.994 91.374 39.8401C89.2169 39.0395 87.1082 38.1157 84.6172 37.0831C85.3386 36.6261 85.7023 36.3424 86.1103 36.1459C91.8952 33.3569 97.9591 31.3123 104.32 30.2939C108.754 29.5838 113.264 29.5783 117.743 30.1152C119.932 30.3778 122.121 30.6843 124.285 31.0949C126.69 31.5511 128.87 32.6109 130.99 33.7773L130.995 34.4281C130.218 34.3007 129.441 34.1739 128.664 34.0465C128.404 33.9704 128.144 33.894 127.884 33.8178Z" fill="#539437"/>
<path d="M88.9562 92.5663C89.0905 93.069 89.2246 93.5711 89.3589 94.0736C89.2384 94.2857 89.1178 94.4974 88.9973 94.7095L89.0022 94.7052C88.3546 94.8234 87.9125 95.3601 87.1589 95.3787C86.365 95.3987 86.206 95.9894 86.6976 96.64C86.8062 96.8569 86.9141 97.0738 87.0227 97.2907C85.7786 97.685 84.5198 98.0392 83.2955 98.4844C81.9129 98.9869 80.6207 99.6768 79.047 99.6047C76.9586 99.509 76.3827 98.9822 76.326 96.8728C76.3064 96.1516 76.1356 95.4344 76.0338 94.7152C76.024 92.773 76.0137 90.8309 76.0039 88.8884C76.1982 88.8086 76.5345 88.7629 76.5649 88.6433C76.8769 87.4264 77.8326 86.7989 78.9333 86.72C79.9747 86.6461 81.0985 86.8982 82.0993 87.2452C83.3324 87.6729 84.4756 88.3473 85.7844 88.9755C85.8732 88.5628 85.9353 88.2754 85.997 87.9883C87.4657 88.6599 88.8124 89.4703 89.7965 91.0001C89.1643 91.117 88.7502 91.1936 88.3364 91.2705C88.1166 91.2327 87.8966 91.1947 87.6769 91.157C86.0855 90.6584 85.9787 90.7009 85.7933 92.0585C86.415 92.1547 87.0486 92.2525 87.6818 92.3503C87.9015 92.3773 88.1215 92.4042 88.3413 92.4312C88.5461 92.476 88.7512 92.5213 88.9562 92.5663Z" fill="#C10202"/>
<path d="M113.04 39.9527C109.621 42.362 108.108 45.6212 108.273 49.7174C108.361 51.895 109.322 53.5251 111.046 54.8029C111.525 55.1576 112.04 55.4666 112.57 55.817C109.587 56.9021 100.037 55.7106 97.793 54.0728C98.1573 52.0792 98.5107 50.1442 98.8643 48.2092C98.7648 48.1721 98.665 48.1349 98.5655 48.098C98.8986 47.8302 99.2069 47.5237 99.5689 47.3002C103.685 44.7626 107.81 42.2365 111.937 39.7135C112.12 39.6009 112.346 39.5541 112.552 39.4766C112.715 39.6353 112.877 39.794 113.04 39.9527Z" fill="#F8F7F7"/>
<path d="M113 85.293C111.855 85.3735 110.711 85.454 109.746 85.5218C109.22 84.9526 108.783 84.482 108.348 84.0106C108.583 83.6072 108.819 83.2036 109.055 82.8003C109.692 81.9056 110.33 81.0113 110.968 80.1168C111.958 78.3464 110.536 77.237 109.645 75.8462C110.066 75.732 110.402 75.5915 110.75 75.5533C112.777 75.3312 114.81 75.1563 116.835 74.9178C118.239 74.752 119.434 75.0547 120.453 76.0572C120.871 76.4687 121.423 76.7514 121.914 77.0927C122.563 77.6427 123.211 78.1929 124.1 78.946C124.15 78.3378 124.169 78.1081 124.188 77.8787C124.334 78.1461 124.479 78.413 124.625 78.6804C124.572 78.9537 124.384 79.3021 124.492 79.4881C124.937 80.2598 125.094 81.0158 124.732 81.8555C124.698 81.9326 124.879 82.0975 124.96 82.2212C124.631 82.3239 124.301 82.426 123.972 82.5281C122.672 82.9281 121.387 83.3915 120.067 83.7137C117.723 84.2853 115.356 84.7714 113 85.293Z" fill="#CE9BB0"/>
<path d="M128.906 51.8744C129.28 51.2209 129.667 50.574 130.026 49.9123C132.781 44.8343 128.174 38.9248 123.5 38.3159C122.36 38.1676 121.201 38.1624 120.05 38.091C120.033 37.9546 120.017 37.8183 120 37.6819C125.032 37.3438 129.939 37.9827 134.721 39.5187C136.677 40.1474 138.323 41.0876 138.836 43.2922C139.323 45.388 138.894 47.1365 137.164 48.5055C136.523 49.0128 135.86 49.5462 135.115 49.8664C133.098 50.7327 131.032 51.4908 128.986 52.2916C128.96 52.1524 128.932 52.0135 128.906 51.8744Z" fill="#F6F6F6"/>
<path d="M71.6912 46.842C70.3441 48.6692 69.5005 50.669 69.2567 52.9319C68.9795 55.5046 69.4756 57.8576 70.9871 59.9967C71.1109 60.172 71.2206 60.3612 71.3033 60.5577C71.3397 60.6441 71.2916 60.7646 71.2804 60.8694C69.2988 61.8357 59.4129 59.4699 55.582 57.0558C55.9116 56.8271 56.1696 56.5767 56.481 56.4424C61.0933 54.4496 64.9641 51.3969 68.8165 48.3145C69.5858 47.699 70.3878 47.1222 71.1746 46.5273C71.347 46.6322 71.5189 46.7374 71.6912 46.842Z" fill="#F6F6F6"/>
<path d="M73.5247 74.9246L73.5175 74.9194C73.5453 75.1468 73.5733 75.3742 73.6016 75.6015C74.0647 75.9358 74.528 76.2705 74.9916 76.605C75.1836 76.7157 75.3761 76.8271 75.568 76.9378C76.0176 77.1914 76.467 77.4449 76.9165 77.6982C77.4488 78.0727 77.9453 78.5122 78.5191 78.8098C80.605 79.8919 82.7389 80.8872 84.8144 81.987C88.9328 84.1698 93.3557 85.3888 97.9639 86.0573C97.9942 86.1357 98.044 86.2003 98.1122 86.2508C98.1332 86.3881 98.1542 86.5252 98.1757 86.6621C96.6941 87.3824 95.2085 88.095 93.7327 88.8258C92.877 89.2496 92.0166 89.2135 91.1973 88.8097C88.9814 87.7189 86.7769 86.6064 84.5863 85.4688C83.2765 84.7883 82.0013 84.0436 80.7108 83.3281L80.7098 83.3437C80.5858 83.2528 80.462 83.1621 80.3385 83.0711C79.7985 82.8399 79.259 82.6086 78.7193 82.3774C78.2629 82.2812 77.8071 82.1857 77.3507 82.09C76.4875 81.6414 75.6243 81.1923 74.7611 80.7437C74.6236 80.6414 74.486 80.5393 74.3487 80.4367C73.6069 79.9949 72.8652 79.5538 72.1234 79.112C71.9779 79.0081 71.8324 78.9047 71.6862 78.8007C71.314 78.477 70.9415 78.1525 70.5692 77.8283C70.5026 77.6027 70.4361 77.3769 70.3695 77.1514C70.348 76.8435 70.3268 76.5354 70.3053 76.2271C70.2275 76.0679 70.1497 75.9085 70.0717 75.7493C70.0498 75.4776 70.0278 75.2064 70.0061 74.9351C69.9895 74.8294 69.9729 74.7239 69.9566 74.6181C69.8851 74.17 69.8137 73.7218 69.7422 73.2734C70.3321 73.617 70.9174 73.9688 71.5132 74.3025C72.1351 74.6516 72.6522 75.338 73.5247 74.9246Z" fill="#A8512B"/>
<path d="M44.5938 54.3068C44.7792 54.0655 44.9214 53.7718 45.1559 53.5908C50.0996 49.7786 54.893 45.7565 60.0492 42.2383C65.433 38.5643 71.559 36.7449 78.2508 37.3365C79.4358 37.4413 80.6022 37.7474 81.7414 38.2699C81.2204 38.2699 80.6991 38.2778 80.178 38.2685C73.8806 38.1607 68.3757 40.2876 63.4196 43.9254C61.6523 45.2226 59.9224 46.5689 58.1988 47.9207C54.7867 50.5955 50.7907 52.2049 46.8216 53.8639C46.1503 54.1442 45.4471 54.3525 44.7586 54.5942C44.7035 54.4982 44.6486 54.4025 44.5938 54.3068Z" fill="#529238"/>
<path d="M62.2773 94.3106C63.9299 92.7995 65.6138 91.3188 67.2276 89.769C69.1971 87.8774 70.2626 85.5768 70.3791 82.857C70.4242 81.7967 70.6257 80.743 70.7738 79.5391C72.4934 80.5757 74.1248 81.5584 75.8694 82.6093C73.6537 85.5727 74.4914 88.8929 74.3305 92.066C74.2296 94.0541 73.1808 95.0653 71.1204 94.9109C70.6811 94.8779 70.2322 94.8284 69.8125 94.7067C67.3696 93.9993 64.9052 94.131 62.4308 94.4771C62.3792 94.4223 62.3278 94.3668 62.2773 94.3106Z" fill="#539437"/>
<path d="M125.595 36.3863C125.174 36.3701 124.752 36.3538 124.33 36.3376C123.111 35.8265 121.891 35.839 120.67 36.3306C120.147 36.3529 119.624 36.3747 119.1 36.3967C118.959 36.4559 118.819 36.515 118.678 36.5741C114.547 37.1189 110.826 38.6196 107.396 40.9302C104.855 42.6426 102.196 44.1919 99.5784 45.7963C99.1697 46.0466 98.6991 46.201 98.0235 46.5048C97.5965 45.4941 97.2117 44.5832 96.7969 43.6026C99.1006 42.0982 101.321 40.7105 103.471 39.2265C105.458 37.8554 107.412 36.4429 109.797 35.7899C111.226 35.3986 112.661 34.9756 114.124 34.763C117.538 34.2678 120.95 34.4279 124.337 35.0768C124.602 35.1539 124.868 35.2308 125.133 35.3074C126.645 35.5425 128.157 35.7774 129.669 36.012C129.665 36.321 129.66 36.6303 129.655 36.9393C128.54 36.8119 127.425 36.6842 126.309 36.5568C126.071 36.4998 125.833 36.4434 125.595 36.3863Z" fill="#529238"/>
<path d="M123.972 82.5303C124.301 82.4282 124.631 82.3259 124.96 82.2238C126.642 81.0726 126.508 79.662 124.626 78.6824C124.48 78.4155 124.334 78.1481 124.188 77.8809C123.469 77.3118 122.749 76.7427 122.03 76.174C121.614 75.6968 121.199 75.2195 120.774 74.7306C122.714 73.654 122.96 73.6551 124.484 74.8807C125.376 75.5976 126.29 76.3018 127.092 77.1074C130.218 80.2459 129.51 84.2805 125.53 86.2434C125.339 86.3378 125.178 86.4885 125.003 86.6129C124.845 86.7043 124.688 86.7955 124.53 86.8869C124.133 87.0015 123.736 87.1168 123.339 87.232C123.228 87.2511 123.116 87.2703 123.005 87.2894C122.333 87.4171 121.66 87.5454 120.987 87.6732C120.844 87.7375 120.7 87.8019 120.557 87.8657C119.913 87.939 119.27 88.0115 118.627 88.0845C118.517 88.1288 118.407 88.1736 118.297 88.2184L118.149 88.1993L118.004 88.2336C117.894 88.2462 117.784 88.2593 117.675 88.2723C116.774 88.4181 115.873 88.564 114.972 88.7096C114.85 88.7591 114.729 88.8082 114.607 88.8578C114.183 88.8814 113.758 88.9044 113.334 88.9278C113.223 88.8896 113.116 88.8971 113.012 88.951C111.873 89.0245 110.735 89.0979 109.481 89.1786C109.43 88.3376 109.389 87.6516 109.348 86.9656C109.449 86.8469 109.551 86.7277 109.653 86.609C109.775 86.5863 109.897 86.5642 110.019 86.5417C110.275 86.4726 110.53 86.4035 110.785 86.3339C111.522 86.2752 112.259 86.2159 112.995 86.1568C113.642 86.0895 114.293 86.0513 114.933 85.9487C117.796 85.4897 120.629 84.921 123.201 83.5228C123.598 83.3073 124.185 83.2059 123.972 82.5303Z" fill="#A8512B"/>
<path d="M38.7107 78.4441C38.6558 74.6012 39.2077 70.8606 40.5962 67.2567C44.4938 67.781 48.268 67.5254 52.0342 66.9581C52.4676 66.8924 52.9102 66.8801 53.3481 66.8438C53.2334 67.8322 53.8416 68.6901 53.9717 69.5564C54.2961 71.7139 55.0852 73.7089 55.6831 75.7701C53.8175 75.8258 51.9515 75.8813 50.0859 75.937C49.9586 75.6114 49.7466 75.2919 49.7218 74.9593C49.6625 74.1573 49.709 73.3486 49.6807 72.5434C49.6251 70.9388 48.7949 69.7912 47.1789 69.3722C46.2424 69.1291 45.2279 69.18 44.2538 69.0618C43.2516 68.9404 42.6698 69.409 42.3982 70.2808C42.2259 70.8349 42.0549 71.4145 42.0425 71.9857C42.0045 73.7033 42.0446 75.4227 42.0544 77.1417C41.603 77.3538 41.1511 77.5655 40.6996 77.7776C40.0366 77.9998 39.374 78.2219 38.7107 78.4441Z" fill="#789B67"/>
<path d="M55.6854 75.7704C55.087 73.7095 54.2981 71.7145 53.9737 69.5569C53.8434 68.6904 53.2352 67.8327 53.3504 66.8441C55.4675 66.0899 57.6149 65.4054 59.6877 64.55C60.6142 64.1678 61.3907 63.4409 62.2348 62.8711C62.9777 63.4132 63.2042 63.9782 62.7665 64.7283C62.5767 65.0546 62.4277 65.4043 62.271 65.7481C60.6382 69.3359 61.1733 72.2295 63.9525 75.0424C64.2785 75.3718 64.4911 75.8075 64.7559 76.194L64.3477 76.24C64.2477 76.197 64.144 76.1884 64.0382 76.2152C63.5809 76.1022 63.1241 75.9892 62.6668 75.8766C62.1262 75.8562 61.585 75.8352 61.0437 75.8148C60.9236 75.8543 60.8031 75.8944 60.6831 75.9339C59.9042 75.9271 59.1255 75.9205 58.3466 75.9139C57.7908 75.9148 57.2347 75.9157 56.6784 75.9166C56.3475 75.868 56.0163 75.8191 55.6854 75.7704Z" fill="#80A771"/>
<path d="M83.1073 43.6133C86.0362 43.7938 88.9682 43.9364 91.8915 44.1781C92.7538 44.2495 93.6459 44.4875 94.4306 44.8445C96.4046 45.744 97.4436 47.209 97.3745 49.4553C97.2521 53.4037 95.383 55.833 91.3214 56.8541C91.3214 56.1463 91.3079 55.4751 91.3235 54.8043C91.4433 49.6531 88.1531 45.4114 83.0078 44.0924C83.0412 43.933 83.0744 43.7729 83.1073 43.6133Z" fill="#F8F7F7"/>
<path d="M103.965 84.6475C103.595 84.7367 103.184 84.754 102.861 84.927C101.318 85.7544 99.7032 85.6996 98.0546 85.3883C97.5191 85.2535 96.9892 85.0896 96.4466 84.9879C91.6615 84.0889 87.2948 82.0891 82.9153 80.1246C82.3611 79.8763 81.7574 79.6084 82.0699 78.8094C82.2906 78.6348 82.5111 78.4599 82.7313 78.2851C82.9497 78.1705 83.1676 78.0552 83.3859 77.9399C84.5278 77.4936 85.6359 77.6282 86.7546 78.0629C90.3419 79.4568 93.9224 80.871 97.5385 82.1912C99.437 82.8847 101.405 83.399 103.342 83.9941C103.55 84.2119 103.758 84.4297 103.965 84.6475Z" fill="#CE9BB0"/>
<path d="M100.35 86.9581C102.123 86.3874 103.897 85.8169 105.67 85.2462C106.119 85.1691 106.567 85.0923 107.016 85.0156L107.601 85.0161C107.734 85.1032 107.866 85.19 107.999 85.2773C108.067 85.8369 108.135 86.3969 108.203 86.9563C108.207 87.1612 108.212 87.3653 108.216 87.5702C108.243 88.6505 108.269 89.7307 108.297 90.8117C108.166 91.9054 108.036 92.9993 107.905 94.093C107.846 94.872 107.787 95.6512 107.727 96.4302C107.803 97.8008 107.697 99.1221 106.657 100.192C105.55 100.347 104.443 100.501 103.337 100.656C102.562 100.403 101.786 100.15 101.011 99.8968C100.564 99.688 100.117 99.4793 99.6698 99.2706C98.2624 98.6789 96.8378 98.1226 95.4549 97.4809C94.7597 97.1582 93.7979 97.1157 93.6055 96.1228C94.2454 96.0862 94.8855 96.015 95.525 96.0232C96.1056 96.0302 96.6848 96.1237 97.2647 96.1794C98.6186 97.4179 100.483 97.3536 102.094 97.9286C102.897 98.2146 103.822 98.256 104.693 98.2647C105.966 98.2781 106.259 97.887 106.69 96.7583C107.507 94.6203 107.364 92.4167 107.316 90.2212C107.297 89.3945 107.03 88.5727 106.91 87.9258C106.563 87.738 106.47 87.648 106.37 87.6398C102.833 87.341 99.8608 89.0595 96.7308 90.2103C96.6794 90.2294 96.6913 90.4113 96.6741 90.5172C95.8176 90.5939 94.961 90.6707 94.0041 90.7564C93.8631 89.746 94.5467 89.587 95.2384 89.4356C95.3814 89.3526 95.5241 89.2701 95.667 89.1875C96.2941 88.9261 96.9214 88.6648 97.5487 88.4035C97.6804 88.3187 97.8121 88.2344 97.9439 88.1498C98.7459 87.7523 99.5483 87.3556 100.35 86.9581Z" fill="#E1080C"/>
<path d="M53.9749 88.972C51.5637 88.9025 49.1528 88.8329 46.7414 88.7633C45.3224 86.1923 43.7413 83.693 43.0432 80.8051L43.043 80.8008C45.5891 81.2155 48.1355 81.6298 50.6816 82.0441C50.8607 82.1023 51.0394 82.1603 51.2185 82.218C51.2489 82.3806 51.2788 82.5427 51.3092 82.7053C51.322 82.8183 51.3351 82.9318 51.3475 83.0448C52.0065 84.2521 52.6656 85.4597 53.3242 86.6671C53.4578 86.9757 53.5914 87.284 53.7247 87.5925C53.8182 87.704 53.9116 87.8147 54.0048 87.9261L53.9919 87.9156C53.9838 88.0225 54.0043 88.1239 54.0536 88.2199C54.0272 88.4709 54.0013 88.7212 53.9749 88.972Z" fill="#AC6E70"/>
<path d="M97.5484 88.4011C96.921 88.6624 96.2935 88.9236 95.6662 89.1844C95.5233 89.2674 95.3803 89.35 95.2374 89.4327C94.5459 89.5844 93.8627 89.7436 94.0038 90.7538C94.9606 90.6681 95.8171 90.5912 96.6735 90.5148C96.9061 90.7809 97.1389 91.0469 97.592 91.5651C96.574 91.883 95.7823 92.1733 94.9665 92.3718C94.285 92.5371 93.9828 93.0515 94.1003 93.5526C94.1984 93.973 94.6909 94.3596 95.0982 94.6365C95.3332 94.7961 95.7533 94.6717 96.0756 94.7386C96.858 94.9012 97.4183 95.2672 97.2639 96.1768C96.6842 96.121 96.1046 96.0276 95.5242 96.0203C94.8852 96.0124 94.2444 96.0833 93.6044 96.1201C93.3625 96.0772 93.1201 96.0342 92.8776 95.9912C92.9468 94.277 93.3099 92.5328 92.3615 90.6685C91.7304 90.9864 91.2311 91.2377 90.7325 91.4889C89.9015 91.4755 89.1142 91.5298 88.9557 92.5662C88.7506 92.521 88.5458 92.4762 88.3407 92.4309C88.3391 92.0442 88.3377 91.6572 88.3358 91.2704C88.7499 91.1938 89.1638 91.1169 89.796 90.9998C88.8118 89.47 87.4652 88.6597 85.9964 87.988C85.9282 87.9159 85.8439 87.875 85.7432 87.8663C85.6129 87.7649 85.4821 87.6638 85.3518 87.5628L84.1145 86.8661C83.9697 86.7743 83.8251 86.6822 83.6798 86.5903C83.62 86.5407 83.5504 86.5155 83.4713 86.5155C83.3276 86.4261 83.1838 86.3361 83.0399 86.2465L83.0462 86.2508C82.9227 86.1578 82.7989 86.0648 82.6756 85.9718C81.7874 85.4241 80.8997 84.8759 80.0117 84.3279C80.2448 83.9946 80.4774 83.6612 80.7105 83.3281C82.0008 84.0437 83.2758 84.7883 84.586 85.4687C86.7762 86.6069 88.9811 87.719 91.1963 88.8102C92.0163 89.2136 92.8767 89.2497 93.7317 88.8259C95.208 88.0951 96.6936 87.3825 98.1752 86.6622C98.4386 86.6399 98.7021 86.6178 98.9655 86.5955C99.4268 86.7156 99.888 86.8356 100.35 86.9555C99.5475 87.3525 98.7455 87.7499 97.9431 88.1467C97.8113 88.2315 97.6801 88.3163 97.5484 88.4011Z" fill="#130A07"/>
<path d="M53.7243 87.5945C53.5907 87.2859 53.4576 86.9776 53.3242 86.6691L54.0097 82.3803C55.4523 82.2864 56.8952 82.192 58.3378 82.0977C58.4508 82.1986 58.5639 82.2996 58.6767 82.4003C58.7888 83.2407 58.9389 84.0783 59.005 84.9219C59.1545 86.8246 58.6554 88.7805 59.5438 90.6334C59.6239 90.7994 59.2113 91.1889 59.0277 91.4745C58.9238 91.4649 58.8191 91.4601 58.7152 91.4595L58.6865 91.4172C58.5786 91.3276 58.4704 91.238 58.3623 91.1482L58.3485 91.1364C58.2276 91.0368 58.1066 90.9372 57.9856 90.8376C57.2107 90.4233 56.4355 90.0086 55.6604 89.5938C55.414 89.4795 55.1678 89.3653 54.9215 89.2509C54.6057 89.1584 54.2899 89.0661 53.9744 88.974C54.0006 88.7232 54.0265 88.4726 54.0529 88.2218C54.0323 88.1206 54.0118 88.0188 53.9917 87.9176L54.0048 87.9281C53.9109 87.8166 53.8175 87.7059 53.7243 87.5945Z" fill="#AE0F16"/>
<path d="M65.035 76.2227C66.3639 76.523 67.4823 77.2547 68.3915 78.1604C68.9112 78.6786 69.2823 79.571 69.2867 80.2975C69.2963 81.8355 69.1515 83.4014 68.8308 84.9078C68.4424 86.7298 67.2738 88.1327 65.7146 89.2118C64.8706 88.9135 65.0238 88.21 65.0179 87.5758C65.0009 85.6552 65.1756 83.717 64.4745 81.8186C64.2066 81.7838 63.9357 81.7482 63.6641 81.7125C63.7248 80.9682 64.3159 81.1695 64.783 81.0883C66.1025 80.8582 67.4202 80.5978 68.2839 79.5028C68.2477 79.3723 68.2115 79.242 68.1755 79.1115C67.2287 79.2297 66.2826 79.348 65.3363 79.4662C65.2358 78.385 65.1354 77.3038 65.035 76.2227Z" fill="#5B0A0E"/>
<path d="M64.0051 65.7852C66.75 68.9416 69.2002 74.3916 68.8947 76.5678C64.203 75.4157 60.441 69.7377 64.0051 65.7852Z" fill="#C1917D"/>
<path d="M63.6626 81.7109C63.9337 81.7466 64.2051 81.7819 64.4725 81.8167C65.1741 83.7155 64.9994 85.6532 65.0164 87.5743C65.0218 88.2085 64.8691 88.9115 65.7131 89.2098C64.4753 90.3822 63.2375 91.5543 61.9997 92.7267C62.0041 92.1928 62.006 91.6587 62.0139 91.1248C62.0487 88.7637 60.9378 86.4809 61.5156 84.0743C61.5791 83.8094 61.3558 83.467 61.2299 83.1752C61.065 82.7939 60.8647 82.4274 60.6797 82.0545C61.6737 81.9401 62.6681 81.8253 63.6626 81.7109Z" fill="#8A0E13"/>
<path d="M52.3851 65.6786C48.8499 66.3649 45.2976 66.3041 41.7428 66.1393C41.6737 66.0006 41.6045 65.8614 41.5352 65.723C41.9214 65.3564 42.2426 64.8303 42.7055 64.6504C44.8548 63.8166 47.0156 62.9883 49.2285 62.3414C50.4266 61.991 51.7382 62.0081 52.9982 61.8594C53.2948 63.2084 52.652 64.4151 52.3851 65.6786Z" fill="#789B67"/>
<path d="M123.016 49.6596C121.468 49.6382 120.098 48.2558 120.082 46.6982C120.066 45.1041 121.558 43.6116 123.122 43.6573C124.658 43.7021 125.96 45.1179 125.939 46.7207C125.918 48.3306 124.575 49.6814 123.016 49.6596Z" fill="#F6F6F6"/>
<path d="M60.681 82.0547C60.8659 82.4278 61.0663 82.7941 61.2312 83.175C61.3571 83.4672 61.5804 83.8098 61.5168 84.0745C60.9395 86.4813 62.0505 88.7639 62.0152 91.125C62.0073 91.6589 62.0059 92.1932 62.0014 92.7271C60.8708 93.6457 60.8708 93.6457 60.0184 92.7476C59.9233 92.6443 59.828 92.5409 59.7325 92.4379L59.6884 92.3944C59.5924 92.3005 59.4964 92.2071 59.4004 92.1132C59.2771 91.9927 59.1538 91.8724 59.0307 91.7514C59.0253 91.6575 59.0253 91.5636 59.0307 91.4701C59.2145 91.1841 59.6267 90.7946 59.5469 90.6291C58.6582 88.7762 59.1578 86.8203 59.0083 84.9174C58.9417 84.0736 58.7918 83.2364 58.6797 82.396C59.1248 82.2864 59.57 82.1768 60.0151 82.0672C60.2372 82.0629 60.4591 82.059 60.681 82.0547Z" fill="#9F0F14"/>
<path d="M83.4692 54.9643C81.7482 54.963 80.7173 53.7842 80.7467 51.8511C80.7663 50.5607 82.0782 49.2613 83.3914 49.231C84.7544 49.1992 86.2068 50.5455 86.2225 51.854C86.2449 53.7556 85.1741 54.9655 83.4692 54.9643Z" fill="#F6F6F6"/>
<path d="M43.0461 80.8047C43.7441 83.6926 45.3252 86.1924 46.7443 88.7629C45.7596 89.1533 44.775 89.5442 43.6713 89.9823C43.1904 89.2297 42.7688 88.5703 42.3473 87.9109C42.3008 87.49 42.2767 87.0653 42.2029 86.6487C41.8636 84.7229 41.7749 82.8008 42.1763 80.8047H43.0461Z" fill="#5B0A0E"/>
<path d="M85.7408 87.8661C85.8414 87.875 85.9257 87.9152 85.9939 87.988C85.932 88.2752 85.8704 88.5626 85.7809 88.9753C84.4726 88.347 83.3296 87.6726 82.0962 87.2449C81.0955 86.898 79.9717 86.6456 78.9298 86.7197C77.8296 86.7986 76.8736 87.4261 76.5619 88.6431C76.531 88.7627 76.1952 88.8084 76.0011 88.8882C75.9733 87.8036 75.9458 86.719 75.918 85.6337C76.1819 84.8927 76.478 84.1758 77.3375 83.8945C77.7845 83.9041 78.231 83.9136 78.678 83.9232C79.1218 84.0582 79.5658 84.1931 80.0093 84.3279C80.8972 84.8757 81.7849 85.4234 82.6731 85.9716C82.7969 86.0646 82.9202 86.1576 83.0437 86.2506L83.0374 86.2463C83.1813 86.3359 83.3252 86.4255 83.4688 86.5155C83.548 86.5155 83.6176 86.5407 83.6774 86.5903C83.8226 86.6819 83.9672 86.774 84.112 86.8659L85.3493 87.5623C85.4797 87.6635 85.6104 87.7649 85.7408 87.8661Z" fill="#E1080C"/>
<path d="M82.0671 78.8093C81.7546 79.6078 82.3583 79.8757 82.9123 80.1244C87.2915 82.0889 91.6586 84.0883 96.4436 84.9878C96.9859 85.0894 97.5158 85.2529 98.0515 85.3882C98.0217 85.6112 97.9913 85.8341 97.9614 86.0571C93.3533 85.3882 88.9303 84.1692 84.8119 81.9869C82.7364 80.8864 80.6025 79.8913 78.5167 78.8093C77.9428 78.5114 77.4463 78.0719 76.9141 77.6976C76.9601 77.473 77.0061 77.2481 77.0516 77.0234C77.9251 77.4393 78.7988 77.8554 79.6723 78.2715C80.4708 78.4507 81.2686 78.6301 82.0671 78.8093Z" fill="#130A07"/>
<path d="M103.34 83.992C101.403 83.397 99.435 82.8826 97.536 82.1894C93.92 80.869 90.3397 79.4547 86.7522 78.0611C85.6339 77.6264 84.5258 77.4915 83.3839 77.9381C83.3653 77.678 83.3468 77.4176 83.3281 77.1577C84.4195 76.5447 85.5991 76.7046 86.6567 77.0668C89.601 78.0759 92.4991 79.213 95.4096 80.3142C96.1768 80.6048 96.9225 80.9486 97.6785 81.2676C97.7784 81.3194 97.8789 81.371 97.9788 81.4229C98.7974 81.7176 99.6211 81.9984 100.433 82.3101C102.223 82.9979 104.05 83.4918 106 83.4004C105.449 83.5004 104.898 83.6005 104.347 83.7001C104.012 83.7974 103.676 83.8947 103.34 83.992Z" fill="#28090C"/>
<path d="M43.0432 80.8049H42.1735C41.772 82.801 41.8608 84.723 42.2001 86.6489C42.2739 87.0655 42.298 87.4902 42.3445 87.9111C41.9864 87.5232 41.4747 87.1928 41.2956 86.7385C40.4418 84.5714 39.6519 82.3795 38.9008 80.1762C38.7172 79.6375 38.7682 79.0231 38.7109 78.4438C39.3742 78.2216 40.0368 77.9995 40.6998 77.7773C40.8245 79.1059 40.8245 79.1059 42.373 79.1364C42.5869 79.2767 42.8008 79.4167 43.0148 79.557C43.0241 79.9713 43.0334 80.386 43.0428 80.8008L43.0432 80.8049Z" fill="#3E0404"/>
<path d="M52.3906 65.6828C52.6576 64.4193 53.3003 63.2126 53.0037 61.8636C53.4542 61.8049 53.9052 61.7462 54.3559 61.6876C54.4648 61.6823 54.5738 61.6771 54.6827 61.6719H61.2972C59.3235 63.7524 56.9983 64.4472 54.6787 65.151C54.5696 65.1696 54.4608 65.189 54.3517 65.2076C53.698 65.3658 53.0443 65.5246 52.3906 65.6828Z" fill="#80A771"/>
<path d="M76.0311 94.7148C76.1329 95.4338 76.3036 96.1512 76.3232 96.8724C76.38 98.9818 76.9564 99.5086 79.0443 99.6044C80.618 99.6764 81.9102 98.9866 83.2928 98.4841C84.517 98.0389 85.7763 97.6846 87.02 97.2903C87.0587 97.4315 87.098 97.5732 87.137 97.7146L87.0671 97.7485C86.9431 97.8281 86.8193 97.9072 86.6953 97.9863C86.6152 98.0211 86.5323 98.0402 86.4447 98.0446C86.3062 98.1371 86.1675 98.2301 86.0286 98.3226C83.9168 99.4861 81.8562 100.752 79.6779 101.783C77.6932 102.723 76.8202 102.114 76.2695 100.556L76.3067 99.962C76.2347 99.6226 76.1628 99.2831 76.0909 98.9436C76.032 98.6162 75.9732 98.2888 75.9141 97.9616C75.9531 96.8795 75.9923 95.7969 76.0311 94.7148Z" fill="#E1080C"/>
<path d="M105.01 36.3606C102.094 38.3738 99.1783 40.387 96.1739 42.4612C95.6015 41.9682 95.0057 41.4553 94.1953 40.7574C96.6768 39.4698 99.0055 38.1822 101.411 37.0487C102.526 36.5237 103.79 36.2983 104.987 35.9375C104.995 36.0785 105.002 36.2197 105.01 36.3606Z" fill="#529238"/>
<path d="M65.0343 76.2216C65.1348 77.3027 65.2352 78.3839 65.3356 79.4651C63.6046 80.0085 61.8805 80.5877 60.0156 80.4508C60.3519 80.2259 60.6882 80.0012 60.8856 79.8698C60.8127 78.4574 60.748 77.1945 60.6833 75.9312C60.8034 75.8916 60.9239 75.8521 61.0439 75.8125C61.5853 75.833 62.1264 75.8534 62.6671 75.8737C63.1244 75.9869 63.5812 76.0999 64.0385 76.2125C63.872 76.2577 63.7059 76.3025 63.5394 76.3473C63.5693 76.4219 63.5987 76.4967 63.6281 76.571C63.868 76.4603 64.1081 76.3489 64.3479 76.2377L64.7562 76.1915C64.8508 76.1854 64.9433 76.1954 65.0343 76.2216Z" fill="#8A0E13"/>
<path d="M109.289 92.1214C109.334 91.6459 109.378 91.1707 109.434 90.5791C111.095 90.4185 112.726 90.2616 114.356 90.1047C114.61 90.037 114.864 89.9695 115.118 89.9021C116.622 89.6639 118.127 89.4256 119.631 89.1875C119.856 89.2848 120.082 89.3826 120.307 89.4799C117.633 91.002 114.778 92.0311 111.703 92.4535C110.945 92.5575 110.183 92.6418 109.423 92.7353C109.379 92.5306 109.334 92.3262 109.289 92.1214Z" fill="#529238"/>
<path d="M75.7992 46.9728C77.1544 46.9862 78.3096 48.0742 78.2769 49.3063C78.2444 50.5492 77.3023 51.3036 75.7674 51.3148C74.5525 51.3234 73.494 50.3636 73.473 49.2329C73.4499 48.0101 74.5305 46.96 75.7992 46.9728Z" fill="#F6F6F6"/>
<path d="M102.335 75.6401L101.362 75.6458C100.705 75.0714 100.03 75.0814 99.3398 75.5871C98.0132 75.4971 96.6864 75.407 95.3599 75.3174C95.1534 74.8975 94.9257 74.8372 94.6686 75.2783C93.5394 75.194 92.4104 75.1096 91.2817 75.0253C91.1967 74.9636 91.1016 74.9361 90.9958 74.9432C89.2996 74.6742 87.5968 74.4368 85.9133 74.1064C85.6205 74.0485 85.4094 73.5978 85.1602 73.3281C86.7892 73.4912 88.4174 73.6542 90.0464 73.8172C90.1635 73.8572 90.2805 73.8973 90.3975 73.9368C94.0175 74.1581 97.6377 74.3759 101.257 74.6058C101.63 74.6294 101.999 74.7244 102.37 74.7863C102.358 75.071 102.346 75.3554 102.335 75.6401Z" fill="#130A07"/>
<path d="M114.614 43.4533C114.577 42.2453 115.459 41.4283 116.852 41.381C118.251 41.3337 119.124 42.0931 119.149 43.3799C119.172 44.544 118.215 45.371 116.816 45.3962C115.566 45.4192 114.65 44.6102 114.614 43.4533Z" fill="#F6F6F6"/>
<path d="M90.7313 91.4881C91.2299 91.2369 91.7292 90.9856 92.3603 90.668C93.3087 92.532 92.9455 94.2758 92.8764 95.99C91.4814 96.449 90.7929 96.1407 90.7009 94.8774C90.6187 93.7542 90.7142 92.6186 90.7313 91.4881Z" fill="#AE0F16"/>
<path d="M123.973 82.5273C124.186 83.2029 123.599 83.3043 123.202 83.5199C120.63 84.918 117.797 85.4867 114.934 85.9457C114.294 86.0483 113.643 86.0865 112.996 86.1538C112.998 85.8671 112.999 85.5797 113.001 85.2923C115.358 84.7706 117.724 84.2845 120.068 83.7129C121.389 83.3907 122.673 82.9273 123.973 82.5273Z" fill="#130A07"/>
<path d="M79.1748 54.5735C79.1566 55.6208 78.4625 56.3086 77.4419 56.2911C76.5156 56.2754 75.762 55.4312 75.794 54.4457C75.8266 53.4553 76.6219 52.6872 77.5727 52.7281C78.5872 52.7716 79.1944 53.471 79.1748 54.5735Z" fill="#EAEAEA"/>
<path d="M80.4447 58.8459C80.4387 59.9123 79.8992 60.4248 78.802 60.4071C77.8068 60.3914 77.1807 59.7679 77.1419 58.7538C77.1043 57.7925 77.8937 57.0726 78.9753 57.0821C79.9314 57.0901 80.4515 57.7142 80.4447 58.8459Z" fill="#EAEAEA"/>
<path d="M116.675 50.2627C115.824 50.513 115.014 50.5651 114.544 49.6449C114.185 48.9444 114.342 48.2831 114.9 47.7329C115.537 47.106 116.444 47.0821 117.13 47.6476C117.835 48.2272 117.881 48.988 117.236 49.7552C117.065 49.9587 116.839 50.1174 116.638 50.2966L116.675 50.2627Z" fill="#EAEAEA"/>
<path d="M76.0342 94.7179C75.9955 95.8 75.9562 96.8826 75.9172 97.9647C75.7271 97.6984 75.3742 97.4342 75.3717 97.1663C75.3345 93.5881 75.3345 90.0094 75.3712 86.4309C75.374 86.1645 75.7297 85.9016 75.9214 85.6367C75.949 86.7218 75.9768 87.8066 76.0043 88.8912C76.0142 90.8337 76.0244 92.7755 76.0342 94.7179Z" fill="#130A07"/>
<path d="M116.641 50.2956C116.883 50.3265 117.126 50.3909 117.367 50.3829C118.74 50.3377 119.579 51.5755 118.967 52.7749C118.652 53.3913 118.098 53.6092 117.441 53.4543C116.608 53.2579 116.29 52.6424 116.356 51.8654C116.402 51.3258 116.566 50.7961 116.678 50.2617L116.641 50.2956Z" fill="#EAEAEA"/>
<path d="M71.3337 62.3735C70.6361 62.4956 69.9382 62.6172 69.189 62.7487C69.2352 62.9131 69.2894 63.1043 69.3434 63.2955C68.1203 63.1807 66.8972 63.0661 65.6743 62.9513C65.456 62.9651 65.2371 62.979 65.0188 62.9929C63.8844 63.0572 63.3975 62.3512 62.9727 61.4258C65.8287 61.7491 68.5811 62.0613 71.3337 62.3735Z" fill="#4D7E39"/>
<path d="M131.332 36.3594C133.879 36.7227 136.402 37.8896 137.402 39.3983C135.19 38.5499 133.279 37.8171 131.368 37.084C131.356 36.8428 131.344 36.6011 131.332 36.3594Z" fill="#4D7E39"/>
<path d="M109.271 93.8971C110.338 93.8245 111.404 93.7522 112.471 93.6797C112.496 93.7761 112.522 93.8727 112.548 93.9691C111.455 94.7204 110.364 95.4716 109.176 96.2893V94.3691C109.208 94.2117 109.239 94.0544 109.271 93.8971Z" fill="#EAEAEA"/>
<path d="M73.526 74.9249C72.6535 75.3382 72.1364 74.6518 71.5144 74.3028C70.9187 73.969 70.3334 73.6172 69.7435 73.2737C69.696 73.092 69.555 72.7973 69.6171 72.7495C69.8658 72.5556 70.1769 72.4387 70.4651 72.293C71.4853 73.1702 72.5056 74.0476 73.526 74.9249Z" fill="#130A07"/>
<path d="M110.97 80.116C110.332 81.0103 109.694 81.9048 109.056 82.7991C108.897 82.6431 108.737 82.4867 108.578 82.3305C108.803 82.0397 108.983 81.6979 109.259 81.4667C110.321 80.5785 110.612 79.4899 110.262 78.2031C110.404 78.5053 110.566 78.8004 110.681 79.1122C110.801 79.4382 110.876 79.7807 110.97 80.116Z" fill="#28090C"/>
<path d="M87.1374 97.715C87.0984 97.5738 87.0592 97.4322 87.0204 97.2907C86.9118 97.0738 86.8037 96.8569 86.6953 96.64C87.4691 96.4017 88.2426 96.1641 89.0163 95.9258C89.2062 96.0065 89.3954 96.087 89.6768 96.207C89.0829 97.2373 88.1085 97.4733 87.1374 97.715Z" fill="#8A0E13"/>
<path d="M109.272 93.8987C109.24 94.056 109.209 94.2134 109.177 94.3707C108.805 94.3798 108.433 94.3894 108.061 94.3987C108.008 94.2973 107.955 94.1956 107.902 94.0938C108.033 93.0001 108.163 91.9062 108.294 90.8125C108.421 91.0681 108.516 91.3468 108.686 91.5724C108.846 91.7854 109.085 91.9423 109.289 92.124C109.334 92.3284 109.379 92.5331 109.424 92.7375C108.443 93.114 108.431 93.207 109.272 93.8987Z" fill="#130A07"/>
<path d="M72.3424 70.7042C71.3536 70.4986 70.3645 70.2933 69.3754 70.0878C69.253 70.0794 69.1307 70.0712 69.0078 70.063C69.0108 69.7231 69.0136 69.3829 69.0167 69.043C70.1246 69.2879 71.2324 69.5325 72.3408 69.7769C72.3412 70.0859 72.3422 70.395 72.3424 70.7042Z" fill="#130A07"/>
<path d="M89.0146 95.9274C88.2408 96.1657 87.4673 96.4033 86.6936 96.6416C86.202 95.9913 86.3608 95.4005 87.1548 95.3805C87.909 95.3617 88.3506 94.8253 88.998 94.707C89.0034 95.114 89.0092 95.5204 89.0146 95.9274Z" fill="#130A07"/>
<path d="M83.1051 43.6133C83.0721 43.7729 83.039 43.933 83.0056 44.0924C82.4635 44.0765 81.921 44.048 81.3784 44.0464C80.3665 44.0433 79.3547 44.056 78.3423 44.0624C78.3402 43.9594 78.3393 43.8568 78.3402 43.7538C79.9283 43.7067 81.5167 43.6603 83.1051 43.6133Z" fill="#4D7E39"/>
<path d="M122.029 76.1719C122.749 76.741 123.468 77.3101 124.187 77.8793C124.169 78.1082 124.15 78.3379 124.099 78.9466C123.211 78.193 122.562 77.643 121.914 77.0928C121.953 76.7858 121.991 76.4788 122.029 76.1719Z" fill="#130A07"/>
<path d="M74.3598 95.293C74.4436 95.9767 74.4994 96.4324 74.609 97.3232C73.7521 96.715 73.1925 96.318 72.4688 95.8037C73.1582 95.6177 73.6498 95.4846 74.3598 95.293Z" fill="#B8CEB1"/>
<path d="M103.336 100.652C104.442 100.497 105.549 100.342 106.656 100.188C105.951 101.346 104.292 101.579 103.336 100.652Z" fill="#130A07"/>
<path d="M64.0312 30.8945C64.137 30.7842 64.2419 30.5784 64.3491 30.5775C66.2397 30.5607 68.1307 30.5627 70.0215 30.5855C70.1229 30.5868 70.221 30.8001 70.3212 30.9145C68.2246 30.9079 66.1276 30.9011 64.0312 30.8945Z" fill="#4D7E39"/>
<path d="M25.421 56.4562C25.2888 55.975 25.0877 55.4998 25.0405 55.0103C24.9735 54.3168 25.0833 53.6044 24.9861 52.918C24.949 52.6583 24.5452 52.448 24.3086 52.2154C24.5328 52.0114 24.7565 51.8077 25.2575 51.3516C25.3138 52.4571 25.3673 53.2645 25.3923 54.0726C25.417 54.8668 25.4123 55.6615 25.421 56.4562Z" fill="#4D7E39"/>
<path d="M113.038 39.9556C112.876 39.7969 112.713 39.6382 112.551 39.4795C113.277 38.9445 114.038 38.5084 115.183 38.568C114.605 39.4475 113.724 39.5623 113.038 39.9556Z" fill="#B8CEB1"/>
<path d="M108.576 82.332C108.735 82.488 108.895 82.6447 109.054 82.8007C108.818 83.204 108.583 83.6076 108.347 84.011C107.773 83.7902 107.199 83.5692 106.625 83.3484C107.275 83.0098 107.926 82.6706 108.576 82.332Z" fill="#130A07"/>
<path d="M99.6699 99.2656C100.117 99.4744 100.564 99.6831 101.011 99.8918C100.899 100.209 100.787 100.527 100.675 100.845C100.229 100.644 99.7825 100.444 99.3359 100.243C99.4476 99.9173 99.5587 99.5917 99.6699 99.2656Z" fill="#130A07"/>
<path d="M71.9258 45.9996C72.8362 45.5155 73.7468 45.0312 74.6571 44.5469C74.7466 44.6585 74.8358 44.7702 74.925 44.882C74.0588 45.3727 73.1925 45.8632 72.3263 46.3541C72.1927 46.2358 72.0591 46.1178 71.9258 45.9996Z" fill="#B8CEB1"/>
<path d="M78.3413 43.7578C78.3406 43.8606 78.3413 43.9636 78.3441 44.0661C77.2054 44.3392 76.0668 44.6116 74.928 44.8842C74.8388 44.7726 74.7496 44.6607 74.6602 44.5491C75.8872 44.2851 77.1143 44.0218 78.3413 43.7578Z" fill="#80A771"/>
<path d="M120.672 36.3297C121.893 35.8381 123.112 35.8254 124.331 36.3363C123.112 36.334 121.892 36.332 120.672 36.3297Z" fill="#4D7E39"/>
<path d="M117.668 38.2856C116.935 38.4525 116.203 38.6194 115.471 38.7863C115.437 38.6594 115.402 38.533 115.367 38.4059C116.067 38.0655 116.825 37.8977 117.652 37.94C117.657 38.0551 117.662 38.1704 117.668 38.2856Z" fill="#B8CEB1"/>
<path d="M103.34 83.9912C103.676 83.8939 104.012 83.7965 104.347 83.6992C104.591 83.8552 104.834 84.0112 105.231 84.2656C104.759 84.4068 104.361 84.5255 103.963 84.6447C103.755 84.4268 103.547 84.209 103.34 83.9912Z" fill="#130A07"/>
<path d="M76.6762 62.2812C75.5867 62.8404 74.4757 62.7046 73.3594 62.3763C74.465 62.3447 75.5706 62.3129 76.6762 62.2812Z" fill="#4D7E39"/>
<path d="M85.8085 39.8684C84.7601 39.7872 83.6549 40.2679 82.668 39.5703C83.7147 39.6697 84.7617 39.7688 85.8085 39.8684Z" fill="#529238"/>
<path d="M109.672 70.4116C110.649 69.8181 111.649 69.9593 112.657 70.3206C111.662 70.3511 110.667 70.3811 109.672 70.4116Z" fill="#4D7E39"/>
<path d="M107.014 85.0131C106.565 85.0902 106.117 85.167 105.668 85.2441C105.963 84.3203 106.464 84.5315 107.014 85.0131Z" fill="#130A07"/>
<path d="M78.6804 83.9208C78.2334 83.9113 77.7869 83.9017 77.3398 83.8922C77.9162 83.1434 78.1477 83.1482 78.6804 83.9208Z" fill="#130A07"/>
<path d="M120.004 37.6836C120.021 37.8202 120.038 37.9562 120.054 38.0926C119.594 38.144 119.133 38.195 118.672 38.2461C118.665 38.0911 118.659 37.9358 118.652 37.7807C119.103 37.7484 119.554 37.7159 120.004 37.6836Z" fill="#CE9BB0"/>
<path d="M130.993 34.4281L130.988 33.7773C131.4 33.977 131.812 34.1762 132.223 34.3756C132.189 34.4922 132.156 34.6091 132.121 34.7255C131.746 34.6264 131.369 34.5272 130.993 34.4281Z" fill="#4D7E39"/>
<path d="M43.3457 55.4604C43.2394 55.1673 43.1336 54.8742 43.0273 54.5816C43.4435 54.5595 43.8602 54.5372 44.2764 54.5156C44.3245 54.6143 44.3728 54.713 44.4205 54.8121C44.0624 55.0281 43.7039 55.2441 43.3457 55.4604Z" fill="#4D7E39"/>
<path d="M129.656 36.9351C129.661 36.6261 129.665 36.3168 129.67 36.0078C130.035 36.0942 130.399 36.1813 130.764 36.2682C130.619 36.5155 130.475 36.7625 130.33 37.0099C130.106 36.9851 129.881 36.9598 129.656 36.9351Z" fill="#4D7E39"/>
<path d="M107.33 76.1457C106.886 76.0727 106.443 75.9997 106 75.9268C106.565 75.2994 106.957 75.6657 107.33 76.1457Z" fill="#28090C"/>
<path d="M107.904 94.0898C107.958 94.1917 108.01 94.2933 108.063 94.3948C107.951 95.0723 107.839 95.7497 107.727 96.4275C107.785 95.6481 107.845 94.8691 107.904 94.0898Z" fill="#C10202"/>
<path d="M94.3476 57.7654C94.3436 57.5376 94.3399 57.3102 94.3359 57.0826C94.6494 56.9639 94.963 56.8453 95.2769 56.7266L95.3631 56.7957C95.0247 57.119 94.686 57.4421 94.3476 57.7654Z" fill="#4D7E39"/>
<path d="M130.332 37.0112C130.476 36.7639 130.621 36.5169 130.765 36.2695C130.954 36.3005 131.143 36.3309 131.332 36.3618C131.344 36.6035 131.356 36.8448 131.368 37.0865C131.023 37.0613 130.677 37.0365 130.332 37.0112Z" fill="#529238"/>
<path d="M113.345 71.3947C113.008 71.439 112.67 71.4833 112.332 71.5277C112.582 70.8492 112.929 70.8769 113.345 71.3947Z" fill="#130A07"/>
<path d="M109 74.5961C109.34 74.5547 109.681 74.514 110.021 74.4727C109.755 75.0966 109.411 75.1086 109 74.5961Z" fill="#28090C"/>
<path d="M93.6781 70.9199C93.3413 70.8574 93.0045 70.7947 92.668 70.7326C93.1175 70.2178 93.469 70.2064 93.6781 70.9199Z" fill="#130A07"/>
<path d="M105.012 36.3565C105.004 36.2156 104.996 36.0744 104.988 35.9334C105.249 35.854 105.511 35.7749 105.771 35.6953C105.806 35.7769 105.84 35.8588 105.874 35.9404C105.587 36.0791 105.299 36.2178 105.012 36.3565Z" fill="#4D7E39"/>
<path d="M118.65 37.7812C118.657 37.9365 118.663 38.0916 118.67 38.2465C118.335 38.2594 118 38.2726 117.665 38.2851C117.66 38.1698 117.654 38.0548 117.648 37.9395C117.983 37.887 118.316 37.8338 118.65 37.7812Z" fill="#EAEAEA"/>
<path d="M120.313 89.479C120.088 89.3817 119.862 89.2842 119.637 89.1864C119.999 89.0647 120.361 88.9426 120.723 88.8203C120.767 88.9051 120.811 88.9899 120.855 89.0748C120.674 89.2096 120.494 89.3442 120.313 89.479Z" fill="#4D7E39"/>
<path d="M69.008 70.0625C69.1304 70.0707 69.2532 70.0791 69.3756 70.0873C69.3522 70.4081 69.3296 70.7285 69.3065 71.0489C68.9804 70.7851 68.3562 70.6068 69.008 70.0625Z" fill="#28090C"/>
<path d="M98.9637 86.5969C98.7002 86.619 98.4366 86.6413 98.1731 86.6638C98.1519 86.5265 98.1309 86.3896 98.1094 86.2525C98.3889 86.38 98.9882 85.7561 98.9637 86.5969Z" fill="#5B0A0E"/>
<path d="M88.9961 94.7102C89.1168 94.498 89.2369 94.2864 89.3574 94.0742C89.9401 94.664 89.4008 94.6511 88.9961 94.7102Z" fill="#130A07"/>
<path d="M87.6816 69.9682C87.4529 69.9059 87.2243 69.8443 86.9961 69.782C87.3992 69.2347 87.5807 69.4607 87.6816 69.9682Z" fill="#130A07"/>
<path d="M119.337 70.7227C119.113 70.7745 118.888 70.8262 118.664 70.878C118.787 70.4114 118.98 70.2298 119.337 70.7227Z" fill="#130A07"/>
<path d="M76.3088 99.9637L76.2712 100.558C75.8163 100.474 75.4442 100.359 76.0211 99.9023C76.1185 99.9167 76.2145 99.9371 76.3088 99.9637Z" fill="#130A07"/>
<path d="M74.3281 31.8636C74.4484 31.7344 74.5689 31.6057 74.689 31.4766C74.7735 31.6296 74.8578 31.7822 74.9417 31.9347L74.3281 31.8636Z" fill="#4D7E39"/>
<path d="M76.3073 99.9635C76.2129 99.9369 76.1169 99.9164 76.0195 99.9021C76.0436 99.5831 76.0674 99.2641 76.0915 98.9453C76.1634 99.2843 76.2353 99.624 76.3073 99.9635Z" fill="#C10202"/>
<path d="M135.329 51.911C135.196 51.7876 135.063 51.6646 134.93 51.5411C135.142 51.482 135.355 51.4224 135.567 51.3633C135.488 51.5459 135.409 51.7284 135.329 51.911Z" fill="#4D7E39"/>
<path d="M99.345 71.3993C99.0115 71.3822 98.678 71.3649 98.3438 71.3479C98.7015 70.9202 99.036 70.9254 99.345 71.3993Z" fill="#130A07"/>
<path d="M128.91 51.875C128.936 52.0142 128.964 52.1531 128.99 52.2922C128.844 52.3805 128.698 52.4685 128.552 52.5567C128.432 52.4257 128.312 52.2954 128.191 52.1649C128.431 52.0685 128.67 51.9714 128.91 51.875Z" fill="#80A771"/>
<path d="M95.3203 56.3974C95.4948 56.3287 95.6695 56.2601 95.8437 56.1914C95.8231 56.2792 95.8026 56.3676 95.7816 56.4554C95.6279 56.4363 95.4738 56.4167 95.3203 56.3974Z" fill="#1F1F1F"/>
<path d="M62.4284 94.4789C62.2645 94.5581 62.101 94.6367 61.9373 94.7159C61.9032 94.652 61.8698 94.5885 61.8359 94.5249C61.9824 94.4542 62.1283 94.3832 62.2748 94.3125C62.3252 94.3684 62.3766 94.4237 62.4284 94.4789Z" fill="#539437"/>
<path d="M67.7422 68.9844C67.8396 69.018 67.9297 69.0644 68.0129 69.1244C67.9374 69.1731 67.8615 69.2218 67.7861 69.2704C67.7714 69.1754 67.7569 69.0796 67.7422 68.9844Z" fill="#28090C"/>
<path d="M113.012 88.9455C113.115 88.8916 113.222 88.8841 113.333 88.9225C113.226 88.9302 113.119 88.9377 113.012 88.9455Z" fill="#130A07"/>
<path d="M71.6875 78.8008C71.833 78.9047 71.979 79.0082 72.1247 79.1116C71.979 79.0082 71.833 78.9042 71.6875 78.8008Z" fill="#130A07"/>
<path d="M71.1758 46.5286C71.3056 46.4656 71.4362 46.4031 71.566 46.3398C71.6081 46.5076 71.6499 46.6755 71.6924 46.8433C71.52 46.7387 71.3481 46.6334 71.1758 46.5286Z" fill="#F6F6F6"/>
<path d="M59.0312 91.4723C59.0259 91.5662 59.0259 91.6601 59.0312 91.754C58.9273 91.6548 58.8227 91.5562 58.7188 91.457C58.8231 91.4579 58.9273 91.4632 59.0312 91.4723Z" fill="#8A0E13"/>
<path d="M95.3171 56.3945C95.4705 56.4139 95.6246 56.4334 95.7783 56.4525C95.6403 56.5676 95.5018 56.6824 95.3635 56.7972L95.2773 56.7281C95.2902 56.6167 95.3035 56.5059 95.3171 56.3945Z" fill="#4D7E39"/>
<path d="M130.293 57.3835C130.366 57.3391 130.438 57.2943 130.511 57.25C130.471 57.3257 130.43 57.4008 130.389 57.4765L130.293 57.3835Z" fill="#539836"/>
<path d="M101.331 71.6133L101.173 71.6472L101.02 71.5977C101.123 71.6029 101.227 71.6081 101.331 71.6133Z" fill="#130A07"/>
<path d="M78.9714 67.9533C78.878 67.9012 78.7848 67.8489 78.6914 67.7969C78.8065 67.8126 78.9004 67.8646 78.9714 67.9533Z" fill="#130A07"/>
<path d="M86.6953 97.9878C86.8196 97.9087 86.9436 97.8291 87.0674 97.75C86.9431 97.8291 86.8196 97.9087 86.6953 97.9878Z" fill="#8A0E13"/>
<path d="M97.1137 102.176C97.8393 102.165 98.5306 102.89 98.5315 103.661C98.532 104.433 97.7305 105.296 97.0065 105.303C96.2958 105.311 95.6339 104.583 95.6213 103.78C95.6075 102.93 96.2979 102.188 97.1137 102.176Z" fill="#1F1F1F"/>
<path d="M82.0095 73.3129C80.664 73.0299 79.3183 72.747 77.9729 72.4639C77.8974 72.3852 77.8045 72.3423 77.6938 72.3348C76.6935 72.0644 75.6932 71.7941 74.6932 71.5237C74.9596 71.1449 73.7459 71.1254 74.4659 70.6367C77.6018 71.3714 80.7397 72.0983 83.8711 72.8518C84.2149 72.9344 84.5204 73.1686 84.8436 73.333C84.0365 74.1954 83.159 73.546 82.3068 73.4439C82.2078 73.4003 82.1088 73.3564 82.0095 73.3129Z" fill="#130A07"/>
<path d="M74.4644 70.6382C73.7451 71.1268 74.9584 71.1464 74.6917 71.5252C73.9086 71.2517 73.1248 70.9781 72.3417 70.7048C72.3408 70.3956 72.3403 70.0866 72.3398 69.7773C73.048 70.0643 73.7563 70.3512 74.4644 70.6382Z" fill="#28090C"/>
<path d="M82.0706 78.8112C81.2721 78.632 80.4743 78.4526 79.6758 78.2734C80.5577 78.0194 81.44 77.7657 82.3219 77.5117C82.4587 77.77 82.5954 78.0283 82.732 78.2868C82.5113 78.4617 82.2913 78.6363 82.0706 78.8112Z" fill="#5B0A0E"/>
<path d="M99.3398 75.5827C100.03 75.0772 100.705 75.0672 101.362 75.6418L99.3398 75.5827Z" fill="#28090C"/>
<path d="M74.9916 76.6073C74.528 76.273 74.0652 75.9381 73.6016 75.6039C73.8543 75.4809 74.1074 75.3574 74.3604 75.2344C74.5897 75.4083 74.8197 75.5823 75.0493 75.7564C75.0299 76.04 75.0108 76.3237 74.9916 76.6073Z" fill="#28090C"/>
<path d="M82.7304 78.2861C82.5938 78.0278 82.4572 77.7693 82.3203 77.511C82.6566 77.3941 82.9929 77.277 83.3292 77.1602C83.3479 77.4205 83.3661 77.6806 83.3851 77.941C83.1667 78.0558 82.9488 78.1708 82.7304 78.2861Z" fill="#130A07"/>
<path d="M74.9922 76.6047C75.0113 76.3212 75.0305 76.0374 75.0499 75.7539C75.5597 76.0975 76.0698 76.4413 76.5796 76.7851C76.2428 76.836 75.9058 76.8869 75.5686 76.9379C75.3766 76.8269 75.1842 76.7155 74.9922 76.6047Z" fill="#130A07"/>
<path d="M75.5664 76.9416C75.9036 76.8907 76.2402 76.8398 76.5774 76.7891C76.736 76.8686 76.8939 76.9482 77.0525 77.0276C77.0065 77.2525 76.9609 77.4771 76.9149 77.702C76.4653 77.4485 76.016 77.1952 75.5664 76.9416Z" fill="#28090C"/>
<path d="M94.668 75.2771C94.9258 74.836 95.1535 74.8962 95.3597 75.3162C95.129 75.3032 94.8985 75.2903 94.668 75.2771Z" fill="#28090C"/>
<path d="M74.3583 75.2306C74.1056 75.3536 73.8524 75.4771 73.5995 75.6001C73.5714 75.3727 73.5437 75.1453 73.5156 74.918C73.7966 75.0223 74.0773 75.1262 74.3583 75.2306Z" fill="#130A07"/>
<path d="M77.6914 72.3359C77.8021 72.3434 77.8951 72.3864 77.9705 72.4651C77.8775 72.4221 77.7844 72.3791 77.6914 72.3359Z" fill="#28090C"/>
<path d="M90.9961 74.9386C91.1019 74.9315 91.1972 74.9588 91.282 75.0211C91.1869 74.9932 91.0914 74.9659 90.9961 74.9386Z" fill="#28090C"/>
<path d="M87.6814 92.3486C87.0483 92.2506 86.4147 92.1528 85.793 92.0568C85.9784 90.6996 86.0851 90.6564 87.6765 91.1555C87.6784 91.553 87.6796 91.9507 87.6814 92.3486Z" fill="#130A07"/>
<path d="M87.6807 92.3532C87.6788 91.9553 87.6776 91.5576 87.6758 91.1602C87.8955 91.1977 88.1156 91.2354 88.3353 91.2732C88.3372 91.6602 88.3384 92.0472 88.3402 92.4339C88.1205 92.4071 87.9005 92.38 87.6807 92.3532Z" fill="#080B07"/>
<path d="M124.627 78.6797C126.51 79.6592 126.643 81.0699 124.962 82.2211C124.881 82.0967 124.7 81.9326 124.733 81.855C125.095 81.0151 124.939 80.2593 124.494 79.4876C124.386 79.3013 124.575 78.9532 124.627 78.6797Z" fill="#130A07"/>
<path d="M42.0553 77.1418C42.0455 75.4228 42.0054 73.7034 42.0434 71.9858C42.0558 71.4146 42.227 70.835 42.3994 70.2809C42.6707 69.4091 43.2525 68.9405 44.2547 69.0619C45.229 69.1802 46.2435 69.1292 47.1798 69.3723C48.7958 69.7913 49.626 70.9389 49.6818 72.5435C49.7099 73.3487 49.6634 74.1574 49.7229 74.9594C49.747 75.2921 49.9595 75.6115 50.0868 75.9371C50.0466 76.0244 49.9974 76.1072 49.939 76.1845C47.3503 76.1963 44.8189 76.594 42.3265 77.2543C42.238 77.2127 42.1478 77.1747 42.0553 77.1418Z" fill="#B8CEB1"/>
<path d="M49.9375 76.1838C49.9957 76.1063 50.0452 76.0237 50.0853 75.936C51.9509 75.8803 53.817 75.825 55.6825 75.7695C56.0139 75.8182 56.3449 75.8668 56.6763 75.9155C56.1127 76.0212 55.5536 76.1738 54.9852 76.2211C54.2467 76.2829 53.5014 76.2607 52.531 76.2791C52.7092 77.9462 52.8606 79.3621 53.0119 80.7784C52.2382 80.7823 51.4647 80.7868 50.6909 80.7912C50.5872 80.7698 50.4824 80.7555 50.3766 80.748C50.2304 79.2266 50.0839 77.7054 49.9375 76.1838Z" fill="#9F0F14"/>
<path d="M42.054 77.1445C42.1465 77.1775 42.2367 77.2155 42.3252 77.2571C42.3408 77.8844 42.3565 78.5122 42.3726 79.1395C40.8239 79.1091 40.8239 79.1091 40.6992 77.7805C41.1507 77.5684 41.6026 77.3567 42.054 77.1445Z" fill="#5B0A0E"/>
<path d="M53.0117 80.7758C52.8603 79.3597 52.709 77.9434 52.5312 76.2762C53.5012 76.258 54.2469 76.2801 54.9849 76.2185C55.5534 76.171 56.1125 76.0184 56.676 75.9129C57.2319 75.912 57.7882 75.9111 58.3443 75.9102C58.6752 77.4256 58.9646 78.9443 58.7042 80.5032C57.6936 80.6735 56.6826 80.844 55.6722 81.0143C55.5655 81.0148 55.4592 81.0152 55.3525 81.0157C54.9153 81.0362 54.4776 81.0566 54.04 81.0771C53.9174 80.9961 53.7945 80.9152 53.6712 80.8345C53.4517 80.8149 53.2314 80.7954 53.0117 80.7758Z" fill="#AE0F16"/>
<path d="M58.7076 80.5034C58.9673 78.944 58.6784 77.4256 58.3477 75.9102C59.1258 75.917 59.9047 75.9236 60.6834 75.9302C60.7481 77.1935 60.8132 78.4563 60.8856 79.8688C60.6887 80.0004 60.3524 80.2249 60.0164 80.4495C59.5801 80.4675 59.1438 80.4857 58.7076 80.5034Z" fill="#9F0F14"/>
<path d="M64.3476 76.2397C64.1078 76.3509 63.8677 76.4623 63.6278 76.5735C63.5984 76.4987 63.569 76.4239 63.5391 76.349C63.7056 76.3043 63.8716 76.2597 64.0377 76.2144C64.144 76.1878 64.2476 76.196 64.3476 76.2397Z" fill="#5B0A0E"/>
<path d="M97.2631 96.1753C97.417 95.2662 96.8572 94.8999 96.0748 94.7373C95.752 94.6703 95.3316 94.7946 95.0974 94.6355C94.6901 94.3585 94.1975 93.9718 94.099 93.5518C93.9815 93.0504 94.2842 92.5361 94.9657 92.3706C95.781 92.1723 96.5732 91.8819 97.5912 91.5636C97.1374 91.0454 96.9048 90.7794 96.6722 90.5133C96.6897 90.4076 96.6776 90.2255 96.7289 90.2064C99.8597 89.0556 102.832 87.3371 106.369 87.6359C106.469 87.6441 106.562 87.7346 106.908 87.9219C107.029 88.5688 107.296 89.3903 107.314 90.2173C107.362 92.4126 107.506 94.6164 106.688 96.7544C106.257 97.8831 105.965 98.2742 104.692 98.2612C103.82 98.2521 102.896 98.2112 102.092 97.9247C100.481 97.3497 98.617 97.414 97.2631 96.1753Z" fill="#C10202"/>
<path d="M58.7069 80.5034C59.1432 80.4857 59.5794 80.4675 60.0157 80.4495C61.8799 80.5866 63.6039 80.0075 65.3352 79.4641C66.2813 79.3458 67.2281 79.2276 68.1742 79.1094C68.2104 79.2397 68.2466 79.3702 68.2831 79.5007C67.4192 80.5957 66.1015 80.8561 64.7819 81.0862C64.3148 81.1674 63.7235 80.9661 63.6633 81.7108C62.6688 81.8252 61.6746 81.9395 60.6801 82.0541C60.458 82.0582 60.2366 82.0626 60.0148 82.0669C59.4561 82.0755 58.8979 82.0842 58.3398 82.093C56.8969 82.1869 55.4543 82.2811 54.0114 82.3754C53.081 82.3215 52.1503 82.2681 51.2203 82.2147C51.0412 82.1569 50.8625 82.0989 50.6836 82.0412C50.6866 81.6239 50.6901 81.206 50.6934 80.7888C51.4671 80.7845 52.2407 80.7799 53.0144 80.7761C53.2342 80.7956 53.4542 80.8147 53.6739 80.8343C53.7968 80.9157 53.9196 80.9966 54.0427 81.0773C54.4804 81.0569 54.9176 81.0366 55.355 81.0162L55.515 81.0544L55.6745 81.0143C56.6853 80.8443 57.6959 80.674 58.7069 80.5034Z" fill="#3E0404"/>
<path d="M50.6926 80.7933C50.6893 81.2105 50.6858 81.6284 50.6828 82.0456C48.1366 81.6309 45.59 81.2166 43.0439 80.8023C43.0345 80.3876 43.025 79.9733 43.0156 79.5586C45.4697 79.9554 47.9241 80.3528 50.3782 80.75C50.484 80.7576 50.5889 80.7723 50.6926 80.7933Z" fill="#5B0A0E"/>
<path d="M51.2188 82.2148C52.1494 82.2683 53.0799 82.3217 54.0106 82.3751L53.3251 86.6639C52.666 85.4566 52.007 84.249 51.3481 83.0416C51.3353 82.9286 51.3224 82.8151 51.3098 82.7021C51.2795 82.5395 51.2491 82.3774 51.2188 82.2148Z" fill="#9F0F14"/>
<path d="M53.9899 87.9141C54.0105 88.0155 54.0306 88.1171 54.0511 88.2183C54.0026 88.1223 53.982 88.0209 53.9899 87.9141Z" fill="#9F0F14"/>
<path d="M58.3398 82.0962C58.898 82.0876 59.456 82.079 60.0141 82.0703C59.569 82.1799 59.1239 82.2893 58.6787 82.3984C58.5657 82.2981 58.4526 82.1972 58.3398 82.0962Z" fill="#8A0E13"/>
<path d="M50.376 80.7519C47.9219 80.3544 45.4678 79.9576 43.0137 79.5602C42.7997 79.4201 42.5853 79.2798 42.3714 79.1398C42.356 78.512 42.3403 77.8846 42.3242 77.2573C44.8166 76.597 47.3481 76.1993 49.9372 76.1875C50.0831 77.7091 50.2296 79.2303 50.376 80.7519Z" fill="#AC6E70"/>
<path d="M55.6747 81.0156L55.5154 81.0552L55.3555 81.0168C55.4617 81.0163 55.5685 81.0161 55.6747 81.0156Z" fill="#9F0F14"/>
</svg>
