<svg width="150" height="110" viewBox="0 0 150 110" fill="none" xmlns="http://www.w3.org/2000/svg">
<g clip-path="url(#clip0_1054_544)">
<path d="M52.4648 57.1682L55.905 37.674L81.706 29.7617C93.1732 30.2586 117.461 31.3442 122.873 31.7111C128.286 32.0781 132.62 35.8393 134.111 37.674L136.978 46.9624L129.868 54.8747H122.185L82.8528 68.0619L52.4648 57.1682Z" fill="white"/>
<path d="M47.9333 26.6385L57.4401 22.9414L56.3838 43.5396L40.5391 45.124V36.6735L47.9333 26.6385Z" fill="white"/>
<path d="M140.197 110.214C139.566 110.238 138.935 110.282 138.304 110.282C95.9149 110.285 53.5257 110.285 11.137 110.285H9.125V106.288C9.56259 106.068 9.90798 105.827 9.34723 105.367C9.3954 105.042 9.44356 104.717 9.49195 104.393C9.59194 104.208 9.69171 104.023 9.79193 103.839C10.7999 99.8933 11.8195 95.9502 12.8105 92.0003C13.2488 90.2529 13.6293 88.4911 14.0912 86.497C14.9031 86.8534 15.4854 87.0533 16.0126 87.3508C17.6572 88.2789 19.2337 89.3399 20.9224 90.1768C26.2461 92.8158 31.8031 94.834 37.6821 95.8002C40.8465 96.3204 44.0463 96.7424 47.2454 96.9006C51.1589 97.094 55.0949 97.1135 59.0093 96.9392C64.6743 96.6862 70.3288 96.1954 75.9871 95.7986C77.8102 95.6707 79.6318 95.5266 81.453 95.3764C85.6587 95.029 89.8621 94.657 94.0694 94.3269C96.3954 94.1448 98.7457 94.1646 101.052 93.8524C105.82 93.2066 110.366 91.7654 114.747 89.7575C118.064 88.2381 121.439 86.8405 124.82 85.4677C125.526 85.181 126.374 85.2418 127.17 85.1406C127.62 86.0816 128.04 86.7919 128.31 87.5549C128.931 89.3078 129.983 90.7886 131.104 92.2353C132.53 94.0774 134.041 95.8612 135.372 97.7708C137.981 101.517 140.382 105.374 140.197 110.214Z" fill="#0542F3"/>
<path d="M118.299 26.178C116.717 25.9938 115.412 25.7379 114.102 25.7078C109.321 25.5989 104.546 25.5042 99.8023 26.413C95.0299 27.3274 90.8364 29.3968 86.8039 32.406C88.2437 32.8612 89.5216 33.1837 90.7336 33.6683C92.4422 34.3515 93.9256 33.8424 95.3888 33.017C96.1546 32.5847 96.9023 32.1209 97.6699 31.6927C102.043 29.2535 106.907 29.0633 111.714 28.7955C114.212 28.6562 116.734 28.9668 119.246 29.0615C119.91 29.0867 120.576 29.0654 121.397 29.0654C120.243 27.9898 119.238 27.0529 118.299 26.178ZM127.164 66.232C126.562 65.9359 126.076 64.9415 125.263 65.9153C123.864 65.8038 122.465 65.6923 121.066 65.5811C121.075 65.1724 121.083 64.7633 121.093 64.3541C122.623 64.416 124.154 64.478 125.684 64.5397C125.822 64.6023 125.96 64.6649 126.097 64.7277C127.236 64.738 128.38 64.8156 129.513 64.7419C130.824 64.6571 132.067 63.1725 132.049 61.8584C132.03 60.398 131.334 59.6306 129.792 59.4049C128.923 59.2774 128.051 59.1556 127.177 59.0804C124.628 58.8609 122.136 59.3728 119.716 60.0023C114.211 61.4346 108.613 62.1192 102.959 62.413C98.5451 62.6428 94.1208 62.6827 89.7048 62.8888C88.2088 62.9586 86.7199 63.2521 85.2356 63.4895C82.0145 64.0048 78.8108 64.6463 75.5766 65.0545C72.4582 65.4483 69.3103 65.6075 66.1763 65.8836C64.8716 65.9985 63.7937 66.6551 63.4279 67.8697C63.0389 69.1605 63.1859 70.5381 64.34 71.5197C64.9115 72.0064 65.5493 72.4277 66.1997 72.8059C70.882 75.5268 76.0364 76.1169 81.3155 76.0625C83.013 76.0453 84.7084 75.8573 86.4064 75.7891C90.3805 75.6297 94.3563 75.5176 98.3297 75.3405C99.9633 75.2674 101.622 75.2289 103.215 74.9066C106.408 74.2613 109.561 73.4177 112.737 72.687C113.527 72.5054 114.344 72.3513 115.15 72.3419C118.492 72.3034 121.82 72.3612 125.132 73.0049C126.514 73.2739 127.992 73.0496 129.587 73.0496C129.934 71.7337 130.356 70.5484 130.544 69.3276C130.84 67.4023 130.105 66.5693 128.109 66.3134C127.796 66.273 127.479 66.2586 127.164 66.232ZM75.5418 77.2482C75.2853 77.1528 75.0289 77.0576 74.7725 76.9625C73.9719 76.8056 73.166 76.673 72.3722 76.4868C69.4188 75.7933 66.5325 74.8865 64.0808 73.0359C62.4995 71.8424 61.5197 70.2301 61.8472 68.1417C62.1323 66.3226 63.435 65.3346 65.0383 64.7293C65.9103 64.4009 66.8318 64.1115 67.7524 64.0218C70.8783 63.7175 74.0205 63.573 77.1437 63.2452C79.4452 63.0037 81.7235 62.5485 84.0178 62.2309C86.3775 61.9038 88.7391 61.5681 91.11 61.3481C93.1755 61.1569 95.2556 61.1147 97.3295 61.019C100.54 60.8706 103.758 60.8165 106.96 60.5633C109.455 60.3661 111.939 59.9799 114.412 59.5806C117.564 59.0717 120.694 58.4242 123.846 57.9167C125.512 57.6488 127.205 57.5518 128.973 57.3686C129.658 55.3517 130.804 53.5833 132.487 52.1847C132.744 51.946 133.001 51.7077 133.258 51.4692C134.013 50.7589 135.315 50.625 135.514 49.3297C136.999 47.6924 138.033 45.7613 137.725 43.5656C136.888 37.6054 133.715 34.2391 127.159 33.2481L127.184 33.2658C126.672 32.9002 126.161 32.5347 125.649 32.1691C124.186 30.6403 122.204 30.6969 120.365 30.6508C115.686 30.5336 111.002 30.5974 106.32 30.6105C105.762 30.6123 105.206 30.7703 104.646 30.8219C101.529 31.1095 98.8916 32.5732 96.3739 34.2637C94.0745 35.8076 91.6983 35.9746 89.2026 34.9237C86.0321 33.5885 82.6651 33.2708 79.2979 32.9374C76.9334 32.906 74.5682 32.8594 72.2037 32.8592C71.8698 32.8587 71.5358 33.0807 71.2017 33.1995C70.5721 33.2374 69.8999 33.1447 69.3199 33.3346C66.5102 34.2547 63.704 35.2148 61.2961 37.0064C59.6825 38.2074 58.1039 39.4558 56.5263 40.7034C55.9529 41.1568 55.4073 41.5276 54.6168 40.9151C54.7216 40.6362 54.7436 40.2546 54.9422 40.0981C57.2141 38.3134 59.3942 36.3722 61.8365 34.854C64.4952 33.2014 67.3478 31.787 70.6148 31.6826C73.574 31.5879 76.5339 31.4272 79.4924 31.4515C80.9841 31.4636 82.4725 31.8205 84.1428 32.0459C85.1712 31.3792 86.2865 30.5488 87.4969 29.8933C89.9241 28.579 92.2945 27.0336 94.885 26.1736C99.5542 24.6233 104.454 24.1565 109.383 24.1749C111.701 24.1834 114.019 24.1763 116.527 24.1763C114.784 21.5182 112.714 19.6137 110.002 18.3705C106.096 16.58 102.069 16.6219 97.9976 17.4831C94.9506 18.1273 92.3083 19.7394 89.6062 21.2072C87.4004 22.4057 85.1581 23.5492 82.8752 24.593C80.2073 25.8124 77.4529 25.9759 74.6198 25.0356C72.1846 24.2269 69.7183 23.4992 67.2356 22.8516C64.0281 22.0154 60.7629 21.9225 57.4989 22.5103C53.1214 23.299 49.34 25.3737 45.9169 28.1175C43.3134 30.2045 40.8408 32.4539 38.2344 34.5373C34.677 37.3811 31.9054 40.8341 29.9789 44.9375C29.1313 46.7436 28.2706 48.5664 28.3355 50.6809C28.374 51.9258 28.1488 53.1819 27.9935 54.427C27.9435 54.8268 27.7376 55.207 27.5149 55.8496C26.2455 53.2347 26.7012 50.683 26.4771 48.2334C26.3565 48.2334 26.2757 48.2082 26.2328 48.2377C26.0308 48.3779 25.8255 48.5182 25.6455 48.6845C22.9315 51.1848 21.3293 54.3786 20.0541 57.7571C18.0962 62.9427 17.2064 68.3873 16.2679 73.8156C15.7879 76.5909 15.4613 79.396 14.8925 82.1518C14.64 83.3749 14.8636 84.239 15.7842 84.9911C16.2214 85.3486 16.6367 85.7399 17.1039 86.0531C23.2541 90.177 30.0537 92.6788 37.3099 93.9618C39.6544 94.376 42.0621 94.4319 44.4071 94.8434C46.5845 95.225 48.7502 95.5406 50.9617 95.4667C54.6181 95.345 58.2745 95.2154 61.9312 95.0897C62.0576 95.0853 62.1846 95.0909 62.3107 95.0821C65.9509 94.8411 69.5919 94.6092 73.2314 94.3524C74.8622 94.2372 76.5119 94.1948 78.1145 93.9052C81.7757 93.2437 85.47 93.0135 89.1718 92.8309C92.1303 92.685 95.0983 92.6617 98.0478 92.416C100.227 92.2346 102.394 91.8351 104.549 91.4404C108.471 90.7223 112.069 89.0566 115.73 87.5618C118.804 86.3066 121.731 84.6691 125.038 83.992C125.754 83.8455 126.441 83.4086 127.06 82.9868C127.503 82.6855 127.989 82.2435 128.143 81.7642C128.542 80.517 128.874 79.2279 129.039 77.931C129.254 76.2398 128.395 75.0415 126.823 74.6782C125.848 74.4528 124.845 74.3083 123.847 74.2273C121.65 74.0498 119.409 74.1434 117.261 73.7342C115.285 73.3579 113.523 73.7507 111.732 74.334C108.747 75.3059 105.713 76.0953 102.597 76.4389C99.9078 76.7354 97.1924 76.7962 94.4882 76.9615C89.941 77.0803 85.3936 77.1996 80.8462 77.3186C79.5708 77.3234 78.2957 77.328 77.0206 77.3331C76.5243 77.3021 76.028 77.2712 75.5312 77.2407L75.5418 77.2482ZM9.49152 104.392C9.44336 104.717 9.39543 105.042 9.34726 105.366C9.27433 105.353 9.2014 105.349 9.12755 105.353C8.67254 101.521 9.51996 97.8519 10.3289 94.1349C11.804 87.3551 13.0713 80.529 14.3566 73.709C15.3966 68.1903 16.3273 62.6483 18.1978 57.3282C19.4448 53.7812 21.266 50.5541 23.7598 47.7174C27.094 43.9243 30.2991 40.0103 33.767 36.3443C38.5068 31.3322 43.6941 26.8224 49.676 23.2846C54.0656 20.6884 58.8213 20.1316 63.765 20.5609C67.2382 20.8627 70.6712 21.5113 73.9308 22.741C77.4393 24.0646 80.7306 23.7444 83.965 22.0262C86.5846 20.6338 89.189 19.2133 91.8038 17.8115C96.7296 15.1707 101.969 14.3975 107.424 15.4612C111.424 16.241 114.674 18.4138 117.125 21.6413C119.522 24.7996 122.521 27.3254 125.591 29.7309C127.034 30.8623 128.955 31.4187 130.709 32.1122C132.918 32.9862 134.958 34.0793 136.497 35.9308C138.935 38.8647 139.86 42.2411 139.274 46.0023C138.994 47.802 138.109 49.3232 136.841 50.6254C135.519 51.9843 134.176 53.3243 132.888 54.7151C132.261 55.3928 131.739 56.168 131.145 56.9296C131.489 57.3699 131.681 57.6919 131.944 57.9389C134.016 59.8906 134.431 62.2095 132.935 64.566C132.288 65.5862 132.028 66.5363 132.154 67.7459C132.38 69.9099 132.116 72.0226 130.956 73.9638C130.693 74.4053 130.542 75.0649 130.654 75.5534C131.26 78.2238 130.63 80.7122 129.529 83.082C129.044 84.1278 129.004 85.0055 129.568 85.9261C130.818 87.9686 132.048 90.0272 133.39 92.0087C135.053 94.4631 136.887 96.8022 138.527 99.2704C140.362 102.034 141.55 105.079 142 108.387L141.986 110.286C141.389 110.262 140.793 110.238 140.196 110.214C140.382 105.374 137.981 101.516 135.371 97.7705C134.041 95.861 132.53 94.0774 131.103 92.2348C129.983 90.7881 128.931 89.3077 128.31 87.5544C128.039 86.7919 127.62 86.0816 127.169 85.1401C126.374 85.2413 125.526 85.1805 124.82 85.4676C121.438 86.84 118.064 88.2376 114.747 89.7575C110.366 91.7649 105.82 93.2061 101.052 93.8519C98.7453 94.1641 96.3954 94.1446 94.069 94.3269C89.8619 94.6567 85.6583 95.0287 81.4526 95.3759C79.6319 95.5266 77.81 95.6706 75.9871 95.7984C70.3288 96.1954 64.6739 96.6862 59.0089 96.9387C55.0947 97.1132 51.1587 97.0935 47.2455 96.9001C44.0464 96.7419 40.8461 96.3204 37.6821 95.8002C31.8027 94.834 26.2459 92.8153 20.922 90.1763C19.2333 89.3394 17.657 88.2785 16.0122 87.3503C15.4849 87.0533 14.9031 86.8531 14.091 86.4969C13.6289 88.4908 13.2486 90.2526 12.8103 92C11.8196 95.95 10.7997 99.8928 9.7915 103.838C9.69174 104.023 9.59174 104.208 9.49152 104.392Z" fill="#0A0D0C"/>
<path d="M9.12775 105.353C9.2016 105.349 9.27476 105.354 9.34746 105.366C9.90775 105.826 9.56259 106.068 9.125 106.288C9.12592 105.976 9.12661 105.664 9.12775 105.353Z" fill="#10150F"/>
<path d="M50.8416 47.5405C47.789 46.9452 45.1791 48.3256 45.416 50.3023C47.0907 49.5835 48.7633 48.8733 50.4248 48.1394C50.5618 48.0788 50.6276 47.8573 50.8416 47.5405ZM55.1422 75.2922C55.8165 78.0243 59.263 81.4585 61.7468 82.022C61.7727 81.8431 61.8846 81.5761 61.8108 81.5064C59.663 79.482 57.4971 77.4776 55.1422 75.2922ZM44.7711 43.7128C46.7744 42.6796 47.1753 41.9437 46.6877 40.1124C46.0561 40.6002 45.469 41.0536 44.8819 41.5075C44.7743 41.435 44.6663 41.3627 44.5585 41.2898C44.9335 40.3227 45.3798 39.3755 45.6655 38.3822C46.0261 37.1307 46.3093 35.8496 46.5109 34.5636C46.5728 34.1678 46.2591 33.7132 46.1176 33.286C45.9655 33.2793 45.8137 33.2729 45.6616 33.2667C45.4708 33.744 45.2493 34.2118 45.094 34.7006C44.564 36.3693 44.0521 38.0439 43.5441 39.7197C43.3989 40.1984 43.2001 40.6853 43.1831 41.1735C43.1446 42.2962 43.4223 43.289 44.7711 43.7128ZM55.708 29.3823C55.9651 29.3179 56.2224 29.2537 56.4797 29.1892C58.6121 28.7592 60.7446 28.329 62.877 27.899C63.6717 27.793 64.5574 28.3478 65.2603 27.5719C65.7674 27.5701 66.2745 27.5682 66.7811 27.5666C67.0304 27.693 67.2767 27.9205 67.5295 27.9281C68.5725 27.9581 69.6172 27.9212 70.6616 27.9095L79.6319 29.2328C79.5112 28.7269 79.253 28.3985 78.9301 28.3113C77.1235 27.8237 75.3195 27.2914 73.4807 26.9674C69.658 26.2936 65.8213 25.75 61.9456 26.7282C60.4352 27.1096 58.8823 27.3244 57.3487 27.6153C57.2019 26.9086 56.7948 26.6825 56.105 26.91C55.6784 27.0508 55.2374 27.1458 54.6668 27.2976C54.9626 26.1461 55.1899 25.2617 55.4268 24.3393C54.2365 23.9598 53.6411 24.4485 53.2689 25.2588C52.6864 26.5261 52.3729 27.8471 52.766 29.247C52.8958 29.8956 51.4126 30.0029 52.4052 31.0834C53.1155 30.6928 53.8898 30.2669 54.664 29.8408C55.0378 29.7493 55.6112 30.1103 55.7041 29.3828L55.7571 29.4626L55.708 29.3823ZM79.2991 32.9369C82.6661 33.2704 86.0331 33.588 89.2033 34.9235C91.6994 35.9743 94.0752 35.8071 96.3746 34.2632C98.8928 32.5727 101.53 31.1093 104.646 30.8215C105.207 30.7699 105.763 30.6118 106.321 30.61C111.003 30.5967 115.687 30.5334 120.366 30.6504C122.205 30.6965 124.187 30.6401 125.65 32.1686C125.644 32.2977 125.639 32.4266 125.633 32.5551C124.836 32.4159 124.036 32.1468 123.24 32.1585C118.598 32.2285 113.957 31.8641 109.308 32.4356C105.613 32.8897 102.285 34.0015 99.2501 36.1732C97.4479 37.4628 96.4009 39.1053 96.0069 41.2311C95.887 41.5506 95.7714 41.8719 95.6457 42.1891C95.5207 42.504 95.3854 42.8147 95.2547 43.1273C95.1315 42.3877 95.0464 41.6396 94.877 40.9107C94.507 39.3186 93.8133 37.8639 92.1776 37.2947C90.1768 36.5984 88.1242 36.0211 86.0574 35.5546C84.7214 35.2533 83.2949 35.3595 81.9514 35.0794C78.7305 34.4072 75.5663 34.9336 72.4138 35.4333C68.8241 36.0023 65.6064 37.6561 62.5185 39.447C59.7577 41.0483 57.0329 42.7927 55.0867 45.3148C54.6269 47.5862 55.514 49.1744 57.2104 50.464C61.9147 54.0401 67.1588 56.3404 73.0743 56.712C77.59 56.9954 82.1292 56.9846 86.5516 55.6503C90.6185 54.4231 94.1094 52.5902 95.2666 48.0559C95.5567 48.0396 95.8473 48.0238 96.1377 48.0079C97.0569 49.5611 98.4602 50.3741 100.192 50.7529C101.41 51.019 102.593 51.4401 103.81 51.7054C105.882 52.157 107.955 52.7771 110.053 52.9046C114.761 53.1911 119.484 53.2312 124.201 53.3365C124.879 53.3512 125.566 53.2012 126.239 53.0732C128.323 52.6764 130.403 52.2535 132.485 51.8412C132.487 51.9554 132.488 52.0698 132.487 52.1845C130.806 53.5828 129.659 55.3515 128.974 57.3679C127.206 57.5511 125.513 57.6484 123.847 57.9162C120.695 58.4233 117.565 59.0712 114.413 59.5801C111.94 59.9796 109.456 60.3656 106.961 60.5631C103.759 60.816 100.541 60.8702 97.3305 61.0186C95.2565 61.1144 93.1766 61.1564 91.1109 61.3477C88.7398 61.5678 86.3787 61.9034 84.0187 62.2304C81.7244 62.548 79.4461 63.0033 77.1444 63.245C74.0212 63.5723 70.8792 63.717 67.7531 64.0213C66.8327 64.1108 65.911 64.4002 65.0392 64.7291C63.4359 65.3336 62.1332 66.3219 61.8479 68.141C61.5207 70.2299 62.5007 71.8422 64.082 73.0357C66.5334 74.886 69.4195 75.7928 72.3734 76.4863C73.1667 76.6726 73.9731 76.8051 74.7732 76.9622C75.0296 77.0572 75.286 77.1524 75.5425 77.2473L75.5324 77.2402C75.9899 77.8961 76.4908 77.856 77.0217 77.3324C78.2969 77.3278 79.5718 77.323 80.8469 77.3179C81.1139 77.4296 81.3799 77.6367 81.6476 77.6386C84.7994 77.6608 87.9536 77.7119 91.1029 77.6204C92.2375 77.5874 93.3608 77.1911 94.4894 76.9611C97.1933 76.7957 99.9087 76.735 102.598 76.4386C105.714 76.0949 108.748 75.3055 111.733 74.3335C113.524 73.7505 115.287 73.3577 117.262 73.734C119.41 74.1427 121.651 74.0493 123.847 74.2269C124.846 74.308 125.849 74.4523 126.824 74.6777C128.396 75.0413 129.255 76.2393 129.04 77.9305C128.875 79.2275 128.543 80.5168 128.144 81.764C127.99 82.2433 127.504 82.685 127.062 82.9866C126.442 83.4079 125.755 83.8448 125.039 83.9916C121.732 84.6688 118.805 86.3059 115.731 87.5613C112.07 89.0564 108.472 90.7219 104.55 91.4399C102.395 91.8346 100.228 92.2342 98.049 92.4156C95.099 92.6612 92.1315 92.6846 89.1728 92.8305C85.4707 93.013 81.7764 93.2433 78.1154 93.9047C76.513 94.1944 74.8634 94.2368 73.2323 94.3521C69.5931 94.6088 65.952 94.8409 62.3114 95.0817C62.1855 95.0904 62.0583 95.0849 61.9319 95.0892C58.2755 95.2149 54.6191 95.3443 50.9624 95.4663C48.7509 95.5401 46.5859 95.2248 44.4083 94.8429C42.0632 94.4317 39.6554 94.3755 37.3108 93.9609C30.0544 92.6782 23.2553 90.1767 17.105 86.0527C16.6376 85.7394 16.2223 85.3484 15.7852 84.9906C14.865 84.2388 14.641 83.3744 14.8935 82.1513C15.462 79.3956 15.7891 76.5905 16.2688 73.815C17.2073 68.3869 18.0976 62.9425 20.0553 57.7564C21.3304 54.3784 22.9324 51.1843 25.6464 48.6843C25.8267 48.5178 26.0317 48.377 26.2338 48.2373C26.2767 48.2075 26.3576 48.2329 26.4778 48.2329C26.7019 50.6825 26.2464 53.2337 27.5163 55.8492C27.7383 55.2068 27.9444 54.8263 27.9944 54.4266C28.1497 53.1817 28.3747 51.9251 28.3366 50.6805C28.2715 48.5662 29.1322 46.7431 29.9799 44.937C31.9066 40.8336 34.6779 37.3807 38.2357 34.537C40.8415 32.4537 43.3145 30.2041 45.918 28.1173C49.3412 25.373 53.1221 23.2986 57.4996 22.5099C60.7636 21.9221 64.029 22.0149 67.2368 22.8513C69.7194 23.4988 72.1858 24.2267 74.6205 25.0351C77.4538 25.9755 80.2082 25.8119 82.8759 24.5925C85.159 23.5488 87.4011 22.4055 89.6074 21.207C92.309 19.7389 94.9515 18.1269 97.9986 17.4827C102.07 16.6217 106.097 16.5795 110.003 18.37C112.715 19.613 114.785 21.5173 116.528 24.1758C114.02 24.1758 111.702 24.1831 109.384 24.1744C104.455 24.1561 99.5553 24.6228 94.8859 26.1731C92.2957 27.0327 89.9252 28.5785 87.4981 29.8931C86.2876 30.5485 85.1719 31.3785 84.1437 32.0455C82.4736 31.82 80.985 31.4632 79.4933 31.451C76.535 31.4269 73.5747 31.587 70.6155 31.6817C67.3487 31.7865 64.4962 33.2009 61.8372 34.8535C59.3951 36.3716 57.2152 38.3129 54.9434 40.0979C54.7443 40.2541 54.7227 40.636 54.6179 40.9146C55.408 41.527 55.9536 41.1563 56.527 40.7029C58.1048 39.4553 59.6836 38.2068 61.2971 37.0062C63.7049 35.2143 66.5109 34.2543 69.3209 33.3341C69.9006 33.1442 70.5731 33.2369 71.2028 33.1991C73.635 33.2188 76.0672 33.2484 78.4996 33.2438C78.7661 33.2433 79.0326 33.0443 79.2991 32.9369Z" fill="#539836"/>
<path d="M121.066 65.5799C122.465 65.6912 123.864 65.8024 125.262 65.9136C125.896 66.0191 126.53 66.1251 127.164 66.2306C127.479 66.2569 127.796 66.2716 128.109 66.312C130.105 66.5682 130.84 67.4011 130.544 69.3265C130.356 70.5473 129.934 71.732 129.587 73.0485C127.992 73.0485 126.514 73.2723 125.132 73.0037C121.819 72.3595 118.491 72.3022 115.15 72.3407C114.344 72.3497 113.527 72.5038 112.737 72.6856C109.56 73.4161 106.408 74.2599 103.215 74.9052C101.622 75.2272 99.9629 75.266 98.3298 75.3389C94.3564 75.5164 90.38 75.6283 86.4062 75.788C84.7082 75.8561 83.0131 76.0437 81.3153 76.0613C76.036 76.1152 70.8818 75.5251 66.1998 72.8044C65.5493 72.4265 64.9111 72.0047 64.34 71.5185C63.1857 70.5367 63.0387 69.1593 63.4277 67.8685C63.7937 66.6535 64.8716 65.9969 66.1764 65.882C69.3101 65.6061 72.4581 65.4469 75.5767 65.0529C78.8102 64.6447 82.0143 64.0037 85.2354 63.4881C86.72 63.251 88.2089 62.9569 89.7049 62.8874C94.1208 62.6815 98.5446 62.6411 102.959 62.4118C108.613 62.1178 114.211 61.4332 119.716 60.0007C122.136 59.3712 124.628 58.8597 127.177 59.079C128.051 59.1542 128.922 59.276 129.792 59.403C131.334 59.6294 132.03 60.3968 132.049 61.8568C132.067 63.1714 130.823 64.6557 129.513 64.7408C128.379 64.8141 127.236 64.7369 126.097 64.7261C125.959 64.6637 125.822 64.6011 125.684 64.5382C124.154 64.4763 122.623 64.4149 121.092 64.3529C120.84 64.3513 120.587 64.3504 120.335 64.3493C118.68 64.2628 117.026 64.1768 115.371 64.0908C114.375 64.0871 113.379 64.0839 112.383 64.0807C112.117 64.0839 111.851 64.0874 111.585 64.091C111.466 64.0154 111.349 64.019 111.234 64.1011C109.522 63.8699 107.89 64.2344 106.281 64.7681C106.092 64.7731 105.893 64.7401 105.715 64.7887C101.548 65.932 97.3757 67.0551 93.2211 68.2426C89.1113 69.4175 84.9726 70.3975 80.6699 70.4475C78.143 70.4766 75.6154 70.4578 73.0881 70.4713C72.4221 70.4748 71.6547 70.3048 71.4148 71.239C71.7285 72.1671 72.5126 71.9891 73.1663 71.9946C75.251 72.0118 77.3387 71.9121 79.4207 71.9889C83.3567 72.1336 87.1867 71.5027 90.9584 70.495C96.5815 68.9925 102.182 67.4055 107.792 65.854C109.532 65.7526 111.27 65.5978 113.011 65.5625C115.452 65.5132 117.894 65.5529 120.336 65.5542C120.579 65.563 120.822 65.5712 121.066 65.5799Z" fill="#AC522A"/>
<path d="M119.225 51.7964C120.996 51.7964 122.769 51.8487 124.537 51.784C127.137 51.6886 129.696 51.2728 132.118 50.288C133.898 49.5646 134.428 48.6787 134.331 46.7602C134.266 45.5 134.185 44.2311 133.972 42.9899C133.33 39.247 131.812 36.1355 127.839 34.8796C124.997 33.981 122.126 33.2226 119.116 33.299C115.894 33.3809 112.669 33.4708 109.453 33.679C105.793 33.9164 102.382 34.9009 99.4901 37.3292C98.2077 38.4062 97.3873 39.6914 97.2607 41.3404C97.135 42.9752 97.1557 44.6207 97.0876 46.2603C97.0389 47.4311 97.6249 48.2046 98.6345 48.6308C100.083 49.242 101.527 49.9543 103.046 50.2921C108.367 51.4739 113.765 52.0305 119.225 51.7964ZM132.482 51.8388C130.4 52.2516 128.32 52.6743 126.236 53.0708C125.563 53.199 124.876 53.3493 124.198 53.3341C119.481 53.2293 114.758 53.1887 110.05 52.9027C107.952 52.7748 105.879 52.1551 103.807 51.7035C102.59 51.4379 101.407 51.0166 100.189 50.7506C98.4572 50.3719 97.0538 49.5589 96.1346 48.0058C96.0911 45.7468 96.0475 43.488 96.0039 41.229C96.3979 39.103 97.4449 37.4604 99.247 36.171C102.281 33.9992 105.61 32.8878 109.305 32.4332C113.954 31.8617 118.595 32.2266 123.237 32.1566C124.033 32.1445 124.833 32.4137 125.63 32.5532C125.954 33.2118 126.556 33.263 127.181 33.263L127.157 33.2458C127.574 33.4914 127.984 33.7528 128.411 33.9801C129.456 34.5358 130.609 34.9431 131.539 35.6468C134.048 37.5443 135.758 39.9004 135.56 43.2878C135.443 45.2947 135.522 47.3136 135.512 49.3273C135.313 50.6224 134.011 50.7565 133.256 51.4664L132.482 51.8388Z" fill="#10150F"/>
<path d="M118.3 26.1786C119.239 27.0535 120.244 27.9904 121.398 29.066C120.577 29.066 119.911 29.0873 119.247 29.0621C116.735 28.9674 114.213 28.6569 111.715 28.7961C106.907 29.0639 102.044 29.2541 97.6707 31.6934C96.9031 32.1215 96.1555 32.5853 95.3897 33.0176C93.9265 33.843 92.4431 34.3521 90.7345 33.6689C89.5224 33.1843 88.2445 32.8619 86.8047 32.4066C90.8372 29.3974 95.0308 27.328 99.8031 26.4137C104.547 25.5048 109.322 25.5995 114.103 25.7084C115.413 25.7385 116.718 25.9944 118.3 26.1786Z" fill="#539437"/>
<path d="M135.516 49.3315C135.525 47.3179 135.446 45.299 135.563 43.292C135.762 39.9046 134.051 37.5486 131.543 35.651C130.613 34.9476 129.46 34.5398 128.415 33.9841C127.987 33.7571 127.578 33.4954 127.16 33.25C133.717 34.241 136.889 37.6073 137.726 43.567C138.035 45.7632 137 47.694 135.516 49.3315Z" fill="#539437"/>
<path d="M94.4896 76.9609C93.3615 77.1914 92.2377 77.5875 91.1036 77.6203C87.9541 77.712 84.8004 77.6607 81.6481 77.6382C81.3804 77.6364 81.1142 77.4297 80.8477 77.318C85.3948 77.199 89.9422 77.08 94.4896 76.9609Z" fill="#539437"/>
<path d="M79.2991 32.9378C79.0327 33.0449 78.7666 33.244 78.4997 33.2447C76.0677 33.2495 73.6353 33.2199 71.2031 33.1999C71.5368 33.0809 71.871 32.8594 72.2049 32.8594C74.5696 32.8601 76.9346 32.9062 79.2991 32.9378Z" fill="#539437"/>
<path d="M127.163 66.2304C126.53 66.1249 125.896 66.0191 125.262 65.9136C126.076 64.9401 126.561 65.9345 127.163 66.2304Z" fill="#140804"/>
<path d="M127.184 33.2647C126.558 33.2642 125.956 33.2131 125.633 32.5544C125.639 32.4257 125.644 32.2969 125.65 32.168C126.161 32.5335 126.673 32.8991 127.184 33.2647Z" fill="#539437"/>
<path d="M121.067 65.5822C120.823 65.5735 120.58 65.5653 120.337 65.5565C120.336 65.155 120.336 64.7531 120.336 64.3516C120.588 64.3527 120.841 64.3536 121.093 64.3552C121.084 64.7644 121.076 65.1731 121.067 65.5822Z" fill="#140804"/>
<path d="M77.0204 77.3309C76.4894 77.8541 75.9886 77.8942 75.5312 77.2383C76.0275 77.2692 76.5241 77.3 77.0204 77.3309Z" fill="#539437"/>
<path d="M132.48 51.841L133.255 51.4688C132.998 51.707 132.741 51.9458 132.483 52.1843C132.484 52.0699 132.483 51.9556 132.48 51.841Z" fill="#539437"/>
<path d="M76.9292 55.3812C76.9306 55.3231 76.9318 55.2649 76.9331 55.2069C78.4496 55.2069 79.9724 55.2915 81.4817 55.1881C84.0659 55.0112 86.6619 54.7704 88.9922 53.4785C91.7595 51.9452 93.646 49.8281 93.5123 46.4212C93.4726 45.4128 93.5396 44.3984 93.4701 43.3925C93.1929 39.371 92.9358 38.5077 88.1492 37.42C83.8524 36.4437 79.4795 36.6482 75.1264 36.6294C74.1301 36.6255 73.1196 36.8496 72.139 37.0707C66.5749 38.3247 61.927 41.3021 57.5989 44.8647C57.3565 45.0642 57.1436 45.3016 56.9315 45.5346C56.3434 46.1806 56.2785 46.901 56.7622 47.6108C57.0776 48.0743 57.4443 48.5328 57.8782 48.8809C61.7706 52.0078 66.0043 54.4569 71.0675 55.058C73.0068 55.2883 74.9743 55.2807 76.9292 55.3812ZM95.2652 48.0562C94.1079 52.5908 90.6171 54.4234 86.5502 55.6509C82.1278 56.9852 77.5886 56.996 73.0728 56.7125C67.1576 56.341 61.9133 54.0407 57.2092 50.4645C55.5125 49.1749 54.6254 47.5867 55.0855 45.3153C57.0315 42.7932 59.7563 41.0489 62.5171 39.4476C65.605 37.6566 68.8229 36.0029 72.4119 35.4339C75.5647 34.9339 78.7287 34.4078 81.9502 35.0798C83.2935 35.36 84.7196 35.2538 86.0557 35.5552C88.123 36.0217 90.1754 36.5989 92.1762 37.295C93.8121 37.8644 94.5056 39.3189 94.8755 40.9113C95.045 41.6401 95.1301 42.3882 95.2533 43.1279C95.2572 44.7704 95.2611 46.4134 95.2652 48.0562Z" fill="#10150F"/>
<path d="M62.878 27.8985C60.7456 28.3285 58.6131 28.759 56.4805 29.189C56.4885 29.0415 56.4963 28.8938 56.5043 28.7464C56.7862 28.3689 57.0678 27.9918 57.3499 27.6148C58.8833 27.3242 60.4362 27.1091 61.9466 26.7277C65.8221 25.75 69.6585 26.2933 73.4819 26.9669C75.3207 27.2909 77.1245 27.8237 78.9306 28.3108C79.2542 28.398 79.5122 28.7269 79.6328 29.2326L70.6626 27.909C69.3691 27.7948 68.0758 27.6806 66.7823 27.5662C66.2752 27.568 65.7684 27.5701 65.2613 27.5719C64.4669 27.6806 63.6724 27.7898 62.878 27.8985Z" fill="#0A0D0C"/>
<path d="M55.1406 75.293C57.4953 77.4784 59.6614 79.4828 61.809 81.5072C61.8831 81.577 61.7707 81.8439 61.7452 82.0228C59.261 81.4593 55.8144 78.0249 55.1406 75.293Z" fill="#10150F"/>
<path d="M50.8429 47.542C50.6289 47.8588 50.5631 48.0803 50.4262 48.1408C48.7646 48.8747 47.092 49.585 45.4173 50.3038C45.1804 48.3271 47.7903 46.9467 50.8429 47.542Z" fill="#0A0D0C"/>
<path d="M95.2658 48.055C95.2619 46.412 95.258 44.7695 95.2539 43.1267C95.3846 42.8141 95.5202 42.5036 95.6452 42.1884C95.7708 41.8713 95.8864 41.5499 96.0064 41.2305C96.0499 43.4893 96.0935 45.7483 96.1371 48.0071C95.8468 48.0229 95.5562 48.0392 95.2658 48.055Z" fill="#539437"/>
<path d="M52.7674 29.2461C53.1461 29.3339 53.525 29.422 53.9034 29.5101C54.1573 29.6199 54.4116 29.7302 54.6655 29.8401C53.8912 30.266 53.1167 30.6921 52.4067 31.0824C51.4141 30.002 52.8972 29.8947 52.7674 29.2461Z" fill="#10150F"/>
<path d="M66.7812 27.5703C68.0747 27.6845 69.368 27.7992 70.6615 27.9132C69.6173 27.9256 68.5724 27.9618 67.5291 27.932C67.2766 27.9244 67.0303 27.6969 66.7812 27.5703Z" fill="#539437"/>
<path d="M62.875 27.9008C63.6694 27.7921 64.4639 27.6829 65.2583 27.5742C64.5554 28.3496 63.6699 27.7951 62.875 27.9008Z" fill="#539437"/>
<path d="M54.6644 29.8408C54.4106 29.7307 54.1562 29.6209 53.9023 29.5106C54.503 29.4681 55.1039 29.4252 55.7045 29.3828C55.6116 30.1103 55.0383 29.7493 54.6644 29.8408Z" fill="#539437"/>
<path d="M55.707 29.386C55.9722 29.1741 56.2373 28.9621 56.5022 28.75C56.4946 28.8977 56.4868 29.0454 56.4788 29.1931C56.2212 29.2575 55.9641 29.3215 55.707 29.386Z" fill="#539437"/>
<path d="M107.791 65.8539C102.181 67.4049 96.5808 68.9924 90.9577 70.4951C87.1862 71.5026 83.3559 72.1333 79.42 71.9888C77.338 71.9122 75.2503 72.012 73.1656 71.9945C72.5117 71.9893 71.7278 72.1672 71.4141 71.2391C71.654 70.305 72.4213 70.4744 73.0874 70.4712C75.6147 70.4579 78.1421 70.4767 80.6692 70.4472C84.9719 70.3974 89.1106 69.4174 93.2204 68.2423C97.375 67.0549 101.548 65.9316 105.715 64.7886C105.892 64.74 106.091 64.7732 106.28 64.7682C106.473 65.0127 106.626 65.3133 106.871 65.4858C107.133 65.6713 107.481 65.7365 107.791 65.8539Z" fill="#140804"/>
<path d="M107.792 65.8549C107.482 65.7374 107.134 65.6723 106.872 65.4868C106.627 65.3143 106.474 65.0136 106.281 64.7692C107.89 64.2355 109.522 63.8706 111.235 64.1022C111.352 64.0986 111.468 64.0953 111.585 64.0921C111.851 64.0885 112.117 64.0848 112.383 64.0811C113.377 64.5689 114.373 64.5513 115.371 64.0912C117.025 64.1777 118.68 64.2639 120.335 64.3499C120.336 64.7517 120.336 65.1538 120.336 65.5553C117.894 65.5537 115.452 65.5143 113.011 65.5636C111.27 65.5989 109.532 65.7533 107.792 65.8549Z" fill="#0A0D0C"/>
<path d="M115.37 64.0921C114.373 64.552 113.377 64.5696 112.383 64.082C113.378 64.0852 114.375 64.0889 115.37 64.0921Z" fill="#140804"/>
<path d="M111.585 64.0931C111.468 64.0963 111.351 64.1 111.234 64.1032C111.349 64.0211 111.466 64.0179 111.585 64.0931Z" fill="#140804"/>
<path d="M127.987 44.1302C127.959 46.5539 126.007 49.004 123.67 49.5067C123.312 49.5838 122.909 49.5957 122.553 49.5177C120.38 49.0441 118.614 46.9227 118.439 44.6224C118.279 42.5296 119.642 40.2695 121.576 39.4195C124.366 38.1937 128.024 40.8818 127.987 44.1302Z" fill="#060606"/>
<path d="M86.6793 47.357C86.5264 51.0514 82.9461 52.4727 80.3697 51.2397C77.9485 50.082 77.2082 48.1055 77.668 46.041C78.2492 43.4304 80.002 41.8993 82.3241 41.8791C83.7226 41.8672 84.8203 42.3919 85.3806 43.6735C85.9009 44.8633 86.2532 46.1263 86.6793 47.357Z" fill="#060606"/>
</g>
<defs>
<clipPath id="clip0_1054_544">
<rect width="150" height="110" fill="white"/>
</clipPath>
</defs>
</svg>
