<svg xmlns="http://www.w3.org/2000/svg" width="25" height="24" viewBox="0 0 25 24" fill="none">
  <path d="M18.0235 7.39738C19.2816 7.118 20.9204 5.86925 21.1698 5.25425C21.316 4.89425 20.5866 4.33175 20.3916 4.10488C19.9454 3.58738 20.1254 3.33238 20.2979 2.7155C20.4948 2.01425 20.0279 1.23988 19.366 0.936127C18.7041 0.632377 17.9129 0.728002 17.2473 1.02425C16.5816 1.3205 16.0135 1.79675 15.4566 2.2655C15.0498 2.00863 14.401 0.874252 13.351 1.61113C12.6254 2.11925 12.5598 3.2255 12.6535 4.10863C12.8729 6.14675 13.3754 7.20425 14.3223 7.48925C15.5185 7.84925 16.8423 7.65988 18.0235 7.39738Z" fill="#6F28FF"/>
  <path d="M20.0674 1.53418C19.908 4.28105 17.2286 6.10355 15.9574 6.90605L16.7824 7.6148C16.7824 7.6148 17.3055 7.62605 18.0218 7.3973C19.2499 7.0073 21.0443 5.9048 21.168 5.25418C21.3499 4.3073 20.3786 4.51355 20.1593 3.76543C20.0449 3.3698 20.7161 2.62168 20.0674 1.53418ZM15.4586 2.2673C15.4586 2.2673 14.9805 1.77793 14.6261 1.5548C14.4499 1.88668 14.3243 2.24668 14.2624 2.61793C14.1518 3.27043 14.2624 4.19668 14.523 4.88668C14.5643 4.99355 14.718 4.97668 14.7349 4.86418C14.9599 3.38105 15.4586 2.2673 15.4586 2.2673Z" fill="#844CF5"/>
  <path d="M12.1175 7.15486C12.1175 7.15486 6.26941 7.78674 3.63128 12.8642C0.993158 17.9417 3.23566 21.0205 5.60941 22.1417C7.98316 23.263 13.9644 23.6586 17.855 22.7361C21.7457 21.8136 22.7188 19.9011 22.5369 18.0542C22.2725 15.358 19.7675 13.7005 19.7675 13.7005C19.7675 13.7005 19.8669 10.3705 17.2832 8.20861C14.99 6.28861 12.1175 7.15486 12.1175 7.15486Z" fill="#844CF5"/>
  <path d="M14.5175 15.6996C13.2632 14.1171 11.7819 13.9052 11.3075 13.3371C11.0488 13.0277 10.8969 12.7146 10.955 12.3264C11.0169 11.9139 11.495 11.6289 11.8663 11.5596C12.2994 11.4771 13.3325 11.5202 14.2007 12.3471C14.4069 12.5421 14.3319 12.8458 14.3263 13.1177C14.3113 13.7008 15.1457 14.2671 15.8207 13.7796C16.4975 13.2902 15.9782 12.2008 15.5413 11.6721C15.2113 11.2727 14.015 10.3933 12.5282 10.2546C12.11 10.2152 10.4282 9.9658 9.45692 11.8127C9.17755 12.3433 9.07442 13.6258 10.5369 14.7095C10.8425 14.9364 12.4288 15.7427 12.8694 16.2658C13.6325 17.1714 13.1094 17.9683 12.5132 18.0733C10.8875 18.3583 9.96692 17.4789 9.7963 16.9971C9.67442 16.6539 9.80192 16.2827 9.64442 15.9602C9.48317 15.6283 9.15317 15.4971 8.80442 15.6077C7.66067 15.9714 8.02442 17.222 8.53067 17.9102C9.07255 18.647 9.73817 19.0914 10.4863 19.3352C13.2782 20.2446 14.6207 18.8083 14.855 17.7564C15.0275 16.9858 15.0088 16.3183 14.5175 15.6996Z" fill="#D7C2FD"/>
  <path d="M13.8425 9.18555C11.4669 14.2593 11.0581 20.6662 11.0581 20.6662" stroke="#D7C2FD" stroke-width="0.9375" stroke-miterlimit="10"/>
  <path d="M15.813 5.9926C17.3955 6.50822 17.7461 7.93885 17.6317 8.32885C17.4949 8.78635 15.7417 7.0051 13.1355 7.11197C12.2242 7.14947 12.4886 6.59072 12.9105 6.26822C13.4674 5.8426 14.403 5.5351 15.813 5.9926Z" fill="#6D4C41"/>
  <path d="M15.813 5.9926C17.3955 6.50822 17.7461 7.93885 17.6317 8.32885C17.4949 8.78635 15.7417 7.0051 13.1355 7.11197C12.2242 7.14947 12.4886 6.59072 12.9105 6.26822C13.4674 5.8426 14.403 5.5351 15.813 5.9926Z" fill="#D7C2FD"/>
  <path d="M18.5918 11.0361C18.7906 10.8993 19.4581 11.1355 19.6456 12.4424C19.7374 13.0818 19.7656 13.7005 19.7656 13.7005C19.7656 13.7005 18.9781 12.9936 18.7174 12.4968C18.3893 11.8686 18.2618 11.2611 18.5918 11.0361Z" fill="#6F28FF"/>
</svg>