<svg xmlns="http://www.w3.org/2000/svg" width="24" height="17" viewBox="0 0 24 17" fill="none">
  <g clip-path="url(#clip0_3431_5808)">
    <path d="M12.8235 15.8783L23.6589 5.04122C23.7671 4.93338 23.8529 4.80525 23.9115 4.66417C23.9701 4.52309 24.0002 4.37183 24.0002 4.21908C24.0002 4.06632 23.9701 3.91507 23.9115 3.77399C23.8529 3.63291 23.7671 3.50478 23.6589 3.39694L20.8127 0.549188C20.6391 0.37503 20.4329 0.236865 20.2057 0.142622C19.9786 0.0483782 19.7351 -8.92739e-05 19.4892 1.23443e-07H4.52668C4.28057 5.09564e-05 4.03688 0.0485766 3.80953 0.142806C3.58217 0.237036 3.37561 0.375125 3.20162 0.549188L0.345525 3.40191C0.127463 3.61557 0.00319633 3.9071 5.66292e-05 4.21237C-0.00296953 4.51767 0.115397 4.81166 0.329119 5.02969L0.345525 5.04609L11.181 15.8832C11.2888 15.9914 11.4169 16.0772 11.558 16.1358C11.6991 16.1943 11.8503 16.2245 12.0031 16.2245C12.1558 16.2245 12.307 16.1943 12.4481 16.1358C12.5892 16.0772 12.7173 15.9914 12.8252 15.8832L12.8235 15.8783Z" fill="url(#paint0_linear_3431_5808)"/>
    <path opacity="0.4" d="M3.11426 0.636281C3.30688 0.442716 3.54468 0.300175 3.80618 0.221529C4.06769 0.142883 4.34466 0.130608 4.6121 0.185813L23.4286 4.002C23.578 4.0329 23.709 4.12168 23.7931 4.24894C23.8773 4.3762 23.9076 4.53158 23.8774 4.68112C23.8696 4.72016 23.8575 4.75821 23.8413 4.79456C23.97 4.57432 24.022 4.31753 23.989 4.06454C23.9559 3.81156 23.8398 3.57672 23.6587 3.39694L20.8126 0.549188C20.639 0.37503 20.4327 0.236865 20.2055 0.142622C19.9784 0.0483782 19.7349 -8.92739e-05 19.489 1.23443e-07H4.52651C4.02948 0.000143971 3.55285 0.197687 3.20145 0.549188L3.11426 0.636281Z" fill="url(#paint1_linear_3431_5808)"/>
    <path opacity="0.4" d="M19.8557 0.833627L18.7607 3.05832L23.4286 4.002C23.578 4.03288 23.7091 4.12165 23.7932 4.24891C23.8773 4.37617 23.9076 4.53157 23.8775 4.68113C23.8697 4.72017 23.8576 4.75821 23.8413 4.79456C23.9701 4.57432 24.0221 4.31753 23.989 4.06454C23.956 3.81156 23.8398 3.57672 23.6588 3.39694L20.8126 0.54919C20.639 0.375031 20.4328 0.236867 20.2056 0.142624C19.9785 0.0483801 19.735 -8.73439e-05 19.4891 2.05353e-06H19.3444C19.4425 -0.000260552 19.5389 0.0246675 19.6245 0.0723956C19.7102 0.120124 19.7821 0.189051 19.8334 0.272567C19.8847 0.356082 19.9138 0.451385 19.9177 0.549336C19.9216 0.647286 19.9003 0.744598 19.8557 0.83194V0.833627Z" fill="url(#paint2_linear_3431_5808)"/>
    <path d="M23.8412 4.80159C23.9018 4.6616 23.9043 4.5033 23.8482 4.36147C23.792 4.21964 23.6819 4.10589 23.542 4.04522C23.5056 4.02901 23.4676 4.01691 23.4285 4.00912L18.7605 3.05859L12.4797 15.734C12.3984 15.8983 12.2612 16.0282 12.0928 16.1005C11.9243 16.1728 11.7356 16.1828 11.5605 16.1286C11.7722 16.2162 12.0051 16.2392 12.2298 16.1947C12.4545 16.1502 12.661 16.0402 12.8234 15.8786L23.6586 5.04169C23.7308 4.97094 23.7924 4.89006 23.8412 4.80159Z" fill="url(#paint3_linear_3431_5808)"/>
  </g>
  <defs>
    <linearGradient id="paint0_linear_3431_5808" x1="672.678" y1="1050.94" x2="1211.9" y2="116.829" gradientUnits="userSpaceOnUse">
      <stop stop-color="#8855FF"/>
      <stop offset="1" stop-color="#00B6FF"/>
    </linearGradient>
    <linearGradient id="paint1_linear_3431_5808" x1="1030.58" y1="243.871" x2="1048" y2="171.956" gradientUnits="userSpaceOnUse">
      <stop offset="0.07" stop-color="white"/>
      <stop offset="0.89" stop-color="#009FFF"/>
    </linearGradient>
    <linearGradient id="paint2_linear_3431_5808" x1="120.21" y1="1067.1" x2="658.108" y2="1527.04" gradientUnits="userSpaceOnUse">
      <stop offset="0.07" stop-color="white"/>
      <stop offset="0.89" stop-color="#009FFF"/>
    </linearGradient>
    <linearGradient id="paint3_linear_3431_5808" x1="147.353" y1="522.307" x2="953.293" y2="801.343" gradientUnits="userSpaceOnUse">
      <stop stop-color="#4036C1"/>
      <stop offset="0.98" stop-color="#539EFF"/>
    </linearGradient>
    <clipPath id="clip0_3431_5808">
      <rect width="24" height="16.3125" fill="white"/>
    </clipPath>
  </defs>
</svg>