<svg width="1263" height="845" viewBox="0 0 1263 845" fill="none" xmlns="http://www.w3.org/2000/svg">
<path fill-rule="evenodd" clip-rule="evenodd" d="M1158.51 146.891H103.799C44.4415 288.798 6.92052 430.704 4.12652 572.611C2.72552 644.251 37.6455 713.34 101.061 764.394C164.475 815.449 251.079 844.198 341.465 844.198C521 844.27 748.286 844.27 923.606 844.27C1103.19 844.27 1251.32 732.785 1260.63 590.619C1269.85 442.708 1233.2 294.799 1158.51 146.891Z" fill="url(#paint0_linear_1363_5)"/>
<path fill-rule="evenodd" clip-rule="evenodd" d="M1158.51 146.891H103.799C44.4415 288.798 6.92052 430.704 4.12652 572.611C2.72552 644.251 37.6455 713.34 101.061 764.394C164.475 815.449 251.079 844.198 341.465 844.198C521 844.27 748.286 844.27 923.606 844.27C1103.19 844.27 1251.32 732.785 1260.63 590.619C1269.85 442.708 1233.2 294.799 1158.51 146.891Z" fill="url(#paint1_linear_1363_5)"/>
<path fill-rule="evenodd" clip-rule="evenodd" d="M794.633 844.27C974.22 844.27 1172.34 732.785 1181.65 590.619C1190.87 442.708 1154.23 294.799 1079.54 146.891H1158.51C1233.2 294.799 1269.85 442.708 1260.63 590.619C1251.32 732.785 1103.19 844.27 923.609 844.27C882.993 844.27 839.588 844.271 794.633 844.27Z" fill="#844100"/>
<path fill-rule="evenodd" clip-rule="evenodd" d="M471.485 844.27C291.902 844.27 92.775 732.785 83.468 590.619C74.244 442.708 110.889 294.799 185.582 146.891H107.607C32.914 294.799 -3.73102 442.708 5.49298 590.619C14.799 732.785 162.927 844.27 342.509 844.27C383.126 844.27 426.531 844.271 471.485 844.27Z" fill="#EC7F00"/>
<path fill-rule="evenodd" clip-rule="evenodd" d="M1190.7 216.206C1182.53 218.664 1173.86 220.423 1164.82 221.381C809.12 258.363 453.427 257.662 97.7275 221.242C90.2705 220.465 83.0685 219.143 76.1875 217.334C84.7545 193.853 93.9785 170.372 103.801 146.891H1158.51C1170.18 169.996 1180.92 193.101 1190.7 216.206Z" fill="#9A3B00"/>
<path fill-rule="evenodd" clip-rule="evenodd" d="M1261.7 97.0399C1261.7 58.7099 1219.33 26.4029 1162.96 21.7479C808.454 -6.97914 453.953 -6.73414 99.4524 21.8309C43.0514 26.4559 0.640373 58.7659 0.640373 97.1099C0.609373 103.829 0.609375 110.649 0.609375 117.357C0.608375 155.266 42.0784 187.354 97.7294 192.507C453.428 224.858 809.122 225.48 1164.82 192.63C1220.34 187.408 1261.66 155.364 1261.66 117.531C1261.7 110.744 1261.7 103.84 1261.7 97.0399Z" fill="#FFA641"/>
<path fill-rule="evenodd" clip-rule="evenodd" d="M650.153 15.0234C947.967 15.0234 1189.75 28.3004 1189.75 44.6534C1189.75 73.7064 947.967 74.2834 650.153 74.2834C352.341 74.2834 110.555 95.3834 110.555 44.6534C110.555 28.3004 352.341 15.0234 650.153 15.0234Z" fill="#BE680C"/>
<path fill-rule="evenodd" clip-rule="evenodd" d="M110.562 57.9727C110.562 57.9727 86.8818 85.2077 97.0268 159.212C107.172 233.216 144.708 230.4 167.552 255.744C190.395 281.087 164.614 337.313 167.552 358.11C173.359 399.216 263.636 399.158 263.351 342.218C263.067 285.278 249.263 290.731 250.705 255.744C252.146 220.756 286.09 150.177 342.184 159.212C398.279 168.247 367.407 195.254 399.906 219.841C429.117 241.941 504.789 253.408 514.793 159.212C522.955 82.3607 888.01 82.0397 888.01 159.212C888.01 217.271 934.402 233.514 963.084 205.631C991.774 177.747 965.524 153.183 991.884 138.586C1018.24 123.99 1056.11 152.602 1056.11 205.631C1056.11 225.229 1044.65 242.087 1044.65 261.685C1044.65 288.621 1046.6 299.862 1044.65 326.746C1040.15 389.028 1112.14 382.336 1126.93 348.938C1141.71 315.541 1133.65 274.657 1134.32 251.802C1134.32 251.802 1220.32 173.627 1189.75 57.9727H110.562Z" fill="#FFDB71"/>
<path d="M650.153 83.1034C948.164 83.1034 1189.75 71.7439 1189.75 57.7314C1189.75 43.7188 948.164 32.3594 650.153 32.3594C352.141 32.3594 110.555 43.7188 110.555 57.7314C110.555 71.7439 352.141 83.1034 650.153 83.1034Z" fill="#FFE7A7"/>
<path d="M611.276 197.864C630.128 197.864 645.411 182.097 645.411 162.649C645.411 143.2 630.128 127.434 611.276 127.434C592.423 127.434 577.141 143.2 577.141 162.649C577.141 182.097 592.423 197.864 611.276 197.864Z" fill="#FFDB71"/>
<defs>
<linearGradient id="paint0_linear_1363_5" x1="490.218" y1="450.387" x2="931.912" y2="2211.85" gradientUnits="userSpaceOnUse">
<stop stop-color="#E8800F"/>
<stop offset="1" stop-color="#934C00"/>
</linearGradient>
<linearGradient id="paint1_linear_1363_5" x1="508.838" y1="345.279" x2="1705.54" y2="1155.71" gradientUnits="userSpaceOnUse">
<stop stop-color="#C76B00"/>
<stop offset="1" stop-color="#642600"/>
</linearGradient>
</defs>
</svg>
