<svg width="256" height="68" viewBox="0 0 256 68" fill="none" xmlns="http://www.w3.org/2000/svg">
<path d="M254.132 19.0561L241.532 9.78125H194.912L191.879 19.0561H216.472L203.266 59.0939H213.439L226.599 19.0561H254.132Z" fill="#FCFC03"/>
<path d="M80.1587 9.78125L67.5117 19.0561H115.206L118.286 9.78125H80.1587Z" fill="#FCFC03"/>
<path d="M67.5146 19.0547L54.3086 59.0925H64.4816L75.7286 24.9777L67.5146 19.0547Z" fill="#FCFC03"/>
<path d="M118.288 9.78125L104.521 51.5179L109.328 51.1506L89.5876 36.4119H74.9336L104.194 59.0939H112.174L126.501 15.7043L118.288 9.78125Z" fill="#FCFC03"/>
<path d="M26.2152 14.8762L18.0019 8.95312L4.70185 49.2206L3.53516 52.756L12.2619 59.0923H49.1289L52.2549 49.6338H14.7352L26.2152 14.8762Z" fill="#FCFC03"/>
<path d="M137.885 29.7529L139.518 24.9318L131.351 19.0547L126.685 33.1047L134.805 38.9358V38.9818H171.205L167.705 49.634H121.365L118.285 59.0925H164.578L176.711 53.1695L182.685 35.079L175.171 29.661L137.885 29.7529Z" fill="#FCFC03"/>
<path d="M143.952 9.78125L131.352 19.0561H186.839L189.919 9.78125H143.952Z" fill="#FCFC03"/>
</svg>
