<svg xmlns="http://www.w3.org/2000/svg" width="29" height="29" viewBox="0 0 29 29" fill="none">
<path d="M21.1625 1.375L15.65 9.6875H18.4063L23.9188 1.375H21.1625Z" fill="#428BC1"/>
<path d="M18.4062 1.375L12.85 9.6875H15.65L21.1625 1.375H18.4062Z" fill="#E8E8E8"/>
<path d="M15.65 1.375L10.0938 9.6875H12.85L18.4062 1.375H15.65Z" fill="#ED4C5C"/>
<path d="M9.17498 7.84961C8.91248 7.84961 8.69373 8.06836 8.69373 8.33086V12.4871C8.69373 12.7496 8.91248 12.9684 9.17498 12.9684H19.325C19.5875 12.9684 19.8062 12.7496 19.8062 12.4871V8.33086C19.8062 8.06836 19.5875 7.84961 19.325 7.84961H9.17498ZM18.8437 11.0434C18.8437 11.3059 18.625 11.5246 18.3625 11.5246H10.05C9.78748 11.5246 9.56873 11.3059 9.56873 11.0434V9.20586C9.56873 8.94336 9.78748 8.72461 10.05 8.72461H18.3625C18.625 8.72461 18.8437 8.94336 18.8437 9.20586V11.0434Z" fill="#FFC200"/>
<path d="M10.0938 9.6875H12.85L7.33755 1.375H4.5813L10.0938 9.6875Z" fill="#ED4C5C"/>
<path d="M12.85 9.6875H15.65L10.0938 1.375H7.33752L12.85 9.6875Z" fill="#E8E8E8"/>
<path opacity="0.5" d="M14.7313 2.77539L13.3313 4.83164L16.5688 9.68789H18.4063L18.8438 8.98789L14.7313 2.77539Z" fill="#3E4347"/>
<path d="M15.65 9.6875H18.4062L12.85 1.375H10.0938L15.65 9.6875Z" fill="#428BC1"/>
<path d="M14.25 27.6252C19.01 27.6252 22.8687 23.7664 22.8687 19.0064C22.8687 14.2464 19.01 10.3877 14.25 10.3877C9.48997 10.3877 5.63123 14.2464 5.63123 19.0064C5.63123 23.7664 9.48997 27.6252 14.25 27.6252Z" fill="#FFC200"/>
<path d="M14.3812 11.1748C9.96245 11.1748 6.4187 14.7623 6.4187 19.1373C6.4187 20.4498 6.72495 21.6748 7.2937 22.7686C7.0312 21.8936 6.8562 20.9748 6.8562 20.0123C6.8562 15.3311 10.4437 11.5248 15.0375 11.1748H14.3812Z" fill="#E68A00"/>
<path d="M20.375 14.0625C22.6062 18 21.4687 23.075 17.575 25.6562C16.7875 26.1812 15.9125 26.575 15.0375 26.8375C16.2625 26.7063 17.4437 26.2688 18.5375 25.525C22.2125 23.075 23.175 18.175 20.7687 14.5875L20.375 14.0625Z" fill="#FFE394"/>
<path d="M14.25 15.5061V12.7061L12.85 17.0811L13.4625 17.8686L14.25 15.5061Z" fill="#F2B200"/>
<path d="M15.0375 17.8686L15.65 17.0811L14.25 12.7061V15.5061L15.0375 17.8686Z" fill="#E68A00"/>
<path d="M15.475 19.3123L16.525 19.7936L20.2437 17.0811L17.4875 17.8686L15.475 19.3123Z" fill="#C47500"/>
<path d="M17.4875 17.8686L20.2437 17.0811H15.65L15.0375 17.8686H17.4875Z" fill="#FFE394"/>
<path d="M13.4625 17.8686L12.85 17.0811H8.25623L11.0125 17.8686H13.4625Z" fill="#FFD252"/>
<path d="M11.0125 17.8686L8.25623 17.0811L11.9312 19.7936L13.025 19.3123L11.0125 17.8686Z" fill="#FFDB75"/>
<path d="M15.475 19.3125L16.2625 21.675L17.9687 24.1687L16.525 19.7937L15.475 19.3125Z" fill="#E68A00"/>
<path d="M14.25 20.2312V21.4563L17.9688 24.1687L16.2625 21.675L14.25 20.2312ZM13.025 19.3125L11.9313 19.7937L10.5312 24.1687L12.2375 21.675L13.025 19.3125Z" fill="#F2B200"/>
<path d="M12.2375 21.6752L10.5312 24.1689L14.25 21.4564V20.2314L12.2375 21.6752Z" fill="#E68A00"/>
<path d="M15.0375 17.8684L14.25 15.5059L13.4625 17.8684H11.0125L13.025 19.3121L12.2375 21.6746L14.25 20.2309L16.2625 21.6746L15.475 19.3121L17.4875 17.8684H15.0375Z" fill="#FFCE31"/>
</svg>