<svg width="378" height="378" viewBox="0 0 378 378" fill="none" xmlns="http://www.w3.org/2000/svg">
<circle cx="189" cy="189" r="174" fill="url(#paint0_linear_523_76)"/>
<g filter="url(#filter0_d_523_76)">
<mask id="mask0_523_76" style="mask-type:alpha" maskUnits="userSpaceOnUse" x="22" y="22" width="333" height="333">
<circle cx="188.5" cy="188.5" r="166.5" fill="#D9D9D9"/>
</mask>
<g mask="url(#mask0_523_76)">
<g filter="url(#filter1_f_523_76)">
<circle cx="167" cy="78" r="111" fill="#B4BFFF"/>
</g>
<g filter="url(#filter2_f_523_76)">
<circle cx="133" cy="78" r="111" fill="#F2DAFE"/>
</g>
<g filter="url(#filter3_f_523_76)">
<circle cx="100" cy="61" r="111" fill="#CEFCFC"/>
</g>
<g filter="url(#filter4_f_523_76)">
<ellipse cx="130" cy="256" rx="193" ry="136" fill="#B4CFFD"/>
</g>
<g filter="url(#filter5_f_523_76)">
<ellipse cx="158" cy="294" rx="253" ry="136" fill="#FCB4FE"/>
</g>
<g filter="url(#filter6_f_523_76)">
<ellipse cx="158" cy="336" rx="185" ry="136" fill="#FBF9A7"/>
</g>
<g filter="url(#filter7_f_523_76)">
<ellipse cx="158" cy="371" rx="185" ry="136" fill="#B7F8BA"/>
</g>
<g filter="url(#filter8_f_523_76)">
<ellipse cx="142" cy="401" rx="185" ry="136" fill="#9CC8E1"/>
</g>
<g filter="url(#filter9_f_523_76)">
<ellipse cx="110" cy="426" rx="156" ry="124" fill="#F3B4BA"/>
</g>
<g filter="url(#filter10_f_523_76)">
<circle cx="339" cy="114" r="111" fill="#84FCFB"/>
</g>
<g filter="url(#filter11_f_523_76)">
<circle cx="391" cy="92" r="111" fill="#C6FAFD"/>
</g>
<g filter="url(#filter12_f_523_76)">
<circle cx="419" cy="78" r="111" fill="#FFCEEB"/>
</g>
<g filter="url(#filter13_f_523_76)">
<circle cx="115.5" cy="49.5" r="52.5" fill="#8FFADD"/>
</g>
</g>
</g>
<g filter="url(#filter14_d_523_76)">
<path fill-rule="evenodd" clip-rule="evenodd" d="M189 370C288.964 370 370 288.964 370 189C370 89.0365 288.964 8 189 8C89.0365 8 8 89.0365 8 189C8 288.964 89.0365 370 189 370ZM189 363C285.098 363 363 285.098 363 189C363 92.9025 285.098 15 189 15C92.9025 15 15 92.9025 15 189C15 285.098 92.9025 363 189 363Z" fill="url(#paint1_linear_523_76)"/>
</g>
<path d="M73.9832 165.102C75.7941 165.102 75.7941 162.289 73.9832 162.289C72.1723 162.289 72.1723 165.102 73.9832 165.102Z" fill="white"/>
<path d="M271.664 143.089C285.836 155.965 298.119 171.507 303.985 189.665C309.85 207.823 308.591 228.844 297.652 244.521L297.692 244.397C294.154 251.08 289.278 257.43 283.227 262.004C279.959 264.473 276.405 266.554 272.777 268.467C240.479 285.46 202.596 288.762 166.069 287.232C149.81 285.843 133.461 282.906 118.743 275.926C114.88 274.092 111.095 271.954 108.081 268.934L108.064 268.636C100.775 267.477 93.7057 264.456 88.2618 259.5C82.8234 254.545 79.1172 247.598 78.6617 240.285C78.2062 232.972 81.1925 225.395 86.9176 220.772C82.6378 219.45 78.6055 217.959 74.8262 215.568C73.4483 214.697 72.0705 213.712 71.255 212.312C70.1808 210.461 70.2539 208.166 70.7095 206.085C71.1875 203.896 72.0873 201.736 73.6958 200.167C75.3042 198.598 77.7056 197.72 79.8765 198.322C80.7426 192.303 83.5995 186.577 87.8906 182.24C86.4452 180.552 85.3542 178.567 84.7131 176.446L84.4487 176.243C81.1531 176.013 77.7563 175.18 75.2649 173.026C72.7734 170.871 71.4743 167.131 72.9084 164.178C73.1221 163.739 73.3921 163.311 73.4314 162.828C73.4764 162.243 73.184 161.691 72.9253 161.168C71.0075 157.231 71.0469 152.404 73.0265 148.495C73.5158 147.527 74.1232 146.599 74.365 145.542C74.7531 143.82 74.1176 142.015 74.365 140.265C74.725 137.796 76.7721 135.917 78.9148 134.612C81.0575 133.307 83.4421 132.34 85.253 130.613C86.6871 129.246 87.6881 127.48 89.1166 126.113C93.5483 121.883 100.848 122.451 105.955 119.053L106.14 119.267C111.264 105.733 123.501 95.0847 137.696 91.8053C151.885 88.5315 167.604 92.7278 178.222 102.622L178.2 102.971C189.515 95.8272 202.315 89.8702 215.711 90.3934C224.935 90.7534 233.877 94.224 241.486 99.4104C249.095 104.597 255.444 111.437 260.86 118.851C262.542 121.151 264.139 123.514 265.461 126.028C268.216 131.277 269.707 137.065 271.175 142.797" fill="url(#paint2_radial_523_76)"/>
<path d="M270.674 144.086C281.674 154.104 291.533 165.63 298.152 179.04C304.772 192.45 307.601 206.907 305.289 221.352C304.001 229.401 301.094 237.096 296.443 243.813L299.013 244.898L299.052 244.775C299.525 243.262 297.236 242.277 296.482 243.689C293.428 249.415 289.559 254.725 284.672 259.023C279.785 263.321 273.638 266.594 267.682 269.463C255.9 275.133 243.325 279.065 230.53 281.681C217.601 284.325 204.418 285.602 191.236 286.012C184.56 286.22 177.885 286.198 171.209 286.012C164.533 285.827 157.548 285.084 150.783 283.976C143.236 282.738 135.75 280.983 128.535 278.435C121.718 276.033 114.312 273.091 109.076 267.939L109.486 268.934L109.469 268.636C109.441 268.074 109.059 267.382 108.435 267.281C100.038 265.908 91.9453 262.139 86.4057 255.536C81.1529 249.275 78.6503 240.742 80.8493 232.748C82.0359 228.439 84.4542 224.609 87.9129 221.768C88.7734 221.059 88.2166 219.704 87.2943 219.417C84.3923 218.517 81.5129 217.527 78.7909 216.177C76.5188 215.052 73.2682 213.584 72.2278 211.097C71.1873 208.611 72.0197 205.478 73.167 203.273C74.3705 200.961 76.7663 199.02 79.5108 199.684C80.18 199.847 81.1248 199.476 81.2429 198.7C82.1259 192.855 84.7635 187.472 88.8971 183.236C89.4651 182.657 89.392 181.836 88.8971 181.245C87.8848 180.03 87.0412 178.652 86.4619 177.184C85.9164 175.794 85.6915 174.979 84.0774 174.81C81.1698 174.512 78.0542 173.803 75.8946 171.682C73.9656 169.798 73.1613 167.047 74.2974 164.555C74.9273 163.183 74.9329 162.142 74.2974 160.77C73.5944 159.234 73.077 157.665 72.9589 155.971C72.8576 154.554 72.9589 153.131 73.3076 151.753C73.7069 150.161 74.5055 148.861 75.1803 147.393C75.8215 146.004 75.9564 144.631 75.844 143.118C75.7146 141.397 75.5796 139.889 76.6426 138.41C78.3691 136.014 81.3554 134.99 83.7737 133.482C85.056 132.684 86.2201 131.75 87.1987 130.597C88.2504 129.359 89.1446 127.97 90.365 126.878C92.5133 124.96 95.4434 124.212 98.1597 123.492C101.101 122.71 104.087 121.934 106.674 120.263L104.97 120.044L105.156 120.258C105.915 121.13 107.158 120.545 107.507 119.639C111.314 109.711 119.013 101.492 128.445 96.6718C138.393 91.5867 150.041 90.8442 160.681 94.1349C166.817 96.0305 172.514 99.2593 177.238 103.619L176.827 102.623L176.805 102.972C176.737 104.029 178.053 104.733 178.919 104.187C191.899 96.008 207.039 89.331 222.674 92.6836C238.308 96.0361 249.905 106.504 258.931 118.598C261.648 122.232 264.15 126.018 265.871 130.237C267.592 134.455 268.694 138.809 269.813 143.174C270.263 144.924 272.974 144.181 272.524 142.426C271.473 138.331 270.421 134.219 268.891 130.27C267.361 126.322 265.359 122.772 262.941 119.352C258.358 112.878 253.105 106.791 246.952 101.762C240.816 96.7449 233.798 92.768 226.138 90.636C218.478 88.5041 210.256 88.5041 202.433 90.411C193.508 92.588 185.224 96.8855 177.491 101.757L179.606 102.972C179.69 101.627 178.385 100.851 177.446 100.069C176.237 99.0681 174.983 98.1174 173.678 97.2399C171.113 95.513 168.375 94.0842 165.518 92.8973C159.809 90.5292 153.606 89.2916 147.425 89.2973C135.497 89.3029 124.002 94.2192 115.504 102.55C110.797 107.163 107.136 112.737 104.779 118.885L107.13 118.266L106.944 118.053C106.551 117.603 105.735 117.513 105.24 117.833C100.764 120.73 95.0834 120.635 90.4999 123.323C89.2964 124.027 88.2166 124.927 87.2999 125.973C86.2595 127.165 85.4046 128.515 84.2461 129.612C82.0697 131.682 79.0665 132.605 76.6988 134.422C74.3311 136.239 72.7339 138.747 72.9083 141.886C72.9926 143.456 73.2569 144.856 72.5596 146.336C71.8622 147.815 71.1142 149.086 70.6812 150.628C69.8545 153.581 69.8938 156.821 70.833 159.74C71.0299 160.348 71.2661 160.938 71.5304 161.518C71.9072 162.356 72.0647 162.603 71.6822 163.458C71.1142 164.713 70.8105 166.018 70.9174 167.407C71.1536 170.49 72.9308 173.19 75.439 174.928C76.7775 175.856 78.3354 176.497 79.8988 176.925C80.7649 177.161 81.6479 177.319 82.5364 177.442C82.902 177.493 83.3069 177.589 83.6725 177.583C84.4879 177.566 83.5881 177.352 83.993 177.656L83.3463 176.818C84.0999 179.197 85.2922 181.318 86.8894 183.231V181.239C82.4465 185.79 79.4658 191.646 78.5153 197.94L80.2475 196.956C72.8127 195.161 68.1167 204.06 69.129 210.394C69.7195 214.084 72.8633 216.154 75.9058 217.831C79.2633 219.681 82.8907 220.986 86.5407 222.117L85.922 219.766C79.1396 225.346 76.2039 234.492 77.5761 243.048C79.0271 252.11 85.0785 259.929 92.817 264.62C97.3555 267.371 102.462 269.126 107.687 269.981L106.652 268.625C106.725 270.104 108.238 271.049 109.318 271.905C110.617 272.934 111.978 273.868 113.406 274.706C116.348 276.444 119.48 277.856 122.635 279.167C129.176 281.878 135.992 283.869 142.909 285.343C149.844 286.817 156.89 287.779 163.949 288.442C170.787 289.084 177.755 289.016 184.616 288.954C198.418 288.825 212.23 287.801 225.834 285.416C239.225 283.07 252.379 279.341 264.831 273.851C271.158 271.061 277.473 267.916 283.086 263.844C288.699 259.771 292.888 254.956 296.437 249.359C297.32 247.97 298.136 246.547 298.912 245.101L296.342 244.015L296.302 244.139C295.802 245.737 298.006 246.473 298.872 245.225C307.432 232.85 310.182 217.24 308.27 202.468C306.313 187.314 299.502 173.28 290.324 161.203C285.06 154.278 279.087 147.939 272.659 142.089C271.326 140.874 269.33 142.854 270.668 144.08L270.674 144.086Z" fill="black"/>
<path d="M269.988 143.8C271.602 147.22 272.232 151.023 271.934 154.786C271.872 155.546 272.626 156.192 273.34 156.192C274.15 156.192 274.684 155.546 274.746 154.786C275.083 150.517 274.24 146.247 272.417 142.383C272.091 141.697 271.107 141.517 270.494 141.877C269.791 142.287 269.667 143.108 269.988 143.8Z" fill="black"/>
<path d="M256.029 193.846C263.728 197.913 270.673 205.512 269.267 214.85C268.907 217.257 267.968 219.569 266.41 221.454C265.837 222.145 266.827 223.147 267.406 222.449C270.398 218.832 271.331 214.034 270.572 209.455C269.813 204.876 267.023 200.495 263.492 197.294C261.456 195.454 259.161 193.908 256.737 192.631C255.939 192.209 255.224 193.424 256.029 193.846Z" fill="black"/>
<path d="M178.173 101.854C175.204 105.516 172.617 109.47 170.513 113.694C169.45 115.826 168.511 118.015 167.69 120.253C167.302 121.305 167.054 122.475 166.531 123.471C166.008 124.467 164.951 124.99 164.124 125.659C162.089 127.302 160.373 129.327 159.018 131.56C158.315 132.724 160.137 133.787 160.84 132.623C162.004 130.699 163.45 128.989 165.159 127.527C165.997 126.812 167.015 126.25 167.741 125.417C168.511 124.528 168.826 123.409 169.197 122.323C170.676 117.953 172.662 113.762 175.08 109.836C176.469 107.58 177.999 105.414 179.669 103.356C180.029 102.911 180.096 102.304 179.669 101.865C179.303 101.488 178.539 101.426 178.179 101.865L178.173 101.854Z" fill="black"/>
<path d="M167.606 125.485C175.226 120.816 184.241 119.275 193.076 119.511C202.626 119.77 211.939 122.076 220.842 125.457C226.038 127.426 231.094 129.737 236.088 132.156C237.303 132.747 238.377 130.924 237.151 130.334C228.068 125.94 218.738 121.862 208.891 119.517C199.797 117.351 190.152 116.597 180.912 118.29C175.85 119.219 170.929 120.968 166.537 123.662C165.384 124.371 166.441 126.194 167.6 125.485H167.606Z" fill="black"/>
<path d="M105.718 120.771C113.979 120.084 122.28 120.518 130.525 121.238C134.636 121.598 138.741 122.025 142.847 122.43C146.272 122.768 149.708 123.032 153.088 123.707C156.642 124.416 160.23 125.496 163.149 127.718C163.605 128.066 164.325 127.785 164.595 127.341C164.915 126.801 164.668 126.238 164.218 125.895C158.847 121.806 151.491 121.148 145.001 120.529C136.604 119.73 128.213 118.74 119.777 118.419C115.093 118.239 110.397 118.273 105.723 118.661C104.379 118.774 104.368 120.883 105.723 120.771H105.718Z" fill="black"/>
<path d="M84.5499 133.196C86.2877 133.196 88.0199 132.678 89.662 132.161C91.5067 131.581 93.3232 130.957 95.2016 130.507C99.5264 129.461 103.975 129.044 108.423 129.067C117.658 129.118 126.729 131.098 135.61 133.477C138.101 134.146 140.592 134.821 143.067 135.547C144.878 136.081 146.908 136.751 148.005 138.405C148.753 139.53 150.581 138.478 149.827 137.341C148.747 135.716 147.133 134.76 145.339 134.079C143.309 133.308 141.16 132.813 139.074 132.234C134.462 130.957 129.828 129.753 125.138 128.814C115.954 126.98 106.461 126.198 97.1981 127.925C94.8867 128.353 92.6315 128.971 90.4044 129.703C88.5373 130.316 86.5408 131.086 84.5499 131.086C83.1945 131.086 83.1889 133.196 84.5499 133.196Z" fill="black"/>
<path d="M230.594 161.698C222.22 156.776 213.621 152.237 204.837 148.091C196.733 144.266 188.241 140.728 179.287 140.312C175.919 140.154 172.55 140.441 169.198 140.796C161.679 141.583 153.479 143.062 148.637 148.868C146.927 150.921 145.774 153.379 144.869 155.888C143.671 159.218 142.878 162.835 143.66 166.283C144.784 171.244 148.98 174.962 153.485 177.319C164.626 183.147 178.056 182.455 190.338 179.777C193.55 179.08 196.738 178.253 199.882 177.28C210.866 173.888 221.287 168.696 230.611 161.974" fill="#F7F7F7"/>
<path d="M231.302 160.49C224.863 156.71 218.3 153.149 211.619 149.824C205.106 146.584 198.487 143.344 191.524 141.179C188.043 140.099 184.466 139.328 180.833 139.013C177.2 138.698 173.427 138.962 169.743 139.334C163.849 139.936 157.674 140.779 152.477 143.839C149.812 145.414 147.568 147.58 145.954 150.224C144.165 153.16 142.872 156.642 142.276 160.023C141.679 163.403 141.944 166.902 143.58 170.019C144.992 172.713 147.225 174.89 149.682 176.634C155.003 180.419 161.605 182.253 168.028 182.906C174.731 183.586 181.525 182.922 188.128 181.662C202.007 179.013 215.37 173.725 227.214 166.013C228.609 165.102 229.981 164.163 231.336 163.19C231.949 162.745 232.247 161.963 231.842 161.266C231.488 160.658 230.538 160.315 229.919 160.76C218.947 168.652 206.563 174.361 193.453 177.612C181.328 180.622 167.555 182.281 155.824 176.892C150.92 174.642 145.746 170.862 144.885 165.142C144.385 161.823 145.386 158.408 146.578 155.343C147.675 152.525 149.227 149.926 151.527 147.934C155.655 144.374 161.425 143.164 166.678 142.484C170.041 142.045 173.443 141.702 176.835 141.668C180.226 141.634 183.696 142.051 187.053 142.849C193.74 144.447 200.028 147.316 206.203 150.286C212.378 153.256 218.992 156.693 225.212 160.214C226.775 161.097 228.333 161.997 229.885 162.908C231.437 163.82 232.866 161.395 231.302 160.478V160.49Z" fill="black"/>
<path d="M147.349 148.259C146.758 144.564 148.67 140.958 151.313 138.505C153.957 136.053 157.595 134.394 161.105 133.28C168.86 130.816 177.414 130.58 185.462 131.395C189.646 131.817 193.712 132.818 197.627 134.354C201.541 135.89 204.898 137.695 208.391 139.636C215.994 143.866 223.542 148.197 231.111 152.484C233.198 153.665 235.301 154.813 237.365 156.033C238.805 156.883 240.413 157.901 241.066 159.521C241.409 160.381 241.392 161.242 240.436 161.602C239.547 161.934 238.513 161.968 237.579 161.973C235.414 161.99 233.265 161.495 231.325 160.533C230.116 159.931 229.042 161.748 230.262 162.356C232.18 163.312 234.227 163.886 236.364 164.049C237.382 164.122 238.4 164.088 239.407 163.953C240.312 163.835 241.257 163.672 242.022 163.143C243.816 161.911 243.585 159.566 242.59 157.89C241.662 156.331 240.138 155.234 238.608 154.323C234.587 151.921 230.453 149.694 226.376 147.387C222.22 145.036 218.064 142.679 213.908 140.328C206.226 135.98 198.42 131.435 189.612 129.86C185.068 129.05 180.417 128.847 175.806 128.954C171.413 129.055 166.999 129.522 162.741 130.619C155.155 132.577 146.173 137.037 145.206 145.784C145.093 146.808 145.155 147.809 145.313 148.822C145.403 149.384 146.106 149.699 146.612 149.559C147.208 149.39 147.439 148.827 147.349 148.259Z" fill="black"/>
<path d="M141.667 170.811C125.465 175.008 108.357 175.666 91.8843 172.729C84.5901 171.43 76.6772 168.887 73.016 162.447C70.8114 158.577 70.5752 153.655 72.3974 149.593C74.0283 145.96 77.1496 143.141 80.6758 141.291C84.202 139.44 88.1275 138.478 92.0531 137.814C108.233 135.075 125.201 137.162 140.233 143.743C141.881 144.463 143.546 145.268 144.811 146.545C146.077 147.822 146.892 149.689 146.487 151.444C146.24 152.507 145.582 153.424 145.036 154.369C143.034 157.817 142.399 162.031 143.298 165.917C143.546 167.003 143.917 168.1 143.748 169.197C143.58 170.294 142.652 171.385 141.549 171.25" fill="#F7F7F7"/>
<path d="M141.289 169.456C128.382 172.78 114.941 173.854 101.668 172.639C95.8815 172.111 89.9145 171.334 84.4086 169.377C79.8701 167.762 75.2922 164.899 73.4813 160.202C72.4634 157.564 72.2947 154.639 73.0483 151.911C73.7513 149.363 75.281 147.169 77.21 145.391C81.6979 141.263 87.9348 139.839 93.7894 138.945C106.179 137.061 119.018 138.101 130.986 141.797C133.956 142.714 136.891 143.788 139.731 145.048C141.947 146.033 144.973 147.484 145.17 150.274C145.265 151.635 144.32 152.743 143.691 153.863C142.937 155.213 142.352 156.687 141.986 158.194C141.621 159.702 141.441 161.282 141.486 162.835C141.531 164.387 141.852 165.895 142.2 167.414C142.346 168.055 142.656 169.906 141.531 169.838C139.726 169.726 139.731 172.538 141.531 172.651C143.173 172.752 144.545 171.464 145.001 169.951C145.513 168.235 144.798 166.514 144.495 164.832C143.955 161.856 144.433 158.616 145.783 155.91C146.497 154.487 147.571 153.193 147.875 151.596C148.178 149.998 147.79 148.384 146.958 147.023C145.215 144.171 141.919 142.899 138.972 141.684C126.504 136.537 112.748 134.411 99.3064 135.497C92.6421 136.031 85.5109 137.004 79.5777 140.273C74.1843 143.243 70.0732 148.39 69.7864 154.707C69.4996 161.023 72.8964 166.204 77.9805 169.41C83.0645 172.617 88.6659 173.68 94.273 174.541C108.395 176.706 122.854 176.324 136.841 173.382C138.584 173.016 140.316 172.606 142.043 172.161C143.769 171.717 143.049 168.994 141.295 169.45L141.289 169.456Z" fill="black"/>
<path d="M140.752 170.756C136.045 171.346 131.849 173.478 128.525 176.859C126.838 178.575 125.348 180.487 123.852 182.377C122.356 184.267 120.95 186.101 119.668 188.087C118.194 190.365 116.946 192.789 116.08 195.366C115.647 196.654 117.682 197.211 118.115 195.928C119.533 191.721 122.092 188.019 124.808 184.554C127.524 181.089 130.196 177.427 133.997 175.194C136.061 173.979 138.378 173.175 140.752 172.877C141.314 172.803 141.809 172.443 141.809 171.819C141.809 171.301 141.325 170.694 140.752 170.761V170.756Z" fill="black"/>
<path d="M84.5373 178.056C89.6944 181.234 95.9145 181.982 101.825 182.539C105.121 182.848 108.428 183.023 111.735 183.051C114.743 183.079 117.808 183.096 120.795 182.719C123.781 182.342 126.627 181.493 128.691 179.282C129.619 178.292 128.128 176.796 127.2 177.791C125.564 179.541 123.258 180.255 120.941 180.587C118.185 180.981 115.334 180.953 112.556 180.947C106.488 180.93 100.29 180.587 94.3286 179.417C91.2635 178.815 88.2716 177.881 85.5946 176.233C84.4361 175.519 83.3731 177.341 84.5317 178.056H84.5373Z" fill="black"/>
<path d="M88.2454 184.812C96.3045 187.849 105.016 189.16 113.609 188.631C116.084 188.479 118.547 188.17 120.988 187.72C122.321 187.478 121.758 185.442 120.426 185.683C109.853 187.613 98.8521 186.567 88.8022 182.775C87.5311 182.297 86.98 184.333 88.2398 184.812H88.2454Z" fill="black"/>
<path d="M143.724 170.254C142.92 173.285 143.432 176.638 145.259 179.209C146.969 181.616 149.489 183.236 152.121 184.491C158.031 187.309 164.443 189.159 170.905 190.144C183.845 192.113 197.129 190.577 209.361 185.948C216.104 183.394 222.493 179.985 228.376 175.817C229.472 175.04 228.421 173.207 227.313 173.994C217.37 181.037 205.942 185.948 193.901 187.939C181.427 190.003 168.379 188.754 156.592 184.131C153.701 182.994 150.63 181.723 148.341 179.557C146.052 177.392 144.905 174.028 145.76 170.816C146.109 169.505 144.078 168.943 143.724 170.254Z" fill="black"/>
<path d="M157.352 186.651C166.806 191.342 177.301 194.278 187.851 194.869C193.396 195.178 198.823 194.565 204.273 193.542C209.503 192.557 214.711 191.359 219.728 189.565C225.29 187.579 230.565 184.862 235.109 181.059C236.149 180.188 234.653 178.703 233.619 179.569C225.756 186.145 215.645 189.131 205.769 191.111C200.505 192.169 195.235 192.968 189.853 192.838C184.471 192.709 179.528 191.938 174.505 190.695C168.955 189.317 163.539 187.376 158.421 184.834C157.212 184.232 156.138 186.049 157.358 186.656L157.352 186.651Z" fill="black"/>
<path d="M232.412 248.083C224.218 254.518 214.989 259.626 205.181 263.147C201.694 264.401 198.134 265.453 194.552 266.404C170.549 272.788 145.567 274.577 120.884 271.832L120.647 271.81C114.545 271.337 108.404 270.853 102.505 269.222C96.6051 267.591 90.9024 264.711 86.8588 260.121C85.0254 258.045 83.5745 255.666 82.2922 253.207C81.0549 250.839 79.9695 248.375 79.3228 245.782C77.2981 237.648 80.0876 228.502 86.3021 222.883C82.0166 220.621 79.0922 219.339 74.6943 216.155C73.1139 215.013 72.1579 214.197 71.2243 212.077C70.5832 210.62 70.8925 204.022 72.6865 202.075C74.4805 200.129 77.3206 199.207 79.9133 199.724L80.1607 199.803C82.534 200.821 84.8117 202.058 87.185 203.077C92.584 205.388 98.0448 207.723 103.843 208.662L103.995 208.786C125.36 215.03 148.16 214.158 170.245 211.379C192.33 208.606 213.881 203.825 236.112 202.728C240.297 201.811 244.711 201.963 248.817 203.167C250.532 203.673 252.27 204.41 253.395 205.799C254.205 206.795 254.626 208.044 254.925 209.292C256.764 217.049 253.997 225.329 249.351 231.81C244.706 238.29 238.334 243.29 232.046 248.195" fill="url(#paint3_linear_523_76)"/>
<path d="M231.668 247.336C221.719 255.121 210.354 260.74 198.251 264.278C185.428 268.03 172.173 270.387 158.855 271.422C152.191 271.94 145.504 272.125 138.823 271.973C132.265 271.827 125.781 271.163 119.246 270.646C107.436 269.712 93.7469 268.013 86.222 257.646C82.7971 252.927 79.9401 247.066 79.7433 241.154C79.5689 235.922 81.2392 230.623 84.4336 226.466C85.221 225.443 86.1096 224.503 87.06 223.631C87.5493 223.187 87.4312 222.281 86.8463 221.978C83.3876 220.161 79.8895 218.445 76.6501 216.246C75.2329 215.278 73.6975 214.316 72.7864 212.814C72.1397 211.746 71.9878 210.846 71.9822 209.614C71.971 207.139 72.1228 203.736 74.243 202.087C75.6434 200.996 77.6062 200.417 79.3777 200.704C80.1538 200.833 80.8624 201.26 81.5654 201.592C82.679 202.121 83.7869 202.667 84.9004 203.195C88.9215 205.086 93.1001 206.824 97.3405 208.168C98.4147 208.506 99.5001 208.815 100.591 209.079C101.137 209.214 101.688 209.332 102.239 209.445C102.441 209.484 102.706 209.574 102.903 209.569C103.499 209.569 103.071 209.479 103.257 209.535C103.51 209.614 103.774 209.816 104.056 209.901C104.275 209.968 104.5 210.03 104.719 210.092C105.27 210.249 105.821 210.396 106.378 210.542C107.486 210.834 108.594 211.104 109.708 211.363C118.605 213.411 127.744 214.344 136.86 214.524C155.425 214.884 173.854 212.134 192.132 209.226C201.49 207.735 210.848 206.216 220.263 205.131C224.936 204.591 229.627 204.157 234.328 203.887C236.617 203.752 238.85 203.241 241.15 203.201C243.45 203.162 245.694 203.432 247.899 204.011C249.727 204.495 251.746 205.17 252.848 206.818C253.95 208.466 254.254 210.699 254.395 212.612C254.698 216.707 253.843 220.813 252.252 224.582C248.973 232.339 242.736 238.268 236.325 243.494C234.671 244.838 232.99 246.154 231.308 247.465C230.24 248.297 231.741 249.782 232.799 248.956C239.761 243.527 246.926 237.914 251.639 230.308C253.843 226.753 255.497 222.776 256.183 218.642C256.841 214.699 256.892 209.895 254.963 206.267C252.938 202.464 247.741 201.53 243.85 201.193C241.561 200.996 239.261 201.114 237 201.497C234.598 201.907 232.113 201.907 229.683 202.104C219.745 202.892 209.876 204.321 200.034 205.856C180.8 208.866 161.549 212.235 142.028 212.438C132.456 212.539 122.851 211.886 113.448 210.013C111.147 209.557 108.864 209.023 106.598 208.421C106.063 208.281 105.49 208.033 104.938 207.966C104.275 207.887 104.787 208.011 104.59 207.921C104.421 207.842 104.303 207.718 104.123 207.651C103.628 207.459 102.987 207.454 102.458 207.341C101.795 207.206 101.137 207.049 100.484 206.88C95.8727 205.687 91.4129 203.826 87.0712 201.89C85.9971 201.412 84.9454 200.895 83.8881 200.383C82.7689 199.843 81.6217 199.179 80.4406 198.797C78.8884 198.29 76.9707 198.515 75.4578 199.061C73.945 199.607 72.3028 200.608 71.4086 202.037C70.6606 203.235 70.34 204.72 70.132 206.098C69.7045 208.927 69.5189 211.847 71.223 214.294C72.2747 215.807 73.7988 216.842 75.2947 217.877C76.965 219.03 78.7028 220.076 80.4856 221.044C82.2684 222.011 84.0062 222.872 85.7609 223.795L85.5472 222.141C81.5429 225.808 78.8603 230.854 77.9661 236.204C77.5106 238.943 77.4881 241.71 77.9548 244.45C78.4835 247.555 79.7095 250.508 81.138 253.304C82.5665 256.099 84.3043 258.946 86.4976 261.314C88.4604 263.429 90.8055 265.201 93.3138 266.624C98.8365 269.757 105.068 271.186 111.31 271.99C114.606 272.412 117.919 272.575 121.22 272.935C124.667 273.307 128.126 273.605 131.59 273.802C138.558 274.207 145.549 274.246 152.523 273.931C166.324 273.295 180.074 271.248 193.454 267.788C200.011 266.095 206.456 264.042 212.642 261.263C218.531 258.619 224.16 255.391 229.413 251.633C230.678 250.727 231.921 249.794 233.142 248.832C234.21 247.994 232.709 246.514 231.651 247.341L231.668 247.336Z" fill="#020202"/>
<path d="M86.3047 222.887C91.4506 225.953 99.0092 225.677 104.948 226.419C143.084 231.173 182.035 229.294 219.53 220.879C225.064 219.636 230.733 218.246 236.351 219.039C237.38 219.186 238.68 219.776 238.505 220.8C238.421 221.317 237.965 221.677 237.544 221.987C231.7 226.313 225.857 230.638 220.014 234.964C216.96 237.225 213.895 239.492 210.639 241.45C202.596 246.287 193.525 249.156 184.403 251.355C158.246 257.667 130.211 258.679 104.802 249.82C101.45 248.65 98.07 247.26 95.5111 244.808C92.9522 242.355 91.3494 238.609 92.3223 235.195C93.6214 230.638 98.6548 228.428 103.109 226.808" fill="#F492A7"/>
<path d="M85.5893 224.103C89.6836 226.499 94.5876 226.943 99.2161 227.315C104.396 227.731 109.536 228.411 114.71 228.901C126.048 229.975 137.448 230.465 148.836 230.38C160.225 230.29 171.613 229.626 182.94 228.383C194.289 227.135 205.582 225.323 216.745 222.933C222.234 221.757 227.774 220.114 233.437 220.227C234.494 220.249 235.855 220.176 236.834 220.626C236.811 220.615 237.25 220.857 237.211 220.885C237.205 220.891 237.076 220.542 237.098 220.542C237.059 220.542 236.637 220.93 236.581 220.969C236.255 221.211 235.934 221.448 235.608 221.689C233.212 223.461 230.822 225.233 228.426 227.005C223.82 230.414 219.259 233.907 214.569 237.203C210.131 240.32 205.419 242.947 200.379 244.972C195.419 246.963 190.279 248.471 185.094 249.753C179.908 251.036 174.571 252.127 169.245 252.959C158.582 254.63 147.734 255.283 136.953 254.658C126.234 254.034 115.587 252.082 105.436 248.572C101.061 247.059 96.1905 245.045 94.1602 240.545C93.3279 238.7 93.131 236.523 94.0084 234.661C94.8295 232.917 96.331 231.652 97.9564 230.673C99.6942 229.626 101.573 228.873 103.473 228.181C104.188 227.922 104.666 227.225 104.458 226.448C104.266 225.762 103.445 225.205 102.725 225.464C98.6875 226.938 94.1265 228.783 91.8656 232.698C89.3068 237.125 91.067 242.575 94.6045 245.9C98.4738 249.539 103.946 251.148 108.917 252.644C114.226 254.236 119.654 255.429 125.131 256.244C136.272 257.904 147.588 258.078 158.802 257.06C170.016 256.042 181.005 254.006 191.719 250.889C197.084 249.331 202.37 247.407 207.359 244.876C212.347 242.345 217.083 238.88 221.689 235.471C226.559 231.865 231.429 228.26 236.3 224.66C237.362 223.872 238.87 223.096 239.556 221.931C240.242 220.767 239.904 219.468 238.937 218.663C237.914 217.808 236.603 217.651 235.321 217.527C233.87 217.386 232.408 217.386 230.957 217.476C225.069 217.853 219.31 219.552 213.556 220.739C207.803 221.926 201.937 222.972 196.088 223.861C184.464 225.621 172.749 226.746 161.006 227.264C149.264 227.781 137.436 227.68 125.677 226.955C119.822 226.595 113.973 226.077 108.147 225.408C105.571 225.11 103.012 224.806 100.425 224.603C98.0407 224.418 95.6506 224.243 93.2941 223.816C91.1008 223.416 88.9412 222.814 87.0066 221.684C85.4431 220.767 84.0259 223.197 85.5893 224.114V224.103Z" fill="#020202"/>
<path d="M86.3047 222.887C91.4506 225.953 99.0092 225.677 104.948 226.419C143.084 231.173 182.035 229.294 219.53 220.879C225.064 219.636 230.733 218.246 236.351 219.039C237.38 219.186 238.68 219.776 238.505 220.8C238.421 221.317 237.965 221.677 237.544 221.987C231.7 226.313 225.857 230.638 220.014 234.964C216.96 237.225 213.895 239.492 210.639 241.45C202.596 246.287 193.525 249.156 184.403 251.355C158.246 257.667 130.211 258.679 104.802 249.82C101.45 248.65 98.07 247.26 95.5111 244.808C92.9522 242.355 91.3494 238.609 92.3223 235.195C93.6214 230.638 98.6548 228.428 103.109 226.808" fill="#F492A7"/>
<path d="M85.5893 224.103C89.6836 226.499 94.5876 226.943 99.2161 227.315C104.396 227.731 109.536 228.411 114.71 228.901C126.048 229.975 137.448 230.465 148.836 230.38C160.225 230.29 171.613 229.626 182.94 228.383C194.289 227.135 205.582 225.323 216.745 222.933C222.234 221.757 227.774 220.114 233.437 220.227C234.494 220.249 235.855 220.176 236.834 220.626C236.811 220.615 237.25 220.857 237.211 220.885C237.205 220.891 237.076 220.542 237.098 220.542C237.059 220.542 236.637 220.93 236.581 220.969C236.255 221.211 235.934 221.448 235.608 221.689C233.212 223.461 230.822 225.233 228.426 227.005C223.82 230.414 219.259 233.907 214.569 237.203C210.131 240.32 205.419 242.947 200.379 244.972C195.419 246.963 190.279 248.471 185.094 249.753C179.908 251.036 174.571 252.127 169.245 252.959C158.582 254.63 147.734 255.283 136.953 254.658C126.234 254.034 115.587 252.082 105.436 248.572C101.061 247.059 96.1905 245.045 94.1602 240.545C93.3279 238.7 93.131 236.523 94.0084 234.661C94.8295 232.917 96.331 231.652 97.9564 230.673C99.6942 229.626 101.573 228.873 103.473 228.181C104.188 227.922 104.666 227.225 104.458 226.448C104.266 225.762 103.445 225.205 102.725 225.464C98.6875 226.938 94.1265 228.783 91.8656 232.698C89.3068 237.125 91.067 242.575 94.6045 245.9C98.4738 249.539 103.946 251.148 108.917 252.644C114.226 254.236 119.654 255.429 125.131 256.244C136.272 257.904 147.588 258.078 158.802 257.06C170.016 256.042 181.005 254.006 191.719 250.889C197.084 249.331 202.37 247.407 207.359 244.876C212.347 242.345 217.083 238.88 221.689 235.471C226.559 231.865 231.429 228.26 236.3 224.66C237.362 223.872 238.87 223.096 239.556 221.931C240.242 220.767 239.904 219.468 238.937 218.663C237.914 217.808 236.603 217.651 235.321 217.527C233.87 217.386 232.408 217.386 230.957 217.476C225.069 217.853 219.31 219.552 213.556 220.739C207.803 221.926 201.937 222.972 196.088 223.861C184.464 225.621 172.749 226.746 161.006 227.264C149.264 227.781 137.436 227.68 125.677 226.955C119.822 226.595 113.973 226.077 108.147 225.408C105.571 225.11 103.012 224.806 100.425 224.603C98.0407 224.418 95.6506 224.243 93.2941 223.816C91.1008 223.416 88.9412 222.814 87.0066 221.684C85.4431 220.767 84.0259 223.197 85.5893 224.114V224.103Z" fill="#020202"/>
<path d="M218.484 235.113C213.631 234.449 208.721 235.518 203.98 236.789C193.013 239.72 182.334 243.736 171.356 246.599C160.372 249.462 148.91 251.155 137.73 249.327C135.244 248.922 132.73 248.32 130.576 246.965C125.099 243.522 123.215 236.041 123.614 229.381C123.614 229.381 194.987 229.246 214.564 221.956C234.141 214.665 238.5 220.808 238.5 220.808L218.484 235.118V235.113Z" fill="#F7B9C8"/>
<path d="M218.483 234.409C214.788 233.93 211.059 234.403 207.443 235.202C203.737 236.023 200.087 237.109 196.46 238.217C189.154 240.439 181.933 242.919 174.582 244.989C167.232 247.059 159.893 248.679 152.351 249.203C148.628 249.461 144.882 249.444 141.171 249.073C137.712 248.724 133.933 248.241 130.93 246.356C125.396 242.88 123.973 235.438 124.316 229.38L123.613 230.083C127.488 230.077 131.363 230.015 135.237 229.948C144.185 229.785 153.127 229.515 162.069 229.093C172.215 228.615 182.372 227.979 192.467 226.854C200.115 226.005 208.011 225.093 215.277 222.438C220.704 220.458 226.739 218.619 232.593 219.176C233.336 219.249 234.072 219.373 234.787 219.564C235.09 219.643 235.388 219.733 235.681 219.84C236.001 219.958 236.069 219.98 236.311 220.098C236.682 220.278 237.031 220.475 237.368 220.706C237.61 220.869 237.379 220.683 237.599 220.886C237.677 220.959 237.751 221.026 237.829 221.1C237.925 221.19 238.077 221.415 237.897 221.161L238.15 220.2C235.9 221.808 233.651 223.417 231.401 225.026C227.807 227.591 224.219 230.162 220.626 232.727C219.793 233.323 218.967 233.914 218.134 234.51C217.403 235.033 218.106 236.254 218.843 235.725C221.092 234.116 223.342 232.507 225.592 230.898C229.185 228.333 232.773 225.763 236.367 223.198C237.199 222.601 238.026 222.011 238.858 221.415C239.145 221.212 239.348 220.785 239.112 220.453C238.313 219.333 236.817 218.703 235.557 218.321C231.311 217.033 226.525 217.798 222.313 218.81C217.645 219.93 213.253 221.876 208.568 222.933C204.592 223.833 200.548 224.447 196.505 224.964C186.46 226.247 176.343 226.944 166.237 227.473C156.85 227.968 147.458 228.283 138.061 228.48C133.32 228.581 128.567 228.542 123.821 228.671C123.753 228.671 123.686 228.671 123.613 228.671C123.219 228.671 122.932 228.992 122.91 229.374C122.589 235.027 123.748 241.429 127.831 245.631C130.12 247.988 133.162 249.163 136.34 249.782C140.023 250.502 143.808 250.789 147.559 250.783C163.228 250.749 178.176 245.434 192.939 240.782C197.089 239.477 201.257 238.2 205.475 237.12C209.693 236.04 214.096 235.241 218.494 235.809C219.388 235.927 219.383 234.515 218.494 234.403L218.483 234.409Z" fill="#070808"/>
<path d="M168.566 145.008C164.342 145.458 160.428 147.967 158.083 151.505C155.738 155.043 154.945 159.532 155.732 163.706C156.188 166.119 157.211 168.521 159.078 170.118C161.485 172.177 164.854 172.593 168.009 172.835C171.642 173.116 175.669 173.173 178.458 170.827C179.398 170.039 180.123 169.027 180.753 167.975C182.395 165.23 183.453 162.136 183.829 158.964C183.981 157.698 184.021 156.399 183.672 155.172C183.374 154.126 182.806 153.175 182.198 152.275C180.562 149.862 178.52 147.663 175.961 146.268C173.403 144.873 170.281 144.355 167.526 145.3" fill="url(#paint4_linear_523_76)"/>
<path d="M168.564 143.957C162.282 144.677 157.075 149.171 155.191 155.184C153.425 160.821 154.291 168.887 159.982 172.02C162.71 173.522 165.949 173.781 168.997 173.967C172.046 174.152 175.262 174.062 177.934 172.493C180.605 170.923 182.365 167.655 183.485 164.73C184.086 163.161 184.514 161.524 184.761 159.864C185.009 158.205 185.155 156.349 184.615 154.661C184.041 152.884 182.872 151.309 181.707 149.869C180.543 148.429 179.306 147.242 177.849 146.218C174.812 144.08 170.831 143.119 167.237 144.3C165.955 144.722 166.5 146.758 167.799 146.336C173.564 144.44 178.828 148.856 181.696 153.457C182.529 154.796 182.928 156.129 182.872 157.71C182.821 159.184 182.534 160.658 182.14 162.081C181.392 164.792 180.127 167.83 178.046 169.798C176.14 171.604 173.395 171.947 170.887 171.936C168.379 171.925 165.516 171.756 163.002 171.013C160.336 170.226 158.374 168.443 157.395 165.827C156.417 163.211 156.237 160.438 156.72 157.783C157.794 151.871 162.429 146.786 168.553 146.083C169.121 146.015 169.61 145.644 169.61 145.025C169.61 144.508 169.127 143.906 168.553 143.968L168.564 143.957Z" fill="black"/>
<path d="M171.823 150.409C170.636 150.909 170.04 152.355 170.254 153.621C170.467 154.886 171.35 155.966 172.402 156.703C172.976 157.108 173.622 157.435 174.32 157.513C175.754 157.671 177.188 156.641 177.632 155.263C178.077 153.885 177.576 152.299 176.524 151.303C175.473 150.308 173.943 149.903 172.509 150.083L171.823 150.409Z" fill="white"/>
<path d="M171.467 149.801C169.792 150.555 169.162 152.687 169.707 154.352C170.005 155.257 170.573 156.062 171.276 156.703C171.979 157.344 172.907 157.957 173.886 158.154C175.775 158.526 177.631 157.333 178.272 155.555C178.914 153.778 178.126 151.657 176.664 150.51C175.775 149.812 174.69 149.441 173.565 149.357C173.104 149.323 172.547 149.3 172.125 149.492C171.906 149.593 171.687 149.7 171.473 149.801C171.13 149.964 171.04 150.454 171.22 150.763C171.428 151.112 171.839 151.179 172.182 151.016L172.868 150.69L172.514 150.785C173.841 150.634 175.241 150.96 176.186 151.961C176.996 152.816 177.373 154.2 176.866 155.302C176.394 156.337 175.213 157.046 174.083 156.754C172.857 156.439 171.647 155.37 171.153 154.205C170.658 153.041 170.956 151.562 172.182 151.01C172.53 150.853 172.609 150.352 172.435 150.048C172.227 149.694 171.822 149.638 171.473 149.795L171.467 149.801Z" fill="#020202"/>
<path d="M80.9506 158.071C80.3769 155.287 81.153 152.384 82.3622 149.808C84.0719 146.168 86.7713 142.878 90.3707 141.083C93.97 139.295 98.5366 139.205 101.883 141.432C103.463 142.484 104.712 143.98 105.713 145.595C108.317 149.774 109.368 155.022 108.007 159.759C106.646 164.495 102.704 168.534 97.8674 169.468C93.1489 170.379 88.2111 168.32 84.7299 165.012C82.469 162.864 80.6413 159.944 80.8437 156.834" fill="url(#paint5_linear_523_76)"/>
<path d="M81.9634 157.79C81.3841 154.741 82.5033 151.608 83.9711 148.969C85.2815 146.613 87.0418 144.441 89.297 142.928C91.5522 141.415 94.2461 140.622 96.9849 140.841C99.7238 141.061 102.198 142.574 103.902 144.801C107.305 149.239 108.728 155.669 106.484 160.934C104.465 165.682 99.78 169.006 94.5385 168.578C91.4566 168.325 88.4703 166.863 86.1476 164.86C83.8249 162.858 81.7384 160.062 81.9015 156.822C81.969 155.466 79.86 155.466 79.7926 156.822C79.6238 160.13 81.3954 163.162 83.6674 165.434C85.9395 167.707 88.7627 169.422 91.8446 170.232C94.9266 171.042 98.1716 170.845 101.074 169.507C103.677 168.308 105.865 166.227 107.361 163.797C110.842 158.138 110.094 150.792 106.742 145.257C105.038 142.439 102.631 140.065 99.3976 139.154C96.3607 138.293 93.0763 138.687 90.225 139.981C86.9968 141.449 84.4098 144.143 82.5877 147.136C80.563 150.466 79.1795 154.426 79.9219 158.341C80.175 159.674 82.2108 159.111 81.9578 157.778L81.9634 157.79Z" fill="black"/>
<path d="M85.7695 223.8C89.8131 226.163 94.6497 226.596 99.2219 226.961C104.402 227.378 109.542 228.058 114.716 228.548C126.054 229.622 137.453 230.111 148.842 230.027C160.23 229.937 171.619 229.273 182.945 228.03C194.266 226.787 205.526 224.976 216.661 222.596C222.178 221.415 227.751 219.767 233.443 219.879C234.568 219.902 235.974 219.846 237.02 220.329C237.104 220.369 237.436 220.515 237.469 220.639C237.486 220.706 237.481 220.616 237.385 220.757C237.025 221.269 236.294 221.629 235.799 221.994C233.403 223.766 231.013 225.538 228.617 227.31C224.011 230.719 219.45 234.212 214.76 237.508C210.295 240.641 205.554 243.274 200.486 245.31C195.419 247.347 190.386 248.809 185.201 250.092C180.015 251.374 174.678 252.465 169.352 253.298C158.656 254.974 147.779 255.632 136.964 255.008C126.217 254.384 115.537 252.432 105.352 248.91C100.875 247.363 95.9657 245.305 93.8679 240.726C92.9737 238.774 92.7769 236.462 93.7161 234.488C94.5709 232.693 96.1175 231.383 97.7934 230.37C99.5537 229.313 101.466 228.548 103.395 227.844C104.66 227.383 104.115 225.341 102.832 225.808C98.8845 227.248 94.3966 229.054 92.1807 232.879C89.7006 237.171 91.444 242.436 94.8634 245.653C98.6876 249.253 104.115 250.834 109.024 252.308C114.333 253.9 119.761 255.092 125.238 255.908C136.346 257.562 147.633 257.725 158.813 256.712C169.892 255.705 180.955 253.658 191.64 250.553C196.977 249 202.236 247.088 207.196 244.573C212.156 242.059 216.92 238.577 221.526 235.168C226.396 231.563 231.266 227.957 236.137 224.357C236.744 223.907 237.357 223.457 237.964 223.007C238.448 222.647 238.954 222.287 239.269 221.758C239.848 220.779 239.562 219.615 238.707 218.917C237.756 218.136 236.525 217.995 235.344 217.882C233.893 217.742 232.43 217.742 230.979 217.832C225.125 218.209 219.394 219.902 213.669 221.083C207.944 222.264 202.05 223.316 196.201 224.205C184.548 225.966 172.8 227.102 161.023 227.619C149.252 228.137 137.453 228.036 125.694 227.31C119.839 226.95 113.99 226.433 108.164 225.763C105.588 225.465 103.029 225.161 100.442 224.959C98.0296 224.773 95.6057 224.593 93.2156 224.16C90.9941 223.755 88.8064 223.136 86.8436 221.989C85.6682 221.302 84.6053 223.125 85.7807 223.811L85.7695 223.8Z" fill="#020202"/>
<path d="M96.2987 147.394C95.2021 147.973 95.0277 149.453 95.0727 150.696C95.1346 152.355 95.6576 154.375 97.266 154.78C98.6552 155.134 99.9937 154.02 100.798 152.833C101.349 152.023 101.805 151.112 101.866 150.133C101.928 149.154 101.546 148.108 100.719 147.579C99.7012 146.927 98.3346 146.623 97.1648 146.927L96.2931 147.388L96.2987 147.394Z" fill="white"/>
<path d="M95.9439 146.792C94.3579 147.686 94.2398 149.801 94.4254 151.41C94.611 153.018 95.2521 154.909 96.9843 155.432C99.082 156.062 100.915 154.166 101.832 152.507C102.749 150.847 102.991 148.316 101.168 147.039C100.252 146.398 99.0258 146.055 97.9122 146.117C97.4792 146.139 97.0462 146.201 96.6637 146.403L95.9439 146.786C95.1453 147.208 95.8539 148.423 96.6525 148.001L97.0518 147.787L97.3723 147.618C97.4286 147.59 97.5748 147.557 97.4736 147.579C98.2159 147.41 99.0483 147.551 99.74 147.849C100.347 148.113 100.837 148.485 101.045 149.137C101.27 149.835 101.157 150.56 100.887 151.23C100.398 152.422 99.2057 154.183 97.7379 154.132C96.5063 154.093 96.0507 152.675 95.8707 151.674C95.6739 150.583 95.5108 148.637 96.6469 147.99C97.4342 147.545 96.7256 146.33 95.9382 146.775L95.9439 146.792Z" fill="#020202"/>
<defs>
<filter id="filter0_d_523_76" x="14" y="14" width="349" height="349" filterUnits="userSpaceOnUse" color-interpolation-filters="sRGB">
<feFlood flood-opacity="0" result="BackgroundImageFix"/>
<feColorMatrix in="SourceAlpha" type="matrix" values="0 0 0 0 0 0 0 0 0 0 0 0 0 0 0 0 0 0 127 0" result="hardAlpha"/>
<feOffset/>
<feGaussianBlur stdDeviation="4"/>
<feComposite in2="hardAlpha" operator="out"/>
<feColorMatrix type="matrix" values="0 0 0 0 0 0 0 0 0 0 0 0 0 0 0 0 0 0 0.5 0"/>
<feBlend mode="normal" in2="BackgroundImageFix" result="effect1_dropShadow_523_76"/>
<feBlend mode="normal" in="SourceGraphic" in2="effect1_dropShadow_523_76" result="shape"/>
</filter>
<filter id="filter1_f_523_76" x="16" y="-73" width="302" height="302" filterUnits="userSpaceOnUse" color-interpolation-filters="sRGB">
<feFlood flood-opacity="0" result="BackgroundImageFix"/>
<feBlend mode="normal" in="SourceGraphic" in2="BackgroundImageFix" result="shape"/>
<feGaussianBlur stdDeviation="20" result="effect1_foregroundBlur_523_76"/>
</filter>
<filter id="filter2_f_523_76" x="-18" y="-73" width="302" height="302" filterUnits="userSpaceOnUse" color-interpolation-filters="sRGB">
<feFlood flood-opacity="0" result="BackgroundImageFix"/>
<feBlend mode="normal" in="SourceGraphic" in2="BackgroundImageFix" result="shape"/>
<feGaussianBlur stdDeviation="20" result="effect1_foregroundBlur_523_76"/>
</filter>
<filter id="filter3_f_523_76" x="-51" y="-90" width="302" height="302" filterUnits="userSpaceOnUse" color-interpolation-filters="sRGB">
<feFlood flood-opacity="0" result="BackgroundImageFix"/>
<feBlend mode="normal" in="SourceGraphic" in2="BackgroundImageFix" result="shape"/>
<feGaussianBlur stdDeviation="20" result="effect1_foregroundBlur_523_76"/>
</filter>
<filter id="filter4_f_523_76" x="-103" y="80" width="466" height="352" filterUnits="userSpaceOnUse" color-interpolation-filters="sRGB">
<feFlood flood-opacity="0" result="BackgroundImageFix"/>
<feBlend mode="normal" in="SourceGraphic" in2="BackgroundImageFix" result="shape"/>
<feGaussianBlur stdDeviation="20" result="effect1_foregroundBlur_523_76"/>
</filter>
<filter id="filter5_f_523_76" x="-135" y="118" width="586" height="352" filterUnits="userSpaceOnUse" color-interpolation-filters="sRGB">
<feFlood flood-opacity="0" result="BackgroundImageFix"/>
<feBlend mode="normal" in="SourceGraphic" in2="BackgroundImageFix" result="shape"/>
<feGaussianBlur stdDeviation="20" result="effect1_foregroundBlur_523_76"/>
</filter>
<filter id="filter6_f_523_76" x="-67" y="160" width="450" height="352" filterUnits="userSpaceOnUse" color-interpolation-filters="sRGB">
<feFlood flood-opacity="0" result="BackgroundImageFix"/>
<feBlend mode="normal" in="SourceGraphic" in2="BackgroundImageFix" result="shape"/>
<feGaussianBlur stdDeviation="20" result="effect1_foregroundBlur_523_76"/>
</filter>
<filter id="filter7_f_523_76" x="-67" y="195" width="450" height="352" filterUnits="userSpaceOnUse" color-interpolation-filters="sRGB">
<feFlood flood-opacity="0" result="BackgroundImageFix"/>
<feBlend mode="normal" in="SourceGraphic" in2="BackgroundImageFix" result="shape"/>
<feGaussianBlur stdDeviation="20" result="effect1_foregroundBlur_523_76"/>
</filter>
<filter id="filter8_f_523_76" x="-83" y="225" width="450" height="352" filterUnits="userSpaceOnUse" color-interpolation-filters="sRGB">
<feFlood flood-opacity="0" result="BackgroundImageFix"/>
<feBlend mode="normal" in="SourceGraphic" in2="BackgroundImageFix" result="shape"/>
<feGaussianBlur stdDeviation="20" result="effect1_foregroundBlur_523_76"/>
</filter>
<filter id="filter9_f_523_76" x="-86" y="262" width="392" height="328" filterUnits="userSpaceOnUse" color-interpolation-filters="sRGB">
<feFlood flood-opacity="0" result="BackgroundImageFix"/>
<feBlend mode="normal" in="SourceGraphic" in2="BackgroundImageFix" result="shape"/>
<feGaussianBlur stdDeviation="20" result="effect1_foregroundBlur_523_76"/>
</filter>
<filter id="filter10_f_523_76" x="188" y="-37" width="302" height="302" filterUnits="userSpaceOnUse" color-interpolation-filters="sRGB">
<feFlood flood-opacity="0" result="BackgroundImageFix"/>
<feBlend mode="normal" in="SourceGraphic" in2="BackgroundImageFix" result="shape"/>
<feGaussianBlur stdDeviation="20" result="effect1_foregroundBlur_523_76"/>
</filter>
<filter id="filter11_f_523_76" x="240" y="-59" width="302" height="302" filterUnits="userSpaceOnUse" color-interpolation-filters="sRGB">
<feFlood flood-opacity="0" result="BackgroundImageFix"/>
<feBlend mode="normal" in="SourceGraphic" in2="BackgroundImageFix" result="shape"/>
<feGaussianBlur stdDeviation="20" result="effect1_foregroundBlur_523_76"/>
</filter>
<filter id="filter12_f_523_76" x="268" y="-73" width="302" height="302" filterUnits="userSpaceOnUse" color-interpolation-filters="sRGB">
<feFlood flood-opacity="0" result="BackgroundImageFix"/>
<feBlend mode="normal" in="SourceGraphic" in2="BackgroundImageFix" result="shape"/>
<feGaussianBlur stdDeviation="20" result="effect1_foregroundBlur_523_76"/>
</filter>
<filter id="filter13_f_523_76" x="23" y="-43" width="185" height="185" filterUnits="userSpaceOnUse" color-interpolation-filters="sRGB">
<feFlood flood-opacity="0" result="BackgroundImageFix"/>
<feBlend mode="normal" in="SourceGraphic" in2="BackgroundImageFix" result="shape"/>
<feGaussianBlur stdDeviation="20" result="effect1_foregroundBlur_523_76"/>
</filter>
<filter id="filter14_d_523_76" x="0" y="0" width="378" height="378" filterUnits="userSpaceOnUse" color-interpolation-filters="sRGB">
<feFlood flood-opacity="0" result="BackgroundImageFix"/>
<feColorMatrix in="SourceAlpha" type="matrix" values="0 0 0 0 0 0 0 0 0 0 0 0 0 0 0 0 0 0 127 0" result="hardAlpha"/>
<feOffset/>
<feGaussianBlur stdDeviation="4"/>
<feComposite in2="hardAlpha" operator="out"/>
<feColorMatrix type="matrix" values="0 0 0 0 0 0 0 0 0 0 0 0 0 0 0 0 0 0 0.5 0"/>
<feBlend mode="normal" in2="BackgroundImageFix" result="effect1_dropShadow_523_76"/>
<feBlend mode="normal" in="SourceGraphic" in2="effect1_dropShadow_523_76" result="shape"/>
</filter>
<linearGradient id="paint0_linear_523_76" x1="277" y1="51.5" x2="181" y2="363" gradientUnits="userSpaceOnUse">
<stop stop-color="#FF3C3C"/>
<stop offset="0.118701" stop-color="#00FF69"/>
<stop offset="0.222461" stop-color="#E43E3E"/>
<stop offset="0.347838" stop-color="#FF3737"/>
<stop offset="0.475376" stop-color="#FFE70D"/>
<stop offset="0.589944" stop-color="#5BFF0E"/>
<stop offset="0.678573" stop-color="#38F7EC"/>
<stop offset="0.780171" stop-color="#6C6AEE"/>
<stop offset="0.873123" stop-color="#3CDCFF"/>
<stop offset="0.925562" stop-color="#97E99A"/>
<stop offset="0.98455" stop-color="#FFF500"/>
<stop offset="1" stop-color="#FF0000"/>
</linearGradient>
<linearGradient id="paint1_linear_523_76" x1="280.54" y1="45.9684" x2="180.678" y2="370" gradientUnits="userSpaceOnUse">
<stop stop-color="#83FCFB"/>
<stop offset="0.234453" stop-color="#55F2C3"/>
<stop offset="0.47195" stop-color="#EBBDFD"/>
<stop offset="0.636558" stop-color="#04E28E"/>
<stop offset="0.774607" stop-color="#FF78F3"/>
<stop offset="1" stop-color="#83FCFB"/>
</linearGradient>
<radialGradient id="paint2_radial_523_76" cx="0" cy="0" r="1" gradientUnits="userSpaceOnUse" gradientTransform="translate(189 194.5) rotate(-2.31585) scale(136.111 136.139)">
<stop stop-color="white"/>
<stop offset="0.452185" stop-color="#C7F9E0"/>
<stop offset="0.807292" stop-color="#9ECCC2"/>
</radialGradient>
<linearGradient id="paint3_linear_523_76" x1="12.0436" y1="253.615" x2="199.234" y2="190.341" gradientUnits="userSpaceOnUse">
<stop stop-color="#B6ABB3"/>
<stop offset="0.15" stop-color="#B8ADB5"/>
<stop offset="0.255208" stop-color="#C0B7BD"/>
<stop offset="0.427083" stop-color="white"/>
<stop offset="0.546875" stop-color="#DFDDDF"/>
<stop offset="1" stop-color="#E9DFED"/>
</linearGradient>
<linearGradient id="paint4_linear_523_76" x1="175.5" y1="145" x2="164" y2="173" gradientUnits="userSpaceOnUse">
<stop stop-color="#6AA4EB"/>
<stop offset="1" stop-color="#9B74EB"/>
</linearGradient>
<linearGradient id="paint5_linear_523_76" x1="88" y1="145.5" x2="104" y2="173.5" gradientUnits="userSpaceOnUse">
<stop stop-color="#EB70FD"/>
<stop offset="1" stop-color="#642891"/>
</linearGradient>
</defs>
</svg>
