<svg xmlns="http://www.w3.org/2000/svg" width="25" height="24" viewBox="0 0 25 24" fill="none">
  <path d="M9.49121 5.98445L16.3925 2L18.6987 5.99445L9.49121 5.98445Z" stroke="#8FFB98" stroke-width="2" stroke-linecap="round" stroke-linejoin="round"/>
  <path d="M2.5 7C2.5 6.4477 2.94771 6 3.5 6H21.5C22.0523 6 22.5 6.4477 22.5 7V21C22.5 21.5523 22.0523 22 21.5 22H3.5C2.94771 22 2.5 21.5523 2.5 21V7Z" fill="#8FFB98" stroke="#4CA96A" stroke-width="2" stroke-linejoin="round"/>
  <path d="M18.125 16.5H22.5V11.5H18.125C16.6753 11.5 15.5 12.6193 15.5 14C15.5 15.3807 16.6753 16.5 18.125 16.5Z" fill="white" stroke="#4CA96A" stroke-width="2" stroke-linejoin="round"/>
  <path d="M22.5 8.25V20.25" stroke="#4CA96A" stroke-width="2" stroke-linecap="round"/>
</svg>