<svg xmlns="http://www.w3.org/2000/svg" width="20" height="21" viewBox="0 0 20 21" fill="none">
<g clip-path="url(#clip0_3342_3624)">
<path d="M7.1875 12.375C8.05044 12.375 8.75 11.6754 8.75 10.8125C8.75 9.94956 8.05044 9.25 7.1875 9.25C6.32456 9.25 5.625 9.94956 5.625 10.8125C5.625 11.6754 6.32456 12.375 7.1875 12.375Z" stroke="white" stroke-width="1.5" stroke-linecap="round" stroke-linejoin="round"/>
<path d="M12.8125 12.375C13.6754 12.375 14.375 11.6754 14.375 10.8125C14.375 9.94956 13.6754 9.25 12.8125 9.25C11.9496 9.25 11.25 9.94956 11.25 10.8125C11.25 11.6754 11.9496 12.375 12.8125 12.375Z" stroke="white" stroke-width="1.5" stroke-linecap="round" stroke-linejoin="round"/>
<path d="M8.75 18V15.5" stroke="white" stroke-width="2" stroke-linecap="round" stroke-linejoin="round"/>
<path d="M11.25 18V15.5" stroke="white" stroke-width="2" stroke-linecap="round" stroke-linejoin="round"/>
<path d="M13.75 17.375C13.75 17.5408 13.6842 17.6997 13.5669 17.8169C13.4497 17.9342 13.2908 18 13.125 18H6.875C6.70924 18 6.55027 17.9342 6.43306 17.8169C6.31585 17.6997 6.25 17.5408 6.25 17.375V15.7883C4.00859 14.5453 2.5 12.2227 2.5 9.5625C2.5 5.59297 5.85938 2.375 10 2.375C14.1406 2.375 17.5 5.59297 17.5 9.5625C17.5 12.2227 15.9914 14.5453 13.75 15.7883V17.375Z" stroke="white" stroke-width="1.5" stroke-linecap="round" stroke-linejoin="round"/>
</g>
<defs>
<clipPath id="clip0_3342_3624">
<rect width="20" height="20" fill="white" transform="translate(0 0.5)"/>
</clipPath>
</defs>
</svg>