<svg width="24" height="24" viewBox="0 0 24 24" fill="none" xmlns="http://www.w3.org/2000/svg">
<path d="M24 0.09375C23.8617 0.733125 23.7192 1.37156 23.5861 2.01187C23.3611 3.09609 23.1464 4.18266 22.9153 5.26547C22.89 5.38359 22.8014 5.50219 22.7128 5.59125C20.0264 8.28375 17.3367 10.9725 14.6475 13.6617C13.372 14.9372 12.0966 16.2136 10.8192 17.4877C10.7592 17.5477 10.6814 17.5908 10.6031 17.648C10.8366 17.8978 11.0428 18.0975 11.2252 18.3173C11.8533 19.0744 11.798 20.1722 11.1061 20.8458C10.41 21.5236 9.33 21.577 8.59547 20.9423C8.20031 20.6011 7.84359 20.2153 7.46953 19.8502C7.40953 19.7916 7.34766 19.7339 7.27922 19.6688C7.22906 19.7138 7.18734 19.7475 7.14937 19.785C5.77406 21.1598 4.39922 22.5347 3.02437 23.91C2.99766 23.9367 2.97656 23.97 2.95312 24H2.90625C2.85703 23.9414 2.81156 23.8791 2.75766 23.8252C1.91438 22.98 1.07016 22.1358 0.225 21.2925C0.15375 21.2217 0.075 21.1598 0 21.0938C0 21.0783 0 21.0623 0 21.0469C0.0576563 20.9958 0.118125 20.9475 0.172969 20.8931C1.49859 19.5684 2.82422 18.2428 4.14891 16.9177C4.20891 16.8577 4.26562 16.7948 4.34156 16.7147C3.96797 16.3434 3.60422 15.9811 3.24 15.6192C2.80125 15.1837 2.56406 14.6672 2.62734 14.04C2.70094 13.3083 3.08719 12.7819 3.75234 12.4927C4.40203 12.21 5.03953 12.2902 5.60953 12.7186C5.8575 12.9052 6.07219 13.1358 6.37969 13.4175C6.42094 13.3434 6.45047 13.2455 6.51422 13.1813C10.477 9.21375 14.4412 5.24859 18.4102 1.28766C18.5081 1.19016 18.6478 1.10578 18.7814 1.07766C20.445 0.727031 22.1105 0.388594 23.7755 0.0454688C23.8205 0.0360938 23.8627 0.0154688 23.9062 0C23.9377 0.0314062 23.9686 0.0623438 24 0.09375ZM7.33031 14.317C7.55906 14.5641 7.76437 14.7853 7.99406 15.0328C10.1845 12.8423 12.3689 10.6575 14.5219 8.50406C14.8519 8.83547 15.1744 9.15891 15.5377 9.52312C13.3744 11.6864 11.19 13.8703 9.01781 16.043C9.21984 16.2478 9.42703 16.4587 9.65906 16.6941C9.7125 16.6294 9.76172 16.5581 9.82266 16.4977C13.6669 12.652 17.5106 8.80641 21.3591 4.965C21.5269 4.79719 21.6281 4.62234 21.667 4.38609C21.735 3.97078 21.8348 3.56063 21.9192 3.14813C22.0078 2.71547 22.0936 2.28281 22.1855 1.82672C22.11 1.83281 22.0645 1.83187 22.0214 1.84078C21.1655 2.01656 20.3091 2.18859 19.4555 2.37516C19.3364 2.40141 19.2117 2.47688 19.1241 2.56406C15.2428 6.43875 11.3653 10.3172 7.48641 14.1942C7.43156 14.2491 7.36359 14.2912 7.33078 14.317H7.33031ZM10.2539 19.417C10.1981 19.3378 10.1194 19.1841 10.0036 19.0678C8.3175 17.3733 6.62625 15.6839 4.93547 13.9945C4.86422 13.9233 4.78734 13.852 4.70062 13.8038C4.51687 13.7011 4.33594 13.7325 4.18125 13.8689C4.02375 14.0077 3.98203 14.1905 4.06266 14.3794C4.10672 14.483 4.19156 14.5739 4.27313 14.6559C5.96156 16.3481 7.65234 18.038 9.34359 19.7273C9.41484 19.7986 9.49078 19.8708 9.57797 19.9186C9.88172 20.0859 10.268 19.8441 10.2544 19.417H10.2539ZM4.61766 20.2598C5.15906 19.7184 5.69672 19.1798 6.20813 18.6684C5.91703 18.3783 5.61047 18.0722 5.32734 17.79C4.80891 18.3103 4.27125 18.8503 3.73969 19.3842C4.02562 19.6697 4.32844 19.972 4.61766 20.2603V20.2598ZM3.58781 21.2972C3.29391 21.0037 2.99109 20.7019 2.70891 20.4197C2.49 20.6348 2.25984 20.8608 2.04094 21.0764C2.3325 21.3694 2.63438 21.6722 2.92922 21.9684C3.14438 21.7491 3.36656 21.5227 3.58781 21.2972Z" fill="white"/>
</svg>
