<svg width="304" height="155" viewBox="0 0 304 155" fill="none" xmlns="http://www.w3.org/2000/svg">
<path fill-rule="evenodd" clip-rule="evenodd" d="M302 152C302 69.157 234.842 2 152 2C69.157 2 2 69.157 2 152H302Z" fill="url(#paint0_linear_678_3458)"/>
<path fill-rule="evenodd" clip-rule="evenodd" d="M5.39091 120.138C7.18691 120.176 8.81191 120.151 10.2119 120.013C16.9789 119.372 34.2799 122.041 36.5349 123.135C38.7919 124.255 46.3019 127.138 50.4299 127.377C54.5809 127.592 65.8589 128.045 71.8589 129.806C77.8819 131.595 87.2869 133.142 90.8509 133.596C93.1519 133.889 100.573 136.131 107.024 137.439C99.9189 137.946 92.0469 137.946 87.7609 137.946H44.3169C38.2419 137.946 17.1059 142.708 2.12891 145.729C2.48891 136.985 3.59691 128.434 5.39091 120.138Z" fill="#FFCB97"/>
<path fill-rule="evenodd" clip-rule="evenodd" d="M2.129 145.726C17.106 142.705 38.239 137.943 44.315 137.943H87.758C92.044 137.943 99.916 137.943 107.022 137.436C110.676 137.197 114.127 136.822 116.788 136.262C124.683 134.581 145.548 132.927 152 131.592C158.45 130.257 184.458 129.244 192.917 129.244C201.375 129.244 211.819 125.934 215.473 124.921C219.128 123.906 237.758 123.266 246.488 125.241C255.218 127.269 261.984 124.253 267.353 123.586C272.722 122.919 281.744 122.919 285.962 122.012C288.801 121.401 294.204 122.785 299.325 123.65C301.081 132.83 302.001 142.307 302.001 152H132.294C92.331 150.587 49.264 148.571 2.125 145.841C2.126 145.802 2.128 145.764 2.129 145.726Z" fill="#F5B370"/>
<path fill-rule="evenodd" clip-rule="evenodd" d="M2.277 142.8H301.722C301.906 145.843 302 148.911 302 152H2C2 148.911 2.093 145.843 2.277 142.8Z" fill="#F08C2E"/>
<path fill-rule="evenodd" clip-rule="evenodd" d="M2.11138 146.186C17.3434 145.092 38.8544 143.366 45.0354 143.366L86.3444 146.324C90.7024 146.324 102.04 146.507 109.266 146.324C112.981 146.237 116.027 148.218 118.733 148.015C126.762 147.406 147.979 146.807 154.54 146.324C161.1 145.841 187.547 145.473 196.149 145.473C204.75 145.473 215.37 144.275 219.086 143.908C222.803 143.541 241.748 143.309 250.626 144.024C259.503 144.758 266.383 143.667 271.843 143.425C277.303 143.183 286.477 143.183 290.767 142.855C292.743 142.704 297.128 142.891 301.742 143.124C301.914 146.061 302.001 149.02 302.001 152H126.291C87.9024 150.487 46.7634 148.507 2.10938 146.238C2.11038 146.221 2.11138 146.203 2.11138 146.186Z" fill="#F3A455"/>
<path d="M130.778 90.5569C130.778 108.688 125.753 117.753 115.704 117.753H104.356C103.566 117.753 103.171 117.205 103.171 116.108L103.086 40.0369C103.086 39.0689 103.425 38.5528 104.102 38.4878C105.965 38.3588 110.199 38.3268 116.805 38.3908C121.829 38.3268 125.556 41.1328 127.983 46.8108C129.846 51.2628 130.778 57.0699 130.778 64.2319V90.5569ZM119.938 86.8798V62.6838C119.938 59.9739 119.303 57.4088 118.033 54.9898C116.762 52.5698 115.393 51.3599 113.926 51.3599C113.474 51.3599 113.248 51.8118 113.248 52.7148C113.248 52.9728 113.276 59.4578 113.333 72.1688V102.752C113.333 103.72 113.53 104.204 113.926 104.204C115.281 104.268 116.621 102.51 117.948 98.9288C119.275 95.3478 119.938 91.3318 119.938 86.8798Z" fill="#16A34A"/>
<path d="M168.04 117.366C168.096 117.753 167.842 117.947 167.278 117.947H162.874C160.729 117.882 158.866 117.85 157.285 117.85C156.777 117.85 156.128 115.753 155.337 111.559C154.773 108.398 154.349 105.688 154.067 103.429C154.011 102.978 153.7 102.752 153.135 102.752H149.833C149.438 102.752 149.184 102.978 149.071 103.429C148.563 107.301 147.885 111.785 147.038 116.882C146.812 117.463 146.558 117.753 146.276 117.753H135.86C134.957 117.753 134.59 117.366 134.759 116.592C136.678 103.429 138.598 90.2351 140.517 77.0081C144.3 51.5861 146.558 38.8431 147.292 38.7781C150.341 38.5851 153.39 38.5851 156.438 38.7781C157.116 38.8431 159.205 51.618 162.705 77.104C164.511 90.525 166.29 103.946 168.04 117.366ZM153.305 90.557C152.458 83.202 151.922 79.524 151.696 79.524C151.414 79.524 151.075 81.105 150.68 84.266C150.454 86.331 150.228 88.428 150.002 90.557C149.946 90.751 150.214 90.8961 150.807 90.9931C151.399 91.0901 151.95 91.106 152.458 91.041C153.023 90.977 153.305 90.815 153.305 90.557Z" fill="#16A34A"/>
<path d="M201.152 41.6822C200.192 44.5852 198.724 49.5542 196.748 56.5862C194.264 65.4902 192.74 71.4912 192.175 74.5882C192.062 75.1692 192.062 76.3952 192.175 78.2662C192.119 88.3312 192.119 100.397 192.175 114.463C192.231 116.398 191.723 117.398 190.651 117.463C191.441 117.398 188.534 117.269 181.928 117.076C180.799 117.076 180.206 116.269 180.15 114.656C180.319 103.687 180.432 91.4282 180.489 77.8792C180.489 77.3632 180.404 76.4592 180.234 75.1692C177.92 65.4262 174.815 53.8442 170.919 40.4242C170.806 39.9722 170.933 39.5042 171.3 39.0202C171.667 38.5362 172.077 38.2622 172.528 38.1982C175.125 38.0042 177.779 38.0042 180.489 38.1982C182.069 38.3272 182.973 39.1982 183.198 40.8112C183.763 43.7142 184.553 47.9412 185.57 53.4892C186.021 55.8772 186.36 57.0702 186.586 57.0702C186.642 57.0702 186.868 55.8772 187.263 53.4892C187.715 50.5862 188.421 46.3602 189.38 40.8112C189.719 39.3272 190.538 38.5202 191.836 38.3912C193.699 38.4562 196.296 38.4562 199.627 38.3912C200.756 38.3272 201.321 39.1332 201.321 40.8112C201.321 41.1332 201.264 41.4242 201.152 41.6822Z" fill="#16A34A"/>
<path fill-rule="evenodd" clip-rule="evenodd" d="M232.008 152V140.332C231.48 140.252 230.488 140.026 229.516 139.287C227.985 138.125 227.57 136.504 227.465 136.023V126.331C227.703 125.323 228.541 124.581 229.516 124.49C230.636 124.386 231.72 125.16 232.008 126.331V136.023C232.126 136.311 232.388 136.511 232.687 136.539C233.037 136.573 233.379 136.365 233.524 136.023V118.791C233.682 117.455 234.874 116.53 236.069 116.669C237.09 116.788 237.95 117.666 238.066 118.791V132.791C238.126 133.348 238.631 133.68 239.028 133.58C239.329 133.504 239.569 133.181 239.58 132.791V123.099C239.973 122.106 240.951 121.474 241.987 121.531C242.931 121.583 243.769 122.198 244.122 123.099V132.791C244.117 133.221 244.046 135.03 242.622 136.539C241.458 137.772 240.067 138.089 239.58 138.177V152H232.008Z" fill="url(#paint1_linear_678_3458)"/>
<path d="M152.013 14.116C153.725 14.116 155.112 12.7285 155.112 11.017C155.112 9.30544 153.725 7.91797 152.013 7.91797C150.302 7.91797 148.914 9.30544 148.914 11.017C148.914 12.7285 150.302 14.116 152.013 14.116Z" fill="#25282B"/>
<path fill-rule="evenodd" clip-rule="evenodd" d="M170.421 10.798C171.201 10.901 171.751 11.617 171.648 12.397C171.545 13.177 170.829 13.727 170.048 13.624C169.268 13.522 168.719 12.8051 168.821 12.0251C168.924 11.2451 169.641 10.695 170.421 10.798Z" fill="#25282B"/>
<path fill-rule="evenodd" clip-rule="evenodd" d="M134.095 10.798C133.315 10.901 132.766 11.617 132.868 12.397C132.971 13.177 133.688 13.727 134.468 13.624C135.248 13.522 135.797 12.8051 135.695 12.0251C135.592 11.2451 134.875 10.695 134.095 10.798Z" fill="#25282B"/>
<path fill-rule="evenodd" clip-rule="evenodd" d="M205.987 20.3269C206.714 20.6279 207.06 21.4629 206.758 22.1899C206.457 22.9169 205.623 23.2619 204.896 22.9609C204.169 22.6599 203.823 21.8259 204.125 21.0989C204.426 20.3719 205.26 20.0259 205.987 20.3269Z" fill="#25282B"/>
<path fill-rule="evenodd" clip-rule="evenodd" d="M98.5321 20.3269C97.8051 20.6279 97.4601 21.4629 97.7611 22.1899C98.0621 22.9169 98.8961 23.2619 99.6231 22.9609C100.35 22.6599 100.696 21.8259 100.395 21.0989C100.093 20.3719 99.2591 20.0259 98.5321 20.3269Z" fill="#25282B"/>
<path fill-rule="evenodd" clip-rule="evenodd" d="M237.871 38.7368C238.495 39.2158 238.613 40.1108 238.134 40.7348C237.655 41.3598 236.76 41.4778 236.136 40.9988C235.511 40.5198 235.394 39.6238 235.872 38.9998C236.351 38.3758 237.247 38.2578 237.871 38.7368Z" fill="#25282B"/>
<path fill-rule="evenodd" clip-rule="evenodd" d="M66.6472 38.7368C66.0232 39.2158 65.9052 40.1108 66.3842 40.7348C66.8632 41.3598 67.7582 41.4778 68.3822 40.9988C69.0072 40.5198 69.1252 39.6238 68.6462 38.9998C68.1672 38.3758 67.2712 38.2578 66.6472 38.7368Z" fill="#25282B"/>
<path fill-rule="evenodd" clip-rule="evenodd" d="M263.908 64.7718C264.387 65.3958 264.269 66.2908 263.645 66.7698C263.021 67.2488 262.125 67.1308 261.646 66.5068C261.167 65.8828 261.285 64.9878 261.909 64.5088C262.534 64.0298 263.429 64.1478 263.908 64.7718Z" fill="#25282B"/>
<path fill-rule="evenodd" clip-rule="evenodd" d="M40.6108 64.7718C40.1318 65.3958 40.2498 66.2908 40.8738 66.7698C41.4978 67.2488 42.3938 67.1308 42.8728 66.5068C43.3518 65.8828 43.2338 64.9878 42.6098 64.5088C41.9848 64.0298 41.0898 64.1478 40.6108 64.7718Z" fill="#25282B"/>
<path fill-rule="evenodd" clip-rule="evenodd" d="M188.517 14.3971C189.277 14.6011 189.729 15.3831 189.525 16.1431C189.321 16.9031 188.539 17.3551 187.779 17.1511C187.019 16.9471 186.568 16.1651 186.771 15.4051C186.975 14.6451 187.757 14.1931 188.517 14.3971Z" fill="#25282B"/>
<path fill-rule="evenodd" clip-rule="evenodd" d="M116.002 14.3971C115.242 14.6011 114.79 15.3831 114.994 16.1431C115.198 16.9031 115.98 17.3551 116.74 17.1511C117.5 16.9471 117.951 16.1651 117.748 15.4051C117.544 14.6451 116.762 14.1931 116.002 14.3971Z" fill="#25282B"/>
<path fill-rule="evenodd" clip-rule="evenodd" d="M223.367 27.0382C224.849 27.8932 225.357 29.7902 224.502 31.2712C223.646 32.7532 221.749 33.2612 220.268 32.4062C218.787 31.5502 218.278 29.6532 219.134 28.1722C219.989 26.6912 221.886 26.1822 223.367 27.0382Z" fill="#25282B"/>
<path fill-rule="evenodd" clip-rule="evenodd" d="M81.1478 27.0382C79.6658 27.8932 79.1578 29.7902 80.0128 31.2712C80.8688 32.7532 82.7658 33.2612 84.2468 32.4062C85.7278 31.5502 86.2368 29.6532 85.3808 28.1722C84.5258 26.6912 82.6288 26.1822 81.1478 27.0382Z" fill="#25282B"/>
<path fill-rule="evenodd" clip-rule="evenodd" d="M251.742 50.9009C252.298 51.4569 252.298 52.3609 251.742 52.9169C251.186 53.4729 250.282 53.4729 249.726 52.9169C249.17 52.3609 249.17 51.4569 249.726 50.9009C250.282 50.3449 251.186 50.3449 251.742 50.9009Z" fill="#25282B"/>
<path fill-rule="evenodd" clip-rule="evenodd" d="M52.7764 50.9009C52.2204 51.4569 52.2204 52.3609 52.7764 52.9169C53.3334 53.4729 54.2364 53.4729 54.7924 52.9169C55.3484 52.3609 55.3484 51.4569 54.7924 50.9009C54.2364 50.3449 53.3334 50.3449 52.7764 50.9009Z" fill="#25282B"/>
<path fill-rule="evenodd" clip-rule="evenodd" d="M275.607 79.2752C276.463 80.7562 275.954 82.6532 274.473 83.5082C272.992 84.3642 271.095 83.8552 270.239 82.3742C269.384 80.8932 269.892 78.9952 271.374 78.1402C272.855 77.2852 274.752 77.7932 275.607 79.2752Z" fill="#25282B"/>
<path fill-rule="evenodd" clip-rule="evenodd" d="M28.9117 79.2752C28.0557 80.7562 28.5647 82.6532 30.0457 83.5082C31.5267 84.3642 33.4247 83.8552 34.2797 82.3742C35.1347 80.8932 34.6267 78.9952 33.1447 78.1402C31.6637 77.2852 29.7667 77.7932 28.9117 79.2752Z" fill="#25282B"/>
<path fill-rule="evenodd" clip-rule="evenodd" d="M282.317 96.658C282.618 97.385 282.272 98.219 281.545 98.52C280.818 98.821 279.984 98.476 279.683 97.749C279.382 97.022 279.727 96.188 280.454 95.886C281.181 95.585 282.016 95.931 282.317 96.658Z" fill="#25282B"/>
<path fill-rule="evenodd" clip-rule="evenodd" d="M22.2024 96.658C21.9014 97.385 22.2474 98.219 22.9744 98.52C23.7014 98.821 24.5354 98.476 24.8364 97.749C25.1374 97.022 24.7924 96.188 24.0654 95.886C23.3384 95.585 22.5044 95.931 22.2024 96.658Z" fill="#25282B"/>
<path fill-rule="evenodd" clip-rule="evenodd" d="M288.248 114.128C288.451 114.888 288 115.67 287.24 115.874C286.48 116.077 285.698 115.626 285.494 114.866C285.29 114.106 285.742 113.323 286.502 113.12C287.262 112.916 288.044 113.368 288.248 114.128Z" fill="#25282B"/>
<path fill-rule="evenodd" clip-rule="evenodd" d="M16.2713 114.128C16.0683 114.888 16.5193 115.67 17.2793 115.874C18.0393 116.077 18.8213 115.626 19.0253 114.866C19.2293 114.106 18.7773 113.323 18.0173 113.12C17.2573 112.916 16.4753 113.368 16.2713 114.128Z" fill="#25282B"/>
<path fill-rule="evenodd" clip-rule="evenodd" d="M291.847 132.222C291.95 133.002 291.4 133.719 290.62 133.822C289.84 133.924 289.123 133.374 289.02 132.594C288.918 131.814 289.468 131.098 290.248 130.995C291.028 130.892 291.744 131.442 291.847 132.222Z" fill="#25282B"/>
<path fill-rule="evenodd" clip-rule="evenodd" d="M12.6726 132.222C12.5696 133.002 13.1196 133.719 13.8996 133.822C14.6796 133.924 15.3966 133.374 15.4996 132.594C15.6016 131.814 15.0516 131.098 14.2716 130.995C13.4916 130.892 12.7756 131.442 12.6726 132.222Z" fill="#25282B"/>
<path fill-rule="evenodd" clip-rule="evenodd" d="M294.725 150.632C294.725 152.342 293.337 153.731 291.626 153.731C289.916 153.731 288.527 152.342 288.527 150.632C288.527 148.921 289.916 147.532 291.626 147.532C293.337 147.532 294.725 148.921 294.725 150.632Z" fill="#25282B"/>
<path fill-rule="evenodd" clip-rule="evenodd" d="M9.79297 150.632C9.79297 152.342 11.181 153.731 12.892 153.731C14.602 153.731 15.991 152.342 15.991 150.632C15.991 148.921 14.602 147.532 12.892 147.532C11.181 147.532 9.79297 148.921 9.79297 150.632Z" fill="#25282B"/>
<path fill-rule="evenodd" clip-rule="evenodd" d="M302 152C302 69.157 234.842 2 152 2C69.157 2 2 69.157 2 152H302Z" fill="url(#paint2_linear_678_3458)"/>
<path fill-rule="evenodd" clip-rule="evenodd" d="M5.39091 120.138C7.18691 120.176 8.81191 120.151 10.2119 120.013C16.9789 119.372 34.2799 122.041 36.5349 123.135C38.7919 124.255 46.3019 127.138 50.4299 127.377C54.5809 127.592 65.8589 128.045 71.8589 129.806C77.8819 131.595 87.2869 133.142 90.8509 133.596C93.1519 133.889 100.573 136.131 107.024 137.439C99.9189 137.946 92.0469 137.946 87.7609 137.946H44.3169C38.2419 137.946 17.1059 142.708 2.12891 145.729C2.48891 136.985 3.59691 128.434 5.39091 120.138Z" fill="#FFCB97"/>
<path fill-rule="evenodd" clip-rule="evenodd" d="M2.129 145.726C17.106 142.705 38.239 137.943 44.315 137.943H87.758C92.044 137.943 99.916 137.943 107.022 137.436C110.676 137.197 114.127 136.822 116.788 136.262C124.683 134.581 145.548 132.927 152 131.592C158.45 130.257 184.458 129.244 192.917 129.244C201.375 129.244 211.819 125.934 215.473 124.921C219.128 123.906 237.758 123.266 246.488 125.241C255.218 127.269 261.984 124.253 267.353 123.586C272.722 122.919 281.744 122.919 285.962 122.012C288.801 121.401 294.204 122.785 299.325 123.65C301.081 132.83 302.001 142.307 302.001 152H132.294C92.331 150.587 49.264 148.571 2.125 145.841C2.126 145.802 2.128 145.764 2.129 145.726Z" fill="#F5B370"/>
<path fill-rule="evenodd" clip-rule="evenodd" d="M2.277 142.8H301.722C301.906 145.843 302 148.911 302 152H2C2 148.911 2.093 145.843 2.277 142.8Z" fill="#F08C2E"/>
<path fill-rule="evenodd" clip-rule="evenodd" d="M2.11138 146.186C17.3434 145.092 38.8544 143.366 45.0354 143.366L86.3444 146.324C90.7024 146.324 102.04 146.507 109.266 146.324C112.981 146.237 116.027 148.218 118.733 148.015C126.762 147.406 147.979 146.807 154.54 146.324C161.1 145.841 187.547 145.473 196.149 145.473C204.75 145.473 215.37 144.275 219.086 143.908C222.803 143.541 241.748 143.309 250.626 144.024C259.503 144.758 266.383 143.667 271.843 143.425C277.303 143.183 286.477 143.183 290.767 142.855C292.743 142.704 297.128 142.891 301.742 143.124C301.914 146.061 302.001 149.02 302.001 152H126.291C87.9024 150.487 46.7634 148.507 2.10938 146.238C2.11038 146.221 2.11138 146.203 2.11138 146.186Z" fill="#F3A455"/>
<path d="M130.778 90.5569C130.778 108.688 125.753 117.753 115.704 117.753H104.356C103.566 117.753 103.171 117.205 103.171 116.108L103.086 40.0369C103.086 39.0689 103.425 38.5528 104.102 38.4878C105.965 38.3588 110.199 38.3268 116.805 38.3908C121.829 38.3268 125.556 41.1328 127.983 46.8108C129.846 51.2628 130.778 57.0699 130.778 64.2319V90.5569ZM119.938 86.8798V62.6838C119.938 59.9739 119.303 57.4088 118.033 54.9898C116.762 52.5698 115.393 51.3599 113.926 51.3599C113.474 51.3599 113.248 51.8118 113.248 52.7148C113.248 52.9728 113.276 59.4578 113.333 72.1688V102.752C113.333 103.72 113.53 104.204 113.926 104.204C115.281 104.268 116.621 102.51 117.948 98.9288C119.275 95.3478 119.938 91.3318 119.938 86.8798Z" fill="#16A34A"/>
<path d="M168.04 117.366C168.096 117.753 167.842 117.947 167.278 117.947H162.874C160.729 117.882 158.866 117.85 157.285 117.85C156.777 117.85 156.128 115.753 155.337 111.559C154.773 108.398 154.349 105.688 154.067 103.429C154.011 102.978 153.7 102.752 153.135 102.752H149.833C149.438 102.752 149.184 102.978 149.071 103.429C148.563 107.301 147.885 111.785 147.038 116.882C146.812 117.463 146.558 117.753 146.276 117.753H135.86C134.957 117.753 134.59 117.366 134.759 116.592C136.678 103.429 138.598 90.2351 140.517 77.0081C144.3 51.5861 146.558 38.8431 147.292 38.7781C150.341 38.5851 153.39 38.5851 156.438 38.7781C157.116 38.8431 159.205 51.618 162.705 77.104C164.511 90.525 166.29 103.946 168.04 117.366ZM153.305 90.557C152.458 83.202 151.922 79.524 151.696 79.524C151.414 79.524 151.075 81.105 150.68 84.266C150.454 86.331 150.228 88.428 150.002 90.557C149.946 90.751 150.214 90.8961 150.807 90.9931C151.399 91.0901 151.95 91.106 152.458 91.041C153.023 90.977 153.305 90.815 153.305 90.557Z" fill="#16A34A"/>
<path d="M201.152 41.6822C200.192 44.5852 198.724 49.5542 196.748 56.5862C194.264 65.4902 192.74 71.4912 192.175 74.5882C192.062 75.1692 192.062 76.3952 192.175 78.2662C192.119 88.3312 192.119 100.397 192.175 114.463C192.231 116.398 191.723 117.398 190.651 117.463C191.441 117.398 188.534 117.269 181.928 117.076C180.799 117.076 180.206 116.269 180.15 114.656C180.319 103.687 180.432 91.4282 180.489 77.8792C180.489 77.3632 180.404 76.4592 180.234 75.1692C177.92 65.4262 174.815 53.8442 170.919 40.4242C170.806 39.9722 170.933 39.5042 171.3 39.0202C171.667 38.5362 172.077 38.2622 172.528 38.1982C175.125 38.0042 177.779 38.0042 180.489 38.1982C182.069 38.3272 182.973 39.1982 183.198 40.8112C183.763 43.7142 184.553 47.9412 185.57 53.4892C186.021 55.8772 186.36 57.0702 186.586 57.0702C186.642 57.0702 186.868 55.8772 187.263 53.4892C187.715 50.5862 188.421 46.3602 189.38 40.8112C189.719 39.3272 190.538 38.5202 191.836 38.3912C193.699 38.4562 196.296 38.4562 199.627 38.3912C200.756 38.3272 201.321 39.1332 201.321 40.8112C201.321 41.1332 201.264 41.4242 201.152 41.6822Z" fill="#16A34A"/>
<path fill-rule="evenodd" clip-rule="evenodd" d="M232.008 152V140.332C231.48 140.252 230.488 140.026 229.516 139.287C227.985 138.125 227.57 136.504 227.465 136.023V126.331C227.703 125.323 228.541 124.581 229.516 124.49C230.636 124.386 231.72 125.16 232.008 126.331V136.023C232.126 136.311 232.388 136.511 232.687 136.539C233.037 136.573 233.379 136.365 233.524 136.023V118.791C233.682 117.455 234.874 116.53 236.069 116.669C237.09 116.788 237.95 117.666 238.066 118.791V132.791C238.126 133.348 238.631 133.68 239.028 133.58C239.329 133.504 239.569 133.181 239.58 132.791V123.099C239.973 122.106 240.951 121.474 241.987 121.531C242.931 121.583 243.769 122.198 244.122 123.099V132.791C244.117 133.221 244.046 135.03 242.622 136.539C241.458 137.772 240.067 138.089 239.58 138.177V152H232.008Z" fill="url(#paint3_linear_678_3458)"/>
<path d="M152.013 14.116C153.725 14.116 155.112 12.7285 155.112 11.017C155.112 9.30544 153.725 7.91797 152.013 7.91797C150.302 7.91797 148.914 9.30544 148.914 11.017C148.914 12.7285 150.302 14.116 152.013 14.116Z" fill="#25282B"/>
<path fill-rule="evenodd" clip-rule="evenodd" d="M170.421 10.798C171.201 10.901 171.751 11.617 171.648 12.397C171.545 13.177 170.829 13.727 170.048 13.624C169.268 13.522 168.719 12.8051 168.821 12.0251C168.924 11.2451 169.641 10.695 170.421 10.798Z" fill="#25282B"/>
<path fill-rule="evenodd" clip-rule="evenodd" d="M134.095 10.798C133.315 10.901 132.766 11.617 132.868 12.397C132.971 13.177 133.688 13.727 134.468 13.624C135.248 13.522 135.797 12.8051 135.695 12.0251C135.592 11.2451 134.875 10.695 134.095 10.798Z" fill="#25282B"/>
<path fill-rule="evenodd" clip-rule="evenodd" d="M205.987 20.3269C206.714 20.6279 207.06 21.4629 206.758 22.1899C206.457 22.9169 205.623 23.2619 204.896 22.9609C204.169 22.6599 203.823 21.8259 204.125 21.0989C204.426 20.3719 205.26 20.0259 205.987 20.3269Z" fill="#25282B"/>
<path fill-rule="evenodd" clip-rule="evenodd" d="M98.5321 20.3269C97.8051 20.6279 97.4601 21.4629 97.7611 22.1899C98.0621 22.9169 98.8961 23.2619 99.6231 22.9609C100.35 22.6599 100.696 21.8259 100.395 21.0989C100.093 20.3719 99.2591 20.0259 98.5321 20.3269Z" fill="#25282B"/>
<path fill-rule="evenodd" clip-rule="evenodd" d="M237.871 38.7368C238.495 39.2158 238.613 40.1108 238.134 40.7348C237.655 41.3598 236.76 41.4778 236.136 40.9988C235.511 40.5198 235.394 39.6238 235.872 38.9998C236.351 38.3758 237.247 38.2578 237.871 38.7368Z" fill="#25282B"/>
<path fill-rule="evenodd" clip-rule="evenodd" d="M66.6472 38.7368C66.0232 39.2158 65.9052 40.1108 66.3842 40.7348C66.8632 41.3598 67.7582 41.4778 68.3822 40.9988C69.0072 40.5198 69.1252 39.6238 68.6462 38.9998C68.1672 38.3758 67.2712 38.2578 66.6472 38.7368Z" fill="#25282B"/>
<path fill-rule="evenodd" clip-rule="evenodd" d="M263.908 64.7718C264.387 65.3958 264.269 66.2908 263.645 66.7698C263.021 67.2488 262.125 67.1308 261.646 66.5068C261.167 65.8828 261.285 64.9878 261.909 64.5088C262.534 64.0298 263.429 64.1478 263.908 64.7718Z" fill="#25282B"/>
<path fill-rule="evenodd" clip-rule="evenodd" d="M40.6108 64.7718C40.1318 65.3958 40.2498 66.2908 40.8738 66.7698C41.4978 67.2488 42.3938 67.1308 42.8728 66.5068C43.3518 65.8828 43.2338 64.9878 42.6098 64.5088C41.9848 64.0298 41.0898 64.1478 40.6108 64.7718Z" fill="#25282B"/>
<path fill-rule="evenodd" clip-rule="evenodd" d="M188.517 14.3971C189.277 14.6011 189.729 15.3831 189.525 16.1431C189.321 16.9031 188.539 17.3551 187.779 17.1511C187.019 16.9471 186.568 16.1651 186.771 15.4051C186.975 14.6451 187.757 14.1931 188.517 14.3971Z" fill="#25282B"/>
<path fill-rule="evenodd" clip-rule="evenodd" d="M116.002 14.3971C115.242 14.6011 114.79 15.3831 114.994 16.1431C115.198 16.9031 115.98 17.3551 116.74 17.1511C117.5 16.9471 117.951 16.1651 117.748 15.4051C117.544 14.6451 116.762 14.1931 116.002 14.3971Z" fill="#25282B"/>
<path fill-rule="evenodd" clip-rule="evenodd" d="M223.367 27.0382C224.849 27.8932 225.357 29.7902 224.502 31.2712C223.646 32.7532 221.749 33.2612 220.268 32.4062C218.787 31.5502 218.278 29.6532 219.134 28.1722C219.989 26.6912 221.886 26.1822 223.367 27.0382Z" fill="#25282B"/>
<path fill-rule="evenodd" clip-rule="evenodd" d="M81.1478 27.0382C79.6658 27.8932 79.1578 29.7902 80.0128 31.2712C80.8688 32.7532 82.7658 33.2612 84.2468 32.4062C85.7278 31.5502 86.2368 29.6532 85.3808 28.1722C84.5258 26.6912 82.6288 26.1822 81.1478 27.0382Z" fill="#25282B"/>
<path fill-rule="evenodd" clip-rule="evenodd" d="M251.742 50.9009C252.298 51.4569 252.298 52.3609 251.742 52.9169C251.186 53.4729 250.282 53.4729 249.726 52.9169C249.17 52.3609 249.17 51.4569 249.726 50.9009C250.282 50.3449 251.186 50.3449 251.742 50.9009Z" fill="#25282B"/>
<path fill-rule="evenodd" clip-rule="evenodd" d="M52.7764 50.9009C52.2204 51.4569 52.2204 52.3609 52.7764 52.9169C53.3334 53.4729 54.2364 53.4729 54.7924 52.9169C55.3484 52.3609 55.3484 51.4569 54.7924 50.9009C54.2364 50.3449 53.3334 50.3449 52.7764 50.9009Z" fill="#25282B"/>
<path fill-rule="evenodd" clip-rule="evenodd" d="M275.607 79.2752C276.463 80.7562 275.954 82.6532 274.473 83.5082C272.992 84.3642 271.095 83.8552 270.239 82.3742C269.384 80.8932 269.892 78.9952 271.374 78.1402C272.855 77.2852 274.752 77.7932 275.607 79.2752Z" fill="#25282B"/>
<path fill-rule="evenodd" clip-rule="evenodd" d="M28.9117 79.2752C28.0557 80.7562 28.5647 82.6532 30.0457 83.5082C31.5267 84.3642 33.4247 83.8552 34.2797 82.3742C35.1347 80.8932 34.6267 78.9952 33.1447 78.1402C31.6637 77.2852 29.7667 77.7932 28.9117 79.2752Z" fill="#25282B"/>
<path fill-rule="evenodd" clip-rule="evenodd" d="M282.317 96.658C282.618 97.385 282.272 98.219 281.545 98.52C280.818 98.821 279.984 98.476 279.683 97.749C279.382 97.022 279.727 96.188 280.454 95.886C281.181 95.585 282.016 95.931 282.317 96.658Z" fill="#25282B"/>
<path fill-rule="evenodd" clip-rule="evenodd" d="M22.2024 96.658C21.9014 97.385 22.2474 98.219 22.9744 98.52C23.7014 98.821 24.5354 98.476 24.8364 97.749C25.1374 97.022 24.7924 96.188 24.0654 95.886C23.3384 95.585 22.5044 95.931 22.2024 96.658Z" fill="#25282B"/>
<path fill-rule="evenodd" clip-rule="evenodd" d="M288.248 114.128C288.451 114.888 288 115.67 287.24 115.874C286.48 116.077 285.698 115.626 285.494 114.866C285.29 114.106 285.742 113.323 286.502 113.12C287.262 112.916 288.044 113.368 288.248 114.128Z" fill="#25282B"/>
<path fill-rule="evenodd" clip-rule="evenodd" d="M16.2713 114.128C16.0683 114.888 16.5193 115.67 17.2793 115.874C18.0393 116.077 18.8213 115.626 19.0253 114.866C19.2293 114.106 18.7773 113.323 18.0173 113.12C17.2573 112.916 16.4753 113.368 16.2713 114.128Z" fill="#25282B"/>
<path fill-rule="evenodd" clip-rule="evenodd" d="M291.847 132.222C291.95 133.002 291.4 133.719 290.62 133.822C289.84 133.924 289.123 133.374 289.02 132.594C288.918 131.814 289.468 131.098 290.248 130.995C291.028 130.892 291.744 131.442 291.847 132.222Z" fill="#25282B"/>
<path fill-rule="evenodd" clip-rule="evenodd" d="M12.6726 132.222C12.5696 133.002 13.1196 133.719 13.8996 133.822C14.6796 133.924 15.3966 133.374 15.4996 132.594C15.6016 131.814 15.0516 131.098 14.2716 130.995C13.4916 130.892 12.7756 131.442 12.6726 132.222Z" fill="#25282B"/>
<path fill-rule="evenodd" clip-rule="evenodd" d="M294.725 150.632C294.725 152.342 293.337 153.731 291.626 153.731C289.916 153.731 288.527 152.342 288.527 150.632C288.527 148.921 289.916 147.532 291.626 147.532C293.337 147.532 294.725 148.921 294.725 150.632Z" fill="#25282B"/>
<path fill-rule="evenodd" clip-rule="evenodd" d="M9.79297 150.632C9.79297 152.342 11.181 153.731 12.892 153.731C14.602 153.731 15.991 152.342 15.991 150.632C15.991 148.921 14.602 147.532 12.892 147.532C11.181 147.532 9.79297 148.921 9.79297 150.632Z" fill="#25282B"/>
<defs>
<linearGradient id="paint0_linear_678_3458" x1="152.202" y1="43.039" x2="152" y2="144.627" gradientUnits="userSpaceOnUse">
<stop stop-color="#B4D8E7"/>
<stop offset="1" stop-color="#EFF9FD"/>
</linearGradient>
<linearGradient id="paint1_linear_678_3458" x1="235.606" y1="129.852" x2="235.423" y2="151.999" gradientUnits="userSpaceOnUse">
<stop stop-color="#217D5D"/>
<stop offset="1" stop-color="#06452F"/>
</linearGradient>
<linearGradient id="paint2_linear_678_3458" x1="152.202" y1="43.039" x2="152" y2="144.627" gradientUnits="userSpaceOnUse">
<stop stop-color="#B4D8E7"/>
<stop offset="1" stop-color="#EFF9FD"/>
</linearGradient>
<linearGradient id="paint3_linear_678_3458" x1="235.606" y1="129.852" x2="235.423" y2="151.999" gradientUnits="userSpaceOnUse">
<stop stop-color="#217D5D"/>
<stop offset="1" stop-color="#06452F"/>
</linearGradient>
</defs>
</svg>
