<svg width="301" height="153" viewBox="0 0 301 153" fill="none" xmlns="http://www.w3.org/2000/svg">
<path fill-rule="evenodd" clip-rule="evenodd" d="M300.816 150.415C300.816 67.572 233.658 0.415039 150.816 0.415039C67.9734 0.415039 0.816406 67.572 0.816406 150.415H300.816Z" fill="url(#paint0_linear_596_27)"/>
<path fill-rule="evenodd" clip-rule="evenodd" d="M4.20731 118.553C6.00331 118.591 7.62831 118.566 9.02831 118.428C15.7953 117.787 33.0963 120.456 35.3513 121.55C37.6083 122.67 45.1183 125.553 49.2463 125.792C53.3973 126.007 64.6753 126.46 70.6753 128.221C76.6983 130.01 86.1033 131.557 89.6673 132.011C91.9683 132.304 99.3893 134.546 105.84 135.854C98.7353 136.361 90.8633 136.361 86.5773 136.361H43.1333C37.0583 136.361 15.9223 141.123 0.945312 144.144C1.30531 135.4 2.41331 126.849 4.20731 118.553Z" fill="#FFCB97"/>
<path fill-rule="evenodd" clip-rule="evenodd" d="M0.945406 144.141C15.9224 141.12 37.0554 136.358 43.1314 136.358H86.5744C90.8604 136.358 98.7324 136.358 105.838 135.851C109.492 135.612 112.943 135.237 115.604 134.677C123.499 132.996 144.364 131.342 150.816 130.007C157.266 128.672 183.274 127.659 191.733 127.659C200.191 127.659 210.635 124.349 214.289 123.336C217.944 122.321 236.574 121.681 245.304 123.656C254.034 125.684 260.8 122.668 266.169 122.001C271.538 121.334 280.56 121.334 284.778 120.427C287.617 119.816 293.02 121.2 298.141 122.065C299.897 131.245 300.817 140.722 300.817 150.415H131.11C91.1474 149.002 48.0804 146.986 0.941406 144.256C0.942406 144.217 0.944406 144.179 0.945406 144.141Z" fill="#F5B370"/>
<path fill-rule="evenodd" clip-rule="evenodd" d="M1.09341 141.215H300.538C300.722 144.258 300.816 147.326 300.816 150.415H0.816406C0.816406 147.326 0.909406 144.258 1.09341 141.215Z" fill="#F08C2E"/>
<path fill-rule="evenodd" clip-rule="evenodd" d="M0.927781 144.601C16.1598 143.507 37.6708 141.781 43.8518 141.781L85.1608 144.739C89.5188 144.739 100.857 144.922 108.083 144.739C111.798 144.652 114.844 146.633 117.55 146.43C125.579 145.821 146.796 145.222 153.357 144.739C159.917 144.256 186.364 143.888 194.966 143.888C203.567 143.888 214.187 142.69 217.903 142.323C221.62 141.956 240.565 141.724 249.443 142.439C258.32 143.173 265.2 142.082 270.66 141.84C276.12 141.598 285.294 141.598 289.584 141.27C291.56 141.119 295.945 141.306 300.559 141.539C300.731 144.476 300.818 147.435 300.818 150.415H125.108C86.7188 148.902 45.5798 146.922 0.925781 144.653C0.926781 144.636 0.927781 144.618 0.927781 144.601Z" fill="#F3A455"/>
<path d="M129.594 88.9719C129.594 107.103 124.569 116.168 114.52 116.168H103.172C102.382 116.168 101.987 115.62 101.987 114.523L101.902 38.4519C101.902 37.4839 102.241 36.9679 102.918 36.9029C104.781 36.7739 109.015 36.7419 115.621 36.8059C120.645 36.7419 124.372 39.5479 126.799 45.2259C128.662 49.6779 129.594 55.4849 129.594 62.6469V88.9719ZM118.754 85.2949V61.0989C118.754 58.3889 118.119 55.8239 116.849 53.4049C115.578 50.9849 114.209 49.7749 112.742 49.7749C112.29 49.7749 112.064 50.2269 112.064 51.1299C112.064 51.3879 112.092 57.8729 112.149 70.5839V101.167C112.149 102.135 112.346 102.619 112.742 102.619C114.097 102.683 115.437 100.925 116.764 97.3439C118.091 93.7629 118.754 89.7469 118.754 85.2949Z" fill="#16A34A"/>
<path d="M166.856 115.781C166.912 116.168 166.658 116.362 166.094 116.362H161.69C159.545 116.297 157.682 116.265 156.101 116.265C155.593 116.265 154.944 114.168 154.153 109.974C153.589 106.813 153.165 104.103 152.883 101.844C152.827 101.393 152.516 101.167 151.951 101.167H148.649C148.254 101.167 148 101.393 147.887 101.844C147.379 105.716 146.701 110.2 145.854 115.297C145.628 115.878 145.374 116.168 145.092 116.168H134.676C133.773 116.168 133.406 115.781 133.575 115.007C135.494 101.844 137.414 88.6501 139.333 75.4231C143.116 50.0011 145.374 37.2581 146.108 37.1931C149.157 37.0001 152.206 37.0001 155.254 37.1931C155.932 37.2581 158.021 50.0331 161.521 75.5191C163.327 88.9401 165.106 102.361 166.856 115.781ZM152.121 88.9721C151.274 81.6171 150.738 77.9391 150.512 77.9391C150.23 77.9391 149.891 79.5201 149.496 82.6811C149.27 84.7461 149.044 86.8431 148.818 88.9721C148.762 89.1661 149.03 89.3111 149.623 89.4081C150.215 89.5051 150.766 89.5211 151.274 89.4561C151.839 89.3921 152.121 89.2301 152.121 88.9721Z" fill="#16A34A"/>
<path d="M199.968 40.0973C199.008 43.0003 197.54 47.9693 195.564 55.0013C193.08 63.9053 191.556 69.9063 190.991 73.0033C190.878 73.5843 190.878 74.8103 190.991 76.6813C190.935 86.7463 190.935 98.8123 190.991 112.878C191.047 114.813 190.539 115.813 189.467 115.878C190.257 115.813 187.35 115.684 180.744 115.491C179.615 115.491 179.022 114.684 178.966 113.071C179.135 102.102 179.248 89.8433 179.305 76.2943C179.305 75.7783 179.22 74.8743 179.05 73.5843C176.736 63.8413 173.631 52.2593 169.735 38.8393C169.622 38.3873 169.749 37.9193 170.116 37.4353C170.483 36.9513 170.893 36.6773 171.344 36.6133C173.941 36.4193 176.595 36.4193 179.305 36.6133C180.885 36.7423 181.789 37.6133 182.014 39.2263C182.579 42.1293 183.369 46.3563 184.386 51.9043C184.837 54.2923 185.176 55.4853 185.402 55.4853C185.458 55.4853 185.684 54.2923 186.079 51.9043C186.531 49.0013 187.237 44.7753 188.196 39.2263C188.535 37.7423 189.354 36.9353 190.652 36.8063C192.515 36.8713 195.112 36.8713 198.443 36.8063C199.572 36.7423 200.137 37.5483 200.137 39.2263C200.137 39.5483 200.08 39.8393 199.968 40.0973Z" fill="#16A34A"/>
<path fill-rule="evenodd" clip-rule="evenodd" d="M230.824 150.415V138.747C230.296 138.667 229.304 138.441 228.332 137.702C226.801 136.54 226.386 134.919 226.281 134.438V124.746C226.519 123.738 227.357 122.996 228.332 122.905C229.452 122.801 230.536 123.575 230.824 124.746V134.438C230.942 134.726 231.204 134.926 231.503 134.954C231.853 134.988 232.195 134.78 232.34 134.438V117.206C232.498 115.87 233.69 114.945 234.885 115.084C235.906 115.203 236.766 116.081 236.882 117.206V131.206C236.942 131.763 237.447 132.095 237.844 131.995C238.145 131.919 238.385 131.596 238.396 131.206V121.514C238.789 120.521 239.767 119.889 240.803 119.946C241.747 119.998 242.585 120.613 242.938 121.514V131.206C242.933 131.636 242.862 133.445 241.438 134.954C240.274 136.187 238.883 136.504 238.396 136.592V150.415H230.824Z" fill="url(#paint1_linear_596_27)"/>
<path d="M150.829 12.531C152.541 12.531 153.928 11.1435 153.928 9.43201C153.928 7.72048 152.541 6.33301 150.829 6.33301C149.118 6.33301 147.73 7.72048 147.73 9.43201C147.73 11.1435 149.118 12.531 150.829 12.531Z" fill="#25282B"/>
<path fill-rule="evenodd" clip-rule="evenodd" d="M169.237 9.21308C170.017 9.31608 170.567 10.0321 170.464 10.8121C170.361 11.5921 169.645 12.1421 168.864 12.0391C168.084 11.9371 167.535 11.2201 167.637 10.4401C167.74 9.66009 168.457 9.11008 169.237 9.21308Z" fill="#25282B"/>
<path fill-rule="evenodd" clip-rule="evenodd" d="M132.911 9.21308C132.131 9.31608 131.582 10.0321 131.684 10.8121C131.787 11.5921 132.504 12.1421 133.284 12.0391C134.064 11.9371 134.613 11.2201 134.511 10.4401C134.408 9.66009 133.691 9.11008 132.911 9.21308Z" fill="#25282B"/>
<path fill-rule="evenodd" clip-rule="evenodd" d="M204.803 18.7419C205.53 19.0429 205.876 19.8779 205.574 20.6049C205.273 21.3319 204.439 21.6769 203.712 21.3759C202.985 21.0749 202.639 20.2409 202.941 19.5139C203.242 18.7869 204.076 18.4409 204.803 18.7419Z" fill="#25282B"/>
<path fill-rule="evenodd" clip-rule="evenodd" d="M97.3485 18.7419C96.6215 19.0429 96.2765 19.8779 96.5775 20.6049C96.8785 21.3319 97.7125 21.6769 98.4395 21.3759C99.1665 21.0749 99.5125 20.2409 99.2115 19.5139C98.9095 18.7869 98.0755 18.4409 97.3485 18.7419Z" fill="#25282B"/>
<path fill-rule="evenodd" clip-rule="evenodd" d="M236.687 37.1518C237.311 37.6308 237.429 38.5258 236.95 39.1498C236.471 39.7748 235.576 39.8928 234.952 39.4138C234.327 38.9348 234.21 38.0388 234.688 37.4148C235.167 36.7908 236.063 36.6728 236.687 37.1518Z" fill="#25282B"/>
<path fill-rule="evenodd" clip-rule="evenodd" d="M65.4637 37.1518C64.8397 37.6308 64.7217 38.5258 65.2007 39.1498C65.6797 39.7748 66.5747 39.8928 67.1987 39.4138C67.8237 38.9348 67.9417 38.0388 67.4627 37.4148C66.9837 36.7908 66.0877 36.6728 65.4637 37.1518Z" fill="#25282B"/>
<path fill-rule="evenodd" clip-rule="evenodd" d="M262.724 63.1868C263.203 63.8108 263.085 64.7058 262.461 65.1848C261.837 65.6638 260.941 65.5458 260.462 64.9218C259.983 64.2978 260.101 63.4028 260.725 62.9238C261.35 62.4448 262.245 62.5628 262.724 63.1868Z" fill="#25282B"/>
<path fill-rule="evenodd" clip-rule="evenodd" d="M39.4272 63.1868C38.9482 63.8108 39.0662 64.7058 39.6902 65.1848C40.3142 65.6638 41.2102 65.5458 41.6892 64.9218C42.1682 64.2978 42.0502 63.4028 41.4262 62.9238C40.8012 62.4448 39.9062 62.5628 39.4272 63.1868Z" fill="#25282B"/>
<path fill-rule="evenodd" clip-rule="evenodd" d="M187.334 12.8122C188.094 13.0162 188.546 13.7982 188.342 14.5582C188.138 15.3182 187.356 15.7702 186.596 15.5662C185.836 15.3622 185.385 14.5802 185.588 13.8202C185.792 13.0602 186.574 12.6082 187.334 12.8122Z" fill="#25282B"/>
<path fill-rule="evenodd" clip-rule="evenodd" d="M114.819 12.8122C114.059 13.0162 113.607 13.7982 113.811 14.5582C114.015 15.3182 114.797 15.7702 115.557 15.5662C116.317 15.3622 116.768 14.5802 116.565 13.8202C116.361 13.0602 115.579 12.6082 114.819 12.8122Z" fill="#25282B"/>
<path fill-rule="evenodd" clip-rule="evenodd" d="M222.184 25.4532C223.666 26.3082 224.174 28.2052 223.319 29.6862C222.463 31.1682 220.566 31.6762 219.085 30.8212C217.604 29.9652 217.095 28.0682 217.951 26.5872C218.806 25.1062 220.703 24.5972 222.184 25.4532Z" fill="#25282B"/>
<path fill-rule="evenodd" clip-rule="evenodd" d="M79.9642 25.4532C78.4822 26.3082 77.9742 28.2052 78.8292 29.6862C79.6852 31.1682 81.5822 31.6762 83.0632 30.8212C84.5442 29.9652 85.0532 28.0682 84.1972 26.5872C83.3422 25.1062 81.4452 24.5972 79.9642 25.4532Z" fill="#25282B"/>
<path fill-rule="evenodd" clip-rule="evenodd" d="M250.558 49.3159C251.114 49.8719 251.114 50.7759 250.558 51.3319C250.002 51.8879 249.098 51.8879 248.542 51.3319C247.986 50.7759 247.986 49.8719 248.542 49.3159C249.098 48.7599 250.002 48.7599 250.558 49.3159Z" fill="#25282B"/>
<path fill-rule="evenodd" clip-rule="evenodd" d="M51.5928 49.3159C51.0368 49.8719 51.0368 50.7759 51.5928 51.3319C52.1498 51.8879 53.0528 51.8879 53.6088 51.3319C54.1648 50.7759 54.1648 49.8719 53.6088 49.3159C53.0528 48.7599 52.1498 48.7599 51.5928 49.3159Z" fill="#25282B"/>
<path fill-rule="evenodd" clip-rule="evenodd" d="M274.424 77.6903C275.28 79.1713 274.771 81.0683 273.29 81.9233C271.809 82.7793 269.912 82.2703 269.056 80.7893C268.201 79.3083 268.709 77.4103 270.191 76.5553C271.672 75.7003 273.569 76.2083 274.424 77.6903Z" fill="#25282B"/>
<path fill-rule="evenodd" clip-rule="evenodd" d="M27.7281 77.6903C26.8721 79.1713 27.3811 81.0683 28.8621 81.9233C30.3431 82.7793 32.2411 82.2703 33.0961 80.7893C33.9511 79.3083 33.4431 77.4103 31.9611 76.5553C30.4801 75.7003 28.5831 76.2083 27.7281 77.6903Z" fill="#25282B"/>
<path fill-rule="evenodd" clip-rule="evenodd" d="M281.133 95.073C281.434 95.8 281.088 96.634 280.361 96.935C279.634 97.236 278.8 96.891 278.499 96.164C278.198 95.437 278.543 94.603 279.27 94.301C279.997 94 280.832 94.346 281.133 95.073Z" fill="#25282B"/>
<path fill-rule="evenodd" clip-rule="evenodd" d="M21.0188 95.073C20.7178 95.8 21.0638 96.634 21.7908 96.935C22.5178 97.236 23.3518 96.891 23.6528 96.164C23.9538 95.437 23.6088 94.603 22.8818 94.301C22.1548 94 21.3208 94.346 21.0188 95.073Z" fill="#25282B"/>
<path fill-rule="evenodd" clip-rule="evenodd" d="M287.065 112.543C287.268 113.303 286.817 114.085 286.057 114.289C285.297 114.492 284.515 114.041 284.311 113.281C284.107 112.521 284.559 111.738 285.319 111.535C286.079 111.331 286.861 111.783 287.065 112.543Z" fill="#25282B"/>
<path fill-rule="evenodd" clip-rule="evenodd" d="M15.0877 112.543C14.8847 113.303 15.3357 114.085 16.0957 114.289C16.8557 114.492 17.6377 114.041 17.8417 113.281C18.0457 112.521 17.5937 111.738 16.8337 111.535C16.0737 111.331 15.2917 111.783 15.0877 112.543Z" fill="#25282B"/>
<path fill-rule="evenodd" clip-rule="evenodd" d="M290.663 130.637C290.766 131.417 290.216 132.134 289.436 132.237C288.656 132.339 287.939 131.789 287.836 131.009C287.734 130.229 288.284 129.513 289.064 129.41C289.844 129.307 290.56 129.857 290.663 130.637Z" fill="#25282B"/>
<path fill-rule="evenodd" clip-rule="evenodd" d="M11.489 130.637C11.386 131.417 11.936 132.134 12.716 132.237C13.496 132.339 14.213 131.789 14.316 131.009C14.418 130.229 13.868 129.513 13.088 129.41C12.308 129.307 11.592 129.857 11.489 130.637Z" fill="#25282B"/>
<path fill-rule="evenodd" clip-rule="evenodd" d="M293.542 149.047C293.542 150.757 292.154 152.146 290.443 152.146C288.733 152.146 287.344 150.757 287.344 149.047C287.344 147.336 288.733 145.947 290.443 145.947C292.154 145.947 293.542 147.336 293.542 149.047Z" fill="#25282B"/>
<path fill-rule="evenodd" clip-rule="evenodd" d="M8.60938 149.047C8.60938 150.757 9.99738 152.146 11.7084 152.146C13.4184 152.146 14.8074 150.757 14.8074 149.047C14.8074 147.336 13.4184 145.947 11.7084 145.947C9.99738 145.947 8.60938 147.336 8.60938 149.047Z" fill="#25282B"/>
<defs>
<linearGradient id="paint0_linear_596_27" x1="151.018" y1="41.454" x2="150.816" y2="143.042" gradientUnits="userSpaceOnUse">
<stop stop-color="#B4D8E7"/>
<stop offset="1" stop-color="#EFF9FD"/>
</linearGradient>
<linearGradient id="paint1_linear_596_27" x1="234.422" y1="128.267" x2="234.239" y2="150.414" gradientUnits="userSpaceOnUse">
<stop stop-color="#217D5D"/>
<stop offset="1" stop-color="#06452F"/>
</linearGradient>
</defs>
</svg>
