<svg width="300" height="153" viewBox="0 0 300 153" fill="none" xmlns="http://www.w3.org/2000/svg">
<path fill-rule="evenodd" clip-rule="evenodd" d="M300 150.73C300 67.8875 232.843 0.730469 150 0.730469C67.157 0.730469 0 67.8875 0 150.73H300Z" fill="url(#paint0_linear_1114_907)"/>
<path fill-rule="evenodd" clip-rule="evenodd" d="M3.39091 118.868C5.18591 118.906 6.81091 118.881 8.21091 118.743C14.9779 118.102 32.2789 120.771 34.5339 121.865C36.7909 122.985 44.3009 125.868 48.4299 126.107C52.5799 126.322 63.8589 126.775 69.8589 128.536C75.8809 130.325 85.2869 131.872 88.8499 132.326C91.1519 132.619 98.5719 134.861 105.023 136.169C97.9189 136.676 90.0459 136.676 85.7609 136.676H42.3169C36.2409 136.676 15.1049 141.438 0.128906 144.459C0.487906 135.715 1.59591 127.164 3.39091 118.868Z" fill="#FFCB97"/>
<path fill-rule="evenodd" clip-rule="evenodd" d="M0.13 144.455C15.107 141.434 36.24 136.672 42.315 136.672H85.758C90.044 136.672 97.917 136.672 105.023 136.165C108.676 135.926 112.127 135.551 114.788 134.991C122.683 133.31 143.548 131.656 150 130.321C156.451 128.986 182.458 127.973 190.917 127.973C199.376 127.973 209.819 124.663 213.473 123.65C217.128 122.635 235.759 121.995 244.489 123.97C253.218 125.998 259.984 122.982 265.353 122.315C270.722 121.648 279.744 121.648 283.962 120.741C286.801 120.13 292.205 121.514 297.326 122.379C299.082 131.559 300.001 141.036 300.001 150.729H130.295C90.331 149.316 47.264 147.3 0.125 144.57C0.127 144.531 0.128 144.493 0.13 144.455Z" fill="#F5B370"/>
<path fill-rule="evenodd" clip-rule="evenodd" d="M0.277 141.531H299.723C299.907 144.574 300 147.642 300 150.731H0C0 147.642 0.093 144.574 0.277 141.531Z" fill="#F08C2E"/>
<path fill-rule="evenodd" clip-rule="evenodd" d="M0.111375 144.917C15.3424 143.823 36.8534 142.097 43.0354 142.097L84.3444 145.055C88.7024 145.055 100.039 145.238 107.265 145.055C110.98 144.968 114.026 146.949 116.733 146.746C124.761 146.137 145.978 145.538 152.54 145.055C159.099 144.572 185.547 144.204 194.148 144.204C202.75 144.204 213.37 143.006 217.086 142.639C220.802 142.272 239.748 142.04 248.625 142.755C257.502 143.489 264.383 142.398 269.843 142.156C275.302 141.914 284.477 141.914 288.766 141.586C290.742 141.435 295.128 141.622 299.742 141.855C299.913 144.792 300 147.751 300 150.731H124.291C85.9024 149.218 44.7634 147.238 0.109375 144.969C0.109375 144.952 0.110375 144.934 0.111375 144.917Z" fill="#F3A455"/>
<path d="M97.1865 92.0074L96.2625 104.413L87.5625 113.563L89.3335 89.7194L92.6445 86.2884L97.1865 92.0074ZM90.1805 79.3374L91.9515 55.4934L99.2645 64.6444L98.3405 77.0504L92.8755 82.8574L90.1805 79.3374ZM88.9485 115.323L97.6485 106.172H112.737L116.432 110.748L112.044 115.323H88.9485ZM124.285 79.3374L120.974 82.8574L116.432 77.0504L117.356 64.6444L121.744 60.0694L125.363 64.6444L124.285 79.3374ZM120.435 58.3094L116.048 62.9724H100.958L93.6445 53.7344H116.74L120.435 58.3094ZM122.36 104.413L117.972 108.988L114.354 104.413L115.277 92.0074L120.743 86.2884L123.438 89.7194L122.36 104.413Z" fill="#16A34A"/>
<path d="M167.861 53.7344L159.161 62.9724H144.072L136.758 53.7344H167.861ZM140.3 92.0074L139.222 106.172L130.523 115.323L132.447 89.7194L135.758 86.2884L140.3 92.0074ZM133.294 79.3374L135.065 55.4934L142.378 64.6444L141.455 77.0504L135.989 82.8574L133.294 79.3374ZM166.552 89.7194L164.627 115.323L157.314 106.172L158.391 92.0074L163.857 86.2884L166.552 89.7194ZM159.546 77.0504L160.47 64.6444L169.169 55.4934L167.399 79.3374L164.088 82.8574L159.546 77.0504ZM158.853 79.9534L162.549 84.5284L158.16 89.1034H141.07L137.451 84.5284L141.763 79.9534H158.853Z" fill="#16A34A"/>
<path d="M210.511 79.3374L207.2 82.8574L202.658 77.0504L203.736 62.9724L212.436 53.7344L210.511 79.3374ZM176.406 79.3374L179.101 82.8574L184.567 77.0504L185.644 62.9724L178.331 53.7344L176.406 79.3374ZM180.64 115.323L177.022 110.748L181.333 106.172H198.963L202.658 110.748L198.27 115.323H180.64ZM208.586 104.413L204.198 108.988L200.58 104.413L201.504 92.0074L206.97 86.2884L209.664 89.7194L208.586 104.413ZM201.965 79.9534L205.661 84.5284L201.273 89.1034H184.182L180.563 84.5284L184.875 79.9534H201.965Z" fill="#16A34A"/>
<path fill-rule="evenodd" clip-rule="evenodd" d="M230.008 150.732V139.064C229.479 138.984 228.488 138.758 227.515 138.019C225.985 136.857 225.57 135.236 225.465 134.755V125.063C225.703 124.055 226.54 123.313 227.515 123.222C228.635 123.118 229.72 123.892 230.008 125.063V134.755C230.126 135.043 230.388 135.243 230.686 135.271C231.036 135.305 231.379 135.097 231.523 134.755V117.523C231.681 116.187 232.873 115.262 234.068 115.401C235.09 115.52 235.949 116.398 236.066 117.523V131.523C236.125 132.08 236.631 132.412 237.028 132.312C237.328 132.236 237.569 131.913 237.579 131.523V121.831C237.973 120.838 238.95 120.206 239.987 120.263C240.93 120.315 241.768 120.93 242.122 121.831V131.523C242.117 131.953 242.046 133.762 240.621 135.271C239.457 136.504 238.067 136.821 237.579 136.909V150.732H230.008Z" fill="url(#paint1_linear_1114_907)"/>
<path d="M150.013 12.8464C151.725 12.8464 153.112 11.459 153.112 9.74744C153.112 8.03591 151.725 6.64844 150.013 6.64844C148.302 6.64844 146.914 8.03591 146.914 9.74744C146.914 11.459 148.302 12.8464 150.013 12.8464Z" fill="#25282B"/>
<path fill-rule="evenodd" clip-rule="evenodd" d="M168.424 9.52803C169.204 9.63103 169.754 10.347 169.651 11.127C169.549 11.907 168.832 12.457 168.052 12.354C167.272 12.252 166.722 11.535 166.825 10.755C166.927 9.97503 167.644 9.42503 168.424 9.52803Z" fill="#25282B"/>
<path fill-rule="evenodd" clip-rule="evenodd" d="M132.099 9.52803C131.319 9.63103 130.769 10.347 130.872 11.127C130.974 11.907 131.691 12.457 132.471 12.354C133.251 12.252 133.801 11.535 133.698 10.755C133.596 9.97503 132.879 9.42503 132.099 9.52803Z" fill="#25282B"/>
<path fill-rule="evenodd" clip-rule="evenodd" d="M203.986 19.0579C204.713 19.3589 205.059 20.1939 204.758 20.9209C204.457 21.6479 203.622 21.9929 202.895 21.6919C202.169 21.3909 201.823 20.5569 202.124 19.8299C202.425 19.1029 203.26 18.7569 203.986 19.0579Z" fill="#25282B"/>
<path fill-rule="evenodd" clip-rule="evenodd" d="M96.532 19.0579C95.806 19.3589 95.46 20.1939 95.761 20.9209C96.062 21.6479 96.897 21.9929 97.623 21.6919C98.35 21.3909 98.696 20.5569 98.395 19.8299C98.094 19.1029 97.259 18.7569 96.532 19.0579Z" fill="#25282B"/>
<path fill-rule="evenodd" clip-rule="evenodd" d="M235.872 37.4663C236.496 37.9453 236.614 38.8403 236.135 39.4643C235.656 40.0893 234.76 40.2073 234.136 39.7283C233.512 39.2493 233.394 38.3533 233.873 37.7293C234.352 37.1053 235.247 36.9873 235.872 37.4663Z" fill="#25282B"/>
<path fill-rule="evenodd" clip-rule="evenodd" d="M64.6472 37.4663C64.0232 37.9453 63.9052 38.8403 64.3842 39.4643C64.8632 40.0893 65.7592 40.2073 66.3832 39.7283C67.0072 39.2493 67.1252 38.3533 66.6462 37.7293C66.1672 37.1053 65.2712 36.9873 64.6472 37.4663Z" fill="#25282B"/>
<path fill-rule="evenodd" clip-rule="evenodd" d="M261.908 63.5027C262.386 64.1267 262.269 65.0217 261.644 65.5007C261.02 65.9797 260.125 65.8617 259.646 65.2377C259.167 64.6137 259.285 63.7187 259.909 63.2397C260.533 62.7607 261.429 62.8787 261.908 63.5027Z" fill="#25282B"/>
<path fill-rule="evenodd" clip-rule="evenodd" d="M38.6107 63.5027C38.1317 64.1267 38.2497 65.0217 38.8747 65.5007C39.4987 65.9797 40.3937 65.8617 40.8727 65.2377C41.3517 64.6137 41.2337 63.7187 40.6097 63.2397C39.9857 62.7607 39.0897 62.8787 38.6107 63.5027Z" fill="#25282B"/>
<path fill-rule="evenodd" clip-rule="evenodd" d="M186.518 13.1271C187.277 13.3311 187.729 14.1131 187.525 14.8731C187.322 15.6331 186.54 16.0851 185.78 15.8811C185.02 15.6771 184.568 14.8951 184.772 14.1351C184.975 13.3751 185.758 12.9231 186.518 13.1271Z" fill="#25282B"/>
<path fill-rule="evenodd" clip-rule="evenodd" d="M114.002 13.1271C113.242 13.3311 112.791 14.1131 112.994 14.8731C113.198 15.6331 113.98 16.0851 114.74 15.8811C115.5 15.6771 115.952 14.8951 115.748 14.1351C115.545 13.3751 114.762 12.9231 114.002 13.1271Z" fill="#25282B"/>
<path fill-rule="evenodd" clip-rule="evenodd" d="M221.372 25.7672C222.853 26.6222 223.361 28.5192 222.506 30.0002C221.651 31.4822 219.754 31.9902 218.272 31.1352C216.791 30.2792 216.283 28.3822 217.138 26.9012C217.993 25.4202 219.89 24.9112 221.372 25.7672Z" fill="#25282B"/>
<path fill-rule="evenodd" clip-rule="evenodd" d="M79.1473 25.7672C77.6663 26.6222 77.1573 28.5192 78.0133 30.0002C78.8683 31.4822 80.7653 31.9902 82.2463 31.1352C83.7283 30.2792 84.2363 28.3822 83.3813 26.9012C82.5263 25.4202 80.6293 24.9112 79.1473 25.7672Z" fill="#25282B"/>
<path fill-rule="evenodd" clip-rule="evenodd" d="M249.742 49.6318C250.299 50.1878 250.299 51.0918 249.742 51.6478C249.186 52.2038 248.283 52.2038 247.726 51.6478C247.17 51.0918 247.17 50.1878 247.726 49.6318C248.283 49.0758 249.186 49.0758 249.742 49.6318Z" fill="#25282B"/>
<path fill-rule="evenodd" clip-rule="evenodd" d="M50.7771 49.6318C50.2201 50.1878 50.2201 51.0918 50.7771 51.6478C51.3331 52.2038 52.2361 52.2038 52.7931 51.6478C53.3491 51.0918 53.3491 50.1878 52.7931 49.6318C52.2361 49.0758 51.3331 49.0758 50.7771 49.6318Z" fill="#25282B"/>
<path fill-rule="evenodd" clip-rule="evenodd" d="M273.608 78.0072C274.463 79.4882 273.955 81.3852 272.473 82.2402C270.992 83.0962 269.095 82.5872 268.24 81.1062C267.384 79.6252 267.893 77.7272 269.374 76.8722C270.855 76.0172 272.753 76.5252 273.608 78.0072Z" fill="#25282B"/>
<path fill-rule="evenodd" clip-rule="evenodd" d="M26.9112 78.0072C26.0562 79.4882 26.5642 81.3852 28.0462 82.2402C29.5272 83.0962 31.4242 82.5872 32.2792 81.1062C33.1352 79.6252 32.6262 77.7272 31.1452 76.8722C29.6632 76.0172 27.7662 76.5252 26.9112 78.0072Z" fill="#25282B"/>
<path fill-rule="evenodd" clip-rule="evenodd" d="M280.317 95.3885C280.618 96.1155 280.272 96.9495 279.546 97.2505C278.819 97.5515 277.984 97.2065 277.683 96.4795C277.382 95.7525 277.728 94.9185 278.455 94.6165C279.181 94.3155 280.016 94.6615 280.317 95.3885Z" fill="#25282B"/>
<path fill-rule="evenodd" clip-rule="evenodd" d="M20.2024 95.3885C19.9014 96.1155 20.2474 96.9495 20.9734 97.2505C21.7004 97.5515 22.5354 97.2065 22.8364 96.4795C23.1374 95.7525 22.7914 94.9185 22.0644 94.6165C21.3384 94.3155 20.5034 94.6615 20.2024 95.3885Z" fill="#25282B"/>
<path fill-rule="evenodd" clip-rule="evenodd" d="M286.248 112.858C286.452 113.618 286 114.4 285.24 114.604C284.48 114.807 283.698 114.356 283.494 113.596C283.291 112.836 283.742 112.053 284.502 111.85C285.262 111.646 286.045 112.098 286.248 112.858Z" fill="#25282B"/>
<path fill-rule="evenodd" clip-rule="evenodd" d="M14.2716 112.858C14.0676 113.618 14.5196 114.4 15.2796 114.604C16.0396 114.807 16.8216 114.356 17.0246 113.596C17.2286 112.836 16.7766 112.053 16.0176 111.85C15.2576 111.646 14.4746 112.098 14.2716 112.858Z" fill="#25282B"/>
<path fill-rule="evenodd" clip-rule="evenodd" d="M289.846 130.954C289.949 131.734 289.399 132.451 288.619 132.554C287.839 132.656 287.123 132.106 287.02 131.326C286.917 130.546 287.467 129.83 288.247 129.727C289.027 129.624 289.744 130.174 289.846 130.954Z" fill="#25282B"/>
<path fill-rule="evenodd" clip-rule="evenodd" d="M10.6723 130.954C10.5703 131.734 11.1203 132.451 11.9003 132.554C12.6803 132.656 13.3963 132.106 13.4993 131.326C13.6023 130.546 13.0523 129.83 12.2723 129.727C11.4923 129.624 10.7753 130.174 10.6723 130.954Z" fill="#25282B"/>
<path fill-rule="evenodd" clip-rule="evenodd" d="M292.726 149.362C292.726 151.072 291.337 152.461 289.627 152.461C287.916 152.461 286.527 151.072 286.527 149.362C286.527 147.651 287.916 146.262 289.627 146.262C291.337 146.262 292.726 147.651 292.726 149.362Z" fill="#25282B"/>
<path fill-rule="evenodd" clip-rule="evenodd" d="M7.79297 149.362C7.79297 151.072 9.18197 152.461 10.892 152.461C12.603 152.461 13.992 151.072 13.992 149.362C13.992 147.651 12.603 146.262 10.892 146.262C9.18197 146.262 7.79297 147.651 7.79297 149.362Z" fill="#25282B"/>
<defs>
<linearGradient id="paint0_linear_1114_907" x1="150.202" y1="41.7695" x2="150" y2="143.357" gradientUnits="userSpaceOnUse">
<stop stop-color="#B4D8E7"/>
<stop offset="1" stop-color="#EFF9FD"/>
</linearGradient>
<linearGradient id="paint1_linear_1114_907" x1="233.606" y1="128.584" x2="233.423" y2="150.731" gradientUnits="userSpaceOnUse">
<stop stop-color="#217D5D"/>
<stop offset="1" stop-color="#06452F"/>
</linearGradient>
</defs>
</svg>
