<svg width="301" height="152" viewBox="0 0 301 152" fill="none" xmlns="http://www.w3.org/2000/svg">
<path fill-rule="evenodd" clip-rule="evenodd" d="M300.543 150C300.543 67.157 233.386 0 150.543 0C67.7 0 0.542969 67.157 0.542969 150H300.543Z" fill="url(#paint0_linear_621_27)"/>
<path fill-rule="evenodd" clip-rule="evenodd" d="M3.93388 118.138C5.72888 118.176 7.35388 118.151 8.75388 118.013C15.5219 117.372 32.8219 120.041 35.0769 121.135C37.3339 122.255 44.8449 125.138 48.9729 125.377C53.1229 125.592 64.4019 126.045 70.4019 127.806C76.4239 129.595 85.8299 131.142 89.3929 131.596C91.6949 131.889 99.1149 134.131 105.567 135.439C98.4619 135.946 90.5889 135.946 86.3039 135.946H42.8599C36.7839 135.946 15.6479 140.708 0.671875 143.729C1.03087 134.985 2.13988 126.434 3.93388 118.138Z" fill="#403233"/>
<path fill-rule="evenodd" clip-rule="evenodd" d="M0.672969 143.726C15.65 140.705 36.783 135.943 42.858 135.943H86.302C90.587 135.943 98.46 135.943 105.566 135.436C109.219 135.197 112.67 134.822 115.331 134.262C123.226 132.581 144.091 130.927 150.543 129.592C156.994 128.257 183.001 127.244 191.46 127.244C199.919 127.244 210.362 123.934 214.016 122.921C217.671 121.906 236.302 121.266 245.032 123.241C253.761 125.269 260.527 122.253 265.896 121.586C271.265 120.919 280.287 120.919 284.505 120.012C287.344 119.401 292.748 120.785 297.869 121.65C299.625 130.83 300.544 140.307 300.544 150H130.838C90.874 148.587 47.807 146.571 0.667969 143.841C0.669969 143.802 0.670969 143.764 0.672969 143.726Z" fill="#5E4B4B"/>
<path fill-rule="evenodd" clip-rule="evenodd" d="M0.820969 140.8H300.266C300.45 143.843 300.543 146.911 300.543 150H0.542969C0.542969 146.911 0.636969 143.843 0.820969 140.8Z" fill="#403233"/>
<path fill-rule="evenodd" clip-rule="evenodd" d="M0.654344 144.186C15.8853 143.092 37.3963 141.366 43.5783 141.366L84.8873 144.324C89.2453 144.324 100.582 144.507 107.808 144.324C111.523 144.237 114.57 146.218 117.276 146.015C125.304 145.406 146.522 144.807 153.083 144.324C159.643 143.841 186.09 143.473 194.691 143.473C203.293 143.473 213.913 142.275 217.629 141.908C221.345 141.541 240.291 141.309 249.168 142.024C258.045 142.758 264.926 141.667 270.386 141.425C275.845 141.183 285.02 141.183 289.309 140.855C291.285 140.704 295.671 140.891 300.285 141.124C300.456 144.061 300.543 147.02 300.543 150H124.834C86.4453 148.487 45.3063 146.507 0.652344 144.238C0.652344 144.221 0.653344 144.203 0.654344 144.186Z" fill="#2C2222"/>
<path d="M107.405 90.2961C107.405 107.211 102.717 115.669 93.3423 115.669H82.7553C82.0183 115.669 81.6493 115.157 81.6493 114.134L81.5703 43.1621C81.5703 42.2591 81.8863 41.7781 82.5183 41.7181C84.2563 41.5971 88.2073 41.5671 94.3693 41.6271C99.0573 41.5671 102.533 44.1861 104.798 49.4831C106.536 53.6371 107.405 59.0541 107.405 65.7361V90.2961ZM97.2923 86.8651V64.2911C97.2923 61.7631 96.7003 59.3701 95.5153 57.1131C94.3303 54.8561 93.0523 53.7271 91.6833 53.7271C91.2613 53.7271 91.0513 54.1481 91.0513 54.9911C91.0513 55.2321 91.0773 61.2811 91.1303 73.1401V101.673C91.1303 102.576 91.3143 103.028 91.6833 103.028C92.9473 103.088 94.1983 101.447 95.4363 98.1071C96.6733 94.7661 97.2923 91.0181 97.2923 86.8651Z" fill="#F87171"/>
<path d="M137.113 113.773C137.376 115.097 137.113 115.789 136.323 115.849C135.322 115.97 132.241 115.94 127.079 115.759C126.5 115.759 126.157 114.947 126.052 113.321C125.789 109.228 125.657 104.683 125.657 99.6868C125.657 90.5968 124.261 86.0518 121.47 86.0518C121.101 85.9318 120.785 85.9318 120.521 86.0518C120.153 86.2328 119.968 86.8948 119.968 88.0388C119.968 97.4898 119.942 105.797 119.889 112.96C119.889 114.525 119.6 115.338 119.02 115.398C116.176 115.759 113.463 115.819 110.883 115.579C110.251 115.518 109.934 114.646 109.934 112.96L110.092 43.4328C110.092 42.3498 110.567 41.8078 111.515 41.8078C114.412 41.8078 118.362 41.7778 123.366 41.7178C126.631 41.7178 129.397 42.4998 131.661 44.0648C134.137 45.8108 135.375 48.1288 135.375 51.0178L135.296 68.8058C135.296 71.7558 134.532 74.2838 133.005 76.3908C131.951 77.8958 130.766 78.9188 129.449 79.4608C129.028 79.6408 128.817 79.8218 128.817 80.0028C128.817 80.1228 129.028 80.2728 129.449 80.4538C130.45 80.8148 131.503 81.5678 132.61 82.7108C135.085 85.1788 136.323 91.1688 136.323 100.68C136.323 106.76 136.586 111.124 137.113 113.773ZM125.736 58.6928C125.736 54.7198 124.577 52.8238 122.26 53.0038C121.733 53.0648 121.338 53.0948 121.074 53.0948C120.6 53.0948 120.363 53.6058 120.363 54.6298V70.5218C120.363 72.2068 120.732 73.0798 121.47 73.1398C121.733 73.1998 122.049 73.1998 122.418 73.1398C123.576 73.1398 124.366 72.4778 124.788 71.1538C125.42 69.2268 125.736 65.0738 125.736 58.6928Z" fill="#F87171"/>
<path d="M172.271 115.308C172.324 115.669 172.087 115.849 171.56 115.849H167.452C165.45 115.789 163.712 115.759 162.237 115.759C161.763 115.759 161.157 113.803 160.42 109.89C159.893 106.94 159.498 104.412 159.235 102.305C159.182 101.884 158.893 101.673 158.366 101.673H155.285C154.916 101.673 154.679 101.884 154.573 102.305C154.099 105.917 153.467 110.101 152.677 114.856C152.467 115.398 152.23 115.669 151.966 115.669H142.248C141.406 115.669 141.063 115.308 141.221 114.585C143.012 102.305 144.803 89.9948 146.594 77.6548C150.123 53.9378 152.23 42.0488 152.914 41.9888C155.759 41.8078 158.603 41.8078 161.447 41.9888C162.079 42.0488 164.028 53.9678 167.294 77.7448C168.979 90.2658 170.638 102.787 172.271 115.308ZM158.524 90.2958C157.734 83.4338 157.233 80.0028 157.023 80.0028C156.759 80.0028 156.443 81.4768 156.075 84.4268C155.864 86.3528 155.653 88.3098 155.443 90.2958C155.39 90.4768 155.64 90.6118 156.193 90.7018C156.746 90.7928 157.26 90.8078 157.734 90.7478C158.26 90.6868 158.524 90.5368 158.524 90.2958Z" fill="#F87171"/>
<path d="M186.73 113.141C186.73 114.585 186.309 115.428 185.466 115.669C184.202 116.09 181.437 116.09 177.171 115.669C176.117 115.548 175.59 114.585 175.59 112.779C175.696 92.4329 175.722 69.7989 175.669 44.8779C175.669 44.2759 175.722 43.7339 175.827 43.2529C175.985 42.5299 176.275 42.1689 176.696 42.1689C178.961 42.1689 181.832 42.2289 185.308 42.3499C186.204 42.4699 186.678 43.3129 186.73 44.8779V113.141Z" fill="#F87171"/>
<path d="M219.516 44.1562C219.464 41.0252 219.332 64.0202 219.121 113.141C219.121 114.706 218.7 115.579 217.857 115.759C215.329 116.241 212.669 116.241 209.877 115.759C208.929 115.579 208.324 114.947 208.06 113.863C206.322 104.834 204.294 94.6002 201.977 83.1632C201.766 82.2602 201.45 81.8082 201.029 81.8082C200.713 81.8082 200.555 82.4402 200.555 83.7052V96.5262C200.502 103.75 200.476 109.378 200.476 113.412C200.476 114.615 199.817 115.368 198.5 115.669C197.605 115.91 196.42 116 194.945 115.94C193.049 115.88 191.969 115.849 191.706 115.849C190.652 115.91 190.099 115.217 190.047 113.773C189.836 105.345 189.783 92.6442 189.889 75.6682C189.994 59.2352 190.178 48.7912 190.442 44.3362C190.547 42.8912 190.889 42.1392 191.469 42.0792C192.733 42.0192 194.445 42.0192 196.604 42.0792C199.238 42.1992 200.66 42.2592 200.871 42.2592C201.608 42.2592 202.082 42.8912 202.293 44.1562C204.926 58.7232 206.77 68.1142 207.823 72.3282C208.245 73.9532 208.587 74.7652 208.85 74.7652C209.219 74.7652 209.351 73.8322 209.245 71.9662C209.035 67.0902 208.929 57.8202 208.929 44.1562C208.929 42.7712 209.456 42.1092 210.51 42.1692H217.857C218.963 42.2292 219.516 42.8912 219.516 44.1562Z" fill="#F87171"/>
<path d="M150.556 12.116C152.268 12.116 153.655 10.7285 153.655 9.01697C153.655 7.30544 152.268 5.91797 150.556 5.91797C148.844 5.91797 147.457 7.30544 147.457 9.01697C147.457 10.7285 148.844 12.116 150.556 12.116Z" fill="white"/>
<path fill-rule="evenodd" clip-rule="evenodd" d="M168.967 8.79805C169.747 8.90105 170.297 9.61704 170.194 10.397C170.092 11.177 169.375 11.727 168.595 11.624C167.815 11.522 167.265 10.8051 167.368 10.0251C167.471 9.24505 168.187 8.69505 168.967 8.79805Z" fill="white"/>
<path fill-rule="evenodd" clip-rule="evenodd" d="M132.642 8.79805C131.862 8.90105 131.312 9.61704 131.415 10.397C131.517 11.177 132.234 11.727 133.014 11.624C133.794 11.522 134.344 10.8051 134.241 10.0251C134.139 9.24505 133.422 8.69505 132.642 8.79805Z" fill="white"/>
<path fill-rule="evenodd" clip-rule="evenodd" d="M204.53 18.3269C205.256 18.6279 205.602 19.4629 205.301 20.1899C205 20.9169 204.165 21.2619 203.439 20.9609C202.712 20.6599 202.366 19.8259 202.667 19.0989C202.968 18.3719 203.803 18.0259 204.53 18.3269Z" fill="white"/>
<path fill-rule="evenodd" clip-rule="evenodd" d="M97.0759 18.3269C96.3489 18.6279 96.003 19.4629 96.304 20.1899C96.605 20.9169 97.44 21.2619 98.167 20.9609C98.893 20.6599 99.2389 19.8259 98.9379 19.0989C98.6369 18.3719 97.8019 18.0259 97.0759 18.3269Z" fill="white"/>
<path fill-rule="evenodd" clip-rule="evenodd" d="M236.414 36.7368C237.038 37.2158 237.156 38.1108 236.677 38.7348C236.198 39.3598 235.302 39.4778 234.678 38.9988C234.054 38.5198 233.936 37.6238 234.415 36.9998C234.894 36.3758 235.79 36.2578 236.414 36.7368Z" fill="white"/>
<path fill-rule="evenodd" clip-rule="evenodd" d="M65.1902 36.7368C64.5662 37.2158 64.4482 38.1108 64.9272 38.7348C65.4062 39.3598 66.3022 39.4778 66.9262 38.9988C67.5502 38.5198 67.6682 37.6238 67.1892 36.9998C66.7102 36.3758 65.8152 36.2578 65.1902 36.7368Z" fill="white"/>
<path fill-rule="evenodd" clip-rule="evenodd" d="M262.451 62.7718C262.93 63.3958 262.812 64.2908 262.188 64.7698C261.563 65.2488 260.668 65.1308 260.189 64.5068C259.71 63.8828 259.828 62.9878 260.452 62.5088C261.076 62.0298 261.972 62.1478 262.451 62.7718Z" fill="white"/>
<path fill-rule="evenodd" clip-rule="evenodd" d="M39.1541 62.7718C38.6751 63.3958 38.7921 64.2908 39.4171 64.7698C40.0411 65.2488 40.9361 65.1308 41.4151 64.5068C41.8941 63.8828 41.7761 62.9878 41.1521 62.5088C40.5281 62.0298 39.6321 62.1478 39.1541 62.7718Z" fill="white"/>
<path fill-rule="evenodd" clip-rule="evenodd" d="M187.061 12.3971C187.821 12.6011 188.272 13.3831 188.069 14.1431C187.865 14.9031 187.083 15.3551 186.323 15.1511C185.563 14.9471 185.111 14.1651 185.315 13.4051C185.518 12.6451 186.301 12.1931 187.061 12.3971Z" fill="white"/>
<path fill-rule="evenodd" clip-rule="evenodd" d="M114.544 12.3971C113.785 12.6011 113.333 13.3831 113.537 14.1431C113.74 14.9031 114.522 15.3551 115.282 15.1511C116.042 14.9471 116.494 14.1651 116.29 13.4051C116.087 12.6451 115.304 12.1931 114.544 12.3971Z" fill="white"/>
<path fill-rule="evenodd" clip-rule="evenodd" d="M221.915 25.0382C223.396 25.8932 223.905 27.7902 223.049 29.2712C222.194 30.7532 220.297 31.2612 218.816 30.4062C217.334 29.5502 216.826 27.6532 217.681 26.1722C218.536 24.6912 220.433 24.1822 221.915 25.0382Z" fill="white"/>
<path fill-rule="evenodd" clip-rule="evenodd" d="M79.6937 25.0382C78.2127 25.8932 77.7047 27.7902 78.5597 29.2712C79.4147 30.7532 81.3117 31.2612 82.7937 30.4062C84.2747 29.5502 84.7827 27.6532 83.9277 26.1722C83.0727 24.6912 81.1757 24.1822 79.6937 25.0382Z" fill="white"/>
<path fill-rule="evenodd" clip-rule="evenodd" d="M250.285 48.9009C250.842 49.4569 250.842 50.3609 250.285 50.9169C249.729 51.4729 248.826 51.4729 248.269 50.9169C247.713 50.3609 247.713 49.4569 248.269 48.9009C248.826 48.3449 249.729 48.3449 250.285 48.9009Z" fill="white"/>
<path fill-rule="evenodd" clip-rule="evenodd" d="M51.3201 48.9009C50.7631 49.4569 50.7631 50.3609 51.3201 50.9169C51.8761 51.4729 52.7791 51.4729 53.3361 50.9169C53.8921 50.3609 53.8921 49.4569 53.3361 48.9009C52.7791 48.3449 51.8761 48.3449 51.3201 48.9009Z" fill="white"/>
<path fill-rule="evenodd" clip-rule="evenodd" d="M274.151 77.2752C275.006 78.7562 274.498 80.6532 273.016 81.5082C271.535 82.3642 269.638 81.8552 268.783 80.3742C267.927 78.8932 268.436 76.9952 269.917 76.1402C271.399 75.2852 273.296 75.7932 274.151 77.2752Z" fill="white"/>
<path fill-rule="evenodd" clip-rule="evenodd" d="M27.4542 77.2752C26.5992 78.7562 27.1072 80.6532 28.5892 81.5082C30.0702 82.3642 31.9672 81.8552 32.8222 80.3742C33.6782 78.8932 33.1692 76.9952 31.6882 76.1402C30.2072 75.2852 28.3092 75.7932 27.4542 77.2752Z" fill="white"/>
<path fill-rule="evenodd" clip-rule="evenodd" d="M280.86 94.658C281.161 95.385 280.816 96.219 280.089 96.52C279.362 96.821 278.527 96.476 278.226 95.749C277.925 95.022 278.271 94.188 278.998 93.886C279.724 93.585 280.559 93.931 280.86 94.658Z" fill="white"/>
<path fill-rule="evenodd" clip-rule="evenodd" d="M20.7454 94.658C20.4444 95.385 20.7904 96.219 21.5164 96.52C22.2434 96.821 23.0784 96.476 23.3794 95.749C23.6804 95.022 23.3344 94.188 22.6074 93.886C21.8814 93.585 21.0464 93.931 20.7454 94.658Z" fill="white"/>
<path fill-rule="evenodd" clip-rule="evenodd" d="M286.79 112.128C286.994 112.888 286.542 113.67 285.782 113.874C285.022 114.077 284.24 113.626 284.037 112.866C283.833 112.106 284.285 111.323 285.045 111.12C285.804 110.916 286.587 111.368 286.79 112.128Z" fill="white"/>
<path fill-rule="evenodd" clip-rule="evenodd" d="M14.8146 112.128C14.6106 112.888 15.0626 113.67 15.8226 113.874C16.5826 114.077 17.3646 113.626 17.5686 112.866C17.7716 112.106 17.3206 111.323 16.5606 111.12C15.8006 110.916 15.0176 111.368 14.8146 112.128Z" fill="white"/>
<path fill-rule="evenodd" clip-rule="evenodd" d="M290.39 130.222C290.492 131.002 289.942 131.719 289.162 131.822C288.382 131.924 287.666 131.374 287.563 130.594C287.46 129.814 288.01 129.098 288.79 128.995C289.57 128.892 290.287 129.442 290.39 130.222Z" fill="white"/>
<path fill-rule="evenodd" clip-rule="evenodd" d="M11.2155 130.222C11.1125 131.002 11.6625 131.719 12.4425 131.822C13.2225 131.924 13.9385 131.374 14.0415 130.594C14.1445 129.814 13.5945 129.098 12.8145 128.995C12.0345 128.892 11.3175 129.442 11.2155 130.222Z" fill="white"/>
<path fill-rule="evenodd" clip-rule="evenodd" d="M293.269 148.632C293.269 150.342 291.88 151.731 290.17 151.731C288.459 151.731 287.07 150.342 287.07 148.632C287.07 146.921 288.459 145.532 290.17 145.532C291.88 145.532 293.269 146.921 293.269 148.632Z" fill="white"/>
<path fill-rule="evenodd" clip-rule="evenodd" d="M8.33594 148.632C8.33594 150.342 9.72494 151.731 11.4349 151.731C13.1459 151.731 14.5349 150.342 14.5349 148.632C14.5349 146.921 13.1459 145.532 11.4349 145.532C9.72494 145.532 8.33594 146.921 8.33594 148.632Z" fill="white"/>
<defs>
<linearGradient id="paint0_linear_621_27" x1="150.543" y1="10.5438" x2="150.543" y2="125.741" gradientUnits="userSpaceOnUse">
<stop stop-color="#652B2B"/>
<stop offset="1" stop-color="#350B0B"/>
</linearGradient>
</defs>
</svg>
