<svg width="300" height="152" viewBox="0 0 300 152" fill="none" xmlns="http://www.w3.org/2000/svg">
<path fill-rule="evenodd" clip-rule="evenodd" d="M300 150.031C300 67.1882 232.843 0.03125 150 0.03125C67.157 0.03125 0 67.1882 0 150.031H300Z" fill="url(#paint0_linear_1114_947)"/>
<path fill-rule="evenodd" clip-rule="evenodd" d="M3.39091 118.168C5.18591 118.206 6.81091 118.181 8.21091 118.043C14.9789 117.402 32.2789 120.071 34.5339 121.165C36.7909 122.285 44.3019 125.168 48.4299 125.407C52.5799 125.622 63.8589 126.075 69.8589 127.836C75.8809 129.625 85.2869 131.172 88.8499 131.626C91.1519 131.919 98.5719 134.161 105.024 135.469C97.9189 135.976 90.0459 135.976 85.7609 135.976H42.3169C36.2409 135.976 15.1049 140.738 0.128906 143.759C0.487906 135.015 1.59691 126.464 3.39091 118.168Z" fill="#403233"/>
<path fill-rule="evenodd" clip-rule="evenodd" d="M0.13 143.756C15.107 140.735 36.24 135.973 42.315 135.973H85.759C90.044 135.973 97.917 135.973 105.023 135.466C108.676 135.227 112.127 134.852 114.788 134.292C122.683 132.611 143.548 130.957 150 129.622C156.451 128.287 182.458 127.274 190.917 127.274C199.376 127.274 209.819 123.964 213.473 122.951C217.128 121.936 235.759 121.296 244.489 123.271C253.218 125.299 259.984 122.283 265.353 121.616C270.722 120.949 279.744 120.949 283.962 120.042C286.801 119.431 292.205 120.815 297.326 121.68C299.082 130.86 300.001 140.337 300.001 150.03H130.295C90.331 148.617 47.264 146.601 0.125 143.871C0.127 143.832 0.128 143.794 0.13 143.756Z" fill="#5E4B4B"/>
<path fill-rule="evenodd" clip-rule="evenodd" d="M0.278 140.832H299.723C299.907 143.875 300 146.943 300 150.032H0C0 146.943 0.094 143.875 0.278 140.832Z" fill="#403233"/>
<path fill-rule="evenodd" clip-rule="evenodd" d="M0.111375 144.217C15.3424 143.123 36.8534 141.397 43.0354 141.397L84.3444 144.355C88.7024 144.355 100.039 144.538 107.265 144.355C110.98 144.268 114.027 146.249 116.733 146.046C124.761 145.437 145.979 144.838 152.54 144.355C159.1 143.872 185.547 143.504 194.148 143.504C202.75 143.504 213.37 142.306 217.086 141.939C220.802 141.572 239.748 141.34 248.625 142.055C257.502 142.789 264.383 141.698 269.843 141.456C275.302 141.214 284.477 141.214 288.766 140.886C290.742 140.735 295.128 140.922 299.742 141.155C299.913 144.092 300 147.051 300 150.031H124.291C85.9024 148.518 44.7634 146.538 0.109375 144.269C0.109375 144.252 0.110375 144.234 0.111375 144.217Z" fill="#2C2222"/>
<path d="M69.3413 92.8643L68.4793 104.438L60.3633 112.975L62.0153 90.7293L65.1033 87.5283L69.3413 92.8643ZM62.8053 81.0433L64.4573 58.7983L71.2803 67.3353L70.4183 78.9093L65.3193 84.3273L62.8053 81.0433ZM61.6563 114.616L69.7723 106.079H83.8503L87.2973 110.348L83.2033 114.616H61.6563ZM94.6233 81.0433L91.5353 84.3273L87.2973 78.9093L88.1593 67.3353L92.2533 63.0663L95.6293 67.3353L94.6233 81.0433ZM91.0323 61.4253L86.9383 65.7753H72.8603L66.0373 57.1562H87.5853L91.0323 61.4253ZM92.8283 104.438L88.7343 108.706L85.3583 104.438L86.2203 92.8643L91.3193 87.5283L93.8333 90.7293L92.8283 104.438Z" fill="#C76060"/>
<path d="M112.508 98.1992L113.01 92.1253H118.397L131.541 108.46L131.038 114.616H125.652L112.508 98.1992ZM109.563 92.8643L108.557 106.079L100.441 114.616L102.237 90.7293L105.325 87.5283L109.563 92.8643ZM103.027 81.0433L104.679 58.7983L111.502 67.3353L110.64 78.9093L105.541 84.3273L103.027 81.0433ZM126.873 81.6183L130.32 85.8863L126.226 90.1553H110.281L106.905 85.8863L110.928 81.6183H126.873ZM134.845 81.0433L131.757 84.3273L127.519 78.9093L128.381 67.3353L132.475 63.0663L135.851 67.3353L134.845 81.0433ZM131.254 61.4253L127.16 65.7753H113.082L106.259 57.1562H127.806L131.254 61.4253Z" fill="#C76060"/>
<path d="M175.499 57.1562L167.383 65.7753H153.305L146.482 57.1562H175.499ZM149.786 92.8643L148.78 106.079L140.664 114.616L142.46 90.7293L145.548 87.5283L149.786 92.8643ZM143.25 81.0433L144.902 58.7983L151.725 67.3353L150.863 78.9093L145.763 84.3273L143.25 81.0433ZM174.278 90.7293L172.482 114.616L165.659 106.079L166.664 92.8643L171.764 87.5283L174.278 90.7293ZM167.742 78.9093L168.604 67.3353L176.72 58.7983L175.068 81.0433L171.979 84.3273L167.742 78.9093ZM167.095 81.6183L170.543 85.8863L166.449 90.1553H150.504L147.128 85.8863L151.15 81.6183H167.095Z" fill="#C76060"/>
<path d="M193.525 90.7293L191.729 114.616L184.906 106.079L185.911 92.8643L191.011 87.5283L193.525 90.7293ZM186.989 78.9093L187.994 65.7753L196.111 57.1562L194.315 81.0433L191.226 84.3273L186.989 78.9093Z" fill="#C76060"/>
<path d="M212.559 92.8643L211.553 106.079L203.438 114.616L205.232 90.7293L208.322 87.5283L212.559 92.8643ZM206.023 81.0433L207.818 57.1562L214.642 65.7753L213.637 78.9093L208.536 84.3273L206.023 81.0433ZM237.051 90.7293L235.256 114.616L228.433 106.079L229.438 92.8643L234.538 87.5283L237.051 90.7293ZM230.516 78.9093L231.521 65.7753L239.637 57.1562L237.842 81.0433L234.753 84.3273L230.516 78.9093ZM209.829 57.1562H220.747L229.581 68.8943L229.079 75.0513H223.764L209.829 57.1562Z" fill="#C76060"/>
<path d="M150.013 12.1472C151.725 12.1472 153.112 10.7597 153.112 9.04822C153.112 7.33669 151.725 5.94922 150.013 5.94922C148.302 5.94922 146.914 7.33669 146.914 9.04822C146.914 10.7597 148.302 12.1472 150.013 12.1472Z" fill="white"/>
<path fill-rule="evenodd" clip-rule="evenodd" d="M168.424 8.82881C169.204 8.93181 169.754 9.64781 169.651 10.4278C169.549 11.2078 168.832 11.7578 168.052 11.6548C167.272 11.5528 166.722 10.8358 166.825 10.0558C166.928 9.27581 167.644 8.72581 168.424 8.82881Z" fill="white"/>
<path fill-rule="evenodd" clip-rule="evenodd" d="M132.099 8.82881C131.319 8.93181 130.769 9.64781 130.872 10.4278C130.974 11.2078 131.691 11.7578 132.471 11.6548C133.251 11.5528 133.801 10.8358 133.698 10.0558C133.596 9.27581 132.879 8.72581 132.099 8.82881Z" fill="white"/>
<path fill-rule="evenodd" clip-rule="evenodd" d="M203.987 18.3586C204.713 18.6596 205.059 19.4946 204.758 20.2216C204.457 20.9486 203.622 21.2936 202.896 20.9926C202.169 20.6916 201.823 19.8576 202.124 19.1306C202.425 18.4036 203.26 18.0576 203.987 18.3586Z" fill="white"/>
<path fill-rule="evenodd" clip-rule="evenodd" d="M96.533 18.3586C95.806 18.6596 95.46 19.4946 95.761 20.2216C96.062 20.9486 96.897 21.2936 97.624 20.9926C98.35 20.6916 98.696 19.8576 98.395 19.1306C98.094 18.4036 97.259 18.0576 96.533 18.3586Z" fill="white"/>
<path fill-rule="evenodd" clip-rule="evenodd" d="M235.872 36.7671C236.496 37.2461 236.614 38.1411 236.135 38.7651C235.656 39.3901 234.76 39.5081 234.136 39.0291C233.512 38.5501 233.394 37.6541 233.873 37.0301C234.352 36.4061 235.248 36.2881 235.872 36.7671Z" fill="white"/>
<path fill-rule="evenodd" clip-rule="evenodd" d="M64.6472 36.7671C64.0232 37.2461 63.9052 38.1411 64.3842 38.7651C64.8632 39.3901 65.7592 39.5081 66.3832 39.0291C67.0072 38.5501 67.1252 37.6541 66.6462 37.0301C66.1672 36.4061 65.2722 36.2881 64.6472 36.7671Z" fill="white"/>
<path fill-rule="evenodd" clip-rule="evenodd" d="M261.908 62.8035C262.387 63.4275 262.269 64.3225 261.645 64.8015C261.02 65.2805 260.125 65.1625 259.646 64.5385C259.167 63.9145 259.285 63.0195 259.909 62.5405C260.533 62.0615 261.429 62.1795 261.908 62.8035Z" fill="white"/>
<path fill-rule="evenodd" clip-rule="evenodd" d="M38.6111 62.8035C38.1321 63.4275 38.2491 64.3225 38.8741 64.8015C39.4981 65.2805 40.3931 65.1625 40.8721 64.5385C41.3511 63.9145 41.2331 63.0195 40.6091 62.5405C39.9851 62.0615 39.0891 62.1795 38.6111 62.8035Z" fill="white"/>
<path fill-rule="evenodd" clip-rule="evenodd" d="M186.518 12.4279C187.278 12.6319 187.729 13.4139 187.526 14.1739C187.322 14.9339 186.54 15.3859 185.78 15.1819C185.02 14.9779 184.568 14.1959 184.772 13.4359C184.975 12.6759 185.758 12.2239 186.518 12.4279Z" fill="white"/>
<path fill-rule="evenodd" clip-rule="evenodd" d="M114.001 12.4279C113.242 12.6319 112.79 13.4139 112.994 14.1739C113.197 14.9339 113.979 15.3859 114.739 15.1819C115.499 14.9779 115.951 14.1959 115.747 13.4359C115.544 12.6759 114.761 12.2239 114.001 12.4279Z" fill="white"/>
<path fill-rule="evenodd" clip-rule="evenodd" d="M221.372 25.068C222.853 25.923 223.362 27.82 222.506 29.301C221.651 30.783 219.754 31.291 218.273 30.436C216.791 29.58 216.283 27.683 217.138 26.202C217.993 24.721 219.89 24.212 221.372 25.068Z" fill="white"/>
<path fill-rule="evenodd" clip-rule="evenodd" d="M79.1507 25.068C77.6697 25.923 77.1617 27.82 78.0167 29.301C78.8717 30.783 80.7687 31.291 82.2507 30.436C83.7317 29.58 84.2397 27.683 83.3847 26.202C82.5297 24.721 80.6327 24.212 79.1507 25.068Z" fill="white"/>
<path fill-rule="evenodd" clip-rule="evenodd" d="M249.742 48.9326C250.299 49.4886 250.299 50.3926 249.742 50.9486C249.186 51.5046 248.283 51.5046 247.726 50.9486C247.17 50.3926 247.17 49.4886 247.726 48.9326C248.283 48.3766 249.186 48.3766 249.742 48.9326Z" fill="white"/>
<path fill-rule="evenodd" clip-rule="evenodd" d="M50.7771 48.9326C50.2201 49.4886 50.2201 50.3926 50.7771 50.9486C51.3331 51.5046 52.2361 51.5046 52.7931 50.9486C53.3491 50.3926 53.3491 49.4886 52.7931 48.9326C52.2361 48.3766 51.3331 48.3766 50.7771 48.9326Z" fill="white"/>
<path fill-rule="evenodd" clip-rule="evenodd" d="M273.608 77.308C274.463 78.789 273.955 80.686 272.473 81.541C270.992 82.397 269.095 81.888 268.24 80.407C267.384 78.926 267.893 77.028 269.374 76.173C270.856 75.318 272.753 75.826 273.608 77.308Z" fill="white"/>
<path fill-rule="evenodd" clip-rule="evenodd" d="M26.9112 77.308C26.0562 78.789 26.5642 80.686 28.0462 81.541C29.5272 82.397 31.4242 81.888 32.2792 80.407C33.1352 78.926 32.6262 77.028 31.1452 76.173C29.6642 75.318 27.7662 75.826 26.9112 77.308Z" fill="white"/>
<path fill-rule="evenodd" clip-rule="evenodd" d="M280.317 94.6892C280.618 95.4162 280.273 96.2502 279.546 96.5512C278.819 96.8522 277.984 96.5072 277.683 95.7802C277.382 95.0532 277.728 94.2192 278.455 93.9172C279.181 93.6162 280.016 93.9622 280.317 94.6892Z" fill="white"/>
<path fill-rule="evenodd" clip-rule="evenodd" d="M20.2024 94.6892C19.9014 95.4162 20.2474 96.2502 20.9734 96.5512C21.7004 96.8522 22.5354 96.5072 22.8364 95.7802C23.1374 95.0532 22.7914 94.2192 22.0644 93.9172C21.3384 93.6162 20.5034 93.9622 20.2024 94.6892Z" fill="white"/>
<path fill-rule="evenodd" clip-rule="evenodd" d="M286.247 112.159C286.451 112.919 285.999 113.701 285.239 113.905C284.479 114.108 283.697 113.657 283.494 112.897C283.29 112.137 283.742 111.354 284.502 111.151C285.261 110.947 286.044 111.399 286.247 112.159Z" fill="white"/>
<path fill-rule="evenodd" clip-rule="evenodd" d="M14.2716 112.159C14.0676 112.919 14.5196 113.701 15.2796 113.905C16.0396 114.108 16.8216 113.657 17.0256 112.897C17.2286 112.137 16.7776 111.354 16.0176 111.151C15.2576 110.947 14.4746 111.399 14.2716 112.159Z" fill="white"/>
<path fill-rule="evenodd" clip-rule="evenodd" d="M289.847 130.255C289.949 131.035 289.399 131.752 288.619 131.855C287.839 131.957 287.123 131.407 287.02 130.627C286.917 129.847 287.467 129.131 288.247 129.028C289.027 128.925 289.744 129.475 289.847 130.255Z" fill="white"/>
<path fill-rule="evenodd" clip-rule="evenodd" d="M10.6726 130.255C10.5696 131.035 11.1196 131.752 11.8996 131.855C12.6796 131.957 13.3956 131.407 13.4986 130.627C13.6016 129.847 13.0516 129.131 12.2716 129.028C11.4916 128.925 10.7746 129.475 10.6726 130.255Z" fill="white"/>
<path fill-rule="evenodd" clip-rule="evenodd" d="M292.726 148.662C292.726 150.372 291.337 151.761 289.627 151.761C287.916 151.761 286.527 150.372 286.527 148.662C286.527 146.951 287.916 145.562 289.627 145.562C291.337 145.562 292.726 146.951 292.726 148.662Z" fill="white"/>
<path fill-rule="evenodd" clip-rule="evenodd" d="M7.79297 148.662C7.79297 150.372 9.18197 151.761 10.892 151.761C12.603 151.761 13.992 150.372 13.992 148.662C13.992 146.951 12.603 145.562 10.892 145.562C9.18197 145.562 7.79297 146.951 7.79297 148.662Z" fill="white"/>
<defs>
<linearGradient id="paint0_linear_1114_947" x1="150" y1="10.575" x2="150" y2="125.772" gradientUnits="userSpaceOnUse">
<stop stop-color="#652B2B"/>
<stop offset="1" stop-color="#350B0B"/>
</linearGradient>
</defs>
</svg>
