<svg width="304" height="155" viewBox="0 0 304 155" fill="none" xmlns="http://www.w3.org/2000/svg">
<path fill-rule="evenodd" clip-rule="evenodd" d="M302 152C302 69.157 234.843 2 152 2C69.157 2 2 69.157 2 152H302Z" fill="url(#paint0_linear_678_3462)"/>
<path fill-rule="evenodd" clip-rule="evenodd" d="M5.39091 120.138C7.18591 120.176 8.81091 120.151 10.2109 120.013C16.9789 119.372 34.2789 122.041 36.5339 123.135C38.7909 124.255 46.3019 127.138 50.4299 127.377C54.5799 127.592 65.8589 128.045 71.8589 129.806C77.8809 131.595 87.2869 133.142 90.8499 133.596C93.1519 133.889 100.572 136.131 107.024 137.439C99.9189 137.946 92.0459 137.946 87.7609 137.946H44.3169C38.2409 137.946 17.1049 142.708 2.12891 145.729C2.48791 136.985 3.59691 128.434 5.39091 120.138Z" fill="#403233"/>
<path fill-rule="evenodd" clip-rule="evenodd" d="M2.13 145.726C17.107 142.705 38.24 137.943 44.315 137.943H87.759C92.044 137.943 99.917 137.943 107.023 137.436C110.676 137.197 114.127 136.822 116.788 136.262C124.683 134.581 145.548 132.927 152 131.592C158.451 130.257 184.458 129.244 192.917 129.244C201.376 129.244 211.819 125.934 215.473 124.921C219.128 123.906 237.759 123.266 246.489 125.241C255.218 127.269 261.984 124.253 267.353 123.586C272.722 122.919 281.744 122.919 285.962 122.012C288.801 121.401 294.205 122.785 299.326 123.65C301.082 132.83 302.001 142.307 302.001 152H132.295C92.331 150.587 49.264 148.571 2.125 145.841C2.127 145.802 2.128 145.764 2.13 145.726Z" fill="#5E4B4B"/>
<path fill-rule="evenodd" clip-rule="evenodd" d="M2.278 142.8H301.723C301.907 145.843 302 148.911 302 152H2C2 148.911 2.094 145.843 2.278 142.8Z" fill="#403233"/>
<path fill-rule="evenodd" clip-rule="evenodd" d="M2.11137 146.186C17.3424 145.092 38.8534 143.366 45.0354 143.366L86.3444 146.324C90.7024 146.324 102.039 146.507 109.265 146.324C112.98 146.237 116.027 148.218 118.733 148.015C126.761 147.406 147.979 146.807 154.54 146.324C161.1 145.841 187.547 145.473 196.148 145.473C204.75 145.473 215.37 144.275 219.086 143.908C222.802 143.541 241.748 143.309 250.625 144.024C259.502 144.758 266.383 143.667 271.843 143.425C277.302 143.183 286.477 143.183 290.766 142.855C292.742 142.704 297.128 142.891 301.742 143.124C301.913 146.061 302 149.02 302 152H126.291C87.9024 150.487 46.7634 148.507 2.10938 146.238C2.10938 146.221 2.11037 146.203 2.11137 146.186Z" fill="#2C2222"/>
<path d="M108.862 92.2961C108.862 109.211 104.174 117.669 94.7993 117.669H84.2123C83.4753 117.669 83.1063 117.157 83.1063 116.134L83.0273 45.1621C83.0273 44.2591 83.3433 43.7781 83.9753 43.7181C85.7133 43.5971 89.6643 43.5671 95.8263 43.6271C100.514 43.5671 103.99 46.1861 106.255 51.4831C107.993 55.6371 108.862 61.0541 108.862 67.7361V92.2961ZM98.7493 88.8651V66.2911C98.7493 63.7631 98.1573 61.3701 96.9723 59.1131C95.7873 56.8561 94.5093 55.7271 93.1403 55.7271C92.7183 55.7271 92.5083 56.1481 92.5083 56.9911C92.5083 57.2321 92.5343 63.2811 92.5873 75.1401V103.673C92.5873 104.576 92.7713 105.028 93.1403 105.028C94.4043 105.088 95.6553 103.447 96.8933 100.107C98.1303 96.7661 98.7493 93.0181 98.7493 88.8651Z" fill="#F87171"/>
<path d="M138.57 115.773C138.833 117.097 138.57 117.789 137.78 117.849C136.779 117.97 133.698 117.94 128.536 117.759C127.957 117.759 127.614 116.947 127.509 115.321C127.246 111.228 127.114 106.683 127.114 101.687C127.114 92.5968 125.718 88.0518 122.927 88.0518C122.558 87.9318 122.242 87.9318 121.978 88.0518C121.61 88.2328 121.425 88.8948 121.425 90.0388C121.425 99.4898 121.399 107.797 121.346 114.96C121.346 116.525 121.057 117.338 120.477 117.398C117.633 117.759 114.92 117.819 112.34 117.579C111.708 117.518 111.391 116.646 111.391 114.96L111.549 45.4328C111.549 44.3498 112.024 43.8078 112.972 43.8078C115.869 43.8078 119.819 43.7778 124.823 43.7178C128.088 43.7178 130.854 44.4998 133.118 46.0648C135.594 47.8108 136.832 50.1288 136.832 53.0178L136.753 70.8058C136.753 73.7558 135.989 76.2838 134.462 78.3908C133.408 79.8958 132.223 80.9188 130.906 81.4608C130.485 81.6408 130.274 81.8218 130.274 82.0028C130.274 82.1228 130.485 82.2728 130.906 82.4538C131.907 82.8148 132.96 83.5678 134.067 84.7108C136.542 87.1788 137.78 93.1688 137.78 102.68C137.78 108.76 138.043 113.124 138.57 115.773ZM127.193 60.6928C127.193 56.7198 126.034 54.8238 123.717 55.0038C123.19 55.0648 122.795 55.0948 122.531 55.0948C122.057 55.0948 121.82 55.6058 121.82 56.6298V72.5218C121.82 74.2068 122.189 75.0798 122.927 75.1398C123.19 75.1998 123.506 75.1998 123.875 75.1398C125.033 75.1398 125.823 74.4778 126.245 73.1538C126.877 71.2268 127.193 67.0738 127.193 60.6928Z" fill="#F87171"/>
<path d="M173.728 117.308C173.781 117.669 173.544 117.849 173.017 117.849H168.909C166.907 117.789 165.169 117.759 163.694 117.759C163.22 117.759 162.614 115.803 161.877 111.89C161.35 108.94 160.955 106.412 160.692 104.305C160.639 103.884 160.35 103.673 159.823 103.673H156.742C156.373 103.673 156.136 103.884 156.03 104.305C155.556 107.917 154.924 112.101 154.134 116.856C153.924 117.398 153.687 117.669 153.423 117.669H143.705C142.863 117.669 142.52 117.308 142.678 116.585C144.469 104.305 146.26 91.9948 148.051 79.6548C151.58 55.9378 153.687 44.0488 154.371 43.9888C157.216 43.8078 160.06 43.8078 162.904 43.9888C163.536 44.0488 165.485 55.9678 168.751 79.7448C170.436 92.2658 172.095 104.787 173.728 117.308ZM159.981 92.2958C159.191 85.4338 158.69 82.0028 158.48 82.0028C158.216 82.0028 157.9 83.4768 157.532 86.4268C157.321 88.3528 157.11 90.3098 156.9 92.2958C156.847 92.4768 157.097 92.6118 157.65 92.7018C158.203 92.7928 158.717 92.8078 159.191 92.7478C159.717 92.6868 159.981 92.5368 159.981 92.2958Z" fill="#F87171"/>
<path d="M188.187 115.141C188.187 116.585 187.766 117.428 186.923 117.669C185.659 118.09 182.894 118.09 178.628 117.669C177.574 117.548 177.047 116.585 177.047 114.779C177.153 94.4329 177.179 71.7989 177.126 46.8779C177.126 46.2759 177.179 45.7339 177.284 45.2529C177.442 44.5299 177.732 44.1689 178.153 44.1689C180.418 44.1689 183.289 44.2289 186.765 44.3499C187.661 44.4699 188.135 45.3129 188.187 46.8779V115.141Z" fill="#F87171"/>
<path d="M220.973 46.1562C220.921 43.0252 220.789 66.0202 220.578 115.141C220.578 116.706 220.157 117.579 219.314 117.759C216.786 118.241 214.126 118.241 211.334 117.759C210.386 117.579 209.781 116.947 209.517 115.863C207.779 106.834 205.751 96.6002 203.434 85.1632C203.223 84.2602 202.907 83.8082 202.486 83.8082C202.17 83.8082 202.012 84.4402 202.012 85.7052V98.5262C201.959 105.75 201.933 111.378 201.933 115.412C201.933 116.615 201.274 117.368 199.957 117.669C199.062 117.91 197.877 118 196.402 117.94C194.506 117.88 193.426 117.849 193.163 117.849C192.109 117.91 191.556 117.217 191.504 115.773C191.293 107.345 191.24 94.6442 191.346 77.6682C191.451 61.2352 191.635 50.7912 191.899 46.3362C192.004 44.8912 192.346 44.1392 192.926 44.0792C194.19 44.0192 195.902 44.0192 198.061 44.0792C200.695 44.1992 202.117 44.2592 202.328 44.2592C203.065 44.2592 203.539 44.8912 203.75 46.1562C206.383 60.7232 208.227 70.1142 209.28 74.3282C209.702 75.9532 210.044 76.7652 210.307 76.7652C210.676 76.7652 210.808 75.8322 210.702 73.9662C210.492 69.0902 210.386 59.8202 210.386 46.1562C210.386 44.7712 210.913 44.1092 211.967 44.1692H219.314C220.42 44.2292 220.973 44.8912 220.973 46.1562Z" fill="#F87171"/>
<path d="M152.013 14.116C153.725 14.116 155.112 12.7285 155.112 11.017C155.112 9.30544 153.725 7.91797 152.013 7.91797C150.302 7.91797 148.914 9.30544 148.914 11.017C148.914 12.7285 150.302 14.116 152.013 14.116Z" fill="white"/>
<path fill-rule="evenodd" clip-rule="evenodd" d="M170.424 10.798C171.204 10.901 171.754 11.617 171.651 12.397C171.549 13.177 170.832 13.727 170.052 13.624C169.272 13.522 168.722 12.8051 168.825 12.0251C168.928 11.2451 169.644 10.695 170.424 10.798Z" fill="white"/>
<path fill-rule="evenodd" clip-rule="evenodd" d="M134.099 10.798C133.319 10.901 132.769 11.617 132.872 12.397C132.974 13.177 133.691 13.727 134.471 13.624C135.251 13.522 135.801 12.8051 135.698 12.0251C135.596 11.2451 134.879 10.695 134.099 10.798Z" fill="white"/>
<path fill-rule="evenodd" clip-rule="evenodd" d="M205.987 20.3269C206.713 20.6279 207.059 21.4629 206.758 22.1899C206.457 22.9169 205.622 23.2619 204.896 22.9609C204.169 22.6599 203.823 21.8259 204.124 21.0989C204.425 20.3719 205.26 20.0259 205.987 20.3269Z" fill="white"/>
<path fill-rule="evenodd" clip-rule="evenodd" d="M98.533 20.3269C97.806 20.6279 97.46 21.4629 97.761 22.1899C98.062 22.9169 98.897 23.2619 99.624 22.9609C100.35 22.6599 100.696 21.8259 100.395 21.0989C100.094 20.3719 99.259 20.0259 98.533 20.3269Z" fill="white"/>
<path fill-rule="evenodd" clip-rule="evenodd" d="M237.872 38.7368C238.496 39.2158 238.614 40.1108 238.135 40.7348C237.656 41.3598 236.76 41.4778 236.136 40.9988C235.512 40.5198 235.394 39.6238 235.873 38.9998C236.352 38.3758 237.248 38.2578 237.872 38.7368Z" fill="white"/>
<path fill-rule="evenodd" clip-rule="evenodd" d="M66.6472 38.7368C66.0232 39.2158 65.9052 40.1108 66.3842 40.7348C66.8632 41.3598 67.7592 41.4778 68.3832 40.9988C69.0072 40.5198 69.1252 39.6238 68.6462 38.9998C68.1672 38.3758 67.2722 38.2578 66.6472 38.7368Z" fill="white"/>
<path fill-rule="evenodd" clip-rule="evenodd" d="M263.908 64.7722C264.387 65.3962 264.269 66.2913 263.645 66.7703C263.02 67.2493 262.125 67.1312 261.646 66.5072C261.167 65.8832 261.285 64.9882 261.909 64.5092C262.533 64.0302 263.429 64.1482 263.908 64.7722Z" fill="white"/>
<path fill-rule="evenodd" clip-rule="evenodd" d="M40.6111 64.7722C40.1321 65.3962 40.2491 66.2913 40.8741 66.7703C41.4981 67.2493 42.3931 67.1312 42.8721 66.5072C43.3511 65.8832 43.2331 64.9882 42.6091 64.5092C41.9851 64.0302 41.0891 64.1482 40.6111 64.7722Z" fill="white"/>
<path fill-rule="evenodd" clip-rule="evenodd" d="M188.518 14.3971C189.278 14.6011 189.729 15.3831 189.526 16.1431C189.322 16.9031 188.54 17.3551 187.78 17.1511C187.02 16.9471 186.568 16.1651 186.772 15.4051C186.975 14.6451 187.758 14.1931 188.518 14.3971Z" fill="white"/>
<path fill-rule="evenodd" clip-rule="evenodd" d="M116.001 14.3971C115.242 14.6011 114.79 15.3831 114.994 16.1431C115.197 16.9031 115.979 17.3551 116.739 17.1511C117.499 16.9471 117.951 16.1651 117.747 15.4051C117.544 14.6451 116.761 14.1931 116.001 14.3971Z" fill="white"/>
<path fill-rule="evenodd" clip-rule="evenodd" d="M223.372 27.0382C224.853 27.8932 225.362 29.7902 224.506 31.2712C223.651 32.7532 221.754 33.2612 220.273 32.4062C218.791 31.5502 218.283 29.6532 219.138 28.1722C219.993 26.6912 221.89 26.1822 223.372 27.0382Z" fill="white"/>
<path fill-rule="evenodd" clip-rule="evenodd" d="M81.1507 27.0382C79.6697 27.8932 79.1617 29.7902 80.0167 31.2712C80.8717 32.7532 82.7687 33.2612 84.2507 32.4062C85.7317 31.5502 86.2397 29.6532 85.3847 28.1722C84.5297 26.6912 82.6327 26.1822 81.1507 27.0382Z" fill="white"/>
<path fill-rule="evenodd" clip-rule="evenodd" d="M251.742 50.9009C252.299 51.4569 252.299 52.3609 251.742 52.9169C251.186 53.4729 250.283 53.4729 249.726 52.9169C249.17 52.3609 249.17 51.4569 249.726 50.9009C250.283 50.3449 251.186 50.3449 251.742 50.9009Z" fill="white"/>
<path fill-rule="evenodd" clip-rule="evenodd" d="M52.7771 50.9009C52.2201 51.4569 52.2201 52.3609 52.7771 52.9169C53.3331 53.4729 54.2361 53.4729 54.7931 52.9169C55.3491 52.3609 55.3491 51.4569 54.7931 50.9009C54.2361 50.3449 53.3331 50.3449 52.7771 50.9009Z" fill="white"/>
<path fill-rule="evenodd" clip-rule="evenodd" d="M275.608 79.2748C276.463 80.7558 275.955 82.6528 274.473 83.5078C272.992 84.3638 271.095 83.8548 270.24 82.3738C269.384 80.8928 269.893 78.9947 271.374 78.1397C272.856 77.2847 274.753 77.7928 275.608 79.2748Z" fill="white"/>
<path fill-rule="evenodd" clip-rule="evenodd" d="M28.9112 79.2748C28.0562 80.7558 28.5642 82.6528 30.0462 83.5078C31.5272 84.3638 33.4242 83.8548 34.2792 82.3738C35.1352 80.8928 34.6262 78.9947 33.1452 78.1397C31.6642 77.2847 29.7662 77.7928 28.9112 79.2748Z" fill="white"/>
<path fill-rule="evenodd" clip-rule="evenodd" d="M282.317 96.658C282.618 97.385 282.273 98.219 281.546 98.52C280.819 98.821 279.984 98.476 279.683 97.749C279.382 97.022 279.728 96.188 280.455 95.886C281.181 95.585 282.016 95.931 282.317 96.658Z" fill="white"/>
<path fill-rule="evenodd" clip-rule="evenodd" d="M22.2024 96.658C21.9014 97.385 22.2474 98.219 22.9734 98.52C23.7004 98.821 24.5354 98.476 24.8364 97.749C25.1374 97.022 24.7914 96.188 24.0644 95.886C23.3384 95.585 22.5034 95.931 22.2024 96.658Z" fill="white"/>
<path fill-rule="evenodd" clip-rule="evenodd" d="M288.247 114.128C288.451 114.888 287.999 115.67 287.239 115.874C286.479 116.077 285.697 115.626 285.494 114.866C285.29 114.106 285.742 113.323 286.502 113.12C287.261 112.916 288.044 113.368 288.247 114.128Z" fill="white"/>
<path fill-rule="evenodd" clip-rule="evenodd" d="M16.2716 114.128C16.0676 114.888 16.5196 115.67 17.2796 115.874C18.0396 116.077 18.8216 115.626 19.0256 114.866C19.2286 114.106 18.7776 113.323 18.0176 113.12C17.2576 112.916 16.4746 113.368 16.2716 114.128Z" fill="white"/>
<path fill-rule="evenodd" clip-rule="evenodd" d="M291.847 132.222C291.949 133.002 291.399 133.719 290.619 133.822C289.839 133.924 289.123 133.374 289.02 132.594C288.917 131.814 289.467 131.098 290.247 130.995C291.027 130.892 291.744 131.442 291.847 132.222Z" fill="white"/>
<path fill-rule="evenodd" clip-rule="evenodd" d="M12.6726 132.222C12.5696 133.002 13.1196 133.719 13.8996 133.822C14.6796 133.924 15.3956 133.374 15.4986 132.594C15.6016 131.814 15.0516 131.098 14.2716 130.995C13.4916 130.892 12.7746 131.442 12.6726 132.222Z" fill="white"/>
<path fill-rule="evenodd" clip-rule="evenodd" d="M294.726 150.632C294.726 152.342 293.337 153.731 291.627 153.731C289.916 153.731 288.527 152.342 288.527 150.632C288.527 148.921 289.916 147.532 291.627 147.532C293.337 147.532 294.726 148.921 294.726 150.632Z" fill="white"/>
<path fill-rule="evenodd" clip-rule="evenodd" d="M9.79297 150.632C9.79297 152.342 11.182 153.731 12.892 153.731C14.603 153.731 15.992 152.342 15.992 150.632C15.992 148.921 14.603 147.532 12.892 147.532C11.182 147.532 9.79297 148.921 9.79297 150.632Z" fill="white"/>
<defs>
<linearGradient id="paint0_linear_678_3462" x1="152" y1="12.5438" x2="152" y2="127.741" gradientUnits="userSpaceOnUse">
<stop stop-color="#652B2B"/>
<stop offset="1" stop-color="#350B0B"/>
</linearGradient>
</defs>
</svg>
