<svg width="304" height="156" viewBox="0 0 304 156" fill="none" xmlns="http://www.w3.org/2000/svg">
<path fill-rule="evenodd" clip-rule="evenodd" d="M302 152.585C302 69.742 234.843 2.58496 152 2.58496C69.158 2.58496 2 69.742 2 152.585H302Z" fill="url(#paint0_linear_678_3460)"/>
<path fill-rule="evenodd" clip-rule="evenodd" d="M5.39091 120.723C7.18591 120.761 8.81091 120.736 10.2109 120.598C16.9789 119.957 34.2799 122.626 36.5349 123.72C38.7909 124.84 46.3019 127.723 50.4299 127.962C54.5799 128.177 65.8589 128.63 71.8589 130.391C77.8809 132.18 87.2869 133.727 90.8509 134.181C93.1519 134.474 100.573 136.716 107.024 138.024C99.9189 138.531 92.0459 138.531 87.7609 138.531H44.3169C38.2419 138.531 17.1049 143.293 2.12891 146.314C2.48891 137.57 3.59691 129.019 5.39091 120.723Z" fill="#FAE4D7"/>
<path fill-rule="evenodd" clip-rule="evenodd" d="M2.129 146.311C17.106 143.29 38.239 138.528 44.314 138.528H87.758C92.044 138.528 99.916 138.528 107.022 138.021C110.675 137.782 114.126 137.407 116.788 136.847C124.683 135.166 145.547 133.512 151.999 132.177C158.45 130.842 184.458 129.829 192.917 129.829C201.375 129.829 211.818 126.519 215.473 125.506C219.127 124.491 237.758 123.851 246.488 125.826C255.217 127.854 261.983 124.838 267.353 124.171C272.721 123.504 281.744 123.504 285.962 122.597C288.801 121.986 294.204 123.37 299.325 124.235C301.081 133.415 302 142.892 302 152.585H132.294C92.331 151.172 49.263 149.156 2.125 146.426C2.126 146.387 2.128 146.349 2.129 146.311Z" fill="#FEF7F0"/>
<path fill-rule="evenodd" clip-rule="evenodd" d="M57.9526 110.551C57.6516 111.279 57.9966 112.115 58.7226 112.417C59.4476 112.719 60.2796 112.372 60.5806 111.644C60.8806 110.916 60.5356 110.08 59.8106 109.778C59.0856 109.477 58.2526 109.823 57.9526 110.551Z" fill="white"/>
<path fill-rule="evenodd" clip-rule="evenodd" d="M120.886 45.0168C120.586 45.7448 120.931 46.5808 121.656 46.8828C122.381 47.1848 123.214 46.8378 123.514 46.1098C123.815 45.3818 123.47 44.5458 122.744 44.2438C122.019 43.9418 121.187 44.2888 120.886 45.0168Z" fill="white"/>
<path fill-rule="evenodd" clip-rule="evenodd" d="M175.249 87.075C174.949 87.803 175.294 88.639 176.019 88.941C176.744 89.243 177.577 88.896 177.878 88.168C178.178 87.44 177.833 86.604 177.108 86.302C176.383 86.001 175.55 86.347 175.249 87.075Z" fill="white"/>
<path fill-rule="evenodd" clip-rule="evenodd" d="M94.7807 102.906C94.4797 103.634 94.8247 104.47 95.5497 104.772C96.2747 105.073 97.1077 104.727 97.4087 103.999C97.7087 103.271 97.3637 102.435 96.6387 102.133C95.9137 101.831 95.0807 102.178 94.7807 102.906Z" fill="white"/>
<path fill-rule="evenodd" clip-rule="evenodd" d="M157.71 37.3723C157.409 38.1003 157.754 38.9363 158.48 39.2383C159.205 39.5393 160.038 39.1933 160.338 38.4653C160.638 37.7373 160.293 36.9013 159.568 36.5993C158.843 36.2973 158.01 36.6443 157.71 37.3723Z" fill="white"/>
<path fill-rule="evenodd" clip-rule="evenodd" d="M109.546 31.8993C109.245 32.6283 109.59 33.4643 110.316 33.7653C111.041 34.0673 111.874 33.7213 112.174 32.9923C112.474 32.2643 112.129 31.4283 111.404 31.1273C110.679 30.8253 109.846 31.1713 109.546 31.8993Z" fill="white"/>
<path fill-rule="evenodd" clip-rule="evenodd" d="M189.417 36.4622C189.116 37.1912 189.461 38.0272 190.187 38.3282C190.912 38.6302 191.745 38.2842 192.045 37.5552C192.345 36.8272 192 35.9912 191.275 35.6892C190.55 35.3882 189.717 35.7342 189.417 36.4622Z" fill="white"/>
<path fill-rule="evenodd" clip-rule="evenodd" d="M212.077 79.4299C211.777 80.1579 212.122 80.9939 212.847 81.2959C213.572 81.5969 214.405 81.2509 214.705 80.5229C215.006 79.7949 214.661 78.9589 213.936 78.6569C213.21 78.3549 212.378 78.7019 212.077 79.4299Z" fill="white"/>
<path fill-rule="evenodd" clip-rule="evenodd" d="M178.464 148.679C178.163 149.407 178.508 150.243 179.233 150.545C179.959 150.846 180.791 150.5 181.092 149.772C181.392 149.044 181.047 148.208 180.322 147.906C179.597 147.604 178.764 147.951 178.464 148.679Z" fill="white"/>
<path fill-rule="evenodd" clip-rule="evenodd" d="M250.065 146.397C249.765 147.125 250.109 147.961 250.835 148.263C251.56 148.564 252.393 148.218 252.693 147.49C252.993 146.762 252.649 145.925 251.923 145.624C251.198 145.322 250.365 145.669 250.065 146.397Z" fill="white"/>
<path fill-rule="evenodd" clip-rule="evenodd" d="M38.1323 114.641C37.8313 115.369 38.1763 116.205 38.9013 116.507C39.6273 116.808 40.4593 116.462 40.7603 115.734C41.0603 115.006 40.7153 114.17 39.9903 113.868C39.2653 113.566 38.4323 113.913 38.1323 114.641Z" fill="white"/>
<path fill-rule="evenodd" clip-rule="evenodd" d="M101.062 49.1071C100.761 49.8351 101.106 50.6711 101.832 50.9731C102.557 51.2741 103.39 50.9281 103.69 50.2001C103.99 49.4721 103.645 48.6361 102.92 48.3341C102.195 48.0321 101.362 48.3791 101.062 49.1071Z" fill="white"/>
<path fill-rule="evenodd" clip-rule="evenodd" d="M155.429 91.1652C155.129 91.8932 155.474 92.7292 156.199 93.0312C156.924 93.3322 157.757 92.9862 158.057 92.2582C158.358 91.5302 158.013 90.6942 157.288 90.3922C156.562 90.0902 155.73 90.4372 155.429 91.1652Z" fill="white"/>
<path fill-rule="evenodd" clip-rule="evenodd" d="M46.784 131.883C46.484 132.611 46.829 133.448 47.554 133.749C48.279 134.051 49.112 133.704 49.412 132.976C49.713 132.248 49.368 131.412 48.643 131.11C47.917 130.809 47.085 131.155 46.784 131.883Z" fill="white"/>
<path fill-rule="evenodd" clip-rule="evenodd" d="M109.714 66.3489C109.413 67.0769 109.758 67.9129 110.483 68.2149C111.209 68.5169 112.041 68.1699 112.342 67.4419C112.642 66.7139 112.297 65.8779 111.572 65.5759C110.847 65.2749 110.014 65.6209 109.714 66.3489Z" fill="white"/>
<path fill-rule="evenodd" clip-rule="evenodd" d="M164.081 108.407C163.781 109.135 164.126 109.972 164.851 110.273C165.576 110.575 166.409 110.228 166.709 109.5C167.01 108.772 166.665 107.936 165.939 107.634C165.214 107.333 164.381 107.679 164.081 108.407Z" fill="white"/>
<path fill-rule="evenodd" clip-rule="evenodd" d="M69.7528 134.885C69.4528 135.613 69.7978 136.449 70.5228 136.751C71.2478 137.053 72.0808 136.706 72.3808 135.978C72.6818 135.25 72.3368 134.414 71.6118 134.112C70.8868 133.811 70.0538 134.157 69.7528 134.885Z" fill="white"/>
<path fill-rule="evenodd" clip-rule="evenodd" d="M132.683 69.3509C132.382 70.0789 132.727 70.9149 133.453 71.2169C134.178 71.5189 135.01 71.1719 135.311 70.4439C135.611 69.7159 135.266 68.8799 134.541 68.5779C133.816 68.2769 132.983 68.6229 132.683 69.3509Z" fill="white"/>
<path fill-rule="evenodd" clip-rule="evenodd" d="M187.05 111.409C186.75 112.137 187.095 112.974 187.82 113.275C188.545 113.577 189.378 113.23 189.678 112.502C189.979 111.774 189.634 110.938 188.908 110.636C188.183 110.335 187.351 110.681 187.05 111.409Z" fill="white"/>
<path fill-rule="evenodd" clip-rule="evenodd" d="M92.499 134.885C92.199 135.613 92.543 136.449 93.269 136.751C93.994 137.053 94.827 136.706 95.127 135.978C95.427 135.25 95.082 134.414 94.357 134.112C93.632 133.811 92.799 134.157 92.499 134.885Z" fill="white"/>
<path fill-rule="evenodd" clip-rule="evenodd" d="M155.429 69.3509C155.129 70.0789 155.474 70.9149 156.199 71.2169C156.924 71.5189 157.757 71.1719 158.057 70.4439C158.358 69.7159 158.013 68.8799 157.288 68.5779C156.562 68.2769 155.73 68.6229 155.429 69.3509Z" fill="white"/>
<path fill-rule="evenodd" clip-rule="evenodd" d="M209.796 111.409C209.495 112.137 209.84 112.974 210.565 113.275C211.291 113.577 212.123 113.23 212.424 112.502C212.724 111.774 212.379 110.938 211.654 110.636C210.929 110.335 210.096 110.681 209.796 111.409Z" fill="white"/>
<path fill-rule="evenodd" clip-rule="evenodd" d="M118.421 129.741C118.12 130.469 118.465 131.305 119.19 131.607C119.916 131.908 120.748 131.562 121.049 130.834C121.349 130.106 121.004 129.27 120.279 128.968C119.554 128.666 118.721 129.013 118.421 129.741Z" fill="white"/>
<path fill-rule="evenodd" clip-rule="evenodd" d="M181.35 64.2072C181.05 64.9352 181.395 65.7712 182.12 66.0732C182.845 66.3742 183.678 66.0282 183.978 65.3002C184.279 64.5722 183.934 63.7352 183.208 63.4342C182.483 63.1322 181.65 63.4792 181.35 64.2072Z" fill="white"/>
<path fill-rule="evenodd" clip-rule="evenodd" d="M235.718 106.265C235.418 106.993 235.763 107.829 236.488 108.131C237.213 108.432 238.046 108.086 238.347 107.358C238.647 106.63 238.302 105.794 237.577 105.492C236.852 105.19 236.019 105.537 235.718 106.265Z" fill="white"/>
<path fill-rule="evenodd" clip-rule="evenodd" d="M75.0029 117.079C74.7029 117.807 75.0469 118.643 75.7729 118.945C76.4979 119.247 77.3309 118.9 77.6309 118.172C77.9309 117.444 77.5869 116.608 76.8609 116.306C76.1359 116.005 75.3029 116.351 75.0029 117.079Z" fill="white"/>
<path fill-rule="evenodd" clip-rule="evenodd" d="M137.932 51.5451C137.632 52.2731 137.977 53.1091 138.702 53.4111C139.427 53.7121 140.26 53.3661 140.56 52.6381C140.861 51.9101 140.516 51.0741 139.791 50.7721C139.065 50.4701 138.233 50.8171 137.932 51.5451Z" fill="white"/>
<path fill-rule="evenodd" clip-rule="evenodd" d="M192.3 93.6028C191.999 94.3308 192.344 95.1668 193.069 95.4688C193.795 95.7708 194.627 95.4238 194.928 94.6958C195.228 93.9678 194.883 93.1318 194.158 92.8298C193.433 92.5288 192.6 92.8748 192.3 93.6028Z" fill="white"/>
<path fill-rule="evenodd" clip-rule="evenodd" d="M111.831 109.434C111.53 110.162 111.875 110.998 112.6 111.3C113.326 111.601 114.158 111.255 114.459 110.527C114.759 109.799 114.414 108.963 113.689 108.661C112.964 108.359 112.131 108.706 111.831 109.434Z" fill="white"/>
<path fill-rule="evenodd" clip-rule="evenodd" d="M174.761 43.9001C174.461 44.6281 174.806 45.4641 175.531 45.7661C176.256 46.0671 177.089 45.7211 177.389 44.9931C177.69 44.2651 177.345 43.4291 176.619 43.1271C175.894 42.8251 175.061 43.1721 174.761 43.9001Z" fill="white"/>
<path fill-rule="evenodd" clip-rule="evenodd" d="M229.128 85.9582C228.828 86.6862 229.173 87.5222 229.898 87.8242C230.623 88.1252 231.456 87.7792 231.756 87.0512C232.057 86.3232 231.712 85.4872 230.987 85.1852C230.261 84.8832 229.429 85.2302 229.128 85.9582Z" fill="white"/>
<path fill-rule="evenodd" clip-rule="evenodd" d="M75.0029 98.3161C74.7029 99.0441 75.0469 99.8801 75.7729 100.182C76.4979 100.483 77.3309 100.137 77.6309 99.4091C77.9309 98.6811 77.5869 97.8451 76.8609 97.5431C76.1359 97.2411 75.3029 97.5881 75.0029 98.3161Z" fill="white"/>
<path fill-rule="evenodd" clip-rule="evenodd" d="M137.932 32.7819C137.632 33.5099 137.977 34.3459 138.702 34.6479C139.427 34.9489 140.26 34.6029 140.56 33.8749C140.861 33.1469 140.516 32.3099 139.791 32.0089C139.065 31.7069 138.233 32.0539 137.932 32.7819Z" fill="white"/>
<path fill-rule="evenodd" clip-rule="evenodd" d="M192.3 74.84C191.999 75.568 192.344 76.404 193.069 76.706C193.795 77.007 194.627 76.661 194.928 75.933C195.228 75.205 194.883 74.3691 194.158 74.0671C193.433 73.7651 192.6 74.112 192.3 74.84Z" fill="white"/>
<path fill-rule="evenodd" clip-rule="evenodd" d="M158.686 144.089C158.386 144.817 158.731 145.653 159.456 145.955C160.181 146.256 161.014 145.91 161.314 145.182C161.615 144.454 161.27 143.617 160.544 143.316C159.819 143.014 158.987 143.361 158.686 144.089Z" fill="white"/>
<path fill-rule="evenodd" clip-rule="evenodd" d="M230.284 141.807C229.984 142.535 230.329 143.371 231.054 143.672C231.779 143.974 232.612 143.628 232.913 142.9C233.213 142.171 232.868 141.335 232.143 141.034C231.418 140.732 230.585 141.078 230.284 141.807Z" fill="white"/>
<path fill-rule="evenodd" clip-rule="evenodd" d="M59.1244 89.8651C58.8234 90.5931 59.1684 91.4291 59.8944 91.7301C60.6194 92.0321 61.4524 91.6861 61.7524 90.9581C62.0524 90.2291 61.7074 89.3931 60.9824 89.0921C60.2574 88.7901 59.4244 89.1361 59.1244 89.8651Z" fill="white"/>
<path fill-rule="evenodd" clip-rule="evenodd" d="M122.063 65.5199C122.814 65.2909 123.238 64.4929 123.01 63.7389C122.781 62.9849 121.986 62.5579 121.235 62.7879C120.484 63.0169 120.06 63.8159 120.288 64.5699C120.517 65.3239 121.312 65.7499 122.063 65.5199Z" fill="white"/>
<path fill-rule="evenodd" clip-rule="evenodd" d="M176.421 66.389C176.12 67.117 176.465 67.953 177.19 68.255C177.916 68.556 178.748 68.21 179.049 67.482C179.349 66.753 179.004 65.917 178.279 65.616C177.554 65.314 176.721 65.66 176.421 66.389Z" fill="white"/>
<path fill-rule="evenodd" clip-rule="evenodd" d="M142.807 135.638C142.507 136.366 142.852 137.202 143.577 137.503C144.302 137.805 145.135 137.459 145.435 136.731C145.736 136.002 145.391 135.166 144.665 134.865C143.94 134.563 143.107 134.909 142.807 135.638Z" fill="white"/>
<path fill-rule="evenodd" clip-rule="evenodd" d="M214.405 133.355C214.105 134.084 214.45 134.92 215.175 135.221C215.9 135.523 216.733 135.177 217.033 134.448C217.334 133.72 216.989 132.884 216.264 132.583C215.538 132.281 214.706 132.627 214.405 133.355Z" fill="white"/>
<path fill-rule="evenodd" clip-rule="evenodd" d="M78.0268 77.3241C77.7258 78.0521 78.0708 78.8881 78.7968 79.1891C79.5218 79.4911 80.3548 79.1451 80.6548 78.4171C80.9548 77.6881 80.6098 76.8521 79.8848 76.5511C79.1598 76.2491 78.3268 76.5951 78.0268 77.3241Z" fill="white"/>
<path fill-rule="evenodd" clip-rule="evenodd" d="M100.407 58.8193C101.158 58.5903 101.582 57.7913 101.354 57.0373C101.125 56.2833 100.33 55.8573 99.579 56.0873C98.828 56.3163 98.404 57.1143 98.632 57.8693C98.861 58.6233 99.656 59.0493 100.407 58.8193Z" fill="white"/>
<path fill-rule="evenodd" clip-rule="evenodd" d="M195.328 53.848C195.027 54.576 195.372 55.412 196.097 55.713C196.823 56.015 197.655 55.669 197.956 54.941C198.256 54.212 197.911 53.376 197.186 53.075C196.461 52.773 195.628 53.119 195.328 53.848Z" fill="white"/>
<path fill-rule="evenodd" clip-rule="evenodd" d="M161.71 123.096C161.41 123.825 161.755 124.661 162.48 124.962C163.205 125.264 164.038 124.918 164.338 124.189C164.639 123.461 164.294 122.625 163.568 122.324C162.843 122.022 162.01 122.368 161.71 123.096Z" fill="white"/>
<path fill-rule="evenodd" clip-rule="evenodd" d="M233.311 120.814C233.011 121.543 233.356 122.379 234.081 122.68C234.806 122.982 235.639 122.636 235.939 121.907C236.24 121.179 235.895 120.343 235.17 120.041C234.444 119.74 233.612 120.086 233.311 120.814Z" fill="white"/>
<path fill-rule="evenodd" clip-rule="evenodd" d="M95.3309 83.594C95.0309 84.322 95.3759 85.158 96.1009 85.46C96.8259 85.762 97.6589 85.415 97.9589 84.687C98.2599 83.959 97.9149 83.123 97.1899 82.821C96.4649 82.52 95.6319 82.866 95.3309 83.594Z" fill="white"/>
<path fill-rule="evenodd" clip-rule="evenodd" d="M94.2472 41.4169C94.9982 41.1879 95.4222 40.3889 95.1932 39.6349C94.9652 38.8809 94.1702 38.4549 93.4192 38.6849C92.6682 38.9139 92.2432 39.7119 92.4722 40.4659C92.7002 41.2199 93.4952 41.6459 94.2472 41.4169Z" fill="white"/>
<path fill-rule="evenodd" clip-rule="evenodd" d="M77.6173 58.1499C78.3683 57.9209 78.7933 57.1229 78.5643 56.3689C78.3363 55.6149 77.5413 55.1889 76.7903 55.4179C76.0393 55.6469 75.6143 56.4459 75.8433 57.1999C76.0713 57.9539 76.8663 58.3799 77.6173 58.1499Z" fill="white"/>
<path fill-rule="evenodd" clip-rule="evenodd" d="M53.6531 85.5439C54.4041 85.3149 54.8281 84.5159 54.5991 83.7619C54.3711 83.0079 53.5761 82.5819 52.8251 82.8109C52.0741 83.0409 51.6501 83.8389 51.8781 84.5929C52.1061 85.3469 52.9021 85.7729 53.6531 85.5439Z" fill="white"/>
<path fill-rule="evenodd" clip-rule="evenodd" d="M59.8985 64.917C60.6505 64.688 61.0745 63.89 60.8455 63.136C60.6175 62.382 59.8225 61.956 59.0715 62.185C58.3205 62.414 57.8955 63.213 58.1245 63.967C58.3525 64.721 59.1475 65.147 59.8985 64.917Z" fill="white"/>
<path fill-rule="evenodd" clip-rule="evenodd" d="M37.0157 99.3599C37.7667 99.1309 38.1917 98.3319 37.9627 97.5779C37.7347 96.8239 36.9397 96.3979 36.1887 96.6269C35.4377 96.8569 35.0127 97.6549 35.2417 98.4089C35.4697 99.1629 36.2647 99.5889 37.0157 99.3599Z" fill="white"/>
<path fill-rule="evenodd" clip-rule="evenodd" d="M34.3712 126.02C35.1222 125.791 35.5472 124.993 35.3182 124.239C35.0902 123.485 34.2952 123.059 33.5442 123.288C32.7932 123.517 32.3682 124.316 32.5972 125.07C32.8252 125.824 33.6202 126.25 34.3712 126.02Z" fill="white"/>
<path fill-rule="evenodd" clip-rule="evenodd" d="M281.934 131.375C282.685 131.146 283.109 130.348 282.881 129.593C282.652 128.839 281.857 128.413 281.106 128.643C280.355 128.872 279.931 129.67 280.159 130.425C280.387 131.179 281.183 131.605 281.934 131.375Z" fill="white"/>
<path fill-rule="evenodd" clip-rule="evenodd" d="M260.434 78.7769C261.185 78.5479 261.609 77.7489 261.381 76.9949C261.152 76.2409 260.357 75.8149 259.606 76.0439C258.855 76.2739 258.431 77.0719 258.659 77.8259C258.888 78.5799 259.683 79.0059 260.434 78.7769Z" fill="white"/>
<path fill-rule="evenodd" clip-rule="evenodd" d="M212.313 124.886C213.064 124.657 213.488 123.858 213.26 123.104C213.031 122.35 212.236 121.924 211.485 122.154C210.734 122.383 210.31 123.181 210.538 123.935C210.767 124.69 211.562 125.116 212.313 124.886Z" fill="white"/>
<path fill-rule="evenodd" clip-rule="evenodd" d="M212.628 60.1179C212.328 60.8459 212.673 61.6819 213.398 61.9839C214.123 62.2859 214.956 61.9389 215.256 61.2109C215.557 60.4829 215.212 59.647 214.486 59.345C213.761 59.044 212.929 59.3899 212.628 60.1179Z" fill="white"/>
<path fill-rule="evenodd" clip-rule="evenodd" d="M179.015 129.367C178.714 130.095 179.059 130.931 179.784 131.233C180.51 131.535 181.342 131.188 181.643 130.46C181.943 129.732 181.598 128.896 180.873 128.594C180.148 128.292 179.315 128.639 179.015 129.367Z" fill="white"/>
<path fill-rule="evenodd" clip-rule="evenodd" d="M250.613 127.085C250.312 127.813 250.657 128.649 251.383 128.951C252.108 129.252 252.941 128.906 253.241 128.178C253.541 127.45 253.196 126.614 252.471 126.312C251.746 126.01 250.913 126.357 250.613 127.085Z" fill="white"/>
<path fill-rule="evenodd" clip-rule="evenodd" d="M71.793 104.259C71.425 105.151 71.848 106.176 72.737 106.546C73.626 106.916 74.647 106.491 75.015 105.598C75.383 104.706 74.96 103.681 74.071 103.311C73.182 102.941 72.162 103.366 71.793 104.259Z" fill="white"/>
<path fill-rule="evenodd" clip-rule="evenodd" d="M134.723 38.7252C134.354 39.6172 134.777 40.6422 135.666 41.0122C136.555 41.3822 137.576 40.9571 137.944 40.0641C138.312 39.1721 137.89 38.1472 137.001 37.7772C136.112 37.4072 135.091 37.8322 134.723 38.7252Z" fill="white"/>
<path fill-rule="evenodd" clip-rule="evenodd" d="M189.09 80.7833C188.722 81.6753 189.145 82.7003 190.034 83.0703C190.923 83.4403 191.943 83.0153 192.312 82.1223C192.68 81.2303 192.257 80.2053 191.368 79.8353C190.479 79.4653 189.458 79.8903 189.09 80.7833Z" fill="white"/>
<path fill-rule="evenodd" clip-rule="evenodd" d="M155.477 150.032C155.109 150.924 155.532 151.949 156.421 152.319C157.31 152.689 158.331 152.264 158.699 151.371C159.067 150.479 158.645 149.454 157.755 149.084C156.866 148.714 155.846 149.139 155.477 150.032Z" fill="white"/>
<path fill-rule="evenodd" clip-rule="evenodd" d="M227.074 147.749C226.706 148.642 227.128 149.667 228.017 150.037C228.906 150.406 229.927 149.982 230.295 149.089C230.664 148.197 230.241 147.172 229.352 146.802C228.463 146.432 227.442 146.857 227.074 147.749Z" fill="white"/>
<path fill-rule="evenodd" clip-rule="evenodd" d="M108.621 96.6128C108.253 97.5058 108.676 98.5308 109.565 98.9008C110.454 99.2698 111.474 98.8458 111.843 97.9528C112.211 97.0608 111.788 96.0358 110.899 95.6658C110.01 95.2958 108.989 95.7208 108.621 96.6128Z" fill="white"/>
<path fill-rule="evenodd" clip-rule="evenodd" d="M171.551 31.0791C171.183 31.9721 171.606 32.9971 172.495 33.3672C173.384 33.7362 174.405 33.3122 174.773 32.4192C175.141 31.5272 174.718 30.5021 173.829 30.1321C172.94 29.7621 171.92 30.1871 171.551 31.0791Z" fill="white"/>
<path fill-rule="evenodd" clip-rule="evenodd" d="M123.383 25.6071C123.015 26.5001 123.438 27.5251 124.327 27.8941C125.216 28.2641 126.237 27.8391 126.605 26.9471C126.973 26.0541 126.55 25.0291 125.661 24.6601C124.772 24.2901 123.752 24.7141 123.383 25.6071Z" fill="white"/>
<path fill-rule="evenodd" clip-rule="evenodd" d="M203.254 30.17C202.886 31.063 203.309 32.087 204.198 32.457C205.087 32.827 206.108 32.402 206.476 31.51C206.844 30.617 206.421 29.592 205.532 29.222C204.643 28.853 203.623 29.277 203.254 30.17Z" fill="white"/>
<path fill-rule="evenodd" clip-rule="evenodd" d="M225.918 73.1372C225.55 74.0302 225.972 75.0553 226.861 75.4253C227.75 75.7943 228.771 75.3703 229.139 74.4773C229.508 73.5853 229.085 72.5603 228.196 72.1903C227.307 71.8203 226.286 72.2452 225.918 73.1372Z" fill="white"/>
<path fill-rule="evenodd" clip-rule="evenodd" d="M192.301 142.386C191.933 143.279 192.356 144.304 193.245 144.674C194.134 145.043 195.155 144.619 195.523 143.726C195.891 142.834 195.468 141.809 194.579 141.439C193.69 141.069 192.669 141.494 192.301 142.386Z" fill="white"/>
<path fill-rule="evenodd" clip-rule="evenodd" d="M263.903 140.104C263.534 140.997 263.957 142.022 264.846 142.391C265.735 142.761 266.756 142.337 267.124 141.444C267.492 140.551 267.07 139.527 266.181 139.157C265.292 138.787 264.271 139.212 263.903 140.104Z" fill="white"/>
<path fill-rule="evenodd" clip-rule="evenodd" d="M51.9688 108.348C51.6008 109.241 52.0238 110.266 52.9128 110.636C53.8018 111.005 54.8218 110.581 55.1908 109.688C55.5588 108.796 55.1358 107.771 54.2468 107.401C53.3578 107.031 52.3368 107.456 51.9688 108.348Z" fill="white"/>
<path fill-rule="evenodd" clip-rule="evenodd" d="M114.902 42.814C114.534 43.707 114.957 44.732 115.846 45.102C116.735 45.471 117.756 45.047 118.124 44.154C118.492 43.262 118.069 42.237 117.18 41.867C116.291 41.497 115.271 41.922 114.902 42.814Z" fill="white"/>
<path fill-rule="evenodd" clip-rule="evenodd" d="M169.27 84.8721C168.902 85.7651 169.324 86.7901 170.213 87.1601C171.102 87.5291 172.123 87.1051 172.491 86.2121C172.86 85.3201 172.437 84.2951 171.548 83.9251C170.659 83.5551 169.638 83.9801 169.27 84.8721Z" fill="white"/>
<path fill-rule="evenodd" clip-rule="evenodd" d="M60.6213 125.591C60.2533 126.483 60.6753 127.508 61.5643 127.878C62.4533 128.248 63.4743 127.823 63.8423 126.931C64.2113 126.038 63.7883 125.013 62.8993 124.643C62.0103 124.274 60.9893 124.698 60.6213 125.591Z" fill="white"/>
<path fill-rule="evenodd" clip-rule="evenodd" d="M123.551 60.0573C123.183 60.9493 123.606 61.9743 124.495 62.3443C125.384 62.7143 126.405 62.2893 126.773 61.3973C127.141 60.5043 126.718 59.4793 125.829 59.1093C124.94 58.7403 123.919 59.1643 123.551 60.0573Z" fill="white"/>
<path fill-rule="evenodd" clip-rule="evenodd" d="M177.919 102.115C177.55 103.007 177.973 104.032 178.862 104.402C179.751 104.772 180.772 104.347 181.14 103.455C181.508 102.562 181.086 101.537 180.197 101.167C179.308 100.798 178.287 101.222 177.919 102.115Z" fill="white"/>
<path fill-rule="evenodd" clip-rule="evenodd" d="M83.5899 128.593C83.2219 129.485 83.6449 130.51 84.5339 130.88C85.4229 131.25 86.4429 130.825 86.8119 129.933C87.1799 129.04 86.7569 128.015 85.8679 127.645C84.9789 127.276 83.9579 127.7 83.5899 128.593Z" fill="white"/>
<path fill-rule="evenodd" clip-rule="evenodd" d="M146.523 63.0592C146.155 63.9512 146.578 64.9762 147.467 65.3462C148.356 65.7162 149.377 65.2912 149.745 64.3992C150.113 63.5062 149.69 62.4812 148.801 62.1112C147.912 61.7422 146.892 62.1662 146.523 63.0592Z" fill="white"/>
<path fill-rule="evenodd" clip-rule="evenodd" d="M200.891 105.117C200.522 106.009 200.945 107.034 201.834 107.404C202.723 107.774 203.744 107.349 204.112 106.457C204.48 105.564 204.058 104.539 203.169 104.169C202.28 103.8 201.259 104.224 200.891 105.117Z" fill="white"/>
<path fill-rule="evenodd" clip-rule="evenodd" d="M106.336 128.593C105.968 129.485 106.391 130.51 107.28 130.88C108.169 131.25 109.19 130.825 109.558 129.933C109.926 129.04 109.503 128.015 108.614 127.645C107.725 127.276 106.705 127.7 106.336 128.593Z" fill="white"/>
<path fill-rule="evenodd" clip-rule="evenodd" d="M169.27 63.0592C168.902 63.9512 169.324 64.9762 170.213 65.3462C171.102 65.7162 172.123 65.2912 172.491 64.3992C172.86 63.5062 172.437 62.4812 171.548 62.1112C170.659 61.7422 169.638 62.1662 169.27 63.0592Z" fill="white"/>
<path fill-rule="evenodd" clip-rule="evenodd" d="M223.637 105.117C223.269 106.009 223.692 107.034 224.581 107.404C225.47 107.774 226.49 107.349 226.859 106.457C227.227 105.564 226.804 104.539 225.915 104.169C225.026 103.8 224.005 104.224 223.637 105.117Z" fill="white"/>
<path fill-rule="evenodd" clip-rule="evenodd" d="M132.258 123.448C131.89 124.341 132.313 125.366 133.202 125.736C134.091 126.105 135.112 125.681 135.48 124.788C135.848 123.896 135.425 122.871 134.536 122.501C133.647 122.131 132.626 122.556 132.258 123.448Z" fill="white"/>
<path fill-rule="evenodd" clip-rule="evenodd" d="M195.188 57.9141C194.819 58.8071 195.242 59.8321 196.131 60.2021C197.02 60.5711 198.041 60.1471 198.409 59.2541C198.777 58.3611 198.355 57.3371 197.466 56.9671C196.577 56.5971 195.556 57.0221 195.188 57.9141Z" fill="white"/>
<path fill-rule="evenodd" clip-rule="evenodd" d="M249.555 99.9722C249.187 100.865 249.61 101.89 250.499 102.26C251.388 102.629 252.408 102.205 252.777 101.312C253.145 100.42 252.722 99.3952 251.833 99.0252C250.944 98.6552 249.923 99.0802 249.555 99.9722Z" fill="white"/>
<path fill-rule="evenodd" clip-rule="evenodd" d="M97.4498 117.946C97.0808 118.838 97.5038 119.863 98.3928 120.233C99.2818 120.603 100.303 120.178 100.671 119.285C101.039 118.393 100.617 117.368 99.7278 116.998C98.8388 116.628 97.8178 117.053 97.4498 117.946Z" fill="white"/>
<path fill-rule="evenodd" clip-rule="evenodd" d="M160.379 52.4122C160.011 53.3042 160.433 54.3292 161.323 54.6992C162.212 55.0692 163.232 54.6442 163.601 53.7512C163.969 52.8592 163.546 51.8342 162.657 51.4642C161.768 51.0942 160.747 51.5192 160.379 52.4122Z" fill="white"/>
<path fill-rule="evenodd" clip-rule="evenodd" d="M214.746 94.4699C214.378 95.3619 214.801 96.3869 215.69 96.7569C216.579 97.1269 217.6 96.7018 217.968 95.8098C218.336 94.9168 217.913 93.8919 217.024 93.5219C216.135 93.1529 215.115 93.5769 214.746 94.4699Z" fill="white"/>
<path fill-rule="evenodd" clip-rule="evenodd" d="M88.8399 110.787C88.4719 111.679 88.8949 112.704 89.7839 113.074C90.6729 113.444 91.6939 113.019 92.0619 112.126C92.4299 111.234 92.0069 110.209 91.1179 109.839C90.2289 109.469 89.2089 109.894 88.8399 110.787Z" fill="white"/>
<path fill-rule="evenodd" clip-rule="evenodd" d="M151.774 45.252C151.406 46.145 151.828 47.17 152.717 47.54C153.606 47.909 154.627 47.485 154.995 46.592C155.364 45.7 154.941 44.675 154.052 44.305C153.163 43.935 152.142 44.36 151.774 45.252Z" fill="white"/>
<path fill-rule="evenodd" clip-rule="evenodd" d="M206.137 87.3111C205.769 88.2031 206.192 89.2281 207.081 89.5981C207.97 89.9681 208.991 89.5431 209.359 88.6501C209.727 87.7581 209.304 86.7331 208.415 86.3631C207.526 85.9931 206.505 86.4181 206.137 87.3111Z" fill="white"/>
<path fill-rule="evenodd" clip-rule="evenodd" d="M88.8399 92.023C88.4719 92.916 88.8949 93.941 89.7839 94.311C90.6729 94.68 91.6939 94.256 92.0619 93.363C92.4299 92.471 92.0069 91.446 91.1179 91.076C90.2289 90.706 89.2089 91.131 88.8399 92.023Z" fill="white"/>
<path fill-rule="evenodd" clip-rule="evenodd" d="M206.137 68.5469C205.769 69.4399 206.192 70.4649 207.081 70.8349C207.97 71.2039 208.991 70.7799 209.359 69.8869C209.727 68.9949 209.304 67.9699 208.415 67.5999C207.526 67.2299 206.505 67.6549 206.137 68.5469Z" fill="white"/>
<path fill-rule="evenodd" clip-rule="evenodd" d="M172.524 137.796C172.155 138.689 172.578 139.714 173.467 140.084C174.356 140.453 175.377 140.029 175.745 139.136C176.113 138.243 175.691 137.219 174.802 136.849C173.913 136.479 172.892 136.904 172.524 137.796Z" fill="white"/>
<path fill-rule="evenodd" clip-rule="evenodd" d="M244.125 135.514C243.757 136.407 244.18 137.432 245.069 137.801C245.958 138.171 246.978 137.747 247.347 136.854C247.715 135.961 247.292 134.936 246.403 134.567C245.514 134.197 244.493 134.621 244.125 135.514Z" fill="white"/>
<path fill-rule="evenodd" clip-rule="evenodd" d="M72.9609 83.572C72.5929 84.465 73.0159 85.49 73.9049 85.859C74.7939 86.229 75.8149 85.805 76.1829 84.912C76.5509 84.019 76.1279 82.994 75.2389 82.625C74.3499 82.255 73.3299 82.679 72.9609 83.572Z" fill="white"/>
<path fill-rule="evenodd" clip-rule="evenodd" d="M108.434 58.782C109.355 58.5 109.875 57.522 109.595 56.597C109.315 55.673 108.34 55.151 107.42 55.432C106.499 55.713 105.979 56.692 106.259 57.616C106.539 58.54 107.514 59.063 108.434 58.782Z" fill="white"/>
<path fill-rule="evenodd" clip-rule="evenodd" d="M190.258 60.0962C189.89 60.9892 190.313 62.0142 191.202 62.3832C192.091 62.7532 193.111 62.3292 193.48 61.4362C193.848 60.5432 193.425 59.5182 192.536 59.1492C191.647 58.7792 190.626 59.2042 190.258 60.0962Z" fill="white"/>
<path fill-rule="evenodd" clip-rule="evenodd" d="M156.645 129.345C156.276 130.238 156.699 131.263 157.588 131.632C158.477 132.002 159.498 131.578 159.866 130.685C160.234 129.792 159.812 128.767 158.923 128.398C158.034 128.028 157.013 128.452 156.645 129.345Z" fill="white"/>
<path fill-rule="evenodd" clip-rule="evenodd" d="M228.246 127.063C227.878 127.956 228.3 128.98 229.189 129.35C230.079 129.72 231.099 129.295 231.467 128.403C231.836 127.51 231.413 126.485 230.524 126.115C229.635 125.746 228.614 126.17 228.246 127.063Z" fill="white"/>
<path fill-rule="evenodd" clip-rule="evenodd" d="M91.8672 71.0309C91.4992 71.9239 91.9222 72.9489 92.8112 73.3179C93.7002 73.6879 94.7212 73.2639 95.0892 72.3709C95.4572 71.4779 95.0342 70.4529 94.1452 70.0839C93.2562 69.7139 92.2362 70.1379 91.8672 71.0309Z" fill="white"/>
<path fill-rule="evenodd" clip-rule="evenodd" d="M86.7781 52.0798C87.6991 51.7988 88.2191 50.8198 87.9391 49.8958C87.6591 48.9718 86.6841 48.4498 85.7641 48.7308C84.8431 49.0118 84.3231 49.9908 84.6031 50.9148C84.8831 51.8388 85.8581 52.3618 86.7781 52.0798Z" fill="white"/>
<path fill-rule="evenodd" clip-rule="evenodd" d="M70.1492 68.8142C71.0702 68.5332 71.5902 67.5542 71.3102 66.6292C71.0302 65.7052 70.0552 65.1832 69.1342 65.4642C68.2142 65.7452 67.6942 66.7242 67.9742 67.6482C68.2542 68.5732 69.2282 69.0952 70.1492 68.8142Z" fill="white"/>
<path fill-rule="evenodd" clip-rule="evenodd" d="M46.1883 96.2072C47.1093 95.9262 47.6293 94.9472 47.3493 94.0232C47.0693 93.0992 46.0943 92.5762 45.1743 92.8582C44.2533 93.1392 43.7333 94.1171 44.0133 95.0421C44.2933 95.9661 45.2683 96.4882 46.1883 96.2072Z" fill="white"/>
<path fill-rule="evenodd" clip-rule="evenodd" d="M52.4305 75.5808C53.3515 75.2998 53.8715 74.3208 53.5915 73.3958C53.3115 72.4718 52.3365 71.9498 51.4165 72.2308C50.4955 72.5118 49.9755 73.4908 50.2555 74.4148C50.5355 75.3398 51.5105 75.8618 52.4305 75.5808Z" fill="white"/>
<path fill-rule="evenodd" clip-rule="evenodd" d="M29.5477 110.023C30.4687 109.742 30.9887 108.763 30.7087 107.839C30.4287 106.915 29.4537 106.392 28.5327 106.674C27.6127 106.955 27.0927 107.933 27.3727 108.858C27.6527 109.782 28.6267 110.304 29.5477 110.023Z" fill="white"/>
<path fill-rule="evenodd" clip-rule="evenodd" d="M26.907 136.684C27.828 136.403 28.348 135.424 28.068 134.499C27.788 133.575 26.813 133.053 25.892 133.334C24.972 133.615 24.452 134.594 24.732 135.518C25.012 136.443 25.987 136.965 26.907 136.684Z" fill="white"/>
<path fill-rule="evenodd" clip-rule="evenodd" d="M239.744 60.136C240.664 59.855 241.184 58.876 240.904 57.951C240.624 57.027 239.65 56.505 238.729 56.786C237.808 57.067 237.288 58.046 237.568 58.97C237.848 59.895 238.823 60.417 239.744 60.136Z" fill="white"/>
<path fill-rule="evenodd" clip-rule="evenodd" d="M218.971 46.6018C219.891 46.3198 220.411 45.3418 220.131 44.4168C219.851 43.4928 218.877 42.9708 217.956 43.2518C217.035 43.5328 216.515 44.5118 216.795 45.4358C217.075 46.3608 218.05 46.8828 218.971 46.6018Z" fill="white"/>
<path fill-rule="evenodd" clip-rule="evenodd" d="M149.849 28.8259C150.769 28.5449 151.289 27.5669 151.009 26.6419C150.729 25.7179 149.755 25.1959 148.834 25.4769C147.913 25.7579 147.393 26.7369 147.673 27.6609C147.953 28.5849 148.928 29.1079 149.849 28.8259Z" fill="white"/>
<path fill-rule="evenodd" clip-rule="evenodd" d="M274.466 142.039C275.387 141.757 275.907 140.779 275.627 139.854C275.347 138.93 274.372 138.408 273.452 138.689C272.531 138.97 272.011 139.949 272.291 140.873C272.571 141.797 273.546 142.32 274.466 142.039Z" fill="white"/>
<path fill-rule="evenodd" clip-rule="evenodd" d="M252.967 89.4401C253.887 89.1591 254.407 88.1801 254.127 87.2561C253.847 86.3321 252.873 85.8091 251.952 86.0911C251.031 86.3721 250.511 87.3501 250.791 88.2751C251.071 89.1991 252.046 89.7211 252.967 89.4401Z" fill="white"/>
<path fill-rule="evenodd" clip-rule="evenodd" d="M275.876 112.199C276.797 111.918 277.317 110.939 277.037 110.015C276.757 109.091 275.782 108.569 274.861 108.85C273.941 109.131 273.421 110.11 273.701 111.034C273.981 111.958 274.955 112.481 275.876 112.199Z" fill="white"/>
<path fill-rule="evenodd" clip-rule="evenodd" d="M204.849 135.549C205.769 135.268 206.29 134.29 206.01 133.365C205.73 132.441 204.755 131.919 203.834 132.2C202.914 132.481 202.393 133.46 202.673 134.384C202.953 135.308 203.928 135.831 204.849 135.549Z" fill="white"/>
<path fill-rule="evenodd" clip-rule="evenodd" d="M209.164 47.5549C208.796 48.4479 209.219 49.4729 210.108 49.8419C210.997 50.2119 212.017 49.7879 212.386 48.8949C212.754 48.0019 212.331 46.9769 211.442 46.6079C210.553 46.2379 209.532 46.6619 209.164 47.5549Z" fill="white"/>
<path fill-rule="evenodd" clip-rule="evenodd" d="M175.551 116.804C175.182 117.697 175.605 118.722 176.494 119.091C177.383 119.461 178.404 119.036 178.772 118.144C179.14 117.251 178.718 116.226 177.829 115.857C176.94 115.487 175.919 115.911 175.551 116.804Z" fill="white"/>
<path fill-rule="evenodd" clip-rule="evenodd" d="M247.149 114.522C246.781 115.414 247.203 116.439 248.092 116.809C248.981 117.179 250.002 116.754 250.37 115.862C250.739 114.969 250.316 113.944 249.427 113.574C248.538 113.205 247.517 113.629 247.149 114.522Z" fill="white"/>
<path fill-rule="evenodd" clip-rule="evenodd" d="M109.168 77.3018C108.8 78.1938 109.222 79.2188 110.112 79.5888C111.001 79.9588 112.021 79.5338 112.39 78.6408C112.758 77.7488 112.335 76.7238 111.446 76.3538C110.557 75.9838 109.536 76.4088 109.168 77.3018Z" fill="white"/>
<path fill-rule="evenodd" clip-rule="evenodd" d="M226.465 53.8262C226.096 54.7182 226.519 55.7432 227.408 56.1132C228.297 56.4832 229.318 56.0582 229.686 55.1652C230.054 54.2732 229.632 53.2482 228.743 52.8782C227.854 52.5082 226.833 52.9332 226.465 53.8262Z" fill="white"/>
<path fill-rule="evenodd" clip-rule="evenodd" d="M192.852 123.075C192.484 123.967 192.907 124.992 193.796 125.362C194.685 125.732 195.705 125.307 196.074 124.414C196.442 123.522 196.019 122.497 195.13 122.127C194.241 121.757 193.22 122.182 192.852 123.075Z" fill="white"/>
<path fill-rule="evenodd" clip-rule="evenodd" d="M264.449 120.792C264.081 121.685 264.504 122.71 265.393 123.08C266.282 123.449 267.303 123.025 267.671 122.132C268.039 121.24 267.616 120.215 266.727 119.845C265.838 119.475 264.818 119.9 264.449 120.792Z" fill="white"/>
<path fill-rule="evenodd" clip-rule="evenodd" d="M63.2985 101.454C63.0885 101.962 63.3295 102.545 63.8355 102.755C64.3415 102.966 64.9225 102.724 65.1315 102.216C65.3415 101.708 65.1005 101.125 64.5945 100.915C64.0885 100.704 63.5075 100.946 63.2985 101.454Z" fill="white"/>
<path fill-rule="evenodd" clip-rule="evenodd" d="M126.228 35.9199C126.019 36.4279 126.259 37.011 126.765 37.221C127.271 37.432 127.852 37.19 128.061 36.682C128.271 36.174 128.03 35.5909 127.524 35.3809C127.019 35.1699 126.438 35.4119 126.228 35.9199Z" fill="white"/>
<path fill-rule="evenodd" clip-rule="evenodd" d="M180.595 77.9781C180.385 78.4861 180.626 79.0691 181.131 79.2791C181.637 79.4901 182.218 79.2481 182.428 78.7401C182.637 78.2321 182.397 77.6491 181.891 77.4391C181.385 77.2281 180.804 77.4701 180.595 77.9781Z" fill="white"/>
<path fill-rule="evenodd" clip-rule="evenodd" d="M146.982 147.227C146.772 147.735 147.013 148.318 147.519 148.528C148.025 148.739 148.606 148.497 148.815 147.989C149.025 147.481 148.784 146.898 148.278 146.688C147.772 146.477 147.192 146.719 146.982 147.227Z" fill="white"/>
<path fill-rule="evenodd" clip-rule="evenodd" d="M218.579 144.945C218.37 145.453 218.61 146.036 219.116 146.246C219.622 146.457 220.203 146.215 220.413 145.707C220.622 145.199 220.382 144.616 219.876 144.405C219.37 144.195 218.789 144.437 218.579 144.945Z" fill="white"/>
<path fill-rule="evenodd" clip-rule="evenodd" d="M100.127 93.8091C99.9167 94.3171 100.158 94.9001 100.664 95.1101C101.169 95.3211 101.75 95.0791 101.96 94.5711C102.169 94.0631 101.929 93.48 101.423 93.269C100.917 93.059 100.336 93.3011 100.127 93.8091Z" fill="white"/>
<path fill-rule="evenodd" clip-rule="evenodd" d="M163.056 28.2749C162.846 28.7829 163.087 29.3659 163.593 29.5759C164.099 29.7869 164.68 29.5449 164.889 29.0369C165.099 28.5289 164.858 27.9459 164.352 27.7349C163.846 27.5249 163.265 27.7669 163.056 28.2749Z" fill="white"/>
<path fill-rule="evenodd" clip-rule="evenodd" d="M114.888 22.8019C114.678 23.3099 114.919 23.8928 115.425 24.1038C115.931 24.3138 116.512 24.0728 116.721 23.5648C116.931 23.0568 116.69 22.4729 116.184 22.2629C115.678 22.0529 115.097 22.2939 114.888 22.8019Z" fill="white"/>
<path fill-rule="evenodd" clip-rule="evenodd" d="M194.763 27.3648C194.553 27.8728 194.794 28.4558 195.3 28.6668C195.806 28.8768 196.387 28.6358 196.596 28.1278C196.806 27.6198 196.565 27.0358 196.059 26.8258C195.553 26.6158 194.972 26.8568 194.763 27.3648Z" fill="white"/>
<path fill-rule="evenodd" clip-rule="evenodd" d="M217.423 70.333C217.214 70.841 217.454 71.424 217.96 71.634C218.466 71.845 219.047 71.603 219.257 71.095C219.466 70.587 219.226 70.004 218.72 69.794C218.214 69.583 217.633 69.825 217.423 70.333Z" fill="white"/>
<path fill-rule="evenodd" clip-rule="evenodd" d="M183.81 139.582C183.6 140.09 183.841 140.673 184.347 140.883C184.853 141.094 185.434 140.852 185.643 140.344C185.853 139.836 185.612 139.253 185.106 139.042C184.6 138.832 184.019 139.074 183.81 139.582Z" fill="white"/>
<path fill-rule="evenodd" clip-rule="evenodd" d="M255.408 137.299C255.198 137.807 255.439 138.391 255.945 138.601C256.451 138.811 257.032 138.57 257.241 138.062C257.451 137.554 257.21 136.971 256.704 136.76C256.198 136.55 255.618 136.791 255.408 137.299Z" fill="white"/>
<path fill-rule="evenodd" clip-rule="evenodd" d="M43.4782 105.544C43.2682 106.052 43.5092 106.635 44.0152 106.845C44.5202 107.056 45.1012 106.814 45.3112 106.306C45.5202 105.798 45.2802 105.215 44.7742 105.004C44.2682 104.794 43.6872 105.036 43.4782 105.544Z" fill="white"/>
<path fill-rule="evenodd" clip-rule="evenodd" d="M106.408 40.0102C106.198 40.5182 106.439 41.1012 106.945 41.3112C107.451 41.5222 108.032 41.2802 108.241 40.7722C108.451 40.2642 108.21 39.6812 107.704 39.4702C107.198 39.2602 106.617 39.5022 106.408 40.0102Z" fill="white"/>
<path fill-rule="evenodd" clip-rule="evenodd" d="M160.775 82.0679C160.566 82.5759 160.806 83.1589 161.312 83.3689C161.818 83.5799 162.399 83.3379 162.609 82.8299C162.818 82.3219 162.578 81.7389 162.072 81.5289C161.566 81.3179 160.985 81.5599 160.775 82.0679Z" fill="white"/>
<path fill-rule="evenodd" clip-rule="evenodd" d="M127.158 151.317C126.948 151.825 127.189 152.408 127.695 152.618C128.201 152.829 128.782 152.587 128.991 152.079C129.201 151.571 128.96 150.988 128.454 150.777C127.948 150.567 127.367 150.809 127.158 151.317Z" fill="white"/>
<path fill-rule="evenodd" clip-rule="evenodd" d="M198.759 149.034C198.549 149.542 198.79 150.126 199.296 150.336C199.802 150.546 200.383 150.305 200.592 149.797C200.802 149.289 200.561 148.706 200.055 148.495C199.549 148.285 198.969 148.526 198.759 149.034Z" fill="white"/>
<path fill-rule="evenodd" clip-rule="evenodd" d="M52.1262 122.786C51.9172 123.294 52.1572 123.877 52.6632 124.088C53.1692 124.298 53.7502 124.056 53.9602 123.548C54.1692 123.04 53.9292 122.457 53.4232 122.247C52.9172 122.036 52.3362 122.278 52.1262 122.786Z" fill="white"/>
<path fill-rule="evenodd" clip-rule="evenodd" d="M115.056 57.252C114.846 57.76 115.087 58.343 115.593 58.554C116.099 58.764 116.679 58.522 116.889 58.014C117.099 57.506 116.858 56.923 116.352 56.713C115.846 56.502 115.265 56.744 115.056 57.252Z" fill="white"/>
<path fill-rule="evenodd" clip-rule="evenodd" d="M169.423 99.3101C169.214 99.8181 169.454 100.401 169.96 100.612C170.466 100.822 171.047 100.58 171.256 100.073C171.466 99.5651 171.225 98.9811 170.719 98.7711C170.214 98.5601 169.633 98.8021 169.423 99.3101Z" fill="white"/>
<path fill-rule="evenodd" clip-rule="evenodd" d="M75.095 125.788C74.886 126.296 75.126 126.879 75.632 127.09C76.138 127.3 76.719 127.058 76.929 126.55C77.138 126.042 76.898 125.459 76.392 125.249C75.886 125.038 75.305 125.28 75.095 125.788Z" fill="white"/>
<path fill-rule="evenodd" clip-rule="evenodd" d="M138.029 60.2539C137.819 60.7619 138.06 61.3449 138.566 61.5549C139.072 61.7659 139.653 61.5239 139.862 61.0159C140.072 60.5079 139.831 59.9249 139.325 59.7149C138.819 59.5039 138.238 59.7459 138.029 60.2539Z" fill="white"/>
<path fill-rule="evenodd" clip-rule="evenodd" d="M192.396 102.312C192.187 102.82 192.427 103.403 192.933 103.614C193.439 103.824 194.02 103.582 194.229 103.074C194.439 102.566 194.198 101.983 193.693 101.773C193.187 101.562 192.606 101.804 192.396 102.312Z" fill="white"/>
<path fill-rule="evenodd" clip-rule="evenodd" d="M97.8454 125.788C97.6354 126.296 97.8764 126.879 98.3824 127.09C98.8884 127.3 99.4694 127.058 99.6784 126.55C99.8884 126.042 99.6474 125.459 99.1414 125.249C98.6354 125.038 98.0544 125.28 97.8454 125.788Z" fill="white"/>
<path fill-rule="evenodd" clip-rule="evenodd" d="M160.775 60.2539C160.566 60.7619 160.806 61.3449 161.312 61.5549C161.818 61.7659 162.399 61.5239 162.609 61.0159C162.818 60.5079 162.578 59.9249 162.072 59.7149C161.566 59.5039 160.985 59.7459 160.775 60.2539Z" fill="white"/>
<path fill-rule="evenodd" clip-rule="evenodd" d="M215.142 102.312C214.932 102.82 215.173 103.403 215.679 103.614C216.185 103.824 216.765 103.582 216.975 103.074C217.185 102.566 216.944 101.983 216.438 101.773C215.932 101.562 215.351 101.804 215.142 102.312Z" fill="white"/>
<path fill-rule="evenodd" clip-rule="evenodd" d="M123.763 120.643C123.553 121.151 123.794 121.735 124.3 121.945C124.806 122.156 125.387 121.914 125.596 121.406C125.806 120.898 125.565 120.315 125.059 120.104C124.553 119.894 123.972 120.136 123.763 120.643Z" fill="white"/>
<path fill-rule="evenodd" clip-rule="evenodd" d="M186.697 55.109C186.488 55.617 186.728 56.201 187.234 56.411C187.74 56.621 188.321 56.38 188.53 55.872C188.74 55.364 188.499 54.781 187.993 54.57C187.488 54.36 186.907 54.601 186.697 55.109Z" fill="white"/>
<path fill-rule="evenodd" clip-rule="evenodd" d="M241.06 97.1679C240.851 97.6759 241.092 98.2589 241.597 98.4689C242.103 98.6799 242.684 98.4379 242.894 97.9299C243.103 97.4219 242.863 96.8389 242.357 96.6279C241.851 96.4179 241.27 96.6599 241.06 97.1679Z" fill="white"/>
<path fill-rule="evenodd" clip-rule="evenodd" d="M80.3454 107.982C80.1354 108.49 80.3764 109.073 80.8824 109.283C81.3884 109.494 81.9694 109.252 82.1784 108.744C82.3884 108.236 82.1474 107.653 81.6414 107.443C81.1354 107.232 80.5554 107.474 80.3454 107.982Z" fill="white"/>
<path fill-rule="evenodd" clip-rule="evenodd" d="M143.279 42.4483C143.07 42.9563 143.31 43.5393 143.816 43.7493C144.322 43.9603 144.903 43.7183 145.113 43.2103C145.322 42.7023 145.082 42.1193 144.576 41.9093C144.07 41.6983 143.489 41.9403 143.279 42.4483Z" fill="white"/>
<path fill-rule="evenodd" clip-rule="evenodd" d="M197.646 84.5059C197.436 85.0139 197.677 85.5969 198.183 85.8069C198.689 86.0179 199.269 85.7759 199.479 85.2679C199.689 84.7599 199.448 84.1769 198.942 83.9669C198.436 83.7559 197.855 83.9979 197.646 84.5059Z" fill="white"/>
<path fill-rule="evenodd" clip-rule="evenodd" d="M235.63 151.473C235.421 151.981 235.662 152.564 236.167 152.774C236.673 152.985 237.254 152.743 237.464 152.235C237.673 151.727 237.433 151.144 236.927 150.933C236.421 150.723 235.84 150.965 235.63 151.473Z" fill="white"/>
<path fill-rule="evenodd" clip-rule="evenodd" d="M117.174 100.337C116.964 100.845 117.205 101.428 117.711 101.638C118.217 101.849 118.797 101.607 119.007 101.099C119.217 100.591 118.976 100.008 118.47 99.7969C117.964 99.5869 117.383 99.8289 117.174 100.337Z" fill="white"/>
<path fill-rule="evenodd" clip-rule="evenodd" d="M180.103 34.8032C179.894 35.3112 180.134 35.8942 180.64 36.1042C181.146 36.3152 181.727 36.0732 181.936 35.5652C182.146 35.0572 181.905 34.4742 181.399 34.2632C180.894 34.0532 180.313 34.2952 180.103 34.8032Z" fill="white"/>
<path fill-rule="evenodd" clip-rule="evenodd" d="M234.47 76.8609C234.261 77.3689 234.501 77.9519 235.007 78.1619C235.513 78.3729 236.094 78.1309 236.304 77.6229C236.513 77.1149 236.273 76.5319 235.767 76.3219C235.261 76.1109 234.68 76.3529 234.47 76.8609Z" fill="white"/>
<path fill-rule="evenodd" clip-rule="evenodd" d="M200.857 146.11C200.647 146.618 200.888 147.201 201.394 147.411C201.9 147.622 202.481 147.38 202.69 146.872C202.9 146.364 202.659 145.781 202.153 145.57C201.647 145.36 201.066 145.602 200.857 146.11Z" fill="white"/>
<path fill-rule="evenodd" clip-rule="evenodd" d="M272.458 143.827C272.249 144.335 272.489 144.919 272.995 145.129C273.501 145.339 274.082 145.098 274.292 144.59C274.501 144.082 274.26 143.499 273.755 143.288C273.249 143.078 272.668 143.319 272.458 143.827Z" fill="white"/>
<path fill-rule="evenodd" clip-rule="evenodd" d="M80.3454 89.2192C80.1354 89.7262 80.3764 90.3102 80.8824 90.5202C81.3884 90.7312 81.9694 90.4892 82.1784 89.9812C82.3884 89.4732 82.1474 88.8902 81.6414 88.6792C81.1354 88.4692 80.5554 88.7112 80.3454 89.2192Z" fill="white"/>
<path fill-rule="evenodd" clip-rule="evenodd" d="M108.09 49.4679C108.614 49.3079 108.91 48.7509 108.75 48.2249C108.591 47.6989 108.036 47.4019 107.513 47.5619C106.989 47.7219 106.693 48.2789 106.852 48.8049C107.011 49.3309 107.566 49.6279 108.09 49.4679Z" fill="white"/>
<path fill-rule="evenodd" clip-rule="evenodd" d="M197.646 65.7431C197.436 66.2511 197.677 66.8341 198.183 67.0441C198.689 67.2551 199.269 67.0131 199.479 66.5051C199.689 65.9971 199.448 65.4141 198.942 65.2031C198.436 64.9931 197.855 65.2351 197.646 65.7431Z" fill="white"/>
<path fill-rule="evenodd" clip-rule="evenodd" d="M164.029 134.991C163.82 135.499 164.06 136.083 164.566 136.293C165.072 136.503 165.653 136.262 165.863 135.754C166.072 135.246 165.831 134.663 165.326 134.452C164.82 134.242 164.239 134.483 164.029 134.991Z" fill="white"/>
<path fill-rule="evenodd" clip-rule="evenodd" d="M235.63 132.709C235.421 133.217 235.662 133.801 236.167 134.011C236.673 134.221 237.254 133.98 237.464 133.472C237.673 132.964 237.433 132.381 236.927 132.17C236.421 131.96 235.84 132.201 235.63 132.709Z" fill="white"/>
<path fill-rule="evenodd" clip-rule="evenodd" d="M64.4665 80.7672C64.2565 81.2752 64.4975 81.8592 65.0035 82.0692C65.5095 82.2792 66.0905 82.0382 66.2995 81.5302C66.5095 81.0222 66.2685 80.4392 65.7625 80.2282C65.2565 80.0182 64.6755 80.2592 64.4665 80.7672Z" fill="white"/>
<path fill-rule="evenodd" clip-rule="evenodd" d="M111.668 67.1519C112.192 66.9919 112.488 66.4349 112.329 65.9089C112.169 65.3829 111.615 65.0849 111.091 65.2449C110.567 65.4049 110.271 65.9619 110.43 66.4879C110.589 67.0139 111.144 67.3119 111.668 67.1519Z" fill="white"/>
<path fill-rule="evenodd" clip-rule="evenodd" d="M181.767 57.2911C181.557 57.7991 181.798 58.3831 182.304 58.5931C182.81 58.8031 183.39 58.5621 183.6 58.0541C183.81 57.5461 183.569 56.9631 183.063 56.7521C182.557 56.5421 181.976 56.7831 181.767 57.2911Z" fill="white"/>
<path fill-rule="evenodd" clip-rule="evenodd" d="M148.15 126.54C147.941 127.048 148.181 127.631 148.687 127.842C149.193 128.052 149.774 127.811 149.983 127.303C150.193 126.795 149.952 126.212 149.446 126.001C148.941 125.791 148.36 126.032 148.15 126.54Z" fill="white"/>
<path fill-rule="evenodd" clip-rule="evenodd" d="M219.751 124.258C219.542 124.766 219.782 125.349 220.288 125.56C220.794 125.77 221.375 125.529 221.585 125.021C221.794 124.513 221.554 123.929 221.048 123.719C220.542 123.509 219.961 123.75 219.751 124.258Z" fill="white"/>
<path fill-rule="evenodd" clip-rule="evenodd" d="M83.3727 68.2262C83.1627 68.7342 83.4037 69.3172 83.9097 69.5282C84.4157 69.7382 84.9967 69.4972 85.2057 68.9892C85.4157 68.4812 85.1748 67.8982 84.6688 67.6872C84.1628 67.4772 83.5817 67.7182 83.3727 68.2262Z" fill="white"/>
<path fill-rule="evenodd" clip-rule="evenodd" d="M90.0154 60.4498C90.5394 60.2898 90.8353 59.7328 90.6753 59.2068C90.5163 58.6808 89.9613 58.3838 89.4373 58.5438C88.9143 58.7038 88.6184 59.2608 88.7774 59.7868C88.9364 60.3128 89.4914 60.6098 90.0154 60.4498Z" fill="white"/>
<path fill-rule="evenodd" clip-rule="evenodd" d="M200.67 44.7501C200.46 45.2581 200.701 45.8421 201.207 46.0521C201.712 46.2621 202.293 46.0211 202.503 45.5131C202.712 45.0051 202.472 44.4221 201.966 44.2111C201.46 44.0011 200.879 44.2421 200.67 44.7501Z" fill="white"/>
<path fill-rule="evenodd" clip-rule="evenodd" d="M167.056 113.999C166.846 114.507 167.087 115.09 167.593 115.301C168.099 115.511 168.68 115.27 168.889 114.762C169.099 114.254 168.858 113.67 168.352 113.46C167.846 113.25 167.266 113.491 167.056 113.999Z" fill="white"/>
<path fill-rule="evenodd" clip-rule="evenodd" d="M238.654 111.717C238.445 112.225 238.685 112.808 239.191 113.019C239.697 113.229 240.278 112.988 240.488 112.48C240.697 111.972 240.457 111.388 239.951 111.178C239.445 110.967 238.864 111.209 238.654 111.717Z" fill="white"/>
<path fill-rule="evenodd" clip-rule="evenodd" d="M100.673 74.4971C100.464 75.0051 100.704 75.5881 101.21 75.7981C101.716 76.0091 102.297 75.7671 102.507 75.2591C102.716 74.7511 102.476 74.1681 101.97 73.9581C101.464 73.7471 100.883 73.9891 100.673 74.4971Z" fill="white"/>
<path fill-rule="evenodd" clip-rule="evenodd" d="M83.8556 43.048C84.3796 42.888 84.6756 42.331 84.5156 41.805C84.3566 41.279 83.8016 40.982 83.2776 41.142C82.7536 41.302 82.4576 41.859 82.6176 42.385C82.7766 42.911 83.3316 43.208 83.8556 43.048Z" fill="white"/>
<path fill-rule="evenodd" clip-rule="evenodd" d="M67.2218 59.7823C67.7458 59.6223 68.0418 59.0653 67.8828 58.5393C67.7238 58.0133 67.1688 57.7153 66.6448 57.8753C66.1208 58.0353 65.8248 58.5923 65.9848 59.1183C66.1438 59.6443 66.6988 59.9423 67.2218 59.7823Z" fill="white"/>
<path fill-rule="evenodd" clip-rule="evenodd" d="M43.2619 87.1749C43.7859 87.0149 44.0819 86.4579 43.9219 85.9319C43.7629 85.4059 43.2079 85.1089 42.6839 85.2689C42.1599 85.4289 41.8639 85.9859 42.0239 86.5119C42.1829 87.0379 42.7379 87.3349 43.2619 87.1749Z" fill="white"/>
<path fill-rule="evenodd" clip-rule="evenodd" d="M23.9806 127.652C24.5036 127.492 24.7996 126.935 24.6406 126.409C24.4816 125.883 23.9266 125.585 23.4026 125.745C22.8786 125.905 22.5826 126.462 22.7426 126.988C22.9016 127.514 23.4566 127.812 23.9806 127.652Z" fill="white"/>
<path fill-rule="evenodd" clip-rule="evenodd" d="M236.816 51.1041C237.34 50.9441 237.636 50.3871 237.477 49.8611C237.317 49.3341 236.763 49.0371 236.239 49.1971C235.715 49.3571 235.419 49.9141 235.578 50.4401C235.737 50.9661 236.292 51.2641 236.816 51.1041Z" fill="white"/>
<path fill-rule="evenodd" clip-rule="evenodd" d="M216.047 37.569C216.571 37.409 216.867 36.853 216.708 36.326C216.548 35.8 215.993 35.503 215.47 35.663C214.946 35.823 214.65 36.38 214.809 36.906C214.968 37.432 215.523 37.729 216.047 37.569Z" fill="white"/>
<path fill-rule="evenodd" clip-rule="evenodd" d="M146.922 19.794C147.446 19.634 147.742 19.077 147.583 18.551C147.423 18.025 146.869 17.7281 146.345 17.8881C145.821 18.0481 145.525 18.605 145.684 19.131C145.843 19.657 146.398 19.954 146.922 19.794Z" fill="white"/>
<path fill-rule="evenodd" clip-rule="evenodd" d="M271.543 133.006C272.067 132.846 272.363 132.289 272.203 131.763C272.044 131.237 271.489 130.94 270.965 131.1C270.441 131.26 270.145 131.817 270.305 132.343C270.464 132.869 271.019 133.166 271.543 133.006Z" fill="white"/>
<path fill-rule="evenodd" clip-rule="evenodd" d="M250.039 80.4078C250.563 80.2478 250.859 79.6908 250.7 79.1648C250.54 78.6388 249.986 78.3418 249.462 78.5018C248.938 78.6618 248.642 79.2188 248.801 79.7448C248.961 80.2708 249.515 80.5678 250.039 80.4078Z" fill="white"/>
<path fill-rule="evenodd" clip-rule="evenodd" d="M272.949 103.167C273.473 103.007 273.769 102.45 273.61 101.924C273.451 101.398 272.896 101.101 272.372 101.261C271.848 101.421 271.552 101.978 271.711 102.504C271.871 103.03 272.425 103.327 272.949 103.167Z" fill="white"/>
<path fill-rule="evenodd" clip-rule="evenodd" d="M201.922 126.517C202.446 126.357 202.742 125.8 202.583 125.274C202.423 124.748 201.869 124.451 201.345 124.611C200.821 124.771 200.525 125.328 200.684 125.854C200.844 126.38 201.398 126.677 201.922 126.517Z" fill="white"/>
<path fill-rule="evenodd" clip-rule="evenodd" d="M217.97 51.021C217.761 51.529 218.001 52.112 218.507 52.322C219.013 52.533 219.594 52.291 219.803 51.783C220.013 51.275 219.772 50.692 219.267 50.482C218.761 50.271 218.18 50.513 217.97 51.021Z" fill="white"/>
<path fill-rule="evenodd" clip-rule="evenodd" d="M184.357 120.27C184.147 120.778 184.388 121.361 184.894 121.571C185.4 121.782 185.98 121.54 186.19 121.032C186.4 120.524 186.159 119.941 185.653 119.731C185.147 119.52 184.566 119.762 184.357 120.27Z" fill="white"/>
<path fill-rule="evenodd" clip-rule="evenodd" d="M255.955 117.988C255.745 118.496 255.986 119.079 256.492 119.289C256.998 119.5 257.579 119.258 257.788 118.75C257.998 118.242 257.757 117.659 257.251 117.448C256.745 117.238 256.164 117.48 255.955 117.988Z" fill="white"/>
<path fill-rule="evenodd" clip-rule="evenodd" d="M67.8853 112.199C67.7053 112.634 67.9123 113.134 68.3453 113.315C68.7793 113.495 69.2773 113.288 69.4563 112.853C69.6363 112.417 69.4293 111.917 68.9963 111.737C68.5623 111.557 68.0653 111.764 67.8853 112.199Z" fill="white"/>
<path fill-rule="evenodd" clip-rule="evenodd" d="M130.815 46.6651C130.636 47.1001 130.842 47.6001 131.276 47.7811C131.709 47.9611 132.207 47.7541 132.386 47.3191C132.566 46.8831 132.36 46.3831 131.926 46.2031C131.493 46.0231 130.995 46.2301 130.815 46.6651Z" fill="white"/>
<path fill-rule="evenodd" clip-rule="evenodd" d="M185.182 88.7232C185.002 89.1592 185.208 89.6582 185.642 89.8392C186.075 90.0192 186.573 89.8122 186.753 89.3772C186.932 88.9412 186.726 88.4422 186.293 88.2612C185.859 88.0812 185.361 88.2882 185.182 88.7232Z" fill="white"/>
<path fill-rule="evenodd" clip-rule="evenodd" d="M104.714 104.554C104.534 104.989 104.74 105.489 105.174 105.669C105.607 105.85 106.105 105.643 106.285 105.207C106.464 104.772 106.258 104.272 105.825 104.092C105.391 103.912 104.893 104.119 104.714 104.554Z" fill="white"/>
<path fill-rule="evenodd" clip-rule="evenodd" d="M167.643 39.0201C167.464 39.4551 167.67 39.9551 168.103 40.1351C168.537 40.3161 169.035 40.1091 169.214 39.6731C169.394 39.2381 169.188 38.7381 168.754 38.5581C168.32 38.3781 167.823 38.5851 167.643 39.0201Z" fill="white"/>
<path fill-rule="evenodd" clip-rule="evenodd" d="M119.475 33.548C119.296 33.983 119.502 34.483 119.935 34.663C120.369 34.843 120.867 34.636 121.046 34.201C121.226 33.766 121.02 33.266 120.586 33.086C120.153 32.905 119.655 33.112 119.475 33.548Z" fill="white"/>
<path fill-rule="evenodd" clip-rule="evenodd" d="M199.35 38.11C199.171 38.546 199.377 39.046 199.81 39.226C200.244 39.406 200.742 39.199 200.921 38.764C201.101 38.329 200.895 37.829 200.461 37.648C200.027 37.468 199.53 37.675 199.35 38.11Z" fill="white"/>
<path fill-rule="evenodd" clip-rule="evenodd" d="M222.01 81.0782C221.83 81.5132 222.036 82.0132 222.47 82.1932C222.903 82.3742 223.401 82.1672 223.581 81.7312C223.76 81.2962 223.554 80.7962 223.12 80.6162C222.687 80.4362 222.189 80.6432 222.01 81.0782Z" fill="white"/>
<path fill-rule="evenodd" clip-rule="evenodd" d="M188.397 150.327C188.217 150.762 188.424 151.262 188.857 151.442C189.291 151.623 189.788 151.416 189.968 150.98C190.148 150.545 189.941 150.045 189.508 149.865C189.074 149.685 188.577 149.892 188.397 150.327Z" fill="white"/>
<path fill-rule="evenodd" clip-rule="evenodd" d="M259.994 148.045C259.815 148.48 260.021 148.98 260.454 149.16C260.888 149.341 261.386 149.134 261.565 148.698C261.745 148.263 261.539 147.763 261.105 147.583C260.672 147.403 260.174 147.61 259.994 148.045Z" fill="white"/>
<path fill-rule="evenodd" clip-rule="evenodd" d="M48.0651 116.289C47.8851 116.724 48.0911 117.224 48.5251 117.404C48.9591 117.585 49.4561 117.378 49.6361 116.942C49.8151 116.507 49.6091 116.007 49.1761 115.827C48.7421 115.647 48.2441 115.854 48.0651 116.289Z" fill="white"/>
<path fill-rule="evenodd" clip-rule="evenodd" d="M110.994 50.755C110.815 51.19 111.021 51.69 111.454 51.87C111.888 52.051 112.386 51.844 112.565 51.408C112.745 50.973 112.539 50.473 112.105 50.293C111.672 50.113 111.174 50.32 110.994 50.755Z" fill="white"/>
<path fill-rule="evenodd" clip-rule="evenodd" d="M165.362 92.8131C165.182 93.2481 165.388 93.7481 165.822 93.9281C166.255 94.1091 166.753 93.9021 166.933 93.4661C167.112 93.0311 166.906 92.5311 166.472 92.3511C166.039 92.1711 165.541 92.3781 165.362 92.8131Z" fill="white"/>
<path fill-rule="evenodd" clip-rule="evenodd" d="M56.7175 133.531C56.5375 133.967 56.7435 134.466 57.1775 134.647C57.6105 134.827 58.1085 134.62 58.2885 134.185C58.4675 133.749 58.2615 133.25 57.8285 133.069C57.3945 132.889 56.8965 133.096 56.7175 133.531Z" fill="white"/>
<path fill-rule="evenodd" clip-rule="evenodd" d="M119.647 67.9972C119.467 68.4332 119.674 68.9322 120.107 69.1132C120.541 69.2932 121.038 69.0862 121.218 68.6512C121.398 68.2152 121.191 67.7162 120.758 67.5352C120.324 67.3552 119.827 67.5622 119.647 67.9972Z" fill="white"/>
<path fill-rule="evenodd" clip-rule="evenodd" d="M174.014 110.055C173.835 110.491 174.041 110.991 174.474 111.171C174.908 111.351 175.406 111.144 175.585 110.709C175.765 110.274 175.559 109.774 175.125 109.593C174.692 109.413 174.194 109.62 174.014 110.055Z" fill="white"/>
<path fill-rule="evenodd" clip-rule="evenodd" d="M79.6862 136.533C79.5062 136.969 79.7122 137.468 80.1462 137.649C80.5792 137.829 81.0772 137.622 81.2572 137.187C81.4362 136.751 81.2302 136.252 80.7972 136.071C80.3632 135.891 79.8652 136.098 79.6862 136.533Z" fill="white"/>
<path fill-rule="evenodd" clip-rule="evenodd" d="M142.616 70.9991C142.436 71.4351 142.643 71.9341 143.076 72.1151C143.51 72.2951 144.008 72.0881 144.187 71.6531C144.367 71.2171 144.16 70.7181 143.727 70.5371C143.293 70.3571 142.796 70.5641 142.616 70.9991Z" fill="white"/>
<path fill-rule="evenodd" clip-rule="evenodd" d="M196.983 113.057C196.804 113.493 197.01 113.992 197.444 114.173C197.877 114.353 198.375 114.146 198.554 113.711C198.734 113.275 198.528 112.776 198.094 112.595C197.661 112.415 197.163 112.622 196.983 113.057Z" fill="white"/>
<path fill-rule="evenodd" clip-rule="evenodd" d="M102.432 136.533C102.253 136.969 102.459 137.468 102.892 137.649C103.326 137.829 103.824 137.622 104.003 137.187C104.183 136.751 103.977 136.252 103.543 136.071C103.11 135.891 102.612 136.098 102.432 136.533Z" fill="white"/>
<path fill-rule="evenodd" clip-rule="evenodd" d="M165.362 70.9991C165.182 71.4351 165.388 71.9341 165.822 72.1151C166.255 72.2951 166.753 72.0881 166.933 71.6531C167.112 71.2171 166.906 70.7181 166.472 70.5371C166.039 70.3571 165.541 70.5641 165.362 70.9991Z" fill="white"/>
<path fill-rule="evenodd" clip-rule="evenodd" d="M219.729 113.057C219.549 113.493 219.756 113.992 220.189 114.173C220.623 114.353 221.12 114.146 221.3 113.711C221.48 113.275 221.273 112.776 220.84 112.595C220.406 112.415 219.908 112.622 219.729 113.057Z" fill="white"/>
<path fill-rule="evenodd" clip-rule="evenodd" d="M128.354 131.389C128.174 131.824 128.381 132.324 128.814 132.504C129.248 132.685 129.745 132.478 129.925 132.042C130.105 131.607 129.898 131.107 129.465 130.927C129.031 130.747 128.534 130.954 128.354 131.389Z" fill="white"/>
<path fill-rule="evenodd" clip-rule="evenodd" d="M191.283 65.8551C191.104 66.2901 191.31 66.7901 191.744 66.9701C192.177 67.1511 192.675 66.9441 192.854 66.5081C193.034 66.0731 192.828 65.5731 192.394 65.3931C191.961 65.2131 191.463 65.4201 191.283 65.8551Z" fill="white"/>
<path fill-rule="evenodd" clip-rule="evenodd" d="M245.651 107.913C245.471 108.348 245.677 108.848 246.111 109.028C246.544 109.209 247.042 109.002 247.222 108.566C247.401 108.131 247.195 107.631 246.762 107.451C246.328 107.271 245.83 107.478 245.651 107.913Z" fill="white"/>
<path fill-rule="evenodd" clip-rule="evenodd" d="M84.9357 118.727C84.7567 119.162 84.9627 119.662 85.3957 119.843C85.8297 120.023 86.3277 119.816 86.5067 119.381C86.6867 118.945 86.4807 118.445 86.0467 118.265C85.6137 118.085 85.1157 118.292 84.9357 118.727Z" fill="white"/>
<path fill-rule="evenodd" clip-rule="evenodd" d="M147.866 53.193C147.686 53.628 147.892 54.128 148.326 54.308C148.759 54.489 149.257 54.282 149.437 53.846C149.616 53.411 149.41 52.911 148.976 52.731C148.543 52.551 148.045 52.758 147.866 53.193Z" fill="white"/>
<path fill-rule="evenodd" clip-rule="evenodd" d="M202.233 95.2511C202.053 95.6861 202.26 96.1861 202.693 96.3671C203.127 96.5471 203.624 96.3401 203.804 95.9051C203.984 95.4691 203.777 94.9691 203.344 94.7891C202.91 94.6091 202.413 94.8161 202.233 95.2511Z" fill="white"/>
<path fill-rule="evenodd" clip-rule="evenodd" d="M121.764 111.082C121.584 111.517 121.791 112.017 122.224 112.197C122.658 112.378 123.155 112.171 123.335 111.735C123.515 111.3 123.308 110.8 122.875 110.62C122.441 110.44 121.944 110.647 121.764 111.082Z" fill="white"/>
<path fill-rule="evenodd" clip-rule="evenodd" d="M184.693 45.5479C184.514 45.9829 184.72 46.4829 185.153 46.6629C185.587 46.8439 186.085 46.6369 186.264 46.2009C186.444 45.7659 186.238 45.2659 185.804 45.0859C185.371 44.9059 184.873 45.1129 184.693 45.5479Z" fill="white"/>
<path fill-rule="evenodd" clip-rule="evenodd" d="M239.061 87.6061C238.881 88.0411 239.087 88.541 239.521 88.721C239.954 88.902 240.452 88.6951 240.632 88.2591C240.811 87.8241 240.605 87.324 240.172 87.144C239.738 86.964 239.24 87.1711 239.061 87.6061Z" fill="white"/>
<path fill-rule="evenodd" clip-rule="evenodd" d="M261.971 110.365C261.791 110.8 261.998 111.3 262.431 111.481C262.865 111.661 263.362 111.454 263.542 111.019C263.722 110.583 263.515 110.083 263.082 109.903C262.648 109.723 262.15 109.93 261.971 110.365Z" fill="white"/>
<path fill-rule="evenodd" clip-rule="evenodd" d="M84.9357 99.964C84.7567 100.399 84.9627 100.899 85.3957 101.079C85.8297 101.26 86.3277 101.053 86.5067 100.617C86.6867 100.182 86.4807 99.682 86.0467 99.502C85.6137 99.322 85.1157 99.529 84.9357 99.964Z" fill="white"/>
<path fill-rule="evenodd" clip-rule="evenodd" d="M147.866 34.4303C147.686 34.8653 147.892 35.3653 148.326 35.5453C148.759 35.7263 149.257 35.5193 149.437 35.0833C149.616 34.6483 149.41 34.1483 148.976 33.9683C148.543 33.7883 148.045 33.9953 147.866 34.4303Z" fill="white"/>
<path fill-rule="evenodd" clip-rule="evenodd" d="M202.233 76.4879C202.053 76.9229 202.26 77.4229 202.693 77.6029C203.127 77.7839 203.624 77.5769 203.804 77.1409C203.984 76.7059 203.777 76.2059 203.344 76.0259C202.91 75.8459 202.413 76.0529 202.233 76.4879Z" fill="white"/>
<path fill-rule="evenodd" clip-rule="evenodd" d="M168.619 145.737C168.44 146.172 168.646 146.672 169.08 146.852C169.513 147.033 170.011 146.826 170.19 146.39C170.37 145.955 170.164 145.455 169.73 145.275C169.297 145.095 168.799 145.302 168.619 145.737Z" fill="white"/>
<path fill-rule="evenodd" clip-rule="evenodd" d="M240.217 143.455C240.037 143.89 240.243 144.39 240.677 144.57C241.11 144.75 241.608 144.543 241.788 144.108C241.967 143.673 241.761 143.173 241.328 142.993C240.894 142.812 240.396 143.019 240.217 143.455Z" fill="white"/>
<path fill-rule="evenodd" clip-rule="evenodd" d="M121.764 92.319C121.584 92.754 121.791 93.254 122.224 93.434C122.658 93.614 123.155 93.407 123.335 92.972C123.515 92.537 123.308 92.037 122.875 91.857C122.441 91.676 121.944 91.883 121.764 92.319Z" fill="white"/>
<path fill-rule="evenodd" clip-rule="evenodd" d="M184.693 26.7848C184.514 27.2198 184.72 27.7198 185.153 27.8998C185.587 28.0798 186.085 27.8728 186.264 27.4378C186.444 27.0028 186.238 26.5028 185.804 26.3228C185.371 26.1418 184.873 26.3488 184.693 26.7848Z" fill="white"/>
<path fill-rule="evenodd" clip-rule="evenodd" d="M239.061 68.8429C238.881 69.2779 239.087 69.7779 239.521 69.9579C239.954 70.1389 240.452 69.9319 240.632 69.4959C240.811 69.0609 240.605 68.5609 240.172 68.3809C239.738 68.2009 239.24 68.4079 239.061 68.8429Z" fill="white"/>
<path fill-rule="evenodd" clip-rule="evenodd" d="M261.971 91.6021C261.791 92.0371 261.998 92.5371 262.431 92.7171C262.865 92.8981 263.362 92.6911 263.542 92.2551C263.722 91.8201 263.515 91.3201 263.082 91.1401C262.648 90.9601 262.15 91.1671 261.971 91.6021Z" fill="white"/>
<path fill-rule="evenodd" clip-rule="evenodd" d="M205.447 138.092C205.268 138.527 205.474 139.027 205.907 139.207C206.341 139.387 206.839 139.18 207.018 138.745C207.198 138.31 206.992 137.81 206.558 137.63C206.125 137.449 205.627 137.656 205.447 138.092Z" fill="white"/>
<path fill-rule="evenodd" clip-rule="evenodd" d="M277.045 135.81C276.866 136.245 277.072 136.745 277.506 136.925C277.939 137.105 278.437 136.898 278.617 136.463C278.796 136.028 278.59 135.528 278.156 135.348C277.723 135.167 277.225 135.374 277.045 135.81Z" fill="white"/>
<path fill-rule="evenodd" clip-rule="evenodd" d="M69.0567 91.5129C68.8777 91.9479 69.0837 92.4479 69.5167 92.6279C69.9507 92.8079 70.4487 92.6009 70.6277 92.1659C70.8077 91.7309 70.6017 91.2309 70.1677 91.0509C69.7347 90.8699 69.2367 91.0769 69.0567 91.5129Z" fill="white"/>
<path fill-rule="evenodd" clip-rule="evenodd" d="M117.023 56.7702C117.472 56.6322 117.726 56.1552 117.589 55.7042C117.453 55.2542 116.977 54.9992 116.529 55.1362C116.08 55.2732 115.826 55.7502 115.963 56.2012C116.099 56.6522 116.574 56.9072 117.023 56.7702Z" fill="white"/>
<path fill-rule="evenodd" clip-rule="evenodd" d="M131.987 25.9792C131.807 26.4142 132.013 26.9142 132.447 27.0942C132.88 27.2742 133.378 27.0672 133.558 26.6322C133.737 26.1972 133.531 25.6972 133.097 25.5172C132.664 25.3362 132.166 25.5432 131.987 25.9792Z" fill="white"/>
<path fill-rule="evenodd" clip-rule="evenodd" d="M186.354 68.0373C186.174 68.4723 186.381 68.9723 186.814 69.1523C187.248 69.3323 187.745 69.1253 187.925 68.6903C188.105 68.2553 187.898 67.7553 187.465 67.5753C187.031 67.3943 186.533 67.6013 186.354 68.0373Z" fill="white"/>
<path fill-rule="evenodd" clip-rule="evenodd" d="M152.74 137.286C152.561 137.721 152.767 138.221 153.201 138.401C153.634 138.581 154.132 138.374 154.311 137.939C154.491 137.504 154.285 137.004 153.851 136.824C153.418 136.643 152.92 136.85 152.74 137.286Z" fill="white"/>
<path fill-rule="evenodd" clip-rule="evenodd" d="M224.339 135.004C224.159 135.439 224.365 135.939 224.799 136.119C225.232 136.299 225.73 136.092 225.91 135.657C226.089 135.222 225.883 134.722 225.45 134.542C225.016 134.361 224.518 134.568 224.339 135.004Z" fill="white"/>
<path fill-rule="evenodd" clip-rule="evenodd" d="M87.9591 78.9718C87.7801 79.4068 87.9861 79.9069 88.4191 80.0869C88.8531 80.2669 89.3511 80.0598 89.5301 79.6248C89.7101 79.1898 89.5041 78.6898 89.0701 78.5098C88.6361 78.3288 88.1391 78.5358 87.9591 78.9718Z" fill="white"/>
<path fill-rule="evenodd" clip-rule="evenodd" d="M95.3712 50.0681C95.8202 49.9311 96.0742 49.4541 95.9372 49.0031C95.8012 48.5521 95.3252 48.2981 94.8762 48.4351C94.4272 48.5721 94.1742 49.0491 94.3102 49.5001C94.4472 49.9511 94.9222 50.2051 95.3712 50.0681Z" fill="white"/>
<path fill-rule="evenodd" clip-rule="evenodd" d="M205.26 55.4963C205.08 55.9313 205.286 56.4312 205.72 56.6112C206.154 56.7912 206.651 56.5843 206.831 56.1493C207.01 55.7143 206.804 55.2143 206.371 55.0343C205.937 54.8533 205.439 55.0603 205.26 55.4963Z" fill="white"/>
<path fill-rule="evenodd" clip-rule="evenodd" d="M171.643 124.745C171.464 125.18 171.67 125.68 172.103 125.86C172.537 126.04 173.035 125.833 173.214 125.398C173.394 124.963 173.188 124.463 172.754 124.283C172.321 124.102 171.823 124.309 171.643 124.745Z" fill="white"/>
<path fill-rule="evenodd" clip-rule="evenodd" d="M243.245 122.462C243.065 122.898 243.271 123.398 243.705 123.578C244.138 123.758 244.636 123.551 244.816 123.116C244.995 122.681 244.789 122.181 244.355 122C243.922 121.82 243.424 122.027 243.245 122.462Z" fill="white"/>
<path fill-rule="evenodd" clip-rule="evenodd" d="M105.264 85.2423C105.084 85.6773 105.29 86.1773 105.724 86.3583C106.157 86.5383 106.655 86.3313 106.835 85.8963C107.014 85.4603 106.808 84.9603 106.375 84.7803C105.941 84.6003 105.443 84.8073 105.264 85.2423Z" fill="white"/>
<path fill-rule="evenodd" clip-rule="evenodd" d="M222.561 61.7662C222.382 62.2022 222.588 62.7012 223.022 62.8822C223.455 63.0622 223.953 62.8552 224.132 62.4202C224.312 61.9842 224.106 61.4852 223.672 61.3042C223.239 61.1242 222.741 61.3312 222.561 61.7662Z" fill="white"/>
<path fill-rule="evenodd" clip-rule="evenodd" d="M188.944 131.015C188.764 131.45 188.971 131.95 189.404 132.131C189.838 132.311 190.335 132.104 190.515 131.669C190.695 131.233 190.488 130.733 190.055 130.553C189.621 130.373 189.123 130.58 188.944 131.015Z" fill="white"/>
<path fill-rule="evenodd" clip-rule="evenodd" d="M260.545 128.733C260.366 129.168 260.572 129.668 261.005 129.848C261.439 130.029 261.937 129.822 262.116 129.386C262.296 128.951 262.09 128.451 261.656 128.271C261.223 128.091 260.725 128.298 260.545 128.733Z" fill="white"/>
<path fill-rule="evenodd" clip-rule="evenodd" d="M2.278 143.385H301.723C301.907 146.428 302 149.496 302 152.585H2C2 149.496 2.094 146.428 2.278 143.385Z" fill="white"/>
<path fill-rule="evenodd" clip-rule="evenodd" d="M2.11137 146.771C17.3424 145.677 38.8534 143.951 45.0354 143.951L86.3444 146.909C90.7024 146.909 102.04 147.092 109.266 146.909C112.981 146.822 116.027 148.803 118.733 148.6C126.762 147.991 147.979 147.392 154.54 146.909C161.1 146.426 187.547 146.058 196.149 146.058C204.75 146.058 215.37 144.86 219.086 144.493C222.803 144.126 241.748 143.894 250.626 144.609C259.503 145.343 266.383 144.252 271.843 144.01C277.302 143.768 286.477 143.768 290.766 143.44C292.742 143.289 297.128 143.476 301.742 143.709C301.914 146.646 302 149.605 302 152.585H126.291C87.9024 151.072 46.7634 149.092 2.10938 146.823C2.11038 146.806 2.11037 146.788 2.11137 146.771Z" fill="#FEF7F0"/>
<path d="M114.764 120.709C114.707 121.871 113.973 122.452 112.562 122.452C112.901 122.452 109.175 122.516 101.384 122.645C96.6407 122.774 93.3387 122.71 91.4757 122.452C90.6287 122.322 90.2047 121.548 90.2047 120.129C89.9227 87.352 89.8377 62.704 89.9507 46.187C89.9507 44.38 90.4587 43.573 91.4757 43.767C92.6607 43.961 95.7097 43.961 100.622 43.767C101.355 43.702 101.779 44.025 101.892 44.735C101.835 45.316 101.807 45.928 101.807 46.574C101.976 49.413 102.005 58.155 101.892 72.802C101.779 88.739 101.807 99.804 101.976 105.998C102.033 107.482 102.682 108.257 103.924 108.321H112.731C114.086 108.321 114.764 108.902 114.764 110.063C114.82 112.322 114.82 115.87 114.764 120.709Z" fill="#171717"/>
<path d="M150.923 122.645C150.98 123.032 150.725 123.226 150.161 123.226H145.757C143.612 123.161 141.749 123.129 140.168 123.129C139.66 123.129 139.011 121.032 138.22 116.838C137.656 113.677 137.232 110.967 136.95 108.708C136.894 108.257 136.583 108.031 136.019 108.031H132.716C132.321 108.031 132.067 108.257 131.954 108.708C131.446 112.58 130.768 117.064 129.921 122.161C129.696 122.742 129.441 123.032 129.159 123.032H118.743C117.84 123.032 117.473 122.645 117.642 121.871C119.562 108.708 121.481 95.5139 123.401 82.2869C127.183 56.8649 129.441 44.1219 130.175 44.0569C133.224 43.8639 136.273 43.8639 139.321 44.0569C139.999 44.1219 142.088 56.8969 145.588 82.3829C147.395 95.8039 149.173 109.225 150.923 122.645ZM136.188 95.8359C135.341 88.4809 134.805 84.8029 134.579 84.8029C134.297 84.8029 133.958 86.3839 133.563 89.5449C133.337 91.6099 133.111 93.7069 132.885 95.8359C132.829 96.0299 133.097 96.1749 133.69 96.2719C134.283 96.3689 134.833 96.3848 135.341 96.3199C135.906 96.2559 136.188 96.0939 136.188 95.8359Z" fill="#171717"/>
<path d="M183.189 104.643C183.189 110.321 181.919 114.806 179.378 118.096C176.838 121.387 173.253 123.032 168.623 123.032C164.615 123.032 161.199 121.258 158.376 117.709C155.384 113.902 153.944 108.966 154.057 102.901C154.057 101.869 154.086 100.191 154.142 97.8688C154.199 96.5138 154.509 95.8358 155.074 95.8358C155.638 95.8358 157.233 95.7718 159.858 95.6428C162.484 95.5138 164.078 95.4488 164.643 95.4488C165.208 95.4488 165.49 96.2878 165.49 97.9648V102.708C165.49 107.353 166.591 109.676 168.792 109.676C170.543 109.676 171.474 108.095 171.587 104.934L171.756 99.5138C171.813 97.9008 170.345 95.4168 167.353 92.0618C162.328 86.3838 159.562 83.1898 159.054 82.4798C156.062 78.4798 154.566 74.8338 154.566 71.5438V63.3168C154.566 57.4458 155.779 52.7678 158.207 49.2838C160.804 45.4768 164.587 43.5088 169.555 43.3798C173.62 43.3148 176.866 44.9278 179.293 48.2188C181.552 51.3158 182.681 55.4128 182.681 60.5098V70.0918C182.681 71.0598 182.37 71.5758 181.749 71.6398C180.112 71.8338 177.035 71.8338 172.519 71.6398C171.785 71.6398 171.418 71.1568 171.418 70.1888C171.361 68.7048 171.418 66.1238 171.587 62.4458C171.644 61.0908 171.432 59.7518 170.952 58.4298C170.472 57.1068 169.837 56.4458 169.047 56.4458C166.845 56.4458 165.744 58.5748 165.744 62.8328V67.8658C165.744 69.8658 167.24 72.7048 170.232 76.3828C173.055 79.8028 175.878 83.2218 178.701 86.6418C181.693 90.8998 183.189 94.6748 183.189 97.9648V104.643Z" fill="#171717"/>
<path d="M215.706 55.865C215.706 56.768 215.226 57.22 214.266 57.22C213.871 57.22 213.024 57.188 211.725 57.123H208.677C207.491 57.123 206.898 57.607 206.898 58.575L207.068 121C207.068 122.032 206.757 122.581 206.136 122.645C204.104 122.968 200.886 122.935 196.482 122.548C195.748 122.484 195.381 121.935 195.381 120.903L195.297 58.478C195.297 57.575 194.958 57.123 194.281 57.123H188.014C187.111 57.059 186.659 56.607 186.659 55.768C186.659 56.478 186.602 55.155 186.49 51.8C186.377 49.606 186.433 47.896 186.659 46.67C186.885 44.993 187.393 44.154 188.183 44.154C195.184 44.09 203.906 44.09 214.351 44.154C215.141 44.154 215.565 44.735 215.621 45.896C215.734 49.897 215.762 53.219 215.706 55.865Z" fill="#171717"/>
<path d="M152.013 14.7009C153.725 14.7009 155.112 13.3135 155.112 11.6019C155.112 9.8904 153.725 8.50293 152.013 8.50293C150.302 8.50293 148.914 9.8904 148.914 11.6019C148.914 13.3135 150.302 14.7009 152.013 14.7009Z" fill="#25282B"/>
<path fill-rule="evenodd" clip-rule="evenodd" d="M170.424 11.383C171.204 11.486 171.754 12.202 171.652 12.982C171.549 13.762 170.832 14.312 170.052 14.209C169.272 14.107 168.722 13.39 168.825 12.61C168.928 11.83 169.644 11.28 170.424 11.383Z" fill="#25282B"/>
<path fill-rule="evenodd" clip-rule="evenodd" d="M134.099 11.383C133.319 11.486 132.769 12.202 132.872 12.982C132.975 13.762 133.691 14.312 134.471 14.209C135.251 14.107 135.801 13.39 135.699 12.61C135.596 11.83 134.879 11.28 134.099 11.383Z" fill="#25282B"/>
<path fill-rule="evenodd" clip-rule="evenodd" d="M205.987 20.9119C206.714 21.2129 207.059 22.0479 206.758 22.7749C206.457 23.5019 205.623 23.8469 204.896 23.5459C204.169 23.2449 203.823 22.4109 204.124 21.6839C204.425 20.9569 205.26 20.6109 205.987 20.9119Z" fill="#25282B"/>
<path fill-rule="evenodd" clip-rule="evenodd" d="M98.533 20.9119C97.806 21.2129 97.46 22.0479 97.761 22.7749C98.062 23.5019 98.897 23.8469 99.624 23.5459C100.351 23.2449 100.696 22.4109 100.395 21.6839C100.094 20.9569 99.26 20.6109 98.533 20.9119Z" fill="#25282B"/>
<path fill-rule="evenodd" clip-rule="evenodd" d="M237.872 39.3217C238.496 39.8007 238.614 40.6957 238.135 41.3197C237.656 41.9447 236.761 42.0627 236.136 41.5837C235.512 41.1047 235.394 40.2087 235.873 39.5847C236.352 38.9607 237.248 38.8427 237.872 39.3217Z" fill="#25282B"/>
<path fill-rule="evenodd" clip-rule="evenodd" d="M66.6472 39.3217C66.0232 39.8007 65.9052 40.6957 66.3842 41.3197C66.8632 41.9447 67.7582 42.0627 68.3822 41.5837C69.0062 41.1047 69.1243 40.2087 68.6453 39.5847C68.1663 38.9607 67.2712 38.8427 66.6472 39.3217Z" fill="#25282B"/>
<path fill-rule="evenodd" clip-rule="evenodd" d="M263.908 65.3567C264.387 65.9807 264.269 66.8757 263.645 67.3547C263.021 67.8337 262.125 67.7157 261.646 67.0917C261.167 66.4677 261.285 65.5727 261.909 65.0937C262.533 64.6147 263.429 64.7327 263.908 65.3567Z" fill="#25282B"/>
<path fill-rule="evenodd" clip-rule="evenodd" d="M40.6108 65.3567C40.1318 65.9807 40.2498 66.8757 40.8738 67.3547C41.4978 67.8337 42.3938 67.7157 42.8728 67.0917C43.3518 66.4677 43.2338 65.5727 42.6088 65.0937C41.9848 64.6147 41.0898 64.7327 40.6108 65.3567Z" fill="#25282B"/>
<path fill-rule="evenodd" clip-rule="evenodd" d="M188.518 14.9821C189.278 15.1861 189.729 15.9681 189.526 16.7281C189.322 17.4881 188.54 17.9401 187.78 17.7361C187.02 17.5321 186.568 16.7501 186.772 15.9901C186.976 15.2301 187.758 14.7781 188.518 14.9821Z" fill="#25282B"/>
<path fill-rule="evenodd" clip-rule="evenodd" d="M116.002 14.9821C115.242 15.1861 114.79 15.9681 114.994 16.7281C115.197 17.4881 115.98 17.9401 116.74 17.7361C117.5 17.5321 117.951 16.7501 117.748 15.9901C117.544 15.2301 116.762 14.7781 116.002 14.9821Z" fill="#25282B"/>
<path fill-rule="evenodd" clip-rule="evenodd" d="M223.372 27.6231C224.853 28.4781 225.362 30.3751 224.507 31.8561C223.651 33.3381 221.754 33.8461 220.273 32.9911C218.791 32.1351 218.283 30.2381 219.138 28.7571C219.994 27.2761 221.891 26.7671 223.372 27.6231Z" fill="#25282B"/>
<path fill-rule="evenodd" clip-rule="evenodd" d="M81.1517 27.6231C79.6697 28.4781 79.1617 30.3751 80.0167 31.8561C80.8717 33.3381 82.7687 33.8461 84.2507 32.9911C85.7317 32.1351 86.2407 30.2381 85.3847 28.7571C84.5297 27.2761 82.6327 26.7671 81.1517 27.6231Z" fill="#25282B"/>
<path fill-rule="evenodd" clip-rule="evenodd" d="M251.742 51.4858C252.298 52.0418 252.298 52.9458 251.742 53.5018C251.185 54.0578 250.282 54.0578 249.726 53.5018C249.169 52.9458 249.169 52.0418 249.726 51.4858C250.282 50.9298 251.185 50.9298 251.742 51.4858Z" fill="#25282B"/>
<path fill-rule="evenodd" clip-rule="evenodd" d="M52.7764 51.4858C52.2204 52.0418 52.2204 52.9458 52.7764 53.5018C53.3324 54.0578 54.2364 54.0578 54.7924 53.5018C55.3484 52.9458 55.3484 52.0418 54.7924 51.4858C54.2364 50.9298 53.3324 50.9298 52.7764 51.4858Z" fill="#25282B"/>
<path fill-rule="evenodd" clip-rule="evenodd" d="M275.607 79.8602C276.462 81.3412 275.954 83.2382 274.473 84.0932C272.991 84.9492 271.094 84.4402 270.239 82.9592C269.384 81.4782 269.892 79.5802 271.373 78.7252C272.855 77.8702 274.752 78.3782 275.607 79.8602Z" fill="#25282B"/>
<path fill-rule="evenodd" clip-rule="evenodd" d="M28.911 79.8602C28.056 81.3412 28.565 83.2382 30.046 84.0932C31.527 84.9492 33.424 84.4402 34.28 82.9592C35.135 81.4782 34.627 79.5802 33.145 78.7252C31.664 77.8702 29.767 78.3782 28.911 79.8602Z" fill="#25282B"/>
<path fill-rule="evenodd" clip-rule="evenodd" d="M282.317 97.2429C282.618 97.9699 282.273 98.8039 281.546 99.1049C280.819 99.4059 279.985 99.0609 279.683 98.3339C279.382 97.6069 279.728 96.7729 280.455 96.4709C281.182 96.1699 282.016 96.5159 282.317 97.2429Z" fill="#25282B"/>
<path fill-rule="evenodd" clip-rule="evenodd" d="M22.2024 97.2429C21.9014 97.9699 22.2474 98.8039 22.9744 99.1049C23.7014 99.4059 24.5354 99.0609 24.8364 98.3339C25.1374 97.6069 24.7924 96.7729 24.0654 96.4709C23.3384 96.1699 22.5034 96.5159 22.2024 97.2429Z" fill="#25282B"/>
<path fill-rule="evenodd" clip-rule="evenodd" d="M288.248 114.713C288.451 115.473 288 116.255 287.24 116.459C286.48 116.662 285.697 116.211 285.494 115.451C285.29 114.691 285.742 113.908 286.502 113.705C287.262 113.501 288.044 113.953 288.248 114.713Z" fill="#25282B"/>
<path fill-rule="evenodd" clip-rule="evenodd" d="M16.2716 114.713C16.0676 115.473 16.5196 116.255 17.2796 116.459C18.0396 116.662 18.8216 116.211 19.0256 115.451C19.2286 114.691 18.7776 113.908 18.0176 113.705C17.2576 113.501 16.4756 113.953 16.2716 114.713Z" fill="#25282B"/>
<path fill-rule="evenodd" clip-rule="evenodd" d="M291.847 132.807C291.95 133.587 291.4 134.304 290.62 134.407C289.84 134.509 289.123 133.959 289.02 133.179C288.918 132.399 289.467 131.683 290.247 131.58C291.027 131.477 291.744 132.027 291.847 132.807Z" fill="#25282B"/>
<path fill-rule="evenodd" clip-rule="evenodd" d="M12.6726 132.807C12.5696 133.587 13.1196 134.304 13.8996 134.407C14.6796 134.509 15.3966 133.959 15.4986 133.179C15.6016 132.399 15.0516 131.683 14.2716 131.58C13.4916 131.477 12.7756 132.027 12.6726 132.807Z" fill="#25282B"/>
<path fill-rule="evenodd" clip-rule="evenodd" d="M294.725 151.217C294.725 152.927 293.337 154.316 291.626 154.316C289.915 154.316 288.527 152.927 288.527 151.217C288.527 149.506 289.915 148.117 291.626 148.117C293.337 148.117 294.725 149.506 294.725 151.217Z" fill="#25282B"/>
<path fill-rule="evenodd" clip-rule="evenodd" d="M9.79297 151.217C9.79297 152.927 11.182 154.316 12.893 154.316C14.603 154.316 15.992 152.927 15.992 151.217C15.992 149.506 14.603 148.117 12.893 148.117C11.182 148.117 9.79297 149.506 9.79297 151.217Z" fill="#25282B"/>
<path d="M239.561 124.411V134.976C239.549 135.401 239.287 135.753 238.959 135.835C238.527 135.944 237.975 135.583 237.911 134.976V119.715C237.784 118.488 236.847 117.531 235.733 117.402C234.431 117.25 233.132 118.259 232.959 119.715V138.499C232.802 138.871 232.428 139.097 232.047 139.061C231.721 139.03 231.436 138.812 231.307 138.499V127.934C230.993 126.658 229.811 125.814 228.59 125.927C227.527 126.026 226.614 126.835 226.355 127.934V138.499C226.469 139.023 226.922 140.789 228.59 142.057C229.65 142.862 230.731 143.108 231.307 143.195V152.585H239.561V140.847C240.092 140.751 241.608 140.405 242.876 139.061C244.429 137.416 244.507 135.444 244.512 134.976V124.411C244.127 123.429 243.214 122.758 242.185 122.701C241.055 122.639 239.99 123.328 239.561 124.411Z" fill="#0C543B"/>
<path d="M243.034 132.616V130.27V129.095C243.095 129.168 243.452 129.58 243.878 129.546C244.384 129.505 244.908 128.84 244.793 127.922V126.747V125.574L244.792 124.399C244.465 123.339 243.485 122.581 242.358 122.503C241.093 122.415 239.89 123.201 239.512 124.4V125.574V126.747L239.513 127.923V129.096V130.27V131.443V132.616V133.791L239.514 134.964C239.736 135.683 240.422 136.189 241.203 136.217C242.033 136.247 242.795 135.73 243.034 134.964V133.791V132.616Z" fill="white"/>
<path d="M238.161 132.617L238.16 130.271V129.096V127.923V126.748V125.575L238.159 124.4V123.227V122.052V120.879V119.704C238.098 118.401 237.024 117.36 235.743 117.25C234.293 117.125 232.899 118.219 232.816 119.704C232.816 120.096 232.816 120.488 232.816 120.879V122.052V123.227L232.817 124.4V125.575V126.748V127.924V129.096V130.271V131.444L232.818 132.617C232.807 133.347 233.261 133.911 233.796 133.995C234.162 134.053 234.475 133.873 234.598 133.792V134.965V136.14V137.313L234.599 138.488V139.661C234.702 140.124 235.161 140.425 235.613 140.369C235.988 140.322 236.303 140.037 236.379 139.661C236.379 139.27 236.379 138.879 236.379 138.488V137.313V136.14L236.378 134.965V133.792C236.425 134.19 236.732 134.506 237.105 134.567C237.572 134.643 238.081 134.309 238.161 133.792C238.161 133.4 238.161 133.008 238.161 132.617Z" fill="white"/>
<path d="M233.851 144.719C233.657 143.735 232.535 142.969 231.273 143.184V144.357V146.705C231.313 147.119 231.635 147.442 232.018 147.483C232.462 147.531 232.9 147.191 232.953 146.705C233.632 146.217 233.992 145.435 233.851 144.719Z" fill="white"/>
<path d="M231.565 133.793V132.617L231.564 131.445V130.272V129.097V127.923C231.349 126.72 230.219 125.826 228.906 125.812C227.569 125.797 226.402 126.699 226.184 127.924V129.097V130.272L226.185 132.618V133.793V134.966V136.141C226.09 136.851 226.515 137.443 227.052 137.553C227.504 137.646 227.901 137.37 227.978 137.314C228.052 137.657 228.309 137.933 228.634 138.009C229.083 138.113 229.618 137.828 229.773 137.313C229.773 136.923 229.773 136.532 229.773 136.14V134.966C229.862 135.364 230.25 135.65 230.686 135.642C231.11 135.634 231.478 135.353 231.565 134.965C231.565 134.575 231.565 134.183 231.565 133.793Z" fill="white"/>
<path d="M235.568 146.677C235.543 147.144 235.899 147.542 236.364 147.567C236.829 147.592 237.225 147.233 237.25 146.767C237.276 146.299 236.92 145.901 236.455 145.876C235.99 145.852 235.593 146.21 235.568 146.677Z" fill="white"/>
<path d="M237.552 145.673C237.527 146.137 237.88 146.532 238.342 146.557C238.804 146.581 239.198 146.225 239.223 145.762C239.248 145.298 238.894 144.903 238.433 144.878C237.971 144.853 237.577 145.209 237.552 145.673Z" fill="white"/>
<defs>
<linearGradient id="paint0_linear_678_3460" x1="152" y1="20.7527" x2="152" y2="122.446" gradientUnits="userSpaceOnUse">
<stop stop-color="#595959"/>
<stop offset="1" stop-color="#C8C8C8"/>
</linearGradient>
</defs>
</svg>
