<svg width="300" height="155" viewBox="0 0 300 155" fill="none" xmlns="http://www.w3.org/2000/svg">
<path fill-rule="evenodd" clip-rule="evenodd" d="M300 150.191C300 67.3484 232.843 0.191406 150 0.191406C67.158 0.191406 0 67.3484 0 150.191H300Z" fill="url(#paint0_linear_1114_503)"/>
<path fill-rule="evenodd" clip-rule="evenodd" d="M3.39091 118.329C5.18591 118.367 6.81091 118.342 8.21091 118.204C14.9789 117.563 32.2799 120.232 34.5349 121.326C36.7909 122.446 44.3019 125.329 48.4299 125.568C52.5799 125.783 63.8589 126.236 69.8589 127.997C75.8809 129.786 85.2869 131.333 88.8509 131.787C91.1519 132.08 98.5729 134.322 105.024 135.63C97.9189 136.137 90.0459 136.137 85.7609 136.137H42.3169C36.2419 136.137 15.1049 140.899 0.128906 143.92C0.488906 135.176 1.59691 126.625 3.39091 118.329Z" fill="#FAE4D7"/>
<path fill-rule="evenodd" clip-rule="evenodd" d="M0.129 143.916C15.106 140.895 36.239 136.133 42.314 136.133H85.758C90.044 136.133 97.916 136.133 105.022 135.626C108.675 135.387 112.126 135.012 114.788 134.452C122.683 132.771 143.547 131.117 149.999 129.782C156.45 128.447 182.458 127.434 190.917 127.434C199.375 127.434 209.818 124.124 213.473 123.111C217.127 122.096 235.758 121.456 244.488 123.431C253.217 125.459 259.983 122.443 265.353 121.776C270.721 121.109 279.744 121.109 283.962 120.202C286.801 119.591 292.204 120.975 297.325 121.84C299.081 131.02 300 140.497 300 150.19H130.294C90.331 148.777 47.263 146.761 0.125 144.031C0.126 143.992 0.128 143.954 0.129 143.916Z" fill="#FEF7F0"/>
<path fill-rule="evenodd" clip-rule="evenodd" d="M55.9526 108.155C55.6516 108.883 55.9966 109.719 56.7226 110.021C57.4476 110.323 58.2796 109.976 58.5806 109.248C58.8806 108.52 58.5356 107.684 57.8106 107.382C57.0856 107.081 56.2526 107.427 55.9526 108.155Z" fill="white"/>
<path fill-rule="evenodd" clip-rule="evenodd" d="M118.886 42.6203C118.586 43.3483 118.931 44.1843 119.656 44.4863C120.381 44.7883 121.214 44.4413 121.514 43.7133C121.815 42.9853 121.47 42.1493 120.744 41.8473C120.019 41.5453 119.187 41.8923 118.886 42.6203Z" fill="white"/>
<path fill-rule="evenodd" clip-rule="evenodd" d="M173.249 84.6785C172.949 85.4065 173.294 86.2425 174.019 86.5445C174.744 86.8465 175.577 86.4995 175.878 85.7715C176.178 85.0435 175.833 84.2075 175.108 83.9055C174.383 83.6045 173.55 83.9505 173.249 84.6785Z" fill="white"/>
<path fill-rule="evenodd" clip-rule="evenodd" d="M211.237 151.648C210.937 152.376 211.282 153.212 212.007 153.514C212.732 153.815 213.565 153.469 213.865 152.741C214.166 152.013 213.821 151.177 213.096 150.875C212.37 150.573 211.538 150.92 211.237 151.648Z" fill="white"/>
<path fill-rule="evenodd" clip-rule="evenodd" d="M92.7807 100.511C92.4797 101.239 92.8247 102.075 93.5497 102.377C94.2747 102.678 95.1077 102.332 95.4087 101.604C95.7087 100.876 95.3637 100.04 94.6387 99.7379C93.9137 99.4359 93.0807 99.7829 92.7807 100.511Z" fill="white"/>
<path fill-rule="evenodd" clip-rule="evenodd" d="M155.71 34.9758C155.409 35.7038 155.754 36.5398 156.48 36.8418C157.205 37.1428 158.038 36.7968 158.338 36.0688C158.638 35.3408 158.293 34.5048 157.568 34.2028C156.843 33.9008 156.01 34.2478 155.71 34.9758Z" fill="white"/>
<path fill-rule="evenodd" clip-rule="evenodd" d="M107.546 29.5023C107.245 30.2313 107.59 31.0673 108.316 31.3683C109.041 31.6703 109.874 31.3243 110.174 30.5953C110.474 29.8673 110.129 29.0313 109.404 28.7303C108.679 28.4283 107.846 28.7743 107.546 29.5023Z" fill="white"/>
<path fill-rule="evenodd" clip-rule="evenodd" d="M187.417 34.0652C187.116 34.7942 187.461 35.6302 188.187 35.9312C188.912 36.2332 189.745 35.8872 190.045 35.1582C190.345 34.4302 190 33.5942 189.275 33.2922C188.55 32.9912 187.717 33.3372 187.417 34.0652Z" fill="white"/>
<path fill-rule="evenodd" clip-rule="evenodd" d="M210.077 77.0344C209.777 77.7624 210.122 78.5984 210.847 78.9004C211.572 79.2014 212.405 78.8554 212.705 78.1274C213.006 77.3994 212.661 76.5634 211.936 76.2614C211.21 75.9594 210.378 76.3064 210.077 77.0344Z" fill="white"/>
<path fill-rule="evenodd" clip-rule="evenodd" d="M176.464 146.284C176.163 147.012 176.508 147.848 177.233 148.15C177.959 148.451 178.791 148.105 179.092 147.377C179.392 146.649 179.047 145.813 178.322 145.511C177.597 145.209 176.764 145.556 176.464 146.284Z" fill="white"/>
<path fill-rule="evenodd" clip-rule="evenodd" d="M248.065 144.003C247.765 144.731 248.109 145.567 248.835 145.869C249.56 146.17 250.393 145.824 250.693 145.096C250.993 144.368 250.649 143.531 249.923 143.23C249.198 142.928 248.365 143.275 248.065 144.003Z" fill="white"/>
<path fill-rule="evenodd" clip-rule="evenodd" d="M36.1323 112.245C35.8313 112.973 36.1763 113.809 36.9013 114.111C37.6273 114.412 38.4593 114.066 38.7603 113.338C39.0603 112.61 38.7153 111.774 37.9903 111.472C37.2653 111.17 36.4323 111.517 36.1323 112.245Z" fill="white"/>
<path fill-rule="evenodd" clip-rule="evenodd" d="M99.0619 46.7102C98.7609 47.4382 99.1059 48.2742 99.8319 48.5762C100.557 48.8772 101.39 48.5312 101.69 47.8032C101.99 47.0752 101.645 46.2392 100.92 45.9372C100.195 45.6352 99.3619 45.9822 99.0619 46.7102Z" fill="white"/>
<path fill-rule="evenodd" clip-rule="evenodd" d="M153.429 88.7688C153.129 89.4968 153.474 90.3328 154.199 90.6348C154.924 90.9358 155.757 90.5898 156.057 89.8618C156.358 89.1338 156.013 88.2978 155.288 87.9958C154.562 87.6938 153.73 88.0408 153.429 88.7688Z" fill="white"/>
<path fill-rule="evenodd" clip-rule="evenodd" d="M44.784 129.487C44.484 130.215 44.829 131.052 45.554 131.353C46.279 131.655 47.112 131.308 47.412 130.58C47.713 129.852 47.368 129.016 46.643 128.714C45.917 128.413 45.085 128.759 44.784 129.487Z" fill="white"/>
<path fill-rule="evenodd" clip-rule="evenodd" d="M107.714 63.9519C107.413 64.6799 107.758 65.5159 108.483 65.8179C109.209 66.1199 110.041 65.7729 110.342 65.0449C110.642 64.3169 110.297 63.4809 109.572 63.1789C108.847 62.8779 108.014 63.2239 107.714 63.9519Z" fill="white"/>
<path fill-rule="evenodd" clip-rule="evenodd" d="M162.081 106.011C161.781 106.739 162.126 107.576 162.851 107.877C163.576 108.179 164.409 107.832 164.709 107.104C165.01 106.376 164.665 105.54 163.939 105.238C163.214 104.937 162.381 105.283 162.081 106.011Z" fill="white"/>
<path fill-rule="evenodd" clip-rule="evenodd" d="M67.7528 132.491C67.4528 133.219 67.7978 134.055 68.5228 134.357C69.2478 134.659 70.0808 134.312 70.3808 133.584C70.6818 132.856 70.3368 132.02 69.6118 131.718C68.8868 131.417 68.0538 131.763 67.7528 132.491Z" fill="white"/>
<path fill-rule="evenodd" clip-rule="evenodd" d="M130.683 66.9558C130.382 67.6838 130.727 68.5198 131.453 68.8218C132.178 69.1238 133.01 68.7768 133.311 68.0488C133.611 67.3208 133.266 66.4848 132.541 66.1828C131.816 65.8818 130.983 66.2278 130.683 66.9558Z" fill="white"/>
<path fill-rule="evenodd" clip-rule="evenodd" d="M185.05 109.014C184.75 109.742 185.095 110.579 185.82 110.88C186.545 111.182 187.378 110.835 187.678 110.107C187.979 109.379 187.634 108.543 186.908 108.241C186.183 107.94 185.351 108.286 185.05 109.014Z" fill="white"/>
<path fill-rule="evenodd" clip-rule="evenodd" d="M90.499 132.491C90.199 133.219 90.543 134.055 91.269 134.357C91.994 134.659 92.827 134.312 93.127 133.584C93.427 132.856 93.082 132.02 92.357 131.718C91.632 131.417 90.799 131.763 90.499 132.491Z" fill="white"/>
<path fill-rule="evenodd" clip-rule="evenodd" d="M153.429 66.9558C153.129 67.6838 153.474 68.5198 154.199 68.8218C154.924 69.1238 155.757 68.7768 156.057 68.0488C156.358 67.3208 156.013 66.4848 155.288 66.1828C154.562 65.8818 153.73 66.2278 153.429 66.9558Z" fill="white"/>
<path fill-rule="evenodd" clip-rule="evenodd" d="M207.796 109.014C207.495 109.742 207.84 110.579 208.565 110.88C209.291 111.182 210.123 110.835 210.424 110.107C210.724 109.379 210.379 108.543 209.654 108.241C208.929 107.94 208.096 108.286 207.796 109.014Z" fill="white"/>
<path fill-rule="evenodd" clip-rule="evenodd" d="M116.421 127.347C116.12 128.075 116.465 128.911 117.19 129.213C117.916 129.514 118.748 129.168 119.049 128.44C119.349 127.712 119.004 126.876 118.279 126.574C117.554 126.272 116.721 126.619 116.421 127.347Z" fill="white"/>
<path fill-rule="evenodd" clip-rule="evenodd" d="M179.35 61.8117C179.05 62.5397 179.395 63.3757 180.12 63.6777C180.845 63.9787 181.678 63.6327 181.978 62.9047C182.279 62.1767 181.934 61.3397 181.208 61.0387C180.483 60.7367 179.65 61.0837 179.35 61.8117Z" fill="white"/>
<path fill-rule="evenodd" clip-rule="evenodd" d="M233.718 103.87C233.418 104.598 233.763 105.434 234.488 105.736C235.213 106.037 236.046 105.691 236.347 104.963C236.647 104.235 236.302 103.399 235.577 103.097C234.852 102.795 234.019 103.142 233.718 103.87Z" fill="white"/>
<path fill-rule="evenodd" clip-rule="evenodd" d="M73.0029 114.682C72.7029 115.41 73.0469 116.246 73.7729 116.548C74.4979 116.85 75.3309 116.503 75.6309 115.775C75.9309 115.047 75.5869 114.211 74.8609 113.909C74.1359 113.608 73.3029 113.954 73.0029 114.682Z" fill="white"/>
<path fill-rule="evenodd" clip-rule="evenodd" d="M135.932 49.1477C135.632 49.8757 135.977 50.7117 136.702 51.0137C137.427 51.3147 138.26 50.9687 138.56 50.2407C138.861 49.5127 138.516 48.6767 137.791 48.3747C137.065 48.0727 136.233 48.4197 135.932 49.1477Z" fill="white"/>
<path fill-rule="evenodd" clip-rule="evenodd" d="M190.3 91.2058C189.999 91.9338 190.344 92.7698 191.069 93.0718C191.795 93.3738 192.627 93.0268 192.928 92.2988C193.228 91.5708 192.883 90.7348 192.158 90.4328C191.433 90.1318 190.6 90.4778 190.3 91.2058Z" fill="white"/>
<path fill-rule="evenodd" clip-rule="evenodd" d="M109.831 107.038C109.53 107.766 109.875 108.602 110.6 108.904C111.326 109.205 112.158 108.859 112.459 108.131C112.759 107.403 112.414 106.567 111.689 106.265C110.964 105.963 110.131 106.31 109.831 107.038Z" fill="white"/>
<path fill-rule="evenodd" clip-rule="evenodd" d="M172.761 41.5031C172.461 42.2311 172.806 43.0671 173.531 43.3691C174.256 43.6701 175.089 43.3241 175.389 42.5961C175.69 41.8681 175.345 41.0321 174.619 40.7301C173.894 40.4281 173.061 40.7751 172.761 41.5031Z" fill="white"/>
<path fill-rule="evenodd" clip-rule="evenodd" d="M227.128 83.5617C226.828 84.2897 227.173 85.1257 227.898 85.4277C228.623 85.7287 229.456 85.3827 229.756 84.6547C230.057 83.9267 229.712 83.0907 228.987 82.7887C228.261 82.4867 227.429 82.8337 227.128 83.5617Z" fill="white"/>
<path fill-rule="evenodd" clip-rule="evenodd" d="M265.112 150.531C264.812 151.259 265.157 152.095 265.882 152.397C266.607 152.698 267.44 152.352 267.74 151.624C268.041 150.895 267.696 150.059 266.971 149.758C266.245 149.456 265.413 149.802 265.112 150.531Z" fill="white"/>
<path fill-rule="evenodd" clip-rule="evenodd" d="M73.0029 95.9211C72.7029 96.6491 73.0469 97.4851 73.7729 97.7871C74.4979 98.0881 75.3309 97.7421 75.6309 97.0141C75.9309 96.2861 75.5869 95.4501 74.8609 95.1481C74.1359 94.8461 73.3029 95.1931 73.0029 95.9211Z" fill="white"/>
<path fill-rule="evenodd" clip-rule="evenodd" d="M135.932 30.386C135.632 31.114 135.977 31.9499 136.702 32.2519C137.427 32.5529 138.26 32.207 138.56 31.479C138.861 30.751 138.516 29.9139 137.791 29.6129C137.065 29.3109 136.233 29.658 135.932 30.386Z" fill="white"/>
<path fill-rule="evenodd" clip-rule="evenodd" d="M190.3 72.4445C189.999 73.1725 190.344 74.0085 191.069 74.3105C191.795 74.6115 192.627 74.2655 192.928 73.5375C193.228 72.8095 192.883 71.9735 192.158 71.6715C191.433 71.3695 190.6 71.7165 190.3 72.4445Z" fill="white"/>
<path fill-rule="evenodd" clip-rule="evenodd" d="M156.686 141.695C156.386 142.423 156.731 143.259 157.456 143.561C158.181 143.862 159.014 143.516 159.314 142.788C159.615 142.06 159.27 141.223 158.544 140.922C157.819 140.62 156.987 140.967 156.686 141.695Z" fill="white"/>
<path fill-rule="evenodd" clip-rule="evenodd" d="M228.284 139.413C227.984 140.141 228.329 140.977 229.054 141.278C229.779 141.58 230.612 141.234 230.913 140.506C231.213 139.777 230.868 138.941 230.143 138.64C229.418 138.338 228.585 138.684 228.284 139.413Z" fill="white"/>
<path fill-rule="evenodd" clip-rule="evenodd" d="M57.1244 87.4681C56.8234 88.1961 57.1684 89.0321 57.8944 89.3331C58.6194 89.6351 59.4524 89.2891 59.7524 88.5611C60.0524 87.8321 59.7074 86.9961 58.9824 86.6951C58.2574 86.3931 57.4244 86.7391 57.1244 87.4681Z" fill="white"/>
<path fill-rule="evenodd" clip-rule="evenodd" d="M120.063 63.1263C120.814 62.8973 121.238 62.0993 121.01 61.3453C120.781 60.5913 119.986 60.1643 119.235 60.3943C118.484 60.6233 118.06 61.4223 118.288 62.1763C118.517 62.9303 119.312 63.3563 120.063 63.1263Z" fill="white"/>
<path fill-rule="evenodd" clip-rule="evenodd" d="M174.421 63.9955C174.12 64.7235 174.465 65.5595 175.19 65.8615C175.916 66.1625 176.748 65.8165 177.049 65.0885C177.349 64.3595 177.004 63.5235 176.279 63.2225C175.554 62.9205 174.721 63.2665 174.421 63.9955Z" fill="white"/>
<path fill-rule="evenodd" clip-rule="evenodd" d="M140.807 133.242C140.507 133.97 140.852 134.806 141.577 135.107C142.302 135.409 143.135 135.063 143.435 134.335C143.736 133.606 143.391 132.77 142.665 132.469C141.94 132.167 141.107 132.513 140.807 133.242Z" fill="white"/>
<path fill-rule="evenodd" clip-rule="evenodd" d="M212.405 130.959C212.105 131.688 212.45 132.524 213.175 132.825C213.9 133.127 214.733 132.781 215.033 132.052C215.334 131.324 214.989 130.488 214.264 130.187C213.538 129.885 212.706 130.231 212.405 130.959Z" fill="white"/>
<path fill-rule="evenodd" clip-rule="evenodd" d="M76.0268 74.9291C75.7258 75.6571 76.0708 76.4931 76.7968 76.7941C77.5218 77.0961 78.3548 76.75 78.6548 76.022C78.9548 75.293 78.6098 74.4571 77.8848 74.1561C77.1598 73.8541 76.3268 74.2001 76.0268 74.9291Z" fill="white"/>
<path fill-rule="evenodd" clip-rule="evenodd" d="M98.407 56.4233C99.158 56.1943 99.582 55.3953 99.354 54.6413C99.125 53.8873 98.33 53.4613 97.579 53.6913C96.828 53.9203 96.404 54.7183 96.632 55.4733C96.861 56.2273 97.656 56.6533 98.407 56.4233Z" fill="white"/>
<path fill-rule="evenodd" clip-rule="evenodd" d="M193.328 51.4525C193.027 52.1805 193.372 53.0165 194.097 53.3175C194.823 53.6195 195.655 53.2735 195.956 52.5455C196.256 51.8165 195.911 50.9805 195.186 50.6795C194.461 50.3775 193.628 50.7235 193.328 51.4525Z" fill="white"/>
<path fill-rule="evenodd" clip-rule="evenodd" d="M159.71 120.701C159.41 121.43 159.755 122.267 160.48 122.568C161.205 122.87 162.038 122.523 162.338 121.794C162.639 121.066 162.294 120.231 161.568 119.93C160.843 119.628 160.01 119.973 159.71 120.701Z" fill="white"/>
<path fill-rule="evenodd" clip-rule="evenodd" d="M231.311 118.417C231.011 119.146 231.356 119.982 232.081 120.283C232.806 120.585 233.639 120.239 233.939 119.51C234.24 118.782 233.895 117.946 233.17 117.644C232.444 117.343 231.612 117.689 231.311 118.417Z" fill="white"/>
<path fill-rule="evenodd" clip-rule="evenodd" d="M93.3309 81.198C93.0309 81.926 93.3759 82.762 94.1009 83.064C94.8259 83.366 95.6589 83.019 95.9589 82.291C96.2599 81.563 95.9149 80.727 95.1899 80.425C94.4649 80.124 93.6319 80.47 93.3309 81.198Z" fill="white"/>
<path fill-rule="evenodd" clip-rule="evenodd" d="M92.2472 39.0209C92.9982 38.7919 93.4222 37.9929 93.1932 37.2389C92.9652 36.4849 92.1702 36.0589 91.4192 36.2889C90.6682 36.5179 90.2432 37.3159 90.4722 38.0699C90.7002 38.8239 91.4952 39.2499 92.2472 39.0209Z" fill="white"/>
<path fill-rule="evenodd" clip-rule="evenodd" d="M75.6173 55.7549C76.3683 55.5259 76.7933 54.7279 76.5643 53.9739C76.3363 53.2199 75.5413 52.7939 74.7903 53.0229C74.0393 53.2519 73.6143 54.0509 73.8433 54.8049C74.0713 55.5589 74.8663 55.9849 75.6173 55.7549Z" fill="white"/>
<path fill-rule="evenodd" clip-rule="evenodd" d="M51.6531 83.1504C52.4041 82.9214 52.8281 82.1224 52.5991 81.3684C52.3711 80.6144 51.5761 80.1884 50.8251 80.4174C50.0741 80.6474 49.6501 81.4454 49.8781 82.1994C50.1061 82.9534 50.9021 83.3794 51.6531 83.1504Z" fill="white"/>
<path fill-rule="evenodd" clip-rule="evenodd" d="M57.8985 62.5205C58.6505 62.2915 59.0745 61.4935 58.8455 60.7395C58.6175 59.9855 57.8225 59.5595 57.0715 59.7885C56.3205 60.0175 55.8955 60.8165 56.1245 61.5705C56.3525 62.3245 57.1475 62.7505 57.8985 62.5205Z" fill="white"/>
<path fill-rule="evenodd" clip-rule="evenodd" d="M35.0157 96.9629C35.7667 96.7339 36.1917 95.9349 35.9627 95.1809C35.7347 94.4269 34.9397 94.0009 34.1887 94.2299C33.4377 94.4599 33.0127 95.2579 33.2417 96.0119C33.4697 96.7659 34.2647 97.1919 35.0157 96.9629Z" fill="white"/>
<path fill-rule="evenodd" clip-rule="evenodd" d="M32.3712 123.626C33.1222 123.397 33.5472 122.599 33.3182 121.845C33.0902 121.091 32.2952 120.665 31.5442 120.894C30.7932 121.123 30.3682 121.922 30.5972 122.676C30.8252 123.43 31.6202 123.856 32.3712 123.626Z" fill="white"/>
<path fill-rule="evenodd" clip-rule="evenodd" d="M279.934 128.978C280.685 128.749 281.109 127.951 280.881 127.196C280.652 126.442 279.857 126.016 279.106 126.246C278.355 126.475 277.931 127.273 278.159 128.028C278.387 128.782 279.183 129.208 279.934 128.978Z" fill="white"/>
<path fill-rule="evenodd" clip-rule="evenodd" d="M258.434 76.3809C259.185 76.1519 259.609 75.3529 259.381 74.5989C259.152 73.8449 258.357 73.4189 257.606 73.6479C256.855 73.8779 256.431 74.6759 256.659 75.4299C256.888 76.1839 257.683 76.6099 258.434 76.3809Z" fill="white"/>
<path fill-rule="evenodd" clip-rule="evenodd" d="M210.313 122.49C211.064 122.261 211.488 121.462 211.26 120.708C211.031 119.954 210.236 119.528 209.485 119.758C208.734 119.987 208.31 120.785 208.538 121.539C208.767 122.294 209.562 122.72 210.313 122.49Z" fill="white"/>
<path fill-rule="evenodd" clip-rule="evenodd" d="M210.628 57.7215C210.328 58.4495 210.673 59.2855 211.398 59.5875C212.123 59.8895 212.956 59.5425 213.256 58.8145C213.557 58.0865 213.212 57.2505 212.486 56.9485C211.761 56.6475 210.929 56.9935 210.628 57.7215Z" fill="white"/>
<path fill-rule="evenodd" clip-rule="evenodd" d="M177.015 126.972C176.714 127.7 177.059 128.536 177.784 128.838C178.51 129.14 179.342 128.793 179.643 128.065C179.943 127.337 179.598 126.501 178.873 126.199C178.148 125.897 177.315 126.244 177.015 126.972Z" fill="white"/>
<path fill-rule="evenodd" clip-rule="evenodd" d="M248.613 124.691C248.312 125.419 248.657 126.255 249.383 126.557C250.108 126.858 250.941 126.512 251.241 125.784C251.541 125.056 251.196 124.22 250.471 123.918C249.746 123.616 248.913 123.963 248.613 124.691Z" fill="white"/>
<path fill-rule="evenodd" clip-rule="evenodd" d="M69.793 101.863C69.425 102.755 69.848 103.78 70.737 104.15C71.626 104.52 72.647 104.095 73.015 103.202C73.383 102.31 72.96 101.285 72.071 100.915C71.182 100.545 70.162 100.97 69.793 101.863Z" fill="white"/>
<path fill-rule="evenodd" clip-rule="evenodd" d="M132.723 36.3277C132.354 37.2197 132.777 38.2447 133.666 38.6147C134.555 38.9847 135.576 38.5597 135.944 37.6667C136.312 36.7747 135.89 35.7497 135.001 35.3797C134.112 35.0097 133.091 35.4347 132.723 36.3277Z" fill="white"/>
<path fill-rule="evenodd" clip-rule="evenodd" d="M187.09 78.3863C186.722 79.2783 187.145 80.3033 188.034 80.6733C188.923 81.0433 189.943 80.6183 190.312 79.7253C190.68 78.8333 190.257 77.8083 189.368 77.4383C188.479 77.0683 187.458 77.4933 187.09 78.3863Z" fill="white"/>
<path fill-rule="evenodd" clip-rule="evenodd" d="M153.477 147.636C153.109 148.528 153.532 149.553 154.421 149.923C155.31 150.293 156.331 149.868 156.699 148.975C157.067 148.083 156.645 147.058 155.755 146.688C154.866 146.318 153.846 146.743 153.477 147.636Z" fill="white"/>
<path fill-rule="evenodd" clip-rule="evenodd" d="M225.074 145.354C224.706 146.247 225.128 147.272 226.017 147.642C226.906 148.011 227.927 147.587 228.295 146.694C228.664 145.802 228.241 144.777 227.352 144.407C226.463 144.037 225.442 144.462 225.074 145.354Z" fill="white"/>
<path fill-rule="evenodd" clip-rule="evenodd" d="M106.621 94.2173C106.253 95.1103 106.676 96.1353 107.565 96.5053C108.454 96.8743 109.474 96.4503 109.843 95.5573C110.211 94.6653 109.788 93.6403 108.899 93.2703C108.01 92.9003 106.989 93.3253 106.621 94.2173Z" fill="white"/>
<path fill-rule="evenodd" clip-rule="evenodd" d="M169.551 28.6822C169.183 29.5752 169.606 30.6002 170.495 30.9702C171.384 31.3392 172.405 30.9152 172.773 30.0222C173.141 29.1302 172.718 28.1052 171.829 27.7352C170.94 27.3652 169.92 27.7902 169.551 28.6822Z" fill="white"/>
<path fill-rule="evenodd" clip-rule="evenodd" d="M121.383 23.2097C121.015 24.1027 121.438 25.1277 122.327 25.4967C123.216 25.8667 124.237 25.4417 124.605 24.5497C124.973 23.6567 124.55 22.6317 123.661 22.2627C122.772 21.8927 121.752 22.3167 121.383 23.2097Z" fill="white"/>
<path fill-rule="evenodd" clip-rule="evenodd" d="M201.254 27.7765C200.886 28.6695 201.309 29.6935 202.198 30.0635C203.087 30.4335 204.108 30.0085 204.476 29.1165C204.844 28.2235 204.421 27.1985 203.532 26.8285C202.643 26.4595 201.623 26.8835 201.254 27.7765Z" fill="white"/>
<path fill-rule="evenodd" clip-rule="evenodd" d="M223.918 70.7408C223.55 71.6338 223.972 72.6588 224.861 73.0288C225.75 73.3978 226.771 72.9738 227.139 72.0808C227.508 71.1888 227.085 70.1638 226.196 69.7938C225.307 69.4238 224.286 69.8488 223.918 70.7408Z" fill="white"/>
<path fill-rule="evenodd" clip-rule="evenodd" d="M190.301 139.991C189.933 140.884 190.356 141.909 191.245 142.279C192.134 142.648 193.155 142.224 193.523 141.331C193.891 140.439 193.468 139.414 192.579 139.044C191.69 138.674 190.669 139.099 190.301 139.991Z" fill="white"/>
<path fill-rule="evenodd" clip-rule="evenodd" d="M261.903 137.71C261.534 138.603 261.957 139.628 262.846 139.997C263.735 140.367 264.756 139.943 265.124 139.05C265.492 138.157 265.07 137.133 264.181 136.763C263.292 136.393 262.271 136.818 261.903 137.71Z" fill="white"/>
<path fill-rule="evenodd" clip-rule="evenodd" d="M49.9688 105.952C49.6008 106.845 50.0238 107.87 50.9128 108.24C51.8018 108.609 52.8218 108.185 53.1908 107.292C53.5588 106.4 53.1358 105.375 52.2468 105.005C51.3578 104.635 50.3368 105.06 49.9688 105.952Z" fill="white"/>
<path fill-rule="evenodd" clip-rule="evenodd" d="M112.902 40.4205C112.534 41.3135 112.957 42.3385 113.846 42.7085C114.735 43.0775 115.756 42.6535 116.124 41.7605C116.492 40.8685 116.069 39.8435 115.18 39.4735C114.291 39.1035 113.271 39.5285 112.902 40.4205Z" fill="white"/>
<path fill-rule="evenodd" clip-rule="evenodd" d="M167.27 82.4751C166.902 83.3681 167.324 84.3931 168.213 84.7631C169.102 85.1321 170.123 84.7081 170.491 83.8151C170.86 82.9231 170.437 81.8981 169.548 81.5281C168.659 81.1581 167.638 81.5831 167.27 82.4751Z" fill="white"/>
<path fill-rule="evenodd" clip-rule="evenodd" d="M133.652 151.725C133.284 152.618 133.707 153.643 134.596 154.013C135.485 154.382 136.506 153.958 136.874 153.065C137.242 152.173 136.819 151.148 135.93 150.778C135.041 150.408 134.021 150.833 133.652 151.725Z" fill="white"/>
<path fill-rule="evenodd" clip-rule="evenodd" d="M205.254 149.444C204.885 150.337 205.308 151.362 206.197 151.731C207.086 152.101 208.107 151.677 208.475 150.784C208.843 149.891 208.421 148.867 207.532 148.497C206.643 148.127 205.622 148.552 205.254 149.444Z" fill="white"/>
<path fill-rule="evenodd" clip-rule="evenodd" d="M58.6213 123.194C58.2533 124.086 58.6753 125.111 59.5643 125.481C60.4533 125.851 61.4743 125.426 61.8423 124.534C62.2113 123.641 61.7883 122.616 60.8993 122.246C60.0103 121.877 58.9893 122.301 58.6213 123.194Z" fill="white"/>
<path fill-rule="evenodd" clip-rule="evenodd" d="M121.551 57.6632C121.183 58.5552 121.606 59.5802 122.495 59.9502C123.384 60.3202 124.405 59.8952 124.773 59.0032C125.141 58.1102 124.718 57.0852 123.829 56.7152C122.94 56.3462 121.919 56.7702 121.551 57.6632Z" fill="white"/>
<path fill-rule="evenodd" clip-rule="evenodd" d="M175.919 99.7179C175.55 100.61 175.973 101.635 176.862 102.005C177.751 102.375 178.772 101.95 179.14 101.058C179.508 100.165 179.086 99.1399 178.197 98.7699C177.308 98.4009 176.287 98.8249 175.919 99.7179Z" fill="white"/>
<path fill-rule="evenodd" clip-rule="evenodd" d="M81.5899 126.198C81.2219 127.09 81.6449 128.115 82.5339 128.485C83.4229 128.855 84.4429 128.43 84.8119 127.538C85.1799 126.645 84.7569 125.62 83.8679 125.25C82.9789 124.881 81.9579 125.305 81.5899 126.198Z" fill="white"/>
<path fill-rule="evenodd" clip-rule="evenodd" d="M144.523 60.6632C144.155 61.5552 144.578 62.5802 145.467 62.9502C146.356 63.3202 147.377 62.8952 147.745 62.0032C148.113 61.1102 147.69 60.0852 146.801 59.7152C145.912 59.3462 144.892 59.7702 144.523 60.6632Z" fill="white"/>
<path fill-rule="evenodd" clip-rule="evenodd" d="M198.891 102.722C198.522 103.614 198.945 104.639 199.834 105.009C200.723 105.379 201.744 104.954 202.112 104.062C202.48 103.169 202.058 102.144 201.169 101.774C200.28 101.405 199.259 101.829 198.891 102.722Z" fill="white"/>
<path fill-rule="evenodd" clip-rule="evenodd" d="M104.336 126.198C103.968 127.09 104.391 128.115 105.28 128.485C106.169 128.855 107.19 128.43 107.558 127.538C107.926 126.645 107.503 125.62 106.614 125.25C105.725 124.881 104.705 125.305 104.336 126.198Z" fill="white"/>
<path fill-rule="evenodd" clip-rule="evenodd" d="M167.27 60.6632C166.902 61.5552 167.324 62.5802 168.213 62.9502C169.102 63.3202 170.123 62.8952 170.491 62.0032C170.86 61.1102 170.437 60.0852 169.548 59.7152C168.659 59.3462 167.638 59.7702 167.27 60.6632Z" fill="white"/>
<path fill-rule="evenodd" clip-rule="evenodd" d="M221.637 102.722C221.269 103.614 221.692 104.639 222.581 105.009C223.47 105.379 224.49 104.954 224.859 104.062C225.227 103.169 224.804 102.144 223.915 101.774C223.026 101.405 222.005 101.829 221.637 102.722Z" fill="white"/>
<path fill-rule="evenodd" clip-rule="evenodd" d="M130.258 121.053C129.89 121.946 130.313 122.971 131.202 123.341C132.091 123.71 133.112 123.286 133.48 122.393C133.848 121.501 133.425 120.476 132.536 120.106C131.647 119.736 130.626 120.161 130.258 121.053Z" fill="white"/>
<path fill-rule="evenodd" clip-rule="evenodd" d="M193.188 55.5181C192.819 56.4111 193.242 57.4361 194.131 57.8061C195.02 58.1751 196.041 57.7511 196.409 56.8581C196.777 55.9651 196.355 54.9411 195.466 54.5711C194.577 54.2011 193.556 54.6261 193.188 55.5181Z" fill="white"/>
<path fill-rule="evenodd" clip-rule="evenodd" d="M247.555 97.5767C247.187 98.4697 247.61 99.4947 248.499 99.8647C249.388 100.234 250.408 99.8097 250.777 98.9167C251.145 98.0247 250.722 96.9997 249.833 96.6297C248.944 96.2597 247.923 96.6847 247.555 97.5767Z" fill="white"/>
<path fill-rule="evenodd" clip-rule="evenodd" d="M95.4498 115.55C95.0808 116.442 95.5038 117.467 96.3928 117.837C97.2818 118.207 98.3028 117.782 98.6708 116.889C99.0388 115.997 98.6168 114.972 97.7278 114.602C96.8388 114.232 95.8178 114.657 95.4498 115.55Z" fill="white"/>
<path fill-rule="evenodd" clip-rule="evenodd" d="M158.379 50.0152C158.011 50.9072 158.433 51.9322 159.323 52.3022C160.212 52.6722 161.232 52.2472 161.601 51.3542C161.969 50.4622 161.546 49.4372 160.657 49.0672C159.768 48.6972 158.747 49.1222 158.379 50.0152Z" fill="white"/>
<path fill-rule="evenodd" clip-rule="evenodd" d="M212.746 92.0734C212.378 92.9654 212.801 93.9904 213.69 94.3604C214.579 94.7304 215.6 94.3054 215.968 93.4134C216.336 92.5204 215.913 91.4954 215.024 91.1254C214.135 90.7564 213.115 91.1804 212.746 92.0734Z" fill="white"/>
<path fill-rule="evenodd" clip-rule="evenodd" d="M86.8399 108.39C86.4719 109.282 86.8949 110.307 87.7839 110.677C88.6729 111.047 89.6939 110.622 90.0619 109.729C90.4299 108.837 90.0069 107.812 89.1179 107.442C88.2289 107.072 87.2089 107.497 86.8399 108.39Z" fill="white"/>
<path fill-rule="evenodd" clip-rule="evenodd" d="M149.774 42.858C149.406 43.751 149.828 44.776 150.717 45.146C151.606 45.515 152.627 45.091 152.995 44.198C153.364 43.306 152.941 42.281 152.052 41.911C151.163 41.541 150.142 41.966 149.774 42.858Z" fill="white"/>
<path fill-rule="evenodd" clip-rule="evenodd" d="M204.137 84.9136C203.769 85.8056 204.192 86.8306 205.081 87.2006C205.97 87.5706 206.991 87.1456 207.359 86.2526C207.727 85.3606 207.304 84.3356 206.415 83.9656C205.526 83.5956 204.505 84.0206 204.137 84.9136Z" fill="white"/>
<path fill-rule="evenodd" clip-rule="evenodd" d="M242.125 151.881C241.757 152.774 242.18 153.799 243.069 154.169C243.958 154.538 244.978 154.114 245.347 153.221C245.715 152.329 245.292 151.304 244.403 150.934C243.514 150.564 242.493 150.989 242.125 151.881Z" fill="white"/>
<path fill-rule="evenodd" clip-rule="evenodd" d="M86.8399 89.6275C86.4719 90.5205 86.8949 91.5455 87.7839 91.9155C88.6729 92.2845 89.6939 91.8605 90.0619 90.9675C90.4299 90.0755 90.0069 89.0505 89.1179 88.6805C88.2289 88.3105 87.2089 88.7355 86.8399 89.6275Z" fill="white"/>
<path fill-rule="evenodd" clip-rule="evenodd" d="M204.137 66.1509C203.769 67.0439 204.192 68.0689 205.081 68.4389C205.97 68.8079 206.991 68.3839 207.359 67.4909C207.727 66.5989 207.304 65.5739 206.415 65.2039C205.526 64.8339 204.505 65.2589 204.137 66.1509Z" fill="white"/>
<path fill-rule="evenodd" clip-rule="evenodd" d="M170.524 135.401C170.155 136.294 170.578 137.319 171.467 137.689C172.356 138.058 173.377 137.634 173.745 136.741C174.113 135.848 173.691 134.824 172.802 134.454C171.913 134.084 170.892 134.509 170.524 135.401Z" fill="white"/>
<path fill-rule="evenodd" clip-rule="evenodd" d="M242.125 133.12C241.757 134.013 242.18 135.038 243.069 135.407C243.958 135.777 244.978 135.353 245.347 134.46C245.715 133.567 245.292 132.542 244.403 132.173C243.514 131.803 242.493 132.227 242.125 133.12Z" fill="white"/>
<path fill-rule="evenodd" clip-rule="evenodd" d="M70.9609 81.1784C70.5929 82.0714 71.0159 83.0964 71.9049 83.4654C72.7939 83.8354 73.8149 83.4114 74.1829 82.5184C74.5509 81.6254 74.1279 80.6004 73.2389 80.2314C72.3499 79.8614 71.3299 80.2854 70.9609 81.1784Z" fill="white"/>
<path fill-rule="evenodd" clip-rule="evenodd" d="M106.434 56.387C107.355 56.105 107.875 55.127 107.595 54.202C107.315 53.278 106.34 52.756 105.42 53.037C104.499 53.318 103.979 54.297 104.259 55.221C104.539 56.145 105.514 56.668 106.434 56.387Z" fill="white"/>
<path fill-rule="evenodd" clip-rule="evenodd" d="M188.258 57.7017C187.89 58.5947 188.313 59.6197 189.202 59.9887C190.091 60.3587 191.111 59.9347 191.48 59.0417C191.848 58.1487 191.425 57.1237 190.536 56.7547C189.647 56.3847 188.626 56.8097 188.258 57.7017Z" fill="white"/>
<path fill-rule="evenodd" clip-rule="evenodd" d="M154.645 126.948C154.276 127.841 154.699 128.866 155.588 129.235C156.477 129.605 157.498 129.181 157.866 128.288C158.234 127.395 157.812 126.37 156.923 126.001C156.034 125.631 155.013 126.055 154.645 126.948Z" fill="white"/>
<path fill-rule="evenodd" clip-rule="evenodd" d="M226.246 124.667C225.878 125.56 226.3 126.584 227.189 126.954C228.079 127.324 229.099 126.899 229.467 126.007C229.836 125.114 229.413 124.089 228.524 123.719C227.635 123.35 226.614 123.774 226.246 124.667Z" fill="white"/>
<path fill-rule="evenodd" clip-rule="evenodd" d="M89.8672 68.6354C89.4992 69.5284 89.9222 70.5534 90.8112 70.9224C91.7002 71.2924 92.7212 70.8684 93.0892 69.9754C93.4572 69.0824 93.0342 68.0574 92.1452 67.6884C91.2562 67.3184 90.2362 67.7424 89.8672 68.6354Z" fill="white"/>
<path fill-rule="evenodd" clip-rule="evenodd" d="M84.7781 49.6829C85.6991 49.4019 86.2191 48.4229 85.9391 47.4989C85.6591 46.5749 84.6841 46.0529 83.7641 46.3339C82.8431 46.6149 82.3231 47.5939 82.6031 48.5179C82.8831 49.4419 83.8581 49.9649 84.7781 49.6829Z" fill="white"/>
<path fill-rule="evenodd" clip-rule="evenodd" d="M68.1492 66.4182C69.0702 66.1372 69.5902 65.1582 69.3102 64.2332C69.0302 63.3092 68.0552 62.7872 67.1342 63.0682C66.2142 63.3492 65.6942 64.3282 65.9742 65.2522C66.2542 66.1772 67.2282 66.6992 68.1492 66.4182Z" fill="white"/>
<path fill-rule="evenodd" clip-rule="evenodd" d="M44.1883 93.8121C45.1093 93.5311 45.6293 92.5521 45.3493 91.6281C45.0693 90.7041 44.0943 90.1811 43.1743 90.4631C42.2533 90.7441 41.7333 91.7221 42.0133 92.6471C42.2933 93.5711 43.2683 94.0931 44.1883 93.8121Z" fill="white"/>
<path fill-rule="evenodd" clip-rule="evenodd" d="M50.4305 73.1839C51.3515 72.9029 51.8715 71.9239 51.5915 70.9989C51.3115 70.0749 50.3365 69.5529 49.4165 69.8339C48.4955 70.1149 47.9755 71.0939 48.2555 72.0179C48.5355 72.9429 49.5105 73.4649 50.4305 73.1839Z" fill="white"/>
<path fill-rule="evenodd" clip-rule="evenodd" d="M27.5477 107.629C28.4687 107.348 28.9887 106.369 28.7087 105.445C28.4287 104.521 27.4537 103.998 26.5327 104.28C25.6127 104.561 25.0927 105.539 25.3727 106.464C25.6527 107.388 26.6267 107.91 27.5477 107.629Z" fill="white"/>
<path fill-rule="evenodd" clip-rule="evenodd" d="M24.907 134.289C25.828 134.008 26.348 133.029 26.068 132.104C25.788 131.18 24.813 130.658 23.892 130.939C22.972 131.22 22.452 132.199 22.732 133.123C23.012 134.048 23.987 134.57 24.907 134.289Z" fill="white"/>
<path fill-rule="evenodd" clip-rule="evenodd" d="M237.744 57.7425C238.664 57.4615 239.184 56.4825 238.904 55.5575C238.624 54.6335 237.65 54.1115 236.729 54.3925C235.808 54.6735 235.288 55.6525 235.568 56.5765C235.848 57.5015 236.823 58.0235 237.744 57.7425Z" fill="white"/>
<path fill-rule="evenodd" clip-rule="evenodd" d="M216.971 44.2073C217.891 43.9253 218.411 42.9473 218.131 42.0223C217.851 41.0983 216.877 40.5763 215.956 40.8573C215.035 41.1383 214.515 42.1173 214.795 43.0413C215.075 43.9663 216.05 44.4883 216.971 44.2073Z" fill="white"/>
<path fill-rule="evenodd" clip-rule="evenodd" d="M147.849 26.429C148.769 26.148 149.289 25.17 149.009 24.245C148.729 23.321 147.755 22.799 146.834 23.08C145.913 23.361 145.393 24.34 145.673 25.264C145.953 26.188 146.928 26.711 147.849 26.429Z" fill="white"/>
<path fill-rule="evenodd" clip-rule="evenodd" d="M272.466 139.645C273.387 139.363 273.907 138.385 273.627 137.46C273.347 136.536 272.372 136.014 271.452 136.295C270.531 136.576 270.011 137.555 270.291 138.479C270.571 139.403 271.546 139.926 272.466 139.645Z" fill="white"/>
<path fill-rule="evenodd" clip-rule="evenodd" d="M250.967 87.0426C251.887 86.7616 252.407 85.7826 252.127 84.8586C251.847 83.9346 250.873 83.4116 249.952 83.6936C249.031 83.9746 248.511 84.9526 248.791 85.8776C249.071 86.8016 250.046 87.3236 250.967 87.0426Z" fill="white"/>
<path fill-rule="evenodd" clip-rule="evenodd" d="M273.876 109.804C274.797 109.523 275.317 108.544 275.037 107.62C274.757 106.696 273.782 106.174 272.861 106.455C271.941 106.736 271.421 107.715 271.701 108.639C271.981 109.563 272.955 110.086 273.876 109.804Z" fill="white"/>
<path fill-rule="evenodd" clip-rule="evenodd" d="M202.849 133.152C203.769 132.871 204.29 131.893 204.01 130.968C203.73 130.044 202.755 129.522 201.834 129.803C200.914 130.084 200.393 131.063 200.673 131.987C200.953 132.911 201.928 133.434 202.849 133.152Z" fill="white"/>
<path fill-rule="evenodd" clip-rule="evenodd" d="M207.164 45.1589C206.796 46.0519 207.219 47.0769 208.108 47.4459C208.997 47.8159 210.017 47.3919 210.386 46.4989C210.754 45.6059 210.331 44.5809 209.442 44.2119C208.553 43.8419 207.532 44.2659 207.164 45.1589Z" fill="white"/>
<path fill-rule="evenodd" clip-rule="evenodd" d="M173.551 114.409C173.182 115.302 173.605 116.327 174.494 116.696C175.383 117.066 176.404 116.641 176.772 115.749C177.14 114.856 176.718 113.831 175.829 113.462C174.94 113.092 173.919 113.516 173.551 114.409Z" fill="white"/>
<path fill-rule="evenodd" clip-rule="evenodd" d="M245.149 112.128C244.781 113.02 245.203 114.045 246.092 114.415C246.981 114.785 248.002 114.36 248.37 113.468C248.739 112.575 248.316 111.55 247.427 111.18C246.538 110.811 245.517 111.235 245.149 112.128Z" fill="white"/>
<path fill-rule="evenodd" clip-rule="evenodd" d="M107.168 74.9058C106.8 75.7978 107.222 76.8228 108.112 77.1928C109.001 77.5628 110.021 77.1378 110.39 76.2448C110.758 75.3528 110.335 74.3278 109.446 73.9578C108.557 73.5878 107.536 74.0128 107.168 74.9058Z" fill="white"/>
<path fill-rule="evenodd" clip-rule="evenodd" d="M224.465 51.4293C224.096 52.3213 224.519 53.3462 225.408 53.7162C226.297 54.0862 227.318 53.6613 227.686 52.7683C228.054 51.8763 227.632 50.8513 226.743 50.4813C225.854 50.1113 224.833 50.5363 224.465 51.4293Z" fill="white"/>
<path fill-rule="evenodd" clip-rule="evenodd" d="M190.852 120.679C190.484 121.571 190.907 122.596 191.796 122.966C192.685 123.336 193.705 122.911 194.074 122.018C194.442 121.126 194.019 120.101 193.13 119.731C192.241 119.361 191.22 119.786 190.852 120.679Z" fill="white"/>
<path fill-rule="evenodd" clip-rule="evenodd" d="M262.449 118.397C262.081 119.29 262.504 120.315 263.393 120.685C264.282 121.054 265.303 120.63 265.671 119.737C266.039 118.845 265.616 117.82 264.727 117.45C263.838 117.08 262.818 117.505 262.449 118.397Z" fill="white"/>
<path fill-rule="evenodd" clip-rule="evenodd" d="M61.2985 99.0567C61.0885 99.5647 61.3295 100.148 61.8355 100.358C62.3415 100.569 62.9225 100.327 63.1315 99.8187C63.3415 99.3107 63.1005 98.7277 62.5945 98.5177C62.0885 98.3067 61.5075 98.5487 61.2985 99.0567Z" fill="white"/>
<path fill-rule="evenodd" clip-rule="evenodd" d="M124.228 33.5254C124.019 34.0334 124.259 34.6164 124.765 34.8264C125.271 35.0374 125.852 34.7954 126.061 34.2874C126.271 33.7794 126.03 33.1964 125.524 32.9864C125.019 32.7754 124.438 33.0174 124.228 33.5254Z" fill="white"/>
<path fill-rule="evenodd" clip-rule="evenodd" d="M178.595 75.584C178.385 76.092 178.626 76.675 179.131 76.885C179.637 77.096 180.218 76.854 180.428 76.346C180.637 75.838 180.397 75.255 179.891 75.045C179.385 74.834 178.804 75.076 178.595 75.584Z" fill="white"/>
<path fill-rule="evenodd" clip-rule="evenodd" d="M144.982 144.83C144.772 145.338 145.013 145.921 145.519 146.131C146.025 146.342 146.606 146.1 146.815 145.592C147.025 145.084 146.784 144.501 146.278 144.291C145.772 144.08 145.192 144.322 144.982 144.83Z" fill="white"/>
<path fill-rule="evenodd" clip-rule="evenodd" d="M216.579 142.549C216.37 143.057 216.61 143.64 217.116 143.85C217.622 144.061 218.203 143.819 218.413 143.311C218.622 142.803 218.382 142.22 217.876 142.009C217.37 141.799 216.789 142.041 216.579 142.549Z" fill="white"/>
<path fill-rule="evenodd" clip-rule="evenodd" d="M98.1267 91.4126C97.9167 91.9206 98.1576 92.5036 98.6636 92.7136C99.1686 92.9246 99.7497 92.6826 99.9597 92.1746C100.169 91.6666 99.9287 91.0836 99.4227 90.8726C98.9167 90.6626 98.3357 90.9046 98.1267 91.4126Z" fill="white"/>
<path fill-rule="evenodd" clip-rule="evenodd" d="M161.056 25.8813C160.846 26.3893 161.087 26.9723 161.593 27.1823C162.099 27.3933 162.68 27.1513 162.889 26.6433C163.099 26.1353 162.858 25.5523 162.352 25.3413C161.846 25.1313 161.265 25.3733 161.056 25.8813Z" fill="white"/>
<path fill-rule="evenodd" clip-rule="evenodd" d="M112.888 20.4078C112.678 20.9158 112.919 21.4988 113.425 21.7098C113.931 21.9198 114.512 21.6788 114.721 21.1708C114.931 20.6628 114.69 20.0788 114.184 19.8688C113.678 19.6588 113.097 19.8998 112.888 20.4078Z" fill="white"/>
<path fill-rule="evenodd" clip-rule="evenodd" d="M192.763 24.9703C192.553 25.4783 192.794 26.0613 193.3 26.2723C193.806 26.4823 194.387 26.2413 194.596 25.7333C194.806 25.2253 194.565 24.6413 194.059 24.4313C193.553 24.2213 192.972 24.4623 192.763 24.9703Z" fill="white"/>
<path fill-rule="evenodd" clip-rule="evenodd" d="M215.423 67.9395C215.214 68.4475 215.454 69.0305 215.96 69.2405C216.466 69.4515 217.047 69.2095 217.257 68.7015C217.466 68.1935 217.226 67.6105 216.72 67.4005C216.214 67.1895 215.633 67.4315 215.423 67.9395Z" fill="white"/>
<path fill-rule="evenodd" clip-rule="evenodd" d="M181.81 137.186C181.6 137.694 181.841 138.277 182.347 138.487C182.853 138.698 183.434 138.456 183.643 137.948C183.853 137.44 183.612 136.857 183.106 136.646C182.6 136.436 182.019 136.678 181.81 137.186Z" fill="white"/>
<path fill-rule="evenodd" clip-rule="evenodd" d="M253.408 134.904C253.198 135.412 253.439 135.996 253.945 136.206C254.451 136.416 255.032 136.175 255.241 135.667C255.451 135.159 255.21 134.576 254.704 134.365C254.198 134.155 253.618 134.396 253.408 134.904Z" fill="white"/>
<path fill-rule="evenodd" clip-rule="evenodd" d="M41.4782 103.147C41.2682 103.655 41.5092 104.238 42.0152 104.448C42.5202 104.659 43.1012 104.417 43.3112 103.909C43.5202 103.401 43.2802 102.818 42.7742 102.607C42.2682 102.397 41.6872 102.639 41.4782 103.147Z" fill="white"/>
<path fill-rule="evenodd" clip-rule="evenodd" d="M104.408 37.6157C104.198 38.1237 104.439 38.7067 104.945 38.9167C105.451 39.1277 106.032 38.8857 106.241 38.3777C106.451 37.8697 106.21 37.2867 105.704 37.0757C105.198 36.8657 104.617 37.1077 104.408 37.6157Z" fill="white"/>
<path fill-rule="evenodd" clip-rule="evenodd" d="M158.775 79.6739C158.566 80.1819 158.806 80.7649 159.312 80.9749C159.818 81.1859 160.399 80.9439 160.609 80.4359C160.818 79.9279 160.578 79.3449 160.072 79.1349C159.566 78.9239 158.985 79.1659 158.775 79.6739Z" fill="white"/>
<path fill-rule="evenodd" clip-rule="evenodd" d="M125.158 148.92C124.948 149.428 125.189 150.011 125.695 150.221C126.201 150.432 126.782 150.19 126.991 149.682C127.201 149.174 126.96 148.591 126.454 148.38C125.948 148.17 125.367 148.412 125.158 148.92Z" fill="white"/>
<path fill-rule="evenodd" clip-rule="evenodd" d="M196.759 146.638C196.549 147.146 196.79 147.73 197.296 147.94C197.802 148.15 198.383 147.909 198.592 147.401C198.802 146.893 198.561 146.31 198.055 146.099C197.549 145.889 196.969 146.13 196.759 146.638Z" fill="white"/>
<path fill-rule="evenodd" clip-rule="evenodd" d="M50.1262 120.389C49.9172 120.897 50.1572 121.48 50.6632 121.691C51.1692 121.901 51.7502 121.659 51.9602 121.151C52.1692 120.643 51.9292 120.06 51.4232 119.85C50.9172 119.639 50.3362 119.881 50.1262 120.389Z" fill="white"/>
<path fill-rule="evenodd" clip-rule="evenodd" d="M113.056 54.8574C112.846 55.3654 113.087 55.9485 113.593 56.1595C114.099 56.3695 114.679 56.1274 114.889 55.6194C115.099 55.1114 114.858 54.5284 114.352 54.3184C113.846 54.1074 113.265 54.3494 113.056 54.8574Z" fill="white"/>
<path fill-rule="evenodd" clip-rule="evenodd" d="M167.423 96.916C167.214 97.424 167.454 98.007 167.96 98.218C168.466 98.428 169.047 98.186 169.256 97.679C169.466 97.171 169.225 96.587 168.719 96.377C168.214 96.166 167.633 96.408 167.423 96.916Z" fill="white"/>
<path fill-rule="evenodd" clip-rule="evenodd" d="M73.095 123.393C72.886 123.901 73.126 124.484 73.632 124.695C74.138 124.905 74.719 124.663 74.929 124.155C75.138 123.647 74.898 123.064 74.392 122.854C73.886 122.643 73.305 122.885 73.095 123.393Z" fill="white"/>
<path fill-rule="evenodd" clip-rule="evenodd" d="M136.029 57.8574C135.819 58.3654 136.06 58.9484 136.566 59.1584C137.072 59.3694 137.653 59.1274 137.862 58.6194C138.072 58.1114 137.831 57.5284 137.325 57.3184C136.819 57.1074 136.238 57.3494 136.029 57.8574Z" fill="white"/>
<path fill-rule="evenodd" clip-rule="evenodd" d="M190.396 99.916C190.187 100.424 190.427 101.007 190.933 101.218C191.439 101.428 192.02 101.186 192.229 100.678C192.439 100.17 192.198 99.587 191.693 99.377C191.187 99.166 190.606 99.408 190.396 99.916Z" fill="white"/>
<path fill-rule="evenodd" clip-rule="evenodd" d="M95.8454 123.393C95.6354 123.901 95.8764 124.484 96.3824 124.695C96.8884 124.905 97.4694 124.663 97.6784 124.155C97.8884 123.647 97.6474 123.064 97.1414 122.854C96.6354 122.643 96.0544 122.885 95.8454 123.393Z" fill="white"/>
<path fill-rule="evenodd" clip-rule="evenodd" d="M158.775 57.8574C158.566 58.3654 158.806 58.9484 159.312 59.1584C159.818 59.3694 160.399 59.1274 160.609 58.6194C160.818 58.1114 160.578 57.5284 160.072 57.3184C159.566 57.1074 158.985 57.3494 158.775 57.8574Z" fill="white"/>
<path fill-rule="evenodd" clip-rule="evenodd" d="M213.142 99.916C212.932 100.424 213.173 101.007 213.679 101.218C214.185 101.428 214.765 101.186 214.975 100.678C215.185 100.17 214.944 99.587 214.438 99.377C213.932 99.166 213.351 99.408 213.142 99.916Z" fill="white"/>
<path fill-rule="evenodd" clip-rule="evenodd" d="M121.763 118.248C121.553 118.756 121.794 119.34 122.3 119.55C122.806 119.761 123.387 119.519 123.596 119.011C123.806 118.503 123.565 117.92 123.059 117.709C122.553 117.499 121.972 117.741 121.763 118.248Z" fill="white"/>
<path fill-rule="evenodd" clip-rule="evenodd" d="M184.697 52.7125C184.488 53.2205 184.728 53.8045 185.234 54.0145C185.74 54.2245 186.321 53.9835 186.53 53.4755C186.74 52.9675 186.499 52.3845 185.993 52.1735C185.488 51.9635 184.907 52.2045 184.697 52.7125Z" fill="white"/>
<path fill-rule="evenodd" clip-rule="evenodd" d="M239.06 94.7719C238.851 95.2799 239.092 95.8629 239.597 96.0729C240.103 96.2839 240.684 96.0419 240.894 95.5339C241.103 95.0259 240.863 94.4429 240.357 94.2319C239.851 94.0219 239.27 94.2639 239.06 94.7719Z" fill="white"/>
<path fill-rule="evenodd" clip-rule="evenodd" d="M78.3454 105.588C78.1354 106.096 78.3764 106.679 78.8824 106.889C79.3884 107.1 79.9694 106.858 80.1784 106.35C80.3884 105.842 80.1474 105.259 79.6414 105.049C79.1354 104.838 78.5554 105.08 78.3454 105.588Z" fill="white"/>
<path fill-rule="evenodd" clip-rule="evenodd" d="M141.279 40.0528C141.07 40.5608 141.31 41.1438 141.816 41.3538C142.322 41.5648 142.903 41.3228 143.113 40.8148C143.322 40.3068 143.082 39.7238 142.576 39.5138C142.07 39.3028 141.489 39.5448 141.279 40.0528Z" fill="white"/>
<path fill-rule="evenodd" clip-rule="evenodd" d="M195.646 82.1114C195.436 82.6194 195.677 83.2024 196.183 83.4124C196.689 83.6234 197.269 83.3814 197.479 82.8734C197.689 82.3654 197.448 81.7824 196.942 81.5724C196.436 81.3614 195.855 81.6034 195.646 82.1114Z" fill="white"/>
<path fill-rule="evenodd" clip-rule="evenodd" d="M162.029 151.361C161.82 151.869 162.06 152.452 162.566 152.662C163.072 152.873 163.653 152.631 163.863 152.123C164.072 151.615 163.831 151.032 163.326 150.822C162.82 150.611 162.239 150.853 162.029 151.361Z" fill="white"/>
<path fill-rule="evenodd" clip-rule="evenodd" d="M233.63 149.077C233.421 149.585 233.662 150.168 234.167 150.378C234.673 150.589 235.254 150.347 235.464 149.839C235.673 149.331 235.433 148.748 234.927 148.537C234.421 148.327 233.84 148.569 233.63 149.077Z" fill="white"/>
<path fill-rule="evenodd" clip-rule="evenodd" d="M115.174 97.9399C114.964 98.4479 115.205 99.0309 115.711 99.2409C116.217 99.4519 116.797 99.2099 117.007 98.7019C117.217 98.1939 116.976 97.6109 116.47 97.3999C115.964 97.1899 115.383 97.4319 115.174 97.9399Z" fill="white"/>
<path fill-rule="evenodd" clip-rule="evenodd" d="M178.103 32.4087C177.894 32.9167 178.134 33.4997 178.64 33.7097C179.146 33.9207 179.727 33.6787 179.936 33.1707C180.146 32.6627 179.905 32.0797 179.399 31.8687C178.894 31.6587 178.313 31.9007 178.103 32.4087Z" fill="white"/>
<path fill-rule="evenodd" clip-rule="evenodd" d="M232.47 74.4668C232.261 74.9748 232.501 75.5578 233.007 75.7678C233.513 75.9788 234.094 75.7368 234.304 75.2288C234.513 74.7208 234.273 74.1378 233.767 73.9278C233.261 73.7168 232.68 73.9588 232.47 74.4668Z" fill="white"/>
<path fill-rule="evenodd" clip-rule="evenodd" d="M198.857 143.713C198.647 144.221 198.888 144.804 199.394 145.014C199.9 145.225 200.481 144.983 200.69 144.475C200.9 143.967 200.659 143.384 200.153 143.173C199.647 142.963 199.066 143.205 198.857 143.713Z" fill="white"/>
<path fill-rule="evenodd" clip-rule="evenodd" d="M270.458 141.431C270.249 141.939 270.489 142.523 270.995 142.733C271.501 142.943 272.082 142.702 272.292 142.194C272.501 141.686 272.26 141.103 271.755 140.892C271.249 140.682 270.668 140.923 270.458 141.431Z" fill="white"/>
<path fill-rule="evenodd" clip-rule="evenodd" d="M78.3454 86.8227C78.1354 87.3297 78.3764 87.9137 78.8824 88.1237C79.3884 88.3347 79.9694 88.0927 80.1784 87.5847C80.3884 87.0767 80.1474 86.4937 79.6414 86.2827C79.1354 86.0727 78.5554 86.3147 78.3454 86.8227Z" fill="white"/>
<path fill-rule="evenodd" clip-rule="evenodd" d="M106.09 47.0743C106.614 46.9143 106.91 46.3573 106.75 45.8313C106.591 45.3053 106.036 45.0083 105.513 45.1683C104.989 45.3283 104.693 45.8853 104.852 46.4113C105.011 46.9373 105.566 47.2343 106.09 47.0743Z" fill="white"/>
<path fill-rule="evenodd" clip-rule="evenodd" d="M195.646 63.3462C195.436 63.8542 195.677 64.4371 196.183 64.6471C196.689 64.8581 197.269 64.6162 197.479 64.1082C197.689 63.6002 197.448 63.0172 196.942 62.8062C196.436 62.5962 195.855 62.8382 195.646 63.3462Z" fill="white"/>
<path fill-rule="evenodd" clip-rule="evenodd" d="M162.029 132.595C161.82 133.103 162.06 133.687 162.566 133.897C163.072 134.107 163.653 133.866 163.863 133.358C164.072 132.85 163.831 132.267 163.326 132.056C162.82 131.846 162.239 132.087 162.029 132.595Z" fill="white"/>
<path fill-rule="evenodd" clip-rule="evenodd" d="M233.63 130.314C233.421 130.822 233.662 131.406 234.167 131.616C234.673 131.826 235.254 131.585 235.464 131.077C235.673 130.569 235.433 129.986 234.927 129.775C234.421 129.565 233.84 129.806 233.63 130.314Z" fill="white"/>
<path fill-rule="evenodd" clip-rule="evenodd" d="M62.4665 78.3727C62.2565 78.8807 62.4975 79.4647 63.0035 79.6747C63.5095 79.8847 64.0905 79.6437 64.2995 79.1357C64.5095 78.6277 64.2685 78.0447 63.7625 77.8337C63.2565 77.6237 62.6755 77.8647 62.4665 78.3727Z" fill="white"/>
<path fill-rule="evenodd" clip-rule="evenodd" d="M109.668 64.7549C110.192 64.5949 110.488 64.0379 110.329 63.5119C110.169 62.9859 109.615 62.6879 109.091 62.8479C108.567 63.0079 108.271 63.5649 108.43 64.0909C108.589 64.6169 109.144 64.9149 109.668 64.7549Z" fill="white"/>
<path fill-rule="evenodd" clip-rule="evenodd" d="M179.767 54.8961C179.557 55.4041 179.798 55.9881 180.304 56.1981C180.81 56.4081 181.39 56.1671 181.6 55.6591C181.81 55.1511 181.569 54.5681 181.063 54.3571C180.557 54.1471 179.976 54.3881 179.767 54.8961Z" fill="white"/>
<path fill-rule="evenodd" clip-rule="evenodd" d="M146.15 124.146C145.941 124.654 146.181 125.237 146.687 125.448C147.193 125.658 147.774 125.417 147.983 124.909C148.193 124.401 147.952 123.818 147.446 123.607C146.941 123.397 146.36 123.638 146.15 124.146Z" fill="white"/>
<path fill-rule="evenodd" clip-rule="evenodd" d="M217.751 121.861C217.542 122.369 217.782 122.952 218.288 123.163C218.794 123.373 219.375 123.132 219.585 122.624C219.794 122.116 219.554 121.532 219.048 121.322C218.542 121.112 217.961 121.353 217.751 121.861Z" fill="white"/>
<path fill-rule="evenodd" clip-rule="evenodd" d="M81.3727 65.8297C81.1627 66.3377 81.4037 66.9207 81.9097 67.1317C82.4157 67.3417 82.9967 67.1007 83.2057 66.5927C83.4157 66.0847 83.1748 65.5017 82.6688 65.2907C82.1628 65.0807 81.5817 65.3217 81.3727 65.8297Z" fill="white"/>
<path fill-rule="evenodd" clip-rule="evenodd" d="M88.0154 58.0548C88.5394 57.8948 88.8353 57.3378 88.6753 56.8118C88.5163 56.2858 87.9613 55.9888 87.4373 56.1488C86.9143 56.3088 86.6184 56.8658 86.7774 57.3918C86.9364 57.9178 87.4914 58.2148 88.0154 58.0548Z" fill="white"/>
<path fill-rule="evenodd" clip-rule="evenodd" d="M198.67 42.3531C198.46 42.8611 198.701 43.4451 199.207 43.6551C199.712 43.8651 200.293 43.6241 200.503 43.1161C200.712 42.6081 200.472 42.0251 199.966 41.8141C199.46 41.6041 198.879 41.8451 198.67 42.3531Z" fill="white"/>
<path fill-rule="evenodd" clip-rule="evenodd" d="M165.056 111.603C164.846 112.111 165.087 112.694 165.593 112.905C166.099 113.115 166.68 112.874 166.889 112.366C167.099 111.858 166.858 111.274 166.352 111.064C165.846 110.854 165.266 111.095 165.056 111.603Z" fill="white"/>
<path fill-rule="evenodd" clip-rule="evenodd" d="M236.654 109.322C236.445 109.83 236.685 110.413 237.191 110.624C237.697 110.834 238.278 110.593 238.488 110.085C238.697 109.577 238.457 108.993 237.951 108.783C237.445 108.572 236.864 108.814 236.654 109.322Z" fill="white"/>
<path fill-rule="evenodd" clip-rule="evenodd" d="M98.6731 72.0996C98.4641 72.6076 98.7041 73.1906 99.2101 73.4006C99.7161 73.6116 100.297 73.3696 100.507 72.8616C100.716 72.3536 100.476 71.7706 99.9701 71.5606C99.4641 71.3496 98.8831 71.5916 98.6731 72.0996Z" fill="white"/>
<path fill-rule="evenodd" clip-rule="evenodd" d="M81.8556 40.6524C82.3796 40.4924 82.6756 39.9355 82.5156 39.4095C82.3566 38.8835 81.8016 38.5864 81.2776 38.7464C80.7536 38.9064 80.4576 39.4634 80.6176 39.9894C80.7766 40.5154 81.3316 40.8124 81.8556 40.6524Z" fill="white"/>
<path fill-rule="evenodd" clip-rule="evenodd" d="M65.2218 57.3877C65.7458 57.2277 66.0418 56.6707 65.8828 56.1447C65.7238 55.6187 65.1688 55.3207 64.6448 55.4807C64.1208 55.6407 63.8248 56.1977 63.9848 56.7237C64.1438 57.2497 64.6988 57.5477 65.2218 57.3877Z" fill="white"/>
<path fill-rule="evenodd" clip-rule="evenodd" d="M41.2619 84.7814C41.7859 84.6214 42.0819 84.0644 41.9219 83.5384C41.7629 83.0124 41.2079 82.7154 40.6839 82.8754C40.1599 83.0354 39.8639 83.5924 40.0239 84.1184C40.1829 84.6444 40.7379 84.9414 41.2619 84.7814Z" fill="white"/>
<path fill-rule="evenodd" clip-rule="evenodd" d="M21.9806 125.255C22.5036 125.095 22.7996 124.538 22.6406 124.012C22.4816 123.486 21.9266 123.188 21.4026 123.348C20.8786 123.508 20.5826 124.065 20.7426 124.591C20.9016 125.117 21.4566 125.415 21.9806 125.255Z" fill="white"/>
<path fill-rule="evenodd" clip-rule="evenodd" d="M234.816 48.7081C235.34 48.5481 235.636 47.9911 235.477 47.4651C235.317 46.9381 234.763 46.6411 234.239 46.8011C233.715 46.9611 233.419 47.5181 233.578 48.0441C233.737 48.5701 234.292 48.8681 234.816 48.7081Z" fill="white"/>
<path fill-rule="evenodd" clip-rule="evenodd" d="M214.047 35.172C214.571 35.012 214.867 34.456 214.708 33.929C214.548 33.403 213.993 33.106 213.47 33.266C212.946 33.426 212.65 33.983 212.809 34.509C212.968 35.035 213.523 35.332 214.047 35.172Z" fill="white"/>
<path fill-rule="evenodd" clip-rule="evenodd" d="M144.922 17.3985C145.446 17.2385 145.742 16.6815 145.583 16.1555C145.423 15.6295 144.869 15.3325 144.345 15.4925C143.821 15.6525 143.525 16.2095 143.684 16.7355C143.843 17.2615 144.398 17.5585 144.922 17.3985Z" fill="white"/>
<path fill-rule="evenodd" clip-rule="evenodd" d="M269.543 130.609C270.067 130.449 270.363 129.892 270.203 129.366C270.044 128.84 269.489 128.543 268.965 128.703C268.441 128.863 268.145 129.42 268.305 129.946C268.464 130.472 269.019 130.769 269.543 130.609Z" fill="white"/>
<path fill-rule="evenodd" clip-rule="evenodd" d="M248.039 78.0118C248.563 77.8518 248.859 77.2948 248.7 76.7688C248.54 76.2428 247.986 75.9458 247.462 76.1058C246.938 76.2658 246.642 76.8228 246.801 77.3488C246.961 77.8748 247.515 78.1718 248.039 78.0118Z" fill="white"/>
<path fill-rule="evenodd" clip-rule="evenodd" d="M270.949 100.77C271.473 100.61 271.769 100.053 271.61 99.5266C271.451 99.0006 270.896 98.7036 270.372 98.8636C269.848 99.0236 269.552 99.5806 269.711 100.107C269.871 100.633 270.425 100.93 270.949 100.77Z" fill="white"/>
<path fill-rule="evenodd" clip-rule="evenodd" d="M199.922 124.121C200.446 123.961 200.742 123.404 200.583 122.878C200.423 122.352 199.869 122.055 199.345 122.215C198.821 122.375 198.525 122.932 198.684 123.458C198.844 123.984 199.398 124.281 199.922 124.121Z" fill="white"/>
<path fill-rule="evenodd" clip-rule="evenodd" d="M215.97 48.627C215.761 49.135 216.001 49.718 216.507 49.928C217.013 50.139 217.594 49.897 217.803 49.389C218.013 48.881 217.772 48.298 217.267 48.088C216.761 47.877 216.18 48.119 215.97 48.627Z" fill="white"/>
<path fill-rule="evenodd" clip-rule="evenodd" d="M182.357 117.873C182.147 118.381 182.388 118.964 182.894 119.174C183.4 119.385 183.98 119.143 184.19 118.635C184.4 118.127 184.159 117.544 183.653 117.334C183.147 117.123 182.566 117.365 182.357 117.873Z" fill="white"/>
<path fill-rule="evenodd" clip-rule="evenodd" d="M253.955 115.592C253.745 116.1 253.986 116.683 254.492 116.893C254.998 117.104 255.579 116.862 255.788 116.354C255.998 115.846 255.757 115.263 255.251 115.052C254.745 114.842 254.164 115.084 253.955 115.592Z" fill="white"/>
<path fill-rule="evenodd" clip-rule="evenodd" d="M65.8853 109.804C65.7053 110.239 65.9123 110.739 66.3453 110.92C66.7793 111.1 67.2773 110.893 67.4563 110.458C67.6363 110.022 67.4293 109.522 66.9963 109.342C66.5623 109.162 66.0653 109.369 65.8853 109.804Z" fill="white"/>
<path fill-rule="evenodd" clip-rule="evenodd" d="M128.815 44.2691C128.636 44.7041 128.842 45.2041 129.276 45.3851C129.709 45.5651 130.207 45.3581 130.386 44.9231C130.566 44.4871 130.36 43.9871 129.926 43.8071C129.493 43.6271 128.995 43.8341 128.815 44.2691Z" fill="white"/>
<path fill-rule="evenodd" clip-rule="evenodd" d="M183.182 86.3277C183.002 86.7637 183.208 87.2627 183.642 87.4437C184.075 87.6237 184.573 87.4167 184.753 86.9817C184.932 86.5457 184.726 86.0467 184.293 85.8657C183.859 85.6857 183.361 85.8927 183.182 86.3277Z" fill="white"/>
<path fill-rule="evenodd" clip-rule="evenodd" d="M102.714 102.16C102.534 102.595 102.74 103.095 103.174 103.275C103.607 103.456 104.105 103.249 104.285 102.813C104.464 102.378 104.258 101.878 103.825 101.698C103.391 101.518 102.893 101.725 102.714 102.16Z" fill="white"/>
<path fill-rule="evenodd" clip-rule="evenodd" d="M165.643 36.6246C165.464 37.0596 165.67 37.5596 166.103 37.7396C166.537 37.9206 167.035 37.7136 167.214 37.2776C167.394 36.8426 167.188 36.3426 166.754 36.1626C166.32 35.9826 165.823 36.1896 165.643 36.6246Z" fill="white"/>
<path fill-rule="evenodd" clip-rule="evenodd" d="M117.475 31.1525C117.296 31.5875 117.502 32.0875 117.935 32.2675C118.369 32.4475 118.867 32.2405 119.046 31.8055C119.226 31.3705 119.02 30.8705 118.586 30.6905C118.153 30.5095 117.655 30.7165 117.475 31.1525Z" fill="white"/>
<path fill-rule="evenodd" clip-rule="evenodd" d="M197.35 35.7145C197.171 36.1505 197.377 36.6505 197.81 36.8305C198.244 37.0105 198.742 36.8035 198.921 36.3685C199.101 35.9335 198.895 35.4334 198.461 35.2524C198.027 35.0724 197.53 35.2795 197.35 35.7145Z" fill="white"/>
<path fill-rule="evenodd" clip-rule="evenodd" d="M220.01 78.6832C219.83 79.1182 220.036 79.6182 220.47 79.7982C220.903 79.9792 221.401 79.7722 221.581 79.3362C221.76 78.9012 221.554 78.4012 221.12 78.2212C220.687 78.0412 220.189 78.2482 220.01 78.6832Z" fill="white"/>
<path fill-rule="evenodd" clip-rule="evenodd" d="M186.397 147.933C186.217 148.368 186.424 148.868 186.857 149.048C187.291 149.229 187.788 149.022 187.968 148.586C188.148 148.151 187.941 147.651 187.508 147.471C187.074 147.291 186.577 147.498 186.397 147.933Z" fill="white"/>
<path fill-rule="evenodd" clip-rule="evenodd" d="M257.994 145.648C257.815 146.083 258.021 146.583 258.454 146.763C258.888 146.944 259.386 146.737 259.565 146.301C259.745 145.866 259.539 145.366 259.105 145.186C258.672 145.006 258.174 145.213 257.994 145.648Z" fill="white"/>
<path fill-rule="evenodd" clip-rule="evenodd" d="M46.0651 113.894C45.8851 114.329 46.0911 114.829 46.5251 115.009C46.9591 115.19 47.4561 114.983 47.6361 114.547C47.8151 114.112 47.6091 113.612 47.1761 113.432C46.7421 113.252 46.2441 113.459 46.0651 113.894Z" fill="white"/>
<path fill-rule="evenodd" clip-rule="evenodd" d="M108.994 48.359C108.815 48.794 109.021 49.294 109.454 49.474C109.888 49.655 110.386 49.448 110.565 49.012C110.745 48.577 110.539 48.077 110.105 47.897C109.672 47.717 109.174 47.924 108.994 48.359Z" fill="white"/>
<path fill-rule="evenodd" clip-rule="evenodd" d="M163.362 90.4176C163.182 90.8526 163.388 91.3526 163.822 91.5326C164.255 91.7136 164.753 91.5066 164.933 91.0706C165.112 90.6356 164.906 90.1356 164.472 89.9556C164.039 89.7756 163.541 89.9826 163.362 90.4176Z" fill="white"/>
<path fill-rule="evenodd" clip-rule="evenodd" d="M54.7175 131.136C54.5375 131.572 54.7435 132.071 55.1775 132.252C55.6105 132.432 56.1085 132.225 56.2885 131.79C56.4675 131.354 56.2615 130.855 55.8285 130.674C55.3945 130.494 54.8965 130.701 54.7175 131.136Z" fill="white"/>
<path fill-rule="evenodd" clip-rule="evenodd" d="M117.647 65.6012C117.467 66.0372 117.674 66.5362 118.107 66.7172C118.541 66.8972 119.038 66.6902 119.218 66.2552C119.398 65.8192 119.191 65.3202 118.758 65.1392C118.324 64.9592 117.827 65.1662 117.647 65.6012Z" fill="white"/>
<path fill-rule="evenodd" clip-rule="evenodd" d="M172.014 107.66C171.835 108.096 172.041 108.596 172.474 108.776C172.908 108.956 173.406 108.749 173.585 108.314C173.765 107.879 173.559 107.379 173.125 107.198C172.692 107.018 172.194 107.225 172.014 107.66Z" fill="white"/>
<path fill-rule="evenodd" clip-rule="evenodd" d="M77.6862 134.136C77.5062 134.572 77.7122 135.071 78.1462 135.252C78.5792 135.432 79.0772 135.225 79.2572 134.79C79.4362 134.354 79.2302 133.855 78.7972 133.674C78.3632 133.494 77.8652 133.701 77.6862 134.136Z" fill="white"/>
<path fill-rule="evenodd" clip-rule="evenodd" d="M140.616 68.6051C140.436 69.0411 140.643 69.5401 141.076 69.7211C141.51 69.9011 142.008 69.6941 142.187 69.2591C142.367 68.8231 142.16 68.3241 141.727 68.1431C141.293 67.9631 140.796 68.1701 140.616 68.6051Z" fill="white"/>
<path fill-rule="evenodd" clip-rule="evenodd" d="M194.983 110.66C194.804 111.096 195.01 111.595 195.444 111.776C195.877 111.956 196.375 111.749 196.554 111.314C196.734 110.878 196.528 110.379 196.094 110.198C195.661 110.018 195.163 110.225 194.983 110.66Z" fill="white"/>
<path fill-rule="evenodd" clip-rule="evenodd" d="M100.432 134.136C100.253 134.572 100.459 135.071 100.892 135.252C101.326 135.432 101.824 135.225 102.003 134.79C102.183 134.354 101.977 133.855 101.543 133.674C101.11 133.494 100.612 133.701 100.432 134.136Z" fill="white"/>
<path fill-rule="evenodd" clip-rule="evenodd" d="M163.362 68.6051C163.182 69.0411 163.388 69.5401 163.822 69.7211C164.255 69.9011 164.753 69.6941 164.933 69.2591C165.112 68.8231 164.906 68.3241 164.472 68.1431C164.039 67.9631 163.541 68.1701 163.362 68.6051Z" fill="white"/>
<path fill-rule="evenodd" clip-rule="evenodd" d="M217.729 110.66C217.549 111.096 217.756 111.595 218.189 111.776C218.623 111.956 219.12 111.749 219.3 111.314C219.48 110.878 219.273 110.379 218.84 110.198C218.406 110.018 217.908 110.225 217.729 110.66Z" fill="white"/>
<path fill-rule="evenodd" clip-rule="evenodd" d="M126.354 128.992C126.174 129.427 126.381 129.927 126.814 130.107C127.248 130.288 127.745 130.081 127.925 129.645C128.105 129.21 127.898 128.71 127.465 128.53C127.031 128.35 126.534 128.557 126.354 128.992Z" fill="white"/>
<path fill-rule="evenodd" clip-rule="evenodd" d="M189.283 63.4605C189.104 63.8955 189.31 64.3955 189.744 64.5755C190.177 64.7565 190.675 64.5495 190.854 64.1135C191.034 63.6785 190.828 63.1785 190.394 62.9985C189.961 62.8185 189.463 63.0255 189.283 63.4605Z" fill="white"/>
<path fill-rule="evenodd" clip-rule="evenodd" d="M243.651 105.519C243.471 105.954 243.677 106.454 244.111 106.634C244.544 106.815 245.042 106.608 245.222 106.172C245.401 105.737 245.195 105.237 244.762 105.057C244.328 104.877 243.83 105.084 243.651 105.519Z" fill="white"/>
<path fill-rule="evenodd" clip-rule="evenodd" d="M82.9357 116.332C82.7567 116.767 82.9627 117.267 83.3957 117.448C83.8297 117.628 84.3277 117.421 84.5067 116.986C84.6867 116.55 84.4807 116.05 84.0467 115.87C83.6137 115.69 83.1157 115.897 82.9357 116.332Z" fill="white"/>
<path fill-rule="evenodd" clip-rule="evenodd" d="M145.866 50.7965C145.686 51.2315 145.892 51.7315 146.326 51.9115C146.759 52.0925 147.257 51.8855 147.437 51.4495C147.616 51.0145 147.41 50.5145 146.976 50.3345C146.543 50.1545 146.045 50.3615 145.866 50.7965Z" fill="white"/>
<path fill-rule="evenodd" clip-rule="evenodd" d="M200.233 92.8551C200.053 93.2901 200.26 93.7901 200.693 93.9711C201.127 94.1511 201.624 93.9441 201.804 93.5091C201.984 93.0731 201.777 92.5731 201.344 92.3931C200.91 92.2131 200.413 92.4201 200.233 92.8551Z" fill="white"/>
<path fill-rule="evenodd" clip-rule="evenodd" d="M119.764 108.687C119.584 109.122 119.791 109.622 120.224 109.802C120.658 109.983 121.155 109.776 121.335 109.34C121.515 108.905 121.308 108.405 120.875 108.225C120.441 108.045 119.944 108.252 119.764 108.687Z" fill="white"/>
<path fill-rule="evenodd" clip-rule="evenodd" d="M182.693 43.1519C182.514 43.5869 182.72 44.0869 183.153 44.2669C183.587 44.4479 184.085 44.2409 184.264 43.8049C184.444 43.3699 184.238 42.8699 183.804 42.6899C183.371 42.5099 182.873 42.7169 182.693 43.1519Z" fill="white"/>
<path fill-rule="evenodd" clip-rule="evenodd" d="M237.061 85.2105C236.881 85.6455 237.087 86.1455 237.521 86.3255C237.954 86.5065 238.452 86.2995 238.632 85.8635C238.811 85.4285 238.605 84.9285 238.172 84.7485C237.738 84.5685 237.24 84.7755 237.061 85.2105Z" fill="white"/>
<path fill-rule="evenodd" clip-rule="evenodd" d="M259.971 107.968C259.791 108.403 259.998 108.903 260.431 109.084C260.865 109.264 261.362 109.057 261.542 108.622C261.722 108.186 261.515 107.686 261.082 107.506C260.648 107.326 260.15 107.533 259.971 107.968Z" fill="white"/>
<path fill-rule="evenodd" clip-rule="evenodd" d="M82.9357 97.5699C82.7567 98.0049 82.9627 98.5049 83.3957 98.6849C83.8297 98.8659 84.3277 98.6589 84.5067 98.2229C84.6867 97.7879 84.4807 97.2879 84.0467 97.1079C83.6137 96.9279 83.1157 97.1349 82.9357 97.5699Z" fill="white"/>
<path fill-rule="evenodd" clip-rule="evenodd" d="M145.866 32.0348C145.686 32.4698 145.892 32.9698 146.326 33.1498C146.759 33.3308 147.257 33.1238 147.437 32.6878C147.616 32.2528 147.41 31.7528 146.976 31.5728C146.543 31.3928 146.045 31.5998 145.866 32.0348Z" fill="white"/>
<path fill-rule="evenodd" clip-rule="evenodd" d="M200.233 74.0933C200.053 74.5283 200.26 75.0284 200.693 75.2084C201.127 75.3894 201.624 75.1823 201.804 74.7463C201.984 74.3113 201.777 73.8114 201.344 73.6314C200.91 73.4514 200.413 73.6583 200.233 74.0933Z" fill="white"/>
<path fill-rule="evenodd" clip-rule="evenodd" d="M166.619 143.343C166.44 143.778 166.646 144.278 167.08 144.458C167.513 144.639 168.011 144.432 168.19 143.996C168.37 143.561 168.164 143.061 167.73 142.881C167.297 142.701 166.799 142.908 166.619 143.343Z" fill="white"/>
<path fill-rule="evenodd" clip-rule="evenodd" d="M238.217 141.059C238.037 141.494 238.243 141.994 238.677 142.174C239.11 142.354 239.608 142.147 239.788 141.712C239.967 141.277 239.761 140.777 239.328 140.597C238.894 140.416 238.396 140.623 238.217 141.059Z" fill="white"/>
<path fill-rule="evenodd" clip-rule="evenodd" d="M119.764 89.922C119.584 90.357 119.791 90.857 120.224 91.037C120.658 91.217 121.155 91.01 121.335 90.575C121.515 90.14 121.308 89.64 120.875 89.46C120.441 89.279 119.944 89.486 119.764 89.922Z" fill="white"/>
<path fill-rule="evenodd" clip-rule="evenodd" d="M182.693 24.3908C182.514 24.8258 182.72 25.3258 183.153 25.5058C183.587 25.6858 184.085 25.4788 184.264 25.0438C184.444 24.6088 184.238 24.1088 183.804 23.9288C183.371 23.7478 182.873 23.9548 182.693 24.3908Z" fill="white"/>
<path fill-rule="evenodd" clip-rule="evenodd" d="M237.061 66.4488C236.881 66.8838 237.087 67.3838 237.521 67.5638C237.954 67.7448 238.452 67.5378 238.632 67.1018C238.811 66.6668 238.605 66.1668 238.172 65.9868C237.738 65.8068 237.24 66.0138 237.061 66.4488Z" fill="white"/>
<path fill-rule="evenodd" clip-rule="evenodd" d="M259.971 89.2066C259.791 89.6416 259.998 90.1416 260.431 90.3216C260.865 90.5026 261.362 90.2956 261.542 89.8596C261.722 89.4246 261.515 88.9246 261.082 88.7446C260.648 88.5646 260.15 88.7716 259.971 89.2066Z" fill="white"/>
<path fill-rule="evenodd" clip-rule="evenodd" d="M203.447 135.695C203.268 136.13 203.474 136.63 203.907 136.81C204.341 136.99 204.839 136.783 205.018 136.348C205.198 135.913 204.992 135.413 204.558 135.233C204.125 135.052 203.627 135.259 203.447 135.695Z" fill="white"/>
<path fill-rule="evenodd" clip-rule="evenodd" d="M275.045 133.414C274.866 133.849 275.072 134.349 275.506 134.529C275.939 134.709 276.437 134.502 276.617 134.067C276.796 133.632 276.59 133.132 276.156 132.952C275.723 132.771 275.225 132.978 275.045 133.414Z" fill="white"/>
<path fill-rule="evenodd" clip-rule="evenodd" d="M67.0567 89.1174C66.8777 89.5524 67.0837 90.0523 67.5167 90.2323C67.9507 90.4123 68.4487 90.2054 68.6277 89.7704C68.8077 89.3354 68.6017 88.8353 68.1677 88.6553C67.7347 88.4743 67.2367 88.6814 67.0567 89.1174Z" fill="white"/>
<path fill-rule="evenodd" clip-rule="evenodd" d="M115.023 54.3742C115.472 54.2362 115.726 53.7592 115.589 53.3082C115.453 52.8582 114.977 52.6032 114.529 52.7402C114.08 52.8772 113.826 53.3542 113.963 53.8052C114.099 54.2562 114.574 54.5112 115.023 54.3742Z" fill="white"/>
<path fill-rule="evenodd" clip-rule="evenodd" d="M129.987 23.5822C129.807 24.0172 130.013 24.5172 130.447 24.6972C130.88 24.8772 131.378 24.6702 131.558 24.2352C131.737 23.8002 131.531 23.3002 131.097 23.1202C130.664 22.9392 130.166 23.1462 129.987 23.5822Z" fill="white"/>
<path fill-rule="evenodd" clip-rule="evenodd" d="M184.354 65.6408C184.174 66.0758 184.381 66.5758 184.814 66.7558C185.248 66.9358 185.745 66.7288 185.925 66.2938C186.105 65.8588 185.898 65.3588 185.465 65.1788C185.031 64.9978 184.533 65.2048 184.354 65.6408Z" fill="white"/>
<path fill-rule="evenodd" clip-rule="evenodd" d="M150.74 134.891C150.561 135.326 150.767 135.826 151.201 136.006C151.634 136.186 152.132 135.979 152.311 135.544C152.491 135.109 152.285 134.609 151.851 134.429C151.418 134.248 150.92 134.455 150.74 134.891Z" fill="white"/>
<path fill-rule="evenodd" clip-rule="evenodd" d="M222.339 132.61C222.159 133.045 222.365 133.545 222.799 133.725C223.232 133.905 223.73 133.698 223.91 133.263C224.089 132.828 223.883 132.328 223.45 132.148C223.016 131.967 222.518 132.174 222.339 132.61Z" fill="white"/>
<path fill-rule="evenodd" clip-rule="evenodd" d="M85.9591 76.5783C85.7801 77.0133 85.9861 77.5133 86.4191 77.6933C86.8531 77.8733 87.3511 77.6663 87.5301 77.2313C87.7101 76.7963 87.5041 76.2963 87.0701 76.1163C86.6361 75.9353 86.1391 76.1423 85.9591 76.5783Z" fill="white"/>
<path fill-rule="evenodd" clip-rule="evenodd" d="M93.3712 47.674C93.8202 47.537 94.0742 47.06 93.9372 46.609C93.8012 46.158 93.3252 45.904 92.8762 46.041C92.4272 46.178 92.1742 46.655 92.3102 47.106C92.4472 47.557 92.9222 47.811 93.3712 47.674Z" fill="white"/>
<path fill-rule="evenodd" clip-rule="evenodd" d="M203.26 53.1017C203.08 53.5367 203.286 54.0367 203.72 54.2167C204.154 54.3967 204.651 54.1897 204.831 53.7547C205.01 53.3197 204.804 52.8197 204.371 52.6397C203.937 52.4587 203.439 52.6657 203.26 53.1017Z" fill="white"/>
<path fill-rule="evenodd" clip-rule="evenodd" d="M169.643 122.348C169.464 122.783 169.67 123.283 170.103 123.463C170.537 123.643 171.035 123.436 171.214 123.001C171.394 122.566 171.188 122.066 170.754 121.886C170.321 121.705 169.823 121.912 169.643 122.348Z" fill="white"/>
<path fill-rule="evenodd" clip-rule="evenodd" d="M241.245 120.066C241.065 120.502 241.271 121.002 241.705 121.182C242.138 121.362 242.636 121.155 242.816 120.72C242.995 120.285 242.789 119.785 242.355 119.604C241.922 119.424 241.424 119.631 241.245 120.066Z" fill="white"/>
<path fill-rule="evenodd" clip-rule="evenodd" d="M103.264 82.8473C103.084 83.2823 103.29 83.7823 103.724 83.9633C104.157 84.1433 104.655 83.9363 104.835 83.5013C105.014 83.0653 104.808 82.5653 104.375 82.3853C103.941 82.2053 103.443 82.4123 103.264 82.8473Z" fill="white"/>
<path fill-rule="evenodd" clip-rule="evenodd" d="M220.561 59.3707C220.382 59.8067 220.588 60.3057 221.022 60.4867C221.455 60.6667 221.953 60.4597 222.132 60.0247C222.312 59.5887 222.106 59.0897 221.672 58.9087C221.239 58.7287 220.741 58.9357 220.561 59.3707Z" fill="white"/>
<path fill-rule="evenodd" clip-rule="evenodd" d="M186.944 128.621C186.764 129.056 186.971 129.556 187.404 129.737C187.838 129.917 188.335 129.71 188.515 129.275C188.695 128.839 188.488 128.339 188.055 128.159C187.621 127.979 187.123 128.186 186.944 128.621Z" fill="white"/>
<path fill-rule="evenodd" clip-rule="evenodd" d="M258.545 126.339C258.366 126.774 258.572 127.274 259.005 127.454C259.439 127.635 259.937 127.428 260.116 126.992C260.296 126.557 260.09 126.057 259.656 125.877C259.223 125.697 258.725 125.904 258.545 126.339Z" fill="white"/>
<path fill-rule="evenodd" clip-rule="evenodd" d="M0.278 140.992H299.723C299.907 144.035 300 147.103 300 150.192H0C0 147.103 0.094 144.035 0.278 140.992Z" fill="white"/>
<path fill-rule="evenodd" clip-rule="evenodd" d="M0.111375 144.378C15.3424 143.284 36.8534 141.558 43.0354 141.558L84.3444 144.516C88.7024 144.516 100.04 144.699 107.266 144.516C110.981 144.429 114.027 146.41 116.733 146.207C124.762 145.598 145.979 144.999 152.54 144.516C159.1 144.033 185.547 143.665 194.149 143.665C202.75 143.665 213.37 142.467 217.086 142.1C220.803 141.733 239.748 141.501 248.626 142.216C257.503 142.95 264.383 141.859 269.843 141.617C275.302 141.375 284.477 141.375 288.766 141.047C290.742 140.896 295.128 141.083 299.742 141.316C299.914 144.253 300 147.212 300 150.192H124.291C85.9024 148.679 44.7634 146.699 0.109375 144.43C0.110375 144.413 0.110375 144.395 0.111375 144.378Z" fill="#FEF7F0"/>
<path d="M99.1893 119.476H66.6243L75.3233 110.325H91.8753L99.1893 119.476ZM74.8613 96.1597L73.9373 108.566L65.2383 117.716L67.0093 93.8717L70.3193 90.4407L74.8613 96.1597ZM67.8553 83.4897L69.7803 57.8867L77.0943 67.1247L76.0163 81.2027L70.5503 87.0097L67.8553 83.4897Z" fill="#25282B"/>
<path d="M145.533 57.8867L136.834 67.1247H121.745L114.431 57.8867H145.533ZM117.972 96.1597L116.894 110.325L108.195 119.476L110.12 93.8717L113.43 90.4407L117.972 96.1597ZM110.967 83.4897L112.737 59.6457L120.051 68.7967L119.127 81.2027L113.661 87.0097L110.967 83.4897ZM144.224 93.8717L142.3 119.476L134.986 110.325L136.064 96.1597L141.53 90.4407L144.224 93.8717ZM137.219 81.2027L138.143 68.7967L146.842 59.6457L145.071 83.4897L141.761 87.0097L137.219 81.2027ZM136.526 84.1057L140.221 88.6807L135.833 93.2557H118.742L115.124 88.6807L119.435 84.1057H136.526Z" fill="#25282B"/>
<path d="M189.803 62.4617L185.415 67.1247H164.86L161.241 62.4617L165.553 57.8867H186.108L189.803 62.4617ZM186.262 108.566L181.874 113.141L178.255 108.566L179.179 96.1597L184.645 90.4407L187.34 93.8717L186.262 108.566ZM162.242 81.2027L156.776 87.0097L154.082 83.4897L155.159 68.7967L159.548 64.2217L163.166 68.7967L162.242 81.2027ZM155.313 119.476L151.695 114.901L156.006 110.325H176.638L180.334 114.901L175.946 119.476H155.313ZM179.641 84.1057L183.336 88.6807L178.948 93.2557H161.857L158.239 88.6807L162.55 84.1057H179.641Z" fill="#25282B"/>
<path d="M215.823 115.253L211.512 119.828L207.817 115.253L209.279 96.1597L214.745 90.4407L217.44 93.8717L215.823 115.253ZM218.287 83.4897L214.976 87.0097L210.434 81.2027L210.973 74.1637L215.361 69.5887L218.98 74.1637L218.287 83.4897ZM234.762 62.4617L230.297 67.1247H200.657L197.039 62.4617L201.35 57.8867H230.989L234.762 62.4617Z" fill="#25282B"/>
<path d="M150.013 12.3074C151.725 12.3074 153.112 10.9199 153.112 9.20837C153.112 7.49684 151.725 6.10938 150.013 6.10938C148.302 6.10938 146.914 7.49684 146.914 9.20837C146.914 10.9199 148.302 12.3074 150.013 12.3074Z" fill="#25282B"/>
<path fill-rule="evenodd" clip-rule="evenodd" d="M168.424 8.98896C169.204 9.09196 169.754 9.80796 169.652 10.588C169.549 11.368 168.832 11.918 168.052 11.815C167.272 11.713 166.722 10.996 166.825 10.216C166.928 9.43597 167.644 8.88596 168.424 8.98896Z" fill="#25282B"/>
<path fill-rule="evenodd" clip-rule="evenodd" d="M132.099 8.98896C131.319 9.09196 130.769 9.80796 130.872 10.588C130.975 11.368 131.691 11.918 132.471 11.815C133.251 11.713 133.801 10.996 133.699 10.216C133.596 9.43597 132.879 8.88596 132.099 8.98896Z" fill="#25282B"/>
<path fill-rule="evenodd" clip-rule="evenodd" d="M203.987 18.5188C204.714 18.8198 205.059 19.6548 204.758 20.3818C204.457 21.1088 203.623 21.4538 202.896 21.1528C202.169 20.8518 201.823 20.0178 202.124 19.2908C202.425 18.5638 203.26 18.2178 203.987 18.5188Z" fill="#25282B"/>
<path fill-rule="evenodd" clip-rule="evenodd" d="M96.533 18.5188C95.806 18.8198 95.46 19.6548 95.761 20.3818C96.062 21.1088 96.897 21.4538 97.624 21.1528C98.351 20.8518 98.696 20.0178 98.395 19.2908C98.094 18.5638 97.26 18.2178 96.533 18.5188Z" fill="#25282B"/>
<path fill-rule="evenodd" clip-rule="evenodd" d="M235.872 36.9272C236.496 37.4062 236.614 38.3012 236.135 38.9252C235.656 39.5502 234.761 39.6682 234.136 39.1892C233.512 38.7102 233.394 37.8142 233.873 37.1902C234.352 36.5662 235.248 36.4482 235.872 36.9272Z" fill="#25282B"/>
<path fill-rule="evenodd" clip-rule="evenodd" d="M64.6472 36.9272C64.0232 37.4062 63.9052 38.3012 64.3842 38.9252C64.8632 39.5502 65.7582 39.6682 66.3822 39.1892C67.0062 38.7102 67.1243 37.8142 66.6453 37.1902C66.1663 36.5662 65.2712 36.4482 64.6472 36.9272Z" fill="#25282B"/>
<path fill-rule="evenodd" clip-rule="evenodd" d="M261.908 62.9637C262.387 63.5877 262.269 64.4827 261.645 64.9617C261.021 65.4407 260.125 65.3227 259.646 64.6987C259.167 64.0747 259.285 63.1797 259.909 62.7007C260.533 62.2217 261.429 62.3397 261.908 62.9637Z" fill="#25282B"/>
<path fill-rule="evenodd" clip-rule="evenodd" d="M38.6108 62.9637C38.1318 63.5877 38.2498 64.4827 38.8738 64.9617C39.4978 65.4407 40.3938 65.3227 40.8728 64.6987C41.3518 64.0747 41.2338 63.1797 40.6088 62.7007C39.9848 62.2217 39.0898 62.3397 38.6108 62.9637Z" fill="#25282B"/>
<path fill-rule="evenodd" clip-rule="evenodd" d="M186.518 12.588C187.278 12.792 187.729 13.574 187.526 14.334C187.322 15.094 186.54 15.546 185.78 15.342C185.02 15.138 184.568 14.356 184.772 13.596C184.976 12.836 185.758 12.384 186.518 12.588Z" fill="#25282B"/>
<path fill-rule="evenodd" clip-rule="evenodd" d="M114.002 12.588C113.242 12.792 112.79 13.574 112.994 14.334C113.197 15.094 113.98 15.546 114.74 15.342C115.5 15.138 115.951 14.356 115.748 13.596C115.544 12.836 114.762 12.384 114.002 12.588Z" fill="#25282B"/>
<path fill-rule="evenodd" clip-rule="evenodd" d="M221.372 25.2281C222.853 26.0831 223.362 27.9801 222.507 29.4611C221.651 30.9431 219.754 31.4511 218.273 30.5961C216.791 29.7401 216.283 27.8431 217.138 26.3621C217.994 24.8811 219.891 24.3721 221.372 25.2281Z" fill="#25282B"/>
<path fill-rule="evenodd" clip-rule="evenodd" d="M79.1517 25.2281C77.6697 26.0831 77.1617 27.9801 78.0167 29.4611C78.8717 30.9431 80.7687 31.4511 82.2507 30.5961C83.7317 29.7401 84.2407 27.8431 83.3847 26.3621C82.5297 24.8811 80.6327 24.3721 79.1517 25.2281Z" fill="#25282B"/>
<path fill-rule="evenodd" clip-rule="evenodd" d="M249.742 49.0928C250.298 49.6488 250.298 50.5528 249.742 51.1088C249.185 51.6648 248.282 51.6648 247.726 51.1088C247.169 50.5528 247.169 49.6488 247.726 49.0928C248.282 48.5368 249.185 48.5368 249.742 49.0928Z" fill="#25282B"/>
<path fill-rule="evenodd" clip-rule="evenodd" d="M50.7764 49.0928C50.2204 49.6488 50.2204 50.5528 50.7764 51.1088C51.3324 51.6648 52.2364 51.6648 52.7924 51.1088C53.3484 50.5528 53.3484 49.6488 52.7924 49.0928C52.2364 48.5368 51.3324 48.5368 50.7764 49.0928Z" fill="#25282B"/>
<path fill-rule="evenodd" clip-rule="evenodd" d="M273.607 77.4681C274.462 78.9491 273.954 80.8461 272.473 81.7011C270.991 82.5571 269.094 82.0481 268.239 80.5671C267.384 79.0861 267.892 77.1881 269.373 76.3331C270.855 75.4781 272.752 75.9861 273.607 77.4681Z" fill="#25282B"/>
<path fill-rule="evenodd" clip-rule="evenodd" d="M26.911 77.4681C26.056 78.9491 26.565 80.8461 28.046 81.7011C29.527 82.5571 31.424 82.0481 32.28 80.5671C33.135 79.0861 32.627 77.1881 31.145 76.3331C29.664 75.4781 27.767 75.9861 26.911 77.4681Z" fill="#25282B"/>
<path fill-rule="evenodd" clip-rule="evenodd" d="M280.317 94.8494C280.618 95.5764 280.273 96.4104 279.546 96.7114C278.819 97.0124 277.985 96.6674 277.683 95.9404C277.382 95.2134 277.728 94.3794 278.455 94.0774C279.182 93.7764 280.016 94.1224 280.317 94.8494Z" fill="#25282B"/>
<path fill-rule="evenodd" clip-rule="evenodd" d="M20.2024 94.8494C19.9014 95.5764 20.2474 96.4104 20.9744 96.7114C21.7014 97.0124 22.5354 96.6674 22.8364 95.9404C23.1374 95.2134 22.7924 94.3794 22.0654 94.0774C21.3384 93.7764 20.5034 94.1224 20.2024 94.8494Z" fill="#25282B"/>
<path fill-rule="evenodd" clip-rule="evenodd" d="M286.248 112.319C286.451 113.079 286 113.861 285.24 114.065C284.48 114.268 283.697 113.817 283.494 113.057C283.29 112.297 283.742 111.514 284.502 111.311C285.262 111.107 286.044 111.559 286.248 112.319Z" fill="#25282B"/>
<path fill-rule="evenodd" clip-rule="evenodd" d="M14.2716 112.319C14.0676 113.079 14.5196 113.861 15.2796 114.065C16.0396 114.268 16.8216 113.817 17.0256 113.057C17.2286 112.297 16.7776 111.514 16.0176 111.311C15.2576 111.107 14.4756 111.559 14.2716 112.319Z" fill="#25282B"/>
<path fill-rule="evenodd" clip-rule="evenodd" d="M289.847 130.415C289.95 131.195 289.4 131.912 288.62 132.015C287.84 132.117 287.123 131.567 287.02 130.787C286.918 130.007 287.467 129.291 288.247 129.188C289.027 129.085 289.744 129.635 289.847 130.415Z" fill="#25282B"/>
<path fill-rule="evenodd" clip-rule="evenodd" d="M10.6726 130.415C10.5696 131.195 11.1196 131.912 11.8996 132.015C12.6796 132.117 13.3966 131.567 13.4986 130.787C13.6016 130.007 13.0516 129.291 12.2716 129.188C11.4916 129.085 10.7756 129.635 10.6726 130.415Z" fill="#25282B"/>
<path fill-rule="evenodd" clip-rule="evenodd" d="M292.725 148.823C292.725 150.533 291.337 151.922 289.626 151.922C287.915 151.922 286.527 150.533 286.527 148.823C286.527 147.112 287.915 145.723 289.626 145.723C291.337 145.723 292.725 147.112 292.725 148.823Z" fill="#25282B"/>
<path fill-rule="evenodd" clip-rule="evenodd" d="M7.79297 148.823C7.79297 150.533 9.18197 151.922 10.893 151.922C12.603 151.922 13.992 150.533 13.992 148.823C13.992 147.112 12.603 145.723 10.893 145.723C9.18197 145.723 7.79297 147.112 7.79297 148.823Z" fill="#25282B"/>
<path d="M237.561 122.016V132.581C237.549 133.006 237.287 133.358 236.959 133.44C236.527 133.549 235.975 133.188 235.911 132.581V117.32C235.784 116.093 234.847 115.136 233.733 115.007C232.431 114.855 231.132 115.864 230.959 117.32V136.104C230.802 136.476 230.428 136.702 230.047 136.666C229.721 136.635 229.436 136.417 229.307 136.104V125.539C228.993 124.263 227.811 123.419 226.59 123.532C225.527 123.631 224.614 124.44 224.355 125.539V136.104C224.469 136.628 224.922 138.394 226.59 139.662C227.65 140.467 228.731 140.713 229.307 140.8V150.19H237.561V138.452C238.092 138.356 239.608 138.01 240.876 136.666C242.429 135.021 242.507 133.049 242.512 132.581V122.016C242.127 121.034 241.214 120.363 240.185 120.306C239.055 120.244 237.99 120.933 237.561 122.016Z" fill="#0C543B"/>
<path d="M241.034 130.221V127.875V126.7C241.095 126.773 241.452 127.185 241.878 127.151C242.384 127.11 242.908 126.445 242.793 125.527V124.352V123.179L242.792 122.004C242.465 120.944 241.485 120.186 240.358 120.108C239.093 120.02 237.89 120.806 237.512 122.005V123.179V124.352L237.513 125.528V126.701V127.875V129.048V130.221V131.396L237.514 132.569C237.736 133.288 238.422 133.794 239.203 133.822C240.033 133.852 240.795 133.335 241.034 132.569V131.396V130.221Z" fill="white"/>
<path d="M236.161 130.224L236.16 127.878V126.703V125.53V124.355V123.182L236.159 122.007V120.834V119.659V118.486V117.311C236.098 116.008 235.024 114.967 233.743 114.857C232.293 114.732 230.899 115.826 230.816 117.311C230.816 117.703 230.816 118.095 230.816 118.486V119.659V120.834L230.817 122.007V123.182V124.355V125.531V126.703V127.878V129.051L230.818 130.224C230.807 130.954 231.261 131.518 231.796 131.602C232.162 131.66 232.475 131.48 232.598 131.399V132.572V133.747V134.92L232.599 136.095V137.268C232.702 137.731 233.161 138.032 233.613 137.976C233.988 137.929 234.303 137.644 234.379 137.268C234.379 136.877 234.379 136.486 234.379 136.095V134.92V133.747L234.378 132.572V131.399C234.425 131.797 234.732 132.113 235.105 132.174C235.572 132.25 236.081 131.916 236.161 131.399C236.161 131.007 236.161 130.615 236.161 130.224Z" fill="white"/>
<path d="M231.851 142.325C231.657 141.341 230.535 140.575 229.273 140.79V141.963V144.311C229.313 144.725 229.635 145.048 230.018 145.089C230.462 145.137 230.9 144.797 230.953 144.311C231.632 143.823 231.992 143.041 231.851 142.325Z" fill="white"/>
<path d="M229.565 131.399V130.223L229.564 129.051V127.878V126.703V125.529C229.349 124.326 228.219 123.432 226.906 123.418C225.569 123.403 224.402 124.305 224.184 125.53V126.703V127.878L224.185 130.224V131.399V132.572V133.747C224.09 134.457 224.515 135.049 225.052 135.159C225.504 135.252 225.901 134.976 225.978 134.92C226.052 135.263 226.309 135.539 226.634 135.615C227.083 135.719 227.618 135.434 227.773 134.919C227.773 134.529 227.773 134.138 227.773 133.746V132.572C227.862 132.97 228.25 133.256 228.686 133.248C229.11 133.24 229.478 132.959 229.565 132.571C229.565 132.181 229.565 131.789 229.565 131.399Z" fill="white"/>
<path d="M233.568 144.283C233.543 144.75 233.899 145.148 234.364 145.173C234.829 145.198 235.225 144.839 235.25 144.373C235.276 143.905 234.92 143.507 234.455 143.482C233.99 143.458 233.593 143.816 233.568 144.283Z" fill="white"/>
<path d="M235.552 143.281C235.527 143.745 235.88 144.14 236.342 144.165C236.804 144.189 237.198 143.833 237.223 143.37C237.248 142.906 236.894 142.511 236.433 142.486C235.971 142.461 235.577 142.817 235.552 143.281Z" fill="white"/>
<defs>
<linearGradient id="paint0_linear_1114_503" x1="150" y1="18.3591" x2="150" y2="120.052" gradientUnits="userSpaceOnUse">
<stop stop-color="#595959"/>
<stop offset="1" stop-color="#C8C8C8"/>
</linearGradient>
</defs>
</svg>
