<svg width="300" height="155" viewBox="0 0 300 155" fill="none" xmlns="http://www.w3.org/2000/svg">
<path fill-rule="evenodd" clip-rule="evenodd" d="M300 150C300 67.157 232.843 0 150 0C67.158 0 0 67.157 0 150H300Z" fill="url(#paint0_linear_621_221)"/>
<path fill-rule="evenodd" clip-rule="evenodd" d="M3.39091 118.138C5.18591 118.176 6.81091 118.151 8.21091 118.013C14.9789 117.372 32.2799 120.041 34.5349 121.135C36.7909 122.255 44.3019 125.138 48.4299 125.377C52.5799 125.592 63.8589 126.045 69.8589 127.806C75.8809 129.595 85.2869 131.142 88.8509 131.596C91.1519 131.889 98.5729 134.131 105.024 135.439C97.9189 135.946 90.0459 135.946 85.7609 135.946H42.3169C36.2419 135.946 15.1049 140.708 0.128906 143.729C0.488906 134.985 1.59691 126.434 3.39091 118.138Z" fill="#FAE4D7"/>
<path fill-rule="evenodd" clip-rule="evenodd" d="M0.129 143.726C15.106 140.705 36.239 135.943 42.314 135.943H85.758C90.044 135.943 97.916 135.943 105.022 135.436C108.675 135.197 112.126 134.822 114.788 134.262C122.683 132.581 143.547 130.927 149.999 129.592C156.45 128.257 182.458 127.244 190.917 127.244C199.375 127.244 209.818 123.934 213.473 122.921C217.127 121.906 235.758 121.266 244.488 123.241C253.217 125.269 259.983 122.253 265.353 121.586C270.721 120.919 279.744 120.919 283.962 120.012C286.801 119.401 292.204 120.785 297.325 121.65C299.081 130.83 300 140.307 300 150H130.294C90.331 148.587 47.263 146.571 0.125 143.841C0.126 143.802 0.128 143.764 0.129 143.726Z" fill="#FEF7F0"/>
<path fill-rule="evenodd" clip-rule="evenodd" d="M55.9526 107.966C55.6516 108.694 55.9966 109.53 56.7226 109.832C57.4476 110.134 58.2796 109.787 58.5806 109.059C58.8806 108.331 58.5356 107.495 57.8106 107.193C57.0856 106.892 56.2526 107.238 55.9526 107.966Z" fill="white"/>
<path fill-rule="evenodd" clip-rule="evenodd" d="M118.886 42.4318C118.586 43.1598 118.931 43.9958 119.656 44.2978C120.381 44.5998 121.214 44.2529 121.514 43.5249C121.815 42.7969 121.47 41.9608 120.744 41.6588C120.019 41.3568 119.187 41.7038 118.886 42.4318Z" fill="white"/>
<path fill-rule="evenodd" clip-rule="evenodd" d="M173.249 84.49C172.949 85.218 173.294 86.054 174.019 86.356C174.744 86.658 175.577 86.311 175.878 85.583C176.178 84.855 175.833 84.019 175.108 83.717C174.383 83.416 173.55 83.762 173.249 84.49Z" fill="white"/>
<path fill-rule="evenodd" clip-rule="evenodd" d="M211.237 151.457C210.937 152.185 211.282 153.021 212.007 153.323C212.732 153.624 213.565 153.278 213.865 152.55C214.166 151.822 213.821 150.986 213.096 150.684C212.37 150.382 211.538 150.729 211.237 151.457Z" fill="white"/>
<path fill-rule="evenodd" clip-rule="evenodd" d="M92.7807 100.321C92.4797 101.049 92.8247 101.885 93.5497 102.187C94.2747 102.488 95.1077 102.142 95.4087 101.414C95.7087 100.686 95.3637 99.85 94.6387 99.548C93.9137 99.246 93.0807 99.593 92.7807 100.321Z" fill="white"/>
<path fill-rule="evenodd" clip-rule="evenodd" d="M155.71 34.7873C155.409 35.5153 155.754 36.3513 156.48 36.6533C157.205 36.9543 158.038 36.6083 158.338 35.8803C158.638 35.1523 158.293 34.3163 157.568 34.0143C156.843 33.7123 156.01 34.0593 155.71 34.7873Z" fill="white"/>
<path fill-rule="evenodd" clip-rule="evenodd" d="M107.546 29.3143C107.245 30.0433 107.59 30.8793 108.316 31.1803C109.041 31.4823 109.874 31.1363 110.174 30.4073C110.474 29.6793 110.129 28.8433 109.404 28.5423C108.679 28.2403 107.846 28.5863 107.546 29.3143Z" fill="white"/>
<path fill-rule="evenodd" clip-rule="evenodd" d="M187.417 33.8772C187.116 34.6062 187.461 35.4422 188.187 35.7432C188.912 36.0452 189.745 35.6992 190.045 34.9702C190.345 34.2422 190 33.4062 189.275 33.1042C188.55 32.8032 187.717 33.1492 187.417 33.8772Z" fill="white"/>
<path fill-rule="evenodd" clip-rule="evenodd" d="M210.077 76.8449C209.777 77.5729 210.122 78.4089 210.847 78.7109C211.572 79.0119 212.405 78.6659 212.705 77.9379C213.006 77.2099 212.661 76.3739 211.936 76.0719C211.21 75.7699 210.378 76.1169 210.077 76.8449Z" fill="white"/>
<path fill-rule="evenodd" clip-rule="evenodd" d="M176.464 146.094C176.163 146.822 176.508 147.658 177.233 147.96C177.959 148.261 178.791 147.915 179.092 147.187C179.392 146.459 179.047 145.623 178.322 145.321C177.597 145.019 176.764 145.366 176.464 146.094Z" fill="white"/>
<path fill-rule="evenodd" clip-rule="evenodd" d="M248.065 143.812C247.765 144.54 248.109 145.376 248.835 145.678C249.56 145.979 250.393 145.633 250.693 144.905C250.993 144.177 250.649 143.34 249.923 143.039C249.198 142.737 248.365 143.084 248.065 143.812Z" fill="white"/>
<path fill-rule="evenodd" clip-rule="evenodd" d="M36.1323 112.056C35.8313 112.784 36.1763 113.62 36.9013 113.922C37.6273 114.223 38.4593 113.877 38.7603 113.149C39.0603 112.421 38.7153 111.585 37.9903 111.283C37.2653 110.981 36.4323 111.328 36.1323 112.056Z" fill="white"/>
<path fill-rule="evenodd" clip-rule="evenodd" d="M99.0619 46.5222C98.7609 47.2502 99.1059 48.0862 99.8319 48.3882C100.557 48.6892 101.39 48.3432 101.69 47.6152C101.99 46.8872 101.645 46.0512 100.92 45.7492C100.195 45.4472 99.3619 45.7942 99.0619 46.5222Z" fill="white"/>
<path fill-rule="evenodd" clip-rule="evenodd" d="M153.429 88.5803C153.129 89.3083 153.474 90.1443 154.199 90.4463C154.924 90.7473 155.757 90.4013 156.057 89.6733C156.358 88.9453 156.013 88.1093 155.288 87.8073C154.562 87.5053 153.73 87.8523 153.429 88.5803Z" fill="white"/>
<path fill-rule="evenodd" clip-rule="evenodd" d="M44.784 129.298C44.484 130.026 44.829 130.863 45.554 131.164C46.279 131.466 47.112 131.119 47.412 130.391C47.713 129.663 47.368 128.827 46.643 128.525C45.917 128.224 45.085 128.57 44.784 129.298Z" fill="white"/>
<path fill-rule="evenodd" clip-rule="evenodd" d="M107.714 63.7639C107.413 64.4919 107.758 65.3279 108.483 65.6299C109.209 65.9319 110.041 65.5849 110.342 64.8569C110.642 64.1289 110.297 63.2929 109.572 62.9909C108.847 62.6899 108.014 63.0359 107.714 63.7639Z" fill="white"/>
<path fill-rule="evenodd" clip-rule="evenodd" d="M162.081 105.822C161.781 106.55 162.126 107.387 162.851 107.688C163.576 107.99 164.409 107.643 164.709 106.915C165.01 106.187 164.665 105.351 163.939 105.049C163.214 104.748 162.381 105.094 162.081 105.822Z" fill="white"/>
<path fill-rule="evenodd" clip-rule="evenodd" d="M67.7528 132.3C67.4528 133.028 67.7978 133.864 68.5228 134.166C69.2478 134.468 70.0808 134.121 70.3808 133.393C70.6818 132.665 70.3368 131.829 69.6118 131.527C68.8868 131.226 68.0538 131.572 67.7528 132.3Z" fill="white"/>
<path fill-rule="evenodd" clip-rule="evenodd" d="M130.683 66.7659C130.382 67.4939 130.727 68.3299 131.453 68.6319C132.178 68.9339 133.01 68.5869 133.311 67.8589C133.611 67.1309 133.266 66.2949 132.541 65.9929C131.816 65.6919 130.983 66.0379 130.683 66.7659Z" fill="white"/>
<path fill-rule="evenodd" clip-rule="evenodd" d="M185.05 108.824C184.75 109.552 185.095 110.389 185.82 110.69C186.545 110.992 187.378 110.645 187.678 109.917C187.979 109.189 187.634 108.353 186.908 108.051C186.183 107.75 185.351 108.096 185.05 108.824Z" fill="white"/>
<path fill-rule="evenodd" clip-rule="evenodd" d="M90.499 132.3C90.199 133.028 90.543 133.864 91.269 134.166C91.994 134.468 92.827 134.121 93.127 133.393C93.427 132.665 93.082 131.829 92.357 131.527C91.632 131.226 90.799 131.572 90.499 132.3Z" fill="white"/>
<path fill-rule="evenodd" clip-rule="evenodd" d="M153.429 66.7659C153.129 67.4939 153.474 68.3299 154.199 68.6319C154.924 68.9339 155.757 68.5869 156.057 67.8589C156.358 67.1309 156.013 66.2949 155.288 65.9929C154.562 65.6919 153.73 66.0379 153.429 66.7659Z" fill="white"/>
<path fill-rule="evenodd" clip-rule="evenodd" d="M207.796 108.824C207.495 109.552 207.84 110.389 208.565 110.69C209.291 110.992 210.123 110.645 210.424 109.917C210.724 109.189 210.379 108.353 209.654 108.051C208.929 107.75 208.096 108.096 207.796 108.824Z" fill="white"/>
<path fill-rule="evenodd" clip-rule="evenodd" d="M116.421 127.156C116.12 127.884 116.465 128.72 117.19 129.022C117.916 129.323 118.748 128.977 119.049 128.249C119.349 127.521 119.004 126.685 118.279 126.383C117.554 126.081 116.721 126.428 116.421 127.156Z" fill="white"/>
<path fill-rule="evenodd" clip-rule="evenodd" d="M179.35 61.6223C179.05 62.3503 179.395 63.1863 180.12 63.4883C180.845 63.7893 181.678 63.4433 181.978 62.7153C182.279 61.9873 181.934 61.1503 181.208 60.8493C180.483 60.5473 179.65 60.8943 179.35 61.6223Z" fill="white"/>
<path fill-rule="evenodd" clip-rule="evenodd" d="M233.718 103.68C233.418 104.408 233.763 105.244 234.488 105.546C235.213 105.847 236.046 105.501 236.347 104.773C236.647 104.045 236.302 103.209 235.577 102.907C234.852 102.605 234.019 102.952 233.718 103.68Z" fill="white"/>
<path fill-rule="evenodd" clip-rule="evenodd" d="M73.0029 114.494C72.7029 115.222 73.0469 116.058 73.7729 116.36C74.4979 116.662 75.3309 116.315 75.6309 115.587C75.9309 114.859 75.5869 114.023 74.8609 113.721C74.1359 113.42 73.3029 113.766 73.0029 114.494Z" fill="white"/>
<path fill-rule="evenodd" clip-rule="evenodd" d="M135.932 48.9602C135.632 49.6882 135.977 50.5242 136.702 50.8262C137.427 51.1272 138.26 50.7812 138.56 50.0532C138.861 49.3252 138.516 48.4892 137.791 48.1872C137.065 47.8852 136.233 48.2322 135.932 48.9602Z" fill="white"/>
<path fill-rule="evenodd" clip-rule="evenodd" d="M190.3 91.0178C189.999 91.7458 190.344 92.5818 191.069 92.8838C191.795 93.1858 192.627 92.8389 192.928 92.1109C193.228 91.3829 192.883 90.5469 192.158 90.2449C191.433 89.9439 190.6 90.2898 190.3 91.0178Z" fill="white"/>
<path fill-rule="evenodd" clip-rule="evenodd" d="M109.831 106.849C109.53 107.577 109.875 108.413 110.6 108.715C111.326 109.016 112.158 108.67 112.459 107.942C112.759 107.214 112.414 106.378 111.689 106.076C110.964 105.774 110.131 106.121 109.831 106.849Z" fill="white"/>
<path fill-rule="evenodd" clip-rule="evenodd" d="M172.761 41.3152C172.461 42.0432 172.806 42.8791 173.531 43.1811C174.256 43.4821 175.089 43.1361 175.389 42.4081C175.69 41.6801 175.345 40.8441 174.619 40.5421C173.894 40.2401 173.061 40.5872 172.761 41.3152Z" fill="white"/>
<path fill-rule="evenodd" clip-rule="evenodd" d="M227.128 83.3732C226.828 84.1012 227.173 84.9373 227.898 85.2393C228.623 85.5403 229.456 85.1943 229.756 84.4663C230.057 83.7383 229.712 82.9023 228.987 82.6003C228.261 82.2983 227.429 82.6452 227.128 83.3732Z" fill="white"/>
<path fill-rule="evenodd" clip-rule="evenodd" d="M265.112 150.34C264.812 151.068 265.157 151.904 265.882 152.206C266.607 152.507 267.44 152.161 267.74 151.433C268.041 150.704 267.696 149.868 266.971 149.567C266.245 149.265 265.413 149.611 265.112 150.34Z" fill="white"/>
<path fill-rule="evenodd" clip-rule="evenodd" d="M73.0029 95.7312C72.7029 96.4592 73.0469 97.2952 73.7729 97.5972C74.4979 97.8982 75.3309 97.5522 75.6309 96.8242C75.9309 96.0962 75.5869 95.2602 74.8609 94.9582C74.1359 94.6562 73.3029 95.0032 73.0029 95.7312Z" fill="white"/>
<path fill-rule="evenodd" clip-rule="evenodd" d="M135.932 30.197C135.632 30.925 135.977 31.761 136.702 32.063C137.427 32.364 138.26 32.018 138.56 31.29C138.861 30.562 138.516 29.725 137.791 29.424C137.065 29.122 136.233 29.469 135.932 30.197Z" fill="white"/>
<path fill-rule="evenodd" clip-rule="evenodd" d="M190.3 72.2551C189.999 72.9831 190.344 73.8191 191.069 74.1211C191.795 74.4221 192.627 74.0761 192.928 73.3481C193.228 72.6201 192.883 71.7841 192.158 71.4821C191.433 71.1801 190.6 71.5271 190.3 72.2551Z" fill="white"/>
<path fill-rule="evenodd" clip-rule="evenodd" d="M156.686 141.504C156.386 142.232 156.731 143.068 157.456 143.37C158.181 143.671 159.014 143.325 159.314 142.597C159.615 141.869 159.27 141.032 158.544 140.731C157.819 140.429 156.987 140.776 156.686 141.504Z" fill="white"/>
<path fill-rule="evenodd" clip-rule="evenodd" d="M228.284 139.222C227.984 139.95 228.329 140.786 229.054 141.087C229.779 141.389 230.612 141.043 230.913 140.315C231.213 139.586 230.868 138.75 230.143 138.449C229.418 138.147 228.585 138.493 228.284 139.222Z" fill="white"/>
<path fill-rule="evenodd" clip-rule="evenodd" d="M57.1244 87.2801C56.8234 88.0081 57.1684 88.8441 57.8944 89.1451C58.6194 89.4471 59.4524 89.1011 59.7524 88.3731C60.0524 87.6441 59.7074 86.8081 58.9824 86.5071C58.2574 86.2051 57.4244 86.5511 57.1244 87.2801Z" fill="white"/>
<path fill-rule="evenodd" clip-rule="evenodd" d="M120.063 62.9349C120.814 62.7059 121.238 61.9079 121.01 61.1539C120.781 60.3999 119.986 59.9729 119.235 60.2029C118.484 60.4319 118.06 61.2309 118.288 61.9849C118.517 62.7389 119.312 63.1649 120.063 62.9349Z" fill="white"/>
<path fill-rule="evenodd" clip-rule="evenodd" d="M174.421 63.804C174.12 64.532 174.465 65.3681 175.19 65.6701C175.916 65.9711 176.748 65.6251 177.049 64.8971C177.349 64.1681 177.004 63.3321 176.279 63.0311C175.554 62.7291 174.721 63.075 174.421 63.804Z" fill="white"/>
<path fill-rule="evenodd" clip-rule="evenodd" d="M140.807 133.053C140.507 133.781 140.852 134.617 141.577 134.918C142.302 135.22 143.135 134.874 143.435 134.146C143.736 133.417 143.391 132.581 142.665 132.28C141.94 131.978 141.107 132.324 140.807 133.053Z" fill="white"/>
<path fill-rule="evenodd" clip-rule="evenodd" d="M212.405 130.77C212.105 131.499 212.45 132.335 213.175 132.636C213.9 132.938 214.733 132.592 215.033 131.863C215.334 131.135 214.989 130.299 214.264 129.998C213.538 129.696 212.706 130.042 212.405 130.77Z" fill="white"/>
<path fill-rule="evenodd" clip-rule="evenodd" d="M76.0268 74.7391C75.7258 75.4671 76.0708 76.3031 76.7968 76.6041C77.5218 76.9061 78.3548 76.5601 78.6548 75.8321C78.9548 75.1031 78.6098 74.2671 77.8848 73.9661C77.1598 73.6641 76.3268 74.0101 76.0268 74.7391Z" fill="white"/>
<path fill-rule="evenodd" clip-rule="evenodd" d="M98.407 56.2343C99.158 56.0053 99.582 55.2063 99.354 54.4523C99.125 53.6983 98.33 53.2723 97.579 53.5023C96.828 53.7313 96.404 54.5293 96.632 55.2843C96.861 56.0383 97.656 56.4643 98.407 56.2343Z" fill="white"/>
<path fill-rule="evenodd" clip-rule="evenodd" d="M193.328 51.263C193.027 51.991 193.372 52.827 194.097 53.128C194.823 53.43 195.655 53.084 195.956 52.356C196.256 51.627 195.911 50.791 195.186 50.49C194.461 50.188 193.628 50.534 193.328 51.263Z" fill="white"/>
<path fill-rule="evenodd" clip-rule="evenodd" d="M159.71 120.511C159.41 121.24 159.755 122.076 160.48 122.377C161.205 122.679 162.038 122.333 162.338 121.604C162.639 120.876 162.294 120.04 161.568 119.739C160.843 119.437 160.01 119.783 159.71 120.511Z" fill="white"/>
<path fill-rule="evenodd" clip-rule="evenodd" d="M231.311 118.229C231.011 118.958 231.356 119.794 232.081 120.095C232.806 120.397 233.639 120.051 233.939 119.322C234.24 118.594 233.895 117.758 233.17 117.456C232.444 117.155 231.612 117.501 231.311 118.229Z" fill="white"/>
<path fill-rule="evenodd" clip-rule="evenodd" d="M93.3309 81.0091C93.0309 81.7371 93.3759 82.5731 94.1009 82.8751C94.8259 83.1771 95.6589 82.8301 95.9589 82.1021C96.2599 81.3741 95.9149 80.5381 95.1899 80.2361C94.4649 79.9351 93.6319 80.2811 93.3309 81.0091Z" fill="white"/>
<path fill-rule="evenodd" clip-rule="evenodd" d="M92.2472 38.832C92.9982 38.603 93.4222 37.804 93.1932 37.05C92.9652 36.296 92.1702 35.87 91.4192 36.1C90.6682 36.329 90.2432 37.127 90.4722 37.881C90.7002 38.635 91.4952 39.061 92.2472 38.832Z" fill="white"/>
<path fill-rule="evenodd" clip-rule="evenodd" d="M75.6173 55.5649C76.3683 55.3359 76.7933 54.5379 76.5643 53.7839C76.3363 53.0299 75.5413 52.6039 74.7903 52.8329C74.0393 53.0619 73.6143 53.8609 73.8433 54.6149C74.0713 55.3689 74.8663 55.7949 75.6173 55.5649Z" fill="white"/>
<path fill-rule="evenodd" clip-rule="evenodd" d="M51.6531 82.959C52.4041 82.73 52.8281 81.931 52.5991 81.177C52.3711 80.423 51.5761 79.997 50.8251 80.226C50.0741 80.456 49.6501 81.254 49.8781 82.008C50.1061 82.762 50.9021 83.188 51.6531 82.959Z" fill="white"/>
<path fill-rule="evenodd" clip-rule="evenodd" d="M57.8985 62.332C58.6505 62.103 59.0745 61.305 58.8455 60.551C58.6175 59.797 57.8225 59.371 57.0715 59.6C56.3205 59.829 55.8955 60.628 56.1245 61.382C56.3525 62.136 57.1475 62.562 57.8985 62.332Z" fill="white"/>
<path fill-rule="evenodd" clip-rule="evenodd" d="M35.0157 96.7749C35.7667 96.5459 36.1917 95.7469 35.9627 94.9929C35.7347 94.2389 34.9397 93.8129 34.1887 94.0419C33.4377 94.2719 33.0127 95.0699 33.2417 95.8239C33.4697 96.5779 34.2647 97.0039 35.0157 96.7749Z" fill="white"/>
<path fill-rule="evenodd" clip-rule="evenodd" d="M32.3712 123.435C33.1222 123.206 33.5472 122.408 33.3182 121.654C33.0902 120.9 32.2952 120.474 31.5442 120.703C30.7932 120.932 30.3682 121.731 30.5972 122.485C30.8252 123.239 31.6202 123.665 32.3712 123.435Z" fill="white"/>
<path fill-rule="evenodd" clip-rule="evenodd" d="M279.934 128.79C280.685 128.561 281.109 127.763 280.881 127.008C280.652 126.254 279.857 125.828 279.106 126.058C278.355 126.287 277.931 127.085 278.159 127.84C278.387 128.594 279.183 129.02 279.934 128.79Z" fill="white"/>
<path fill-rule="evenodd" clip-rule="evenodd" d="M258.434 76.1919C259.185 75.9629 259.609 75.1639 259.381 74.4099C259.152 73.6559 258.357 73.2299 257.606 73.4589C256.855 73.6889 256.431 74.4869 256.659 75.2409C256.888 75.9949 257.683 76.4209 258.434 76.1919Z" fill="white"/>
<path fill-rule="evenodd" clip-rule="evenodd" d="M210.313 122.301C211.064 122.072 211.488 121.273 211.26 120.519C211.031 119.765 210.236 119.339 209.485 119.569C208.734 119.798 208.31 120.596 208.538 121.35C208.767 122.105 209.562 122.531 210.313 122.301Z" fill="white"/>
<path fill-rule="evenodd" clip-rule="evenodd" d="M210.628 57.533C210.328 58.261 210.673 59.097 211.398 59.399C212.123 59.701 212.956 59.354 213.256 58.626C213.557 57.898 213.212 57.062 212.486 56.76C211.761 56.459 210.929 56.805 210.628 57.533Z" fill="white"/>
<path fill-rule="evenodd" clip-rule="evenodd" d="M177.015 126.782C176.714 127.51 177.059 128.346 177.784 128.648C178.51 128.95 179.342 128.603 179.643 127.875C179.943 127.147 179.598 126.311 178.873 126.009C178.148 125.707 177.315 126.054 177.015 126.782Z" fill="white"/>
<path fill-rule="evenodd" clip-rule="evenodd" d="M248.613 124.5C248.312 125.228 248.657 126.064 249.383 126.366C250.108 126.667 250.941 126.321 251.241 125.593C251.541 124.865 251.196 124.029 250.471 123.727C249.746 123.425 248.913 123.772 248.613 124.5Z" fill="white"/>
<path fill-rule="evenodd" clip-rule="evenodd" d="M69.793 101.674C69.425 102.566 69.848 103.591 70.737 103.961C71.626 104.331 72.647 103.906 73.015 103.013C73.383 102.121 72.96 101.096 72.071 100.726C71.182 100.356 70.162 100.781 69.793 101.674Z" fill="white"/>
<path fill-rule="evenodd" clip-rule="evenodd" d="M132.723 36.1402C132.354 37.0322 132.777 38.0572 133.666 38.4272C134.555 38.7972 135.576 38.3722 135.944 37.4792C136.312 36.5872 135.89 35.5622 135.001 35.1922C134.112 34.8222 133.091 35.2472 132.723 36.1402Z" fill="white"/>
<path fill-rule="evenodd" clip-rule="evenodd" d="M187.09 78.1983C186.722 79.0903 187.145 80.1153 188.034 80.4853C188.923 80.8553 189.943 80.4303 190.312 79.5373C190.68 78.6453 190.257 77.6203 189.368 77.2503C188.479 76.8803 187.458 77.3053 187.09 78.1983Z" fill="white"/>
<path fill-rule="evenodd" clip-rule="evenodd" d="M153.477 147.447C153.109 148.339 153.532 149.364 154.421 149.734C155.31 150.104 156.331 149.679 156.699 148.786C157.067 147.894 156.645 146.869 155.755 146.499C154.866 146.129 153.846 146.554 153.477 147.447Z" fill="white"/>
<path fill-rule="evenodd" clip-rule="evenodd" d="M225.074 145.164C224.706 146.057 225.128 147.082 226.017 147.452C226.906 147.821 227.927 147.397 228.295 146.504C228.664 145.612 228.241 144.587 227.352 144.217C226.463 143.847 225.442 144.272 225.074 145.164Z" fill="white"/>
<path fill-rule="evenodd" clip-rule="evenodd" d="M106.621 94.0279C106.253 94.9209 106.676 95.9459 107.565 96.3159C108.454 96.6849 109.474 96.2609 109.843 95.3679C110.211 94.4759 109.788 93.4509 108.899 93.0809C108.01 92.7109 106.989 93.1359 106.621 94.0279Z" fill="white"/>
<path fill-rule="evenodd" clip-rule="evenodd" d="M169.551 28.4942C169.183 29.3872 169.606 30.4122 170.495 30.7822C171.384 31.1512 172.405 30.7272 172.773 29.8342C173.141 28.9422 172.718 27.9172 171.829 27.5472C170.94 27.1772 169.92 27.6022 169.551 28.4942Z" fill="white"/>
<path fill-rule="evenodd" clip-rule="evenodd" d="M121.383 23.0222C121.015 23.9152 121.438 24.9402 122.327 25.3092C123.216 25.6792 124.237 25.2542 124.605 24.3622C124.973 23.4692 124.55 22.4442 123.661 22.0752C122.772 21.7052 121.752 22.1292 121.383 23.0222Z" fill="white"/>
<path fill-rule="evenodd" clip-rule="evenodd" d="M201.254 27.5851C200.886 28.4781 201.309 29.5021 202.198 29.8721C203.087 30.2421 204.108 29.8171 204.476 28.9251C204.844 28.0321 204.421 27.0071 203.532 26.6371C202.643 26.2681 201.623 26.6921 201.254 27.5851Z" fill="white"/>
<path fill-rule="evenodd" clip-rule="evenodd" d="M223.918 70.5523C223.55 71.4453 223.972 72.4703 224.861 72.8403C225.75 73.2093 226.771 72.7853 227.139 71.8923C227.508 71.0003 227.085 69.9753 226.196 69.6053C225.307 69.2353 224.286 69.6603 223.918 70.5523Z" fill="white"/>
<path fill-rule="evenodd" clip-rule="evenodd" d="M190.301 139.801C189.933 140.694 190.356 141.719 191.245 142.089C192.134 142.458 193.155 142.034 193.523 141.141C193.891 140.249 193.468 139.224 192.579 138.854C191.69 138.484 190.669 138.909 190.301 139.801Z" fill="white"/>
<path fill-rule="evenodd" clip-rule="evenodd" d="M261.903 137.519C261.534 138.412 261.957 139.437 262.846 139.806C263.735 140.176 264.756 139.752 265.124 138.859C265.492 137.966 265.07 136.942 264.181 136.572C263.292 136.202 262.271 136.627 261.903 137.519Z" fill="white"/>
<path fill-rule="evenodd" clip-rule="evenodd" d="M49.9688 105.763C49.6008 106.656 50.0238 107.681 50.9128 108.051C51.8018 108.42 52.8218 107.996 53.1908 107.103C53.5588 106.211 53.1358 105.186 52.2468 104.816C51.3578 104.446 50.3368 104.871 49.9688 105.763Z" fill="white"/>
<path fill-rule="evenodd" clip-rule="evenodd" d="M112.902 40.2291C112.534 41.1221 112.957 42.1471 113.846 42.5171C114.735 42.8861 115.756 42.4621 116.124 41.5691C116.492 40.6771 116.069 39.6521 115.18 39.2821C114.291 38.9121 113.271 39.3371 112.902 40.2291Z" fill="white"/>
<path fill-rule="evenodd" clip-rule="evenodd" d="M167.27 82.2871C166.902 83.1801 167.324 84.2052 168.213 84.5752C169.102 84.9442 170.123 84.5202 170.491 83.6272C170.86 82.7352 170.437 81.7102 169.548 81.3402C168.659 80.9702 167.638 81.3951 167.27 82.2871Z" fill="white"/>
<path fill-rule="evenodd" clip-rule="evenodd" d="M133.652 151.536C133.284 152.429 133.707 153.454 134.596 153.824C135.485 154.193 136.506 153.769 136.874 152.876C137.242 151.984 136.819 150.959 135.93 150.589C135.041 150.219 134.021 150.644 133.652 151.536Z" fill="white"/>
<path fill-rule="evenodd" clip-rule="evenodd" d="M205.254 149.254C204.885 150.147 205.308 151.172 206.197 151.541C207.086 151.911 208.107 151.487 208.475 150.594C208.843 149.701 208.421 148.677 207.532 148.307C206.643 147.937 205.622 148.362 205.254 149.254Z" fill="white"/>
<path fill-rule="evenodd" clip-rule="evenodd" d="M58.6213 123.006C58.2533 123.898 58.6753 124.923 59.5643 125.293C60.4533 125.663 61.4743 125.238 61.8423 124.346C62.2113 123.453 61.7883 122.428 60.8993 122.058C60.0103 121.689 58.9893 122.113 58.6213 123.006Z" fill="white"/>
<path fill-rule="evenodd" clip-rule="evenodd" d="M121.551 57.4723C121.183 58.3643 121.606 59.3893 122.495 59.7593C123.384 60.1293 124.405 59.7043 124.773 58.8123C125.141 57.9193 124.718 56.8943 123.829 56.5243C122.94 56.1553 121.919 56.5793 121.551 57.4723Z" fill="white"/>
<path fill-rule="evenodd" clip-rule="evenodd" d="M175.919 99.5299C175.55 100.422 175.973 101.447 176.862 101.817C177.751 102.187 178.772 101.762 179.14 100.87C179.508 99.9769 179.086 98.9519 178.197 98.5819C177.308 98.2129 176.287 98.6369 175.919 99.5299Z" fill="white"/>
<path fill-rule="evenodd" clip-rule="evenodd" d="M81.5899 126.008C81.2219 126.9 81.6449 127.925 82.5339 128.295C83.4229 128.665 84.4429 128.24 84.8119 127.348C85.1799 126.455 84.7569 125.43 83.8679 125.06C82.9789 124.691 81.9579 125.115 81.5899 126.008Z" fill="white"/>
<path fill-rule="evenodd" clip-rule="evenodd" d="M144.523 60.4743C144.155 61.3663 144.578 62.3912 145.467 62.7612C146.356 63.1312 147.377 62.7063 147.745 61.8143C148.113 60.9213 147.69 59.8962 146.801 59.5262C145.912 59.1572 144.892 59.5813 144.523 60.4743Z" fill="white"/>
<path fill-rule="evenodd" clip-rule="evenodd" d="M198.891 102.532C198.522 103.424 198.945 104.449 199.834 104.819C200.723 105.189 201.744 104.764 202.112 103.872C202.48 102.979 202.058 101.954 201.169 101.584C200.28 101.215 199.259 101.639 198.891 102.532Z" fill="white"/>
<path fill-rule="evenodd" clip-rule="evenodd" d="M104.336 126.008C103.968 126.9 104.391 127.925 105.28 128.295C106.169 128.665 107.19 128.24 107.558 127.348C107.926 126.455 107.503 125.43 106.614 125.06C105.725 124.691 104.705 125.115 104.336 126.008Z" fill="white"/>
<path fill-rule="evenodd" clip-rule="evenodd" d="M167.27 60.4743C166.902 61.3663 167.324 62.3912 168.213 62.7612C169.102 63.1312 170.123 62.7063 170.491 61.8143C170.86 60.9213 170.437 59.8962 169.548 59.5262C168.659 59.1572 167.638 59.5813 167.27 60.4743Z" fill="white"/>
<path fill-rule="evenodd" clip-rule="evenodd" d="M221.637 102.532C221.269 103.424 221.692 104.449 222.581 104.819C223.47 105.189 224.49 104.764 224.859 103.872C225.227 102.979 224.804 101.954 223.915 101.584C223.026 101.215 222.005 101.639 221.637 102.532Z" fill="white"/>
<path fill-rule="evenodd" clip-rule="evenodd" d="M130.258 120.863C129.89 121.756 130.313 122.781 131.202 123.151C132.091 123.52 133.112 123.096 133.48 122.203C133.848 121.311 133.425 120.286 132.536 119.916C131.647 119.546 130.626 119.971 130.258 120.863Z" fill="white"/>
<path fill-rule="evenodd" clip-rule="evenodd" d="M193.188 55.3292C192.819 56.2222 193.242 57.2471 194.131 57.6171C195.02 57.9861 196.041 57.5622 196.409 56.6692C196.777 55.7762 196.355 54.7521 195.466 54.3821C194.577 54.0121 193.556 54.4372 193.188 55.3292Z" fill="white"/>
<path fill-rule="evenodd" clip-rule="evenodd" d="M247.555 97.3873C247.187 98.2803 247.61 99.3053 248.499 99.6753C249.388 100.044 250.408 99.6203 250.777 98.7273C251.145 97.8353 250.722 96.8103 249.833 96.4403C248.944 96.0703 247.923 96.4953 247.555 97.3873Z" fill="white"/>
<path fill-rule="evenodd" clip-rule="evenodd" d="M95.4498 115.361C95.0808 116.253 95.5038 117.278 96.3928 117.648C97.2818 118.018 98.3028 117.593 98.6708 116.7C99.0388 115.808 98.6168 114.783 97.7278 114.413C96.8388 114.043 95.8178 114.468 95.4498 115.361Z" fill="white"/>
<path fill-rule="evenodd" clip-rule="evenodd" d="M158.379 49.8272C158.011 50.7192 158.433 51.7442 159.323 52.1142C160.212 52.4842 161.232 52.0592 161.601 51.1662C161.969 50.2742 161.546 49.2492 160.657 48.8792C159.768 48.5092 158.747 48.9342 158.379 49.8272Z" fill="white"/>
<path fill-rule="evenodd" clip-rule="evenodd" d="M212.746 91.8849C212.378 92.7769 212.801 93.8019 213.69 94.1719C214.579 94.5419 215.6 94.1169 215.968 93.2249C216.336 92.3319 215.913 91.3069 215.024 90.9369C214.135 90.5679 213.115 90.9919 212.746 91.8849Z" fill="white"/>
<path fill-rule="evenodd" clip-rule="evenodd" d="M86.8399 108.202C86.4719 109.094 86.8949 110.119 87.7839 110.489C88.6729 110.859 89.6939 110.434 90.0619 109.541C90.4299 108.649 90.0069 107.624 89.1179 107.254C88.2289 106.884 87.2089 107.309 86.8399 108.202Z" fill="white"/>
<path fill-rule="evenodd" clip-rule="evenodd" d="M149.774 42.667C149.406 43.56 149.828 44.585 150.717 44.955C151.606 45.324 152.627 44.9 152.995 44.007C153.364 43.115 152.941 42.09 152.052 41.72C151.163 41.35 150.142 41.775 149.774 42.667Z" fill="white"/>
<path fill-rule="evenodd" clip-rule="evenodd" d="M204.137 84.7261C203.769 85.6181 204.192 86.6431 205.081 87.0131C205.97 87.3831 206.991 86.9581 207.359 86.0651C207.727 85.1731 207.304 84.1481 206.415 83.7781C205.526 83.4081 204.505 83.8331 204.137 84.7261Z" fill="white"/>
<path fill-rule="evenodd" clip-rule="evenodd" d="M242.125 151.692C241.757 152.585 242.18 153.61 243.069 153.98C243.958 154.349 244.978 153.925 245.347 153.032C245.715 152.14 245.292 151.115 244.403 150.745C243.514 150.375 242.493 150.8 242.125 151.692Z" fill="white"/>
<path fill-rule="evenodd" clip-rule="evenodd" d="M86.8399 89.438C86.4719 90.331 86.8949 91.356 87.7839 91.726C88.6729 92.095 89.6939 91.671 90.0619 90.778C90.4299 89.886 90.0069 88.861 89.1179 88.491C88.2289 88.121 87.2089 88.546 86.8399 89.438Z" fill="white"/>
<path fill-rule="evenodd" clip-rule="evenodd" d="M204.137 65.962C203.769 66.855 204.192 67.88 205.081 68.25C205.97 68.619 206.991 68.195 207.359 67.302C207.727 66.41 207.304 65.385 206.415 65.015C205.526 64.645 204.505 65.07 204.137 65.962Z" fill="white"/>
<path fill-rule="evenodd" clip-rule="evenodd" d="M170.524 135.211C170.155 136.104 170.578 137.129 171.467 137.499C172.356 137.868 173.377 137.444 173.745 136.551C174.113 135.658 173.691 134.634 172.802 134.264C171.913 133.894 170.892 134.319 170.524 135.211Z" fill="white"/>
<path fill-rule="evenodd" clip-rule="evenodd" d="M242.125 132.929C241.757 133.822 242.18 134.847 243.069 135.216C243.958 135.586 244.978 135.162 245.347 134.269C245.715 133.376 245.292 132.351 244.403 131.982C243.514 131.612 242.493 132.036 242.125 132.929Z" fill="white"/>
<path fill-rule="evenodd" clip-rule="evenodd" d="M70.9609 80.987C70.5929 81.88 71.0159 82.905 71.9049 83.274C72.7939 83.644 73.8149 83.22 74.1829 82.327C74.5509 81.434 74.1279 80.409 73.2389 80.04C72.3499 79.67 71.3299 80.094 70.9609 80.987Z" fill="white"/>
<path fill-rule="evenodd" clip-rule="evenodd" d="M106.434 56.1971C107.355 55.9151 107.875 54.9371 107.595 54.0121C107.315 53.0881 106.34 52.566 105.42 52.847C104.499 53.128 103.979 54.1071 104.259 55.0311C104.539 55.9551 105.514 56.4781 106.434 56.1971Z" fill="white"/>
<path fill-rule="evenodd" clip-rule="evenodd" d="M188.258 57.5113C187.89 58.4043 188.313 59.4293 189.202 59.7983C190.091 60.1683 191.111 59.7443 191.48 58.8513C191.848 57.9583 191.425 56.9333 190.536 56.5643C189.647 56.1943 188.626 56.6193 188.258 57.5113Z" fill="white"/>
<path fill-rule="evenodd" clip-rule="evenodd" d="M154.645 126.76C154.276 127.653 154.699 128.678 155.588 129.047C156.477 129.417 157.498 128.993 157.866 128.1C158.234 127.207 157.812 126.182 156.923 125.813C156.034 125.443 155.013 125.867 154.645 126.76Z" fill="white"/>
<path fill-rule="evenodd" clip-rule="evenodd" d="M226.246 124.478C225.878 125.371 226.3 126.395 227.189 126.765C228.079 127.135 229.099 126.71 229.467 125.818C229.836 124.925 229.413 123.9 228.524 123.53C227.635 123.161 226.614 123.585 226.246 124.478Z" fill="white"/>
<path fill-rule="evenodd" clip-rule="evenodd" d="M89.8672 68.446C89.4992 69.339 89.9222 70.364 90.8112 70.733C91.7002 71.103 92.7212 70.679 93.0892 69.786C93.4572 68.893 93.0342 67.868 92.1452 67.499C91.2562 67.129 90.2362 67.553 89.8672 68.446Z" fill="white"/>
<path fill-rule="evenodd" clip-rule="evenodd" d="M84.7781 49.4949C85.6991 49.2139 86.2191 48.2349 85.9391 47.3109C85.6591 46.3869 84.6841 45.8649 83.7641 46.1459C82.8431 46.4269 82.3231 47.4059 82.6031 48.3299C82.8831 49.2539 83.8581 49.7769 84.7781 49.4949Z" fill="white"/>
<path fill-rule="evenodd" clip-rule="evenodd" d="M68.1492 66.2293C69.0702 65.9483 69.5902 64.9693 69.3102 64.0443C69.0302 63.1203 68.0552 62.5983 67.1342 62.8793C66.2142 63.1603 65.6942 64.1393 65.9742 65.0633C66.2542 65.9883 67.2282 66.5103 68.1492 66.2293Z" fill="white"/>
<path fill-rule="evenodd" clip-rule="evenodd" d="M44.1883 93.6222C45.1093 93.3412 45.6293 92.3622 45.3493 91.4382C45.0693 90.5142 44.0943 89.9912 43.1743 90.2732C42.2533 90.5542 41.7333 91.5322 42.0133 92.4572C42.2933 93.3812 43.2683 93.9032 44.1883 93.6222Z" fill="white"/>
<path fill-rule="evenodd" clip-rule="evenodd" d="M50.4305 72.9959C51.3515 72.7149 51.8715 71.7359 51.5915 70.8109C51.3115 69.8869 50.3365 69.3649 49.4165 69.6459C48.4955 69.9269 47.9755 70.9059 48.2555 71.8299C48.5355 72.7549 49.5105 73.2769 50.4305 72.9959Z" fill="white"/>
<path fill-rule="evenodd" clip-rule="evenodd" d="M27.5477 107.438C28.4687 107.157 28.9887 106.178 28.7087 105.254C28.4287 104.33 27.4537 103.807 26.5327 104.089C25.6127 104.37 25.0927 105.348 25.3727 106.273C25.6527 107.197 26.6267 107.719 27.5477 107.438Z" fill="white"/>
<path fill-rule="evenodd" clip-rule="evenodd" d="M24.907 134.099C25.828 133.818 26.348 132.839 26.068 131.914C25.788 130.99 24.813 130.468 23.892 130.749C22.972 131.03 22.452 132.009 22.732 132.933C23.012 133.858 23.987 134.38 24.907 134.099Z" fill="white"/>
<path fill-rule="evenodd" clip-rule="evenodd" d="M237.744 57.5511C238.664 57.2701 239.184 56.2911 238.904 55.3661C238.624 54.4421 237.65 53.9201 236.729 54.2011C235.808 54.4821 235.288 55.4611 235.568 56.3851C235.848 57.3101 236.823 57.8321 237.744 57.5511Z" fill="white"/>
<path fill-rule="evenodd" clip-rule="evenodd" d="M216.971 44.0169C217.891 43.7349 218.411 42.7569 218.131 41.8319C217.851 40.9079 216.877 40.3859 215.956 40.6669C215.035 40.9479 214.515 41.9269 214.795 42.8509C215.075 43.7759 216.05 44.2979 216.971 44.0169Z" fill="white"/>
<path fill-rule="evenodd" clip-rule="evenodd" d="M147.849 26.241C148.769 25.96 149.289 24.982 149.009 24.057C148.729 23.133 147.755 22.611 146.834 22.892C145.913 23.173 145.393 24.152 145.673 25.076C145.953 26 146.928 26.523 147.849 26.241Z" fill="white"/>
<path fill-rule="evenodd" clip-rule="evenodd" d="M272.466 139.454C273.387 139.172 273.907 138.194 273.627 137.269C273.347 136.345 272.372 135.823 271.452 136.104C270.531 136.385 270.011 137.364 270.291 138.288C270.571 139.212 271.546 139.735 272.466 139.454Z" fill="white"/>
<path fill-rule="evenodd" clip-rule="evenodd" d="M250.967 86.8551C251.887 86.5741 252.407 85.5951 252.127 84.6711C251.847 83.7471 250.873 83.2241 249.952 83.5061C249.031 83.7871 248.511 84.7651 248.791 85.6901C249.071 86.6141 250.046 87.1361 250.967 86.8551Z" fill="white"/>
<path fill-rule="evenodd" clip-rule="evenodd" d="M273.876 109.614C274.797 109.333 275.317 108.354 275.037 107.43C274.757 106.506 273.782 105.984 272.861 106.265C271.941 106.546 271.421 107.525 271.701 108.449C271.981 109.373 272.955 109.896 273.876 109.614Z" fill="white"/>
<path fill-rule="evenodd" clip-rule="evenodd" d="M202.849 132.964C203.769 132.683 204.29 131.705 204.01 130.78C203.73 129.856 202.755 129.334 201.834 129.615C200.914 129.896 200.393 130.875 200.673 131.799C200.953 132.723 201.928 133.246 202.849 132.964Z" fill="white"/>
<path fill-rule="evenodd" clip-rule="evenodd" d="M207.164 44.9699C206.796 45.8629 207.219 46.8879 208.108 47.2569C208.997 47.6269 210.017 47.2029 210.386 46.3099C210.754 45.4169 210.331 44.3919 209.442 44.0229C208.553 43.6529 207.532 44.0769 207.164 44.9699Z" fill="white"/>
<path fill-rule="evenodd" clip-rule="evenodd" d="M173.551 114.219C173.182 115.112 173.605 116.137 174.494 116.506C175.383 116.876 176.404 116.451 176.772 115.559C177.14 114.666 176.718 113.641 175.829 113.272C174.94 112.902 173.919 113.326 173.551 114.219Z" fill="white"/>
<path fill-rule="evenodd" clip-rule="evenodd" d="M245.149 111.937C244.781 112.829 245.203 113.854 246.092 114.224C246.981 114.594 248.002 114.169 248.37 113.277C248.739 112.384 248.316 111.359 247.427 110.989C246.538 110.62 245.517 111.044 245.149 111.937Z" fill="white"/>
<path fill-rule="evenodd" clip-rule="evenodd" d="M107.168 74.7169C106.8 75.6089 107.222 76.6339 108.112 77.0039C109.001 77.3739 110.021 76.9488 110.39 76.0558C110.758 75.1638 110.335 74.1389 109.446 73.7689C108.557 73.3989 107.536 73.8239 107.168 74.7169Z" fill="white"/>
<path fill-rule="evenodd" clip-rule="evenodd" d="M224.465 51.2413C224.096 52.1333 224.519 53.1583 225.408 53.5283C226.297 53.8983 227.318 53.4733 227.686 52.5803C228.054 51.6883 227.632 50.6633 226.743 50.2933C225.854 49.9233 224.833 50.3483 224.465 51.2413Z" fill="white"/>
<path fill-rule="evenodd" clip-rule="evenodd" d="M190.852 120.49C190.484 121.382 190.907 122.407 191.796 122.777C192.685 123.147 193.705 122.722 194.074 121.829C194.442 120.937 194.019 119.912 193.13 119.542C192.241 119.172 191.22 119.597 190.852 120.49Z" fill="white"/>
<path fill-rule="evenodd" clip-rule="evenodd" d="M262.449 118.207C262.081 119.1 262.504 120.125 263.393 120.495C264.282 120.864 265.303 120.44 265.671 119.547C266.039 118.655 265.616 117.63 264.727 117.26C263.838 116.89 262.818 117.315 262.449 118.207Z" fill="white"/>
<path fill-rule="evenodd" clip-rule="evenodd" d="M61.2985 98.8692C61.0885 99.3772 61.3295 99.9602 61.8355 100.17C62.3415 100.381 62.9225 100.139 63.1315 99.6312C63.3415 99.1232 63.1005 98.5402 62.5945 98.3302C62.0885 98.1192 61.5075 98.3612 61.2985 98.8692Z" fill="white"/>
<path fill-rule="evenodd" clip-rule="evenodd" d="M124.228 33.335C124.019 33.843 124.259 34.426 124.765 34.636C125.271 34.847 125.852 34.605 126.061 34.097C126.271 33.589 126.03 33.006 125.524 32.796C125.019 32.585 124.438 32.827 124.228 33.335Z" fill="white"/>
<path fill-rule="evenodd" clip-rule="evenodd" d="M178.595 75.3931C178.385 75.9011 178.626 76.4841 179.131 76.6941C179.637 76.9051 180.218 76.6631 180.428 76.1551C180.637 75.6471 180.397 75.0641 179.891 74.8541C179.385 74.6431 178.804 74.8851 178.595 75.3931Z" fill="white"/>
<path fill-rule="evenodd" clip-rule="evenodd" d="M144.982 144.642C144.772 145.15 145.013 145.733 145.519 145.943C146.025 146.154 146.606 145.912 146.815 145.404C147.025 144.896 146.784 144.313 146.278 144.103C145.772 143.892 145.192 144.134 144.982 144.642Z" fill="white"/>
<path fill-rule="evenodd" clip-rule="evenodd" d="M216.579 142.36C216.37 142.868 216.61 143.451 217.116 143.661C217.622 143.872 218.203 143.63 218.413 143.122C218.622 142.614 218.382 142.031 217.876 141.82C217.37 141.61 216.789 141.852 216.579 142.36Z" fill="white"/>
<path fill-rule="evenodd" clip-rule="evenodd" d="M98.1267 91.2241C97.9167 91.7321 98.1576 92.3151 98.6636 92.5251C99.1686 92.7361 99.7497 92.4941 99.9597 91.9861C100.169 91.4781 99.9287 90.8951 99.4227 90.6841C98.9167 90.4741 98.3357 90.7161 98.1267 91.2241Z" fill="white"/>
<path fill-rule="evenodd" clip-rule="evenodd" d="M161.056 25.6899C160.846 26.1979 161.087 26.7809 161.593 26.9909C162.099 27.2019 162.68 26.9599 162.889 26.4519C163.099 25.9439 162.858 25.3609 162.352 25.1499C161.846 24.9399 161.265 25.1819 161.056 25.6899Z" fill="white"/>
<path fill-rule="evenodd" clip-rule="evenodd" d="M112.888 20.2169C112.678 20.7249 112.919 21.3079 113.425 21.5189C113.931 21.7289 114.512 21.4879 114.721 20.9799C114.931 20.4719 114.69 19.8879 114.184 19.6779C113.678 19.4679 113.097 19.7089 112.888 20.2169Z" fill="white"/>
<path fill-rule="evenodd" clip-rule="evenodd" d="M192.763 24.7799C192.553 25.2879 192.794 25.8709 193.3 26.0819C193.806 26.2919 194.387 26.0509 194.596 25.5429C194.806 25.0349 194.565 24.4509 194.059 24.2409C193.553 24.0309 192.972 24.2719 192.763 24.7799Z" fill="white"/>
<path fill-rule="evenodd" clip-rule="evenodd" d="M215.423 67.7481C215.214 68.2561 215.454 68.8391 215.96 69.0491C216.466 69.2601 217.047 69.0181 217.257 68.5101C217.466 68.0021 217.226 67.4191 216.72 67.2091C216.214 66.9981 215.633 67.2401 215.423 67.7481Z" fill="white"/>
<path fill-rule="evenodd" clip-rule="evenodd" d="M181.81 136.997C181.6 137.505 181.841 138.088 182.347 138.298C182.853 138.509 183.434 138.267 183.643 137.759C183.853 137.251 183.612 136.668 183.106 136.457C182.6 136.247 182.019 136.489 181.81 136.997Z" fill="white"/>
<path fill-rule="evenodd" clip-rule="evenodd" d="M253.408 134.714C253.198 135.222 253.439 135.806 253.945 136.016C254.451 136.226 255.032 135.985 255.241 135.477C255.451 134.969 255.21 134.386 254.704 134.175C254.198 133.965 253.618 134.206 253.408 134.714Z" fill="white"/>
<path fill-rule="evenodd" clip-rule="evenodd" d="M41.4782 102.959C41.2682 103.467 41.5092 104.05 42.0152 104.26C42.5202 104.471 43.1012 104.229 43.3112 103.721C43.5202 103.213 43.2802 102.63 42.7742 102.419C42.2682 102.209 41.6872 102.451 41.4782 102.959Z" fill="white"/>
<path fill-rule="evenodd" clip-rule="evenodd" d="M104.408 37.4253C104.198 37.9333 104.439 38.5163 104.945 38.7263C105.451 38.9373 106.032 38.6953 106.241 38.1873C106.451 37.6793 106.21 37.0963 105.704 36.8853C105.198 36.6753 104.617 36.9173 104.408 37.4253Z" fill="white"/>
<path fill-rule="evenodd" clip-rule="evenodd" d="M158.775 79.4829C158.566 79.9909 158.806 80.5739 159.312 80.7839C159.818 80.9949 160.399 80.7529 160.609 80.2449C160.818 79.7369 160.578 79.1539 160.072 78.9439C159.566 78.7329 158.985 78.9749 158.775 79.4829Z" fill="white"/>
<path fill-rule="evenodd" clip-rule="evenodd" d="M125.158 148.732C124.948 149.24 125.189 149.823 125.695 150.033C126.201 150.244 126.782 150.002 126.991 149.494C127.201 148.986 126.96 148.403 126.454 148.192C125.948 147.982 125.367 148.224 125.158 148.732Z" fill="white"/>
<path fill-rule="evenodd" clip-rule="evenodd" d="M196.759 146.449C196.549 146.957 196.79 147.541 197.296 147.751C197.802 147.961 198.383 147.72 198.592 147.212C198.802 146.704 198.561 146.121 198.055 145.91C197.549 145.7 196.969 145.941 196.759 146.449Z" fill="white"/>
<path fill-rule="evenodd" clip-rule="evenodd" d="M50.1262 120.201C49.9172 120.709 50.1572 121.292 50.6632 121.503C51.1692 121.713 51.7502 121.471 51.9602 120.963C52.1692 120.455 51.9292 119.872 51.4232 119.662C50.9172 119.451 50.3362 119.693 50.1262 120.201Z" fill="white"/>
<path fill-rule="evenodd" clip-rule="evenodd" d="M113.056 54.667C112.846 55.175 113.087 55.758 113.593 55.969C114.099 56.179 114.679 55.937 114.889 55.429C115.099 54.921 114.858 54.338 114.352 54.128C113.846 53.917 113.265 54.159 113.056 54.667Z" fill="white"/>
<path fill-rule="evenodd" clip-rule="evenodd" d="M167.423 96.7251C167.214 97.2331 167.454 97.8161 167.96 98.0271C168.466 98.2371 169.047 97.9951 169.256 97.4881C169.466 96.9801 169.225 96.3961 168.719 96.1861C168.214 95.9751 167.633 96.2171 167.423 96.7251Z" fill="white"/>
<path fill-rule="evenodd" clip-rule="evenodd" d="M73.095 123.203C72.886 123.711 73.126 124.294 73.632 124.505C74.138 124.715 74.719 124.473 74.929 123.965C75.138 123.457 74.898 122.874 74.392 122.664C73.886 122.453 73.305 122.695 73.095 123.203Z" fill="white"/>
<path fill-rule="evenodd" clip-rule="evenodd" d="M136.029 57.669C135.819 58.177 136.06 58.76 136.566 58.97C137.072 59.181 137.653 58.939 137.862 58.431C138.072 57.923 137.831 57.34 137.325 57.13C136.819 56.919 136.238 57.161 136.029 57.669Z" fill="white"/>
<path fill-rule="evenodd" clip-rule="evenodd" d="M190.396 99.7271C190.187 100.235 190.427 100.818 190.933 101.029C191.439 101.239 192.02 100.997 192.229 100.489C192.439 99.9811 192.198 99.3981 191.693 99.1881C191.187 98.9771 190.606 99.2191 190.396 99.7271Z" fill="white"/>
<path fill-rule="evenodd" clip-rule="evenodd" d="M95.8454 123.203C95.6354 123.711 95.8764 124.294 96.3824 124.505C96.8884 124.715 97.4694 124.473 97.6784 123.965C97.8884 123.457 97.6474 122.874 97.1414 122.664C96.6354 122.453 96.0544 122.695 95.8454 123.203Z" fill="white"/>
<path fill-rule="evenodd" clip-rule="evenodd" d="M158.775 57.669C158.566 58.177 158.806 58.76 159.312 58.97C159.818 59.181 160.399 58.939 160.609 58.431C160.818 57.923 160.578 57.34 160.072 57.13C159.566 56.919 158.985 57.161 158.775 57.669Z" fill="white"/>
<path fill-rule="evenodd" clip-rule="evenodd" d="M213.142 99.7271C212.932 100.235 213.173 100.818 213.679 101.029C214.185 101.239 214.765 100.997 214.975 100.489C215.185 99.9811 214.944 99.3981 214.438 99.1881C213.932 98.9771 213.351 99.2191 213.142 99.7271Z" fill="white"/>
<path fill-rule="evenodd" clip-rule="evenodd" d="M121.763 118.058C121.553 118.566 121.794 119.15 122.3 119.36C122.806 119.571 123.387 119.329 123.596 118.821C123.806 118.313 123.565 117.73 123.059 117.519C122.553 117.309 121.972 117.551 121.763 118.058Z" fill="white"/>
<path fill-rule="evenodd" clip-rule="evenodd" d="M184.697 52.524C184.488 53.032 184.728 53.616 185.234 53.826C185.74 54.036 186.321 53.795 186.53 53.287C186.74 52.779 186.499 52.196 185.993 51.985C185.488 51.775 184.907 52.016 184.697 52.524Z" fill="white"/>
<path fill-rule="evenodd" clip-rule="evenodd" d="M239.06 94.583C238.851 95.091 239.092 95.674 239.597 95.884C240.103 96.095 240.684 95.853 240.894 95.345C241.103 94.837 240.863 94.254 240.357 94.043C239.851 93.833 239.27 94.075 239.06 94.583Z" fill="white"/>
<path fill-rule="evenodd" clip-rule="evenodd" d="M78.3454 105.397C78.1354 105.905 78.3764 106.488 78.8824 106.698C79.3884 106.909 79.9694 106.667 80.1784 106.159C80.3884 105.651 80.1474 105.068 79.6414 104.858C79.1354 104.647 78.5554 104.889 78.3454 105.397Z" fill="white"/>
<path fill-rule="evenodd" clip-rule="evenodd" d="M141.279 39.8633C141.07 40.3713 141.31 40.9543 141.816 41.1643C142.322 41.3753 142.903 41.1333 143.113 40.6253C143.322 40.1173 143.082 39.5343 142.576 39.3243C142.07 39.1133 141.489 39.3553 141.279 39.8633Z" fill="white"/>
<path fill-rule="evenodd" clip-rule="evenodd" d="M195.646 81.9209C195.436 82.4289 195.677 83.0119 196.183 83.2219C196.689 83.4329 197.269 83.1909 197.479 82.6829C197.689 82.1749 197.448 81.5919 196.942 81.3819C196.436 81.1709 195.855 81.4129 195.646 81.9209Z" fill="white"/>
<path fill-rule="evenodd" clip-rule="evenodd" d="M162.029 151.17C161.82 151.678 162.06 152.261 162.566 152.471C163.072 152.682 163.653 152.44 163.863 151.932C164.072 151.424 163.831 150.841 163.326 150.631C162.82 150.42 162.239 150.662 162.029 151.17Z" fill="white"/>
<path fill-rule="evenodd" clip-rule="evenodd" d="M233.63 148.888C233.421 149.396 233.662 149.979 234.167 150.189C234.673 150.4 235.254 150.158 235.464 149.65C235.673 149.142 235.433 148.559 234.927 148.348C234.421 148.138 233.84 148.38 233.63 148.888Z" fill="white"/>
<path fill-rule="evenodd" clip-rule="evenodd" d="M115.174 97.7519C114.964 98.2599 115.205 98.8429 115.711 99.0529C116.217 99.2639 116.797 99.0219 117.007 98.5139C117.217 98.0059 116.976 97.4229 116.47 97.2119C115.964 97.0019 115.383 97.2439 115.174 97.7519Z" fill="white"/>
<path fill-rule="evenodd" clip-rule="evenodd" d="M178.103 32.2182C177.894 32.7262 178.134 33.3092 178.64 33.5192C179.146 33.7302 179.727 33.4882 179.936 32.9802C180.146 32.4722 179.905 31.8892 179.399 31.6782C178.894 31.4682 178.313 31.7102 178.103 32.2182Z" fill="white"/>
<path fill-rule="evenodd" clip-rule="evenodd" d="M232.47 74.2759C232.261 74.7839 232.501 75.3669 233.007 75.5769C233.513 75.7879 234.094 75.5459 234.304 75.0379C234.513 74.5299 234.273 73.9469 233.767 73.7369C233.261 73.5259 232.68 73.7679 232.47 74.2759Z" fill="white"/>
<path fill-rule="evenodd" clip-rule="evenodd" d="M198.857 143.525C198.647 144.033 198.888 144.616 199.394 144.826C199.9 145.037 200.481 144.795 200.69 144.287C200.9 143.779 200.659 143.196 200.153 142.985C199.647 142.775 199.066 143.017 198.857 143.525Z" fill="white"/>
<path fill-rule="evenodd" clip-rule="evenodd" d="M270.458 141.242C270.249 141.75 270.489 142.334 270.995 142.544C271.501 142.754 272.082 142.513 272.292 142.005C272.501 141.497 272.26 140.914 271.755 140.703C271.249 140.493 270.668 140.734 270.458 141.242Z" fill="white"/>
<path fill-rule="evenodd" clip-rule="evenodd" d="M78.3454 86.6342C78.1354 87.1412 78.3764 87.7253 78.8824 87.9353C79.3884 88.1463 79.9694 87.9042 80.1784 87.3962C80.3884 86.8882 80.1474 86.3052 79.6414 86.0942C79.1354 85.8842 78.5554 86.1262 78.3454 86.6342Z" fill="white"/>
<path fill-rule="evenodd" clip-rule="evenodd" d="M106.09 46.8829C106.614 46.7229 106.91 46.1659 106.75 45.6399C106.591 45.1139 106.036 44.8169 105.513 44.9769C104.989 45.1369 104.693 45.6939 104.852 46.2199C105.011 46.7459 105.566 47.0429 106.09 46.8829Z" fill="white"/>
<path fill-rule="evenodd" clip-rule="evenodd" d="M195.646 63.1582C195.436 63.6662 195.677 64.2492 196.183 64.4592C196.689 64.6702 197.269 64.4282 197.479 63.9202C197.689 63.4122 197.448 62.8292 196.942 62.6182C196.436 62.4082 195.855 62.6502 195.646 63.1582Z" fill="white"/>
<path fill-rule="evenodd" clip-rule="evenodd" d="M162.029 132.406C161.82 132.914 162.06 133.498 162.566 133.708C163.072 133.918 163.653 133.677 163.863 133.169C164.072 132.661 163.831 132.078 163.326 131.867C162.82 131.657 162.239 131.898 162.029 132.406Z" fill="white"/>
<path fill-rule="evenodd" clip-rule="evenodd" d="M233.63 130.124C233.421 130.632 233.662 131.216 234.167 131.426C234.673 131.636 235.254 131.395 235.464 130.887C235.673 130.379 235.433 129.796 234.927 129.585C234.421 129.375 233.84 129.616 233.63 130.124Z" fill="white"/>
<path fill-rule="evenodd" clip-rule="evenodd" d="M62.4665 78.1822C62.2565 78.6902 62.4975 79.2742 63.0035 79.4842C63.5095 79.6942 64.0905 79.4532 64.2995 78.9452C64.5095 78.4372 64.2685 77.8542 63.7625 77.6432C63.2565 77.4332 62.6755 77.6742 62.4665 78.1822Z" fill="white"/>
<path fill-rule="evenodd" clip-rule="evenodd" d="M109.668 64.5669C110.192 64.4069 110.488 63.8499 110.329 63.3239C110.169 62.7979 109.615 62.4999 109.091 62.6599C108.567 62.8199 108.271 63.3769 108.43 63.9029C108.589 64.4289 109.144 64.7269 109.668 64.5669Z" fill="white"/>
<path fill-rule="evenodd" clip-rule="evenodd" d="M179.767 54.7062C179.557 55.2142 179.798 55.7982 180.304 56.0082C180.81 56.2182 181.39 55.9772 181.6 55.4692C181.81 54.9612 181.569 54.3782 181.063 54.1672C180.557 53.9572 179.976 54.1982 179.767 54.7062Z" fill="white"/>
<path fill-rule="evenodd" clip-rule="evenodd" d="M146.15 123.955C145.941 124.463 146.181 125.046 146.687 125.257C147.193 125.467 147.774 125.226 147.983 124.718C148.193 124.21 147.952 123.627 147.446 123.416C146.941 123.206 146.36 123.447 146.15 123.955Z" fill="white"/>
<path fill-rule="evenodd" clip-rule="evenodd" d="M217.751 121.673C217.542 122.181 217.782 122.764 218.288 122.975C218.794 123.185 219.375 122.944 219.585 122.436C219.794 121.928 219.554 121.344 219.048 121.134C218.542 120.924 217.961 121.165 217.751 121.673Z" fill="white"/>
<path fill-rule="evenodd" clip-rule="evenodd" d="M81.3727 65.6412C81.1627 66.1492 81.4037 66.7322 81.9097 66.9432C82.4157 67.1532 82.9967 66.9122 83.2057 66.4042C83.4157 65.8962 83.1748 65.3132 82.6688 65.1022C82.1628 64.8922 81.5817 65.1332 81.3727 65.6412Z" fill="white"/>
<path fill-rule="evenodd" clip-rule="evenodd" d="M88.0154 57.8649C88.5394 57.7049 88.8353 57.1479 88.6753 56.6219C88.5163 56.0959 87.9613 55.7989 87.4373 55.9589C86.9143 56.1189 86.6184 56.6759 86.7774 57.2019C86.9364 57.7279 87.4914 58.0249 88.0154 57.8649Z" fill="white"/>
<path fill-rule="evenodd" clip-rule="evenodd" d="M198.67 42.1651C198.46 42.6731 198.701 43.2571 199.207 43.4671C199.712 43.6771 200.293 43.4361 200.503 42.9281C200.712 42.4201 200.472 41.8371 199.966 41.6261C199.46 41.4161 198.879 41.6571 198.67 42.1651Z" fill="white"/>
<path fill-rule="evenodd" clip-rule="evenodd" d="M165.056 111.414C164.846 111.922 165.087 112.505 165.593 112.716C166.099 112.926 166.68 112.685 166.889 112.177C167.099 111.669 166.858 111.085 166.352 110.875C165.846 110.665 165.266 110.906 165.056 111.414Z" fill="white"/>
<path fill-rule="evenodd" clip-rule="evenodd" d="M236.654 109.132C236.445 109.64 236.685 110.223 237.191 110.434C237.697 110.644 238.278 110.403 238.488 109.895C238.697 109.387 238.457 108.803 237.951 108.593C237.445 108.382 236.864 108.624 236.654 109.132Z" fill="white"/>
<path fill-rule="evenodd" clip-rule="evenodd" d="M98.6731 71.9121C98.4641 72.4201 98.7041 73.0031 99.2101 73.2131C99.7161 73.4241 100.297 73.1821 100.507 72.6741C100.716 72.1661 100.476 71.5831 99.9701 71.3731C99.4641 71.1621 98.8831 71.4041 98.6731 71.9121Z" fill="white"/>
<path fill-rule="evenodd" clip-rule="evenodd" d="M81.8556 40.463C82.3796 40.303 82.6756 39.746 82.5156 39.22C82.3566 38.694 81.8016 38.397 81.2776 38.557C80.7536 38.717 80.4576 39.274 80.6176 39.8C80.7766 40.326 81.3316 40.623 81.8556 40.463Z" fill="white"/>
<path fill-rule="evenodd" clip-rule="evenodd" d="M65.2218 57.1973C65.7458 57.0373 66.0418 56.4803 65.8828 55.9543C65.7238 55.4283 65.1688 55.1303 64.6448 55.2903C64.1208 55.4503 63.8248 56.0073 63.9848 56.5333C64.1438 57.0593 64.6988 57.3573 65.2218 57.1973Z" fill="white"/>
<path fill-rule="evenodd" clip-rule="evenodd" d="M41.2619 84.59C41.7859 84.43 42.0819 83.8729 41.9219 83.3469C41.7629 82.8209 41.2079 82.5239 40.6839 82.6839C40.1599 82.8439 39.8639 83.4009 40.0239 83.9269C40.1829 84.4529 40.7379 84.75 41.2619 84.59Z" fill="white"/>
<path fill-rule="evenodd" clip-rule="evenodd" d="M21.9806 125.067C22.5036 124.907 22.7996 124.35 22.6406 123.824C22.4816 123.298 21.9266 123 21.4026 123.16C20.8786 123.32 20.5826 123.877 20.7426 124.403C20.9016 124.929 21.4566 125.227 21.9806 125.067Z" fill="white"/>
<path fill-rule="evenodd" clip-rule="evenodd" d="M234.816 48.5192C235.34 48.3592 235.636 47.8022 235.477 47.2762C235.317 46.7492 234.763 46.4522 234.239 46.6122C233.715 46.7722 233.419 47.3292 233.578 47.8552C233.737 48.3812 234.292 48.6792 234.816 48.5192Z" fill="white"/>
<path fill-rule="evenodd" clip-rule="evenodd" d="M214.047 34.984C214.571 34.824 214.867 34.268 214.708 33.741C214.548 33.215 213.993 32.918 213.47 33.078C212.946 33.238 212.65 33.795 212.809 34.321C212.968 34.847 213.523 35.144 214.047 34.984Z" fill="white"/>
<path fill-rule="evenodd" clip-rule="evenodd" d="M144.922 17.2091C145.446 17.0491 145.742 16.4921 145.583 15.9661C145.423 15.4401 144.869 15.1431 144.345 15.3031C143.821 15.4631 143.525 16.0201 143.684 16.5461C143.843 17.0721 144.398 17.3691 144.922 17.2091Z" fill="white"/>
<path fill-rule="evenodd" clip-rule="evenodd" d="M269.543 130.421C270.067 130.261 270.363 129.704 270.203 129.178C270.044 128.652 269.489 128.355 268.965 128.515C268.441 128.675 268.145 129.232 268.305 129.758C268.464 130.284 269.019 130.581 269.543 130.421Z" fill="white"/>
<path fill-rule="evenodd" clip-rule="evenodd" d="M248.039 77.8229C248.563 77.6629 248.859 77.1059 248.7 76.5799C248.54 76.0539 247.986 75.7569 247.462 75.9169C246.938 76.0769 246.642 76.6339 246.801 77.1599C246.961 77.6859 247.515 77.9829 248.039 77.8229Z" fill="white"/>
<path fill-rule="evenodd" clip-rule="evenodd" d="M270.949 100.582C271.473 100.422 271.769 99.8651 271.61 99.3391C271.451 98.8131 270.896 98.5161 270.372 98.6761C269.848 98.8361 269.552 99.3931 269.711 99.9191C269.871 100.445 270.425 100.742 270.949 100.582Z" fill="white"/>
<path fill-rule="evenodd" clip-rule="evenodd" d="M199.922 123.932C200.446 123.772 200.742 123.215 200.583 122.689C200.423 122.163 199.869 121.866 199.345 122.026C198.821 122.186 198.525 122.743 198.684 123.269C198.844 123.795 199.398 124.092 199.922 123.932Z" fill="white"/>
<path fill-rule="evenodd" clip-rule="evenodd" d="M215.97 48.4361C215.761 48.9441 216.001 49.5271 216.507 49.7371C217.013 49.9481 217.594 49.7061 217.803 49.1981C218.013 48.6901 217.772 48.1071 217.267 47.8971C216.761 47.6861 216.18 47.9281 215.97 48.4361Z" fill="white"/>
<path fill-rule="evenodd" clip-rule="evenodd" d="M182.357 117.685C182.147 118.193 182.388 118.776 182.894 118.986C183.4 119.197 183.98 118.955 184.19 118.447C184.4 117.939 184.159 117.356 183.653 117.146C183.147 116.935 182.566 117.177 182.357 117.685Z" fill="white"/>
<path fill-rule="evenodd" clip-rule="evenodd" d="M253.955 115.403C253.745 115.911 253.986 116.494 254.492 116.704C254.998 116.915 255.579 116.673 255.788 116.165C255.998 115.657 255.757 115.074 255.251 114.863C254.745 114.653 254.164 114.895 253.955 115.403Z" fill="white"/>
<path fill-rule="evenodd" clip-rule="evenodd" d="M65.8853 109.614C65.7053 110.049 65.9123 110.549 66.3453 110.73C66.7793 110.91 67.2773 110.703 67.4563 110.268C67.6363 109.832 67.4293 109.332 66.9963 109.152C66.5623 108.972 66.0653 109.179 65.8853 109.614Z" fill="white"/>
<path fill-rule="evenodd" clip-rule="evenodd" d="M128.815 44.0802C128.636 44.5152 128.842 45.0152 129.276 45.1962C129.709 45.3762 130.207 45.1692 130.386 44.7342C130.566 44.2982 130.36 43.7982 129.926 43.6182C129.493 43.4382 128.995 43.6452 128.815 44.0802Z" fill="white"/>
<path fill-rule="evenodd" clip-rule="evenodd" d="M183.182 86.1383C183.002 86.5743 183.208 87.0733 183.642 87.2543C184.075 87.4343 184.573 87.2273 184.753 86.7923C184.932 86.3563 184.726 85.8573 184.293 85.6763C183.859 85.4963 183.361 85.7033 183.182 86.1383Z" fill="white"/>
<path fill-rule="evenodd" clip-rule="evenodd" d="M102.714 101.969C102.534 102.404 102.74 102.904 103.174 103.084C103.607 103.265 104.105 103.058 104.285 102.622C104.464 102.187 104.258 101.687 103.825 101.507C103.391 101.327 102.893 101.534 102.714 101.969Z" fill="white"/>
<path fill-rule="evenodd" clip-rule="evenodd" d="M165.643 36.4352C165.464 36.8702 165.67 37.3701 166.103 37.5501C166.537 37.7311 167.035 37.5242 167.214 37.0882C167.394 36.6532 167.188 36.1532 166.754 35.9732C166.32 35.7932 165.823 36.0002 165.643 36.4352Z" fill="white"/>
<path fill-rule="evenodd" clip-rule="evenodd" d="M117.475 30.963C117.296 31.398 117.502 31.898 117.935 32.078C118.369 32.258 118.867 32.051 119.046 31.616C119.226 31.181 119.02 30.6811 118.586 30.5011C118.153 30.3201 117.655 30.527 117.475 30.963Z" fill="white"/>
<path fill-rule="evenodd" clip-rule="evenodd" d="M197.35 35.525C197.171 35.961 197.377 36.461 197.81 36.641C198.244 36.821 198.742 36.614 198.921 36.179C199.101 35.744 198.895 35.244 198.461 35.063C198.027 34.883 197.53 35.09 197.35 35.525Z" fill="white"/>
<path fill-rule="evenodd" clip-rule="evenodd" d="M220.01 78.4933C219.83 78.9283 220.036 79.4283 220.47 79.6083C220.903 79.7893 221.401 79.5823 221.581 79.1463C221.76 78.7113 221.554 78.2113 221.12 78.0313C220.687 77.8513 220.189 78.0583 220.01 78.4933Z" fill="white"/>
<path fill-rule="evenodd" clip-rule="evenodd" d="M186.397 147.742C186.217 148.177 186.424 148.677 186.857 148.857C187.291 149.038 187.788 148.831 187.968 148.395C188.148 147.96 187.941 147.46 187.508 147.28C187.074 147.1 186.577 147.307 186.397 147.742Z" fill="white"/>
<path fill-rule="evenodd" clip-rule="evenodd" d="M257.994 145.46C257.815 145.895 258.021 146.395 258.454 146.575C258.888 146.756 259.386 146.549 259.565 146.113C259.745 145.678 259.539 145.178 259.105 144.998C258.672 144.818 258.174 145.025 257.994 145.46Z" fill="white"/>
<path fill-rule="evenodd" clip-rule="evenodd" d="M46.0651 113.704C45.8851 114.139 46.0911 114.639 46.5251 114.819C46.9591 115 47.4561 114.793 47.6361 114.357C47.8151 113.922 47.6091 113.422 47.1761 113.242C46.7421 113.062 46.2441 113.269 46.0651 113.704Z" fill="white"/>
<path fill-rule="evenodd" clip-rule="evenodd" d="M108.994 48.17C108.815 48.605 109.021 49.105 109.454 49.285C109.888 49.466 110.386 49.259 110.565 48.823C110.745 48.388 110.539 47.888 110.105 47.708C109.672 47.528 109.174 47.735 108.994 48.17Z" fill="white"/>
<path fill-rule="evenodd" clip-rule="evenodd" d="M163.362 90.2281C163.182 90.6631 163.388 91.1631 163.822 91.3431C164.255 91.5241 164.753 91.3171 164.933 90.8811C165.112 90.4461 164.906 89.9461 164.472 89.7661C164.039 89.5861 163.541 89.7931 163.362 90.2281Z" fill="white"/>
<path fill-rule="evenodd" clip-rule="evenodd" d="M54.7175 130.946C54.5375 131.382 54.7435 131.881 55.1775 132.062C55.6105 132.242 56.1085 132.035 56.2885 131.6C56.4675 131.164 56.2615 130.665 55.8285 130.484C55.3945 130.304 54.8965 130.511 54.7175 130.946Z" fill="white"/>
<path fill-rule="evenodd" clip-rule="evenodd" d="M117.647 65.4122C117.467 65.8482 117.674 66.3472 118.107 66.5282C118.541 66.7082 119.038 66.5012 119.218 66.0662C119.398 65.6302 119.191 65.1312 118.758 64.9502C118.324 64.7702 117.827 64.9772 117.647 65.4122Z" fill="white"/>
<path fill-rule="evenodd" clip-rule="evenodd" d="M172.014 107.47C171.835 107.906 172.041 108.406 172.474 108.586C172.908 108.766 173.406 108.559 173.585 108.124C173.765 107.689 173.559 107.189 173.125 107.008C172.692 106.828 172.194 107.035 172.014 107.47Z" fill="white"/>
<path fill-rule="evenodd" clip-rule="evenodd" d="M77.6862 133.948C77.5062 134.384 77.7122 134.883 78.1462 135.064C78.5792 135.244 79.0772 135.037 79.2572 134.602C79.4362 134.166 79.2302 133.667 78.7972 133.486C78.3632 133.306 77.8652 133.513 77.6862 133.948Z" fill="white"/>
<path fill-rule="evenodd" clip-rule="evenodd" d="M140.616 68.4141C140.436 68.8501 140.643 69.3492 141.076 69.5302C141.51 69.7102 142.008 69.5032 142.187 69.0682C142.367 68.6322 142.16 68.1332 141.727 67.9522C141.293 67.7722 140.796 67.9791 140.616 68.4141Z" fill="white"/>
<path fill-rule="evenodd" clip-rule="evenodd" d="M194.983 110.472C194.804 110.908 195.01 111.407 195.444 111.588C195.877 111.768 196.375 111.561 196.554 111.126C196.734 110.69 196.528 110.191 196.094 110.01C195.661 109.83 195.163 110.037 194.983 110.472Z" fill="white"/>
<path fill-rule="evenodd" clip-rule="evenodd" d="M100.432 133.948C100.253 134.384 100.459 134.883 100.892 135.064C101.326 135.244 101.824 135.037 102.003 134.602C102.183 134.166 101.977 133.667 101.543 133.486C101.11 133.306 100.612 133.513 100.432 133.948Z" fill="white"/>
<path fill-rule="evenodd" clip-rule="evenodd" d="M163.362 68.4141C163.182 68.8501 163.388 69.3492 163.822 69.5302C164.255 69.7102 164.753 69.5032 164.933 69.0682C165.112 68.6322 164.906 68.1332 164.472 67.9522C164.039 67.7722 163.541 67.9791 163.362 68.4141Z" fill="white"/>
<path fill-rule="evenodd" clip-rule="evenodd" d="M217.729 110.472C217.549 110.908 217.756 111.407 218.189 111.588C218.623 111.768 219.12 111.561 219.3 111.126C219.48 110.69 219.273 110.191 218.84 110.01C218.406 109.83 217.908 110.037 217.729 110.472Z" fill="white"/>
<path fill-rule="evenodd" clip-rule="evenodd" d="M126.354 128.804C126.174 129.239 126.381 129.739 126.814 129.919C127.248 130.1 127.745 129.893 127.925 129.457C128.105 129.022 127.898 128.522 127.465 128.342C127.031 128.162 126.534 128.369 126.354 128.804Z" fill="white"/>
<path fill-rule="evenodd" clip-rule="evenodd" d="M189.283 63.2701C189.104 63.7051 189.31 64.2051 189.744 64.3851C190.177 64.5661 190.675 64.3591 190.854 63.9231C191.034 63.4881 190.828 62.9881 190.394 62.8081C189.961 62.6281 189.463 62.8351 189.283 63.2701Z" fill="white"/>
<path fill-rule="evenodd" clip-rule="evenodd" d="M243.651 105.328C243.471 105.763 243.677 106.263 244.111 106.443C244.544 106.624 245.042 106.417 245.222 105.981C245.401 105.546 245.195 105.046 244.762 104.866C244.328 104.686 243.83 104.893 243.651 105.328Z" fill="white"/>
<path fill-rule="evenodd" clip-rule="evenodd" d="M82.9357 116.142C82.7567 116.577 82.9627 117.077 83.3957 117.258C83.8297 117.438 84.3277 117.231 84.5067 116.796C84.6867 116.36 84.4807 115.86 84.0467 115.68C83.6137 115.5 83.1157 115.707 82.9357 116.142Z" fill="white"/>
<path fill-rule="evenodd" clip-rule="evenodd" d="M145.866 50.608C145.686 51.043 145.892 51.543 146.326 51.723C146.759 51.904 147.257 51.697 147.437 51.261C147.616 50.826 147.41 50.326 146.976 50.146C146.543 49.966 146.045 50.173 145.866 50.608Z" fill="white"/>
<path fill-rule="evenodd" clip-rule="evenodd" d="M200.233 92.6661C200.053 93.1011 200.26 93.6011 200.693 93.7821C201.127 93.9621 201.624 93.7551 201.804 93.3201C201.984 92.8841 201.777 92.3841 201.344 92.2041C200.91 92.0241 200.413 92.2311 200.233 92.6661Z" fill="white"/>
<path fill-rule="evenodd" clip-rule="evenodd" d="M119.764 108.497C119.584 108.932 119.791 109.432 120.224 109.612C120.658 109.793 121.155 109.586 121.335 109.15C121.515 108.715 121.308 108.215 120.875 108.035C120.441 107.855 119.944 108.062 119.764 108.497Z" fill="white"/>
<path fill-rule="evenodd" clip-rule="evenodd" d="M182.693 42.963C182.514 43.398 182.72 43.898 183.153 44.078C183.587 44.259 184.085 44.052 184.264 43.616C184.444 43.181 184.238 42.681 183.804 42.501C183.371 42.321 182.873 42.528 182.693 42.963Z" fill="white"/>
<path fill-rule="evenodd" clip-rule="evenodd" d="M237.061 85.0211C236.881 85.4561 237.087 85.9561 237.521 86.1361C237.954 86.3171 238.452 86.1101 238.632 85.6741C238.811 85.2391 238.605 84.7391 238.172 84.5591C237.738 84.3791 237.24 84.5861 237.061 85.0211Z" fill="white"/>
<path fill-rule="evenodd" clip-rule="evenodd" d="M259.971 107.78C259.791 108.215 259.998 108.715 260.431 108.896C260.865 109.076 261.362 108.869 261.542 108.434C261.722 107.998 261.515 107.498 261.082 107.318C260.648 107.138 260.15 107.345 259.971 107.78Z" fill="white"/>
<path fill-rule="evenodd" clip-rule="evenodd" d="M82.9357 97.379C82.7567 97.814 82.9627 98.314 83.3957 98.494C83.8297 98.675 84.3277 98.468 84.5067 98.032C84.6867 97.597 84.4807 97.097 84.0467 96.917C83.6137 96.737 83.1157 96.944 82.9357 97.379Z" fill="white"/>
<path fill-rule="evenodd" clip-rule="evenodd" d="M145.866 31.8453C145.686 32.2803 145.892 32.7803 146.326 32.9603C146.759 33.1413 147.257 32.9343 147.437 32.4983C147.616 32.0633 147.41 31.5633 146.976 31.3833C146.543 31.2033 146.045 31.4103 145.866 31.8453Z" fill="white"/>
<path fill-rule="evenodd" clip-rule="evenodd" d="M200.233 73.9029C200.053 74.3379 200.26 74.8379 200.693 75.0179C201.127 75.1989 201.624 74.9919 201.804 74.5559C201.984 74.1209 201.777 73.6209 201.344 73.4409C200.91 73.2609 200.413 73.4679 200.233 73.9029Z" fill="white"/>
<path fill-rule="evenodd" clip-rule="evenodd" d="M166.619 143.152C166.44 143.587 166.646 144.087 167.08 144.267C167.513 144.448 168.011 144.241 168.19 143.805C168.37 143.37 168.164 142.87 167.73 142.69C167.297 142.51 166.799 142.717 166.619 143.152Z" fill="white"/>
<path fill-rule="evenodd" clip-rule="evenodd" d="M238.217 140.87C238.037 141.305 238.243 141.805 238.677 141.985C239.11 142.165 239.608 141.958 239.788 141.523C239.967 141.088 239.761 140.588 239.328 140.408C238.894 140.227 238.396 140.434 238.217 140.87Z" fill="white"/>
<path fill-rule="evenodd" clip-rule="evenodd" d="M119.764 89.7341C119.584 90.1691 119.791 90.6691 120.224 90.8491C120.658 91.0291 121.155 90.8221 121.335 90.3871C121.515 89.9521 121.308 89.452 120.875 89.272C120.441 89.091 119.944 89.2981 119.764 89.7341Z" fill="white"/>
<path fill-rule="evenodd" clip-rule="evenodd" d="M182.693 24.1999C182.514 24.6349 182.72 25.1349 183.153 25.3149C183.587 25.4949 184.085 25.2879 184.264 24.8529C184.444 24.4179 184.238 23.9179 183.804 23.7379C183.371 23.5569 182.873 23.7639 182.693 24.1999Z" fill="white"/>
<path fill-rule="evenodd" clip-rule="evenodd" d="M237.061 66.2579C236.881 66.6929 237.087 67.1929 237.521 67.3729C237.954 67.5539 238.452 67.3469 238.632 66.9109C238.811 66.4759 238.605 65.9759 238.172 65.7959C237.738 65.6159 237.24 65.8229 237.061 66.2579Z" fill="white"/>
<path fill-rule="evenodd" clip-rule="evenodd" d="M259.971 89.0172C259.791 89.4522 259.998 89.9522 260.431 90.1322C260.865 90.3132 261.362 90.1062 261.542 89.6702C261.722 89.2352 261.515 88.7352 261.082 88.5552C260.648 88.3752 260.15 88.5822 259.971 89.0172Z" fill="white"/>
<path fill-rule="evenodd" clip-rule="evenodd" d="M203.447 135.507C203.268 135.942 203.474 136.442 203.907 136.622C204.341 136.802 204.839 136.595 205.018 136.16C205.198 135.725 204.992 135.225 204.558 135.045C204.125 134.864 203.627 135.071 203.447 135.507Z" fill="white"/>
<path fill-rule="evenodd" clip-rule="evenodd" d="M275.045 133.225C274.866 133.66 275.072 134.16 275.506 134.34C275.939 134.52 276.437 134.313 276.617 133.878C276.796 133.443 276.59 132.943 276.156 132.763C275.723 132.582 275.225 132.789 275.045 133.225Z" fill="white"/>
<path fill-rule="evenodd" clip-rule="evenodd" d="M67.0567 88.9279C66.8777 89.3629 67.0837 89.8629 67.5167 90.0429C67.9507 90.2229 68.4487 90.0159 68.6277 89.5809C68.8077 89.1459 68.6017 88.6459 68.1677 88.4659C67.7347 88.2849 67.2367 88.4919 67.0567 88.9279Z" fill="white"/>
<path fill-rule="evenodd" clip-rule="evenodd" d="M115.023 54.1852C115.472 54.0472 115.726 53.5702 115.589 53.1192C115.453 52.6692 114.977 52.4142 114.529 52.5512C114.08 52.6882 113.826 53.1652 113.963 53.6162C114.099 54.0672 114.574 54.3222 115.023 54.1852Z" fill="white"/>
<path fill-rule="evenodd" clip-rule="evenodd" d="M129.987 23.3942C129.807 23.8292 130.013 24.3292 130.447 24.5092C130.88 24.6892 131.378 24.4822 131.558 24.0472C131.737 23.6122 131.531 23.1122 131.097 22.9322C130.664 22.7512 130.166 22.9582 129.987 23.3942Z" fill="white"/>
<path fill-rule="evenodd" clip-rule="evenodd" d="M184.354 65.4523C184.174 65.8873 184.381 66.3873 184.814 66.5673C185.248 66.7473 185.745 66.5403 185.925 66.1053C186.105 65.6703 185.898 65.1703 185.465 64.9903C185.031 64.8093 184.533 65.0163 184.354 65.4523Z" fill="white"/>
<path fill-rule="evenodd" clip-rule="evenodd" d="M150.74 134.701C150.561 135.136 150.767 135.636 151.201 135.816C151.634 135.996 152.132 135.789 152.311 135.354C152.491 134.919 152.285 134.419 151.851 134.239C151.418 134.058 150.92 134.265 150.74 134.701Z" fill="white"/>
<path fill-rule="evenodd" clip-rule="evenodd" d="M222.339 132.419C222.159 132.854 222.365 133.354 222.799 133.534C223.232 133.714 223.73 133.507 223.91 133.072C224.089 132.637 223.883 132.137 223.45 131.957C223.016 131.776 222.518 131.983 222.339 132.419Z" fill="white"/>
<path fill-rule="evenodd" clip-rule="evenodd" d="M85.9591 76.3869C85.7801 76.8219 85.9861 77.3219 86.4191 77.5019C86.8531 77.6819 87.3511 77.4749 87.5301 77.0399C87.7101 76.6049 87.5041 76.1049 87.0701 75.9249C86.6361 75.7439 86.1391 75.9509 85.9591 76.3869Z" fill="white"/>
<path fill-rule="evenodd" clip-rule="evenodd" d="M93.3712 47.4831C93.8202 47.3461 94.0742 46.8691 93.9372 46.4181C93.8012 45.9671 93.3252 45.7131 92.8762 45.8501C92.4272 45.9871 92.1742 46.4641 92.3102 46.9151C92.4472 47.3661 92.9222 47.6201 93.3712 47.4831Z" fill="white"/>
<path fill-rule="evenodd" clip-rule="evenodd" d="M203.26 52.9113C203.08 53.3463 203.286 53.8463 203.72 54.0263C204.154 54.2063 204.651 53.9993 204.831 53.5643C205.01 53.1293 204.804 52.6293 204.371 52.4493C203.937 52.2683 203.439 52.4753 203.26 52.9113Z" fill="white"/>
<path fill-rule="evenodd" clip-rule="evenodd" d="M169.643 122.16C169.464 122.595 169.67 123.095 170.103 123.275C170.537 123.455 171.035 123.248 171.214 122.813C171.394 122.378 171.188 121.878 170.754 121.698C170.321 121.517 169.823 121.724 169.643 122.16Z" fill="white"/>
<path fill-rule="evenodd" clip-rule="evenodd" d="M241.245 119.877C241.065 120.313 241.271 120.813 241.705 120.993C242.138 121.173 242.636 120.966 242.816 120.531C242.995 120.096 242.789 119.596 242.355 119.415C241.922 119.235 241.424 119.442 241.245 119.877Z" fill="white"/>
<path fill-rule="evenodd" clip-rule="evenodd" d="M103.264 82.6573C103.084 83.0923 103.29 83.5923 103.724 83.7733C104.157 83.9533 104.655 83.7463 104.835 83.3113C105.014 82.8753 104.808 82.3753 104.375 82.1953C103.941 82.0153 103.443 82.2223 103.264 82.6573Z" fill="white"/>
<path fill-rule="evenodd" clip-rule="evenodd" d="M220.561 59.1812C220.382 59.6172 220.588 60.1163 221.022 60.2973C221.455 60.4773 221.953 60.2702 222.132 59.8352C222.312 59.3992 222.106 58.9002 221.672 58.7192C221.239 58.5392 220.741 58.7462 220.561 59.1812Z" fill="white"/>
<path fill-rule="evenodd" clip-rule="evenodd" d="M186.944 128.43C186.764 128.865 186.971 129.365 187.404 129.546C187.838 129.726 188.335 129.519 188.515 129.084C188.695 128.648 188.488 128.148 188.055 127.968C187.621 127.788 187.123 127.995 186.944 128.43Z" fill="white"/>
<path fill-rule="evenodd" clip-rule="evenodd" d="M258.545 126.148C258.366 126.583 258.572 127.083 259.005 127.263C259.439 127.444 259.937 127.237 260.116 126.801C260.296 126.366 260.09 125.866 259.656 125.686C259.223 125.506 258.725 125.713 258.545 126.148Z" fill="white"/>
<path fill-rule="evenodd" clip-rule="evenodd" d="M0.278 140.8H299.723C299.907 143.843 300 146.911 300 150H0C0 146.911 0.094 143.843 0.278 140.8Z" fill="white"/>
<path fill-rule="evenodd" clip-rule="evenodd" d="M0.111375 144.186C15.3424 143.092 36.8534 141.366 43.0354 141.366L84.3444 144.324C88.7024 144.324 100.04 144.507 107.266 144.324C110.981 144.237 114.027 146.218 116.733 146.015C124.762 145.406 145.979 144.807 152.54 144.324C159.1 143.841 185.547 143.473 194.149 143.473C202.75 143.473 213.37 142.275 217.086 141.908C220.803 141.541 239.748 141.309 248.626 142.024C257.503 142.758 264.383 141.667 269.843 141.425C275.302 141.183 284.477 141.183 288.766 140.855C290.742 140.704 295.128 140.891 299.742 141.124C299.914 144.061 300 147.02 300 150H124.291C85.9024 148.487 44.7634 146.507 0.109375 144.238C0.110375 144.221 0.110375 144.203 0.111375 144.186Z" fill="#FEF7F0"/>
<path d="M112.764 118.124C112.707 119.286 111.973 119.867 110.562 119.867C110.901 119.867 107.175 119.931 99.3837 120.06C94.6407 120.189 91.3387 120.125 89.4757 119.867C88.6287 119.737 88.2047 118.963 88.2047 117.544C87.9227 84.767 87.8377 60.119 87.9507 43.602C87.9507 41.795 88.4587 40.988 89.4757 41.182C90.6607 41.376 93.7097 41.376 98.6217 41.182C99.3547 41.117 99.7787 41.44 99.8917 42.15C99.8347 42.731 99.8067 43.343 99.8067 43.989C99.9757 46.828 100.005 55.57 99.8917 70.217C99.7787 86.154 99.8067 97.219 99.9757 103.413C100.033 104.897 100.682 105.672 101.924 105.736H110.731C112.086 105.736 112.764 106.317 112.764 107.478C112.82 109.737 112.82 113.285 112.764 118.124Z" fill="#171717"/>
<path d="M148.923 120.06C148.98 120.447 148.725 120.641 148.161 120.641H143.757C141.612 120.576 139.749 120.544 138.168 120.544C137.66 120.544 137.011 118.447 136.22 114.253C135.656 111.092 135.232 108.382 134.95 106.123C134.894 105.672 134.583 105.446 134.019 105.446H130.716C130.321 105.446 130.067 105.672 129.954 106.123C129.446 109.995 128.768 114.479 127.921 119.576C127.696 120.157 127.441 120.447 127.159 120.447H116.743C115.84 120.447 115.473 120.06 115.642 119.286C117.562 106.123 119.481 92.9289 121.401 79.7019C125.183 54.2799 127.441 41.5369 128.175 41.4719C131.224 41.2789 134.273 41.2789 137.321 41.4719C137.999 41.5369 140.088 54.3119 143.588 79.7979C145.395 93.2189 147.173 106.64 148.923 120.06ZM134.188 93.2509C133.341 85.8959 132.805 82.2179 132.579 82.2179C132.297 82.2179 131.958 83.7989 131.563 86.9599C131.337 89.0249 131.111 91.1219 130.885 93.2509C130.829 93.4449 131.097 93.5899 131.69 93.6869C132.283 93.7839 132.833 93.7999 133.341 93.7349C133.906 93.6709 134.188 93.5089 134.188 93.2509Z" fill="#171717"/>
<path d="M181.189 102.058C181.189 107.736 179.919 112.221 177.378 115.511C174.838 118.802 171.253 120.447 166.623 120.447C162.615 120.447 159.199 118.673 156.376 115.124C153.384 111.317 151.944 106.381 152.057 100.316C152.057 99.2839 152.086 97.6059 152.142 95.2839C152.199 93.9289 152.509 93.2509 153.074 93.2509C153.638 93.2509 155.233 93.1869 157.858 93.0579C160.484 92.9289 162.078 92.8639 162.643 92.8639C163.208 92.8639 163.49 93.7029 163.49 95.3799V100.123C163.49 104.768 164.591 107.091 166.792 107.091C168.543 107.091 169.474 105.51 169.587 102.349L169.756 96.9289C169.813 95.3159 168.345 92.8319 165.353 89.4769C160.328 83.7989 157.562 80.6049 157.054 79.8949C154.062 75.8949 152.566 72.2489 152.566 68.9589V60.7319C152.566 54.8609 153.779 50.1829 156.207 46.6989C158.804 42.8919 162.587 40.9239 167.555 40.7949C171.62 40.7299 174.866 42.3429 177.293 45.6339C179.552 48.7309 180.681 52.8279 180.681 57.9249V67.5069C180.681 68.4749 180.37 68.9909 179.749 69.0549C178.112 69.2489 175.035 69.2489 170.519 69.0549C169.785 69.0549 169.418 68.5719 169.418 67.6039C169.361 66.1199 169.418 63.5389 169.587 59.8609C169.644 58.5059 169.432 57.1669 168.952 55.8449C168.472 54.5219 167.837 53.8609 167.047 53.8609C164.845 53.8609 163.744 55.9899 163.744 60.2479V65.2809C163.744 67.2809 165.24 70.1199 168.232 73.7979C171.055 77.2179 173.878 80.6369 176.701 84.0569C179.693 88.3149 181.189 92.0899 181.189 95.3799V102.058Z" fill="#171717"/>
<path d="M213.706 53.28C213.706 54.183 213.226 54.635 212.266 54.635C211.871 54.635 211.024 54.603 209.725 54.538H206.677C205.491 54.538 204.898 55.022 204.898 55.99L205.068 118.415C205.068 119.447 204.757 119.996 204.136 120.06C202.104 120.383 198.886 120.35 194.482 119.963C193.748 119.899 193.381 119.35 193.381 118.318L193.297 55.893C193.297 54.99 192.958 54.538 192.281 54.538H186.014C185.111 54.474 184.659 54.022 184.659 53.183C184.659 53.893 184.602 52.57 184.49 49.215C184.377 47.021 184.433 45.311 184.659 44.085C184.885 42.408 185.393 41.569 186.183 41.569C193.184 41.505 201.906 41.505 212.351 41.569C213.141 41.569 213.565 42.15 213.621 43.311C213.734 47.312 213.762 50.634 213.706 53.28Z" fill="#171717"/>
<path d="M150.013 12.116C151.725 12.116 153.112 10.7285 153.112 9.01697C153.112 7.30544 151.725 5.91797 150.013 5.91797C148.302 5.91797 146.914 7.30544 146.914 9.01697C146.914 10.7285 148.302 12.116 150.013 12.116Z" fill="#25282B"/>
<path fill-rule="evenodd" clip-rule="evenodd" d="M168.424 8.79805C169.204 8.90105 169.754 9.61704 169.652 10.397C169.549 11.177 168.832 11.727 168.052 11.624C167.272 11.522 166.722 10.8051 166.825 10.0251C166.928 9.24505 167.644 8.69505 168.424 8.79805Z" fill="#25282B"/>
<path fill-rule="evenodd" clip-rule="evenodd" d="M132.099 8.79805C131.319 8.90105 130.769 9.61704 130.872 10.397C130.975 11.177 131.691 11.727 132.471 11.624C133.251 11.522 133.801 10.8051 133.699 10.0251C133.596 9.24505 132.879 8.69505 132.099 8.79805Z" fill="#25282B"/>
<path fill-rule="evenodd" clip-rule="evenodd" d="M203.987 18.3269C204.714 18.6279 205.059 19.4629 204.758 20.1899C204.457 20.9169 203.623 21.2619 202.896 20.9609C202.169 20.6599 201.823 19.8259 202.124 19.0989C202.425 18.3719 203.26 18.0259 203.987 18.3269Z" fill="#25282B"/>
<path fill-rule="evenodd" clip-rule="evenodd" d="M96.533 18.3269C95.806 18.6279 95.46 19.4629 95.761 20.1899C96.062 20.9169 96.897 21.2619 97.624 20.9609C98.351 20.6599 98.696 19.8259 98.395 19.0989C98.094 18.3719 97.26 18.0259 96.533 18.3269Z" fill="#25282B"/>
<path fill-rule="evenodd" clip-rule="evenodd" d="M235.872 36.7368C236.496 37.2158 236.614 38.1108 236.135 38.7348C235.656 39.3598 234.761 39.4778 234.136 38.9988C233.512 38.5198 233.394 37.6238 233.873 36.9998C234.352 36.3758 235.248 36.2578 235.872 36.7368Z" fill="#25282B"/>
<path fill-rule="evenodd" clip-rule="evenodd" d="M64.6472 36.7368C64.0232 37.2158 63.9052 38.1108 64.3842 38.7348C64.8632 39.3598 65.7582 39.4778 66.3822 38.9988C67.0062 38.5198 67.1243 37.6238 66.6453 36.9998C66.1663 36.3758 65.2712 36.2578 64.6472 36.7368Z" fill="#25282B"/>
<path fill-rule="evenodd" clip-rule="evenodd" d="M261.908 62.7718C262.387 63.3958 262.269 64.2908 261.645 64.7698C261.021 65.2488 260.125 65.1308 259.646 64.5068C259.167 63.8828 259.285 62.9878 259.909 62.5088C260.533 62.0298 261.429 62.1478 261.908 62.7718Z" fill="#25282B"/>
<path fill-rule="evenodd" clip-rule="evenodd" d="M38.6108 62.7718C38.1318 63.3958 38.2498 64.2908 38.8738 64.7698C39.4978 65.2488 40.3938 65.1308 40.8728 64.5068C41.3518 63.8828 41.2338 62.9878 40.6088 62.5088C39.9848 62.0298 39.0898 62.1478 38.6108 62.7718Z" fill="#25282B"/>
<path fill-rule="evenodd" clip-rule="evenodd" d="M186.518 12.3971C187.278 12.6011 187.729 13.3831 187.526 14.1431C187.322 14.9031 186.54 15.3551 185.78 15.1511C185.02 14.9471 184.568 14.1651 184.772 13.4051C184.976 12.6451 185.758 12.1931 186.518 12.3971Z" fill="#25282B"/>
<path fill-rule="evenodd" clip-rule="evenodd" d="M114.002 12.3971C113.242 12.6011 112.79 13.3831 112.994 14.1431C113.197 14.9031 113.98 15.3551 114.74 15.1511C115.5 14.9471 115.951 14.1651 115.748 13.4051C115.544 12.6451 114.762 12.1931 114.002 12.3971Z" fill="#25282B"/>
<path fill-rule="evenodd" clip-rule="evenodd" d="M221.372 25.0382C222.853 25.8932 223.362 27.7902 222.507 29.2712C221.651 30.7532 219.754 31.2612 218.273 30.4062C216.791 29.5502 216.283 27.6532 217.138 26.1722C217.994 24.6912 219.891 24.1822 221.372 25.0382Z" fill="#25282B"/>
<path fill-rule="evenodd" clip-rule="evenodd" d="M79.1517 25.0382C77.6697 25.8932 77.1617 27.7902 78.0167 29.2712C78.8717 30.7532 80.7687 31.2612 82.2507 30.4062C83.7317 29.5502 84.2407 27.6532 83.3847 26.1722C82.5297 24.6912 80.6327 24.1822 79.1517 25.0382Z" fill="#25282B"/>
<path fill-rule="evenodd" clip-rule="evenodd" d="M249.742 48.9009C250.298 49.4569 250.298 50.3609 249.742 50.9169C249.185 51.4729 248.282 51.4729 247.726 50.9169C247.169 50.3609 247.169 49.4569 247.726 48.9009C248.282 48.3449 249.185 48.3449 249.742 48.9009Z" fill="#25282B"/>
<path fill-rule="evenodd" clip-rule="evenodd" d="M50.7764 48.9009C50.2204 49.4569 50.2204 50.3609 50.7764 50.9169C51.3324 51.4729 52.2364 51.4729 52.7924 50.9169C53.3484 50.3609 53.3484 49.4569 52.7924 48.9009C52.2364 48.3449 51.3324 48.3449 50.7764 48.9009Z" fill="#25282B"/>
<path fill-rule="evenodd" clip-rule="evenodd" d="M273.607 77.2752C274.462 78.7562 273.954 80.6532 272.473 81.5082C270.991 82.3642 269.094 81.8552 268.239 80.3742C267.384 78.8932 267.892 76.9952 269.373 76.1402C270.855 75.2852 272.752 75.7932 273.607 77.2752Z" fill="#25282B"/>
<path fill-rule="evenodd" clip-rule="evenodd" d="M26.911 77.2752C26.056 78.7562 26.565 80.6532 28.046 81.5082C29.527 82.3642 31.424 81.8552 32.28 80.3742C33.135 78.8932 32.627 76.9952 31.145 76.1402C29.664 75.2852 27.767 75.7932 26.911 77.2752Z" fill="#25282B"/>
<path fill-rule="evenodd" clip-rule="evenodd" d="M280.317 94.658C280.618 95.385 280.273 96.219 279.546 96.52C278.819 96.821 277.985 96.476 277.683 95.749C277.382 95.022 277.728 94.188 278.455 93.886C279.182 93.585 280.016 93.931 280.317 94.658Z" fill="#25282B"/>
<path fill-rule="evenodd" clip-rule="evenodd" d="M20.2024 94.658C19.9014 95.385 20.2474 96.219 20.9744 96.52C21.7014 96.821 22.5354 96.476 22.8364 95.749C23.1374 95.022 22.7924 94.188 22.0654 93.886C21.3384 93.585 20.5034 93.931 20.2024 94.658Z" fill="#25282B"/>
<path fill-rule="evenodd" clip-rule="evenodd" d="M286.248 112.128C286.451 112.888 286 113.67 285.24 113.874C284.48 114.077 283.697 113.626 283.494 112.866C283.29 112.106 283.742 111.323 284.502 111.12C285.262 110.916 286.044 111.368 286.248 112.128Z" fill="#25282B"/>
<path fill-rule="evenodd" clip-rule="evenodd" d="M14.2716 112.128C14.0676 112.888 14.5196 113.67 15.2796 113.874C16.0396 114.077 16.8216 113.626 17.0256 112.866C17.2286 112.106 16.7776 111.323 16.0176 111.12C15.2576 110.916 14.4756 111.368 14.2716 112.128Z" fill="#25282B"/>
<path fill-rule="evenodd" clip-rule="evenodd" d="M289.847 130.222C289.95 131.002 289.4 131.719 288.62 131.822C287.84 131.924 287.123 131.374 287.02 130.594C286.918 129.814 287.467 129.098 288.247 128.995C289.027 128.892 289.744 129.442 289.847 130.222Z" fill="#25282B"/>
<path fill-rule="evenodd" clip-rule="evenodd" d="M10.6726 130.222C10.5696 131.002 11.1196 131.719 11.8996 131.822C12.6796 131.924 13.3966 131.374 13.4986 130.594C13.6016 129.814 13.0516 129.098 12.2716 128.995C11.4916 128.892 10.7756 129.442 10.6726 130.222Z" fill="#25282B"/>
<path fill-rule="evenodd" clip-rule="evenodd" d="M292.725 148.632C292.725 150.342 291.337 151.731 289.626 151.731C287.915 151.731 286.527 150.342 286.527 148.632C286.527 146.921 287.915 145.532 289.626 145.532C291.337 145.532 292.725 146.921 292.725 148.632Z" fill="#25282B"/>
<path fill-rule="evenodd" clip-rule="evenodd" d="M7.79297 148.632C7.79297 150.342 9.18197 151.731 10.893 151.731C12.603 151.731 13.992 150.342 13.992 148.632C13.992 146.921 12.603 145.532 10.893 145.532C9.18197 145.532 7.79297 146.921 7.79297 148.632Z" fill="#25282B"/>
<path d="M237.561 121.826V132.391C237.549 132.816 237.287 133.168 236.959 133.25C236.527 133.359 235.975 132.998 235.911 132.391V117.13C235.784 115.903 234.847 114.946 233.733 114.817C232.431 114.665 231.132 115.674 230.959 117.13V135.914C230.802 136.286 230.428 136.512 230.047 136.476C229.721 136.445 229.436 136.227 229.307 135.914V125.349C228.993 124.073 227.811 123.229 226.59 123.342C225.527 123.441 224.614 124.25 224.355 125.349V135.914C224.469 136.438 224.922 138.204 226.59 139.472C227.65 140.277 228.731 140.523 229.307 140.61V150H237.561V138.262C238.092 138.166 239.608 137.82 240.876 136.476C242.429 134.831 242.507 132.859 242.512 132.391V121.826C242.127 120.844 241.214 120.173 240.185 120.116C239.055 120.054 237.99 120.743 237.561 121.826Z" fill="#0C543B"/>
<path d="M241.034 130.031V127.685V126.51C241.095 126.583 241.452 126.995 241.878 126.961C242.384 126.92 242.908 126.255 242.793 125.337V124.162V122.989L242.792 121.814C242.465 120.754 241.485 119.996 240.358 119.918C239.093 119.83 237.89 120.616 237.512 121.815V122.989V124.162L237.513 125.338V126.511V127.685V128.858V130.031V131.206L237.514 132.379C237.736 133.098 238.422 133.604 239.203 133.632C240.033 133.662 240.795 133.145 241.034 132.379V131.206V130.031Z" fill="white"/>
<path d="M236.161 130.032L236.16 127.686V126.511V125.338V124.163V122.99L236.159 121.815V120.642V119.467V118.294V117.119C236.098 115.816 235.024 114.775 233.743 114.665C232.293 114.54 230.899 115.634 230.816 117.119C230.816 117.511 230.816 117.903 230.816 118.294V119.467V120.642L230.817 121.815V122.99V124.163V125.339V126.511V127.686V128.859L230.818 130.032C230.807 130.762 231.261 131.326 231.796 131.41C232.162 131.468 232.475 131.288 232.598 131.207V132.38V133.555V134.728L232.599 135.903V137.076C232.702 137.539 233.161 137.84 233.613 137.784C233.988 137.737 234.303 137.452 234.379 137.076C234.379 136.685 234.379 136.294 234.379 135.903V134.728V133.555L234.378 132.38V131.207C234.425 131.605 234.732 131.921 235.105 131.982C235.572 132.058 236.081 131.724 236.161 131.207C236.161 130.815 236.161 130.423 236.161 130.032Z" fill="white"/>
<path d="M231.851 142.134C231.657 141.15 230.535 140.384 229.273 140.599V141.772V144.12C229.313 144.534 229.635 144.857 230.018 144.898C230.462 144.946 230.9 144.606 230.953 144.12C231.632 143.632 231.992 142.85 231.851 142.134Z" fill="white"/>
<path d="M229.565 131.208V130.032L229.564 128.86V127.687V126.512V125.338C229.349 124.135 228.219 123.241 226.906 123.227C225.569 123.212 224.402 124.114 224.184 125.339V126.512V127.687L224.185 130.033V131.208V132.381V133.556C224.09 134.266 224.515 134.858 225.052 134.968C225.504 135.061 225.901 134.785 225.978 134.729C226.052 135.072 226.309 135.348 226.634 135.424C227.083 135.528 227.618 135.243 227.773 134.728C227.773 134.338 227.773 133.947 227.773 133.555V132.381C227.862 132.779 228.25 133.065 228.686 133.057C229.11 133.049 229.478 132.768 229.565 132.38C229.565 131.99 229.565 131.598 229.565 131.208Z" fill="white"/>
<path d="M233.568 144.092C233.543 144.559 233.899 144.957 234.364 144.982C234.829 145.007 235.225 144.648 235.25 144.182C235.276 143.714 234.92 143.316 234.455 143.291C233.99 143.267 233.593 143.625 233.568 144.092Z" fill="white"/>
<path d="M235.552 143.088C235.527 143.552 235.88 143.947 236.342 143.972C236.804 143.996 237.198 143.64 237.223 143.177C237.248 142.713 236.894 142.318 236.433 142.293C235.971 142.268 235.577 142.624 235.552 143.088Z" fill="white"/>
<defs>
<linearGradient id="paint0_linear_621_221" x1="150" y1="18.1677" x2="150" y2="119.861" gradientUnits="userSpaceOnUse">
<stop stop-color="#595959"/>
<stop offset="1" stop-color="#C8C8C8"/>
</linearGradient>
</defs>
</svg>
