<svg width="304" height="156" viewBox="0 0 304 156" fill="none" xmlns="http://www.w3.org/2000/svg">
<path fill-rule="evenodd" clip-rule="evenodd" d="M302 151C302 68.157 234.843 1 152 1C69.158 1 2 68.157 2 151H302Z" fill="url(#paint0_linear_678_3459)"/>
<path fill-rule="evenodd" clip-rule="evenodd" d="M5.39091 119.138C7.18591 119.176 8.81091 119.151 10.2109 119.013C16.9789 118.372 34.2789 121.041 36.5349 122.135C38.7909 123.255 46.3019 126.138 50.4299 126.377C54.5799 126.592 65.8589 127.045 71.8589 128.806C77.8809 130.595 87.2869 132.142 90.8509 132.596C93.1519 132.889 100.572 135.131 107.024 136.439C99.9189 136.946 92.0459 136.946 87.7609 136.946H44.3169C38.2409 136.946 17.1049 141.708 2.12891 144.729C2.48891 135.985 3.59691 127.434 5.39091 119.138Z" fill="#0D4FA0"/>
<path fill-rule="evenodd" clip-rule="evenodd" d="M2.13 144.726C17.107 141.705 38.24 136.943 44.315 136.943H87.759C92.045 136.943 99.917 136.943 107.023 136.436C110.676 136.197 114.127 135.822 116.789 135.262C124.684 133.581 145.548 131.927 152 130.592C158.451 129.257 184.459 128.244 192.917 128.244C201.376 128.244 211.819 124.934 215.474 123.921C219.128 122.906 237.759 122.266 246.489 124.241C255.218 126.269 261.984 123.253 267.354 122.586C272.722 121.919 281.744 121.919 285.963 121.012C288.802 120.401 294.205 121.785 299.326 122.65C301.082 131.83 302.001 141.307 302.001 151H132.295C92.331 149.587 49.264 147.571 2.125 144.841C2.127 144.802 2.129 144.764 2.13 144.726Z" fill="#2367BD"/>
<path fill-rule="evenodd" clip-rule="evenodd" d="M2.278 141.8H301.723C301.907 144.843 302 147.911 302 151H2C2 147.911 2.094 144.843 2.278 141.8Z" fill="#012F6B"/>
<path fill-rule="evenodd" clip-rule="evenodd" d="M2.11138 145.186C17.3424 144.092 38.8534 142.366 45.0354 142.366L86.3444 145.324C90.7024 145.324 102.04 145.507 109.265 145.324C112.981 145.237 116.027 147.218 118.733 147.015C126.761 146.406 147.979 145.807 154.54 145.324C161.1 144.841 187.547 144.473 196.149 144.473C204.75 144.473 215.37 143.275 219.086 142.908C222.802 142.541 241.748 142.309 250.625 143.024C259.502 143.758 266.383 142.667 271.843 142.425C277.302 142.183 286.477 142.183 290.766 141.855C292.742 141.704 297.128 141.891 301.742 142.124C301.913 145.061 302 148.02 302 151H126.291C87.9024 149.487 46.7634 147.507 2.10938 145.238C2.11038 145.221 2.11038 145.203 2.11138 145.186Z" fill="#021536"/>
<path d="M114.895 46.7279C114.844 43.7239 114.718 65.7949 114.516 112.942C114.516 114.444 114.111 115.282 113.302 115.455C110.876 115.917 108.323 115.917 105.643 115.455C104.733 115.282 104.152 114.675 103.899 113.635C102.231 104.968 100.284 95.1459 98.0596 84.1679C97.8576 83.3019 97.5536 82.8679 97.1496 82.8679C96.8466 82.8679 96.6946 83.4749 96.6946 84.6879V96.9949C96.6436 103.928 96.6186 109.33 96.6186 113.202C96.6186 114.357 95.9866 115.079 94.7226 115.368C93.8636 115.599 92.7256 115.686 91.3106 115.628C89.4906 115.57 88.4536 115.542 88.2016 115.542C87.1906 115.599 86.6596 114.935 86.6086 113.548C86.4066 105.459 86.3556 93.2679 86.4566 76.9749C86.5586 61.2019 86.7356 51.1769 86.9876 46.9019C87.0886 45.5149 87.4176 44.7929 87.9736 44.7349C89.1866 44.6769 90.8306 44.6769 92.9026 44.7349C95.4306 44.8499 96.7956 44.9079 96.9976 44.9079C97.7056 44.9079 98.1606 45.5149 98.3626 46.7279C100.891 60.7099 102.66 69.7239 103.672 73.7679C104.076 75.3279 104.405 76.1079 104.657 76.1079C105.011 76.1079 105.138 75.2129 105.037 73.4219C104.834 68.7419 104.733 59.8439 104.733 46.7279C104.733 45.3989 105.239 44.7639 106.25 44.8219H113.302C114.364 44.8789 114.895 45.5149 114.895 46.7279Z" fill="#F59E0B"/>
<path d="M128.088 112.942C128.088 114.328 127.683 115.137 126.874 115.368C125.661 115.773 123.007 115.773 118.912 115.368C117.901 115.253 117.395 114.328 117.395 112.595C117.496 93.0658 117.522 71.3418 117.471 47.4218C117.471 46.8438 117.522 46.3238 117.623 45.8618C117.774 45.1678 118.052 44.8218 118.457 44.8218C120.631 44.8218 123.386 44.8788 126.723 44.9948C127.582 45.1098 128.037 45.9188 128.088 47.4218V112.942Z" fill="#F59E0B"/>
<path d="M159.48 112.855C159.48 114.415 159.228 115.195 158.722 115.195H156.599C156.144 115.195 155.815 114.819 155.613 114.068C155.411 113.317 155.082 112.306 154.627 111.035C153.768 113.924 150.937 115.368 146.134 115.368C140.927 115.368 137.261 113.866 135.138 110.862C133.268 108.204 132.358 103.813 132.408 97.6882L132.56 62.3282C132.61 55.1642 133.647 50.3102 135.669 47.7682C137.489 45.5152 140.75 44.3882 145.451 44.3882C151.063 44.3882 154.88 46.0062 156.902 49.2422C158.419 51.5532 159.202 55.4532 159.253 60.9422C159.405 66.0842 159.455 69.8682 159.405 72.2952C159.405 73.2772 159.076 73.7682 158.419 73.7682C156.649 73.8262 153.894 73.7972 150.153 73.6822C149.546 73.6822 149.218 73.2482 149.167 72.3822C149.066 68.9732 148.965 65.5932 148.864 62.2422C148.51 57.6192 147.575 55.3082 146.058 55.3082C144.188 55.3082 143.252 57.5902 143.252 62.1552V98.6422C143.252 99.5662 143.505 100.664 144.011 101.935C144.617 103.495 145.325 104.275 146.134 104.275C148.156 104.275 149.167 101.155 149.167 94.9152V90.4952C149.167 89.7442 148.965 89.3972 148.561 89.4552H146.741C146.286 89.4552 146.058 89.1952 146.058 88.6752V80.2682C146.058 79.4022 146.437 78.9682 147.196 78.9682C149.875 78.9682 153.591 78.9972 158.343 79.0552C159.101 79.0552 159.48 79.5462 159.48 80.5282V112.855Z" fill="#F59E0B"/>
<path d="M187.994 46.3819C188.095 52.4479 188.069 64.4369 187.918 82.3479C187.766 101.415 187.69 111.757 187.69 113.375C187.69 114.242 187.223 114.776 186.287 114.978C185.352 115.18 184.151 115.253 182.685 115.195C181.068 115.137 180.056 115.137 179.652 115.195C178.995 115.253 178.666 114.53 178.666 113.028L178.742 86.2479C178.691 85.4969 178.363 85.0639 177.756 84.9479C177.251 84.8329 175.886 84.8329 173.661 84.9479C173.257 84.9479 173.029 85.3819 172.979 86.2479C173.029 93.3549 172.953 102.339 172.751 113.202C172.701 114.242 172.018 114.848 170.704 115.022C168.58 115.368 166.457 115.426 164.334 115.195C163.575 115.137 163.171 114.473 163.12 113.202C162.615 98.6989 162.564 76.4259 162.969 46.3819C162.969 45.3989 163.222 44.9079 163.727 44.9079H171.993C172.751 44.9659 173.13 45.4569 173.13 46.3819C173.13 46.3239 173.08 49.9059 172.979 57.1279C172.878 62.6169 172.878 66.8929 172.979 69.9549C172.979 70.4749 173.004 70.8219 173.055 70.9949C173.105 71.3419 173.257 71.5439 173.51 71.6019C174.622 71.9479 176.037 71.9189 177.756 71.5149C178.312 71.3989 178.59 70.8789 178.59 69.9549V46.0349C178.59 45.2259 178.767 44.8499 179.121 44.9079C181.194 44.7929 183.899 44.7349 187.235 44.7349C187.741 44.7929 187.994 45.3419 187.994 46.3819Z" fill="#F59E0B"/>
<path d="M217.572 55.2219C217.572 56.0299 217.143 56.4349 216.283 56.4349C215.929 56.4349 215.171 56.4059 214.008 56.3479H211.278C210.217 56.3479 209.686 56.7819 209.686 57.6479L209.837 113.548C209.837 114.473 209.559 114.964 209.003 115.022C207.183 115.31 204.302 115.282 200.358 114.935C199.701 114.877 199.373 114.386 199.373 113.462L199.297 57.5619C199.297 56.7529 198.993 56.3479 198.387 56.3479H192.775C191.966 56.2899 191.562 55.8859 191.562 55.1349C191.562 55.7699 191.511 54.5859 191.41 51.5819C191.309 49.6169 191.36 48.0859 191.562 46.9879C191.764 45.4859 192.219 44.7349 192.927 44.7349C199.196 44.6769 207.006 44.6769 216.359 44.7349C217.067 44.7349 217.446 45.2549 217.497 46.2949C217.598 49.8769 217.623 52.8529 217.572 55.2219Z" fill="#F59E0B"/>
<path fill-rule="evenodd" clip-rule="evenodd" d="M232.008 151V139.332C231.48 139.252 230.488 139.026 229.516 138.287C227.985 137.125 227.57 135.504 227.465 135.023V125.331C227.703 124.323 228.54 123.581 229.516 123.49C230.635 123.386 231.72 124.16 232.008 125.331V135.023C232.126 135.311 232.388 135.511 232.686 135.539C233.036 135.573 233.379 135.365 233.523 135.023V117.791C233.682 116.455 234.873 115.53 236.068 115.669C237.09 115.788 237.949 116.666 238.066 117.791V131.791C238.125 132.348 238.631 132.68 239.028 132.58C239.328 132.504 239.569 132.181 239.58 131.791V122.099C239.973 121.106 240.951 120.474 241.987 120.531C242.931 120.583 243.769 121.198 244.122 122.099V131.791C244.117 132.221 244.046 134.03 242.621 135.539C241.458 136.772 240.067 137.089 239.58 137.177V151H232.008Z" fill="#021536"/>
<path d="M152.013 13.116C153.725 13.116 155.112 11.7285 155.112 10.017C155.112 8.30544 153.725 6.91797 152.013 6.91797C150.302 6.91797 148.914 8.30544 148.914 10.017C148.914 11.7285 150.302 13.116 152.013 13.116Z" fill="white"/>
<path fill-rule="evenodd" clip-rule="evenodd" d="M170.424 9.79805C171.204 9.90105 171.754 10.617 171.652 11.397C171.549 12.177 170.832 12.727 170.052 12.624C169.272 12.522 168.722 11.8051 168.825 11.0251C168.928 10.2451 169.644 9.69505 170.424 9.79805Z" fill="white"/>
<path fill-rule="evenodd" clip-rule="evenodd" d="M134.099 9.79805C133.319 9.90105 132.769 10.617 132.872 11.397C132.975 12.177 133.691 12.727 134.471 12.624C135.251 12.522 135.801 11.8051 135.698 11.0251C135.596 10.2451 134.879 9.69505 134.099 9.79805Z" fill="white"/>
<path fill-rule="evenodd" clip-rule="evenodd" d="M205.987 19.3269C206.714 19.6279 207.059 20.4629 206.758 21.1899C206.457 21.9169 205.623 22.2619 204.896 21.9609C204.169 21.6599 203.823 20.8259 204.124 20.0989C204.425 19.3719 205.26 19.0259 205.987 19.3269Z" fill="white"/>
<path fill-rule="evenodd" clip-rule="evenodd" d="M98.533 19.3269C97.806 19.6279 97.46 20.4629 97.761 21.1899C98.062 21.9169 98.897 22.2619 99.624 21.9609C100.351 21.6599 100.696 20.8259 100.395 20.0989C100.094 19.3719 99.26 19.0259 98.533 19.3269Z" fill="white"/>
<path fill-rule="evenodd" clip-rule="evenodd" d="M237.872 37.7368C238.496 38.2158 238.614 39.1108 238.135 39.7348C237.656 40.3598 236.76 40.4778 236.136 39.9988C235.512 39.5198 235.394 38.6238 235.873 37.9998C236.352 37.3758 237.248 37.2578 237.872 37.7368Z" fill="white"/>
<path fill-rule="evenodd" clip-rule="evenodd" d="M66.6478 37.7368C66.0228 38.2158 65.9058 39.1108 66.3838 39.7348C66.8628 40.3598 67.7588 40.4778 68.3828 39.9988C69.0068 39.5198 69.1248 38.6238 68.6458 37.9998C68.1668 37.3758 67.2718 37.2578 66.6478 37.7368Z" fill="white"/>
<path fill-rule="evenodd" clip-rule="evenodd" d="M263.908 63.7718C264.387 64.3958 264.269 65.2908 263.645 65.7698C263.021 66.2488 262.125 66.1308 261.646 65.5068C261.167 64.8828 261.285 63.9878 261.909 63.5088C262.533 63.0298 263.429 63.1478 263.908 63.7718Z" fill="white"/>
<path fill-rule="evenodd" clip-rule="evenodd" d="M40.6108 63.7718C40.1318 64.3958 40.2498 65.2908 40.8738 65.7698C41.4978 66.2488 42.3938 66.1308 42.8718 65.5068C43.3508 64.8828 43.2338 63.9878 42.6088 63.5088C41.9848 63.0298 41.0898 63.1478 40.6108 63.7718Z" fill="white"/>
<path fill-rule="evenodd" clip-rule="evenodd" d="M188.518 13.3971C189.278 13.6011 189.729 14.3831 189.526 15.1431C189.322 15.9031 188.54 16.3551 187.78 16.1511C187.02 15.9471 186.568 15.1651 186.772 14.4051C186.976 13.6451 187.758 13.1931 188.518 13.3971Z" fill="white"/>
<path fill-rule="evenodd" clip-rule="evenodd" d="M116.002 13.3971C115.242 13.6011 114.79 14.3831 114.994 15.1431C115.197 15.9031 115.98 16.3551 116.74 16.1511C117.499 15.9471 117.951 15.1651 117.748 14.4051C117.544 13.6451 116.762 13.1931 116.002 13.3971Z" fill="white"/>
<path fill-rule="evenodd" clip-rule="evenodd" d="M223.372 26.0382C224.853 26.8932 225.362 28.7902 224.506 30.2712C223.651 31.7532 221.754 32.2612 220.273 31.4062C218.791 30.5502 218.283 28.6532 219.138 27.1722C219.994 25.6912 221.891 25.1822 223.372 26.0382Z" fill="white"/>
<path fill-rule="evenodd" clip-rule="evenodd" d="M81.1507 26.0382C79.6697 26.8932 79.1617 28.7902 80.0167 30.2712C80.8717 31.7532 82.7687 32.2612 84.2507 31.4062C85.7317 30.5502 86.2397 28.6532 85.3847 27.1722C84.5297 25.6912 82.6327 25.1822 81.1507 26.0382Z" fill="white"/>
<path fill-rule="evenodd" clip-rule="evenodd" d="M251.742 49.9009C252.298 50.4569 252.298 51.3609 251.742 51.9169C251.185 52.4729 250.282 52.4729 249.726 51.9169C249.169 51.3609 249.169 50.4569 249.726 49.9009C250.282 49.3449 251.185 49.3449 251.742 49.9009Z" fill="white"/>
<path fill-rule="evenodd" clip-rule="evenodd" d="M52.7764 49.9009C52.2204 50.4569 52.2204 51.3609 52.7764 51.9169C53.3324 52.4729 54.2364 52.4729 54.7924 51.9169C55.3484 51.3609 55.3484 50.4569 54.7924 49.9009C54.2364 49.3449 53.3324 49.3449 52.7764 49.9009Z" fill="white"/>
<path fill-rule="evenodd" clip-rule="evenodd" d="M275.607 78.2752C276.462 79.7562 275.954 81.6532 274.473 82.5082C272.991 83.3642 271.094 82.8552 270.239 81.3742C269.384 79.8932 269.892 77.9952 271.373 77.1402C272.855 76.2852 274.752 76.7932 275.607 78.2752Z" fill="white"/>
<path fill-rule="evenodd" clip-rule="evenodd" d="M28.9112 78.2752C28.0562 79.7562 28.5642 81.6532 30.0462 82.5082C31.5272 83.3642 33.4242 82.8552 34.2802 81.3742C35.1352 79.8932 34.6272 77.9952 33.1452 77.1402C31.6642 76.2852 29.7672 76.7932 28.9112 78.2752Z" fill="white"/>
<path fill-rule="evenodd" clip-rule="evenodd" d="M282.317 95.658C282.618 96.385 282.273 97.219 281.546 97.52C280.819 97.821 279.984 97.476 279.683 96.749C279.382 96.022 279.728 95.188 280.455 94.886C281.182 94.585 282.016 94.931 282.317 95.658Z" fill="white"/>
<path fill-rule="evenodd" clip-rule="evenodd" d="M22.2024 95.658C21.9014 96.385 22.2474 97.219 22.9744 97.52C23.7014 97.821 24.5354 97.476 24.8364 96.749C25.1374 96.022 24.7924 95.188 24.0654 94.886C23.3384 94.585 22.5034 94.931 22.2024 95.658Z" fill="white"/>
<path fill-rule="evenodd" clip-rule="evenodd" d="M288.248 113.128C288.451 113.888 287.999 114.67 287.24 114.874C286.48 115.077 285.697 114.626 285.494 113.866C285.29 113.106 285.742 112.323 286.502 112.12C287.262 111.916 288.044 112.368 288.248 113.128Z" fill="white"/>
<path fill-rule="evenodd" clip-rule="evenodd" d="M16.2716 113.128C16.0676 113.888 16.5196 114.67 17.2796 114.874C18.0396 115.077 18.8216 114.626 19.0256 113.866C19.2286 113.106 18.7776 112.323 18.0176 112.12C17.2576 111.916 16.4756 112.368 16.2716 113.128Z" fill="white"/>
<path fill-rule="evenodd" clip-rule="evenodd" d="M291.847 131.222C291.949 132.002 291.4 132.719 290.62 132.822C289.84 132.924 289.123 132.374 289.02 131.594C288.917 130.814 289.467 130.098 290.247 129.995C291.027 129.892 291.744 130.442 291.847 131.222Z" fill="white"/>
<path fill-rule="evenodd" clip-rule="evenodd" d="M12.6726 131.222C12.5696 132.002 13.1196 132.719 13.8996 132.822C14.6796 132.924 15.3966 132.374 15.4986 131.594C15.6016 130.814 15.0516 130.098 14.2716 129.995C13.4916 129.892 12.7746 130.442 12.6726 131.222Z" fill="white"/>
<path fill-rule="evenodd" clip-rule="evenodd" d="M294.725 149.632C294.725 151.342 293.336 152.731 291.626 152.731C289.915 152.731 288.527 151.342 288.527 149.632C288.527 147.921 289.915 146.532 291.626 146.532C293.336 146.532 294.725 147.921 294.725 149.632Z" fill="white"/>
<path fill-rule="evenodd" clip-rule="evenodd" d="M9.79297 149.632C9.79297 151.342 11.182 152.731 12.893 152.731C14.603 152.731 15.992 151.342 15.992 149.632C15.992 147.921 14.603 146.532 12.893 146.532C11.182 146.532 9.79297 147.921 9.79297 149.632Z" fill="white"/>
<defs>
<linearGradient id="paint0_linear_678_3459" x1="152.203" y1="10.502" x2="152.203" y2="120.861" gradientUnits="userSpaceOnUse">
<stop stop-color="#030E20"/>
<stop offset="1" stop-color="#012F60"/>
</linearGradient>
</defs>
</svg>
