<svg width="300" height="153" viewBox="0 0 300 153" fill="none" xmlns="http://www.w3.org/2000/svg">
<path fill-rule="evenodd" clip-rule="evenodd" d="M300 150.461C300 67.6179 232.843 0.460938 150 0.460938C67.158 0.460938 0 67.6179 0 150.461H300Z" fill="url(#paint0_linear_1114_461)"/>
<path fill-rule="evenodd" clip-rule="evenodd" d="M3.39091 118.598C5.18591 118.636 6.81091 118.611 8.21091 118.473C14.9789 117.832 32.2789 120.501 34.5349 121.595C36.7909 122.715 44.3019 125.598 48.4299 125.837C52.5799 126.052 63.8589 126.505 69.8589 128.266C75.8809 130.055 85.2869 131.602 88.8509 132.056C91.1519 132.349 98.5719 134.591 105.024 135.899C97.9189 136.406 90.0459 136.406 85.7609 136.406H42.3169C36.2409 136.406 15.1049 141.168 0.128906 144.189C0.488906 135.445 1.59691 126.894 3.39091 118.598Z" fill="#0D4FA0"/>
<path fill-rule="evenodd" clip-rule="evenodd" d="M0.13 144.185C15.107 141.164 36.24 136.402 42.315 136.402H85.759C90.045 136.402 97.917 136.402 105.023 135.895C108.676 135.656 112.127 135.281 114.789 134.721C122.684 133.04 143.548 131.386 150 130.051C156.451 128.716 182.459 127.703 190.917 127.703C199.376 127.703 209.819 124.393 213.474 123.38C217.128 122.365 235.759 121.725 244.489 123.7C253.218 125.728 259.984 122.712 265.354 122.045C270.722 121.378 279.744 121.378 283.963 120.471C286.802 119.86 292.205 121.244 297.326 122.109C299.082 131.289 300.001 140.766 300.001 150.459H130.295C90.331 149.046 47.264 147.03 0.125 144.3C0.127 144.261 0.129 144.223 0.13 144.185Z" fill="#2367BD"/>
<path fill-rule="evenodd" clip-rule="evenodd" d="M0.278 141.262H299.723C299.907 144.305 300 147.373 300 150.462H0C0 147.373 0.094 144.305 0.278 141.262Z" fill="#012F6B"/>
<path fill-rule="evenodd" clip-rule="evenodd" d="M0.111375 144.647C15.3424 143.553 36.8534 141.827 43.0354 141.827L84.3444 144.785C88.7024 144.785 100.04 144.968 107.265 144.785C110.981 144.698 114.027 146.679 116.733 146.476C124.761 145.867 145.979 145.268 152.54 144.785C159.1 144.302 185.547 143.934 194.149 143.934C202.75 143.934 213.37 142.736 217.086 142.369C220.802 142.002 239.748 141.77 248.625 142.485C257.502 143.219 264.383 142.128 269.843 141.886C275.302 141.644 284.477 141.644 288.766 141.316C290.742 141.165 295.128 141.352 299.742 141.585C299.913 144.522 300 147.481 300 150.461H124.291C85.9024 148.948 44.7634 146.968 0.109375 144.699C0.110375 144.682 0.110375 144.664 0.111375 144.647Z" fill="#021536"/>
<path d="M71.962 92.9087L70.997 105.594L63.207 113.788L64.931 90.8607L67.895 87.7877L71.962 92.9087ZM65.689 81.5637L67.412 58.6367L73.962 66.9087L72.997 79.5157L68.102 84.7157L65.689 81.5637ZM95.471 90.8607L93.747 113.788L87.198 105.594L88.163 92.9087L93.058 87.7877L95.471 90.8607ZM89.197 79.5157L90.162 66.9087L97.952 58.6367L96.229 81.5637L93.265 84.7157L89.197 79.5157ZM69.343 58.6367H79.821L88.301 69.9027L87.818 75.8117H82.717L69.343 58.6367Z" fill="#F59E0B"/>
<path d="M113.944 90.8607L112.221 113.788L105.672 105.594L106.637 92.9087L111.531 87.7877L113.944 90.8607ZM107.671 79.5157L108.636 66.9087L116.426 58.6367L114.703 81.5637L111.738 84.7157L107.671 79.5157Z" fill="#F59E0B"/>
<path d="M158.206 58.6367L150.416 66.9087H135.594L132.354 62.7337L136.215 58.6367H158.206ZM152.208 85.1087L148.279 89.2057H140.144L136.904 85.1087L140.764 80.9337H148.899L152.208 85.1087ZM133.319 78.4117L128.493 83.5337L126.012 80.4607L126.908 68.4057L130.837 64.3087L134.077 68.4057L133.319 78.4117ZM131.389 104.019L127.459 108.116L124.219 104.019L125.322 89.6787L128.218 86.6057L132.285 91.7277L131.389 104.019ZM145.521 113.788L149.451 109.691L146.142 105.594H132.63L128.769 109.691L132.009 113.788H145.521ZM154.759 104.019L150.83 108.116L147.589 104.019L148.486 91.7277L153.38 86.6057L155.862 89.6787L154.759 104.019Z" fill="#F59E0B"/>
<path d="M170.821 92.9087L169.856 105.594L162.066 113.788L163.789 90.8607L166.753 87.7877L170.821 92.9087ZM164.547 81.5637L166.271 58.6367L172.82 66.9087L171.855 79.5157L166.96 84.7157L164.547 81.5637ZM194.329 90.8607L192.606 113.788L186.056 105.594L187.021 92.9087L191.916 87.7877L194.329 90.8607ZM188.056 79.5157L189.021 66.9087L196.811 58.6367L195.087 81.5637L192.123 84.7157L188.056 79.5157ZM187.435 82.1157L190.744 86.2127L186.815 90.3087H171.51L168.27 86.2127L172.131 82.1157H187.435Z" fill="#F59E0B"/>
<path d="M219.837 110.006L215.977 114.103L212.668 110.006L213.978 92.9087L218.872 87.7877L221.285 90.8607L219.837 110.006ZM222.043 81.5637L219.079 84.7157L215.012 79.5157L215.494 73.2117L219.424 69.1157L222.664 73.2117L222.043 81.5637ZM236.796 62.7337L232.798 66.9087H206.256L203.016 62.7337L206.877 58.6367H233.418L236.796 62.7337Z" fill="#F59E0B"/>
<path fill-rule="evenodd" clip-rule="evenodd" d="M230.008 150.462V138.794C229.48 138.714 228.488 138.488 227.516 137.749C225.985 136.587 225.57 134.966 225.465 134.485V124.793C225.703 123.785 226.54 123.043 227.516 122.952C228.635 122.848 229.72 123.622 230.008 124.793V134.485C230.126 134.773 230.388 134.973 230.686 135.001C231.036 135.035 231.379 134.827 231.523 134.485V117.253C231.682 115.917 232.873 114.992 234.068 115.131C235.09 115.25 235.949 116.128 236.066 117.253V131.253C236.125 131.81 236.631 132.142 237.028 132.042C237.328 131.966 237.569 131.643 237.58 131.253V121.561C237.973 120.568 238.951 119.936 239.987 119.993C240.931 120.045 241.769 120.66 242.122 121.561V131.253C242.117 131.683 242.046 133.492 240.621 135.001C239.458 136.234 238.067 136.551 237.58 136.639V150.462H230.008Z" fill="#021536"/>
<path d="M150.013 12.5769C151.725 12.5769 153.112 11.1894 153.112 9.47791C153.112 7.76637 151.725 6.37891 150.013 6.37891C148.302 6.37891 146.914 7.76637 146.914 9.47791C146.914 11.1894 148.302 12.5769 150.013 12.5769Z" fill="white"/>
<path fill-rule="evenodd" clip-rule="evenodd" d="M168.424 9.25849C169.204 9.36149 169.754 10.0775 169.652 10.8575C169.549 11.6375 168.832 12.1875 168.052 12.0845C167.272 11.9825 166.722 11.2655 166.825 10.4855C166.928 9.7055 167.644 9.15549 168.424 9.25849Z" fill="white"/>
<path fill-rule="evenodd" clip-rule="evenodd" d="M132.099 9.25849C131.319 9.36149 130.769 10.0775 130.872 10.8575C130.975 11.6375 131.691 12.1875 132.471 12.0845C133.251 11.9825 133.801 11.2655 133.698 10.4855C133.596 9.7055 132.879 9.15549 132.099 9.25849Z" fill="white"/>
<path fill-rule="evenodd" clip-rule="evenodd" d="M203.987 18.7883C204.714 19.0893 205.059 19.9243 204.758 20.6513C204.457 21.3783 203.623 21.7233 202.896 21.4223C202.169 21.1213 201.823 20.2873 202.124 19.5603C202.425 18.8333 203.26 18.4873 203.987 18.7883Z" fill="white"/>
<path fill-rule="evenodd" clip-rule="evenodd" d="M96.533 18.7883C95.806 19.0893 95.46 19.9243 95.761 20.6513C96.062 21.3783 96.897 21.7233 97.624 21.4223C98.351 21.1213 98.696 20.2873 98.395 19.5603C98.094 18.8333 97.26 18.4873 96.533 18.7883Z" fill="white"/>
<path fill-rule="evenodd" clip-rule="evenodd" d="M235.872 37.1967C236.496 37.6757 236.614 38.5707 236.135 39.1947C235.656 39.8197 234.76 39.9377 234.136 39.4587C233.512 38.9797 233.394 38.0837 233.873 37.4597C234.352 36.8357 235.248 36.7177 235.872 37.1967Z" fill="white"/>
<path fill-rule="evenodd" clip-rule="evenodd" d="M64.6478 37.1967C64.0228 37.6757 63.9058 38.5707 64.3838 39.1947C64.8628 39.8197 65.7588 39.9377 66.3828 39.4587C67.0068 38.9797 67.1248 38.0837 66.6458 37.4597C66.1668 36.8357 65.2718 36.7177 64.6478 37.1967Z" fill="white"/>
<path fill-rule="evenodd" clip-rule="evenodd" d="M261.908 63.2332C262.387 63.8572 262.269 64.7522 261.645 65.2312C261.021 65.7102 260.125 65.5922 259.646 64.9682C259.167 64.3442 259.285 63.4492 259.909 62.9702C260.533 62.4912 261.429 62.6092 261.908 63.2332Z" fill="white"/>
<path fill-rule="evenodd" clip-rule="evenodd" d="M38.6108 63.2332C38.1318 63.8572 38.2498 64.7522 38.8738 65.2312C39.4978 65.7102 40.3938 65.5922 40.8718 64.9682C41.3508 64.3442 41.2338 63.4492 40.6088 62.9702C39.9848 62.4912 39.0898 62.6092 38.6108 63.2332Z" fill="white"/>
<path fill-rule="evenodd" clip-rule="evenodd" d="M186.518 12.8576C187.278 13.0616 187.729 13.8436 187.526 14.6036C187.322 15.3636 186.54 15.8156 185.78 15.6116C185.02 15.4076 184.568 14.6256 184.772 13.8656C184.976 13.1056 185.758 12.6536 186.518 12.8576Z" fill="white"/>
<path fill-rule="evenodd" clip-rule="evenodd" d="M114.002 12.8576C113.242 13.0616 112.79 13.8436 112.994 14.6036C113.197 15.3636 113.98 15.8156 114.74 15.6116C115.499 15.4076 115.951 14.6256 115.748 13.8656C115.544 13.1056 114.762 12.6536 114.002 12.8576Z" fill="white"/>
<path fill-rule="evenodd" clip-rule="evenodd" d="M221.372 25.4977C222.853 26.3527 223.362 28.2496 222.506 29.7306C221.651 31.2126 219.754 31.7206 218.273 30.8656C216.791 30.0096 216.283 28.1126 217.138 26.6316C217.994 25.1506 219.891 24.6417 221.372 25.4977Z" fill="white"/>
<path fill-rule="evenodd" clip-rule="evenodd" d="M79.1507 25.4977C77.6697 26.3527 77.1617 28.2496 78.0167 29.7306C78.8717 31.2126 80.7687 31.7206 82.2507 30.8656C83.7317 30.0096 84.2397 28.1126 83.3847 26.6316C82.5297 25.1506 80.6327 24.6417 79.1507 25.4977Z" fill="white"/>
<path fill-rule="evenodd" clip-rule="evenodd" d="M249.742 49.3623C250.298 49.9183 250.298 50.8223 249.742 51.3783C249.185 51.9343 248.282 51.9343 247.726 51.3783C247.169 50.8223 247.169 49.9183 247.726 49.3623C248.282 48.8063 249.185 48.8063 249.742 49.3623Z" fill="white"/>
<path fill-rule="evenodd" clip-rule="evenodd" d="M50.7764 49.3623C50.2204 49.9183 50.2204 50.8223 50.7764 51.3783C51.3324 51.9343 52.2364 51.9343 52.7924 51.3783C53.3484 50.8223 53.3484 49.9183 52.7924 49.3623C52.2364 48.8063 51.3324 48.8063 50.7764 49.3623Z" fill="white"/>
<path fill-rule="evenodd" clip-rule="evenodd" d="M273.607 77.7376C274.462 79.2186 273.954 81.1156 272.473 81.9706C270.991 82.8266 269.094 82.3176 268.239 80.8366C267.384 79.3556 267.892 77.4576 269.373 76.6026C270.855 75.7476 272.752 76.2556 273.607 77.7376Z" fill="white"/>
<path fill-rule="evenodd" clip-rule="evenodd" d="M26.9112 77.7376C26.0562 79.2186 26.5642 81.1156 28.0462 81.9706C29.5272 82.8266 31.4242 82.3176 32.2802 80.8366C33.1352 79.3556 32.6272 77.4576 31.1452 76.6026C29.6642 75.7476 27.7672 76.2556 26.9112 77.7376Z" fill="white"/>
<path fill-rule="evenodd" clip-rule="evenodd" d="M280.317 95.1189C280.618 95.8459 280.273 96.6799 279.546 96.9809C278.819 97.2819 277.984 96.9369 277.683 96.2099C277.382 95.4829 277.728 94.6489 278.455 94.3469C279.182 94.0459 280.016 94.3919 280.317 95.1189Z" fill="white"/>
<path fill-rule="evenodd" clip-rule="evenodd" d="M20.2024 95.1189C19.9014 95.8459 20.2474 96.6799 20.9744 96.9809C21.7014 97.2819 22.5354 96.9369 22.8364 96.2099C23.1374 95.4829 22.7924 94.6489 22.0654 94.3469C21.3384 94.0459 20.5034 94.3919 20.2024 95.1189Z" fill="white"/>
<path fill-rule="evenodd" clip-rule="evenodd" d="M286.248 112.588C286.451 113.348 285.999 114.13 285.24 114.334C284.48 114.537 283.697 114.086 283.494 113.326C283.29 112.566 283.742 111.783 284.502 111.58C285.262 111.376 286.044 111.828 286.248 112.588Z" fill="white"/>
<path fill-rule="evenodd" clip-rule="evenodd" d="M14.2716 112.588C14.0676 113.348 14.5196 114.13 15.2796 114.334C16.0396 114.537 16.8216 114.086 17.0256 113.326C17.2286 112.566 16.7776 111.783 16.0176 111.58C15.2576 111.376 14.4756 111.828 14.2716 112.588Z" fill="white"/>
<path fill-rule="evenodd" clip-rule="evenodd" d="M289.847 130.685C289.949 131.465 289.4 132.182 288.62 132.285C287.84 132.387 287.123 131.837 287.02 131.057C286.917 130.277 287.467 129.561 288.247 129.458C289.027 129.355 289.744 129.905 289.847 130.685Z" fill="white"/>
<path fill-rule="evenodd" clip-rule="evenodd" d="M10.6726 130.685C10.5696 131.465 11.1196 132.182 11.8996 132.285C12.6796 132.387 13.3966 131.837 13.4986 131.057C13.6016 130.277 13.0516 129.561 12.2716 129.458C11.4916 129.355 10.7746 129.905 10.6726 130.685Z" fill="white"/>
<path fill-rule="evenodd" clip-rule="evenodd" d="M292.725 149.092C292.725 150.802 291.336 152.191 289.626 152.191C287.915 152.191 286.527 150.802 286.527 149.092C286.527 147.381 287.915 145.992 289.626 145.992C291.336 145.992 292.725 147.381 292.725 149.092Z" fill="white"/>
<path fill-rule="evenodd" clip-rule="evenodd" d="M7.79297 149.092C7.79297 150.802 9.18197 152.191 10.893 152.191C12.603 152.191 13.992 150.802 13.992 149.092C13.992 147.381 12.603 145.992 10.893 145.992C9.18197 145.992 7.79297 147.381 7.79297 149.092Z" fill="white"/>
<defs>
<linearGradient id="paint0_linear_1114_461" x1="150.203" y1="9.96294" x2="150.203" y2="120.322" gradientUnits="userSpaceOnUse">
<stop stop-color="#030E20"/>
<stop offset="1" stop-color="#012F60"/>
</linearGradient>
</defs>
</svg>
