<svg width="296" height="152" viewBox="0 0 296 152" fill="none" xmlns="http://www.w3.org/2000/svg">
<path fill-rule="evenodd" clip-rule="evenodd" d="M296 150C296 67.157 228.843 0 146 0C63.158 0 -4 67.157 -4 150H296Z" fill="url(#paint0_linear_621_68)"/>
<path fill-rule="evenodd" clip-rule="evenodd" d="M-0.609094 118.138C1.18591 118.176 2.81091 118.151 4.21091 118.013C10.9789 117.372 28.2789 120.041 30.5349 121.135C32.7909 122.255 40.3019 125.138 44.4299 125.377C48.5799 125.592 59.8589 126.045 65.8589 127.806C71.8809 129.595 81.2869 131.142 84.8509 131.596C87.1519 131.889 94.5719 134.131 101.024 135.439C93.9189 135.946 86.0459 135.946 81.7609 135.946H38.3169C32.2409 135.946 11.1049 140.708 -3.87109 143.729C-3.51109 134.985 -2.40309 126.434 -0.609094 118.138Z" fill="#0D4FA0"/>
<path fill-rule="evenodd" clip-rule="evenodd" d="M-3.87 143.726C11.107 140.705 32.24 135.943 38.315 135.943H81.759C86.045 135.943 93.917 135.943 101.023 135.436C104.676 135.197 108.127 134.822 110.789 134.262C118.684 132.581 139.548 130.927 146 129.592C152.451 128.257 178.459 127.244 186.917 127.244C195.376 127.244 205.819 123.934 209.474 122.921C213.128 121.906 231.759 121.266 240.489 123.241C249.218 125.269 255.984 122.253 261.354 121.586C266.722 120.919 275.744 120.919 279.963 120.012C282.802 119.401 288.205 120.785 293.326 121.65C295.082 130.83 296.001 140.307 296.001 150H126.295C86.331 148.587 43.264 146.571 -3.875 143.841C-3.873 143.802 -3.871 143.764 -3.87 143.726Z" fill="#2367BD"/>
<path fill-rule="evenodd" clip-rule="evenodd" d="M-3.722 140.8H295.723C295.907 143.843 296 146.911 296 150H-4C-4 146.911 -3.906 143.843 -3.722 140.8Z" fill="#012F6B"/>
<path fill-rule="evenodd" clip-rule="evenodd" d="M-3.88862 144.186C11.3424 143.092 32.8534 141.366 39.0354 141.366L80.3444 144.324C84.7024 144.324 96.0404 144.507 103.265 144.324C106.981 144.237 110.027 146.218 112.733 146.015C120.761 145.406 141.979 144.807 148.54 144.324C155.1 143.841 181.547 143.473 190.149 143.473C198.75 143.473 209.37 142.275 213.086 141.908C216.802 141.541 235.748 141.309 244.625 142.024C253.502 142.758 260.383 141.667 265.843 141.425C271.302 141.183 280.477 141.183 284.766 140.855C286.742 140.704 291.128 140.891 295.742 141.124C295.913 144.061 296 147.02 296 150H120.291C81.9024 148.487 40.7634 146.507 -3.89062 144.238C-3.88962 144.221 -3.88962 144.203 -3.88862 144.186Z" fill="#021536"/>
<path d="M108.895 45.7279C108.844 42.7239 108.718 64.7949 108.516 111.942C108.516 113.444 108.111 114.282 107.302 114.455C104.876 114.917 102.323 114.917 99.6426 114.455C98.7326 114.282 98.1516 113.675 97.8986 112.635C96.2306 103.968 94.2836 94.1459 92.0596 83.1679C91.8576 82.3019 91.5536 81.8679 91.1496 81.8679C90.8466 81.8679 90.6946 82.4749 90.6946 83.6879V95.9949C90.6436 102.928 90.6186 108.33 90.6186 112.202C90.6186 113.357 89.9866 114.079 88.7226 114.368C87.8636 114.599 86.7256 114.686 85.3106 114.628C83.4906 114.57 82.4536 114.542 82.2016 114.542C81.1906 114.599 80.6596 113.935 80.6086 112.548C80.4066 104.459 80.3556 92.2679 80.4566 75.9749C80.5586 60.2019 80.7356 50.1769 80.9876 45.9019C81.0886 44.5149 81.4176 43.7929 81.9736 43.7349C83.1866 43.6769 84.8306 43.6769 86.9026 43.7349C89.4306 43.8499 90.7956 43.9079 90.9976 43.9079C91.7056 43.9079 92.1606 44.5149 92.3626 45.7279C94.8906 59.7099 96.6596 68.7239 97.6716 72.7679C98.0756 74.3279 98.4046 75.1079 98.6566 75.1079C99.0106 75.1079 99.1376 74.2129 99.0366 72.4219C98.8336 67.7419 98.7326 58.8439 98.7326 45.7279C98.7326 44.3989 99.2386 43.7639 100.25 43.8219H107.302C108.364 43.8789 108.895 44.5149 108.895 45.7279Z" fill="#F59E0B"/>
<path d="M122.088 111.942C122.088 113.328 121.683 114.137 120.874 114.368C119.661 114.773 117.007 114.773 112.912 114.368C111.901 114.253 111.395 113.328 111.395 111.595C111.496 92.0658 111.522 70.3418 111.471 46.4218C111.471 45.8438 111.522 45.3238 111.623 44.8618C111.774 44.1678 112.052 43.8218 112.457 43.8218C114.631 43.8218 117.386 43.8788 120.723 43.9948C121.582 44.1098 122.037 44.9188 122.088 46.4218V111.942Z" fill="#F59E0B"/>
<path d="M153.48 111.855C153.48 113.415 153.228 114.195 152.722 114.195H150.599C150.144 114.195 149.815 113.819 149.613 113.068C149.411 112.317 149.082 111.306 148.627 110.035C147.768 112.924 144.937 114.368 140.134 114.368C134.927 114.368 131.261 112.866 129.138 109.862C127.268 107.204 126.358 102.813 126.408 96.6882L126.56 61.3282C126.61 54.1642 127.647 49.3102 129.669 46.7682C131.489 44.5152 134.75 43.3882 139.451 43.3882C145.063 43.3882 148.88 45.0062 150.902 48.2422C152.419 50.5532 153.202 54.4532 153.253 59.9422C153.405 65.0842 153.455 68.8682 153.405 71.2952C153.405 72.2772 153.076 72.7682 152.419 72.7682C150.649 72.8262 147.894 72.7972 144.153 72.6822C143.546 72.6822 143.218 72.2482 143.167 71.3822C143.066 67.9732 142.965 64.5932 142.864 61.2422C142.51 56.6192 141.575 54.3082 140.058 54.3082C138.188 54.3082 137.252 56.5902 137.252 61.1552V97.6422C137.252 98.5662 137.505 99.6642 138.011 100.935C138.617 102.495 139.325 103.275 140.134 103.275C142.156 103.275 143.167 100.155 143.167 93.9152V89.4952C143.167 88.7442 142.965 88.3972 142.561 88.4552H140.741C140.286 88.4552 140.058 88.1952 140.058 87.6752V79.2682C140.058 78.4022 140.437 77.9682 141.196 77.9682C143.875 77.9682 147.591 77.9972 152.343 78.0552C153.101 78.0552 153.48 78.5462 153.48 79.5282V111.855Z" fill="#F59E0B"/>
<path d="M181.994 45.3819C182.095 51.4479 182.069 63.4369 181.918 81.3479C181.766 100.415 181.69 110.757 181.69 112.375C181.69 113.242 181.223 113.776 180.287 113.978C179.352 114.18 178.151 114.253 176.685 114.195C175.068 114.137 174.056 114.137 173.652 114.195C172.995 114.253 172.666 113.53 172.666 112.028L172.742 85.2479C172.691 84.4969 172.363 84.0639 171.756 83.9479C171.251 83.8329 169.886 83.8329 167.661 83.9479C167.257 83.9479 167.029 84.3819 166.979 85.2479C167.029 92.3549 166.953 101.339 166.751 112.202C166.701 113.242 166.018 113.848 164.704 114.022C162.58 114.368 160.457 114.426 158.334 114.195C157.575 114.137 157.171 113.473 157.12 112.202C156.615 97.6989 156.564 75.4259 156.969 45.3819C156.969 44.3989 157.222 43.9079 157.727 43.9079H165.993C166.751 43.9659 167.13 44.4569 167.13 45.3819C167.13 45.3239 167.08 48.9059 166.979 56.1279C166.878 61.6169 166.878 65.8929 166.979 68.9549C166.979 69.4749 167.004 69.8219 167.055 69.9949C167.105 70.3419 167.257 70.5439 167.51 70.6019C168.622 70.9479 170.037 70.9189 171.756 70.5149C172.312 70.3989 172.59 69.8789 172.59 68.9549V45.0349C172.59 44.2259 172.767 43.8499 173.121 43.9079C175.194 43.7929 177.899 43.7349 181.235 43.7349C181.741 43.7929 181.994 44.3419 181.994 45.3819Z" fill="#F59E0B"/>
<path d="M211.572 54.2219C211.572 55.0299 211.143 55.4349 210.283 55.4349C209.929 55.4349 209.171 55.4059 208.008 55.3479H205.278C204.217 55.3479 203.686 55.7819 203.686 56.6479L203.837 112.548C203.837 113.473 203.559 113.964 203.003 114.022C201.183 114.31 198.302 114.282 194.358 113.935C193.701 113.877 193.373 113.386 193.373 112.462L193.297 56.5619C193.297 55.7529 192.993 55.3479 192.387 55.3479H186.775C185.966 55.2899 185.562 54.8859 185.562 54.1349C185.562 54.7699 185.511 53.5859 185.41 50.5819C185.309 48.6169 185.36 47.0859 185.562 45.9879C185.764 44.4859 186.219 43.7349 186.927 43.7349C193.196 43.6769 201.006 43.6769 210.359 43.7349C211.067 43.7349 211.446 44.2549 211.497 45.2949C211.598 48.8769 211.623 51.8529 211.572 54.2219Z" fill="#F59E0B"/>
<path fill-rule="evenodd" clip-rule="evenodd" d="M226.008 150V138.332C225.48 138.252 224.488 138.026 223.516 137.287C221.985 136.125 221.57 134.504 221.465 134.023V124.331C221.703 123.323 222.54 122.581 223.516 122.49C224.635 122.386 225.72 123.16 226.008 124.331V134.023C226.126 134.311 226.388 134.511 226.686 134.539C227.036 134.573 227.379 134.365 227.523 134.023V116.791C227.682 115.455 228.873 114.53 230.068 114.669C231.09 114.788 231.949 115.666 232.066 116.791V130.791C232.125 131.348 232.631 131.68 233.028 131.58C233.328 131.504 233.569 131.181 233.58 130.791V121.099C233.973 120.106 234.951 119.474 235.987 119.531C236.931 119.583 237.769 120.198 238.122 121.099V130.791C238.117 131.221 238.046 133.03 236.621 134.539C235.458 135.772 234.067 136.089 233.58 136.177V150H226.008Z" fill="#021536"/>
<path d="M146.013 12.116C147.725 12.116 149.112 10.7285 149.112 9.01697C149.112 7.30544 147.725 5.91797 146.013 5.91797C144.302 5.91797 142.914 7.30544 142.914 9.01697C142.914 10.7285 144.302 12.116 146.013 12.116Z" fill="white"/>
<path fill-rule="evenodd" clip-rule="evenodd" d="M164.424 8.79805C165.204 8.90105 165.754 9.61704 165.652 10.397C165.549 11.177 164.832 11.727 164.052 11.624C163.272 11.522 162.722 10.8051 162.825 10.0251C162.928 9.24505 163.644 8.69505 164.424 8.79805Z" fill="white"/>
<path fill-rule="evenodd" clip-rule="evenodd" d="M128.099 8.79805C127.319 8.90105 126.769 9.61704 126.872 10.397C126.975 11.177 127.691 11.727 128.471 11.624C129.251 11.522 129.801 10.8051 129.698 10.0251C129.596 9.24505 128.879 8.69505 128.099 8.79805Z" fill="white"/>
<path fill-rule="evenodd" clip-rule="evenodd" d="M199.987 18.3269C200.714 18.6279 201.059 19.4629 200.758 20.1899C200.457 20.9169 199.623 21.2619 198.896 20.9609C198.169 20.6599 197.823 19.8259 198.124 19.0989C198.425 18.3719 199.26 18.0259 199.987 18.3269Z" fill="white"/>
<path fill-rule="evenodd" clip-rule="evenodd" d="M92.533 18.3269C91.806 18.6279 91.46 19.4629 91.761 20.1899C92.062 20.9169 92.897 21.2619 93.624 20.9609C94.351 20.6599 94.696 19.8259 94.395 19.0989C94.094 18.3719 93.26 18.0259 92.533 18.3269Z" fill="white"/>
<path fill-rule="evenodd" clip-rule="evenodd" d="M231.872 36.7368C232.496 37.2158 232.614 38.1108 232.135 38.7348C231.656 39.3598 230.76 39.4778 230.136 38.9988C229.512 38.5198 229.394 37.6238 229.873 36.9998C230.352 36.3758 231.248 36.2578 231.872 36.7368Z" fill="white"/>
<path fill-rule="evenodd" clip-rule="evenodd" d="M60.6478 36.7368C60.0228 37.2158 59.9058 38.1108 60.3838 38.7348C60.8628 39.3598 61.7588 39.4778 62.3828 38.9988C63.0068 38.5198 63.1248 37.6238 62.6458 36.9998C62.1668 36.3758 61.2718 36.2578 60.6478 36.7368Z" fill="white"/>
<path fill-rule="evenodd" clip-rule="evenodd" d="M257.908 62.7718C258.387 63.3958 258.269 64.2908 257.645 64.7698C257.021 65.2488 256.125 65.1308 255.646 64.5068C255.167 63.8828 255.285 62.9878 255.909 62.5088C256.533 62.0298 257.429 62.1478 257.908 62.7718Z" fill="white"/>
<path fill-rule="evenodd" clip-rule="evenodd" d="M34.6108 62.7718C34.1318 63.3958 34.2498 64.2908 34.8738 64.7698C35.4978 65.2488 36.3938 65.1308 36.8718 64.5068C37.3508 63.8828 37.2338 62.9878 36.6088 62.5088C35.9848 62.0298 35.0898 62.1478 34.6108 62.7718Z" fill="white"/>
<path fill-rule="evenodd" clip-rule="evenodd" d="M182.518 12.3971C183.278 12.6011 183.729 13.3831 183.526 14.1431C183.322 14.9031 182.54 15.3551 181.78 15.1511C181.02 14.9471 180.568 14.1651 180.772 13.4051C180.976 12.6451 181.758 12.1931 182.518 12.3971Z" fill="white"/>
<path fill-rule="evenodd" clip-rule="evenodd" d="M110.002 12.3971C109.242 12.6011 108.79 13.3831 108.994 14.1431C109.197 14.9031 109.98 15.3551 110.74 15.1511C111.499 14.9471 111.951 14.1651 111.748 13.4051C111.544 12.6451 110.762 12.1931 110.002 12.3971Z" fill="white"/>
<path fill-rule="evenodd" clip-rule="evenodd" d="M217.372 25.0382C218.853 25.8932 219.362 27.7902 218.506 29.2712C217.651 30.7532 215.754 31.2612 214.273 30.4062C212.791 29.5502 212.283 27.6532 213.138 26.1722C213.994 24.6912 215.891 24.1822 217.372 25.0382Z" fill="white"/>
<path fill-rule="evenodd" clip-rule="evenodd" d="M75.1507 25.0382C73.6697 25.8932 73.1617 27.7902 74.0167 29.2712C74.8717 30.7532 76.7687 31.2612 78.2507 30.4062C79.7317 29.5502 80.2397 27.6532 79.3847 26.1722C78.5297 24.6912 76.6327 24.1822 75.1507 25.0382Z" fill="white"/>
<path fill-rule="evenodd" clip-rule="evenodd" d="M245.742 48.9009C246.298 49.4569 246.298 50.3609 245.742 50.9169C245.185 51.4729 244.282 51.4729 243.726 50.9169C243.169 50.3609 243.169 49.4569 243.726 48.9009C244.282 48.3449 245.185 48.3449 245.742 48.9009Z" fill="white"/>
<path fill-rule="evenodd" clip-rule="evenodd" d="M46.7764 48.9009C46.2204 49.4569 46.2204 50.3609 46.7764 50.9169C47.3324 51.4729 48.2364 51.4729 48.7924 50.9169C49.3484 50.3609 49.3484 49.4569 48.7924 48.9009C48.2364 48.3449 47.3324 48.3449 46.7764 48.9009Z" fill="white"/>
<path fill-rule="evenodd" clip-rule="evenodd" d="M269.607 77.2752C270.462 78.7562 269.954 80.6532 268.473 81.5082C266.991 82.3642 265.094 81.8552 264.239 80.3742C263.384 78.8932 263.892 76.9952 265.373 76.1402C266.855 75.2852 268.752 75.7932 269.607 77.2752Z" fill="white"/>
<path fill-rule="evenodd" clip-rule="evenodd" d="M22.9112 77.2752C22.0562 78.7562 22.5642 80.6532 24.0462 81.5082C25.5272 82.3642 27.4242 81.8552 28.2802 80.3742C29.1352 78.8932 28.6272 76.9952 27.1452 76.1402C25.6642 75.2852 23.7672 75.7932 22.9112 77.2752Z" fill="white"/>
<path fill-rule="evenodd" clip-rule="evenodd" d="M276.317 94.658C276.618 95.385 276.273 96.219 275.546 96.52C274.819 96.821 273.984 96.476 273.683 95.749C273.382 95.022 273.728 94.188 274.455 93.886C275.182 93.585 276.016 93.931 276.317 94.658Z" fill="white"/>
<path fill-rule="evenodd" clip-rule="evenodd" d="M16.2024 94.658C15.9014 95.385 16.2474 96.219 16.9744 96.52C17.7014 96.821 18.5354 96.476 18.8364 95.749C19.1374 95.022 18.7924 94.188 18.0654 93.886C17.3384 93.585 16.5034 93.931 16.2024 94.658Z" fill="white"/>
<path fill-rule="evenodd" clip-rule="evenodd" d="M282.248 112.128C282.451 112.888 281.999 113.67 281.24 113.874C280.48 114.077 279.697 113.626 279.494 112.866C279.29 112.106 279.742 111.323 280.502 111.12C281.262 110.916 282.044 111.368 282.248 112.128Z" fill="white"/>
<path fill-rule="evenodd" clip-rule="evenodd" d="M10.2716 112.128C10.0676 112.888 10.5196 113.67 11.2796 113.874C12.0396 114.077 12.8216 113.626 13.0256 112.866C13.2286 112.106 12.7776 111.323 12.0176 111.12C11.2576 110.916 10.4756 111.368 10.2716 112.128Z" fill="white"/>
<path fill-rule="evenodd" clip-rule="evenodd" d="M285.847 130.222C285.949 131.002 285.4 131.719 284.62 131.822C283.84 131.924 283.123 131.374 283.02 130.594C282.917 129.814 283.467 129.098 284.247 128.995C285.027 128.892 285.744 129.442 285.847 130.222Z" fill="white"/>
<path fill-rule="evenodd" clip-rule="evenodd" d="M6.67256 130.222C6.56956 131.002 7.11956 131.719 7.89956 131.822C8.67956 131.924 9.39656 131.374 9.49856 130.594C9.60156 129.814 9.05156 129.098 8.27156 128.995C7.49156 128.892 6.77456 129.442 6.67256 130.222Z" fill="white"/>
<path fill-rule="evenodd" clip-rule="evenodd" d="M288.725 148.632C288.725 150.342 287.336 151.731 285.626 151.731C283.915 151.731 282.527 150.342 282.527 148.632C282.527 146.921 283.915 145.532 285.626 145.532C287.336 145.532 288.725 146.921 288.725 148.632Z" fill="white"/>
<path fill-rule="evenodd" clip-rule="evenodd" d="M3.79297 148.632C3.79297 150.342 5.18197 151.731 6.89297 151.731C8.60297 151.731 9.99197 150.342 9.99197 148.632C9.99197 146.921 8.60297 145.532 6.89297 145.532C5.18197 145.532 3.79297 146.921 3.79297 148.632Z" fill="white"/>
<defs>
<linearGradient id="paint0_linear_621_68" x1="146.203" y1="9.502" x2="146.203" y2="119.861" gradientUnits="userSpaceOnUse">
<stop stop-color="#030E20"/>
<stop offset="1" stop-color="#012F60"/>
</linearGradient>
</defs>
</svg>
