<svg width="300" height="153" viewBox="0 0 300 153" fill="none" xmlns="http://www.w3.org/2000/svg">
<path fill-rule="evenodd" clip-rule="evenodd" d="M300 150.301C300 67.4578 232.842 0.300781 150 0.300781C67.157 0.300781 0 67.4578 0 150.301H300Z" fill="url(#paint0_linear_1114_350)"/>
<path fill-rule="evenodd" clip-rule="evenodd" d="M277.874 71.8516C282.755 79.7886 286.916 88.2156 290.269 97.0416C276.833 99.8986 264.765 108.603 258.115 121.816C257.093 123.847 256.22 125.95 255.503 128.108L229.367 119.424C230.505 115.998 231.892 112.659 233.515 109.434C242.955 90.6766 259.275 77.6426 277.874 71.8516Z" fill="url(#paint1_linear_1114_350)"/>
<path fill-rule="evenodd" clip-rule="evenodd" d="M277.874 71.8516C281.98 78.5296 285.577 85.5536 288.612 92.8696C274.203 96.1556 261.313 105.604 254.157 119.823C253.038 122.047 252.082 124.348 251.297 126.71L229.367 119.424C230.505 115.998 231.892 112.659 233.515 109.434C242.955 90.6766 259.275 77.6426 277.874 71.8516Z" fill="url(#paint2_linear_1114_350)"/>
<path fill-rule="evenodd" clip-rule="evenodd" d="M277.874 71.8516C281.188 77.2406 284.171 82.8566 286.793 88.6686C271.451 92.4106 257.78 102.599 250.131 117.797C248.914 120.216 247.874 122.72 247.02 125.289L229.367 119.424C230.505 115.998 231.892 112.659 233.515 109.434C242.955 90.6766 259.275 77.6426 277.874 71.8516Z" fill="url(#paint3_linear_1114_350)"/>
<path fill-rule="evenodd" clip-rule="evenodd" d="M284.913 84.6616C268.723 88.8596 254.352 99.7436 246.249 115.843C244.937 118.45 243.816 121.149 242.896 123.919L229.367 119.424C230.505 115.998 231.892 112.659 233.515 109.434C242.955 90.6766 259.275 77.6426 277.874 71.8516C280.42 75.9926 282.771 80.2666 284.913 84.6616Z" fill="url(#paint4_linear_1114_350)"/>
<path fill-rule="evenodd" clip-rule="evenodd" d="M277.874 71.8516C279.57 74.6086 281.178 77.4256 282.696 80.2966C265.633 85.0156 250.548 96.6456 241.97 113.69C240.553 116.504 239.343 119.418 238.35 122.408L229.367 119.424C230.505 115.998 231.892 112.659 233.515 109.434C242.955 90.6766 259.275 77.6426 277.874 71.8516Z" fill="url(#paint5_linear_1114_350)"/>
<path fill-rule="evenodd" clip-rule="evenodd" d="M277.874 71.8516C278.681 73.1626 279.467 74.4876 280.234 75.8256C262.332 81.1016 246.568 93.4816 237.524 111.452C235.999 114.483 234.697 117.62 233.627 120.839L229.367 119.424C230.505 115.998 231.892 112.659 233.515 109.434C242.955 90.6766 259.275 77.6426 277.874 71.8516Z" fill="url(#paint6_linear_1114_350)"/>
<path d="M90.1308 59.6133C90.0648 59.7143 90.0347 59.7683 89.9967 59.8173C89.9557 59.8713 89.9078 59.9193 89.8278 60.0103C89.9368 59.9923 90.0017 59.9823 90.0667 59.9713C90.0827 59.9933 90.0977 60.0153 90.1127 60.0373C89.8427 60.2133 89.5728 60.3893 89.3027 60.5663C89.3087 60.5823 89.3137 60.5993 89.3197 60.6163C89.4837 60.5523 89.6478 60.4883 89.8128 60.4243C89.8268 60.4563 89.8418 60.4873 89.8568 60.5193C89.5528 60.6673 89.2487 60.8153 88.9447 60.9633C88.7107 61.0763 88.4318 61.1653 88.6488 61.5203C88.6658 61.5493 88.6698 61.6153 88.6497 61.6333C88.4397 61.8363 88.2318 62.0433 88.0058 62.2283C87.8588 62.3483 87.6928 62.4543 87.5188 62.5333C87.0698 62.7363 86.6207 62.9453 86.1547 63.1003C85.9187 63.1793 85.6458 63.1483 85.3918 63.1663C85.3988 63.5313 85.3988 63.5313 86.7298 63.8503C86.8048 64.7573 86.0508 65.0533 85.4788 65.4073C85.1158 65.6323 84.6348 65.4263 84.2668 65.2003C83.9268 64.9913 83.6278 64.7133 83.2668 64.4313C83.4718 64.2883 83.6198 64.1803 83.7738 64.0813C84.0168 63.9243 84.1288 63.6953 83.9488 63.4643C83.7538 63.2133 83.5427 63.4053 83.3597 63.5463C83.3377 63.5633 83.3118 63.5723 83.3148 63.5713C82.9408 63.4943 82.5867 63.4313 82.2387 63.3443C82.1147 63.3133 81.9478 63.2563 81.8968 63.1603C81.7218 62.8293 81.4497 62.7483 81.1117 62.7653C81.0037 62.7703 80.8328 62.6273 80.5468 62.3563C80.4958 62.3083 80.3908 62.3203 80.3128 62.2963C80.2368 62.2743 80.1627 62.2413 80.0938 62.1643C80.4988 62.1863 80.9048 62.2273 81.3098 62.2253C81.7318 62.2243 82.1558 62.1443 82.5748 62.1683C82.9918 62.1913 83.4037 62.2993 83.8997 62.3843C83.8997 62.1813 83.8808 61.9743 83.9068 61.7733C83.9228 61.6433 83.9987 61.4203 84.0577 61.4173C84.2117 61.4083 84.4708 61.4573 84.5098 61.5553C84.7438 62.1363 85.1267 62.0173 85.5287 61.8123C85.9867 61.5793 86.4317 61.3223 86.8867 61.0833C87.0547 60.9953 87.2268 60.8883 87.4088 60.8573C88.3738 60.6903 89.1817 60.1963 89.9737 59.6633C90.0007 59.6443 90.0388 59.6413 90.1308 59.6133Z" fill="white"/>
<path d="M132.827 79.8277C132.676 79.8697 132.559 79.9337 132.445 79.9277C132.256 79.9167 132.069 79.8627 131.881 79.8267C131.846 79.8197 131.812 79.8117 131.778 79.8037C131.455 79.7327 131.33 79.7867 131.231 80.0897C131.193 80.2047 131.154 80.2997 131.061 80.3747C131.035 80.3957 131.025 80.4337 130.999 80.4777C131.226 80.6327 131.484 80.5077 131.714 80.5717C131.693 80.7187 131.436 80.8527 131.296 80.8127C131.165 80.7757 131.015 80.7367 130.89 80.7667C130.673 80.8167 130.475 80.8167 130.276 80.7227C130.249 80.7097 130.218 80.7077 130.181 80.6997C130.159 80.7347 130.138 80.7697 130.113 80.8107C130.08 80.7147 130.051 80.6277 130.023 80.5437C129.874 80.5277 129.765 80.5637 129.669 80.6767C129.561 80.8027 129.427 80.9057 129.306 81.0197C129.271 81.0537 129.226 81.0857 129.208 81.1287C129.12 81.3397 128.908 81.3637 128.707 81.4867C128.729 81.3707 128.73 81.2887 128.759 81.2197C128.821 81.0717 128.894 80.9297 128.967 80.7867C129.156 80.4217 129.495 80.3787 129.853 80.3717C130.016 80.3687 130.178 80.3527 130.341 80.3407C130.501 80.3287 130.604 80.2387 130.643 80.0907C130.681 79.9457 130.705 79.7967 130.723 79.6487C130.736 79.5437 130.762 79.4647 130.884 79.4497C131.529 79.3697 132.14 79.4957 132.731 79.7487C132.752 79.7577 132.767 79.7777 132.827 79.8277Z" fill="white"/>
<path d="M77.0211 80.6605C76.7441 80.7975 76.4421 80.9275 76.0931 80.9445C75.7651 80.9605 75.4311 80.9785 75.1141 81.0535C74.7221 81.1465 74.3431 81.2965 73.9611 81.4285C73.8241 81.4755 73.7641 81.5685 73.8681 81.7015C73.9511 81.8085 74.0391 81.9105 74.1331 82.0075C74.2181 82.0965 74.2371 82.1735 74.1081 82.2275C73.9801 82.2815 73.8491 82.3555 73.7161 82.3625C73.3991 82.3785 73.3901 82.3535 73.3751 82.0365C73.3701 81.9365 73.3431 81.8385 73.3211 81.7085C72.8261 81.8495 72.3631 81.9945 71.8931 82.1115C71.5211 82.2045 71.2331 82.4245 70.9271 82.6355C70.6021 82.8605 70.2081 82.8965 69.8281 82.9115C70.2231 82.6405 70.6141 82.3775 70.9991 82.1065C71.1091 82.0285 71.2091 81.9335 71.3001 81.8345C71.5741 81.5325 71.9031 81.3505 72.3161 81.3175C72.4641 81.3055 72.6121 81.2575 72.7551 81.2095C72.9251 81.1515 73.0291 81.0385 73.0431 80.8405C73.0481 80.7645 73.1161 80.6625 73.1831 80.6325C73.2291 80.6115 73.3211 80.6955 73.3941 80.7305C73.4811 80.7725 73.5731 80.8505 73.6571 80.8435C73.8041 80.8325 73.9661 80.7995 74.0871 80.7215C74.5121 80.4465 74.9601 80.4345 75.4421 80.5055C75.9671 80.5835 76.4991 80.6115 77.0211 80.6605Z" fill="white"/>
<path d="M117.066 77.4231C116.975 77.1731 116.826 77.0971 116.593 77.1081C116.147 77.1291 115.719 77.0691 115.306 76.8581C115.064 76.7341 114.764 76.7271 114.508 76.6241C114.246 76.5181 113.995 76.3751 113.76 76.2181C113.585 76.1011 113.443 75.9351 113.238 75.7461C113.347 75.7761 113.417 75.7771 113.461 75.8111C113.995 76.2171 114.63 76.2761 115.263 76.3441C115.699 76.3901 116.134 76.4471 116.563 76.4991C116.52 76.4281 116.458 76.3261 116.395 76.2231C116.631 76.1211 116.827 76.1591 117.057 76.3131C117.186 76.4001 117.456 76.3821 117.614 76.3071C118.49 75.8961 119.435 75.9151 120.362 75.8151C120.375 75.8141 120.39 75.8291 120.47 75.8731C119.537 76.3811 118.645 76.8721 117.638 77.1141C117.627 77.1411 117.616 77.1671 117.605 77.1931C117.888 77.3381 118.171 77.4831 118.489 77.6471C118.406 77.8161 118.356 78.0121 118.235 78.1411C118.035 78.3511 117.78 78.5141 117.469 78.3571C117.226 78.2331 116.987 78.0951 116.765 77.9361C116.599 77.8171 116.636 77.6541 116.822 77.5561C116.902 77.5141 116.98 77.4701 117.066 77.4231Z" fill="white"/>
<path d="M119.751 84.4205C119.977 84.2825 120.145 84.1795 120.315 84.0765C120.618 84.4275 120.511 85.1065 119.869 85.2535C119.8 85.1195 119.727 84.9805 119.629 84.7915C119.468 85.1455 119.256 85.4125 119.228 85.7525C119.218 85.8745 119.285 86.0015 119.302 86.1275C119.321 86.2715 119.324 86.4175 119.334 86.5625C119.315 86.5765 119.295 86.5895 119.275 86.6025C119.228 86.5365 119.172 86.4745 119.135 86.4035C118.973 86.0935 118.807 85.7845 118.662 85.4665C118.577 85.2795 118.624 85.1145 118.8 84.9765C118.899 84.8975 118.959 84.7695 119.071 84.6175C118.925 84.6035 118.848 84.5965 118.771 84.5885C118.746 84.3335 118.782 84.2955 119.145 84.2465C119.12 84.0755 119.122 83.8955 119.066 83.7355C118.973 83.4665 118.962 83.3395 119.185 83.1675C119.53 82.9005 119.901 82.6665 120.296 82.3945C120.328 82.5055 120.367 82.5645 120.351 82.5975C120.266 82.7725 120.183 82.9505 120.071 83.1085C119.924 83.3155 119.714 83.4815 119.747 83.7815C119.768 83.9725 119.751 84.1675 119.751 84.4205Z" fill="white"/>
<path d="M126.453 83.9671C126.795 83.9041 127.135 83.8151 127.48 83.7911C127.638 83.7801 127.806 83.8961 127.97 83.9551C128.048 83.9831 128.125 84.0121 128.213 84.0151C128.19 84.0021 128.167 83.9891 128.135 83.9711C128.209 83.8601 128.297 83.8221 128.411 83.9051C128.491 83.9631 128.557 83.9531 128.622 83.8831C128.659 83.8421 128.708 83.8101 128.738 83.7651C129.033 83.3161 129.544 83.1991 129.975 82.9591C129.987 82.9521 130.003 82.9561 130.036 82.9531C130.016 83.0981 129.905 83.1621 129.816 83.2381C129.611 83.4131 129.396 83.5791 129.195 83.7591C129.055 83.8841 128.928 84.0241 128.8 84.1631C128.759 84.2071 128.737 84.2691 128.705 84.3221C128.759 84.3531 128.81 84.3921 128.867 84.4121C128.926 84.4331 128.992 84.4361 129.058 84.4471C128.889 84.8531 128.425 85.0411 128.144 84.8521C128.206 84.7571 128.269 84.6621 128.33 84.5651C128.38 84.4861 128.351 84.4261 128.27 84.4011C128.091 84.3451 127.912 84.2841 127.728 84.2491C127.305 84.1671 126.879 84.1011 126.455 84.0281C126.454 84.0071 126.453 83.9871 126.453 83.9671Z" fill="white"/>
<path d="M101.411 72.8853C101.14 72.5883 100.96 72.3453 100.735 72.1553C100.397 71.8713 100.206 71.9353 100.034 72.3423C99.8502 72.7783 99.4602 72.9473 99.1262 72.6333C98.3762 71.9273 97.4682 71.9283 96.5392 71.8663C96.0202 71.8323 95.5112 71.6403 94.9992 71.5083C94.9342 71.4923 94.8852 71.4143 94.7852 71.3273C96.1512 71.3843 97.4352 72.0403 98.7572 71.5323C98.8042 71.4663 98.8522 71.3993 98.9002 71.3333C98.7182 71.2003 98.5372 71.0683 98.3402 70.9243C98.4402 70.6353 98.6352 70.4953 99.0342 70.6053C99.1772 70.6453 99.3912 70.4303 99.5722 70.3313C99.4782 70.1993 99.4132 70.0043 99.2852 69.9453C98.8752 69.7563 98.7912 69.4383 98.8192 69.0383C98.8572 68.5143 98.8832 67.9893 98.9132 67.4883C99.0952 67.6413 99.3482 67.7723 99.4722 67.9803C99.6002 68.1973 99.6532 68.4883 99.6502 68.7463C99.6452 69.2103 99.9442 69.5013 100.255 69.6823C100.841 70.0213 100.968 70.4563 100.775 71.0533C100.764 71.0883 100.778 71.1313 100.785 71.2483C101.105 71.0643 101.387 70.9013 101.651 70.7493C102.12 71.1673 101.956 71.6843 101.868 72.1523C101.82 72.4063 101.581 72.6243 101.411 72.8853Z" fill="white"/>
<path d="M80.0505 72.8126C79.7285 73.3536 79.2065 73.2906 78.9535 73.2146C77.9905 72.9296 77.4175 73.5146 76.6565 74.0206C77.0625 74.2066 77.3845 74.3546 77.7055 74.5026C77.4415 75.3736 76.3725 75.7286 75.5975 75.0126C75.7175 74.7876 75.8415 74.5556 75.9585 74.3366C74.7395 74.0726 74.0325 74.9046 73.1965 75.5966C73.1875 75.4496 73.1555 75.3646 73.1825 75.3116C73.5065 74.6866 73.8245 74.0566 74.1775 73.4486C74.3285 73.1866 74.6025 73.1526 74.9005 73.2226C75.1245 73.2736 75.3615 73.2696 75.7135 73.3016C75.5815 73.0576 75.5165 72.9366 75.4495 72.8106C75.7955 72.5256 75.8595 72.5336 76.3105 73.0056C76.5285 72.8056 76.8165 72.6406 76.9575 72.3926C77.1855 71.9906 77.5065 71.8876 77.8815 72.0086C78.5995 72.2416 79.2995 72.5306 80.0505 72.8126Z" fill="white"/>
<path d="M81.2773 80.3421C82.6623 80.3131 83.7053 80.8151 84.2073 82.1631C84.5723 81.6811 84.6993 81.6771 85.0263 82.1211C85.5443 81.5011 85.6413 80.5721 86.4743 80.2041C87.2143 79.8771 87.9673 79.6241 88.7773 79.5781C88.7973 79.6171 88.8183 79.6561 88.8383 79.6951C88.2863 80.0221 87.7503 80.3781 87.1803 80.6691C86.1793 81.1801 85.7483 82.0811 85.4383 83.0771C85.3693 83.3021 85.4953 83.4141 85.7033 83.4331C85.9583 83.4571 86.2143 83.4611 86.5353 83.4761C86.2703 84.0101 85.9143 84.4311 85.3843 84.5691C84.6353 84.7651 84.1123 84.2461 83.4963 83.7971C83.8263 83.7161 84.0823 83.6531 84.3413 83.5901C84.2203 82.2381 83.4053 81.4911 82.2333 81.0041C81.8833 80.8581 81.5943 80.5671 81.2773 80.3421Z" fill="white"/>
<path d="M104.178 80.4461C104.658 81.0371 105.129 80.4091 105.671 80.6271C105.611 80.9331 105.584 81.2821 105.462 81.5931C105.413 81.7171 105.159 81.7741 104.989 81.8321C104.853 81.8781 104.701 81.8951 104.556 81.8961C104.239 81.8991 103.922 81.8831 103.539 81.8731C103.653 81.5881 103.722 81.4171 103.784 81.2601C103.202 80.5941 102.432 80.2611 101.657 79.9351C100.893 79.6141 100.128 79.2911 99.3945 78.8941C99.9715 79.0241 100.555 79.1311 101.123 79.2911C101.69 79.4501 102.242 79.6631 102.844 79.8671C102.739 79.7751 102.651 79.6981 102.559 79.6181C102.852 79.3801 103.127 79.3271 103.397 79.6941C103.556 79.9111 103.744 79.9271 103.918 79.6791C104.075 79.4561 104.241 79.2391 104.421 79.0341C104.608 78.8201 104.781 78.5601 105.021 78.4301C106.115 77.8381 107.231 77.2841 108.357 76.7461C107.957 77.3101 107.47 77.7491 106.85 78.0641C106.484 78.2501 106.165 78.5471 105.858 78.8291C105.292 79.3481 104.75 79.8921 104.178 80.4461Z" fill="white"/>
<path d="M110.075 91.2296C109.811 91.9866 108.774 92.0976 108.062 91.4396C108.197 91.3666 108.336 91.3066 108.457 91.2216C108.627 91.1026 108.618 90.9506 108.586 90.7446C108.492 90.1376 107.993 90.1036 107.57 89.9336C107.461 89.8906 107.39 89.7466 107.308 89.6436C107.244 89.5616 107.19 89.4706 107.117 89.3626C107.203 89.3666 107.306 89.3626 107.407 89.3776C107.523 89.3946 107.64 89.4626 107.751 89.4496C108.215 89.3976 108.469 89.6206 108.579 90.0506H108.968C108.992 89.9266 109.015 89.8026 109.04 89.6786C109.128 89.2536 109.221 89.1516 109.642 89.1016C110.016 89.0576 110.393 89.0426 110.749 89.0156C110.645 89.2596 110.491 89.4286 110.177 89.5646C109.751 89.7486 109.381 90.1196 109.228 90.6106C109.168 90.8046 109.255 90.9756 109.455 91.0476C109.657 91.1206 109.868 91.1696 110.075 91.2296Z" fill="white"/>
<path d="M121.174 91.8044C121.039 91.9604 120.904 92.1164 120.771 92.2704C120.717 92.2294 120.702 92.2244 120.698 92.2144C120.659 92.1374 120.622 92.0584 120.585 91.9804C120.514 92.0384 120.436 92.0884 120.374 92.1554C120.233 92.3054 120.083 92.4524 119.971 92.6224C119.918 92.7024 119.934 92.8334 119.932 92.9404C119.928 93.2184 119.931 93.4964 119.931 93.7734C119.907 93.7764 119.883 93.7804 119.859 93.7834C119.819 93.6584 119.767 93.5364 119.74 93.4084C119.671 93.0764 119.606 92.7414 119.552 92.4064C119.527 92.2504 119.593 92.1354 119.752 92.0734C119.834 92.0414 119.917 91.9894 119.976 91.9254C120.076 91.8164 120.203 91.7124 120.072 91.5284C120.014 91.4454 120.082 91.3644 120.193 91.3784C120.425 91.4084 120.566 91.3374 120.6 91.1074C120.635 90.8734 120.766 90.7774 120.97 90.7774C121.378 90.7764 121.787 90.7964 122.195 90.8344C122.003 90.9744 121.798 91.0194 121.573 91.0124C121.474 91.0104 121.346 91.0414 121.278 91.1054C121.09 91.2824 120.928 91.4854 120.728 91.7074C120.887 91.7224 121.011 91.7344 121.134 91.7464C121.147 91.7654 121.161 91.7854 121.174 91.8044Z" fill="white"/>
<path d="M113.573 86.1467C113.592 86.0417 113.632 85.9357 113.624 85.8327C113.62 85.7667 113.545 85.7066 113.502 85.6436C113.448 85.6806 113.38 85.7076 113.343 85.7576C113.157 86.0126 112.927 86.1467 112.596 86.1467C112.417 86.1477 112.239 86.2557 112.058 86.3047C111.993 86.3217 111.92 86.3076 111.82 86.3076C112.057 86.0956 112.251 85.9056 112.462 85.7366C112.672 85.5686 112.899 85.4216 113.134 85.2556C113.091 85.2036 113.029 85.1477 112.992 85.0797C112.958 85.0147 112.949 84.9347 112.928 84.8627C113.008 84.8407 113.108 84.7776 113.165 84.8056C113.357 84.8976 113.449 84.8206 113.518 84.6546C113.623 84.4046 113.72 84.1506 113.838 83.9066C113.923 83.7296 114.049 83.5726 114.132 83.3956C114.274 83.0946 114.396 82.7857 114.53 82.4727C114.719 82.7137 114.592 82.9616 114.541 83.1976C114.513 83.3306 114.439 83.4237 114.575 83.5587C114.64 83.6217 114.621 83.8116 114.584 83.9276C114.456 84.3336 114.367 84.7677 113.98 85.0367C113.954 85.0547 113.945 85.0977 113.918 85.1447C114.211 85.2917 114.362 85.0007 114.596 84.9657C114.775 85.1497 114.799 85.5747 114.634 85.8777C114.492 86.1387 114.037 86.2567 113.573 86.1467Z" fill="white"/>
<path d="M67.1977 71.0268C67.3367 71.7708 66.9717 72.1738 66.3337 71.9628C66.2257 71.9268 66.0647 71.8438 66.0527 71.7638C65.9987 71.3798 65.7217 71.3778 65.4467 71.3728C64.6287 71.3598 63.9767 71.0288 63.4727 70.2588C63.7037 70.2028 63.9557 70.0688 64.1857 70.0998C64.6757 70.1648 65.1397 69.8608 65.1937 69.3548C65.2007 69.2878 65.1957 69.2188 65.1937 69.1508C65.1777 68.5458 65.2737 68.3978 65.8577 68.3118C66.9227 68.1578 67.9657 68.3658 69.0497 68.5278C68.7617 68.9678 68.3747 69.1138 67.9217 69.1388C67.5587 69.1578 67.1947 69.1658 66.8347 69.2058C66.7277 69.2168 66.5857 69.2948 66.5367 69.3838C66.3237 69.7758 66.1167 70.1758 65.9597 70.5918C65.9267 70.6768 66.0947 70.9358 66.2017 70.9578C66.5137 71.0228 66.8427 71.0088 67.1977 71.0268Z" fill="white"/>
<path d="M88.8253 71.7508C88.3993 71.8898 88.0903 72.2808 87.5483 72.1848C87.1693 72.1188 86.8273 72.4448 86.7193 72.8218C86.6553 73.0418 86.5733 73.2608 86.4653 73.4628C86.2693 73.8328 86.3113 73.9398 86.7193 73.9918C86.8003 74.0018 86.8823 73.9988 86.9643 74.0048C87.0443 74.0098 87.1253 74.0198 87.2053 74.0278C87.1593 74.6548 86.6573 75.1088 85.9833 75.0708C85.9743 75.0618 85.9583 75.0528 85.9563 75.0418C85.8643 74.2708 85.8713 74.2888 85.1373 74.5778C84.5633 74.8028 84.1363 75.0888 84.0043 75.7698C83.9353 76.1268 83.6193 76.4368 83.3683 76.7438C83.2833 75.8238 83.4633 74.9698 83.8603 74.1678C83.9163 74.0538 84.1113 73.9848 84.2553 73.9418C84.4493 73.8838 84.6643 73.8958 84.8563 73.8348C85.0463 73.7738 85.1973 73.6638 85.0633 73.4058C85.0173 73.3168 85.0703 73.1768 85.0793 73.0378C85.5633 73.2358 85.7743 73.1018 85.8523 72.6128C85.9863 71.7778 85.9933 71.7438 86.8513 71.6348C87.4023 71.5648 87.9633 71.5728 88.5203 71.5548C88.6183 71.5518 88.7173 71.5938 88.8163 71.6148C88.8193 71.6608 88.8223 71.7058 88.8253 71.7508Z" fill="white"/>
<path d="M73.4352 57.5851C72.9872 57.5901 72.5752 57.8731 72.0862 57.6201C71.7442 57.4441 71.3212 57.6541 71.1052 57.9821C70.9792 58.1741 70.8362 58.3581 70.6732 58.5191C70.3762 58.8141 70.3842 58.9291 70.7592 59.0991C70.8332 59.1331 70.9132 59.1541 70.9892 59.1841C71.0642 59.2141 71.1382 59.2471 71.2122 59.2781C70.9822 59.8631 70.3682 60.1481 69.7352 59.9111C69.7302 59.9001 69.7172 59.8871 69.7192 59.8761C69.8592 59.1121 69.8612 59.1321 69.0742 59.1901C68.4592 59.2351 67.9662 59.3811 67.6382 59.9921C67.4672 60.3131 67.0732 60.5151 66.7422 60.7331C66.9342 59.8301 67.3592 59.0681 67.9762 58.4201C68.0642 58.3271 68.2702 58.3191 68.4212 58.3211C68.6232 58.3231 68.8242 58.3991 69.0262 58.3971C69.2262 58.3951 69.4022 58.3351 69.3512 58.0491C69.3342 57.9501 69.4262 57.8321 69.4762 57.7021C69.8792 58.0351 70.1202 57.9691 70.3402 57.5261C70.7162 56.7681 70.7322 56.7381 71.5842 56.8881C72.1312 56.9851 72.6642 57.1591 73.2012 57.3071C73.2962 57.3331 73.3782 57.4031 73.4662 57.4521C73.4562 57.4961 73.4452 57.5401 73.4352 57.5851Z" fill="white"/>
<path d="M95.2073 84.9095C95.3953 84.7275 95.6143 84.5795 95.7453 84.3755C95.9353 84.0795 96.1873 83.9355 96.4983 84.0355C97.1373 84.2385 97.7593 84.4935 98.4403 84.7465C98.1353 85.1835 97.7303 85.1665 97.4723 85.0955C96.6563 84.8725 96.1383 85.3175 95.5113 85.8025C95.8423 85.9565 96.1163 86.0835 96.3903 86.2115C96.1483 86.8615 95.5003 87.1685 94.9313 86.9015C94.6613 86.7755 94.4793 86.6415 94.7543 86.3395C94.8203 86.2665 94.8333 86.1465 94.9163 85.9315C94.3963 86.0655 93.9343 86.1085 93.5493 86.3035C93.1723 86.4945 92.8743 86.8405 92.5423 87.1185C92.5093 87.1015 92.4773 87.0845 92.4453 87.0675C92.5083 86.8765 92.5513 86.6755 92.6373 86.4945C92.7763 86.2005 92.9463 85.9205 93.0973 85.6315C93.3243 85.1995 93.6203 84.9455 94.1503 85.1475C94.2723 85.1935 94.4343 85.1345 94.6293 85.1205C94.5633 84.9635 94.5193 84.8595 94.4723 84.7485C94.5013 84.5605 94.7863 84.5395 95.0083 84.7205C95.0593 84.7625 95.1043 84.8115 95.2073 84.9095Z" fill="white"/>
<path d="M127.396 88.6937C126.987 88.9267 126.595 89.1747 126.492 89.7157C126.728 89.7577 126.992 89.8047 127.282 89.8567C127.215 89.9717 127.138 90.1037 127.043 90.2667C126.84 90.0367 126.613 89.9797 126.348 90.0167C126.423 90.0947 126.498 90.1727 126.569 90.2467C126.23 90.5777 125.905 90.8937 125.56 91.2287C125.536 90.9617 125.464 90.6947 125.563 90.4277C125.593 90.3467 125.678 90.2797 125.751 90.2217C125.815 90.1697 125.905 90.1497 125.967 90.0967C126.015 90.0567 126.058 89.9888 126.065 89.9288C126.068 89.9018 125.979 89.8637 125.915 89.8197C125.979 89.7707 126.073 89.7287 126.117 89.6567C126.163 89.5817 126.187 89.4717 126.174 89.3847C126.133 89.1147 126.15 89.0437 126.392 88.9247C126.605 88.8207 126.822 88.7217 127.047 88.6457C127.148 88.6117 127.269 88.6397 127.382 88.6397C127.386 88.6577 127.391 88.6757 127.396 88.6937Z" fill="white"/>
<path fill-rule="evenodd" clip-rule="evenodd" d="M109.939 137.732C108.656 140.171 106.096 141.836 103.151 141.836C100.264 141.836 97.7477 140.237 96.4408 137.878L28.4688 135.624V114.043L28.9818 113.933C28.9758 113.823 28.9737 113.712 28.9737 113.601C28.9737 109.679 32.1588 106.494 36.0808 106.494C37.3548 106.494 38.5507 106.83 39.5847 107.418C39.5457 107.115 39.5258 106.807 39.5258 106.494C39.5258 102.572 42.7097 99.3867 46.6327 99.3867C50.5557 99.3867 53.7397 102.572 53.7397 106.494C53.7397 106.573 53.7388 106.652 53.7358 106.73C54.9778 107.107 56.0338 107.912 56.7338 108.972C59.2388 105.845 63.0877 103.842 67.4007 103.842C74.5527 103.842 80.4277 109.35 81.0137 116.351C81.8737 116.017 82.8097 115.833 83.7878 115.833C86.8027 115.833 89.4137 117.578 90.6647 120.112C91.2957 119.703 92.0478 119.466 92.8548 119.466C95.0807 119.466 96.8877 121.273 96.8877 123.498C96.8877 123.582 96.8848 123.664 96.8798 123.746C98.3867 124.303 99.4718 125.733 99.5168 127.422C100.599 126.837 101.836 126.506 103.151 126.506C106.916 126.506 110.051 129.227 110.695 132.808C111.293 132.357 112.036 132.089 112.842 132.089C114.811 132.089 116.409 133.688 116.409 135.657C116.409 137.627 114.811 139.225 112.842 139.225C111.646 139.225 110.587 138.636 109.939 137.732Z" fill="white"/>
<path fill-rule="evenodd" clip-rule="evenodd" d="M87.5833 145.302C86.2993 147.741 83.7403 149.406 80.7943 149.406C77.9083 149.406 75.3923 147.807 74.0853 145.448L6.11328 143.194V121.613L6.62528 121.502C6.62028 121.393 6.61728 121.282 6.61728 121.171C6.61728 117.249 9.80228 114.064 13.7253 114.064C14.9983 114.064 16.1943 114.4 17.2293 114.988C17.1893 114.685 17.1693 114.377 17.1693 114.064C17.1693 110.141 20.3543 106.957 24.2763 106.957C28.1993 106.957 31.3843 110.141 31.3843 114.064C31.3843 114.143 31.3823 114.222 31.3803 114.3C32.6213 114.677 33.6783 115.481 34.3783 116.541C36.8823 113.415 40.7313 111.412 45.0443 111.412C52.1963 111.412 58.0723 116.92 58.6573 123.921C59.5173 123.587 60.4533 123.403 61.4313 123.403C64.4463 123.403 67.0573 125.148 68.3093 127.682C68.9393 127.273 69.6923 127.035 70.4993 127.035C72.7243 127.035 74.5313 128.842 74.5313 131.068C74.5313 131.152 74.5293 131.234 74.5243 131.316C76.0313 131.872 77.1153 133.303 77.1603 134.991C78.2423 134.407 79.4803 134.076 80.7943 134.076C84.5603 134.076 87.6953 136.797 88.3383 140.378C88.9363 139.927 89.6793 139.659 90.4853 139.659C92.4543 139.659 94.0533 141.258 94.0533 143.227C94.0533 145.196 92.4543 146.795 90.4853 146.795C89.2893 146.795 88.2303 146.206 87.5833 145.302Z" fill="white" fill-opacity="0.79"/>
<path fill-rule="evenodd" clip-rule="evenodd" d="M3.39091 118.438C5.18691 118.476 6.81191 118.451 8.21191 118.313C14.9789 117.672 32.2799 120.341 34.5349 121.435C36.7919 122.555 44.3019 125.438 48.4299 125.677C52.5809 125.892 63.8589 126.345 69.8589 128.106C75.8819 129.895 85.2869 131.442 88.8509 131.896C91.1519 132.189 98.5729 134.431 105.024 135.739C97.9189 136.246 90.0469 136.246 85.7609 136.246H42.3179C36.2419 136.246 15.1059 141.008 0.128906 144.029C0.488906 135.285 1.59691 126.734 3.39091 118.438Z" fill="#D4EA8E"/>
<path fill-rule="evenodd" clip-rule="evenodd" d="M0.129 144.025C15.106 141.004 36.239 136.242 42.315 136.242H85.758C90.044 136.242 97.916 136.242 105.022 135.735C108.676 135.496 112.127 135.121 114.788 134.561C122.683 132.88 143.548 131.226 150 129.891C156.45 128.556 182.458 127.543 190.917 127.543C199.375 127.543 209.819 124.233 213.473 123.22C217.128 122.205 235.758 121.565 244.488 123.54C253.218 125.568 259.984 122.552 265.353 121.885C270.722 121.218 279.744 121.218 283.962 120.311C286.801 119.7 292.204 121.084 297.325 121.949C299.081 131.129 300.001 140.606 300.001 150.299H130.294C90.331 148.886 47.264 146.87 0.125 144.14C0.126 144.101 0.128 144.063 0.129 144.025Z" fill="#C3E15F"/>
<path fill-rule="evenodd" clip-rule="evenodd" d="M0.277 141.102H299.722C299.906 144.145 300 147.213 300 150.302H0C0 147.213 0.093 144.145 0.277 141.102Z" fill="#8CC927"/>
<path fill-rule="evenodd" clip-rule="evenodd" d="M0.111375 144.487C15.3434 143.393 36.8544 141.667 43.0354 141.667L84.3444 144.625C88.7034 144.625 100.04 144.808 107.266 144.625C110.981 144.538 114.027 146.519 116.733 146.316C124.762 145.707 145.979 145.108 152.54 144.625C159.1 144.142 185.547 143.774 194.149 143.774C202.75 143.774 213.37 142.576 217.086 142.209C220.803 141.842 239.748 141.61 248.626 142.325C257.503 143.059 264.383 141.968 269.843 141.726C275.303 141.484 284.477 141.484 288.767 141.156C290.743 141.005 295.128 141.192 299.742 141.425C299.914 144.362 300.001 147.321 300.001 150.301H124.291C85.9024 148.788 44.7634 146.808 0.109375 144.539C0.110375 144.522 0.111375 144.504 0.111375 144.487Z" fill="#99D939"/>
<path d="M242.205 119.39V130.893C242.193 131.355 241.907 131.739 241.551 131.828C241.08 131.947 240.479 131.554 240.409 130.893V114.278C240.271 112.942 239.251 111.9 238.038 111.759C236.62 111.594 235.206 112.692 235.018 114.278V134.729C234.846 135.133 234.44 135.38 234.025 135.341C233.67 135.307 233.36 135.069 233.219 134.729V123.226C232.878 121.836 231.59 120.917 230.262 121.041C229.104 121.149 228.11 122.029 227.828 123.226V134.729C227.952 135.299 228.445 137.222 230.262 138.602C231.416 139.479 232.592 139.747 233.219 139.842V150.064H242.205V137.285C242.784 137.18 244.434 136.804 245.815 135.341C247.506 133.549 247.59 131.403 247.596 130.893V119.39C247.177 118.321 246.182 117.591 245.063 117.529C243.833 117.461 242.673 118.211 242.205 119.39Z" fill="url(#paint7_linear_1114_350)"/>
<path fill-rule="evenodd" clip-rule="evenodd" d="M239.024 114.839C239.024 114.839 238.629 114.009 238.629 113.653C238.629 113.435 238.806 113.258 239.024 113.258C239.242 113.258 239.419 113.435 239.419 113.653C239.419 114.009 239.024 114.839 239.024 114.839Z" fill="#F8ABDC"/>
<path fill-rule="evenodd" clip-rule="evenodd" d="M235.864 119.198C235.864 119.198 235.469 118.368 235.469 118.012C235.469 117.794 235.646 117.617 235.864 117.617C236.082 117.617 236.259 117.794 236.259 118.012C236.259 118.368 235.864 119.198 235.864 119.198Z" fill="#F8ABDC"/>
<path fill-rule="evenodd" clip-rule="evenodd" d="M227.829 123.843C227.829 123.843 227.434 123.013 227.434 122.657C227.434 122.439 227.611 122.262 227.829 122.262C228.047 122.262 228.224 122.439 228.224 122.657C228.224 123.013 227.829 123.843 227.829 123.843Z" fill="#F8ABDC"/>
<path fill-rule="evenodd" clip-rule="evenodd" d="M246.923 126.593C246.923 126.593 246.527 125.763 246.527 125.407C246.527 125.189 246.705 125.012 246.923 125.012C247.141 125.012 247.318 125.189 247.318 125.407C247.318 125.763 246.923 126.593 246.923 126.593Z" fill="#F8ABDC"/>
<path fill-rule="evenodd" clip-rule="evenodd" d="M239.024 114.84C239.024 114.84 238.629 115.67 238.629 116.026C238.629 116.244 238.806 116.421 239.024 116.421C239.242 116.421 239.419 116.244 239.419 116.026C239.419 115.67 239.024 114.84 239.024 114.84Z" fill="#F8ABDC"/>
<path fill-rule="evenodd" clip-rule="evenodd" d="M235.864 119.199C235.864 119.199 235.469 120.029 235.469 120.384C235.469 120.603 235.646 120.78 235.864 120.78C236.082 120.78 236.259 120.603 236.259 120.384C236.259 120.029 235.864 119.199 235.864 119.199Z" fill="#F8ABDC"/>
<path fill-rule="evenodd" clip-rule="evenodd" d="M227.829 123.84C227.829 123.84 227.434 124.67 227.434 125.026C227.434 125.244 227.611 125.421 227.829 125.421C228.047 125.421 228.224 125.244 228.224 125.026C228.224 124.67 227.829 123.84 227.829 123.84Z" fill="#F8ABDC"/>
<path fill-rule="evenodd" clip-rule="evenodd" d="M246.923 126.594C246.923 126.594 246.527 127.424 246.527 127.78C246.527 127.998 246.705 128.175 246.923 128.175C247.141 128.175 247.318 127.998 247.318 127.78C247.318 127.424 246.923 126.594 246.923 126.594Z" fill="#F8ABDC"/>
<path fill-rule="evenodd" clip-rule="evenodd" d="M239.023 114.84C239.023 114.84 239.853 114.445 240.209 114.445C240.427 114.445 240.604 114.622 240.604 114.84C240.604 115.058 240.427 115.236 240.209 115.236C239.853 115.236 239.023 114.84 239.023 114.84Z" fill="#F8ABDC"/>
<path fill-rule="evenodd" clip-rule="evenodd" d="M235.863 119.201C235.863 119.201 236.693 118.805 237.049 118.805C237.267 118.805 237.444 118.982 237.444 119.201C237.444 119.419 237.267 119.596 237.049 119.596C236.693 119.596 235.863 119.201 235.863 119.201Z" fill="#F8ABDC"/>
<path fill-rule="evenodd" clip-rule="evenodd" d="M227.828 123.84C227.828 123.84 228.658 123.445 229.014 123.445C229.232 123.445 229.409 123.622 229.409 123.84C229.409 124.058 229.232 124.236 229.014 124.236C228.658 124.236 227.828 123.84 227.828 123.84Z" fill="#F8ABDC"/>
<path fill-rule="evenodd" clip-rule="evenodd" d="M246.926 126.591C246.926 126.591 247.756 126.195 248.112 126.195C248.33 126.195 248.507 126.373 248.507 126.591C248.507 126.809 248.33 126.986 248.112 126.986C247.756 126.986 246.926 126.591 246.926 126.591Z" fill="#F8ABDC"/>
<path fill-rule="evenodd" clip-rule="evenodd" d="M239.026 114.84C239.026 114.84 238.196 114.445 237.84 114.445C237.622 114.445 237.445 114.622 237.445 114.84C237.445 115.058 237.622 115.236 237.84 115.236C238.196 115.236 239.026 114.84 239.026 114.84Z" fill="#F8ABDC"/>
<path fill-rule="evenodd" clip-rule="evenodd" d="M235.862 119.201C235.862 119.201 235.032 118.805 234.676 118.805C234.458 118.805 234.281 118.982 234.281 119.201C234.281 119.419 234.458 119.596 234.676 119.596C235.032 119.596 235.862 119.201 235.862 119.201Z" fill="#F8ABDC"/>
<path fill-rule="evenodd" clip-rule="evenodd" d="M227.827 123.84C227.827 123.84 226.997 123.445 226.641 123.445C226.423 123.445 226.246 123.622 226.246 123.84C226.246 124.058 226.423 124.236 226.641 124.236C226.997 124.236 227.827 123.84 227.827 123.84Z" fill="#F8ABDC"/>
<path fill-rule="evenodd" clip-rule="evenodd" d="M246.925 126.591C246.925 126.591 246.095 126.195 245.739 126.195C245.521 126.195 245.344 126.373 245.344 126.591C245.344 126.809 245.521 126.986 245.739 126.986C246.095 126.986 246.925 126.591 246.925 126.591Z" fill="#F8ABDC"/>
<path fill-rule="evenodd" clip-rule="evenodd" d="M239.023 114.841C239.023 114.841 239.314 114.02 239.553 113.782C239.699 113.635 239.937 113.635 240.083 113.782C240.229 113.928 240.229 114.165 240.083 114.311C239.844 114.55 239.023 114.841 239.023 114.841Z" fill="#F8ABDC"/>
<path fill-rule="evenodd" clip-rule="evenodd" d="M235.863 119.201C235.863 119.201 236.154 118.379 236.393 118.141C236.539 117.995 236.776 117.995 236.922 118.141C237.069 118.287 237.069 118.525 236.922 118.671C236.684 118.909 235.863 119.201 235.863 119.201Z" fill="#F8ABDC"/>
<path fill-rule="evenodd" clip-rule="evenodd" d="M227.828 123.841C227.828 123.841 228.119 123.02 228.358 122.782C228.504 122.635 228.741 122.635 228.887 122.782C229.034 122.928 229.034 123.165 228.887 123.312C228.649 123.55 227.828 123.841 227.828 123.841Z" fill="#F8ABDC"/>
<path fill-rule="evenodd" clip-rule="evenodd" d="M246.926 126.591C246.926 126.591 247.217 125.769 247.456 125.531C247.602 125.385 247.839 125.385 247.985 125.531C248.132 125.677 248.132 125.915 247.985 126.061C247.747 126.299 246.926 126.591 246.926 126.591Z" fill="#F8ABDC"/>
<path fill-rule="evenodd" clip-rule="evenodd" d="M239.025 114.84C239.025 114.84 238.204 115.132 237.965 115.37C237.819 115.516 237.819 115.754 237.965 115.9C238.112 116.046 238.349 116.046 238.495 115.9C238.734 115.661 239.025 114.84 239.025 114.84Z" fill="#F8ABDC"/>
<path fill-rule="evenodd" clip-rule="evenodd" d="M235.865 119.199C235.865 119.199 235.044 119.49 234.805 119.728C234.659 119.875 234.659 120.112 234.805 120.258C234.951 120.404 235.189 120.404 235.335 120.258C235.573 120.02 235.865 119.199 235.865 119.199Z" fill="#F8ABDC"/>
<path fill-rule="evenodd" clip-rule="evenodd" d="M227.83 123.84C227.83 123.84 227.009 124.132 226.77 124.37C226.624 124.516 226.624 124.754 226.77 124.9C226.916 125.046 227.154 125.046 227.3 124.9C227.538 124.662 227.83 123.84 227.83 123.84Z" fill="#F8ABDC"/>
<path fill-rule="evenodd" clip-rule="evenodd" d="M246.923 126.594C246.923 126.594 246.102 126.885 245.863 127.124C245.717 127.27 245.717 127.507 245.863 127.653C246.009 127.8 246.247 127.8 246.393 127.653C246.631 127.415 246.923 126.594 246.923 126.594Z" fill="#F8ABDC"/>
<path fill-rule="evenodd" clip-rule="evenodd" d="M239.023 114.84C239.023 114.84 239.844 115.132 240.083 115.37C240.229 115.516 240.229 115.754 240.083 115.9C239.937 116.046 239.699 116.046 239.553 115.9C239.314 115.661 239.023 114.84 239.023 114.84Z" fill="#F8ABDC"/>
<path fill-rule="evenodd" clip-rule="evenodd" d="M235.863 119.199C235.863 119.199 236.684 119.49 236.922 119.728C237.069 119.875 237.069 120.112 236.922 120.258C236.776 120.404 236.539 120.404 236.393 120.258C236.154 120.02 235.863 119.199 235.863 119.199Z" fill="#F8ABDC"/>
<path fill-rule="evenodd" clip-rule="evenodd" d="M227.828 123.84C227.828 123.84 228.649 124.132 228.887 124.37C229.034 124.516 229.034 124.754 228.887 124.9C228.741 125.046 228.504 125.046 228.358 124.9C228.119 124.662 227.828 123.84 227.828 123.84Z" fill="#F8ABDC"/>
<path fill-rule="evenodd" clip-rule="evenodd" d="M246.926 126.594C246.926 126.594 247.747 126.885 247.985 127.124C248.132 127.27 248.132 127.507 247.985 127.653C247.839 127.8 247.602 127.8 247.456 127.653C247.217 127.415 246.926 126.594 246.926 126.594Z" fill="#F8ABDC"/>
<path fill-rule="evenodd" clip-rule="evenodd" d="M239.025 114.841C239.025 114.841 238.734 114.02 238.495 113.782C238.349 113.635 238.112 113.635 237.965 113.782C237.819 113.928 237.819 114.165 237.965 114.311C238.204 114.55 239.025 114.841 239.025 114.841Z" fill="#F8ABDC"/>
<path fill-rule="evenodd" clip-rule="evenodd" d="M235.865 119.201C235.865 119.201 235.573 118.379 235.335 118.141C235.189 117.995 234.951 117.995 234.805 118.141C234.659 118.287 234.659 118.525 234.805 118.671C235.044 118.909 235.865 119.201 235.865 119.201Z" fill="#F8ABDC"/>
<path fill-rule="evenodd" clip-rule="evenodd" d="M227.83 123.841C227.83 123.841 227.538 123.02 227.3 122.782C227.154 122.635 226.916 122.635 226.77 122.782C226.624 122.928 226.624 123.165 226.77 123.312C227.009 123.55 227.83 123.841 227.83 123.841Z" fill="#F8ABDC"/>
<path fill-rule="evenodd" clip-rule="evenodd" d="M246.923 126.591C246.923 126.591 246.631 125.769 246.393 125.531C246.247 125.385 246.009 125.385 245.863 125.531C245.717 125.677 245.717 125.915 245.863 126.061C246.102 126.299 246.923 126.591 246.923 126.591Z" fill="#F8ABDC"/>
<path d="M239.025 115.254C239.255 115.254 239.441 115.068 239.441 114.838C239.441 114.608 239.255 114.422 239.025 114.422C238.796 114.422 238.609 114.608 238.609 114.838C238.609 115.068 238.796 115.254 239.025 115.254Z" fill="#EEF6F9"/>
<path d="M235.861 119.617C236.091 119.617 236.277 119.431 236.277 119.201C236.277 118.971 236.091 118.785 235.861 118.785C235.632 118.785 235.445 118.971 235.445 119.201C235.445 119.431 235.632 119.617 235.861 119.617Z" fill="#EEF6F9"/>
<path d="M227.83 124.258C228.06 124.258 228.246 124.072 228.246 123.842C228.246 123.612 228.06 123.426 227.83 123.426C227.6 123.426 227.414 123.612 227.414 123.842C227.414 124.072 227.6 124.258 227.83 124.258Z" fill="#EEF6F9"/>
<path d="M246.924 127.008C247.154 127.008 247.34 126.822 247.34 126.592C247.34 126.362 247.154 126.176 246.924 126.176C246.694 126.176 246.508 126.362 246.508 126.592C246.508 126.822 246.694 127.008 246.924 127.008Z" fill="#EEF6F9"/>
<path fill-rule="evenodd" clip-rule="evenodd" d="M249.726 115.164C249.726 115.164 248.672 113.327 248.809 112.584C248.929 111.928 249.56 111.493 250.216 111.614C250.872 111.735 251.307 112.366 251.186 113.022C251.05 113.764 249.726 115.164 249.726 115.164Z" fill="#F47BCA"/>
<path fill-rule="evenodd" clip-rule="evenodd" d="M249.355 114.706C249.355 114.706 250.387 113.946 250.916 113.934C251.383 113.924 251.771 114.295 251.782 114.763C251.792 115.23 251.421 115.618 250.953 115.628C250.424 115.64 249.355 114.706 249.355 114.706Z" fill="#F58DD1"/>
<path fill-rule="evenodd" clip-rule="evenodd" d="M249.307 114.881C249.201 114.743 249.227 114.546 249.365 114.44C249.502 114.335 249.7 114.36 249.806 114.498L250.706 115.671C250.812 115.808 250.786 116.006 250.649 116.111C250.511 116.217 250.314 116.191 250.208 116.053L249.307 114.881Z" fill="#6F6F6F"/>
<path d="M249.404 114.552C249.404 114.552 248.495 113.786 248.402 114.226" stroke="#6F6F6F" stroke-width="0.83" stroke-miterlimit="1.5" stroke-linecap="round" stroke-linejoin="round"/>
<path d="M249.459 114.618C249.459 114.618 248.909 113.563 248.656 113.935" stroke="#6F6F6F" stroke-width="0.83" stroke-miterlimit="1.5" stroke-linecap="round" stroke-linejoin="round"/>
<path fill-rule="evenodd" clip-rule="evenodd" d="M250.298 115.576C250.298 115.576 249.319 113.382 249.473 112.547C249.608 111.809 250.318 111.32 251.056 111.456C251.794 111.592 252.283 112.301 252.147 113.039C251.993 113.874 250.298 115.576 250.298 115.576Z" fill="url(#paint8_linear_1114_350)"/>
<path fill-rule="evenodd" clip-rule="evenodd" d="M250.301 115.575C250.301 115.575 251.251 114.076 251.846 114.063C252.371 114.051 252.808 114.469 252.819 114.995C252.831 115.521 252.413 115.957 251.887 115.968C251.292 115.982 250.301 115.575 250.301 115.575Z" fill="url(#paint9_linear_1114_350)"/>
<path d="M62.8149 92.4195L61.8349 105.305L53.9219 113.628L55.6719 90.3385L58.6839 87.2175L62.8149 92.4195ZM56.4429 80.8945L58.0529 59.2055L64.7059 67.5295L63.8659 78.8145L58.8939 84.0965L56.4429 80.8945ZM79.6919 81.4555L83.0539 85.6165L79.0619 89.7785H63.5159L60.2239 85.6165L64.1459 81.4555H79.6919ZM87.4659 80.8945L84.4539 84.0965L80.3229 78.8145L81.1629 67.5295L85.1549 63.3675L88.4459 67.5295L87.4659 80.8945ZM83.9639 61.7665L79.9719 66.0085H66.2469L59.5939 57.6055H80.6029L83.9639 61.7665Z" fill="#1E40AF"/>
<path d="M128.432 57.6055L120.518 66.0085H105.462L98.8093 57.6055H128.432ZM124.16 113.628H94.5383L102.451 105.305H117.507L124.16 113.628ZM102.031 92.4195L101.19 103.704L93.2773 112.028L94.8883 90.3385L97.8993 87.2175L102.031 92.4195ZM95.6583 80.8945L97.2693 59.2055L103.921 67.5295L103.081 78.8145L98.1093 84.0965L95.6583 80.8945ZM118.908 81.4555L122.269 85.6165L118.277 89.7785H102.731L99.4403 85.6165L103.361 81.4555H118.908Z" fill="#1E40AF"/>
<path d="M166.316 57.6055L158.403 66.0085H144.677L138.025 57.6055H166.316ZM141.246 92.4195L140.266 105.305L132.352 113.628L134.103 90.3385L137.114 87.2175L141.246 92.4195ZM134.873 80.8945L136.484 59.2055L143.137 67.5295L142.296 78.8145L137.324 84.0965L134.873 80.8945ZM165.126 90.3385L163.375 113.628L156.722 105.305L157.703 92.4195L162.675 87.2175L165.126 90.3385ZM158.753 78.8145L159.594 67.5295L167.507 59.2055L165.896 80.8945L162.885 84.0965L158.753 78.8145ZM158.123 81.4555L161.484 85.6165L157.493 89.7785H141.946L138.655 85.6165L142.577 81.4555H158.123Z" fill="#1E40AF"/>
<path d="M180.253 113.628L176.962 109.467L180.884 105.305H195.94L202.593 113.628H180.253ZM206.864 57.6055L198.951 66.0085H183.895L180.603 61.7665L184.525 57.6055H206.864ZM181.514 78.8145L176.542 84.0965L174.091 80.8945L175.071 67.5295L179.063 63.3675L182.354 67.5295L181.514 78.8145ZM172.34 103.704L175.631 107.866L179.623 103.704L180.463 92.4195L176.332 87.2175L173.32 90.3385L172.34 103.704Z" fill="#1E40AF"/>
<path d="M246.081 57.6055L238.167 66.0085H223.111L216.458 57.6055H246.081ZM241.809 113.628H212.187L220.1 105.305H235.156L241.809 113.628ZM219.68 92.4195L218.839 103.704L210.926 112.028L212.537 90.3385L215.548 87.2175L219.68 92.4195ZM213.307 80.8945L214.918 59.2055L221.57 67.5295L220.73 78.8145L215.758 84.0965L213.307 80.8945ZM236.557 81.4555L239.918 85.6165L235.926 89.7785H220.38L217.089 85.6165L221.01 81.4555H236.557Z" fill="#1E40AF"/>
<path d="M150.013 12.4167C151.725 12.4167 153.112 11.0293 153.112 9.31775C153.112 7.60622 151.725 6.21875 150.013 6.21875C148.302 6.21875 146.914 7.60622 146.914 9.31775C146.914 11.0293 148.302 12.4167 150.013 12.4167Z" fill="#25282B"/>
<path fill-rule="evenodd" clip-rule="evenodd" d="M168.421 9.09834C169.201 9.20134 169.751 9.91734 169.648 10.6973C169.545 11.4773 168.829 12.0273 168.049 11.9243C167.269 11.8223 166.719 11.1053 166.821 10.3253C166.924 9.54534 167.641 8.99534 168.421 9.09834Z" fill="#25282B"/>
<path fill-rule="evenodd" clip-rule="evenodd" d="M132.096 9.09834C131.316 9.20134 130.766 9.91734 130.868 10.6973C130.971 11.4773 131.688 12.0273 132.468 11.9243C133.248 11.8223 133.798 11.1053 133.695 10.3253C133.592 9.54534 132.876 8.99534 132.096 9.09834Z" fill="#25282B"/>
<path fill-rule="evenodd" clip-rule="evenodd" d="M203.986 18.6282C204.713 18.9292 205.059 19.7642 204.758 20.4912C204.456 21.2182 203.622 21.5632 202.895 21.2622C202.168 20.9612 201.823 20.1272 202.124 19.4002C202.425 18.6732 203.259 18.3272 203.986 18.6282Z" fill="#25282B"/>
<path fill-rule="evenodd" clip-rule="evenodd" d="M96.5321 18.6282C95.8051 18.9292 95.4601 19.7642 95.7611 20.4912C96.0621 21.2182 96.8961 21.5632 97.6231 21.2622C98.3501 20.9612 98.6961 20.1272 98.3951 19.4002C98.0941 18.6732 97.2591 18.3272 96.5321 18.6282Z" fill="#25282B"/>
<path fill-rule="evenodd" clip-rule="evenodd" d="M235.871 37.0366C236.495 37.5156 236.613 38.4106 236.134 39.0346C235.655 39.6596 234.76 39.7776 234.136 39.2986C233.512 38.8196 233.394 37.9236 233.873 37.2996C234.351 36.6756 235.247 36.5576 235.871 37.0366Z" fill="#25282B"/>
<path fill-rule="evenodd" clip-rule="evenodd" d="M64.6472 37.0366C64.0232 37.5156 63.9052 38.4106 64.3842 39.0346C64.8632 39.6596 65.7582 39.7776 66.3832 39.2986C67.0072 38.8196 67.1252 37.9236 66.6462 37.2996C66.1672 36.6756 65.2712 36.5576 64.6472 37.0366Z" fill="#25282B"/>
<path fill-rule="evenodd" clip-rule="evenodd" d="M261.908 63.073C262.387 63.697 262.269 64.592 261.645 65.071C261.021 65.55 260.125 65.432 259.646 64.808C259.167 64.184 259.285 63.289 259.909 62.81C260.534 62.331 261.429 62.449 261.908 63.073Z" fill="#25282B"/>
<path fill-rule="evenodd" clip-rule="evenodd" d="M38.6108 63.073C38.1318 63.697 38.2498 64.592 38.8738 65.071C39.4978 65.55 40.3938 65.432 40.8728 64.808C41.3518 64.184 41.2338 63.289 40.6098 62.81C39.9858 62.331 39.0898 62.449 38.6108 63.073Z" fill="#25282B"/>
<path fill-rule="evenodd" clip-rule="evenodd" d="M186.517 12.6974C187.277 12.9014 187.729 13.6834 187.525 14.4434C187.322 15.2034 186.539 15.6554 185.779 15.4514C185.019 15.2474 184.568 14.4654 184.771 13.7054C184.975 12.9454 185.757 12.4934 186.517 12.6974Z" fill="#25282B"/>
<path fill-rule="evenodd" clip-rule="evenodd" d="M114.002 12.6974C113.242 12.9014 112.79 13.6834 112.994 14.4434C113.198 15.2034 113.98 15.6554 114.74 15.4514C115.5 15.2474 115.951 14.4654 115.748 13.7054C115.544 12.9454 114.762 12.4934 114.002 12.6974Z" fill="#25282B"/>
<path fill-rule="evenodd" clip-rule="evenodd" d="M221.367 25.3375C222.849 26.1925 223.357 28.0895 222.502 29.5705C221.647 31.0525 219.749 31.5605 218.268 30.7055C216.787 29.8495 216.278 27.9525 217.134 26.4715C217.989 24.9905 219.886 24.4815 221.367 25.3375Z" fill="#25282B"/>
<path fill-rule="evenodd" clip-rule="evenodd" d="M79.1478 25.3375C77.6658 26.1925 77.1578 28.0895 78.0128 29.5705C78.8688 31.0525 80.7658 31.5605 82.2468 30.7055C83.7288 29.8495 84.2368 27.9525 83.3818 26.4715C82.5258 24.9905 80.6288 24.4815 79.1478 25.3375Z" fill="#25282B"/>
<path fill-rule="evenodd" clip-rule="evenodd" d="M249.742 49.2022C250.298 49.7582 250.298 50.6622 249.742 51.2182C249.186 51.7742 248.282 51.7742 247.726 51.2182C247.17 50.6622 247.17 49.7582 247.726 49.2022C248.282 48.6462 249.186 48.6462 249.742 49.2022Z" fill="#25282B"/>
<path fill-rule="evenodd" clip-rule="evenodd" d="M50.7764 49.2022C50.2204 49.7582 50.2204 50.6622 50.7764 51.2182C51.3334 51.7742 52.2364 51.7742 52.7924 51.2182C53.3494 50.6622 53.3494 49.7582 52.7924 49.2022C52.2364 48.6462 51.3334 48.6462 50.7764 49.2022Z" fill="#25282B"/>
<path fill-rule="evenodd" clip-rule="evenodd" d="M273.607 77.5775C274.463 79.0585 273.954 80.9555 272.473 81.8105C270.992 82.6665 269.095 82.1575 268.239 80.6765C267.384 79.1955 267.892 77.2975 269.374 76.4425C270.855 75.5875 272.752 76.0955 273.607 77.5775Z" fill="#25282B"/>
<path fill-rule="evenodd" clip-rule="evenodd" d="M26.9117 77.5775C26.0557 79.0585 26.5647 80.9555 28.0457 81.8105C29.5277 82.6665 31.4247 82.1575 32.2797 80.6765C33.1347 79.1955 32.6267 77.2975 31.1447 76.4425C29.6637 75.5875 27.7667 76.0955 26.9117 77.5775Z" fill="#25282B"/>
<path fill-rule="evenodd" clip-rule="evenodd" d="M280.317 94.9588C280.618 95.6858 280.272 96.5198 279.545 96.8208C278.818 97.1218 277.984 96.7768 277.683 96.0498C277.382 95.3228 277.727 94.4888 278.454 94.1868C279.181 93.8858 280.016 94.2318 280.317 94.9588Z" fill="#25282B"/>
<path fill-rule="evenodd" clip-rule="evenodd" d="M20.203 94.9588C19.901 95.6858 20.247 96.5198 20.974 96.8208C21.701 97.1218 22.535 96.7768 22.836 96.0498C23.138 95.3228 22.792 94.4888 22.065 94.1868C21.338 93.8858 20.504 94.2318 20.203 94.9588Z" fill="#25282B"/>
<path fill-rule="evenodd" clip-rule="evenodd" d="M286.248 112.428C286.451 113.188 286 113.97 285.24 114.174C284.48 114.377 283.698 113.926 283.494 113.166C283.29 112.406 283.742 111.623 284.502 111.42C285.262 111.216 286.044 111.668 286.248 112.428Z" fill="#25282B"/>
<path fill-rule="evenodd" clip-rule="evenodd" d="M14.2713 112.428C14.0683 113.188 14.5193 113.97 15.2793 114.174C16.0393 114.377 16.8223 113.926 17.0253 113.166C17.2293 112.406 16.7773 111.623 16.0173 111.42C15.2573 111.216 14.4753 111.668 14.2713 112.428Z" fill="#25282B"/>
<path fill-rule="evenodd" clip-rule="evenodd" d="M289.846 130.525C289.949 131.305 289.399 132.022 288.619 132.125C287.839 132.227 287.122 131.677 287.02 130.897C286.917 130.117 287.467 129.401 288.247 129.298C289.027 129.195 289.743 129.745 289.846 130.525Z" fill="#25282B"/>
<path fill-rule="evenodd" clip-rule="evenodd" d="M10.6726 130.525C10.5696 131.305 11.1196 132.022 11.8996 132.125C12.6796 132.227 13.3966 131.677 13.4996 130.897C13.6016 130.117 13.0516 129.401 12.2716 129.298C11.4916 129.195 10.7756 129.745 10.6726 130.525Z" fill="#25282B"/>
<path fill-rule="evenodd" clip-rule="evenodd" d="M292.726 148.932C292.726 150.642 291.337 152.031 289.626 152.031C287.916 152.031 286.527 150.642 286.527 148.932C286.527 147.221 287.916 145.832 289.626 145.832C291.337 145.832 292.726 147.221 292.726 148.932Z" fill="#25282B"/>
<path fill-rule="evenodd" clip-rule="evenodd" d="M7.79297 148.932C7.79297 150.642 9.18097 152.031 10.892 152.031C12.603 152.031 13.991 150.642 13.991 148.932C13.991 147.221 12.603 145.832 10.892 145.832C9.18097 145.832 7.79297 147.221 7.79297 148.932Z" fill="#25282B"/>
<defs>
<linearGradient id="paint0_linear_1114_350" x1="150.202" y1="41.3398" x2="150" y2="142.928" gradientUnits="userSpaceOnUse">
<stop stop-color="#B4D8E7"/>
<stop offset="1" stop-color="#EFF9FD"/>
</linearGradient>
<linearGradient id="paint1_linear_1114_350" x1="280.353" y1="95.7746" x2="257.14" y2="122.408" gradientUnits="userSpaceOnUse">
<stop stop-color="#788FE3"/>
<stop offset="1" stop-color="#D9EDF5"/>
</linearGradient>
<linearGradient id="paint2_linear_1114_350" x1="271.318" y1="96.3446" x2="254.801" y2="120.838" gradientUnits="userSpaceOnUse">
<stop stop-color="#9CDEEA"/>
<stop offset="1" stop-color="#D7ECF4"/>
</linearGradient>
<linearGradient id="paint3_linear_1114_350" x1="277.035" y1="89.9386" x2="246.582" y2="122.409" gradientUnits="userSpaceOnUse">
<stop stop-color="#78E387"/>
<stop offset="1" stop-color="#D8ECF4"/>
</linearGradient>
<linearGradient id="paint4_linear_1114_350" x1="271.932" y1="85.3526" x2="238.276" y2="120.291" gradientUnits="userSpaceOnUse">
<stop stop-color="#F3DC92"/>
<stop offset="1" stop-color="#DBEEF6"/>
</linearGradient>
<linearGradient id="paint5_linear_1114_350" x1="263.257" y1="85.3136" x2="238.75" y2="116.121" gradientUnits="userSpaceOnUse">
<stop stop-color="#F4AE83"/>
<stop offset="1" stop-color="#D8ECF4"/>
</linearGradient>
<linearGradient id="paint6_linear_1114_350" x1="271.919" y1="75.3016" x2="233.793" y2="119.362" gradientUnits="userSpaceOnUse">
<stop stop-color="#FF7070"/>
<stop offset="1" stop-color="#DEEFF7"/>
</linearGradient>
<linearGradient id="paint7_linear_1114_350" x1="245.063" y1="136.83" x2="239.042" y2="93.9468" gradientUnits="userSpaceOnUse">
<stop stop-color="#0C543B"/>
<stop offset="1" stop-color="#39AC84"/>
</linearGradient>
<linearGradient id="paint8_linear_1114_350" x1="251.57" y1="113.179" x2="245.769" y2="117.694" gradientUnits="userSpaceOnUse">
<stop stop-color="#F8ABDC"/>
<stop offset="1" stop-color="#FF1DAD"/>
</linearGradient>
<linearGradient id="paint9_linear_1114_350" x1="251.573" y1="113.178" x2="245.772" y2="117.693" gradientUnits="userSpaceOnUse">
<stop stop-color="#F8ABDC"/>
<stop offset="1" stop-color="#FF1DAD"/>
</linearGradient>
</defs>
</svg>
