<svg width="304" height="155" viewBox="0 0 304 155" fill="none" xmlns="http://www.w3.org/2000/svg">
<path fill-rule="evenodd" clip-rule="evenodd" d="M302 152C302 69.157 234.842 2 152 2C69.157 2 2 69.157 2 152H302Z" fill="url(#paint0_linear_678_3461)"/>
<path fill-rule="evenodd" clip-rule="evenodd" d="M279.874 73.5498C284.755 81.4868 288.916 89.9138 292.269 98.7398C278.833 101.597 266.765 110.301 260.115 123.514C259.093 125.545 258.22 127.648 257.503 129.806L231.367 121.122C232.505 117.696 233.892 114.357 235.515 111.132C244.955 92.3748 261.275 79.3408 279.874 73.5498Z" fill="url(#paint1_linear_678_3461)"/>
<path fill-rule="evenodd" clip-rule="evenodd" d="M279.874 73.5498C283.98 80.2278 287.577 87.2518 290.612 94.5678C276.203 97.8538 263.313 107.302 256.157 121.521C255.038 123.745 254.082 126.046 253.297 128.408L231.367 121.122C232.505 117.696 233.892 114.357 235.515 111.132C244.955 92.3748 261.275 79.3408 279.874 73.5498Z" fill="url(#paint2_linear_678_3461)"/>
<path fill-rule="evenodd" clip-rule="evenodd" d="M279.874 73.5498C283.188 78.9388 286.171 84.5548 288.793 90.3668C273.451 94.1088 259.78 104.297 252.131 119.495C250.914 121.914 249.874 124.418 249.02 126.987L231.367 121.122C232.505 117.696 233.892 114.357 235.515 111.132C244.955 92.3748 261.275 79.3408 279.874 73.5498Z" fill="url(#paint3_linear_678_3461)"/>
<path fill-rule="evenodd" clip-rule="evenodd" d="M286.913 86.3598C270.723 90.5578 256.352 101.442 248.249 117.541C246.937 120.148 245.816 122.847 244.896 125.617L231.367 121.122C232.505 117.696 233.892 114.357 235.515 111.132C244.955 92.3748 261.275 79.3408 279.874 73.5498C282.42 77.6908 284.771 81.9648 286.913 86.3598Z" fill="url(#paint4_linear_678_3461)"/>
<path fill-rule="evenodd" clip-rule="evenodd" d="M279.874 73.5498C281.57 76.3068 283.178 79.1238 284.696 81.9948C267.633 86.7138 252.548 98.3438 243.97 115.388C242.553 118.202 241.343 121.116 240.35 124.106L231.367 121.122C232.505 117.696 233.892 114.357 235.515 111.132C244.955 92.3748 261.275 79.3408 279.874 73.5498Z" fill="url(#paint5_linear_678_3461)"/>
<path fill-rule="evenodd" clip-rule="evenodd" d="M279.874 73.5498C280.681 74.8608 281.467 76.1858 282.234 77.5238C264.332 82.7998 248.568 95.1798 239.524 113.15C237.999 116.181 236.697 119.318 235.627 122.537L231.367 121.122C232.505 117.696 233.892 114.357 235.515 111.132C244.955 92.3748 261.275 79.3408 279.874 73.5498Z" fill="url(#paint6_linear_678_3461)"/>
<path d="M92.1308 61.314C92.0648 61.415 92.0347 61.469 91.9967 61.518C91.9557 61.572 91.9078 61.62 91.8278 61.711C91.9368 61.693 92.0017 61.683 92.0667 61.672C92.0827 61.694 92.0977 61.716 92.1127 61.738C91.8427 61.914 91.5728 62.09 91.3027 62.267C91.3087 62.283 91.3137 62.3 91.3197 62.317C91.4837 62.253 91.6478 62.189 91.8128 62.125C91.8268 62.157 91.8418 62.188 91.8568 62.22C91.5528 62.368 91.2487 62.516 90.9447 62.664C90.7107 62.777 90.4318 62.866 90.6488 63.221C90.6658 63.25 90.6698 63.316 90.6497 63.334C90.4397 63.537 90.2318 63.744 90.0058 63.929C89.8588 64.049 89.6928 64.155 89.5188 64.234C89.0698 64.437 88.6207 64.646 88.1547 64.801C87.9187 64.88 87.6458 64.849 87.3918 64.867C87.3988 65.232 87.3988 65.232 88.7298 65.551C88.8048 66.458 88.0508 66.754 87.4788 67.108C87.1158 67.333 86.6348 67.127 86.2668 66.901C85.9268 66.692 85.6278 66.414 85.2668 66.132C85.4718 65.989 85.6198 65.881 85.7738 65.782C86.0168 65.625 86.1288 65.396 85.9488 65.165C85.7538 64.914 85.5427 65.106 85.3597 65.247C85.3377 65.264 85.3118 65.273 85.3148 65.272C84.9408 65.195 84.5867 65.132 84.2387 65.045C84.1147 65.014 83.9478 64.957 83.8968 64.861C83.7218 64.53 83.4497 64.449 83.1117 64.466C83.0037 64.471 82.8328 64.328 82.5468 64.057C82.4958 64.009 82.3908 64.021 82.3128 63.997C82.2368 63.975 82.1627 63.942 82.0938 63.865C82.4988 63.887 82.9048 63.928 83.3098 63.926C83.7318 63.925 84.1558 63.845 84.5748 63.869C84.9918 63.892 85.4037 64 85.8997 64.085C85.8997 63.882 85.8808 63.675 85.9068 63.474C85.9228 63.344 85.9987 63.121 86.0577 63.118C86.2117 63.109 86.4708 63.158 86.5098 63.256C86.7438 63.837 87.1267 63.718 87.5287 63.513C87.9867 63.28 88.4317 63.023 88.8867 62.784C89.0547 62.696 89.2268 62.589 89.4088 62.558C90.3738 62.391 91.1817 61.897 91.9737 61.364C92.0007 61.345 92.0388 61.342 92.1308 61.314Z" fill="white"/>
<path d="M134.827 81.5259C134.676 81.5679 134.559 81.6319 134.445 81.6259C134.256 81.6149 134.069 81.5609 133.881 81.5249C133.846 81.5179 133.812 81.5099 133.778 81.5019C133.455 81.4309 133.33 81.4849 133.231 81.7879C133.193 81.9029 133.154 81.9979 133.061 82.0729C133.035 82.0939 133.025 82.1319 132.999 82.1759C133.226 82.3309 133.484 82.2059 133.714 82.2699C133.693 82.4169 133.436 82.5509 133.296 82.5109C133.165 82.4739 133.015 82.4349 132.89 82.4649C132.673 82.5149 132.475 82.5149 132.276 82.4209C132.249 82.4079 132.218 82.4059 132.181 82.3979C132.159 82.4329 132.138 82.4679 132.113 82.5089C132.08 82.4129 132.051 82.3259 132.023 82.2419C131.874 82.2259 131.765 82.2619 131.669 82.3749C131.561 82.5009 131.427 82.6039 131.306 82.7179C131.271 82.7519 131.226 82.7839 131.208 82.8269C131.12 83.0379 130.908 83.0619 130.707 83.1849C130.729 83.0689 130.73 82.9869 130.759 82.9179C130.821 82.7699 130.894 82.6279 130.967 82.4849C131.156 82.1199 131.495 82.0769 131.853 82.0699C132.016 82.0669 132.178 82.0509 132.341 82.0389C132.501 82.0269 132.604 81.9369 132.643 81.7889C132.681 81.6439 132.705 81.4949 132.723 81.3469C132.736 81.2419 132.762 81.1629 132.884 81.1479C133.529 81.0679 134.14 81.1939 134.731 81.4469C134.752 81.4559 134.767 81.4759 134.827 81.5259Z" fill="white"/>
<path d="M79.0211 82.3592C78.7441 82.4962 78.4421 82.6262 78.0931 82.6432C77.7651 82.6592 77.4311 82.6772 77.1141 82.7522C76.7221 82.8452 76.3431 82.9952 75.9611 83.1272C75.8241 83.1742 75.7641 83.2672 75.8681 83.4002C75.9511 83.5072 76.0391 83.6092 76.1331 83.7062C76.2181 83.7952 76.2371 83.8722 76.1081 83.9262C75.9801 83.9802 75.8491 84.0542 75.7161 84.0612C75.3991 84.0772 75.3901 84.0522 75.3751 83.7352C75.3701 83.6352 75.3431 83.5372 75.3211 83.4072C74.8261 83.5482 74.3631 83.6932 73.8931 83.8102C73.5211 83.9032 73.2331 84.1232 72.9271 84.3342C72.6021 84.5592 72.2081 84.5952 71.8281 84.6102C72.2231 84.3392 72.6141 84.0762 72.9991 83.8052C73.1091 83.7272 73.2091 83.6322 73.3001 83.5332C73.5741 83.2312 73.9031 83.0492 74.3161 83.0162C74.4641 83.0042 74.6121 82.9562 74.7551 82.9082C74.9251 82.8502 75.0291 82.7372 75.0431 82.5392C75.0481 82.4632 75.1161 82.3612 75.1831 82.3312C75.2291 82.3102 75.3211 82.3942 75.3941 82.4292C75.4811 82.4712 75.5731 82.5492 75.6571 82.5422C75.8041 82.5312 75.9661 82.4982 76.0871 82.4202C76.5121 82.1452 76.9601 82.1332 77.4421 82.2042C77.9671 82.2822 78.4991 82.3102 79.0211 82.3592Z" fill="white"/>
<path d="M119.066 79.1218C118.975 78.8718 118.826 78.7958 118.593 78.8068C118.147 78.8278 117.719 78.7678 117.306 78.5568C117.064 78.4328 116.764 78.4258 116.508 78.3228C116.246 78.2168 115.995 78.0738 115.76 77.9168C115.585 77.7998 115.443 77.6338 115.238 77.4448C115.347 77.4748 115.417 77.4758 115.461 77.5098C115.995 77.9158 116.63 77.9748 117.263 78.0428C117.699 78.0888 118.134 78.1458 118.563 78.1978C118.52 78.1268 118.458 78.0248 118.395 77.9218C118.631 77.8198 118.827 77.8578 119.057 78.0118C119.186 78.0988 119.456 78.0808 119.614 78.0058C120.49 77.5948 121.435 77.6138 122.362 77.5138C122.375 77.5128 122.39 77.5278 122.47 77.5718C121.537 78.0798 120.645 78.5708 119.638 78.8128C119.627 78.8398 119.616 78.8658 119.605 78.8918C119.888 79.0368 120.171 79.1818 120.489 79.3458C120.406 79.5148 120.356 79.7108 120.235 79.8398C120.035 80.0498 119.78 80.2128 119.469 80.0558C119.226 79.9318 118.987 79.7938 118.765 79.6348C118.599 79.5158 118.636 79.3528 118.822 79.2548C118.902 79.2128 118.98 79.1688 119.066 79.1218Z" fill="white"/>
<path d="M121.751 86.1212C121.977 85.9832 122.145 85.8802 122.315 85.7772C122.618 86.1282 122.511 86.8072 121.869 86.9542C121.8 86.8202 121.727 86.6812 121.629 86.4922C121.468 86.8462 121.256 87.1132 121.228 87.4532C121.218 87.5752 121.285 87.7022 121.302 87.8282C121.321 87.9722 121.324 88.1182 121.334 88.2632C121.315 88.2772 121.295 88.2902 121.275 88.3032C121.228 88.2372 121.172 88.1752 121.135 88.1042C120.973 87.7942 120.807 87.4852 120.662 87.1672C120.577 86.9802 120.624 86.8152 120.8 86.6772C120.899 86.5982 120.959 86.4702 121.071 86.3182C120.925 86.3042 120.848 86.2972 120.771 86.2892C120.746 86.0342 120.782 85.9962 121.145 85.9472C121.12 85.7762 121.122 85.5962 121.066 85.4362C120.973 85.1672 120.962 85.0402 121.185 84.8682C121.53 84.6012 121.901 84.3672 122.296 84.0952C122.328 84.2062 122.367 84.2652 122.351 84.2982C122.266 84.4732 122.183 84.6512 122.071 84.8092C121.924 85.0162 121.714 85.1822 121.747 85.4822C121.768 85.6732 121.751 85.8682 121.751 86.1212Z" fill="white"/>
<path d="M128.453 85.6668C128.795 85.6038 129.135 85.5148 129.48 85.4908C129.638 85.4798 129.806 85.5958 129.97 85.6548C130.048 85.6828 130.125 85.7118 130.213 85.7148C130.19 85.7018 130.167 85.6888 130.135 85.6708C130.209 85.5598 130.297 85.5218 130.411 85.6048C130.491 85.6628 130.557 85.6528 130.622 85.5828C130.659 85.5418 130.708 85.5098 130.738 85.4648C131.033 85.0158 131.544 84.8988 131.975 84.6588C131.987 84.6518 132.003 84.6558 132.036 84.6528C132.016 84.7978 131.905 84.8618 131.816 84.9378C131.611 85.1128 131.396 85.2788 131.195 85.4588C131.055 85.5838 130.928 85.7238 130.8 85.8628C130.759 85.9068 130.737 85.9688 130.705 86.0218C130.759 86.0528 130.81 86.0918 130.867 86.1118C130.926 86.1328 130.992 86.1358 131.058 86.1468C130.889 86.5528 130.425 86.7408 130.144 86.5518C130.206 86.4568 130.269 86.3618 130.33 86.2648C130.38 86.1858 130.351 86.1258 130.27 86.1008C130.091 86.0448 129.912 85.9838 129.728 85.9488C129.305 85.8668 128.879 85.8008 128.455 85.7278C128.454 85.7068 128.453 85.6868 128.453 85.6668Z" fill="white"/>
<path d="M103.411 74.583C103.14 74.286 102.96 74.043 102.735 73.853C102.397 73.569 102.206 73.633 102.034 74.04C101.85 74.476 101.46 74.645 101.126 74.331C100.376 73.625 99.4682 73.626 98.5392 73.564C98.0202 73.53 97.5112 73.338 96.9992 73.206C96.9342 73.19 96.8852 73.112 96.7852 73.025C98.1512 73.082 99.4352 73.738 100.757 73.23C100.804 73.164 100.852 73.097 100.9 73.031C100.718 72.898 100.537 72.766 100.34 72.622C100.44 72.333 100.635 72.193 101.034 72.303C101.177 72.343 101.391 72.128 101.572 72.029C101.478 71.897 101.413 71.702 101.285 71.643C100.875 71.454 100.791 71.136 100.819 70.736C100.857 70.212 100.883 69.687 100.913 69.186C101.095 69.339 101.348 69.47 101.472 69.678C101.6 69.895 101.653 70.186 101.65 70.444C101.645 70.908 101.944 71.199 102.255 71.38C102.841 71.719 102.968 72.154 102.775 72.751C102.764 72.786 102.778 72.829 102.785 72.946C103.105 72.762 103.387 72.599 103.651 72.447C104.12 72.865 103.956 73.382 103.868 73.85C103.82 74.104 103.581 74.322 103.411 74.583Z" fill="white"/>
<path d="M82.0505 74.5108C81.7285 75.0518 81.2065 74.9888 80.9535 74.9128C79.9905 74.6278 79.4175 75.2128 78.6565 75.7188C79.0625 75.9048 79.3845 76.0528 79.7055 76.2008C79.4415 77.0718 78.3725 77.4268 77.5975 76.7108C77.7175 76.4858 77.8415 76.2538 77.9585 76.0348C76.7395 75.7708 76.0325 76.6028 75.1965 77.2948C75.1875 77.1478 75.1555 77.0628 75.1825 77.0098C75.5065 76.3848 75.8245 75.7548 76.1775 75.1468C76.3285 74.8848 76.6025 74.8508 76.9005 74.9208C77.1245 74.9718 77.3615 74.9678 77.7135 74.9998C77.5815 74.7558 77.5165 74.6348 77.4495 74.5088C77.7955 74.2238 77.8595 74.2318 78.3105 74.7038C78.5285 74.5038 78.8165 74.3388 78.9575 74.0908C79.1855 73.6888 79.5065 73.5858 79.8815 73.7068C80.5995 73.9398 81.2995 74.2288 82.0505 74.5108Z" fill="white"/>
<path d="M83.2773 82.0428C84.6623 82.0138 85.7053 82.5158 86.2073 83.8638C86.5723 83.3818 86.6993 83.3778 87.0263 83.8218C87.5443 83.2018 87.6413 82.2728 88.4743 81.9048C89.2143 81.5778 89.9673 81.3248 90.7773 81.2788C90.7973 81.3178 90.8183 81.3568 90.8383 81.3958C90.2863 81.7228 89.7503 82.0788 89.1803 82.3698C88.1793 82.8808 87.7483 83.7818 87.4383 84.7778C87.3693 85.0028 87.4953 85.1148 87.7033 85.1338C87.9583 85.1578 88.2143 85.1618 88.5353 85.1768C88.2703 85.7108 87.9143 86.1318 87.3843 86.2698C86.6353 86.4658 86.1123 85.9468 85.4963 85.4978C85.8263 85.4168 86.0823 85.3538 86.3413 85.2908C86.2203 83.9388 85.4053 83.1918 84.2333 82.7048C83.8833 82.5588 83.5943 82.2678 83.2773 82.0428Z" fill="white"/>
<path d="M106.178 82.1448C106.658 82.7358 107.129 82.1078 107.671 82.3258C107.611 82.6318 107.584 82.9808 107.462 83.2918C107.413 83.4158 107.159 83.4728 106.989 83.5308C106.853 83.5768 106.701 83.5938 106.556 83.5948C106.239 83.5978 105.922 83.5818 105.539 83.5718C105.653 83.2868 105.722 83.1158 105.784 82.9588C105.202 82.2928 104.432 81.9598 103.657 81.6338C102.893 81.3128 102.128 80.9898 101.395 80.5928C101.972 80.7228 102.555 80.8298 103.123 80.9898C103.69 81.1488 104.242 81.3618 104.844 81.5658C104.739 81.4738 104.651 81.3968 104.559 81.3168C104.852 81.0788 105.127 81.0258 105.397 81.3928C105.556 81.6098 105.744 81.6258 105.918 81.3778C106.075 81.1548 106.241 80.9378 106.421 80.7328C106.608 80.5188 106.781 80.2588 107.021 80.1288C108.115 79.5368 109.231 78.9828 110.357 78.4448C109.957 79.0088 109.47 79.4478 108.85 79.7628C108.484 79.9488 108.165 80.2458 107.858 80.5278C107.292 81.0468 106.75 81.5908 106.178 82.1448Z" fill="white"/>
<path d="M112.075 92.9279C111.811 93.6849 110.774 93.7959 110.062 93.1379C110.197 93.0649 110.336 93.0049 110.457 92.9199C110.627 92.8009 110.618 92.6489 110.586 92.4429C110.492 91.8359 109.993 91.8019 109.57 91.6319C109.461 91.5889 109.39 91.4449 109.308 91.3419C109.244 91.2599 109.19 91.1689 109.117 91.0609C109.203 91.0649 109.306 91.0609 109.407 91.0759C109.523 91.0929 109.64 91.1609 109.751 91.1479C110.215 91.0959 110.469 91.3189 110.579 91.7489H110.968C110.992 91.6249 111.015 91.5009 111.04 91.3769C111.128 90.9519 111.221 90.8499 111.642 90.7999C112.016 90.7559 112.393 90.7409 112.749 90.7139C112.645 90.9579 112.491 91.1269 112.177 91.2629C111.751 91.4469 111.381 91.8179 111.228 92.3089C111.168 92.5029 111.255 92.6739 111.455 92.7459C111.657 92.8189 111.868 92.8679 112.075 92.9279Z" fill="white"/>
<path d="M123.174 93.5041C123.039 93.6601 122.904 93.8161 122.771 93.9701C122.717 93.9291 122.702 93.9241 122.698 93.9141C122.659 93.8371 122.622 93.7581 122.585 93.6801C122.514 93.7381 122.436 93.7881 122.374 93.8551C122.233 94.0051 122.083 94.1521 121.971 94.3221C121.918 94.4021 121.934 94.5331 121.932 94.6401C121.928 94.9181 121.931 95.1961 121.931 95.4731C121.907 95.4761 121.883 95.4801 121.859 95.4831C121.819 95.3581 121.767 95.2361 121.74 95.1081C121.671 94.7761 121.606 94.4411 121.552 94.1061C121.527 93.9501 121.593 93.8351 121.752 93.7731C121.834 93.7411 121.917 93.6891 121.976 93.6251C122.076 93.5161 122.203 93.4121 122.072 93.2281C122.014 93.1451 122.082 93.0641 122.193 93.0781C122.425 93.1081 122.566 93.0371 122.6 92.8071C122.635 92.5731 122.766 92.4771 122.97 92.4771C123.378 92.4761 123.787 92.4961 124.195 92.5341C124.003 92.6741 123.798 92.7191 123.573 92.7121C123.474 92.7101 123.346 92.7411 123.278 92.8051C123.09 92.9821 122.928 93.1851 122.728 93.4071C122.887 93.4221 123.011 93.4341 123.134 93.4461C123.147 93.4651 123.161 93.4851 123.174 93.5041Z" fill="white"/>
<path d="M115.573 87.8439C115.592 87.7389 115.632 87.6329 115.624 87.5299C115.62 87.4639 115.545 87.4039 115.502 87.3409C115.448 87.3779 115.38 87.4049 115.343 87.4549C115.157 87.7099 114.927 87.8439 114.596 87.8439C114.417 87.8449 114.239 87.9529 114.058 88.0019C113.993 88.0189 113.92 88.0049 113.82 88.0049C114.057 87.7929 114.251 87.6029 114.462 87.4339C114.672 87.2659 114.899 87.1189 115.134 86.9529C115.091 86.9009 115.029 86.8449 114.992 86.7769C114.958 86.7119 114.949 86.6319 114.928 86.5599C115.008 86.5379 115.108 86.4749 115.165 86.5029C115.357 86.5949 115.449 86.5179 115.518 86.3519C115.623 86.1019 115.72 85.8479 115.838 85.6039C115.923 85.4269 116.049 85.2699 116.132 85.0929C116.274 84.7919 116.396 84.4829 116.53 84.1699C116.719 84.4109 116.592 84.6589 116.541 84.8949C116.513 85.0279 116.439 85.1209 116.575 85.2559C116.64 85.3189 116.621 85.5089 116.584 85.6249C116.456 86.0309 116.367 86.4649 115.98 86.7339C115.954 86.7519 115.945 86.7949 115.918 86.8419C116.211 86.9889 116.362 86.6979 116.596 86.6629C116.775 86.8469 116.799 87.2719 116.634 87.5749C116.492 87.8359 116.037 87.9539 115.573 87.8439Z" fill="white"/>
<path d="M69.1977 72.7251C69.3367 73.4691 68.9717 73.8721 68.3337 73.6611C68.2257 73.6251 68.0647 73.5421 68.0527 73.4621C67.9987 73.0781 67.7217 73.0761 67.4467 73.071C66.6287 73.058 65.9767 72.7271 65.4727 71.9571C65.7037 71.9011 65.9557 71.7671 66.1857 71.7981C66.6757 71.8631 67.1397 71.5591 67.1937 71.0531C67.2007 70.9861 67.1957 70.9171 67.1937 70.8491C67.1777 70.2441 67.2737 70.0961 67.8577 70.0101C68.9227 69.8561 69.9657 70.0641 71.0497 70.2261C70.7617 70.6661 70.3747 70.8121 69.9217 70.8371C69.5587 70.8561 69.1947 70.8641 68.8347 70.9041C68.7277 70.9151 68.5857 70.9931 68.5367 71.0821C68.3237 71.4741 68.1167 71.8741 67.9597 72.2901C67.9267 72.3751 68.0947 72.6341 68.2017 72.6561C68.5137 72.7211 68.8427 72.7071 69.1977 72.7251Z" fill="white"/>
<path d="M90.8253 73.451C90.3993 73.59 90.0903 73.981 89.5483 73.885C89.1693 73.819 88.8273 74.145 88.7193 74.522C88.6553 74.742 88.5733 74.961 88.4653 75.163C88.2693 75.533 88.3113 75.64 88.7193 75.692C88.8003 75.702 88.8823 75.699 88.9643 75.705C89.0443 75.71 89.1253 75.72 89.2053 75.728C89.1593 76.355 88.6573 76.809 87.9833 76.771C87.9743 76.762 87.9583 76.753 87.9563 76.742C87.8643 75.971 87.8713 75.989 87.1373 76.278C86.5633 76.503 86.1363 76.789 86.0043 77.47C85.9353 77.827 85.6193 78.137 85.3683 78.444C85.2833 77.524 85.4633 76.67 85.8603 75.868C85.9163 75.754 86.1113 75.685 86.2553 75.642C86.4493 75.584 86.6643 75.596 86.8563 75.535C87.0463 75.474 87.1973 75.364 87.0633 75.106C87.0173 75.017 87.0703 74.877 87.0793 74.738C87.5633 74.936 87.7743 74.802 87.8523 74.313C87.9863 73.478 87.9933 73.444 88.8513 73.335C89.4023 73.265 89.9633 73.273 90.5203 73.255C90.6183 73.252 90.7173 73.294 90.8163 73.315C90.8193 73.361 90.8223 73.406 90.8253 73.451Z" fill="white"/>
<path d="M75.4352 59.2848C74.9872 59.2898 74.5752 59.5728 74.0862 59.3198C73.7442 59.1438 73.3212 59.3538 73.1052 59.6818C72.9792 59.8738 72.8362 60.0578 72.6732 60.2188C72.3762 60.5138 72.3842 60.6288 72.7592 60.7988C72.8332 60.8328 72.9132 60.8538 72.9892 60.8838C73.0642 60.9138 73.1382 60.9468 73.2122 60.9778C72.9822 61.5628 72.3682 61.8478 71.7352 61.6108C71.7302 61.5998 71.7172 61.5868 71.7192 61.5758C71.8592 60.8118 71.8612 60.8318 71.0742 60.8898C70.4592 60.9348 69.9662 61.0808 69.6382 61.6918C69.4672 62.0128 69.0732 62.2148 68.7422 62.4328C68.9342 61.5298 69.3592 60.7678 69.9762 60.1198C70.0642 60.0268 70.2702 60.0188 70.4212 60.0208C70.6232 60.0228 70.8242 60.0988 71.0262 60.0968C71.2262 60.0948 71.4022 60.0348 71.3512 59.7488C71.3342 59.6498 71.4262 59.5318 71.4762 59.4018C71.8792 59.7348 72.1202 59.6688 72.3402 59.2258C72.7162 58.4678 72.7322 58.4378 73.5842 58.5878C74.1312 58.6848 74.6642 58.8588 75.2012 59.0068C75.2962 59.0328 75.3782 59.1028 75.4662 59.1518C75.4562 59.1958 75.4452 59.2398 75.4352 59.2848Z" fill="white"/>
<path d="M97.2073 86.6092C97.3953 86.4272 97.6143 86.2792 97.7453 86.0752C97.9353 85.7792 98.1873 85.6352 98.4983 85.7352C99.1373 85.9382 99.7593 86.1932 100.44 86.4462C100.135 86.8832 99.7303 86.8662 99.4723 86.7952C98.6563 86.5722 98.1383 87.0172 97.5113 87.5022C97.8423 87.6562 98.1163 87.7832 98.3903 87.9112C98.1483 88.5612 97.5003 88.8682 96.9313 88.6012C96.6613 88.4752 96.4793 88.3412 96.7543 88.0392C96.8203 87.9662 96.8333 87.8462 96.9163 87.6312C96.3963 87.7652 95.9343 87.8082 95.5493 88.0032C95.1723 88.1942 94.8743 88.5402 94.5423 88.8182C94.5093 88.8012 94.4773 88.7842 94.4453 88.7672C94.5083 88.5762 94.5513 88.3752 94.6373 88.1942C94.7763 87.9002 94.9463 87.6202 95.0973 87.3312C95.3243 86.8992 95.6203 86.6452 96.1503 86.8472C96.2723 86.8932 96.4343 86.8342 96.6293 86.8202C96.5633 86.6632 96.5193 86.5592 96.4723 86.4482C96.5013 86.2602 96.7863 86.2392 97.0083 86.4202C97.0593 86.4622 97.1043 86.5112 97.2073 86.6092Z" fill="white"/>
<path d="M129.396 90.3939C128.987 90.6269 128.595 90.8749 128.492 91.4159C128.728 91.4579 128.992 91.5049 129.282 91.5569C129.215 91.6719 129.138 91.8039 129.043 91.9669C128.84 91.7369 128.613 91.6799 128.348 91.7169C128.423 91.7949 128.498 91.8729 128.569 91.9469C128.23 92.2779 127.905 92.5939 127.56 92.9289C127.536 92.6619 127.464 92.3949 127.563 92.1279C127.593 92.0469 127.678 91.9799 127.751 91.9219C127.815 91.8699 127.905 91.8499 127.967 91.7969C128.015 91.7569 128.058 91.6889 128.065 91.6289C128.068 91.6019 127.979 91.5639 127.915 91.5199C127.979 91.4709 128.073 91.4289 128.117 91.3569C128.163 91.2819 128.187 91.1719 128.174 91.0849C128.133 90.8149 128.15 90.7439 128.392 90.6249C128.605 90.5209 128.822 90.4219 129.047 90.3459C129.148 90.3119 129.269 90.3399 129.382 90.3399C129.386 90.3579 129.391 90.3759 129.396 90.3939Z" fill="white"/>
<path fill-rule="evenodd" clip-rule="evenodd" d="M111.939 139.429C110.656 141.868 108.096 143.533 105.151 143.533C102.264 143.533 99.7477 141.934 98.4408 139.575L30.4688 137.321V115.74L30.9818 115.63C30.9758 115.52 30.9737 115.409 30.9737 115.298C30.9737 111.376 34.1588 108.191 38.0808 108.191C39.3548 108.191 40.5507 108.527 41.5847 109.115C41.5457 108.812 41.5258 108.504 41.5258 108.191C41.5258 104.269 44.7097 101.084 48.6327 101.084C52.5557 101.084 55.7397 104.269 55.7397 108.191C55.7397 108.27 55.7388 108.349 55.7358 108.427C56.9778 108.804 58.0338 109.609 58.7338 110.669C61.2388 107.542 65.0877 105.539 69.4007 105.539C76.5527 105.539 82.4277 111.047 83.0137 118.048C83.8737 117.714 84.8097 117.53 85.7878 117.53C88.8027 117.53 91.4137 119.275 92.6647 121.809C93.2957 121.4 94.0478 121.163 94.8548 121.163C97.0807 121.163 98.8877 122.97 98.8877 125.195C98.8877 125.279 98.8848 125.361 98.8798 125.443C100.387 126 101.472 127.43 101.517 129.119C102.599 128.534 103.836 128.203 105.151 128.203C108.916 128.203 112.051 130.924 112.695 134.505C113.293 134.054 114.036 133.786 114.842 133.786C116.811 133.786 118.409 135.385 118.409 137.354C118.409 139.324 116.811 140.922 114.842 140.922C113.646 140.922 112.587 140.333 111.939 139.429Z" fill="white"/>
<path fill-rule="evenodd" clip-rule="evenodd" d="M89.5833 147C88.2993 149.439 85.7403 151.104 82.7943 151.104C79.9083 151.104 77.3923 149.505 76.0853 147.146L8.11328 144.892V123.311L8.62528 123.2C8.62028 123.091 8.61728 122.98 8.61728 122.869C8.61728 118.947 11.8023 115.762 15.7253 115.762C16.9983 115.762 18.1943 116.098 19.2293 116.686C19.1893 116.383 19.1693 116.075 19.1693 115.762C19.1693 111.839 22.3543 108.655 26.2763 108.655C30.1993 108.655 33.3843 111.839 33.3843 115.762C33.3843 115.841 33.3823 115.92 33.3803 115.998C34.6213 116.375 35.6783 117.179 36.3783 118.239C38.8823 115.113 42.7313 113.11 47.0443 113.11C54.1963 113.11 60.0723 118.618 60.6573 125.619C61.5173 125.285 62.4533 125.101 63.4313 125.101C66.4463 125.101 69.0573 126.846 70.3093 129.38C70.9393 128.971 71.6923 128.733 72.4993 128.733C74.7243 128.733 76.5313 130.54 76.5313 132.766C76.5313 132.85 76.5293 132.932 76.5243 133.014C78.0313 133.57 79.1153 135.001 79.1603 136.689C80.2423 136.105 81.4803 135.774 82.7943 135.774C86.5603 135.774 89.6953 138.495 90.3383 142.076C90.9363 141.625 91.6793 141.357 92.4853 141.357C94.4543 141.357 96.0533 142.956 96.0533 144.925C96.0533 146.894 94.4543 148.493 92.4853 148.493C91.2893 148.493 90.2303 147.904 89.5833 147Z" fill="white" fill-opacity="0.79"/>
<path fill-rule="evenodd" clip-rule="evenodd" d="M5.39091 120.138C7.18691 120.176 8.81191 120.151 10.2119 120.013C16.9789 119.372 34.2799 122.041 36.5349 123.135C38.7919 124.255 46.3019 127.138 50.4299 127.377C54.5809 127.592 65.8589 128.045 71.8589 129.806C77.8819 131.595 87.2869 133.142 90.8509 133.596C93.1519 133.889 100.573 136.131 107.024 137.439C99.9189 137.946 92.0469 137.946 87.7609 137.946H44.3179C38.2419 137.946 17.1059 142.708 2.12891 145.729C2.48891 136.985 3.59691 128.434 5.39091 120.138Z" fill="#D4EA8E"/>
<path fill-rule="evenodd" clip-rule="evenodd" d="M2.129 145.726C17.106 142.705 38.239 137.943 44.315 137.943H87.758C92.044 137.943 99.916 137.943 107.022 137.436C110.676 137.197 114.127 136.822 116.788 136.262C124.683 134.581 145.548 132.927 152 131.592C158.45 130.257 184.458 129.244 192.917 129.244C201.375 129.244 211.819 125.934 215.473 124.921C219.128 123.906 237.758 123.266 246.488 125.241C255.218 127.269 261.984 124.253 267.353 123.586C272.722 122.919 281.744 122.919 285.962 122.012C288.801 121.401 294.204 122.785 299.325 123.65C301.081 132.83 302.001 142.307 302.001 152H132.294C92.331 150.587 49.264 148.571 2.125 145.841C2.126 145.802 2.128 145.764 2.129 145.726Z" fill="#C3E15F"/>
<path fill-rule="evenodd" clip-rule="evenodd" d="M2.277 142.8H301.722C301.906 145.843 302 148.911 302 152H2C2 148.911 2.093 145.843 2.277 142.8Z" fill="#8CC927"/>
<path fill-rule="evenodd" clip-rule="evenodd" d="M2.11137 146.186C17.3434 145.092 38.8544 143.366 45.0354 143.366L86.3444 146.324C90.7034 146.324 102.04 146.507 109.266 146.324C112.981 146.237 116.027 148.218 118.733 148.015C126.762 147.406 147.979 146.807 154.54 146.324C161.1 145.841 187.547 145.473 196.149 145.473C204.75 145.473 215.37 144.275 219.086 143.908C222.803 143.541 241.748 143.309 250.626 144.024C259.503 144.758 266.383 143.667 271.843 143.425C277.303 143.183 286.477 143.183 290.767 142.855C292.743 142.704 297.128 142.891 301.742 143.124C301.914 146.061 302.001 149.02 302.001 152H126.291C87.9024 150.487 46.7634 148.507 2.10938 146.238C2.11038 146.221 2.11137 146.203 2.11137 146.186Z" fill="#99D939"/>
<path d="M244.205 121.09V132.593C244.193 133.055 243.907 133.439 243.551 133.528C243.08 133.647 242.479 133.254 242.409 132.593V115.978C242.271 114.642 241.251 113.6 240.038 113.459C238.62 113.294 237.206 114.392 237.018 115.978V136.429C236.846 136.833 236.44 137.08 236.025 137.041C235.67 137.007 235.36 136.769 235.219 136.429V124.926C234.878 123.536 233.59 122.617 232.262 122.741C231.104 122.849 230.11 123.729 229.828 124.926V136.429C229.952 136.999 230.445 138.922 232.262 140.302C233.416 141.179 234.592 141.447 235.219 141.542V151.764H244.205V138.985C244.784 138.88 246.434 138.504 247.815 137.041C249.506 135.249 249.59 133.103 249.596 132.593V121.09C249.177 120.021 248.182 119.291 247.063 119.229C245.833 119.161 244.673 119.911 244.205 121.09Z" fill="url(#paint7_linear_678_3461)"/>
<path fill-rule="evenodd" clip-rule="evenodd" d="M241.024 116.539C241.024 116.539 240.629 115.709 240.629 115.353C240.629 115.135 240.806 114.958 241.024 114.958C241.242 114.958 241.419 115.135 241.419 115.353C241.419 115.709 241.024 116.539 241.024 116.539Z" fill="#F8ABDC"/>
<path fill-rule="evenodd" clip-rule="evenodd" d="M237.864 120.899C237.864 120.899 237.469 120.069 237.469 119.713C237.469 119.495 237.646 119.318 237.864 119.318C238.082 119.318 238.259 119.495 238.259 119.713C238.259 120.069 237.864 120.899 237.864 120.899Z" fill="#F8ABDC"/>
<path fill-rule="evenodd" clip-rule="evenodd" d="M229.829 125.541C229.829 125.541 229.434 124.711 229.434 124.355C229.434 124.137 229.611 123.96 229.829 123.96C230.047 123.96 230.224 124.137 230.224 124.355C230.224 124.711 229.829 125.541 229.829 125.541Z" fill="#F8ABDC"/>
<path fill-rule="evenodd" clip-rule="evenodd" d="M248.923 128.292C248.923 128.292 248.527 127.462 248.527 127.106C248.527 126.888 248.705 126.711 248.923 126.711C249.141 126.711 249.318 126.888 249.318 127.106C249.318 127.462 248.923 128.292 248.923 128.292Z" fill="#F8ABDC"/>
<path fill-rule="evenodd" clip-rule="evenodd" d="M241.024 116.539C241.024 116.539 240.629 117.369 240.629 117.725C240.629 117.943 240.806 118.12 241.024 118.12C241.242 118.12 241.419 117.943 241.419 117.725C241.419 117.369 241.024 116.539 241.024 116.539Z" fill="#F8ABDC"/>
<path fill-rule="evenodd" clip-rule="evenodd" d="M237.864 120.899C237.864 120.899 237.469 121.729 237.469 122.084C237.469 122.303 237.646 122.48 237.864 122.48C238.082 122.48 238.259 122.303 238.259 122.084C238.259 121.729 237.864 120.899 237.864 120.899Z" fill="#F8ABDC"/>
<path fill-rule="evenodd" clip-rule="evenodd" d="M229.829 125.541C229.829 125.541 229.434 126.371 229.434 126.727C229.434 126.945 229.611 127.122 229.829 127.122C230.047 127.122 230.224 126.945 230.224 126.727C230.224 126.371 229.829 125.541 229.829 125.541Z" fill="#F8ABDC"/>
<path fill-rule="evenodd" clip-rule="evenodd" d="M248.923 128.292C248.923 128.292 248.527 129.122 248.527 129.478C248.527 129.696 248.705 129.873 248.923 129.873C249.141 129.873 249.318 129.696 249.318 129.478C249.318 129.122 248.923 128.292 248.923 128.292Z" fill="#F8ABDC"/>
<path fill-rule="evenodd" clip-rule="evenodd" d="M241.023 116.539C241.023 116.539 241.853 116.144 242.209 116.144C242.427 116.144 242.604 116.321 242.604 116.539C242.604 116.757 242.427 116.935 242.209 116.935C241.853 116.935 241.023 116.539 241.023 116.539Z" fill="#F8ABDC"/>
<path fill-rule="evenodd" clip-rule="evenodd" d="M237.863 120.899C237.863 120.899 238.693 120.503 239.049 120.503C239.267 120.503 239.444 120.68 239.444 120.899C239.444 121.117 239.267 121.294 239.049 121.294C238.693 121.294 237.863 120.899 237.863 120.899Z" fill="#F8ABDC"/>
<path fill-rule="evenodd" clip-rule="evenodd" d="M229.828 125.541C229.828 125.541 230.658 125.146 231.014 125.146C231.232 125.146 231.409 125.323 231.409 125.541C231.409 125.759 231.232 125.937 231.014 125.937C230.658 125.937 229.828 125.541 229.828 125.541Z" fill="#F8ABDC"/>
<path fill-rule="evenodd" clip-rule="evenodd" d="M248.926 128.292C248.926 128.292 249.756 127.896 250.112 127.896C250.33 127.896 250.507 128.074 250.507 128.292C250.507 128.51 250.33 128.687 250.112 128.687C249.756 128.687 248.926 128.292 248.926 128.292Z" fill="#F8ABDC"/>
<path fill-rule="evenodd" clip-rule="evenodd" d="M241.026 116.539C241.026 116.539 240.196 116.144 239.84 116.144C239.622 116.144 239.445 116.321 239.445 116.539C239.445 116.757 239.622 116.935 239.84 116.935C240.196 116.935 241.026 116.539 241.026 116.539Z" fill="#F8ABDC"/>
<path fill-rule="evenodd" clip-rule="evenodd" d="M237.862 120.899C237.862 120.899 237.032 120.503 236.676 120.503C236.458 120.503 236.281 120.68 236.281 120.899C236.281 121.117 236.458 121.294 236.676 121.294C237.032 121.294 237.862 120.899 237.862 120.899Z" fill="#F8ABDC"/>
<path fill-rule="evenodd" clip-rule="evenodd" d="M229.827 125.541C229.827 125.541 228.997 125.146 228.641 125.146C228.423 125.146 228.246 125.323 228.246 125.541C228.246 125.759 228.423 125.937 228.641 125.937C228.997 125.937 229.827 125.541 229.827 125.541Z" fill="#F8ABDC"/>
<path fill-rule="evenodd" clip-rule="evenodd" d="M248.925 128.292C248.925 128.292 248.095 127.896 247.739 127.896C247.521 127.896 247.344 128.074 247.344 128.292C247.344 128.51 247.521 128.687 247.739 128.687C248.095 128.687 248.925 128.292 248.925 128.292Z" fill="#F8ABDC"/>
<path fill-rule="evenodd" clip-rule="evenodd" d="M241.023 116.539C241.023 116.539 241.314 115.718 241.553 115.48C241.699 115.333 241.937 115.333 242.083 115.48C242.229 115.626 242.229 115.863 242.083 116.009C241.844 116.248 241.023 116.539 241.023 116.539Z" fill="#F8ABDC"/>
<path fill-rule="evenodd" clip-rule="evenodd" d="M237.863 120.899C237.863 120.899 238.154 120.077 238.393 119.839C238.539 119.693 238.776 119.693 238.922 119.839C239.069 119.985 239.069 120.223 238.922 120.369C238.684 120.607 237.863 120.899 237.863 120.899Z" fill="#F8ABDC"/>
<path fill-rule="evenodd" clip-rule="evenodd" d="M229.828 125.541C229.828 125.541 230.119 124.72 230.358 124.482C230.504 124.335 230.741 124.335 230.887 124.482C231.034 124.628 231.034 124.865 230.887 125.012C230.649 125.25 229.828 125.541 229.828 125.541Z" fill="#F8ABDC"/>
<path fill-rule="evenodd" clip-rule="evenodd" d="M248.926 128.292C248.926 128.292 249.217 127.47 249.456 127.232C249.602 127.086 249.839 127.086 249.985 127.232C250.132 127.378 250.132 127.616 249.985 127.762C249.747 128 248.926 128.292 248.926 128.292Z" fill="#F8ABDC"/>
<path fill-rule="evenodd" clip-rule="evenodd" d="M241.025 116.539C241.025 116.539 240.204 116.831 239.965 117.069C239.819 117.215 239.819 117.453 239.965 117.599C240.112 117.745 240.349 117.745 240.495 117.599C240.734 117.36 241.025 116.539 241.025 116.539Z" fill="#F8ABDC"/>
<path fill-rule="evenodd" clip-rule="evenodd" d="M237.865 120.899C237.865 120.899 237.044 121.19 236.805 121.428C236.659 121.575 236.659 121.812 236.805 121.958C236.951 122.104 237.189 122.104 237.335 121.958C237.573 121.72 237.865 120.899 237.865 120.899Z" fill="#F8ABDC"/>
<path fill-rule="evenodd" clip-rule="evenodd" d="M229.83 125.541C229.83 125.541 229.009 125.833 228.77 126.071C228.624 126.217 228.624 126.455 228.77 126.601C228.916 126.747 229.154 126.747 229.3 126.601C229.538 126.363 229.83 125.541 229.83 125.541Z" fill="#F8ABDC"/>
<path fill-rule="evenodd" clip-rule="evenodd" d="M248.923 128.292C248.923 128.292 248.102 128.583 247.863 128.822C247.717 128.968 247.717 129.205 247.863 129.351C248.009 129.498 248.247 129.498 248.393 129.351C248.631 129.113 248.923 128.292 248.923 128.292Z" fill="#F8ABDC"/>
<path fill-rule="evenodd" clip-rule="evenodd" d="M241.023 116.539C241.023 116.539 241.844 116.831 242.083 117.069C242.229 117.215 242.229 117.453 242.083 117.599C241.937 117.745 241.699 117.745 241.553 117.599C241.314 117.36 241.023 116.539 241.023 116.539Z" fill="#F8ABDC"/>
<path fill-rule="evenodd" clip-rule="evenodd" d="M237.863 120.899C237.863 120.899 238.684 121.19 238.922 121.428C239.069 121.575 239.069 121.812 238.922 121.958C238.776 122.104 238.539 122.104 238.393 121.958C238.154 121.72 237.863 120.899 237.863 120.899Z" fill="#F8ABDC"/>
<path fill-rule="evenodd" clip-rule="evenodd" d="M229.828 125.541C229.828 125.541 230.649 125.833 230.887 126.071C231.034 126.217 231.034 126.455 230.887 126.601C230.741 126.747 230.504 126.747 230.358 126.601C230.119 126.363 229.828 125.541 229.828 125.541Z" fill="#F8ABDC"/>
<path fill-rule="evenodd" clip-rule="evenodd" d="M248.926 128.292C248.926 128.292 249.747 128.583 249.985 128.822C250.132 128.968 250.132 129.205 249.985 129.351C249.839 129.498 249.602 129.498 249.456 129.351C249.217 129.113 248.926 128.292 248.926 128.292Z" fill="#F8ABDC"/>
<path fill-rule="evenodd" clip-rule="evenodd" d="M241.025 116.539C241.025 116.539 240.734 115.718 240.495 115.48C240.349 115.333 240.112 115.333 239.965 115.48C239.819 115.626 239.819 115.863 239.965 116.009C240.204 116.248 241.025 116.539 241.025 116.539Z" fill="#F8ABDC"/>
<path fill-rule="evenodd" clip-rule="evenodd" d="M237.865 120.899C237.865 120.899 237.573 120.077 237.335 119.839C237.189 119.693 236.951 119.693 236.805 119.839C236.659 119.985 236.659 120.223 236.805 120.369C237.044 120.607 237.865 120.899 237.865 120.899Z" fill="#F8ABDC"/>
<path fill-rule="evenodd" clip-rule="evenodd" d="M229.83 125.541C229.83 125.541 229.538 124.72 229.3 124.482C229.154 124.335 228.916 124.335 228.77 124.482C228.624 124.628 228.624 124.865 228.77 125.012C229.009 125.25 229.83 125.541 229.83 125.541Z" fill="#F8ABDC"/>
<path fill-rule="evenodd" clip-rule="evenodd" d="M248.923 128.292C248.923 128.292 248.631 127.47 248.393 127.232C248.247 127.086 248.009 127.086 247.863 127.232C247.717 127.378 247.717 127.616 247.863 127.762C248.102 128 248.923 128.292 248.923 128.292Z" fill="#F8ABDC"/>
<path d="M241.025 116.955C241.255 116.955 241.441 116.769 241.441 116.539C241.441 116.309 241.255 116.123 241.025 116.123C240.796 116.123 240.609 116.309 240.609 116.539C240.609 116.769 240.796 116.955 241.025 116.955Z" fill="#EEF6F9"/>
<path d="M237.861 121.315C238.091 121.315 238.277 121.129 238.277 120.899C238.277 120.669 238.091 120.483 237.861 120.483C237.632 120.483 237.445 120.669 237.445 120.899C237.445 121.129 237.632 121.315 237.861 121.315Z" fill="#EEF6F9"/>
<path d="M229.83 125.957C230.06 125.957 230.246 125.771 230.246 125.541C230.246 125.311 230.06 125.125 229.83 125.125C229.6 125.125 229.414 125.311 229.414 125.541C229.414 125.771 229.6 125.957 229.83 125.957Z" fill="#EEF6F9"/>
<path d="M248.924 128.708C249.154 128.708 249.34 128.522 249.34 128.292C249.34 128.062 249.154 127.876 248.924 127.876C248.694 127.876 248.508 128.062 248.508 128.292C248.508 128.522 248.694 128.708 248.924 128.708Z" fill="#EEF6F9"/>
<path fill-rule="evenodd" clip-rule="evenodd" d="M251.726 116.865C251.726 116.865 250.672 115.028 250.809 114.285C250.929 113.629 251.56 113.194 252.216 113.315C252.872 113.436 253.307 114.067 253.186 114.723C253.05 115.465 251.726 116.865 251.726 116.865Z" fill="#F47BCA"/>
<path fill-rule="evenodd" clip-rule="evenodd" d="M251.355 116.406C251.355 116.406 252.387 115.646 252.916 115.634C253.383 115.624 253.771 115.995 253.782 116.463C253.792 116.93 253.421 117.318 252.953 117.328C252.424 117.34 251.355 116.406 251.355 116.406Z" fill="#F58DD1"/>
<path fill-rule="evenodd" clip-rule="evenodd" d="M251.307 116.581C251.201 116.443 251.227 116.246 251.365 116.14C251.502 116.035 251.7 116.06 251.806 116.198L252.706 117.371C252.812 117.508 252.786 117.706 252.649 117.811C252.511 117.917 252.314 117.891 252.208 117.753L251.307 116.581Z" fill="#6F6F6F"/>
<path d="M251.404 116.253C251.404 116.253 250.495 115.487 250.402 115.927" stroke="#6F6F6F" stroke-width="0.83" stroke-miterlimit="1.5" stroke-linecap="round" stroke-linejoin="round"/>
<path d="M251.459 116.317C251.459 116.317 250.909 115.262 250.656 115.634" stroke="#6F6F6F" stroke-width="0.83" stroke-miterlimit="1.5" stroke-linecap="round" stroke-linejoin="round"/>
<path fill-rule="evenodd" clip-rule="evenodd" d="M252.298 117.275C252.298 117.275 251.319 115.081 251.473 114.246C251.608 113.508 252.318 113.019 253.056 113.155C253.794 113.291 254.283 114 254.147 114.738C253.993 115.573 252.298 117.275 252.298 117.275Z" fill="url(#paint8_linear_678_3461)"/>
<path fill-rule="evenodd" clip-rule="evenodd" d="M252.301 117.275C252.301 117.275 253.251 115.776 253.846 115.763C254.371 115.751 254.808 116.169 254.819 116.695C254.831 117.221 254.413 117.657 253.887 117.668C253.292 117.682 252.301 117.275 252.301 117.275Z" fill="url(#paint9_linear_678_3461)"/>
<path d="M108.632 77.1212C108.632 81.4062 106.988 84.7222 103.702 87.0692C101.288 88.7712 98.6937 89.6222 95.9207 89.6222C95.2537 89.6222 94.9197 90.0332 94.9197 90.8552C94.9197 96.1962 94.8687 104.207 94.7657 114.889C94.7657 115.828 94.4827 116.327 93.9177 116.386C92.1207 116.621 89.3987 116.621 85.7527 116.386C85.0847 116.327 84.7517 115.946 84.7517 115.241L84.5977 45.6922C84.5977 45.0462 85.0337 44.6942 85.9067 44.6352C88.0127 44.5182 91.4277 44.5472 96.1517 44.7232C99.1817 44.7232 101.955 45.7502 104.472 47.8052C107.245 49.9762 108.632 52.7052 108.632 55.9922V77.1212ZM99.4647 67.1732C99.5157 63.2412 99.3617 60.3942 99.0027 58.6332C98.6937 57.2832 98.2577 56.4622 97.6927 56.1682C97.1277 56.1102 96.5887 56.0512 96.0747 55.9922C95.8697 55.9922 95.4847 55.9332 94.9197 55.8162C94.7137 55.7572 94.5347 55.8752 94.3807 56.1682C94.2267 56.4622 94.1747 56.7842 94.2267 57.1372C94.2267 61.5392 94.2517 67.9072 94.3037 76.2412C94.3037 76.7692 94.5597 77.1502 95.0737 77.3852C95.3307 77.5032 95.6647 77.4732 96.0747 77.2972C97.3077 77.1802 98.1037 76.7402 98.4627 75.9772C99.0797 74.6272 99.4127 71.6922 99.4647 67.1732Z" fill="#1E40AF"/>
<path d="M132.047 115.241C132.047 115.946 131.637 116.327 130.815 116.386C123.728 116.797 117.283 116.738 111.48 116.21C110.915 116.151 110.632 115.593 110.632 114.537L110.555 45.7802C110.555 45.1342 110.838 44.8112 111.403 44.8112C115.357 44.7532 121.751 44.7822 130.584 44.8992C131.405 44.8992 131.816 45.2522 131.816 45.9562V50.7102C131.765 53.4682 131.739 55.2142 131.739 55.9482C131.739 56.6822 131.457 57.0492 130.892 57.0492H122.033C121.263 57.0492 120.878 57.3712 120.878 58.0172C120.878 58.3102 120.852 60.3942 120.801 64.2682C120.749 67.5542 120.749 70.0192 120.801 71.6632C120.801 72.3082 121.109 72.6902 121.725 72.8072C122.804 72.9832 125.191 73.0132 128.889 72.8952C129.557 72.8952 129.916 73.2472 129.967 73.9522C130.019 75.0082 129.993 76.9742 129.89 79.8502C129.788 83.1962 129.736 85.1622 129.736 85.7492C129.736 86.5702 129.454 86.9812 128.889 86.9812H121.956C121.443 86.9812 121.134 87.4212 121.032 88.3022C120.775 90.7672 120.724 95.4332 120.878 102.3C120.878 103.063 121.34 103.503 122.264 103.62C124.267 103.562 127.092 103.503 130.738 103.444C131.559 103.444 131.97 103.826 131.97 104.589C131.97 109.343 131.996 112.894 132.047 115.241Z" fill="#1E40AF"/>
<path d="M165.79 116.034C165.842 116.386 165.611 116.562 165.097 116.562H161.091C159.14 116.503 157.445 116.474 156.007 116.474C155.545 116.474 154.955 114.566 154.236 110.751C153.722 107.875 153.337 105.41 153.08 103.356C153.029 102.945 152.746 102.74 152.233 102.74H149.229C148.869 102.74 148.638 102.945 148.535 103.356C148.073 106.878 147.457 110.957 146.686 115.593C146.481 116.122 146.25 116.386 145.993 116.386H136.518C135.697 116.386 135.363 116.034 135.517 115.329C137.263 103.356 139.009 91.354 140.755 79.322C144.196 56.198 146.25 44.606 146.918 44.547C149.691 44.371 152.464 44.371 155.237 44.547C155.853 44.606 157.753 56.227 160.937 79.41C162.581 91.618 164.198 103.826 165.79 116.034ZM152.387 91.647C151.617 84.956 151.129 81.611 150.923 81.611C150.666 81.611 150.358 83.049 149.999 85.925C149.793 87.803 149.588 89.71 149.383 91.647C149.331 91.823 149.575 91.955 150.114 92.043C150.654 92.131 151.154 92.146 151.617 92.087C152.13 92.029 152.387 91.882 152.387 91.647Z" fill="#1E40AF"/>
<path d="M194.753 97.3702C194.753 102.769 193.752 107.201 191.749 110.663C189.49 114.596 186.203 116.562 181.889 116.562C176.856 116.562 173.364 114.097 171.413 109.167C170.078 105.763 169.41 100.568 169.41 93.5842V59.6022C169.41 56.4912 170.155 53.3802 171.644 50.2702C173.903 45.5162 177.319 43.1392 181.889 43.1392C186.768 43.1392 190.26 45.2522 192.365 49.4772C194.06 52.7052 194.856 57.0192 194.753 62.4192C194.753 64.1802 194.728 65.5302 194.676 66.4692C194.625 67.4082 194.24 67.9362 193.521 68.0532C192.802 68.1712 191.518 68.2002 189.669 68.1412C187.102 68.0242 185.946 67.9652 186.203 67.9652C185.279 67.9652 184.791 67.4662 184.739 66.4692V60.2182C184.431 57.1662 183.481 55.6402 181.889 55.6402C179.784 55.6402 178.731 60.8642 178.731 71.3112V96.3132C178.731 97.9572 178.936 99.5122 179.347 100.979C179.912 103.033 180.759 104.061 181.889 104.061C183.892 104.061 184.893 100.979 184.893 94.8172V92.3522C184.842 91.3542 184.816 90.7672 184.816 90.5912C184.816 89.5342 185.176 89.0062 185.895 89.0062C189.13 89.0062 191.698 89.0362 193.598 89.0942C194.368 89.0942 194.753 89.5932 194.753 90.5912C194.805 92.1172 194.805 94.3762 194.753 97.3702Z" fill="#1E40AF"/>
<path d="M219.402 115.241C219.402 115.946 218.991 116.327 218.169 116.386C211.082 116.797 204.637 116.738 198.834 116.21C198.269 116.151 197.987 115.593 197.987 114.537L197.91 45.7802C197.91 45.1342 198.192 44.8112 198.757 44.8112C202.711 44.7532 209.105 44.7822 217.938 44.8992C218.76 44.8992 219.171 45.2522 219.171 45.9562V50.7102C219.119 53.4682 219.094 55.2142 219.094 55.9482C219.094 56.6822 218.811 57.0492 218.246 57.0492H209.388C208.617 57.0492 208.232 57.3712 208.232 58.0172C208.232 58.3102 208.206 60.3942 208.155 64.2682C208.104 67.5542 208.104 70.0192 208.155 71.6632C208.155 72.3082 208.463 72.6902 209.079 72.8072C210.158 72.9832 212.546 73.0132 216.243 72.8952C216.911 72.8952 217.271 73.2472 217.322 73.9522C217.373 75.0082 217.348 76.9742 217.245 79.8502C217.142 83.1962 217.091 85.1622 217.091 85.7492C217.091 86.5702 216.808 86.9812 216.243 86.9812H209.311C208.797 86.9812 208.489 87.4212 208.386 88.3022C208.129 90.7672 208.078 95.4332 208.232 102.3C208.232 103.063 208.694 103.503 209.619 103.62C211.621 103.562 214.446 103.503 218.092 103.444C218.914 103.444 219.325 103.826 219.325 104.589C219.325 109.343 219.35 112.894 219.402 115.241Z" fill="#1E40AF"/>
<path d="M152.013 14.116C153.725 14.116 155.112 12.7285 155.112 11.017C155.112 9.30544 153.725 7.91797 152.013 7.91797C150.302 7.91797 148.914 9.30544 148.914 11.017C148.914 12.7285 150.302 14.116 152.013 14.116Z" fill="#25282B"/>
<path fill-rule="evenodd" clip-rule="evenodd" d="M170.421 10.798C171.201 10.901 171.751 11.617 171.648 12.397C171.545 13.177 170.829 13.727 170.049 13.624C169.269 13.522 168.719 12.8051 168.821 12.0251C168.924 11.2451 169.641 10.695 170.421 10.798Z" fill="#25282B"/>
<path fill-rule="evenodd" clip-rule="evenodd" d="M134.096 10.798C133.316 10.901 132.766 11.617 132.868 12.397C132.971 13.177 133.688 13.727 134.468 13.624C135.248 13.522 135.798 12.8051 135.695 12.0251C135.592 11.2451 134.876 10.695 134.096 10.798Z" fill="#25282B"/>
<path fill-rule="evenodd" clip-rule="evenodd" d="M205.986 20.3269C206.713 20.6279 207.059 21.4629 206.758 22.1899C206.456 22.9169 205.622 23.2619 204.895 22.9609C204.168 22.6599 203.823 21.8259 204.124 21.0989C204.425 20.3719 205.259 20.0259 205.986 20.3269Z" fill="#25282B"/>
<path fill-rule="evenodd" clip-rule="evenodd" d="M98.5321 20.3269C97.8051 20.6279 97.4601 21.4629 97.7611 22.1899C98.0621 22.9169 98.8961 23.2619 99.6231 22.9609C100.35 22.6599 100.696 21.8259 100.395 21.0989C100.094 20.3719 99.2591 20.0259 98.5321 20.3269Z" fill="#25282B"/>
<path fill-rule="evenodd" clip-rule="evenodd" d="M237.871 38.7368C238.495 39.2158 238.613 40.1108 238.134 40.7348C237.655 41.3598 236.76 41.4778 236.136 40.9988C235.512 40.5198 235.394 39.6238 235.873 38.9998C236.351 38.3758 237.247 38.2578 237.871 38.7368Z" fill="#25282B"/>
<path fill-rule="evenodd" clip-rule="evenodd" d="M66.6472 38.7368C66.0232 39.2158 65.9052 40.1108 66.3842 40.7348C66.8632 41.3598 67.7582 41.4778 68.3832 40.9988C69.0072 40.5198 69.1252 39.6238 68.6462 38.9998C68.1672 38.3758 67.2712 38.2578 66.6472 38.7368Z" fill="#25282B"/>
<path fill-rule="evenodd" clip-rule="evenodd" d="M263.908 64.7718C264.387 65.3958 264.269 66.2908 263.645 66.7698C263.021 67.2488 262.125 67.1308 261.646 66.5068C261.167 65.8828 261.285 64.9878 261.909 64.5088C262.534 64.0298 263.429 64.1478 263.908 64.7718Z" fill="#25282B"/>
<path fill-rule="evenodd" clip-rule="evenodd" d="M40.6108 64.7718C40.1318 65.3958 40.2498 66.2908 40.8738 66.7698C41.4978 67.2488 42.3938 67.1308 42.8728 66.5068C43.3518 65.8828 43.2338 64.9878 42.6098 64.5088C41.9858 64.0298 41.0898 64.1478 40.6108 64.7718Z" fill="#25282B"/>
<path fill-rule="evenodd" clip-rule="evenodd" d="M188.517 14.3971C189.277 14.6011 189.729 15.3831 189.525 16.1431C189.322 16.9031 188.539 17.3551 187.779 17.1511C187.019 16.9471 186.568 16.1651 186.771 15.4051C186.975 14.6451 187.757 14.1931 188.517 14.3971Z" fill="#25282B"/>
<path fill-rule="evenodd" clip-rule="evenodd" d="M116.002 14.3971C115.242 14.6011 114.79 15.3831 114.994 16.1431C115.198 16.9031 115.98 17.3551 116.74 17.1511C117.5 16.9471 117.951 16.1651 117.748 15.4051C117.544 14.6451 116.762 14.1931 116.002 14.3971Z" fill="#25282B"/>
<path fill-rule="evenodd" clip-rule="evenodd" d="M223.367 27.0382C224.849 27.8932 225.357 29.7902 224.502 31.2712C223.647 32.7532 221.749 33.2612 220.268 32.4062C218.787 31.5502 218.278 29.6532 219.134 28.1722C219.989 26.6912 221.886 26.1822 223.367 27.0382Z" fill="#25282B"/>
<path fill-rule="evenodd" clip-rule="evenodd" d="M81.1478 27.0382C79.6658 27.8932 79.1578 29.7902 80.0128 31.2712C80.8688 32.7532 82.7658 33.2612 84.2468 32.4062C85.7288 31.5502 86.2368 29.6532 85.3818 28.1722C84.5258 26.6912 82.6288 26.1822 81.1478 27.0382Z" fill="#25282B"/>
<path fill-rule="evenodd" clip-rule="evenodd" d="M251.742 50.9009C252.298 51.4569 252.298 52.3609 251.742 52.9169C251.186 53.4729 250.282 53.4729 249.726 52.9169C249.17 52.3609 249.17 51.4569 249.726 50.9009C250.282 50.3449 251.186 50.3449 251.742 50.9009Z" fill="#25282B"/>
<path fill-rule="evenodd" clip-rule="evenodd" d="M52.7764 50.9009C52.2204 51.4569 52.2204 52.3609 52.7764 52.9169C53.3334 53.4729 54.2364 53.4729 54.7924 52.9169C55.3494 52.3609 55.3494 51.4569 54.7924 50.9009C54.2364 50.3449 53.3334 50.3449 52.7764 50.9009Z" fill="#25282B"/>
<path fill-rule="evenodd" clip-rule="evenodd" d="M275.607 79.2752C276.463 80.7562 275.954 82.6532 274.473 83.5082C272.992 84.3642 271.095 83.8552 270.239 82.3742C269.384 80.8932 269.892 78.9952 271.374 78.1402C272.855 77.2852 274.752 77.7932 275.607 79.2752Z" fill="#25282B"/>
<path fill-rule="evenodd" clip-rule="evenodd" d="M28.9117 79.2752C28.0557 80.7562 28.5647 82.6532 30.0457 83.5082C31.5277 84.3642 33.4247 83.8552 34.2797 82.3742C35.1347 80.8932 34.6267 78.9952 33.1447 78.1402C31.6637 77.2852 29.7667 77.7932 28.9117 79.2752Z" fill="#25282B"/>
<path fill-rule="evenodd" clip-rule="evenodd" d="M282.317 96.658C282.618 97.385 282.272 98.219 281.545 98.52C280.818 98.821 279.984 98.476 279.683 97.749C279.382 97.022 279.727 96.188 280.454 95.886C281.181 95.585 282.016 95.931 282.317 96.658Z" fill="#25282B"/>
<path fill-rule="evenodd" clip-rule="evenodd" d="M22.203 96.658C21.901 97.385 22.247 98.219 22.974 98.52C23.701 98.821 24.535 98.476 24.836 97.749C25.138 97.022 24.792 96.188 24.065 95.886C23.338 95.585 22.504 95.931 22.203 96.658Z" fill="#25282B"/>
<path fill-rule="evenodd" clip-rule="evenodd" d="M288.248 114.128C288.451 114.888 288 115.67 287.24 115.874C286.48 116.077 285.698 115.626 285.494 114.866C285.29 114.106 285.742 113.323 286.502 113.12C287.262 112.916 288.044 113.368 288.248 114.128Z" fill="#25282B"/>
<path fill-rule="evenodd" clip-rule="evenodd" d="M16.2713 114.128C16.0683 114.888 16.5193 115.67 17.2793 115.874C18.0393 116.077 18.8223 115.626 19.0253 114.866C19.2293 114.106 18.7773 113.323 18.0173 113.12C17.2573 112.916 16.4753 113.368 16.2713 114.128Z" fill="#25282B"/>
<path fill-rule="evenodd" clip-rule="evenodd" d="M291.846 132.222C291.949 133.002 291.399 133.719 290.619 133.822C289.839 133.924 289.122 133.374 289.02 132.594C288.917 131.814 289.467 131.098 290.247 130.995C291.027 130.892 291.743 131.442 291.846 132.222Z" fill="#25282B"/>
<path fill-rule="evenodd" clip-rule="evenodd" d="M12.6726 132.222C12.5696 133.002 13.1196 133.719 13.8996 133.822C14.6796 133.924 15.3966 133.374 15.4996 132.594C15.6016 131.814 15.0516 131.098 14.2716 130.995C13.4916 130.892 12.7756 131.442 12.6726 132.222Z" fill="#25282B"/>
<path fill-rule="evenodd" clip-rule="evenodd" d="M294.726 150.632C294.726 152.342 293.337 153.731 291.626 153.731C289.916 153.731 288.527 152.342 288.527 150.632C288.527 148.921 289.916 147.532 291.626 147.532C293.337 147.532 294.726 148.921 294.726 150.632Z" fill="#25282B"/>
<path fill-rule="evenodd" clip-rule="evenodd" d="M9.79297 150.632C9.79297 152.342 11.181 153.731 12.892 153.731C14.603 153.731 15.991 152.342 15.991 150.632C15.991 148.921 14.603 147.532 12.892 147.532C11.181 147.532 9.79297 148.921 9.79297 150.632Z" fill="#25282B"/>
<defs>
<linearGradient id="paint0_linear_678_3461" x1="152.202" y1="43.039" x2="152" y2="144.627" gradientUnits="userSpaceOnUse">
<stop stop-color="#B4D8E7"/>
<stop offset="1" stop-color="#EFF9FD"/>
</linearGradient>
<linearGradient id="paint1_linear_678_3461" x1="282.353" y1="97.4728" x2="259.14" y2="124.106" gradientUnits="userSpaceOnUse">
<stop stop-color="#788FE3"/>
<stop offset="1" stop-color="#D9EDF5"/>
</linearGradient>
<linearGradient id="paint2_linear_678_3461" x1="273.318" y1="98.0428" x2="256.801" y2="122.537" gradientUnits="userSpaceOnUse">
<stop stop-color="#9CDEEA"/>
<stop offset="1" stop-color="#D7ECF4"/>
</linearGradient>
<linearGradient id="paint3_linear_678_3461" x1="279.035" y1="91.6368" x2="248.582" y2="124.107" gradientUnits="userSpaceOnUse">
<stop stop-color="#78E387"/>
<stop offset="1" stop-color="#D8ECF4"/>
</linearGradient>
<linearGradient id="paint4_linear_678_3461" x1="273.932" y1="87.0508" x2="240.276" y2="121.989" gradientUnits="userSpaceOnUse">
<stop stop-color="#F3DC92"/>
<stop offset="1" stop-color="#DBEEF6"/>
</linearGradient>
<linearGradient id="paint5_linear_678_3461" x1="265.257" y1="87.0118" x2="240.75" y2="117.819" gradientUnits="userSpaceOnUse">
<stop stop-color="#F4AE83"/>
<stop offset="1" stop-color="#D8ECF4"/>
</linearGradient>
<linearGradient id="paint6_linear_678_3461" x1="273.919" y1="76.9998" x2="235.793" y2="121.06" gradientUnits="userSpaceOnUse">
<stop stop-color="#FF7070"/>
<stop offset="1" stop-color="#DEEFF7"/>
</linearGradient>
<linearGradient id="paint7_linear_678_3461" x1="247.063" y1="138.53" x2="241.042" y2="95.647" gradientUnits="userSpaceOnUse">
<stop stop-color="#0C543B"/>
<stop offset="1" stop-color="#39AC84"/>
</linearGradient>
<linearGradient id="paint8_linear_678_3461" x1="253.57" y1="114.878" x2="247.769" y2="119.393" gradientUnits="userSpaceOnUse">
<stop stop-color="#F8ABDC"/>
<stop offset="1" stop-color="#FF1DAD"/>
</linearGradient>
<linearGradient id="paint9_linear_678_3461" x1="253.573" y1="114.878" x2="247.772" y2="119.393" gradientUnits="userSpaceOnUse">
<stop stop-color="#F8ABDC"/>
<stop offset="1" stop-color="#FF1DAD"/>
</linearGradient>
</defs>
</svg>
