<svg width="301" height="152" viewBox="0 0 301 152" fill="none" xmlns="http://www.w3.org/2000/svg">
<path fill-rule="evenodd" clip-rule="evenodd" d="M300.883 150C300.883 67.157 233.725 0 150.883 0C68.0398 0 0.882812 67.157 0.882812 150H300.883Z" fill="url(#paint0_linear_621_110)"/>
<path fill-rule="evenodd" clip-rule="evenodd" d="M278.757 71.5498C283.638 79.4868 287.799 87.9138 291.152 96.7398C277.716 99.5968 265.648 108.301 258.998 121.514C257.976 123.545 257.103 125.648 256.386 127.806L230.25 119.122C231.388 115.696 232.775 112.357 234.398 109.132C243.838 90.3748 260.158 77.3408 278.757 71.5498Z" fill="url(#paint1_linear_621_110)"/>
<path fill-rule="evenodd" clip-rule="evenodd" d="M278.757 71.5498C282.863 78.2278 286.46 85.2518 289.495 92.5678C275.086 95.8538 262.196 105.302 255.04 119.521C253.921 121.745 252.965 124.046 252.18 126.408L230.25 119.122C231.388 115.696 232.775 112.357 234.398 109.132C243.838 90.3748 260.158 77.3408 278.757 71.5498Z" fill="url(#paint2_linear_621_110)"/>
<path fill-rule="evenodd" clip-rule="evenodd" d="M278.757 71.5498C282.071 76.9388 285.054 82.5548 287.676 88.3668C272.334 92.1088 258.663 102.297 251.014 117.495C249.797 119.914 248.757 122.418 247.903 124.987L230.25 119.122C231.388 115.696 232.775 112.357 234.398 109.132C243.838 90.3748 260.158 77.3408 278.757 71.5498Z" fill="url(#paint3_linear_621_110)"/>
<path fill-rule="evenodd" clip-rule="evenodd" d="M285.796 84.3598C269.606 88.5578 255.235 99.4418 247.132 115.541C245.82 118.148 244.699 120.847 243.779 123.617L230.25 119.122C231.388 115.696 232.775 112.357 234.398 109.132C243.838 90.3748 260.158 77.3408 278.757 71.5498C281.303 75.6908 283.654 79.9648 285.796 84.3598Z" fill="url(#paint4_linear_621_110)"/>
<path fill-rule="evenodd" clip-rule="evenodd" d="M278.757 71.5498C280.453 74.3068 282.061 77.1238 283.579 79.9948C266.516 84.7138 251.431 96.3438 242.853 113.388C241.436 116.202 240.226 119.116 239.233 122.106L230.25 119.122C231.388 115.696 232.775 112.357 234.398 109.132C243.838 90.3748 260.158 77.3408 278.757 71.5498Z" fill="url(#paint5_linear_621_110)"/>
<path fill-rule="evenodd" clip-rule="evenodd" d="M278.757 71.5498C279.564 72.8608 280.35 74.1858 281.117 75.5238C263.215 80.7998 247.451 93.1798 238.407 111.15C236.882 114.181 235.58 117.318 234.51 120.537L230.25 119.122C231.388 115.696 232.775 112.357 234.398 109.132C243.838 90.3748 260.158 77.3408 278.757 71.5498Z" fill="url(#paint6_linear_621_110)"/>
<path d="M91.0136 59.314C90.9476 59.415 90.9176 59.469 90.8796 59.518C90.8386 59.572 90.7906 59.62 90.7106 59.711C90.8196 59.693 90.8846 59.683 90.9496 59.672C90.9656 59.694 90.9806 59.716 90.9956 59.738C90.7256 59.914 90.4556 60.09 90.1856 60.267C90.1916 60.283 90.1966 60.3 90.2026 60.317C90.3666 60.253 90.5306 60.189 90.6956 60.125C90.7096 60.157 90.7246 60.188 90.7396 60.22C90.4356 60.368 90.1316 60.516 89.8276 60.664C89.5936 60.777 89.3146 60.866 89.5316 61.221C89.5486 61.25 89.5526 61.316 89.5326 61.334C89.3226 61.537 89.1146 61.744 88.8886 61.929C88.7416 62.049 88.5756 62.155 88.4016 62.234C87.9526 62.437 87.5036 62.646 87.0376 62.801C86.8016 62.88 86.5286 62.849 86.2746 62.867C86.2816 63.232 86.2816 63.232 87.6126 63.551C87.6876 64.458 86.9336 64.754 86.3616 65.108C85.9986 65.333 85.5176 65.127 85.1496 64.901C84.8096 64.692 84.5106 64.414 84.1496 64.132C84.3546 63.989 84.5026 63.881 84.6566 63.782C84.8996 63.625 85.0116 63.396 84.8316 63.165C84.6366 62.914 84.4256 63.106 84.2426 63.247C84.2206 63.264 84.1946 63.273 84.1976 63.272C83.8236 63.195 83.4696 63.132 83.1216 63.045C82.9976 63.014 82.8306 62.957 82.7796 62.861C82.6046 62.53 82.3326 62.449 81.9946 62.466C81.8866 62.471 81.7156 62.328 81.4296 62.057C81.3786 62.009 81.2736 62.021 81.1956 61.997C81.1196 61.975 81.0456 61.942 80.9766 61.865C81.3816 61.887 81.7876 61.928 82.1926 61.926C82.6146 61.925 83.0386 61.845 83.4576 61.869C83.8746 61.892 84.2866 62 84.7826 62.085C84.7826 61.882 84.7636 61.675 84.7896 61.474C84.8056 61.344 84.8816 61.121 84.9406 61.118C85.0946 61.109 85.3536 61.158 85.3926 61.256C85.6266 61.837 86.0096 61.718 86.4116 61.513C86.8696 61.28 87.3146 61.023 87.7696 60.784C87.9376 60.696 88.1096 60.589 88.2916 60.558C89.2566 60.391 90.0646 59.897 90.8566 59.364C90.8836 59.345 90.9216 59.342 91.0136 59.314Z" fill="white"/>
<path d="M133.71 79.5259C133.559 79.5679 133.442 79.6319 133.328 79.6259C133.139 79.6149 132.952 79.5609 132.764 79.5249C132.729 79.5179 132.695 79.5099 132.661 79.5019C132.338 79.4309 132.213 79.4849 132.114 79.7879C132.076 79.9029 132.037 79.9979 131.944 80.0729C131.918 80.0939 131.908 80.1319 131.882 80.1759C132.109 80.3309 132.367 80.2059 132.597 80.2699C132.576 80.4169 132.319 80.5509 132.179 80.5109C132.048 80.4739 131.898 80.4349 131.773 80.4649C131.556 80.5149 131.358 80.5149 131.159 80.4209C131.132 80.4079 131.101 80.4059 131.064 80.3979C131.042 80.4329 131.021 80.4679 130.996 80.5089C130.963 80.4129 130.934 80.3259 130.906 80.2419C130.757 80.2259 130.648 80.2619 130.552 80.3749C130.444 80.5009 130.31 80.6039 130.189 80.7179C130.154 80.7519 130.109 80.7839 130.091 80.8269C130.003 81.0379 129.791 81.0619 129.59 81.1849C129.612 81.0689 129.613 80.9869 129.642 80.9179C129.704 80.7699 129.777 80.6279 129.85 80.4849C130.039 80.1199 130.378 80.0769 130.736 80.0699C130.899 80.0669 131.061 80.0509 131.224 80.0389C131.384 80.0269 131.487 79.9369 131.526 79.7889C131.564 79.6439 131.588 79.4949 131.606 79.3469C131.619 79.2419 131.645 79.1629 131.767 79.1479C132.412 79.0679 133.023 79.1939 133.614 79.4469C133.635 79.4559 133.65 79.4759 133.71 79.5259Z" fill="white"/>
<path d="M77.9039 80.3592C77.6269 80.4962 77.3249 80.6262 76.9759 80.6432C76.6479 80.6592 76.3139 80.6772 75.9969 80.7522C75.6049 80.8452 75.2259 80.9952 74.8439 81.1272C74.7069 81.1742 74.6469 81.2672 74.7509 81.4002C74.8339 81.5072 74.9219 81.6092 75.0159 81.7062C75.1009 81.7952 75.1199 81.8722 74.9909 81.9262C74.8629 81.9802 74.7319 82.0542 74.5989 82.0612C74.2819 82.0772 74.2729 82.0522 74.2579 81.7352C74.2529 81.6352 74.2259 81.5372 74.2039 81.4072C73.7089 81.5482 73.2459 81.6932 72.7759 81.8102C72.4039 81.9032 72.1159 82.1232 71.8099 82.3342C71.4849 82.5592 71.0909 82.5952 70.7109 82.6102C71.1059 82.3392 71.4969 82.0762 71.8819 81.8052C71.9919 81.7272 72.0919 81.6322 72.1829 81.5332C72.4569 81.2312 72.7859 81.0492 73.1989 81.0162C73.3469 81.0042 73.4949 80.9562 73.6379 80.9082C73.8079 80.8502 73.9119 80.7372 73.9259 80.5392C73.9309 80.4632 73.9989 80.3612 74.0659 80.3312C74.1119 80.3102 74.2039 80.3942 74.2769 80.4292C74.3639 80.4712 74.4559 80.5492 74.5399 80.5422C74.6869 80.5312 74.8489 80.4982 74.9699 80.4202C75.3949 80.1452 75.8429 80.1332 76.3249 80.2042C76.8499 80.2822 77.3819 80.3102 77.9039 80.3592Z" fill="white"/>
<path d="M117.949 77.1218C117.858 76.8718 117.709 76.7958 117.476 76.8068C117.03 76.8278 116.602 76.7678 116.189 76.5568C115.947 76.4328 115.647 76.4258 115.391 76.3228C115.129 76.2168 114.878 76.0738 114.643 75.9168C114.468 75.7998 114.326 75.6338 114.121 75.4448C114.23 75.4748 114.3 75.4758 114.344 75.5098C114.878 75.9158 115.513 75.9748 116.146 76.0428C116.582 76.0888 117.017 76.1458 117.446 76.1978C117.403 76.1268 117.341 76.0248 117.278 75.9218C117.514 75.8198 117.71 75.8578 117.94 76.0118C118.069 76.0988 118.339 76.0808 118.497 76.0058C119.373 75.5948 120.318 75.6138 121.245 75.5138C121.258 75.5128 121.273 75.5278 121.353 75.5718C120.42 76.0798 119.528 76.5708 118.521 76.8128C118.51 76.8398 118.499 76.8658 118.488 76.8918C118.771 77.0368 119.054 77.1818 119.372 77.3458C119.289 77.5148 119.239 77.7108 119.118 77.8398C118.918 78.0498 118.663 78.2128 118.352 78.0558C118.109 77.9318 117.87 77.7938 117.648 77.6348C117.482 77.5158 117.519 77.3528 117.705 77.2548C117.785 77.2128 117.863 77.1688 117.949 77.1218Z" fill="white"/>
<path d="M120.634 84.1212C120.86 83.9832 121.028 83.8802 121.198 83.7772C121.501 84.1282 121.394 84.8072 120.752 84.9542C120.683 84.8202 120.61 84.6812 120.512 84.4922C120.351 84.8462 120.139 85.1132 120.111 85.4532C120.101 85.5752 120.168 85.7022 120.185 85.8282C120.204 85.9722 120.207 86.1182 120.217 86.2632C120.198 86.2772 120.178 86.2902 120.158 86.3032C120.111 86.2372 120.055 86.1752 120.018 86.1042C119.856 85.7942 119.69 85.4852 119.545 85.1672C119.46 84.9802 119.507 84.8152 119.683 84.6772C119.782 84.5982 119.842 84.4702 119.954 84.3182C119.808 84.3042 119.731 84.2972 119.654 84.2892C119.629 84.0342 119.665 83.9962 120.028 83.9472C120.003 83.7762 120.005 83.5962 119.949 83.4362C119.856 83.1672 119.845 83.0402 120.068 82.8682C120.413 82.6012 120.784 82.3672 121.179 82.0952C121.211 82.2062 121.25 82.2652 121.234 82.2982C121.149 82.4732 121.066 82.6512 120.954 82.8092C120.807 83.0162 120.597 83.1822 120.63 83.4822C120.651 83.6732 120.634 83.8682 120.634 84.1212Z" fill="white"/>
<path d="M127.336 83.6668C127.678 83.6038 128.018 83.5148 128.363 83.4908C128.521 83.4798 128.689 83.5958 128.853 83.6548C128.931 83.6828 129.008 83.7118 129.096 83.7148C129.073 83.7018 129.05 83.6888 129.018 83.6708C129.092 83.5598 129.18 83.5218 129.294 83.6048C129.374 83.6628 129.44 83.6528 129.505 83.5828C129.542 83.5418 129.591 83.5098 129.621 83.4648C129.916 83.0158 130.427 82.8988 130.858 82.6588C130.87 82.6518 130.886 82.6558 130.919 82.6528C130.899 82.7978 130.788 82.8618 130.699 82.9378C130.494 83.1128 130.279 83.2788 130.078 83.4588C129.938 83.5838 129.811 83.7238 129.683 83.8628C129.642 83.9068 129.62 83.9688 129.588 84.0218C129.642 84.0528 129.693 84.0918 129.75 84.1118C129.809 84.1328 129.875 84.1358 129.941 84.1468C129.772 84.5528 129.308 84.7408 129.027 84.5518C129.089 84.4568 129.152 84.3618 129.213 84.2648C129.263 84.1858 129.234 84.1258 129.153 84.1008C128.974 84.0448 128.795 83.9838 128.611 83.9488C128.188 83.8668 127.762 83.8008 127.338 83.7278C127.337 83.7068 127.336 83.6868 127.336 83.6668Z" fill="white"/>
<path d="M102.294 72.583C102.023 72.286 101.843 72.043 101.618 71.853C101.28 71.569 101.089 71.633 100.917 72.04C100.733 72.476 100.343 72.645 100.009 72.331C99.259 71.625 98.351 71.626 97.422 71.564C96.903 71.53 96.394 71.338 95.882 71.206C95.817 71.19 95.768 71.112 95.668 71.025C97.034 71.082 98.318 71.738 99.64 71.23C99.687 71.164 99.735 71.097 99.783 71.031C99.601 70.898 99.42 70.766 99.223 70.622C99.323 70.333 99.518 70.193 99.917 70.303C100.06 70.343 100.274 70.128 100.455 70.029C100.361 69.897 100.296 69.702 100.168 69.643C99.758 69.454 99.674 69.136 99.702 68.736C99.74 68.212 99.766 67.687 99.796 67.186C99.978 67.339 100.231 67.47 100.355 67.678C100.483 67.895 100.536 68.186 100.533 68.444C100.528 68.908 100.827 69.199 101.138 69.38C101.724 69.719 101.851 70.154 101.658 70.751C101.647 70.786 101.661 70.829 101.668 70.946C101.988 70.762 102.27 70.599 102.534 70.447C103.003 70.865 102.839 71.382 102.751 71.85C102.703 72.104 102.464 72.322 102.294 72.583Z" fill="white"/>
<path d="M80.9333 72.5108C80.6113 73.0518 80.0893 72.9888 79.8363 72.9128C78.8733 72.6278 78.3003 73.2128 77.5393 73.7188C77.9453 73.9048 78.2673 74.0528 78.5883 74.2008C78.3243 75.0718 77.2553 75.4268 76.4803 74.7108C76.6003 74.4858 76.7243 74.2538 76.8413 74.0348C75.6223 73.7708 74.9153 74.6028 74.0793 75.2948C74.0703 75.1478 74.0383 75.0628 74.0653 75.0098C74.3893 74.3848 74.7073 73.7548 75.0603 73.1468C75.2113 72.8848 75.4853 72.8508 75.7833 72.9208C76.0073 72.9718 76.2443 72.9678 76.5963 72.9998C76.4643 72.7558 76.3993 72.6348 76.3323 72.5088C76.6783 72.2238 76.7423 72.2318 77.1933 72.7038C77.4113 72.5038 77.6993 72.3388 77.8403 72.0908C78.0683 71.6888 78.3893 71.5858 78.7643 71.7068C79.4823 71.9398 80.1823 72.2288 80.9333 72.5108Z" fill="white"/>
<path d="M82.1602 80.0428C83.5452 80.0138 84.5881 80.5158 85.0901 81.8638C85.4551 81.3818 85.5821 81.3778 85.9091 81.8218C86.4271 81.2018 86.5242 80.2728 87.3572 79.9048C88.0972 79.5778 88.8502 79.3248 89.6602 79.2788C89.6802 79.3178 89.7012 79.3568 89.7212 79.3958C89.1692 79.7228 88.6332 80.0788 88.0632 80.3698C87.0622 80.8808 86.6312 81.7818 86.3212 82.7778C86.2522 83.0028 86.3782 83.1148 86.5862 83.1338C86.8412 83.1578 87.0972 83.1618 87.4182 83.1768C87.1532 83.7108 86.7972 84.1318 86.2672 84.2698C85.5182 84.4658 84.9952 83.9468 84.3792 83.4978C84.7092 83.4168 84.9652 83.3538 85.2242 83.2908C85.1032 81.9388 84.2881 81.1918 83.1161 80.7048C82.7661 80.5588 82.4772 80.2678 82.1602 80.0428Z" fill="white"/>
<path d="M105.06 80.1448C105.54 80.7358 106.011 80.1078 106.553 80.3258C106.493 80.6318 106.466 80.9808 106.344 81.2918C106.295 81.4158 106.041 81.4728 105.871 81.5308C105.735 81.5768 105.583 81.5938 105.438 81.5948C105.121 81.5978 104.804 81.5818 104.421 81.5718C104.535 81.2868 104.604 81.1158 104.666 80.9588C104.084 80.2928 103.314 79.9598 102.539 79.6338C101.775 79.3128 101.01 78.9898 100.277 78.5928C100.854 78.7228 101.437 78.8298 102.005 78.9898C102.572 79.1488 103.124 79.3618 103.726 79.5658C103.621 79.4738 103.533 79.3968 103.441 79.3168C103.734 79.0788 104.009 79.0258 104.279 79.3928C104.438 79.6098 104.626 79.6258 104.8 79.3778C104.957 79.1548 105.123 78.9378 105.303 78.7328C105.49 78.5188 105.663 78.2588 105.903 78.1288C106.997 77.5368 108.113 76.9828 109.239 76.4448C108.839 77.0088 108.352 77.4478 107.732 77.7628C107.366 77.9488 107.047 78.2458 106.74 78.5278C106.174 79.0468 105.632 79.5908 105.06 80.1448Z" fill="white"/>
<path d="M110.958 90.9279C110.694 91.6849 109.657 91.7959 108.945 91.1379C109.08 91.0649 109.219 91.0049 109.34 90.9199C109.51 90.8009 109.501 90.6489 109.469 90.4429C109.375 89.8359 108.876 89.8019 108.453 89.6319C108.344 89.5889 108.273 89.4449 108.191 89.3419C108.127 89.2599 108.073 89.1689 108 89.0609C108.086 89.0649 108.189 89.0609 108.29 89.0759C108.406 89.0929 108.523 89.1609 108.634 89.1479C109.098 89.0959 109.352 89.3189 109.462 89.7489H109.851C109.875 89.6249 109.898 89.5009 109.923 89.3769C110.011 88.9519 110.104 88.8499 110.525 88.7999C110.899 88.7559 111.276 88.7409 111.632 88.7139C111.528 88.9579 111.374 89.1269 111.06 89.2629C110.634 89.4469 110.264 89.8179 110.111 90.3089C110.051 90.5029 110.138 90.6739 110.338 90.7459C110.54 90.8189 110.751 90.8679 110.958 90.9279Z" fill="white"/>
<path d="M122.057 91.5041C121.922 91.6601 121.787 91.8161 121.654 91.9701C121.6 91.9291 121.585 91.9241 121.581 91.9141C121.542 91.8371 121.505 91.7581 121.468 91.6801C121.397 91.7381 121.319 91.7881 121.257 91.8551C121.116 92.0051 120.966 92.1521 120.854 92.3221C120.801 92.4021 120.817 92.5331 120.815 92.6401C120.811 92.9181 120.814 93.1961 120.814 93.4731C120.79 93.4761 120.766 93.4801 120.742 93.4831C120.702 93.3581 120.65 93.2361 120.623 93.1081C120.554 92.7761 120.489 92.4411 120.435 92.1061C120.41 91.9501 120.476 91.8351 120.635 91.7731C120.717 91.7411 120.8 91.6891 120.859 91.6251C120.959 91.5161 121.086 91.4121 120.955 91.2281C120.897 91.1451 120.965 91.0641 121.076 91.0781C121.308 91.1081 121.449 91.0371 121.483 90.8071C121.518 90.5731 121.649 90.4771 121.853 90.4771C122.261 90.4761 122.67 90.4961 123.078 90.5341C122.886 90.6741 122.681 90.7191 122.456 90.7121C122.357 90.7101 122.229 90.7411 122.161 90.8051C121.973 90.9821 121.811 91.1851 121.611 91.4071C121.77 91.4221 121.894 91.4341 122.017 91.4461C122.03 91.4651 122.044 91.4851 122.057 91.5041Z" fill="white"/>
<path d="M114.456 85.8439C114.475 85.7389 114.515 85.6329 114.507 85.5299C114.503 85.4639 114.428 85.4039 114.385 85.3409C114.331 85.3779 114.263 85.4049 114.226 85.4549C114.04 85.7099 113.81 85.8439 113.479 85.8439C113.3 85.8449 113.122 85.9529 112.941 86.0019C112.876 86.0189 112.803 86.0049 112.703 86.0049C112.94 85.7929 113.134 85.6029 113.345 85.4339C113.555 85.2659 113.782 85.1189 114.017 84.9529C113.974 84.9009 113.912 84.8449 113.875 84.7769C113.841 84.7119 113.832 84.6319 113.811 84.5599C113.891 84.5379 113.991 84.4749 114.048 84.5029C114.24 84.5949 114.332 84.5179 114.401 84.3519C114.506 84.1019 114.603 83.8479 114.721 83.6039C114.806 83.4269 114.932 83.2699 115.015 83.0929C115.157 82.7919 115.279 82.4829 115.413 82.1699C115.602 82.4109 115.475 82.6589 115.424 82.8949C115.396 83.0279 115.322 83.1209 115.458 83.2559C115.523 83.3189 115.504 83.5089 115.467 83.6249C115.339 84.0309 115.25 84.4649 114.863 84.7339C114.837 84.7519 114.828 84.7949 114.801 84.8419C115.094 84.9889 115.245 84.6979 115.479 84.6629C115.658 84.8469 115.682 85.2719 115.517 85.5749C115.375 85.8359 114.92 85.9539 114.456 85.8439Z" fill="white"/>
<path d="M68.0805 70.7251C68.2195 71.4691 67.8545 71.8721 67.2165 71.6611C67.1085 71.6251 66.9475 71.5421 66.9355 71.4621C66.8815 71.0781 66.6045 71.0761 66.3295 71.071C65.5115 71.058 64.8595 70.7271 64.3555 69.9571C64.5865 69.9011 64.8385 69.7671 65.0685 69.7981C65.5585 69.8631 66.0225 69.5591 66.0765 69.0531C66.0835 68.9861 66.0785 68.9171 66.0765 68.8491C66.0605 68.2441 66.1565 68.0961 66.7405 68.0101C67.8055 67.8561 68.8485 68.0641 69.9325 68.2261C69.6445 68.6661 69.2575 68.8121 68.8045 68.8371C68.4415 68.8561 68.0775 68.8641 67.7175 68.9041C67.6105 68.9151 67.4685 68.9931 67.4195 69.0821C67.2065 69.4741 66.9995 69.8741 66.8425 70.2901C66.8095 70.3751 66.9775 70.6341 67.0845 70.6561C67.3965 70.7211 67.7255 70.7071 68.0805 70.7251Z" fill="white"/>
<path d="M89.7081 71.451C89.2821 71.59 88.9731 71.981 88.4311 71.885C88.0521 71.819 87.7101 72.145 87.6021 72.522C87.5381 72.742 87.4561 72.961 87.3481 73.163C87.1521 73.533 87.1941 73.64 87.6021 73.692C87.6831 73.702 87.7651 73.699 87.8471 73.705C87.9271 73.71 88.0081 73.72 88.0881 73.728C88.0421 74.355 87.5401 74.809 86.8661 74.771C86.8571 74.762 86.8411 74.753 86.8391 74.742C86.7471 73.971 86.7541 73.989 86.0201 74.278C85.4461 74.503 85.0191 74.789 84.8871 75.47C84.8181 75.827 84.5021 76.137 84.2511 76.444C84.1661 75.524 84.3461 74.67 84.7431 73.868C84.7991 73.754 84.9941 73.685 85.1381 73.642C85.3321 73.584 85.5471 73.596 85.7391 73.535C85.9291 73.474 86.0801 73.364 85.9461 73.106C85.9001 73.017 85.9531 72.877 85.9621 72.738C86.4461 72.936 86.6571 72.802 86.7351 72.313C86.8691 71.478 86.8761 71.444 87.7341 71.335C88.2851 71.265 88.8461 71.273 89.4031 71.255C89.5011 71.252 89.6001 71.294 89.6991 71.315C89.7021 71.361 89.7051 71.406 89.7081 71.451Z" fill="white"/>
<path d="M74.318 57.2848C73.87 57.2898 73.458 57.5728 72.969 57.3198C72.627 57.1438 72.204 57.3538 71.988 57.6818C71.862 57.8738 71.719 58.0578 71.556 58.2188C71.259 58.5138 71.267 58.6288 71.642 58.7988C71.716 58.8328 71.796 58.8538 71.872 58.8838C71.947 58.9138 72.021 58.9468 72.095 58.9778C71.865 59.5628 71.251 59.8478 70.618 59.6108C70.613 59.5998 70.6 59.5868 70.602 59.5758C70.742 58.8118 70.744 58.8318 69.957 58.8898C69.342 58.9348 68.849 59.0808 68.521 59.6918C68.35 60.0128 67.956 60.2148 67.625 60.4328C67.817 59.5298 68.242 58.7678 68.859 58.1198C68.947 58.0268 69.153 58.0188 69.304 58.0208C69.506 58.0228 69.707 58.0988 69.909 58.0968C70.109 58.0948 70.285 58.0348 70.234 57.7488C70.217 57.6498 70.309 57.5318 70.359 57.4018C70.762 57.7348 71.003 57.6688 71.223 57.2258C71.599 56.4678 71.615 56.4378 72.467 56.5878C73.014 56.6848 73.547 56.8588 74.084 57.0068C74.179 57.0328 74.261 57.1028 74.349 57.1518C74.339 57.1958 74.328 57.2398 74.318 57.2848Z" fill="white"/>
<path d="M96.0901 84.6092C96.2781 84.4272 96.4971 84.2792 96.6281 84.0752C96.8181 83.7792 97.0701 83.6352 97.3811 83.7352C98.0201 83.9382 98.6421 84.1932 99.3231 84.4462C99.0181 84.8832 98.6131 84.8662 98.3551 84.7952C97.5391 84.5722 97.0211 85.0172 96.3941 85.5022C96.7251 85.6562 96.9991 85.7832 97.2731 85.9112C97.0311 86.5612 96.3831 86.8682 95.8141 86.6012C95.5441 86.4752 95.3621 86.3412 95.6371 86.0392C95.7031 85.9662 95.7161 85.8462 95.7991 85.6312C95.2791 85.7652 94.8171 85.8082 94.4321 86.0032C94.0551 86.1942 93.7571 86.5402 93.4251 86.8182C93.3921 86.8012 93.3601 86.7842 93.3281 86.7672C93.3911 86.5762 93.4341 86.3752 93.5201 86.1942C93.6591 85.9002 93.8291 85.6202 93.9801 85.3312C94.2071 84.8992 94.5031 84.6452 95.0331 84.8472C95.1551 84.8932 95.3171 84.8342 95.5121 84.8202C95.4461 84.6632 95.4021 84.5592 95.3551 84.4482C95.3841 84.2602 95.6691 84.2392 95.8911 84.4202C95.9421 84.4622 95.9871 84.5112 96.0901 84.6092Z" fill="white"/>
<path d="M128.278 88.3939C127.869 88.6269 127.477 88.8749 127.374 89.4159C127.61 89.4579 127.874 89.5049 128.164 89.5569C128.097 89.6719 128.02 89.8039 127.925 89.9669C127.722 89.7369 127.495 89.6799 127.23 89.7169C127.305 89.7949 127.38 89.8729 127.451 89.9469C127.112 90.2779 126.787 90.5939 126.442 90.9289C126.418 90.6619 126.346 90.3949 126.445 90.1279C126.475 90.0469 126.56 89.9799 126.633 89.9219C126.697 89.8699 126.787 89.8499 126.849 89.7969C126.897 89.7569 126.94 89.6889 126.947 89.6289C126.95 89.6019 126.861 89.5639 126.797 89.5199C126.861 89.4709 126.955 89.4289 126.999 89.3569C127.045 89.2819 127.069 89.1719 127.056 89.0849C127.015 88.8149 127.032 88.7439 127.274 88.6249C127.487 88.5209 127.704 88.4219 127.929 88.3459C128.03 88.3119 128.151 88.3399 128.264 88.3399C128.268 88.3579 128.273 88.3759 128.278 88.3939Z" fill="white"/>
<path fill-rule="evenodd" clip-rule="evenodd" d="M110.822 137.429C109.539 139.868 106.979 141.533 104.034 141.533C101.147 141.533 98.6306 139.934 97.3236 137.575L29.3516 135.321V113.74L29.8646 113.63C29.8586 113.52 29.8566 113.409 29.8566 113.298C29.8566 109.376 33.0416 106.191 36.9636 106.191C38.2376 106.191 39.4336 106.527 40.4676 107.115C40.4286 106.812 40.4086 106.504 40.4086 106.191C40.4086 102.269 43.5926 99.084 47.5156 99.084C51.4386 99.084 54.6226 102.269 54.6226 106.191C54.6226 106.27 54.6216 106.349 54.6186 106.427C55.8606 106.804 56.9166 107.609 57.6166 108.669C60.1216 105.542 63.9706 103.539 68.2836 103.539C75.4356 103.539 81.3106 109.047 81.8966 116.048C82.7566 115.714 83.6926 115.53 84.6706 115.53C87.6856 115.53 90.2966 117.275 91.5476 119.809C92.1786 119.4 92.9306 119.163 93.7376 119.163C95.9636 119.163 97.7706 120.97 97.7706 123.195C97.7706 123.279 97.7676 123.361 97.7626 123.443C99.2696 124 100.355 125.43 100.4 127.119C101.482 126.534 102.719 126.203 104.034 126.203C107.799 126.203 110.934 128.924 111.578 132.505C112.176 132.054 112.919 131.786 113.725 131.786C115.694 131.786 117.292 133.385 117.292 135.354C117.292 137.324 115.694 138.922 113.725 138.922C112.529 138.922 111.47 138.333 110.822 137.429Z" fill="white"/>
<path fill-rule="evenodd" clip-rule="evenodd" d="M88.4661 145C87.1821 147.439 84.6231 149.104 81.6771 149.104C78.7911 149.104 76.2751 147.505 74.9681 145.146L6.99609 142.892V121.311L7.50809 121.2C7.50309 121.091 7.50009 120.98 7.50009 120.869C7.50009 116.947 10.6851 113.762 14.6081 113.762C15.8811 113.762 17.0771 114.098 18.1121 114.686C18.0721 114.383 18.0521 114.075 18.0521 113.762C18.0521 109.839 21.2371 106.655 25.1591 106.655C29.0821 106.655 32.2671 109.839 32.2671 113.762C32.2671 113.841 32.2651 113.92 32.2631 113.998C33.5041 114.375 34.5611 115.179 35.2611 116.239C37.7651 113.113 41.6141 111.11 45.9271 111.11C53.0791 111.11 58.9551 116.618 59.5401 123.619C60.4001 123.285 61.3361 123.101 62.3141 123.101C65.3291 123.101 67.9401 124.846 69.1921 127.38C69.8221 126.971 70.5751 126.733 71.3821 126.733C73.6071 126.733 75.4141 128.54 75.4141 130.766C75.4141 130.85 75.4121 130.932 75.4071 131.014C76.9141 131.57 77.9981 133.001 78.0431 134.689C79.1251 134.105 80.3631 133.774 81.6771 133.774C85.4431 133.774 88.5781 136.495 89.2211 140.076C89.8191 139.625 90.5621 139.357 91.3681 139.357C93.3371 139.357 94.9361 140.956 94.9361 142.925C94.9361 144.894 93.3371 146.493 91.3681 146.493C90.1721 146.493 89.1131 145.904 88.4661 145Z" fill="white" fill-opacity="0.79"/>
<path fill-rule="evenodd" clip-rule="evenodd" d="M4.27372 118.138C6.06972 118.176 7.69472 118.151 9.09472 118.013C15.8617 117.372 33.1627 120.041 35.4177 121.135C37.6747 122.255 45.1847 125.138 49.3127 125.377C53.4637 125.592 64.7417 126.045 70.7417 127.806C76.7647 129.595 86.1697 131.142 89.7337 131.596C92.0347 131.889 99.4557 134.131 105.907 135.439C98.8017 135.946 90.9297 135.946 86.6437 135.946H43.2007C37.1247 135.946 15.9887 140.708 1.01172 143.729C1.37172 134.985 2.47972 126.434 4.27372 118.138Z" fill="#D4EA8E"/>
<path fill-rule="evenodd" clip-rule="evenodd" d="M1.01181 143.726C15.9888 140.705 37.1218 135.943 43.1978 135.943H86.6408C90.9268 135.943 98.7988 135.943 105.905 135.436C109.559 135.197 113.01 134.822 115.671 134.262C123.566 132.581 144.431 130.927 150.883 129.592C157.333 128.257 183.341 127.244 191.8 127.244C200.258 127.244 210.702 123.934 214.356 122.921C218.011 121.906 236.641 121.266 245.371 123.241C254.101 125.269 260.867 122.253 266.236 121.586C271.605 120.919 280.627 120.919 284.845 120.012C287.684 119.401 293.087 120.785 298.208 121.65C299.964 130.83 300.884 140.307 300.884 150H131.177C91.2138 148.587 48.1468 146.571 1.00781 143.841C1.00881 143.802 1.01081 143.764 1.01181 143.726Z" fill="#C3E15F"/>
<path fill-rule="evenodd" clip-rule="evenodd" d="M1.15981 140.8H300.605C300.789 143.843 300.883 146.911 300.883 150H0.882812C0.882812 146.911 0.975813 143.843 1.15981 140.8Z" fill="#8CC927"/>
<path fill-rule="evenodd" clip-rule="evenodd" d="M0.994187 144.186C16.2262 143.092 37.7372 141.366 43.9182 141.366L85.2272 144.324C89.5862 144.324 100.923 144.507 108.149 144.324C111.864 144.237 114.91 146.218 117.616 146.015C125.645 145.406 146.862 144.807 153.423 144.324C159.983 143.841 186.43 143.473 195.032 143.473C203.633 143.473 214.253 142.275 217.969 141.908C221.686 141.541 240.631 141.309 249.509 142.024C258.386 142.758 265.266 141.667 270.726 141.425C276.186 141.183 285.36 141.183 289.65 140.855C291.626 140.704 296.011 140.891 300.625 141.124C300.797 144.061 300.884 147.02 300.884 150H125.174C86.7852 148.487 45.6462 146.507 0.992188 144.238C0.993188 144.221 0.994187 144.203 0.994187 144.186Z" fill="#99D939"/>
<path d="M243.088 119.09V130.593C243.076 131.055 242.79 131.439 242.434 131.528C241.963 131.647 241.362 131.254 241.292 130.593V113.978C241.154 112.642 240.134 111.6 238.921 111.459C237.503 111.294 236.089 112.392 235.901 113.978V134.429C235.729 134.833 235.323 135.08 234.908 135.041C234.553 135.007 234.243 134.769 234.102 134.429V122.926C233.761 121.536 232.473 120.617 231.145 120.741C229.987 120.849 228.993 121.729 228.711 122.926V134.429C228.835 134.999 229.328 136.922 231.145 138.302C232.299 139.179 233.475 139.447 234.102 139.542V149.764H243.088V136.985C243.667 136.88 245.317 136.504 246.698 135.041C248.389 133.249 248.473 131.103 248.479 130.593V119.09C248.06 118.021 247.065 117.291 245.946 117.229C244.716 117.161 243.556 117.911 243.088 119.09Z" fill="url(#paint7_linear_621_110)"/>
<path fill-rule="evenodd" clip-rule="evenodd" d="M239.907 114.539C239.907 114.539 239.512 113.709 239.512 113.353C239.512 113.135 239.689 112.958 239.907 112.958C240.125 112.958 240.302 113.135 240.302 113.353C240.302 113.709 239.907 114.539 239.907 114.539Z" fill="#F8ABDC"/>
<path fill-rule="evenodd" clip-rule="evenodd" d="M236.747 118.899C236.747 118.899 236.352 118.069 236.352 117.713C236.352 117.495 236.529 117.318 236.747 117.318C236.965 117.318 237.142 117.495 237.142 117.713C237.142 118.069 236.747 118.899 236.747 118.899Z" fill="#F8ABDC"/>
<path fill-rule="evenodd" clip-rule="evenodd" d="M228.711 123.541C228.711 123.541 228.316 122.711 228.316 122.355C228.316 122.137 228.493 121.96 228.711 121.96C228.929 121.96 229.106 122.137 229.106 122.355C229.106 122.711 228.711 123.541 228.711 123.541Z" fill="#F8ABDC"/>
<path fill-rule="evenodd" clip-rule="evenodd" d="M247.806 126.292C247.806 126.292 247.41 125.462 247.41 125.106C247.41 124.888 247.588 124.711 247.806 124.711C248.024 124.711 248.201 124.888 248.201 125.106C248.201 125.462 247.806 126.292 247.806 126.292Z" fill="#F8ABDC"/>
<path fill-rule="evenodd" clip-rule="evenodd" d="M239.907 114.539C239.907 114.539 239.512 115.369 239.512 115.725C239.512 115.943 239.689 116.12 239.907 116.12C240.125 116.12 240.302 115.943 240.302 115.725C240.302 115.369 239.907 114.539 239.907 114.539Z" fill="#F8ABDC"/>
<path fill-rule="evenodd" clip-rule="evenodd" d="M236.747 118.899C236.747 118.899 236.352 119.729 236.352 120.084C236.352 120.303 236.529 120.48 236.747 120.48C236.965 120.48 237.142 120.303 237.142 120.084C237.142 119.729 236.747 118.899 236.747 118.899Z" fill="#F8ABDC"/>
<path fill-rule="evenodd" clip-rule="evenodd" d="M228.711 123.541C228.711 123.541 228.316 124.371 228.316 124.727C228.316 124.945 228.493 125.122 228.711 125.122C228.929 125.122 229.106 124.945 229.106 124.727C229.106 124.371 228.711 123.541 228.711 123.541Z" fill="#F8ABDC"/>
<path fill-rule="evenodd" clip-rule="evenodd" d="M247.806 126.292C247.806 126.292 247.41 127.122 247.41 127.478C247.41 127.696 247.588 127.873 247.806 127.873C248.024 127.873 248.201 127.696 248.201 127.478C248.201 127.122 247.806 126.292 247.806 126.292Z" fill="#F8ABDC"/>
<path fill-rule="evenodd" clip-rule="evenodd" d="M239.906 114.539C239.906 114.539 240.736 114.144 241.092 114.144C241.31 114.144 241.487 114.321 241.487 114.539C241.487 114.757 241.31 114.935 241.092 114.935C240.736 114.935 239.906 114.539 239.906 114.539Z" fill="#F8ABDC"/>
<path fill-rule="evenodd" clip-rule="evenodd" d="M236.746 118.899C236.746 118.899 237.576 118.503 237.932 118.503C238.15 118.503 238.327 118.68 238.327 118.899C238.327 119.117 238.15 119.294 237.932 119.294C237.576 119.294 236.746 118.899 236.746 118.899Z" fill="#F8ABDC"/>
<path fill-rule="evenodd" clip-rule="evenodd" d="M228.711 123.541C228.711 123.541 229.541 123.146 229.897 123.146C230.115 123.146 230.292 123.323 230.292 123.541C230.292 123.759 230.115 123.937 229.897 123.937C229.541 123.937 228.711 123.541 228.711 123.541Z" fill="#F8ABDC"/>
<path fill-rule="evenodd" clip-rule="evenodd" d="M247.809 126.292C247.809 126.292 248.639 125.896 248.995 125.896C249.213 125.896 249.39 126.074 249.39 126.292C249.39 126.51 249.213 126.687 248.995 126.687C248.639 126.687 247.809 126.292 247.809 126.292Z" fill="#F8ABDC"/>
<path fill-rule="evenodd" clip-rule="evenodd" d="M239.909 114.539C239.909 114.539 239.079 114.144 238.723 114.144C238.505 114.144 238.328 114.321 238.328 114.539C238.328 114.757 238.505 114.935 238.723 114.935C239.079 114.935 239.909 114.539 239.909 114.539Z" fill="#F8ABDC"/>
<path fill-rule="evenodd" clip-rule="evenodd" d="M236.745 118.899C236.745 118.899 235.915 118.503 235.559 118.503C235.341 118.503 235.164 118.68 235.164 118.899C235.164 119.117 235.341 119.294 235.559 119.294C235.915 119.294 236.745 118.899 236.745 118.899Z" fill="#F8ABDC"/>
<path fill-rule="evenodd" clip-rule="evenodd" d="M228.71 123.541C228.71 123.541 227.88 123.146 227.524 123.146C227.306 123.146 227.129 123.323 227.129 123.541C227.129 123.759 227.306 123.937 227.524 123.937C227.88 123.937 228.71 123.541 228.71 123.541Z" fill="#F8ABDC"/>
<path fill-rule="evenodd" clip-rule="evenodd" d="M247.808 126.292C247.808 126.292 246.978 125.896 246.622 125.896C246.404 125.896 246.227 126.074 246.227 126.292C246.227 126.51 246.404 126.687 246.622 126.687C246.978 126.687 247.808 126.292 247.808 126.292Z" fill="#F8ABDC"/>
<path fill-rule="evenodd" clip-rule="evenodd" d="M239.906 114.539C239.906 114.539 240.197 113.718 240.436 113.48C240.582 113.333 240.82 113.333 240.966 113.48C241.112 113.626 241.112 113.863 240.966 114.009C240.727 114.248 239.906 114.539 239.906 114.539Z" fill="#F8ABDC"/>
<path fill-rule="evenodd" clip-rule="evenodd" d="M236.746 118.899C236.746 118.899 237.037 118.077 237.276 117.839C237.422 117.693 237.659 117.693 237.805 117.839C237.952 117.985 237.952 118.223 237.805 118.369C237.567 118.607 236.746 118.899 236.746 118.899Z" fill="#F8ABDC"/>
<path fill-rule="evenodd" clip-rule="evenodd" d="M228.711 123.541C228.711 123.541 229.002 122.72 229.241 122.482C229.387 122.335 229.624 122.335 229.77 122.482C229.917 122.628 229.917 122.865 229.77 123.012C229.532 123.25 228.711 123.541 228.711 123.541Z" fill="#F8ABDC"/>
<path fill-rule="evenodd" clip-rule="evenodd" d="M247.809 126.292C247.809 126.292 248.1 125.47 248.339 125.232C248.485 125.086 248.722 125.086 248.868 125.232C249.015 125.378 249.015 125.616 248.868 125.762C248.63 126 247.809 126.292 247.809 126.292Z" fill="#F8ABDC"/>
<path fill-rule="evenodd" clip-rule="evenodd" d="M239.908 114.539C239.908 114.539 239.087 114.831 238.848 115.069C238.702 115.215 238.702 115.453 238.848 115.599C238.995 115.745 239.232 115.745 239.378 115.599C239.617 115.36 239.908 114.539 239.908 114.539Z" fill="#F8ABDC"/>
<path fill-rule="evenodd" clip-rule="evenodd" d="M236.748 118.899C236.748 118.899 235.927 119.19 235.688 119.428C235.542 119.575 235.542 119.812 235.688 119.958C235.834 120.104 236.072 120.104 236.218 119.958C236.456 119.72 236.748 118.899 236.748 118.899Z" fill="#F8ABDC"/>
<path fill-rule="evenodd" clip-rule="evenodd" d="M228.712 123.541C228.712 123.541 227.891 123.833 227.652 124.071C227.506 124.217 227.506 124.455 227.652 124.601C227.798 124.747 228.036 124.747 228.182 124.601C228.42 124.363 228.712 123.541 228.712 123.541Z" fill="#F8ABDC"/>
<path fill-rule="evenodd" clip-rule="evenodd" d="M247.806 126.292C247.806 126.292 246.985 126.583 246.746 126.822C246.6 126.968 246.6 127.205 246.746 127.351C246.892 127.498 247.13 127.498 247.276 127.351C247.514 127.113 247.806 126.292 247.806 126.292Z" fill="#F8ABDC"/>
<path fill-rule="evenodd" clip-rule="evenodd" d="M239.906 114.539C239.906 114.539 240.727 114.831 240.966 115.069C241.112 115.215 241.112 115.453 240.966 115.599C240.82 115.745 240.582 115.745 240.436 115.599C240.197 115.36 239.906 114.539 239.906 114.539Z" fill="#F8ABDC"/>
<path fill-rule="evenodd" clip-rule="evenodd" d="M236.746 118.899C236.746 118.899 237.567 119.19 237.805 119.428C237.952 119.575 237.952 119.812 237.805 119.958C237.659 120.104 237.422 120.104 237.276 119.958C237.037 119.72 236.746 118.899 236.746 118.899Z" fill="#F8ABDC"/>
<path fill-rule="evenodd" clip-rule="evenodd" d="M228.711 123.541C228.711 123.541 229.532 123.833 229.77 124.071C229.917 124.217 229.917 124.455 229.77 124.601C229.624 124.747 229.387 124.747 229.241 124.601C229.002 124.363 228.711 123.541 228.711 123.541Z" fill="#F8ABDC"/>
<path fill-rule="evenodd" clip-rule="evenodd" d="M247.809 126.292C247.809 126.292 248.63 126.583 248.868 126.822C249.015 126.968 249.015 127.205 248.868 127.351C248.722 127.498 248.485 127.498 248.339 127.351C248.1 127.113 247.809 126.292 247.809 126.292Z" fill="#F8ABDC"/>
<path fill-rule="evenodd" clip-rule="evenodd" d="M239.908 114.539C239.908 114.539 239.617 113.718 239.378 113.48C239.232 113.333 238.995 113.333 238.848 113.48C238.702 113.626 238.702 113.863 238.848 114.009C239.087 114.248 239.908 114.539 239.908 114.539Z" fill="#F8ABDC"/>
<path fill-rule="evenodd" clip-rule="evenodd" d="M236.748 118.899C236.748 118.899 236.456 118.077 236.218 117.839C236.072 117.693 235.834 117.693 235.688 117.839C235.542 117.985 235.542 118.223 235.688 118.369C235.927 118.607 236.748 118.899 236.748 118.899Z" fill="#F8ABDC"/>
<path fill-rule="evenodd" clip-rule="evenodd" d="M228.712 123.541C228.712 123.541 228.42 122.72 228.182 122.482C228.036 122.335 227.798 122.335 227.652 122.482C227.506 122.628 227.506 122.865 227.652 123.012C227.891 123.25 228.712 123.541 228.712 123.541Z" fill="#F8ABDC"/>
<path fill-rule="evenodd" clip-rule="evenodd" d="M247.806 126.292C247.806 126.292 247.514 125.47 247.276 125.232C247.13 125.086 246.892 125.086 246.746 125.232C246.6 125.378 246.6 125.616 246.746 125.762C246.985 126 247.806 126.292 247.806 126.292Z" fill="#F8ABDC"/>
<path d="M239.908 114.955C240.138 114.955 240.324 114.769 240.324 114.539C240.324 114.309 240.138 114.123 239.908 114.123C239.678 114.123 239.492 114.309 239.492 114.539C239.492 114.769 239.678 114.955 239.908 114.955Z" fill="#EEF6F9"/>
<path d="M236.744 119.315C236.974 119.315 237.16 119.129 237.16 118.899C237.16 118.669 236.974 118.483 236.744 118.483C236.514 118.483 236.328 118.669 236.328 118.899C236.328 119.129 236.514 119.315 236.744 119.315Z" fill="#EEF6F9"/>
<path d="M228.713 123.957C228.943 123.957 229.129 123.771 229.129 123.541C229.129 123.311 228.943 123.125 228.713 123.125C228.483 123.125 228.297 123.311 228.297 123.541C228.297 123.771 228.483 123.957 228.713 123.957Z" fill="#EEF6F9"/>
<path d="M247.807 126.708C248.036 126.708 248.223 126.522 248.223 126.292C248.223 126.062 248.036 125.876 247.807 125.876C247.577 125.876 247.391 126.062 247.391 126.292C247.391 126.522 247.577 126.708 247.807 126.708Z" fill="#EEF6F9"/>
<path fill-rule="evenodd" clip-rule="evenodd" d="M250.609 114.865C250.609 114.865 249.555 113.028 249.692 112.285C249.812 111.629 250.443 111.194 251.099 111.315C251.755 111.436 252.19 112.067 252.069 112.723C251.933 113.465 250.609 114.865 250.609 114.865Z" fill="#F47BCA"/>
<path fill-rule="evenodd" clip-rule="evenodd" d="M250.238 114.406C250.238 114.406 251.27 113.646 251.799 113.634C252.266 113.624 252.654 113.995 252.665 114.463C252.675 114.93 252.304 115.318 251.836 115.328C251.307 115.34 250.238 114.406 250.238 114.406Z" fill="#F58DD1"/>
<path fill-rule="evenodd" clip-rule="evenodd" d="M250.19 114.581C250.084 114.443 250.11 114.246 250.248 114.14C250.385 114.035 250.583 114.06 250.689 114.198L251.589 115.371C251.695 115.508 251.669 115.706 251.532 115.811C251.394 115.917 251.197 115.891 251.091 115.753L250.19 114.581Z" fill="#6F6F6F"/>
<path d="M250.287 114.253C250.287 114.253 249.378 113.487 249.285 113.927" stroke="#6F6F6F" stroke-width="0.83" stroke-miterlimit="1.5" stroke-linecap="round" stroke-linejoin="round"/>
<path d="M250.342 114.317C250.342 114.317 249.792 113.262 249.539 113.634" stroke="#6F6F6F" stroke-width="0.83" stroke-miterlimit="1.5" stroke-linecap="round" stroke-linejoin="round"/>
<path fill-rule="evenodd" clip-rule="evenodd" d="M251.181 115.275C251.181 115.275 250.202 113.081 250.356 112.246C250.491 111.508 251.201 111.019 251.939 111.155C252.677 111.291 253.166 112 253.03 112.738C252.876 113.573 251.181 115.275 251.181 115.275Z" fill="url(#paint8_linear_621_110)"/>
<path fill-rule="evenodd" clip-rule="evenodd" d="M251.184 115.275C251.184 115.275 252.134 113.776 252.729 113.763C253.254 113.751 253.691 114.169 253.702 114.695C253.714 115.221 253.296 115.657 252.77 115.668C252.175 115.682 251.184 115.275 251.184 115.275Z" fill="url(#paint9_linear_621_110)"/>
<path d="M107.514 75.1212C107.514 79.4062 105.87 82.7222 102.584 85.0692C100.17 86.7712 97.5765 87.6222 94.8035 87.6222C94.1365 87.6222 93.8025 88.0332 93.8025 88.8552C93.8025 94.1962 93.7515 102.207 93.6485 112.889C93.6485 113.828 93.3655 114.327 92.8005 114.386C91.0035 114.621 88.2815 114.621 84.6355 114.386C83.9675 114.327 83.6345 113.946 83.6345 113.241L83.4805 43.6922C83.4805 43.0462 83.9165 42.6942 84.7895 42.6352C86.8955 42.5182 90.3105 42.5472 95.0345 42.7232C98.0645 42.7232 100.837 43.7502 103.354 45.8052C106.127 47.9762 107.514 50.7052 107.514 53.9922V75.1212ZM98.3475 65.1732C98.3985 61.2412 98.2445 58.3942 97.8855 56.6332C97.5765 55.2832 97.1405 54.4622 96.5755 54.1682C96.0105 54.1102 95.4715 54.0512 94.9575 53.9922C94.7525 53.9922 94.3675 53.9332 93.8025 53.8162C93.5965 53.7572 93.4175 53.8752 93.2635 54.1682C93.1095 54.4622 93.0575 54.7842 93.1095 55.1372C93.1095 59.5392 93.1345 65.9072 93.1865 74.2412C93.1865 74.7692 93.4425 75.1502 93.9565 75.3852C94.2135 75.5032 94.5475 75.4732 94.9575 75.2972C96.1905 75.1802 96.9865 74.7402 97.3455 73.9772C97.9625 72.6272 98.2955 69.6922 98.3475 65.1732Z" fill="#1E40AF"/>
<path d="M130.93 113.241C130.93 113.946 130.52 114.327 129.698 114.386C122.611 114.797 116.166 114.738 110.363 114.21C109.798 114.151 109.515 113.593 109.515 112.537L109.438 43.7802C109.438 43.1342 109.721 42.8112 110.286 42.8112C114.24 42.7532 120.634 42.7822 129.467 42.8992C130.288 42.8992 130.699 43.2522 130.699 43.9562V48.7102C130.648 51.4682 130.622 53.2142 130.622 53.9482C130.622 54.6822 130.34 55.0492 129.775 55.0492H120.916C120.146 55.0492 119.761 55.3712 119.761 56.0172C119.761 56.3102 119.735 58.3942 119.684 62.2682C119.632 65.5542 119.632 68.0192 119.684 69.6632C119.684 70.3082 119.992 70.6902 120.608 70.8072C121.687 70.9832 124.074 71.0132 127.772 70.8952C128.44 70.8952 128.799 71.2472 128.85 71.9522C128.902 73.0082 128.876 74.9742 128.773 77.8502C128.671 81.1962 128.618 83.1622 128.618 83.7492C128.618 84.5702 128.337 84.9812 127.772 84.9812H120.839C120.326 84.9812 120.017 85.4212 119.915 86.3022C119.658 88.7672 119.607 93.4332 119.761 100.3C119.761 101.063 120.223 101.503 121.147 101.62C123.15 101.562 125.974 101.503 129.62 101.444C130.441 101.444 130.853 101.826 130.853 102.589C130.853 107.343 130.879 110.894 130.93 113.241Z" fill="#1E40AF"/>
<path d="M164.673 114.034C164.725 114.386 164.494 114.562 163.98 114.562H159.974C158.023 114.503 156.328 114.474 154.89 114.474C154.428 114.474 153.838 112.566 153.119 108.751C152.605 105.875 152.22 103.41 151.963 101.356C151.912 100.945 151.629 100.74 151.116 100.74H148.112C147.752 100.74 147.521 100.945 147.418 101.356C146.956 104.878 146.34 108.957 145.569 113.593C145.364 114.122 145.133 114.386 144.876 114.386H135.401C134.58 114.386 134.246 114.034 134.4 113.329C136.146 101.356 137.892 89.354 139.638 77.322C143.079 54.198 145.133 42.606 145.801 42.547C148.574 42.371 151.347 42.371 154.12 42.547C154.736 42.606 156.636 54.227 159.82 77.41C161.464 89.618 163.081 101.826 164.673 114.034ZM151.27 89.647C150.5 82.956 150.012 79.611 149.806 79.611C149.549 79.611 149.241 81.049 148.882 83.925C148.676 85.803 148.471 87.71 148.266 89.647C148.214 89.823 148.458 89.955 148.997 90.043C149.537 90.131 150.037 90.146 150.5 90.087C151.013 90.029 151.27 89.882 151.27 89.647Z" fill="#1E40AF"/>
<path d="M193.636 95.3702C193.636 100.769 192.635 105.201 190.632 108.663C188.373 112.596 185.086 114.562 180.772 114.562C175.739 114.562 172.247 112.097 170.296 107.167C168.961 103.763 168.293 98.5682 168.293 91.5842V57.6022C168.293 54.4912 169.038 51.3802 170.527 48.2702C172.786 43.5162 176.202 41.1392 180.772 41.1392C185.651 41.1392 189.143 43.2522 191.248 47.4772C192.943 50.7052 193.739 55.0192 193.636 60.4192C193.636 62.1802 193.611 63.5302 193.559 64.4692C193.508 65.4082 193.123 65.9362 192.404 66.0532C191.685 66.1712 190.401 66.2002 188.552 66.1412C185.985 66.0242 184.829 65.9652 185.086 65.9652C184.162 65.9652 183.674 65.4662 183.622 64.4692V58.2182C183.314 55.1662 182.364 53.6402 180.772 53.6402C178.667 53.6402 177.614 58.8642 177.614 69.3112V94.3132C177.614 95.9572 177.819 97.5122 178.23 98.9792C178.795 101.033 179.642 102.061 180.772 102.061C182.775 102.061 183.776 98.9792 183.776 92.8172V90.3522C183.725 89.3542 183.699 88.7672 183.699 88.5912C183.699 87.5342 184.059 87.0062 184.778 87.0062C188.013 87.0062 190.581 87.0362 192.481 87.0942C193.251 87.0942 193.636 87.5932 193.636 88.5912C193.688 90.1172 193.688 92.3762 193.636 95.3702Z" fill="#1E40AF"/>
<path d="M218.285 113.241C218.285 113.946 217.874 114.327 217.052 114.386C209.965 114.797 203.52 114.738 197.717 114.21C197.152 114.151 196.87 113.593 196.87 112.537L196.793 43.7802C196.793 43.1342 197.075 42.8112 197.64 42.8112C201.594 42.7532 207.988 42.7822 216.821 42.8992C217.643 42.8992 218.054 43.2522 218.054 43.9562V48.7102C218.002 51.4682 217.977 53.2142 217.977 53.9482C217.977 54.6822 217.694 55.0492 217.129 55.0492H208.271C207.5 55.0492 207.115 55.3712 207.115 56.0172C207.115 56.3102 207.089 58.3942 207.038 62.2682C206.987 65.5542 206.987 68.0192 207.038 69.6632C207.038 70.3082 207.346 70.6902 207.962 70.8072C209.041 70.9832 211.429 71.0132 215.126 70.8952C215.794 70.8952 216.154 71.2472 216.205 71.9522C216.256 73.0082 216.231 74.9742 216.128 77.8502C216.025 81.1962 215.974 83.1622 215.974 83.7492C215.974 84.5702 215.691 84.9812 215.126 84.9812H208.194C207.68 84.9812 207.372 85.4212 207.269 86.3022C207.012 88.7672 206.961 93.4332 207.115 100.3C207.115 101.063 207.577 101.503 208.502 101.62C210.504 101.562 213.329 101.503 216.975 101.444C217.797 101.444 218.208 101.826 218.208 102.589C218.208 107.343 218.233 110.894 218.285 113.241Z" fill="#1E40AF"/>
<path d="M150.896 12.116C152.607 12.116 153.995 10.7285 153.995 9.01697C153.995 7.30544 152.607 5.91797 150.896 5.91797C149.184 5.91797 147.797 7.30544 147.797 9.01697C147.797 10.7285 149.184 12.116 150.896 12.116Z" fill="#25282B"/>
<path fill-rule="evenodd" clip-rule="evenodd" d="M169.304 8.79805C170.084 8.90105 170.634 9.61704 170.531 10.397C170.428 11.177 169.712 11.727 168.932 11.624C168.152 11.522 167.602 10.8051 167.704 10.0251C167.807 9.24505 168.524 8.69505 169.304 8.79805Z" fill="#25282B"/>
<path fill-rule="evenodd" clip-rule="evenodd" d="M132.978 8.79805C132.198 8.90105 131.648 9.61704 131.75 10.397C131.853 11.177 132.57 11.727 133.35 11.624C134.13 11.522 134.68 10.8051 134.577 10.0251C134.474 9.24505 133.758 8.69505 132.978 8.79805Z" fill="#25282B"/>
<path fill-rule="evenodd" clip-rule="evenodd" d="M204.869 18.3269C205.596 18.6279 205.942 19.4629 205.641 20.1899C205.339 20.9169 204.505 21.2619 203.778 20.9609C203.051 20.6599 202.706 19.8259 203.007 19.0989C203.308 18.3719 204.142 18.0259 204.869 18.3269Z" fill="#25282B"/>
<path fill-rule="evenodd" clip-rule="evenodd" d="M97.4149 18.3269C96.6879 18.6279 96.3429 19.4629 96.6439 20.1899C96.9449 20.9169 97.7789 21.2619 98.5059 20.9609C99.2329 20.6599 99.5789 19.8259 99.2779 19.0989C98.9769 18.3719 98.1419 18.0259 97.4149 18.3269Z" fill="#25282B"/>
<path fill-rule="evenodd" clip-rule="evenodd" d="M236.753 36.7368C237.377 37.2158 237.495 38.1108 237.016 38.7348C236.537 39.3598 235.642 39.4778 235.018 38.9988C234.394 38.5198 234.276 37.6238 234.755 36.9998C235.233 36.3758 236.129 36.2578 236.753 36.7368Z" fill="#25282B"/>
<path fill-rule="evenodd" clip-rule="evenodd" d="M65.5301 36.7368C64.9061 37.2158 64.7881 38.1108 65.2671 38.7348C65.7461 39.3598 66.6411 39.4778 67.2661 38.9988C67.8901 38.5198 68.0081 37.6238 67.5291 36.9998C67.0501 36.3758 66.1541 36.2578 65.5301 36.7368Z" fill="#25282B"/>
<path fill-rule="evenodd" clip-rule="evenodd" d="M262.791 62.7718C263.27 63.3958 263.152 64.2908 262.528 64.7698C261.904 65.2488 261.008 65.1308 260.529 64.5068C260.05 63.8828 260.168 62.9878 260.792 62.5088C261.417 62.0298 262.312 62.1478 262.791 62.7718Z" fill="#25282B"/>
<path fill-rule="evenodd" clip-rule="evenodd" d="M39.4936 62.7718C39.0146 63.3958 39.1326 64.2908 39.7566 64.7698C40.3806 65.2488 41.2766 65.1308 41.7556 64.5068C42.2346 63.8828 42.1166 62.9878 41.4926 62.5088C40.8686 62.0298 39.9726 62.1478 39.4936 62.7718Z" fill="#25282B"/>
<path fill-rule="evenodd" clip-rule="evenodd" d="M187.4 12.3971C188.16 12.6011 188.612 13.3831 188.408 14.1431C188.205 14.9031 187.422 15.3551 186.662 15.1511C185.902 14.9471 185.451 14.1651 185.654 13.4051C185.858 12.6451 186.64 12.1931 187.4 12.3971Z" fill="#25282B"/>
<path fill-rule="evenodd" clip-rule="evenodd" d="M114.885 12.3971C114.125 12.6011 113.673 13.3831 113.877 14.1431C114.081 14.9031 114.863 15.3551 115.623 15.1511C116.383 14.9471 116.834 14.1651 116.631 13.4051C116.427 12.6451 115.645 12.1931 114.885 12.3971Z" fill="#25282B"/>
<path fill-rule="evenodd" clip-rule="evenodd" d="M222.25 25.0382C223.732 25.8932 224.24 27.7902 223.385 29.2712C222.53 30.7532 220.632 31.2612 219.151 30.4062C217.67 29.5502 217.161 27.6532 218.017 26.1722C218.872 24.6912 220.769 24.1822 222.25 25.0382Z" fill="#25282B"/>
<path fill-rule="evenodd" clip-rule="evenodd" d="M80.0306 25.0382C78.5486 25.8932 78.0406 27.7902 78.8956 29.2712C79.7516 30.7532 81.6486 31.2612 83.1296 30.4062C84.6116 29.5502 85.1196 27.6532 84.2646 26.1722C83.4086 24.6912 81.5116 24.1822 80.0306 25.0382Z" fill="#25282B"/>
<path fill-rule="evenodd" clip-rule="evenodd" d="M250.624 48.9009C251.18 49.4569 251.18 50.3609 250.624 50.9169C250.068 51.4729 249.164 51.4729 248.608 50.9169C248.052 50.3609 248.052 49.4569 248.608 48.9009C249.164 48.3449 250.068 48.3449 250.624 48.9009Z" fill="#25282B"/>
<path fill-rule="evenodd" clip-rule="evenodd" d="M51.6592 48.9009C51.1032 49.4569 51.1032 50.3609 51.6592 50.9169C52.2162 51.4729 53.1192 51.4729 53.6752 50.9169C54.2322 50.3609 54.2322 49.4569 53.6752 48.9009C53.1192 48.3449 52.2162 48.3449 51.6592 48.9009Z" fill="#25282B"/>
<path fill-rule="evenodd" clip-rule="evenodd" d="M274.49 77.2752C275.346 78.7562 274.837 80.6532 273.356 81.5082C271.875 82.3642 269.978 81.8552 269.122 80.3742C268.267 78.8932 268.775 76.9952 270.257 76.1402C271.738 75.2852 273.635 75.7932 274.49 77.2752Z" fill="#25282B"/>
<path fill-rule="evenodd" clip-rule="evenodd" d="M27.7945 77.2752C26.9385 78.7562 27.4475 80.6532 28.9285 81.5082C30.4105 82.3642 32.3075 81.8552 33.1625 80.3742C34.0175 78.8932 33.5095 76.9952 32.0275 76.1402C30.5465 75.2852 28.6495 75.7932 27.7945 77.2752Z" fill="#25282B"/>
<path fill-rule="evenodd" clip-rule="evenodd" d="M281.2 94.658C281.501 95.385 281.155 96.219 280.428 96.52C279.701 96.821 278.867 96.476 278.566 95.749C278.265 95.022 278.61 94.188 279.337 93.886C280.064 93.585 280.899 93.931 281.2 94.658Z" fill="#25282B"/>
<path fill-rule="evenodd" clip-rule="evenodd" d="M21.0858 94.658C20.7838 95.385 21.1298 96.219 21.8568 96.52C22.5838 96.821 23.4178 96.476 23.7188 95.749C24.0208 95.022 23.6748 94.188 22.9478 93.886C22.2208 93.585 21.3868 93.931 21.0858 94.658Z" fill="#25282B"/>
<path fill-rule="evenodd" clip-rule="evenodd" d="M287.131 112.128C287.334 112.888 286.883 113.67 286.123 113.874C285.363 114.077 284.581 113.626 284.377 112.866C284.173 112.106 284.625 111.323 285.385 111.12C286.145 110.916 286.927 111.368 287.131 112.128Z" fill="#25282B"/>
<path fill-rule="evenodd" clip-rule="evenodd" d="M15.1541 112.128C14.9511 112.888 15.4021 113.67 16.1621 113.874C16.9221 114.077 17.7051 113.626 17.9081 112.866C18.1121 112.106 17.6601 111.323 16.9001 111.12C16.1401 110.916 15.3581 111.368 15.1541 112.128Z" fill="#25282B"/>
<path fill-rule="evenodd" clip-rule="evenodd" d="M290.729 130.222C290.832 131.002 290.282 131.719 289.502 131.822C288.722 131.924 288.005 131.374 287.903 130.594C287.8 129.814 288.35 129.098 289.13 128.995C289.91 128.892 290.626 129.442 290.729 130.222Z" fill="#25282B"/>
<path fill-rule="evenodd" clip-rule="evenodd" d="M11.5554 130.222C11.4524 131.002 12.0024 131.719 12.7824 131.822C13.5624 131.924 14.2794 131.374 14.3824 130.594C14.4844 129.814 13.9344 129.098 13.1544 128.995C12.3744 128.892 11.6584 129.442 11.5554 130.222Z" fill="#25282B"/>
<path fill-rule="evenodd" clip-rule="evenodd" d="M293.609 148.632C293.609 150.342 292.22 151.731 290.509 151.731C288.799 151.731 287.41 150.342 287.41 148.632C287.41 146.921 288.799 145.532 290.509 145.532C292.22 145.532 293.609 146.921 293.609 148.632Z" fill="#25282B"/>
<path fill-rule="evenodd" clip-rule="evenodd" d="M8.67578 148.632C8.67578 150.342 10.0638 151.731 11.7748 151.731C13.4858 151.731 14.8738 150.342 14.8738 148.632C14.8738 146.921 13.4858 145.532 11.7748 145.532C10.0638 145.532 8.67578 146.921 8.67578 148.632Z" fill="#25282B"/>
<defs>
<linearGradient id="paint0_linear_621_110" x1="151.085" y1="41.039" x2="150.882" y2="142.627" gradientUnits="userSpaceOnUse">
<stop stop-color="#B4D8E7"/>
<stop offset="1" stop-color="#EFF9FD"/>
</linearGradient>
<linearGradient id="paint1_linear_621_110" x1="281.236" y1="95.4728" x2="258.023" y2="122.106" gradientUnits="userSpaceOnUse">
<stop stop-color="#788FE3"/>
<stop offset="1" stop-color="#D9EDF5"/>
</linearGradient>
<linearGradient id="paint2_linear_621_110" x1="272.201" y1="96.0428" x2="255.684" y2="120.537" gradientUnits="userSpaceOnUse">
<stop stop-color="#9CDEEA"/>
<stop offset="1" stop-color="#D7ECF4"/>
</linearGradient>
<linearGradient id="paint3_linear_621_110" x1="277.918" y1="89.6368" x2="247.465" y2="122.107" gradientUnits="userSpaceOnUse">
<stop stop-color="#78E387"/>
<stop offset="1" stop-color="#D8ECF4"/>
</linearGradient>
<linearGradient id="paint4_linear_621_110" x1="272.815" y1="85.0508" x2="239.159" y2="119.989" gradientUnits="userSpaceOnUse">
<stop stop-color="#F3DC92"/>
<stop offset="1" stop-color="#DBEEF6"/>
</linearGradient>
<linearGradient id="paint5_linear_621_110" x1="264.14" y1="85.0118" x2="239.633" y2="115.819" gradientUnits="userSpaceOnUse">
<stop stop-color="#F4AE83"/>
<stop offset="1" stop-color="#D8ECF4"/>
</linearGradient>
<linearGradient id="paint6_linear_621_110" x1="272.802" y1="74.9998" x2="234.676" y2="119.06" gradientUnits="userSpaceOnUse">
<stop stop-color="#FF7070"/>
<stop offset="1" stop-color="#DEEFF7"/>
</linearGradient>
<linearGradient id="paint7_linear_621_110" x1="245.946" y1="136.53" x2="239.925" y2="93.647" gradientUnits="userSpaceOnUse">
<stop stop-color="#0C543B"/>
<stop offset="1" stop-color="#39AC84"/>
</linearGradient>
<linearGradient id="paint8_linear_621_110" x1="252.453" y1="112.878" x2="246.652" y2="117.393" gradientUnits="userSpaceOnUse">
<stop stop-color="#F8ABDC"/>
<stop offset="1" stop-color="#FF1DAD"/>
</linearGradient>
<linearGradient id="paint9_linear_621_110" x1="252.456" y1="112.878" x2="246.654" y2="117.393" gradientUnits="userSpaceOnUse">
<stop stop-color="#F8ABDC"/>
<stop offset="1" stop-color="#FF1DAD"/>
</linearGradient>
</defs>
</svg>
