<svg width="301" height="153" viewBox="0 0 301 153" fill="none" xmlns="http://www.w3.org/2000/svg">
<path fill-rule="evenodd" clip-rule="evenodd" d="M300.609 150.48C300.609 67.6375 233.451 0.480469 150.609 0.480469C67.7664 0.480469 0.609375 67.6375 0.609375 150.48H300.609Z" fill="url(#paint0_linear_1208_525)"/>
<mask id="mask0_1208_525" style="mask-type:alpha" maskUnits="userSpaceOnUse" x="0" y="0" width="301" height="151">
<path fill-rule="evenodd" clip-rule="evenodd" d="M300.609 150.48C300.609 67.6375 233.451 0.480469 150.609 0.480469C67.7664 0.480469 0.609375 67.6375 0.609375 150.48H300.609Z" fill="url(#paint1_linear_1208_525)"/>
</mask>
<g mask="url(#mask0_1208_525)">
<path fill-rule="evenodd" clip-rule="evenodd" d="M-347.776 333.348L-347.773 340H-422L-418.147 118.803L-404.215 129.538H-406.898V137.712H-402.874V134.093H-404.215V131.409H-401.533V128.725H-400.36V126.041H-398.683V128.725H-397.342V126.041H-395.665V128.725H-394.323V126.041H-392.647V128.725H-391.474V131.409H-388.791V134.093H-390.133V137.712H-387.785V136.106H-384.432V137.712H-382.085V128.054H-380.073V125.37H-378.061V122.687H-369.344V125.37H-367.332V128.054H-365.32V137.712H-360.625V124.709L-347.883 118L-347.88 124.699H-330.254L-324.219 135.434H-326.901V137.712H-320.866V122.697H-308.124V137.712H-304.771V135.434L-292.029 128.725V137.712H-288.677V134.113L-275.935 127.403V137.712H-270.57V134.093H-272.581V131.409H-263.863V127.756H-260.51V131.409H-251.792V127.756H-245.011L-242.404 131.409H-235.027V134.093H-237.039V137.712H-229.662V131.419H-232.344L-225.638 128.207L-206.861 124.181H-203.508V128.207H-200.155L-194.119 131.419H-196.801V137.712H-192.778V134.093H-194.119V131.409H-191.436V128.725H-190.263V126.041H-188.587V128.725H-187.245V126.041H-185.568V128.725H-184.228V126.041H-182.551V128.725H-181.377V131.409H-178.695V134.093H-180.036V137.712H-177.689V136.106H-174.336V137.712H-171.989V128.054H-169.977V125.37H-167.965V132.09H-159.247V125.37H-157.235V128.054H-155.223V137.712H-150.529V124.709L-137.787 120.821V137.712H-127.728V134.093H-129.74V131.409H-121.021V127.756H-117.669V131.409H-108.951V127.756H-102.17L-99.5618 131.409H-92.1849V134.093H-94.197V137.712H-86.82V129.538H-89.5025L-82.7967 118.803H-57.3131L-51.2777 129.538H-53.9602V137.712H-49.9361V134.093H-51.2777V131.409H-48.5953V128.725H-47.4211V126.041H-45.7446V128.725H-44.4038V126.041H-42.7274V128.725H-41.3857V126.041H-39.7093V128.725H-38.5359V131.409H-35.8535V134.093H-37.1943V137.712H-34.8474V136.106H-31.4946V137.712H-29.1469V128.054H-27.1349V125.37H-25.1236V122.687H-16.4051V125.37H-14.3931V128.054H-12.3818V137.712H-7.68732V124.709L5.0545 118V124.699H22.0747L28.1108 135.434H25.4284V137.712H31.4637V122.697H44.2055V137.712H47.5583V135.434L60.3002 128.725V137.712H63.6531V134.113L76.3949 127.403V137.712H81.7598V134.093H79.7478V131.409H88.4663V127.756H91.8192V131.409H100.537V127.756H107.318L109.926 131.409H117.303V134.093H115.291V137.712H122.668V131.419H119.985L126.691 128.207L145.469 124.181H148.822V128.207H152.175L158.21 131.419H155.528V137.712H159.552V134.093H158.21V131.409H160.893V128.725H162.067V126.041H163.743V128.725H165.084V126.041H166.76V128.725H168.102V126.041H169.778V128.725H170.952V131.409H173.634V134.093H172.294V137.712H174.64V136.106H177.994V137.712H180.341V128.054H182.353V125.37H184.364V132.09H193.083V125.37H195.095V128.054H197.106V137.712H201.8V124.709L214.542 120.821V137.712H224.602V134.093H222.59V131.409H231.307V127.756H234.661V131.409H243.379V127.756H250.16L252.768 131.409H260.144V134.093H258.133V137.712H265.51V129.538H262.826L269.533 118.803H295.017L301.052 129.538H298.369V137.712H302.394V134.093H301.052V131.409H303.734V128.725H304.908V126.041H306.584V128.725H307.926V126.041H309.602V128.725H310.944V126.041H312.62V128.725H313.794V131.409H316.476V134.093H315.135V137.712H317.482V136.106H320.835V137.712H323.183V128.054H325.194V125.37H327.206V122.687H335.924V125.37H337.936V128.054H339.948V137.712H344.642V124.709L357.384 118V135.439C357.385 135.437 357.387 135.436 357.387 135.434L361.411 124.699H386.894L392.93 135.434H390.248V137.712H396.286V122.697H409.023V137.712H412.379V135.434L425.124 128.725V137.712H428.472V134.113L441.217 127.403V137.712H446.579V134.093H444.565V131.409H453.283V127.756H456.639V131.409H465.357V127.756H472.14L474.746 131.409H482.121V134.093H480.107V137.712H487.491V131.419H484.806L491.51 128.207L510.288 124.181H513.644V128.207H516.992L523.033 131.419H520.348V137.712H524.367V134.093H523.033V131.409H525.71V128.725H526.886V126.041H528.56V128.725H529.903V126.041H531.577V128.725H532.919V126.041H534.601V128.725H535.77V131.409H538.455V134.093H537.112V137.712H539.458V136.106H542.814V137.712H545.159V128.054H547.172V125.37H549.186V132.09H557.904V125.37H559.917V128.054H561.923V137.712H566.622V124.709L579.359 120.821V137.712H589.419V134.093H587.413V131.409H596.131V127.756H599.479V131.409H608.197V127.756H614.98L617.586 131.409H624.961V134.093H622.956V137.712H630.331V129.538H627.646L634.35 118.803H659.84L665.873 129.538H663.188V137.712H667.216V134.093H665.873V131.409H668.558V128.725H669.727V126.041H671.401V128.725H672.743V126.041H674.425V128.725H675.76V126.041H677.442V128.725H678.61V131.409H681.295V134.093H679.953V137.712H682.298V136.106H685.654V137.712H687.999V128.054H690.013V125.37H692.026V122.687H700.744V125.37H702.758V128.054H704.764V137.712H709.462V124.709L722.207 118V137.025H738V333.348H357.387H357.384H-347.776Z" fill="#2A3D46"/>
</g>
<path d="M87.3329 61.2577L83.2559 65.5407H64.1549L60.7929 61.2577L64.7989 57.0547H83.8999L87.3329 61.2577ZM84.0429 103.604L79.9649 107.807L76.6029 103.604L77.4609 92.2087L82.5399 86.9557L85.0439 90.1077L84.0429 103.604ZM61.7229 78.4707L56.6439 83.8047L54.1399 80.5717L55.1419 67.0757L59.2189 62.8737L62.5809 67.0757L61.7229 78.4707ZM55.2849 113.625L51.9219 109.423L55.9279 105.22H75.1009L78.5339 109.423L74.4569 113.625H55.2849ZM77.8909 81.1377L81.3239 85.3397L77.2469 89.5427H61.3649L58.0029 85.3397L62.0089 81.1377H77.8909Z" fill="white"/>
<path d="M111.514 109.746L107.508 113.948L104.074 109.746L105.434 92.2087L110.513 86.9557L113.017 90.1077L111.514 109.746ZM113.803 80.5717L110.727 83.8047L106.507 78.4707L107.007 72.0057L111.085 67.8027L114.447 72.0057L113.803 80.5717ZM129.113 61.2577L124.963 65.5407H97.4206L94.0586 61.2577L98.0646 57.0547H125.607L129.113 61.2577Z" fill="white"/>
<path d="M166.383 57.0547L158.299 65.5407H144.279L137.482 57.0547H166.383ZM140.773 92.2087L139.771 105.22L131.688 113.625L133.476 90.1077L136.551 86.9557L140.773 92.2087ZM134.262 80.5717L135.909 58.6707L142.704 67.0757L141.846 78.4707L136.767 83.8047L134.262 80.5717ZM165.168 90.1077L163.379 113.625L156.583 105.22L157.585 92.2087L162.663 86.9557L165.168 90.1077ZM158.658 78.4707L159.516 67.0757L167.6 58.6707L165.954 80.5717L162.878 83.8047L158.658 78.4707ZM158.014 81.1377L161.448 85.3397L157.37 89.5427H141.489L138.126 85.3397L142.132 81.1377H158.014Z" fill="white"/>
<path d="M183.768 97.4617L184.269 91.4817H189.634L202.726 107.564L202.225 113.625H196.86L183.768 97.4617ZM180.835 92.2087L179.834 105.22L171.75 113.625L173.538 90.1077L176.615 86.9557L180.835 92.2087ZM174.325 80.5717L175.971 58.6707L182.767 67.0757L181.908 78.4707L176.829 83.8047L174.325 80.5717ZM198.076 81.1377L201.51 85.3397L197.432 89.5427H181.551L178.188 85.3397L182.195 81.1377H198.076ZM206.017 80.5717L202.94 83.8047L198.72 78.4707L199.578 67.0757L203.656 62.8737L207.018 67.0757L206.017 80.5717ZM202.44 61.2577L198.362 65.5407H184.341L177.545 57.0547H199.006L202.44 61.2577Z" fill="white"/>
<path d="M231.698 109.746L227.692 113.948L224.258 109.746L225.617 92.2087L230.696 86.9557L233.2 90.1077L231.698 109.746ZM233.987 80.5717L230.911 83.8047L226.69 78.4707L227.191 72.0057L231.268 67.8027L234.631 72.0057L233.987 80.5717ZM249.296 61.2577L245.147 65.5407H217.605L214.242 61.2577L218.249 57.0547H245.791L249.296 61.2577Z" fill="white"/>
<path d="M150.622 12.5964C152.334 12.5964 153.721 11.209 153.721 9.49744C153.721 7.78591 152.334 6.39844 150.622 6.39844C148.911 6.39844 147.523 7.78591 147.523 9.49744C147.523 11.209 148.911 12.5964 150.622 12.5964Z" fill="white"/>
<path fill-rule="evenodd" clip-rule="evenodd" d="M169.03 9.27803C169.81 9.38103 170.36 10.097 170.257 10.877C170.154 11.657 169.438 12.207 168.658 12.104C167.878 12.002 167.328 11.285 167.43 10.505C167.533 9.72502 168.25 9.17503 169.03 9.27803Z" fill="white"/>
<path fill-rule="evenodd" clip-rule="evenodd" d="M132.704 9.27803C131.924 9.38103 131.375 10.097 131.477 10.877C131.58 11.657 132.297 12.207 133.077 12.104C133.857 12.002 134.407 11.285 134.304 10.505C134.201 9.72502 133.484 9.17503 132.704 9.27803Z" fill="white"/>
<path fill-rule="evenodd" clip-rule="evenodd" d="M204.596 18.8079C205.323 19.1089 205.669 19.9439 205.367 20.6709C205.066 21.3979 204.232 21.7429 203.505 21.4419C202.778 21.1409 202.432 20.3069 202.734 19.5799C203.035 18.8529 203.869 18.5069 204.596 18.8079Z" fill="white"/>
<path fill-rule="evenodd" clip-rule="evenodd" d="M97.1415 18.8079C96.4145 19.1089 96.0695 19.9439 96.3705 20.6709C96.6715 21.3979 97.5055 21.7429 98.2325 21.4419C98.9595 21.1409 99.3055 20.3069 99.0045 19.5799C98.7025 18.8529 97.8685 18.5069 97.1415 18.8079Z" fill="white"/>
<path fill-rule="evenodd" clip-rule="evenodd" d="M236.48 37.2163C237.104 37.6953 237.222 38.5903 236.743 39.2143C236.264 39.8393 235.369 39.9573 234.745 39.4783C234.12 38.9993 234.003 38.1033 234.482 37.4793C234.96 36.8553 235.856 36.7373 236.48 37.2163Z" fill="white"/>
<path fill-rule="evenodd" clip-rule="evenodd" d="M65.2566 37.2163C64.6326 37.6953 64.5146 38.5903 64.9936 39.2143C65.4726 39.8393 66.3676 39.9573 66.9916 39.4783C67.6166 38.9993 67.7346 38.1033 67.2556 37.4793C66.7766 36.8553 65.8806 36.7373 65.2566 37.2163Z" fill="white"/>
<path fill-rule="evenodd" clip-rule="evenodd" d="M262.517 63.2527C262.996 63.8767 262.878 64.7717 262.254 65.2507C261.63 65.7297 260.734 65.6117 260.255 64.9877C259.776 64.3637 259.894 63.4687 260.518 62.9897C261.143 62.5107 262.038 62.6287 262.517 63.2527Z" fill="white"/>
<path fill-rule="evenodd" clip-rule="evenodd" d="M39.2202 63.2527C38.7412 63.8767 38.8592 64.7717 39.4832 65.2507C40.1072 65.7297 41.0032 65.6117 41.4822 64.9877C41.9612 64.3637 41.8432 63.4687 41.2192 62.9897C40.5952 62.5107 39.6992 62.6287 39.2202 63.2527Z" fill="white"/>
<path fill-rule="evenodd" clip-rule="evenodd" d="M187.127 12.8771C187.887 13.0811 188.339 13.8631 188.135 14.6231C187.931 15.3831 187.149 15.8351 186.389 15.6311C185.629 15.4271 185.178 14.6451 185.381 13.8851C185.585 13.1251 186.367 12.6731 187.127 12.8771Z" fill="white"/>
<path fill-rule="evenodd" clip-rule="evenodd" d="M114.612 12.8771C113.852 13.0811 113.4 13.8631 113.604 14.6231C113.808 15.3831 114.59 15.8351 115.35 15.6311C116.11 15.4271 116.561 14.6451 116.358 13.8851C116.154 13.1251 115.372 12.6731 114.612 12.8771Z" fill="white"/>
<path fill-rule="evenodd" clip-rule="evenodd" d="M221.977 25.5172C223.459 26.3722 223.967 28.2692 223.112 29.7502C222.256 31.2322 220.359 31.7402 218.878 30.8852C217.397 30.0292 216.888 28.1322 217.744 26.6512C218.599 25.1702 220.496 24.6612 221.977 25.5172Z" fill="white"/>
<path fill-rule="evenodd" clip-rule="evenodd" d="M79.7572 25.5172C78.2752 26.3722 77.7672 28.2692 78.6222 29.7502C79.4782 31.2322 81.3752 31.7402 82.8562 30.8852C84.3372 30.0292 84.8462 28.1322 83.9912 26.6512C83.1352 25.1702 81.2382 24.6612 79.7572 25.5172Z" fill="white"/>
<path fill-rule="evenodd" clip-rule="evenodd" d="M250.351 49.3818C250.907 49.9378 250.907 50.8419 250.351 51.3979C249.795 51.9539 248.891 51.9539 248.335 51.3979C247.779 50.8419 247.779 49.9378 248.335 49.3818C248.891 48.8258 249.795 48.8258 250.351 49.3818Z" fill="white"/>
<path fill-rule="evenodd" clip-rule="evenodd" d="M51.3857 49.3818C50.8298 49.9378 50.8298 50.8419 51.3857 51.3979C51.9427 51.9539 52.8458 51.9539 53.4018 51.3979C53.9578 50.8419 53.9578 49.9378 53.4018 49.3818C52.8458 48.8258 51.9427 48.8258 51.3857 49.3818Z" fill="white"/>
<path fill-rule="evenodd" clip-rule="evenodd" d="M274.217 77.7572C275.073 79.2382 274.564 81.1352 273.083 81.9902C271.602 82.8462 269.705 82.3372 268.849 80.8562C267.994 79.3752 268.502 77.4772 269.984 76.6222C271.465 75.7672 273.362 76.2752 274.217 77.7572Z" fill="white"/>
<path fill-rule="evenodd" clip-rule="evenodd" d="M27.5211 77.7572C26.6651 79.2382 27.1741 81.1352 28.6551 81.9902C30.1371 82.8462 32.0341 82.3372 32.8891 80.8562C33.7441 79.3752 33.2361 77.4772 31.7541 76.6222C30.2731 75.7672 28.3761 76.2752 27.5211 77.7572Z" fill="white"/>
<path fill-rule="evenodd" clip-rule="evenodd" d="M280.926 95.1385C281.227 95.8655 280.881 96.6995 280.154 97.0005C279.427 97.3015 278.593 96.9565 278.292 96.2295C277.991 95.5025 278.336 94.6675 279.063 94.3665C279.79 94.0655 280.625 94.4115 280.926 95.1385Z" fill="white"/>
<path fill-rule="evenodd" clip-rule="evenodd" d="M20.8123 95.1385C20.5103 95.8655 20.8563 96.6995 21.5833 97.0005C22.3103 97.3015 23.1443 96.9565 23.4453 96.2295C23.7473 95.5025 23.4013 94.6675 22.6743 94.3665C21.9473 94.0655 21.1133 94.4115 20.8123 95.1385Z" fill="white"/>
<path fill-rule="evenodd" clip-rule="evenodd" d="M14.8807 112.608C14.6777 113.368 15.1287 114.15 15.8887 114.354C16.6487 114.557 17.4307 114.106 17.6347 113.346C17.8387 112.586 17.3867 111.803 16.6267 111.6C15.8667 111.396 15.0847 111.848 14.8807 112.608Z" fill="white"/>
<path fill-rule="evenodd" clip-rule="evenodd" d="M290.456 130.704C290.559 131.484 290.009 132.201 289.229 132.304C288.449 132.406 287.732 131.856 287.629 131.076C287.527 130.296 288.077 129.58 288.857 129.477C289.637 129.374 290.353 129.924 290.456 130.704Z" fill="white"/>
<path fill-rule="evenodd" clip-rule="evenodd" d="M11.2819 130.704C11.1789 131.484 11.7289 132.201 12.5089 132.304C13.2889 132.406 14.0059 131.856 14.1089 131.076C14.2109 130.296 13.6609 129.58 12.8809 129.477C12.1009 129.374 11.3849 129.924 11.2819 130.704Z" fill="white"/>
<path fill-rule="evenodd" clip-rule="evenodd" d="M293.336 149.112C293.336 150.822 291.947 152.211 290.236 152.211C288.526 152.211 287.137 150.822 287.137 149.112C287.137 147.401 288.526 146.012 290.236 146.012C291.947 146.012 293.336 147.401 293.336 149.112Z" fill="white"/>
<path fill-rule="evenodd" clip-rule="evenodd" d="M8.40234 149.112C8.40234 150.822 9.79034 152.211 11.5013 152.211C13.2113 152.211 14.6003 150.822 14.6003 149.112C14.6003 147.401 13.2113 146.012 11.5013 146.012C9.79034 146.012 8.40234 147.401 8.40234 149.112Z" fill="white"/>
<path fill-rule="evenodd" clip-rule="evenodd" d="M286.858 112.608C287.061 113.368 286.61 114.15 285.85 114.354C285.09 114.557 284.308 114.106 284.104 113.346C283.9 112.586 284.352 111.803 285.112 111.6C285.872 111.396 286.654 111.848 286.858 112.608Z" fill="white"/>
<defs>
<linearGradient id="paint0_linear_1208_525" x1="150.609" y1="24.2806" x2="150.609" y2="138.256" gradientUnits="userSpaceOnUse">
<stop stop-color="#374E5B"/>
<stop offset="1" stop-color="#456171"/>
</linearGradient>
<linearGradient id="paint1_linear_1208_525" x1="150.609" y1="24.2806" x2="150.609" y2="138.256" gradientUnits="userSpaceOnUse">
<stop stop-color="#374E5B"/>
<stop offset="1" stop-color="#456171"/>
</linearGradient>
</defs>
</svg>
