<svg width="304" height="155" viewBox="0 0 304 155" fill="none" xmlns="http://www.w3.org/2000/svg">
<path fill-rule="evenodd" clip-rule="evenodd" d="M302 151C302 68.157 234.843 1 152 1C69.158 1 2 68.157 2 151H302Z" fill="url(#paint0_linear_678_3457)"/>
<path fill-rule="evenodd" clip-rule="evenodd" d="M301.288 136.312H187.531V127.762L197.897 126.285L209.587 121.007L219.141 118.136L223.923 117.946L228.596 118.875L238.039 117.63L242.99 114.442L257.384 112.672L262.181 109.418L266.697 108.975L270.241 107.94H276.963L280.507 108.975L285.022 109.418L289.82 112.672L297.296 113.591C299.188 120.961 300.534 128.55 301.288 136.312Z" fill="url(#paint1_linear_678_3457)"/>
<path fill-rule="evenodd" clip-rule="evenodd" d="M6.81894 113.145L8.88294 113.347L12.9799 116.126L25.2709 117.638L29.4979 120.359L37.5619 121.423L41.5519 120.63L45.6349 120.792L53.7929 123.243L63.7749 127.75L72.6269 129.012V136.312H2.71094C3.48094 128.393 4.86594 120.655 6.81894 113.145Z" fill="url(#paint2_linear_678_3457)"/>
<path fill-rule="evenodd" clip-rule="evenodd" d="M128.545 107.94L132.089 108.975L136.604 109.418L141.402 112.672L155.796 114.442L160.747 117.63L170.19 118.875L174.863 117.946L179.645 118.136L189.199 121.007L200.889 126.285L211.255 127.762V136.312H39.1133V127.762L49.4793 126.285L61.1693 121.007L70.7233 118.136L75.5053 117.946L80.1783 118.875L89.6213 117.63L94.5723 114.442L108.965 112.672L113.763 109.418L118.279 108.975L121.823 107.94H128.545Z" fill="url(#paint3_linear_678_3457)"/>
<path d="M20.0758 97.0529C20.342 97.0529 20.5578 96.8371 20.5578 96.5709C20.5578 96.3047 20.342 96.0889 20.0758 96.0889C19.8095 96.0889 19.5938 96.3047 19.5938 96.5709C19.5938 96.8371 19.8095 97.0529 20.0758 97.0529Z" fill="#C070D0"/>
<path d="M163.369 97.0529C163.635 97.0529 163.851 96.8371 163.851 96.5709C163.851 96.3047 163.635 96.0889 163.369 96.0889C163.103 96.0889 162.887 96.3047 162.887 96.5709C162.887 96.8371 163.103 97.0529 163.369 97.0529Z" fill="#C070D0"/>
<path d="M114.044 97.0529C114.311 97.0529 114.526 96.8371 114.526 96.5709C114.526 96.3047 114.311 96.0889 114.044 96.0889C113.778 96.0889 113.562 96.3047 113.562 96.5709C113.562 96.8371 113.778 97.0529 114.044 97.0529Z" fill="#C070D0"/>
<path d="M257.337 97.0529C257.604 97.0529 257.819 96.8371 257.819 96.5709C257.819 96.3047 257.604 96.0889 257.337 96.0889C257.071 96.0889 256.855 96.3047 256.855 96.5709C256.855 96.8371 257.071 97.0529 257.337 97.0529Z" fill="#C070D0"/>
<path d="M69.9625 96.089C70.2287 96.089 70.4445 95.8732 70.4445 95.607C70.4445 95.3408 70.2287 95.125 69.9625 95.125C69.6963 95.125 69.4805 95.3408 69.4805 95.607C69.4805 95.8732 69.6963 96.089 69.9625 96.089Z" fill="#C070D0"/>
<path d="M213.255 96.089C213.522 96.089 213.737 95.8732 213.737 95.607C213.737 95.3408 213.522 95.125 213.255 95.125C212.989 95.125 212.773 95.3408 212.773 95.607C212.773 95.8732 212.989 96.089 213.255 96.089Z" fill="#C070D0"/>
<path d="M28.9937 109.103C29.2599 109.103 29.4757 108.887 29.4757 108.621C29.4757 108.355 29.2599 108.139 28.9937 108.139C28.7275 108.139 28.5117 108.355 28.5117 108.621C28.5117 108.887 28.7275 109.103 28.9937 109.103Z" fill="#C070D0"/>
<path d="M172.283 109.103C172.549 109.103 172.765 108.887 172.765 108.621C172.765 108.355 172.549 108.139 172.283 108.139C172.017 108.139 171.801 108.355 171.801 108.621C171.801 108.887 172.017 109.103 172.283 109.103Z" fill="#C070D0"/>
<path d="M78.8765 108.139C79.1427 108.139 79.3585 107.923 79.3585 107.657C79.3585 107.391 79.1427 107.175 78.8765 107.175C78.6103 107.175 78.3945 107.391 78.3945 107.657C78.3945 107.923 78.6103 108.139 78.8765 108.139Z" fill="#C070D0"/>
<path d="M222.169 108.139C222.436 108.139 222.652 107.923 222.652 107.657C222.652 107.391 222.436 107.175 222.169 107.175C221.903 107.175 221.688 107.391 221.688 107.657C221.688 107.923 221.903 108.139 222.169 108.139Z" fill="#C070D0"/>
<path d="M32.8492 98.0172C33.1154 98.0172 33.3312 97.8014 33.3312 97.5352C33.3312 97.269 33.1154 97.0532 32.8492 97.0532C32.583 97.0532 32.3672 97.269 32.3672 97.5352C32.3672 97.8014 32.583 98.0172 32.8492 98.0172Z" fill="#C070D0"/>
<path d="M176.138 98.0172C176.404 98.0172 176.62 97.8014 176.62 97.5352C176.62 97.269 176.404 97.0532 176.138 97.0532C175.872 97.0532 175.656 97.269 175.656 97.5352C175.656 97.8014 175.872 98.0172 176.138 98.0172Z" fill="#C070D0"/>
<path d="M126.818 98.0172C127.084 98.0172 127.3 97.8014 127.3 97.5352C127.3 97.269 127.084 97.0532 126.818 97.0532C126.552 97.0532 126.336 97.269 126.336 97.5352C126.336 97.8014 126.552 98.0172 126.818 98.0172Z" fill="#C070D0"/>
<path d="M270.111 98.0172C270.377 98.0172 270.593 97.8014 270.593 97.5352C270.593 97.269 270.377 97.0532 270.111 97.0532C269.845 97.0532 269.629 97.269 269.629 97.5352C269.629 97.8014 269.845 98.0172 270.111 98.0172Z" fill="#C070D0"/>
<path d="M85.4117 104.378C85.6779 104.378 85.8937 104.162 85.8937 103.896C85.8937 103.63 85.6779 103.414 85.4117 103.414C85.1455 103.414 84.9297 103.63 84.9297 103.896C84.9297 104.162 85.1455 104.378 85.4117 104.378Z" fill="#C070D0"/>
<path d="M228.705 104.378C228.971 104.378 229.187 104.162 229.187 103.896C229.187 103.63 228.971 103.414 228.705 103.414C228.438 103.414 228.223 103.63 228.223 103.896C228.223 104.162 228.438 104.378 228.705 104.378Z" fill="#C070D0"/>
<path d="M26.7782 100.035C26.9361 100.035 27.0642 99.9068 27.0642 99.7489C27.0642 99.5909 26.9361 99.4629 26.7782 99.4629C26.6202 99.4629 26.4922 99.5909 26.4922 99.7489C26.4922 99.9068 26.6202 100.035 26.7782 100.035Z" fill="#C070D0"/>
<path d="M170.071 100.035C170.229 100.035 170.357 99.9068 170.357 99.7489C170.357 99.5909 170.229 99.4629 170.071 99.4629C169.913 99.4629 169.785 99.5909 169.785 99.7489C169.785 99.9068 169.913 100.035 170.071 100.035Z" fill="#C070D0"/>
<path d="M120.747 100.035C120.905 100.035 121.033 99.9068 121.033 99.7489C121.033 99.5909 120.905 99.4629 120.747 99.4629C120.589 99.4629 120.461 99.5909 120.461 99.7489C120.461 99.9068 120.589 100.035 120.747 100.035Z" fill="#C070D0"/>
<path d="M264.04 100.035C264.198 100.035 264.326 99.9068 264.326 99.7489C264.326 99.5909 264.198 99.4629 264.04 99.4629C263.882 99.4629 263.754 99.5909 263.754 99.7489C263.754 99.9068 263.882 100.035 264.04 100.035Z" fill="#C070D0"/>
<path d="M76.6649 99.072C76.8229 99.072 76.9509 98.944 76.9509 98.786C76.9509 98.6281 76.8229 98.5 76.6649 98.5C76.507 98.5 76.3789 98.6281 76.3789 98.786C76.3789 98.944 76.507 99.072 76.6649 99.072Z" fill="#C070D0"/>
<path d="M219.958 99.072C220.116 99.072 220.244 98.944 220.244 98.786C220.244 98.6281 220.116 98.5 219.958 98.5C219.8 98.5 219.672 98.6281 219.672 98.786C219.672 98.944 219.8 99.072 219.958 99.072Z" fill="#C070D0"/>
<path d="M58.1962 109.675C58.3541 109.675 58.4822 109.547 58.4822 109.389C58.4822 109.231 58.3541 109.103 58.1962 109.103C58.0382 109.103 57.9102 109.231 57.9102 109.389C57.9102 109.547 58.0382 109.675 58.1962 109.675Z" fill="#C070D0"/>
<path d="M201.489 109.675C201.647 109.675 201.775 109.547 201.775 109.389C201.775 109.231 201.647 109.103 201.489 109.103C201.331 109.103 201.203 109.231 201.203 109.389C201.203 109.547 201.331 109.675 201.489 109.675Z" fill="#C070D0"/>
<path d="M44.4618 112.085C44.6197 112.085 44.7478 111.957 44.7478 111.799C44.7478 111.641 44.6197 111.513 44.4618 111.513C44.3038 111.513 44.1758 111.641 44.1758 111.799C44.1758 111.957 44.3038 112.085 44.4618 112.085Z" fill="#C070D0"/>
<path d="M187.755 112.085C187.913 112.085 188.041 111.957 188.041 111.799C188.041 111.641 187.913 111.513 187.755 111.513C187.597 111.513 187.469 111.641 187.469 111.799C187.469 111.957 187.597 112.085 187.755 112.085Z" fill="#C070D0"/>
<path d="M47.8368 98.7849C47.9947 98.7849 48.1228 98.6568 48.1228 98.4989C48.1228 98.3409 47.9947 98.2129 47.8368 98.2129C47.6788 98.2129 47.5508 98.3409 47.5508 98.4989C47.5508 98.6568 47.6788 98.7849 47.8368 98.7849Z" fill="#C070D0"/>
<path d="M191.126 98.7849C191.284 98.7849 191.412 98.6568 191.412 98.4989C191.412 98.3409 191.284 98.2129 191.126 98.2129C190.968 98.2129 190.84 98.3409 190.84 98.4989C190.84 98.6568 190.968 98.7849 191.126 98.7849Z" fill="#C070D0"/>
<path d="M34.0985 86.2991C34.2565 86.2991 34.3845 86.171 34.3845 86.013C34.3845 85.8551 34.2565 85.7271 34.0985 85.7271C33.9405 85.7271 33.8125 85.8551 33.8125 86.013C33.8125 86.171 33.9405 86.2991 34.0985 86.2991Z" fill="#C070D0"/>
<path d="M177.391 86.2991C177.549 86.2991 177.677 86.171 177.677 86.013C177.677 85.8551 177.549 85.7271 177.391 85.7271C177.234 85.7271 177.105 85.8551 177.105 86.013C177.105 86.171 177.234 86.2991 177.391 86.2991Z" fill="#C070D0"/>
<path d="M128.067 86.2991C128.225 86.2991 128.353 86.171 128.353 86.013C128.353 85.8551 128.225 85.7271 128.067 85.7271C127.909 85.7271 127.781 85.8551 127.781 86.013C127.781 86.171 127.909 86.2991 128.067 86.2991Z" fill="#C070D0"/>
<path d="M271.36 86.2991C271.518 86.2991 271.646 86.171 271.646 86.013C271.646 85.8551 271.518 85.7271 271.36 85.7271C271.202 85.7271 271.074 85.8551 271.074 86.013C271.074 86.171 271.202 86.2991 271.36 86.2991Z" fill="#C070D0"/>
<path d="M63.7391 102.686C63.8971 102.686 64.0251 102.558 64.0251 102.4C64.0251 102.242 63.8971 102.114 63.7391 102.114C63.5812 102.114 63.4531 102.242 63.4531 102.4C63.4531 102.558 63.5812 102.686 63.7391 102.686Z" fill="#C070D0"/>
<path d="M207.032 102.686C207.19 102.686 207.318 102.558 207.318 102.4C207.318 102.242 207.19 102.114 207.032 102.114C206.874 102.114 206.746 102.242 206.746 102.4C206.746 102.558 206.874 102.686 207.032 102.686Z" fill="#C070D0"/>
<path d="M60.0047 89.4319C60.1627 89.4319 60.2907 89.3038 60.2907 89.1459C60.2907 88.9879 60.1627 88.8599 60.0047 88.8599C59.8468 88.8599 59.7188 88.9879 59.7188 89.1459C59.7188 89.3038 59.8468 89.4319 60.0047 89.4319Z" fill="#C070D0"/>
<path d="M203.298 89.4319C203.456 89.4319 203.584 89.3038 203.584 89.1459C203.584 88.9879 203.456 88.8599 203.298 88.8599C203.14 88.8599 203.012 88.9879 203.012 89.1459C203.012 89.3038 203.14 89.4319 203.298 89.4319Z" fill="#C070D0"/>
<path d="M100.614 105.819C100.772 105.819 100.9 105.691 100.9 105.533C100.9 105.375 100.772 105.247 100.614 105.247C100.456 105.247 100.328 105.375 100.328 105.533C100.328 105.691 100.456 105.819 100.614 105.819Z" fill="#C070D0"/>
<path d="M243.907 105.819C244.065 105.819 244.193 105.691 244.193 105.533C244.193 105.375 244.065 105.247 243.907 105.247C243.749 105.247 243.621 105.375 243.621 105.533C243.621 105.691 243.749 105.819 243.907 105.819Z" fill="#C070D0"/>
<path d="M100.638 96.7561C100.796 96.7561 100.924 96.628 100.924 96.4701C100.924 96.3121 100.796 96.1841 100.638 96.1841C100.48 96.1841 100.352 96.3121 100.352 96.4701C100.352 96.628 100.48 96.7561 100.638 96.7561Z" fill="#C070D0"/>
<path d="M243.931 96.7561C244.088 96.7561 244.217 96.628 244.217 96.4701C244.217 96.3121 244.088 96.1841 243.931 96.1841C243.773 96.1841 243.645 96.3121 243.645 96.4701C243.645 96.628 243.773 96.7561 243.931 96.7561Z" fill="#C070D0"/>
<path fill-rule="evenodd" clip-rule="evenodd" d="M4.389 124.192L6.914 128.68H5.74V129.676H8.381V123.109H13.957V129.676H15.425V128.68L21.001 125.746V129.676H22.468V128.102L28.044 125.168V129.676H30.392V128.093H29.512V126.92H33.327V125.322H34.794V126.92H38.609V125.322H41.577L42.718 126.92H45.946V128.093H45.066V129.676H48.294V126.924H47.12L50.055 125.519L58.272 123.758H59.74V125.519H61.207L63.849 126.924H62.675V129.676H64.436V128.093H63.849V126.92H65.022V125.746H65.536V124.572H66.27V125.746H66.857V124.572H67.59V125.746H68.177V124.572H68.911V125.746H69.425V126.92H70.599V128.093H70.012V129.676H71.039V128.974H72.506V129.676H73.533V125.452H74.414V124.278H75.294V127.217H79.109V124.278H79.99V125.452H80.87V129.676H82.925V123.989L88.501 122.288V129.676H92.903V128.093H92.022V126.92H95.838V125.322H97.305V126.92H101.12V125.322H104.088L105.229 126.92H108.457V128.093H107.577V129.676H110.805V126.101H109.631L112.566 121.406H123.718L126.359 126.101H125.185V129.676H126.946V128.093H126.359V126.92H127.533V125.746H128.047V124.572H128.781V125.746H129.367V124.572H130.101V125.746H130.688V124.572H131.422V125.746H131.935V126.92H133.109V128.093H132.522V129.676H133.55V128.974H135.017V129.676H136.044V125.452H136.925V124.278H137.805V123.104H141.62V124.278H142.501V125.452H143.381V129.676H145.435V123.989L151.011 121.054V123.985H158.46L161.101 128.68H159.927V129.676H162.569V123.109H168.145V129.676H169.612V128.68L175.188 125.746V129.676H176.656V128.102L182.232 125.168V129.676H184.58V128.093H183.699V126.92H187.514V125.322H188.982V126.92H192.797V125.322H195.764L196.906 126.92H200.134V128.093H199.253V129.676H202.482V126.924H201.308L204.243 125.519L212.46 123.758H213.927V125.519H215.395L218.036 126.924H216.862V129.676H218.623V128.093H218.036V126.92H219.21V125.746H219.723V124.572H220.457V125.746H221.044V124.572H221.778V125.746H222.365V124.572H223.098V125.746H223.612V126.92H224.786V128.093H224.199V129.676H225.226V128.974H226.694V129.676H227.721V125.452H228.601V124.278H229.482V127.217H233.297V124.278H234.177V125.452H235.058V129.676H237.112V123.989L242.688 122.288V129.676H247.09V128.093H246.21V126.92H250.025V125.322H251.492V126.92H255.308V125.322H258.275L259.416 126.92H262.645V128.093H261.764V129.676H264.992V126.101H263.819L266.753 121.406H277.905L280.547 126.101H279.373V129.676H281.134V128.093H280.547V126.92H281.721V125.746H282.234V124.572H282.968V125.746H283.555V124.572H284.289V125.746H284.876V124.572H285.609V125.746H286.123V126.92H287.297V128.093H286.71V129.676H287.737V128.974H289.204V129.676H290.232V125.452H291.112V124.278H291.992V123.104H295.808V124.278H296.688V125.452H297.568V129.676H299.623V124.253C301.185 132.932 302 141.871 302 151H2C2 141.849 2.82 132.89 4.389 124.192Z" fill="url(#paint4_linear_678_3457)"/>
<path d="M154.036 129.376H152.809V130.91H154.036V129.376Z" fill="#1DE0E0"/>
<path d="M157.325 129.376H156.098V130.91H157.325V129.376Z" fill="#FDDB86"/>
<path d="M33.9887 129.376H32.7617V130.91H33.9887V129.376Z" fill="#FDDB86"/>
<path d="M188.176 129.376H186.949V130.91H188.176V129.376Z" fill="#FDDB86"/>
<path d="M179.325 136.986H178.102V138.82H179.325V136.986Z" fill="#FDDB86"/>
<path d="M42.0003 137.903H40.7773V139.737H42.0003V137.903Z" fill="#D513E3"/>
<path d="M196.188 137.903H194.965V139.737H196.188V137.903Z" fill="#D513E3"/>
<path d="M143.184 145.419H141.961V147.253H143.184V145.419Z" fill="#D513E3"/>
<path d="M35.0082 144.502H33.7852V146.336H35.0082V144.502Z" fill="#FDDB86"/>
<path d="M189.196 144.502H187.973V146.336H189.196V144.502Z" fill="#FDDB86"/>
<path d="M169.039 141.827H167.816V143.661H169.039V141.827Z" fill="#D513E3"/>
<path d="M157.524 139.566H156.301V141.4H157.524V139.566Z" fill="#FDDB86"/>
<path d="M87.6566 142.744H86.4336V144.578H87.6566V142.744Z" fill="#FDDB86"/>
<path d="M241.844 142.744H240.621V144.578H241.844V142.744Z" fill="#FDDB86"/>
<path d="M102.676 136.685H101.453V138.519H102.676V136.685Z" fill="#FDDB86"/>
<path d="M256.864 136.685H255.641V138.519H256.864V136.685Z" fill="#FDDB86"/>
<path d="M73.6761 137.508H72.4531V139.342H73.6761V137.508Z" fill="#FDDB86"/>
<path d="M227.864 137.508H226.641V139.342H227.864V137.508Z" fill="#FDDB86"/>
<path d="M257.688 145.734H256.465V147.568H257.688V145.734Z" fill="#D513E3"/>
<path d="M120.153 140.276H118.93V142.11H120.153V140.276Z" fill="#FDDB86"/>
<path d="M274.34 140.276H273.117V142.11H274.34V140.276Z" fill="#FDDB86"/>
<path d="M118.094 140.276H116.871V142.11H118.094V140.276Z" fill="#1DE0E0"/>
<path d="M272.282 140.276H271.059V142.11H272.282V140.276Z" fill="#1DE0E0"/>
<path d="M138.051 135.04H136.828V136.874H138.051V135.04Z" fill="#FDDB86"/>
<path d="M56.3158 141.827H55.1758V143.661H56.3158V141.827Z" fill="#1DE0E0"/>
<path d="M210.503 141.827H209.363V143.661H210.503V141.827Z" fill="#1DE0E0"/>
<path d="M60.9301 129.376H59.7031V130.91H60.9301V129.376Z" fill="#FDDB86"/>
<path d="M215.118 129.376H213.891V130.91H215.118V129.376Z" fill="#FDDB86"/>
<path d="M120.364 129.376H119.137V130.91H120.364V129.376Z" fill="#FDDB86"/>
<path d="M274.551 129.376H273.324V130.91H274.551V129.376Z" fill="#FDDB86"/>
<path d="M123.657 129.376H122.43V130.91H123.657V129.376Z" fill="#FDDB86"/>
<path d="M58.2543 129.376H57.0273V130.91H58.2543V129.376Z" fill="#FDDB86"/>
<path d="M212.442 129.376H211.215V130.91H212.442V129.376Z" fill="#FDDB86"/>
<path d="M152.013 13.116C153.725 13.116 155.112 11.7285 155.112 10.017C155.112 8.30544 153.725 6.91797 152.013 6.91797C150.302 6.91797 148.914 8.30544 148.914 10.017C148.914 11.7285 150.302 13.116 152.013 13.116Z" fill="white"/>
<path fill-rule="evenodd" clip-rule="evenodd" d="M170.424 9.79805C171.204 9.90105 171.754 10.617 171.652 11.397C171.549 12.177 170.832 12.727 170.052 12.624C169.272 12.522 168.722 11.8051 168.825 11.0251C168.928 10.2451 169.644 9.69505 170.424 9.79805Z" fill="white"/>
<path fill-rule="evenodd" clip-rule="evenodd" d="M134.099 9.79805C133.319 9.90105 132.769 10.617 132.872 11.397C132.975 12.177 133.691 12.727 134.471 12.624C135.251 12.522 135.801 11.8051 135.699 11.0251C135.596 10.2451 134.879 9.69505 134.099 9.79805Z" fill="white"/>
<path fill-rule="evenodd" clip-rule="evenodd" d="M205.987 19.3269C206.714 19.6279 207.059 20.4629 206.758 21.1899C206.457 21.9169 205.623 22.2619 204.896 21.9609C204.169 21.6599 203.823 20.8259 204.124 20.0989C204.425 19.3719 205.26 19.0259 205.987 19.3269Z" fill="white"/>
<path fill-rule="evenodd" clip-rule="evenodd" d="M98.533 19.3269C97.806 19.6279 97.46 20.4629 97.761 21.1899C98.063 21.9169 98.897 22.2619 99.624 21.9609C100.351 21.6599 100.696 20.8259 100.395 20.0989C100.094 19.3719 99.26 19.0259 98.533 19.3269Z" fill="white"/>
<path fill-rule="evenodd" clip-rule="evenodd" d="M237.872 37.7368C238.496 38.2158 238.614 39.1108 238.135 39.7348C237.656 40.3598 236.761 40.4778 236.136 39.9988C235.512 39.5198 235.394 38.6238 235.873 37.9998C236.352 37.3758 237.248 37.2578 237.872 37.7368Z" fill="white"/>
<path fill-rule="evenodd" clip-rule="evenodd" d="M66.6472 37.7368C66.0232 38.2158 65.9052 39.1108 66.3842 39.7348C66.8632 40.3598 67.7582 40.4778 68.3822 39.9988C69.0062 39.5198 69.1242 38.6238 68.6452 37.9998C68.1672 37.3758 67.2712 37.2578 66.6472 37.7368Z" fill="white"/>
<path fill-rule="evenodd" clip-rule="evenodd" d="M263.908 63.7718C264.387 64.3958 264.269 65.2908 263.645 65.7698C263.021 66.2488 262.125 66.1308 261.646 65.5068C261.167 64.8828 261.285 63.9878 261.909 63.5088C262.533 63.0298 263.429 63.1478 263.908 63.7718Z" fill="white"/>
<path fill-rule="evenodd" clip-rule="evenodd" d="M40.6108 63.7718C40.1318 64.3958 40.2498 65.2908 40.8738 65.7698C41.4978 66.2488 42.3938 66.1308 42.8728 65.5068C43.3518 64.8828 43.2338 63.9878 42.6098 63.5088C41.9848 63.0298 41.0898 63.1478 40.6108 63.7718Z" fill="white"/>
<path fill-rule="evenodd" clip-rule="evenodd" d="M188.517 13.3971C189.277 13.6011 189.729 14.3831 189.525 15.1431C189.321 15.9031 188.539 16.3551 187.779 16.1511C187.019 15.9471 186.568 15.1651 186.771 14.4051C186.975 13.6451 187.757 13.1931 188.517 13.3971Z" fill="white"/>
<path fill-rule="evenodd" clip-rule="evenodd" d="M116.002 13.3971C115.242 13.6011 114.79 14.3831 114.994 15.1431C115.197 15.9031 115.98 16.3551 116.74 16.1511C117.5 15.9471 117.951 15.1651 117.748 14.4051C117.544 13.6451 116.762 13.1931 116.002 13.3971Z" fill="white"/>
<path fill-rule="evenodd" clip-rule="evenodd" d="M223.372 26.0382C224.854 26.8932 225.362 28.7902 224.507 30.2712C223.651 31.7532 221.754 32.2612 220.273 31.4062C218.791 30.5502 218.283 28.6532 219.138 27.1722C219.994 25.6912 221.891 25.1822 223.372 26.0382Z" fill="white"/>
<path fill-rule="evenodd" clip-rule="evenodd" d="M81.1517 26.0382C79.6697 26.8932 79.1617 28.7902 80.0167 30.2712C80.8717 31.7532 82.7697 32.2612 84.2507 31.4062C85.7317 30.5502 86.2407 28.6532 85.3847 27.1722C84.5297 25.6912 82.6327 25.1822 81.1517 26.0382Z" fill="white"/>
<path fill-rule="evenodd" clip-rule="evenodd" d="M251.742 49.9009C252.298 50.4569 252.298 51.3609 251.742 51.9169C251.185 52.4729 250.282 52.4729 249.726 51.9169C249.169 51.3609 249.169 50.4569 249.726 49.9009C250.282 49.3449 251.185 49.3449 251.742 49.9009Z" fill="white"/>
<path fill-rule="evenodd" clip-rule="evenodd" d="M52.7764 49.9009C52.2204 50.4569 52.2204 51.3609 52.7764 51.9169C53.3324 52.4729 54.2364 52.4729 54.7924 51.9169C55.3484 51.3609 55.3484 50.4569 54.7924 49.9009C54.2364 49.3449 53.3324 49.3449 52.7764 49.9009Z" fill="white"/>
<path fill-rule="evenodd" clip-rule="evenodd" d="M275.607 78.2752C276.463 79.7562 275.954 81.6532 274.473 82.5082C272.991 83.3642 271.094 82.8552 270.239 81.3742C269.384 79.8932 269.892 77.9952 271.374 77.1402C272.855 76.2852 274.752 76.7932 275.607 78.2752Z" fill="white"/>
<path fill-rule="evenodd" clip-rule="evenodd" d="M28.9117 78.2752C28.0557 79.7562 28.5647 81.6532 30.0457 82.5082C31.5267 83.3642 33.4237 82.8552 34.2797 81.3742C35.1347 79.8932 34.6267 77.9952 33.1447 77.1402C31.6637 76.2852 29.7667 76.7932 28.9117 78.2752Z" fill="white"/>
<path fill-rule="evenodd" clip-rule="evenodd" d="M282.316 95.658C282.618 96.385 282.272 97.219 281.545 97.52C280.818 97.821 279.984 97.476 279.683 96.749C279.381 96.022 279.727 95.188 280.454 94.886C281.181 94.585 282.015 94.931 282.316 95.658Z" fill="white"/>
<path fill-rule="evenodd" clip-rule="evenodd" d="M22.2024 95.658C21.9014 96.385 22.2474 97.219 22.9744 97.52C23.7014 97.821 24.5354 97.476 24.8364 96.749C25.1374 96.022 24.7924 95.188 24.0654 94.886C23.3384 94.585 22.5034 94.931 22.2024 95.658Z" fill="white"/>
<path fill-rule="evenodd" clip-rule="evenodd" d="M16.2716 113.128C16.0676 113.888 16.5196 114.67 17.2796 114.874C18.0396 115.077 18.8216 114.626 19.0256 113.866C19.2296 113.106 18.7776 112.323 18.0176 112.12C17.2576 111.916 16.4756 112.368 16.2716 113.128Z" fill="white"/>
<path fill-rule="evenodd" clip-rule="evenodd" d="M291.847 131.222C291.95 132.002 291.4 132.719 290.62 132.822C289.84 132.924 289.123 132.374 289.02 131.594C288.918 130.814 289.468 130.098 290.248 129.995C291.028 129.892 291.744 130.442 291.847 131.222Z" fill="white"/>
<path fill-rule="evenodd" clip-rule="evenodd" d="M12.6726 131.222C12.5696 132.002 13.1196 132.719 13.8996 132.822C14.6796 132.924 15.3966 132.374 15.4986 131.594C15.6016 130.814 15.0516 130.098 14.2716 129.995C13.4916 129.892 12.7756 130.442 12.6726 131.222Z" fill="white"/>
<path fill-rule="evenodd" clip-rule="evenodd" d="M294.725 149.632C294.725 151.342 293.337 152.731 291.626 152.731C289.915 152.731 288.527 151.342 288.527 149.632C288.527 147.921 289.915 146.532 291.626 146.532C293.337 146.532 294.725 147.921 294.725 149.632Z" fill="white"/>
<path fill-rule="evenodd" clip-rule="evenodd" d="M9.79297 149.632C9.79297 151.342 11.182 152.731 12.893 152.731C14.603 152.731 15.992 151.342 15.992 149.632C15.992 147.921 14.603 146.532 12.893 146.532C11.182 146.532 9.79297 147.921 9.79297 149.632Z" fill="white"/>
<path fill-rule="evenodd" clip-rule="evenodd" d="M288.248 113.128C288.451 113.888 288 114.67 287.24 114.874C286.48 115.077 285.697 114.626 285.494 113.866C285.29 113.106 285.742 112.323 286.502 112.12C287.262 111.916 288.044 112.368 288.248 113.128Z" fill="white"/>
<path d="M199.231 117.948C199.491 119.34 199.231 120.068 198.449 120.131C197.458 120.258 194.408 120.226 189.299 120.036C188.726 120.036 188.386 119.182 188.282 117.473C188.022 113.171 187.891 108.393 187.891 103.142C187.891 93.5867 186.509 88.8092 183.747 88.8092C183.381 88.683 183.069 88.683 182.807 88.8092C182.443 88.9994 182.26 89.6953 182.26 90.8978C182.26 100.832 182.234 109.564 182.182 117.094C182.182 118.739 181.896 119.593 181.322 119.657C178.507 120.036 175.821 120.099 173.267 119.847C172.642 119.783 172.328 118.866 172.328 117.094L172.485 44.0098C172.485 42.8714 172.955 42.3016 173.893 42.3016C176.761 42.3016 180.67 42.2701 185.623 42.207C188.855 42.207 191.593 43.029 193.834 44.6741C196.285 46.5094 197.51 48.946 197.51 51.9828L197.432 70.6808C197.432 73.7818 196.676 76.4391 195.164 78.6539C194.121 80.2359 192.948 81.3112 191.645 81.881C191.228 82.0702 191.019 82.2604 191.019 82.4507C191.019 82.5768 191.228 82.7345 191.645 82.9248C192.635 83.3042 193.678 84.0958 194.773 85.2972C197.223 87.8915 198.449 94.188 198.449 104.186C198.449 110.577 198.709 115.164 199.231 117.948ZM187.969 60.0505C187.969 55.8742 186.822 53.8812 184.529 54.0704C184.007 54.1345 183.616 54.1661 183.355 54.1661C182.886 54.1661 182.651 54.7032 182.651 55.7796V72.4846C182.651 74.2558 183.016 75.1735 183.747 75.2366C184.007 75.2996 184.32 75.2996 184.685 75.2366C185.831 75.2366 186.613 74.5407 187.031 73.149C187.657 71.1234 187.969 66.7579 187.969 60.0505Z" fill="#DBEAFE"/>
<path d="M169.321 120.267C169.378 120.654 169.123 120.848 168.559 120.848H164.155C162.01 120.783 160.147 120.751 158.566 120.751C158.058 120.751 157.409 118.654 156.618 114.46C156.054 111.299 155.63 108.589 155.348 106.33C155.292 105.879 154.981 105.653 154.417 105.653H151.114C150.719 105.653 150.465 105.879 150.352 106.33C149.844 110.202 149.166 114.686 148.319 119.783C148.094 120.364 147.839 120.654 147.557 120.654H137.141C136.238 120.654 135.871 120.267 136.04 119.493C137.96 106.33 139.879 93.1359 141.799 79.9089C145.581 54.4869 147.839 41.7439 148.573 41.6789C151.622 41.4859 154.671 41.4859 157.719 41.6789C158.397 41.7439 160.486 54.5189 163.986 80.0049C165.793 93.4259 167.571 106.847 169.321 120.267ZM154.586 93.4579C153.739 86.1029 153.203 82.4249 152.977 82.4249C152.695 82.4249 152.356 84.0059 151.961 87.1669C151.735 89.2319 151.509 91.3289 151.283 93.4579C151.227 93.6519 151.495 93.7969 152.088 93.8939C152.681 93.9909 153.231 94.0069 153.739 93.9419C154.304 93.8779 154.586 93.7159 154.586 93.4579Z" fill="#DBEAFE"/>
<path d="M133.409 53.966C133.409 54.869 132.929 55.321 131.969 55.321C131.574 55.321 130.727 55.289 129.428 55.224H126.38C125.194 55.224 124.601 55.708 124.601 56.676L124.771 119.101C124.771 120.133 124.46 120.682 123.839 120.746C121.807 121.069 118.589 121.036 114.185 120.649C113.451 120.585 113.084 120.036 113.084 119.004L113 56.579C113 55.676 112.661 55.224 111.984 55.224H105.717C104.814 55.16 104.362 54.708 104.362 53.869C104.362 54.579 104.305 53.256 104.193 49.901C104.08 47.707 104.136 45.997 104.362 44.771C104.588 43.094 105.096 42.255 105.886 42.255C112.887 42.191 121.609 42.191 132.054 42.255C132.844 42.255 133.268 42.836 133.324 43.997C133.437 47.998 133.465 51.32 133.409 53.966Z" fill="#DBEAFE"/>
<path d="M231.273 53.966C231.273 54.869 230.793 55.321 229.833 55.321C229.438 55.321 228.591 55.289 227.292 55.224H224.244C223.058 55.224 222.465 55.708 222.465 56.676L222.635 119.101C222.635 120.133 222.324 120.682 221.703 120.746C219.671 121.069 216.453 121.036 212.049 120.649C211.315 120.585 210.948 120.036 210.948 119.004L210.864 56.579C210.864 55.676 210.525 55.224 209.848 55.224H203.581C202.678 55.16 202.226 54.708 202.226 53.869C202.226 54.579 202.169 53.256 202.057 49.901C201.944 47.707 202 45.997 202.226 44.771C202.452 43.094 202.96 42.255 203.75 42.255C210.751 42.191 219.473 42.191 229.918 42.255C230.708 42.255 231.132 42.836 231.188 43.997C231.301 47.998 231.329 51.32 231.273 53.966Z" fill="#DBEAFE"/>
<path d="M101.138 102.265C101.138 107.943 99.8682 112.428 97.3272 115.718C94.7872 119.009 91.2022 120.654 86.5722 120.654C82.5642 120.654 79.1482 118.88 76.3252 115.331C73.3332 111.524 71.8932 106.588 72.0062 100.523C72.0062 99.4909 72.0352 97.8129 72.0912 95.4909C72.1482 94.1359 72.4582 93.4579 73.0232 93.4579C73.5872 93.4579 75.1822 93.3939 77.8072 93.2649C80.4332 93.1359 82.0272 93.0709 82.5922 93.0709C83.1572 93.0709 83.4392 93.9099 83.4392 95.5869V100.33C83.4392 104.975 84.5402 107.298 86.7412 107.298C88.4922 107.298 89.4232 105.717 89.5362 102.556L89.7052 97.1359C89.7622 95.5229 88.2942 93.0389 85.3022 89.6839C80.2772 84.0059 77.5112 80.8119 77.0032 80.1019C74.0112 76.1019 72.5152 72.4559 72.5152 69.1659V60.9389C72.5152 55.0679 73.7282 50.3899 76.1562 46.9059C78.7532 43.0989 82.5362 41.1309 87.5042 41.0019C91.5692 40.9369 94.8152 42.5499 97.2422 45.8409C99.5012 48.9379 100.63 53.0349 100.63 58.1319V67.7139C100.63 68.6819 100.319 69.1979 99.6982 69.2619C98.0612 69.4559 94.9842 69.4559 90.4682 69.2619C89.7342 69.2619 89.3672 68.7789 89.3672 67.8109C89.3102 66.3269 89.3672 63.7459 89.5362 60.0679C89.5932 58.7129 89.3812 57.3739 88.9012 56.0519C88.4212 54.7289 87.7862 54.0679 86.9962 54.0679C84.7942 54.0679 83.6932 56.1969 83.6932 60.4549V65.4879C83.6932 67.4879 85.1892 70.3269 88.1812 74.0049C91.0042 77.4249 93.8272 80.8439 96.6502 84.2639C99.6422 88.5219 101.138 92.2969 101.138 95.5869V102.265Z" fill="#DBEAFE"/>
<defs>
<linearGradient id="paint0_linear_678_3457" x1="152" y1="15.9109" x2="152" y2="114.714" gradientUnits="userSpaceOnUse">
<stop stop-color="#281A89"/>
<stop offset="1" stop-color="#8137BB"/>
</linearGradient>
<linearGradient id="paint1_linear_678_3457" x1="271.08" y1="105.721" x2="271.314" y2="128.221" gradientUnits="userSpaceOnUse">
<stop stop-color="#3A239B"/>
<stop offset="1" stop-color="#5738DD"/>
</linearGradient>
<linearGradient id="paint2_linear_678_3457" x1="17.7849" y1="113.145" x2="17.65" y2="128.562" gradientUnits="userSpaceOnUse">
<stop stop-color="#3B259F"/>
<stop offset="1" stop-color="#4E33C8"/>
</linearGradient>
<linearGradient id="paint3_linear_678_3457" x1="127.128" y1="109.67" x2="127.533" y2="136.311" gradientUnits="userSpaceOnUse">
<stop stop-color="#39239A"/>
<stop offset="1" stop-color="#603FF3"/>
</linearGradient>
<linearGradient id="paint4_linear_678_3457" x1="152" y1="127.512" x2="152" y2="152.732" gradientUnits="userSpaceOnUse">
<stop stop-color="#291A6C"/>
<stop offset="1" stop-color="#0D0434"/>
</linearGradient>
</defs>
</svg>
