<svg width="300" height="152" viewBox="0 0 300 152" fill="none" xmlns="http://www.w3.org/2000/svg">
<path fill-rule="evenodd" clip-rule="evenodd" d="M300 150C300 67.157 232.843 0 150 0C67.158 0 0 67.157 0 150H300Z" fill="url(#paint0_linear_1114_236)"/>
<path fill-rule="evenodd" clip-rule="evenodd" d="M299.288 135.313H185.531V126.763L195.897 125.286L207.587 120.008L217.141 117.137L221.923 116.947L226.596 117.876L236.039 116.631L240.99 113.443L255.384 111.673L260.181 108.419L264.697 107.976L268.241 106.941H274.963L278.507 107.976L283.022 108.419L287.82 111.673L295.296 112.592C297.188 119.962 298.534 127.551 299.288 135.313Z" fill="url(#paint1_linear_1114_236)"/>
<path fill-rule="evenodd" clip-rule="evenodd" d="M4.81894 112.145L6.88294 112.347L10.9799 115.126L23.2709 116.638L27.4979 119.359L35.5619 120.423L39.5519 119.63L43.6349 119.792L51.7929 122.243L61.7749 126.75L70.6269 128.012V135.312H0.710938C1.48094 127.393 2.86594 119.655 4.81894 112.145Z" fill="url(#paint2_linear_1114_236)"/>
<path fill-rule="evenodd" clip-rule="evenodd" d="M126.545 106.941L130.089 107.976L134.604 108.419L139.402 111.673L153.796 113.443L158.747 116.631L168.19 117.876L172.863 116.947L177.645 117.137L187.199 120.008L198.889 125.286L209.255 126.763V135.313H37.1133V126.763L47.4793 125.286L59.1693 120.008L68.7233 117.137L73.5053 116.947L78.1783 117.876L87.6213 116.631L92.5723 113.443L106.965 111.673L111.763 108.419L116.279 107.976L119.823 106.941H126.545Z" fill="url(#paint3_linear_1114_236)"/>
<path d="M18.0758 96.0538C18.342 96.0538 18.5578 95.838 18.5578 95.5718C18.5578 95.3056 18.342 95.0898 18.0758 95.0898C17.8095 95.0898 17.5938 95.3056 17.5938 95.5718C17.5938 95.838 17.8095 96.0538 18.0758 96.0538Z" fill="#C070D0"/>
<path d="M161.369 96.0538C161.635 96.0538 161.851 95.838 161.851 95.5718C161.851 95.3056 161.635 95.0898 161.369 95.0898C161.103 95.0898 160.887 95.3056 160.887 95.5718C160.887 95.838 161.103 96.0538 161.369 96.0538Z" fill="#C070D0"/>
<path d="M112.044 96.0538C112.311 96.0538 112.526 95.838 112.526 95.5718C112.526 95.3056 112.311 95.0898 112.044 95.0898C111.778 95.0898 111.562 95.3056 111.562 95.5718C111.562 95.838 111.778 96.0538 112.044 96.0538Z" fill="#C070D0"/>
<path d="M255.337 96.0538C255.604 96.0538 255.819 95.838 255.819 95.5718C255.819 95.3056 255.604 95.0898 255.337 95.0898C255.071 95.0898 254.855 95.3056 254.855 95.5718C254.855 95.838 255.071 96.0538 255.337 96.0538Z" fill="#C070D0"/>
<path d="M67.9625 95.089C68.2287 95.089 68.4445 94.8732 68.4445 94.607C68.4445 94.3408 68.2287 94.125 67.9625 94.125C67.6963 94.125 67.4805 94.3408 67.4805 94.607C67.4805 94.8732 67.6963 95.089 67.9625 95.089Z" fill="#C070D0"/>
<path d="M211.255 95.089C211.522 95.089 211.737 94.8732 211.737 94.607C211.737 94.3408 211.522 94.125 211.255 94.125C210.989 94.125 210.773 94.3408 210.773 94.607C210.773 94.8732 210.989 95.089 211.255 95.089Z" fill="#C070D0"/>
<path d="M26.9937 108.105C27.2599 108.105 27.4757 107.889 27.4757 107.623C27.4757 107.356 27.2599 107.141 26.9937 107.141C26.7275 107.141 26.5117 107.356 26.5117 107.623C26.5117 107.889 26.7275 108.105 26.9937 108.105Z" fill="#C070D0"/>
<path d="M170.283 108.105C170.549 108.105 170.765 107.889 170.765 107.623C170.765 107.356 170.549 107.141 170.283 107.141C170.017 107.141 169.801 107.356 169.801 107.623C169.801 107.889 170.017 108.105 170.283 108.105Z" fill="#C070D0"/>
<path d="M76.8765 107.14C77.1427 107.14 77.3585 106.924 77.3585 106.658C77.3585 106.392 77.1427 106.176 76.8765 106.176C76.6103 106.176 76.3945 106.392 76.3945 106.658C76.3945 106.924 76.6103 107.14 76.8765 107.14Z" fill="#C070D0"/>
<path d="M220.169 107.14C220.436 107.14 220.652 106.924 220.652 106.658C220.652 106.392 220.436 106.176 220.169 106.176C219.903 106.176 219.688 106.392 219.688 106.658C219.688 106.924 219.903 107.14 220.169 107.14Z" fill="#C070D0"/>
<path d="M30.8492 97.0187C31.1154 97.0187 31.3312 96.8029 31.3312 96.5367C31.3312 96.2705 31.1154 96.0547 30.8492 96.0547C30.583 96.0547 30.3672 96.2705 30.3672 96.5367C30.3672 96.8029 30.583 97.0187 30.8492 97.0187Z" fill="#C070D0"/>
<path d="M174.138 97.0187C174.404 97.0187 174.62 96.8029 174.62 96.5367C174.62 96.2705 174.404 96.0547 174.138 96.0547C173.872 96.0547 173.656 96.2705 173.656 96.5367C173.656 96.8029 173.872 97.0187 174.138 97.0187Z" fill="#C070D0"/>
<path d="M124.818 97.0187C125.084 97.0187 125.3 96.8029 125.3 96.5367C125.3 96.2705 125.084 96.0547 124.818 96.0547C124.552 96.0547 124.336 96.2705 124.336 96.5367C124.336 96.8029 124.552 97.0187 124.818 97.0187Z" fill="#C070D0"/>
<path d="M268.111 97.0187C268.377 97.0187 268.593 96.8029 268.593 96.5367C268.593 96.2705 268.377 96.0547 268.111 96.0547C267.845 96.0547 267.629 96.2705 267.629 96.5367C267.629 96.8029 267.845 97.0187 268.111 97.0187Z" fill="#C070D0"/>
<path d="M83.4117 103.378C83.6779 103.378 83.8937 103.162 83.8937 102.896C83.8937 102.63 83.6779 102.414 83.4117 102.414C83.1455 102.414 82.9297 102.63 82.9297 102.896C82.9297 103.162 83.1455 103.378 83.4117 103.378Z" fill="#C070D0"/>
<path d="M226.705 103.378C226.971 103.378 227.187 103.162 227.187 102.896C227.187 102.63 226.971 102.414 226.705 102.414C226.438 102.414 226.223 102.63 226.223 102.896C226.223 103.162 226.438 103.378 226.705 103.378Z" fill="#C070D0"/>
<path d="M24.7782 99.0368C24.9361 99.0368 25.0642 98.9088 25.0642 98.7508C25.0642 98.5929 24.9361 98.4648 24.7782 98.4648C24.6202 98.4648 24.4922 98.5929 24.4922 98.7508C24.4922 98.9088 24.6202 99.0368 24.7782 99.0368Z" fill="#C070D0"/>
<path d="M168.071 99.0368C168.229 99.0368 168.357 98.9088 168.357 98.7508C168.357 98.5929 168.229 98.4648 168.071 98.4648C167.913 98.4648 167.785 98.5929 167.785 98.7508C167.785 98.9088 167.913 99.0368 168.071 99.0368Z" fill="#C070D0"/>
<path d="M118.747 99.0368C118.905 99.0368 119.033 98.9088 119.033 98.7508C119.033 98.5929 118.905 98.4648 118.747 98.4648C118.589 98.4648 118.461 98.5929 118.461 98.7508C118.461 98.9088 118.589 99.0368 118.747 99.0368Z" fill="#C070D0"/>
<path d="M262.04 99.0368C262.198 99.0368 262.326 98.9088 262.326 98.7508C262.326 98.5929 262.198 98.4648 262.04 98.4648C261.882 98.4648 261.754 98.5929 261.754 98.7508C261.754 98.9088 261.882 99.0368 262.04 99.0368Z" fill="#C070D0"/>
<path d="M74.6649 98.072C74.8229 98.072 74.9509 97.944 74.9509 97.786C74.9509 97.6281 74.8229 97.5 74.6649 97.5C74.507 97.5 74.3789 97.6281 74.3789 97.786C74.3789 97.944 74.507 98.072 74.6649 98.072Z" fill="#C070D0"/>
<path d="M217.958 98.072C218.116 98.072 218.244 97.944 218.244 97.786C218.244 97.6281 218.116 97.5 217.958 97.5C217.8 97.5 217.672 97.6281 217.672 97.786C217.672 97.944 217.8 98.072 217.958 98.072Z" fill="#C070D0"/>
<path d="M56.1962 108.674C56.3541 108.674 56.4822 108.546 56.4822 108.388C56.4822 108.23 56.3541 108.102 56.1962 108.102C56.0382 108.102 55.9102 108.23 55.9102 108.388C55.9102 108.546 56.0382 108.674 56.1962 108.674Z" fill="#C070D0"/>
<path d="M199.489 108.674C199.647 108.674 199.775 108.546 199.775 108.388C199.775 108.23 199.647 108.102 199.489 108.102C199.331 108.102 199.203 108.23 199.203 108.388C199.203 108.546 199.331 108.674 199.489 108.674Z" fill="#C070D0"/>
<path d="M42.4618 111.084C42.6197 111.084 42.7478 110.956 42.7478 110.798C42.7478 110.64 42.6197 110.512 42.4618 110.512C42.3038 110.512 42.1758 110.64 42.1758 110.798C42.1758 110.956 42.3038 111.084 42.4618 111.084Z" fill="#C070D0"/>
<path d="M185.755 111.084C185.913 111.084 186.041 110.956 186.041 110.798C186.041 110.64 185.913 110.512 185.755 110.512C185.597 110.512 185.469 110.64 185.469 110.798C185.469 110.956 185.597 111.084 185.755 111.084Z" fill="#C070D0"/>
<path d="M45.8368 97.7868C45.9947 97.7868 46.1228 97.6588 46.1228 97.5008C46.1228 97.3429 45.9947 97.2148 45.8368 97.2148C45.6788 97.2148 45.5508 97.3429 45.5508 97.5008C45.5508 97.6588 45.6788 97.7868 45.8368 97.7868Z" fill="#C070D0"/>
<path d="M189.126 97.7868C189.284 97.7868 189.412 97.6588 189.412 97.5008C189.412 97.3429 189.284 97.2148 189.126 97.2148C188.968 97.2148 188.84 97.3429 188.84 97.5008C188.84 97.6588 188.968 97.7868 189.126 97.7868Z" fill="#C070D0"/>
<path d="M32.0985 85.2986C32.2565 85.2986 32.3845 85.1705 32.3845 85.0126C32.3845 84.8546 32.2565 84.7266 32.0985 84.7266C31.9405 84.7266 31.8125 84.8546 31.8125 85.0126C31.8125 85.1705 31.9405 85.2986 32.0985 85.2986Z" fill="#C070D0"/>
<path d="M175.391 85.2986C175.549 85.2986 175.677 85.1705 175.677 85.0126C175.677 84.8546 175.549 84.7266 175.391 84.7266C175.234 84.7266 175.105 84.8546 175.105 85.0126C175.105 85.1705 175.234 85.2986 175.391 85.2986Z" fill="#C070D0"/>
<path d="M126.067 85.2986C126.225 85.2986 126.353 85.1705 126.353 85.0126C126.353 84.8546 126.225 84.7266 126.067 84.7266C125.909 84.7266 125.781 84.8546 125.781 85.0126C125.781 85.1705 125.909 85.2986 126.067 85.2986Z" fill="#C070D0"/>
<path d="M269.36 85.2986C269.518 85.2986 269.646 85.1705 269.646 85.0126C269.646 84.8546 269.518 84.7266 269.36 84.7266C269.202 84.7266 269.074 84.8546 269.074 85.0126C269.074 85.1705 269.202 85.2986 269.36 85.2986Z" fill="#C070D0"/>
<path d="M61.7391 101.685C61.8971 101.685 62.0251 101.557 62.0251 101.399C62.0251 101.241 61.8971 101.113 61.7391 101.113C61.5812 101.113 61.4531 101.241 61.4531 101.399C61.4531 101.557 61.5812 101.685 61.7391 101.685Z" fill="#C070D0"/>
<path d="M205.032 101.685C205.19 101.685 205.318 101.557 205.318 101.399C205.318 101.241 205.19 101.113 205.032 101.113C204.874 101.113 204.746 101.241 204.746 101.399C204.746 101.557 204.874 101.685 205.032 101.685Z" fill="#C070D0"/>
<path d="M58.0047 88.4314C58.1627 88.4314 58.2907 88.3033 58.2907 88.1454C58.2907 87.9874 58.1627 87.8594 58.0047 87.8594C57.8468 87.8594 57.7188 87.9874 57.7188 88.1454C57.7188 88.3033 57.8468 88.4314 58.0047 88.4314Z" fill="#C070D0"/>
<path d="M201.298 88.4314C201.456 88.4314 201.584 88.3033 201.584 88.1454C201.584 87.9874 201.456 87.8594 201.298 87.8594C201.14 87.8594 201.012 87.9874 201.012 88.1454C201.012 88.3033 201.14 88.4314 201.298 88.4314Z" fill="#C070D0"/>
<path d="M98.6141 104.818C98.7721 104.818 98.9001 104.69 98.9001 104.532C98.9001 104.374 98.7721 104.246 98.6141 104.246C98.4562 104.246 98.3281 104.374 98.3281 104.532C98.3281 104.69 98.4562 104.818 98.6141 104.818Z" fill="#C070D0"/>
<path d="M241.907 104.818C242.065 104.818 242.193 104.69 242.193 104.532C242.193 104.374 242.065 104.246 241.907 104.246C241.749 104.246 241.621 104.374 241.621 104.532C241.621 104.69 241.749 104.818 241.907 104.818Z" fill="#C070D0"/>
<path d="M98.6376 95.7556C98.7955 95.7556 98.9236 95.6275 98.9236 95.4696C98.9236 95.3116 98.7955 95.1836 98.6376 95.1836C98.4796 95.1836 98.3516 95.3116 98.3516 95.4696C98.3516 95.6275 98.4796 95.7556 98.6376 95.7556Z" fill="#C070D0"/>
<path d="M241.931 95.7556C242.088 95.7556 242.217 95.6275 242.217 95.4696C242.217 95.3116 242.088 95.1836 241.931 95.1836C241.773 95.1836 241.645 95.3116 241.645 95.4696C241.645 95.6275 241.773 95.7556 241.931 95.7556Z" fill="#C070D0"/>
<path fill-rule="evenodd" clip-rule="evenodd" d="M2.389 123.193L4.914 127.681H3.74V128.677H6.381V122.11H11.957V128.677H13.425V127.681L19.001 124.747V128.677H20.468V127.103L26.044 124.169V128.677H28.392V127.094H27.512V125.921H31.327V124.323H32.794V125.921H36.609V124.323H39.577L40.718 125.921H43.946V127.094H43.066V128.677H46.294V125.925H45.12L48.055 124.52L56.272 122.759H57.74V124.52H59.207L61.849 125.925H60.675V128.677H62.436V127.094H61.849V125.921H63.022V124.747H63.536V123.573H64.27V124.747H64.857V123.573H65.59V124.747H66.177V123.573H66.911V124.747H67.425V125.921H68.599V127.094H68.012V128.677H69.039V127.975H70.506V128.677H71.533V124.453H72.414V123.279H73.294V126.218H77.109V123.279H77.99V124.453H78.87V128.677H80.925V122.99L86.501 121.289V128.677H90.903V127.094H90.022V125.921H93.838V124.323H95.305V125.921H99.12V124.323H102.088L103.229 125.921H106.457V127.094H105.577V128.677H108.805V125.102H107.631L110.566 120.407H121.718L124.359 125.102H123.185V128.677H124.946V127.094H124.359V125.921H125.533V124.747H126.047V123.573H126.781V124.747H127.367V123.573H128.101V124.747H128.688V123.573H129.422V124.747H129.935V125.921H131.109V127.094H130.522V128.677H131.55V127.975H133.017V128.677H134.044V124.453H134.925V123.279H135.805V122.105H139.62V123.279H140.501V124.453H141.381V128.677H143.435V122.99L149.011 120.055V122.986H156.46L159.101 127.681H157.927V128.677H160.569V122.11H166.145V128.677H167.612V127.681L173.188 124.747V128.677H174.656V127.103L180.232 124.169V128.677H182.58V127.094H181.699V125.921H185.514V124.323H186.982V125.921H190.797V124.323H193.764L194.906 125.921H198.134V127.094H197.253V128.677H200.482V125.925H199.308L202.243 124.52L210.46 122.759H211.927V124.52H213.395L216.036 125.925H214.862V128.677H216.623V127.094H216.036V125.921H217.21V124.747H217.723V123.573H218.457V124.747H219.044V123.573H219.778V124.747H220.365V123.573H221.098V124.747H221.612V125.921H222.786V127.094H222.199V128.677H223.226V127.975H224.694V128.677H225.721V124.453H226.601V123.279H227.482V126.218H231.297V123.279H232.177V124.453H233.058V128.677H235.112V122.99L240.688 121.289V128.677H245.09V127.094H244.21V125.921H248.025V124.323H249.492V125.921H253.308V124.323H256.275L257.416 125.921H260.645V127.094H259.764V128.677H262.992V125.102H261.819L264.753 120.407H275.905L278.547 125.102H277.373V128.677H279.134V127.094H278.547V125.921H279.721V124.747H280.234V123.573H280.968V124.747H281.555V123.573H282.289V124.747H282.876V123.573H283.609V124.747H284.123V125.921H285.297V127.094H284.71V128.677H285.737V127.975H287.204V128.677H288.232V124.453H289.112V123.279H289.992V122.105H293.808V123.279H294.688V124.453H295.568V128.677H297.623V123.254C299.185 131.933 300 140.872 300 150.001H0C0 140.85 0.82 131.891 2.389 123.193Z" fill="url(#paint4_linear_1114_236)"/>
<path d="M152.036 128.375H150.809V129.909H152.036V128.375Z" fill="#1DE0E0"/>
<path d="M155.325 128.375H154.098V129.909H155.325V128.375Z" fill="#FDDB86"/>
<path d="M31.9887 128.375H30.7617V129.909H31.9887V128.375Z" fill="#FDDB86"/>
<path d="M186.176 128.375H184.949V129.909H186.176V128.375Z" fill="#FDDB86"/>
<path d="M177.325 135.984H176.102V137.818H177.325V135.984Z" fill="#FDDB86"/>
<path d="M40.0003 136.902H38.7773V138.736H40.0003V136.902Z" fill="#D513E3"/>
<path d="M194.188 136.902H192.965V138.736H194.188V136.902Z" fill="#D513E3"/>
<path d="M141.184 144.418H139.961V146.252H141.184V144.418Z" fill="#D513E3"/>
<path d="M33.0082 143.504H31.7852V145.338H33.0082V143.504Z" fill="#FDDB86"/>
<path d="M187.196 143.504H185.973V145.338H187.196V143.504Z" fill="#FDDB86"/>
<path d="M167.039 140.828H165.816V142.662H167.039V140.828Z" fill="#D513E3"/>
<path d="M155.524 138.566H154.301V140.4H155.524V138.566Z" fill="#FDDB86"/>
<path d="M85.6566 141.742H84.4336V143.576H85.6566V141.742Z" fill="#FDDB86"/>
<path d="M239.844 141.742H238.621V143.576H239.844V141.742Z" fill="#FDDB86"/>
<path d="M100.676 135.684H99.4531V137.518H100.676V135.684Z" fill="#FDDB86"/>
<path d="M254.864 135.684H253.641V137.518H254.864V135.684Z" fill="#FDDB86"/>
<path d="M71.6761 136.508H70.4531V138.342H71.6761V136.508Z" fill="#FDDB86"/>
<path d="M225.864 136.508H224.641V138.342H225.864V136.508Z" fill="#FDDB86"/>
<path d="M255.688 144.734H254.465V146.568H255.688V144.734Z" fill="#D513E3"/>
<path d="M118.153 139.277H116.93V141.111H118.153V139.277Z" fill="#FDDB86"/>
<path d="M272.34 139.277H271.117V141.111H272.34V139.277Z" fill="#FDDB86"/>
<path d="M116.094 139.277H114.871V141.111H116.094V139.277Z" fill="#1DE0E0"/>
<path d="M270.282 139.277H269.059V141.111H270.282V139.277Z" fill="#1DE0E0"/>
<path d="M136.051 134.039H134.828V135.873H136.051V134.039Z" fill="#FDDB86"/>
<path d="M54.3158 140.828H53.1758V142.662H54.3158V140.828Z" fill="#1DE0E0"/>
<path d="M208.503 140.828H207.363V142.662H208.503V140.828Z" fill="#1DE0E0"/>
<path d="M58.9301 128.375H57.7031V129.909H58.9301V128.375Z" fill="#FDDB86"/>
<path d="M213.118 128.375H211.891V129.909H213.118V128.375Z" fill="#FDDB86"/>
<path d="M118.364 128.375H117.137V129.909H118.364V128.375Z" fill="#FDDB86"/>
<path d="M272.551 128.375H271.324V129.909H272.551V128.375Z" fill="#FDDB86"/>
<path d="M121.657 128.375H120.43V129.909H121.657V128.375Z" fill="#FDDB86"/>
<path d="M56.2543 128.375H55.0273V129.909H56.2543V128.375Z" fill="#FDDB86"/>
<path d="M210.442 128.375H209.215V129.909H210.442V128.375Z" fill="#FDDB86"/>
<path d="M86.7235 60.7772L82.6465 65.0602H63.5455L60.1835 60.7772L64.1895 56.5742H83.2905L86.7235 60.7772ZM83.4335 103.123L79.3555 107.326L75.9935 103.123L76.8515 91.7282L81.9305 86.4752L84.4345 89.6272L83.4335 103.123ZM61.1135 77.9902L56.0345 83.3242L53.5305 80.0912L54.5315 66.5952L58.6095 62.3932L61.9715 66.5952L61.1135 77.9902ZM54.6745 113.144L51.3125 108.942L55.3185 104.739H74.4905L77.9245 108.942L73.8475 113.144H54.6745ZM77.2805 80.6572L80.7145 84.8592L76.6375 89.0622H60.7555L57.3935 84.8592L61.3995 80.6572H77.2805Z" fill="#DBEAFE"/>
<path d="M110.904 109.265L106.898 113.467L103.464 109.265L104.823 91.7282L109.903 86.4752L112.406 89.6272L110.904 109.265ZM113.193 80.0912L110.117 83.3242L105.896 77.9902L106.397 71.5252L110.475 67.3232L113.837 71.5252L113.193 80.0912ZM128.502 60.7772L124.353 65.0602H96.8112L93.4492 60.7772L97.4552 56.5742H124.997L128.502 60.7772Z" fill="#DBEAFE"/>
<path d="M165.774 56.5742L157.69 65.0602H143.668L136.872 56.5742H165.774ZM140.163 91.7282L139.161 104.739L131.078 113.144L132.866 89.6272L135.942 86.4752L140.163 91.7282ZM133.653 80.0912L135.298 58.1912L142.095 66.5952L141.236 77.9902L136.157 83.3242L133.653 80.0912ZM164.557 89.6272L162.769 113.144L155.973 104.739L156.974 91.7282L162.054 86.4752L164.557 89.6272ZM158.047 77.9902L158.906 66.5952L166.99 58.1912L165.344 80.0912L162.268 83.3242L158.047 77.9902ZM157.404 80.6572L160.837 84.8592L156.76 89.0622H140.878L137.516 84.8592L141.522 80.6572H157.404Z" fill="#DBEAFE"/>
<path d="M183.159 96.9812L183.66 91.0012H189.025L202.117 107.083L201.616 113.144H196.251L183.159 96.9812ZM180.226 91.7282L179.225 104.739L171.141 113.144L172.929 89.6272L176.005 86.4752L180.226 91.7282ZM173.716 80.0912L175.362 58.1912L182.158 66.5952L181.299 77.9902L176.22 83.3242L173.716 80.0912ZM197.467 80.6572L200.901 84.8592L196.823 89.0622H180.942L177.579 84.8592L181.585 80.6572H197.467ZM205.407 80.0912L202.331 83.3242L198.111 77.9902L198.969 66.5952L203.047 62.3932L206.409 66.5952L205.407 80.0912ZM201.831 60.7772L197.753 65.0602H183.731L176.935 56.5742H198.397L201.831 60.7772Z" fill="#DBEAFE"/>
<path d="M231.088 109.265L227.082 113.467L223.649 109.265L225.008 91.7282L230.087 86.4752L232.591 89.6272L231.088 109.265ZM233.378 80.0912L230.302 83.3242L226.081 77.9902L226.582 71.5252L230.659 67.3232L234.022 71.5252L233.378 80.0912ZM248.687 60.7772L244.538 65.0602H216.996L213.633 60.7772L217.639 56.5742H245.181L248.687 60.7772Z" fill="#DBEAFE"/>
<path d="M150.013 12.116C151.725 12.116 153.112 10.7285 153.112 9.01697C153.112 7.30544 151.725 5.91797 150.013 5.91797C148.302 5.91797 146.914 7.30544 146.914 9.01697C146.914 10.7285 148.302 12.116 150.013 12.116Z" fill="white"/>
<path fill-rule="evenodd" clip-rule="evenodd" d="M168.424 8.79756C169.204 8.90056 169.754 9.61656 169.652 10.3966C169.549 11.1766 168.832 11.7266 168.052 11.6236C167.272 11.5216 166.722 10.8046 166.825 10.0246C166.928 9.24456 167.644 8.69456 168.424 8.79756Z" fill="white"/>
<path fill-rule="evenodd" clip-rule="evenodd" d="M132.099 8.79756C131.319 8.90056 130.769 9.61656 130.872 10.3966C130.975 11.1766 131.691 11.7266 132.471 11.6236C133.251 11.5216 133.801 10.8046 133.699 10.0246C133.596 9.24456 132.879 8.69456 132.099 8.79756Z" fill="white"/>
<path fill-rule="evenodd" clip-rule="evenodd" d="M203.987 18.3274C204.714 18.6284 205.059 19.4634 204.758 20.1904C204.457 20.9174 203.623 21.2624 202.896 20.9614C202.169 20.6604 201.823 19.8264 202.124 19.0994C202.425 18.3724 203.26 18.0264 203.987 18.3274Z" fill="white"/>
<path fill-rule="evenodd" clip-rule="evenodd" d="M96.533 18.3274C95.806 18.6284 95.46 19.4634 95.761 20.1904C96.063 20.9174 96.897 21.2624 97.624 20.9614C98.351 20.6604 98.696 19.8264 98.395 19.0994C98.094 18.3724 97.26 18.0264 96.533 18.3274Z" fill="white"/>
<path fill-rule="evenodd" clip-rule="evenodd" d="M235.872 36.7358C236.496 37.2148 236.614 38.1098 236.135 38.7338C235.656 39.3588 234.761 39.4768 234.136 38.9978C233.512 38.5188 233.394 37.6228 233.873 36.9988C234.352 36.3748 235.248 36.2568 235.872 36.7358Z" fill="white"/>
<path fill-rule="evenodd" clip-rule="evenodd" d="M64.6472 36.7358C64.0232 37.2148 63.9052 38.1098 64.3842 38.7338C64.8632 39.3588 65.7582 39.4768 66.3822 38.9978C67.0062 38.5188 67.1242 37.6228 66.6452 36.9988C66.1672 36.3748 65.2712 36.2568 64.6472 36.7358Z" fill="white"/>
<path fill-rule="evenodd" clip-rule="evenodd" d="M261.908 62.7722C262.387 63.3962 262.269 64.2913 261.645 64.7703C261.021 65.2493 260.125 65.1312 259.646 64.5072C259.167 63.8832 259.285 62.9882 259.909 62.5092C260.533 62.0302 261.429 62.1482 261.908 62.7722Z" fill="white"/>
<path fill-rule="evenodd" clip-rule="evenodd" d="M38.6108 62.7722C38.1318 63.3962 38.2498 64.2913 38.8738 64.7703C39.4978 65.2493 40.3938 65.1312 40.8728 64.5072C41.3518 63.8832 41.2338 62.9882 40.6098 62.5092C39.9848 62.0302 39.0898 62.1482 38.6108 62.7722Z" fill="white"/>
<path fill-rule="evenodd" clip-rule="evenodd" d="M186.517 12.3966C187.277 12.6006 187.729 13.3826 187.525 14.1426C187.321 14.9026 186.539 15.3546 185.779 15.1506C185.019 14.9466 184.568 14.1646 184.771 13.4046C184.975 12.6446 185.757 12.1926 186.517 12.3966Z" fill="white"/>
<path fill-rule="evenodd" clip-rule="evenodd" d="M114.002 12.3966C113.242 12.6006 112.79 13.3826 112.994 14.1426C113.197 14.9026 113.98 15.3546 114.74 15.1506C115.5 14.9466 115.951 14.1646 115.748 13.4046C115.544 12.6446 114.762 12.1926 114.002 12.3966Z" fill="white"/>
<path fill-rule="evenodd" clip-rule="evenodd" d="M221.372 25.0367C222.854 25.8917 223.362 27.7887 222.507 29.2697C221.651 30.7517 219.754 31.2597 218.273 30.4047C216.791 29.5487 216.283 27.6517 217.138 26.1707C217.994 24.6897 219.891 24.1807 221.372 25.0367Z" fill="white"/>
<path fill-rule="evenodd" clip-rule="evenodd" d="M79.1517 25.0367C77.6697 25.8917 77.1617 27.7887 78.0167 29.2697C78.8717 30.7517 80.7697 31.2597 82.2507 30.4047C83.7317 29.5487 84.2407 27.6517 83.3847 26.1707C82.5297 24.6897 80.6327 24.1807 79.1517 25.0367Z" fill="white"/>
<path fill-rule="evenodd" clip-rule="evenodd" d="M249.742 48.9014C250.298 49.4574 250.298 50.3614 249.742 50.9174C249.185 51.4734 248.282 51.4734 247.726 50.9174C247.169 50.3614 247.169 49.4574 247.726 48.9014C248.282 48.3454 249.185 48.3454 249.742 48.9014Z" fill="white"/>
<path fill-rule="evenodd" clip-rule="evenodd" d="M50.7764 48.9014C50.2204 49.4574 50.2204 50.3614 50.7764 50.9174C51.3324 51.4734 52.2364 51.4734 52.7924 50.9174C53.3484 50.3614 53.3484 49.4574 52.7924 48.9014C52.2364 48.3454 51.3324 48.3454 50.7764 48.9014Z" fill="white"/>
<path fill-rule="evenodd" clip-rule="evenodd" d="M273.607 77.2767C274.463 78.7577 273.954 80.6547 272.473 81.5097C270.991 82.3657 269.094 81.8567 268.239 80.3757C267.384 78.8947 267.892 76.9967 269.374 76.1417C270.855 75.2867 272.752 75.7947 273.607 77.2767Z" fill="white"/>
<path fill-rule="evenodd" clip-rule="evenodd" d="M26.9117 77.2767C26.0557 78.7577 26.5647 80.6547 28.0457 81.5097C29.5267 82.3657 31.4237 81.8567 32.2797 80.3757C33.1347 78.8947 32.6267 76.9967 31.1447 76.1417C29.6637 75.2867 27.7667 75.7947 26.9117 77.2767Z" fill="white"/>
<path fill-rule="evenodd" clip-rule="evenodd" d="M280.316 94.658C280.618 95.385 280.272 96.219 279.545 96.52C278.818 96.821 277.984 96.476 277.683 95.749C277.381 95.022 277.727 94.188 278.454 93.886C279.181 93.585 280.015 93.931 280.316 94.658Z" fill="white"/>
<path fill-rule="evenodd" clip-rule="evenodd" d="M20.2024 94.658C19.9014 95.385 20.2474 96.219 20.9744 96.52C21.7014 96.821 22.5354 96.476 22.8364 95.749C23.1374 95.022 22.7924 94.188 22.0654 93.886C21.3384 93.585 20.5034 93.931 20.2024 94.658Z" fill="white"/>
<path fill-rule="evenodd" clip-rule="evenodd" d="M14.2716 112.127C14.0676 112.887 14.5196 113.669 15.2796 113.873C16.0396 114.076 16.8216 113.625 17.0256 112.865C17.2296 112.105 16.7776 111.322 16.0176 111.119C15.2576 110.915 14.4756 111.367 14.2716 112.127Z" fill="white"/>
<path fill-rule="evenodd" clip-rule="evenodd" d="M289.847 130.224C289.95 131.004 289.4 131.721 288.62 131.824C287.84 131.926 287.123 131.376 287.02 130.596C286.918 129.816 287.468 129.1 288.248 128.997C289.028 128.894 289.744 129.444 289.847 130.224Z" fill="white"/>
<path fill-rule="evenodd" clip-rule="evenodd" d="M10.6726 130.224C10.5696 131.004 11.1196 131.721 11.8996 131.824C12.6796 131.926 13.3966 131.376 13.4986 130.596C13.6016 129.816 13.0516 129.1 12.2716 128.997C11.4916 128.894 10.7756 129.444 10.6726 130.224Z" fill="white"/>
<path fill-rule="evenodd" clip-rule="evenodd" d="M292.725 148.631C292.725 150.341 291.337 151.73 289.626 151.73C287.915 151.73 286.527 150.341 286.527 148.631C286.527 146.92 287.915 145.531 289.626 145.531C291.337 145.531 292.725 146.92 292.725 148.631Z" fill="white"/>
<path fill-rule="evenodd" clip-rule="evenodd" d="M7.79297 148.631C7.79297 150.341 9.18197 151.73 10.893 151.73C12.603 151.73 13.992 150.341 13.992 148.631C13.992 146.92 12.603 145.531 10.893 145.531C9.18197 145.531 7.79297 146.92 7.79297 148.631Z" fill="white"/>
<path fill-rule="evenodd" clip-rule="evenodd" d="M286.248 112.127C286.451 112.887 286 113.669 285.24 113.873C284.48 114.076 283.697 113.625 283.494 112.865C283.29 112.105 283.742 111.322 284.502 111.119C285.262 110.915 286.044 111.367 286.248 112.127Z" fill="white"/>
<defs>
<linearGradient id="paint0_linear_1114_236" x1="150" y1="14.9109" x2="150" y2="113.714" gradientUnits="userSpaceOnUse">
<stop stop-color="#281A89"/>
<stop offset="1" stop-color="#8137BB"/>
</linearGradient>
<linearGradient id="paint1_linear_1114_236" x1="269.08" y1="104.722" x2="269.314" y2="127.222" gradientUnits="userSpaceOnUse">
<stop stop-color="#3A239B"/>
<stop offset="1" stop-color="#5738DD"/>
</linearGradient>
<linearGradient id="paint2_linear_1114_236" x1="15.7849" y1="112.145" x2="15.65" y2="127.561" gradientUnits="userSpaceOnUse">
<stop stop-color="#3B259F"/>
<stop offset="1" stop-color="#4E33C8"/>
</linearGradient>
<linearGradient id="paint3_linear_1114_236" x1="125.128" y1="108.671" x2="125.533" y2="135.313" gradientUnits="userSpaceOnUse">
<stop stop-color="#39239A"/>
<stop offset="1" stop-color="#603FF3"/>
</linearGradient>
<linearGradient id="paint4_linear_1114_236" x1="150" y1="126.513" x2="150" y2="151.732" gradientUnits="userSpaceOnUse">
<stop stop-color="#291A6C"/>
<stop offset="1" stop-color="#0D0434"/>
</linearGradient>
</defs>
</svg>
