<svg width="301" height="152" viewBox="0 0 301 152" fill="none" xmlns="http://www.w3.org/2000/svg">
<path fill-rule="evenodd" clip-rule="evenodd" d="M300.32 150C300.32 67.157 233.163 0 150.32 0C67.4783 0 0.320312 67.157 0.320312 150H300.32Z" fill="url(#paint0_linear_621_523)"/>
<path fill-rule="evenodd" clip-rule="evenodd" d="M299.609 135.312H185.852V126.762L196.218 125.285L207.908 120.007L217.462 117.136L222.244 116.946L226.917 117.875L236.36 116.63L241.311 113.442L255.705 111.672L260.502 108.418L265.018 107.975L268.562 106.94H275.284L278.828 107.975L283.343 108.418L288.141 111.672L295.617 112.591C297.509 119.961 298.855 127.55 299.609 135.312Z" fill="url(#paint1_linear_621_523)"/>
<path fill-rule="evenodd" clip-rule="evenodd" d="M5.13925 112.145L7.20325 112.347L11.3003 115.126L23.5912 116.638L27.8182 119.359L35.8823 120.423L39.8722 119.63L43.9552 119.792L52.1133 122.243L62.0953 126.75L70.9473 128.012V135.312H1.03125C1.80125 127.393 3.18625 119.655 5.13925 112.145Z" fill="url(#paint2_linear_621_523)"/>
<path fill-rule="evenodd" clip-rule="evenodd" d="M126.866 106.94L130.41 107.975L134.925 108.418L139.723 111.672L154.117 113.442L159.068 116.63L168.511 117.875L173.184 116.946L177.966 117.136L187.52 120.007L199.21 125.285L209.576 126.762V135.312H37.4336V126.762L47.7996 125.285L59.4896 120.007L69.0436 117.136L73.8256 116.946L78.4986 117.875L87.9416 116.63L92.8926 113.442L107.286 111.672L112.084 108.418L116.6 107.975L120.144 106.94H126.866Z" fill="url(#paint3_linear_621_523)"/>
<path d="M18.3961 96.0529C18.6623 96.0529 18.8781 95.8371 18.8781 95.5709C18.8781 95.3047 18.6623 95.0889 18.3961 95.0889C18.1299 95.0889 17.9141 95.3047 17.9141 95.5709C17.9141 95.8371 18.1299 96.0529 18.3961 96.0529Z" fill="#C070D0"/>
<path d="M161.689 96.0529C161.955 96.0529 162.171 95.8371 162.171 95.5709C162.171 95.3047 161.955 95.0889 161.689 95.0889C161.423 95.0889 161.207 95.3047 161.207 95.5709C161.207 95.8371 161.423 96.0529 161.689 96.0529Z" fill="#C070D0"/>
<path d="M112.365 96.0529C112.631 96.0529 112.847 95.8371 112.847 95.5709C112.847 95.3047 112.631 95.0889 112.365 95.0889C112.099 95.0889 111.883 95.3047 111.883 95.5709C111.883 95.8371 112.099 96.0529 112.365 96.0529Z" fill="#C070D0"/>
<path d="M255.658 96.0529C255.924 96.0529 256.14 95.8371 256.14 95.5709C256.14 95.3047 255.924 95.0889 255.658 95.0889C255.392 95.0889 255.176 95.3047 255.176 95.5709C255.176 95.8371 255.392 96.0529 255.658 96.0529Z" fill="#C070D0"/>
<path d="M68.2828 95.089C68.549 95.089 68.7648 94.8732 68.7648 94.607C68.7648 94.3408 68.549 94.125 68.2828 94.125C68.0166 94.125 67.8008 94.3408 67.8008 94.607C67.8008 94.8732 68.0166 95.089 68.2828 95.089Z" fill="#C070D0"/>
<path d="M211.576 95.089C211.842 95.089 212.058 94.8732 212.058 94.607C212.058 94.3408 211.842 94.125 211.576 94.125C211.31 94.125 211.094 94.3408 211.094 94.607C211.094 94.8732 211.31 95.089 211.576 95.089Z" fill="#C070D0"/>
<path d="M27.314 108.103C27.5802 108.103 27.796 107.887 27.796 107.621C27.796 107.355 27.5802 107.139 27.314 107.139C27.0478 107.139 26.832 107.355 26.832 107.621C26.832 107.887 27.0478 108.103 27.314 108.103Z" fill="#C070D0"/>
<path d="M170.603 108.103C170.869 108.103 171.085 107.887 171.085 107.621C171.085 107.355 170.869 107.139 170.603 107.139C170.337 107.139 170.121 107.355 170.121 107.621C170.121 107.887 170.337 108.103 170.603 108.103Z" fill="#C070D0"/>
<path d="M77.1968 107.139C77.463 107.139 77.6788 106.923 77.6788 106.657C77.6788 106.391 77.463 106.175 77.1968 106.175C76.9306 106.175 76.7148 106.391 76.7148 106.657C76.7148 106.923 76.9306 107.139 77.1968 107.139Z" fill="#C070D0"/>
<path d="M220.49 107.139C220.756 107.139 220.972 106.923 220.972 106.657C220.972 106.391 220.756 106.175 220.49 106.175C220.224 106.175 220.008 106.391 220.008 106.657C220.008 106.923 220.224 107.139 220.49 107.139Z" fill="#C070D0"/>
<path d="M31.1695 97.0172C31.4357 97.0172 31.6515 96.8014 31.6515 96.5352C31.6515 96.269 31.4357 96.0532 31.1695 96.0532C30.9033 96.0532 30.6875 96.269 30.6875 96.5352C30.6875 96.8014 30.9033 97.0172 31.1695 97.0172Z" fill="#C070D0"/>
<path d="M174.459 97.0172C174.725 97.0172 174.941 96.8014 174.941 96.5352C174.941 96.269 174.725 96.0532 174.459 96.0532C174.192 96.0532 173.977 96.269 173.977 96.5352C173.977 96.8014 174.192 97.0172 174.459 97.0172Z" fill="#C070D0"/>
<path d="M125.138 97.0172C125.404 97.0172 125.62 96.8014 125.62 96.5352C125.62 96.269 125.404 96.0532 125.138 96.0532C124.872 96.0532 124.656 96.269 124.656 96.5352C124.656 96.8014 124.872 97.0172 125.138 97.0172Z" fill="#C070D0"/>
<path d="M268.431 97.0172C268.697 97.0172 268.913 96.8014 268.913 96.5352C268.913 96.269 268.697 96.0532 268.431 96.0532C268.165 96.0532 267.949 96.269 267.949 96.5352C267.949 96.8014 268.165 97.0172 268.431 97.0172Z" fill="#C070D0"/>
<path d="M83.732 103.378C83.9982 103.378 84.214 103.162 84.214 102.896C84.214 102.63 83.9982 102.414 83.732 102.414C83.4658 102.414 83.25 102.63 83.25 102.896C83.25 103.162 83.4658 103.378 83.732 103.378Z" fill="#C070D0"/>
<path d="M227.025 103.378C227.291 103.378 227.507 103.162 227.507 102.896C227.507 102.63 227.291 102.414 227.025 102.414C226.759 102.414 226.543 102.63 226.543 102.896C226.543 103.162 226.759 103.378 227.025 103.378Z" fill="#C070D0"/>
<path d="M25.0985 99.0349C25.2565 99.0349 25.3845 98.9068 25.3845 98.7489C25.3845 98.5909 25.2565 98.4629 25.0985 98.4629C24.9405 98.4629 24.8125 98.5909 24.8125 98.7489C24.8125 98.9068 24.9405 99.0349 25.0985 99.0349Z" fill="#C070D0"/>
<path d="M168.391 99.0349C168.549 99.0349 168.677 98.9068 168.677 98.7489C168.677 98.5909 168.549 98.4629 168.391 98.4629C168.234 98.4629 168.105 98.5909 168.105 98.7489C168.105 98.9068 168.234 99.0349 168.391 99.0349Z" fill="#C070D0"/>
<path d="M119.067 99.0349C119.225 99.0349 119.353 98.9068 119.353 98.7489C119.353 98.5909 119.225 98.4629 119.067 98.4629C118.909 98.4629 118.781 98.5909 118.781 98.7489C118.781 98.9068 118.909 99.0349 119.067 99.0349Z" fill="#C070D0"/>
<path d="M262.36 99.0349C262.518 99.0349 262.646 98.9068 262.646 98.7489C262.646 98.5909 262.518 98.4629 262.36 98.4629C262.202 98.4629 262.074 98.5909 262.074 98.7489C262.074 98.9068 262.202 99.0349 262.36 99.0349Z" fill="#C070D0"/>
<path d="M74.9852 98.072C75.1432 98.072 75.2712 97.944 75.2712 97.786C75.2712 97.6281 75.1432 97.5 74.9852 97.5C74.8273 97.5 74.6992 97.6281 74.6992 97.786C74.6992 97.944 74.8273 98.072 74.9852 98.072Z" fill="#C070D0"/>
<path d="M218.278 98.072C218.436 98.072 218.564 97.944 218.564 97.786C218.564 97.6281 218.436 97.5 218.278 97.5C218.12 97.5 217.992 97.6281 217.992 97.786C217.992 97.944 218.12 98.072 218.278 98.072Z" fill="#C070D0"/>
<path d="M56.5165 108.675C56.6744 108.675 56.8025 108.547 56.8025 108.389C56.8025 108.231 56.6744 108.103 56.5165 108.103C56.3585 108.103 56.2305 108.231 56.2305 108.389C56.2305 108.547 56.3585 108.675 56.5165 108.675Z" fill="#C070D0"/>
<path d="M199.809 108.675C199.967 108.675 200.095 108.547 200.095 108.389C200.095 108.231 199.967 108.103 199.809 108.103C199.651 108.103 199.523 108.231 199.523 108.389C199.523 108.547 199.651 108.675 199.809 108.675Z" fill="#C070D0"/>
<path d="M42.7821 111.085C42.94 111.085 43.0681 110.957 43.0681 110.799C43.0681 110.641 42.94 110.513 42.7821 110.513C42.6241 110.513 42.4961 110.641 42.4961 110.799C42.4961 110.957 42.6241 111.085 42.7821 111.085Z" fill="#C070D0"/>
<path d="M186.075 111.085C186.233 111.085 186.361 110.957 186.361 110.799C186.361 110.641 186.233 110.513 186.075 110.513C185.917 110.513 185.789 110.641 185.789 110.799C185.789 110.957 185.917 111.085 186.075 111.085Z" fill="#C070D0"/>
<path d="M46.1571 97.7849C46.315 97.7849 46.4431 97.6568 46.4431 97.4989C46.4431 97.3409 46.315 97.2129 46.1571 97.2129C45.9991 97.2129 45.8711 97.3409 45.8711 97.4989C45.8711 97.6568 45.9991 97.7849 46.1571 97.7849Z" fill="#C070D0"/>
<path d="M189.446 97.7849C189.604 97.7849 189.732 97.6568 189.732 97.4989C189.732 97.3409 189.604 97.2129 189.446 97.2129C189.288 97.2129 189.16 97.3409 189.16 97.4989C189.16 97.6568 189.288 97.7849 189.446 97.7849Z" fill="#C070D0"/>
<path d="M32.4188 85.2991C32.5768 85.2991 32.7048 85.171 32.7048 85.013C32.7048 84.8551 32.5768 84.7271 32.4188 84.7271C32.2609 84.7271 32.1328 84.8551 32.1328 85.013C32.1328 85.171 32.2609 85.2991 32.4188 85.2991Z" fill="#C070D0"/>
<path d="M175.712 85.2991C175.87 85.2991 175.998 85.171 175.998 85.013C175.998 84.8551 175.87 84.7271 175.712 84.7271C175.554 84.7271 175.426 84.8551 175.426 85.013C175.426 85.171 175.554 85.2991 175.712 85.2991Z" fill="#C070D0"/>
<path d="M126.388 85.2991C126.546 85.2991 126.674 85.171 126.674 85.013C126.674 84.8551 126.546 84.7271 126.388 84.7271C126.23 84.7271 126.102 84.8551 126.102 85.013C126.102 85.171 126.23 85.2991 126.388 85.2991Z" fill="#C070D0"/>
<path d="M269.681 85.2991C269.838 85.2991 269.967 85.171 269.967 85.013C269.967 84.8551 269.838 84.7271 269.681 84.7271C269.523 84.7271 269.395 84.8551 269.395 85.013C269.395 85.171 269.523 85.2991 269.681 85.2991Z" fill="#C070D0"/>
<path d="M62.0594 101.686C62.2174 101.686 62.3454 101.558 62.3454 101.4C62.3454 101.242 62.2174 101.114 62.0594 101.114C61.9015 101.114 61.7734 101.242 61.7734 101.4C61.7734 101.558 61.9015 101.686 62.0594 101.686Z" fill="#C070D0"/>
<path d="M205.352 101.686C205.51 101.686 205.638 101.558 205.638 101.4C205.638 101.242 205.51 101.114 205.352 101.114C205.194 101.114 205.066 101.242 205.066 101.4C205.066 101.558 205.194 101.686 205.352 101.686Z" fill="#C070D0"/>
<path d="M58.3251 88.4319C58.483 88.4319 58.6111 88.3038 58.6111 88.1459C58.6111 87.9879 58.483 87.8599 58.3251 87.8599C58.1671 87.8599 58.0391 87.9879 58.0391 88.1459C58.0391 88.3038 58.1671 88.4319 58.3251 88.4319Z" fill="#C070D0"/>
<path d="M201.618 88.4319C201.776 88.4319 201.904 88.3038 201.904 88.1459C201.904 87.9879 201.776 87.8599 201.618 87.8599C201.46 87.8599 201.332 87.9879 201.332 88.1459C201.332 88.3038 201.46 88.4319 201.618 88.4319Z" fill="#C070D0"/>
<path d="M98.9344 104.819C99.0924 104.819 99.2204 104.691 99.2204 104.533C99.2204 104.375 99.0924 104.247 98.9344 104.247C98.7765 104.247 98.6484 104.375 98.6484 104.533C98.6484 104.691 98.7765 104.819 98.9344 104.819Z" fill="#C070D0"/>
<path d="M242.227 104.819C242.385 104.819 242.513 104.691 242.513 104.533C242.513 104.375 242.385 104.247 242.227 104.247C242.069 104.247 241.941 104.375 241.941 104.533C241.941 104.691 242.069 104.819 242.227 104.819Z" fill="#C070D0"/>
<path d="M98.9579 95.7561C99.1158 95.7561 99.2439 95.628 99.2439 95.4701C99.2439 95.3121 99.1158 95.1841 98.9579 95.1841C98.7999 95.1841 98.6719 95.3121 98.6719 95.4701C98.6719 95.628 98.7999 95.7561 98.9579 95.7561Z" fill="#C070D0"/>
<path d="M242.251 95.7561C242.409 95.7561 242.537 95.628 242.537 95.4701C242.537 95.3121 242.409 95.1841 242.251 95.1841C242.093 95.1841 241.965 95.3121 241.965 95.4701C241.965 95.628 242.093 95.7561 242.251 95.7561Z" fill="#C070D0"/>
<path fill-rule="evenodd" clip-rule="evenodd" d="M2.70931 123.192L5.23431 127.68H4.06031V128.676H6.70131V122.109H12.2773V128.676H13.7453V127.68L19.3213 124.746V128.676H20.7883V127.102L26.3643 124.168V128.676H28.7123V127.093H27.8323V125.92H31.6473V124.322H33.1143V125.92H36.9293V124.322H39.8973L41.0383 125.92H44.2663V127.093H43.3863V128.676H46.6143V125.924H45.4403L48.3753 124.519L56.5923 122.758H58.0603V124.519H59.5273L62.1693 125.924H60.9953V128.676H62.7563V127.093H62.1693V125.92H63.3423V124.746H63.8563V123.572H64.5903V124.746H65.1773V123.572H65.9103V124.746H66.4973V123.572H67.2313V124.746H67.7453V125.92H68.9193V127.093H68.3323V128.676H69.3593V127.974H70.8263V128.676H71.8533V124.452H72.7343V123.278H73.6143V126.217H77.4293V123.278H78.3103V124.452H79.1903V128.676H81.2453V122.989L86.8213 121.288V128.676H91.2233V127.093H90.3423V125.92H94.1583V124.322H95.6253V125.92H99.4403V124.322H102.408L103.549 125.92H106.777V127.093H105.897V128.676H109.125V125.101H107.951L110.886 120.406H122.038L124.679 125.101H123.505V128.676H125.266V127.093H124.679V125.92H125.853V124.746H126.367V123.572H127.101V124.746H127.687V123.572H128.421V124.746H129.008V123.572H129.742V124.746H130.255V125.92H131.429V127.093H130.842V128.676H131.87V127.974H133.337V128.676H134.364V124.452H135.245V123.278H136.125V122.104H139.94V123.278H140.821V124.452H141.701V128.676H143.755V122.989L149.331 120.054V122.985H156.78L159.421 127.68H158.247V128.676H160.889V122.109H166.465V128.676H167.932V127.68L173.508 124.746V128.676H174.976V127.102L180.552 124.168V128.676H182.9V127.093H182.019V125.92H185.834V124.322H187.302V125.92H191.117V124.322H194.084L195.226 125.92H198.454V127.093H197.573V128.676H200.802V125.924H199.628L202.563 124.519L210.78 122.758H212.247V124.519H213.715L216.356 125.924H215.182V128.676H216.943V127.093H216.356V125.92H217.53V124.746H218.043V123.572H218.777V124.746H219.364V123.572H220.098V124.746H220.685V123.572H221.418V124.746H221.932V125.92H223.106V127.093H222.519V128.676H223.546V127.974H225.014V128.676H226.041V124.452H226.921V123.278H227.802V126.217H231.617V123.278H232.497V124.452H233.378V128.676H235.432V122.989L241.008 121.288V128.676H245.41V127.093H244.53V125.92H248.345V124.322H249.812V125.92H253.628V124.322H256.595L257.736 125.92H260.965V127.093H260.084V128.676H263.312V125.101H262.139L265.073 120.406H276.225L278.867 125.101H277.693V128.676H279.454V127.093H278.867V125.92H280.041V124.746H280.554V123.572H281.288V124.746H281.875V123.572H282.609V124.746H283.196V123.572H283.929V124.746H284.443V125.92H285.617V127.093H285.03V128.676H286.057V127.974H287.524V128.676H288.552V124.452H289.432V123.278H290.312V122.104H294.128V123.278H295.008V124.452H295.888V128.676H297.943V123.253C299.505 131.932 300.32 140.871 300.32 150H0.320312C0.320312 140.849 1.14031 131.89 2.70931 123.192Z" fill="url(#paint4_linear_621_523)"/>
<path d="M152.356 128.376H151.129V129.91H152.356V128.376Z" fill="#1DE0E0"/>
<path d="M155.645 128.376H154.418V129.91H155.645V128.376Z" fill="#FDDB86"/>
<path d="M32.309 128.376H31.082V129.91H32.309V128.376Z" fill="#FDDB86"/>
<path d="M186.497 128.376H185.27V129.91H186.497V128.376Z" fill="#FDDB86"/>
<path d="M177.645 135.986H176.422V137.82H177.645V135.986Z" fill="#FDDB86"/>
<path d="M40.3207 136.903H39.0977V138.737H40.3207V136.903Z" fill="#D513E3"/>
<path d="M194.508 136.903H193.285V138.737H194.508V136.903Z" fill="#D513E3"/>
<path d="M141.504 144.419H140.281V146.253H141.504V144.419Z" fill="#D513E3"/>
<path d="M33.3285 143.502H32.1055V145.336H33.3285V143.502Z" fill="#FDDB86"/>
<path d="M187.516 143.502H186.293V145.336H187.516V143.502Z" fill="#FDDB86"/>
<path d="M167.36 140.827H166.137V142.661H167.36V140.827Z" fill="#D513E3"/>
<path d="M155.844 138.566H154.621V140.4H155.844V138.566Z" fill="#FDDB86"/>
<path d="M85.9769 141.744H84.7539V143.578H85.9769V141.744Z" fill="#FDDB86"/>
<path d="M240.164 141.744H238.941V143.578H240.164V141.744Z" fill="#FDDB86"/>
<path d="M100.996 135.685H99.7734V137.519H100.996V135.685Z" fill="#FDDB86"/>
<path d="M255.184 135.685H253.961V137.519H255.184V135.685Z" fill="#FDDB86"/>
<path d="M71.9964 136.508H70.7734V138.342H71.9964V136.508Z" fill="#FDDB86"/>
<path d="M226.184 136.508H224.961V138.342H226.184V136.508Z" fill="#FDDB86"/>
<path d="M256.008 144.734H254.785V146.568H256.008V144.734Z" fill="#D513E3"/>
<path d="M118.473 139.276H117.25V141.11H118.473V139.276Z" fill="#FDDB86"/>
<path d="M272.66 139.276H271.438V141.11H272.66V139.276Z" fill="#FDDB86"/>
<path d="M116.414 139.276H115.191V141.11H116.414V139.276Z" fill="#1DE0E0"/>
<path d="M270.602 139.276H269.379V141.11H270.602V139.276Z" fill="#1DE0E0"/>
<path d="M136.371 134.04H135.148V135.874H136.371V134.04Z" fill="#FDDB86"/>
<path d="M54.6361 140.827H53.4961V142.661H54.6361V140.827Z" fill="#1DE0E0"/>
<path d="M208.824 140.827H207.684V142.661H208.824V140.827Z" fill="#1DE0E0"/>
<path d="M59.2504 128.376H58.0234V129.91H59.2504V128.376Z" fill="#FDDB86"/>
<path d="M213.438 128.376H212.211V129.91H213.438V128.376Z" fill="#FDDB86"/>
<path d="M118.684 128.376H117.457V129.91H118.684V128.376Z" fill="#FDDB86"/>
<path d="M272.872 128.376H271.645V129.91H272.872V128.376Z" fill="#FDDB86"/>
<path d="M121.977 128.376H120.75V129.91H121.977V128.376Z" fill="#FDDB86"/>
<path d="M56.5747 128.376H55.3477V129.91H56.5747V128.376Z" fill="#FDDB86"/>
<path d="M210.762 128.376H209.535V129.91H210.762V128.376Z" fill="#FDDB86"/>
<path d="M112.236 103.988C112.236 108.196 110.426 111.04 106.806 112.522C104.026 113.707 99.3569 114.3 92.7989 114.3H85.2449C84.7199 114.3 84.4579 113.855 84.4579 112.966L84.3789 42.2052C84.3789 41.4942 84.5359 41.1392 84.8509 41.1392H99.6449C102.793 41.1392 105.521 42.4572 107.829 45.0952C110.137 47.7322 111.265 50.7992 111.213 54.2952L111.134 63.7182C111.082 67.2152 110.767 69.7632 110.19 71.3632C109.403 73.4972 107.777 75.3932 105.311 77.0532C107.042 78.0012 108.59 79.5422 109.954 81.6752C111.475 84.0462 112.236 86.4752 112.236 88.9652V103.988ZM100.511 58.4732C100.563 56.4582 100.406 55.0362 100.039 54.2062C99.5139 52.9622 98.4389 52.3402 96.8119 52.3402C95.9199 52.2802 95.3169 52.2802 95.0019 52.3402C94.6879 52.3992 94.5299 52.6952 94.5299 53.2292C94.5829 56.1922 94.6089 61.6142 94.6089 69.4962C94.6089 70.2672 94.7919 70.6522 95.1599 70.6522C96.2089 70.7712 97.3239 70.4592 98.5039 69.7192C99.6839 68.9782 100.301 67.9262 100.353 66.5632L100.511 58.4732ZM100.904 94.6542L100.825 89.4092C100.773 86.0312 98.9889 84.3422 95.4739 84.3422C95.1069 84.3422 94.9239 84.6682 94.9239 85.3202V101.232C94.9239 102.003 95.2119 102.388 95.7889 102.388H96.8909C99.6189 102.388 100.957 99.8102 100.904 94.6542Z" fill="#DBEAFE"/>
<path d="M137.416 113.055C137.416 113.766 136.996 114.152 136.157 114.211C128.917 114.626 122.334 114.566 116.405 114.033C115.828 113.974 115.54 113.411 115.54 112.344L115.461 42.9168C115.461 42.2648 115.75 41.9388 116.327 41.9388C120.366 41.8798 126.898 41.9088 135.921 42.0278C136.76 42.0278 137.18 42.3828 137.18 43.0938V47.8948C137.128 50.6798 137.101 52.4428 137.101 53.1838C137.101 53.9248 136.813 54.2948 136.236 54.2948H127.186C126.399 54.2948 126.006 54.6208 126.006 55.2728C126.006 55.5688 125.98 57.6728 125.927 61.5848C125.875 64.9028 125.875 67.3928 125.927 69.0518C125.927 69.7038 126.242 70.0888 126.871 70.2078C127.973 70.3848 130.412 70.4148 134.19 70.2958C134.872 70.2958 135.239 70.6518 135.291 71.3628C135.344 72.4298 135.318 74.4148 135.213 77.3188C135.108 80.6968 135.055 82.6828 135.055 83.2748C135.055 84.1048 134.767 84.5198 134.19 84.5198H127.107C126.583 84.5198 126.268 84.9638 126.163 85.8528C125.901 88.3418 125.848 93.0538 126.006 99.9878C126.006 100.758 126.478 101.203 127.422 101.321C129.468 101.262 132.354 101.203 136.078 101.143C136.918 101.143 137.337 101.528 137.337 102.299C137.337 107.099 137.364 110.685 137.416 113.055Z" fill="#DBEAFE"/>
<path d="M168.97 111.633C168.97 113.233 168.708 114.033 168.183 114.033H165.98C165.508 114.033 165.167 113.648 164.957 112.877C164.747 112.107 164.406 111.07 163.934 109.766C163.042 112.729 160.104 114.211 155.121 114.211C149.717 114.211 145.914 112.67 143.71 109.588C141.769 106.862 140.825 102.358 140.877 96.0758L141.035 59.8068C141.087 52.4578 142.163 47.4798 144.261 44.8718C146.15 42.5608 149.534 41.4048 154.412 41.4048C160.236 41.4048 164.196 43.0648 166.295 46.3838C167.869 48.7538 168.682 52.7538 168.734 58.3838C168.892 63.6588 168.944 67.5408 168.892 70.0298C168.892 71.0368 168.551 71.5408 167.869 71.5408C166.033 71.5998 163.173 71.5708 159.291 71.4518C158.662 71.4518 158.321 71.0078 158.268 70.1188C158.163 66.6218 158.058 63.1548 157.954 59.7178C157.586 54.9768 156.616 52.6058 155.042 52.6058C153.101 52.6058 152.13 54.9468 152.13 59.6288V97.0538C152.13 98.0018 152.393 99.1278 152.917 100.432C153.547 102.032 154.281 102.832 155.121 102.832C157.219 102.832 158.268 99.6318 158.268 93.2318V88.6978C158.268 87.9268 158.058 87.5718 157.639 87.6308H155.75C155.278 87.6308 155.042 87.3638 155.042 86.8308V78.2078C155.042 77.3188 155.435 76.8748 156.222 76.8748C159.003 76.8748 162.859 76.9038 167.79 76.9638C168.577 76.9638 168.97 77.4668 168.97 78.4748V111.633Z" fill="#DBEAFE"/>
<path d="M183.608 111.722C183.608 113.144 183.188 113.974 182.349 114.211C181.09 114.626 178.336 114.626 174.086 114.211C173.037 114.092 172.512 113.144 172.512 111.366C172.617 91.3351 172.644 69.0521 172.591 44.5171C172.591 43.9241 172.644 43.3911 172.749 42.9171C172.906 42.2051 173.194 41.8501 173.614 41.8501C175.87 41.8501 178.729 41.9091 182.192 42.0281C183.083 42.1461 183.555 42.9761 183.608 44.5171V111.722Z" fill="#DBEAFE"/>
<path d="M216.265 43.806C216.212 40.724 216.081 63.363 215.871 111.722C215.871 113.263 215.452 114.122 214.612 114.3C212.094 114.774 209.445 114.774 206.665 114.3C205.72 114.122 205.117 113.5 204.855 112.433C203.123 103.543 201.104 93.469 198.795 82.208C198.586 81.32 198.271 80.875 197.851 80.875C197.536 80.875 197.379 81.497 197.379 82.742V95.365C197.327 102.477 197.3 108.018 197.3 111.989C197.3 113.174 196.645 113.915 195.333 114.211C194.441 114.448 193.261 114.537 191.792 114.478C189.903 114.418 188.828 114.389 188.566 114.389C187.516 114.448 186.965 113.766 186.913 112.344C186.703 104.047 186.651 91.543 186.756 74.83C186.861 58.651 187.044 48.369 187.306 43.983C187.411 42.561 187.752 41.82 188.329 41.761C189.589 41.702 191.293 41.702 193.444 41.761C196.067 41.88 197.484 41.939 197.694 41.939C198.428 41.939 198.9 42.561 199.11 43.806C201.733 58.147 203.569 67.393 204.619 71.541C205.038 73.141 205.379 73.941 205.642 73.941C206.009 73.941 206.14 73.0231 206.035 71.1851C205.825 66.3851 205.72 57.258 205.72 43.806C205.72 42.443 206.245 41.791 207.294 41.85H214.612C215.714 41.909 216.265 42.561 216.265 43.806Z" fill="#DBEAFE"/>
<path d="M150.333 12.116C152.045 12.116 153.432 10.7285 153.432 9.01697C153.432 7.30544 152.045 5.91797 150.333 5.91797C148.622 5.91797 147.234 7.30544 147.234 9.01697C147.234 10.7285 148.622 12.116 150.333 12.116Z" fill="white"/>
<path fill-rule="evenodd" clip-rule="evenodd" d="M168.744 8.79805C169.524 8.90105 170.074 9.61704 169.972 10.397C169.869 11.177 169.152 11.727 168.372 11.624C167.592 11.522 167.042 10.8051 167.145 10.0251C167.248 9.24505 167.964 8.69505 168.744 8.79805Z" fill="white"/>
<path fill-rule="evenodd" clip-rule="evenodd" d="M132.419 8.79805C131.639 8.90105 131.089 9.61704 131.192 10.397C131.295 11.177 132.011 11.727 132.791 11.624C133.571 11.522 134.121 10.8051 134.019 10.0251C133.916 9.24505 133.199 8.69505 132.419 8.79805Z" fill="white"/>
<path fill-rule="evenodd" clip-rule="evenodd" d="M204.308 18.3269C205.035 18.6279 205.38 19.4629 205.079 20.1899C204.778 20.9169 203.944 21.2619 203.217 20.9609C202.49 20.6599 202.144 19.8259 202.445 19.0989C202.746 18.3719 203.581 18.0259 204.308 18.3269Z" fill="white"/>
<path fill-rule="evenodd" clip-rule="evenodd" d="M96.8533 18.3269C96.1263 18.6279 95.7803 19.4629 96.0813 20.1899C96.3833 20.9169 97.2173 21.2619 97.9443 20.9609C98.6713 20.6599 99.0163 19.8259 98.7153 19.0989C98.4143 18.3719 97.5803 18.0259 96.8533 18.3269Z" fill="white"/>
<path fill-rule="evenodd" clip-rule="evenodd" d="M236.192 36.7368C236.816 37.2158 236.934 38.1108 236.455 38.7348C235.976 39.3598 235.081 39.4778 234.456 38.9988C233.832 38.5198 233.714 37.6238 234.193 36.9998C234.672 36.3758 235.568 36.2578 236.192 36.7368Z" fill="white"/>
<path fill-rule="evenodd" clip-rule="evenodd" d="M64.9676 36.7368C64.3436 37.2158 64.2256 38.1108 64.7046 38.7348C65.1836 39.3598 66.0786 39.4778 66.7026 38.9988C67.3266 38.5198 67.4446 37.6238 66.9656 36.9998C66.4876 36.3758 65.5916 36.2578 64.9676 36.7368Z" fill="white"/>
<path fill-rule="evenodd" clip-rule="evenodd" d="M262.228 62.7718C262.707 63.3958 262.589 64.2908 261.965 64.7698C261.341 65.2488 260.445 65.1308 259.966 64.5068C259.487 63.8828 259.605 62.9878 260.229 62.5088C260.853 62.0298 261.749 62.1478 262.228 62.7718Z" fill="white"/>
<path fill-rule="evenodd" clip-rule="evenodd" d="M38.9311 62.7718C38.4521 63.3958 38.5701 64.2908 39.1941 64.7698C39.8181 65.2488 40.7141 65.1308 41.1931 64.5068C41.6721 63.8828 41.5541 62.9878 40.9301 62.5088C40.3051 62.0298 39.4101 62.1478 38.9311 62.7718Z" fill="white"/>
<path fill-rule="evenodd" clip-rule="evenodd" d="M186.838 12.3971C187.598 12.6011 188.05 13.3831 187.846 14.1431C187.642 14.9031 186.86 15.3551 186.1 15.1511C185.34 14.9471 184.889 14.1651 185.092 13.4051C185.296 12.6451 186.078 12.1931 186.838 12.3971Z" fill="white"/>
<path fill-rule="evenodd" clip-rule="evenodd" d="M114.323 12.3971C113.563 12.6011 113.111 13.3831 113.315 14.1431C113.518 14.9031 114.301 15.3551 115.061 15.1511C115.821 14.9471 116.272 14.1651 116.069 13.4051C115.865 12.6451 115.083 12.1931 114.323 12.3971Z" fill="white"/>
<path fill-rule="evenodd" clip-rule="evenodd" d="M221.692 25.0382C223.174 25.8932 223.682 27.7902 222.827 29.2712C221.971 30.7532 220.074 31.2612 218.593 30.4062C217.111 29.5502 216.603 27.6532 217.458 26.1722C218.314 24.6912 220.211 24.1822 221.692 25.0382Z" fill="white"/>
<path fill-rule="evenodd" clip-rule="evenodd" d="M79.472 25.0382C77.99 25.8932 77.482 27.7902 78.337 29.2712C79.192 30.7532 81.09 31.2612 82.571 30.4062C84.052 29.5502 84.561 27.6532 83.705 26.1722C82.85 24.6912 80.953 24.1822 79.472 25.0382Z" fill="white"/>
<path fill-rule="evenodd" clip-rule="evenodd" d="M250.063 48.9009C250.619 49.4569 250.619 50.3609 250.063 50.9169C249.506 51.4729 248.603 51.4729 248.047 50.9169C247.49 50.3609 247.49 49.4569 248.047 48.9009C248.603 48.3449 249.506 48.3449 250.063 48.9009Z" fill="white"/>
<path fill-rule="evenodd" clip-rule="evenodd" d="M51.0967 48.9009C50.5407 49.4569 50.5407 50.3609 51.0967 50.9169C51.6527 51.4729 52.5567 51.4729 53.1127 50.9169C53.6687 50.3609 53.6687 49.4569 53.1127 48.9009C52.5567 48.3449 51.6527 48.3449 51.0967 48.9009Z" fill="white"/>
<path fill-rule="evenodd" clip-rule="evenodd" d="M273.928 77.2752C274.784 78.7562 274.275 80.6532 272.794 81.5082C271.312 82.3642 269.415 81.8552 268.56 80.3742C267.705 78.8932 268.213 76.9952 269.695 76.1402C271.176 75.2852 273.073 75.7932 273.928 77.2752Z" fill="white"/>
<path fill-rule="evenodd" clip-rule="evenodd" d="M27.232 77.2752C26.376 78.7562 26.885 80.6532 28.366 81.5082C29.847 82.3642 31.744 81.8552 32.6 80.3742C33.455 78.8932 32.947 76.9952 31.465 76.1402C29.984 75.2852 28.087 75.7932 27.232 77.2752Z" fill="white"/>
<path fill-rule="evenodd" clip-rule="evenodd" d="M280.637 94.658C280.939 95.385 280.593 96.219 279.866 96.52C279.139 96.821 278.305 96.476 278.004 95.749C277.702 95.022 278.048 94.188 278.775 93.886C279.502 93.585 280.336 93.931 280.637 94.658Z" fill="white"/>
<path fill-rule="evenodd" clip-rule="evenodd" d="M20.5227 94.658C20.2217 95.385 20.5677 96.219 21.2947 96.52C22.0217 96.821 22.8557 96.476 23.1567 95.749C23.4577 95.022 23.1127 94.188 22.3857 93.886C21.6587 93.585 20.8237 93.931 20.5227 94.658Z" fill="white"/>
<path fill-rule="evenodd" clip-rule="evenodd" d="M14.5919 112.128C14.3879 112.888 14.8399 113.67 15.5999 113.874C16.3599 114.077 17.1419 113.626 17.3459 112.866C17.5499 112.106 17.0979 111.323 16.3379 111.12C15.5779 110.916 14.7959 111.368 14.5919 112.128Z" fill="white"/>
<path fill-rule="evenodd" clip-rule="evenodd" d="M290.167 130.222C290.27 131.002 289.72 131.719 288.94 131.822C288.16 131.924 287.443 131.374 287.34 130.594C287.238 129.814 287.788 129.098 288.568 128.995C289.348 128.892 290.064 129.442 290.167 130.222Z" fill="white"/>
<path fill-rule="evenodd" clip-rule="evenodd" d="M10.9929 130.222C10.8899 131.002 11.4399 131.719 12.2199 131.822C12.9999 131.924 13.7169 131.374 13.8189 130.594C13.9219 129.814 13.3719 129.098 12.5919 128.995C11.8119 128.892 11.0959 129.442 10.9929 130.222Z" fill="white"/>
<path fill-rule="evenodd" clip-rule="evenodd" d="M293.046 148.632C293.046 150.342 291.658 151.731 289.947 151.731C288.236 151.731 286.848 150.342 286.848 148.632C286.848 146.921 288.236 145.532 289.947 145.532C291.658 145.532 293.046 146.921 293.046 148.632Z" fill="white"/>
<path fill-rule="evenodd" clip-rule="evenodd" d="M8.11328 148.632C8.11328 150.342 9.50228 151.731 11.2133 151.731C12.9233 151.731 14.3123 150.342 14.3123 148.632C14.3123 146.921 12.9233 145.532 11.2133 145.532C9.50228 145.532 8.11328 146.921 8.11328 148.632Z" fill="white"/>
<path fill-rule="evenodd" clip-rule="evenodd" d="M286.569 112.128C286.772 112.888 286.321 113.67 285.561 113.874C284.801 114.077 284.018 113.626 283.815 112.866C283.611 112.106 284.063 111.323 284.823 111.12C285.583 110.916 286.365 111.368 286.569 112.128Z" fill="white"/>
<defs>
<linearGradient id="paint0_linear_621_523" x1="150.32" y1="14.9109" x2="150.32" y2="113.714" gradientUnits="userSpaceOnUse">
<stop stop-color="#281A89"/>
<stop offset="1" stop-color="#8137BB"/>
</linearGradient>
<linearGradient id="paint1_linear_621_523" x1="269.401" y1="104.721" x2="269.635" y2="127.221" gradientUnits="userSpaceOnUse">
<stop stop-color="#3A239B"/>
<stop offset="1" stop-color="#5738DD"/>
</linearGradient>
<linearGradient id="paint2_linear_621_523" x1="16.1052" y1="112.145" x2="15.9703" y2="127.562" gradientUnits="userSpaceOnUse">
<stop stop-color="#3B259F"/>
<stop offset="1" stop-color="#4E33C8"/>
</linearGradient>
<linearGradient id="paint3_linear_621_523" x1="125.449" y1="108.67" x2="125.854" y2="135.311" gradientUnits="userSpaceOnUse">
<stop stop-color="#39239A"/>
<stop offset="1" stop-color="#603FF3"/>
</linearGradient>
<linearGradient id="paint4_linear_621_523" x1="150.32" y1="126.512" x2="150.32" y2="151.732" gradientUnits="userSpaceOnUse">
<stop stop-color="#291A6C"/>
<stop offset="1" stop-color="#0D0434"/>
</linearGradient>
</defs>
</svg>
