<svg width="304" height="258" viewBox="0 0 304 258" fill="none" xmlns="http://www.w3.org/2000/svg">
<path d="M292.35 146.68C293.96 146.68 293.96 144.18 292.35 144.18C290.74 144.18 290.74 146.68 292.35 146.68Z" fill="#020202"/>
<path d="M291.52 200.87C291.71 203.52 290.88 206.24 289.23 208.33C288.51 209.24 287.65 210.03 286.79 210.82C285.23 212.25 283.67 213.67 282.1 215.1C278.26 218.61 274.41 222.12 270.29 225.29L269.88 225.71C270.01 226.26 269.54 226.74 269.11 227.11C267.59 228.4 266.04 229.64 264.46 230.86C260.77 233.7 256.84 236.37 252.39 237.74C250.6 238.29 248.76 238.63 246.92 239.01C240.08 240.42 233.38 242.47 226.91 245.12L226.43 245.44C218.41 248.18 209.86 248.83 201.45 249.9C195.07 250.71 188.73 251.78 182.44 253.1C179.08 253.81 175.72 254.58 172.31 255.02C169.8 255.34 167.28 255.47 164.75 255.6C158.13 255.94 151.51 256.28 144.89 256.61L144.94 256.46C135.58 256.93 126.18 256.49 116.86 255.48C108.44 254.57 100.06 253.21 91.8701 251.07L92.0701 251.03C85.8701 249.05 79.6801 247.02 73.5101 244.92C68.4601 243.21 63.4301 241.46 58.4001 239.71C52.5801 237.69 46.7401 235.65 41.2101 232.94L41.4301 232.9C39.5101 231.61 37.5801 230.32 35.7201 228.94C23.1001 219.67 13.2201 206.72 7.61007 192.1C2.00007 177.48 0.670071 161.25 3.83007 145.92L4.06008 145.18C5.36008 134.35 9.09008 123.82 14.8701 114.58C24.0801 99.87 38.2301 88.77 53.5301 80.57C55.2901 79.63 57.2801 78.69 59.2001 79.23L58.7201 79.07C60.3901 64.16 68.5101 50.86 76.4301 38.12C78.2601 35.18 80.0901 32.22 82.2901 29.55C84.9001 26.37 87.9901 23.62 91.2201 21.07C98.2601 15.5 106.16 10.75 114.9 8.69C116.8 8.24 118.72 7.91999 120.65 7.64999C126.99 6.73999 133.46 6.26 139.79 7.24C146.12 8.22 152.35 10.76 156.93 15.23L157.73 14.77C164.35 8.24 172.86 3.47999 182.04 2.03999C191.22 0.59999 201.06 2.68 208.43 8.35C213.7 12.4 217.5 18.01 221.21 23.52V23.72C230.75 22.5 240.48 25.03 249.13 29.25C257.78 33.47 265.51 39.31 273.19 45.11C274.78 46.31 276.39 47.53 277.69 49.04C279.55 51.2 280.73 53.92 281.02 56.75C281.1 57.49 281.13 58.27 281.52 58.9C282 59.66 282.89 60.03 283.69 60.44C287.28 62.3 289.69 65.93 290.96 69.77C292.23 73.61 292.49 77.7 292.74 81.73C292.8 82.65 292.84 83.64 292.38 84.44C291.89 85.29 290.93 85.76 290.34 86.53C289.21 87.99 289.6 90.13 288.8 91.8C288.39 92.66 287.68 93.34 286.99 94C283.18 97.64 279.37 101.28 275.56 104.92C275.21 105.25 274.84 105.62 274.76 106.1C274.67 106.59 274.91 107.08 275.15 107.52C277.57 112.11 280 116.71 282.91 121.01C284.19 122.9 285.57 124.74 286.71 126.73C289.75 132.08 290.85 138.28 291.91 144.35" fill="#80925D"/>
<path d="M290.27 200.87C290.4 203.4 289.69 205.88 288.03 207.83C286.28 209.89 284.06 211.62 282.07 213.43C278.01 217.13 273.86 220.67 269.66 224.2C269.15 224.63 268.94 224.94 268.65 225.53C268.16 226.52 267.02 227.23 266.14 227.94C264.09 229.6 261.99 231.23 259.78 232.68C257.57 234.13 255.42 235.35 253.01 236.2C250.6 237.05 248.05 237.46 245.55 238C240.3 239.14 235.13 240.65 230.1 242.52C227.89 243.34 225.8 244.36 223.54 245.01C220.95 245.75 218.3 246.31 215.64 246.76C210.27 247.67 204.84 248.15 199.45 248.88C194.06 249.61 188.23 250.59 182.68 251.74C179.66 252.37 176.65 253.07 173.61 253.54C170.57 254.01 167.35 254.17 164.21 254.33C157.78 254.66 151.35 254.99 144.92 255.31L146.13 256.89L146.18 256.74C146.44 255.99 145.75 255.12 144.97 255.16C127.39 256.02 109.28 254.23 92.2401 249.82V252.23L92.4402 252.19C93.7202 251.94 93.5302 250.13 92.4402 249.78C83.7902 247.02 75.1801 244.14 66.5901 241.17C58.0001 238.2 49.8001 235.66 41.8701 231.82L41.5702 234.1L41.7902 234.06C42.9402 233.87 42.8901 232.32 42.0901 231.78C36.8801 228.28 31.9102 224.59 27.4502 220.16C23.3402 216.08 19.6701 211.58 16.5201 206.73C9.71014 196.26 5.36016 184.26 3.95016 171.84C3.21016 165.27 3.24016 158.61 4.07016 152.06C4.42016 149.33 5.10016 146.67 5.48016 143.96C5.92016 140.84 6.57014 137.75 7.40014 134.71C10.7101 122.67 17.1001 111.77 25.6801 102.74C30.2401 97.94 35.3301 93.66 40.7501 89.85C43.4501 87.96 46.2301 86.17 49.0601 84.5C50.4801 83.66 51.9102 82.85 53.3502 82.06C55.0302 81.15 56.9002 79.97 58.8902 80.4C60.4702 80.74 61.0801 78.51 59.5501 77.99L59.0702 77.83L59.9901 79.04C61.0101 70.3 64.3102 62.04 68.3802 54.3C70.4002 50.46 72.6001 46.73 74.8601 43.04C77.1201 39.35 79.4401 35.35 82.1101 31.79C87.3201 24.83 94.8702 19.19 102.42 14.98C110.52 10.46 119.35 8.57999 128.55 8.03999C138.3 7.45999 148.75 9.08 156.07 16.08C156.47 16.47 157.1 16.56 157.58 16.28C159.23 15.33 160.51 13.82 161.98 12.61C163.91 11.02 165.97 9.6 168.13 8.35C172.33 5.91 176.91 4.16999 181.7 3.33999C191.46 1.62999 202.04 4.13 209.48 10.8C211.62 12.72 213.53 14.9 215.27 17.18C216.18 18.37 217.05 19.6 217.91 20.83C218.29 21.38 218.67 21.93 219.04 22.48C219.2 22.71 219.39 23.09 219.6 23.31C219.75 23.47 219.99 23.77 219.99 23.71C219.99 24.33 220.56 25.04 221.24 24.96C233.03 23.53 244.49 27.63 254.51 33.56C259.63 36.59 264.46 40.08 269.22 43.65C273.71 47.02 278.68 50.17 279.7 56.14C279.89 57.28 279.84 58.5 280.46 59.52C281.08 60.54 282.1 60.98 283.08 61.51C285.34 62.72 287.06 64.59 288.32 66.81C289.66 69.16 290.38 71.79 290.82 74.44C291.06 75.89 291.2 77.36 291.32 78.83C291.43 80.19 291.9 82.24 291.42 83.53C291.03 84.58 289.78 85.13 289.16 86.07C288.5 87.08 288.35 88.23 288.16 89.39C287.93 90.79 287.49 91.75 286.47 92.77C285.29 93.94 284.06 95.07 282.86 96.22C280.61 98.37 278.37 100.51 276.12 102.66C275.28 103.46 274.1 104.29 273.68 105.42C273.22 106.66 273.89 107.78 274.46 108.85C276 111.78 277.56 114.7 279.26 117.55C280.96 120.4 283.01 123.14 284.82 125.99C288.39 131.62 289.58 138.2 290.71 144.67C290.99 146.25 293.4 145.58 293.12 144.01C292.11 138.19 291.04 132.28 288.29 126.99C286.91 124.33 285.05 121.97 283.41 119.48C281.77 116.99 280.23 114.3 278.77 111.63C278.04 110.29 277.33 108.95 276.62 107.6C276.19 106.79 275.98 106.27 276.67 105.61C277.36 104.95 278.03 104.31 278.71 103.66C281.09 101.38 283.47 99.11 285.86 96.83C287.83 94.95 289.98 93.3 290.51 90.49C290.73 89.34 290.72 88.02 291.53 87.1C292.34 86.18 293.4 85.62 293.81 84.36C294.22 83.1 294.03 81.71 293.94 80.41C293.84 78.83 293.72 77.25 293.52 75.67C293.17 72.87 292.59 70.1 291.47 67.5C290.51 65.29 289.17 63.2 287.41 61.54C286.61 60.79 285.71 60.1 284.75 59.56C284.23 59.27 283.66 59.05 283.17 58.71C282.44 58.2 282.42 57.57 282.32 56.74C281.99 54.07 281.13 51.53 279.55 49.33C277.97 47.13 275.68 45.38 273.45 43.7C268.7 40.11 263.94 36.53 258.92 33.32C247.78 26.2 234.73 20.82 221.26 22.45L222.51 23.7C222.51 22.74 221.73 21.97 221.22 21.21C220.38 19.97 219.52 18.73 218.64 17.52C217.02 15.28 215.31 13.1 213.4 11.1C209.74 7.26 205.34 4.32999 200.36 2.50999C190.36 -1.15001 179.28 0.0299973 169.81 4.64C167.19 5.92 164.69 7.45 162.35 9.2C161.19 10.07 160.06 10.97 158.97 11.93C158.1 12.69 157.35 13.56 156.34 14.13L157.85 14.33C151.37 8.13 142.44 5.64999 133.64 5.45C124.13 5.24 114.07 6.72999 105.38 10.7C101.21 12.6 97.3002 15.02 93.6002 17.72C89.9002 20.42 86.2602 23.35 83.1302 26.73C80.0002 30.11 77.4502 34.15 74.9802 38.13C72.5102 42.11 70.0702 46.07 67.8102 50.15C62.8001 59.17 58.7202 68.74 57.5102 79.06C57.4402 79.62 57.9501 80.1 58.4301 80.27L58.9102 80.43L59.5702 78.02C56.3702 77.33 53.5601 79.12 50.8701 80.62C48.1801 82.12 45.4401 83.77 42.8101 85.48C37.6101 88.88 32.6401 92.67 28.0801 96.9C18.7601 105.53 11.3502 116.04 6.95016 127.99C5.77016 131.19 4.81014 134.46 4.08014 137.79C3.47014 140.54 3.12014 143.34 2.55014 146.09C1.19014 152.66 0.710159 159.45 1.01016 166.15C1.60016 179.44 5.33016 192.51 11.9502 204.05C15.3202 209.92 19.4102 215.39 24.0702 220.29C29.0902 225.57 34.8101 229.91 40.8401 233.96L41.1402 231.68L40.9202 231.72C39.8802 231.89 39.6901 233.55 40.6201 234C48.5701 237.86 57.0601 240.54 65.4001 243.42C74.1601 246.45 82.9502 249.39 91.7902 252.21V249.8L91.5901 249.84C90.3502 250.08 90.4501 251.95 91.5901 252.25C100.17 254.47 108.94 255.88 117.75 256.79C126.56 257.7 135.9 258.12 144.99 257.68L143.78 256.1L143.73 256.25C143.47 257 144.16 257.87 144.94 257.83L159.13 257.11C163.54 256.89 167.98 256.8 172.36 256.25C176.74 255.7 181.19 254.59 185.6 253.72C190.01 252.85 194.53 252.09 199.02 251.46C207.79 250.24 216.76 249.75 225.27 247.13C227 246.6 228.59 245.78 230.29 245.14C232.3 244.38 234.33 243.68 236.38 243.04C240.63 241.71 244.94 240.72 249.29 239.8C253.64 238.88 257.71 237.12 261.48 234.58C263.41 233.28 265.26 231.85 267.09 230.4C268.58 229.21 271.13 227.85 271.16 225.71L270.79 226.59C272.6 224.75 274.86 223.26 276.81 221.56C279.27 219.42 281.67 217.21 284.08 215.01C286.3 212.98 288.87 211.05 290.62 208.59C292.21 206.35 292.94 203.6 292.8 200.88C292.72 199.28 290.22 199.27 290.3 200.88L290.27 200.87Z" fill="#020202"/>
<path d="M157.07 16.79C162.16 21.56 166.86 28.09 165.75 35.47C165.65 36.14 165.92 36.81 166.62 37.01C167.21 37.18 168.06 36.8 168.16 36.14C169.42 27.8 164.68 20.51 158.84 15.03C157.67 13.93 155.9 15.69 157.07 16.8V16.79Z" fill="#3A3A3A"/>
<path d="M221.3 22.29C212.91 20.62 204.05 21.97 196.63 26.27C189.93 30.15 184.61 36.24 181.54 43.33C180.91 44.77 183.04 46.03 183.67 44.58C186.53 37.98 191.34 32.29 197.55 28.6C204.45 24.5 212.79 23.11 220.66 24.67C222.21 24.98 222.88 22.6 221.32 22.29H221.3Z" fill="#3A3A3A"/>
<path d="M283.02 58.5C272.22 54.35 260.76 52.11 249.19 51.76C243.07 51.58 236.96 51.86 230.85 52.16C228.03 52.3 225.19 52.41 222.41 52.93C219.83 53.41 217.35 54.3 214.98 55.43C209.77 57.93 205.28 61.68 200.9 65.38C199.67 66.41 201.44 68.17 202.66 67.14C206.48 63.92 210.35 60.7 214.77 58.32C216.93 57.16 219.2 56.23 221.58 55.65C224.38 54.96 227.25 54.83 230.12 54.69C241.56 54.12 252.99 53.76 264.31 55.83C270.47 56.96 276.51 58.66 282.36 60.91C283.86 61.48 284.5 59.08 283.02 58.51V58.5Z" fill="#3A3A3A"/>
<path d="M207.13 80.28C229.22 85.11 252.1 86.21 274.54 83.38C280.3 82.66 286.42 82.06 291.54 79.09C292.93 78.29 291.67 76.14 290.28 76.94C285.76 79.56 280.34 80.13 275.25 80.79C269.79 81.5 264.3 81.98 258.81 82.22C247.97 82.71 237.1 82.31 226.33 81.02C220.1 80.27 213.92 79.21 207.79 77.87C206.23 77.53 205.56 79.93 207.13 80.27V80.28Z" fill="#3A3A3A"/>
<path d="M204.54 85.27C210.41 86.2 215.84 88.68 221.53 90.27C227.22 91.86 232.89 92.69 238.66 93.22C244.43 93.75 250.75 93.95 256.8 94.11C262.85 94.27 268.87 94.5 274.82 93.7C280.77 92.9 286.4 90.91 290.83 86.88C292.02 85.8 290.25 84.04 289.07 85.12C280.73 92.71 268.24 91.89 257.76 91.64C246.33 91.37 234.69 91.12 223.56 88.24C217.38 86.64 211.53 83.87 205.2 82.87C203.63 82.62 202.96 85.02 204.54 85.27Z" fill="#3A3A3A"/>
<path d="M92.98 53.12C104.06 41.82 118.77 35.38 134.47 34.07C138.75 33.71 143.05 33.66 147.34 33.76C151.63 33.86 156.16 34.09 160.47 35.01C167.98 36.61 174.86 40.21 181.1 44.61C184.58 47.06 187.89 49.77 191.05 52.62C193.98 55.26 197.73 59.5 195.23 63.64C194.4 65.02 196.55 66.27 197.38 64.9C202.01 57.21 192.32 50.19 187.17 46.08C180.83 41.03 173.9 36.59 166.17 33.98C157.6 31.1 148.19 30.97 139.24 31.29C130.29 31.61 121.75 33.03 113.59 36.35C105.43 39.67 97.57 44.87 91.22 51.34C90.1 52.48 91.86 54.25 92.98 53.1V53.12Z" fill="#3A3A3A"/>
<path d="M194.39 65.56C199.76 69.75 205.91 75.15 203.41 82.7C202.19 86.4 199.41 89.29 196.52 91.79C193.63 94.29 190.44 96.77 187.29 99.11C181.15 103.66 174.57 107.84 167.29 110.3C163.35 111.64 159.27 112.34 155.16 112.94C151.05 113.54 146.6 114.18 142.32 114.8C132.64 116.2 122.73 117.67 112.99 115.93C111.42 115.65 110.75 118.05 112.33 118.33C121.41 119.96 130.57 118.96 139.62 117.69C144.21 117.04 148.81 116.37 153.4 115.7C157.99 115.03 162.39 114.45 166.73 113.11C174.56 110.68 181.64 106.36 188.2 101.53C191.47 99.12 194.69 96.62 197.78 93.99C200.87 91.36 203.8 88.34 205.38 84.51C206.96 80.68 206.82 76.33 204.71 72.62C202.6 68.91 199.36 66.33 196.14 63.82C194.89 62.85 193.12 64.6 194.38 65.58L194.39 65.56Z" fill="#3A3A3A"/>
<path d="M200.05 92.74C203.84 92.61 207.41 94.4 210.76 95.99C214.11 97.58 217.4 99.37 220.61 101.27C227.04 105.08 233.18 109.35 239.32 113.61C240.64 114.53 241.88 112.37 240.58 111.46C234.2 107.02 227.8 102.58 221.08 98.65C217.8 96.73 214.44 94.94 210.98 93.35C207.52 91.76 203.93 90.12 200.05 90.25C198.45 90.3 198.45 92.79 200.05 92.74Z" fill="#3A3A3A"/>
<path d="M258.48 114.89C263.74 111.4 269.29 108.36 275.06 105.8C275.68 105.53 275.81 104.63 275.51 104.1C275.15 103.46 274.42 103.38 273.81 103.65C268.04 106.21 262.49 109.25 257.23 112.74C255.9 113.62 257.15 115.78 258.49 114.89H258.48Z" fill="#3A3A3A"/>
<path d="M200.56 65.41L199.89 66.22C199.77 66.33 199.68 66.47 199.63 66.62C199.55 66.77 199.52 66.93 199.52 67.1C199.52 67.27 199.55 67.43 199.63 67.58C199.68 67.73 199.77 67.87 199.89 67.98L200.14 68.17C200.33 68.28 200.54 68.34 200.77 68.34L201.1 68.3C201.31 68.24 201.49 68.13 201.65 67.98L202.32 67.17C202.44 67.06 202.53 66.92 202.58 66.77C202.66 66.62 202.69 66.46 202.69 66.29C202.69 66.12 202.66 65.96 202.58 65.81C202.53 65.66 202.44 65.52 202.32 65.41L202.07 65.22C201.88 65.11 201.67 65.05 201.44 65.05L201.11 65.09C200.9 65.15 200.72 65.26 200.56 65.41Z" fill="#3A3A3A"/>
<path d="M195.59 62.82C193.39 60.05 189.07 59 185.77 58.28C182 57.46 178.12 57.21 174.27 57.21C166.15 57.21 157.9 57.8 149.83 58.73C145.17 59.27 140.54 60.05 136.01 61.27C134.47 61.68 135.12 64.09 136.67 63.67C146.42 61.05 156.53 60.52 166.56 59.96C171.3 59.7 176.07 59.51 180.8 60C183.2 60.25 185.59 60.7 187.9 61.41C190.01 62.05 192.4 62.79 193.82 64.58C194.81 65.83 196.56 64.06 195.58 62.82H195.59Z" fill="#3A3A3A"/>
<path d="M136.1 61.36C128.18 62.47 120.38 64.34 112.83 66.97C109.06 68.28 105.43 69.92 101.68 71.28C97.9297 72.64 93.7997 73.27 89.6497 73.43C84.8897 73.61 80.1297 73.7 75.3797 73.83C73.7797 73.87 73.7797 76.36 75.3797 76.32C79.6597 76.2 83.9297 76.09 88.2097 75.97C92.4897 75.85 96.4197 75.58 100.36 74.36C104.3 73.14 107.78 71.46 111.51 70.08C115.24 68.7 119.23 67.46 123.18 66.45C127.66 65.3 132.2 64.41 136.78 63.76C138.36 63.54 137.69 61.14 136.12 61.36H136.1Z" fill="#3A3A3A"/>
<path d="M72.0599 85.99C82.1299 83.54 91.4599 90.33 101.12 91.84C106.18 92.63 111.37 92.72 116.48 93.04C121.59 93.36 126.98 93.73 132.23 93.95C138.21 94.19 144.2 94.22 150.17 93.74C151.76 93.61 151.77 91.12 150.17 91.25C139.52 92.1 128.85 91.33 118.21 90.66C112.93 90.33 107.57 90.24 102.33 89.52C97.0899 88.8 92.6399 86.85 87.8799 85.25C82.5799 83.47 76.9499 82.24 71.4099 83.59C69.8499 83.97 70.5099 86.37 72.0699 85.99H72.0599Z" fill="#3A3A3A"/>
<path d="M150.22 93.95C160 94.09 169.8 92.99 179.29 90.61C181.5 90.06 183.68 89.4 185.75 88.45C187.82 87.5 189.79 86.17 191.93 85.25C194.07 84.33 196.46 83.74 198.82 83.59C201.02 83.45 203.14 83.67 205.2 82.71C206.65 82.04 205.39 79.89 203.94 80.56C202.01 81.45 199.53 80.97 197.45 81.23C195.25 81.5 193.13 82.06 191.09 82.92C188.95 83.83 187 85.1 184.91 86.1C182.82 87.1 180.76 87.67 178.62 88.2C169.34 90.53 159.78 91.59 150.21 91.45C148.61 91.43 148.61 93.91 150.21 93.94L150.22 93.95Z" fill="#3A3A3A"/>
<path d="M82.2798 94.9C86.4698 95.5 90.5099 96.73 94.5999 97.78C98.6899 98.83 102.93 99.72 107.15 100.43C115.62 101.86 124.19 102.64 132.78 102.92C141.37 103.2 149.96 103.02 158.53 102.52C167.1 102.02 175.14 101.71 183.01 99.17C190.88 96.63 198.25 92.21 204.24 86.39C205.39 85.27 203.63 83.51 202.48 84.63C197.25 89.72 190.97 93.69 184.1 96.17C176.48 98.92 168.44 99.41 160.42 99.92C143.76 100.96 126.91 100.96 110.38 98.44C105.76 97.74 101.17 96.84 96.6399 95.73C92.1099 94.62 87.5999 93.17 82.9399 92.51C81.3699 92.29 80.6998 94.68 82.2798 94.91V94.9Z" fill="#3A3A3A"/>
<path d="M129.75 210.05V209.85C129.75 209.68 129.72 209.52 129.64 209.37C129.59 209.22 129.5 209.08 129.38 208.97C129.27 208.85 129.13 208.76 128.98 208.71C128.83 208.63 128.67 208.6 128.5 208.6L128.17 208.64C127.96 208.7 127.78 208.81 127.62 208.96L127.43 209.21C127.32 209.4 127.26 209.61 127.26 209.84V210.04C127.26 210.21 127.29 210.37 127.37 210.52C127.42 210.67 127.51 210.81 127.63 210.92C127.74 211.04 127.88 211.13 128.03 211.18C128.18 211.26 128.34 211.29 128.51 211.29L128.84 211.25C129.05 211.19 129.23 211.08 129.39 210.93L129.58 210.68C129.69 210.49 129.75 210.28 129.75 210.05Z" fill="#3A3A3A"/>
<path d="M158.45 161.23C154.09 160.94 149.75 160.47 145.4 160.12C134.72 159.27 124 159.22 113.29 159.17C110.66 159.16 108.02 159.14 105.39 159.13C102.14 159.11 98.8996 159.1 95.6496 159.14C83.7096 159.3 71.7396 160.26 60.0696 162.79C55.7396 163.73 51.3596 164.92 47.6796 167.4L48.0096 167.78C42.9796 172.3 37.6696 177.33 36.4696 183.98C36.0496 186.32 36.1696 188.72 36.4696 191.08C36.8596 194.12 37.5996 197.22 39.4496 199.66C41.2796 202.07 44.0296 203.62 46.8096 204.8C60.4296 210.57 75.8396 209.09 90.6296 208.83C99.5396 208.68 108.44 209.01 117.34 209.34C121.13 209.48 124.93 209.62 128.72 209.76V210.27C165.98 210.97 203.25 211.24 240.51 211.07C246.75 211.04 253.02 211 259.2 210.08C267.3 208.87 275.08 206.16 282.81 203.45C287.07 201.96 291.47 200.37 294.72 197.24C298.92 193.19 300.57 186.69 298.8 181.12L298.71 180.64C299.05 178.42 298.66 176.09 297.6 174.11C297.3 173.55 296.94 172.93 297.12 172.32C297.23 171.97 297.5 171.7 297.75 171.44C299.3 169.84 300.48 167.87 301.16 165.75L301.24 165.22C302.81 162.2 301.86 158.53 300.88 155.27C300.31 153.39 299.72 151.46 298.5 149.93C297.28 148.4 295.25 147.33 293.35 147.82C292.19 148.12 291.23 148.93 290.25 149.62C286.8 152.05 282.61 153.16 278.5 154.1C266.04 156.96 253.32 158.71 240.55 159.33L239.78 159.31C222.22 159.75 204.66 160.19 187.1 160.63C184.75 160.69 182.39 160.75 180.04 160.64C176.64 160.49 173.26 160 169.85 159.91C165.74 159.81 161.65 160.29 157.57 160.78" fill="#AF4F41"/>
<path d="M158.45 159.98C150.94 159.47 143.47 158.62 135.94 158.31C128.41 158 120.84 157.96 113.29 157.92C98.5797 157.85 83.8897 157.72 69.2897 159.86C61.8197 160.96 53.4797 162.09 47.0397 166.32C46.3297 166.79 46.2497 167.65 46.7897 168.28L47.1197 168.66V166.89C41.5597 171.9 35.6897 177.6 35.0097 185.49C34.6697 189.46 35.2597 193.99 36.8597 197.65C38.4697 201.35 41.5997 203.78 45.1897 205.43C61.1097 212.78 79.4497 209.97 96.3997 210.03C107.18 210.07 117.96 210.6 128.73 211L127.48 209.75V210.26C127.48 210.95 128.05 211.5 128.73 211.51C154.74 212 180.76 212.27 206.77 212.34C219.67 212.37 232.57 212.47 245.47 212.27C251.77 212.17 258.05 211.75 264.22 210.41C270.39 209.07 275.98 207.15 281.73 205.14C286.71 203.4 292.1 201.7 295.89 197.83C299.26 194.38 301.05 189.42 300.72 184.61C300.64 183.44 300.42 182.29 300.13 181.16C299.84 180.03 300.14 178.88 300.01 177.72C299.88 176.56 299.57 175.38 299.08 174.28C298.89 173.86 298.29 173.04 298.4 172.58C298.51 172.12 299.48 171.38 299.81 170.96C301.2 169.16 301.88 167.22 302.66 165.15C303.65 162.51 303.39 159.8 302.72 157.11C301.63 152.76 299.54 145.85 293.75 146.49C291.31 146.76 289.44 148.84 287.33 149.93C284.81 151.23 282.04 151.98 279.29 152.64C267.1 155.55 254.61 157.31 242.1 158C236.26 158.32 230.37 158.29 224.52 158.44C218.02 158.6 211.52 158.77 205.03 158.93C198.55 159.09 192.08 159.28 185.6 159.41C179.12 159.54 173.07 158.45 166.78 158.68C163.7 158.8 160.63 159.16 157.58 159.53C156 159.72 155.98 162.22 157.58 162.03C160.64 161.67 163.7 161.3 166.78 161.18C169.86 161.06 172.91 161.32 175.97 161.59C182.05 162.13 188.13 161.85 194.22 161.7L231.89 160.76C237.43 160.62 242.94 160.53 248.47 160.05C254.44 159.54 260.39 158.79 266.3 157.79C272.21 156.79 278.04 155.79 283.67 154.04C286.21 153.25 288.7 152.21 290.89 150.69C291.76 150.09 292.63 149.26 293.69 149.02C295.01 148.72 296.34 149.44 297.23 150.37C299.03 152.26 299.68 155.31 300.29 157.78C300.62 159.12 300.88 160.49 300.83 161.88C300.78 163.08 300.32 164.04 300 165.15C299.68 166.26 299.21 167.34 298.59 168.35C297.91 169.45 296.86 170.28 296.2 171.37C295.64 172.29 295.82 173.3 296.25 174.23C296.89 175.6 297.45 176.87 297.56 178.41C297.63 179.42 297.36 180.42 297.58 181.4C297.84 182.55 298.15 183.64 298.22 184.83C298.36 187.25 297.92 189.71 296.92 191.93C294.72 196.8 290.17 199.39 285.36 201.21C274.16 205.45 262.69 209.06 250.66 209.64C244.47 209.94 238.27 209.85 232.07 209.87C225.87 209.89 219.41 209.89 213.09 209.88C188.04 209.85 162.99 209.62 137.95 209.2C134.87 209.15 131.8 209.09 128.72 209.04L129.97 210.29V209.78C129.97 209.09 129.4 208.56 128.72 208.53C119.78 208.2 110.84 207.8 101.89 207.63C93.4497 207.47 85.0297 207.84 76.5897 207.94C68.1497 208.04 60.2697 207.75 52.4297 205.49C48.7997 204.44 44.8097 203.08 41.9297 200.52C39.0497 197.96 37.9797 193.92 37.5897 190.08C37.1197 185.5 37.9497 181.39 40.5297 177.56C42.7997 174.18 45.8697 171.39 48.8797 168.68C49.4097 168.2 49.2997 167.4 48.8797 166.91L48.5497 166.53L48.2997 168.49C53.9497 164.77 61.1197 163.7 67.6797 162.63C74.8997 161.46 82.1997 160.84 89.4997 160.56C96.7997 160.28 103.95 160.38 111.18 160.42C118.41 160.46 125.93 160.47 133.3 160.72C141.71 161 150.05 161.92 158.44 162.49C160.05 162.6 160.04 160.1 158.44 159.99L158.45 159.98Z" fill="#3A3A3A"/>
<path d="M54.52 189.69C62.48 187.83 70.4701 185.94 78.6001 184.96C86.7301 183.98 94.97 184.09 103.15 184.59C111.33 185.09 119.58 185.9 127.81 186.48C136.04 187.06 144.31 187.54 152.56 187.9C169.15 188.63 185.76 188.91 202.36 188.73C210.62 188.64 218.88 188.45 227.13 188.14C235.38 187.83 243.38 187.42 251.43 186.26C259.48 185.1 267.52 183.33 275.53 181.75C279.52 180.96 283.51 180.18 287.49 179.38C290.27 178.82 293.12 178.07 295.42 176.33C296.62 175.42 297.57 174.31 298.31 173C299.17 171.46 296.81 170.08 295.94 171.62C294.44 174.3 291.78 175.52 288.92 176.26C285.31 177.19 281.59 177.77 277.93 178.49C270.07 180.05 262.23 181.73 254.33 183.06C246.43 184.39 238.04 184.97 229.83 185.31C221.62 185.65 213.66 185.85 205.58 185.97C189.23 186.2 172.87 185.99 156.52 185.34C140.17 184.69 123.89 183.38 107.58 182.17C98.58 181.5 89.53 181.11 80.53 182.02C71.49 182.93 62.6201 184.99 53.7901 187.06C52.0701 187.46 52.8 190.11 54.52 189.7V189.69Z" fill="#3A3A3A"/>
<path d="M20.2399 187.18C21.3599 195.37 23.7699 204.01 30.4499 209.45C31.8099 210.55 33.7599 208.63 32.3899 207.51C26.0399 202.35 23.9499 194.22 22.8799 186.45C22.7799 185.71 21.8399 185.32 21.1899 185.49C20.3999 185.7 20.1299 186.45 20.2299 187.18H20.2399Z" fill="#3A3A3A"/>
</svg>
