<svg width="3365" height="3235" viewBox="0 0 3365 3235" fill="none" xmlns="http://www.w3.org/2000/svg">
<path d="M3351.84 2965.39L13.165 3039.36V3221.84H3351.84V2965.39Z" fill="#BAA446" stroke="#1E1E1E" stroke-width="5.53" stroke-miterlimit="10"/>
<path d="M492.925 1739.55C412.361 1766.02 323.974 1798.88 285.099 1874.28C268.69 1906.09 263.205 1942.24 258.53 1977.68C251.566 2030.61 245.89 2084.13 250.135 2137.35C256.145 2212.71 281.951 2285.68 285.099 2361.22C286.816 2402.81 281.617 2444.3 280.711 2485.89C279.518 2541.21 286.005 2596.73 299.886 2650.29L305.228 2644.66C294.734 2672.89 287.722 2702.51 286.101 2732.6C283.811 2775.81 292.826 2818.79 301.794 2861.09C307.184 2886.7 312.717 2912.6 324.546 2935.97C340.383 2967.35 367.524 2992.91 399.816 3006.84L398.957 3007.36C440.36 3041.42 499.889 3045.71 551.786 3032.26C580.644 3024.77 608.31 3012.37 637.74 3007.65C667.648 3002.83 698.223 3006.07 728.322 3009.32C759.04 3012.66 789.806 3015.95 820.524 3019.29L787.946 3015.42C845.996 3015.23 904.046 3015.09 962.096 3014.9C992.481 3014.8 1022.87 3014.71 1053.2 3014.61C1168.49 3014.28 1283.83 3013.9 1398.93 3007.27L1409.71 3002.64C1417.05 2981.66 1424.4 2960.62 1431.7 2939.64C1435.94 2927.43 1440.52 2914.7 1449.97 2905.87C1457.26 2899.05 1466.76 2895.19 1476.06 2891.52C1633.27 2829.61 1797.12 2784.54 1963.88 2757.31L1971.37 2745.62C1972.46 2727.55 1985.3 2712.72 1996.36 2698.36C2040.34 2641.13 2064 2568.59 2062.23 2496.43C2074.87 2543.41 2122.14 2571.4 2166.55 2591.29C2210.96 2611.18 2259.9 2630.59 2284.99 2672.27L2281.99 2669.98C2357.02 2637.7 2434.15 2604.88 2515.71 2601.59C2552.25 2600.11 2588.79 2604.64 2624.99 2609.99C2698.11 2620.77 2772 2635.36 2837.16 2670.22C2905.65 2706.85 2962.13 2765.56 2996.09 2835.38C3033.01 2692.54 2966.9 2529.24 2840.97 2452.31L2839.5 2447.21C2806.11 2420.65 2757.26 2452.93 2714.95 2447.21C2687.67 2443.54 2664.96 2423.7 2649.27 2401.09C2633.58 2378.49 2623.18 2352.64 2609.25 2328.84C2559.64 2244.09 2470.16 2192.48 2388.45 2138.02C2373.33 2127.96 2358.16 2117.46 2346.38 2103.63C2337.27 2092.9 2330.45 2080.45 2323.72 2068.1C2303.4 2030.9 2283.08 1993.7 2262.76 1956.5C2254.56 1941.48 2246.26 1926.36 2234.91 1913.58C2215.73 1891.97 2189.07 1878.62 2162.4 1867.46C2128.92 1853.44 2094.34 1842.18 2059.04 1833.74" fill="white"/>
<path d="M489.968 1728.96C436.02 1746.7 380.546 1766.02 334.85 1800.64C312.765 1817.38 293.303 1837.65 279.423 1861.78C262.919 1890.45 255.526 1922.97 250.66 1955.36C239.642 2028.61 232.725 2102.44 243.791 2176.08C254.858 2249.72 276.704 2322.73 274.081 2399.14C272.602 2441.96 268.261 2484.51 270.265 2527.38C272.268 2570.26 278.803 2612.04 289.297 2653.2C291.3 2661.11 301.985 2663.97 307.661 2658.06L313.003 2652.43L294.639 2641.75C282.237 2675.9 274.558 2711.71 274.796 2748.15C275.035 2786.4 282.81 2824.22 290.68 2861.47C297.739 2894.9 305.228 2929.1 324.69 2957.86C342.052 2983.47 366.093 3003.69 394.283 3016.33V2997.35L393.424 2997.87C387.987 3001.26 385.459 3010.56 391.183 3015.14C444.463 3057.44 514.008 3056.44 576.161 3036.5C594.286 3030.68 612.221 3024.1 630.872 3020.05C651.526 3015.61 672.657 3015.57 693.597 3017C735.954 3019.86 778.263 3025.68 820.477 3030.26C834.548 3031.78 834.31 3009.94 820.477 3008.32C809.601 3007.03 798.726 3005.74 787.898 3004.45V3026.39C901.566 3026.06 1015.19 3025.96 1128.85 3025.3C1184.71 3024.96 1240.52 3024.34 1296.37 3022.67C1324.28 3021.81 1352.18 3020.72 1380.04 3019.29C1392.73 3018.62 1413.62 3019.38 1420.3 3005.6C1431.98 2981.32 1436.23 2953.57 1447.49 2929C1458.74 2904.44 1487.27 2898.77 1510.35 2890.04C1561.15 2870.87 1612.62 2853.46 1664.66 2837.77C1715.84 2822.36 1767.55 2808.67 1819.64 2796.75C1846.54 2790.6 1873.54 2784.92 1900.63 2779.68C1912.46 2777.39 1924.34 2775.19 1936.21 2773.1C1946.42 2771.28 1965.12 2771.81 1972.51 2763.94C1975.61 2760.6 1979 2755.31 1980.86 2751.16C1983.29 2745.72 1983.15 2739.62 1985.49 2734.04C1988.01 2728.03 1991.73 2722.64 1995.5 2717.34C2011.05 2695.74 2026.7 2675.18 2038.58 2651.15C2062.28 2603.07 2074.11 2549.99 2073.16 2496.43L2051.6 2499.34C2065.43 2546.7 2107.69 2575.5 2150.1 2595.77C2194.84 2617.14 2247.69 2633.5 2275.45 2677.81L2290.48 2662.78L2287.47 2660.49V2679.47C2337.17 2658.06 2387.31 2636.74 2440.01 2623.82C2494.1 2610.51 2547.77 2610.61 2602.76 2617.9C2703.98 2631.35 2809.35 2652.15 2890.15 2718.82C2930.7 2752.3 2963.32 2793.89 2986.6 2840.96C2990.8 2849.5 3004.44 2847.16 3006.68 2838.34C3044.17 2689.49 2976.97 2523.71 2846.56 2442.87L2851.61 2449.45C2843.74 2421.98 2803.86 2424.41 2781.78 2428.13C2748.82 2433.62 2716.86 2445.02 2686.76 2424.22C2655.85 2402.86 2641.93 2365.75 2624.75 2333.94C2608.77 2304.32 2588.02 2277.66 2564.18 2254.01C2516.52 2206.74 2458.76 2171.36 2403.09 2134.59C2388.26 2124.81 2372.95 2115.22 2360.36 2102.58C2346.38 2088.51 2337.56 2070.53 2328.16 2053.32C2308.79 2017.83 2289.57 1982.3 2270.06 1946.91C2250.27 1911.05 2226.03 1885.53 2188.92 1867.41C2148.76 1847.76 2105.4 1833.74 2062.04 1823.2C2048.31 1819.86 2042.44 1841.04 2056.22 1844.37C2094.91 1853.77 2133.26 1865.98 2169.56 1882.48C2205.86 1898.98 2228.99 1918.68 2247.74 1951.92C2267.01 1986.07 2285.37 2020.74 2304.17 2055.13C2321.72 2087.23 2337.84 2115.41 2367.99 2137.26C2421.65 2176.13 2479.99 2207.84 2529.88 2251.96C2553.78 2273.08 2575.72 2296.55 2593.08 2323.4C2612.4 2353.26 2624.32 2387.55 2646.55 2415.59C2667.44 2441.96 2696.68 2460.47 2731.22 2458.8C2763.8 2457.23 2804.68 2435.24 2834.06 2456.75L2829 2450.17C2833.34 2465.19 2851.47 2471.77 2863.3 2480.98C2878.32 2492.61 2892.25 2505.73 2904.99 2519.8C2929.7 2547.08 2949.78 2578.51 2964.8 2612.13C2995.57 2680.86 3003.96 2759.31 2985.55 2832.52L3005.63 2829.9C2961.42 2740.28 2884.14 2672.56 2790.94 2637.51C2738.56 2617.81 2683.19 2607.6 2628 2599.45C2572.81 2591.29 2513.71 2586.66 2456.14 2597.82C2393.6 2609.99 2334.74 2635.45 2276.5 2660.49C2268.01 2664.17 2270.82 2675.13 2276.5 2679.47L2279.51 2681.76C2288.47 2688.58 2300.02 2675.52 2294.53 2666.74C2268.3 2624.87 2223.12 2604.5 2179.58 2585.14C2136.93 2566.16 2087.04 2541.98 2072.87 2493.52C2069.44 2481.84 2051.07 2483.79 2051.31 2496.43C2052.22 2549.18 2040.25 2601.59 2015.54 2648.28C2003.8 2670.46 1988.25 2689.16 1974.18 2709.76C1968.12 2718.63 1963.5 2728.07 1961.3 2738.61C1960.54 2742.24 1961.68 2740.43 1958.92 2744.86C1957.49 2747.2 1955.96 2749.49 1954.48 2751.78L1961.06 2746.72C1874.3 2760.98 1788.3 2779.87 1703.58 2803.57C1661.23 2815.4 1619.25 2828.42 1577.61 2842.58C1535.97 2856.75 1496.33 2868.62 1458.74 2887.03C1440.9 2895.76 1431.12 2910.4 1424.16 2928.53C1415.14 2951.94 1407.51 2975.98 1399.21 2999.68L1404.27 2993.1C1388.24 2999.97 1368.69 2997.87 1350.46 2998.68C1323.47 2999.87 1296.47 3000.73 1269.47 3001.4C1216.33 3002.69 1163.2 3003.17 1110.06 3003.4C1002.69 3003.88 895.365 3004.07 787.994 3004.41C773.493 3004.41 774.304 3024.77 787.994 3026.34C798.869 3027.63 809.745 3028.92 820.572 3030.21V3008.27C780.982 3003.98 741.391 2998.97 701.705 2995.63C664.309 2992.48 629.727 2996.06 594.048 3007.55C562.042 3017.85 530.989 3028.39 496.932 3028.35C464.735 3028.35 432.299 3019.86 406.78 2999.59L404.538 3016.85L405.397 3016.33C411.789 3012.37 413.315 3000.92 405.397 2997.35C378.638 2985.38 355.694 2966.54 340.24 2941.45C323.306 2913.98 317.344 2881.64 310.809 2850.55C303.702 2816.78 297.024 2782.78 296.785 2748.15C296.547 2713.53 304.083 2680 315.865 2647.62C319.681 2637.12 304.799 2629.3 297.501 2636.93L292.159 2642.56L310.523 2647.43C292.302 2575.93 290.06 2505.01 294.448 2431.71C296.595 2396.13 297.453 2360.84 293.113 2325.36C288.772 2289.87 281.188 2255.68 274.224 2221C267.26 2186.33 261.202 2151.52 260.009 2116.03C258.817 2080.55 261.583 2044.83 265.638 2009.49C273.031 1945.15 280.806 1879.48 330.461 1832.88C375.966 1790.2 437.785 1769.26 495.883 1750.13C509.238 1745.75 503.515 1724.52 490.063 1728.96H489.968Z" fill="#181818"/>
<path d="M1250.68 2281.53L1198.21 2341.76C1188.24 2353.16 1177.65 2366.75 1180.04 2381.68C1181.18 2388.79 1185.19 2395.08 1189.24 2401.04C1246.86 2485.41 1334.2 2548.89 1378.42 2640.99C1412.38 2711.72 1418.82 2795.56 1465.42 2858.7C1468.24 2862.57 1471.43 2866.43 1475.82 2868.29C1481.4 2870.67 1487.74 2869.34 1493.66 2867.96C1514.27 2863.19 1534.92 2858.37 1555.52 2853.6C1569.41 2850.36 1583.95 2846.78 1594.35 2837C1605.61 2826.42 1609.81 2810.49 1613.53 2795.51C1623.21 2756.21 1632.94 2716.72 1636.76 2676.42C1638.86 2654.34 1639.19 2632.02 1644.2 2610.42C1660.61 2539.4 1723.47 2488.89 1753.43 2422.46C1789.97 2341.43 1772.6 2243.42 1725.81 2167.83C1682.69 2289.78 1639.57 2411.73 1596.5 2533.68C1592.3 2545.6 1587.58 2558.24 1577.61 2566.01C1565.02 2575.79 1547.56 2575.41 1531.68 2574.55C1507.44 2573.26 1483.21 2571.93 1459.03 2570.64C1449.73 2570.12 1440.19 2569.59 1431.55 2566.01C1416.77 2559.91 1406.94 2545.93 1398.5 2532.34C1346.94 2449.31 1314.31 2351.4 1240.71 2287.06" fill="#211E1B"/>
<path d="M1242.9 2273.75C1223.35 2296.17 1202.64 2318.01 1184.23 2341.38C1175.98 2351.87 1168.4 2364.08 1168.68 2377.96C1168.97 2391.84 1176.65 2402.33 1184.09 2412.87C1213.23 2454.03 1248.48 2490.09 1282.3 2527.29C1316.12 2564.49 1347.41 2601.83 1368.83 2646.52C1390.25 2691.21 1400.55 2742.43 1417.86 2789.79C1426.55 2813.54 1436.99 2836.96 1451.3 2857.89C1458.84 2868.96 1466.9 2879.83 1481.45 2880.55C1488.36 2880.88 1495.47 2878.78 1502.15 2877.21C1509.78 2875.44 1517.41 2873.68 1525.04 2871.87C1539.16 2868.58 1553.38 2865.62 1567.35 2861.95C1579.66 2858.7 1591.68 2853.98 1601.22 2845.35C1620.73 2827.75 1624.35 2796.94 1630.13 2772.76C1637 2743.96 1643.1 2714.96 1646.54 2685.48C1649.97 2656.01 1649.25 2628.44 1657.84 2601.07C1671.96 2556.05 1704.44 2519.47 1731.06 2481.41C1745.03 2461.47 1757.63 2440.77 1766.83 2418.17C1776.04 2395.56 1781.62 2369.52 1783.29 2344.19C1786.68 2292.88 1774.56 2241.13 1752.76 2194.82C1747.47 2183.61 1741.55 2172.74 1735.07 2162.2C1729.91 2153.76 1718.08 2156 1714.98 2164.82C1692.9 2227.3 1670.81 2289.78 1648.73 2352.25C1637.76 2383.3 1626.79 2414.35 1615.82 2445.4C1604.85 2476.45 1594.83 2507.16 1583.19 2537.54C1579.09 2548.22 1573.27 2558.29 1561.68 2561.77C1549.37 2565.44 1535.87 2563.72 1523.23 2563.06C1507.21 2562.2 1491.18 2561.34 1475.2 2560.48C1461.32 2559.72 1444.43 2561.2 1431.94 2554.04C1421.2 2547.89 1414.14 2536.97 1407.75 2526.71C1400.74 2515.41 1394.11 2503.92 1387.67 2492.28C1375.08 2469.44 1363.3 2446.11 1351.13 2423.03C1323.56 2370.81 1293.08 2318.68 1248.25 2279.24C1237.66 2269.94 1222.06 2285.39 1232.7 2294.78C1273.76 2330.94 1302.15 2377.91 1327.66 2425.75C1340.54 2449.88 1352.85 2474.35 1365.92 2498.39C1372.45 2510.36 1379.18 2522.18 1386.24 2533.82C1393.3 2545.46 1400.74 2557.29 1411.14 2566.11C1423.73 2576.79 1438.23 2580.27 1454.4 2581.37C1470.57 2582.47 1486.98 2583.14 1503.25 2583.99C1530.58 2585.47 1565.88 2592.39 1587.82 2571.4C1598.17 2561.48 1602.94 2547.51 1607.61 2534.35C1613.43 2517.89 1619.25 2501.44 1625.07 2484.98C1636.42 2452.79 1647.82 2420.65 1659.18 2388.45C1684.84 2315.87 1710.5 2243.32 1736.11 2170.74L1716.03 2173.36C1741.27 2214.38 1757.91 2261.3 1761.2 2309.52C1764.4 2356.59 1754.24 2402.09 1730.1 2442.73C1705.97 2483.36 1675.15 2516.13 1653.31 2556.48C1642 2577.36 1633.8 2599.68 1630.41 2623.25C1626.31 2651.62 1625.98 2680.33 1621.16 2708.66C1616.34 2736.99 1609.52 2764.8 1602.65 2792.55C1600.03 2803.05 1597.5 2813.78 1591.59 2822.98C1585.67 2832.19 1575.42 2836.81 1565.06 2839.77C1552.23 2843.49 1539.02 2846.07 1526 2849.12C1512.98 2852.17 1498.95 2856.75 1485.36 2858.47C1480.02 2859.13 1477.87 2857.27 1474.63 2853.17C1470.67 2848.12 1467.19 2842.58 1463.85 2837.1C1457.69 2826.99 1452.3 2816.4 1447.49 2805.53C1427.98 2761.41 1418.44 2713.62 1401.6 2668.55C1384.52 2622.86 1358.53 2582.94 1327.38 2545.65C1296.23 2508.35 1262.65 2475.35 1231.84 2438.86C1224.2 2429.8 1216.72 2420.6 1209.61 2411.11C1203.22 2402.52 1194.58 2392.94 1191.29 2382.59C1188 2372.24 1195.68 2361.55 1202.02 2353.92C1210.99 2343.1 1220.44 2332.7 1229.69 2322.11L1258.26 2289.35C1267.52 2278.71 1252.06 2263.12 1242.71 2273.8L1242.9 2273.75Z" fill="#181818"/>
<path d="M2428.42 2610.65C2515.33 2603.07 2603.77 2604.79 2688.67 2624.96C2773.58 2645.14 2855 2684.53 2917.48 2745.43C2924.45 2752.21 2931.17 2759.26 2938.66 2765.51C2944.77 2770.62 2951.4 2775.19 2956.65 2781.2C2962.56 2787.93 2966.47 2796.13 2970.34 2804.19C2984.84 2834.48 2999.62 2866.1 2999.67 2899.67C2999.72 2933.25 2980.45 2969.45 2947.82 2977.41L2953.45 2976.98C2706.7 2985.47 2459.9 2991.48 2213.01 2994.96C2162.64 2995.68 2112.27 2996.3 2061.85 2996.87C1993.36 2997.68 1924.86 2998.54 1856.41 2999.35C1736.31 3000.78 1616.15 3002.26 1496.04 3003.69C1469.67 3004.02 1443.29 3004.31 1416.91 3003.31C1408.85 2966.78 1427.83 2928.38 1455.93 2903.68C1484.02 2878.97 1519.99 2865.38 1555.43 2853.36C1777.28 2778.34 2011.86 2746.05 2233.29 2669.75C2266.44 2658.3 2299.35 2645.9 2333.07 2636.22C2394.94 2618.48 2459.48 2610.03 2523.82 2611.37" fill="#7B9253"/>
<path d="M2428.42 2621.62C2537.22 2612.28 2648.98 2617.24 2752.21 2655.63C2797.66 2672.56 2841.36 2696.02 2879.32 2726.36C2898.93 2742 2915.48 2760.89 2934.99 2776.58C2945.29 2784.88 2952.59 2792.89 2958.51 2804.81C2964.42 2816.73 2970.24 2828.99 2975.25 2841.39C2985.41 2866.48 2993.14 2894.52 2985.74 2921.37C2980.07 2942.02 2966.38 2961.05 2944.91 2966.78C2933.27 2969.88 2935.23 2989.33 2947.82 2988.33L2953.45 2987.9C2967.38 2986.85 2967.71 2965.44 2953.45 2965.97C2752.92 2972.88 2552.3 2978.13 2351.67 2981.7C2151.81 2985.28 1951.95 2987.19 1752.09 2989.57C1696.24 2990.24 1640.38 2990.91 1584.57 2991.58C1528.77 2992.24 1472.77 2994.29 1416.96 2992.29L1427.55 3000.35C1420.87 2967.54 1438.18 2934.73 1461.89 2913.03C1488.17 2888.99 1522.66 2876.06 1555.86 2864.76C1632.46 2838.67 1710.79 2817.78 1789.35 2798.47C1945.85 2759.98 2103.83 2727.02 2256.09 2673.37C2298.73 2658.35 2341.37 2643.61 2385.78 2634.64C2430.19 2625.68 2477.51 2621.53 2523.82 2622.34C2537.94 2622.58 2537.94 2600.64 2523.82 2600.4C2481.56 2599.64 2439.39 2602.93 2397.75 2610.13C2356.06 2617.38 2315.71 2629.3 2275.78 2643.23C2197.18 2670.6 2118.19 2695.21 2037.53 2715.91C1875.68 2757.45 1711.02 2789.12 1552.52 2842.77C1513.41 2856.03 1472.72 2871.34 1442.76 2900.91C1415.05 2928.29 1398.35 2967.21 1406.32 3006.22C1407.32 3011.04 1412.33 3014.14 1416.91 3014.28C1466.42 3016.04 1516.08 3014.42 1565.59 3013.8C1615.1 3013.18 1666.76 3012.56 1717.32 3011.99C1817.39 3010.8 1917.51 3009.6 2017.59 3008.36C2217.21 3005.98 2416.78 3003.02 2616.31 2997.97C2728.69 2995.15 2841.07 2991.77 2953.4 2987.9V2965.97L2947.77 2966.39L2950.68 2987.95C2998.67 2975.22 3015.74 2921.09 3008.54 2876.78C3003.92 2848.4 2991.04 2821.84 2978.59 2796.18C2972.58 2783.73 2965.37 2773.19 2954.64 2764.37C2943.91 2755.54 2933.56 2745.67 2923.3 2735.8C2845.36 2660.83 2740.76 2618.9 2634.82 2603.6C2566.42 2593.72 2497.16 2593.77 2428.38 2599.69C2414.4 2600.88 2414.26 2622.86 2428.38 2621.62H2428.42Z" fill="#1E1E1E"/>
<path d="M2625.04 1014.52C2616.69 1005.17 2602.86 1003.55 2590.36 1002.88C2543.9 1000.55 2497.16 1003.5 2451.32 1011.61C2420.27 1017.1 2389.69 1024.97 2358.64 1030.5C2269.06 1046.52 2177.1 1043.23 2086.9 1055.25C1970.27 1070.8 1855.46 1111.96 1738.26 1102.13C1707.88 1099.6 1677.3 1093.64 1647.11 1097.89L1647.39 1096.74C1492.47 1097.12 1337.49 1097.46 1182.56 1097.84C1154.61 1097.89 1126.33 1097.94 1099.09 1091.4C1078.67 1086.49 1059.21 1077.95 1038.7 1073.42C1019.43 1069.13 999.589 1068.46 979.841 1068.08C882.773 1066.31 783.51 1072.66 693.549 1109.19C663.594 1121.35 634.402 1137.23 612.651 1161.13C590.9 1185.02 577.497 1218.12 583.03 1249.93C589.422 1286.61 618.518 1314.6 646.852 1338.74C734.619 1413.61 830.59 1478.9 932.428 1533.13L926.37 1535.75C931.951 1544.58 941.348 1550.16 950.363 1555.4C1021.29 1596.8 1094.84 1639.06 1176.41 1648.69C1248.91 1657.28 1322.7 1639.25 1395.16 1648.36C1463.42 1656.94 1526.28 1689.04 1592.68 1706.92C1686.7 1732.25 1785.77 1728.77 1883.08 1725.09C1931.92 1723.23 1981.24 1721.33 2028.42 1708.64C2079.5 1694.91 2126.34 1669.01 2172.61 1643.35C2263.19 1593.13 2353.73 1542.86 2444.31 1492.64L2444.93 1487.06C2460.05 1465.88 2486.04 1456.06 2508.99 1443.71C2558.55 1417.1 2597.99 1375.41 2636.39 1334.35C2643.07 1327.24 2649.8 1319.94 2653.95 1311.17C2659 1300.44 2659.86 1288.18 2659.19 1276.31C2657.95 1254.18 2651.7 1232.33 2641.07 1212.87C2638.4 1208.01 2635.39 1203.05 2634.91 1197.47C2634.2 1188.79 2639.83 1181.11 2644.45 1173.77C2662.39 1145.25 2668.3 1109.48 2660.53 1076.71C2652.71 1043.95 2631.29 1014.66 2602.43 997.303" fill="#A8302D"/>
<path d="M2632.77 1006.75C2613.5 987.383 2579.39 990.96 2554.44 991.151C2521.53 991.437 2488.72 994.346 2456.23 999.688C2423.75 1005.03 2391.89 1013.23 2359.55 1019.19C2327.21 1025.16 2292.72 1028.64 2259.04 1031.07C2192.79 1035.84 2126.34 1037.56 2060.66 1048.1C1994.98 1058.64 1932.25 1075.04 1867.34 1085.01C1831.13 1090.54 1794.4 1093.74 1757.72 1092.35C1721.04 1090.97 1684.03 1082.24 1647.06 1086.97L1657.65 1100.84L1657.94 1099.7C1659.75 1092.83 1654.55 1085.77 1647.35 1085.82C1529.77 1086.11 1412.19 1086.35 1294.56 1086.63C1265.51 1086.68 1236.46 1086.77 1207.41 1086.82C1178.37 1086.87 1148.94 1088.21 1120.12 1084.25C1092.98 1080.48 1068.23 1068.7 1041.61 1062.83C1015 1056.97 987.807 1057.06 960.904 1056.87C857.874 1056.2 745.351 1064.84 653.482 1116.01C612.603 1138.76 577.449 1175.34 571.63 1223.51C565.81 1271.68 598.437 1310.98 632.876 1341.12C722.36 1419.38 822.099 1486.68 926.942 1542.62V1523.64L920.884 1526.26C915.733 1528.51 913.825 1536.85 916.925 1541.29C926.417 1554.83 940.393 1562.32 954.417 1570.43C970.396 1579.73 986.471 1588.93 1002.74 1597.76C1035.36 1615.45 1068.99 1631.62 1104.24 1643.4C1139.49 1655.18 1176.65 1661.52 1214.14 1662C1254.06 1662.57 1293.8 1657.94 1333.67 1656.89C1373.69 1655.85 1412.19 1660.38 1450.68 1671.49C1486.79 1681.93 1521.71 1696.05 1557.43 1707.78C1632.08 1732.3 1709.88 1739.07 1788.11 1738.64C1828.36 1738.4 1868.67 1736.87 1908.88 1735.06C1948.04 1733.3 1987.49 1730.25 2025.6 1720.71C2101.06 1701.82 2168.8 1657.99 2236.15 1620.65C2272.35 1600.57 2308.6 1580.44 2344.81 1560.36C2362.93 1550.3 2381.01 1540.29 2399.14 1530.22L2426.32 1515.15C2434.05 1510.86 2445.98 1506.81 2452.08 1500.37C2454.51 1497.84 2454.85 1495.31 2455.37 1492.02C2455.47 1491.3 2455.37 1490.49 2455.61 1489.83C2456.23 1487.87 2456.76 1488.25 2456.18 1488.78C2454.37 1490.54 2458.52 1487.73 2458.57 1487.63C2460.1 1486.49 2461.53 1484.63 2462.96 1483.34C2466.06 1480.48 2469.44 1478 2472.93 1475.66C2486.09 1466.93 2500.64 1460.64 2514.47 1453.2C2546.34 1436.03 2574.43 1412.56 2600.28 1387.43C2613.21 1374.84 2625.61 1361.82 2637.97 1348.66C2649.22 1336.69 2660.96 1324.95 2666.49 1309.12C2678.51 1274.68 2664.39 1235.05 2648.94 1204.39C2644.36 1195.32 2647.22 1190.17 2652.23 1182.07C2657.24 1173.96 2661.24 1166.56 2664.68 1158.12C2671.17 1142.19 2674.65 1124.98 2674.89 1107.76C2675.41 1075.19 2663.82 1043.61 2643.31 1018.43C2633.39 1006.22 2621.32 996.063 2607.96 987.812C2595.9 980.372 2584.88 999.354 2596.9 1006.79C2630.57 1027.64 2652.51 1064.45 2652.94 1104.28C2653.18 1125.64 2647.65 1146.82 2636.82 1165.23C2632.15 1173.19 2626.47 1180.54 2624.61 1189.79C2622.46 1200.47 2626.66 1209.2 2631.57 1218.41C2642.16 1238.34 2648.56 1260.76 2648.36 1283.41C2648.17 1306.07 2634.91 1319.8 2619.94 1335.73C2590.36 1367.21 2559.79 1398.69 2523.34 1422.34C2504.89 1434.36 2484.42 1442.61 2465.72 1454.2C2457.14 1459.54 2448.74 1465.74 2441.92 1473.28C2436.29 1479.52 2434.1 1484.53 2433.24 1492.64L2438.68 1483.15C2342.61 1536.42 2246.69 1590.08 2150.43 1643.02C2105.83 1667.53 2060.09 1690.8 2010.05 1701.82C1958.15 1713.22 1904.3 1713.51 1851.4 1715.32C1798.51 1717.13 1745.89 1717.99 1693.33 1713.27C1641.81 1708.69 1592.4 1697 1543.65 1679.93C1497.09 1663.67 1450.87 1645.21 1401.79 1638.25C1349.27 1630.81 1296.56 1637.63 1243.95 1639.58C1214.47 1640.68 1184.85 1640.06 1155.8 1634.34C1128.9 1629.09 1102.71 1620.5 1077.48 1609.92C1052.25 1599.33 1027.92 1586.64 1003.98 1573.43C992.1 1566.85 980.366 1560.13 968.632 1553.31C957.565 1546.87 943.398 1540.95 935.862 1530.17L931.903 1545.2L937.961 1542.57C945.593 1539.28 944.686 1527.22 937.961 1523.59C848.047 1475.61 762.618 1419.29 683.485 1355C649.618 1327.48 603.684 1295.76 594.239 1250.17C584.795 1204.58 620.474 1161.03 658.49 1138.38C701.086 1113.01 751.122 1099.18 799.537 1090.45C847.952 1081.72 901.852 1078.67 953.272 1078.76C979.316 1078.76 1006.22 1078.09 1031.88 1083.15C1057.54 1088.21 1080.58 1099.32 1105.91 1103.99C1132.57 1108.9 1159.67 1108.81 1186.67 1108.76C1213.66 1108.71 1242 1108.62 1269.66 1108.57C1395.54 1108.28 1521.42 1108 1647.35 1107.71L1636.76 1093.83L1636.47 1094.98C1634.85 1101.13 1639.76 1109.81 1647.06 1108.86C1680.21 1104.61 1712.98 1111.53 1746.04 1113.67C1777.14 1115.68 1808.38 1114.2 1839.34 1110.67C1902.87 1103.42 1965.02 1088.06 2027.8 1076.09C2090.57 1064.12 2154.72 1059.3 2219.02 1055.58C2283.32 1051.86 2347.86 1044.61 2411.78 1030.78C2447.12 1023.15 2482.51 1016.81 2518.62 1014.43C2537.18 1013.19 2555.83 1012.8 2574.43 1013.28C2587.98 1013.61 2606.87 1011.8 2617.26 1022.29C2627.66 1032.79 2642.78 1016.81 2632.81 1006.75H2632.77Z" fill="#221F20"/>
<path d="M2521.01 1074.37C2552.49 1061.16 2587.12 1044.76 2599.09 1012.8C2605.77 995.014 2604 975.031 2598.85 956.717C2588.65 920.47 2566.08 889.184 2543.9 858.756C2526.97 835.482 2510.04 812.208 2493.1 788.934C2473.26 761.653 2453.08 733.705 2443.35 701.417L2447.84 700.702C2456.99 682.245 2456.04 659.162 2445.4 641.515C2443.16 637.748 2440.44 634.171 2439.44 629.926C2437.87 623.297 2440.68 616.524 2442.97 610.134C2454.04 579.61 2455.33 545.605 2446.5 514.366C2444.74 508.119 2442.59 501.823 2443.07 495.385C2443.73 487.086 2448.65 479.837 2452.32 472.397C2461.81 453.081 2462.29 427.613 2447.74 411.779C2439.97 403.338 2429.04 398.568 2419.93 391.605C2405.24 380.397 2395.65 363.896 2385.35 348.586C2347.24 291.975 2293.58 245.904 2231.85 216.859C2152.67 179.563 2063.48 170.74 1976.14 165.208C1959.82 164.158 1942.89 163.062 1928.63 155.097L1930.35 145.177C1877.26 81.0777 1796.22 46.4528 1715.17 27.6141C1637.52 9.58625 1555.72 4.10159 1478.25 22.8925C1400.79 41.6835 1327.9 86.4193 1284.83 153.475C1280.73 159.866 1276.34 166.877 1269.19 169.309C1259.45 172.648 1249.39 166.209 1240.95 160.343C1180.66 118.612 1110.49 91.1886 1037.84 80.9346C987.854 73.9238 936.196 75.0684 887.686 89.0901L889.88 89.9009C775.926 90.2824 668.889 157.672 601.871 249.815C534.853 341.957 503.849 456.134 492.973 569.547C490.207 598.544 488.251 628.877 473.512 654.011C463.59 670.846 448.613 684.01 433.922 696.887C410.167 717.681 386.365 738.427 362.611 759.221C324.404 792.606 284.575 828.376 268.691 876.593C260.344 901.966 259.294 929.055 258.292 955.715L255.287 951.137C251.853 969.021 250.231 987.24 250.47 1005.46L256.623 1012.85C253.475 1025.39 242.313 1035.55 229.53 1037.51C224.092 1038.32 218.511 1037.79 213.073 1038.22C189.939 1040.13 171.432 1060.35 165.136 1082.67C158.839 1104.99 162.512 1128.89 168.331 1151.35C171.098 1162.03 174.342 1172.72 174.389 1183.73C174.389 1194.7 171.241 1205.39 168.951 1216.12C163.705 1241.16 163.705 1268.29 175.343 1291.04C188.222 1316.27 213.217 1332.68 237.114 1347.89L236.923 1348.99C248.562 1366.11 258.292 1384.47 266.02 1403.69C272.841 1420.67 277.992 1438.37 285.672 1454.96C301.365 1489.02 326.836 1517.49 352.594 1544.72C360.608 1553.21 369.241 1563.08 368.478 1574.72C368.001 1581.64 364.185 1587.84 361.705 1594.32C350.782 1622.6 365.95 1655.61 389.609 1674.59C413.22 1693.57 443.509 1701.73 472.844 1709.4L477.519 1708.21C520.162 1758 571.2 1800.64 627.819 1833.69C636.405 1838.7 645.182 1843.52 654.579 1846.9C669.366 1852.2 685.536 1853.87 699.464 1861.16C705.808 1864.5 711.532 1868.94 718.019 1871.89C732.329 1878.47 748.785 1877.52 764.526 1876.95C798.631 1875.76 832.784 1877.19 866.698 1881.29C873.519 1882.1 880.435 1883.05 887.304 1882.34C892.789 1881.77 898.132 1880.19 903.522 1878.9C928.087 1872.99 954.131 1873.32 978.505 1879.86L977.36 1884.67C897.75 2018.64 831.973 2160.58 781.316 2307.66H781.411C758.039 2375.77 701.801 2426.42 648.426 2474.78C595.05 2523.14 540.1 2575.98 520.973 2645.42L523.262 2645.09C510.24 2670.37 503.801 2698.41 497.457 2726.12C493.26 2744.62 489.014 2763.13 484.817 2781.63C475.563 2822.27 466.262 2863.38 467.073 2905.06C467.883 2947.03 479.236 2988.76 499.699 3025.44L500.033 3034.02C523.358 3061.02 556.843 3079.04 592.188 3083.72C627.581 3088.39 664.548 3079.62 694.074 3059.59C703.471 3053.2 712.247 3045.66 722.789 3041.46C743.872 3032.97 770.154 3038.46 788.089 3024.48L787.469 3021.24C794.576 3005.6 815.612 3002.07 826.821 2989.1C833.642 2981.18 836.313 2970.31 843.182 2962.44C849.097 2955.62 857.587 2951.61 864.647 2945.89C878.909 2934.3 886.302 2916.51 892.933 2899.39C943.828 2767.61 980.222 2630.78 1016.52 2494.24L1019.29 2489.13C1057.11 2335.9 1104.62 2185 1161.43 2037.72C1166.82 2023.75 1172.98 2008.91 1185.43 2000.52L1189.1 2003C1217.67 2024.13 1251.49 2036.77 1282.3 2054.41C1313.12 2072.06 1342.5 2097.1 1352.09 2131.29L1348.18 2126.57C1355.04 2173.79 1360.39 2221.39 1359.15 2269.03C1358.67 2287.25 1357.24 2305.52 1359.24 2323.64C1361.29 2342.14 1366.92 2360.08 1372.5 2377.87C1389.77 2432.76 1406.99 2487.61 1424.26 2542.5C1426.5 2549.61 1429.22 2557.38 1435.56 2561.24C1440.14 2564.06 1445.82 2564.3 1451.16 2564.34C1474.05 2564.54 1497 2562.53 1519.51 2558.34V2558.91C1524.38 2555.38 1527.62 2549.99 1530.58 2544.7C1566.3 2479.98 1575.99 2404.62 1587.05 2331.51C1598.12 2258.4 1612.24 2182.95 1654.83 2122.52C1673.39 2096.19 1696.71 2073.68 1719.9 2051.31L1714.41 2056.27C1739.45 2041.01 1757.39 2016.5 1771.7 1990.89C1786.01 1965.32 1797.31 1938.09 1812.86 1913.24C1814.82 1910.14 1816.92 1906.99 1820.02 1905.14C1822.69 1903.51 1825.84 1902.99 1828.89 1902.46C1881.88 1893.21 1933.64 1876.61 1982.1 1853.25L1981.62 1856.82C2020.35 1844.66 2058.8 1831.59 2096.86 1817.62C2139.08 1802.12 2181.05 1785.43 2219.55 1762.2C2255.66 1740.4 2288.09 1713.22 2320.43 1686.13C2346.33 1664.43 2372.23 1642.73 2398.13 1621.03C2419.07 1603.48 2440.06 1585.88 2459.38 1566.61C2482.32 1543.67 2502.88 1518.44 2522.3 1492.45C2544.76 1462.36 2566.42 1429.54 2570.85 1392.25C2523.34 1415.04 2474.64 1435.41 2425.08 1453.29C2205.91 1532.23 1971.61 1561.03 1738.79 1569.95C1574.32 1576.25 1409.47 1572.91 1245.38 1559.89L1242 1564.42C1227.88 1561.56 1224.11 1543.62 1216 1531.7C1206.46 1517.68 1189.38 1511.29 1173.36 1505.66C1125.56 1488.92 1077.72 1472.23 1029.93 1455.49C972.257 1435.31 913.443 1414.57 865.076 1377.22C853.771 1368.5 843.087 1358.91 831.162 1351.04C813.799 1339.64 794.195 1332.2 774.781 1324.9L630.968 1270.68L628.678 1258.04C631.015 1228.04 651.717 1202.05 676.664 1185.26C713.678 1160.36 759.994 1152.4 804.546 1154.16C849.097 1155.93 892.789 1166.66 936.339 1176.34C1237.99 1243.45 1550.42 1261.71 1857.84 1230.14L1860.13 1228.14C1925.24 1227.42 1990.02 1219.74 2054.7 1212.11C2084.56 1208.58 2114.47 1205.01 2143.66 1197.8C2199.47 1184.02 2251.46 1157.17 2307.46 1144.24C2338.13 1137.19 2369.75 1134.37 2399.95 1125.41C2419.12 1119.73 2437.44 1111.62 2455.75 1103.56C2481.85 1092.07 2507.94 1080.53 2534.03 1069.03" fill="#7B9253"/>
<path d="M2526.54 1083.87C2556.21 1071.32 2589.31 1055.97 2605.1 1026.01C2623.13 991.771 2611.78 951.423 2595.66 918.849C2576.53 880.218 2548.15 846.022 2522.92 811.349C2497.68 776.677 2467.49 740.812 2453.94 698.556L2446.26 712.053C2469.16 708.285 2466.96 668.223 2461.81 651.578C2459.86 645.331 2456.52 639.989 2453.75 634.123C2448.7 623.392 2452.13 617.955 2455.37 607.94C2460.33 592.439 2462.96 576.081 2463.29 559.818C2463.58 544.461 2461.67 528.96 2457.81 514.08C2455.23 504.16 2452.65 496.672 2457.19 486.848C2460.19 480.266 2463.96 474.161 2466.25 467.294C2474.64 442.255 2469.4 414.307 2448.22 397.519C2436.34 388.076 2423.32 381.781 2413.45 369.81C2402.38 356.456 2393.98 341.003 2383.54 327.125C2366.37 304.28 2346.95 283.2 2325.25 264.599C2276.83 223.059 2219.55 194.92 2157.97 178.848C2122.57 169.643 2086.32 164.111 2049.98 160.2C2030.85 158.149 2011.67 156.575 1992.5 155.24C1973.32 153.905 1952.05 154.525 1934.11 145.558L1939.17 157.958C1941.65 143.698 1940.22 139.311 1930.06 128.15C1917.42 114.272 1903.35 101.919 1888.32 90.7116C1858.8 68.5822 1825.6 51.9851 1791.16 38.9173C1714.17 9.77698 1627.69 -4.72161 1545.46 1.43075C1471.29 6.96311 1398.74 30.9049 1339.92 77.2623C1326.47 87.85 1313.88 99.4871 1302.48 112.269C1297.71 117.61 1293.18 123.143 1288.84 128.818C1282.83 136.64 1276.82 151.138 1268.8 156.718C1259.31 163.348 1245.14 149.851 1237.75 144.986C1229.02 139.215 1220.06 133.73 1210.94 128.58C1193.39 118.612 1175.22 109.884 1156.57 102.158C1071.76 67.056 974.022 53.6066 884.681 78.5499C873.662 81.65 874.855 96.1486 884.681 99.7255L886.875 100.536L889.785 78.9792C741.726 80.6961 616.229 183.665 551.453 311.386C516.394 380.588 496.408 456.372 486.105 533.014C480.858 571.979 483.815 618.67 461.301 652.723C450.855 668.509 435.639 680.814 421.52 693.119C403.68 708.714 385.841 724.262 368.049 739.858C336.949 766.995 304.752 793.846 280.997 828.042C254.143 866.72 248.848 909.882 247.131 955.858L267.594 950.326L264.589 945.747C259.867 938.546 246.32 938.45 244.507 948.371C241.55 964.586 239.594 980.945 239.356 997.399C239.165 1008.51 241.932 1012.61 248.705 1020.72L245.891 1010.04C238.497 1032.69 213.789 1024.3 196.188 1031.17C181.83 1036.79 170.192 1047.95 162.369 1061.12C142.431 1094.74 153.115 1132.42 160.986 1167.71C165.708 1188.93 158.267 1207.87 155.643 1228.8C153.354 1247.45 154.165 1266.86 160.509 1284.7C172.529 1318.47 202.484 1338.97 231.39 1357.43L226.334 1345.03C225.141 1353.04 228.719 1356.57 232.916 1363.25C238.879 1372.74 244.269 1382.57 249.087 1392.72C259.533 1414.76 265.781 1438.46 275.989 1460.59C285.386 1480.91 298.312 1499.27 312.431 1516.53C319.205 1524.88 326.36 1532.89 333.658 1540.81C340.956 1548.73 354.216 1558.74 356.696 1569.33C359.177 1579.92 349.923 1591.84 348.063 1602.29C346.536 1610.82 346.679 1619.46 348.301 1627.94C351.736 1646.26 361.705 1663.29 374.822 1676.35C389.037 1690.52 407.401 1699.87 425.956 1706.92C441.458 1712.84 463.638 1723.14 480.238 1718.89L469.553 1716.08C499.174 1750.37 532.421 1781.18 568.863 1808.18C587.275 1821.77 606.45 1834.55 626.436 1845.76C646.422 1856.97 669.127 1859.92 690.258 1869.22C700.466 1873.71 709.052 1881 719.736 1884.53C729.801 1887.82 740.581 1888.49 751.122 1888.44C776.689 1888.25 801.97 1887.3 827.537 1888.87C850.814 1890.3 875.093 1896.5 898.18 1891.59C924.701 1885.96 948.741 1883.96 975.405 1890.59L967.725 1877.09C963.909 1892.93 949.981 1909.43 941.968 1923.69C932.619 1940.24 923.508 1956.88 914.588 1973.67C895.413 2009.73 877.24 2046.26 860.02 2083.27C826.392 2155.52 796.58 2229.54 770.536 2304.9C768.199 2311.72 774.352 2318.77 781.125 2318.77H781.221L770.632 2304.9C721.072 2444.11 552.073 2497.72 510.193 2642.66C507.665 2651.43 515.821 2657.39 523.692 2656.15L525.981 2655.82L513.58 2639.7C490.016 2687.06 482.193 2742.14 470.746 2793.37C458.678 2847.45 450.187 2902.06 462.017 2957C464.688 2969.49 468.313 2981.8 472.844 2993.77C476.899 3004.55 484.912 3016.04 488.06 3026.39C489.396 3030.73 488.49 3036.17 491.304 3040.8C496.646 3049.67 507.474 3057.49 515.583 3063.64C553.313 3092.21 602.11 3102.51 648.187 3091.64C661.448 3088.49 674.422 3083.53 686.49 3077.09C698.558 3070.65 708.098 3061.88 719.641 3055.39C742.727 3042.42 771.204 3049.47 793.575 3034.07C797.916 3031.07 799.585 3026.77 798.631 3021.67L798.011 3018.43L796.914 3026.87C803.544 3014.8 818.522 3010.8 828.777 3002.35C840.559 2992.63 843.182 2977.08 854.105 2967.06C863.979 2958 875.284 2952.71 883.584 2941.74C893.171 2929.1 898.895 2914.27 904.524 2899.62C932.38 2827.32 955.848 2753.4 977.361 2679C1018.91 2535.3 1053.54 2390.03 1099.14 2247.47C1112.21 2206.65 1125.94 2166.01 1140.4 2125.67C1147.65 2105.49 1155.04 2085.37 1162.58 2065.29C1169.3 2047.45 1174.93 2022.22 1190.86 2010.06H1179.8C1208.61 2029.33 1239.33 2043.49 1269.71 2060.04C1300.09 2076.59 1330.67 2099.39 1341.45 2134.25L1359.81 2123.57L1355.9 2118.85C1348.03 2109.36 1336.2 2120.09 1337.54 2129.53C1344.74 2179.51 1349.51 2229.49 1347.75 2280.05C1346.98 2302.32 1346.98 2324.02 1351.9 2345.86C1357.14 2369.23 1365.35 2392.03 1372.55 2414.88C1379.75 2437.72 1386.81 2460.28 1393.97 2482.98C1401.12 2505.68 1406.99 2531.48 1416.72 2554C1423.35 2569.35 1435.08 2574.79 1451.11 2575.36C1474.91 2576.17 1499.05 2573.12 1522.37 2568.97L1508.49 2558.38V2558.95C1507.68 2569.16 1520.61 2572.45 1527.19 2566.73C1542.79 2553.14 1550.8 2529.91 1558.24 2511.17C1567.21 2488.61 1573.84 2465.24 1579.18 2441.58C1589.44 2396.08 1594.64 2349.73 1602.46 2303.8C1610.28 2257.87 1619.78 2213.9 1638.86 2172.5C1659.56 2127.53 1692.42 2093.09 1727.62 2059.13C1737.88 2049.26 1722.52 2034.19 1712.07 2043.59L1706.59 2048.55C1697.38 2056.85 1709.36 2072.54 1719.9 2065.81C1770.89 2033.24 1788.82 1975.62 1818.06 1925.93C1821.45 1920.16 1823.36 1915.96 1829.51 1913.58C1836.76 1910.76 1846.06 1910.48 1853.65 1908.86C1869.05 1905.56 1884.36 1901.61 1899.48 1897.07C1929.73 1887.97 1959.16 1876.33 1987.68 1862.78L1971.18 1853.29L1970.7 1856.87C1969.75 1863.93 1978.48 1869.41 1984.58 1867.46C2082.7 1836.55 2185.06 1804.84 2268.25 1742.36C2309.41 1711.45 2348.19 1677.26 2387.64 1644.16C2428.76 1609.68 2469.35 1575.58 2503.6 1534.04C2536.89 1493.69 2573.91 1448.57 2581.44 1395.16C2582.78 1385.52 2574.53 1378.37 2565.32 1382.76C2240.2 1538 1871.53 1566.76 1516.03 1561.56C1463.85 1560.79 1411.66 1559.08 1359.58 1556.36C1333.53 1555.02 1307.49 1553.4 1281.44 1551.59C1270.52 1550.83 1255.93 1546.87 1245.43 1548.92C1238.75 1550.21 1236.42 1553.69 1232.55 1558.89L1244.95 1553.83C1237.32 1551.49 1234.41 1542.34 1231.03 1535.9C1227.07 1528.31 1222.68 1521.26 1216.19 1515.53C1201.83 1502.75 1182.61 1497.31 1164.82 1491.11C1117.55 1474.56 1070.23 1458.11 1022.96 1441.51C980.223 1426.49 937.389 1410.75 898.609 1387C879.672 1375.41 863.264 1360.96 845.472 1347.8C827.68 1334.63 809.459 1326.67 789.854 1318.99C738.101 1298.82 685.87 1279.74 633.877 1260.14L641.557 1267.82C639.267 1255.23 640.937 1245.59 646.756 1233.81C655.39 1216.36 670.129 1202.24 686.49 1191.99C720.023 1170.95 760.328 1164.23 799.394 1165.04C844.852 1165.99 889.26 1177.2 933.43 1187.03C977.599 1196.85 1018.19 1204.86 1060.83 1212.35C1234.32 1242.83 1410.61 1257.56 1586.77 1256.13C1635.99 1255.75 1685.17 1254.08 1734.3 1251.17C1759.82 1249.65 1785.39 1247.79 1810.86 1245.59C1822.64 1244.59 1834.38 1243.49 1846.16 1242.35C1854.89 1241.49 1861.33 1241.78 1867.96 1235.96L1860.18 1239.15C1921.38 1238.29 1982.24 1231.67 2042.96 1224.51C2103.69 1217.36 2155.25 1208.25 2210.1 1188.12C2236.19 1178.54 2262.14 1168.28 2288.85 1160.51C2317.43 1152.21 2346.81 1148.54 2375.91 1142.62C2433.15 1130.94 2486.43 1101.99 2539.52 1078.57C2552.44 1072.9 2541.23 1053.96 2528.45 1059.59C2473.26 1083.96 2418.93 1112.53 2359.16 1123.55C2329.88 1128.94 2300.88 1133.61 2272.4 1142.58C2243.92 1151.54 2218.31 1162.08 2191.17 1171.67C2134.31 1191.84 2076.12 1198.81 2016.44 1205.63C1986.06 1209.11 1955.63 1212.25 1925.1 1214.4C1909.36 1215.5 1893.62 1216.36 1877.83 1216.83C1867.43 1217.12 1858.18 1215.31 1850.02 1222.41L1857.8 1219.22C1570.84 1248.41 1279.82 1234.91 996.965 1178.06C930.186 1164.66 862.739 1143.34 794.147 1143C737.767 1142.72 675.137 1158.98 638.981 1205.34C625.435 1222.7 615.132 1245.11 619.138 1267.34C620.903 1277.21 623.813 1279.69 633.496 1283.41C651.86 1290.52 670.367 1297.34 688.827 1304.25C721.358 1316.51 754.08 1328.34 786.372 1341.12C800.825 1346.84 814.897 1353.33 827.775 1362.11C841.751 1371.6 854.153 1383.19 867.843 1393.01C926.99 1435.46 999.159 1456.44 1067.08 1480.19C1104.38 1493.26 1142.31 1505.18 1179.13 1519.49C1195.82 1525.98 1205.46 1534.75 1213.62 1550.44C1219.58 1561.89 1226.16 1571.14 1238.94 1575.05C1244 1576.63 1248.44 1573.86 1251.35 1570L1254.73 1565.47L1245.24 1570.9C1426.45 1585.12 1608.61 1587.98 1790.16 1578.63C1962.64 1569.76 2135.45 1548.92 2302.35 1503.42C2396.51 1477.76 2488.14 1443.8 2576.2 1401.79L2560.07 1389.39C2553.4 1436.55 2522.39 1475.85 2493.29 1511.91C2461.43 1551.45 2424.42 1584.64 2385.59 1617.17C2346.76 1649.69 2309.32 1682.36 2269.97 1713.36C2229.56 1745.17 2185.97 1770.45 2138.36 1789.91C2086.13 1811.32 2032.33 1829.3 1978.48 1846.28L1992.36 1856.87L1992.83 1853.29C1994.03 1844.23 1982.82 1840.7 1976.33 1843.8C1946.99 1857.78 1916.66 1869.32 1885.37 1878.24C1870.2 1882.58 1854.84 1886.25 1839.38 1889.35C1827.12 1891.78 1815.3 1892.4 1806.85 1902.51C1788.87 1923.97 1779 1953.69 1765.88 1978.2C1751.62 2004.86 1734.49 2030.28 1708.59 2046.88L1721.9 2064.14L1727.39 2059.18L1711.84 2043.63C1677.97 2076.3 1645.44 2109.74 1624.07 2152.23C1604.27 2191.58 1592.83 2234.41 1584.67 2277.52C1576.08 2323.02 1571.03 2369.09 1562.2 2414.54C1557.72 2437.53 1552.33 2460.37 1545.03 2482.65C1537.73 2504.92 1529.05 2535.87 1511.4 2551.28L1530.15 2559.05V2558.48C1530.77 2550.75 1522.76 2546.75 1516.27 2547.89C1495.47 2551.56 1472 2555.62 1450.82 2553.52C1442.76 2552.71 1439.47 2552.28 1435.89 2544.03C1434.13 2539.93 1433.13 2535.44 1431.79 2531.2C1428.5 2520.8 1425.26 2510.4 1421.97 2499.96C1408.9 2458.32 1395.73 2416.74 1382.71 2375.1C1376.32 2354.73 1370.07 2334.37 1369.02 2312.91C1367.97 2291.45 1370.07 2271.84 1369.93 2251.29C1369.64 2208.56 1364.49 2166.01 1358.43 2123.76L1340.07 2134.44L1343.98 2139.16C1351.09 2147.7 1365.44 2138.54 1362.34 2128.48C1338.87 2052.41 1250.01 2030.85 1190.62 1991.17C1187.71 1989.22 1182.42 1988.98 1179.56 1991.17C1153.18 2011.3 1145.02 2048.98 1134.01 2078.69C1120.46 2115.22 1107.44 2151.99 1095.04 2188.91C1069.28 2265.55 1045.95 2343.05 1025.16 2421.22C984.993 2572.26 945.974 2724.97 891.454 2871.82C884.633 2890.23 878.718 2910.93 867.127 2927.1C856.777 2941.55 839.223 2947.27 829.636 2962.48C825.057 2969.73 822.433 2978.27 816.089 2984.33C809.745 2990.38 801.636 2993.34 794.72 2998.01C784.274 3005.07 774.734 3014.13 777.262 3027.54L782.318 3015.14C763.143 3028.35 738.005 3023.1 717.017 3032.12C704.902 3037.31 695.123 3046.09 684.057 3053.05C672.991 3060.02 661.782 3064.98 649.57 3068.55C597.674 3083.67 543.249 3066.36 507.522 3026.44L510.718 3034.21C510.336 3024.63 508.19 3019.19 503.754 3010.41C495.931 2994.96 489.968 2978.65 485.58 2961.86C476.183 2925.76 476.04 2888.66 481.526 2851.93C486.725 2817.16 495.502 2782.92 503.324 2748.63C511.147 2714.34 517.205 2681.48 532.421 2650.81C536.952 2641.65 529.511 2633.21 520.019 2634.69L517.729 2635.03L531.228 2648.52C552.073 2576.46 609.455 2524.9 663.165 2476.11C715.348 2428.75 767.531 2378.68 791.667 2310.76C794.1 2303.94 787.803 2296.88 781.078 2296.88H780.982L791.572 2310.76C818.236 2233.64 848.859 2157.91 883.631 2084.08C900.612 2048.02 918.547 2012.4 937.436 1977.25C946.881 1959.65 956.516 1942.24 966.438 1924.88C973.974 1911.67 985.183 1897.89 988.808 1882.96C990.192 1877.28 987.044 1870.94 981.129 1869.46C959.807 1864.17 938.056 1862.5 916.258 1865.55C904.762 1867.17 893.457 1871.51 881.867 1871.8C870.276 1872.08 859.448 1869.6 848.477 1868.55C822.481 1866.12 796.389 1865.26 770.298 1865.93C759.565 1866.22 748.594 1867.27 737.862 1866.07C723.886 1864.5 714.585 1856.63 702.421 1850.72C682.96 1841.23 661.066 1839.61 641.843 1829.26C622.62 1818.91 604.113 1806.7 586.369 1793.96C548.973 1767.06 515.201 1735.44 485.055 1700.63C482.527 1697.67 477.948 1696.91 474.371 1697.81C468.933 1699.2 461.921 1695.43 455.911 1693.71C446.991 1691.14 438.071 1688.37 429.39 1684.94C410.406 1677.35 391.803 1666.29 380.308 1648.88C368.812 1631.47 366.189 1612.68 374.059 1592.84C380.355 1576.96 380.737 1563.99 370.625 1549.54C360.512 1535.09 346.393 1522.83 334.85 1509.33C320.397 1492.45 307.137 1474.42 297.263 1454.44C288.009 1435.7 282.476 1415.43 274.463 1396.16C266.449 1376.89 257.339 1360.25 246.225 1343.6L247.322 1352.04L247.512 1350.95C248.276 1345.89 246.94 1341.41 242.456 1338.55C208.59 1316.89 177.299 1293.24 176.393 1249.41C175.963 1228.71 183.452 1209.68 184.883 1189.31C186.314 1168.95 178.635 1151.59 175.057 1132.8C171.289 1112.77 170.526 1090.35 181.21 1072.23C185.742 1064.55 192.134 1057.63 200.099 1053.44C209.782 1048.33 218.941 1049.91 229.244 1048.57C243.124 1046.76 255.621 1038.65 262.633 1026.44C269.645 1014.23 266.306 1007.8 257.959 997.78L261.155 1005.55C261.059 988.242 262.442 971.215 265.543 954.141L245.461 956.764L248.466 961.343C254.477 970.452 268.5 966.923 268.93 955.811C270.504 913.602 275.13 874.59 299.791 839.106C320.111 809.871 347.872 786.406 374.488 763.18C405.016 736.472 438.93 711.242 466.31 681.243C489.968 655.346 497.934 624.298 501.655 590.246C510.002 513.985 521.593 439.441 549.927 367.616C578.26 295.79 617.898 235.936 673.754 187.48C733.712 135.543 809.65 101.824 889.594 100.918C902.473 100.775 903.856 83.51 892.503 79.3607L890.309 78.5499V99.7255C967.725 78.1207 1051.06 87.4685 1126.09 113.938C1162.24 126.672 1196.73 144.128 1228.64 165.398C1241.28 173.84 1255.59 185 1271.86 179.897C1286.6 175.271 1293.61 158.96 1301.95 147.418C1395.16 18.6955 1571.65 5.0554 1714.41 38.7742C1792.59 57.2313 1869.53 90.3778 1922.33 152.951L1919.52 142.267L1917.8 152.188C1916.99 156.766 1918.28 162.298 1922.86 164.588C1947.71 177.083 1976.14 176.034 2003.28 178.085C2035.14 180.469 2067.01 183.522 2098.53 188.816C2158.54 198.926 2217.16 216.954 2268.73 249.958C2318.24 281.626 2353.82 323.357 2386.92 371.05C2394.18 381.494 2402 391.462 2411.97 399.427C2422.94 408.155 2437.92 413.449 2444.31 426.707C2457.85 454.75 2429.47 474.829 2432.14 501.728C2433.86 518.706 2440.49 534.397 2441.06 551.805C2441.64 569.213 2438.87 587.622 2433.1 604.744C2428.28 619.1 2425.8 629.64 2433.43 643.423C2442.69 660.211 2446.36 676.951 2438.2 695.217L2444.78 690.162L2440.3 690.877C2434.58 691.831 2430.95 699.176 2432.62 704.374C2443.93 739.715 2465.25 769.475 2486.85 799.14C2510.56 831.714 2535.41 863.764 2557.59 897.435C2577.48 927.576 2601.91 970.118 2589.17 1007.46C2578.49 1038.65 2543.28 1053.1 2515.33 1064.93C2502.36 1070.42 2513.52 1089.35 2526.4 1083.91L2526.54 1083.87Z" fill="#1E1E1E"/>
<path d="M599.629 1275.97C661.543 1302.58 724.125 1328.1 785.132 1356.72C814.324 1370.4 842.991 1385.24 870.18 1402.64C897.369 1420.05 921.6 1440.51 949.981 1455.2C982.035 1471.8 1016.81 1482.24 1051.29 1492.45C1064.89 1496.46 1070.66 1475.28 1057.11 1471.27C1026.87 1462.31 996.297 1453.44 967.821 1439.65C939.344 1425.87 914.874 1405.93 888.592 1388.48C835.169 1353.04 775.735 1328.05 717.017 1302.82C681.577 1287.56 646.136 1272.3 610.648 1257.09C605.21 1254.75 598.866 1255.46 595.623 1261.04C592.904 1265.67 594.096 1273.73 599.582 1276.07L599.629 1275.97Z" fill="#7B9253"/>
<path d="M1638.9 822.843C1579.23 838.582 1516.98 844.591 1455.45 840.537L1456.17 840.776C1358.48 845.927 1262.65 816.357 1169.4 786.692C1136.49 776.247 1103.14 765.517 1074.09 746.821C1059.64 737.521 1046.19 726.218 1030.26 719.779C1001.59 708.285 965.101 712.339 944.114 689.685C942.349 687.777 940.727 685.631 940.107 683.103C938.151 674.805 947.691 668.748 955.705 665.791C1015.81 643.662 1080.82 635.172 1144.55 641.134L1144.4 639.465L1258.98 644.329C1295.66 645.903 1332.34 647.429 1368.97 649.48C1383.95 650.339 1398.97 651.245 1413.95 650.529C1428.31 649.862 1442.52 647.715 1456.88 646.809C1477.2 645.522 1497.76 646.809 1517.79 642.946C1528.67 640.848 1539.26 637.318 1550.18 635.411C1559.82 633.741 1569.6 633.408 1579.37 633.026C1599.74 632.311 1620.16 631.548 1640.52 630.832L1641.62 633.312C1679.97 637.414 1717.61 623.011 1753.48 608.846C1773.89 600.786 1794.31 592.773 1814.67 584.713L1815.2 586.192C1817.97 613.663 1812.15 641.229 1806.38 668.223C1801.46 691.116 1796.41 714.39 1785.01 734.802C1770.46 760.747 1746.46 780.349 1720.23 794.323C1694 808.297 1665.38 817.12 1636.99 825.848" fill="#F4F9F4"/>
<path d="M1637.42 817.549C1578.09 833.049 1516.65 838.963 1455.4 835.053C1448.96 834.623 1448.3 843.971 1453.92 845.831L1454.64 846.07L1456.12 835.291C1351.51 840.537 1248.77 807.391 1150.65 774.912C1127.71 767.329 1104.96 758.792 1084.02 746.535C1063.08 734.278 1046.86 718.968 1024.49 712.005C1005.74 706.187 985.612 705.567 967.2 698.461C963.098 696.887 959.187 694.884 955.562 692.404C952.223 690.114 944.543 684.82 945.402 680.147C946.165 675.806 952.7 672.945 956.277 671.466C962.335 668.939 968.679 667.031 974.88 665.028C1029.59 647.62 1087.35 641.468 1144.5 646.666C1147.27 646.905 1150.22 643.948 1149.98 641.182L1149.84 639.512L1144.36 644.997C1209.85 647.763 1275.39 650.291 1340.88 653.534C1357.33 654.345 1373.79 655.489 1390.25 656.062C1406.7 656.634 1422.59 655.585 1438.76 653.916C1470 650.72 1501.48 653.057 1532.15 645.283C1540.31 643.185 1548.42 640.991 1556.81 639.989C1565.83 638.892 1574.94 638.749 1584 638.415C1602.84 637.748 1621.64 637.08 1640.48 636.412L1635.75 633.694L1636.85 636.174C1637.66 637.986 1639.81 638.702 1641.57 638.892C1671.43 641.802 1700.82 634.266 1728.72 624.203C1758.1 613.615 1787.01 601.549 1816.11 590.103L1809.33 586.287C1810.86 590.389 1810.38 595.73 1810.38 600.023C1810.38 606.127 1810.1 612.232 1809.52 618.337C1808.43 630.117 1806.28 641.754 1803.89 653.295C1799.65 674.09 1795.64 695.265 1788.06 715.153C1773.65 753.069 1741.55 778.68 1705.68 795.468C1683.12 806.008 1659.17 813.305 1635.42 820.649C1628.69 822.7 1631.56 833.336 1638.33 831.237C1680.5 818.265 1723.71 804.529 1757.91 775.532C1773.51 762.273 1786.48 746.01 1794.83 727.267C1804.09 706.473 1808.57 684.057 1813.24 661.928C1816.06 648.669 1818.59 635.315 1820.06 621.818C1820.83 614.998 1821.26 608.083 1821.26 601.215C1821.26 595.635 1821.78 588.672 1819.78 583.378C1818.82 580.85 1815.96 578.37 1813.01 579.562C1784.62 590.77 1756.39 602.455 1727.72 612.9C1699.05 623.344 1671.15 630.832 1641.38 627.923L1646.11 630.641L1645.01 628.161C1644.29 626.492 1642 625.395 1640.29 625.443C1623.83 626.015 1607.33 626.635 1590.87 627.208C1575.22 627.78 1559.48 627.828 1544.12 631.023C1528.76 634.218 1513.5 638.892 1497.38 639.941C1481.26 640.991 1465.66 640.562 1449.87 641.897C1434.08 643.232 1418.01 645.378 1401.88 645.331C1385.76 645.283 1368.83 643.995 1352.32 643.137C1319.56 641.42 1286.79 640.037 1254.02 638.654L1144.12 633.98C1141.35 633.885 1138.39 636.603 1138.63 639.465L1138.77 641.134L1144.26 635.649C1090.26 630.785 1035.41 635.888 983.323 650.911C971.588 654.297 958.996 657.54 948.073 663.073C939.678 667.317 931.712 675.377 934.86 685.488C937.722 694.74 948.55 701.847 956.754 705.901C965.674 710.288 975.357 712.768 985.087 714.771C995.534 716.87 1006.12 718.444 1016.43 721.162C1028.21 724.31 1038.7 729.699 1048.86 736.424C1059.02 743.149 1069.23 750.827 1080.1 757.075C1091.5 763.609 1103.48 769.093 1115.64 774.006C1140.06 783.831 1165.39 791.366 1190.48 799.235C1217.05 807.582 1243.67 815.642 1270.57 822.7C1330.96 838.582 1393.25 849.408 1455.88 846.26C1462.08 845.927 1463.27 837.437 1457.36 835.482L1456.64 835.243L1455.16 846.022C1517.32 849.933 1579.85 843.876 1640.1 828.089C1646.92 826.325 1644.01 815.737 1637.19 817.502L1637.42 817.549Z" fill="#221F20"/>
<path d="M1939.98 705.614C1902.49 690.305 1864.09 677.237 1825.03 666.602C1821.88 665.743 1818.3 664.503 1817.16 661.451C1816.58 659.877 1816.77 658.16 1817.01 656.539C1818.01 649.146 1818.97 641.802 1819.97 634.409C1820.78 628.161 1821.69 621.771 1824.55 616.143C1830.51 604.553 1843.63 598.735 1855.98 594.443C1890.09 582.567 1925.81 575.509 1961.88 573.601V571.741C2017.68 578.418 2074.02 580.85 2130.21 579.086C2159.4 578.179 2188.54 576.081 2217.45 571.979C2230.76 570.072 2243.97 567.735 2257.32 566.352C2271.4 564.873 2285.61 564.444 2299.68 562.822C2345.9 557.528 2389.88 539.548 2430.47 516.99C2433.81 515.13 2438.06 513.222 2441.3 515.32C2443.83 516.942 2444.45 520.28 2444.83 523.237C2449.46 560.581 2445.59 598.926 2433.67 634.6L2435.58 633.885C2417.26 661.642 2390.17 682.817 2360.69 698.127C2331.21 713.436 2299.16 723.261 2267.06 731.893C2219.36 744.675 2170.18 754.976 2120.9 751.876C2093.05 750.112 2065.67 744.102 2038.38 738.093C2004.38 730.605 1969.98 722.975 1938.88 707.331" fill="#F4F9F4"/>
<path d="M1941.41 700.321C1921.95 692.404 1902.25 685.059 1882.36 678.334C1872.58 675.043 1862.76 671.896 1852.88 668.891C1847.78 667.365 1842.63 665.839 1837.48 664.36C1835.28 663.74 1833.09 663.12 1830.85 662.5C1828.94 661.976 1824.31 661.594 1823.02 660.068C1820.69 657.349 1823.31 649.766 1823.74 646.523C1824.45 641.229 1825.03 635.888 1825.88 630.594C1827.41 621.151 1830.99 613.567 1839.1 608.178C1845.97 603.6 1853.79 600.833 1861.56 598.258C1871.53 594.92 1881.65 591.963 1891.9 589.483C1914.84 583.855 1938.17 580.421 1961.73 579.086C1964.69 578.895 1967.22 576.701 1967.22 573.601V571.741L1961.73 577.226C2042.01 586.716 2124.39 588.958 2204.76 579.086C2224.22 576.701 2243.54 572.933 2263.1 571.216C2282.65 569.499 2302.64 568.641 2322.2 564.778C2358.5 557.624 2393.08 543.221 2425.61 525.813C2428.42 524.334 2436.34 518.373 2438.63 520.9C2439.78 522.14 2439.54 526.004 2439.73 527.577C2440.01 530.153 2440.2 532.728 2440.4 535.304C2441.21 545.987 2441.3 556.67 2440.73 567.353C2439.54 589.769 2435.24 611.803 2428.23 633.121C2426.99 636.889 2431.09 641.277 2435.01 639.894L2436.91 639.178L2430.71 631.118C2393.46 686.776 2327.2 710.05 2265.43 726.599C2230.71 735.899 2195.36 743.959 2159.35 746.249C2123.34 748.538 2088.42 743.339 2053.32 735.756C2015.39 727.601 1976.47 719.97 1941.46 702.562C1935.16 699.414 1929.58 708.905 1935.93 712.053C1967.74 727.839 2002.28 735.756 2036.76 743.339C2073.44 751.4 2110.27 758.84 2148.05 757.743C2185.82 756.646 2221.6 749.253 2257.33 740.049C2293.05 730.844 2327.06 720.971 2359.35 704.851C2391.65 688.731 2420.22 666.506 2440.16 636.651C2442.73 632.835 2438.44 626.969 2433.96 628.591L2432.05 629.306L2438.82 636.078C2445.12 617.001 2449.17 597.352 2450.98 577.321C2451.89 567.401 2452.22 557.433 2451.94 547.465C2451.7 538.165 2451.8 527.768 2449.41 518.754C2443.93 498.056 2419.03 517.037 2408.53 522.331C2390.74 531.297 2372.33 539.167 2353.34 545.319C2334.36 551.471 2314.71 555.907 2294.77 557.862C2274.83 559.818 2253.13 561.058 2232.38 564.205C2190.64 570.549 2148.81 573.649 2106.6 574.126C2058.18 574.65 2009.77 571.979 1961.68 566.304C1958.73 565.97 1956.2 569.118 1956.2 571.789V573.649L1961.68 568.164C1937.93 569.499 1914.27 572.886 1891.14 578.466C1879.45 581.279 1867.86 584.618 1856.46 588.529C1848.02 591.39 1839.38 594.586 1832.09 599.784C1824.41 605.269 1818.97 612.47 1816.49 621.627C1813.63 632.168 1813.01 643.614 1811.62 654.392C1810.24 665.171 1815.53 669.75 1825.6 672.563C1837.38 675.854 1849.11 679.288 1860.75 682.96C1886.99 691.211 1912.84 700.607 1938.31 711.004C1944.85 713.675 1947.71 703.039 1941.22 700.416L1941.41 700.321Z" fill="#221F20"/>
<path d="M2098.44 580.85C2092.19 606.175 2087.42 631.881 2084.08 657.779C2082.75 668.271 2081.65 678.954 2083.56 689.351C2085.66 700.845 2091.33 711.29 2095.48 722.211C2098.1 729.127 2100.35 736.472 2105.31 741.956C2114.75 752.306 2130.68 752.592 2144.71 752.115C2154.01 751.781 2163.31 751.447 2172.61 751.113C2189.93 750.493 2207.34 749.873 2224.51 747.489C2256.56 743.006 2287.38 732.37 2317.57 720.733C2330.73 715.63 2344.47 709.907 2353.2 698.794C2362.07 687.444 2364.27 672.277 2364.32 657.874C2364.41 626.635 2355.82 595.396 2339.7 568.641C2338.46 566.59 2337.13 564.492 2335.17 563.061C2331.02 560.008 2325.3 560.771 2320.24 561.678C2281.22 568.45 2241.78 573.696 2202.14 573.649C2183.87 573.649 2165.5 572.504 2147.38 574.698C2133.69 576.367 2119.71 579.944 2106.26 576.939C2104.5 576.558 2102.64 576.033 2100.87 576.51C2099.11 576.987 2097.58 578.895 2098.3 580.564" fill="#161816"/>
<path d="M2096.29 580.23C2089.23 609.227 2082.94 639.226 2080.65 669.034C2079.55 683.485 2082.22 696.171 2087.75 709.43C2092.14 719.922 2095.29 733.133 2102.49 742.099C2109.27 750.493 2119.9 753.403 2130.3 754.166C2144.28 755.215 2158.59 753.784 2172.56 753.307C2202.33 752.258 2231.42 750.016 2260.33 742.29C2274.88 738.379 2289.19 733.61 2303.31 728.412C2315.28 724.024 2327.82 719.875 2338.89 713.436C2348.48 707.904 2356.3 700.273 2360.79 690.019C2365.6 678.954 2366.6 666.602 2366.41 654.679C2366.03 628.257 2359.5 601.978 2347.57 578.37C2342.56 568.45 2338.08 557.91 2325.39 558.673C2311.23 559.531 2296.82 563.299 2282.75 565.255C2264.86 567.735 2246.88 569.642 2228.85 570.596C2210.82 571.55 2194.27 571.121 2176.9 571.025C2159.54 570.93 2144.28 573.267 2127.73 575.127C2119.57 576.033 2112.41 575.222 2104.35 574.173C2100.11 573.649 2095.43 575.366 2096.01 580.373C2096.34 583.139 2100.73 583.187 2100.39 580.373C2099.96 576.749 2108.93 579.515 2110.12 579.658C2113.08 580.039 2116.04 580.182 2119.04 580.135C2125.05 580.039 2131.06 579.133 2137.03 578.227C2150.72 576.176 2164.22 575.27 2178.05 575.365C2205.19 575.556 2232 575.365 2258.99 572.456C2271.92 571.073 2284.85 569.356 2297.73 567.353C2304.26 566.352 2310.8 565.302 2317.28 564.158C2325.63 562.727 2332.5 561.344 2337.7 569.499C2351.2 590.532 2358.92 616.238 2361.26 640.991C2363.5 664.408 2362.6 691.784 2341.32 706.521C2331.4 713.388 2319.67 717.395 2308.46 721.592C2296.49 726.122 2284.42 730.367 2272.16 734.087C2245.83 742.099 2219.26 746.535 2191.79 747.87C2178.43 748.538 2165.03 748.919 2151.62 749.396C2140.27 749.778 2128.01 750.97 2117.14 746.916C2103.21 741.766 2100.25 727.696 2095.1 715.344C2089.28 701.465 2084.13 688.683 2084.75 673.326C2085.37 657.969 2088.28 641.706 2091 626.206C2093.72 610.706 2096.86 596.064 2100.49 581.136C2101.16 578.37 2096.91 577.226 2096.24 579.992L2096.29 580.23Z" fill="#221F20"/>
<path d="M2174.57 584.475C2172.09 587.623 2172.52 592.344 2174.66 595.73C2176.81 599.117 2180.24 601.453 2183.73 603.457C2187.11 605.412 2190.59 607.272 2194.41 608.13C2198.42 609.084 2202.57 608.941 2206.67 608.703C2209.63 608.512 2212.63 608.321 2215.4 607.224C2219.6 605.603 2222.84 602.121 2225.41 598.449C2227.18 595.969 2228.8 593.012 2228.32 589.959C2227.85 586.812 2225.13 584.332 2222.12 583.235C2219.12 582.138 2215.83 582.138 2212.63 582.186C2200.85 582.329 2189.12 582.663 2177.33 583.235" fill="#F9FCFB"/>
<path d="M2169.84 581.709C2166.93 585.81 2166.84 591.247 2168.6 595.778C2170.51 600.643 2174.42 604.077 2178.72 606.843C2183.01 609.609 2187.88 612.232 2192.93 613.424C2198.37 614.664 2204.14 614.521 2209.63 613.949C2215.11 613.377 2219.98 611.707 2224.27 608.035C2227.94 604.887 2231.33 600.452 2233 595.873C2234.86 590.866 2233.57 585.429 2229.8 581.709C2226.03 577.989 2220.69 576.844 2215.54 576.701C2202.85 576.319 2190.02 577.13 2177.38 577.75C2170.32 578.084 2170.32 589.053 2177.38 588.719C2188.45 588.195 2199.47 587.861 2210.53 587.718C2213.78 587.718 2220.45 586.669 2222.55 590.007C2224.08 592.392 2220.45 596.207 2218.93 597.924C2216.07 601.12 2212.96 602.741 2208.67 603.075C2203.47 603.504 2198.08 603.79 2193.07 602.026C2188.5 600.357 2174.61 593.87 2179.34 587.241C2181.05 584.809 2179.77 581.136 2177.38 579.706C2174.61 578.084 2171.61 579.229 2169.84 581.661V581.709Z" fill="#221F20"/>
<path d="M2165.55 661.689C2160.45 665.076 2155.44 668.653 2150.53 672.373C2147.71 674.519 2144.9 676.808 2143.04 679.813C2141.65 682.006 2140.84 684.486 2140.37 686.967C2138.36 697.888 2143.47 709.668 2152.48 716.202C2161.5 722.736 2173.85 724.072 2184.3 720.256C2187.02 719.255 2189.59 717.967 2191.88 716.155C2195.41 713.293 2197.94 709.382 2199.9 705.281C2202.52 699.701 2204.24 693.357 2202.57 687.396C2200.9 681.482 2196.22 676.951 2191.69 672.754C2188.4 669.654 2185.06 666.554 2181.1 664.36C2177.14 662.166 2172.47 660.974 2168.08 662.023" fill="#F9FCFB"/>
<path d="M2162.78 656.92C2156.15 661.308 2149.33 665.886 2143.37 671.18C2137.41 676.474 2134.83 683.056 2134.5 690.639C2133.88 704.041 2141.99 717.442 2153.91 723.499C2166.46 729.842 2183.2 729.508 2194.65 720.876C2206.1 712.244 2212.63 694.12 2205.91 681.053C2202.42 674.328 2195.94 668.7 2190.16 663.979C2183.34 658.446 2175.52 654.917 2166.65 656.682C2159.73 658.017 2162.64 668.605 2169.56 667.269C2174.57 666.268 2179.48 669.32 2183.2 672.42C2187.11 675.663 2191.26 679.288 2194.36 683.342C2197.7 687.682 2198.42 692.403 2196.94 697.65C2195.6 702.467 2193.12 707.474 2189.45 710.956C2182.29 717.824 2169.56 718.348 2160.78 714.628C2152 710.908 2145.95 702.562 2145.47 693.357C2145.14 687.3 2146.9 682.531 2151.53 678.525C2156.73 674.042 2162.59 670.131 2168.32 666.363C2174.04 662.596 2168.7 652.962 2162.78 656.872V656.92Z" fill="#221F20"/>
<path d="M2263.95 620.817C2255.46 621.532 2248.12 627.78 2244.4 635.411C2240.68 643.041 2240.2 651.96 2241.25 660.402C2242.16 667.889 2244.68 675.854 2250.98 679.956C2254.61 682.293 2259.04 683.056 2263.38 683.199C2266.34 683.294 2269.39 683.103 2272.06 681.911C2274.26 680.91 2276.12 679.336 2277.84 677.666C2282.61 673.183 2286.9 668.032 2289.52 662.023C2292.14 656.014 2293.05 649.098 2291.05 642.851C2288.71 635.554 2282.7 630.021 2276.55 625.395C2274.5 623.869 2272.25 622.343 2269.68 622.247" fill="#F9FCFB"/>
<path d="M2263.96 615.332C2250.6 616.763 2240.63 626.778 2237.05 639.417C2235.1 646.189 2234.95 653.439 2235.76 660.449C2236.48 666.459 2237.86 672.706 2241.3 677.81C2244.97 683.294 2250.46 686.871 2256.94 688.063C2263.81 689.304 2271.54 689.256 2277.5 685.154C2288.57 677.476 2297.82 663.645 2297.68 649.909C2297.58 641.897 2294.15 634.791 2288.81 628.972C2283.89 623.583 2277.22 617.717 2269.73 616.906C2266.77 616.572 2264.24 619.672 2264.24 622.391C2264.24 625.634 2266.77 627.589 2269.73 627.875C2271.44 628.066 2273.3 629.878 2274.64 630.88C2276.55 632.358 2278.36 633.932 2280.03 635.649C2283.27 638.94 2285.94 642.898 2286.56 647.62C2287.95 657.588 2281.51 666.649 2274.74 673.183C2273.21 674.662 2271.59 676.283 2269.58 677.094C2267.2 678.048 2264.38 677.905 2261.86 677.714C2257.85 677.428 2253.84 676.236 2251.27 673.04C2245.92 666.411 2245.5 655.06 2246.59 647.095C2247.88 637.986 2253.8 627.494 2263.96 626.397C2266.91 626.063 2269.44 624.107 2269.44 620.912C2269.44 618.194 2266.91 615.094 2263.96 615.427V615.332Z" fill="#221F20"/>
<path d="M1399.07 651.006C1408.09 649.766 1417.15 649.051 1426.21 648.335C1464.9 645.283 1503.58 642.183 1542.22 639.131C1569.02 636.985 1595.93 634.886 1622.73 636.269C1636.8 636.985 1653.26 640.323 1659.13 653.152L1658.41 651.483C1664.42 658.732 1669.29 666.84 1672.91 675.52C1680.4 693.596 1682.17 713.579 1681.69 733.133C1681.4 744.436 1680.4 755.739 1677.92 766.709C1674.2 783.02 1667.14 798.568 1657.27 812.065L1656.89 807.629C1642.48 822.796 1620.35 827.279 1599.65 830.283C1542.84 838.534 1485.07 841.586 1427.93 836.388C1423.25 835.959 1418.48 835.482 1414.1 833.86C1407.85 831.619 1402.6 827.279 1398.12 822.414C1383.09 806.151 1376.17 783.687 1374.74 761.606C1373.31 739.524 1376.99 717.442 1380.71 695.599C1381.9 688.493 1383.19 681.339 1385.86 674.662C1389.63 665.266 1396.21 657.063 1404.51 651.34" fill="#171717"/>
<path d="M1483.12 654.774C1479.82 654.679 1476.96 657.302 1475.77 660.306C1474.58 663.311 1474.67 666.745 1474.91 669.988C1475.25 674.376 1475.82 678.906 1478.06 682.722C1480.06 686.203 1483.31 688.827 1486.74 690.877C1500.76 699.224 1519.84 698.413 1532.68 688.35C1535.39 686.203 1537.87 683.676 1539.45 680.623C1542.88 673.994 1541.79 665.934 1539.45 658.875C1538.88 657.159 1538.16 655.394 1536.92 654.059C1534.11 651.102 1529.53 651.102 1525.43 651.292C1512.07 651.96 1498.71 652.628 1485.36 653.295" fill="white"/>
<path d="M1483.12 649.289C1466.28 650.052 1467.18 673.613 1472.77 684.534C1478.87 696.457 1494.66 701.847 1507.25 702.037C1519.84 702.228 1534.15 697.03 1542.07 686.537C1546.65 680.528 1547.7 673.088 1546.65 665.743C1545.7 659.114 1543.74 651.054 1537.4 647.668C1530.53 643.948 1520.85 645.998 1513.45 646.38C1504.06 646.857 1494.66 647.334 1485.26 647.763C1478.25 648.097 1478.2 659.114 1485.26 658.732C1497.76 658.112 1510.3 657.492 1522.8 656.872C1526.33 656.682 1532.01 655.394 1533.72 659.448C1535.54 663.788 1536.63 669.225 1535.87 673.899C1534.3 683.294 1523.66 688.54 1515.27 690.353C1506.87 692.165 1497.09 690.687 1489.46 686.156C1484.26 683.056 1481.45 679.002 1480.64 672.993C1480.3 670.56 1478.68 660.497 1483.12 660.306C1490.18 659.972 1490.18 649.003 1483.12 649.337V649.289Z" fill="#221F20"/>
<path d="M1490.99 742.338C1480.35 745.629 1470.52 751.924 1463.56 760.604C1456.6 769.284 1452.54 780.397 1452.78 791.557C1452.87 796.04 1453.73 800.618 1456.17 804.386C1458.46 807.868 1461.94 810.395 1465.66 812.351C1474.05 816.739 1483.93 818.455 1493.18 816.5C1502.43 814.545 1510.97 808.822 1515.74 800.618C1518.7 795.515 1520.18 789.649 1521.04 783.783C1521.61 779.872 1521.94 775.818 1520.89 772.003C1519.7 767.472 1516.74 763.609 1513.64 760.032C1510.11 755.883 1506.3 751.876 1502.34 748.109C1499.52 745.438 1496.42 742.767 1492.66 741.766" fill="white"/>
<path d="M1489.56 737.044C1474.05 742.004 1460.13 752.401 1452.87 767.233C1446.24 780.826 1443.29 801.381 1456.12 812.446C1468.95 823.511 1488.51 825.752 1503.53 818.694C1518.56 811.635 1525.95 796.04 1527 779.824C1527.67 769.856 1522.99 762.369 1516.7 755.072C1510.4 747.775 1503.44 739.333 1494.18 736.424C1487.41 734.278 1484.55 744.913 1491.27 747.012C1497.04 748.824 1501.77 754.976 1505.73 759.269C1509.68 763.561 1514.93 768.617 1515.93 774.721C1516.94 780.826 1515.12 788.314 1512.88 793.989C1510.64 799.664 1506.87 803.957 1501.96 807.057C1491.18 813.829 1477.2 812.923 1466.47 806.485C1455.74 800.046 1457.22 784.355 1461.84 773.91C1467.57 760.986 1479.21 751.876 1492.47 747.632C1499.19 745.485 1496.33 734.898 1489.56 737.044Z" fill="#221F20"/>
<path d="M1595.4 711.528C1579.23 713.198 1566.21 726.885 1561.1 742.338C1559.82 746.201 1558.96 750.255 1559.24 754.261C1559.86 762.798 1565.68 770.238 1572.55 775.294C1578.28 779.49 1585.34 782.543 1592.4 781.637C1596.4 781.112 1600.17 779.347 1603.84 777.63C1610.04 774.674 1616.34 771.669 1621.68 767.329C1627.03 762.989 1631.41 757.075 1632.51 750.303C1633.75 742.767 1630.89 735.041 1626.74 728.65C1619.97 718.205 1607.66 709.764 1595.64 712.911" fill="white"/>
<path d="M1595.4 706.044C1579.8 707.904 1567.02 718.015 1559.72 731.702C1555.67 739.286 1552.76 748.156 1554.04 756.836C1555.24 764.801 1560.05 771.907 1566.02 777.106C1572.6 782.829 1580.99 787.36 1589.91 787.312C1598.83 787.264 1608.14 782.018 1615.86 777.726C1623.59 773.434 1630.46 768.092 1634.61 760.509C1638.76 752.926 1639.28 743.53 1636.14 735.136C1629.93 718.491 1612.95 703.182 1594.16 707.57C1587.29 709.191 1590.2 719.779 1597.07 718.158C1608.57 715.487 1618.96 725.359 1623.97 734.707C1627.02 740.382 1628.55 747.059 1626.02 753.212C1623.5 759.364 1618.39 763.418 1613.1 766.661C1607.32 770.143 1600.69 773.815 1594.21 775.675C1587.72 777.535 1581.14 774.817 1575.8 770.953C1571.26 767.71 1567.07 763.132 1565.4 757.695C1563.54 751.686 1565.4 745.199 1567.97 739.667C1573.03 728.698 1582.86 718.539 1595.35 717.013C1598.31 716.679 1600.84 714.724 1600.84 711.528C1600.84 708.858 1598.31 705.662 1595.35 706.044H1595.4Z" fill="#221F20"/>
<path d="M1259.6 176.988C1267.66 185.525 1275.86 193.966 1283.78 202.599C1291.13 210.611 1298.09 218.957 1303.39 228.496C1306.82 234.648 1316.31 229.116 1312.88 222.964C1307.25 212.948 1299.9 204.03 1292.18 195.54C1284.02 186.622 1275.62 177.989 1267.32 169.214C1262.46 164.063 1254.68 171.837 1259.55 176.988H1259.6Z" fill="#221F20"/>
<path d="M1051.91 351.305C1146.17 258.161 1283.02 232.311 1410.99 235.984C1443.91 236.938 1476.34 240.228 1508.11 249.29C1537.3 257.589 1565.21 269.703 1591.78 284.297C1618.34 298.89 1643.77 316.108 1667.95 334.612C1680.35 344.103 1692.42 354.023 1704.3 364.182C1716.18 374.34 1728.34 383.974 1735.97 397.376C1744.17 411.827 1746.94 428.567 1752.76 443.972C1758.58 459.377 1767.26 470.823 1778.71 481.983C1790.16 493.143 1802.42 504.017 1807.04 519.946C1812.05 537.068 1809.48 555.525 1806.99 572.838C1805.99 579.753 1816.58 582.758 1817.58 575.747C1819.87 559.961 1822.07 543.984 1819.87 528.102C1817.82 513.031 1811.38 500.297 1801.27 489.042C1791.16 477.786 1779.28 469.201 1771.17 456.897C1763.06 444.592 1759.53 429.426 1755.05 415.309C1750.33 400.428 1743.89 386.979 1733.06 375.58C1722.23 364.182 1709.07 353.737 1696.67 343.531C1672.48 323.643 1647.25 304.947 1620.63 288.446C1566.07 254.632 1506.06 231.548 1441.71 226.541C1371.07 221.008 1297.85 225.205 1229.07 242.851C1160.29 260.498 1094.94 293.406 1044.19 343.531C1039.13 348.491 1046.91 356.265 1051.96 351.305H1051.91Z" fill="#221F20"/>
<path d="M1104.34 581.232C1191.82 566.161 1281.06 570.358 1369.4 571.073C1414.33 571.407 1459.27 571.168 1504.1 568.355C1548.94 565.541 1591.97 559.818 1635.42 552.139C1684.41 543.459 1732.92 532.394 1781.29 520.996C1788.15 519.374 1785.24 508.786 1778.38 510.408C1691.85 530.725 1604.75 549.993 1515.89 556.574C1427.02 563.156 1337.25 558.435 1247.86 559.245C1198.83 559.722 1149.79 562.345 1101.38 570.692C1094.41 571.884 1097.37 582.472 1104.29 581.279L1104.34 581.232Z" fill="#221F20"/>
<path d="M1951.24 520.71C1983.29 508.739 2017.64 512.888 2050.93 515.606C2084.22 518.325 2120.28 517.085 2154.96 512.411C2189.64 507.737 2227.08 500.106 2262.95 493.286C2296.58 486.895 2331.35 482.031 2363.31 469.344C2393.27 457.421 2421.32 437.581 2435.48 407.773C2438.49 401.43 2429.04 395.85 2425.99 402.241C2397.42 462.143 2322.29 470.823 2264.58 481.84C2195.36 495.003 2126.06 510.503 2055.18 505.019C2019.54 502.252 1982.62 497.388 1948.23 510.169C1941.65 512.602 1944.51 523.237 1951.14 520.757L1951.24 520.71Z" fill="#221F20"/>
<path d="M1813.96 711.194C1853.98 727.887 1889.66 753.212 1923.48 779.967C1959.78 808.726 1995.31 838.486 2031.13 867.817C2041.77 876.497 2052.36 885.225 2063 893.905C2071.39 900.821 2081.12 907.879 2083.65 919.039C2085.18 925.907 2095.77 922.998 2094.24 916.13C2092.14 906.782 2086.08 899.39 2079.12 893.142C2070.3 885.273 2060.85 878.024 2051.69 870.536C2031.99 854.368 2012.25 838.248 1992.55 822.08C1956.91 792.892 1921.81 762.607 1883.55 736.901C1862.47 722.736 1840.38 710.384 1816.96 700.607C1810.48 697.888 1807.62 708.524 1814.05 711.194H1813.96Z" fill="#221F20"/>
<path d="M2183.2 913.316C2227.18 916.464 2268.77 896.958 2302.97 870.774C2320.34 857.468 2336.27 842.493 2351.87 827.183C2367.46 811.874 2383.59 796.326 2394.84 776.867C2408.25 753.784 2420.74 730.939 2437.53 710.05C2441.92 704.613 2434.19 696.791 2429.76 702.276C2416.02 719.398 2403.91 737.569 2393.36 756.836C2388.07 766.518 2382.97 776.295 2376.38 785.166C2369.8 794.037 2361.79 801.858 2353.96 809.632C2323.68 839.631 2292.58 870.393 2253.37 888.468C2231.38 898.627 2207.43 904.064 2183.15 902.347C2176.09 901.822 2176.14 912.839 2183.15 913.316H2183.2Z" fill="#221F20"/>
<path d="M1923.1 775.246C1953 785.452 1983.29 798.377 2014.63 803.48C2045.97 808.583 2078.55 807.248 2110.41 807.2C2174.9 807.2 2239.87 808.774 2302.83 792.654C2337.7 783.687 2371.42 770.763 2405 757.886C2411.54 755.358 2408.68 744.77 2402.09 747.298C2372.71 758.601 2343.23 769.904 2312.94 778.537C2282.65 787.169 2251.41 792.415 2219.79 794.466C2188.16 796.517 2154.58 796.231 2122 796.231C2089.42 796.231 2059.37 797.661 2028.37 794.371C1993.07 790.603 1959.35 776.057 1926.01 764.658C1919.33 762.369 1916.42 772.957 1923.1 775.246Z" fill="#221F20"/>
<path d="M1116.79 840.489C1213.9 884.891 1319.03 910.693 1425.64 916.75C1478.92 919.803 1532.49 917.847 1585.43 910.836C1633.8 904.445 1685.12 896.242 1728.34 872.301C1750.85 859.853 1772.17 841.968 1784.24 818.789C1796.31 795.611 1797.12 766.47 1779.62 745.533C1775.08 740.096 1767.36 747.918 1771.84 753.307C1787.53 772.098 1783.77 798.663 1771.94 818.265C1760.11 837.866 1741.69 852.508 1721.99 863.239C1680.73 885.798 1631.51 893.715 1585.43 899.819C1485.36 913.126 1382.85 908.213 1284.45 885.75C1228.74 873.016 1174.31 854.702 1122.32 830.951C1115.93 828.042 1110.35 837.485 1116.79 840.442V840.489Z" fill="#221F20"/>
<path d="M1774.32 825.752C1772.37 844.734 1770.36 864.527 1762.25 882.03C1754.14 899.533 1738.69 912.362 1723.38 924.333C1689.89 950.517 1655.98 976.605 1617.25 994.632C1595.83 1004.6 1573.27 1011.94 1550.18 1017C1543.27 1018.53 1546.22 1029.07 1553.09 1027.59C1596.36 1018.15 1636.52 999.926 1673.2 975.269C1691.94 962.631 1709.83 948.752 1727.67 934.826C1743.51 922.473 1759.82 909.978 1769.55 891.998C1780.52 871.728 1783 848.359 1785.34 825.8C1786.06 818.789 1775.08 818.837 1774.37 825.8L1774.32 825.752Z" fill="#221F20"/>
<path d="M659.777 876.545C676.52 886.513 694.55 894.335 713.344 899.438C732.137 904.541 752.886 905.876 772.968 908.213C793.049 910.55 811.795 917.99 830.541 926.48C847.951 934.349 865.552 940.549 884.06 945.175C902.567 949.801 920.693 953.426 938.628 959.054C956.563 964.681 972.924 973.075 988.378 984.235C995.533 989.386 1002.74 994.585 1010.75 998.353C1018.76 1002.12 1028.83 1003.03 1035.41 1009.99C1041.66 1016.57 1047.86 1022.58 1055.35 1027.83C1062.84 1033.07 1070.99 1037.7 1078.77 1042.75C1111.78 1064.26 1137.87 1095.88 1175.93 1109.19C1182.61 1111.53 1185.47 1100.94 1178.84 1098.6C1145.4 1086.92 1120.98 1059.54 1092.94 1039.23C1078.29 1028.64 1061.17 1020.96 1048.38 1007.99C1041.85 1001.36 1036.98 995.729 1027.83 992.868C1018.67 990.006 1010.75 986.429 1002.78 981.04C987.663 970.834 973.639 960.628 956.515 953.808C939.391 946.987 921.504 942.838 903.664 938.641C885.825 934.444 866.888 929.961 849.382 922.855C831.877 915.749 814.228 905.972 795.291 901.107C773.111 895.432 749.881 896.433 727.51 891.664C705.139 886.895 684.581 878.644 665.263 867.102C659.205 863.477 653.672 872.968 659.73 876.593L659.777 876.545Z" fill="#221F20"/>
<path d="M487.297 617.43C488.298 642.278 491.923 667.031 498.172 691.116C499.937 697.936 510.526 695.027 508.761 688.207C502.751 665.028 499.221 641.372 498.267 617.43C497.981 610.372 487.01 610.372 487.297 617.43Z" fill="#221F20"/>
<path d="M852.388 1330.06C948.789 1355.33 1046.95 1373.6 1146.03 1384.71C1247.05 1396.01 1348.46 1397.54 1449.97 1399.93C1551.47 1402.31 1653.69 1404.98 1755.58 1407.08C1855.79 1409.13 1956.63 1408.65 2055.46 1390.1C2105.07 1380.8 2153.77 1367.64 2202.42 1354.38C2252.17 1340.83 2301.92 1327.29 2351.67 1313.79C2363.98 1310.45 2376.29 1307.07 2388.64 1303.73C2395.46 1301.87 2392.55 1291.28 2385.73 1293.14C2336.46 1306.54 2287.19 1319.94 2237.91 1333.35C2189.5 1346.51 2141.13 1360.25 2092.14 1371.31C1993.69 1393.53 1893.67 1397.97 1793.07 1396.73C1691.42 1395.49 1589.72 1392.25 1488.08 1389.86C1387.34 1387.48 1286.4 1387.05 1186 1377.8C1086.78 1368.64 988.236 1352.19 891.406 1328.58C879.386 1325.67 867.366 1322.62 855.346 1319.47C848.525 1317.66 845.615 1328.24 852.436 1330.06H852.388Z" fill="#221F20"/>
<path d="M2385.92 1303.92C2474.07 1279.31 2558.98 1243.45 2638.11 1197.47C2644.41 1193.8 2638.73 1183.97 2632.39 1187.65C2554.06 1233.14 2470.16 1268.53 2382.92 1292.95C2375.91 1294.91 2378.86 1305.88 2385.92 1303.92Z" fill="#221F20"/>
<path d="M318.632 1012.76C305.085 1022.2 298.169 1036.89 297.358 1053.25C296.547 1069.61 303.32 1086.06 312.574 1099.65C323.163 1115.15 336.185 1129.13 348.396 1143.34C361.227 1158.27 374.201 1173.15 387.51 1187.65C413.983 1216.5 442.173 1243.45 472.653 1268.01C503.133 1292.57 536.904 1317.8 569.101 1342.55C606.211 1371.07 643.274 1399.54 680.384 1428.06C685.106 1431.69 692.69 1428.78 695.409 1424.11C698.7 1418.43 696.172 1412.71 691.45 1409.08C630.156 1362.01 568.624 1315.18 507.569 1267.77C478.043 1244.83 449.805 1220.7 423.666 1193.94C397.526 1167.18 374.488 1140.24 350.829 1112.53C339.286 1098.98 325.882 1084.91 320.874 1067.41C317.487 1055.58 318.679 1039.42 329.65 1031.74C334.516 1028.35 336.758 1022.1 333.609 1016.71C330.795 1011.9 323.449 1009.37 318.584 1012.76H318.632Z" fill="#221F20"/>
<path d="M309.235 1025.78C291.443 1008.94 265.352 1007.27 243.601 1016.95C221.85 1026.63 207.302 1050.39 203.915 1074.37C200.242 1100.22 205.966 1128.84 223.329 1148.92C231.724 1158.65 242.981 1165.32 252.95 1173.29C263.492 1181.68 271.696 1192.13 279.28 1203.15C309.092 1246.74 340.192 1288.8 376.014 1327.72C411.264 1366.06 449.805 1401.4 490.97 1433.31C537.572 1469.41 587.275 1501.23 639.84 1527.98C652.432 1534.37 663.546 1515.44 650.906 1509C563.998 1464.79 484.483 1406.79 415.796 1337.59C381.595 1303.11 350.066 1266 321.828 1226.51C307.327 1206.25 294.973 1183.45 277.372 1165.66C268.643 1156.84 258.054 1150.4 248.562 1142.58C239.069 1134.75 232.582 1126.07 228.862 1114.58C221.802 1092.69 222.804 1064.79 238.974 1046.95C252.33 1032.26 278.231 1026.63 293.733 1041.28C303.988 1051.01 319.538 1035.51 309.283 1025.73L309.235 1025.78Z" fill="#221F20"/>
<path d="M219.894 1021.48C206.968 1017.72 193.326 1021.2 182.736 1029.21C172.147 1037.22 165.135 1049.72 160.127 1062.4C149.442 1089.45 143.575 1119.92 150.301 1148.63C156.406 1174.67 172.433 1196.85 188.126 1217.93C206.92 1243.25 225.761 1268.53 244.602 1293.81C265.781 1322.28 286.959 1350.75 308.138 1379.18C311.668 1383.95 317.63 1386.33 323.163 1383.14C327.838 1380.42 330.652 1372.88 327.122 1368.11C293.017 1322.28 258.912 1276.4 224.807 1230.57C209.353 1209.82 192.276 1189.41 180.351 1166.33C168.426 1143.24 167.091 1119.3 173.006 1094.69C177.155 1077.24 188.031 1035.08 214.122 1042.71C227.717 1046.67 233.536 1025.49 219.942 1021.53L219.894 1021.48Z" fill="#221F20"/>
<path d="M309.616 1382.47C337.711 1426.01 376.157 1462.78 416.32 1495.22C455.481 1526.84 497.838 1554.35 542.866 1576.87C568.481 1589.7 594.954 1600.95 621.952 1610.58C627.533 1612.59 633.972 1608.34 635.451 1602.91C637.12 1596.8 633.4 1591.41 627.771 1589.41C536.856 1556.88 453.048 1504.61 383.98 1437.13C363.421 1417.05 344.198 1395.59 328.601 1371.36C320.969 1359.53 301.937 1370.5 309.616 1382.42V1382.47Z" fill="#221F20"/>
<path d="M167.902 1190.79C154.355 1223.84 142.907 1263.05 164.992 1295.24C182.259 1320.47 211.642 1333.78 228.814 1359.01C247.941 1387.14 256.098 1421.63 270.026 1452.39C283.954 1483.15 301.651 1513.53 321.875 1541.29C344.867 1572.76 371.149 1601.67 400.579 1627.28C411.216 1636.53 426.814 1621.03 416.129 1611.73C366.093 1568.23 325.071 1515.15 295.784 1455.63C281.092 1425.78 272.22 1393.44 257.1 1363.82C249.802 1349.51 240.405 1336.49 228.623 1325.52C217.986 1315.65 206.109 1307.16 195.567 1297.15C183.356 1285.51 174.723 1271.82 174.341 1254.51C173.912 1234.38 181.592 1214.88 189.128 1196.56C191.37 1191.08 186.695 1184.5 181.448 1183.07C175.152 1181.35 170.191 1185.21 167.949 1190.75L167.902 1190.79Z" fill="#221F20"/>
<path d="M400.198 1627.61C437.594 1664.76 488.012 1681.69 533.851 1705.49C584.985 1732.01 626.77 1773.36 678.667 1798.45C707.096 1812.18 738.243 1821.2 770.106 1818.86C776.021 1818.43 781.077 1814.14 781.077 1807.89C781.077 1802.26 776.021 1796.49 770.106 1796.92C714.346 1800.97 665.883 1768.45 622.668 1737.26C599.915 1720.85 577.306 1704.06 552.597 1690.61C530.512 1678.55 507.283 1668.72 484.721 1657.7C459.822 1645.54 435.543 1631.81 415.748 1612.11C405.731 1602.14 390.181 1617.64 400.198 1627.66V1627.61Z" fill="#221F20"/>
<path d="M362.229 1577.44C353.643 1586.74 350.638 1598.61 350.781 1611.11C350.924 1623.6 352.88 1636.39 355.551 1648.45C360.512 1670.58 373.438 1688.32 393.663 1698.77C411.312 1707.88 430.916 1711.84 449.805 1717.42C458.677 1720.04 467.549 1723 475.706 1727.38C485.198 1732.49 492.782 1739.5 499.46 1747.94C507.187 1757.72 513.722 1768.35 521.831 1777.84C530.512 1788 540.816 1796.54 551.548 1804.41C573.203 1820.24 596.767 1834.36 620.187 1847.38C643.608 1860.4 670.367 1871.46 697.794 1877.28C725.221 1883.1 752.839 1885.15 780.553 1887.06C846.664 1891.59 913.109 1895.84 978.839 1884.82C984.706 1883.82 987.949 1876.61 986.518 1871.32C984.801 1865.12 978.887 1862.69 973.02 1863.64C918.213 1872.85 862.262 1870.46 807.026 1866.89C754.795 1863.5 700.704 1861.93 652.48 1839.37C628.964 1828.35 606.927 1814.38 585.033 1800.54C564.427 1787.57 545.013 1773.65 530.56 1753.71C517.252 1735.4 504.85 1717.42 484.053 1707.07C466.929 1698.53 448.279 1694.43 430.058 1689.13C413.124 1684.27 394.092 1677.97 384.171 1662.24C377.159 1651.12 375.346 1637.48 373.772 1624.7C372.532 1614.78 370.243 1601.09 377.731 1592.99C387.319 1582.64 371.817 1567.04 362.181 1577.44H362.229Z" fill="#221F20"/>
<path d="M1062.46 1622.13C1046.57 1625.56 1034.07 1637.1 1026.35 1650.98C1017.19 1667.43 1015 1685.8 1013.99 1704.3C1013.47 1714.17 1013.33 1724.14 1011.85 1733.92C1010.37 1743.7 1007.08 1753.42 1003.45 1762.82C996.631 1780.7 992.099 1798.35 988.999 1817.24C985.66 1837.6 982.798 1858.68 972.733 1877.04C965.96 1889.44 984.897 1900.56 991.718 1888.11C1009.32 1855.92 1007.41 1818.67 1018.76 1784.57C1021.67 1775.84 1025.35 1767.4 1028.26 1758.72C1031.55 1749.08 1033.36 1739.21 1034.36 1729.05C1036.22 1710.79 1034.79 1691.81 1040.23 1674.11C1044.47 1660.19 1053.3 1646.59 1068.28 1643.35C1082.06 1640.34 1076.24 1619.17 1062.46 1622.17V1622.13Z" fill="#221F20"/>
<path d="M996.822 1883.86C1008.79 1845.9 1028.11 1810.13 1053.77 1779.61C1077.34 1751.61 1108.92 1721.57 1148.03 1722.19C1162.15 1722.42 1162.15 1700.44 1148.03 1700.25C1113.64 1699.67 1083.25 1718.66 1059.16 1741.64C1035.08 1764.63 1013.85 1793.49 998.11 1823.63C989.047 1841.04 981.51 1859.3 975.595 1878.05C971.35 1891.54 992.529 1897.36 996.774 1883.86H996.822Z" fill="#221F20"/>
<path d="M331.654 1026.44C359.749 1015.86 393.234 1021.01 416.082 1040.99C430.058 1053.25 437.976 1069.99 447.325 1085.68C457.771 1103.32 469.839 1119.92 482.05 1136.38C494.261 1152.83 506.377 1169.62 521.498 1183.64C536.618 1197.66 552.311 1209.63 568.338 1221.7C599.2 1244.88 631.731 1265.86 665.55 1284.41C703.9 1305.45 743.92 1323.33 785.084 1338.12C790.665 1340.12 797.104 1335.87 798.583 1330.44C800.253 1324.33 796.532 1318.94 790.904 1316.94C717.16 1290.42 647.424 1253.03 584.413 1206.44C568.672 1194.8 553.075 1182.73 538.622 1169.57C524.169 1156.41 511.671 1139.71 499.651 1123.45C487.631 1107.19 475.134 1089.78 464.64 1071.75C455.1 1055.3 446.133 1038.08 431.584 1025.35C403.203 1000.45 361.371 991.723 325.787 1005.17C320.254 1007.27 316.438 1012.56 318.107 1018.67C319.586 1024.01 326.026 1028.45 331.606 1026.35L331.654 1026.44Z" fill="#221F20"/>
<path d="M786.182 1325.72C847.809 1363.73 910.915 1399.26 975.357 1432.26C989.619 1439.56 1004.02 1446.76 1019.15 1452.15C1060.02 1466.65 1106.44 1467.94 1142.11 1492.59" fill="#7B9253"/>
<path d="M780.6 1335.21C827.298 1364.01 874.854 1391.39 923.222 1417.33C946.642 1429.92 970.158 1442.8 994.341 1453.77C1016.9 1464.02 1040.28 1470.08 1064.36 1475.57C1088.45 1481.05 1114.88 1487.39 1136.53 1502.04C1148.27 1510 1159.29 1490.97 1147.6 1483.05C1107.68 1456.01 1057.54 1456.01 1013.8 1438.41C989.524 1428.64 966.39 1415.43 943.303 1403.17C919.072 1390.29 895.031 1377.03 871.229 1363.44C844.422 1348.13 817.901 1332.34 791.619 1316.18C779.551 1308.74 768.485 1327.72 780.553 1335.16L780.6 1335.21Z" fill="#1E1E1E"/>
<path d="M1118.88 1502.85C1144.64 1529.75 1182.13 1538.62 1211.71 1560.03C1238.28 1579.3 1255.64 1609.3 1263.6 1640.73C1283.59 1719.47 1243.95 1797.44 1211.76 1867.03C1191.63 1910.43 1171.97 1954.88 1164.39 2002.48C1163.39 2008.77 1166.01 2015.16 1172.59 2016.97C1178.17 2018.5 1186.09 2015.07 1187.09 2008.77C1200.98 1921.59 1254.35 1847.95 1279.54 1764.39C1291.17 1725.86 1296.33 1685.32 1288.79 1645.54C1282.21 1610.87 1265.61 1577.44 1239.8 1553.07C1224.49 1538.62 1206.46 1528.55 1187.71 1519.3C1168.97 1510.05 1149.98 1501.37 1135.53 1486.3C1125.04 1475.33 1108.39 1492.02 1118.88 1502.94V1502.85Z" fill="#1E1E1E"/>
<path d="M1288.22 1926.55C1424.97 1963.22 1568.26 1956.55 1706.92 1935.28C1746.42 1929.22 1785.72 1921.92 1824.93 1914.01C1838.76 1911.19 1832.9 1890.06 1819.11 1892.83C1684.17 1920.06 1545.6 1940.48 1407.8 1926.26C1369.4 1922.3 1331.38 1915.34 1294.08 1905.37C1280.39 1901.7 1274.57 1922.88 1288.26 1926.55H1288.22Z" fill="#1E1E1E"/>
<path d="M904.046 1358.29L902.949 1357.91L909.531 1362.96L908.816 1362.01L910.295 1367.54V1366.4C903.998 1368.97 897.75 1371.6 891.501 1374.17C901.995 1383.57 914.588 1389.77 927.037 1396.16C940.25 1402.98 953.558 1409.56 966.914 1416.05C992.862 1428.68 1019.05 1441.18 1046.91 1449.14C1060.5 1453.06 1066.32 1431.83 1052.72 1427.97C1026.68 1420.53 1002.26 1408.94 977.98 1397.06C965.674 1391.05 953.367 1385 941.156 1378.75C929.613 1372.84 916.782 1367.35 907.051 1358.62C900.373 1352.66 887.828 1356.33 888.305 1366.4C888.639 1373.03 891.978 1377.32 898.227 1379.47C911.63 1384.09 917.354 1362.87 904.046 1358.29Z" fill="#A8302D"/>
<path d="M1671.91 2116.18C1687.27 2111.84 1701.2 2125.71 1710.55 2136.11C1721.57 2148.32 1730.68 2162.06 1738.36 2176.55C1754.1 2206.27 1763.06 2239.22 1768.02 2272.37C1773.84 2311.29 1773.84 2350.92 1773.75 2390.17C1773.7 2419.84 1767.69 2467.53 1806.95 2475.06C1821.26 2477.83 1836.85 2474.54 1848.64 2465.86C1862.04 2456.03 1870.96 2442.06 1878.11 2427.32C1895.05 2392.32 1909.88 2356.21 1924.96 2320.4C1954.96 2249.05 1984.96 2176.94 2006.71 2102.58C2028.46 2028.23 2039.91 1954.64 2027.75 1879.91C2026.22 1870.51 2024.27 1861.21 2021.98 1851.96C2018.54 1838.27 1997.36 1844.04 2000.8 1857.78C2018.54 1928.93 2010.39 2002.86 1992.12 2073.01C1973.04 2146.17 1944.18 2216.71 1915.46 2286.49C1900.72 2322.3 1885.41 2357.88 1869.62 2393.27C1859.66 2415.64 1847.44 2453.7 1817.49 2454.08C1804.51 2454.27 1797.65 2446.02 1796.17 2433.52C1795.21 2425.37 1795.64 2416.93 1795.69 2408.77C1795.69 2398.66 1795.74 2388.6 1795.74 2378.49C1795.74 2339.52 1794.69 2300.46 1788.49 2261.88C1782.29 2223.29 1771.36 2188.95 1752.57 2156.86C1736.02 2128.53 1704.54 2084.08 1666.04 2094.95C1652.45 2098.82 1658.22 2119.99 1671.86 2116.13L1671.91 2116.18Z" fill="#221F20"/>
<path d="M2314.71 2158.53C2259.28 2172.6 2220.88 2220.29 2184.54 2261.11C2148.19 2301.94 2109.5 2348.06 2083.17 2398.9C2068.39 2427.42 2057.18 2457.8 2051.69 2489.51C2050.69 2495.33 2053.27 2501.34 2059.37 2503.01C2064.67 2504.44 2071.87 2501.2 2072.87 2495.33C2082.27 2441.01 2108.65 2392.41 2140.89 2348.39C2156.87 2326.6 2174.28 2305.9 2192.12 2285.63C2209.96 2265.36 2228.13 2244.37 2247.69 2225.3C2268.44 2204.98 2291.95 2187 2320.53 2179.7C2334.22 2176.22 2328.4 2155.05 2314.71 2158.53Z" fill="#221F20"/>
<path d="M2391.84 2625.53C2449.84 2543.69 2541.09 2487.89 2638.73 2467.53C2666.87 2461.66 2695.49 2458.99 2724.21 2459.32C2738.71 2459.47 2738.75 2436.96 2724.21 2436.77C2617.31 2435.53 2511.04 2476.16 2431.57 2547.46C2409.34 2567.4 2389.6 2589.81 2372.33 2614.14C2368.8 2619.1 2371.42 2626.68 2376.38 2629.59C2382.01 2632.88 2388.31 2630.54 2391.84 2625.53Z" fill="#221F20"/>
<path d="M1063.36 2345.67C1077.24 2366.37 1096.89 2386.31 1122.56 2390.6C1151.13 2395.37 1177.98 2381.35 1198.59 2362.56C1219.2 2343.77 1233.89 2321.25 1247.15 2297.79C1261.89 2271.8 1275.39 2245.09 1289.36 2218.67C1306.39 2186.52 1323.42 2154.38 1340.45 2122.18C1347.08 2109.69 1328.09 2098.58 1321.46 2111.12C1294.08 2162.82 1266.8 2214.61 1239.33 2266.26C1227.64 2288.2 1215.62 2310.48 1199.64 2329.65C1184.71 2347.53 1165.06 2365.8 1141.02 2369.33C1115.64 2373.05 1095.42 2354.11 1082.35 2334.61C1074.52 2322.92 1055.49 2333.89 1063.36 2345.67Z" fill="#221F20"/>
<path d="M704.091 1882.15L772.253 1992.08L806.024 2046.54C816.9 2064.09 827.25 2082.27 840.797 2097.96C844.661 2102.44 852.34 2101.92 856.347 2097.96C860.783 2093.52 860.211 2086.94 856.347 2082.41C843.325 2067.29 833.594 2049.31 823.148 2032.38L789.997 1978.92L723.123 1870.99C715.682 1859.02 696.697 1870.03 704.138 1882.05L704.091 1882.15Z" fill="#221F20"/>
<path d="M351.64 2068.77C422.759 2041.44 503.228 2046.21 570.437 2082.03C588.562 2091.71 606.02 2102.77 623.097 2114.27C639.219 2125.09 654.721 2136.83 668.506 2150.56C693.167 2175.22 709.862 2206.17 720.165 2239.32C731.899 2277.19 735.906 2316.87 736.573 2356.36C736.812 2370.47 758.754 2370.52 758.515 2356.36C757.275 2282.53 744.062 2204.07 694.55 2146.36C667.553 2114.89 630.824 2091.52 595.288 2070.77C559.37 2049.79 520.829 2035.96 479.426 2031.04C434.493 2025.7 388.034 2031.38 345.82 2047.59C340.287 2049.74 336.471 2054.99 338.141 2061.09C339.572 2066.38 346.106 2070.91 351.64 2068.77Z" fill="#221F20"/>
<path d="M417.322 2381.44C459.488 2362.94 507.426 2373.91 548.973 2388.26C559.896 2392.03 570.676 2396.13 581.456 2400.19C591.663 2404.05 601.823 2408.01 611.077 2413.92C619.329 2419.22 625.912 2426.51 633.114 2433.14C640.889 2440.3 648.998 2446.16 658.872 2449.98C664.405 2452.12 670.94 2447.59 672.371 2442.3C674.088 2436.1 670.272 2430.95 664.691 2428.8C650.668 2423.36 641.08 2409.3 629.489 2400.23C614.559 2388.6 596.433 2382.44 578.928 2375.86C543.439 2362.51 506.806 2350.06 468.456 2349.87C446.896 2349.77 425.908 2353.83 406.208 2362.51C400.771 2364.89 399.53 2372.81 402.249 2377.53C405.541 2383.11 411.837 2383.88 417.275 2381.49L417.322 2381.44Z" fill="#221F20"/>
<path d="M667.314 2445.3C611.553 2419.45 548.447 2427.94 492.496 2448.59C463.542 2459.28 435.018 2472.25 407.448 2486.18C394.187 2492.9 382.119 2501.25 372.245 2512.45C362.372 2523.66 354.167 2535.92 345.582 2547.94C325.834 2575.6 307.374 2603.93 294.257 2635.41C291.967 2640.89 296.737 2647.47 301.937 2648.9C308.281 2650.62 313.146 2646.71 315.436 2641.23C326.12 2615.71 341.289 2592.2 357.077 2569.59C372.866 2546.98 386.698 2523.14 410.166 2509.64C422.282 2502.68 435.304 2497.1 447.944 2491.23C460.585 2485.37 473.75 2479.45 486.915 2474.21C513.102 2463.81 540.529 2455.08 568.624 2452.22C598.197 2449.21 628.916 2451.74 656.152 2464.33C661.542 2466.81 667.982 2465.86 671.177 2460.37C673.944 2455.65 672.656 2447.88 667.218 2445.35L667.314 2445.3Z" fill="#221F20"/>
</svg>
