<svg xmlns="http://www.w3.org/2000/svg" width="28" height="24" viewBox="0 0 28 24" fill="none">
<path d="M26.8518 13.5971C26.9983 13.5971 26.9983 13.3695 26.8518 13.3695C26.7053 13.3695 26.7053 13.5971 26.8518 13.5971Z" fill="#030303"/>
<path d="M26.3729 18.5289C26.3772 18.5621 26.3783 18.5943 26.3788 18.6281C26.381 18.7306 26.4019 18.5466 26.3804 18.6319C26.3729 18.6625 26.3664 18.6931 26.3568 18.7236C26.3514 18.7408 26.3433 18.7574 26.3385 18.7752C26.3288 18.8106 26.3853 18.6839 26.3428 18.7612C26.3062 18.8288 26.2696 18.8948 26.2261 18.9581C26.2164 18.9721 26.2062 18.9855 26.1965 19C26.1562 19.0585 26.2105 18.986 26.2121 18.9812C26.1976 19.022 26.1357 19.074 26.1078 19.1057C25.8599 19.3869 25.5689 19.6283 25.2785 19.8639C25.0263 20.0683 24.7483 20.261 24.5241 20.4971C24.4746 20.5491 24.4299 20.6092 24.4133 20.6817L24.4063 20.7353C24.3864 20.8512 24.4079 20.8094 24.4708 20.6103C24.4246 20.6312 24.3681 20.6967 24.3283 20.7289C24.2885 20.7611 24.2487 20.7943 24.2084 20.8265C24.1831 20.8469 24.1578 20.8673 24.1326 20.8872C24.1213 20.8958 24.0207 20.9752 24.0766 20.9317C23.883 21.0814 23.6803 21.222 23.4641 21.3379C23.413 21.3653 23.3619 21.391 23.3092 21.4157C23.2936 21.4232 23.2173 21.456 23.2824 21.4291C23.2587 21.4388 23.2345 21.4479 23.2103 21.457C23.0791 21.5059 22.9419 21.5311 22.8059 21.5627C22.5392 21.6239 22.2724 21.6862 22.0073 21.7559C21.7422 21.8257 21.4658 21.9067 21.2012 22.0006C21.0721 22.0462 20.9442 22.0961 20.8178 22.1492C20.7134 22.1927 20.5812 22.2426 20.4268 22.2882C20.1746 22.3623 19.9159 22.4116 19.6562 22.4503C19.6288 22.4545 19.6014 22.4583 19.5734 22.4621C19.4406 22.4814 19.6143 22.4572 19.5357 22.4674C19.4734 22.4755 19.4115 22.483 19.3491 22.4905C19.2109 22.5071 19.0722 22.5227 18.934 22.5388C18.7882 22.556 18.6431 22.5785 18.4968 22.5946C18.5608 22.5876 18.4677 22.5967 18.4532 22.5984C18.4167 22.6026 18.3801 22.6075 18.3435 22.6123C18.2494 22.6247 18.1548 22.637 18.0612 22.6509C17.7767 22.6923 17.4938 22.7438 17.211 22.7985C16.8996 22.8586 16.5893 22.9225 16.2774 22.9809C15.9451 23.0432 15.7262 23.07 15.3837 23.0936C14.7249 23.1387 14.0645 23.1553 13.4052 23.1956L13.794 23.7048L13.7989 23.6914C13.8822 23.4489 13.6607 23.172 13.4101 23.1822C12.6045 23.2144 11.7973 23.1918 10.9944 23.1119C10.2431 23.0373 9.45909 22.9005 8.67771 22.7062V23.4821L8.69546 23.4789C8.86109 23.4472 8.99876 23.2562 8.99177 23.0909C8.9837 22.9064 8.87077 22.762 8.69546 22.703C7.9243 22.4438 7.14723 22.2007 6.37608 21.941C5.9905 21.8112 5.60653 21.6765 5.2258 21.5338C5.03543 21.4624 4.84613 21.3889 4.65792 21.3127C4.58478 21.2832 4.4697 21.236 4.42452 21.2166C4.36645 21.192 4.23738 21.1361 4.15295 21.0986L4.05669 21.8343L4.07713 21.831C4.232 21.8053 4.34709 21.6384 4.36591 21.4962C4.38742 21.3363 4.31321 21.1796 4.17339 21.0954C4.03357 21.0111 3.90988 20.9312 3.78189 20.8426C3.72274 20.8019 3.66412 20.76 3.60605 20.7176C3.57701 20.6967 3.5485 20.6752 3.52 20.6538C3.50602 20.643 3.49043 20.6328 3.47752 20.6216C3.50817 20.6495 3.52968 20.6623 3.48559 20.6269C3.2565 20.4445 3.03655 20.2508 2.83005 20.0426C2.72734 19.939 2.62785 19.8328 2.53159 19.7228C2.48695 19.6718 2.44232 19.6197 2.3993 19.5672C2.37779 19.5409 2.35628 19.5146 2.33477 19.4883C2.3224 19.4727 2.25195 19.3804 2.28798 19.4293C2.32724 19.4834 2.2584 19.3901 2.25034 19.3794C2.2299 19.3525 2.21001 19.3252 2.19011 19.2983C2.14816 19.2404 2.10675 19.1824 2.06696 19.1234C1.98683 19.0059 1.90993 18.8862 1.83733 18.765C1.69429 18.5267 1.56522 18.2804 1.45014 18.0271C1.4367 17.9971 1.42272 17.967 1.40981 17.9365C1.40443 17.9241 1.35711 17.8184 1.38615 17.8823C1.41519 17.9461 1.36894 17.8399 1.3641 17.8275C1.35012 17.7932 1.33667 17.7588 1.32323 17.724C1.27268 17.5936 1.22589 17.4616 1.18234 17.328C1.09737 17.0661 1.02585 16.7994 0.968842 16.5295C0.940878 16.397 0.916141 16.2634 0.894631 16.1292C0.889253 16.0965 0.884413 16.0643 0.879573 16.0316C0.877422 16.0155 0.874733 15.9988 0.872582 15.9827C0.862365 15.914 0.876347 16.0101 0.876884 16.0165C0.872044 15.943 0.8586 15.8695 0.851072 15.796C0.794068 15.2476 0.792455 14.6938 0.844618 14.1454C0.851072 14.08 0.858063 14.0145 0.865591 13.9491C0.869356 13.9163 0.873658 13.8836 0.87796 13.8509C0.881186 13.8246 0.895168 13.779 0.873658 13.8847C0.87796 13.8648 0.879573 13.8439 0.882262 13.8235C0.902159 13.6893 0.924746 13.5552 0.951096 13.4221C1.00487 13.1474 1.07209 12.8759 1.1533 12.6081C1.2345 12.3404 1.32269 12.0925 1.42648 11.8419C1.46789 11.7415 1.40658 11.8864 1.43401 11.8242C1.44745 11.7941 1.46036 11.7641 1.4738 11.734C1.50392 11.6664 1.53511 11.5993 1.56684 11.5328C1.62545 11.4104 1.6873 11.2897 1.75183 11.1706C1.88358 10.9286 2.0277 10.693 2.18419 10.466C2.22184 10.4118 2.25948 10.3582 2.29874 10.3045C2.3181 10.2777 2.33799 10.2514 2.35735 10.2251C2.37833 10.1972 2.4676 10.106 2.38424 10.1886C2.47889 10.0942 2.55633 9.97453 2.64452 9.87311C2.82736 9.66331 3.02203 9.46423 3.22746 9.27643C3.33232 9.18038 3.44041 9.08755 3.55119 8.99847C3.57754 8.97754 3.60336 8.95662 3.63024 8.93569C3.64208 8.92603 3.66036 8.91584 3.67004 8.90457C3.6652 8.91047 3.59368 8.96252 3.64853 8.9212C3.70338 8.87988 3.76361 8.83535 3.82223 8.79349C4.05562 8.62715 4.29923 8.4753 4.55144 8.33847C4.68158 8.26764 4.81387 8.2011 4.94831 8.13832C5.0123 8.1088 5.07683 8.08037 5.14137 8.05193C5.17148 8.03851 5.18116 8.01758 5.11824 8.06158C5.13061 8.053 5.15481 8.04656 5.16772 8.04119C5.20482 8.02617 5.24193 8.01114 5.27957 7.99666C5.41832 7.94246 5.55814 7.8931 5.69957 7.84695C6.08515 7.72192 6.07923 7.19875 5.69957 7.07104L5.65547 7.05601L5.93726 7.55129C6.00233 7.14723 6.10666 6.75016 6.23841 6.36274C6.3067 6.16098 6.38307 5.96244 6.46481 5.76551C6.43523 5.83688 6.46588 5.76283 6.47341 5.74512C6.48524 5.71722 6.49761 5.68986 6.50944 5.66195C6.52934 5.61742 6.54924 5.57341 6.56913 5.52941C6.62022 5.41834 6.67292 5.30888 6.72778 5.19941C6.92836 4.79965 7.15369 4.4117 7.40321 4.04038C7.46075 3.95506 7.51937 3.87028 7.57906 3.78657C7.61401 3.73774 7.64951 3.68945 7.68554 3.64115C7.70006 3.62184 7.71404 3.60306 7.72856 3.58374C7.73286 3.57784 7.80492 3.485 7.75222 3.55208C7.88182 3.38735 8.01572 3.22583 8.15716 3.07076C8.29859 2.91568 8.44056 2.77134 8.59167 2.63129C8.66212 2.56636 8.73418 2.50358 8.80732 2.44187C8.84066 2.41397 8.87454 2.38714 8.90788 2.35924C8.92293 2.3469 8.96811 2.31309 8.89551 2.36836C8.91917 2.35065 8.94229 2.33295 8.96596 2.31524C9.27033 2.09041 9.59998 1.89992 9.94308 1.74109C9.98126 1.72338 10.02 1.70621 10.0587 1.68904C10.0781 1.68045 10.0974 1.6724 10.1168 1.66382C10.034 1.69923 10.1023 1.67026 10.1232 1.66167C10.2173 1.62357 10.312 1.58762 10.4077 1.55435C10.5948 1.48889 10.7852 1.43255 10.9783 1.38533C11.1713 1.33811 11.3655 1.30108 11.5618 1.27372C11.4709 1.28606 11.5784 1.27264 11.6134 1.26889C11.6661 1.26298 11.7193 1.25815 11.772 1.2544C11.8667 1.24689 11.9618 1.24206 12.057 1.24045C12.2668 1.23615 12.5066 1.22489 12.712 1.27264C12.7002 1.26996 12.6212 1.25923 12.6964 1.2705C12.7271 1.27533 12.7572 1.27962 12.7879 1.28498C12.8384 1.29357 12.8884 1.30323 12.9384 1.31396C13.0379 1.33489 13.1363 1.36011 13.2337 1.38908C13.3401 1.42128 13.4439 1.45884 13.5472 1.50016C13.4541 1.46313 13.5907 1.52055 13.6166 1.53289C13.6617 1.55435 13.7069 1.57743 13.751 1.60104C13.8397 1.64879 13.9263 1.70084 14.0102 1.75718C14.0521 1.78562 14.0936 1.81567 14.1344 1.84572C14.0613 1.79206 14.1194 1.83445 14.1371 1.84894C14.1651 1.87148 14.1925 1.89509 14.2199 1.91816C14.3877 2.06304 14.6233 2.07753 14.7905 1.91816C14.8798 1.83284 14.9717 1.75021 15.0669 1.67079C15.1094 1.63538 15.1519 1.60104 15.1954 1.56723C15.1196 1.62626 15.2062 1.56025 15.2175 1.55167C15.2433 1.53235 15.2696 1.51357 15.296 1.49533C15.4831 1.36333 15.68 1.24474 15.8854 1.14279C15.9397 1.11596 15.9946 1.09127 16.0494 1.06606C16.0677 1.05747 16.1209 1.03654 16.0354 1.07142C16.0629 1.06015 16.0903 1.04888 16.1182 1.03815C16.2183 0.998981 16.3199 0.964103 16.4232 0.933517C16.5264 0.902932 16.6264 0.878248 16.7297 0.856785C16.7759 0.847126 16.8227 0.838541 16.869 0.831028C16.898 0.826199 16.9771 0.79776 16.8733 0.828882C16.8975 0.82137 16.9319 0.821906 16.9566 0.819223C17.1588 0.798296 17.3626 0.795077 17.5654 0.811711C17.5928 0.813858 17.6202 0.81654 17.6476 0.819223L17.6751 0.822443C17.7197 0.827809 17.7116 0.826736 17.6498 0.818687C17.6729 0.805809 17.7595 0.836394 17.7853 0.841224C17.8843 0.860004 17.9827 0.883078 18.0795 0.91098C18.1763 0.938883 18.272 0.973761 18.3677 1.00918C18.4548 1.04137 18.3075 0.980201 18.3613 1.00596C18.3822 1.01615 18.4037 1.02474 18.4253 1.0344C18.4763 1.05801 18.5269 1.08269 18.5769 1.10845C18.6694 1.15674 18.7597 1.20986 18.8479 1.26674C18.8883 1.29303 18.9286 1.3204 18.9679 1.3483C18.9915 1.36547 19.0146 1.38318 19.0388 1.40035C18.9544 1.34133 19.0362 1.39874 19.0501 1.41001C19.2497 1.57099 19.432 1.75289 19.5954 1.95036C19.6126 1.97075 19.6288 1.99221 19.646 2.0126C19.6637 2.03514 19.6594 2.02923 19.6331 1.99489C19.6465 2.01206 19.6594 2.02977 19.6723 2.04694C19.7121 2.10006 19.7503 2.15426 19.7874 2.20953C19.8708 2.33295 19.9477 2.46065 20.0203 2.59158L19.9654 2.38821V2.40646C19.967 2.605 20.1499 2.83466 20.3687 2.8089C20.6726 2.77349 20.9764 2.7751 21.2803 2.80783C21.4029 2.82124 21.2001 2.7928 21.3211 2.81373C21.3577 2.82017 21.3948 2.82554 21.4314 2.83251C21.505 2.84593 21.5776 2.86095 21.6508 2.87812C21.7965 2.91246 21.9401 2.95378 22.0821 3.001C22.153 3.02461 22.224 3.05037 22.2939 3.0772C22.3289 3.09061 22.3639 3.10456 22.3988 3.11851C22.5139 3.16359 22.3284 3.08632 22.4413 3.13622C22.58 3.19739 22.7172 3.26178 22.8521 3.33154C23.1243 3.47159 23.3872 3.62827 23.6443 3.79462C23.9013 3.96096 24.1503 4.13696 24.3961 4.31779C24.5171 4.40687 24.6375 4.49701 24.7569 4.58823C24.8155 4.63277 24.8731 4.67785 24.9338 4.71916C24.9575 4.73526 24.9812 4.75243 25.0054 4.76746C25.0285 4.78463 25.0242 4.78033 24.9914 4.75565C25.0086 4.7696 25.0258 4.78409 25.0425 4.79911C25.0919 4.84258 25.1382 4.8898 25.1812 4.93917C25.192 4.95151 25.2522 5.0379 25.199 4.95956C25.2172 4.98639 25.2361 5.01268 25.2533 5.04004C25.2882 5.09478 25.3173 5.15219 25.3468 5.20961C25.3807 5.27561 25.3511 5.21658 25.3458 5.20263C25.3624 5.24288 25.3775 5.28366 25.3909 5.32551C25.4334 5.45376 25.4452 5.58576 25.4786 5.71507C25.5297 5.91576 25.7588 6.00913 25.9142 6.12342C25.8341 6.06439 25.9153 6.12503 25.9287 6.1363C25.9513 6.15508 25.9733 6.1744 25.9948 6.19371C26.0357 6.23128 26.0755 6.26991 26.1132 6.31069C26.1309 6.33001 26.1481 6.35093 26.1659 6.37079C26.1158 6.2962 26.2266 6.43894 26.1659 6.37079C26.1944 6.41211 26.2229 6.45342 26.2481 6.49689C26.2734 6.54035 26.2944 6.58381 26.3164 6.62782C26.3557 6.70669 26.2842 6.53928 26.3143 6.62245C26.3229 6.64606 26.332 6.66913 26.3396 6.69221C26.3729 6.78933 26.3976 6.88913 26.417 6.99001C26.4256 7.03562 26.4509 7.10538 26.4439 7.15099C26.4579 7.06138 26.439 7.1145 26.4439 7.15636C26.4471 7.18533 26.4503 7.21431 26.453 7.24328C26.4654 7.36777 26.4745 7.4928 26.4826 7.61836C26.4848 7.65056 26.502 7.79168 26.5014 7.79222C26.4971 7.79812 26.5106 7.64573 26.4966 7.74339C26.5073 7.66826 26.5063 7.71978 26.4821 7.75626C26.5358 7.67685 26.474 7.75626 26.46 7.77075C26.3229 7.90436 26.2368 8.03851 26.203 8.23115C26.197 8.26495 26.1933 8.29876 26.1874 8.33256C26.1847 8.34866 26.1599 8.41895 26.1653 8.43183L26.2207 8.34759C26.204 8.36798 26.1874 8.38783 26.1707 8.40769C26.1454 8.43773 26.1196 8.46725 26.0933 8.49622C25.9873 8.6132 25.8749 8.72427 25.7598 8.83266C25.6448 8.94106 25.5259 9.04784 25.4087 9.15516C25.3597 9.19969 25.3113 9.24477 25.2635 9.28984C25.2344 9.31721 25.2059 9.34404 25.1774 9.37194C25.1613 9.38804 25.0849 9.48355 25.0656 9.48301L25.1113 9.45296C25.0801 9.47389 25.0505 9.49643 25.022 9.52111C24.9908 9.55116 24.9774 9.56404 24.9457 9.61501C24.9188 9.6574 24.8978 9.70462 24.8849 9.75345C24.8553 9.86506 24.8655 9.98311 24.8924 10.0937C24.9371 10.2772 25.0322 10.4548 25.1242 10.619C25.2296 10.8073 25.3463 10.9887 25.463 11.1695C25.506 11.2366 25.5501 11.3031 25.5915 11.3713C25.6066 11.396 25.6206 11.4217 25.6356 11.4464C25.6604 11.4861 25.6555 11.4786 25.7071 11.5441C25.7367 11.5811 25.7399 11.5848 25.7163 11.5548C25.7319 11.5757 25.7469 11.5961 25.762 11.6176C26.1594 12.1751 26.3207 12.7771 26.4234 13.4903C26.4536 13.6995 26.7305 13.8326 26.9198 13.7714C27.1489 13.6974 27.2339 13.5005 27.2016 13.2762C27.1446 12.8828 27.0618 12.4917 26.923 12.1182C26.8494 11.9197 26.7644 11.7227 26.6622 11.5365C26.6165 11.4523 26.5665 11.3702 26.5133 11.2908C26.488 11.2532 26.4627 11.2162 26.4358 11.1797C26.4208 11.1588 26.4046 11.1384 26.389 11.1175L26.3261 11.0359C26.2965 10.9978 26.2938 10.9951 26.3191 11.0268C26.3396 11.0284 26.339 11.0558 26.3218 11.0214C26.3143 11.0064 26.3046 10.9919 26.2955 10.9774C26.2723 10.9393 26.2487 10.9023 26.2245 10.8647C26.1659 10.773 26.1067 10.6823 26.0481 10.5905C25.9798 10.4832 25.9131 10.3754 25.8496 10.2654C25.7921 10.1656 25.7507 10.0486 25.6883 9.95253C25.6899 9.95468 25.7254 10.0513 25.7066 9.99438C25.7039 9.9858 25.7002 9.97721 25.6969 9.96809C25.6899 9.94877 25.6835 9.92999 25.6776 9.91014C25.6738 9.89726 25.6716 9.85916 25.663 9.85004C25.6872 9.8758 25.663 9.96487 25.6722 9.89243C25.669 9.91926 25.6614 9.98204 25.6313 10.0357C25.648 10.0057 25.6668 10.0126 25.5845 10.0958C25.5991 10.0813 25.4931 10.1709 25.5216 10.1452C25.613 10.0647 25.7012 9.98419 25.79 9.89994C26.0857 9.6177 26.4025 9.35638 26.6757 9.05106C26.7509 8.96681 26.8424 8.87506 26.8913 8.77418C26.9402 8.6733 26.9601 8.57242 26.9779 8.46242C26.9816 8.43988 26.9849 8.41788 26.9897 8.39588C26.9924 8.38354 27.0058 8.31378 26.9929 8.36476C26.9795 8.41842 26.9999 8.35242 26.9999 8.35349C26.9999 8.3932 26.9666 8.39105 27.0058 8.36315C27.0887 8.30359 27.1618 8.19949 27.2102 8.11095C27.271 8.00041 27.3065 7.86573 27.3005 7.73963C27.2984 7.69778 27.2876 7.65699 27.2849 7.61514C27.2898 7.69724 27.2898 7.63553 27.2892 7.6189C27.2876 7.5706 27.2828 7.52177 27.2796 7.47348C27.2667 7.29426 27.2473 7.11558 27.222 6.93743C27.1774 6.62674 27.0876 6.31606 26.9187 6.0483C26.709 5.71508 26.4041 5.46449 26.0707 5.26112L26.2562 5.50151C26.1944 5.05507 26.0045 4.6215 25.6851 4.29848C25.513 4.12462 25.2984 3.9953 25.1043 3.84828C24.9236 3.71145 24.7413 3.57623 24.5569 3.44476C23.7803 2.89154 22.9382 2.38875 22.01 2.13924C21.4776 1.99597 20.9167 1.9407 20.3682 2.00455L20.7715 2.40699C20.7699 2.23582 20.664 2.08611 20.5758 1.94553C20.5048 1.83231 20.4295 1.72177 20.3488 1.61499C20.1827 1.39499 20.0052 1.18464 19.8019 0.997908C19.4298 0.655563 19.0039 0.391561 18.5307 0.213413C17.6084 -0.133225 16.5904 -0.0355651 15.6977 0.34756C15.147 0.58366 14.6523 0.93781 14.2199 1.34937H14.7905C13.4654 0.203754 11.5257 0.249901 9.96943 0.862151C9.1816 1.17176 8.47175 1.61499 7.86784 2.20953C7.20101 2.86524 6.6498 3.64866 6.20292 4.4675C5.71678 5.35824 5.32098 6.33162 5.15965 7.33719C5.12362 7.56202 5.21558 7.75626 5.44144 7.83246L5.48554 7.84748V7.07158C4.30729 7.45416 3.22853 8.10827 2.36166 8.99418C1.49478 9.88009 0.908075 10.8798 0.507977 11.9964C0.107879 13.113 -0.0502238 14.2528 0.0137703 15.4016C0.0799155 16.5891 0.385904 17.7562 0.939803 18.8106C1.4937 19.865 2.36004 20.8351 3.37534 21.5359C3.50333 21.6239 3.63401 21.7082 3.76684 21.7886L3.8631 21.053L3.84266 21.0562C3.51409 21.1115 3.43719 21.655 3.7464 21.7919C5.28172 22.4723 6.89233 22.9439 8.48143 23.4784V22.7025L8.46368 22.7057C8.06681 22.7819 8.09155 23.3893 8.46368 23.4816C10.077 23.8819 11.7494 24.0525 13.4101 23.986L13.0212 23.4768L13.0164 23.4902C12.9347 23.7284 13.1535 24.015 13.4052 23.9994C13.8295 23.9736 14.2543 23.957 14.6792 23.9371C15.1223 23.9162 15.574 23.906 16.0128 23.8406C16.421 23.7799 16.8254 23.6914 17.2298 23.6114C17.4325 23.5717 17.6353 23.5326 17.8386 23.4966C17.9332 23.48 18.0273 23.4639 18.122 23.4489C18.173 23.4408 18.2241 23.4328 18.2752 23.4258C18.2973 23.4226 18.3188 23.4193 18.3408 23.4161C18.3693 23.4124 18.3699 23.4118 18.3435 23.4161L18.3876 23.4108C18.4387 23.4043 18.4903 23.3989 18.5414 23.3925C18.5844 23.3871 18.6275 23.3818 18.6705 23.3759C18.6716 23.3759 18.7388 23.3662 18.699 23.3716C18.6543 23.3775 18.7393 23.3662 18.7485 23.3651C18.7689 23.3625 18.7899 23.3598 18.8103 23.3576C18.8657 23.3507 18.9205 23.3442 18.9759 23.3378C19.1695 23.3152 19.3637 23.2938 19.5573 23.2686C19.9633 23.2154 20.3704 23.1543 20.7602 23.0266C20.9834 22.9536 21.1006 22.8919 21.3147 22.813C21.504 22.7427 21.6959 22.6805 21.8895 22.6241C22.2767 22.5109 22.6704 22.4191 23.0635 22.329C23.4899 22.2308 23.8734 22.058 24.2337 21.8101C24.4219 21.6803 24.602 21.5391 24.7795 21.3953C24.9785 21.2349 25.2162 21.0766 25.2065 20.7884L25.0882 21.0728C25.4797 20.6843 25.9475 20.3769 26.3535 20.0029C26.7595 19.6289 27.2554 19.1121 27.1801 18.5283C27.1532 18.3201 27.0139 18.1151 26.7768 18.1259C26.5816 18.1345 26.3444 18.3046 26.3734 18.5283L26.3729 18.5289Z" fill="white"/>
<path d="M13.9397 1.67133C14.0892 1.78777 14.2317 1.91334 14.3624 2.0507C14.3974 2.08773 14.4318 2.12529 14.4651 2.16339C14.492 2.19451 14.5286 2.22724 14.5479 2.26319C14.5087 2.19075 14.5522 2.26963 14.5646 2.28627C14.577 2.3029 14.5894 2.32061 14.6017 2.33832C14.6275 2.37588 14.6528 2.41451 14.6765 2.45368C14.7233 2.53095 14.7636 2.61037 14.8012 2.69246C14.8104 2.71393 14.8066 2.70481 14.7899 2.66617C14.7948 2.67851 14.8002 2.69139 14.8045 2.70427C14.8114 2.72305 14.8184 2.74237 14.8249 2.76169C14.8389 2.803 14.8507 2.84486 14.8615 2.88725C14.8668 2.90978 14.8722 2.93286 14.8765 2.95593C14.8792 2.96988 14.8787 3.00583 14.8867 3.01496C14.8803 2.96613 14.8792 2.95861 14.8835 2.99242L14.8857 3.01227C14.8878 3.03535 14.8894 3.05896 14.8905 3.08257C14.8921 3.12657 14.8921 3.17003 14.8894 3.21403C14.8883 3.23442 14.8862 3.25481 14.8846 3.2752C14.8808 3.30954 14.8814 3.30257 14.8878 3.25481C14.8857 3.26876 14.8835 3.28218 14.8808 3.29559C14.8523 3.45389 14.9238 3.63525 15.0965 3.67443C15.247 3.70877 15.446 3.62882 15.4761 3.45925C15.5568 3.01066 15.4605 2.57227 15.2325 2.17948C15.0185 1.81085 14.7125 1.49694 14.378 1.23616C14.3108 1.18357 14.2489 1.14601 14.1597 1.14601C14.0839 1.14601 13.9935 1.17982 13.9413 1.23616C13.8397 1.3467 13.8053 1.56616 13.9413 1.67187L13.9397 1.67133Z" fill="white"/>
<path d="M20.4166 2.31792C19.2502 2.09524 17.9811 2.47568 17.1599 3.3412C16.9421 3.57086 16.7555 3.83379 16.6221 4.12086C16.5662 4.2416 16.5839 4.40097 16.7136 4.46911C16.8259 4.52867 17.0029 4.50667 17.0626 4.37789C17.1169 4.26092 17.1793 4.14823 17.2497 4.04091C17.2836 3.9894 17.3196 3.9395 17.3562 3.89013C17.3314 3.92018 17.3927 3.84076 17.3562 3.89013C17.3659 3.87833 17.3755 3.86598 17.3852 3.85418C17.4089 3.82574 17.4331 3.7973 17.4578 3.7694C17.5428 3.67389 17.6337 3.58427 17.7299 3.50057C17.7536 3.48018 17.7778 3.45979 17.802 3.43993C17.8144 3.42974 17.8267 3.42008 17.8386 3.41042C17.8864 3.37125 17.8074 3.43296 17.8391 3.40988C17.8923 3.37018 17.9461 3.33154 18.001 3.29452C18.1123 3.22047 18.2279 3.15286 18.3473 3.09276C18.4048 3.06378 18.4629 3.03695 18.5215 3.01066C18.564 2.99134 18.5215 3.01066 18.514 3.01388C18.5317 3.00583 18.55 2.99939 18.5678 2.99188C18.6038 2.97739 18.6398 2.96398 18.6764 2.9511C18.7985 2.90763 18.9227 2.87061 19.0491 2.8411C19.1125 2.82607 19.176 2.81319 19.24 2.80193C19.2722 2.79602 19.3045 2.79173 19.3362 2.78636C19.4024 2.77617 19.2792 2.7928 19.3459 2.78529C19.3653 2.78314 19.3846 2.78046 19.4045 2.77885C19.5546 2.76329 19.7057 2.75793 19.8563 2.76275C19.9353 2.76544 20.0144 2.7708 20.0929 2.77993C20.1058 2.78154 20.1192 2.78315 20.1321 2.78422C20.1612 2.78797 20.1585 2.78744 20.1235 2.78315C20.1364 2.78475 20.1499 2.7869 20.1628 2.78905C20.202 2.79495 20.2413 2.80193 20.2806 2.80944C20.4112 2.83412 20.5623 2.77295 20.5946 2.63183C20.6231 2.50626 20.5564 2.34529 20.4166 2.31846V2.31792Z" fill="white"/>
<path d="M8.78041 5.19297C8.90787 5.06473 9.04069 4.94185 9.17944 4.82595C9.2117 4.79912 9.24451 4.77229 9.27731 4.74599C9.29398 4.73312 9.31011 4.7197 9.32678 4.70682C9.33431 4.70092 9.36658 4.67731 9.33539 4.70038C9.30043 4.72614 9.3483 4.69073 9.35098 4.68858C9.42036 4.63599 9.49134 4.58555 9.56286 4.53619C9.85756 4.33389 10.17 4.15789 10.4948 4.00926C10.533 3.99155 10.5717 3.97438 10.6104 3.95774C10.6255 3.9513 10.7019 3.92233 10.6293 3.94969C10.6518 3.94111 10.6739 3.93145 10.6959 3.92233C10.7798 3.88852 10.8643 3.85633 10.9492 3.82574C11.117 3.76564 11.2869 3.71252 11.4585 3.66637C11.63 3.62023 11.8107 3.57837 11.9887 3.54511C12.0748 3.52901 12.1613 3.51452 12.2485 3.50164C12.2727 3.49789 12.2963 3.49467 12.3205 3.49145C12.37 3.48447 12.2608 3.49896 12.3302 3.49037C12.3754 3.48447 12.4206 3.47964 12.4657 3.47481C12.8239 3.43671 13.1853 3.42598 13.545 3.44315C13.7262 3.45174 13.9069 3.4673 14.0871 3.49037C14.15 3.49842 14.0473 3.48447 14.0962 3.49145C14.1172 3.49467 14.1382 3.49735 14.1591 3.50057C14.2038 3.50701 14.2484 3.51452 14.2931 3.52203C14.3823 3.53706 14.4711 3.55423 14.5598 3.57247C14.9099 3.64652 15.254 3.74847 15.5869 3.8794C15.6289 3.89604 15.6703 3.91374 15.7122 3.93038C15.6649 3.91213 15.6923 3.92179 15.7224 3.93521C15.7445 3.94487 15.7665 3.95452 15.788 3.96418C15.8703 4.00121 15.9515 4.03984 16.0316 4.08009C16.1898 4.1595 16.3441 4.24643 16.4947 4.3398C16.571 4.38755 16.6469 4.43692 16.7205 4.48789C16.7942 4.53887 16.8776 4.58609 16.9399 4.64726C16.9356 4.64297 16.8915 4.6097 16.9286 4.63868C16.9356 4.64404 16.9432 4.64994 16.9502 4.65531C16.9668 4.66819 16.9835 4.6816 16.9996 4.69502C17.0373 4.7256 17.0744 4.75619 17.1115 4.78785C17.1809 4.84687 17.2486 4.90751 17.3153 4.97029C17.4557 5.10229 17.6062 5.22624 17.7299 5.37434C17.7364 5.38239 17.7428 5.39098 17.7498 5.39849C17.7138 5.35663 17.7385 5.38346 17.746 5.3942C17.76 5.41405 17.7745 5.4339 17.788 5.45376C17.8181 5.49937 17.8455 5.54712 17.8692 5.59649C17.8708 5.59917 17.8832 5.62171 17.8821 5.62386C17.8837 5.62117 17.8644 5.5761 17.8773 5.61527C17.8843 5.63727 17.8923 5.65874 17.8982 5.68127C17.902 5.69469 17.9197 5.73708 17.9133 5.74781C17.9138 5.74674 17.9079 5.67966 17.9111 5.73386C17.9117 5.74674 17.9128 5.75961 17.9133 5.77249C17.9133 5.78698 17.9041 5.83849 17.9101 5.84976C17.9085 5.84708 17.9203 5.79771 17.9122 5.82669C17.9085 5.83957 17.9068 5.85244 17.9036 5.86532C17.8977 5.88732 17.8929 5.91308 17.8816 5.93293C17.9122 5.88035 17.8703 5.94903 17.8606 5.96459C17.7896 6.08586 17.8283 6.26401 17.9569 6.33162C18.0854 6.39923 18.2489 6.36489 18.3247 6.23557C18.4564 6.00967 18.4855 5.73922 18.4016 5.49132C18.3225 5.2579 18.1763 5.05346 18.0036 4.87907C17.9343 4.80878 17.8563 4.74868 17.7864 4.67999C17.7165 4.61131 17.6503 4.54907 17.5799 4.48629C17.4271 4.35053 17.2669 4.22336 17.1018 4.1037C16.4893 3.65833 15.7843 3.33691 15.0529 3.13998C14.3194 2.94251 13.5482 2.86685 12.7905 2.91193C12.028 2.95754 11.2692 3.11744 10.5604 3.40291C9.8382 3.69374 9.16868 4.09887 8.59489 4.62634C8.5282 4.68751 8.46313 4.75029 8.39968 4.81468C8.30073 4.91448 8.29212 5.09585 8.39968 5.19405C8.50723 5.29224 8.67447 5.30083 8.77988 5.19405L8.78041 5.19297Z" fill="white"/>
<path d="M18.35 6.04079C17.8375 5.43551 16.9604 5.28151 16.2097 5.25361C15.3552 5.22141 14.4926 5.34859 13.6585 5.52459C13.2831 5.60347 12.911 5.6963 12.5426 5.80254C12.3888 5.84708 12.277 6.0204 12.3286 6.17869C12.3802 6.33699 12.5405 6.44001 12.7056 6.39225C13.0191 6.30157 13.3353 6.22108 13.6537 6.15025C13.8413 6.1084 14.0301 6.0703 14.2194 6.03542C14.3216 6.01664 14.4232 5.99947 14.5259 5.98284C14.5738 5.97532 14.6216 5.96781 14.669 5.96084C14.6942 5.95708 14.7201 5.95332 14.7453 5.94957C14.769 5.94635 14.883 5.93293 14.7749 5.94527C15.1858 5.89752 15.5955 5.85727 16.0096 5.85996C16.2118 5.86103 16.414 5.87123 16.6146 5.8943C16.6356 5.89698 16.6565 5.89966 16.6775 5.90181C16.57 5.89054 16.6565 5.89913 16.6813 5.90288C16.7297 5.9104 16.7781 5.91845 16.8259 5.92757C16.9141 5.9442 17.0023 5.96406 17.0889 5.98767C17.1836 6.01342 17.2766 6.04401 17.3675 6.0805C17.3761 6.08372 17.3847 6.08747 17.3933 6.09123C17.4245 6.10357 17.3137 6.05581 17.3712 6.08211C17.3922 6.09176 17.4132 6.10089 17.4336 6.11054C17.4761 6.13094 17.5181 6.15294 17.5589 6.17655C17.5971 6.19855 17.6347 6.22162 17.6713 6.2463C17.6896 6.25864 17.7068 6.27152 17.7246 6.28386C17.7832 6.32572 17.6697 6.23772 17.724 6.28386C17.7928 6.34235 17.8574 6.40352 17.916 6.47274C18.0198 6.59562 18.244 6.58757 18.3494 6.47274C18.4694 6.34235 18.4602 6.17118 18.3494 6.04025L18.35 6.04079Z" fill="white"/>
<path d="M12.825 5.83098C12.0764 5.90985 11.3563 6.11429 10.647 6.35952C10.3007 6.47918 9.95706 6.60635 9.61182 6.72815C9.43435 6.79094 9.26065 6.85801 9.07405 6.88752C9.05684 6.8902 9.04017 6.89289 9.02296 6.89503C8.93853 6.90791 9.07674 6.88967 8.99177 6.89933C8.94875 6.90416 8.90627 6.90952 8.86325 6.91328C8.75999 6.92347 8.65674 6.93045 8.55349 6.93581C8.12167 6.95782 7.68823 6.94708 7.2564 6.96962C7.11604 6.97713 6.98053 7.08767 6.98752 7.23791C6.99397 7.37689 7.10583 7.51426 7.2564 7.50621C7.64521 7.48582 8.03509 7.4928 8.42389 7.47777C8.61372 7.4708 8.80355 7.45845 8.99177 7.43538C9.10148 7.42197 9.21064 7.40694 9.31927 7.38709C9.40854 7.37045 9.49458 7.33557 9.58009 7.30606C10.2717 7.06674 10.9541 6.79737 11.6602 6.60152C11.8581 6.54625 12.0576 6.49742 12.2592 6.45664C12.356 6.43679 12.4534 6.41908 12.5512 6.40352C12.6002 6.39547 12.6491 6.38849 12.6986 6.38152C12.6373 6.38957 12.719 6.37937 12.726 6.3783C12.7588 6.37454 12.7922 6.37078 12.825 6.36703C12.9642 6.35254 13.1008 6.25434 13.0938 6.09873C13.0879 5.9662 12.975 5.81488 12.825 5.83044V5.83098Z" fill="white"/>
<path d="M17.9434 6.06816L17.9036 6.11591C17.8144 6.22377 17.7902 6.39011 17.9036 6.49421C18.0171 6.59831 18.1757 6.59884 18.2828 6.49421C18.4037 6.37616 18.5301 6.26294 18.6635 6.15777C18.6716 6.15133 18.7286 6.1084 18.6759 6.14811C18.6925 6.13577 18.7092 6.12289 18.7259 6.11055C18.7533 6.09016 18.7813 6.0703 18.8092 6.05045C18.8748 6.0043 18.9421 5.9603 19.0103 5.91791C19.1335 5.84225 19.2609 5.77303 19.3916 5.71186C19.4228 5.69737 19.454 5.68288 19.4857 5.66893C19.5008 5.66249 19.5583 5.64532 19.4906 5.66679C19.5019 5.66303 19.5137 5.65713 19.525 5.65283C19.5933 5.62547 19.6627 5.59971 19.7326 5.5761C19.9977 5.48649 20.2725 5.42478 20.5494 5.38561C20.5602 5.384 20.5747 5.38025 20.586 5.38078C20.5123 5.38078 20.5688 5.38347 20.5876 5.38078C20.6242 5.37649 20.6608 5.3722 20.6979 5.36844C20.7656 5.36147 20.8334 5.35556 20.9017 5.3502C21.0463 5.33947 21.191 5.33303 21.3362 5.32927C21.6352 5.32176 21.9347 5.32659 22.2337 5.33303C22.5687 5.34054 22.9048 5.34108 23.2388 5.37166C23.334 5.38025 23.4292 5.39044 23.5238 5.40225C23.5496 5.40547 23.5754 5.40869 23.6013 5.41191C23.6093 5.41298 23.654 5.41942 23.6077 5.41244C23.6679 5.42103 23.7282 5.42961 23.7884 5.43873C23.9772 5.46825 24.1648 5.50366 24.3514 5.54391C24.6359 5.60561 24.9236 5.6582 25.2033 5.73976C25.2737 5.76015 25.3436 5.78269 25.413 5.80737C25.449 5.82025 25.4845 5.83367 25.52 5.84762C25.5275 5.85084 25.5652 5.86049 25.5684 5.86747L25.5367 5.85406C25.5474 5.85889 25.5582 5.86318 25.5684 5.86801C25.7039 5.92864 25.8346 6.00055 25.9545 6.08801C25.9599 6.09177 25.9766 6.10786 25.9814 6.10786C25.9497 6.08318 25.9448 6.07942 25.9669 6.09713C25.9755 6.10411 25.9841 6.11108 25.9927 6.11859C26.0185 6.14006 26.0432 6.1626 26.0674 6.18567C26.0954 6.2125 26.1228 6.24094 26.1487 6.26991C26.1562 6.2785 26.1632 6.28655 26.1707 6.29513C26.1777 6.30372 26.1852 6.3123 26.1922 6.32089C26.1675 6.28869 26.1637 6.28386 26.1809 6.30694C26.2239 6.36757 26.2637 6.42928 26.2971 6.49635C26.3035 6.50923 26.3094 6.52265 26.3159 6.53606C26.346 6.59777 26.3019 6.49474 26.3202 6.54572C26.3347 6.58597 26.3487 6.62567 26.3611 6.66699C26.4003 6.80114 26.5514 6.8988 26.6907 6.85372C26.83 6.80865 26.9198 6.6686 26.8779 6.52479C26.7924 6.23182 26.6273 5.96459 26.3976 5.7623C26.168 5.56 25.8991 5.42049 25.6136 5.31264C25.3576 5.21605 25.0903 5.15166 24.822 5.09907C24.6359 5.06258 24.4515 5.01644 24.2649 4.98049C24.0535 4.93971 23.8411 4.90697 23.6281 4.87907C23.256 4.83024 22.8866 4.81253 22.5117 4.80341C22.1971 4.79536 21.8831 4.78731 21.5685 4.78946C20.97 4.79322 20.3618 4.83507 19.7831 4.9998C19.0679 5.20317 18.4349 5.5981 17.9047 6.11538L18.2838 6.49367L18.3236 6.44591C18.4129 6.33806 18.4371 6.17172 18.3236 6.06762C18.2252 5.97747 18.0402 5.95225 17.9445 6.06762L17.9434 6.06816Z" fill="white"/>
<path d="M14.6405 14.6531C13.3202 14.5672 12.0006 14.4754 10.6777 14.4449C9.22463 14.4116 7.7533 14.4298 6.31639 14.6713C5.6587 14.7818 4.9994 14.9466 4.40248 15.2514C4.23792 15.3356 4.24223 15.5492 4.34817 15.6726L4.37774 15.7069L4.43206 15.2857C3.81416 15.7622 3.31673 16.4061 3.22531 17.2003C3.18121 17.5834 3.26134 17.9654 3.42267 18.3131C3.46569 18.4049 3.51248 18.5015 3.57593 18.5814C3.63939 18.6614 3.73135 18.7274 3.81309 18.7907C3.95882 18.9034 4.11155 19.0043 4.27557 19.0885C4.93594 19.4282 5.68451 19.5274 6.41856 19.5478C7.15261 19.5682 7.90387 19.5258 8.64545 19.5194C9.74088 19.5103 10.8347 19.5693 11.929 19.6063L11.6602 19.338V19.3842C11.6591 19.5296 11.7839 19.6519 11.929 19.6525C14.3565 19.6621 16.7829 19.741 19.2099 19.7474C20.4182 19.7507 21.6271 19.7356 22.8349 19.6852C23.1345 19.6729 23.434 19.6578 23.7335 19.6407C23.9981 19.6251 24.2627 19.5468 24.5208 19.4877C25.0134 19.3751 25.5049 19.249 25.9782 19.0697C26.2422 18.9699 26.5025 18.8562 26.7493 18.7199C26.9962 18.5836 27.2446 18.4301 27.4205 18.2005C27.7614 17.7546 27.8523 17.1498 27.6899 16.6164V16.7592C27.7275 16.5918 27.7195 16.4281 27.6711 16.2639C27.6313 16.1281 27.5721 15.9988 27.5447 15.8593L27.4753 16.1201C27.8023 15.7611 28.0292 15.2943 27.997 14.799C27.9819 14.571 27.9168 14.3365 27.8362 14.1234C27.7555 13.9104 27.6232 13.6974 27.4264 13.5584C27.2489 13.4334 27.0166 13.3889 26.8085 13.4602C26.6821 13.5037 26.5945 13.5772 26.4901 13.6561C26.4014 13.7226 26.2928 13.7747 26.1906 13.8171C25.7201 14.0134 25.1844 14.0934 24.6849 14.183C22.5515 14.5656 20.372 14.5586 18.2118 14.5549C16.9943 14.5527 15.7757 14.55 14.5593 14.6117C14.4141 14.6193 14.2904 14.7298 14.2904 14.88C14.2904 15.0196 14.4135 15.1558 14.5593 15.1483C16.7985 15.0346 19.041 15.1408 21.2808 15.056C22.4004 15.0136 23.5195 14.9214 24.6246 14.7357C25.1559 14.6466 25.7071 14.5565 26.2175 14.3778C26.467 14.2903 26.681 14.176 26.8902 14.0167C26.9252 13.9898 26.9569 13.9727 26.9972 13.9641C27.0193 13.9592 27.0145 13.9576 27.0462 13.9641C27.0994 13.9753 27.1527 14.0151 27.2054 14.0768C27.328 14.2206 27.3791 14.4395 27.4275 14.623C27.4828 14.8301 27.4678 15.041 27.4 15.2438C27.3672 15.3415 27.3199 15.4327 27.2651 15.5197C27.2037 15.6178 27.1102 15.6973 27.0526 15.7955C26.9252 16.0133 27.1548 16.2966 27.1769 16.5177C27.1828 16.5794 27.1607 16.6266 27.1607 16.6883C27.1607 16.7501 27.1887 16.8177 27.2027 16.8799C27.2253 16.9786 27.2323 17.0763 27.2301 17.1793C27.2263 17.3666 27.1806 17.5566 27.0903 17.724C27.0446 17.8087 26.9919 17.8882 26.9257 17.9579C26.852 18.0363 26.7515 18.0931 26.6595 18.15C26.4568 18.2756 26.2433 18.3845 26.0239 18.4773C25.5926 18.6603 25.1366 18.787 24.6822 18.898C24.4488 18.9549 24.2138 19.0075 23.9788 19.059C23.7255 19.1148 23.4706 19.1191 23.2119 19.132C22.052 19.1883 20.8909 19.2098 19.7299 19.2119C17.4126 19.2162 15.0965 19.1449 12.7798 19.1223C12.4953 19.1196 12.2114 19.1175 11.9269 19.1164L12.1958 19.3847V19.3386C12.1969 19.1899 12.0721 19.0751 11.9269 19.0703C11.0148 19.0392 10.1033 18.9935 9.19075 18.9839C8.45132 18.9764 7.7135 19.0043 6.97408 19.0139C6.30832 19.0231 5.6388 19.0064 5.00048 18.8084C4.69664 18.714 4.40732 18.575 4.15081 18.3802C4.10026 18.3421 4.04271 18.3013 4.00131 18.2541C3.94377 18.1887 3.90289 18.0888 3.86955 18.0084C3.8147 17.8774 3.77329 17.725 3.7577 17.592C3.67327 16.8643 4.13682 16.185 4.70148 15.7499C4.84506 15.6393 4.87948 15.4724 4.75579 15.3286L4.72621 15.2943L4.6719 15.7155C4.72621 15.6876 4.78107 15.6608 4.83699 15.6356C4.8655 15.6227 4.894 15.6098 4.92304 15.5975C4.87249 15.6189 4.96875 15.5792 4.98112 15.5744C5.10964 15.5239 5.24032 15.4789 5.37261 15.4381C5.65762 15.3506 5.94856 15.283 6.2411 15.2272C6.89933 15.1027 7.5511 15.0432 8.23944 15.0072C9.69248 14.931 11.1509 14.9793 12.6029 15.0603C13.2821 15.0984 13.9602 15.1456 14.6389 15.1896C14.784 15.1993 14.9077 15.0598 14.9077 14.9214C14.9077 14.7684 14.7846 14.6627 14.6389 14.6531H14.6405Z" fill="white"/>
<path d="M5.20052 17.6494C6.63366 17.2453 8.12166 17.1155 9.60643 17.1836C9.98287 17.2008 10.3582 17.2303 10.7331 17.27C11.1079 17.3097 11.4816 17.3312 11.857 17.3548C12.6002 17.402 13.3439 17.4466 14.0882 17.4847C15.5848 17.5603 17.083 17.6086 18.5817 17.592C20.0826 17.5753 21.5836 17.4943 23.0737 17.3119C23.8217 17.2201 24.5671 17.1053 25.3065 16.9604C25.6765 16.888 26.0432 16.8032 26.4111 16.72C26.6869 16.6578 26.9677 16.5955 27.1994 16.4238C27.3312 16.3267 27.4393 16.2092 27.5194 16.0659C27.6883 15.7643 27.2242 15.4934 27.0553 15.7949C26.9349 16.0096 26.7375 16.0911 26.495 16.1523C26.1653 16.2355 25.8308 16.3058 25.4979 16.375C24.7795 16.5252 24.0546 16.6481 23.327 16.7431C21.8594 16.9346 20.3806 17.0253 18.9012 17.0506C17.4245 17.0758 15.9472 17.0361 14.4716 16.9663C13.7273 16.9309 12.9831 16.888 12.2393 16.8418C11.872 16.8187 11.5042 16.7951 11.1369 16.7715C10.768 16.7474 10.4007 16.6969 10.0318 16.6712C8.54865 16.5682 7.04774 16.6508 5.59793 16.9921C5.4167 17.0345 5.23709 17.0817 5.05801 17.1321C4.72567 17.226 4.86657 17.7438 5.20106 17.6494H5.20052Z" fill="white"/>
<path d="M12.6018 8.20646H11.6946V7.30123H12.6018V8.20646ZM12.1479 11.8279H11.694V10.9227H12.6013V11.8279H12.1474H12.1479ZM13.509 9.11169H12.6018V8.20646H13.509V9.11169ZM12.6018 10.9221V10.0169H13.509V10.9221H12.6018ZM14.4162 10.0169H13.509V9.11169H14.4162V10.0169ZM14.4162 9.11169V8.20646H15.3234V9.11169H14.4162ZM15.3234 10.9221H14.4162V10.0169H15.3234V10.9221ZM15.3234 8.20593V7.3007H16.2306V8.20593H15.3234ZM15.7773 11.8274H15.3234V10.9221H16.2306V11.8274H15.7768H15.7773Z" fill="white"/>
<path d="M20.8544 7.24758H19.9471V6.34235H20.8544V7.24758ZM20.4005 10.869H19.9466V9.9638H20.8538V10.869H20.3999H20.4005ZM21.7616 8.1528H20.8544V7.24758H21.7616V8.1528ZM20.8544 9.96326V9.05803H21.7616V9.96326H20.8544ZM22.6688 9.05803H21.7616V8.1528H22.6688V9.05803ZM22.6688 8.1528V7.24758H23.576V8.1528H22.6688ZM23.576 9.96326H22.6688V9.05803H23.576V9.96326ZM23.576 7.24704V6.34181H24.4832V7.24704H23.576ZM24.0299 10.8685H23.576V9.96326H24.4832V10.8685H24.0293H24.0299Z" fill="white"/>
</svg>