<svg width="1440" height="1024" viewBox="0 0 1440 1024" fill="none" xmlns="http://www.w3.org/2000/svg">
<g clip-path="url(#clip0_3430_17620)">
<path d="M1440 0H0V1024H1440V0Z" fill="url(#paint0_linear_3430_17620)"/>
<mask id="mask0_3430_17620" style="mask-type:luminance" maskUnits="userSpaceOnUse" x="0" y="0" width="1440" height="1024">
<path d="M1440 0H0V1024H1440V0Z" fill="white"/>
</mask>
<g mask="url(#mask0_3430_17620)">
<path fill-rule="evenodd" clip-rule="evenodd" d="M1284.33 714.751L1266.83 718.026L1244.53 719.43L1220.83 729.732L1149.74 735.337L1125.29 745.429L1078.65 749.373L1055.58 746.431L1031.95 747.033L984.768 756.123L927.034 772.832L875.835 777.511V804.58H1726.03V777.511L1674.84 772.832L1617.1 756.123L1569.91 747.033L1546.29 746.431L1523.22 749.373L1476.58 745.429L1452.13 735.337L1381.04 729.732L1357.34 719.43L1335.04 718.026L1317.54 714.751H1284.33Z" fill="url(#paint1_linear_3430_17620)"/>
<path fill-rule="evenodd" clip-rule="evenodd" d="M625 664.455L642.502 669.564L664.804 671.753L688.501 687.824L759.592 696.567L784.042 712.309L830.682 718.462L853.759 713.873L877.378 714.812L924.565 728.991L982.3 755.056L1033.5 762.354V804.58H183.3V762.354L234.499 755.056L292.233 728.991L339.42 714.812L363.04 713.873L386.117 718.462L432.757 712.309L457.207 696.567L528.298 687.824L551.994 671.753L574.297 669.564L591.799 664.455H625Z" fill="url(#paint2_linear_3430_17620)"/>
<path fill-rule="evenodd" clip-rule="evenodd" d="M0 684.929L14.944 689.291L33.989 691.16L54.223 704.884L114.926 712.349L135.805 725.791L175.63 731.044L195.335 727.126L215.504 727.928L255.796 740.035L305.095 762.292L348.813 768.524V804.58H0V684.929Z" fill="url(#paint3_linear_3430_17620)"/>
<path fill-rule="evenodd" clip-rule="evenodd" d="M64.996 1015.58L65 1024H-29L-24.121 744.022L-6.478 757.61H-9.875V767.956H-4.779V763.375H-6.478V759.978H-3.081V756.581H-1.595V753.184H0.528V756.581H2.227V753.184H4.35V756.581H6.049V753.184H8.172V756.581H9.658V759.978H13.055V763.375H11.356V767.956H14.329V765.923H18.575V767.956H21.548V755.732H24.095V752.335H26.643V748.938H37.683V752.335H40.231V755.732H42.779V767.956H48.724V751.498L64.86 743.006L64.864 751.485H87.185L94.828 765.073H91.431V767.956H99.074V748.951H115.21V767.956H119.456V765.073L135.592 756.581V767.956H139.838V763.401L155.974 754.908V767.956H162.768V763.375H160.221V759.978H171.261V755.354H175.507V759.978H186.548V755.354H195.135L198.437 759.978H207.779V763.375H205.231V767.956H214.573V759.991H211.176L219.669 755.925L243.448 750.829H247.694V755.925H251.94L259.584 759.991H256.187V767.956H261.282V763.375H259.584V759.978H262.981V756.581H264.467V753.184H266.59V756.581H268.289V753.184H270.412V756.581H272.11V753.184H274.233V756.581H275.72V759.978H279.117V763.375H277.418V767.956H280.39V765.923H284.637V767.956H287.609V755.732H290.157V752.335H292.705V760.84H303.745V752.335H306.293V755.732H308.841V767.956H314.785V751.498L330.921 746.577V767.956H343.66V763.375H341.112V759.978H352.153V755.354H356.399V759.978H367.439V755.354H376.026L379.329 759.978H388.671V763.375H386.123V767.956H395.465V757.61H392.068L400.56 744.022H432.832L440.475 757.61H437.078V767.956H442.174V763.375H440.475V759.978H443.872V756.581H445.359V753.184H447.482V756.581H449.18V753.184H451.303V756.581H453.002V753.184H455.125V756.581H456.611V759.978H460.008V763.375H458.31V767.956H461.282V765.923H465.528V767.956H468.501V755.732H471.049V752.335H473.596V748.938H484.637V752.335H487.185V755.732H489.732V767.956H495.677V751.498L511.813 743.006V751.485H533.367L541.011 765.073H537.614V767.956H545.257V748.951H561.393V767.956H565.639V765.073L581.775 756.581V767.956H586.021V763.401L602.157 754.908V767.956H608.951V763.375H606.403V759.978H617.444V755.354H621.69V759.978H632.73V755.354H641.317L644.62 759.978H653.962V763.375H651.414V767.956H660.756V759.991H657.359L665.851 755.925L689.631 750.829H693.877V755.925H698.123L705.766 759.991H702.369V767.956H707.465V763.375H705.766V759.978H709.163V756.581H710.65V753.184H712.773V756.581H714.471V753.184H716.594V756.581H718.293V753.184H720.416V756.581H721.902V759.978H725.299V763.375H723.601V767.956H726.573V765.923H730.82V767.956H733.792V755.732H736.34V752.335H738.887V760.84H749.928V752.335H752.476V755.732H755.023V767.956H760.968V751.498L777.104 746.577V767.956H789.843V763.375H787.295V759.978H798.335V755.354H802.582V759.978H813.622V755.354H822.209L825.512 759.978H834.853V763.375H832.306V767.956H841.648V757.61H838.25L846.743 744.022H879.015L886.658 757.61H883.261V767.956H888.357V763.375H886.658V759.978H890.055V756.581H891.541V753.184H893.664V756.581H895.363V753.184H897.486V756.581H899.185V753.184H901.308V756.581H902.794V759.978H906.191V763.375H904.493V767.956H907.465V765.923H911.711V767.956H914.684V755.732H917.231V752.335H919.779V748.938H930.819V752.335H933.367V755.732H935.915V767.956H941.86V751.498L957.996 743.006V765.079C957.997 765.077 957.999 765.075 958 765.073L963.096 751.485H995.367L1003.01 765.073H999.614V767.956H1007.26V748.951H1023.39V767.956H1027.64V765.073L1043.78 756.581V767.956H1048.02V763.401L1064.16 754.908V767.956H1070.95V763.375H1068.4V759.978H1079.44V755.354H1083.69V759.978H1094.73V755.354H1103.32L1106.62 759.978H1115.96V763.375H1113.41V767.956H1122.76V759.991H1119.36L1127.85 755.925L1151.63 750.829H1155.88V755.925H1160.12L1167.77 759.991H1164.37V767.956H1169.46V763.375H1167.77V759.978H1171.16V756.581H1172.65V753.184H1174.77V756.581H1176.47V753.184H1178.59V756.581H1180.29V753.184H1182.42V756.581H1183.9V759.978H1187.3V763.375H1185.6V767.956H1188.57V765.923H1192.82V767.956H1195.79V755.732H1198.34V752.335H1200.89V760.84H1211.93V752.335H1214.48V755.732H1217.02V767.956H1222.97V751.498L1239.1 746.577V767.956H1251.84V763.375H1249.3V759.978H1260.34V755.354H1264.58V759.978H1275.62V755.354H1284.21L1287.51 759.978H1296.85V763.375H1294.31V767.956H1303.65V757.61H1300.25L1308.74 744.022H1341.02L1348.66 757.61H1345.26V767.956H1350.36V763.375H1348.66V759.978H1352.06V756.581H1353.54V753.184H1355.66V756.581H1357.36V753.184H1359.49V756.581H1361.18V753.184H1363.31V756.581H1364.79V759.978H1368.19V763.375H1366.49V767.956H1369.46V765.923H1373.71V767.956H1376.68V755.732H1379.23V752.335H1381.78V748.938H1392.82V752.335H1395.37V755.732H1397.91V767.956H1403.86V751.498L1420 743.006V767.087H1440V1015.58H958H957.996H64.996Z" fill="url(#paint4_linear_3430_17620)"/>
<path d="M74.381 767.087H70.83V771.526H74.381V767.087Z" fill="#1DE0E0"/>
<path d="M520.564 767.087H517.013V771.526H520.564V767.087Z" fill="#1DE0E0"/>
<path d="M982.564 767.087H979.013V771.526H982.564V767.087Z" fill="#1DE0E0"/>
<path d="M30.055 760H26.504V764.439H30.055V760Z" fill="#1DE0E0"/>
<path d="M83.9031 767.087H80.3521V771.526H83.9031V767.087Z" fill="#FDDB86"/>
<path d="M530.086 767.087H526.535V771.526H530.086V767.087Z" fill="#FDDB86"/>
<path d="M992.086 767.087H988.535V771.526H992.086V767.087Z" fill="#FDDB86"/>
<path d="M39.577 760H36.026V764.439H39.577V760Z" fill="#FDDB86"/>
<path d="M173.173 767.087H169.622V771.526H173.173V767.087Z" fill="#FDDB86"/>
<path d="M619.356 767.087H615.805V771.526H619.356V767.087Z" fill="#FDDB86"/>
<path d="M1081.36 767.087H1077.81V771.526H1081.36V767.087Z" fill="#FDDB86"/>
<path d="M147.561 789.107H144.022V794.415H147.561V789.107Z" fill="#FDDB86"/>
<path d="M593.744 789.107H590.205V794.415H593.744V789.107Z" fill="#FDDB86"/>
<path d="M1055.74 789.107H1052.2V794.415H1055.74V789.107Z" fill="#FDDB86"/>
<path d="M267.777 823.677H264.238V828.985H267.777V823.677Z" fill="#FDDB86"/>
<path d="M713.96 823.677H710.421V828.985H713.96V823.677Z" fill="#FDDB86"/>
<path d="M1175.96 823.677H1172.42V828.985H1175.96V823.677Z" fill="#FDDB86"/>
<path d="M99.95 823.677H96.411V828.985H99.95V823.677Z" fill="#FDDB86"/>
<path d="M546.133 823.677H542.594V828.985H546.133V823.677Z" fill="#FDDB86"/>
<path d="M1008.13 823.677H1004.59V828.985H1008.13V823.677Z" fill="#FDDB86"/>
<path d="M30.502 812.103H26.963V817.411H30.502V812.103Z" fill="#FDDB86"/>
<path d="M429.653 828.985H426.114V834.293H429.653V828.985Z" fill="#FDDB86"/>
<path d="M875.836 828.985H872.297V834.293H875.836V828.985Z" fill="#FDDB86"/>
<path d="M1337.84 828.985H1334.3V834.293H1337.84V828.985Z" fill="#FDDB86"/>
<path d="M196.362 791.761H192.823V797.069H196.362V791.761Z" fill="#D513E3"/>
<path d="M642.544 791.761H639.005V797.069H642.544V791.761Z" fill="#D513E3"/>
<path d="M1104.55 791.761H1101.01V797.069H1104.55V791.761Z" fill="#D513E3"/>
<path d="M340.383 826.331H336.844V831.639H340.383V826.331Z" fill="#FDDB86"/>
<path d="M786.566 826.331H783.027V831.639H786.566V826.331Z" fill="#FDDB86"/>
<path d="M1248.57 826.331H1245.03V831.639H1248.57V826.331Z" fill="#FDDB86"/>
<path d="M205.884 866.8H202.345V872.108H205.884V866.8Z" fill="#1DE0E0"/>
<path d="M652.066 866.8H648.527V872.108H652.066V866.8Z" fill="#1DE0E0"/>
<path d="M1114.07 866.8H1110.53V872.108H1114.07V866.8Z" fill="#1DE0E0"/>
<path d="M21.539 866.8H18V872.108H21.539V866.8Z" fill="#1DE0E0"/>
<path d="M489.166 813.511H485.627V818.819H489.166V813.511Z" fill="#D513E3"/>
<path d="M935.349 813.511H931.81V818.819H935.349V813.511Z" fill="#D513E3"/>
<path d="M1397.35 813.511H1393.81V818.819H1397.35V813.511Z" fill="#D513E3"/>
<path d="M176.127 810.857H172.588V816.165H176.127V810.857Z" fill="#FDDB86"/>
<path d="M622.31 810.857H618.771V816.165H622.31V810.857Z" fill="#FDDB86"/>
<path d="M1084.31 810.857H1080.77V816.165H1084.31V810.857Z" fill="#FDDB86"/>
<path d="M318.347 847.482H314.808V852.79H318.347V847.482Z" fill="#FDDB86"/>
<path d="M764.53 847.482H760.991V852.79H764.53V847.482Z" fill="#FDDB86"/>
<path d="M1226.53 847.482H1222.99V852.79H1226.53V847.482Z" fill="#FDDB86"/>
<path d="M150.52 847.482H146.981V852.79H150.52V847.482Z" fill="#FDDB86"/>
<path d="M596.703 847.482H593.164V852.79H596.703V847.482Z" fill="#FDDB86"/>
<path d="M1058.7 847.482H1055.16V852.79H1058.7V847.482Z" fill="#FDDB86"/>
<path d="M480.223 852.79H476.684V858.098H480.223V852.79Z" fill="#FDDB86"/>
<path d="M926.406 852.79H922.867V858.098H926.406V852.79Z" fill="#FDDB86"/>
<path d="M1388.41 852.79H1384.87V858.098H1388.41V852.79Z" fill="#FDDB86"/>
<path d="M117.804 803.117H114.265V808.425H117.804V803.117Z" fill="#D513E3"/>
<path d="M563.987 803.117H560.448V808.425H563.987V803.117Z" fill="#D513E3"/>
<path d="M1025.99 803.117H1022.45V808.425H1025.99V803.117Z" fill="#D513E3"/>
<path d="M48.356 791.542H44.817V796.85H48.356V791.542Z" fill="#D513E3"/>
<path d="M84.477 796.574H80.938V801.882H84.477V796.574Z" fill="#FDDB86"/>
<path d="M530.66 796.574H527.121V801.882H530.66V796.574Z" fill="#FDDB86"/>
<path d="M992.66 796.574H989.121V801.882H992.66V796.574Z" fill="#FDDB86"/>
<path d="M15.028 785H11.489V790.308H15.028V785Z" fill="#FDDB86"/>
<path d="M238.021 837.686H234.482V842.994H238.021V837.686Z" fill="#FDDB86"/>
<path d="M684.203 837.686H680.664V842.994H684.203V837.686Z" fill="#FDDB86"/>
<path d="M1146.2 837.686H1142.66V842.994H1146.2V837.686Z" fill="#FDDB86"/>
<path d="M64.115 826.112H60.576V831.42H64.115V826.112Z" fill="#FDDB86"/>
<path d="M510.298 826.112H506.759V831.42H510.298V826.112Z" fill="#FDDB86"/>
<path d="M972.298 826.112H968.759V831.42H972.298V826.112Z" fill="#FDDB86"/>
<path d="M399.896 842.994H396.357V848.302H399.896V842.994Z" fill="#FDDB86"/>
<path d="M846.079 842.994H842.54V848.302H846.079V842.994Z" fill="#FDDB86"/>
<path d="M1308.08 842.994H1304.54V848.302H1308.08V842.994Z" fill="#FDDB86"/>
<path d="M328.481 805.771H324.942V811.079H328.481V805.771Z" fill="#FDDB86"/>
<path d="M774.663 805.771H771.124V811.079H774.663V805.771Z" fill="#FDDB86"/>
<path d="M1236.66 805.771H1233.12V811.079H1236.66V805.771Z" fill="#FDDB86"/>
<path d="M371.941 788.238H368.402V793.546H371.941V788.238Z" fill="#FDDB86"/>
<path d="M818.124 788.238H814.585V793.546H818.124V788.238Z" fill="#FDDB86"/>
<path d="M1280.13 788.238H1276.59V793.546H1280.13V788.238Z" fill="#FDDB86"/>
<path d="M288.028 790.619H284.489V795.927H288.028V790.619Z" fill="#FDDB86"/>
<path d="M734.211 790.619H730.672V795.927H734.211V790.619Z" fill="#FDDB86"/>
<path d="M1196.21 790.619H1192.67V795.927H1196.21V790.619Z" fill="#FDDB86"/>
<path d="M374.322 814.424H370.783V819.732H374.322V814.424Z" fill="#D513E3"/>
<path d="M820.505 814.424H816.966V819.732H820.505V814.424Z" fill="#D513E3"/>
<path d="M1282.51 814.424H1278.97V819.732H1282.51V814.424Z" fill="#D513E3"/>
<path d="M422.511 798.629H418.972V803.937H422.511V798.629Z" fill="#FDDB86"/>
<path d="M868.694 798.629H865.155V803.937H868.694V798.629Z" fill="#FDDB86"/>
<path d="M1330.69 798.629H1327.15V803.937H1330.69V798.629Z" fill="#FDDB86"/>
<path d="M416.56 798.629H413.021V803.937H416.56V798.629Z" fill="#1DE0E0"/>
<path d="M862.743 798.629H859.204V803.937H862.743V798.629Z" fill="#1DE0E0"/>
<path d="M1324.74 798.629H1321.2V803.937H1324.74V798.629Z" fill="#1DE0E0"/>
<path d="M474.304 783.477H470.765V788.785H474.304V783.477Z" fill="#FDDB86"/>
<path d="M920.487 783.477H916.948V788.785H920.487V783.477Z" fill="#FDDB86"/>
<path d="M1382.49 783.477H1378.95V788.785H1382.49V783.477Z" fill="#FDDB86"/>
<path d="M237.782 803.117H234.482V808.425H237.782V803.117Z" fill="#1DE0E0"/>
<path d="M683.964 803.117H680.664V808.425H683.964V803.117Z" fill="#1DE0E0"/>
<path d="M1145.96 803.117H1142.66V808.425H1145.96V803.117Z" fill="#1DE0E0"/>
<path d="M251.135 767.087H247.584V771.526H251.135V767.087Z" fill="#FDDB86"/>
<path d="M697.318 767.087H693.767V771.526H697.318V767.087Z" fill="#FDDB86"/>
<path d="M1159.32 767.087H1155.77V771.526H1159.32V767.087Z" fill="#FDDB86"/>
<path d="M423.128 767.087H419.577V771.526H423.128V767.087Z" fill="#FDDB86"/>
<path d="M869.311 767.087H865.76V771.526H869.311V767.087Z" fill="#FDDB86"/>
<path d="M1331.31 767.087H1327.76V771.526H1331.31V767.087Z" fill="#FDDB86"/>
<path d="M432.65 767.087H429.099V771.526H432.65V767.087Z" fill="#FDDB86"/>
<path d="M878.833 767.087H875.282V771.526H878.833V767.087Z" fill="#FDDB86"/>
<path d="M1340.83 767.087H1337.28V771.526H1340.83V767.087Z" fill="#FDDB86"/>
<path d="M243.399 767.087H239.848V771.526H243.399V767.087Z" fill="#FDDB86"/>
<path d="M689.581 767.087H686.03V771.526H689.581V767.087Z" fill="#FDDB86"/>
<path d="M1151.58 767.087H1148.03V771.526H1151.58V767.087Z" fill="#FDDB86"/>
<path d="M1440 903.03H0V1024H1440V903.03Z" fill="url(#paint5_radial_3430_17620)"/>
<path d="M1440 838.233H0V848.945H1440V838.233Z" fill="#6F58D7"/>
<path d="M1440 838.233H0V841.804H1440V838.233Z" fill="#907EE0"/>
<path d="M100.531 848.946H91.65V917.146H100.531V848.946Z" fill="url(#paint6_linear_3430_17620)"/>
<path d="M31.881 848.946H23V917.146H31.881V848.946Z" fill="url(#paint7_linear_3430_17620)"/>
<path d="M168.834 848.946H159.953V917.146H168.834V848.946Z" fill="url(#paint8_linear_3430_17620)"/>
<path d="M237.137 848.946H228.256V917.146H237.137V848.946Z" fill="url(#paint9_linear_3430_17620)"/>
<path d="M305.44 848.946H296.559V917.146H305.44V848.946Z" fill="url(#paint10_linear_3430_17620)"/>
<path d="M373.743 848.946H364.862V917.146H373.743V848.946Z" fill="url(#paint11_linear_3430_17620)"/>
<path d="M451.623 848.946H442.742V917.146H451.623V848.946Z" fill="url(#paint12_linear_3430_17620)"/>
<path d="M529.503 848.946H520.622V917.146H529.503V848.946Z" fill="url(#paint13_linear_3430_17620)"/>
<path d="M607.384 848.946H598.503V917.146H607.384V848.946Z" fill="url(#paint14_linear_3430_17620)"/>
<path d="M685.264 848.946H676.383V917.146H685.264V848.946Z" fill="url(#paint15_linear_3430_17620)"/>
<path d="M763.144 848.946H754.263V917.146H763.144V848.946Z" fill="url(#paint16_linear_3430_17620)"/>
<path d="M841.025 848.946H832.144V917.146H841.025V848.946Z" fill="url(#paint17_linear_3430_17620)"/>
<path d="M918.905 848.946H910.024V917.146H918.905V848.946Z" fill="url(#paint18_linear_3430_17620)"/>
<path d="M996.786 848.946H987.905V917.146H996.786V848.946Z" fill="url(#paint19_linear_3430_17620)"/>
<path d="M1074.67 848.946H1065.79V917.146H1074.67V848.946Z" fill="url(#paint20_linear_3430_17620)"/>
<path d="M1152.54 848.946H1143.66V917.146H1152.54V848.946Z" fill="url(#paint21_linear_3430_17620)"/>
<path d="M1230.43 848.946H1221.55V917.146H1230.43V848.946Z" fill="url(#paint22_linear_3430_17620)"/>
<path d="M1308.31 848.946H1299.43V917.146H1308.31V848.946Z" fill="url(#paint23_linear_3430_17620)"/>
<path d="M1386.19 848.946H1377.31V917.146H1386.19V848.946Z" fill="url(#paint24_linear_3430_17620)"/>
<path d="M89.27 610.684C90.585 610.684 91.651 609.618 91.651 608.303C91.651 606.988 90.585 605.922 89.27 605.922C87.955 605.922 86.889 606.988 86.889 608.303C86.889 609.618 87.955 610.684 89.27 610.684Z" fill="#C070D0"/>
<path d="M553.381 610.684C554.696 610.684 555.762 609.618 555.762 608.303C555.762 606.988 554.696 605.922 553.381 605.922C552.066 605.922 551 606.988 551 608.303C551 609.618 552.066 610.684 553.381 610.684Z" fill="#C070D0"/>
<path d="M1015.38 610.684C1016.69 610.684 1017.76 609.618 1017.76 608.303C1017.76 606.988 1016.69 605.922 1015.38 605.922C1014.07 605.922 1013 606.988 1013 608.303C1013 609.618 1014.07 610.684 1015.38 610.684Z" fill="#C070D0"/>
<path d="M335.654 605.923C336.969 605.923 338.035 604.857 338.035 603.542C338.035 602.227 336.969 601.161 335.654 601.161C334.339 601.161 333.273 602.227 333.273 603.542C333.273 604.857 334.339 605.923 335.654 605.923Z" fill="#C070D0"/>
<path d="M799.765 605.923C801.08 605.923 802.146 604.857 802.146 603.542C802.146 602.227 801.08 601.161 799.765 601.161C798.45 601.161 797.384 602.227 797.384 603.542C797.384 604.857 798.45 605.923 799.765 605.923Z" fill="#C070D0"/>
<path d="M1261.77 605.923C1263.09 605.923 1264.15 604.857 1264.15 603.542C1264.15 602.227 1263.09 601.161 1261.77 601.161C1260.46 601.161 1259.39 602.227 1259.39 603.542C1259.39 604.857 1260.46 605.923 1261.77 605.923Z" fill="#C070D0"/>
<path d="M133.309 670.197C134.624 670.197 135.69 669.131 135.69 667.816C135.69 666.501 134.624 665.435 133.309 665.435C131.994 665.435 130.928 666.501 130.928 667.816C130.928 669.131 131.994 670.197 133.309 670.197Z" fill="#C070D0"/>
<path d="M1059.42 670.197C1060.74 670.197 1061.8 669.131 1061.8 667.816C1061.8 666.501 1060.74 665.435 1059.42 665.435C1058.11 665.435 1057.04 666.501 1057.04 667.816C1057.04 669.131 1058.11 670.197 1059.42 670.197Z" fill="#C070D0"/>
<path d="M379.694 665.436C381.009 665.436 382.075 664.37 382.075 663.055C382.075 661.74 381.009 660.674 379.694 660.674C378.379 660.674 377.313 661.74 377.313 663.055C377.313 664.37 378.379 665.436 379.694 665.436Z" fill="#C070D0"/>
<path d="M843.805 665.436C845.12 665.436 846.186 664.37 846.186 663.055C846.186 661.74 845.12 660.674 843.805 660.674C842.49 660.674 841.424 661.74 841.424 663.055C841.424 664.37 842.49 665.436 843.805 665.436Z" fill="#C070D0"/>
<path d="M1305.81 665.436C1307.13 665.436 1308.19 664.37 1308.19 663.055C1308.19 661.74 1307.13 660.674 1305.81 660.674C1304.5 660.674 1303.43 661.74 1303.43 663.055C1303.43 664.37 1304.5 665.436 1305.81 665.436Z" fill="#C070D0"/>
<path d="M152.354 615.445C153.669 615.445 154.735 614.379 154.735 613.064C154.735 611.749 153.669 610.683 152.354 610.683C151.039 610.683 149.973 611.749 149.973 613.064C149.973 614.379 151.039 615.445 152.354 615.445Z" fill="#C070D0"/>
<path d="M616.464 615.445C617.779 615.445 618.845 614.379 618.845 613.064C618.845 611.749 617.779 610.683 616.464 610.683C615.149 610.683 614.083 611.749 614.083 613.064C614.083 614.379 615.149 615.445 616.464 615.445Z" fill="#C070D0"/>
<path d="M1078.46 615.445C1079.78 615.445 1080.84 614.379 1080.84 613.064C1080.84 611.749 1079.78 610.683 1078.46 610.683C1077.15 610.683 1076.08 611.749 1076.08 613.064C1076.08 614.379 1077.15 615.445 1078.46 615.445Z" fill="#C070D0"/>
<path d="M398.738 610.684C400.053 610.684 401.119 609.618 401.119 608.303C401.119 606.988 400.053 605.922 398.738 605.922C397.423 605.922 396.357 606.988 396.357 608.303C396.357 609.618 397.423 610.684 398.738 610.684Z" fill="#C070D0"/>
<path d="M862.849 610.684C864.164 610.684 865.23 609.618 865.23 608.303C865.23 606.988 864.164 605.922 862.849 605.922C861.534 605.922 860.468 606.988 860.468 608.303C860.468 609.618 861.534 610.684 862.849 610.684Z" fill="#C070D0"/>
<path d="M1324.85 610.684C1326.16 610.684 1327.23 609.618 1327.23 608.303C1327.23 606.988 1326.16 605.922 1324.85 605.922C1323.53 605.922 1322.47 606.988 1322.47 608.303C1322.47 609.618 1323.53 610.684 1324.85 610.684Z" fill="#C070D0"/>
<path d="M122.373 625.416C123.154 625.416 123.788 624.782 123.788 624.001C123.788 623.219 123.154 622.586 122.373 622.586C121.592 622.586 120.958 623.219 120.958 624.001C120.958 624.782 121.592 625.416 122.373 625.416Z" fill="#C070D0"/>
<path d="M586.484 625.416C587.265 625.416 587.899 624.782 587.899 624.001C587.899 623.219 587.265 622.586 586.484 622.586C585.702 622.586 585.069 623.219 585.069 624.001C585.069 624.782 585.702 625.416 586.484 625.416Z" fill="#C070D0"/>
<path d="M1048.48 625.416C1049.26 625.416 1049.9 624.782 1049.9 624.001C1049.9 623.219 1049.26 622.586 1048.48 622.586C1047.7 622.586 1047.06 623.219 1047.06 624.001C1047.06 624.782 1047.7 625.416 1048.48 625.416Z" fill="#C070D0"/>
<path d="M368.757 620.655C369.539 620.655 370.172 620.022 370.172 619.24C370.172 618.459 369.539 617.825 368.757 617.825C367.976 617.825 367.342 618.459 367.342 619.24C367.342 620.022 367.976 620.655 368.757 620.655Z" fill="#C070D0"/>
<path d="M832.868 620.655C833.65 620.655 834.283 620.022 834.283 619.24C834.283 618.459 833.65 617.825 832.868 617.825C832.087 617.825 831.453 618.459 831.453 619.24C831.453 620.022 832.087 620.655 832.868 620.655Z" fill="#C070D0"/>
<path d="M1294.87 620.655C1295.65 620.655 1296.29 620.022 1296.29 619.24C1296.29 618.459 1295.65 617.825 1294.87 617.825C1294.09 617.825 1293.46 618.459 1293.46 619.24C1293.46 620.022 1294.09 620.655 1294.87 620.655Z" fill="#C070D0"/>
<path d="M277.555 673.026C278.337 673.026 278.97 672.393 278.97 671.611C278.97 670.83 278.337 670.196 277.555 670.196C276.774 670.196 276.14 670.83 276.14 671.611C276.14 672.393 276.774 673.026 277.555 673.026Z" fill="#C070D0"/>
<path d="M741.666 673.026C742.447 673.026 743.081 672.393 743.081 671.611C743.081 670.83 742.447 670.196 741.666 670.196C740.885 670.196 740.251 670.83 740.251 671.611C740.251 672.393 740.885 673.026 741.666 673.026Z" fill="#C070D0"/>
<path d="M1203.67 673.026C1204.45 673.026 1205.08 672.393 1205.08 671.611C1205.08 670.83 1204.45 670.196 1203.67 670.196C1202.89 670.196 1202.25 670.83 1202.25 671.611C1202.25 672.393 1202.89 673.026 1203.67 673.026Z" fill="#C070D0"/>
<path d="M209.71 684.929C210.491 684.929 211.125 684.296 211.125 683.514C211.125 682.733 210.491 682.099 209.71 682.099C208.928 682.099 208.295 682.733 208.295 683.514C208.295 684.296 208.928 684.929 209.71 684.929Z" fill="#C070D0"/>
<path d="M1135.82 684.929C1136.6 684.929 1137.23 684.296 1137.23 683.514C1137.23 682.733 1136.6 682.099 1135.82 682.099C1135.04 682.099 1134.41 682.733 1134.41 683.514C1134.41 684.296 1135.04 684.929 1135.82 684.929Z" fill="#C070D0"/>
<path d="M226.374 619.24C227.155 619.24 227.789 618.607 227.789 617.825C227.789 617.044 227.155 616.41 226.374 616.41C225.592 616.41 224.959 617.044 224.959 617.825C224.959 618.607 225.592 619.24 226.374 619.24Z" fill="#C070D0"/>
<path d="M690.485 619.24C691.267 619.24 691.9 618.607 691.9 617.825C691.9 617.044 691.267 616.41 690.485 616.41C689.704 616.41 689.07 617.044 689.07 617.825C689.07 618.607 689.704 619.24 690.485 619.24Z" fill="#C070D0"/>
<path d="M1152.49 619.24C1153.27 619.24 1153.91 618.607 1153.91 617.825C1153.91 617.044 1153.27 616.41 1152.49 616.41C1151.71 616.41 1151.07 617.044 1151.07 617.825C1151.07 618.607 1151.71 619.24 1152.49 619.24Z" fill="#C070D0"/>
<path d="M158.529 557.571C159.311 557.571 159.944 556.938 159.944 556.156C159.944 555.375 159.311 554.741 158.529 554.741C157.748 554.741 157.114 555.375 157.114 556.156C157.114 556.938 157.748 557.571 158.529 557.571Z" fill="#C070D0"/>
<path d="M622.64 557.571C623.422 557.571 624.055 556.938 624.055 556.156C624.055 555.375 623.422 554.741 622.64 554.741C621.859 554.741 621.225 555.375 621.225 556.156C621.225 556.938 621.859 557.571 622.64 557.571Z" fill="#C070D0"/>
<path d="M1084.64 557.571C1085.42 557.571 1086.06 556.938 1086.06 556.156C1086.06 555.375 1085.42 554.741 1084.64 554.741C1083.86 554.741 1083.23 555.375 1083.23 556.156C1083.23 556.938 1083.86 557.571 1084.64 557.571Z" fill="#C070D0"/>
<path d="M304.932 638.509C305.714 638.509 306.347 637.876 306.347 637.094C306.347 636.313 305.714 635.679 304.932 635.679C304.151 635.679 303.517 636.313 303.517 637.094C303.517 637.876 304.151 638.509 304.932 638.509Z" fill="#C070D0"/>
<path d="M769.042 638.509C769.823 638.509 770.457 637.876 770.457 637.094C770.457 636.313 769.823 635.679 769.042 635.679C768.26 635.679 767.627 636.313 767.627 637.094C767.627 637.876 768.26 638.509 769.042 638.509Z" fill="#C070D0"/>
<path d="M1231.04 638.509C1231.82 638.509 1232.45 637.876 1232.45 637.094C1232.45 636.313 1231.82 635.679 1231.04 635.679C1230.26 635.679 1229.62 636.313 1229.62 637.094C1229.62 637.876 1230.26 638.509 1231.04 638.509Z" fill="#C070D0"/>
<path d="M286.482 573.044C287.263 573.044 287.897 572.411 287.897 571.629C287.897 570.848 287.263 570.214 286.482 570.214C285.7 570.214 285.067 570.848 285.067 571.629C285.067 572.411 285.7 573.044 286.482 573.044Z" fill="#C070D0"/>
<path d="M750.593 573.044C751.375 573.044 752.008 572.411 752.008 571.629C752.008 570.848 751.375 570.214 750.593 570.214C749.812 570.214 749.178 570.848 749.178 571.629C749.178 572.411 749.812 573.044 750.593 573.044Z" fill="#C070D0"/>
<path d="M1212.59 573.044C1213.37 573.044 1214.01 572.411 1214.01 571.629C1214.01 570.848 1213.37 570.214 1212.59 570.214C1211.81 570.214 1211.18 570.848 1211.18 571.629C1211.18 572.411 1211.81 573.044 1212.59 573.044Z" fill="#C070D0"/>
<path d="M487.042 653.982C487.823 653.982 488.457 653.349 488.457 652.567C488.457 651.786 487.823 651.152 487.042 651.152C486.26 651.152 485.627 651.786 485.627 652.567C485.627 653.349 486.26 653.982 487.042 653.982Z" fill="#C070D0"/>
<path d="M951.153 653.982C951.935 653.982 952.568 653.349 952.568 652.567C952.568 651.786 951.935 651.152 951.153 651.152C950.372 651.152 949.738 651.786 949.738 652.567C949.738 653.349 950.372 653.982 951.153 653.982Z" fill="#C070D0"/>
<path d="M1413.15 653.982C1413.93 653.982 1414.56 653.349 1414.56 652.567C1414.56 651.786 1413.93 651.152 1413.15 651.152C1412.37 651.152 1411.73 651.786 1411.73 652.567C1411.73 653.349 1412.37 653.982 1413.15 653.982Z" fill="#C070D0"/>
<path d="M473.949 573.044C474.73 573.044 475.364 572.411 475.364 571.629C475.364 570.848 474.73 570.214 473.949 570.214C473.167 570.214 472.534 570.848 472.534 571.629C472.534 572.411 473.167 573.044 473.949 573.044Z" fill="#C070D0"/>
<path d="M938.06 573.044C938.841 573.044 939.475 572.411 939.475 571.629C939.475 570.848 938.841 570.214 938.06 570.214C937.279 570.214 936.645 570.848 936.645 571.629C936.645 572.411 937.279 573.044 938.06 573.044Z" fill="#C070D0"/>
<path d="M1400.06 573.044C1400.84 573.044 1401.47 572.411 1401.47 571.629C1401.47 570.848 1400.84 570.214 1400.06 570.214C1399.28 570.214 1398.65 570.848 1398.65 571.629C1398.65 572.411 1399.28 573.044 1400.06 573.044Z" fill="#C070D0"/>
</g>
</g>
<defs>
<linearGradient id="paint0_linear_3430_17620" x1="720" y1="0" x2="720" y2="1024" gradientUnits="userSpaceOnUse">
<stop stop-color="#4D3EAD"/>
<stop offset="1" stop-color="#C63CBD"/>
</linearGradient>
<linearGradient id="paint1_linear_3430_17620" x1="1291.33" y1="720.229" x2="1290.99" y2="804.594" gradientUnits="userSpaceOnUse">
<stop stop-color="#39239A"/>
<stop offset="1" stop-color="#603FF3"/>
</linearGradient>
<linearGradient id="paint2_linear_3430_17620" x1="618" y1="673" x2="620" y2="804.58" gradientUnits="userSpaceOnUse">
<stop stop-color="#39239A"/>
<stop offset="1" stop-color="#603FF3"/>
</linearGradient>
<linearGradient id="paint3_linear_3430_17620" x1="148.783" y1="721.453" x2="148.24" y2="788.384" gradientUnits="userSpaceOnUse">
<stop stop-color="#39239A"/>
<stop offset="1" stop-color="#5235D3"/>
</linearGradient>
<linearGradient id="paint4_linear_3430_17620" x1="814" y1="760" x2="813" y2="882" gradientUnits="userSpaceOnUse">
<stop stop-color="#291A6C"/>
<stop offset="1" stop-color="#0D0434"/>
</linearGradient>
<radialGradient id="paint5_radial_3430_17620" cx="0" cy="0" r="1" gradientUnits="userSpaceOnUse" gradientTransform="translate(441.58 909.285) rotate(179.441) scale(322.898 91.326)">
<stop stop-color="#6B53D8"/>
<stop offset="1" stop-color="#39239A"/>
</radialGradient>
<linearGradient id="paint6_linear_3430_17620" x1="279.117" y1="867.125" x2="279.117" y2="927.503" gradientUnits="userSpaceOnUse">
<stop stop-color="#6F58D7"/>
<stop offset="1" stop-color="#2B0DB3"/>
</linearGradient>
<linearGradient id="paint7_linear_3430_17620" x1="210.466" y1="867.125" x2="210.466" y2="927.503" gradientUnits="userSpaceOnUse">
<stop stop-color="#6F58D7"/>
<stop offset="1" stop-color="#2B0DB3"/>
</linearGradient>
<linearGradient id="paint8_linear_3430_17620" x1="279.117" y1="867.125" x2="279.117" y2="927.503" gradientUnits="userSpaceOnUse">
<stop stop-color="#6F58D7"/>
<stop offset="1" stop-color="#2B0DB3"/>
</linearGradient>
<linearGradient id="paint9_linear_3430_17620" x1="279.117" y1="867.125" x2="279.117" y2="927.503" gradientUnits="userSpaceOnUse">
<stop stop-color="#6F58D7"/>
<stop offset="1" stop-color="#2B0DB3"/>
</linearGradient>
<linearGradient id="paint10_linear_3430_17620" x1="279.117" y1="867.125" x2="279.117" y2="927.503" gradientUnits="userSpaceOnUse">
<stop stop-color="#6F58D7"/>
<stop offset="1" stop-color="#2B0DB3"/>
</linearGradient>
<linearGradient id="paint11_linear_3430_17620" x1="279.117" y1="867.125" x2="279.117" y2="927.503" gradientUnits="userSpaceOnUse">
<stop stop-color="#6F58D7"/>
<stop offset="1" stop-color="#2B0DB3"/>
</linearGradient>
<linearGradient id="paint12_linear_3430_17620" x1="356.997" y1="867.125" x2="356.997" y2="927.503" gradientUnits="userSpaceOnUse">
<stop stop-color="#6F58D7"/>
<stop offset="1" stop-color="#2B0DB3"/>
</linearGradient>
<linearGradient id="paint13_linear_3430_17620" x1="434.877" y1="867.125" x2="434.877" y2="927.503" gradientUnits="userSpaceOnUse">
<stop stop-color="#6F58D7"/>
<stop offset="1" stop-color="#2B0DB3"/>
</linearGradient>
<linearGradient id="paint14_linear_3430_17620" x1="512.758" y1="867.125" x2="512.758" y2="927.503" gradientUnits="userSpaceOnUse">
<stop stop-color="#6F58D7"/>
<stop offset="1" stop-color="#2B0DB3"/>
</linearGradient>
<linearGradient id="paint15_linear_3430_17620" x1="590.638" y1="867.125" x2="590.638" y2="927.503" gradientUnits="userSpaceOnUse">
<stop stop-color="#6F58D7"/>
<stop offset="1" stop-color="#2B0DB3"/>
</linearGradient>
<linearGradient id="paint16_linear_3430_17620" x1="668.518" y1="867.125" x2="668.518" y2="927.503" gradientUnits="userSpaceOnUse">
<stop stop-color="#6F58D7"/>
<stop offset="1" stop-color="#2B0DB3"/>
</linearGradient>
<linearGradient id="paint17_linear_3430_17620" x1="746.399" y1="867.125" x2="746.399" y2="927.503" gradientUnits="userSpaceOnUse">
<stop stop-color="#6F58D7"/>
<stop offset="1" stop-color="#2B0DB3"/>
</linearGradient>
<linearGradient id="paint18_linear_3430_17620" x1="824.279" y1="867.125" x2="824.279" y2="927.503" gradientUnits="userSpaceOnUse">
<stop stop-color="#6F58D7"/>
<stop offset="1" stop-color="#2B0DB3"/>
</linearGradient>
<linearGradient id="paint19_linear_3430_17620" x1="902.16" y1="867.125" x2="902.16" y2="927.503" gradientUnits="userSpaceOnUse">
<stop stop-color="#6F58D7"/>
<stop offset="1" stop-color="#2B0DB3"/>
</linearGradient>
<linearGradient id="paint20_linear_3430_17620" x1="980.04" y1="867.125" x2="980.04" y2="927.503" gradientUnits="userSpaceOnUse">
<stop stop-color="#6F58D7"/>
<stop offset="1" stop-color="#2B0DB3"/>
</linearGradient>
<linearGradient id="paint21_linear_3430_17620" x1="1057.92" y1="867.125" x2="1057.92" y2="927.503" gradientUnits="userSpaceOnUse">
<stop stop-color="#6F58D7"/>
<stop offset="1" stop-color="#2B0DB3"/>
</linearGradient>
<linearGradient id="paint22_linear_3430_17620" x1="1135.8" y1="867.125" x2="1135.8" y2="927.503" gradientUnits="userSpaceOnUse">
<stop stop-color="#6F58D7"/>
<stop offset="1" stop-color="#2B0DB3"/>
</linearGradient>
<linearGradient id="paint23_linear_3430_17620" x1="1213.68" y1="867.125" x2="1213.68" y2="927.503" gradientUnits="userSpaceOnUse">
<stop stop-color="#6F58D7"/>
<stop offset="1" stop-color="#2B0DB3"/>
</linearGradient>
<linearGradient id="paint24_linear_3430_17620" x1="1291.56" y1="867.125" x2="1291.56" y2="927.503" gradientUnits="userSpaceOnUse">
<stop stop-color="#6F58D7"/>
<stop offset="1" stop-color="#2B0DB3"/>
</linearGradient>
<clipPath id="clip0_3430_17620">
<rect width="1440" height="1024" fill="white"/>
</clipPath>
</defs>
</svg>
