<svg width="422" height="1032" viewBox="0 0 422 1032" fill="none" xmlns="http://www.w3.org/2000/svg">
<g clip-path="url(#clip0_698_13722)">
<mask id="mask0_698_13722" style="mask-type:luminance" maskUnits="userSpaceOnUse" x="0" y="0" width="422" height="1032">
<path d="M421.721 0.796875H0.101562V1031.8H421.721V0.796875Z" fill="white"/>
</mask>
<g mask="url(#mask0_698_13722)">
<path d="M1244 0H-196V1272H1244V0Z" fill="url(#paint0_linear_698_13722)"/>
<path d="M1243.57 1018.23H-196.426V1272H1243.57V1018.23Z" fill="#F5B370"/>
<path d="M92.7665 1039.59C117.257 1043.13 274.216 1047.17 285.348 1056.08C296.479 1064.98 591.473 1064.98 613.738 1068.32C636 1071.66 511.323 1072.78 534.701 1088.32C558.079 1103.86 855.298 1089.47 898.712 1087.42C942.127 1085.36 1026.72 1090.59 1090.18 1087.06C1153.63 1083.54 1249.36 1085.02 1269.4 1087.06C1289.44 1089.1 1358.45 1081.68 1358.45 1081.68V1018.23H44.1655C-21.9295 1034.17 70.2285 1036.32 92.7665 1039.59Z" fill="#D98837"/>
<path d="M-311.316 1018.23V1058.95C-272.029 1053.27 -171.771 1079.28 -149.904 1076.67C-126.527 1073.89 1.48859 1083.35 20.6996 1079.46C39.9106 1075.56 230.805 1095.6 274.776 1095.45C318.747 1095.31 407.801 1094.48 407.103 1092.26C406.404 1090.03 384.981 1084.19 347.412 1087.06C309.84 1089.94 191.288 1086.69 130.341 1066.65C69.3916 1046.62 -44.1514 1054.13 -13.2604 1039.59C17.6306 1025.04 -142.669 1025.75 -142.669 1025.75L-133.106 1018.23H-311.316Z" fill="#D98837"/>
<path d="M428 1006.84C412.903 1007.92 396.175 1007.92 387.069 1007.92H294.756C281.718 1007.92 236.042 1018.24 204.17 1024.65C-106.769 1024.65 -164.414 1046.36 -311.316 1037.44V962.212C-299.19 960.737 -281.408 958.696 -271.391 958.242C-255.19 957.561 -233.047 947.979 -220.154 952.233C-207.261 956.484 -173.135 955.634 -160.241 957.505C-147.349 959.319 -118.303 959.717 -108.143 959.717C-99.8034 959.717 -71.8124 957.505 -54.6054 957.336H-54.4604C-50.6264 957.278 -47.3184 957.336 -44.9234 957.505C-31.7414 958.526 -26.5664 957.561 -7.3934 959.944C11.7776 962.268 27.7876 964.819 41.7336 963.8C55.7296 962.779 67.3296 963.403 82.0906 963.8C96.8526 964.197 135.198 971.738 158.779 969.356C182.36 967.031 207.908 971.229 222.285 969.811C236.665 968.449 273.427 974.121 278.219 976.445C283.014 978.826 298.973 984.951 307.745 985.46C316.564 985.915 340.53 986.878 353.279 990.62C366.076 994.421 386.062 997.708 393.634 998.673C398.524 999.297 414.292 1004.06 428 1006.84Z" fill="#EFA760"/>
<path d="M1358.46 947.294V967.197C1346.96 967.142 1331.52 967.085 1319.88 967.482C1298.88 968.218 1267.15 965.44 1255.75 967.142C1244.39 968.898 1203.02 961.413 1182.7 966.573C1162.28 971.734 1142.54 960.563 1121.55 964.759C1100.6 968.898 1104.77 961.357 1076.63 967.991C1048.5 974.57 1043.08 975.25 1026.31 975.25C1009.53 975.25 995.153 974.57 983.795 975.25C972.387 975.987 952.018 978.821 938.261 982.396C924.457 985.911 923.26 983.755 904.71 982.396C886.114 980.922 864.546 978.086 851.364 978.821C838.183 979.56 817.19 972.131 808.227 974.059C799.264 975.987 780.093 975.987 768.685 977.403C757.278 978.821 742.899 985.232 724.35 980.922C705.802 976.724 666.212 978.086 658.446 980.239C650.681 982.396 628.491 989.427 610.517 989.427C592.543 989.427 537.28 991.581 523.573 994.417C509.863 997.251 465.529 1000.77 448.754 1004.34C443.1 1005.53 435.764 1006.32 428.001 1006.84C414.292 1004.06 398.524 999.292 393.636 998.669C386.062 997.706 366.075 994.417 353.278 990.616C340.529 986.874 316.563 985.911 307.744 985.456C298.974 984.946 283.013 978.821 278.22 976.441C273.426 974.116 236.666 968.444 222.286 969.807C207.907 971.225 182.361 967.029 158.778 969.352C135.197 971.734 96.8541 964.193 82.0901 963.796C67.3291 963.398 55.7301 962.775 41.7331 963.796C27.7871 964.816 11.7771 962.264 -7.39394 959.94C-26.5649 957.559 -31.7419 958.522 -44.9239 957.5C-47.3189 957.332 -50.6269 957.273 -54.4609 957.332C-42.7179 954.667 -29.3449 952.228 -17.7479 949.506C2.62306 944.799 1.42507 948.088 21.3641 945.764C31.6201 944.517 37.0361 944.572 41.2071 944.743H41.2551C45.2321 944.799 48.1101 945.025 52.9501 944.346C62.9191 942.928 70.9241 947.635 80.0781 947.635C89.2801 947.635 111.231 949.053 120.818 949.506C130.405 950.016 139.224 951.434 154.368 951.15C169.563 950.924 180.73 953.305 192.713 949.506C204.695 945.764 213.082 950.016 225.881 951.15C238.678 952.34 249.462 952.34 257.419 951.15C265.423 949.96 275.823 950.924 283.396 951.15C290.97 951.378 305.349 951.887 311.771 951.15C318.146 950.413 346.903 952.34 357.688 954.27C368.472 956.141 378.872 958.977 384.864 958.977C390.856 958.977 404.802 958.977 420.812 952.228C436.771 945.537 440.365 947.635 455.129 946.161C469.939 944.685 483.503 948.598 496.684 946.161C509.863 943.723 543.416 946.67 553.386 946.161C563.402 945.649 577.781 945.252 600.931 946.161C624.081 947.067 628.108 947.182 637.693 946.161C647.279 945.141 676.42 944.799 689.217 942.928C701.966 940.999 715.148 945.252 725.165 946.161C735.134 947.067 765.475 941.963 776.45 943.381C776.69 943.44 776.979 943.44 777.265 943.495C788.625 944.629 812.445 940.999 822.607 940.148C833.008 939.3 872.551 945.764 879.308 941.398C886.114 937.088 902.073 945.252 920.048 946.841C938.022 948.371 951.203 949.506 961.22 946.841C971.19 944.119 1019.5 946.67 1025.49 946.841C1031.48 946.953 1056.26 949.506 1065.46 949.506C1074.62 949.506 1102.18 949.506 1116.56 949.053C1130.94 948.598 1172.88 943.834 1186.49 941.963C1200.05 940.092 1204.03 943.381 1220.81 946.443C1237.58 949.45 1257.19 948.088 1273.53 949.336C1289.92 950.583 1289.11 949.506 1305.11 951.434C1321.08 953.305 1327.88 951.887 1336.65 948.088C1342.6 945.537 1352.66 946.443 1358.46 947.294Z" fill="#FFCB97"/>
<path d="M407.103 922.796C390.424 924.441 370.053 924.838 365.261 925.405C357.304 926.37 342.11 929.204 328.116 928.241C314.169 927.333 306.978 929.601 294.181 928.468C281.384 927.333 248.264 926.483 239.876 928.751C231.489 931.075 220.705 925.065 206.708 928.751C192.714 932.493 155.999 934.876 149.192 934.42C142.388 933.911 133.233 932.608 124.029 934.479C114.827 936.294 108.452 937.256 94.8876 937.256C81.2756 937.256 67.3296 935.838 63.7346 937.256C61.7676 938.051 51.8486 941.396 41.2556 944.741H41.2076C37.0366 944.57 31.6206 944.515 21.3646 945.762C1.4256 948.086 2.6236 944.799 -17.7474 949.504C-29.3464 952.228 -42.7174 954.664 -54.4604 957.33H-54.6054C-71.8124 957.5 -99.8034 959.713 -108.142 959.713C-118.303 959.713 -147.349 959.316 -160.241 957.5C-173.135 955.629 -207.261 956.48 -220.154 952.228C-233.047 947.974 -255.19 957.557 -271.391 958.236C-281.408 958.692 -299.19 960.734 -311.316 962.207V885.258H-249.822C-229.452 885.258 -212.677 879.586 -197.1 885.258C-181.522 890.928 -197.1 885.258 -161.152 885.258C-125.205 885.258 -114.42 875.958 -89.2584 882.763C-64.0944 889.512 -10.1734 884.181 11.3946 884.011C32.9636 883.84 49.7386 872.84 86.8836 884.011C124.029 895.182 152.787 884.634 186.337 887.753C219.89 890.928 225.88 881.969 241.459 889.283C257.035 896.6 273.811 892.346 296.578 895.182C319.344 898.018 317.188 900.171 364.876 911.172C394.449 917.977 398.859 920.757 407.103 922.796Z" fill="#FFCB97"/>
<path d="M1006.46 914.01C998.796 915.767 992.326 917.923 983.985 918.829C971.188 920.247 929.633 926.823 916.451 929.206C903.273 931.589 894.883 932.042 883.334 932.042C871.735 932.042 851.748 935.84 842.594 934.423C833.39 933.007 813.403 931.757 807.028 934.707C802.428 936.862 789.103 940.66 777.264 943.495C776.977 943.44 776.691 943.44 776.449 943.384C765.474 941.966 735.133 947.068 725.164 946.161C715.147 945.255 701.965 941.001 689.216 942.928C676.419 944.799 647.278 945.141 637.692 946.161C628.108 947.182 624.08 947.068 600.932 946.161C577.78 945.255 563.402 945.65 553.384 946.161C543.415 946.67 509.862 943.723 496.683 946.161C483.502 948.6 469.938 944.687 455.128 946.161C440.364 947.635 436.77 945.537 420.811 952.228C404.801 958.977 390.855 958.977 384.863 958.977C378.873 958.977 368.471 956.141 357.687 954.27C346.902 952.342 318.145 950.415 311.77 951.151C305.348 951.889 290.968 951.378 283.397 951.151C275.822 950.924 265.422 949.96 257.418 951.151C249.462 952.342 238.677 952.342 225.88 951.151C213.083 950.018 204.694 945.764 192.712 949.506C180.731 953.307 169.562 950.924 154.367 951.151C139.223 951.434 130.403 950.018 120.817 949.506C111.23 949.053 89.2789 947.635 80.0769 947.635C70.9219 947.635 62.9179 942.928 52.9489 944.346C48.1089 945.026 45.2309 944.799 41.2539 944.743C51.8469 941.398 61.7679 938.053 63.7329 937.258C67.3279 935.84 81.2749 937.258 94.8859 937.258C108.45 937.258 114.825 936.294 124.029 934.481C133.231 932.608 142.385 933.913 149.193 934.423C155.997 934.878 192.712 932.495 206.709 928.753C220.703 925.067 231.487 931.077 239.875 928.753C248.264 926.485 281.382 927.335 294.179 928.47C306.978 929.603 314.167 927.335 328.114 928.241C342.11 929.206 357.302 926.372 365.259 925.407C370.051 924.84 390.422 924.443 407.101 922.798C418.222 921.721 427.759 920.021 429.965 917.411C435.572 910.777 437.154 916.447 446.357 911.741C455.561 906.979 459.921 910.323 465.912 906.979C471.902 903.69 486.714 906.526 499.463 910.323C512.26 914.066 547.393 910.777 556.98 906.979C566.564 903.234 572.988 900.854 587.75 894.275C602.512 887.755 605.339 890.93 621.3 887.131C637.262 883.389 643.684 885.713 652.838 883.842C662.04 881.971 689.216 886.678 695.591 886.678C701.965 886.678 710.355 877.717 717.975 872.613C725.549 867.511 739.112 877.717 741.508 879.588C743.904 881.459 760.297 881.971 767.868 884.807C775.49 887.641 779.853 889.965 785.845 889.059C791.834 888.094 795.861 883.389 804.249 877.717C812.636 872.047 818.628 874.883 823.42 873.012C828.212 871.139 834.587 875.79 843.359 881.006C852.178 886.225 848.966 881.971 857.737 881.971C866.558 881.971 865.36 881.971 876.527 878.626C887.693 875.336 889.323 875.336 898.91 873.465C908.497 871.536 916.884 876.299 923.259 880.041C929.633 883.842 933.228 884.295 940.032 886.678C942.669 887.584 946.12 888.491 949.715 889.455H949.763C955.516 890.986 961.65 892.689 965.581 894.729C972.003 898.018 982.355 902.725 986.765 904.652C989.545 905.843 999.514 910.607 1006.46 914.01Z" fill="#FFEBDA"/>
<path d="M1358.45 967.196V1024.64C1014.48 1043.98 727.28 1054.96 204.164 1024.64C236.037 1018.23 281.712 1007.91 294.75 1007.91H387.062C396.169 1007.91 412.897 1007.91 427.996 1006.83C435.759 1006.32 443.092 1005.53 448.747 1004.34C465.523 1000.76 509.858 997.25 523.568 994.414C537.275 991.578 592.538 989.424 610.512 989.424C628.485 989.424 650.676 982.392 658.441 980.238C666.207 978.083 705.795 976.722 724.345 980.918C742.894 985.228 757.271 978.82 768.68 977.402C780.088 975.984 799.259 975.984 808.222 974.057C817.185 972.13 838.178 979.558 851.359 978.82C864.54 978.083 886.107 980.918 904.704 982.392C923.254 983.754 924.452 985.908 938.255 982.392C952.011 978.82 972.382 975.984 983.789 975.249C995.147 974.566 1009.52 975.249 1026.3 975.249C1043.08 975.249 1048.49 974.566 1076.63 967.99C1104.76 961.356 1100.59 968.897 1121.54 964.758C1142.53 960.561 1162.28 971.733 1182.69 966.572C1203.02 961.412 1244.38 968.897 1255.74 967.14C1267.15 965.437 1298.88 968.217 1319.87 967.479C1331.52 967.082 1346.95 967.14 1358.45 967.196Z" fill="#F5B370"/>
</g>
</g>
<defs>
<linearGradient id="paint0_linear_698_13722" x1="524" y1="0.000475758" x2="524" y2="780.094" gradientUnits="userSpaceOnUse">
<stop stop-color="#ADD4E5"/>
<stop offset="1" stop-color="#F0F7FA"/>
</linearGradient>
<clipPath id="clip0_698_13722">
<rect width="422" height="1032" fill="white"/>
</clipPath>
</defs>
</svg>
