<svg width="1440" height="1025" viewBox="0 0 1440 1025" fill="none" xmlns="http://www.w3.org/2000/svg">
<g clip-path="url(#clip0_218_2882)">
<path d="M1440 0.349976H0V1024.35H1440V0.349976Z" fill="url(#paint0_linear_218_2882)"/>
<mask id="mask0_218_2882" style="mask-type:luminance" maskUnits="userSpaceOnUse" x="0" y="0" width="1440" height="1025">
<path d="M1440 0.349976H0V1024.35H1440V0.349976Z" fill="white"/>
</mask>
<g mask="url(#mask0_218_2882)">
<path fill-rule="evenodd" clip-rule="evenodd" d="M1284.33 715.101L1266.83 718.376L1244.53 719.78L1220.83 730.083L1149.74 735.687L1125.29 745.779L1078.65 749.723L1055.58 746.781L1031.95 747.384L984.768 756.473L927.034 773.182L875.835 777.861V804.93H1726.03V777.861L1674.84 773.182L1617.1 756.473L1569.91 747.384L1546.29 746.781L1523.22 749.723L1476.58 745.779L1452.13 735.687L1381.04 730.083L1357.34 719.78L1335.04 718.376L1317.54 715.101H1284.33Z" fill="url(#paint1_linear_218_2882)"/>
<path fill-rule="evenodd" clip-rule="evenodd" d="M625 664.805L642.502 669.914L664.804 672.103L688.501 688.175L759.592 696.917L784.042 712.659L830.682 718.812L853.759 714.223L877.378 715.163L924.565 729.341L982.3 755.406L1033.5 762.705V804.93H183.3V762.705L234.499 755.406L292.233 729.341L339.42 715.163L363.04 714.223L386.117 718.812L432.757 712.659L457.207 696.917L528.298 688.175L551.994 672.103L574.297 669.914L591.799 664.805H625Z" fill="url(#paint2_linear_218_2882)"/>
<path fill-rule="evenodd" clip-rule="evenodd" d="M0 685.279L14.944 689.641L33.989 691.511L54.223 705.234L114.926 712.699L135.805 726.141L175.63 731.394L195.335 727.476L215.504 728.279L255.796 740.385L305.095 762.642L348.813 768.874V804.93H0V685.279Z" fill="url(#paint3_linear_218_2882)"/>
<path fill-rule="evenodd" clip-rule="evenodd" d="M1440 1024.35H-29L-24.121 744.373L-6.478 757.961H-9.875V768.306H-4.779V763.725H-6.478V760.328H-3.081V756.931H-1.595V753.534H0.528V756.931H2.227V753.534H4.35V756.931H6.049V753.534H8.172V756.931H9.658V760.328H13.055V763.725H11.356V768.306H14.329V766.273H18.575V768.306H21.548V756.082H24.095V752.685H26.643V749.288H37.683V752.685H40.231V756.082H42.779V768.306H48.724V751.849L64.86 743.356L64.864 751.836H87.185L94.828 765.424H91.431V768.306H99.074V749.301H115.21V768.306H119.456V765.424L135.592 756.931V768.306H139.838V763.751L155.974 755.259V768.306H162.768V763.725H160.221V760.328H171.261V755.704H175.507V760.328H186.548V755.704H195.135L198.437 760.328H207.779V763.725H205.231V768.306H214.573V760.341H211.176L219.669 756.275L243.448 751.18H247.694V756.275H251.94L259.584 760.341H256.187V768.306H261.282V763.725H259.584V760.328H262.981V756.931H264.467V753.534H266.59V756.931H268.289V753.534H270.412V756.931H272.11V753.534H274.233V756.931H275.72V760.328H279.117V763.725H277.418V768.306H280.39V766.273H284.637V768.306H287.609V756.082H290.157V752.685H292.705V761.19H303.745V752.685H306.293V756.082H308.841V768.306H314.785V751.849L330.921 746.927V768.306H343.66V763.725H341.112V760.328H352.153V755.704H356.399V760.328H367.439V755.704H376.026L379.329 760.328H388.671V763.725H386.123V768.306H395.465V757.961H392.068L400.56 744.373H432.832L440.475 757.961H437.078V768.306H442.174V763.725H440.475V760.328H443.872V756.931H445.359V753.534H447.482V756.931H449.18V753.534H451.303V756.931H453.002V753.534H455.125V756.931H456.611V760.328H460.008V763.725H458.31V768.306H461.282V766.273H465.528V768.306H468.501V756.082H471.049V752.685H473.596V749.288H484.637V752.685H487.185V756.082H489.732V768.306H495.677V751.849L511.813 743.356V751.836H533.367L541.011 765.424H537.614V768.306H545.257V749.301H561.393V768.306H565.639V765.424L581.775 756.931V768.306H586.021V763.751L602.157 755.259V768.306H608.951V763.725H606.403V760.328H617.444V755.704H621.69V760.328H632.73V755.704H641.317L644.62 760.328H653.962V763.725H651.414V768.306H660.756V760.341H657.359L665.851 756.275L689.631 751.18H693.877V756.275H698.123L705.766 760.341H702.369V768.306H707.465V763.725H705.766V760.328H709.163V756.931H710.65V753.534H712.773V756.931H714.471V753.534H716.594V756.931H718.293V753.534H720.416V756.931H721.902V760.328H725.299V763.725H723.601V768.306H726.573V766.273H730.82V768.306H733.792V756.082H736.34V752.685H738.887V761.19H749.928V752.685H752.476V756.082H755.023V768.306H760.968V751.849L777.104 746.927V768.306H789.843V763.725H787.295V760.328H798.335V755.704H802.582V760.328H813.622V755.704H822.209L825.512 760.328H834.853V763.725H832.306V768.306H841.648V757.961H838.25L846.743 744.373H879.015L886.658 757.961H883.261V768.306H888.357V763.725H886.658V760.328H890.055V756.931H891.541V753.534H893.664V756.931H895.363V753.534H897.486V756.931H899.185V753.534H901.308V756.931H902.794V760.328H906.191V763.725H904.493V768.306H907.465V766.273H911.711V768.306H914.684V756.082H917.231V752.685H919.779V749.288H930.819V752.685H933.367V756.082H935.915V768.306H941.86V751.849L957.996 743.356V765.429C957.997 765.427 957.999 765.426 958 765.424L963.096 751.836H995.367L1003.01 765.424H999.614V768.306H1007.26V749.301H1023.39V768.306H1027.64V765.424L1043.78 756.931V768.306H1048.02V763.751L1064.16 755.259V768.306H1070.95V763.725H1068.4V760.328H1079.44V755.704H1083.69V760.328H1094.73V755.704H1103.32L1106.62 760.328H1115.96V763.725H1113.41V768.306H1122.76V760.341H1119.36L1127.85 756.275L1151.63 751.18H1155.88V756.275H1160.12L1167.77 760.341H1164.37V768.306H1169.46V763.725H1167.77V760.328H1171.16V756.931H1172.65V753.534H1174.77V756.931H1176.47V753.534H1178.59V756.931H1180.29V753.534H1182.42V756.931H1183.9V760.328H1187.3V763.725H1185.6V768.306H1188.57V766.273H1192.82V768.306H1195.79V756.082H1198.34V752.685H1200.89V761.19H1211.93V752.685H1214.48V756.082H1217.02V768.306H1222.97V751.849L1239.1 746.927V768.306H1251.84V763.725H1249.3V760.328H1260.34V755.704H1264.58V760.328H1275.62V755.704H1284.21L1287.51 760.328H1296.85V763.725H1294.31V768.306H1303.65V757.961H1300.25L1308.74 744.373H1341.02L1348.66 757.961H1345.26V768.306H1350.36V763.725H1348.66V760.328H1352.06V756.931H1353.54V753.534H1355.66V756.931H1357.36V753.534H1359.49V756.931H1361.18V753.534H1363.31V756.931H1364.79V760.328H1368.19V763.725H1366.49V768.306H1369.46V766.273H1373.71V768.306H1376.68V756.082H1379.23V752.685H1381.78V749.288H1392.82V752.685H1395.37V756.082H1397.91V768.306H1403.86V751.849L1420 743.356V767.437H1440V1024.35Z" fill="url(#paint4_linear_218_2882)"/>
<path d="M74.3811 767.437H70.8301V771.876H74.3811V767.437Z" fill="#1DE0E0"/>
<path d="M520.564 767.437H517.013V771.876H520.564V767.437Z" fill="#1DE0E0"/>
<path d="M982.564 767.437H979.013V771.876H982.564V767.437Z" fill="#1DE0E0"/>
<path d="M30.0549 760.35H26.5039V764.789H30.0549V760.35Z" fill="#1DE0E0"/>
<path d="M83.9031 767.437H80.3521V771.876H83.9031V767.437Z" fill="#FDDB86"/>
<path d="M530.086 767.437H526.535V771.876H530.086V767.437Z" fill="#FDDB86"/>
<path d="M992.086 767.437H988.535V771.876H992.086V767.437Z" fill="#FDDB86"/>
<path d="M39.5769 760.35H36.0259V764.789H39.5769V760.35Z" fill="#FDDB86"/>
<path d="M173.173 767.437H169.622V771.876H173.173V767.437Z" fill="#FDDB86"/>
<path d="M619.356 767.437H615.805V771.876H619.356V767.437Z" fill="#FDDB86"/>
<path d="M1081.36 767.437H1077.81V771.876H1081.36V767.437Z" fill="#FDDB86"/>
<path d="M147.561 789.457H144.022V794.765H147.561V789.457Z" fill="#FDDB86"/>
<path d="M593.744 789.457H590.205V794.765H593.744V789.457Z" fill="#FDDB86"/>
<path d="M1055.74 789.457H1052.2V794.765H1055.74V789.457Z" fill="#FDDB86"/>
<path d="M267.777 824.027H264.238V829.335H267.777V824.027Z" fill="#FDDB86"/>
<path d="M713.96 824.027H710.421V829.335H713.96V824.027Z" fill="#FDDB86"/>
<path d="M1175.96 824.027H1172.42V829.335H1175.96V824.027Z" fill="#FDDB86"/>
<path d="M99.9499 824.027H96.4109V829.335H99.9499V824.027Z" fill="#FDDB86"/>
<path d="M546.133 824.027H542.594V829.335H546.133V824.027Z" fill="#FDDB86"/>
<path d="M1008.13 824.027H1004.59V829.335H1008.13V824.027Z" fill="#FDDB86"/>
<path d="M30.5019 812.453H26.9629V817.761H30.5019V812.453Z" fill="#FDDB86"/>
<path d="M429.653 829.335H426.114V834.643H429.653V829.335Z" fill="#FDDB86"/>
<path d="M875.836 829.335H872.297V834.643H875.836V829.335Z" fill="#FDDB86"/>
<path d="M1337.84 829.335H1334.3V834.643H1337.84V829.335Z" fill="#FDDB86"/>
<path d="M196.362 792.111H192.823V797.419H196.362V792.111Z" fill="#D513E3"/>
<path d="M642.544 792.111H639.005V797.419H642.544V792.111Z" fill="#D513E3"/>
<path d="M1104.55 792.111H1101.01V797.419H1104.55V792.111Z" fill="#D513E3"/>
<path d="M340.383 826.681H336.844V831.989H340.383V826.681Z" fill="#FDDB86"/>
<path d="M786.566 826.681H783.027V831.989H786.566V826.681Z" fill="#FDDB86"/>
<path d="M1248.57 826.681H1245.03V831.989H1248.57V826.681Z" fill="#FDDB86"/>
<path d="M205.884 867.15H202.345V872.458H205.884V867.15Z" fill="#1DE0E0"/>
<path d="M652.066 867.15H648.527V872.458H652.066V867.15Z" fill="#1DE0E0"/>
<path d="M1114.07 867.15H1110.53V872.458H1114.07V867.15Z" fill="#1DE0E0"/>
<path d="M21.539 867.15H18V872.458H21.539V867.15Z" fill="#1DE0E0"/>
<path d="M489.166 813.861H485.627V819.169H489.166V813.861Z" fill="#D513E3"/>
<path d="M935.349 813.861H931.81V819.169H935.349V813.861Z" fill="#D513E3"/>
<path d="M1397.35 813.861H1393.81V819.169H1397.35V813.861Z" fill="#D513E3"/>
<path d="M176.127 811.207H172.588V816.515H176.127V811.207Z" fill="#FDDB86"/>
<path d="M622.31 811.207H618.771V816.515H622.31V811.207Z" fill="#FDDB86"/>
<path d="M1084.31 811.207H1080.77V816.515H1084.31V811.207Z" fill="#FDDB86"/>
<path d="M318.347 847.832H314.808V853.14H318.347V847.832Z" fill="#FDDB86"/>
<path d="M764.53 847.832H760.991V853.14H764.53V847.832Z" fill="#FDDB86"/>
<path d="M1226.53 847.832H1222.99V853.14H1226.53V847.832Z" fill="#FDDB86"/>
<path d="M150.52 847.832H146.981V853.14H150.52V847.832Z" fill="#FDDB86"/>
<path d="M596.703 847.832H593.164V853.14H596.703V847.832Z" fill="#FDDB86"/>
<path d="M1058.7 847.832H1055.16V853.14H1058.7V847.832Z" fill="#FDDB86"/>
<path d="M480.223 853.14H476.684V858.448H480.223V853.14Z" fill="#FDDB86"/>
<path d="M926.406 853.14H922.867V858.448H926.406V853.14Z" fill="#FDDB86"/>
<path d="M1388.41 853.14H1384.87V858.448H1388.41V853.14Z" fill="#FDDB86"/>
<path d="M117.804 803.467H114.265V808.775H117.804V803.467Z" fill="#D513E3"/>
<path d="M563.987 803.467H560.448V808.775H563.987V803.467Z" fill="#D513E3"/>
<path d="M1025.99 803.467H1022.45V808.775H1025.99V803.467Z" fill="#D513E3"/>
<path d="M48.3559 791.893H44.8169V797.201H48.3559V791.893Z" fill="#D513E3"/>
<path d="M84.477 796.924H80.938V802.232H84.477V796.924Z" fill="#FDDB86"/>
<path d="M530.66 796.924H527.121V802.232H530.66V796.924Z" fill="#FDDB86"/>
<path d="M992.66 796.924H989.121V802.232H992.66V796.924Z" fill="#FDDB86"/>
<path d="M15.028 785.35H11.489V790.658H15.028V785.35Z" fill="#FDDB86"/>
<path d="M238.021 838.037H234.482V843.345H238.021V838.037Z" fill="#FDDB86"/>
<path d="M684.203 838.037H680.664V843.345H684.203V838.037Z" fill="#FDDB86"/>
<path d="M1146.2 838.037H1142.66V843.345H1146.2V838.037Z" fill="#FDDB86"/>
<path d="M64.1149 826.462H60.5759V831.77H64.1149V826.462Z" fill="#FDDB86"/>
<path d="M510.298 826.462H506.759V831.77H510.298V826.462Z" fill="#FDDB86"/>
<path d="M972.298 826.462H968.759V831.77H972.298V826.462Z" fill="#FDDB86"/>
<path d="M399.896 843.345H396.357V848.653H399.896V843.345Z" fill="#FDDB86"/>
<path d="M846.079 843.345H842.54V848.653H846.079V843.345Z" fill="#FDDB86"/>
<path d="M1308.08 843.345H1304.54V848.653H1308.08V843.345Z" fill="#FDDB86"/>
<path d="M328.481 806.121H324.942V811.429H328.481V806.121Z" fill="#FDDB86"/>
<path d="M774.663 806.121H771.124V811.429H774.663V806.121Z" fill="#FDDB86"/>
<path d="M1236.66 806.121H1233.12V811.429H1236.66V806.121Z" fill="#FDDB86"/>
<path d="M371.941 788.588H368.402V793.896H371.941V788.588Z" fill="#FDDB86"/>
<path d="M818.124 788.588H814.585V793.896H818.124V788.588Z" fill="#FDDB86"/>
<path d="M1280.13 788.588H1276.59V793.896H1280.13V788.588Z" fill="#FDDB86"/>
<path d="M288.028 790.969H284.489V796.277H288.028V790.969Z" fill="#FDDB86"/>
<path d="M734.211 790.969H730.672V796.277H734.211V790.969Z" fill="#FDDB86"/>
<path d="M1196.21 790.969H1192.67V796.277H1196.21V790.969Z" fill="#FDDB86"/>
<path d="M820.505 814.774H816.966V820.082H820.505V814.774Z" fill="#D513E3"/>
<path d="M1282.51 814.774H1278.97V820.082H1282.51V814.774Z" fill="#D513E3"/>
<path d="M422.511 798.979H418.972V804.287H422.511V798.979Z" fill="#FDDB86"/>
<path d="M868.694 798.979H865.155V804.287H868.694V798.979Z" fill="#FDDB86"/>
<path d="M1330.69 798.979H1327.15V804.287H1330.69V798.979Z" fill="#FDDB86"/>
<path d="M416.56 798.979H413.021V804.287H416.56V798.979Z" fill="#1DE0E0"/>
<path d="M862.743 798.979H859.204V804.287H862.743V798.979Z" fill="#1DE0E0"/>
<path d="M1324.74 798.979H1321.2V804.287H1324.74V798.979Z" fill="#1DE0E0"/>
<path d="M474.304 783.827H470.765V789.135H474.304V783.827Z" fill="#FDDB86"/>
<path d="M920.487 783.827H916.948V789.135H920.487V783.827Z" fill="#FDDB86"/>
<path d="M1382.49 783.827H1378.95V789.135H1382.49V783.827Z" fill="#FDDB86"/>
<path d="M237.782 803.467H234.482V808.775H237.782V803.467Z" fill="#1DE0E0"/>
<path d="M683.964 803.467H680.664V808.775H683.964V803.467Z" fill="#1DE0E0"/>
<path d="M1145.96 803.467H1142.66V808.775H1145.96V803.467Z" fill="#1DE0E0"/>
<path d="M251.135 767.437H247.584V771.876H251.135V767.437Z" fill="#FDDB86"/>
<path d="M697.318 767.437H693.767V771.876H697.318V767.437Z" fill="#FDDB86"/>
<path d="M1159.32 767.437H1155.77V771.876H1159.32V767.437Z" fill="#FDDB86"/>
<path d="M423.128 767.437H419.577V771.876H423.128V767.437Z" fill="#FDDB86"/>
<path d="M869.311 767.437H865.76V771.876H869.311V767.437Z" fill="#FDDB86"/>
<path d="M1331.31 767.437H1327.76V771.876H1331.31V767.437Z" fill="#FDDB86"/>
<path d="M432.65 767.437H429.099V771.876H432.65V767.437Z" fill="#FDDB86"/>
<path d="M878.833 767.437H875.282V771.876H878.833V767.437Z" fill="#FDDB86"/>
<path d="M1340.83 767.437H1337.28V771.876H1340.83V767.437Z" fill="#FDDB86"/>
<path d="M243.399 767.437H239.848V771.876H243.399V767.437Z" fill="#FDDB86"/>
<path d="M689.581 767.437H686.03V771.876H689.581V767.437Z" fill="#FDDB86"/>
<path d="M1151.58 767.437H1148.03V771.876H1151.58V767.437Z" fill="#FDDB86"/>
<path d="M89.2699 611.034C90.5849 611.034 91.6509 609.968 91.6509 608.653C91.6509 607.338 90.5849 606.272 89.2699 606.272C87.9549 606.272 86.8889 607.338 86.8889 608.653C86.8889 609.968 87.9549 611.034 89.2699 611.034Z" fill="#C070D0"/>
<path d="M553.381 611.034C554.696 611.034 555.762 609.968 555.762 608.653C555.762 607.338 554.696 606.272 553.381 606.272C552.066 606.272 551 607.338 551 608.653C551 609.968 552.066 611.034 553.381 611.034Z" fill="#C070D0"/>
<path d="M1015.38 611.034C1016.69 611.034 1017.76 609.968 1017.76 608.653C1017.76 607.338 1016.69 606.272 1015.38 606.272C1014.07 606.272 1013 607.338 1013 608.653C1013 609.968 1014.07 611.034 1015.38 611.034Z" fill="#C070D0"/>
<path d="M335.654 606.273C336.969 606.273 338.035 605.207 338.035 603.892C338.035 602.577 336.969 601.511 335.654 601.511C334.339 601.511 333.273 602.577 333.273 603.892C333.273 605.207 334.339 606.273 335.654 606.273Z" fill="#C070D0"/>
<path d="M799.765 606.273C801.08 606.273 802.146 605.207 802.146 603.892C802.146 602.577 801.08 601.511 799.765 601.511C798.45 601.511 797.384 602.577 797.384 603.892C797.384 605.207 798.45 606.273 799.765 606.273Z" fill="#C070D0"/>
<path d="M1261.77 606.273C1263.09 606.273 1264.15 605.207 1264.15 603.892C1264.15 602.577 1263.09 601.511 1261.77 601.511C1260.46 601.511 1259.39 602.577 1259.39 603.892C1259.39 605.207 1260.46 606.273 1261.77 606.273Z" fill="#C070D0"/>
<path d="M133.309 670.548C134.624 670.548 135.69 669.482 135.69 668.167C135.69 666.852 134.624 665.786 133.309 665.786C131.994 665.786 130.928 666.852 130.928 668.167C130.928 669.482 131.994 670.548 133.309 670.548Z" fill="#C070D0"/>
<path d="M1059.42 670.548C1060.74 670.548 1061.8 669.482 1061.8 668.167C1061.8 666.852 1060.74 665.786 1059.42 665.786C1058.11 665.786 1057.04 666.852 1057.04 668.167C1057.04 669.482 1058.11 670.548 1059.42 670.548Z" fill="#C070D0"/>
<path d="M379.694 665.786C381.009 665.786 382.075 664.72 382.075 663.405C382.075 662.09 381.009 661.024 379.694 661.024C378.379 661.024 377.313 662.09 377.313 663.405C377.313 664.72 378.379 665.786 379.694 665.786Z" fill="#C070D0"/>
<path d="M843.805 665.786C845.12 665.786 846.186 664.72 846.186 663.405C846.186 662.09 845.12 661.024 843.805 661.024C842.49 661.024 841.424 662.09 841.424 663.405C841.424 664.72 842.49 665.786 843.805 665.786Z" fill="#C070D0"/>
<path d="M1305.81 665.786C1307.13 665.786 1308.19 664.72 1308.19 663.405C1308.19 662.09 1307.13 661.024 1305.81 661.024C1304.5 661.024 1303.43 662.09 1303.43 663.405C1303.43 664.72 1304.5 665.786 1305.81 665.786Z" fill="#C070D0"/>
<path d="M152.354 615.795C153.669 615.795 154.735 614.729 154.735 613.414C154.735 612.099 153.669 611.033 152.354 611.033C151.039 611.033 149.973 612.099 149.973 613.414C149.973 614.729 151.039 615.795 152.354 615.795Z" fill="#C070D0"/>
<path d="M616.464 615.795C617.779 615.795 618.845 614.729 618.845 613.414C618.845 612.099 617.779 611.033 616.464 611.033C615.149 611.033 614.083 612.099 614.083 613.414C614.083 614.729 615.149 615.795 616.464 615.795Z" fill="#C070D0"/>
<path d="M1078.46 615.795C1079.77 615.795 1080.84 614.729 1080.84 613.414C1080.84 612.099 1079.77 611.033 1078.46 611.033C1077.14 611.033 1076.08 612.099 1076.08 613.414C1076.08 614.729 1077.14 615.795 1078.46 615.795Z" fill="#C070D0"/>
<path d="M411.958 647.211C413.273 647.211 414.339 646.145 414.339 644.83C414.339 643.515 413.273 642.449 411.958 642.449C410.643 642.449 409.577 643.515 409.577 644.83C409.577 646.145 410.643 647.211 411.958 647.211Z" fill="#C070D0"/>
<path d="M862.849 611.034C864.164 611.034 865.23 609.968 865.23 608.653C865.23 607.338 864.164 606.272 862.849 606.272C861.534 606.272 860.468 607.338 860.468 608.653C860.468 609.968 861.534 611.034 862.849 611.034Z" fill="#C070D0"/>
<path d="M1324.85 611.034C1326.16 611.034 1327.23 609.968 1327.23 608.653C1327.23 607.338 1326.16 606.272 1324.85 606.272C1323.53 606.272 1322.47 607.338 1322.47 608.653C1322.47 609.968 1323.53 611.034 1324.85 611.034Z" fill="#C070D0"/>
<path d="M122.373 625.766C123.154 625.766 123.788 625.133 123.788 624.351C123.788 623.57 123.154 622.936 122.373 622.936C121.592 622.936 120.958 623.57 120.958 624.351C120.958 625.133 121.592 625.766 122.373 625.766Z" fill="#C070D0"/>
<path d="M586.484 625.766C587.265 625.766 587.899 625.133 587.899 624.351C587.899 623.57 587.265 622.936 586.484 622.936C585.703 622.936 585.069 623.57 585.069 624.351C585.069 625.133 585.703 625.766 586.484 625.766Z" fill="#C070D0"/>
<path d="M1048.48 625.766C1049.26 625.766 1049.9 625.133 1049.9 624.351C1049.9 623.57 1049.26 622.936 1048.48 622.936C1047.7 622.936 1047.06 623.57 1047.06 624.351C1047.06 625.133 1047.7 625.766 1048.48 625.766Z" fill="#C070D0"/>
<path d="M368.757 621.005C369.539 621.005 370.172 620.372 370.172 619.59C370.172 618.809 369.539 618.175 368.757 618.175C367.976 618.175 367.342 618.809 367.342 619.59C367.342 620.372 367.976 621.005 368.757 621.005Z" fill="#C070D0"/>
<path d="M832.868 621.005C833.649 621.005 834.283 620.372 834.283 619.59C834.283 618.809 833.649 618.175 832.868 618.175C832.086 618.175 831.453 618.809 831.453 619.59C831.453 620.372 832.086 621.005 832.868 621.005Z" fill="#C070D0"/>
<path d="M1294.87 621.005C1295.65 621.005 1296.29 620.372 1296.29 619.59C1296.29 618.809 1295.65 618.175 1294.87 618.175C1294.09 618.175 1293.45 618.809 1293.45 619.59C1293.45 620.372 1294.09 621.005 1294.87 621.005Z" fill="#C070D0"/>
<path d="M277.555 673.377C278.336 673.377 278.97 672.744 278.97 671.962C278.97 671.181 278.336 670.547 277.555 670.547C276.774 670.547 276.14 671.181 276.14 671.962C276.14 672.744 276.774 673.377 277.555 673.377Z" fill="#C070D0"/>
<path d="M741.666 673.377C742.447 673.377 743.081 672.744 743.081 671.962C743.081 671.181 742.447 670.547 741.666 670.547C740.885 670.547 740.251 671.181 740.251 671.962C740.251 672.744 740.885 673.377 741.666 673.377Z" fill="#C070D0"/>
<path d="M1203.67 673.377C1204.45 673.377 1205.08 672.744 1205.08 671.962C1205.08 671.181 1204.45 670.547 1203.67 670.547C1202.89 670.547 1202.26 671.181 1202.26 671.962C1202.26 672.744 1202.89 673.377 1203.67 673.377Z" fill="#C070D0"/>
<path d="M209.71 685.279C210.492 685.279 211.125 684.645 211.125 683.864C211.125 683.083 210.492 682.449 209.71 682.449C208.929 682.449 208.295 683.083 208.295 683.864C208.295 684.645 208.929 685.279 209.71 685.279Z" fill="#C070D0"/>
<path d="M1135.82 685.279C1136.6 685.279 1137.23 684.645 1137.23 683.864C1137.23 683.083 1136.6 682.449 1135.82 682.449C1135.04 682.449 1134.41 683.083 1134.41 683.864C1134.41 684.645 1135.04 685.279 1135.82 685.279Z" fill="#C070D0"/>
<path d="M226.374 619.59C227.155 619.59 227.789 618.956 227.789 618.175C227.789 617.394 227.155 616.76 226.374 616.76C225.592 616.76 224.959 617.394 224.959 618.175C224.959 618.956 225.592 619.59 226.374 619.59Z" fill="#C070D0"/>
<path d="M690.485 619.59C691.267 619.59 691.9 618.956 691.9 618.175C691.9 617.394 691.267 616.76 690.485 616.76C689.704 616.76 689.07 617.394 689.07 618.175C689.07 618.956 689.704 619.59 690.485 619.59Z" fill="#C070D0"/>
<path d="M1152.49 619.59C1153.27 619.59 1153.91 618.956 1153.91 618.175C1153.91 617.394 1153.27 616.76 1152.49 616.76C1151.71 616.76 1151.07 617.394 1151.07 618.175C1151.07 618.956 1151.71 619.59 1152.49 619.59Z" fill="#C070D0"/>
<path d="M158.529 557.921C159.311 557.921 159.944 557.288 159.944 556.506C159.944 555.725 159.311 555.091 158.529 555.091C157.748 555.091 157.114 555.725 157.114 556.506C157.114 557.288 157.748 557.921 158.529 557.921Z" fill="#C070D0"/>
<path d="M622.64 557.921C623.421 557.921 624.055 557.288 624.055 556.506C624.055 555.725 623.421 555.091 622.64 555.091C621.859 555.091 621.225 555.725 621.225 556.506C621.225 557.288 621.859 557.921 622.64 557.921Z" fill="#C070D0"/>
<path d="M1084.64 557.921C1085.42 557.921 1086.06 557.288 1086.06 556.506C1086.06 555.725 1085.42 555.091 1084.64 555.091C1083.86 555.091 1083.22 555.725 1083.22 556.506C1083.22 557.288 1083.86 557.921 1084.64 557.921Z" fill="#C070D0"/>
<path d="M304.932 638.859C305.713 638.859 306.347 638.226 306.347 637.444C306.347 636.663 305.713 636.029 304.932 636.029C304.15 636.029 303.517 636.663 303.517 637.444C303.517 638.226 304.15 638.859 304.932 638.859Z" fill="#C070D0"/>
<path d="M769.042 638.859C769.823 638.859 770.457 638.226 770.457 637.444C770.457 636.663 769.823 636.029 769.042 636.029C768.26 636.029 767.627 636.663 767.627 637.444C767.627 638.226 768.26 638.859 769.042 638.859Z" fill="#C070D0"/>
<path d="M1231.04 638.859C1231.82 638.859 1232.45 638.226 1232.45 637.444C1232.45 636.663 1231.82 636.029 1231.04 636.029C1230.26 636.029 1229.62 636.663 1229.62 637.444C1229.62 638.226 1230.26 638.859 1231.04 638.859Z" fill="#C070D0"/>
<path d="M286.482 573.394C287.264 573.394 287.897 572.761 287.897 571.979C287.897 571.198 287.264 570.564 286.482 570.564C285.701 570.564 285.067 571.198 285.067 571.979C285.067 572.761 285.701 573.394 286.482 573.394Z" fill="#C070D0"/>
<path d="M750.593 573.394C751.375 573.394 752.008 572.761 752.008 571.979C752.008 571.198 751.375 570.564 750.593 570.564C749.812 570.564 749.178 571.198 749.178 571.979C749.178 572.761 749.812 573.394 750.593 573.394Z" fill="#C070D0"/>
<path d="M1212.59 573.394C1213.37 573.394 1214.01 572.761 1214.01 571.979C1214.01 571.198 1213.37 570.564 1212.59 570.564C1211.81 570.564 1211.18 571.198 1211.18 571.979C1211.18 572.761 1211.81 573.394 1212.59 573.394Z" fill="#C070D0"/>
<path d="M487.042 654.332C487.823 654.332 488.457 653.698 488.457 652.917C488.457 652.135 487.823 651.502 487.042 651.502C486.26 651.502 485.627 652.135 485.627 652.917C485.627 653.698 486.26 654.332 487.042 654.332Z" fill="#C070D0"/>
<path d="M951.153 654.332C951.935 654.332 952.568 653.698 952.568 652.917C952.568 652.135 951.935 651.502 951.153 651.502C950.372 651.502 949.738 652.135 949.738 652.917C949.738 653.698 950.372 654.332 951.153 654.332Z" fill="#C070D0"/>
<path d="M1413.15 654.332C1413.93 654.332 1414.56 653.698 1414.56 652.917C1414.56 652.135 1413.93 651.502 1413.15 651.502C1412.37 651.502 1411.73 652.135 1411.73 652.917C1411.73 653.698 1412.37 654.332 1413.15 654.332Z" fill="#C070D0"/>
<path d="M487.169 609.571C487.951 609.571 488.584 608.938 488.584 608.156C488.584 607.375 487.951 606.741 487.169 606.741C486.388 606.741 485.754 607.375 485.754 608.156C485.754 608.938 486.388 609.571 487.169 609.571Z" fill="#C070D0"/>
<path d="M938.06 573.394C938.841 573.394 939.475 572.761 939.475 571.979C939.475 571.198 938.841 570.564 938.06 570.564C937.279 570.564 936.645 571.198 936.645 571.979C936.645 572.761 937.279 573.394 938.06 573.394Z" fill="#C070D0"/>
<path d="M1400.06 573.394C1400.84 573.394 1401.47 572.761 1401.47 571.979C1401.47 571.198 1400.84 570.564 1400.06 570.564C1399.28 570.564 1398.65 571.198 1398.65 571.979C1398.65 572.761 1399.28 573.394 1400.06 573.394Z" fill="#C070D0"/>
</g>
</g>
<defs>
<linearGradient id="paint0_linear_218_2882" x1="720" y1="0.350149" x2="720" y2="1116.99" gradientUnits="userSpaceOnUse">
<stop stop-color="#261886"/>
<stop offset="0.37" stop-color="#4933B9"/>
<stop offset="1" stop-color="#C63CBD"/>
</linearGradient>
<linearGradient id="paint1_linear_218_2882" x1="1291.33" y1="720.579" x2="1290.99" y2="804.944" gradientUnits="userSpaceOnUse">
<stop stop-color="#39239A"/>
<stop offset="1" stop-color="#603FF3"/>
</linearGradient>
<linearGradient id="paint2_linear_218_2882" x1="618" y1="673.35" x2="620" y2="804.93" gradientUnits="userSpaceOnUse">
<stop stop-color="#39239A"/>
<stop offset="1" stop-color="#603FF3"/>
</linearGradient>
<linearGradient id="paint3_linear_218_2882" x1="148.783" y1="721.803" x2="148.24" y2="788.733" gradientUnits="userSpaceOnUse">
<stop stop-color="#39239A"/>
<stop offset="1" stop-color="#5235D3"/>
</linearGradient>
<linearGradient id="paint4_linear_218_2882" x1="814" y1="753" x2="814" y2="1024" gradientUnits="userSpaceOnUse">
<stop stop-color="#291A6C"/>
<stop offset="0.481484" stop-color="#10063A"/>
<stop offset="1"/>
</linearGradient>
<clipPath id="clip0_218_2882">
<rect width="1440" height="1025" fill="white"/>
</clipPath>
</defs>
</svg>
