<svg width="422" height="1031" viewBox="0 0 422 1031" fill="none" xmlns="http://www.w3.org/2000/svg">
<path d="M421.619 0H0V1031H421.619V0Z" fill="url(#paint0_linear_901_228)"/>
<mask id="mask0_901_228" style="mask-type:luminance" maskUnits="userSpaceOnUse" x="0" y="0" width="422" height="1031">
<path d="M421.619 0H0V1031H421.619V0Z" fill="white"/>
</mask>
<g mask="url(#mask0_901_228)">
<path fill-rule="evenodd" clip-rule="evenodd" d="M575.372 651.609L593.84 657L617.374 659.31L642.379 676.268L717.393 685.493L743.193 702.104L792.407 708.597L816.758 703.755L841.681 704.746L891.473 719.707L952.394 747.211L1006.42 754.912V799.469H109.293V754.912L163.317 747.211L224.238 719.707L274.03 704.746L298.953 703.755L323.304 708.597L372.518 702.104L398.318 685.493L473.333 676.268L498.337 659.31L521.871 657L540.339 651.609H575.372Z" fill="url(#paint1_linear_901_228)"/>
<path fill-rule="evenodd" clip-rule="evenodd" d="M-84.125 673.215L-68.356 677.818L-48.26 679.79L-26.909 694.271L37.145 702.148L59.175 716.332L101.199 721.876L121.992 717.741L143.274 718.588L185.79 731.363L237.81 754.848L283.941 761.424V799.471H-84.125V673.215Z" fill="url(#paint2_linear_901_228)"/>
<path fill-rule="evenodd" clip-rule="evenodd" d="M-15.5426 1022.11L-15.5376 1031H-114.727L-109.579 735.568L-90.9606 749.906H-94.5456V760.823H-89.1686V755.989H-90.9606V752.404H-87.3766V748.82H-85.8086V745.235H-83.5676V748.82H-81.7756V745.235H-79.5356V748.82H-77.7426V745.235H-75.5026V748.82H-73.9346V752.404H-70.3496V755.989H-72.1426V760.823H-69.0056V758.677H-64.5256V760.823H-61.3886V747.924H-58.7006V744.339H-56.0116V740.755H-44.3626V744.339H-41.6736V747.924H-38.9856V760.823H-32.7126V743.457L-15.6856 734.496L-15.6816 743.443H7.87144L15.9364 757.781H12.3524V760.823H20.4174V740.768H37.4434V760.823H41.9244V757.781L58.9504 748.82V760.823H63.4314V756.016L80.4584 747.055V760.823H87.6274V755.989H84.9384V752.404H96.5884V747.525H101.069V752.404H112.718V747.525H121.779L125.264 752.404H135.122V755.989H132.433V760.823H142.291V752.418H138.706L147.667 748.128L172.759 742.751H177.24V748.128H181.721L189.786 752.418H186.201V760.823H191.578V755.989H189.786V752.404H193.37V748.82H194.938V745.235H197.179V748.82H198.971V745.235H201.211V748.82H203.004V745.235H205.244V748.82H206.812V752.404H210.397V755.989H208.604V760.823H211.741V758.677H216.222V760.823H219.358V747.924H222.046V744.339H224.735V753.314H236.385V744.339H239.073V747.924H241.761V760.823H248.034V743.457L265.061 738.263V760.823H278.503V755.989H275.814V752.404H287.464V747.525H291.945V752.404H303.594V747.525H312.655L316.14 752.404H325.998V755.989H323.309V760.823H333.167V749.906H329.582L338.544 735.568H372.597L380.662 749.906H377.077V760.823H382.454V755.989H380.662V752.404H384.246V748.82H385.815V745.235H388.055V748.82H389.847V745.235H392.088V748.82H393.88V745.235H396.12V748.82H397.688V752.404H401.273V755.989H399.481V760.823H402.617V758.677H407.098V760.823H410.234V747.924H412.923V744.339H415.611V740.755H427.261V744.339H429.949V747.924H432.638V760.823H438.91V743.457L455.937 734.496V743.443H478.681L486.746 757.781H483.162V760.823H491.227V740.768H508.253V760.823H512.734V757.781L529.761 748.82V760.823H534.241V756.016L551.268 747.055V760.823H558.437V755.989H555.748V752.404H567.398V747.525H571.879V752.404H583.528V747.525H592.589L596.074 752.404H605.932V755.989H603.243V760.823H613.101V752.418H609.516L618.478 748.128L643.569 742.751H648.05V748.128H652.531L660.596 752.418H657.011V760.823H662.388V755.989H660.596V752.404H664.18V748.82H665.749V745.235H667.989V748.82H669.781V745.235H672.022V748.82H673.814V745.235H676.054V748.82H677.622V752.404H681.207V755.989H679.415V760.823H682.551V758.677H687.032V760.823H690.168V747.924H692.857V744.339H695.545V753.314H707.195V744.339H709.883V747.924H712.572V760.823H718.844V743.457L735.871 738.263V760.823H749.313V755.989H746.625V752.404H758.274V747.525H762.755V752.404H774.405V747.525H783.466L786.95 752.404H796.808V755.989H794.12V760.823H803.977V749.906H800.392L809.354 735.568H843.407L851.472 749.906H847.887V760.823H853.264V755.989H851.472V752.404H855.057V748.82H856.625V745.235H858.865V748.82H860.657V745.235H862.898V748.82H864.69V745.235H866.93V748.82H868.499V752.404H872.083V755.989H870.291V760.823H873.427V758.677H877.908V760.823H881.044V747.924H883.733V744.339H886.421V740.755H898.071V744.339H900.759V747.924H903.448V760.823H909.721V743.457L926.747 734.496V757.787C926.749 757.785 926.75 757.783 926.752 757.781L932.128 743.443H966.181L974.247 757.781H970.662V760.823H978.727V740.768H995.754V760.823H1000.24V757.781L1017.26 748.82V760.823H1021.74V756.016L1038.77 747.055V760.823H1045.94V755.989H1043.25V752.404H1054.9V747.525H1059.38V752.404H1071.03V747.525H1080.09L1083.58 752.404H1093.43V755.989H1090.75V760.823H1100.6V752.418H1097.02L1105.98 748.128L1131.07 742.751H1135.55V748.128H1140.03L1148.1 752.418H1144.51V760.823H1149.89V755.989H1148.1V752.404H1151.68V748.82H1153.25V745.235H1155.49V748.82H1157.28V745.235H1159.52V748.82H1161.32V745.235H1163.56V748.82H1165.13V752.404H1168.71V755.989H1166.92V760.823H1170.05V758.677H1174.53V760.823H1177.67V747.924H1180.36V744.339H1183.05V753.314H1194.7V744.339H1197.39V747.924H1200.07V760.823H1206.35V743.457L1223.37 738.263V760.823H1236.82V755.989H1234.13V752.404H1245.78V747.525H1250.26V752.404H1261.91V747.525H1270.97L1274.45 752.404H1284.31V755.989H1281.62V760.823H1291.48V749.906H1287.9L1296.86 735.568H1330.91L1338.97 749.906H1335.39V760.823H1340.77V755.989H1338.97V752.404H1342.56V748.82H1344.13V745.235H1346.37V748.82H1348.16V745.235H1350.4V748.82H1352.19V745.235H1354.43V748.82H1356V752.404H1359.59V755.989H1357.79V760.823H1360.93V758.677H1365.41V760.823H1368.55V747.924H1371.23V744.339H1373.92V740.755H1385.57V744.339H1388.26V747.924H1390.95V760.823H1397.22V743.457L1414.25 734.496V759.906H1435.36V1022.11H926.752C926.75 1022.11 926.749 1022.11 926.747 1022.11H-15.5426Z" fill="url(#paint3_linear_901_228)"/>
<path d="M4.41206 759.906H0.664062V764.59H4.41206V759.906Z" fill="#FDDB86"/>
<path d="M98.6074 759.906H94.8594V764.59H98.6074V759.906Z" fill="#FDDB86"/>
<path d="M71.5778 783.141H67.8438V788.742H71.5778V783.141Z" fill="#FDDB86"/>
<path d="M198.433 819.621H194.699V825.222H198.433V819.621Z" fill="#FDDB86"/>
<path d="M21.3434 819.621H17.6094V825.222H21.3434V819.621Z" fill="#FDDB86"/>
<path d="M369.242 825.223H365.508V830.824H369.242V825.223Z" fill="#FDDB86"/>
<path d="M123.074 785.941H119.34V791.542H123.074V785.941Z" fill="#D513E3"/>
<path d="M275.046 822.422H271.312V828.023H275.046V822.422Z" fill="#FDDB86"/>
<path d="M133.121 865.121H129.387V870.722H133.121V865.121Z" fill="#1DE0E0"/>
<path d="M101.722 806.094H97.9883V811.695H101.722V806.094Z" fill="#FDDB86"/>
<path d="M251.793 844.738H248.059V850.339H251.793V844.738Z" fill="#FDDB86"/>
<path d="M74.7028 844.738H70.9688V850.339H74.7028V844.738Z" fill="#FDDB86"/>
<path d="M422.605 850.34H418.871V855.941H422.605V850.34Z" fill="#FDDB86"/>
<path d="M40.1793 797.926H36.4453V803.527H40.1793V797.926Z" fill="#D513E3"/>
<path d="M5.01525 791.023H1.28125V796.624H5.01525V791.023Z" fill="#FDDB86"/>
<path d="M167.031 834.402H163.297V840.003H167.031V834.402Z" fill="#FDDB86"/>
<path d="M337.843 840.004H334.109V845.605H337.843V840.004Z" fill="#FDDB86"/>
<path d="M262.484 800.727H258.75V806.328H262.484V800.727Z" fill="#FDDB86"/>
<path d="M308.347 782.227H304.613V787.828H308.347V782.227Z" fill="#FDDB86"/>
<path d="M219.8 784.738H216.066V790.339H219.8V784.738Z" fill="#FDDB86"/>
<path d="M361.707 793.191H357.973V798.792H361.707V793.191Z" fill="#FDDB86"/>
<path d="M355.425 793.191H351.691V798.792H355.425V793.191Z" fill="#1DE0E0"/>
<path d="M416.359 777.203H412.625V782.804H416.359V777.203Z" fill="#FDDB86"/>
<path d="M166.78 797.926H163.297V803.527H166.78V797.926Z" fill="#1DE0E0"/>
<path d="M180.873 759.906H177.125V764.59H180.873V759.906Z" fill="#FDDB86"/>
<path d="M362.357 759.906H358.609V764.59H362.357V759.906Z" fill="#FDDB86"/>
<path d="M372.408 759.906H368.66V764.59H372.408V759.906Z" fill="#FDDB86"/>
<path d="M172.709 759.906H168.961V764.59H172.709V759.906Z" fill="#FDDB86"/>
<path d="M675.616 903.355H218.078V1031H675.616V903.355Z" fill="url(#paint4_radial_901_228)"/>
<path d="M244.959 903.355H-164.445V1031H244.959V903.355Z" fill="url(#paint5_radial_901_228)"/>
<path d="M424.481 948.376C461.09 948.376 490.767 942.172 490.767 934.518C490.767 926.865 461.09 920.66 424.481 920.66C387.873 920.66 358.195 926.865 358.195 934.518C358.195 942.172 387.873 948.376 424.481 948.376Z" fill="#39239A" fill-opacity="0.33"/>
<path d="M1435.35 834.98H-84.125V846.284H1435.35V834.98Z" fill="#6F58D7"/>
<path d="M1435.35 834.98H-84.125V838.748H1435.35V834.98Z" fill="#907EE0"/>
<path d="M21.953 846.285H12.582V918.249H21.953V846.285Z" fill="url(#paint6_linear_901_228)"/>
<path d="M439.919 948.376C476.528 948.376 506.205 942.172 506.205 934.518C506.205 926.865 476.528 920.66 439.919 920.66C403.31 920.66 373.633 926.865 373.633 934.518C373.633 942.172 403.31 948.376 439.919 948.376Z" fill="#39239A" fill-opacity="0.33"/>
<path d="M94.0273 846.285H84.6562V918.249H94.0273V846.285Z" fill="url(#paint7_linear_901_228)"/>
<path d="M166.101 846.285H156.73V918.249H166.101V846.285Z" fill="url(#paint8_linear_901_228)"/>
<path d="M238.172 846.285H228.801V918.249H238.172V846.285Z" fill="url(#paint9_linear_901_228)"/>
<path d="M310.246 846.285H300.875V918.249H310.246V846.285Z" fill="url(#paint10_linear_901_228)"/>
<path d="M10.0706 594.872C11.4579 594.872 12.5826 593.747 12.5826 592.36C12.5826 590.972 11.4579 589.848 10.0706 589.848C8.68325 589.848 7.55859 590.972 7.55859 592.36C7.55859 593.747 8.68325 594.872 10.0706 594.872Z" fill="#C070D0"/>
<path d="M270.055 589.848C271.442 589.848 272.567 588.724 272.567 587.336C272.567 585.949 271.442 584.824 270.055 584.824C268.668 584.824 267.543 585.949 267.543 587.336C267.543 588.724 268.668 589.848 270.055 589.848Z" fill="#C070D0"/>
<path d="M56.5432 657.669C57.9306 657.669 59.0552 656.544 59.0552 655.157C59.0552 653.769 57.9306 652.645 56.5432 652.645C55.1559 652.645 54.0312 653.769 54.0312 655.157C54.0312 656.544 55.1559 657.669 56.5432 657.669Z" fill="#C070D0"/>
<path d="M316.528 652.645C317.915 652.645 319.04 651.52 319.04 650.133C319.04 648.746 317.915 647.621 316.528 647.621C315.14 647.621 314.016 648.746 314.016 650.133C314.016 651.52 315.14 652.645 316.528 652.645Z" fill="#C070D0"/>
<path d="M76.637 599.895C78.0243 599.895 79.149 598.77 79.149 597.383C79.149 595.996 78.0243 594.871 76.637 594.871C75.2497 594.871 74.125 595.996 74.125 597.383C74.125 598.77 75.2497 599.895 76.637 599.895Z" fill="#C070D0"/>
<path d="M350.571 633.044C351.958 633.044 353.083 631.919 353.083 630.532C353.083 629.144 351.958 628.02 350.571 628.02C349.183 628.02 348.059 629.144 348.059 630.532C348.059 631.919 349.183 633.044 350.571 633.044Z" fill="#C070D0"/>
<path d="M45.0008 610.416C45.8254 610.416 46.4938 609.747 46.4938 608.923C46.4938 608.098 45.8254 607.43 45.0008 607.43C44.1763 607.43 43.5078 608.098 43.5078 608.923C43.5078 609.747 44.1763 610.416 45.0008 610.416Z" fill="#C070D0"/>
<path d="M304.985 605.392C305.81 605.392 306.478 604.724 306.478 603.899C306.478 603.075 305.81 602.406 304.985 602.406C304.161 602.406 303.492 603.075 303.492 603.899C303.492 604.724 304.161 605.392 304.985 605.392Z" fill="#C070D0"/>
<path d="M208.751 660.654C209.575 660.654 210.244 659.986 210.244 659.161C210.244 658.336 209.575 657.668 208.751 657.668C207.926 657.668 207.258 658.336 207.258 659.161C207.258 659.986 207.926 660.654 208.751 660.654Z" fill="#C070D0"/>
<path d="M137.161 673.213C137.986 673.213 138.654 672.544 138.654 671.72C138.654 670.895 137.986 670.227 137.161 670.227C136.336 670.227 135.668 670.895 135.668 671.72C135.668 672.544 136.336 673.213 137.161 673.213Z" fill="#C070D0"/>
<path d="M154.743 603.9C155.568 603.9 156.236 603.232 156.236 602.407C156.236 601.583 155.568 600.914 154.743 600.914C153.918 600.914 153.25 601.583 153.25 602.407C153.25 603.232 153.918 603.9 154.743 603.9Z" fill="#C070D0"/>
<path d="M83.1532 538.826C83.9777 538.826 84.6462 538.157 84.6462 537.333C84.6462 536.508 83.9777 535.84 83.1532 535.84C82.3286 535.84 81.6602 536.508 81.6602 537.333C81.6602 538.157 82.3286 538.826 83.1532 538.826Z" fill="#C070D0"/>
<path d="M237.638 624.232C238.462 624.232 239.131 623.564 239.131 622.739C239.131 621.915 238.462 621.246 237.638 621.246C236.813 621.246 236.145 621.915 236.145 622.739C236.145 623.564 236.813 624.232 237.638 624.232Z" fill="#C070D0"/>
<path d="M218.169 555.154C218.993 555.154 219.662 554.486 219.662 553.661C219.662 552.836 218.993 552.168 218.169 552.168C217.344 552.168 216.676 552.836 216.676 553.661C216.676 554.486 217.344 555.154 218.169 555.154Z" fill="#C070D0"/>
<path d="M34.4423 943.122C71.051 943.122 100.728 939.606 100.728 935.27C100.728 930.933 71.051 927.418 34.4423 927.418C-2.16649 927.418 -31.8438 930.933 -31.8438 935.27C-31.8438 939.606 -2.16649 943.122 34.4423 943.122Z" fill="#39239A" fill-opacity="0.33"/>
<path d="M38 874.297H30.668V930.599H38V874.297Z" fill="url(#paint11_linear_901_228)"/>
<path fill-rule="evenodd" clip-rule="evenodd" d="M40.191 687.742H27.827L25.875 924.109H42.794L40.191 687.742Z" fill="url(#paint12_linear_901_228)"/>
<path fill-rule="evenodd" clip-rule="evenodd" d="M47.0235 883.763C47.0235 883.045 46.4405 882.461 45.7225 882.461H22.9455C22.2275 882.461 21.6445 883.045 21.6445 883.763V886.366C21.6445 887.084 22.2275 887.667 22.9455 887.667H45.7225C46.4405 887.667 47.0235 887.084 47.0235 886.366V883.763Z" fill="#6F58D7"/>
<path fill-rule="evenodd" clip-rule="evenodd" d="M44.7459 697.504C44.7459 696.786 44.1619 696.203 43.4439 696.203H25.2229C24.5049 696.203 23.9219 696.786 23.9219 697.504V700.107C23.9219 700.825 24.5049 701.409 25.2229 701.409H43.4439C44.1619 701.409 44.7459 700.825 44.7459 700.107V697.504Z" fill="#251762"/>
<path fill-rule="evenodd" clip-rule="evenodd" d="M47.0235 891.572C47.0235 890.854 46.4405 890.27 45.7225 890.27H22.9455C22.2275 890.27 21.6445 890.854 21.6445 891.572V894.174C21.6445 894.892 22.2275 895.476 22.9455 895.476H45.7225C46.4405 895.476 47.0235 894.892 47.0235 894.174V891.572Z" fill="#6F58D7"/>
<path fill-rule="evenodd" clip-rule="evenodd" d="M47.0235 922.81C47.0235 922.092 46.4405 921.508 45.7225 921.508H22.9455C22.2275 921.508 21.6445 922.092 21.6445 922.81V925.413C21.6445 926.131 22.2275 926.714 22.9455 926.714H45.7225C46.4405 926.714 47.0235 926.131 47.0235 925.413V922.81Z" fill="#6F58D7"/>
<path fill-rule="evenodd" clip-rule="evenodd" d="M51.9066 926.712C51.9066 925.276 50.7406 924.109 49.3036 924.109H19.3686C17.9326 924.109 16.7656 925.276 16.7656 926.712V931.918C16.7656 933.355 17.9326 934.521 19.3686 934.521H49.3036C50.7406 934.521 51.9066 933.355 51.9066 931.918V926.712Z" fill="#3B259C"/>
<path fill-rule="evenodd" clip-rule="evenodd" d="M41.2768 696.2H27.3938C27.3938 696.2 13.5598 674.123 13.5118 660.408C13.4858 653.006 19.5548 647.906 25.1468 644.781C30.8608 641.604 37.8108 641.604 43.5238 644.781C49.1158 647.906 55.1858 653.006 55.1598 660.408C55.1108 674.123 41.2768 696.2 41.2768 696.2Z" fill="url(#paint13_linear_901_228)"/>
<path fill-rule="evenodd" clip-rule="evenodd" d="M34.1394 636.504L39.5434 646.33H28.7344L34.1394 636.504Z" fill="#FDF4D7"/>
<path fill-rule="evenodd" clip-rule="evenodd" d="M764.231 948.646C709.473 950.308 615.922 951.404 509.805 951.404C341.221 951.404 204.352 948.638 204.352 945.232C204.352 941.825 341.221 939.059 509.805 939.059C615.922 939.059 709.473 940.155 764.231 941.817C818.99 940.155 912.541 939.059 1018.66 939.059C1066.61 939.059 1111.99 939.283 1152.39 939.682C1192.79 939.283 1238.18 939.059 1286.13 939.059C1454.71 939.059 1591.58 941.825 1591.58 945.232C1591.58 948.638 1454.71 951.404 1286.13 951.404C1238.18 951.404 1192.79 951.18 1152.39 950.781C1111.99 951.18 1066.61 951.404 1018.66 951.404C912.541 951.404 818.99 950.308 764.231 948.646Z" fill="#2B1A74"/>
</g>
<defs>
<linearGradient id="paint0_linear_901_228" x1="488.289" y1="87.4792" x2="488.289" y2="665.414" gradientUnits="userSpaceOnUse">
<stop stop-color="#523EAE"/>
<stop offset="1" stop-color="#A13DB8"/>
</linearGradient>
<linearGradient id="paint1_linear_901_228" x1="567.986" y1="660.626" x2="570.096" y2="799.469" gradientUnits="userSpaceOnUse">
<stop stop-color="#39239A"/>
<stop offset="1" stop-color="#603FF3"/>
</linearGradient>
<linearGradient id="paint2_linear_901_228" x1="72.8701" y1="711.755" x2="72.2974" y2="782.379" gradientUnits="userSpaceOnUse">
<stop stop-color="#39239A"/>
<stop offset="1" stop-color="#5235D3"/>
</linearGradient>
<linearGradient id="paint3_linear_901_228" x1="774.804" y1="752.428" x2="773.748" y2="881.162" gradientUnits="userSpaceOnUse">
<stop stop-color="#291A6C"/>
<stop offset="1" stop-color="#0D0434"/>
</linearGradient>
<radialGradient id="paint4_radial_901_228" cx="0" cy="0" r="1" gradientUnits="userSpaceOnUse" gradientTransform="translate(433.417 921.506) rotate(179.349) scale(229.232 72.8464)">
<stop stop-color="#6B53D8"/>
<stop offset="1" stop-color="#39239A"/>
</radialGradient>
<radialGradient id="paint5_radial_901_228" cx="0" cy="0" r="1" gradientUnits="userSpaceOnUse" gradientTransform="translate(50.8941 921.506) rotate(179.349) scale(229.232 72.8464)">
<stop stop-color="#6B53D8"/>
<stop offset="1" stop-color="#39239A"/>
</radialGradient>
<linearGradient id="paint6_linear_901_228" x1="210.396" y1="865.468" x2="210.396" y2="929.179" gradientUnits="userSpaceOnUse">
<stop stop-color="#6F58D7"/>
<stop offset="1" stop-color="#2B0DB3"/>
</linearGradient>
<linearGradient id="paint7_linear_901_228" x1="210.397" y1="865.468" x2="210.397" y2="929.179" gradientUnits="userSpaceOnUse">
<stop stop-color="#6F58D7"/>
<stop offset="1" stop-color="#2B0DB3"/>
</linearGradient>
<linearGradient id="paint8_linear_901_228" x1="210.398" y1="865.468" x2="210.398" y2="929.179" gradientUnits="userSpaceOnUse">
<stop stop-color="#6F58D7"/>
<stop offset="1" stop-color="#2B0DB3"/>
</linearGradient>
<linearGradient id="paint9_linear_901_228" x1="210.396" y1="865.468" x2="210.396" y2="929.179" gradientUnits="userSpaceOnUse">
<stop stop-color="#6F58D7"/>
<stop offset="1" stop-color="#2B0DB3"/>
</linearGradient>
<linearGradient id="paint10_linear_901_228" x1="210.398" y1="865.468" x2="210.398" y2="929.179" gradientUnits="userSpaceOnUse">
<stop stop-color="#6F58D7"/>
<stop offset="1" stop-color="#2B0DB3"/>
</linearGradient>
<linearGradient id="paint11_linear_901_228" x1="-40.1184" y1="889.305" x2="-40.1184" y2="939.149" gradientUnits="userSpaceOnUse">
<stop stop-color="#6F58D7"/>
<stop offset="1" stop-color="#2B0DB3"/>
</linearGradient>
<linearGradient id="paint12_linear_901_228" x1="34.3346" y1="778.983" x2="34.3346" y2="688.583" gradientUnits="userSpaceOnUse">
<stop stop-color="#3B259C"/>
<stop offset="1" stop-color="#6E50F2"/>
</linearGradient>
<linearGradient id="paint13_linear_901_228" x1="36.5949" y1="659.102" x2="35.6123" y2="693.494" gradientUnits="userSpaceOnUse">
<stop stop-color="#FDF4D7"/>
<stop offset="1" stop-color="#FFAB44"/>
</linearGradient>
</defs>
</svg>
