<svg width="1441" height="1025" viewBox="0 0 1441 1025" fill="none" xmlns="http://www.w3.org/2000/svg">
<g clip-path="url(#clip0_1114_3)">
<mask id="mask0_1114_3" style="mask-type:luminance" maskUnits="userSpaceOnUse" x="0" y="0" width="1441" height="1025">
<path d="M1440.12 0.902344H0.117188V1024.9H1440.12V0.902344Z" fill="white"/>
</mask>
<g mask="url(#mask0_1114_3)">
<path d="M1441.13 0.902344H0.117188V1024.9H1441.13V0.902344Z" fill="url(#paint0_linear_1114_3)"/>
<path fill-rule="evenodd" clip-rule="evenodd" d="M1033.84 443.218H1006.3V553.558H986.548V770.028H909.744V716.727H844.289V634.824H824.405V549.981H812.503V476.982H790.195V549.981H778.294V634.824H761.409V770.028H695.68V905.232H1059.65V348.281H1033.84V443.218Z" fill="#2D414B"/>
<path d="M1441.12 905.234H0.117188V1024.9H1441.12V905.234Z" fill="#314357"/>
<path d="M564.953 0.902344H412.871V905.232H564.953V0.902344Z" fill="url(#paint1_linear_1114_3)"/>
<path d="M695.544 0.902344H564.953V905.232H695.544V0.902344Z" fill="url(#paint2_linear_1114_3)"/>
<path d="M525.485 658.504H412.871V905.232H525.485V658.504Z" fill="#19222B"/>
<path d="M649.336 658.504H480.57V693.655H649.336V658.504Z" fill="#19222B"/>
<path d="M649.336 693.656H480.57V728.807H649.336V693.656Z" fill="#202B37"/>
<path d="M653.745 728.805H476.164V763.956H653.745V728.805Z" fill="#263341"/>
<path d="M659.356 763.957H470.555V799.108H659.356V763.957Z" fill="#2D3D4E"/>
<path d="M662.581 799.105H467.332V834.256H662.581V799.105Z" fill="#324457"/>
<path d="M666.06 834.258H463.852V869.409H666.06V834.258Z" fill="#3B5066"/>
<path d="M666.06 869.41H463.852V904.561H666.06V869.41Z" fill="#3F566D"/>
<path d="M646.147 546.887H412.871V569.329H646.147V546.887Z" fill="url(#paint3_linear_1114_3)"/>
<path d="M497.528 588.516H412.871V610.958H497.528V588.516Z" fill="url(#paint4_linear_1114_3)"/>
<path d="M1441.12 0.902344H947.168V905.232H1441.12V0.902344Z" fill="url(#paint5_linear_1114_3)"/>
<path d="M1441.12 0.902344H1044.48V905.232H1441.12V0.902344Z" fill="url(#paint6_linear_1114_3)"/>
<path d="M412.872 0.902344H0.117188V905.232H412.872V0.902344Z" fill="url(#paint7_linear_1114_3)"/>
<path d="M249.153 814.355H0.117188V905.232H249.153V814.355Z" fill="#10161C"/>
<path fill-rule="evenodd" clip-rule="evenodd" d="M499.434 588.516H479.327L452.453 905.233H472.56L499.434 588.516Z" fill="url(#paint8_linear_1114_3)"/>
<path fill-rule="evenodd" clip-rule="evenodd" d="M626.043 546.887H646.15L676.556 905.233H656.449L626.043 546.887Z" fill="url(#paint9_linear_1114_3)"/>
<path d="M1441.12 378.113H1107.38V905.234H1441.12V378.113Z" fill="url(#paint10_linear_1114_3)"/>
<path d="M1441.11 0.902344H1184.71V378.112H1441.11V0.902344Z" fill="url(#paint11_linear_1114_3)"/>
<path d="M1382.48 668.223H1189.34V905.232H1382.48V668.223Z" fill="#F3CF95"/>
<path d="M1237.68 668.223H1189.34V738.418H1237.68V668.223Z" fill="#F8E2BE"/>
<path d="M1334.26 668.223H1286.22V738.418H1334.26V668.223Z" fill="#F8E2BE"/>
<path d="M1286.21 668.223H1237.68V738.418H1286.21V668.223Z" fill="#FBEDD8"/>
<path d="M1382.47 668.223H1334.25V738.418H1382.47V668.223Z" fill="#FBEDD8"/>
<path d="M1224.29 815.734H1189.34V831.329H1224.29V815.734Z" fill="#F1AC81"/>
<path d="M1382.48 815.734H1347.53V831.329H1382.48V815.734Z" fill="#F1AC81"/>
<path d="M1218.73 831.332H1189.34V905.233H1218.73V831.332Z" fill="#F1AC81"/>
<path d="M1382.47 831.332H1353.08V905.233H1382.47V831.332Z" fill="#F1AC81"/>
<path d="M1440.11 494.414H1184.71V606.252H1440.11V494.414Z" fill="url(#paint12_linear_1114_3)"/>
<path d="M1440.12 133.59H1242.8V245.428H1440.12V133.59Z" fill="url(#paint13_linear_1114_3)"/>
<path d="M928.24 169.258H864.824V393.1H928.24V169.258Z" fill="#23303E"/>
<path d="M920.641 177.637H872.422V384.714H920.641V177.637Z" fill="#314357"/>
<path d="M947.164 211.75H928.238V222.507H947.164V211.75Z" fill="#23303E"/>
<path d="M947.164 334.703H928.238V345.46H947.164V334.703Z" fill="#23303E"/>
<path d="M704.327 188.449H564.953V211.751H704.327V188.449Z" fill="#2B4855"/>
<path d="M704.327 429.766H564.953V453.068H704.327V429.766Z" fill="#2A4653"/>
<path d="M1044.48 702.492H937.414V725.794H1044.48V702.492Z" fill="#24404E"/>
<path d="M1044.48 471.812H937.414V495.115H1044.48V471.812Z" fill="#2B4855"/>
<path d="M1183.33 285.863H1035.94V309.165H1183.33V285.863Z" fill="#27384A"/>
<path d="M1183.33 99.9141H1035.94V123.216H1183.33V99.9141Z" fill="#27384A"/>
<path d="M341.892 205.691H0.117188V485.625H341.892V205.691Z" fill="#151D25"/>
<path d="M328.734 216.473H0.117188V474.853H328.734V216.473Z" fill="url(#paint14_linear_1114_3)"/>
<path d="M97.6824 474.844C97.6944 474.512 97.7124 474.179 97.7124 473.847V391.339H88.4844V307.948H97.7064C97.7244 304.828 97.7064 301.792 97.7184 298.678H106.982C106.988 295.558 106.982 292.522 106.988 289.408H116.234V280.168H181.134V289.349H190.397V298.613H199.685C199.685 299.698 199.691 300.712 199.697 301.732V307.882H208.8C209.008 308.588 209.091 343.087 208.901 344.991H199.697V445.671C199.697 446.062 199.685 446.459 199.679 446.851C196.607 446.857 193.529 446.863 190.457 446.869C190.445 446.477 190.427 446.092 190.421 445.7C190.409 443.055 190.403 440.416 190.397 437.771C190.142 437.706 189.887 437.593 189.626 437.593C186.809 437.587 183.998 437.593 181.181 437.599C181.169 437.178 181.151 436.757 181.145 436.336C181.134 433.72 181.128 431.105 181.116 428.489C184.188 428.466 187.266 428.448 190.421 428.424V401.647C190.421 401.315 190.391 400.983 190.38 400.651C190.397 400.378 190.427 400.111 190.427 399.838V373.518C190.427 373.245 190.397 372.978 190.386 372.705C190.386 369.669 190.391 366.638 190.397 363.601C190.409 362.065 190.427 360.535 190.427 358.999C190.427 357.434 190.397 355.868 190.386 354.308C190.403 354.189 190.427 354.071 190.427 353.946V345.412C190.427 345.299 190.38 345.187 190.362 345.086C188.761 344.908 172.599 344.979 171.87 345.187V354.231H163.751C163.454 354.231 163.158 354.278 162.861 354.302C162.434 354.498 162.63 354.883 162.63 355.18C162.612 357.659 162.624 360.144 162.618 362.623C162.618 362.913 162.588 363.204 162.571 363.477C160.934 363.667 154.007 363.596 153.313 363.37V354.308H144.084V335.834C142.525 335.65 135.497 335.715 134.773 335.923V345.021H131.624C130.628 345.021 129.625 345.015 128.629 345.021C127.615 345.032 126.595 344.973 125.51 345.068V354.231H117.39C117.094 354.231 116.797 354.278 116.501 354.302C116.056 354.533 116.269 354.949 116.269 355.269C116.258 363.827 116.258 372.385 116.258 380.943V382.117H106.988V383.665C107 386.233 107.018 388.801 107.029 391.375C107.012 391.707 106.988 392.039 106.988 392.371V418.419C106.988 418.692 107.006 418.965 107.018 419.231C107.006 419.593 106.988 419.955 106.988 420.317V473.758C106.988 474.12 106.97 474.482 106.958 474.844H97.6824ZM125.492 298.72C128.214 298.72 130.936 298.72 133.658 298.708C134.008 298.708 134.352 298.654 134.672 298.631C134.856 297.462 134.809 290.25 134.631 289.586C133.818 289.379 126.358 289.391 125.504 289.64V298.731C122.538 298.731 119.573 298.731 116.613 298.743C116.53 298.743 116.453 298.808 116.323 298.868C116.299 299.022 116.24 299.2 116.24 299.372C116.24 301.975 116.228 304.573 116.24 307.177C116.24 307.877 116.364 307.977 117.129 307.983C119.668 307.995 122.212 307.989 124.75 307.983C124.976 307.983 125.201 307.912 125.492 307.859V298.72Z" fill="#0C1015"/>
<path fill-rule="evenodd" clip-rule="evenodd" d="M144.082 354.31L144.046 354.34C143.744 354.328 143.441 354.311 143.145 354.311H126.402C126.1 354.311 125.797 354.334 125.501 354.34C125.534 354.307 125.541 354.268 125.507 354.233V345.071C126.598 344.976 127.612 345.035 128.626 345.023C129.623 345.011 130.625 345.023 131.621 345.023H134.77V335.925C135.494 335.712 142.522 335.653 144.082 335.836V354.31ZM144.082 354.31H153.307V363.372C153.995 363.598 160.928 363.669 162.565 363.479C162.583 363.206 162.613 362.915 162.613 362.625C162.613 360.146 162.613 357.661 162.625 355.182C162.625 354.885 162.429 354.5 162.856 354.304C162.974 354.322 163.087 354.357 163.206 354.357C166.088 354.357 168.97 354.352 171.859 354.346C171.865 354.701 171.876 355.063 171.876 355.425L171.894 363.639V372.778C172.143 372.802 172.286 372.832 172.434 372.832H180.583C180.784 372.832 180.98 372.755 181.182 372.707H190.38C190.398 372.98 190.422 373.247 190.422 373.52V399.84C190.422 400.113 190.392 400.38 190.374 400.653C188.862 400.653 187.35 400.647 185.837 400.653C184.307 400.659 182.777 400.623 181.14 400.682V417.858C181.14 418.237 181.093 418.611 181.069 419.05H157.815C153.58 419.05 149.34 419.05 145.105 419.056C144.767 419.056 144.429 419.186 144.091 419.251C144.085 420.764 144.073 422.282 144.073 423.794C144.073 425.324 144.061 426.854 144.079 428.462H162.613V429.517C162.625 432.21 162.636 434.908 162.642 437.601C162.921 437.654 163.2 437.749 163.473 437.749C166.272 437.761 169.065 437.755 171.865 437.755V446.977H141.517C140.396 446.977 139.275 446.965 138.154 446.977C137.051 446.989 135.942 446.912 134.798 447.037V473.749C134.798 474.11 134.78 474.472 134.768 474.84H106.953C106.965 474.478 106.983 474.116 106.983 473.754V420.313C106.983 419.951 107 419.589 107.012 419.228C109.77 419.056 115.452 419.139 116.24 419.394V427.602C116.24 428.379 116.312 428.426 117.059 428.456H133.683C134.009 428.456 134.329 428.42 134.632 428.408C134.845 427.531 134.833 410.788 134.62 409.97C134.323 409.952 133.997 409.922 133.671 409.922H126.133C125.73 409.922 125.504 409.75 125.516 409.323V401.696C125.516 401.376 125.469 401.062 125.439 400.659H117.444C117.201 400.659 116.94 400.706 116.727 400.623C116.543 400.552 116.347 400.356 116.276 400.172C116.193 399.959 116.246 399.692 116.246 399.455V392.462C116.246 392.142 116.205 391.822 116.181 391.377H107.036C107.024 388.809 107.006 386.241 106.994 383.667V382.119H116.264V380.945C116.264 372.387 116.264 363.829 116.276 355.271C116.276 354.951 116.063 354.535 116.507 354.304C116.626 354.322 116.739 354.357 116.857 354.357C119.74 354.357 122.622 354.352 125.51 354.346C125.516 354.701 125.528 355.063 125.534 355.425L125.552 363.639V372.778C125.801 372.802 125.943 372.832 126.091 372.832H134.24C134.442 372.832 134.643 372.755 134.839 372.713C137.621 372.713 140.396 372.719 143.178 372.713C143.996 372.713 144.055 372.654 144.055 371.835C144.055 369.089 144.044 366.338 144.038 363.592C144.044 360.508 144.055 357.43 144.061 354.346L144.097 354.316L144.082 354.31ZM153.384 400.581H171.811C171.977 399.122 171.912 392.017 171.746 391.43H153.384V400.581ZM190.381 354.304H172.666C172.394 354.304 172.121 354.328 171.848 354.334C171.884 354.298 171.889 354.257 171.848 354.221V345.177C172.577 344.969 188.739 344.898 190.34 345.076C190.364 345.177 190.405 345.289 190.405 345.402V353.936C190.405 354.055 190.375 354.174 190.364 354.298L190.381 354.304Z" fill="#364B5F"/>
<path d="M144.2 456.234C144.158 456.554 144.081 456.875 144.075 457.195C144.069 462.746 144.075 468.297 144.069 473.854C144.069 474.186 144.051 474.519 144.039 474.851H134.77C134.782 474.489 134.799 474.127 134.799 473.759V447.047C135.944 446.923 137.053 447.006 138.156 446.988C139.277 446.976 140.398 446.988 141.519 446.988H171.866V437.766C174.95 437.766 178.04 437.778 181.124 437.784V437.772C181.124 438.525 181.142 439.284 181.148 440.037C181.166 442.303 181.172 444.574 181.189 446.84C181.498 446.905 181.8 447.03 182.109 447.03C184.872 447.047 187.636 447.047 190.4 447.053L190.388 447.042C190.4 447.403 190.418 447.765 190.418 448.127C190.424 450.79 190.429 453.453 190.429 456.116C190.008 456.121 189.581 456.139 189.16 456.139H145.261C144.905 456.139 144.555 456.199 144.2 456.234Z" fill="#0C1015"/>
<path d="M199.668 474.845C199.668 471.749 199.68 468.647 199.686 465.551C199.804 465.557 199.929 465.569 200.047 465.569C212.3 465.569 224.553 465.557 236.806 465.551C236.8 468.291 236.794 471.025 236.782 473.765C236.782 474.127 236.764 474.489 236.753 474.845H199.668Z" fill="#0C1015"/>
<path d="M208.938 446.935C208.949 446.603 208.967 446.271 208.967 445.939V428.473H255.262C255.28 428.681 255.322 428.906 255.322 429.137C255.322 437.885 255.322 446.639 255.316 455.386C255.316 455.671 255.505 456.074 255.031 456.211C254.74 456.187 254.444 456.146 254.147 456.146C251.793 456.146 249.438 456.146 247.084 456.14C246.764 456.14 246.449 456.098 246.046 456.069V454.906C246.034 452.279 246.022 449.657 246.01 447.03C246.176 444.539 246.099 438.502 245.892 437.82C244.777 437.654 219.008 437.701 218.237 437.903V439.848C218.249 442.238 218.267 444.628 218.284 447.018C218.267 447.439 218.237 447.854 218.231 448.276C218.213 450.891 218.207 453.501 218.195 456.116C214.423 456.116 210.657 456.122 206.886 456.116C204.501 456.116 202.123 456.098 199.739 456.092L199.668 456.122C199.674 453.453 199.68 450.784 199.692 448.109C199.692 447.754 199.733 447.392 199.757 447.036C202.615 447.042 205.474 447.054 208.327 447.054C208.528 447.054 208.73 446.971 208.932 446.929L208.938 446.935Z" fill="#0C1015"/>
<path d="M218.272 363.604H226.391C227.406 363.604 227.477 363.533 227.477 362.519V355.431C227.477 354.346 227.477 354.34 228.604 354.34H235.786C236.717 354.34 236.746 354.376 236.752 355.319V362.222C236.752 363.485 236.859 363.598 238.164 363.604C240.376 363.61 242.588 363.604 244.8 363.604C245.014 363.604 245.227 363.61 245.435 363.604C245.862 363.604 246.034 363.823 246.022 364.227V380.945C246.022 381.188 246.022 381.432 246.004 381.669C245.992 381.959 245.82 382.108 245.542 382.12C245.299 382.131 245.055 382.131 244.812 382.131H219.547C218.272 382.125 218.207 382.06 218.207 380.797V364.808C218.207 364.452 218.243 364.096 218.266 363.592L218.272 363.604Z" fill="#445E78"/>
<path d="M236.807 465.551C224.554 465.557 212.301 465.563 200.048 465.569C199.929 465.569 199.805 465.557 199.686 465.551C196.94 465.545 194.189 465.539 191.443 465.528C191.146 465.528 190.855 465.468 190.559 465.439C190.891 465.427 191.217 465.403 191.549 465.403C194.266 465.391 196.988 465.385 199.704 465.373C208.654 465.373 217.609 465.385 226.558 465.385C226.819 465.385 227.086 465.338 227.483 465.302V456.299C230.562 456.293 233.645 456.282 236.724 456.27L236.783 456.335C236.777 459.318 236.783 462.301 236.783 465.35C237.24 465.367 237.566 465.397 237.886 465.397H244.143C244.748 465.397 245.347 465.433 245.952 465.456C245.626 465.48 245.293 465.522 244.967 465.522C242.251 465.534 239.529 465.539 236.812 465.545L236.807 465.551Z" fill="#19222C"/>
<path d="M246.01 447.031C246.022 449.658 246.034 452.28 246.046 454.907V456.069C246.449 456.099 246.769 456.14 247.083 456.14C249.438 456.14 251.792 456.14 254.147 456.146C254.443 456.146 254.74 456.188 255.031 456.212C252.735 456.223 250.446 456.241 248.157 456.253C247.463 456.253 246.769 456.271 246.075 456.277H239.664C238.703 456.277 237.743 456.312 236.782 456.33L236.723 456.265C236.734 453.614 236.746 450.957 236.758 448.306C236.758 448.033 236.758 447.76 236.776 447.493C236.788 447.203 236.954 447.055 237.239 447.043C237.482 447.031 237.719 447.031 237.962 447.031H246.016H246.01Z" fill="#19222C"/>
<path d="M227.602 391.457C228.177 391.38 228.741 391.255 229.304 391.249C231.303 391.226 233.302 391.237 235.3 391.237C235.484 391.237 235.668 391.231 235.846 391.249C236.611 391.338 236.759 391.498 236.759 392.293C236.765 394.808 236.765 397.316 236.759 399.831C236.759 400.608 236.7 400.667 235.935 400.673C233.42 400.685 230.911 400.685 228.397 400.673C227.644 400.673 227.501 400.549 227.501 399.861C227.489 397.198 227.501 394.535 227.507 391.872C227.507 391.783 227.549 391.7 227.608 391.457H227.602Z" fill="#445E78"/>
<path d="M227.565 410.005C228.176 409.928 228.74 409.798 229.303 409.792C231.302 409.768 233.3 409.78 235.299 409.78C235.453 409.78 235.601 409.78 235.756 409.786C236.592 409.863 236.752 410.023 236.758 410.842C236.764 413.321 236.764 415.806 236.758 418.285C236.758 419.174 236.716 419.21 235.839 419.216C233.389 419.222 230.934 419.222 228.485 419.216C227.619 419.216 227.5 419.109 227.494 418.308C227.482 415.734 227.494 413.16 227.494 410.592C227.494 410.444 227.53 410.296 227.571 409.999L227.565 410.005Z" fill="#445E78"/>
<path d="M236.777 456.337C237.738 456.319 238.698 456.29 239.659 456.284C241.794 456.278 243.935 456.284 246.07 456.284C246.064 459.024 246.064 461.758 246.047 464.498C246.047 464.818 245.981 465.144 245.946 465.464C245.341 465.447 244.742 465.405 244.137 465.405C242.049 465.399 239.962 465.405 237.88 465.405C237.554 465.405 237.228 465.375 236.777 465.358V456.337Z" fill="#0C1015"/>
<path d="M208.938 446.933C208.736 446.975 208.534 447.058 208.333 447.058C205.474 447.058 202.616 447.046 199.763 447.04C196.637 447.04 193.512 447.04 190.392 447.034L190.404 447.046C190.398 446.981 190.392 446.909 190.387 446.844L190.464 446.868C193.536 446.862 196.614 446.856 199.686 446.85C199.923 446.886 200.154 446.945 200.392 446.945C203.244 446.945 206.091 446.945 208.944 446.933H208.938Z" fill="#1C1A06"/>
<path d="M107.022 391.369H116.167C116.197 391.808 116.233 392.128 116.233 392.454V399.446C116.233 399.69 116.185 399.951 116.262 400.164C116.334 400.348 116.529 400.544 116.713 400.615C116.927 400.698 117.188 400.65 117.431 400.65H125.425C125.455 401.048 125.496 401.368 125.502 401.688C125.508 404.019 125.502 406.35 125.502 408.681C125.502 408.894 125.508 409.102 125.502 409.315C125.491 409.742 125.716 409.914 126.119 409.914H133.657C133.983 409.914 134.31 409.944 134.606 409.962C134.82 410.78 134.831 427.522 134.618 428.4C134.315 428.418 133.995 428.448 133.669 428.448H117.045C116.298 428.418 116.227 428.365 116.227 427.594C116.215 425.204 116.227 422.813 116.227 420.417V419.385C115.432 419.13 109.756 419.047 106.999 419.219C106.987 418.947 106.969 418.674 106.969 418.407V392.359C106.969 392.027 106.999 391.695 107.01 391.363L107.022 391.369Z" fill="#293948"/>
<path d="M144.092 419.249C144.43 419.178 144.769 419.053 145.107 419.053C149.341 419.041 153.582 419.047 157.816 419.047H181.07C181.1 418.608 181.142 418.235 181.142 417.855V400.68C182.778 400.62 184.309 400.656 185.839 400.65C187.351 400.644 188.863 400.65 190.376 400.65C190.393 400.982 190.417 401.314 190.417 401.646V428.423C187.262 428.447 184.19 428.465 181.112 428.489H181.124C181.124 428.435 181.124 428.376 181.118 428.311C181.266 425.132 181.195 420.002 180.981 419.219H145.172C144.81 419.219 144.448 419.237 144.086 419.249H144.092Z" fill="#293948"/>
<path d="M171.888 363.632C171.882 360.892 171.876 358.158 171.87 355.418C171.87 355.056 171.858 354.695 171.852 354.339C172.125 354.327 172.398 354.309 172.671 354.309H190.386C190.403 355.875 190.427 357.441 190.427 359C190.427 360.536 190.409 362.067 190.397 363.603C187.319 363.603 184.241 363.603 181.157 363.609C178.37 363.597 175.577 363.579 172.789 363.567C172.493 363.567 172.19 363.609 171.894 363.632H171.888Z" fill="#293948"/>
<path d="M125.496 298.728V289.636C126.356 289.387 133.817 289.375 134.624 289.582C134.802 290.247 134.843 297.464 134.665 298.627C134.345 298.65 134.001 298.704 133.651 298.704C130.929 298.716 128.207 298.716 125.484 298.716L125.496 298.728Z" fill="#151C25"/>
<path d="M125.492 298.711V307.85C125.207 307.897 124.982 307.974 124.75 307.974C122.212 307.98 119.668 307.986 117.129 307.974C116.364 307.974 116.246 307.868 116.24 307.168C116.228 304.564 116.24 301.967 116.24 299.363C116.24 299.191 116.293 299.013 116.323 298.859C116.447 298.806 116.53 298.734 116.613 298.734C119.579 298.728 122.544 298.728 125.503 298.723L125.492 298.711Z" fill="#151C25"/>
<path d="M181.152 363.608C184.23 363.608 187.308 363.608 190.392 363.602C190.392 366.639 190.387 369.67 190.381 372.706H181.182C181.176 369.676 181.164 366.645 181.158 363.614L181.152 363.608Z" fill="#3E576D"/>
<path d="M181.121 428.492C181.133 431.108 181.139 433.723 181.151 436.339C181.151 436.76 181.175 437.181 181.186 437.602L181.109 437.578C178.037 437.578 174.959 437.578 171.887 437.584C171.887 434.571 171.881 431.564 171.875 428.552C172.148 428.534 172.415 428.498 172.688 428.492H181.139H181.121Z" fill="#293948"/>
<path d="M181.184 446.826C181.172 444.561 181.16 442.289 181.143 440.024C181.143 439.271 181.125 438.512 181.113 437.758H190.389C190.395 440.404 190.401 443.043 190.412 445.688C190.412 446.079 190.436 446.465 190.448 446.856L190.371 446.832C187.311 446.832 184.244 446.826 181.184 446.821V446.826Z" fill="#293948"/>
<path d="M190.397 437.768H181.121L181.127 437.78C181.121 437.715 181.115 437.643 181.109 437.578L181.186 437.602C184.003 437.602 186.815 437.584 189.632 437.596C189.887 437.596 190.142 437.715 190.403 437.774L190.397 437.768Z" fill="#1C1A06"/>
<path d="M125.502 354.23C125.538 354.272 125.538 354.307 125.502 354.343C122.62 354.343 119.738 354.355 116.85 354.355C116.731 354.355 116.612 354.319 116.5 354.302C116.796 354.278 117.093 354.23 117.389 354.23H125.508H125.502Z" fill="#A56E2D"/>
<path d="M171.858 354.23C171.893 354.272 171.893 354.307 171.858 354.343C168.975 354.343 166.093 354.355 163.205 354.355C163.086 354.355 162.968 354.319 162.855 354.302C163.152 354.278 163.448 354.23 163.745 354.23H171.864H171.858Z" fill="#A56E2D"/>
<path d="M171.87 428.55C171.87 431.563 171.876 434.57 171.882 437.582C168.803 437.588 165.72 437.594 162.641 437.606C162.63 434.914 162.618 432.215 162.612 429.523V428.467H144.078C144.061 426.86 144.067 425.33 144.072 423.8C144.072 422.287 144.084 420.769 144.09 419.257C144.452 419.245 144.814 419.227 145.176 419.227H180.985C181.199 420.01 181.27 425.14 181.122 428.319C178.34 428.319 175.564 428.307 172.783 428.325C172.475 428.325 172.172 428.473 171.864 428.55H171.87Z" fill="#0C1015"/>
<path d="M125.49 354.339C125.793 354.327 126.095 354.309 126.392 354.309H143.134C143.437 354.309 143.739 354.327 144.036 354.339C144.03 357.423 144.018 360.501 144.012 363.585C140.94 363.597 137.868 363.603 134.79 363.615C132.002 363.603 129.209 363.585 126.421 363.573C126.125 363.573 125.822 363.615 125.526 363.638C125.52 360.898 125.514 358.164 125.508 355.424C125.508 355.062 125.496 354.701 125.484 354.345L125.49 354.339Z" fill="#293948"/>
<path d="M153.383 400.573V391.422H171.745C171.917 392.01 171.976 399.115 171.81 400.573H153.383Z" fill="#020202"/>
<path d="M181.151 363.608C181.157 366.639 181.169 369.669 181.175 372.7C180.973 372.741 180.778 372.818 180.576 372.824C177.86 372.83 175.143 372.824 172.427 372.824C172.279 372.824 172.137 372.795 171.887 372.771V363.632C172.184 363.608 172.486 363.566 172.783 363.566C175.57 363.578 178.364 363.59 181.151 363.608Z" fill="#020302"/>
<path d="M125.531 363.632C125.828 363.608 126.13 363.566 126.427 363.566C129.214 363.578 132.007 363.59 134.795 363.608C134.801 366.639 134.813 369.669 134.819 372.7C134.617 372.741 134.415 372.818 134.22 372.818C131.503 372.824 128.787 372.818 126.071 372.818C125.922 372.818 125.78 372.789 125.531 372.765V363.626V363.632Z" fill="#020302"/>
<path d="M134.821 372.7C134.815 369.669 134.803 366.639 134.797 363.608C137.87 363.596 140.942 363.59 144.02 363.578C144.026 366.324 144.037 369.076 144.037 371.822C144.037 372.64 143.978 372.694 143.16 372.7C140.378 372.706 137.603 372.7 134.821 372.7Z" fill="#3E576D"/>
<path d="M162.641 437.6C165.719 437.594 168.803 437.588 171.881 437.576C174.953 437.576 178.031 437.576 181.103 437.57C181.109 437.635 181.115 437.706 181.121 437.772C178.037 437.772 174.947 437.76 171.863 437.754C169.064 437.754 166.271 437.754 163.471 437.748C163.193 437.748 162.914 437.653 162.641 437.6Z" fill="#5F3C16"/>
<path d="M199.702 465.379C196.986 465.385 194.263 465.397 191.547 465.408C191.215 465.408 190.883 465.432 190.557 465.444C190.515 465.124 190.432 464.809 190.432 464.489C190.42 461.755 190.414 459.021 190.414 456.281C193.498 456.293 196.582 456.305 199.666 456.311L199.66 456.299C199.672 456.661 199.69 457.022 199.69 457.384C199.696 460.047 199.702 462.71 199.702 465.373V465.379Z" fill="#0C1015"/>
<path d="M199.665 456.31C196.581 456.298 193.497 456.286 190.413 456.28C190.052 456.274 189.69 456.263 189.322 456.263H145.097C144.794 456.263 144.492 456.245 144.195 456.233C144.551 456.197 144.907 456.138 145.263 456.138H189.162C189.583 456.138 190.01 456.12 190.431 456.114C193.509 456.114 196.587 456.126 199.665 456.132L199.736 456.102C199.713 456.174 199.689 456.245 199.659 456.316L199.665 456.31Z" fill="#5F3C16"/>
<path d="M199.667 456.123C196.589 456.123 193.511 456.111 190.433 456.105C190.433 453.442 190.427 450.779 190.421 448.116C190.421 447.754 190.403 447.393 190.391 447.031C193.517 447.031 196.642 447.031 199.762 447.037C199.738 447.393 199.697 447.754 199.697 448.11C199.685 450.779 199.679 453.448 199.673 456.123H199.667Z" fill="#293948"/>
<path d="M181.186 446.828C184.246 446.828 187.312 446.834 190.372 446.84C190.378 446.905 190.384 446.977 190.39 447.042C187.626 447.042 184.863 447.042 182.099 447.018C181.791 447.018 181.488 446.893 181.18 446.828H181.186Z" fill="#5F3C16"/>
<path d="M246.009 447.028H237.955C237.712 447.028 237.475 447.028 237.231 447.04C236.947 447.051 236.787 447.206 236.769 447.49C236.757 447.763 236.757 448.03 236.751 448.303C236.739 450.954 236.727 453.611 236.715 456.262C233.637 456.274 230.553 456.286 227.475 456.297V448.125C227.475 447.941 227.475 447.763 227.469 447.579C227.469 447.206 227.274 447.028 226.906 447.028H226.177C223.543 447.022 220.91 447.016 218.271 447.01C218.253 444.62 218.241 442.23 218.223 439.84V437.894C218.989 437.693 244.763 437.645 245.878 437.811C246.086 438.493 246.169 444.525 245.997 447.022L246.009 447.028Z" fill="#293948"/>
<path d="M218.284 447.012C220.917 447.018 223.55 447.024 226.189 447.03H226.919C227.287 447.03 227.482 447.202 227.482 447.581C227.482 447.765 227.488 447.943 227.488 448.127V456.299C224.392 456.299 221.291 456.288 218.195 456.282C218.201 456.222 218.201 456.169 218.195 456.11C218.207 453.494 218.213 450.885 218.23 448.269C218.23 447.848 218.266 447.433 218.284 447.012Z" fill="#19222C"/>
<path d="M218.194 456.116V456.288C212.014 456.288 205.84 456.3 199.66 456.3L199.666 456.312C199.69 456.241 199.714 456.17 199.743 456.098C202.128 456.104 204.506 456.122 206.89 456.122H218.2L218.194 456.116Z" fill="#1C1A06"/>
<path d="M199.656 456.301C205.835 456.301 212.009 456.289 218.189 456.289C221.285 456.289 224.387 456.301 227.482 456.307V465.31C227.085 465.345 226.818 465.393 226.557 465.393C217.608 465.393 208.653 465.393 199.703 465.381C199.703 462.718 199.697 460.055 199.691 457.392C199.691 457.03 199.673 456.669 199.662 456.307L199.656 456.301Z" fill="#293948"/>
<path d="M171.871 428.548C172.179 428.471 172.482 428.322 172.79 428.322C175.572 428.304 178.347 428.316 181.129 428.316C181.129 428.375 181.129 428.434 181.135 428.5C178.318 428.5 175.501 428.494 172.684 428.5C172.411 428.5 172.144 428.535 171.871 428.559V428.548Z" fill="#1C1A06"/>
<path fill-rule="evenodd" clip-rule="evenodd" d="M114.188 204.749C114.188 200.426 112.471 196.28 109.414 193.223C106.357 190.166 102.211 188.449 97.8879 188.449H97.8859C93.5629 188.449 89.4169 190.166 86.3599 193.223C83.3029 196.28 81.5859 200.426 81.5859 204.749V228.441H114.188V204.749Z" fill="#020303"/>
<path fill-rule="evenodd" clip-rule="evenodd" d="M244.422 204.749C244.422 200.426 242.705 196.28 239.648 193.223C236.591 190.166 232.445 188.449 228.122 188.449H228.12C223.797 188.449 219.651 190.166 216.594 193.223C213.537 196.28 211.82 200.426 211.82 204.749V228.441H244.422V204.749Z" fill="#020303"/>
<path d="M539.939 281.176H412.871V384.715H539.939V281.176Z" fill="url(#paint15_linear_1114_3)"/>
<path d="M539.939 384.715H412.871V394.008H539.939V384.715Z" fill="#203042"/>
<path d="M492.651 364.767C510.224 364.767 524.47 350.521 524.47 332.948C524.47 315.375 510.224 301.129 492.651 301.129C475.078 301.129 460.832 315.375 460.832 332.948C460.832 350.521 475.078 364.767 492.651 364.767Z" fill="#263D55"/>
<path fill-rule="evenodd" clip-rule="evenodd" d="M111.48 653.057C111.741 652.745 112.004 652.434 112.271 652.126C112.561 651.788 112.714 651.617 112.714 651.617C128.058 634.181 152.977 622.832 181.088 622.832C212.783 622.832 240.421 637.259 254.851 658.572C262.185 658.012 269.703 657.721 277.36 657.721C284.655 657.721 291.823 657.985 298.826 658.494C315.841 636.707 341.458 622.832 370.088 622.832C421.266 622.832 462.817 667.168 462.817 721.778C462.817 723.623 462.769 725.456 462.676 727.276C537.992 871.886 427.205 967.417 427.205 967.417C452.366 983.289 471.478 1024.9 471.478 1024.9H78.5589C85.6749 1004.4 133.757 967.417 133.757 967.417C133.757 967.417 100.44 956.352 78.5589 913.611C10.4019 780.48 99.7879 667.005 111.48 653.057Z" fill="#020303"/>
<path fill-rule="evenodd" clip-rule="evenodd" d="M172.867 623.158C175.573 622.942 178.315 622.832 181.089 622.832C212.397 622.832 239.746 636.908 254.317 657.793C248.932 657.911 243.623 658.174 238.408 658.572C225.241 639.124 201.076 625.41 172.867 623.158ZM269.139 657.833C271.86 657.759 274.602 657.721 277.361 657.721C279.233 657.721 281.097 657.738 282.951 657.773C282.76 658.012 282.571 658.253 282.382 658.494C278.028 658.178 273.611 657.956 269.139 657.833ZM361.867 623.216C364.576 622.962 367.319 622.832 370.089 622.832C421.267 622.832 462.818 667.168 462.818 721.778C462.818 723.623 462.77 725.456 462.677 727.276C537.993 871.886 427.206 967.417 427.206 967.417C452.367 983.289 471.479 1024.9 471.479 1024.9H455.034C455.034 1024.9 435.922 983.289 410.762 967.417C410.762 967.417 521.549 871.886 446.232 727.276C446.326 725.456 446.373 723.623 446.373 721.778C446.373 670.125 409.2 627.663 361.867 623.216Z" fill="#F8E2BE"/>
<path fill-rule="evenodd" clip-rule="evenodd" d="M713.515 586.006H727.545V662.246H741.192V811.814H819.26V774.986H864.486V688.396H878.225V629.774H886.448V579.336H901.862V629.774H910.085V688.396H923.824V811.814H947.167V905.233H695.68V520.41H713.515V586.006Z" fill="url(#paint16_linear_1114_3)"/>
<path fill-rule="evenodd" clip-rule="evenodd" d="M1189.34 905.234L947.168 1024.9H1377.56L1382.48 905.234H1189.34Z" fill="#857F72"/>
<path fill-rule="evenodd" clip-rule="evenodd" d="M135.831 273.789C152.951 292.216 164.237 323.659 164.237 359.32C164.237 416.029 135.697 462.069 100.543 462.069C65.3887 462.069 36.8477 416.029 36.8477 359.32C36.8477 347.426 38.1037 336.001 40.4117 325.372C44.1657 308.089 50.7047 292.91 59.1577 281.238L81.5827 228.441H114.185L135.831 273.789Z" fill="white" fill-opacity="0.07"/>
<path fill-rule="evenodd" clip-rule="evenodd" d="M266.221 273.789C283.341 292.216 294.627 323.659 294.627 359.32C294.627 416.029 266.087 462.069 230.933 462.069C195.779 462.069 167.238 416.029 167.238 359.32C167.238 347.426 168.494 336.001 170.802 325.372C174.556 308.089 181.095 292.91 189.548 281.238L211.973 228.441H244.575L266.221 273.789Z" fill="white" fill-opacity="0.07"/>
</g>
<path fill-rule="evenodd" clip-rule="evenodd" d="M1116.58 240.403L1135 211.788L1116.58 217.997L1098.17 211.788L1116.58 240.403ZM1095 205.414L1116.41 212.631L1137.82 205.414L1116.68 169L1095 205.414Z" fill="white"/>
</g>
<defs>
<linearGradient id="paint0_linear_1114_3" x1="821.422" y1="22.6858" x2="821.422" y2="746.875" gradientUnits="userSpaceOnUse">
<stop stop-color="#374E5B"/>
<stop offset="0.51" stop-color="#3A5260"/>
<stop offset="1" stop-color="#446070"/>
</linearGradient>
<linearGradient id="paint1_linear_1114_3" x1="613.115" y1="149.914" x2="249.151" y2="771.125" gradientUnits="userSpaceOnUse">
<stop stop-color="#314357"/>
<stop offset="1" stop-color="#0E1C2C"/>
</linearGradient>
<linearGradient id="paint2_linear_1114_3" x1="754.656" y1="175.798" x2="391.149" y2="608.517" gradientUnits="userSpaceOnUse">
<stop stop-color="#46616D"/>
<stop offset="1" stop-color="#193644"/>
</linearGradient>
<linearGradient id="paint3_linear_1114_3" x1="564.953" y1="562.721" x2="403.22" y2="564.571" gradientUnits="userSpaceOnUse">
<stop stop-color="#3F566F"/>
<stop offset="1" stop-color="#152B43"/>
</linearGradient>
<linearGradient id="paint4_linear_1114_3" x1="468.062" y1="604.349" x2="409.362" y2="604.381" gradientUnits="userSpaceOnUse">
<stop stop-color="#3F566F"/>
<stop offset="1" stop-color="#152B43"/>
</linearGradient>
<linearGradient id="paint5_linear_1114_3" x1="947.396" y1="169.899" x2="1210.1" y2="888.469" gradientUnits="userSpaceOnUse">
<stop stop-color="#46616D"/>
<stop offset="1" stop-color="#193644"/>
</linearGradient>
<linearGradient id="paint6_linear_1114_3" x1="987.791" y1="378.112" x2="1441.12" y2="606.313" gradientUnits="userSpaceOnUse">
<stop stop-color="#314357"/>
<stop offset="1" stop-color="#0E1C2C"/>
</linearGradient>
<linearGradient id="paint7_linear_1114_3" x1="334.605" y1="91.5413" x2="167.238" y2="653.759" gradientUnits="userSpaceOnUse">
<stop stop-color="#23303E"/>
<stop offset="1" stop-color="#18212B"/>
</linearGradient>
<linearGradient id="paint8_linear_1114_3" x1="561.786" y1="621.105" x2="565.357" y2="905.43" gradientUnits="userSpaceOnUse">
<stop stop-color="#3F566F"/>
<stop offset="1" stop-color="#152B43"/>
</linearGradient>
<linearGradient id="paint9_linear_1114_3" x1="564.956" y1="583.76" x2="574.857" y2="905.233" gradientUnits="userSpaceOnUse">
<stop stop-color="#3F566F"/>
<stop offset="1" stop-color="#152B43"/>
</linearGradient>
<linearGradient id="paint10_linear_1114_3" x1="1152.82" y1="417.881" x2="1440.12" y2="905.233" gradientUnits="userSpaceOnUse">
<stop stop-color="#23303E"/>
<stop offset="1" stop-color="#18212B"/>
</linearGradient>
<linearGradient id="paint11_linear_1114_3" x1="1220.64" y1="102.447" x2="1440.12" y2="622.832" gradientUnits="userSpaceOnUse">
<stop stop-color="#1F2B37"/>
<stop offset="1" stop-color="#151D25"/>
</linearGradient>
<linearGradient id="paint12_linear_1114_3" x1="1166.25" y1="487.885" x2="1595.11" y2="735.479" gradientUnits="userSpaceOnUse">
<stop stop-color="#304255"/>
<stop offset="1" stop-color="#0D1B2A"/>
</linearGradient>
<linearGradient id="paint13_linear_1114_3" x1="1228.53" y1="127.061" x2="1613.46" y2="229.536" gradientUnits="userSpaceOnUse">
<stop stop-color="#304255"/>
<stop offset="1" stop-color="#0D1B2A"/>
</linearGradient>
<linearGradient id="paint14_linear_1114_3" x1="85.3637" y1="267.975" x2="406.564" y2="758.863" gradientUnits="userSpaceOnUse">
<stop stop-color="#304255"/>
<stop offset="1" stop-color="#0D1B2A"/>
</linearGradient>
<linearGradient id="paint15_linear_1114_3" x1="527.546" y1="304.818" x2="365.283" y2="396.791" gradientUnits="userSpaceOnUse">
<stop stop-color="#3F566F"/>
<stop offset="1" stop-color="#152B43"/>
</linearGradient>
<linearGradient id="paint16_linear_1114_3" x1="824.405" y1="610.958" x2="826.66" y2="990.735" gradientUnits="userSpaceOnUse">
<stop stop-color="#273841"/>
<stop offset="1" stop-color="#202E35"/>
</linearGradient>
<clipPath id="clip0_1114_3">
<rect width="1441" height="1025" fill="white"/>
</clipPath>
</defs>
</svg>
