<svg width="1440" height="1025" viewBox="0 0 1440 1025" fill="none" xmlns="http://www.w3.org/2000/svg">
<g clip-path="url(#clip0_722_3)">
<path d="M1440 0.539062H0V1024.54H1440V0.539062Z" fill="url(#paint0_linear_722_3)"/>
<mask id="mask0_722_3" style="mask-type:luminance" maskUnits="userSpaceOnUse" x="0" y="0" width="1440" height="1025">
<path d="M1440 0.539062H0V1024.54H1440V0.539062Z" fill="white"/>
</mask>
<g mask="url(#mask0_722_3)">
<path fill-rule="evenodd" clip-rule="evenodd" d="M1284.33 715.293L1266.83 718.568L1244.53 719.972L1220.83 730.274L1149.74 735.879L1125.29 745.971L1078.65 749.915L1055.58 746.973L1031.95 747.575L984.769 756.665L927.035 773.374L875.836 778.053V805.122H1726.03V778.053L1674.84 773.374L1617.1 756.665L1569.91 747.575L1546.29 746.973L1523.22 749.915L1476.58 745.971L1452.13 735.879L1381.04 730.274L1357.34 719.972L1335.04 718.568L1317.54 715.293H1284.33Z" fill="url(#paint1_linear_722_3)"/>
<path fill-rule="evenodd" clip-rule="evenodd" d="M625.001 664.996L642.503 670.105L664.805 672.294L688.502 688.365L759.593 697.108L784.043 712.85L830.683 719.003L853.76 714.414L877.379 715.354L924.566 729.532L982.301 755.597L1033.5 762.895V805.121H183.301V762.895L234.5 755.597L292.234 729.532L339.421 715.354L363.041 714.414L386.118 719.003L432.758 712.85L457.208 697.108L528.299 688.365L551.995 672.294L574.298 670.105L591.8 664.996H625.001Z" fill="url(#paint2_linear_722_3)"/>
<path fill-rule="evenodd" clip-rule="evenodd" d="M0 685.469L14.944 689.831L33.989 691.7L54.223 705.424L114.926 712.889L135.805 726.331L175.63 731.584L195.335 727.666L215.504 728.468L255.796 740.575L305.095 762.832L348.813 769.064V805.12H0V685.469Z" fill="url(#paint3_linear_722_3)"/>
<path fill-rule="evenodd" clip-rule="evenodd" d="M64.996 1016.12L65 1024.54H-29L-24.121 744.563L-6.478 758.151H-9.875V768.497H-4.779V763.916H-6.478V760.519H-3.081V757.122H-1.595V753.725H0.528V757.122H2.227V753.725H4.35V757.122H6.049V753.725H8.172V757.122H9.658V760.519H13.055V763.916H11.356V768.497H14.329V766.464H18.575V768.497H21.548V756.273H24.095V752.876H26.643V749.479H37.683V752.876H40.231V756.273H42.779V768.497H48.724V752.039L64.86 743.547L64.864 752.026H87.185L94.828 765.614H91.431V768.497H99.074V749.492H115.21V768.497H119.456V765.614L135.592 757.122V768.497H139.838V763.942L155.974 755.449V768.497H162.768V763.916H160.221V760.519H171.261V755.895H175.507V760.519H186.548V755.895H195.135L198.437 760.519H207.779V763.916H205.231V768.497H214.573V760.532H211.176L219.669 756.466L243.448 751.37H247.694V756.466H251.94L259.584 760.532H256.187V768.497H261.282V763.916H259.584V760.519H262.981V757.122H264.467V753.725H266.59V757.122H268.289V753.725H270.412V757.122H272.11V753.725H274.233V757.122H275.72V760.519H279.117V763.916H277.418V768.497H280.39V766.464H284.637V768.497H287.609V756.273H290.157V752.876H292.705V761.381H303.745V752.876H306.293V756.273H308.841V768.497H314.785V752.039L330.921 747.118V768.497H343.66V763.916H341.112V760.519H352.153V755.895H356.399V760.519H367.439V755.895H376.026L379.329 760.519H388.671V763.916H386.123V768.497H395.465V758.151H392.068L400.56 744.563H432.832L440.475 758.151H437.078V768.497H442.174V763.916H440.475V760.519H443.872V757.122H445.359V753.725H447.482V757.122H449.18V753.725H451.303V757.122H453.002V753.725H455.125V757.122H456.611V760.519H460.008V763.916H458.31V768.497H461.282V766.464H465.528V768.497H468.501V756.273H471.049V752.876H473.596V749.479H484.637V752.876H487.185V756.273H489.732V768.497H495.677V752.039L511.813 743.547V752.026H533.367L541.011 765.614H537.614V768.497H545.257V749.492H561.393V768.497H565.639V765.614L581.775 757.122V768.497H586.021V763.942L602.157 755.449V768.497H608.951V763.916H606.403V760.519H617.444V755.895H621.69V760.519H632.73V755.895H641.317L644.62 760.519H653.962V763.916H651.414V768.497H660.756V760.532H657.359L665.851 756.466L689.631 751.37H693.877V756.466H698.123L705.766 760.532H702.369V768.497H707.465V763.916H705.766V760.519H709.163V757.122H710.65V753.725H712.773V757.122H714.471V753.725H716.594V757.122H718.293V753.725H720.416V757.122H721.902V760.519H725.299V763.916H723.601V768.497H726.573V766.464H730.82V768.497H733.792V756.273H736.34V752.876H738.887V761.381H749.928V752.876H752.476V756.273H755.023V768.497H760.968V752.039L777.104 747.118V768.497H789.843V763.916H787.295V760.519H798.335V755.895H802.582V760.519H813.622V755.895H822.209L825.512 760.519H834.853V763.916H832.306V768.497H841.648V758.151H838.25L846.743 744.563H879.015L886.658 758.151H883.261V768.497H888.357V763.916H886.658V760.519H890.055V757.122H891.541V753.725H893.664V757.122H895.363V753.725H897.486V757.122H899.185V753.725H901.308V757.122H902.794V760.519H906.191V763.916H904.493V768.497H907.465V766.464H911.711V768.497H914.684V756.273H917.231V752.876H919.779V749.479H930.819V752.876H933.367V756.273H935.915V768.497H941.86V752.039L957.996 743.547V765.62C957.997 765.618 957.999 765.616 958 765.614L963.096 752.026H995.367L1003.01 765.614H999.614V768.497H1007.26V749.492H1023.39V768.497H1027.64V765.614L1043.78 757.122V768.497H1048.02V763.942L1064.16 755.449V768.497H1070.95V763.916H1068.4V760.519H1079.44V755.895H1083.69V760.519H1094.73V755.895H1103.32L1106.62 760.519H1115.96V763.916H1113.41V768.497H1122.76V760.532H1119.36L1127.85 756.466L1151.63 751.37H1155.88V756.466H1160.12L1167.77 760.532H1164.37V768.497H1169.46V763.916H1167.77V760.519H1171.16V757.122H1172.65V753.725H1174.77V757.122H1176.47V753.725H1178.59V757.122H1180.29V753.725H1182.42V757.122H1183.9V760.519H1187.3V763.916H1185.6V768.497H1188.57V766.464H1192.82V768.497H1195.79V756.273H1198.34V752.876H1200.89V761.381H1211.93V752.876H1214.48V756.273H1217.02V768.497H1222.97V752.039L1239.1 747.118V768.497H1251.84V763.916H1249.3V760.519H1260.34V755.895H1264.58V760.519H1275.62V755.895H1284.21L1287.51 760.519H1296.85V763.916H1294.31V768.497H1303.65V758.151H1300.25L1308.74 744.563H1341.02L1348.66 758.151H1345.26V768.497H1350.36V763.916H1348.66V760.519H1352.06V757.122H1353.54V753.725H1355.66V757.122H1357.36V753.725H1359.49V757.122H1361.18V753.725H1363.31V757.122H1364.79V760.519H1368.19V763.916H1366.49V768.497H1369.46V766.464H1373.71V768.497H1376.68V756.273H1379.23V752.876H1381.78V749.479H1392.82V752.876H1395.37V756.273H1397.91V768.497H1403.86V752.039L1420 743.547V767.628H1440V1016.12H958H957.996H64.996Z" fill="url(#paint4_linear_722_3)"/>
<path d="M74.383 767.629H70.832V772.068H74.383V767.629Z" fill="#1DE0E0"/>
<path d="M520.567 767.629H517.016V772.068H520.567V767.629Z" fill="#1DE0E0"/>
<path d="M982.567 767.629H979.016V772.068H982.567V767.629Z" fill="#1DE0E0"/>
<path d="M30.0549 760.539H26.5039V764.978H30.0549V760.539Z" fill="#1DE0E0"/>
<path d="M83.9026 767.629H80.3516V772.068H83.9026V767.629Z" fill="#FDDB86"/>
<path d="M530.086 767.629H526.535V772.068H530.086V767.629Z" fill="#FDDB86"/>
<path d="M992.086 767.629H988.535V772.068H992.086V767.629Z" fill="#FDDB86"/>
<path d="M39.5783 760.539H36.0273V764.978H39.5783V760.539Z" fill="#FDDB86"/>
<path d="M173.172 767.629H169.621V772.068H173.172V767.629Z" fill="#FDDB86"/>
<path d="M619.356 767.629H615.805V772.068H619.356V767.629Z" fill="#FDDB86"/>
<path d="M1081.36 767.629H1077.81V772.068H1081.36V767.629Z" fill="#FDDB86"/>
<path d="M147.562 789.648H144.023V794.956H147.562V789.648Z" fill="#FDDB86"/>
<path d="M593.746 789.648H590.207V794.956H593.746V789.648Z" fill="#FDDB86"/>
<path d="M1055.74 789.648H1052.2V794.956H1055.74V789.648Z" fill="#FDDB86"/>
<path d="M267.777 824.219H264.238V829.527H267.777V824.219Z" fill="#FDDB86"/>
<path d="M713.961 824.219H710.422V829.527H713.961V824.219Z" fill="#FDDB86"/>
<path d="M1175.96 824.219H1172.42V829.527H1175.96V824.219Z" fill="#FDDB86"/>
<path d="M99.9492 824.219H96.4102V829.527H99.9492V824.219Z" fill="#FDDB86"/>
<path d="M546.133 824.219H542.594V829.527H546.133V824.219Z" fill="#FDDB86"/>
<path d="M1008.13 824.219H1004.59V829.527H1008.13V824.219Z" fill="#FDDB86"/>
<path d="M30.5038 812.645H26.9648V817.953H30.5038V812.645Z" fill="#FDDB86"/>
<path d="M429.652 829.523H426.113V834.831H429.652V829.523Z" fill="#FDDB86"/>
<path d="M875.836 829.523H872.297V834.831H875.836V829.523Z" fill="#FDDB86"/>
<path d="M1337.84 829.523H1334.3V834.831H1337.84V829.523Z" fill="#FDDB86"/>
<path d="M196.363 792.301H192.824V797.609H196.363V792.301Z" fill="#D513E3"/>
<path d="M642.543 792.301H639.004V797.609H642.543V792.301Z" fill="#D513E3"/>
<path d="M1104.55 792.301H1101.01V797.609H1104.55V792.301Z" fill="#D513E3"/>
<path d="M340.383 826.871H336.844V832.179H340.383V826.871Z" fill="#FDDB86"/>
<path d="M786.566 826.871H783.027V832.179H786.566V826.871Z" fill="#FDDB86"/>
<path d="M1248.57 826.871H1245.03V832.179H1248.57V826.871Z" fill="#FDDB86"/>
<path d="M205.887 867.34H202.348V872.648H205.887V867.34Z" fill="#1DE0E0"/>
<path d="M652.066 867.34H648.527V872.648H652.066V867.34Z" fill="#1DE0E0"/>
<path d="M1114.07 867.34H1110.53V872.648H1114.07V867.34Z" fill="#1DE0E0"/>
<path d="M21.539 867.34H18V872.648H21.539V867.34Z" fill="#1DE0E0"/>
<path d="M489.168 814.051H485.629V819.359H489.168V814.051Z" fill="#D513E3"/>
<path d="M935.352 814.051H931.812V819.359H935.352V814.051Z" fill="#D513E3"/>
<path d="M1397.35 814.051H1393.81V819.359H1397.35V814.051Z" fill="#D513E3"/>
<path d="M176.129 811.398H172.59V816.706H176.129V811.398Z" fill="#FDDB86"/>
<path d="M622.312 811.398H618.773V816.706H622.312V811.398Z" fill="#FDDB86"/>
<path d="M1084.31 811.398H1080.77V816.706H1084.31V811.398Z" fill="#FDDB86"/>
<path d="M318.348 848.023H314.809V853.331H318.348V848.023Z" fill="#FDDB86"/>
<path d="M764.531 848.023H760.992V853.331H764.531V848.023Z" fill="#FDDB86"/>
<path d="M1226.53 848.023H1222.99V853.331H1226.53V848.023Z" fill="#FDDB86"/>
<path d="M150.519 848.023H146.98V853.331H150.519V848.023Z" fill="#FDDB86"/>
<path d="M596.703 848.023H593.164V853.331H596.703V848.023Z" fill="#FDDB86"/>
<path d="M1058.7 848.023H1055.16V853.331H1058.7V848.023Z" fill="#FDDB86"/>
<path d="M480.223 853.332H476.684V858.64H480.223V853.332Z" fill="#FDDB86"/>
<path d="M926.406 853.332H922.867V858.64H926.406V853.332Z" fill="#FDDB86"/>
<path d="M1388.41 853.332H1384.87V858.64H1388.41V853.332Z" fill="#FDDB86"/>
<path d="M117.805 803.656H114.266V808.964H117.805V803.656Z" fill="#D513E3"/>
<path d="M563.988 803.656H560.449V808.964H563.988V803.656Z" fill="#D513E3"/>
<path d="M1025.99 803.656H1022.45V808.964H1025.99V803.656Z" fill="#D513E3"/>
<path d="M48.3554 792.082H44.8164V797.39H48.3554V792.082Z" fill="#D513E3"/>
<path d="M84.4765 797.113H80.9375V802.421H84.4765V797.113Z" fill="#FDDB86"/>
<path d="M530.66 797.113H527.121V802.421H530.66V797.113Z" fill="#FDDB86"/>
<path d="M992.66 797.113H989.121V802.421H992.66V797.113Z" fill="#FDDB86"/>
<path d="M15.0273 785.539H11.4883V790.847H15.0273V785.539Z" fill="#FDDB86"/>
<path d="M238.023 838.227H234.484V843.535H238.023V838.227Z" fill="#FDDB86"/>
<path d="M684.203 838.227H680.664V843.535H684.203V838.227Z" fill="#FDDB86"/>
<path d="M1146.2 838.227H1142.66V843.535H1146.2V838.227Z" fill="#FDDB86"/>
<path d="M64.1171 826.652H60.5781V831.96H64.1171V826.652Z" fill="#FDDB86"/>
<path d="M510.301 826.652H506.762V831.96H510.301V826.652Z" fill="#FDDB86"/>
<path d="M972.297 826.652H968.758V831.96H972.297V826.652Z" fill="#FDDB86"/>
<path d="M399.898 843.535H396.359V848.843H399.898V843.535Z" fill="#FDDB86"/>
<path d="M846.078 843.535H842.539V848.843H846.078V843.535Z" fill="#FDDB86"/>
<path d="M1308.08 843.535H1304.54V848.843H1308.08V843.535Z" fill="#FDDB86"/>
<path d="M328.48 806.312H324.941V811.62H328.48V806.312Z" fill="#FDDB86"/>
<path d="M774.664 806.312H771.125V811.62H774.664V806.312Z" fill="#FDDB86"/>
<path d="M1236.66 806.312H1233.12V811.62H1236.66V806.312Z" fill="#FDDB86"/>
<path d="M371.941 788.777H368.402V794.085H371.941V788.777Z" fill="#FDDB86"/>
<path d="M818.125 788.777H814.586V794.085H818.125V788.777Z" fill="#FDDB86"/>
<path d="M1280.13 788.777H1276.59V794.085H1280.13V788.777Z" fill="#FDDB86"/>
<path d="M288.027 791.16H284.488V796.468H288.027V791.16Z" fill="#FDDB86"/>
<path d="M734.211 791.16H730.672V796.468H734.211V791.16Z" fill="#FDDB86"/>
<path d="M1196.21 791.16H1192.67V796.468H1196.21V791.16Z" fill="#FDDB86"/>
<path d="M820.508 814.965H816.969V820.273H820.508V814.965Z" fill="#D513E3"/>
<path d="M1282.51 814.965H1278.97V820.273H1282.51V814.965Z" fill="#D513E3"/>
<path d="M422.512 799.168H418.973V804.476H422.512V799.168Z" fill="#FDDB86"/>
<path d="M868.695 799.168H865.156V804.476H868.695V799.168Z" fill="#FDDB86"/>
<path d="M1330.69 799.168H1327.15V804.476H1330.69V799.168Z" fill="#FDDB86"/>
<path d="M416.562 799.168H413.023V804.476H416.562V799.168Z" fill="#1DE0E0"/>
<path d="M862.742 799.168H859.203V804.476H862.742V799.168Z" fill="#1DE0E0"/>
<path d="M1324.74 799.168H1321.2V804.476H1324.74V799.168Z" fill="#1DE0E0"/>
<path d="M474.305 784.016H470.766V789.324H474.305V784.016Z" fill="#FDDB86"/>
<path d="M920.488 784.016H916.949V789.324H920.488V784.016Z" fill="#FDDB86"/>
<path d="M1382.49 784.016H1378.95V789.324H1382.49V784.016Z" fill="#FDDB86"/>
<path d="M237.784 803.656H234.484V808.964H237.784V803.656Z" fill="#1DE0E0"/>
<path d="M683.964 803.656H680.664V808.964H683.964V803.656Z" fill="#1DE0E0"/>
<path d="M1145.96 803.656H1142.66V808.964H1145.96V803.656Z" fill="#1DE0E0"/>
<path d="M251.137 767.629H247.586V772.068H251.137V767.629Z" fill="#FDDB86"/>
<path d="M697.32 767.629H693.77V772.068H697.32V767.629Z" fill="#FDDB86"/>
<path d="M1159.32 767.629H1155.77V772.068H1159.32V767.629Z" fill="#FDDB86"/>
<path d="M423.129 767.629H419.578V772.068H423.129V767.629Z" fill="#FDDB86"/>
<path d="M869.313 767.629H865.762V772.068H869.313V767.629Z" fill="#FDDB86"/>
<path d="M1331.31 767.629H1327.76V772.068H1331.31V767.629Z" fill="#FDDB86"/>
<path d="M432.653 767.629H429.102V772.068H432.653V767.629Z" fill="#FDDB86"/>
<path d="M878.832 767.629H875.281V772.068H878.832V767.629Z" fill="#FDDB86"/>
<path d="M1340.83 767.629H1337.28V772.068H1340.83V767.629Z" fill="#FDDB86"/>
<path d="M243.399 767.629H239.848V772.068H243.399V767.629Z" fill="#FDDB86"/>
<path d="M689.582 767.629H686.031V772.068H689.582V767.629Z" fill="#FDDB86"/>
<path d="M1151.58 767.629H1148.03V772.068H1151.58V767.629Z" fill="#FDDB86"/>
<path d="M1144.77 903.57H711.168V1024.54H1144.77V903.57Z" fill="url(#paint5_radial_722_3)"/>
<path d="M720 903.57H286.395V1024.54H720V903.57Z" fill="url(#paint6_radial_722_3)"/>
<path d="M311.872 903.57H-76.1172V1024.54H311.872V903.57Z" fill="url(#paint7_radial_722_3)"/>
<path d="M1440 903.57H1134.66V1024.54H1440V903.57Z" fill="url(#paint8_radial_722_3)"/>
<path d="M482.002 946.239C516.695 946.239 544.82 940.359 544.82 933.106C544.82 925.852 516.695 919.973 482.002 919.973C447.308 919.973 419.184 925.852 419.184 933.106C419.184 940.359 447.308 946.239 482.002 946.239Z" fill="#39239A" fill-opacity="0.33"/>
<path d="M1440 838.773H0V849.485H1440V838.773Z" fill="#6F58D7"/>
<path d="M1440 838.773H0V842.344H1440V838.773Z" fill="#907EE0"/>
<path d="M100.533 849.484H91.6523V917.684H100.533V849.484Z" fill="url(#paint9_linear_722_3)"/>
<path d="M1324.32 946.243C1359.02 946.243 1387.14 940.363 1387.14 933.11C1387.14 925.856 1359.02 919.977 1324.32 919.977C1289.63 919.977 1261.5 925.856 1261.5 933.11C1261.5 940.363 1289.63 946.243 1324.32 946.243Z" fill="#39239A" fill-opacity="0.33"/>
<path d="M1327.8 876.035H1320.86V929.392H1327.8V876.035Z" fill="url(#paint10_linear_722_3)"/>
<path fill-rule="evenodd" clip-rule="evenodd" d="M1329.88 699.238H1318.16L1316.31 923.241H1332.34L1329.88 699.238Z" fill="url(#paint11_linear_722_3)"/>
<path fill-rule="evenodd" clip-rule="evenodd" d="M1336.35 885.003C1336.35 884.323 1335.8 883.77 1335.12 883.77H1313.53C1312.85 883.77 1312.3 884.323 1312.3 885.003V887.47C1312.3 888.151 1312.85 888.704 1313.53 888.704H1335.12C1335.8 888.704 1336.35 888.151 1336.35 887.47V885.003Z" fill="#6F58D7"/>
<path fill-rule="evenodd" clip-rule="evenodd" d="M1334.19 708.488C1334.19 707.807 1333.64 707.254 1332.96 707.254H1315.69C1315.01 707.254 1314.46 707.807 1314.46 708.488V710.954C1314.46 711.635 1315.01 712.188 1315.69 712.188H1332.96C1333.64 712.188 1334.19 711.635 1334.19 710.954V708.488Z" fill="#251762"/>
<path fill-rule="evenodd" clip-rule="evenodd" d="M1336.35 892.406C1336.35 891.725 1335.8 891.172 1335.12 891.172H1313.53C1312.85 891.172 1312.3 891.725 1312.3 892.406V894.873C1312.3 895.553 1312.85 896.106 1313.53 896.106H1335.12C1335.8 896.106 1336.35 895.553 1336.35 894.873V892.406Z" fill="#6F58D7"/>
<path fill-rule="evenodd" clip-rule="evenodd" d="M1336.35 922.006C1336.35 921.325 1335.8 920.773 1335.12 920.773H1313.53C1312.85 920.773 1312.3 921.325 1312.3 922.006V924.473C1312.3 925.154 1312.85 925.706 1313.53 925.706H1335.12C1335.8 925.706 1336.35 925.154 1336.35 924.473V922.006Z" fill="#6F58D7"/>
<path fill-rule="evenodd" clip-rule="evenodd" d="M1340.98 925.705C1340.98 924.344 1339.87 923.238 1338.51 923.238H1310.14C1308.78 923.238 1307.67 924.344 1307.67 925.705V930.639C1307.67 932 1308.78 933.106 1310.14 933.106H1338.51C1339.87 933.106 1340.98 932 1340.98 930.639V925.705Z" fill="#3B259C"/>
<path fill-rule="evenodd" clip-rule="evenodd" d="M1330.9 707.253H1317.75C1317.75 707.253 1304.64 686.331 1304.59 673.334C1304.57 666.319 1310.32 661.486 1315.62 658.524C1321.03 655.513 1327.62 655.513 1333.03 658.524C1338.33 661.486 1344.08 666.319 1344.06 673.334C1344.01 686.331 1330.9 707.253 1330.9 707.253Z" fill="url(#paint12_linear_722_3)"/>
<path fill-rule="evenodd" clip-rule="evenodd" d="M1324.14 650.68L1329.26 659.992H1319.02L1324.14 650.68Z" fill="#FDF4D7"/>
<path d="M916.591 946.243C951.285 946.243 979.409 940.363 979.409 933.11C979.409 925.856 951.285 919.977 916.591 919.977C881.898 919.977 853.773 925.856 853.773 933.11C853.773 940.363 881.898 946.243 916.591 946.243Z" fill="#39239A" fill-opacity="0.33"/>
<path d="M926.428 876.035H919.48V929.392H926.428V876.035Z" fill="url(#paint13_linear_722_3)"/>
<path fill-rule="evenodd" clip-rule="evenodd" d="M928.505 699.238H916.787L914.938 923.241H930.971L928.505 699.238Z" fill="url(#paint14_linear_722_3)"/>
<path fill-rule="evenodd" clip-rule="evenodd" d="M934.978 885.003C934.978 884.323 934.425 883.77 933.745 883.77H912.16C911.479 883.77 910.926 884.323 910.926 885.003V887.47C910.926 888.151 911.479 888.704 912.16 888.704H933.745C934.425 888.704 934.978 888.151 934.978 887.47V885.003Z" fill="#6F58D7"/>
<path fill-rule="evenodd" clip-rule="evenodd" d="M932.821 708.488C932.821 707.807 932.268 707.254 931.587 707.254H914.319C913.638 707.254 913.086 707.807 913.086 708.488V710.954C913.086 711.635 913.638 712.188 914.319 712.188H931.587C932.268 712.188 932.821 711.635 932.821 710.954V708.488Z" fill="#251762"/>
<path fill-rule="evenodd" clip-rule="evenodd" d="M934.978 892.406C934.978 891.725 934.425 891.172 933.745 891.172H912.16C911.479 891.172 910.926 891.725 910.926 892.406V894.873C910.926 895.553 911.479 896.106 912.16 896.106H933.745C934.425 896.106 934.978 895.553 934.978 894.873V892.406Z" fill="#6F58D7"/>
<path fill-rule="evenodd" clip-rule="evenodd" d="M934.978 922.006C934.978 921.325 934.425 920.773 933.745 920.773H912.16C911.479 920.773 910.926 921.325 910.926 922.006V924.473C910.926 925.154 911.479 925.706 912.16 925.706H933.745C934.425 925.706 934.978 925.154 934.978 924.473V922.006Z" fill="#6F58D7"/>
<path fill-rule="evenodd" clip-rule="evenodd" d="M939.603 925.705C939.603 924.344 938.498 923.238 937.137 923.238H908.768C907.406 923.238 906.301 924.344 906.301 925.705V930.639C906.301 932 907.406 933.106 908.768 933.106H937.137C938.498 933.106 939.603 932 939.603 930.639V925.705Z" fill="#3B259C"/>
<path fill-rule="evenodd" clip-rule="evenodd" d="M929.531 707.253H916.375C916.375 707.253 903.264 686.331 903.219 673.334C903.194 666.319 908.946 661.486 914.245 658.524C919.66 655.513 926.246 655.513 931.661 658.524C936.961 661.486 942.713 666.319 942.688 673.334C942.642 686.331 929.531 707.253 929.531 707.253Z" fill="url(#paint15_linear_722_3)"/>
<path fill-rule="evenodd" clip-rule="evenodd" d="M922.766 650.68L927.888 659.992H917.645L922.766 650.68Z" fill="#FDF4D7"/>
<path d="M496.634 946.243C531.328 946.243 559.452 940.363 559.452 933.11C559.452 925.856 531.328 919.977 496.634 919.977C461.941 919.977 433.816 925.856 433.816 933.11C433.816 940.363 461.941 946.243 496.634 946.243Z" fill="#39239A" fill-opacity="0.33"/>
<path d="M506.471 876.035H499.523V929.392H506.471V876.035Z" fill="url(#paint16_linear_722_3)"/>
<path fill-rule="evenodd" clip-rule="evenodd" d="M508.548 699.238H496.831L494.98 923.241H511.015L508.548 699.238Z" fill="url(#paint17_linear_722_3)"/>
<path fill-rule="evenodd" clip-rule="evenodd" d="M515.025 885.003C515.025 884.323 514.472 883.77 513.791 883.77H492.206C491.526 883.77 490.973 884.323 490.973 885.003V887.47C490.973 888.151 491.526 888.704 492.206 888.704H513.791C514.472 888.704 515.025 888.151 515.025 887.47V885.003Z" fill="#6F58D7"/>
<path fill-rule="evenodd" clip-rule="evenodd" d="M512.864 708.488C512.864 707.807 512.311 707.254 511.631 707.254H494.363C493.682 707.254 493.129 707.807 493.129 708.488V710.954C493.129 711.635 493.682 712.188 494.363 712.188H511.631C512.311 712.188 512.864 711.635 512.864 710.954V708.488Z" fill="#251762"/>
<path fill-rule="evenodd" clip-rule="evenodd" d="M515.025 892.406C515.025 891.725 514.472 891.172 513.791 891.172H492.206C491.526 891.172 490.973 891.725 490.973 892.406V894.873C490.973 895.553 491.526 896.106 492.206 896.106H513.791C514.472 896.106 515.025 895.553 515.025 894.873V892.406Z" fill="#6F58D7"/>
<path fill-rule="evenodd" clip-rule="evenodd" d="M515.025 922.006C515.025 921.325 514.472 920.773 513.791 920.773H492.206C491.526 920.773 490.973 921.325 490.973 922.006V924.473C490.973 925.154 491.526 925.706 492.206 925.706H513.791C514.472 925.706 515.025 925.154 515.025 924.473V922.006Z" fill="#6F58D7"/>
<path fill-rule="evenodd" clip-rule="evenodd" d="M519.65 925.705C519.65 924.344 518.545 923.238 517.183 923.238H488.814C487.453 923.238 486.348 924.344 486.348 925.705V930.639C486.348 932 487.453 933.106 488.814 933.106H517.183C518.545 933.106 519.65 932 519.65 930.639V925.705Z" fill="#3B259C"/>
<path fill-rule="evenodd" clip-rule="evenodd" d="M509.575 707.253H496.418C496.418 707.253 483.308 686.331 483.262 673.334C483.237 666.319 488.989 661.486 494.289 658.524C499.704 655.513 506.29 655.513 511.705 658.524C517.004 661.486 522.756 666.319 522.731 673.334C522.685 686.331 509.575 707.253 509.575 707.253Z" fill="url(#paint18_linear_722_3)"/>
<path fill-rule="evenodd" clip-rule="evenodd" d="M502.809 650.68L507.931 659.992H497.688L502.809 650.68Z" fill="#FDF4D7"/>
<path d="M31.881 849.484H23V917.684H31.881V849.484Z" fill="url(#paint19_linear_722_3)"/>
<path d="M168.834 849.484H159.953V917.684H168.834V849.484Z" fill="url(#paint20_linear_722_3)"/>
<path d="M237.139 849.484H228.258V917.684H237.139V849.484Z" fill="url(#paint21_linear_722_3)"/>
<path d="M305.44 849.484H296.559V917.684H305.44V849.484Z" fill="url(#paint22_linear_722_3)"/>
<path d="M373.744 849.484H364.863V917.684H373.744V849.484Z" fill="url(#paint23_linear_722_3)"/>
<path d="M529.502 849.484H520.621V917.684H529.502V849.484Z" fill="url(#paint24_linear_722_3)"/>
<path d="M607.385 849.484H598.504V917.684H607.385V849.484Z" fill="url(#paint25_linear_722_3)"/>
<path d="M685.264 849.484H676.383V917.684H685.264V849.484Z" fill="url(#paint26_linear_722_3)"/>
<path d="M763.147 849.484H754.266V917.684H763.147V849.484Z" fill="url(#paint27_linear_722_3)"/>
<path d="M841.026 849.484H832.145V917.684H841.026V849.484Z" fill="url(#paint28_linear_722_3)"/>
<path d="M918.904 849.484H910.023V917.684H918.904V849.484Z" fill="url(#paint29_linear_722_3)"/>
<path d="M996.787 849.484H987.906V917.684H996.787V849.484Z" fill="url(#paint30_linear_722_3)"/>
<path d="M1074.67 849.484H1065.79V917.684H1074.67V849.484Z" fill="url(#paint31_linear_722_3)"/>
<path d="M1152.54 849.484H1143.66V917.684H1152.54V849.484Z" fill="url(#paint32_linear_722_3)"/>
<path d="M1230.43 849.484H1221.55V917.684H1230.43V849.484Z" fill="url(#paint33_linear_722_3)"/>
<path d="M1308.31 849.484H1299.43V917.684H1308.31V849.484Z" fill="url(#paint34_linear_722_3)"/>
<path d="M1386.19 849.484H1377.31V917.684H1386.19V849.484Z" fill="url(#paint35_linear_722_3)"/>
<path d="M89.2716 611.223C90.5866 611.223 91.6526 610.157 91.6526 608.842C91.6526 607.527 90.5866 606.461 89.2716 606.461C87.9566 606.461 86.8906 607.527 86.8906 608.842C86.8906 610.157 87.9566 611.223 89.2716 611.223Z" fill="#C070D0"/>
<path d="M553.381 611.223C554.696 611.223 555.762 610.157 555.762 608.842C555.762 607.527 554.696 606.461 553.381 606.461C552.066 606.461 551 607.527 551 608.842C551 610.157 552.066 611.223 553.381 611.223Z" fill="#C070D0"/>
<path d="M1015.38 611.223C1016.7 611.223 1017.76 610.157 1017.76 608.842C1017.76 607.527 1016.7 606.461 1015.38 606.461C1014.07 606.461 1013 607.527 1013 608.842C1013 610.157 1014.07 611.223 1015.38 611.223Z" fill="#C070D0"/>
<path d="M335.654 606.465C336.969 606.465 338.035 605.399 338.035 604.084C338.035 602.769 336.969 601.703 335.654 601.703C334.339 601.703 333.273 602.769 333.273 604.084C333.273 605.399 334.339 606.465 335.654 606.465Z" fill="#C070D0"/>
<path d="M799.764 606.465C801.079 606.465 802.145 605.399 802.145 604.084C802.145 602.769 801.079 601.703 799.764 601.703C798.449 601.703 797.383 602.769 797.383 604.084C797.383 605.399 798.449 606.465 799.764 606.465Z" fill="#C070D0"/>
<path d="M1261.77 606.465C1263.09 606.465 1264.15 605.399 1264.15 604.084C1264.15 602.769 1263.09 601.703 1261.77 601.703C1260.46 601.703 1259.39 602.769 1259.39 604.084C1259.39 605.399 1260.46 606.465 1261.77 606.465Z" fill="#C070D0"/>
<path d="M133.311 670.739C134.626 670.739 135.692 669.673 135.692 668.358C135.692 667.043 134.626 665.977 133.311 665.977C131.996 665.977 130.93 667.043 130.93 668.358C130.93 669.673 131.996 670.739 133.311 670.739Z" fill="#C070D0"/>
<path d="M1059.42 670.739C1060.74 670.739 1061.8 669.673 1061.8 668.358C1061.8 667.043 1060.74 665.977 1059.42 665.977C1058.11 665.977 1057.04 667.043 1057.04 668.358C1057.04 669.673 1058.11 670.739 1059.42 670.739Z" fill="#C070D0"/>
<path d="M379.694 665.977C381.009 665.977 382.075 664.911 382.075 663.596C382.075 662.281 381.009 661.215 379.694 661.215C378.379 661.215 377.312 662.281 377.312 663.596C377.312 664.911 378.379 665.977 379.694 665.977Z" fill="#C070D0"/>
<path d="M843.807 665.977C845.122 665.977 846.188 664.911 846.188 663.596C846.188 662.281 845.122 661.215 843.807 661.215C842.492 661.215 841.426 662.281 841.426 663.596C841.426 664.911 842.492 665.977 843.807 665.977Z" fill="#C070D0"/>
<path d="M1305.81 665.977C1307.13 665.977 1308.19 664.911 1308.19 663.596C1308.19 662.281 1307.13 661.215 1305.81 661.215C1304.5 661.215 1303.43 662.281 1303.43 663.596C1303.43 664.911 1304.5 665.977 1305.81 665.977Z" fill="#C070D0"/>
<path d="M152.354 615.985C153.669 615.985 154.735 614.919 154.735 613.604C154.735 612.289 153.669 611.223 152.354 611.223C151.039 611.223 149.973 612.289 149.973 613.604C149.973 614.919 151.039 615.985 152.354 615.985Z" fill="#C070D0"/>
<path d="M616.463 615.985C617.778 615.985 618.844 614.919 618.844 613.604C618.844 612.289 617.778 611.223 616.463 611.223C615.148 611.223 614.082 612.289 614.082 613.604C614.082 614.919 615.148 615.985 616.463 615.985Z" fill="#C070D0"/>
<path d="M1078.46 615.985C1079.77 615.985 1080.84 614.919 1080.84 613.604C1080.84 612.289 1079.77 611.223 1078.46 611.223C1077.14 611.223 1076.08 612.289 1076.08 613.604C1076.08 614.919 1077.14 615.985 1078.46 615.985Z" fill="#C070D0"/>
<path d="M411.959 647.403C413.274 647.403 414.34 646.337 414.34 645.022C414.34 643.707 413.274 642.641 411.959 642.641C410.644 642.641 409.578 643.707 409.578 645.022C409.578 646.337 410.644 647.403 411.959 647.403Z" fill="#C070D0"/>
<path d="M862.85 611.223C864.165 611.223 865.231 610.157 865.231 608.842C865.231 607.527 864.165 606.461 862.85 606.461C861.535 606.461 860.469 607.527 860.469 608.842C860.469 610.157 861.535 611.223 862.85 611.223Z" fill="#C070D0"/>
<path d="M1324.85 611.223C1326.16 611.223 1327.23 610.157 1327.23 608.842C1327.23 607.527 1326.16 606.461 1324.85 606.461C1323.53 606.461 1322.47 607.527 1322.47 608.842C1322.47 610.157 1323.53 611.223 1324.85 611.223Z" fill="#C070D0"/>
<path d="M122.372 625.955C123.154 625.955 123.787 625.321 123.787 624.54C123.787 623.758 123.154 623.125 122.372 623.125C121.591 623.125 120.957 623.758 120.957 624.54C120.957 625.321 121.591 625.955 122.372 625.955Z" fill="#C070D0"/>
<path d="M586.485 625.955C587.267 625.955 587.9 625.321 587.9 624.54C587.9 623.758 587.267 623.125 586.485 623.125C585.704 623.125 585.07 623.758 585.07 624.54C585.07 625.321 585.704 625.955 586.485 625.955Z" fill="#C070D0"/>
<path d="M1048.48 625.955C1049.26 625.955 1049.9 625.321 1049.9 624.54C1049.9 623.758 1049.26 623.125 1048.48 623.125C1047.7 623.125 1047.07 623.758 1047.07 624.54C1047.07 625.321 1047.7 625.955 1048.48 625.955Z" fill="#C070D0"/>
<path d="M368.759 621.197C369.54 621.197 370.174 620.564 370.174 619.782C370.174 619.001 369.54 618.367 368.759 618.367C367.977 618.367 367.344 619.001 367.344 619.782C367.344 620.564 367.977 621.197 368.759 621.197Z" fill="#C070D0"/>
<path d="M832.868 621.197C833.65 621.197 834.283 620.564 834.283 619.782C834.283 619.001 833.65 618.367 832.868 618.367C832.087 618.367 831.453 619.001 831.453 619.782C831.453 620.564 832.087 621.197 832.868 621.197Z" fill="#C070D0"/>
<path d="M1294.87 621.197C1295.65 621.197 1296.29 620.564 1296.29 619.782C1296.29 619.001 1295.65 618.367 1294.87 618.367C1294.09 618.367 1293.46 619.001 1293.46 619.782C1293.46 620.564 1294.09 621.197 1294.87 621.197Z" fill="#C070D0"/>
<path d="M277.556 673.564C278.337 673.564 278.971 672.931 278.971 672.149C278.971 671.368 278.337 670.734 277.556 670.734C276.774 670.734 276.141 671.368 276.141 672.149C276.141 672.931 276.774 673.564 277.556 673.564Z" fill="#C070D0"/>
<path d="M741.665 673.564C742.447 673.564 743.08 672.931 743.08 672.149C743.08 671.368 742.447 670.734 741.665 670.734C740.884 670.734 740.25 671.368 740.25 672.149C740.25 672.931 740.884 673.564 741.665 673.564Z" fill="#C070D0"/>
<path d="M1203.67 673.564C1204.45 673.564 1205.09 672.931 1205.09 672.149C1205.09 671.368 1204.45 670.734 1203.67 670.734C1202.89 670.734 1202.26 671.368 1202.26 672.149C1202.26 672.931 1202.89 673.564 1203.67 673.564Z" fill="#C070D0"/>
<path d="M209.712 685.471C210.493 685.471 211.127 684.837 211.127 684.056C211.127 683.274 210.493 682.641 209.712 682.641C208.93 682.641 208.297 683.274 208.297 684.056C208.297 684.837 208.93 685.471 209.712 685.471Z" fill="#C070D0"/>
<path d="M1135.82 685.471C1136.6 685.471 1137.24 684.837 1137.24 684.056C1137.24 683.274 1136.6 682.641 1135.82 682.641C1135.04 682.641 1134.41 683.274 1134.41 684.056C1134.41 684.837 1135.04 685.471 1135.82 685.471Z" fill="#C070D0"/>
<path d="M226.376 619.779C227.157 619.779 227.791 619.146 227.791 618.364C227.791 617.583 227.157 616.949 226.376 616.949C225.594 616.949 224.961 617.583 224.961 618.364C224.961 619.146 225.594 619.779 226.376 619.779Z" fill="#C070D0"/>
<path d="M690.485 619.779C691.267 619.779 691.9 619.146 691.9 618.364C691.9 617.583 691.267 616.949 690.485 616.949C689.704 616.949 689.07 617.583 689.07 618.364C689.07 619.146 689.704 619.779 690.485 619.779Z" fill="#C070D0"/>
<path d="M1152.49 619.779C1153.27 619.779 1153.9 619.146 1153.9 618.364C1153.9 617.583 1153.27 616.949 1152.49 616.949C1151.71 616.949 1151.07 617.583 1151.07 618.364C1151.07 619.146 1151.71 619.779 1152.49 619.779Z" fill="#C070D0"/>
<path d="M158.528 558.111C159.31 558.111 159.943 557.478 159.943 556.696C159.943 555.915 159.31 555.281 158.528 555.281C157.747 555.281 157.113 555.915 157.113 556.696C157.113 557.478 157.747 558.111 158.528 558.111Z" fill="#C070D0"/>
<path d="M622.642 558.111C623.423 558.111 624.057 557.478 624.057 556.696C624.057 555.915 623.423 555.281 622.642 555.281C621.86 555.281 621.227 555.915 621.227 556.696C621.227 557.478 621.86 558.111 622.642 558.111Z" fill="#C070D0"/>
<path d="M1084.64 558.111C1085.42 558.111 1086.06 557.478 1086.06 556.696C1086.06 555.915 1085.42 555.281 1084.64 555.281C1083.86 555.281 1083.23 555.915 1083.23 556.696C1083.23 557.478 1083.86 558.111 1084.64 558.111Z" fill="#C070D0"/>
<path d="M304.935 639.049C305.716 639.049 306.35 638.415 306.35 637.634C306.35 636.852 305.716 636.219 304.935 636.219C304.153 636.219 303.52 636.852 303.52 637.634C303.52 638.415 304.153 639.049 304.935 639.049Z" fill="#C070D0"/>
<path d="M769.044 639.049C769.825 639.049 770.459 638.415 770.459 637.634C770.459 636.852 769.825 636.219 769.044 636.219C768.262 636.219 767.629 636.852 767.629 637.634C767.629 638.415 768.262 639.049 769.044 639.049Z" fill="#C070D0"/>
<path d="M1231.04 639.049C1231.82 639.049 1232.45 638.415 1232.45 637.634C1232.45 636.852 1231.82 636.219 1231.04 636.219C1230.26 636.219 1229.62 636.852 1229.62 637.634C1229.62 638.415 1230.26 639.049 1231.04 639.049Z" fill="#C070D0"/>
<path d="M286.481 573.584C287.263 573.584 287.896 572.95 287.896 572.169C287.896 571.387 287.263 570.754 286.481 570.754C285.7 570.754 285.066 571.387 285.066 572.169C285.066 572.95 285.7 573.584 286.481 573.584Z" fill="#C070D0"/>
<path d="M750.595 573.584C751.376 573.584 752.01 572.95 752.01 572.169C752.01 571.387 751.376 570.754 750.595 570.754C749.813 570.754 749.18 571.387 749.18 572.169C749.18 572.95 749.813 573.584 750.595 573.584Z" fill="#C070D0"/>
<path d="M1212.59 573.584C1213.37 573.584 1214.01 572.95 1214.01 572.169C1214.01 571.387 1213.37 570.754 1212.59 570.754C1211.81 570.754 1211.18 571.387 1211.18 572.169C1211.18 572.95 1211.81 573.584 1212.59 573.584Z" fill="#C070D0"/>
<path d="M487.044 654.521C487.825 654.521 488.459 653.888 488.459 653.106C488.459 652.325 487.825 651.691 487.044 651.691C486.262 651.691 485.629 652.325 485.629 653.106C485.629 653.888 486.262 654.521 487.044 654.521Z" fill="#C070D0"/>
<path d="M951.153 654.521C951.935 654.521 952.568 653.888 952.568 653.106C952.568 652.325 951.935 651.691 951.153 651.691C950.372 651.691 949.738 652.325 949.738 653.106C949.738 653.888 950.372 654.521 951.153 654.521Z" fill="#C070D0"/>
<path d="M1413.15 654.521C1413.93 654.521 1414.56 653.888 1414.56 653.106C1414.56 652.325 1413.93 651.691 1413.15 651.691C1412.37 651.691 1411.73 652.325 1411.73 653.106C1411.73 653.888 1412.37 654.521 1413.15 654.521Z" fill="#C070D0"/>
<path d="M487.169 609.76C487.95 609.76 488.584 609.126 488.584 608.345C488.584 607.563 487.95 606.93 487.169 606.93C486.387 606.93 485.754 607.563 485.754 608.345C485.754 609.126 486.387 609.76 487.169 609.76Z" fill="#C070D0"/>
<path d="M938.06 573.584C938.841 573.584 939.474 572.95 939.474 572.169C939.474 571.387 938.841 570.754 938.06 570.754C937.278 570.754 936.645 571.387 936.645 572.169C936.645 572.95 937.278 573.584 938.06 573.584Z" fill="#C070D0"/>
<path d="M1400.06 573.584C1400.84 573.584 1401.47 572.95 1401.47 572.169C1401.47 571.387 1400.84 570.754 1400.06 570.754C1399.28 570.754 1398.64 571.387 1398.64 572.169C1398.64 572.95 1399.28 573.584 1400.06 573.584Z" fill="#C070D0"/>
<path d="M112.365 941.257C147.058 941.257 175.183 937.926 175.183 933.816C175.183 929.706 147.058 926.375 112.365 926.375C77.6714 926.375 49.5469 929.706 49.5469 933.816C49.5469 937.926 77.6714 941.257 112.365 941.257Z" fill="#39239A" fill-opacity="0.33"/>
<path d="M115.737 876.035H108.789V929.392H115.737V876.035Z" fill="url(#paint36_linear_722_3)"/>
<path fill-rule="evenodd" clip-rule="evenodd" d="M117.813 699.238H106.096L104.246 923.241H120.28L117.813 699.238Z" fill="url(#paint37_linear_722_3)"/>
<path fill-rule="evenodd" clip-rule="evenodd" d="M124.29 885.003C124.29 884.323 123.737 883.77 123.056 883.77H101.472C100.791 883.77 100.238 884.323 100.238 885.003V887.47C100.238 888.151 100.791 888.704 101.472 888.704H123.056C123.737 888.704 124.29 888.151 124.29 887.47V885.003Z" fill="#6F58D7"/>
<path fill-rule="evenodd" clip-rule="evenodd" d="M122.129 708.488C122.129 707.807 121.577 707.254 120.896 707.254H103.628C102.947 707.254 102.395 707.807 102.395 708.488V710.954C102.395 711.635 102.947 712.188 103.628 712.188H120.896C121.577 712.188 122.129 711.635 122.129 710.954V708.488Z" fill="#251762"/>
<path fill-rule="evenodd" clip-rule="evenodd" d="M124.29 892.406C124.29 891.725 123.737 891.172 123.056 891.172H101.472C100.791 891.172 100.238 891.725 100.238 892.406V894.873C100.238 895.553 100.791 896.106 101.472 896.106H123.056C123.737 896.106 124.29 895.553 124.29 894.873V892.406Z" fill="#6F58D7"/>
<path fill-rule="evenodd" clip-rule="evenodd" d="M124.29 922.006C124.29 921.325 123.737 920.773 123.056 920.773H101.472C100.791 920.773 100.238 921.325 100.238 922.006V924.473C100.238 925.154 100.791 925.706 101.472 925.706H123.056C123.737 925.706 124.29 925.154 124.29 924.473V922.006Z" fill="#6F58D7"/>
<path fill-rule="evenodd" clip-rule="evenodd" d="M128.915 925.705C128.915 924.344 127.81 923.238 126.448 923.238H98.0803C96.7183 923.238 95.6133 924.344 95.6133 925.705V930.639C95.6133 932 96.7183 933.106 98.0803 933.106H126.448C127.81 933.106 128.915 932 128.915 930.639V925.705Z" fill="#3B259C"/>
<path fill-rule="evenodd" clip-rule="evenodd" d="M118.84 707.253H105.684C105.684 707.253 92.5734 686.331 92.5274 673.334C92.5034 666.319 98.2544 661.486 103.554 658.524C108.969 655.513 115.555 655.513 120.97 658.524C126.27 661.486 132.022 666.319 131.997 673.334C131.951 686.331 118.84 707.253 118.84 707.253Z" fill="url(#paint38_linear_722_3)"/>
<path fill-rule="evenodd" clip-rule="evenodd" d="M112.074 650.68L117.196 659.992H106.953L112.074 650.68Z" fill="#FDF4D7"/>
<path fill-rule="evenodd" clip-rule="evenodd" d="M803.98 946.496C752.086 948.07 663.429 949.109 562.863 949.109C403.097 949.109 273.387 946.488 273.387 943.26C273.387 940.031 403.097 937.41 562.863 937.41C663.429 937.41 752.086 938.449 803.98 940.024C855.875 938.449 944.532 937.41 1045.1 937.41C1090.54 937.41 1133.55 937.622 1171.84 938C1210.12 937.622 1253.13 937.41 1298.58 937.41C1458.34 937.41 1588.05 940.031 1588.05 943.26C1588.05 946.488 1458.34 949.109 1298.58 949.109C1253.13 949.109 1210.12 948.897 1171.84 948.519C1133.55 948.897 1090.54 949.109 1045.1 949.109C944.532 949.109 855.875 948.07 803.98 946.496Z" fill="#2B1A74"/>
</g>
</g>
<defs>
<linearGradient id="paint0_linear_722_3" x1="720" y1="0.539075" x2="720" y2="1024.54" gradientUnits="userSpaceOnUse">
<stop stop-color="#4D3EAD"/>
<stop offset="1" stop-color="#C63CBD"/>
</linearGradient>
<linearGradient id="paint1_linear_722_3" x1="1291.33" y1="720.771" x2="1290.99" y2="805.136" gradientUnits="userSpaceOnUse">
<stop stop-color="#39239A"/>
<stop offset="1" stop-color="#603FF3"/>
</linearGradient>
<linearGradient id="paint2_linear_722_3" x1="618.001" y1="673.541" x2="620.001" y2="805.121" gradientUnits="userSpaceOnUse">
<stop stop-color="#39239A"/>
<stop offset="1" stop-color="#603FF3"/>
</linearGradient>
<linearGradient id="paint3_linear_722_3" x1="148.783" y1="721.993" x2="148.24" y2="788.923" gradientUnits="userSpaceOnUse">
<stop stop-color="#39239A"/>
<stop offset="1" stop-color="#5235D3"/>
</linearGradient>
<linearGradient id="paint4_linear_722_3" x1="814" y1="760.541" x2="813" y2="882.541" gradientUnits="userSpaceOnUse">
<stop stop-color="#291A6C"/>
<stop offset="1" stop-color="#0D0434"/>
</linearGradient>
<radialGradient id="paint5_radial_722_3" cx="0" cy="0" r="1" gradientUnits="userSpaceOnUse" gradientTransform="translate(915.242 920.773) rotate(179.349) scale(217.241 69.0359)">
<stop stop-color="#6B53D8"/>
<stop offset="1" stop-color="#39239A"/>
</radialGradient>
<radialGradient id="paint6_radial_722_3" cx="0" cy="0" r="1" gradientUnits="userSpaceOnUse" gradientTransform="translate(490.47 920.773) rotate(179.349) scale(217.241 69.0359)">
<stop stop-color="#6B53D8"/>
<stop offset="1" stop-color="#39239A"/>
</radialGradient>
<radialGradient id="paint7_radial_722_3" cx="0" cy="0" r="1" gradientUnits="userSpaceOnUse" gradientTransform="translate(127.958 920.773) rotate(179.349) scale(217.241 69.0359)">
<stop stop-color="#6B53D8"/>
<stop offset="1" stop-color="#39239A"/>
</radialGradient>
<radialGradient id="paint8_radial_722_3" cx="0" cy="0" r="1" gradientUnits="userSpaceOnUse" gradientTransform="translate(1345.93 920.773) rotate(179.334) scale(212.212 69.0357)">
<stop stop-color="#6B53D8"/>
<stop offset="1" stop-color="#39239A"/>
</radialGradient>
<linearGradient id="paint9_linear_722_3" x1="279.119" y1="867.663" x2="279.119" y2="928.041" gradientUnits="userSpaceOnUse">
<stop stop-color="#6F58D7"/>
<stop offset="1" stop-color="#2B0DB3"/>
</linearGradient>
<linearGradient id="paint10_linear_722_3" x1="1253.78" y1="890.258" x2="1253.78" y2="937.495" gradientUnits="userSpaceOnUse">
<stop stop-color="#6F58D7"/>
<stop offset="1" stop-color="#2B0DB3"/>
</linearGradient>
<linearGradient id="paint11_linear_722_3" x1="1324.32" y1="785.707" x2="1324.32" y2="700.035" gradientUnits="userSpaceOnUse">
<stop stop-color="#3B259C"/>
<stop offset="1" stop-color="#6E50F2"/>
</linearGradient>
<linearGradient id="paint12_linear_722_3" x1="1326.47" y1="672.096" x2="1325.54" y2="704.688" gradientUnits="userSpaceOnUse">
<stop stop-color="#FDF4D7"/>
<stop offset="1" stop-color="#FFAB44"/>
</linearGradient>
<linearGradient id="paint13_linear_722_3" x1="852.397" y1="890.258" x2="852.397" y2="937.495" gradientUnits="userSpaceOnUse">
<stop stop-color="#6F58D7"/>
<stop offset="1" stop-color="#2B0DB3"/>
</linearGradient>
<linearGradient id="paint14_linear_722_3" x1="922.954" y1="785.707" x2="922.954" y2="700.035" gradientUnits="userSpaceOnUse">
<stop stop-color="#3B259C"/>
<stop offset="1" stop-color="#6E50F2"/>
</linearGradient>
<linearGradient id="paint15_linear_722_3" x1="925.094" y1="672.096" x2="924.163" y2="704.688" gradientUnits="userSpaceOnUse">
<stop stop-color="#FDF4D7"/>
<stop offset="1" stop-color="#FFAB44"/>
</linearGradient>
<linearGradient id="paint16_linear_722_3" x1="432.439" y1="890.258" x2="432.439" y2="937.495" gradientUnits="userSpaceOnUse">
<stop stop-color="#6F58D7"/>
<stop offset="1" stop-color="#2B0DB3"/>
</linearGradient>
<linearGradient id="paint17_linear_722_3" x1="502.998" y1="785.707" x2="502.998" y2="700.035" gradientUnits="userSpaceOnUse">
<stop stop-color="#3B259C"/>
<stop offset="1" stop-color="#6E50F2"/>
</linearGradient>
<linearGradient id="paint18_linear_722_3" x1="505.138" y1="672.096" x2="504.207" y2="704.688" gradientUnits="userSpaceOnUse">
<stop stop-color="#FDF4D7"/>
<stop offset="1" stop-color="#FFAB44"/>
</linearGradient>
<linearGradient id="paint19_linear_722_3" x1="210.466" y1="867.663" x2="210.466" y2="928.041" gradientUnits="userSpaceOnUse">
<stop stop-color="#6F58D7"/>
<stop offset="1" stop-color="#2B0DB3"/>
</linearGradient>
<linearGradient id="paint20_linear_722_3" x1="279.117" y1="867.663" x2="279.117" y2="928.041" gradientUnits="userSpaceOnUse">
<stop stop-color="#6F58D7"/>
<stop offset="1" stop-color="#2B0DB3"/>
</linearGradient>
<linearGradient id="paint21_linear_722_3" x1="279.119" y1="867.663" x2="279.119" y2="928.041" gradientUnits="userSpaceOnUse">
<stop stop-color="#6F58D7"/>
<stop offset="1" stop-color="#2B0DB3"/>
</linearGradient>
<linearGradient id="paint22_linear_722_3" x1="279.117" y1="867.663" x2="279.117" y2="928.041" gradientUnits="userSpaceOnUse">
<stop stop-color="#6F58D7"/>
<stop offset="1" stop-color="#2B0DB3"/>
</linearGradient>
<linearGradient id="paint23_linear_722_3" x1="279.118" y1="867.663" x2="279.118" y2="928.041" gradientUnits="userSpaceOnUse">
<stop stop-color="#6F58D7"/>
<stop offset="1" stop-color="#2B0DB3"/>
</linearGradient>
<linearGradient id="paint24_linear_722_3" x1="434.876" y1="867.663" x2="434.876" y2="928.041" gradientUnits="userSpaceOnUse">
<stop stop-color="#6F58D7"/>
<stop offset="1" stop-color="#2B0DB3"/>
</linearGradient>
<linearGradient id="paint25_linear_722_3" x1="512.759" y1="867.663" x2="512.759" y2="928.041" gradientUnits="userSpaceOnUse">
<stop stop-color="#6F58D7"/>
<stop offset="1" stop-color="#2B0DB3"/>
</linearGradient>
<linearGradient id="paint26_linear_722_3" x1="590.638" y1="867.663" x2="590.638" y2="928.041" gradientUnits="userSpaceOnUse">
<stop stop-color="#6F58D7"/>
<stop offset="1" stop-color="#2B0DB3"/>
</linearGradient>
<linearGradient id="paint27_linear_722_3" x1="668.521" y1="867.663" x2="668.521" y2="928.041" gradientUnits="userSpaceOnUse">
<stop stop-color="#6F58D7"/>
<stop offset="1" stop-color="#2B0DB3"/>
</linearGradient>
<linearGradient id="paint28_linear_722_3" x1="746.399" y1="867.663" x2="746.399" y2="928.041" gradientUnits="userSpaceOnUse">
<stop stop-color="#6F58D7"/>
<stop offset="1" stop-color="#2B0DB3"/>
</linearGradient>
<linearGradient id="paint29_linear_722_3" x1="824.278" y1="867.663" x2="824.278" y2="928.041" gradientUnits="userSpaceOnUse">
<stop stop-color="#6F58D7"/>
<stop offset="1" stop-color="#2B0DB3"/>
</linearGradient>
<linearGradient id="paint30_linear_722_3" x1="902.161" y1="867.663" x2="902.161" y2="928.041" gradientUnits="userSpaceOnUse">
<stop stop-color="#6F58D7"/>
<stop offset="1" stop-color="#2B0DB3"/>
</linearGradient>
<linearGradient id="paint31_linear_722_3" x1="980.039" y1="867.663" x2="980.039" y2="928.041" gradientUnits="userSpaceOnUse">
<stop stop-color="#6F58D7"/>
<stop offset="1" stop-color="#2B0DB3"/>
</linearGradient>
<linearGradient id="paint32_linear_722_3" x1="1057.92" y1="867.663" x2="1057.92" y2="928.041" gradientUnits="userSpaceOnUse">
<stop stop-color="#6F58D7"/>
<stop offset="1" stop-color="#2B0DB3"/>
</linearGradient>
<linearGradient id="paint33_linear_722_3" x1="1135.8" y1="867.663" x2="1135.8" y2="928.041" gradientUnits="userSpaceOnUse">
<stop stop-color="#6F58D7"/>
<stop offset="1" stop-color="#2B0DB3"/>
</linearGradient>
<linearGradient id="paint34_linear_722_3" x1="1213.68" y1="867.663" x2="1213.68" y2="928.041" gradientUnits="userSpaceOnUse">
<stop stop-color="#6F58D7"/>
<stop offset="1" stop-color="#2B0DB3"/>
</linearGradient>
<linearGradient id="paint35_linear_722_3" x1="1291.56" y1="867.663" x2="1291.56" y2="928.041" gradientUnits="userSpaceOnUse">
<stop stop-color="#6F58D7"/>
<stop offset="1" stop-color="#2B0DB3"/>
</linearGradient>
<linearGradient id="paint36_linear_722_3" x1="41.7056" y1="890.258" x2="41.7056" y2="937.495" gradientUnits="userSpaceOnUse">
<stop stop-color="#6F58D7"/>
<stop offset="1" stop-color="#2B0DB3"/>
</linearGradient>
<linearGradient id="paint37_linear_722_3" x1="112.263" y1="785.707" x2="112.263" y2="700.035" gradientUnits="userSpaceOnUse">
<stop stop-color="#3B259C"/>
<stop offset="1" stop-color="#6E50F2"/>
</linearGradient>
<linearGradient id="paint38_linear_722_3" x1="114.403" y1="672.096" x2="113.472" y2="704.688" gradientUnits="userSpaceOnUse">
<stop stop-color="#FDF4D7"/>
<stop offset="1" stop-color="#FFAB44"/>
</linearGradient>
<clipPath id="clip0_722_3">
<rect width="1440" height="1025" fill="white"/>
</clipPath>
</defs>
</svg>
