<svg width="423" height="1032" viewBox="0 0 423 1032" fill="none" xmlns="http://www.w3.org/2000/svg">
<g clip-path="url(#clip0_1141_115)">
<g clip-path="url(#clip1_1141_115)">
<mask id="mask0_1141_115" style="mask-type:luminance" maskUnits="userSpaceOnUse" x="-589" y="0" width="1441" height="1025">
<path d="M851.785 0.902344H-588.215V1024.9H851.785V0.902344Z" fill="white"/>
</mask>
<g mask="url(#mask0_1141_115)">
<path d="M770.01 -111H-671V913H770.01V-111Z" fill="url(#paint0_linear_1141_115)"/>
<path fill-rule="evenodd" clip-rule="evenodd" d="M445.511 443.218H417.971V553.558H398.217V770.028H321.412V716.727H255.957V634.824H236.073V549.981H224.172V476.982H201.863V549.981H189.962V634.824H173.078V770.028H107.348V905.232H471.321V348.281H445.511V443.218Z" fill="#555F43"/>
<path d="M852.785 905.234H-588.215V1024.9H852.785V905.234Z" fill="url(#paint1_linear_1141_115)"/>
<path d="M107.212 0.902344H-23.3789V905.232H107.212V0.902344Z" fill="url(#paint2_linear_1141_115)"/>
<path d="M61.0043 658.504H-107.762V693.655H61.0043V658.504Z" fill="#262D20"/>
<path d="M61.0043 693.656H-107.762V728.807H61.0043V693.656Z" fill="#2A3123"/>
<path d="M65.4131 728.805H-112.168V763.956H65.4131V728.805Z" fill="#2D3526"/>
<path d="M71.0237 763.957H-117.777V799.108H71.0237V763.957Z" fill="#343D2C"/>
<path d="M74.249 799.105H-121V834.256H74.249V799.105Z" fill="#3A4431"/>
<path d="M77.7275 834.258H-124.48V869.409H77.7275V834.258Z" fill="#3F4935"/>
<path d="M77.7275 869.41H-124.48V904.561H77.7275V869.41Z" fill="#45503A"/>
<path d="M57.815 546.887H-175.461V569.329H57.815V546.887Z" fill="#24291D"/>
<path fill-rule="evenodd" clip-rule="evenodd" d="M37.7109 546.887H57.8179L88.2239 905.233H68.1169L37.7109 546.887Z" fill="#24291D"/>
<path d="M115.995 188.449H-23.3789V211.751H115.995V188.449Z" fill="#52583F"/>
<path d="M115.995 429.766H-23.3789V453.068H115.995V429.766Z" fill="#52583F"/>
<path fill-rule="evenodd" clip-rule="evenodd" d="M125.183 586.006H139.213V662.246H152.861V811.814H230.928V774.986H276.154V688.396H289.893V629.774H298.116V579.336H313.53V629.774H321.753V688.396H335.492V811.814H358.835V905.233H107.348V520.41H125.183V586.006Z" fill="url(#paint3_linear_1141_115)"/>
<path fill-rule="evenodd" clip-rule="evenodd" d="M601.012 905.234L358.836 1024.9H789.232L794.142 905.234H601.012Z" fill="#979705" fill-opacity="0.4"/>
</g>
<path d="M437.416 158H374V381.842H437.416V158Z" fill="#474D37"/>
<path d="M382.098 372.956V166.879H429.317V372.956H382.098Z" fill="#595F44" stroke="#FCFC03"/>
<path d="M437.416 401H374V624.842H437.416V401Z" fill="#474D37"/>
<path d="M382.098 615.956V409.879H429.317V615.956H382.098Z" fill="#595F44" stroke="#FCFC03"/>
<path d="M188.416 323H125V546.842H188.416V323Z" fill="#474D37"/>
<path d="M133.098 537.956V331.879H180.317V537.956H133.098Z" fill="#595F44" stroke="#FCFC03"/>
<path d="M125.926 365.492H107V376.249H125.926V365.492Z" fill="#474D37"/>
<path d="M125.926 488.445H107V499.202H125.926V488.445Z" fill="#474D37"/>
<path fill-rule="evenodd" clip-rule="evenodd" d="M414.33 176L409.58 180.421H401.32L397.32 176H414.33ZM411.76 205.472H394.75L399.51 201.094H407.76L411.76 205.472ZM399.26 194.315L398.75 200.251L394 204.63L394.97 193.22L396.78 191.578L399.26 194.315ZM395.43 188.252L396.4 176.842L400.4 181.221L399.89 187.157L396.9 189.936L395.43 188.252ZM413.62 193.22L412.65 204.63L408.65 200.251L409.15 194.315L412.14 191.578L413.62 193.22ZM409.79 187.157L410.29 181.221L415.05 176.842L414.08 188.252L412.27 189.936L409.79 187.157Z" fill="#979707"/>
<path fill-rule="evenodd" clip-rule="evenodd" d="M394 229.41L394.96 218L398.96 222.379L398.46 228.315L395.47 231.094L394 229.41ZM412.19 234.378L411.22 245.788L407.22 241.409L407.72 235.473L410.71 232.736L412.19 234.378ZM408.35 228.315L408.86 222.379L413.62 218L412.65 229.41L410.84 231.094L408.35 228.315ZM407.97 229.705L410 231.894L407.6 234.083H398.25L396.27 231.894L398.63 229.705H407.97Z" fill="#D6D607"/>
<path fill-rule="evenodd" clip-rule="evenodd" d="M401 284.546L401.38 280.168H405.8L405.42 284.546H401ZM402.77 264.379L403.15 260H407.57L407.19 264.379H402.77Z" fill="#979706"/>
<path d="M412.343 333L407.979 337.632H400.408L396.738 333H412.343ZM395 345.838L395.888 333.882L399.558 338.471L399.094 344.691L396.352 347.603L395 345.838ZM411.687 351.044L410.798 363L407.129 358.412L407.592 352.191L410.335 349.324L411.687 351.044ZM408.172 344.691L408.635 338.471L413 333.882L412.112 345.838L410.451 347.603L408.172 344.691ZM407.824 346.147L409.678 348.441L407.476 350.735H398.901L397.086 348.441L399.249 346.147H407.824Z" fill="#D6D607"/>
<path d="M405.658 312.347L404.75 324.432L401 319.794L401.474 313.506L404.276 310.608L405.658 312.347ZM402.066 305.925L402.539 299.638L407 295L406.092 307.085L404.395 308.868L402.066 305.925Z" fill="#D6D607"/>
</g>
</g>
<defs>
<linearGradient id="paint0_linear_1141_115" x1="150.239" y1="514.855" x2="150.239" y2="-141.841" gradientUnits="userSpaceOnUse">
<stop stop-color="#5E694A"/>
<stop offset="0.49" stop-color="#64704F"/>
<stop offset="1" stop-color="#77855E"/>
</linearGradient>
<linearGradient id="paint1_linear_1141_115" x1="308.201" y1="955.577" x2="-636.224" y2="1054.67" gradientUnits="userSpaceOnUse">
<stop stop-color="#323A29"/>
<stop offset="1" stop-color="#292F21"/>
</linearGradient>
<linearGradient id="paint2_linear_1141_115" x1="212.201" y1="271.516" x2="211.057" y2="986.915" gradientUnits="userSpaceOnUse">
<stop stop-color="#474D37"/>
<stop offset="1" stop-color="#202710"/>
</linearGradient>
<linearGradient id="paint3_linear_1141_115" x1="233.833" y1="723.822" x2="233.833" y2="1103.29" gradientUnits="userSpaceOnUse">
<stop stop-color="#50593F"/>
<stop offset="1" stop-color="#283214"/>
</linearGradient>
<clipPath id="clip0_1141_115">
<rect width="423" height="1032" fill="white"/>
</clipPath>
<clipPath id="clip1_1141_115">
<rect width="1441" height="1025" fill="white" transform="translate(-589)"/>
</clipPath>
</defs>
</svg>
