<svg width="1440" height="1024" viewBox="0 0 1440 1024" fill="none" xmlns="http://www.w3.org/2000/svg">
<g clip-path="url(#clip0_3401_3)">
<mask id="mask0_3401_3" style="mask-type:luminance" maskUnits="userSpaceOnUse" x="0" y="0" width="1440" height="1024">
<path d="M1440 0H0V1024H1440V0Z" fill="white"/>
</mask>
<g mask="url(#mask0_3401_3)">
<path d="M1440 0H0V1024H1440V0Z" fill="url(#paint0_linear_3401_3)"/>
<path d="M1440 770.231H0V1024H1440V770.231Z" fill="#F5B370"/>
<path d="M289.189 791.587C313.679 795.129 470.638 799.173 481.77 808.078C492.901 816.984 787.895 816.984 810.16 820.324C832.423 823.665 707.746 824.777 731.123 840.32C754.502 855.864 1051.72 841.475 1095.13 839.418C1138.55 837.362 1223.15 842.587 1286.6 839.063C1350.06 835.539 1445.79 837.024 1465.83 839.063C1485.86 841.105 1554.88 833.682 1554.88 833.682V770.231H240.588C174.493 786.166 266.651 788.324 289.189 791.587Z" fill="#D98837"/>
<path d="M-114.892 770.231V810.952C-75.6051 805.267 24.6529 831.277 46.5199 828.674C69.8969 825.89 197.913 835.352 217.124 831.456C236.335 827.56 427.229 847.598 471.2 847.455C515.171 847.313 604.225 846.484 603.527 844.259C602.828 842.032 581.405 836.188 543.836 839.063C506.264 841.939 387.712 838.693 326.765 818.655C265.816 798.619 152.273 806.132 183.164 791.587C214.055 777.04 53.7549 777.747 53.7549 777.747L63.3179 770.231H-114.892Z" fill="#D98837"/>
<path d="M624.424 758.839C609.327 759.916 592.599 759.916 583.493 759.916H491.18C478.142 759.916 432.466 770.236 400.594 776.644C89.6549 776.644 32.0099 798.36 -114.892 789.435V714.211C-102.766 712.736 -84.9841 710.695 -74.9671 710.241C-58.7661 709.56 -36.6231 699.978 -23.7301 704.232C-10.8371 708.483 23.2889 707.633 36.1829 709.504C49.0749 711.318 78.1209 711.716 88.2809 711.716C96.6209 711.716 124.612 709.504 141.819 709.335H141.964C145.798 709.277 149.106 709.335 151.501 709.504C164.683 710.525 169.858 709.56 189.031 711.943C208.202 714.267 224.212 716.818 238.158 715.799C252.154 714.778 263.754 715.402 278.515 715.799C293.277 716.196 331.622 723.737 355.203 721.355C378.784 719.03 404.332 723.228 418.709 721.81C433.089 720.448 469.851 726.12 474.643 728.444C479.438 730.825 495.397 736.95 504.169 737.459C512.988 737.914 536.954 738.877 549.703 742.619C562.5 746.42 582.486 749.707 590.058 750.672C594.948 751.296 610.716 756.059 624.424 758.839Z" fill="#EFA760"/>
<path d="M1554.89 699.293V719.196C1543.38 719.141 1527.95 719.084 1516.3 719.481C1495.31 720.217 1463.58 717.439 1452.17 719.141C1440.82 720.897 1399.45 713.412 1379.13 718.572C1358.71 723.733 1338.96 712.562 1317.97 716.758C1297.02 720.897 1301.19 713.356 1273.06 719.99C1244.92 726.569 1239.51 727.249 1222.73 727.249C1205.96 727.249 1191.58 726.569 1180.22 727.249C1168.81 727.986 1148.44 730.82 1134.69 734.395C1120.88 737.91 1119.68 735.754 1101.13 734.395C1082.54 732.921 1060.97 730.085 1047.79 730.82C1034.61 731.559 1013.62 724.13 1004.65 726.058C995.689 727.986 976.518 727.986 965.11 729.402C953.703 730.82 939.324 737.231 920.775 732.921C902.227 728.723 862.637 730.085 854.871 732.238C847.106 734.395 824.916 741.426 806.942 741.426C788.968 741.426 733.705 743.58 719.998 746.416C706.288 749.25 661.954 752.766 645.179 756.34C639.525 757.528 632.189 758.323 624.426 758.834C610.717 756.055 594.949 751.291 590.061 750.668C582.487 749.705 562.5 746.416 549.703 742.615C536.954 738.873 512.988 737.91 504.169 737.455C495.399 736.945 479.438 730.82 474.645 728.44C469.851 726.115 433.091 720.443 418.711 721.806C404.332 723.224 378.786 719.028 355.203 721.351C331.622 723.733 293.279 716.192 278.515 715.795C263.754 715.397 252.155 714.774 238.158 715.795C224.212 716.815 208.202 714.263 189.031 711.939C169.86 709.558 164.683 710.521 151.501 709.499C149.106 709.331 145.798 709.272 141.964 709.331C153.707 706.666 167.08 704.227 178.677 701.505C199.048 696.798 197.85 700.087 217.789 697.763C228.045 696.516 233.461 696.571 237.632 696.742H237.68C241.657 696.798 244.535 697.024 249.375 696.345C259.344 694.927 267.349 699.634 276.503 699.634C285.705 699.634 307.656 701.052 317.243 701.505C326.83 702.015 335.649 703.433 350.793 703.149C365.988 702.923 377.155 705.304 389.138 701.505C401.12 697.763 409.507 702.015 422.306 703.149C435.103 704.339 445.887 704.339 453.844 703.149C461.848 701.959 472.248 702.923 479.821 703.149C487.395 703.377 501.774 703.886 508.196 703.149C514.571 702.412 543.328 704.339 554.113 706.269C564.897 708.14 575.297 710.976 581.289 710.976C587.281 710.976 601.227 710.976 617.237 704.227C633.196 697.536 636.79 699.634 651.554 698.16C666.364 696.684 679.928 700.597 693.109 698.16C706.288 695.722 739.841 698.669 749.811 698.16C759.827 697.648 774.206 697.251 797.356 698.16C820.506 699.066 824.533 699.181 834.118 698.16C843.704 697.14 872.845 696.798 885.642 694.927C898.391 692.998 911.573 697.251 921.59 698.16C931.559 699.066 961.9 693.962 972.875 695.38C973.115 695.439 973.404 695.439 973.69 695.494C985.05 696.628 1008.87 692.998 1019.03 692.147C1029.43 691.299 1068.98 697.763 1075.73 693.397C1082.54 689.087 1098.5 697.251 1116.47 698.84C1134.45 700.37 1147.63 701.505 1157.64 698.84C1167.62 696.118 1215.93 698.669 1221.92 698.84C1227.91 698.952 1252.69 701.505 1261.89 701.505C1271.05 701.505 1298.61 701.505 1312.99 701.052C1327.37 700.597 1369.3 695.833 1382.91 693.962C1396.48 692.091 1400.46 695.38 1417.23 698.442C1434.01 701.449 1453.61 700.087 1469.95 701.335C1486.35 702.582 1485.53 701.505 1501.54 703.433C1517.5 705.304 1524.31 703.886 1533.08 700.087C1539.02 697.536 1549.09 698.442 1554.89 699.293Z" fill="#FFCB97"/>
<path d="M1554.88 673.832V699.293C1549.08 698.442 1539.02 697.536 1533.07 700.087C1524.3 703.886 1517.5 705.304 1501.54 703.433C1485.53 701.503 1486.34 702.582 1469.95 701.335C1453.61 700.087 1434 701.447 1417.23 698.442C1400.45 695.38 1396.48 692.091 1382.91 693.962C1369.3 695.833 1327.36 700.597 1312.98 701.052C1298.6 701.503 1271.04 701.503 1261.89 701.503C1252.68 701.503 1227.9 698.952 1221.91 698.84C1215.92 698.669 1167.61 696.118 1157.64 698.84C1147.62 701.503 1134.44 700.37 1116.47 698.84C1098.49 697.251 1082.53 689.087 1075.73 693.394C1068.97 697.761 1029.43 691.297 1019.03 692.147C1008.87 692.998 985.046 696.628 973.686 695.492C985.525 692.659 998.85 688.86 1003.45 686.704C1009.83 683.756 1029.81 685.004 1039.02 686.422C1048.17 687.839 1068.16 684.039 1079.75 684.039C1091.31 684.039 1099.69 683.586 1112.87 681.205C1126.06 678.822 1167.61 672.244 1180.41 670.826C1188.75 669.92 1195.22 667.764 1202.89 666.007C1206.91 665.042 1211.27 664.191 1216.36 663.738C1231.12 662.32 1230.3 667.48 1249.9 668.672C1269.46 669.863 1270.28 672.244 1283.03 672.244C1295.82 672.244 1303.01 678.369 1312.21 674.115C1321.37 669.863 1338.14 670.826 1338.14 670.826C1338.14 670.826 1353.72 666.062 1362.11 664.191C1370.5 662.32 1372.13 666.574 1376.49 665.609C1380.9 664.646 1392.88 658.976 1399.26 658.976C1405.68 658.976 1415.26 664.646 1421.25 665.609C1427.25 666.574 1438.8 658.976 1446.8 658.976C1454.81 658.976 1461.56 662.32 1466.79 662.32C1471.96 662.32 1485.96 664.191 1508.3 665.156C1530.68 666.062 1533.89 671.734 1553.16 673.662L1554.88 673.832Z" fill="#FFCB97"/>
<path d="M1554.89 644.517V673.835L1553.17 673.664C1533.9 671.737 1530.69 666.068 1508.3 665.159C1485.97 664.197 1471.97 662.325 1466.8 662.325C1461.57 662.325 1454.82 658.978 1446.81 658.978C1438.81 658.978 1427.25 666.577 1421.26 665.612C1415.27 664.65 1405.69 658.978 1399.26 658.978C1392.89 658.978 1380.91 664.65 1376.5 665.612C1372.13 666.577 1370.51 662.325 1362.12 664.197C1353.73 666.068 1338.15 670.83 1338.15 670.83C1338.15 670.83 1321.38 669.866 1312.22 674.12C1303.02 678.371 1295.83 672.246 1283.03 672.246C1270.29 672.246 1269.47 669.866 1249.91 668.674C1230.31 667.486 1231.13 662.325 1216.36 663.741C1211.28 664.197 1206.92 665.046 1202.89 666.011C1195.95 662.608 1185.98 657.844 1183.2 656.653C1178.79 654.726 1168.43 650.019 1162.01 646.73C1158.08 644.688 1151.95 642.988 1146.2 641.457C1168.43 640.266 1211.86 637.997 1221.54 637.997C1234.72 637.997 1232.33 645.767 1257.49 637.997C1282.65 630.171 1295.83 626.656 1307.82 630.171C1319.8 633.688 1321.62 636.58 1341.94 635.502C1362.36 634.425 1357.57 639.415 1381.53 635.502C1405.5 631.589 1441.44 626.714 1448.63 628.812C1455.82 630.854 1479.16 631.589 1488.75 631.589C1498.34 631.589 1519.28 638.677 1534.9 642.193C1540.66 643.555 1547.8 644.293 1554.89 644.517Z" fill="#FFCB97"/>
<path d="M603.527 674.795C586.848 676.44 566.477 676.837 561.685 677.404C553.728 678.369 538.534 681.203 524.54 680.24C510.593 679.332 503.402 681.6 490.605 680.467C477.808 679.332 444.688 678.482 436.3 680.75C427.913 683.074 417.129 677.064 403.132 680.75C389.138 684.492 352.423 686.875 345.616 686.419C338.812 685.91 329.657 684.607 320.453 686.478C311.251 688.293 304.876 689.255 291.312 689.255C277.7 689.255 263.754 687.837 260.159 689.255C258.192 690.05 248.273 693.395 237.68 696.74H237.632C233.461 696.569 228.045 696.514 217.789 697.761C197.85 700.085 199.048 696.798 178.677 701.503C167.078 704.227 153.707 706.663 141.964 709.329H141.819C124.612 709.499 96.6209 711.712 88.2819 711.712C78.1209 711.712 49.0749 711.315 36.1829 709.499C23.2889 707.628 -10.8371 708.479 -23.7301 704.227C-36.6231 699.973 -58.7661 709.556 -74.9671 710.235C-84.9841 710.691 -102.766 712.733 -114.892 714.206V637.257H-53.3981C-33.0281 637.257 -16.2531 631.585 -0.676094 637.257C14.9019 642.927 -0.676086 637.257 35.2719 637.257C71.2189 637.257 82.0039 627.957 107.166 634.762C132.33 641.511 186.251 636.18 207.819 636.01C229.388 635.839 246.163 624.839 283.308 636.01C320.453 647.181 349.211 636.633 382.761 639.752C416.314 642.927 422.304 633.968 437.883 641.282C453.459 648.599 470.235 644.345 493.002 647.181C515.768 650.017 513.612 652.17 561.3 663.171C590.873 669.976 595.283 672.756 603.527 674.795Z" fill="#FFCB97"/>
<path d="M1202.89 666.009C1195.22 667.766 1188.75 669.922 1180.41 670.828C1167.61 672.246 1126.06 678.822 1112.88 681.205C1099.7 683.588 1091.31 684.041 1079.76 684.041C1068.16 684.041 1048.17 687.839 1039.02 686.422C1029.81 685.006 1009.83 683.756 1003.45 686.706C998.852 688.861 985.527 692.659 973.688 695.494C973.401 695.439 973.115 695.439 972.873 695.383C961.898 693.965 931.557 699.067 921.588 698.16C911.571 697.254 898.389 693 885.64 694.927C872.843 696.798 843.702 697.14 834.116 698.16C824.532 699.181 820.504 699.067 797.356 698.16C774.204 697.254 759.826 697.649 749.808 698.16C739.839 698.669 706.286 695.722 693.107 698.16C679.926 700.599 666.362 696.686 651.552 698.16C636.788 699.634 633.194 697.536 617.235 704.227C601.225 710.976 587.279 710.976 581.287 710.976C575.297 710.976 564.895 708.14 554.111 706.269C543.326 704.341 514.569 702.414 508.194 703.15C501.772 703.888 487.392 703.377 479.821 703.15C472.246 702.923 461.846 701.959 453.842 703.15C445.886 704.341 435.101 704.341 422.304 703.15C409.507 702.017 401.118 697.763 389.136 701.505C377.155 705.306 365.986 702.923 350.791 703.15C335.647 703.433 326.827 702.017 317.241 701.505C307.654 701.052 285.703 699.634 276.501 699.634C267.346 699.634 259.342 694.927 249.373 696.345C244.533 697.025 241.655 696.798 237.678 696.742C248.271 693.397 258.192 690.052 260.157 689.257C263.752 687.839 277.699 689.257 291.31 689.257C304.874 689.257 311.249 688.293 320.453 686.48C329.655 684.607 338.809 685.912 345.617 686.422C352.421 686.877 389.136 684.494 403.133 680.752C417.127 677.066 427.911 683.076 436.299 680.752C444.688 678.484 477.806 679.334 490.603 680.469C503.402 681.602 510.591 679.334 524.538 680.24C538.534 681.205 553.726 678.371 561.683 677.406C566.475 676.839 586.846 676.442 603.525 674.797C614.646 673.72 624.183 672.02 626.389 669.41C631.996 662.776 633.578 668.446 642.781 663.74C651.985 658.978 656.345 662.322 662.336 658.978C668.326 655.689 683.138 658.525 695.887 662.322C708.684 666.065 743.817 662.776 753.404 658.978C762.988 655.233 769.412 652.853 784.174 646.274C798.936 639.754 801.763 642.929 817.724 639.13C833.686 635.388 840.108 637.712 849.262 635.841C858.464 633.97 885.64 638.677 892.015 638.677C898.389 638.677 906.779 629.716 914.399 624.612C921.973 619.51 935.536 629.716 937.932 631.587C940.328 633.458 956.721 633.97 964.292 636.806C971.914 639.64 976.277 641.964 982.269 641.058C988.258 640.093 992.285 635.388 1000.67 629.716C1009.06 624.046 1015.05 626.882 1019.84 625.011C1024.64 623.138 1031.01 627.789 1039.78 633.005C1048.6 638.224 1045.39 633.97 1054.16 633.97C1062.98 633.97 1061.78 633.97 1072.95 630.625C1084.12 627.335 1085.75 627.335 1095.33 625.464C1104.92 623.535 1113.31 628.298 1119.68 632.04C1126.06 635.841 1129.65 636.294 1136.46 638.677C1139.09 639.583 1142.54 640.49 1146.14 641.454H1146.19C1151.94 642.985 1158.07 644.688 1162.01 646.728C1168.43 650.017 1178.78 654.724 1183.19 656.651C1185.97 657.842 1195.94 662.606 1202.89 666.009Z" fill="#FFEBDA"/>
<path d="M1554.88 719.196V776.637C1210.9 795.977 923.704 806.964 400.588 776.637C432.461 770.23 478.136 759.909 491.174 759.909H583.486C592.593 759.909 609.321 759.909 624.42 758.832C632.183 758.323 639.516 757.528 645.171 756.338C661.947 752.765 706.282 749.25 719.992 746.414C733.699 743.578 788.962 741.424 806.936 741.424C824.909 741.424 847.1 734.392 854.865 732.238C862.631 730.083 902.219 728.722 920.769 732.918C939.318 737.228 953.695 730.82 965.104 729.402C976.512 727.984 995.683 727.984 1004.65 726.057C1013.61 724.13 1034.6 731.558 1047.78 730.82C1060.96 730.083 1082.53 732.918 1101.13 734.392C1119.68 735.754 1120.88 737.908 1134.68 734.392C1148.43 730.82 1168.81 727.984 1180.21 727.249C1191.57 726.566 1205.95 727.249 1222.73 727.249C1239.5 727.249 1244.92 726.566 1273.05 719.99C1301.19 713.356 1297.02 720.897 1317.96 716.758C1338.96 712.561 1358.7 723.733 1379.12 718.572C1399.44 713.412 1440.81 720.897 1452.17 719.14C1463.57 717.437 1495.3 720.217 1516.3 719.479C1527.94 719.082 1543.38 719.14 1554.88 719.196Z" fill="#F5B370"/>
<path d="M1554.89 847.648C1533.21 848.58 1437.06 852.607 1395.7 852.607C1227.14 852.607 1027.75 850.641 1026.8 864.333C1026.63 866.717 1032.63 867.721 1032.79 871.876C1032.92 875.332 1030.88 899.254 949.317 902.701C870.282 906.04 842.452 908.082 841.339 921.531C840.224 934.983 987.165 931.641 1007.2 930.529C1027.24 929.417 1274.25 940.548 1264.29 952.793C1254.33 965.039 1324.46 965.039 1361.2 967.265C1395.65 969.352 1456.54 985.147 1554.89 981.592V847.648Z" fill="#FFEBDA"/>
<path d="M-99 896C-99 896 57 892 165 915C273 938 345 944 416 932C487 920 595 948 595 948C595 948 315 958 294 968C294 968 356 982 437 983C518 984 615 1002 680 1000C745 998 871 1032 871 1032H-97.159L-99 896Z" fill="#FFCB97"/>
<path d="M1117.61 683.42V729.27C1117.56 731.114 1116.42 732.643 1115 733C1113.12 733.473 1110.73 731.905 1110.45 729.27V663.04C1109.9 657.717 1105.83 653.563 1101 653C1095.35 652.342 1089.71 656.719 1088.96 663.04V744.56C1088.28 746.174 1086.66 747.158 1085 747C1083.59 746.865 1082.35 745.919 1081.79 744.56V698.71C1080.43 693.17 1075.3 689.507 1070 690C1065.39 690.43 1061.42 693.939 1060.3 698.71V744.56C1060.8 746.833 1062.76 754.501 1070 760C1074.6 763.494 1079.29 764.563 1081.79 764.941V805.691H1117.61V754.75C1119.92 754.333 1126.5 752.832 1132 747C1138.74 739.859 1139.08 731.304 1139.1 729.27V683.42C1137.43 679.157 1133.46 676.247 1129 676C1124.1 675.729 1119.47 678.718 1117.61 683.42Z" fill="url(#paint1_linear_3401_3)"/>
</g>
</g>
<defs>
<linearGradient id="paint0_linear_3401_3" x1="720" y1="0" x2="720" y2="628" gradientUnits="userSpaceOnUse">
<stop stop-color="#B9DAE9"/>
<stop offset="1" stop-color="white"/>
</linearGradient>
<linearGradient id="paint1_linear_3401_3" x1="1129" y1="752.937" x2="1105" y2="582" gradientUnits="userSpaceOnUse">
<stop stop-color="#0C543B"/>
<stop offset="1" stop-color="#39AC84"/>
</linearGradient>
<clipPath id="clip0_3401_3">
<rect width="1440" height="1024" fill="white"/>
</clipPath>
</defs>
</svg>
