<svg width="1441" height="1025" viewBox="0 0 1441 1025" fill="none" xmlns="http://www.w3.org/2000/svg">
<g clip-path="url(#clip0_356_2516)">
<mask id="mask0_356_2516" style="mask-type:luminance" maskUnits="userSpaceOnUse" x="0" y="0" width="1441" height="1025">
<path d="M1440.18 0.463989H0.177734V1024.46H1440.18V0.463989Z" fill="white"/>
</mask>
<g mask="url(#mask0_356_2516)">
<path d="M1440.18 0.463989H0.177734V1024.46H1440.18V0.463989Z" fill="url(#paint0_linear_356_2516)"/>
<path d="M1440.18 770.695H0.177734V1024.46H1440.18V770.695Z" fill="#403333"/>
<path d="M1555.07 848.111C1533.38 849.043 1437.23 853.07 1395.88 853.07C1227.32 853.07 1027.92 851.104 1026.97 864.796C1026.81 867.18 1032.8 868.184 1032.96 872.339C1033.1 875.795 1031.05 899.717 949.494 903.164C870.459 906.503 842.629 908.545 841.516 921.994C840.401 935.446 987.342 932.104 1007.38 930.992C1027.42 929.88 1274.43 941.011 1264.47 953.256C1254.51 965.502 1324.64 965.502 1361.37 967.728C1395.83 969.815 1456.72 985.61 1555.07 982.055V848.111Z" fill="#2B2222"/>
<path d="M289.368 792.051C313.858 795.593 470.817 799.637 481.949 808.542C493.08 817.448 788.074 817.448 810.339 820.788C832.601 824.129 707.924 825.241 731.302 840.784C754.68 856.328 1051.9 841.939 1095.31 839.882C1138.73 837.826 1223.33 843.051 1286.78 839.527C1350.23 836.003 1445.97 837.488 1466 839.527C1486.04 841.569 1555.06 834.146 1555.06 834.146V770.695H240.767C174.672 786.63 266.83 788.788 289.368 792.051Z" fill="#2B2222"/>
<path d="M-114.715 770.694V811.415C-75.4278 805.73 24.8301 831.74 46.6971 829.137C70.0741 826.353 198.09 835.815 217.301 831.919C236.512 828.023 427.406 848.061 471.377 847.918C515.348 847.776 604.402 846.947 603.704 844.722C603.005 842.495 581.582 836.651 544.013 839.526C506.441 842.402 387.889 839.156 326.942 819.118C265.993 799.082 152.45 806.595 183.341 792.05C214.232 777.503 53.9322 778.21 53.9322 778.21L63.4951 770.694H-114.715Z" fill="#2B2222"/>
<path d="M624.601 759.303C609.504 760.38 592.776 760.38 583.67 760.38H491.357C478.319 760.38 432.643 770.7 400.771 777.108C89.8321 777.108 32.1871 798.824 -114.715 789.899V714.675C-102.589 713.2 -84.8068 711.159 -74.7898 710.705C-58.5888 710.024 -36.4458 700.442 -23.5528 704.696C-10.6599 708.947 23.4662 708.097 36.3602 709.968C49.2522 711.782 78.2982 712.18 88.4582 712.18C96.7982 712.18 124.789 709.968 141.996 709.799H142.141C145.975 709.741 149.283 709.799 151.678 709.968C164.86 710.989 170.035 710.024 189.208 712.407C208.379 714.731 224.389 717.282 238.335 716.263C252.331 715.242 263.931 715.866 278.692 716.263C293.454 716.66 331.799 724.201 355.38 721.819C378.961 719.494 404.509 723.692 418.886 722.274C433.266 720.912 470.028 726.584 474.82 728.908C479.615 731.289 495.574 737.414 504.346 737.923C513.165 738.378 537.131 739.341 549.88 743.083C562.677 746.884 582.663 750.171 590.235 751.136C595.125 751.76 610.893 756.523 624.601 759.303Z" fill="#5E4B4B"/>
<path d="M1555.06 699.757V719.66C1543.56 719.605 1528.13 719.548 1516.48 719.945C1495.49 720.681 1463.76 717.903 1452.35 719.605C1440.99 721.361 1399.63 713.876 1379.3 719.036C1358.89 724.197 1339.14 713.026 1318.15 717.222C1297.2 721.361 1301.37 713.82 1273.24 720.454C1245.1 727.033 1239.68 727.713 1222.91 727.713C1206.13 727.713 1191.76 727.033 1180.4 727.713C1168.99 728.45 1148.62 731.284 1134.86 734.859C1121.06 738.374 1119.86 736.218 1101.31 734.859C1082.72 733.385 1061.15 730.549 1047.97 731.284C1034.79 732.023 1013.79 724.594 1004.83 726.522C995.866 728.45 976.695 728.45 965.287 729.866C953.88 731.284 939.501 737.695 920.952 733.385C902.404 729.187 862.814 730.549 855.048 732.702C847.283 734.859 825.093 741.89 807.119 741.89C789.145 741.89 733.882 744.044 720.175 746.88C706.465 749.714 662.131 753.23 645.356 756.804C639.702 757.992 632.366 758.787 624.603 759.298C610.894 756.519 595.126 751.755 590.238 751.132C582.664 750.169 562.677 746.88 549.88 743.079C537.131 739.337 513.165 738.374 504.346 737.919C495.576 737.409 479.615 731.284 474.822 728.904C470.028 726.579 433.268 720.907 418.888 722.27C404.509 723.688 378.963 719.492 355.38 721.815C331.799 724.197 293.456 716.656 278.692 716.259C263.931 715.861 252.332 715.238 238.335 716.259C224.389 717.279 208.379 714.727 189.208 712.403C170.037 710.022 164.86 710.985 151.678 709.963C149.283 709.795 145.975 709.736 142.141 709.795C153.884 707.13 167.257 704.691 178.854 701.969C199.225 697.262 198.027 700.551 217.966 698.227C228.222 696.98 233.638 697.035 237.809 697.206H237.857C241.834 697.262 244.712 697.488 249.552 696.809C259.521 695.391 267.526 700.098 276.68 700.098C285.882 700.098 307.833 701.516 317.42 701.969C327.007 702.479 335.826 703.897 350.97 703.613C366.165 703.387 377.332 705.768 389.315 701.969C401.297 698.227 409.684 702.479 422.483 703.613C435.28 704.803 446.064 704.803 454.021 703.613C462.025 702.423 472.425 703.387 479.998 703.613C487.572 703.841 501.951 704.35 508.373 703.613C514.748 702.876 543.505 704.803 554.29 706.733C565.074 708.604 575.474 711.44 581.466 711.44C587.458 711.44 601.404 711.44 617.414 704.691C633.373 698 636.967 700.098 651.731 698.624C666.541 697.148 680.105 701.061 693.286 698.624C706.465 696.186 740.018 699.133 749.988 698.624C760.004 698.112 774.383 697.715 797.533 698.624C820.683 699.53 824.71 699.645 834.295 698.624C843.881 697.604 873.022 697.262 885.819 695.391C898.568 693.462 911.75 697.715 921.767 698.624C931.736 699.53 962.077 694.426 973.052 695.844C973.292 695.903 973.581 695.903 973.867 695.958C985.227 697.092 1009.05 693.462 1019.21 692.611C1029.61 691.763 1069.15 698.227 1075.91 693.861C1082.72 689.551 1098.67 697.715 1116.65 699.304C1134.62 700.834 1147.81 701.969 1157.82 699.304C1167.79 696.582 1216.1 699.133 1222.1 699.304C1228.09 699.416 1252.87 701.969 1262.07 701.969C1271.22 701.969 1298.78 701.969 1313.16 701.516C1327.54 701.061 1369.48 696.297 1383.09 694.426C1396.66 692.555 1400.63 695.844 1417.41 698.906C1434.18 701.913 1453.79 700.551 1470.13 701.799C1486.52 703.046 1485.71 701.969 1501.72 703.897C1517.68 705.768 1524.48 704.35 1533.26 700.551C1539.2 698 1549.27 698.906 1555.06 699.757Z" fill="#4F3F3F"/>
<path d="M1555.06 674.296V699.757C1549.26 698.906 1539.19 698 1533.25 700.551C1524.48 704.35 1517.67 705.768 1501.71 703.897C1485.7 701.967 1486.52 703.046 1470.13 701.799C1453.78 700.551 1434.18 701.911 1417.4 698.906C1400.63 695.844 1396.65 692.555 1383.09 694.426C1369.48 696.297 1327.54 701.061 1313.16 701.516C1298.78 701.967 1271.22 701.967 1262.06 701.967C1252.86 701.967 1228.08 699.416 1222.09 699.304C1216.1 699.133 1167.79 696.582 1157.82 699.304C1147.8 701.967 1134.62 700.834 1116.64 699.304C1098.67 697.715 1082.71 689.551 1075.91 693.858C1069.15 698.225 1029.61 691.761 1019.2 692.611C1009.04 693.462 985.223 697.092 973.863 695.956C985.702 693.123 999.027 689.324 1003.63 687.168C1010 684.22 1029.99 685.468 1039.19 686.886C1048.35 688.303 1068.33 684.503 1079.93 684.503C1091.48 684.503 1099.87 684.05 1113.05 681.669C1126.23 679.286 1167.79 672.708 1180.58 671.29C1188.92 670.384 1195.39 668.228 1203.06 666.471C1207.09 665.506 1211.45 664.655 1216.53 664.202C1231.29 662.784 1230.48 667.944 1250.08 669.136C1269.64 670.327 1270.45 672.708 1283.2 672.708C1296 672.708 1303.19 678.833 1312.39 674.579C1321.54 670.327 1338.32 671.29 1338.32 671.29C1338.32 671.29 1353.9 666.526 1362.29 664.655C1370.67 662.784 1372.3 667.038 1376.66 666.073C1381.07 665.11 1393.06 659.44 1399.43 659.44C1405.86 659.44 1415.44 665.11 1421.43 666.073C1427.42 667.038 1438.98 659.44 1446.98 659.44C1454.98 659.44 1461.74 662.784 1466.96 662.784C1472.14 662.784 1486.14 664.655 1508.47 665.62C1530.85 666.526 1534.07 672.198 1553.33 674.126L1555.06 674.296Z" fill="#4F3F3F"/>
<path d="M1555.07 644.98V674.298L1553.34 674.127C1534.08 672.2 1530.87 666.531 1508.48 665.622C1486.14 664.66 1472.15 662.788 1466.97 662.788C1461.75 662.788 1454.99 659.441 1446.99 659.441C1438.98 659.441 1427.43 667.04 1421.44 666.075C1415.45 665.113 1405.86 659.441 1399.44 659.441C1393.07 659.441 1381.09 665.113 1376.67 666.075C1372.31 667.04 1370.68 662.788 1362.3 664.66C1353.91 666.531 1338.33 671.293 1338.33 671.293C1338.33 671.293 1321.56 670.329 1312.4 674.583C1303.2 678.834 1296.01 672.709 1283.21 672.709C1270.46 672.709 1269.65 670.329 1250.09 669.137C1230.49 667.949 1231.3 662.788 1216.54 664.204C1211.46 664.66 1207.1 665.509 1203.07 666.474C1196.12 663.071 1186.15 658.307 1183.38 657.116C1178.96 655.189 1168.61 650.482 1162.19 647.193C1158.26 645.151 1152.12 643.451 1146.37 641.92C1168.61 640.729 1212.04 638.46 1221.72 638.46C1234.9 638.46 1232.5 646.23 1257.66 638.46C1282.83 630.634 1296.01 627.119 1307.99 630.634C1319.97 634.151 1321.8 637.043 1342.12 635.965C1362.54 634.888 1357.74 639.878 1381.71 635.965C1405.67 632.052 1441.62 627.177 1448.81 629.275C1456 631.317 1479.34 632.052 1488.92 632.052C1498.51 632.052 1519.46 639.14 1535.08 642.656C1540.83 644.018 1547.98 644.756 1555.07 644.98Z" fill="#4F3F3F"/>
<path d="M603.704 675.259C587.025 676.904 566.654 677.301 561.862 677.868C553.905 678.833 538.711 681.667 524.717 680.704C510.77 679.796 503.579 682.064 490.782 680.931C477.985 679.796 444.865 678.946 436.477 681.214C428.09 683.538 417.306 677.528 403.309 681.214C389.315 684.956 352.6 687.339 345.793 686.883C338.989 686.374 329.834 685.071 320.63 686.942C311.428 688.757 305.053 689.719 291.489 689.719C277.877 689.719 263.931 688.301 260.336 689.719C258.369 690.514 248.45 693.859 237.857 697.204H237.809C233.638 697.033 228.222 696.978 217.966 698.225C198.027 700.549 199.225 697.262 178.854 701.967C167.255 704.691 153.884 707.127 142.141 709.793H141.996C124.789 709.963 96.7982 712.176 88.4592 712.176C78.2982 712.176 49.2522 711.779 36.3602 709.963C23.4662 708.092 -10.6599 708.943 -23.5528 704.691C-36.4458 700.437 -58.5888 710.02 -74.7898 710.699C-84.8068 711.155 -102.589 713.197 -114.715 714.67V637.721H-53.2208C-32.8508 637.721 -16.0759 632.049 -0.498848 637.721C15.0791 643.391 -0.49884 637.721 35.4492 637.721C71.3961 637.721 82.1812 628.421 107.343 635.226C132.507 641.975 186.428 636.644 207.996 636.474C229.565 636.303 246.34 625.303 283.485 636.474C320.63 647.645 349.388 637.097 382.938 640.216C416.491 643.391 422.481 634.432 438.06 641.746C453.636 649.063 470.412 644.809 493.179 647.645C515.945 650.481 513.789 652.634 561.477 663.635C591.05 670.44 595.46 673.22 603.704 675.259Z" fill="#403333"/>
<path d="M1203.07 666.473C1195.4 668.23 1188.93 670.386 1180.59 671.292C1167.79 672.71 1126.23 679.286 1113.05 681.669C1099.87 684.052 1091.48 684.505 1079.93 684.505C1068.34 684.505 1048.35 688.303 1039.19 686.886C1029.99 685.47 1010 684.22 1003.63 687.17C999.029 689.325 985.704 693.123 973.865 695.958C973.578 695.903 973.292 695.903 973.05 695.847C962.076 694.429 931.734 699.531 921.766 698.624C911.748 697.718 898.567 693.464 885.818 695.391C873.021 697.262 843.88 697.604 834.294 698.624C824.71 699.645 820.682 699.531 797.534 698.624C774.382 697.718 760.003 698.113 749.985 698.624C740.016 699.133 706.463 696.186 693.284 698.624C680.103 701.063 666.539 697.15 651.729 698.624C636.965 700.098 633.371 698 617.412 704.691C601.402 711.44 587.456 711.44 581.464 711.44C575.474 711.44 565.073 708.604 554.289 706.733C543.504 704.805 514.746 702.878 508.371 703.614C501.949 704.352 487.569 703.841 479.998 703.614C472.423 703.387 462.023 702.423 454.019 703.614C446.063 704.805 435.278 704.805 422.481 703.614C409.684 702.481 401.295 698.227 389.313 701.969C377.332 705.77 366.163 703.387 350.968 703.614C335.824 703.897 327.004 702.481 317.418 701.969C307.831 701.516 285.88 700.098 276.678 700.098C267.523 700.098 259.519 695.391 249.55 696.809C244.71 697.489 241.832 697.262 237.855 697.206C248.448 693.861 258.369 690.516 260.334 689.721C263.929 688.303 277.876 689.721 291.487 689.721C305.051 689.721 311.426 688.757 320.63 686.944C329.832 685.071 338.986 686.376 345.794 686.886C352.598 687.341 389.313 684.958 403.31 681.216C417.304 677.53 428.088 683.54 436.476 681.216C444.865 678.948 477.983 679.798 490.78 680.933C503.579 682.066 510.769 679.798 524.716 680.704C538.712 681.669 553.903 678.835 561.86 677.87C566.652 677.303 587.023 676.906 603.703 675.261C614.824 674.184 624.36 672.484 626.566 669.874C632.173 663.24 633.755 668.91 642.958 664.204C652.163 659.442 656.522 662.786 662.513 659.442C668.503 656.153 683.316 658.989 696.065 662.786C708.862 666.529 743.994 663.24 753.581 659.442C763.165 655.697 769.589 653.317 784.352 646.738C799.114 640.218 801.94 643.393 817.901 639.594C833.863 635.852 840.286 638.176 849.44 636.305C858.642 634.434 885.818 639.141 892.193 639.141C898.567 639.141 906.956 630.18 914.576 625.076C922.15 619.974 935.714 630.18 938.109 632.051C940.505 633.922 956.898 634.434 964.469 637.27C972.091 640.104 976.454 642.428 982.446 641.522C988.435 640.557 992.462 635.852 1000.85 630.18C1009.24 624.51 1015.23 627.346 1020.02 625.475C1024.81 623.602 1031.19 628.253 1039.96 633.469C1048.78 638.688 1045.57 634.434 1054.34 634.434C1063.16 634.434 1061.96 634.434 1073.13 631.089C1084.29 627.799 1085.92 627.799 1095.51 625.928C1105.1 623.999 1113.49 628.762 1119.86 632.504C1126.23 636.305 1129.83 636.758 1136.63 639.141C1139.27 640.047 1142.72 640.954 1146.32 641.918H1146.36C1152.12 643.449 1158.25 645.152 1162.18 647.192C1168.6 650.481 1178.96 655.188 1183.37 657.115C1186.15 658.306 1196.12 663.07 1203.07 666.473Z" fill="#5E4B4B"/>
<path d="M1555.06 719.66V777.101C1211.08 796.441 923.882 807.428 400.766 777.101C432.639 770.694 478.314 760.373 491.352 760.373H583.664C592.771 760.373 609.499 760.373 624.598 759.296C632.361 758.787 639.694 757.992 645.349 756.802C662.125 753.229 706.46 749.714 720.17 746.878C733.877 744.042 789.14 741.888 807.114 741.888C825.087 741.888 847.278 734.856 855.043 732.702C862.809 730.547 902.397 729.186 920.947 733.382C939.496 737.692 953.873 731.284 965.282 729.866C976.69 728.448 995.861 728.448 1004.82 726.521C1013.79 724.594 1034.78 732.022 1047.96 731.284C1061.14 730.547 1082.71 733.382 1101.31 734.856C1119.86 736.218 1121.05 738.372 1134.86 734.856C1148.61 731.284 1168.98 728.448 1180.39 727.713C1191.75 727.03 1206.13 727.713 1222.9 727.713C1239.68 727.713 1245.09 727.03 1273.23 720.454C1301.37 713.82 1297.19 721.361 1318.14 717.222C1339.13 713.025 1358.88 724.197 1379.3 719.036C1399.62 713.876 1440.99 721.361 1452.34 719.604C1463.75 717.901 1495.48 720.681 1516.47 719.943C1528.12 719.546 1543.55 719.604 1555.06 719.66Z" fill="#403333"/>
<path d="M-98.8223 896.464C-98.8223 896.464 57.1777 892.464 165.178 915.464C273.178 938.464 345.178 944.464 416.178 932.464C487.178 920.464 595.178 948.464 595.178 948.464C595.178 948.464 315.178 958.464 294.178 968.464C294.178 968.464 356.178 982.464 437.178 983.464C518.178 984.464 615.178 1002.46 680.178 1000.46C745.178 998.464 871.178 1032.46 871.178 1032.46H-96.9813L-98.8223 896.464Z" fill="#2B2222"/>
<path fill-rule="evenodd" clip-rule="evenodd" d="M151.996 861.948L180.736 837.694L191.403 812.763C191.403 812.763 192.988 806.334 195.123 805.245C197.259 804.155 200.007 806.445 200.758 807.672C201.51 808.9 198.892 812.9 196.566 813.763C194.24 814.627 193.742 832.761 188.978 840.8C183.523 850.005 164.833 866.997 164.833 866.997L151.996 861.948Z" fill="url(#paint1_linear_356_2516)"/>
<path fill-rule="evenodd" clip-rule="evenodd" d="M205.809 810.708C206.577 811.1 206.881 812.043 206.489 812.81C206.096 813.578 205.154 813.883 204.386 813.49C204.386 813.49 176.968 798.505 169.485 795.642C168.68 795.334 168.276 794.43 168.584 793.625C168.892 792.819 169.797 792.416 170.602 792.724C178.158 795.614 205.809 810.708 205.809 810.708Z" fill="black"/>
<path fill-rule="evenodd" clip-rule="evenodd" d="M172.443 793.625C172.443 793.625 167.538 798.241 166.446 801.959C165.354 805.677 169.113 807.246 167.526 811.522C165.938 815.798 161.783 819.64 162.335 821.399L176.188 827.71C176.188 827.71 179.268 823.07 181.039 818.597C182.487 814.943 183.929 812.126 182.476 809.826C181.023 807.525 185.999 799.806 185.999 799.806L184.463 799.058L181.645 799.806L173.795 795.981L174.433 794.164L172.443 793.625Z" fill="url(#paint2_linear_356_2516)"/>
<path fill-rule="evenodd" clip-rule="evenodd" d="M195.124 804.959C194.162 805.239 192.959 807.021 193.831 807.672C194.703 808.324 195.262 809.528 196.919 809.562C198.576 809.596 199.338 809.753 200.502 809.012C202.921 807.473 198.468 803.984 195.124 804.959Z" fill="#5A6E32"/>
<path fill-rule="evenodd" clip-rule="evenodd" d="M192.063 811.48C192.063 811.48 191.048 807.947 191.726 807.307C192.404 806.667 194.613 806.667 194.613 806.667C194.613 806.667 197.08 807.709 197.04 807.944C197 808.178 196.733 809.628 194.371 808.073C193.964 807.805 193.26 808.351 193.26 808.351L194.528 812.099C194.528 812.099 192.719 812.873 192.063 811.48Z" fill="url(#paint3_linear_356_2516)"/>
<path d="M-14.8213 919.247C31.5712 919.247 69.1797 917.216 69.1797 914.71C69.1797 912.204 31.5712 910.173 -14.8213 910.173C-61.2137 910.173 -98.8223 912.204 -98.8223 914.71C-98.8223 917.216 -61.2137 919.247 -14.8213 919.247Z" fill="#151111"/>
<path fill-rule="evenodd" clip-rule="evenodd" d="M-9.55489 905.228C-8.69889 906.15 16.0151 907.922 32.8441 905.539C37.4151 904.892 48.1181 911.796 49.8491 910.134C51.5801 908.472 49.5691 908.16 47.7541 907.144C45.9391 906.129 51.8771 908.808 51.8911 907.868C51.9051 906.928 52.6221 903.553 50.4631 902.771C48.3041 901.988 35.0591 896.429 33.3971 896.299C31.7361 896.169 30.8231 898.587 29.9431 898.567C29.2261 898.551 12.7221 896.091 6.15211 897.501C4.75011 897.802 -17.2129 895.173 -17.2129 895.173L-9.55489 905.228Z" fill="url(#paint4_linear_356_2516)"/>
<path fill-rule="evenodd" clip-rule="evenodd" d="M1.70097 911.25C2.55697 912.172 27.271 913.944 44.099 911.561C48.671 910.914 59.374 917.818 61.105 916.156C62.836 914.495 60.825 914.182 59.01 913.166C57.194 912.151 63.133 914.831 63.147 913.89C63.16 912.95 63.878 909.575 61.719 908.793C59.56 908.01 46.315 902.451 44.653 902.321C42.991 902.192 42.079 904.609 41.198 904.59C40.482 904.574 23.978 902.114 17.408 903.523C16.006 903.824 -5.95703 901.196 -5.95703 901.196L1.70097 911.25Z" fill="url(#paint5_linear_356_2516)"/>
<path fill-rule="evenodd" clip-rule="evenodd" d="M-25.7324 894.374C-25.7324 894.374 -15.4774 894.34 -10.0734 895.743C-4.66842 897.146 4.51858 907.546 11.8476 907.844C19.1766 908.142 24.5426 908.772 25.0426 911.33C25.5426 913.888 25.0426 914.003 25.0426 914.003L-12.4644 914.2L-25.7324 894.374Z" fill="#FFE0BE"/>
<path fill-rule="evenodd" clip-rule="evenodd" d="M-62.475 893.134C-62.475 893.134 -59.038 889.288 -53.047 890.15C-47.056 891.012 -42.962 894.693 -39.969 894.669C-36.975 894.645 -37.233 892.79 -35.375 893.736C-33.516 894.683 -32.816 892.448 -31.382 893.227C-29.948 894.006 -26.633 891.165 -24.938 892.483C-23.243 893.802 -13.369 904.731 -5.02697 905.118C3.31603 905.506 0.0520325 908.81 0.0520325 908.81C0.0520325 908.81 -4.16898 915.248 -12.544 914.19C-20.919 913.131 -46.92 913.425 -46.92 913.425L-66.652 911.529C-79.153 914.737 -71.864 904.641 -62.475 893.134Z" fill="url(#paint6_linear_356_2516)"/>
<path fill-rule="evenodd" clip-rule="evenodd" d="M-1.82216 912.279C-1.82216 912.279 -0.989156 912.888 0.480844 912.347C1.94984 911.805 2.59084 912.393 3.06284 912.07C3.56084 911.728 3.10284 910.948 2.42684 910.749C1.75084 910.55 -4.41016 910.377 -4.41016 910.377L-1.82216 912.279Z" fill="#415024"/>
<path fill-rule="evenodd" clip-rule="evenodd" d="M4.34487 914.74C4.34487 914.74 6.09887 910.833 5.46387 910.469C4.94687 910.172 3.69787 910.935 2.79987 913.794C1.90187 916.652 4.34487 914.74 4.34487 914.74Z" fill="#415024"/>
<path fill-rule="evenodd" clip-rule="evenodd" d="M-44.8472 914.179C-39.7622 914.446 -35.8492 914.471 -29.8882 913.948C-23.9272 913.424 -11.1672 914.032 -6.74616 914.952C-2.32516 915.873 1.29084 918.211 4.17384 916.355C7.05784 914.498 8.84284 911.763 7.69984 910.836C6.82384 910.125 5.84784 912.917 4.14784 913.659C2.44684 914.402 -1.47016 910.596 -3.51316 910.402C-5.55616 910.208 -47.7662 902.652 -49.9542 907.974C-52.1432 913.296 -47.4492 914.042 -44.8472 914.179Z" fill="#5A6E32"/>
<path d="M1433.5 928.374C1479.89 928.374 1517.5 926.343 1517.5 923.837C1517.5 921.331 1479.89 919.3 1433.5 919.3C1387.11 919.3 1349.5 921.331 1349.5 923.837C1349.5 926.343 1387.11 928.374 1433.5 928.374Z" fill="#3D1E00"/>
<path fill-rule="evenodd" clip-rule="evenodd" d="M1428.23 914.355C1427.37 915.277 1402.66 917.048 1385.83 914.666C1381.26 914.019 1370.56 920.922 1368.82 919.261C1367.09 917.599 1369.1 917.287 1370.92 916.271C1372.73 915.255 1366.8 917.935 1366.78 916.995C1366.77 916.055 1366.05 912.68 1368.21 911.897C1370.37 911.114 1383.61 905.556 1385.28 905.426C1386.94 905.296 1387.85 907.714 1388.73 907.694C1389.45 907.678 1405.95 905.218 1412.52 906.627C1413.92 906.928 1435.88 904.3 1435.88 904.3L1428.23 914.355Z" fill="url(#paint7_linear_356_2516)"/>
<path fill-rule="evenodd" clip-rule="evenodd" d="M1416.97 920.377C1416.12 921.299 1391.4 923.07 1374.57 920.688C1370 920.041 1359.3 926.945 1357.57 925.283C1355.84 923.621 1357.85 923.309 1359.66 922.293C1361.48 921.277 1355.54 923.957 1355.53 923.017C1355.51 922.077 1354.8 918.702 1356.95 917.919C1359.11 917.137 1372.36 911.578 1374.02 911.448C1375.68 911.318 1376.59 913.736 1377.47 913.716C1378.19 913.7 1394.69 911.24 1401.27 912.65C1402.67 912.95 1424.63 910.322 1424.63 910.322L1416.97 920.377Z" fill="url(#paint8_linear_356_2516)"/>
<path fill-rule="evenodd" clip-rule="evenodd" d="M1444.41 903.501C1444.41 903.501 1434.15 903.467 1428.75 904.87C1423.34 906.272 1414.15 916.673 1406.83 916.971C1399.5 917.269 1394.13 917.899 1393.63 920.457C1393.13 923.014 1393.63 923.129 1393.63 923.129L1431.14 923.326L1444.41 903.501Z" fill="#FFE0BE"/>
<path fill-rule="evenodd" clip-rule="evenodd" d="M1481.15 902.26C1481.15 902.26 1477.71 898.414 1471.72 899.277C1465.73 900.139 1461.63 903.819 1458.64 903.796C1455.65 903.772 1455.91 901.917 1454.05 902.863C1452.19 903.809 1451.49 901.574 1450.05 902.354C1448.62 903.133 1445.31 900.292 1443.61 901.61C1441.92 902.928 1432.04 913.858 1423.7 914.245C1415.36 914.633 1418.62 917.937 1418.62 917.937C1418.62 917.937 1422.84 924.375 1431.22 923.317C1439.59 922.258 1465.59 922.552 1465.59 922.552L1485.33 920.655C1497.83 923.864 1490.54 913.768 1481.15 902.26Z" fill="url(#paint9_linear_356_2516)"/>
<path fill-rule="evenodd" clip-rule="evenodd" d="M1420.5 921.406C1420.5 921.406 1419.66 922.015 1418.19 921.473C1416.72 920.932 1416.08 921.52 1415.61 921.196C1415.11 920.855 1415.57 920.075 1416.25 919.876C1416.92 919.676 1423.08 919.504 1423.08 919.504L1420.5 921.406Z" fill="#415024"/>
<path fill-rule="evenodd" clip-rule="evenodd" d="M1414.33 923.867C1414.33 923.867 1412.58 919.959 1413.21 919.595C1413.73 919.299 1414.98 920.061 1415.87 922.92C1416.77 925.779 1414.33 923.867 1414.33 923.867Z" fill="#415024"/>
<path fill-rule="evenodd" clip-rule="evenodd" d="M1463.52 923.305C1458.43 923.572 1454.52 923.598 1448.56 923.074C1442.6 922.551 1429.84 923.159 1425.42 924.079C1421 924.999 1417.38 927.338 1414.5 925.482C1411.62 923.625 1409.83 920.89 1410.97 919.963C1411.85 919.252 1412.83 922.044 1414.53 922.786C1416.23 923.528 1420.14 919.723 1422.19 919.529C1424.23 919.335 1466.44 911.779 1468.63 917.101C1470.82 922.422 1466.12 923.169 1463.52 923.305Z" fill="#5A6E32"/>
<path d="M169.206 997.725C340.879 997.725 480.047 991.138 480.047 983.012C480.047 974.886 340.879 968.299 169.206 968.299C-2.46651 968.299 -141.635 974.886 -141.635 983.012C-141.635 991.138 -2.46651 997.725 169.206 997.725Z" fill="#151111"/>
<path fill-rule="evenodd" clip-rule="evenodd" d="M113.718 952.258C110.941 955.249 30.7901 960.994 -23.7899 953.267C-38.6149 951.169 -73.3289 973.559 -78.9429 968.169C-84.5569 962.78 -78.0339 961.767 -72.1469 958.473C-66.2599 955.179 -85.5209 963.87 -85.5649 960.821C-85.6089 957.771 -87.9369 946.826 -80.9339 944.288C-73.9309 941.749 -30.9749 923.721 -25.5859 923.3C-20.1969 922.879 -17.2379 930.719 -14.3819 930.656C-12.0569 930.604 41.4691 922.626 62.7771 927.197C67.3251 928.172 138.554 919.649 138.554 919.649L113.718 952.258Z" fill="url(#paint10_linear_356_2516)"/>
<path fill-rule="evenodd" clip-rule="evenodd" d="M463.71 976.143C463.71 976.143 465.985 974.824 469.565 976.591C473.145 978.357 474.927 977.039 476.036 977.986C477.206 978.985 475.837 980.839 474.069 981.163C472.302 981.486 456.639 980.271 456.639 980.271L463.71 976.143Z" fill="#415024"/>
<path fill-rule="evenodd" clip-rule="evenodd" d="M480.001 971.561C480.001 971.561 483.398 981.936 481.69 982.688C480.3 983.301 477.338 981.033 475.829 973.545C474.321 966.057 480.001 971.561 480.001 971.561Z" fill="#415024"/>
<path fill-rule="evenodd" clip-rule="evenodd" d="M355.151 959.78C368.114 960.468 378.04 961.453 393.01 964.38C407.98 967.307 440.487 969.191 451.942 968.045C463.396 966.899 473.188 961.941 480 967.421C486.811 972.901 490.603 980.313 487.457 982.357C485.046 983.924 483.321 976.585 479.209 974.247C475.098 971.909 464.146 980.504 458.916 980.448C453.686 980.391 344.658 988.214 340.539 974.137C336.42 960.06 348.518 959.428 355.151 959.78Z" fill="#5A6E32"/>
<path fill-rule="evenodd" clip-rule="evenodd" d="M77.2122 971.789C74.4342 974.78 -5.71675 980.525 -60.2958 972.798C-75.1218 970.7 -109.836 993.09 -115.449 987.7C-121.063 982.311 -114.54 981.298 -108.653 978.004C-102.766 974.71 -122.027 983.401 -122.071 980.352C-122.115 977.302 -124.443 966.357 -117.44 963.819C-110.438 961.28 -67.4818 943.252 -62.0918 942.831C-56.7028 942.41 -53.7438 950.25 -50.8877 950.187C-48.5628 950.135 4.96326 942.157 26.2713 946.728C30.8193 947.703 102.047 939.18 102.047 939.18L77.2122 971.789Z" fill="url(#paint11_linear_356_2516)"/>
<path fill-rule="evenodd" clip-rule="evenodd" d="M166.19 917.055C166.19 917.055 132.931 916.947 115.403 921.496C97.8754 926.045 68.0774 959.775 44.3074 960.742C20.5384 961.708 3.13537 963.753 1.51537 972.048C-0.105634 980.343 1.51537 980.716 1.51537 980.716L123.158 981.355L166.19 917.055Z" fill="#FFE0BE"/>
<path fill-rule="evenodd" clip-rule="evenodd" d="M285.35 913.033C285.35 913.033 274.202 900.56 254.772 903.356C235.342 906.153 222.066 918.089 212.357 918.012C202.648 917.935 203.486 911.919 197.458 914.988C191.431 918.057 189.158 910.808 184.507 913.336C179.856 915.863 169.104 906.649 163.608 910.924C158.112 915.199 126.089 950.646 99.0316 951.903C71.9756 953.159 82.5616 963.877 82.5616 963.877C82.5616 963.877 96.2496 984.756 123.413 981.323C150.576 977.89 234.902 978.843 234.902 978.843L320.206 972.64L285.35 913.033Z" fill="url(#paint12_linear_356_2516)"/>
<path fill-rule="evenodd" clip-rule="evenodd" d="M229.492 944.899C229.492 944.899 199.732 962.251 197.928 969.567C196.125 976.882 199.269 982.288 211.343 979.976C223.418 977.663 241.138 968.605 241.138 968.605L229.492 944.899Z" fill="url(#paint13_linear_356_2516)"/>
<path fill-rule="evenodd" clip-rule="evenodd" d="M268.288 962.517C259.777 965.337 237.706 972.692 237.706 972.692L221.191 945.428C221.191 945.428 280.152 911.425 288.376 937.21C292.439 949.946 280.835 958.359 268.288 962.517Z" fill="#FFF6EC"/>
<path fill-rule="evenodd" clip-rule="evenodd" d="M391.395 922.85C391.324 912.421 385.422 891.437 365.161 883.774C332.649 871.476 347.267 918.404 363.214 927.295C367.086 929.454 372.708 943.691 375.836 944.187C384.068 945.492 391.482 935.776 391.395 922.85Z" fill="#768951"/>
<path fill-rule="evenodd" clip-rule="evenodd" d="M368.629 912.526C368.629 912.526 379.989 890.494 355.025 878.142C330.06 865.789 319.39 885.172 319.39 885.172C319.39 885.172 266.36 874.647 272.726 929.266C277.563 970.768 372.506 1013.12 378.54 943.418C378.54 943.418 358.522 924.591 368.629 912.526Z" fill="url(#paint14_linear_356_2516)"/>
<path d="M378.5 944.5C378.5 944.5 363 942.5 360.5 932" stroke="black" stroke-width="0.5" stroke-linecap="round"/>
<path fill-rule="evenodd" clip-rule="evenodd" d="M358.66 976.499C338.168 969.726 326.417 968.515 303.558 959.326C297.292 956.808 296.423 940.821 308.978 945.753C329.61 953.858 347.371 956.06 365.503 967.964C370.977 971.558 362.554 977.786 358.66 976.499Z" fill="#AF4F41"/>
<path fill-rule="evenodd" clip-rule="evenodd" d="M363.604 975.127C364.262 975.413 365.039 975.105 365.339 974.441C365.638 973.776 365.348 973.005 364.691 972.719C364.691 972.719 324.434 955.249 305.92 951.859C305.213 951.73 304.52 952.202 304.375 952.914C304.23 953.625 304.686 954.308 305.394 954.438C323.734 957.795 363.604 975.127 363.604 975.127Z" fill="#78362D"/>
<path fill-rule="evenodd" clip-rule="evenodd" d="M368.63 912.526C368.63 912.526 371.582 924.142 360.756 936.673C360.756 936.673 337.059 927.622 327.77 914.456C339.676 922.015 360.767 918.849 368.63 912.526Z" fill="#EAEAEA"/>
<path fill-rule="evenodd" clip-rule="evenodd" d="M351.813 918.481C351.165 922.006 352.502 925.561 355.339 927.137C358.864 929.095 363.378 927.262 365.413 923.046C366.789 920.196 366.683 916.983 365.381 914.594C361.784 916.449 356.972 917.842 351.813 918.481Z" fill="black"/>
<path fill-rule="evenodd" clip-rule="evenodd" d="M321.463 979.307C321.463 979.307 323.738 977.988 327.318 979.755C330.898 981.522 332.68 980.203 333.789 981.15C334.959 982.149 333.59 984.004 331.822 984.327C330.055 984.651 314.393 983.435 314.393 983.435L321.463 979.307Z" fill="#415024"/>
<path fill-rule="evenodd" clip-rule="evenodd" d="M337.755 974.725C337.755 974.725 341.152 985.1 339.444 985.853C338.054 986.465 335.092 984.197 333.583 976.709C332.075 969.221 337.755 974.725 337.755 974.725Z" fill="#415024"/>
<path fill-rule="evenodd" clip-rule="evenodd" d="M212.906 962.944C225.868 963.632 235.794 964.618 250.764 967.544C265.734 970.471 298.242 972.356 309.696 971.21C321.15 970.063 330.942 965.105 337.754 970.585C344.565 976.065 348.357 983.478 345.211 985.522C342.8 987.088 341.075 979.749 336.964 977.411C332.852 975.073 321.901 983.668 316.67 983.612C311.44 983.555 202.412 991.378 198.293 977.301C194.174 963.224 206.272 962.592 212.906 962.944Z" fill="#5A6E32"/>
<path d="M1217.62 915.342C1287.93 915.342 1344.93 912.527 1344.93 909.055C1344.93 905.583 1287.93 902.768 1217.62 902.768C1147.31 902.768 1090.31 905.583 1090.31 909.055C1090.31 912.527 1147.31 915.342 1217.62 915.342Z" fill="#1C1616"/>
<path fill-rule="evenodd" clip-rule="evenodd" d="M1246.86 895.914C1248.05 897.192 1282.3 899.647 1305.62 896.345C1311.96 895.448 1326.79 905.016 1329.19 902.713C1331.59 900.41 1328.8 899.977 1326.29 898.569C1323.77 897.162 1332 900.876 1332.02 899.573C1332.04 898.27 1333.03 893.593 1330.04 892.508C1327.05 891.423 1308.69 883.719 1306.39 883.539C1304.09 883.359 1302.82 886.71 1301.6 886.683C1300.61 886.661 1277.74 883.251 1268.63 885.204C1266.69 885.621 1236.25 881.979 1236.25 881.979L1246.86 895.914Z" fill="url(#paint15_linear_356_2516)"/>
<path fill-rule="evenodd" clip-rule="evenodd" d="M1097.3 906.12C1097.3 906.12 1096.33 905.557 1094.8 906.312C1093.27 907.067 1092.51 906.503 1092.03 906.908C1091.53 907.335 1092.12 908.127 1092.87 908.265C1093.63 908.404 1100.32 907.884 1100.32 907.884L1097.3 906.12Z" fill="#415024"/>
<path fill-rule="evenodd" clip-rule="evenodd" d="M1090.34 904.162C1090.34 904.162 1088.89 908.596 1089.62 908.917C1090.21 909.179 1091.48 908.21 1092.12 905.01C1092.77 901.81 1090.34 904.162 1090.34 904.162Z" fill="#415024"/>
<path fill-rule="evenodd" clip-rule="evenodd" d="M1143.69 899.128C1138.15 899.422 1133.91 899.843 1127.51 901.094C1121.12 902.345 1107.22 903.15 1102.33 902.66C1097.43 902.17 1093.25 900.052 1090.34 902.393C1087.43 904.735 1085.81 907.903 1087.15 908.776C1088.18 909.445 1088.92 906.309 1090.68 905.31C1092.43 904.311 1097.11 907.984 1099.35 907.96C1101.58 907.936 1148.17 911.279 1149.93 905.263C1151.69 899.248 1146.53 898.977 1143.69 899.128Z" fill="#5A6E32"/>
<path fill-rule="evenodd" clip-rule="evenodd" d="M1262.46 904.26C1263.65 905.538 1297.9 907.993 1321.22 904.691C1327.56 903.794 1342.39 913.362 1344.79 911.059C1347.19 908.756 1344.4 908.323 1341.89 906.916C1339.37 905.508 1347.6 909.222 1347.62 907.919C1347.64 906.616 1348.63 901.939 1345.64 900.854C1342.65 899.769 1324.29 892.065 1321.99 891.885C1319.69 891.705 1318.42 895.056 1317.2 895.029C1316.21 895.007 1293.34 891.597 1284.23 893.55C1282.29 893.967 1251.85 890.325 1251.85 890.325L1262.46 904.26Z" fill="url(#paint16_linear_356_2516)"/>
<path fill-rule="evenodd" clip-rule="evenodd" d="M1224.44 880.871C1224.44 880.871 1238.65 880.824 1246.14 882.768C1253.63 884.712 1266.36 899.126 1276.52 899.539C1286.68 899.952 1294.12 900.826 1294.81 904.371C1295.5 907.915 1294.81 908.075 1294.81 908.075L1242.83 908.347L1224.44 880.871Z" fill="#FFE0BE"/>
<path fill-rule="evenodd" clip-rule="evenodd" d="M1173.52 879.152C1173.52 879.152 1178.28 873.822 1186.59 875.017C1194.89 876.212 1200.56 881.313 1204.71 881.28C1208.86 881.247 1208.5 878.676 1211.08 879.987C1213.65 881.299 1214.62 878.201 1216.61 879.281C1218.6 880.361 1223.19 876.424 1225.54 878.251C1227.89 880.077 1241.58 895.225 1253.14 895.762C1264.7 896.299 1260.17 900.879 1260.17 900.879C1260.17 900.879 1254.33 909.801 1242.72 908.334C1231.11 906.867 1195.08 907.274 1195.08 907.274L1158.62 904.623L1173.52 879.152Z" fill="url(#paint17_linear_356_2516)"/>
<path fill-rule="evenodd" clip-rule="evenodd" d="M1197.39 892.769C1197.39 892.769 1210.11 900.184 1210.88 903.31C1211.65 906.436 1210.3 908.746 1205.14 907.758C1199.98 906.77 1192.41 902.899 1192.41 902.899L1197.39 892.769Z" fill="url(#paint18_linear_356_2516)"/>
<path fill-rule="evenodd" clip-rule="evenodd" d="M1180.81 900.298C1184.45 901.503 1193.88 904.646 1193.88 904.646L1200.93 892.995C1200.93 892.995 1175.74 878.465 1172.23 889.483C1170.49 894.926 1175.45 898.521 1180.81 900.298Z" fill="#FFF6EC"/>
<path fill-rule="evenodd" clip-rule="evenodd" d="M1128.2 883.347C1128.23 878.89 1130.76 869.923 1139.41 866.649C1153.31 861.393 1147.06 881.447 1140.24 885.247C1138.59 886.169 1136.19 892.253 1134.85 892.465C1131.33 893.022 1128.16 888.87 1128.2 883.347Z" fill="#768951"/>
<path fill-rule="evenodd" clip-rule="evenodd" d="M1137.93 878.935C1137.93 878.935 1133.08 869.52 1143.74 864.242C1154.41 858.963 1158.97 867.246 1158.97 867.246C1158.97 867.246 1181.63 862.748 1178.91 886.089C1176.85 903.823 1136.27 921.924 1133.7 892.136C1133.7 892.136 1142.25 884.091 1137.93 878.935Z" fill="url(#paint19_linear_356_2516)"/>
<path fill-rule="evenodd" clip-rule="evenodd" d="M1142.19 906.273C1150.95 903.378 1155.97 902.861 1165.74 898.934C1168.41 897.858 1168.79 891.026 1163.42 893.134C1154.61 896.598 1147.02 897.538 1139.27 902.625C1136.93 904.161 1140.53 906.823 1142.19 906.273Z" fill="#AF4F41"/>
<path fill-rule="evenodd" clip-rule="evenodd" d="M1140.08 905.686C1139.8 905.808 1139.46 905.677 1139.34 905.393C1139.21 905.109 1139.33 904.779 1139.61 904.657C1139.61 904.657 1156.82 897.192 1164.73 895.743C1165.03 895.688 1165.33 895.89 1165.39 896.194C1165.45 896.498 1165.26 896.79 1164.95 896.845C1157.12 898.28 1140.08 905.686 1140.08 905.686Z" fill="#78362D"/>
<path fill-rule="evenodd" clip-rule="evenodd" d="M1158.09 907.473C1158.09 907.473 1157.11 906.909 1155.58 907.664C1154.05 908.419 1153.29 907.855 1152.82 908.26C1152.32 908.687 1152.9 909.479 1153.66 909.618C1154.41 909.756 1161.11 909.236 1161.11 909.236L1158.09 907.473Z" fill="#415024"/>
<path fill-rule="evenodd" clip-rule="evenodd" d="M1151.12 905.514C1151.12 905.514 1149.67 909.948 1150.4 910.27C1151 910.531 1152.26 909.562 1152.91 906.362C1153.55 903.162 1151.12 905.514 1151.12 905.514Z" fill="#415024"/>
<path fill-rule="evenodd" clip-rule="evenodd" d="M1204.48 900.48C1198.94 900.774 1194.69 901.195 1188.3 902.446C1181.9 903.697 1168.01 904.502 1163.12 904.012C1158.22 903.522 1154.04 901.404 1151.12 903.745C1148.21 906.087 1146.59 909.255 1147.94 910.128C1148.97 910.798 1149.7 907.661 1151.46 906.662C1153.22 905.663 1157.9 909.336 1160.13 909.312C1162.37 909.288 1208.96 912.631 1210.72 906.615C1212.48 900.6 1207.31 900.33 1204.48 900.48Z" fill="#5A6E32"/>
<path d="M119.989 884.47C166.382 884.47 203.99 882.439 203.99 879.933C203.99 877.427 166.382 875.396 119.989 875.396C73.5968 875.396 35.9883 877.427 35.9883 879.933C35.9883 882.439 73.5968 884.47 119.989 884.47Z" fill="#2B2222"/>
<path fill-rule="evenodd" clip-rule="evenodd" d="M114.722 870.451C113.865 871.373 89.1516 873.144 72.3226 870.762C67.7516 870.115 57.0486 877.019 55.3176 875.357C53.5866 873.695 55.5976 873.383 57.4126 872.367C59.2276 871.351 53.2896 874.031 53.2756 873.091C53.2616 872.151 52.5446 868.776 54.7036 867.993C56.8626 867.211 70.1076 861.652 71.7696 861.522C73.4306 861.392 74.3436 863.81 75.2236 863.79C75.9406 863.774 92.4446 861.314 99.0146 862.724C100.417 863.024 122.38 860.396 122.38 860.396L114.722 870.451Z" fill="url(#paint20_linear_356_2516)"/>
<path fill-rule="evenodd" clip-rule="evenodd" d="M200.844 864.282C200.844 864.282 206.268 858.2 202.873 853.128C199.478 848.056 194.591 848.976 194.591 848.976C194.591 848.976 196.829 843.42 191.727 839.58C186.633 835.747 181.158 842.25 181.158 842.25C181.158 842.25 170.518 840.992 165.563 854.184C161.636 864.638 176.19 879.571 184.702 879.195C190.266 878.949 200.161 874.285 200.844 864.282Z" fill="url(#paint21_linear_356_2516)"/>
<path fill-rule="evenodd" clip-rule="evenodd" d="M103.467 876.473C102.611 877.395 77.8973 879.167 61.0683 876.784C56.4973 876.137 45.7943 883.041 44.0633 881.379C42.3323 879.717 44.3433 879.405 46.1583 878.389C47.9733 877.373 42.0353 880.053 42.0213 879.113C42.0083 878.173 41.2903 874.798 43.4493 874.015C45.6083 873.233 58.8533 867.674 60.5153 867.544C62.1763 867.414 63.0893 869.832 63.9693 869.812C64.6863 869.796 81.1903 867.336 87.7603 868.746C89.1623 869.046 111.125 866.418 111.125 866.418L103.467 876.473Z" fill="url(#paint22_linear_356_2516)"/>
<path fill-rule="evenodd" clip-rule="evenodd" d="M130.902 859.597C130.902 859.597 120.647 859.563 115.243 860.966C109.838 862.369 100.65 872.769 93.3205 873.067C85.9915 873.365 80.6265 873.995 80.1265 876.553C79.6265 879.111 80.1265 879.226 80.1265 879.226L117.634 879.422L130.902 859.597Z" fill="#FFE0BE"/>
<path fill-rule="evenodd" clip-rule="evenodd" d="M167.642 858.356C167.642 858.356 164.205 854.51 158.214 855.373C152.223 856.235 148.129 859.915 145.136 859.892C142.142 859.868 142.4 858.013 140.542 858.959C138.683 859.905 137.983 857.671 136.549 858.45C135.115 859.229 131.799 856.388 130.105 857.706C128.41 859.024 118.536 869.954 110.194 870.341C101.851 870.729 105.115 874.033 105.115 874.033C105.115 874.033 109.336 880.471 117.711 879.413C126.086 878.354 152.087 878.648 152.087 878.648L171.819 876.751C184.32 879.96 177.031 869.864 167.642 858.356Z" fill="url(#paint23_linear_356_2516)"/>
<path fill-rule="evenodd" clip-rule="evenodd" d="M106.99 877.502C106.99 877.502 106.157 878.111 104.687 877.569C103.218 877.028 102.577 877.616 102.105 877.292C101.607 876.951 102.065 876.171 102.741 875.972C103.417 875.773 109.578 875.6 109.578 875.6L106.99 877.502Z" fill="#415024"/>
<path fill-rule="evenodd" clip-rule="evenodd" d="M100.824 879.963C100.824 879.963 99.0699 876.056 99.7049 875.691C100.222 875.395 101.471 876.157 102.369 879.016C103.267 881.875 100.824 879.963 100.824 879.963Z" fill="#415024"/>
<path fill-rule="evenodd" clip-rule="evenodd" d="M150.016 879.401C144.931 879.668 141.018 879.694 135.057 879.171C129.096 878.647 116.336 879.255 111.915 880.175C107.494 881.095 103.878 883.434 100.995 881.578C98.1108 879.721 96.3258 876.986 97.4688 876.059C98.3438 875.348 99.3208 878.14 101.021 878.882C102.722 879.624 106.639 875.819 108.682 875.625C110.724 875.431 152.935 867.875 155.123 873.197C157.312 878.518 152.618 879.265 150.016 879.401Z" fill="#5A6E32"/>
<path fill-rule="evenodd" clip-rule="evenodd" d="M162.553 878.745C159.502 879.091 151.588 880.002 151.588 880.002L147.973 869.702C147.973 869.702 170.127 862.459 171.067 871.679C171.532 876.233 167.051 878.236 162.553 878.745Z" fill="#FFF6EC"/>
<path d="M1440.18 1007.33C1574.33 1007.33 1683.08 1001.45 1683.08 994.209C1683.08 986.964 1574.33 981.091 1440.18 981.091C1306.03 981.091 1197.29 986.964 1197.29 994.209C1197.29 1001.45 1306.03 1007.33 1440.18 1007.33Z" fill="#2B2222"/>
<path fill-rule="evenodd" clip-rule="evenodd" d="M1455.41 966.79C1457.88 969.457 1529.34 974.579 1578.01 967.69C1591.22 965.819 1622.17 985.781 1627.18 980.976C1632.18 976.172 1626.37 975.268 1621.12 972.331C1615.87 969.394 1633.04 977.143 1633.08 974.425C1633.12 971.706 1635.2 961.948 1628.95 959.684C1622.71 957.421 1584.41 941.348 1579.61 940.972C1574.8 940.597 1572.16 947.587 1569.62 947.531C1567.55 947.485 1519.82 940.371 1500.83 944.446C1496.77 945.316 1433.27 937.717 1433.27 937.717L1455.41 966.79Z" fill="url(#paint24_linear_356_2516)"/>
<path fill-rule="evenodd" clip-rule="evenodd" d="M1206.38 948.952C1206.38 948.952 1190.7 931.366 1200.51 916.701C1210.33 902.035 1224.46 904.695 1224.46 904.695C1224.46 904.695 1217.99 888.63 1232.74 877.526C1247.47 866.441 1263.31 885.247 1263.31 885.247C1263.31 885.247 1294.07 881.607 1308.4 919.755C1319.75 949.983 1277.67 993.161 1253.06 992.074C1236.97 991.364 1208.36 977.876 1206.38 948.952Z" fill="url(#paint25_linear_356_2516)"/>
<path fill-rule="evenodd" clip-rule="evenodd" d="M1408.62 935.405C1408.62 935.405 1438.28 935.308 1453.9 939.364C1469.53 943.42 1496.1 973.492 1517.29 974.354C1538.48 975.216 1554 977.039 1555.44 984.435C1556.89 991.83 1555.44 992.163 1555.44 992.163L1446.99 992.732L1408.62 935.405Z" fill="#FFE0BE"/>
<path fill-rule="evenodd" clip-rule="evenodd" d="M1302.39 931.818C1302.39 931.818 1312.33 920.698 1329.65 923.191C1346.97 925.685 1358.81 936.327 1367.46 936.258C1376.12 936.189 1375.37 930.825 1380.75 933.561C1386.12 936.298 1388.15 929.835 1392.3 932.089C1396.44 934.342 1406.03 926.127 1410.93 929.938C1415.83 933.75 1444.38 965.353 1468.5 966.473C1492.62 967.594 1483.19 977.149 1483.19 977.149C1483.19 977.149 1470.98 995.765 1446.77 992.704C1422.55 989.643 1347.36 990.493 1347.36 990.493L1290.31 985.009C1254.16 994.286 1275.24 965.092 1302.39 931.818Z" fill="url(#paint26_linear_356_2516)"/>
<path fill-rule="evenodd" clip-rule="evenodd" d="M1353.36 992.671C1368.06 993.444 1379.38 993.517 1396.61 992.004C1413.85 990.49 1450.74 992.247 1463.53 994.908C1476.31 997.57 1486.77 1004.33 1495.1 998.964C1503.44 993.596 1508.6 985.687 1505.3 983.006C1502.77 980.951 1499.94 989.024 1495.03 991.17C1490.11 993.316 1478.78 982.312 1472.88 981.751C1466.97 981.19 1344.92 959.342 1338.59 974.73C1332.26 990.118 1345.83 992.276 1353.36 992.671Z" fill="#5A6E32"/>
<path fill-rule="evenodd" clip-rule="evenodd" d="M1317.1 990.774C1325.93 991.774 1348.81 994.407 1348.81 994.407L1359.26 964.625C1359.26 964.625 1295.2 943.681 1292.49 970.342C1291.14 983.511 1304.1 989.3 1317.1 990.774Z" fill="#FFF6EC"/>
<path fill-rule="evenodd" clip-rule="evenodd" d="M1040.89 977.875C1041.1 980.248 1039.35 982.345 1036.97 982.557C1034.6 982.769 1032.5 981.015 1032.29 978.642C1032.29 978.642 1026.97 892.512 1022.65 870.811C1022.19 868.475 1023.71 866.201 1026.05 865.736C1028.38 865.272 1030.65 866.791 1031.12 869.127C1035.48 891.039 1040.89 977.875 1040.89 977.875Z" fill="black"/>
<path fill-rule="evenodd" clip-rule="evenodd" d="M1031.72 874.755C1031.72 874.755 1013.72 870.083 1003.42 873.001C993.123 875.919 994.988 887.013 982.658 889.594C970.328 892.174 955.235 888.116 951.934 891.996L957.567 933.658C957.567 933.658 972.944 934.031 986.004 931.59C996.675 929.595 1005.38 928.821 1008.62 922.041C1011.86 915.261 1037.22 915.533 1037.22 915.533L1036.71 910.842L1030.81 905.357L1028.2 881.382L1033.39 880.2L1031.72 874.755Z" fill="url(#paint27_linear_356_2516)"/>
<path fill-rule="evenodd" clip-rule="evenodd" d="M1004.39 984.055C1004.39 984.055 1028.06 974.224 1034.37 973.346C1040.69 972.469 1049.63 978.107 1053.86 979.892C1056.08 980.828 1064.34 984.068 1070.09 984.055C1075.84 984.042 1004.39 984.055 1004.39 984.055Z" fill="#4E3E3E"/>
</g>
<path d="M1140.41 888.993C1140.41 888.993 1137.37 893.06 1134 892.094" stroke="black" stroke-width="0.5" stroke-linecap="round"/>
<path d="M1148.41 884.993C1148.41 884.993 1145.37 889.06 1142 888.094" stroke="black" stroke-width="0.5" stroke-linecap="round"/>
<path d="M1140.8 696.94V729.734C1140.78 731.768 1140.45 740.323 1133.71 747.464C1128.2 753.296 1121.62 754.797 1119.32 755.214V806.155H1083.5V765.405C1081 765.027 1076.31 763.958 1071.71 760.464C1064.47 754.965 1062.5 747.297 1062 745.024V703.361L1063.2 702.584L1067.9 706.939L1073.89 702.584C1073.89 702.584 1074.22 699.395 1077.76 699.174C1081.3 698.953 1079.6 692.96 1079.6 692.96C1081.46 694.491 1082.87 696.635 1083.5 699.174V745.024C1084.05 746.383 1085.29 747.329 1086.71 747.464C1088.36 747.622 1089.98 746.638 1090.67 745.024V663.504C1091.41 657.183 1097.05 652.806 1102.71 653.464C1107.54 654.027 1111.6 658.181 1112.16 663.504V667.551L1107.71 674.023V697.718L1101.41 711.44L1104.52 717.523L1107.71 722.175L1112.16 718.588V729.734C1112.44 732.369 1114.83 733.937 1116.71 733.464C1118.13 733.107 1119.27 731.578 1119.32 729.734V697.719L1123.01 698.824L1127.64 700.39L1133.28 698.824L1138.34 696.94H1140.8Z" fill="#171212"/>
</g>
<defs>
<linearGradient id="paint0_linear_356_2516" x1="720.178" y1="430.85" x2="720.178" y2="-241.005" gradientUnits="userSpaceOnUse">
<stop stop-color="#391A1A"/>
<stop offset="1" stop-color="#9B4040"/>
</linearGradient>
<linearGradient id="paint1_linear_356_2516" x1="199.404" y1="812.313" x2="203.121" y2="805.774" gradientUnits="userSpaceOnUse">
<stop stop-color="#5A6E32"/>
<stop offset="1" stop-color="#2F3F0E"/>
</linearGradient>
<linearGradient id="paint2_linear_356_2516" x1="176.443" y1="804.641" x2="167.999" y2="850.365" gradientUnits="userSpaceOnUse">
<stop stop-color="#FFF3E7"/>
<stop offset="1" stop-color="#FFA953"/>
</linearGradient>
<linearGradient id="paint3_linear_356_2516" x1="195.862" y1="810.807" x2="203.256" y2="805.217" gradientUnits="userSpaceOnUse">
<stop stop-color="#5A6E32"/>
<stop offset="1" stop-color="#2F3F0E"/>
</linearGradient>
<linearGradient id="paint4_linear_356_2516" x1="2.58867" y1="895.611" x2="19.8651" y2="924.96" gradientUnits="userSpaceOnUse">
<stop stop-color="#768951"/>
<stop offset="1" stop-color="#485D1E"/>
</linearGradient>
<linearGradient id="paint5_linear_356_2516" x1="27.6318" y1="906.131" x2="71.199" y2="933.55" gradientUnits="userSpaceOnUse">
<stop stop-color="#768951"/>
<stop offset="1" stop-color="#485D1E"/>
</linearGradient>
<linearGradient id="paint6_linear_356_2516" x1="-32.9267" y1="894.924" x2="-50.6955" y2="935.671" gradientUnits="userSpaceOnUse">
<stop stop-color="#FFF6EC"/>
<stop offset="1" stop-color="#FFAF57"/>
</linearGradient>
<linearGradient id="paint7_linear_356_2516" x1="1416.08" y1="904.738" x2="1398.8" y2="934.087" gradientUnits="userSpaceOnUse">
<stop stop-color="#768951"/>
<stop offset="1" stop-color="#485D1E"/>
</linearGradient>
<linearGradient id="paint8_linear_356_2516" x1="1391.04" y1="915.257" x2="1347.47" y2="942.676" gradientUnits="userSpaceOnUse">
<stop stop-color="#768951"/>
<stop offset="1" stop-color="#485D1E"/>
</linearGradient>
<linearGradient id="paint9_linear_356_2516" x1="1451.6" y1="904.051" x2="1469.37" y2="944.798" gradientUnits="userSpaceOnUse">
<stop stop-color="#FFF6EC"/>
<stop offset="1" stop-color="#FFAF57"/>
</linearGradient>
<linearGradient id="paint10_linear_356_2516" x1="74.334" y1="921.069" x2="18.3027" y2="1016.26" gradientUnits="userSpaceOnUse">
<stop stop-color="#768951"/>
<stop offset="1" stop-color="#485D1E"/>
</linearGradient>
<linearGradient id="paint11_linear_356_2516" x1="-6.88797" y1="955.185" x2="-148.186" y2="1044.11" gradientUnits="userSpaceOnUse">
<stop stop-color="#768951"/>
<stop offset="1" stop-color="#485D1E"/>
</linearGradient>
<linearGradient id="paint12_linear_356_2516" x1="189.518" y1="918.841" x2="247.146" y2="1050.99" gradientUnits="userSpaceOnUse">
<stop stop-color="#FFF6EC"/>
<stop offset="1" stop-color="#FFAF57"/>
</linearGradient>
<linearGradient id="paint13_linear_356_2516" x1="214.499" y1="951.127" x2="246.806" y2="975.721" gradientUnits="userSpaceOnUse">
<stop stop-color="#5A6E32"/>
<stop offset="1" stop-color="#2F3F0E"/>
</linearGradient>
<linearGradient id="paint14_linear_356_2516" x1="341.132" y1="910.442" x2="274.893" y2="946.225" gradientUnits="userSpaceOnUse">
<stop stop-color="#768951"/>
<stop offset="1" stop-color="#485D1E"/>
</linearGradient>
<linearGradient id="paint15_linear_356_2516" x1="1263.69" y1="882.586" x2="1287.63" y2="923.262" gradientUnits="userSpaceOnUse">
<stop stop-color="#768951"/>
<stop offset="1" stop-color="#485D1E"/>
</linearGradient>
<linearGradient id="paint16_linear_356_2516" x1="1298.4" y1="897.165" x2="1358.78" y2="935.165" gradientUnits="userSpaceOnUse">
<stop stop-color="#768951"/>
<stop offset="1" stop-color="#485D1E"/>
</linearGradient>
<linearGradient id="paint17_linear_356_2516" x1="1214.47" y1="881.634" x2="1189.85" y2="938.105" gradientUnits="userSpaceOnUse">
<stop stop-color="#FFF6EC"/>
<stop offset="1" stop-color="#FFAF57"/>
</linearGradient>
<linearGradient id="paint18_linear_356_2516" x1="1203.79" y1="895.43" x2="1189.98" y2="905.94" gradientUnits="userSpaceOnUse">
<stop stop-color="#5A6E32"/>
<stop offset="1" stop-color="#2F3F0E"/>
</linearGradient>
<linearGradient id="paint19_linear_356_2516" x1="1149.68" y1="878.045" x2="1177.98" y2="893.336" gradientUnits="userSpaceOnUse">
<stop stop-color="#768951"/>
<stop offset="1" stop-color="#485D1E"/>
</linearGradient>
<linearGradient id="paint20_linear_356_2516" x1="102.578" y1="860.834" x2="85.3012" y2="890.183" gradientUnits="userSpaceOnUse">
<stop stop-color="#768951"/>
<stop offset="1" stop-color="#485D1E"/>
</linearGradient>
<linearGradient id="paint21_linear_356_2516" x1="189.067" y1="854.96" x2="171.576" y2="876.336" gradientUnits="userSpaceOnUse">
<stop stop-color="#768951"/>
<stop offset="1" stop-color="#485D1E"/>
</linearGradient>
<linearGradient id="paint22_linear_356_2516" x1="77.5364" y1="871.354" x2="33.9692" y2="898.773" gradientUnits="userSpaceOnUse">
<stop stop-color="#768951"/>
<stop offset="1" stop-color="#485D1E"/>
</linearGradient>
<linearGradient id="paint23_linear_356_2516" x1="138.094" y1="860.147" x2="155.863" y2="900.894" gradientUnits="userSpaceOnUse">
<stop stop-color="#FFF6EC"/>
<stop offset="1" stop-color="#FFAF57"/>
</linearGradient>
<linearGradient id="paint24_linear_356_2516" x1="1490.52" y1="938.983" x2="1540.48" y2="1023.85" gradientUnits="userSpaceOnUse">
<stop stop-color="#768951"/>
<stop offset="1" stop-color="#485D1E"/>
</linearGradient>
<linearGradient id="paint25_linear_356_2516" x1="1240.43" y1="921.996" x2="1291.01" y2="983.805" gradientUnits="userSpaceOnUse">
<stop stop-color="#768951"/>
<stop offset="1" stop-color="#485D1E"/>
</linearGradient>
<linearGradient id="paint26_linear_356_2516" x1="1387.83" y1="936.997" x2="1336.45" y2="1054.82" gradientUnits="userSpaceOnUse">
<stop stop-color="#FFF6EC"/>
<stop offset="1" stop-color="#FFAF57"/>
</linearGradient>
<linearGradient id="paint27_linear_356_2516" x1="1011.86" y1="900.312" x2="892.567" y2="947.849" gradientUnits="userSpaceOnUse">
<stop stop-color="#FFF3E7"/>
<stop offset="1" stop-color="#FFA953"/>
</linearGradient>
<clipPath id="clip0_356_2516">
<rect width="1441" height="1025" fill="white"/>
</clipPath>
</defs>
</svg>
