<svg width="423" height="1032" viewBox="0 0 423 1032" fill="none" xmlns="http://www.w3.org/2000/svg">
<g clip-path="url(#clip0_895_3)">
<g clip-path="url(#clip1_895_3)">
<mask id="mask0_895_3" style="mask-type:luminance" maskUnits="userSpaceOnUse" x="0" y="0" width="1441" height="1025">
<path d="M1440.18 0.464844H0.179688V1024.46H1440.18V0.464844Z" fill="white"/>
</mask>
<g mask="url(#mask0_895_3)">
<path d="M1440 -31H0V1323H1440V-31Z" fill="url(#paint0_linear_895_3)"/>
<path d="M624.605 1057.84C609.508 1058.92 592.78 1058.92 583.674 1058.92H491.361C478.323 1058.92 432.647 1069.24 400.775 1075.65C89.836 1075.65 32.1911 1097.36 -114.711 1088.44V1013.21C-102.585 1011.74 -84.8029 1009.7 -74.7859 1009.24C-58.5849 1008.56 -36.4419 998.979 -23.5489 1003.23C-10.6559 1007.48 23.4701 1006.63 36.3641 1008.51C49.2561 1010.32 78.3021 1010.72 88.4621 1010.72C96.8021 1010.72 124.793 1008.51 142 1008.34H142.145C145.979 1008.28 149.287 1008.34 151.682 1008.51C164.864 1009.53 170.039 1008.56 189.212 1010.94C208.383 1013.27 224.393 1015.82 238.339 1014.8C252.335 1013.78 263.935 1014.4 278.696 1014.8C293.458 1015.2 331.803 1022.74 355.384 1020.36C378.965 1018.03 404.513 1022.23 418.89 1020.81C433.27 1019.45 470.032 1025.12 474.824 1027.45C479.619 1029.83 495.578 1035.95 504.35 1036.46C513.169 1036.92 537.135 1037.88 549.884 1041.62C562.681 1045.42 582.667 1048.71 590.239 1049.67C595.129 1050.3 610.897 1055.06 624.605 1057.84Z" fill="#5E4B4B"/>
<path d="M1555.07 998.294V1018.2C1543.57 1018.14 1528.14 1018.09 1516.49 1018.48C1495.5 1019.22 1463.77 1016.44 1452.36 1018.14C1441 1019.9 1399.64 1012.41 1379.31 1017.57C1358.9 1022.73 1339.15 1011.56 1318.16 1015.76C1297.21 1019.9 1301.38 1012.36 1273.25 1018.99C1245.11 1025.57 1239.69 1026.25 1222.92 1026.25C1206.14 1026.25 1191.77 1025.57 1180.41 1026.25C1169 1026.99 1148.63 1029.82 1134.87 1033.4C1121.07 1036.91 1119.87 1034.76 1101.32 1033.4C1082.73 1031.92 1061.16 1029.09 1047.98 1029.82C1034.8 1030.56 1013.8 1023.13 1004.84 1025.06C995.873 1026.99 976.702 1026.99 965.294 1028.4C953.887 1029.82 939.508 1036.23 920.959 1031.92C902.411 1027.72 862.821 1029.09 855.055 1031.24C847.29 1033.4 825.1 1040.43 807.126 1040.43C789.152 1040.43 733.889 1042.58 720.182 1045.42C706.472 1048.25 662.138 1051.77 645.363 1055.34C639.709 1056.53 632.373 1057.32 624.61 1057.84C610.901 1055.06 595.133 1050.29 590.245 1049.67C582.671 1048.71 562.684 1045.42 549.887 1041.62C537.138 1037.87 513.172 1036.91 504.353 1036.46C495.583 1035.95 479.622 1029.82 474.829 1027.44C470.035 1025.12 433.275 1019.44 418.895 1020.81C404.516 1022.23 378.97 1018.03 355.387 1020.35C331.806 1022.73 293.463 1015.19 278.699 1014.8C263.938 1014.4 252.339 1013.78 238.342 1014.8C224.396 1015.82 208.386 1013.26 189.215 1010.94C170.044 1008.56 164.867 1009.52 151.685 1008.5C149.29 1008.33 145.982 1008.27 142.148 1008.33C153.891 1005.67 167.264 1003.23 178.861 1000.51C199.232 995.799 198.034 999.088 217.973 996.764C228.229 995.517 233.645 995.572 237.816 995.743H237.864C241.841 995.799 244.719 996.025 249.559 995.346C259.528 993.928 267.533 998.635 276.687 998.635C285.889 998.635 307.84 1000.05 317.427 1000.51C327.014 1001.02 335.833 1002.43 350.977 1002.15C366.172 1001.92 377.339 1004.31 389.322 1000.51C401.304 996.764 409.691 1001.02 422.49 1002.15C435.287 1003.34 446.071 1003.34 454.028 1002.15C462.032 1000.96 472.432 1001.92 480.005 1002.15C487.579 1002.38 501.958 1002.89 508.38 1002.15C514.755 1001.41 543.512 1003.34 554.297 1005.27C565.081 1007.14 575.481 1009.98 581.473 1009.98C587.465 1009.98 601.411 1009.98 617.421 1003.23C633.38 996.537 636.974 998.635 651.738 997.161C666.548 995.685 680.112 999.598 693.293 997.161C706.472 994.723 740.025 997.67 749.995 997.161C760.011 996.649 774.39 996.252 797.54 997.161C820.69 998.067 824.717 998.182 834.302 997.161C843.888 996.141 873.029 995.799 885.826 993.928C898.575 991.999 911.757 996.252 921.774 997.161C931.743 998.067 962.084 992.963 973.059 994.381C973.299 994.44 973.588 994.44 973.874 994.495C985.234 995.629 1009.06 991.999 1019.22 991.148C1029.62 990.3 1069.16 996.764 1075.92 992.398C1082.73 988.088 1098.68 996.252 1116.66 997.841C1134.63 999.371 1147.82 1000.51 1157.83 997.841C1167.8 995.119 1216.11 997.67 1222.11 997.841C1228.1 997.953 1252.88 1000.51 1262.08 1000.51C1271.23 1000.51 1298.79 1000.51 1313.17 1000.05C1327.55 999.598 1369.49 994.834 1383.1 992.963C1396.67 991.092 1400.64 994.381 1417.42 997.443C1434.19 1000.45 1453.8 999.088 1470.14 1000.34C1486.53 1001.58 1485.72 1000.51 1501.73 1002.43C1517.69 1004.31 1524.49 1002.89 1533.27 999.088C1539.21 996.537 1549.28 997.443 1555.07 998.294Z" fill="#4F3F3F"/>
<path d="M603.708 973.796C587.029 975.441 566.658 975.838 561.866 976.405C553.909 977.37 538.715 980.204 524.721 979.241C510.774 978.333 503.583 980.601 490.786 979.468C477.989 978.333 444.869 977.483 436.481 979.751C428.094 982.075 417.31 976.065 403.313 979.751C389.319 983.493 352.604 985.876 345.797 985.42C338.993 984.911 329.838 983.608 320.634 985.479C311.432 987.294 305.057 988.256 291.493 988.256C277.881 988.256 263.935 986.838 260.34 988.256C258.373 989.051 248.454 992.396 237.861 995.741H237.813C233.642 995.57 228.226 995.515 217.97 996.762C198.031 999.086 199.229 995.799 178.858 1000.5C167.259 1003.23 153.888 1005.66 142.145 1008.33H142C124.793 1008.5 96.8021 1010.71 88.4631 1010.71C78.3021 1010.71 49.2561 1010.32 36.3641 1008.5C23.4701 1006.63 -10.6559 1007.48 -23.5489 1003.23C-36.4419 998.974 -58.5849 1008.56 -74.7859 1009.24C-84.8029 1009.69 -102.585 1011.73 -114.711 1013.21V936.258H-53.2169C-32.8469 936.258 -16.0719 930.586 -0.494942 936.258C15.0831 941.928 -0.494934 936.258 35.4531 936.258C71.4001 936.258 82.1851 926.958 107.347 933.763C132.511 940.512 186.432 935.181 208 935.011C229.569 934.84 246.344 923.84 283.489 935.011C320.634 946.182 349.392 935.634 382.942 938.753C416.495 941.928 422.485 932.969 438.064 940.283C453.64 947.6 470.416 943.346 493.183 946.182C515.949 949.018 513.793 951.171 561.481 962.172C591.054 968.977 595.464 971.757 603.708 973.796Z" fill="#403333"/>
<path d="M1203.07 965.01C1195.4 966.767 1188.93 968.923 1180.59 969.829C1167.79 971.247 1126.23 977.823 1113.05 980.206C1099.87 982.589 1091.48 983.042 1079.93 983.042C1068.34 983.042 1048.35 986.84 1039.19 985.423C1029.99 984.007 1010 982.757 1003.63 985.707C999.033 987.862 985.708 991.66 973.869 994.495C973.582 994.44 973.296 994.44 973.054 994.384C962.079 992.966 931.738 998.068 921.769 997.161C911.752 996.255 898.57 992.001 885.821 993.928C873.024 995.799 843.883 996.141 834.297 997.161C824.713 998.182 820.685 998.068 797.537 997.161C774.385 996.255 760.007 996.65 749.989 997.161C740.02 997.67 706.467 994.723 693.288 997.161C680.107 999.6 666.543 995.687 651.733 997.161C636.969 998.635 633.375 996.537 617.416 1003.23C601.406 1009.98 587.46 1009.98 581.468 1009.98C575.478 1009.98 565.076 1007.14 554.292 1005.27C543.507 1003.34 514.75 1001.42 508.375 1002.15C501.953 1002.89 487.573 1002.38 480.002 1002.15C472.427 1001.92 462.027 1000.96 454.023 1002.15C446.067 1003.34 435.282 1003.34 422.485 1002.15C409.688 1001.02 401.299 996.764 389.317 1000.51C377.336 1004.31 366.167 1001.92 350.972 1002.15C335.828 1002.43 327.008 1001.02 317.422 1000.51C307.835 1000.05 285.884 998.635 276.682 998.635C267.527 998.635 259.523 993.928 249.554 995.346C244.714 996.026 241.836 995.799 237.859 995.743C248.452 992.398 258.373 989.053 260.338 988.258C263.933 986.84 277.88 988.258 291.491 988.258C305.055 988.258 311.43 987.294 320.634 985.481C329.836 983.608 338.99 984.913 345.798 985.423C352.602 985.878 389.317 983.495 403.314 979.753C417.308 976.067 428.092 982.077 436.48 979.753C444.869 977.485 477.987 978.335 490.784 979.47C503.583 980.603 510.772 978.335 524.719 979.241C538.715 980.206 553.907 977.372 561.864 976.407C566.656 975.84 587.027 975.443 603.706 973.798C614.827 972.721 624.364 971.021 626.57 968.411C632.177 961.777 633.759 967.447 642.962 962.741C652.166 957.979 656.526 961.323 662.517 957.979C668.507 954.69 683.319 957.526 696.068 961.323C708.865 965.066 743.998 961.777 753.585 957.979C763.169 954.234 769.593 951.854 784.355 945.275C799.117 938.755 801.944 941.93 817.905 938.131C833.867 934.389 840.289 936.713 849.443 934.842C858.645 932.971 885.821 937.678 892.196 937.678C898.57 937.678 906.96 928.717 914.58 923.613C922.154 918.511 935.717 928.717 938.113 930.588C940.509 932.459 956.902 932.971 964.473 935.807C972.095 938.641 976.458 940.965 982.45 940.059C988.439 939.094 992.466 934.389 1000.85 928.717C1009.24 923.047 1015.23 925.883 1020.02 924.012C1024.81 922.139 1031.19 926.79 1039.96 932.006C1048.78 937.225 1045.57 932.971 1054.34 932.971C1063.16 932.971 1061.96 932.971 1073.13 929.626C1084.29 926.336 1085.92 926.336 1095.51 924.465C1105.1 922.536 1113.49 927.299 1119.86 931.041C1126.23 934.842 1129.83 935.295 1136.63 937.678C1139.27 938.584 1142.72 939.491 1146.32 940.455H1146.36C1152.12 941.986 1158.25 943.689 1162.18 945.729C1168.6 949.018 1178.96 953.725 1183.37 955.652C1186.15 956.843 1196.12 961.607 1203.07 965.01Z" fill="#5E4B4B"/>
<path d="M1555.06 1018.2V1075.64C1211.08 1094.98 923.882 1105.96 400.766 1075.64C432.639 1069.23 478.314 1058.91 491.352 1058.91H583.664C592.771 1058.91 609.499 1058.91 624.598 1057.83C632.361 1057.32 639.694 1056.53 645.349 1055.34C662.125 1051.76 706.46 1048.25 720.17 1045.41C733.877 1042.58 789.14 1040.42 807.114 1040.42C825.087 1040.42 847.278 1033.39 855.043 1031.24C862.809 1029.08 902.397 1027.72 920.947 1031.92C939.496 1036.23 953.873 1029.82 965.282 1028.4C976.69 1026.98 995.861 1026.98 1004.82 1025.06C1013.79 1023.13 1034.78 1030.56 1047.96 1029.82C1061.14 1029.08 1082.71 1031.92 1101.31 1033.39C1119.86 1034.75 1121.05 1036.91 1134.86 1033.39C1148.61 1029.82 1168.98 1026.98 1180.39 1026.25C1191.75 1025.57 1206.13 1026.25 1222.9 1026.25C1239.68 1026.25 1245.09 1025.57 1273.23 1018.99C1301.37 1012.36 1297.19 1019.9 1318.14 1015.76C1339.13 1011.56 1358.88 1022.73 1379.3 1017.57C1399.62 1012.41 1440.99 1019.9 1452.34 1018.14C1463.75 1016.44 1495.48 1019.22 1516.47 1018.48C1528.12 1018.08 1543.55 1018.14 1555.06 1018.2Z" fill="#403333"/>
</g>
</g>
</g>
<defs>
<linearGradient id="paint0_linear_895_3" x1="720" y1="538.085" x2="720" y2="-350.286" gradientUnits="userSpaceOnUse">
<stop stop-color="#391A1A"/>
<stop offset="1" stop-color="#9B4040"/>
</linearGradient>
<clipPath id="clip0_895_3">
<rect width="423" height="1032" fill="white"/>
</clipPath>
<clipPath id="clip1_895_3">
<rect width="1441" height="1025" fill="white"/>
</clipPath>
</defs>
</svg>
