<svg width="423" height="1032" viewBox="0 0 423 1032" fill="none" xmlns="http://www.w3.org/2000/svg">
<g clip-path="url(#clip0_895_3)">
<g clip-path="url(#clip1_895_3)">
<mask id="mask0_895_3" style="mask-type:luminance" maskUnits="userSpaceOnUse" x="0" y="0" width="1441" height="1025">
<path d="M1440.18 0.464844H0.179688V1024.46H1440.18V0.464844Z" fill="white"/>
</mask>
<g mask="url(#mask0_895_3)">
<path d="M1440.18 0.464844H0.179688V1024.46H1440.18V0.464844Z" fill="url(#paint0_linear_895_3)"/>
<path d="M1440.18 770.695H0.179688V1024.46H1440.18V770.695Z" fill="#403333"/>
<path d="M289.368 792.051C313.858 795.593 470.817 799.637 481.949 808.542C493.08 817.448 788.074 817.448 810.339 820.788C832.601 824.129 707.924 825.241 731.302 840.784C754.68 856.328 1051.9 841.939 1095.31 839.882C1138.73 837.826 1223.33 843.051 1286.78 839.527C1350.23 836.003 1445.97 837.488 1466 839.527C1486.04 841.569 1555.06 834.146 1555.06 834.146V770.695H240.767C174.672 786.63 266.83 788.788 289.368 792.051Z" fill="#2B2222"/>
<path d="M-114.711 770.695V811.416C-75.4239 805.731 24.834 831.741 46.701 829.138C70.078 826.354 198.094 835.816 217.305 831.92C236.516 828.024 427.41 848.062 471.381 847.919C515.352 847.777 604.406 846.948 603.708 844.723C603.009 842.496 581.586 836.652 544.017 839.527C506.445 842.403 387.893 839.157 326.946 819.119C265.997 799.083 152.454 806.596 183.345 792.051C214.236 777.504 53.9361 778.211 53.9361 778.211L63.4991 770.695H-114.711Z" fill="#2B2222"/>
<path d="M624.605 759.305C609.508 760.382 592.78 760.382 583.674 760.382H491.361C478.323 760.382 432.647 770.702 400.775 777.11C89.836 777.11 32.1911 798.826 -114.711 789.901V714.677C-102.585 713.202 -84.8029 711.161 -74.7859 710.707C-58.5849 710.026 -36.4419 700.444 -23.5489 704.698C-10.6559 708.949 23.4701 708.099 36.3641 709.97C49.2561 711.784 78.3021 712.182 88.4621 712.182C96.8021 712.182 124.793 709.97 142 709.801H142.145C145.979 709.743 149.287 709.801 151.682 709.97C164.864 710.991 170.039 710.026 189.212 712.409C208.383 714.733 224.393 717.284 238.339 716.265C252.335 715.244 263.935 715.868 278.696 716.265C293.458 716.662 331.803 724.203 355.384 721.821C378.965 719.496 404.513 723.694 418.89 722.276C433.27 720.914 470.032 726.586 474.824 728.91C479.619 731.291 495.578 737.416 504.35 737.925C513.169 738.38 537.135 739.343 549.884 743.085C562.681 746.886 582.667 750.173 590.239 751.138C595.129 751.762 610.897 756.525 624.605 759.305Z" fill="#5E4B4B"/>
<path d="M1555.07 699.759V719.662C1543.57 719.607 1528.14 719.55 1516.49 719.947C1495.5 720.683 1463.77 717.905 1452.36 719.607C1441 721.363 1399.64 713.878 1379.31 719.038C1358.9 724.199 1339.15 713.028 1318.16 717.224C1297.21 721.363 1301.38 713.822 1273.25 720.456C1245.11 727.035 1239.69 727.715 1222.92 727.715C1206.14 727.715 1191.77 727.035 1180.41 727.715C1169 728.452 1148.63 731.286 1134.87 734.861C1121.07 738.376 1119.87 736.22 1101.32 734.861C1082.73 733.387 1061.16 730.551 1047.98 731.286C1034.8 732.025 1013.8 724.596 1004.84 726.524C995.873 728.452 976.702 728.452 965.294 729.868C953.887 731.286 939.508 737.697 920.959 733.387C902.411 729.189 862.821 730.551 855.055 732.704C847.29 734.861 825.1 741.892 807.126 741.892C789.152 741.892 733.889 744.046 720.182 746.882C706.472 749.716 662.138 753.232 645.363 756.806C639.709 757.994 632.373 758.789 624.61 759.3C610.901 756.521 595.133 751.757 590.245 751.134C582.671 750.171 562.684 746.882 549.887 743.081C537.138 739.339 513.172 738.376 504.353 737.921C495.583 737.411 479.622 731.286 474.829 728.906C470.035 726.581 433.275 720.909 418.895 722.272C404.516 723.69 378.97 719.494 355.387 721.817C331.806 724.199 293.463 716.658 278.699 716.261C263.938 715.863 252.339 715.24 238.342 716.261C224.396 717.281 208.386 714.729 189.215 712.405C170.044 710.024 164.867 710.987 151.685 709.965C149.29 709.797 145.982 709.738 142.148 709.797C153.891 707.132 167.264 704.693 178.861 701.971C199.232 697.264 198.034 700.553 217.973 698.229C228.229 696.982 233.645 697.037 237.816 697.208H237.864C241.841 697.264 244.719 697.49 249.559 696.811C259.528 695.393 267.533 700.1 276.687 700.1C285.889 700.1 307.84 701.518 317.427 701.971C327.014 702.481 335.833 703.899 350.977 703.615C366.172 703.389 377.339 705.77 389.322 701.971C401.304 698.229 409.691 702.481 422.49 703.615C435.287 704.805 446.071 704.805 454.028 703.615C462.032 702.425 472.432 703.389 480.005 703.615C487.579 703.843 501.958 704.352 508.38 703.615C514.755 702.878 543.512 704.805 554.297 706.735C565.081 708.606 575.481 711.442 581.473 711.442C587.465 711.442 601.411 711.442 617.421 704.693C633.38 698.002 636.974 700.1 651.738 698.626C666.548 697.15 680.112 701.063 693.293 698.626C706.472 696.188 740.025 699.135 749.995 698.626C760.011 698.114 774.39 697.717 797.54 698.626C820.69 699.532 824.717 699.647 834.302 698.626C843.888 697.606 873.029 697.264 885.826 695.393C898.575 693.464 911.757 697.717 921.774 698.626C931.743 699.532 962.084 694.428 973.059 695.846C973.299 695.905 973.588 695.905 973.874 695.96C985.234 697.094 1009.06 693.464 1019.22 692.613C1029.62 691.765 1069.16 698.229 1075.92 693.863C1082.73 689.553 1098.68 697.717 1116.66 699.306C1134.63 700.836 1147.82 701.971 1157.83 699.306C1167.8 696.584 1216.11 699.135 1222.11 699.306C1228.1 699.418 1252.88 701.971 1262.08 701.971C1271.23 701.971 1298.79 701.971 1313.17 701.518C1327.55 701.063 1369.49 696.299 1383.1 694.428C1396.67 692.557 1400.64 695.846 1417.42 698.908C1434.19 701.915 1453.8 700.553 1470.14 701.801C1486.53 703.048 1485.72 701.971 1501.73 703.899C1517.69 705.77 1524.49 704.352 1533.27 700.553C1539.21 698.002 1549.28 698.908 1555.07 699.759Z" fill="#4F3F3F"/>
<path d="M603.708 675.261C587.029 676.906 566.658 677.303 561.866 677.87C553.909 678.835 538.715 681.669 524.721 680.706C510.774 679.798 503.583 682.066 490.786 680.933C477.989 679.798 444.869 678.948 436.481 681.216C428.094 683.54 417.31 677.53 403.313 681.216C389.319 684.958 352.604 687.341 345.797 686.885C338.993 686.376 329.838 685.073 320.634 686.944C311.432 688.759 305.057 689.721 291.493 689.721C277.881 689.721 263.935 688.303 260.34 689.721C258.373 690.516 248.454 693.861 237.861 697.206H237.813C233.642 697.035 228.226 696.98 217.97 698.227C198.031 700.551 199.229 697.264 178.858 701.969C167.259 704.693 153.888 707.129 142.145 709.795H142C124.793 709.965 96.8021 712.178 88.4631 712.178C78.3021 712.178 49.2561 711.781 36.3641 709.965C23.4701 708.094 -10.6559 708.945 -23.5489 704.693C-36.4419 700.439 -58.5849 710.022 -74.7859 710.701C-84.8029 711.157 -102.585 713.199 -114.711 714.672V637.723H-53.2169C-32.8469 637.723 -16.0719 632.051 -0.494942 637.723C15.0831 643.393 -0.494934 637.723 35.4531 637.723C71.4001 637.723 82.1851 628.423 107.347 635.228C132.511 641.977 186.432 636.646 208 636.476C229.569 636.305 246.344 625.305 283.489 636.476C320.634 647.647 349.392 637.099 382.942 640.218C416.495 643.393 422.485 634.434 438.064 641.748C453.64 649.065 470.416 644.811 493.183 647.647C515.949 650.483 513.793 652.636 561.481 663.637C591.054 670.442 595.464 673.222 603.708 675.261Z" fill="#403333"/>
<path d="M1203.07 666.475C1195.4 668.232 1188.93 670.388 1180.59 671.294C1167.79 672.712 1126.23 679.288 1113.05 681.671C1099.87 684.054 1091.48 684.507 1079.93 684.507C1068.34 684.507 1048.35 688.305 1039.19 686.888C1029.99 685.472 1010 684.222 1003.63 687.172C999.033 689.327 985.708 693.125 973.869 695.96C973.582 695.905 973.296 695.905 973.054 695.849C962.079 694.431 931.738 699.533 921.769 698.626C911.752 697.72 898.57 693.466 885.821 695.393C873.024 697.264 843.883 697.606 834.297 698.626C824.713 699.647 820.685 699.533 797.537 698.626C774.385 697.72 760.007 698.115 749.989 698.626C740.02 699.135 706.467 696.188 693.288 698.626C680.107 701.065 666.543 697.152 651.733 698.626C636.969 700.1 633.375 698.002 617.416 704.693C601.406 711.442 587.46 711.442 581.468 711.442C575.478 711.442 565.076 708.606 554.292 706.735C543.507 704.807 514.75 702.88 508.375 703.616C501.953 704.354 487.573 703.843 480.002 703.616C472.427 703.389 462.027 702.425 454.023 703.616C446.067 704.807 435.282 704.807 422.485 703.616C409.688 702.483 401.299 698.229 389.317 701.971C377.336 705.772 366.167 703.389 350.972 703.616C335.828 703.899 327.008 702.483 317.422 701.971C307.835 701.518 285.884 700.1 276.682 700.1C267.527 700.1 259.523 695.393 249.554 696.811C244.714 697.491 241.836 697.264 237.859 697.208C248.452 693.863 258.373 690.518 260.338 689.723C263.933 688.305 277.88 689.723 291.491 689.723C305.055 689.723 311.43 688.759 320.634 686.946C329.836 685.073 338.99 686.378 345.798 686.888C352.602 687.343 389.317 684.96 403.314 681.218C417.308 677.532 428.092 683.542 436.48 681.218C444.869 678.95 477.987 679.8 490.784 680.935C503.583 682.068 510.772 679.8 524.719 680.706C538.715 681.671 553.907 678.837 561.864 677.872C566.656 677.305 587.027 676.908 603.706 675.263C614.827 674.186 624.364 672.486 626.57 669.876C632.177 663.242 633.759 668.912 642.962 664.206C652.166 659.444 656.526 662.788 662.517 659.444C668.507 656.155 683.319 658.991 696.068 662.788C708.865 666.531 743.998 663.242 753.585 659.444C763.169 655.699 769.593 653.319 784.355 646.74C799.117 640.22 801.944 643.395 817.905 639.596C833.867 635.854 840.289 638.178 849.443 636.307C858.645 634.436 885.821 639.143 892.196 639.143C898.57 639.143 906.96 630.182 914.58 625.078C922.154 619.976 935.717 630.182 938.113 632.053C940.509 633.924 956.902 634.436 964.473 637.272C972.095 640.106 976.458 642.43 982.45 641.524C988.439 640.559 992.466 635.854 1000.85 630.182C1009.24 624.512 1015.23 627.348 1020.02 625.477C1024.81 623.604 1031.19 628.255 1039.96 633.471C1048.78 638.69 1045.57 634.436 1054.34 634.436C1063.16 634.436 1061.96 634.436 1073.13 631.091C1084.29 627.801 1085.92 627.801 1095.51 625.93C1105.1 624.001 1113.49 628.764 1119.86 632.506C1126.23 636.307 1129.83 636.76 1136.63 639.143C1139.27 640.049 1142.72 640.956 1146.32 641.92H1146.36C1152.12 643.451 1158.25 645.154 1162.18 647.194C1168.6 650.483 1178.96 655.19 1183.37 657.117C1186.15 658.308 1196.12 663.072 1203.07 666.475Z" fill="#5E4B4B"/>
<path d="M1555.06 719.66V777.102C1211.08 796.442 923.882 807.429 400.766 777.102C432.639 770.695 478.314 760.373 491.352 760.373H583.664C592.771 760.373 609.499 760.374 624.598 759.297C632.361 758.788 639.694 757.992 645.349 756.802C662.125 753.229 706.46 749.714 720.17 746.878C733.877 744.042 789.14 741.888 807.114 741.888C825.087 741.888 847.278 734.857 855.043 732.703C862.809 730.548 902.397 729.187 920.947 733.383C939.496 737.693 953.873 731.285 965.282 729.867C976.69 728.449 995.861 728.448 1004.82 726.521C1013.79 724.594 1034.78 732.022 1047.96 731.284C1061.14 730.547 1082.71 733.383 1101.31 734.857C1119.86 736.219 1121.05 738.373 1134.86 734.857C1148.61 731.285 1168.98 728.449 1180.39 727.714C1191.75 727.031 1206.13 727.714 1222.9 727.714C1239.68 727.714 1245.09 727.03 1273.23 720.454C1301.37 713.82 1297.19 721.361 1318.14 717.222C1339.13 713.025 1358.88 724.198 1379.3 719.037C1399.62 713.877 1440.99 721.362 1452.34 719.605C1463.75 717.902 1495.48 720.681 1516.47 719.943C1528.12 719.546 1543.55 719.604 1555.06 719.66Z" fill="#403333"/>
<path d="M-98.8203 896.466C-98.8203 896.466 57.1797 892.466 165.18 915.466C273.18 938.466 345.18 944.466 416.18 932.466C487.18 920.466 595.18 948.466 595.18 948.466C595.18 948.466 315.18 958.466 294.18 968.466C294.18 968.466 356.18 982.466 437.18 983.466C518.18 984.466 615.18 1002.46 680.18 1000.46C745.18 998.466 871.18 1032.46 871.18 1032.46H-96.9793L-98.8203 896.466Z" fill="#2B2222"/>
</g>
</g>
</g>
<defs>
<linearGradient id="paint0_linear_895_3" x1="720.18" y1="430.851" x2="720.18" y2="-241.004" gradientUnits="userSpaceOnUse">
<stop stop-color="#391A1A"/>
<stop offset="1" stop-color="#9B4040"/>
</linearGradient>
<clipPath id="clip0_895_3">
<rect width="423" height="1032" fill="white"/>
</clipPath>
<clipPath id="clip1_895_3">
<rect width="1441" height="1025" fill="white"/>
</clipPath>
</defs>
</svg>
