<svg width="1441" height="1025" viewBox="0 0 1441 1025" fill="none" xmlns="http://www.w3.org/2000/svg">
<g clip-path="url(#clip0_698_16948)">
<mask id="mask0_698_16948" style="mask-type:luminance" maskUnits="userSpaceOnUse" x="0" y="0" width="1441" height="1025">
<path d="M1440.18 0.464844H0.179688V1024.46H1440.18V0.464844Z" fill="white"/>
</mask>
<g mask="url(#mask0_698_16948)">
<path d="M1440.18 0.464844H0.179688V1024.46H1440.18V0.464844Z" fill="url(#paint0_linear_698_16948)"/>
<path d="M1440.18 770.695H0.179688V1024.46H1440.18V770.695Z" fill="#403333"/>
<path d="M1555.08 848.113C1533.39 849.045 1437.24 853.072 1395.89 853.072C1227.33 853.072 1027.93 851.106 1026.98 864.798C1026.82 867.182 1032.81 868.186 1032.97 872.341C1033.11 875.797 1031.06 899.719 949.5 903.166C870.465 906.505 842.635 908.547 841.522 921.996C840.407 935.448 987.348 932.106 1007.39 930.994C1027.43 929.882 1274.44 941.013 1264.48 953.258C1254.52 965.504 1324.65 965.504 1361.38 967.73C1395.84 969.817 1456.73 985.612 1555.08 982.057V848.113Z" fill="#2B2222"/>
<path d="M289.368 792.051C313.858 795.593 470.817 799.637 481.949 808.542C493.08 817.448 788.074 817.448 810.339 820.788C832.601 824.129 707.924 825.241 731.302 840.784C754.68 856.328 1051.9 841.939 1095.31 839.882C1138.73 837.826 1223.33 843.051 1286.78 839.527C1350.23 836.003 1445.97 837.488 1466 839.527C1486.04 841.569 1555.06 834.146 1555.06 834.146V770.695H240.767C174.672 786.63 266.83 788.788 289.368 792.051Z" fill="#2B2222"/>
<path d="M-114.711 770.695V811.416C-75.4239 805.731 24.834 831.741 46.701 829.138C70.078 826.354 198.094 835.816 217.305 831.92C236.516 828.024 427.41 848.062 471.381 847.919C515.352 847.777 604.406 846.948 603.708 844.723C603.009 842.496 581.586 836.652 544.017 839.527C506.445 842.403 387.893 839.157 326.946 819.119C265.997 799.083 152.454 806.596 183.345 792.051C214.236 777.504 53.9361 778.211 53.9361 778.211L63.4991 770.695H-114.711Z" fill="#2B2222"/>
<path d="M624.605 759.305C609.508 760.382 592.78 760.382 583.674 760.382H491.361C478.323 760.382 432.647 770.702 400.775 777.11C89.836 777.11 32.1911 798.826 -114.711 789.901V714.677C-102.585 713.202 -84.8029 711.161 -74.7859 710.707C-58.5849 710.026 -36.4419 700.444 -23.5489 704.698C-10.6559 708.949 23.4701 708.099 36.3641 709.97C49.2561 711.784 78.3021 712.182 88.4621 712.182C96.8021 712.182 124.793 709.97 142 709.801H142.145C145.979 709.743 149.287 709.801 151.682 709.97C164.864 710.991 170.039 710.026 189.212 712.409C208.383 714.733 224.393 717.284 238.339 716.265C252.335 715.244 263.935 715.868 278.696 716.265C293.458 716.662 331.803 724.203 355.384 721.821C378.965 719.496 404.513 723.694 418.89 722.276C433.27 720.914 470.032 726.586 474.824 728.91C479.619 731.291 495.578 737.416 504.35 737.925C513.169 738.38 537.135 739.343 549.884 743.085C562.681 746.886 582.667 750.173 590.239 751.138C595.129 751.762 610.897 756.525 624.605 759.305Z" fill="#5E4B4B"/>
<path d="M1555.07 699.759V719.662C1543.57 719.607 1528.14 719.55 1516.49 719.947C1495.5 720.683 1463.77 717.905 1452.36 719.607C1441 721.363 1399.64 713.878 1379.31 719.038C1358.9 724.199 1339.15 713.028 1318.16 717.224C1297.21 721.363 1301.38 713.822 1273.25 720.456C1245.11 727.035 1239.69 727.715 1222.92 727.715C1206.14 727.715 1191.77 727.035 1180.41 727.715C1169 728.452 1148.63 731.286 1134.87 734.861C1121.07 738.376 1119.87 736.22 1101.32 734.861C1082.73 733.387 1061.16 730.551 1047.98 731.286C1034.8 732.025 1013.8 724.596 1004.84 726.524C995.873 728.452 976.702 728.452 965.294 729.868C953.887 731.286 939.508 737.697 920.959 733.387C902.411 729.189 862.821 730.551 855.055 732.704C847.29 734.861 825.1 741.892 807.126 741.892C789.152 741.892 733.889 744.046 720.182 746.882C706.472 749.716 662.138 753.232 645.363 756.806C639.709 757.994 632.373 758.789 624.61 759.3C610.901 756.521 595.133 751.757 590.245 751.134C582.671 750.171 562.684 746.882 549.887 743.081C537.138 739.339 513.172 738.376 504.353 737.921C495.583 737.411 479.622 731.286 474.829 728.906C470.035 726.581 433.275 720.909 418.895 722.272C404.516 723.69 378.97 719.494 355.387 721.817C331.806 724.199 293.463 716.658 278.699 716.261C263.938 715.863 252.339 715.24 238.342 716.261C224.396 717.281 208.386 714.729 189.215 712.405C170.044 710.024 164.867 710.987 151.685 709.965C149.29 709.797 145.982 709.738 142.148 709.797C153.891 707.132 167.264 704.693 178.861 701.971C199.232 697.264 198.034 700.553 217.973 698.229C228.229 696.982 233.645 697.037 237.816 697.208H237.864C241.841 697.264 244.719 697.49 249.559 696.811C259.528 695.393 267.533 700.1 276.687 700.1C285.889 700.1 307.84 701.518 317.427 701.971C327.014 702.481 335.833 703.899 350.977 703.615C366.172 703.389 377.339 705.77 389.322 701.971C401.304 698.229 409.691 702.481 422.49 703.615C435.287 704.805 446.071 704.805 454.028 703.615C462.032 702.425 472.432 703.389 480.005 703.615C487.579 703.843 501.958 704.352 508.38 703.615C514.755 702.878 543.512 704.805 554.297 706.735C565.081 708.606 575.481 711.442 581.473 711.442C587.465 711.442 601.411 711.442 617.421 704.693C633.38 698.002 636.974 700.1 651.738 698.626C666.548 697.15 680.112 701.063 693.293 698.626C706.472 696.188 740.025 699.135 749.995 698.626C760.011 698.114 774.39 697.717 797.54 698.626C820.69 699.532 824.717 699.647 834.302 698.626C843.888 697.606 873.029 697.264 885.826 695.393C898.575 693.464 911.757 697.717 921.774 698.626C931.743 699.532 962.084 694.428 973.059 695.846C973.299 695.905 973.588 695.905 973.874 695.96C985.234 697.094 1009.06 693.464 1019.22 692.613C1029.62 691.765 1069.16 698.229 1075.92 693.863C1082.73 689.553 1098.68 697.717 1116.66 699.306C1134.63 700.836 1147.82 701.971 1157.83 699.306C1167.8 696.584 1216.11 699.135 1222.11 699.306C1228.1 699.418 1252.88 701.971 1262.08 701.971C1271.23 701.971 1298.79 701.971 1313.17 701.518C1327.55 701.063 1369.49 696.299 1383.1 694.428C1396.67 692.557 1400.64 695.846 1417.42 698.908C1434.19 701.915 1453.8 700.553 1470.14 701.801C1486.53 703.048 1485.72 701.971 1501.73 703.899C1517.69 705.77 1524.49 704.352 1533.27 700.553C1539.21 698.002 1549.28 698.908 1555.07 699.759Z" fill="#4F3F3F"/>
<path d="M1555.06 674.297V699.758C1549.26 698.907 1539.19 698.001 1533.25 700.552C1524.48 704.351 1517.67 705.769 1501.71 703.898C1485.7 701.968 1486.52 703.047 1470.13 701.8C1453.78 700.552 1434.18 701.912 1417.4 698.907C1400.63 695.845 1396.65 692.556 1383.09 694.427C1369.48 696.298 1327.54 701.062 1313.16 701.517C1298.78 701.968 1271.22 701.968 1262.06 701.968C1252.86 701.968 1228.08 699.417 1222.09 699.305C1216.1 699.134 1167.79 696.583 1157.82 699.305C1147.8 701.968 1134.62 700.835 1116.64 699.305C1098.67 697.716 1082.71 689.552 1075.91 693.859C1069.15 698.226 1029.61 691.762 1019.2 692.612C1009.04 693.463 985.227 697.093 973.867 695.957C985.706 693.124 999.031 689.325 1003.63 687.169C1010 684.221 1029.99 685.469 1039.19 686.887C1048.35 688.304 1068.33 684.504 1079.93 684.504C1091.48 684.504 1099.87 684.051 1113.05 681.67C1126.23 679.287 1167.79 672.709 1180.58 671.291C1188.92 670.385 1195.39 668.229 1203.06 666.472C1207.09 665.507 1211.45 664.656 1216.53 664.203C1231.29 662.785 1230.48 667.945 1250.08 669.137C1269.64 670.328 1270.45 672.709 1283.2 672.709C1296 672.709 1303.19 678.834 1312.39 674.58C1321.54 670.328 1338.32 671.291 1338.32 671.291C1338.32 671.291 1353.9 666.527 1362.29 664.656C1370.67 662.785 1372.3 667.039 1376.66 666.074C1381.07 665.111 1393.06 659.441 1399.43 659.441C1405.86 659.441 1415.44 665.111 1421.43 666.074C1427.42 667.039 1438.98 659.441 1446.98 659.441C1454.98 659.441 1461.74 662.785 1466.96 662.785C1472.14 662.785 1486.14 664.656 1508.47 665.621C1530.85 666.527 1534.07 672.199 1553.33 674.127L1555.06 674.297Z" fill="#4F3F3F"/>
<path d="M1555.07 644.979V674.297L1553.34 674.126C1534.08 672.199 1530.88 666.53 1508.48 665.621C1486.14 664.659 1472.15 662.787 1466.97 662.787C1461.75 662.787 1454.99 659.44 1446.99 659.44C1438.98 659.44 1427.43 667.039 1421.44 666.074C1415.45 665.112 1405.86 659.44 1399.44 659.44C1393.07 659.44 1381.1 665.112 1376.68 666.074C1372.32 667.039 1370.69 662.787 1362.31 664.659C1353.92 666.53 1338.33 671.292 1338.33 671.292C1338.33 671.292 1321.57 670.328 1312.41 674.582C1303.21 678.833 1296.01 672.708 1283.21 672.708C1270.46 672.708 1269.65 670.328 1250.09 669.136C1230.49 667.948 1231.31 662.787 1216.55 664.203C1211.47 664.659 1207.1 665.508 1203.07 666.473C1196.12 663.07 1186.16 658.306 1183.39 657.115C1178.97 655.188 1168.61 650.481 1162.19 647.192C1158.26 645.15 1152.12 643.45 1146.38 641.919C1168.61 640.728 1212.04 638.459 1221.72 638.459C1234.9 638.459 1232.51 646.229 1257.67 638.459C1282.84 630.633 1296.01 627.118 1307.99 630.633C1319.97 634.15 1321.8 637.042 1342.12 635.964C1362.54 634.887 1357.74 639.877 1381.71 635.964C1405.67 632.051 1441.63 627.176 1448.82 629.274C1456.01 631.316 1479.35 632.051 1488.93 632.051C1498.52 632.051 1519.46 639.139 1535.08 642.655C1540.83 644.017 1547.98 644.755 1555.07 644.979Z" fill="#4F3F3F"/>
<path d="M603.708 675.261C587.029 676.906 566.658 677.303 561.866 677.87C553.909 678.835 538.715 681.669 524.721 680.706C510.774 679.798 503.583 682.066 490.786 680.933C477.989 679.798 444.869 678.948 436.481 681.216C428.094 683.54 417.31 677.53 403.313 681.216C389.319 684.958 352.604 687.341 345.797 686.885C338.993 686.376 329.838 685.073 320.634 686.944C311.432 688.759 305.057 689.721 291.493 689.721C277.881 689.721 263.935 688.303 260.34 689.721C258.373 690.516 248.454 693.861 237.861 697.206H237.813C233.642 697.035 228.226 696.98 217.97 698.227C198.031 700.551 199.229 697.264 178.858 701.969C167.259 704.693 153.888 707.129 142.145 709.795H142C124.793 709.965 96.8021 712.178 88.4631 712.178C78.3021 712.178 49.2561 711.781 36.3641 709.965C23.4701 708.094 -10.6559 708.945 -23.5489 704.693C-36.4419 700.439 -58.5849 710.022 -74.7859 710.701C-84.8029 711.157 -102.585 713.199 -114.711 714.672V637.723H-53.2169C-32.8469 637.723 -16.0719 632.051 -0.494942 637.723C15.0831 643.393 -0.494934 637.723 35.4531 637.723C71.4001 637.723 82.1851 628.423 107.347 635.228C132.511 641.977 186.432 636.646 208 636.476C229.569 636.305 246.344 625.305 283.489 636.476C320.634 647.647 349.392 637.099 382.942 640.218C416.495 643.393 422.485 634.434 438.064 641.748C453.64 649.065 470.416 644.811 493.183 647.647C515.949 650.483 513.793 652.636 561.481 663.637C591.054 670.442 595.464 673.222 603.708 675.261Z" fill="#403333"/>
<path d="M1203.07 666.475C1195.4 668.232 1188.93 670.388 1180.59 671.294C1167.79 672.712 1126.23 679.288 1113.05 681.671C1099.87 684.054 1091.48 684.507 1079.93 684.507C1068.34 684.507 1048.35 688.305 1039.19 686.888C1029.99 685.472 1010 684.222 1003.63 687.172C999.033 689.327 985.708 693.125 973.869 695.96C973.582 695.905 973.296 695.905 973.054 695.849C962.079 694.431 931.738 699.533 921.769 698.626C911.752 697.72 898.57 693.466 885.821 695.393C873.024 697.264 843.883 697.606 834.297 698.626C824.713 699.647 820.685 699.533 797.537 698.626C774.385 697.72 760.007 698.115 749.989 698.626C740.02 699.135 706.467 696.188 693.288 698.626C680.107 701.065 666.543 697.152 651.733 698.626C636.969 700.1 633.375 698.002 617.416 704.693C601.406 711.442 587.46 711.442 581.468 711.442C575.478 711.442 565.076 708.606 554.292 706.735C543.507 704.807 514.75 702.88 508.375 703.616C501.953 704.354 487.573 703.843 480.002 703.616C472.427 703.389 462.027 702.425 454.023 703.616C446.067 704.807 435.282 704.807 422.485 703.616C409.688 702.483 401.299 698.229 389.317 701.971C377.336 705.772 366.167 703.389 350.972 703.616C335.828 703.899 327.008 702.483 317.422 701.971C307.835 701.518 285.884 700.1 276.682 700.1C267.527 700.1 259.523 695.393 249.554 696.811C244.714 697.491 241.836 697.264 237.859 697.208C248.452 693.863 258.373 690.518 260.338 689.723C263.933 688.305 277.88 689.723 291.491 689.723C305.055 689.723 311.43 688.759 320.634 686.946C329.836 685.073 338.99 686.378 345.798 686.888C352.602 687.343 389.317 684.96 403.314 681.218C417.308 677.532 428.092 683.542 436.48 681.218C444.869 678.95 477.987 679.8 490.784 680.935C503.583 682.068 510.772 679.8 524.719 680.706C538.715 681.671 553.907 678.837 561.864 677.872C566.656 677.305 587.027 676.908 603.706 675.263C614.827 674.186 624.364 672.486 626.57 669.876C632.177 663.242 633.759 668.912 642.962 664.206C652.166 659.444 656.526 662.788 662.517 659.444C668.507 656.155 683.319 658.991 696.068 662.788C708.865 666.531 743.998 663.242 753.585 659.444C763.169 655.699 769.593 653.319 784.355 646.74C799.117 640.22 801.944 643.395 817.905 639.596C833.867 635.854 840.289 638.178 849.443 636.307C858.645 634.436 885.821 639.143 892.196 639.143C898.57 639.143 906.96 630.182 914.58 625.078C922.154 619.976 935.717 630.182 938.113 632.053C940.509 633.924 956.902 634.436 964.473 637.272C972.095 640.106 976.458 642.43 982.45 641.524C988.439 640.559 992.466 635.854 1000.85 630.182C1009.24 624.512 1015.23 627.348 1020.02 625.477C1024.81 623.604 1031.19 628.255 1039.96 633.471C1048.78 638.69 1045.57 634.436 1054.34 634.436C1063.16 634.436 1061.96 634.436 1073.13 631.091C1084.29 627.801 1085.92 627.801 1095.51 625.93C1105.1 624.001 1113.49 628.764 1119.86 632.506C1126.23 636.307 1129.83 636.76 1136.63 639.143C1139.27 640.049 1142.72 640.956 1146.32 641.92H1146.36C1152.12 643.451 1158.25 645.154 1162.18 647.194C1168.6 650.483 1178.96 655.19 1183.37 657.117C1186.15 658.308 1196.12 663.072 1203.07 666.475Z" fill="#5E4B4B"/>
<path d="M1555.06 719.66V777.102C1211.08 796.442 923.882 807.429 400.766 777.102C432.639 770.695 478.314 760.373 491.352 760.373H583.664C592.771 760.373 609.499 760.374 624.598 759.297C632.361 758.788 639.694 757.992 645.349 756.802C662.125 753.229 706.46 749.714 720.17 746.878C733.877 744.042 789.14 741.888 807.114 741.888C825.087 741.888 847.278 734.857 855.043 732.703C862.809 730.548 902.397 729.187 920.947 733.383C939.496 737.693 953.873 731.285 965.282 729.867C976.69 728.449 995.861 728.448 1004.82 726.521C1013.79 724.594 1034.78 732.022 1047.96 731.284C1061.14 730.547 1082.71 733.383 1101.31 734.857C1119.86 736.219 1121.05 738.373 1134.86 734.857C1148.61 731.285 1168.98 728.449 1180.39 727.714C1191.75 727.031 1206.13 727.714 1222.9 727.714C1239.68 727.714 1245.09 727.03 1273.23 720.454C1301.37 713.82 1297.19 721.361 1318.14 717.222C1339.13 713.025 1358.88 724.198 1379.3 719.037C1399.62 713.877 1440.99 721.362 1452.34 719.605C1463.75 717.902 1495.48 720.681 1516.47 719.943C1528.12 719.546 1543.55 719.604 1555.06 719.66Z" fill="#403333"/>
<path d="M-98.8203 896.466C-98.8203 896.466 57.1797 892.466 165.18 915.466C273.18 938.466 345.18 944.466 416.18 932.466C487.18 920.466 595.18 948.466 595.18 948.466C595.18 948.466 315.18 958.466 294.18 968.466C294.18 968.466 356.18 982.466 437.18 983.466C518.18 984.466 615.18 1002.46 680.18 1000.46C745.18 998.466 871.18 1032.46 871.18 1032.46H-96.9793L-98.8203 896.466Z" fill="#2B2222"/>
<path d="M-14.8193 919.246C31.5732 919.246 69.1817 917.215 69.1817 914.709C69.1817 912.203 31.5732 910.172 -14.8193 910.172C-61.2118 910.172 -98.8203 912.203 -98.8203 914.709C-98.8203 917.215 -61.2118 919.246 -14.8193 919.246Z" fill="#151111"/>
<path fill-rule="evenodd" clip-rule="evenodd" d="M-9.55294 905.227C-8.69694 906.149 16.0171 907.921 32.8461 905.538C37.4171 904.891 48.1201 911.795 49.8511 910.133C51.5821 908.471 49.5711 908.159 47.7561 907.143C45.9411 906.128 51.8791 908.807 51.8931 907.867C51.9071 906.927 52.6241 903.552 50.4651 902.77C48.3061 901.987 35.0611 896.428 33.3991 896.298C31.7381 896.168 30.8251 898.586 29.9451 898.566C29.2281 898.55 12.7241 896.09 6.15406 897.5C4.75206 897.801 -17.2109 895.172 -17.2109 895.172L-9.55294 905.227Z" fill="url(#paint1_linear_698_16948)"/>
<path fill-rule="evenodd" clip-rule="evenodd" d="M1.70487 911.249C2.56087 912.171 27.2749 913.943 44.1029 911.56C48.6749 910.913 59.3779 917.817 61.1089 916.155C62.8399 914.494 60.8289 914.181 59.0139 913.165C57.1979 912.15 63.1369 914.83 63.1509 913.889C63.1639 912.949 63.8819 909.574 61.7229 908.792C59.5639 908.009 46.3189 902.45 44.6569 902.32C42.9949 902.191 42.0829 904.608 41.2019 904.589C40.4859 904.573 23.9819 902.113 17.4119 903.522C16.0099 903.823 -5.95312 901.195 -5.95312 901.195L1.70487 911.249Z" fill="url(#paint2_linear_698_16948)"/>
<path fill-rule="evenodd" clip-rule="evenodd" d="M-25.7344 894.375C-25.7344 894.375 -15.4794 894.341 -10.0754 895.744C-4.67038 897.147 4.51663 907.547 11.8456 907.845C19.1746 908.143 24.5406 908.773 25.0406 911.331C25.5406 913.889 25.0406 914.004 25.0406 914.004L-12.4664 914.201L-25.7344 894.375Z" fill="#FFE0BE"/>
<path fill-rule="evenodd" clip-rule="evenodd" d="M-62.4711 893.133C-62.4711 893.133 -59.0341 889.287 -53.0431 890.149C-47.0521 891.011 -42.9581 894.692 -39.9651 894.668C-36.9711 894.644 -37.2291 892.789 -35.3711 893.735C-33.5121 894.682 -32.8121 892.447 -31.3781 893.226C-29.9441 894.005 -26.6291 891.164 -24.9341 892.482C-23.2391 893.801 -13.3651 904.73 -5.02306 905.117C3.31994 905.505 0.0559387 908.809 0.0559387 908.809C0.0559387 908.809 -4.16507 915.247 -12.5401 914.189C-20.9151 913.13 -46.9161 913.424 -46.9161 913.424L-66.6481 911.528C-79.1491 914.736 -71.8601 904.64 -62.4711 893.133Z" fill="url(#paint3_linear_698_16948)"/>
<path fill-rule="evenodd" clip-rule="evenodd" d="M-1.81825 912.277C-1.81825 912.277 -0.98525 912.886 0.48475 912.345C1.95375 911.803 2.59475 912.391 3.06675 912.068C3.56475 911.726 3.10675 910.946 2.43075 910.747C1.75475 910.548 -4.40625 910.375 -4.40625 910.375L-1.81825 912.277Z" fill="#415024"/>
<path fill-rule="evenodd" clip-rule="evenodd" d="M4.34487 914.741C4.34487 914.741 6.09887 910.834 5.46387 910.47C4.94687 910.173 3.69787 910.936 2.79987 913.795C1.90187 916.653 4.34487 914.741 4.34487 914.741Z" fill="#415024"/>
<path fill-rule="evenodd" clip-rule="evenodd" d="M-44.8433 914.178C-39.7583 914.445 -35.8453 914.47 -29.8843 913.947C-23.9233 913.423 -11.1633 914.031 -6.74225 914.951C-2.32125 915.872 1.29475 918.21 4.17775 916.354C7.06175 914.497 8.84675 911.762 7.70375 910.835C6.82775 910.124 5.85175 912.916 4.15175 913.658C2.45075 914.401 -1.46625 910.595 -3.50925 910.401C-5.55225 910.207 -47.7622 902.651 -49.9502 907.973C-52.1392 913.295 -47.4453 914.041 -44.8433 914.178Z" fill="#5A6E32"/>
<path d="M1433.5 928.375C1479.89 928.375 1517.5 926.343 1517.5 923.838C1517.5 921.332 1479.89 919.301 1433.5 919.301C1387.11 919.301 1349.5 921.332 1349.5 923.838C1349.5 926.343 1387.11 928.375 1433.5 928.375Z" fill="#3D1E00"/>
<path fill-rule="evenodd" clip-rule="evenodd" d="M1428.23 914.356C1427.37 915.278 1402.66 917.049 1385.83 914.667C1381.26 914.02 1370.56 920.923 1368.82 919.262C1367.09 917.6 1369.1 917.288 1370.92 916.272C1372.73 915.256 1366.8 917.936 1366.78 916.996C1366.77 916.056 1366.05 912.681 1368.21 911.898C1370.37 911.115 1383.61 905.557 1385.28 905.427C1386.94 905.297 1387.85 907.715 1388.73 907.695C1389.45 907.679 1405.95 905.219 1412.52 906.628C1413.92 906.929 1435.88 904.301 1435.88 904.301L1428.23 914.356Z" fill="url(#paint4_linear_698_16948)"/>
<path fill-rule="evenodd" clip-rule="evenodd" d="M1416.97 920.379C1416.12 921.301 1391.4 923.072 1374.57 920.69C1370 920.043 1359.3 926.947 1357.57 925.285C1355.84 923.623 1357.85 923.311 1359.66 922.295C1361.48 921.279 1355.54 923.959 1355.53 923.019C1355.51 922.079 1354.8 918.704 1356.95 917.921C1359.11 917.139 1372.36 911.58 1374.02 911.45C1375.68 911.32 1376.59 913.738 1377.47 913.718C1378.19 913.702 1394.69 911.242 1401.27 912.652C1402.67 912.952 1424.63 910.324 1424.63 910.324L1416.97 920.379Z" fill="url(#paint5_linear_698_16948)"/>
<path fill-rule="evenodd" clip-rule="evenodd" d="M1444.41 903.504C1444.41 903.504 1434.15 903.47 1428.75 904.873C1423.34 906.275 1414.15 916.676 1406.83 916.974C1399.5 917.272 1394.13 917.902 1393.63 920.46C1393.13 923.017 1393.63 923.132 1393.63 923.132L1431.14 923.329L1444.41 903.504Z" fill="#FFE0BE"/>
<path fill-rule="evenodd" clip-rule="evenodd" d="M1481.15 902.262C1481.15 902.262 1477.71 898.416 1471.72 899.279C1465.73 900.141 1461.63 903.821 1458.64 903.798C1455.65 903.774 1455.91 901.919 1454.05 902.865C1452.19 903.811 1451.49 901.576 1450.05 902.356C1448.62 903.135 1445.31 900.294 1443.61 901.612C1441.92 902.93 1432.04 913.86 1423.7 914.247C1415.36 914.635 1418.62 917.939 1418.62 917.939C1418.62 917.939 1422.84 924.377 1431.22 923.319C1439.59 922.26 1465.59 922.554 1465.59 922.554L1485.33 920.657C1497.83 923.866 1490.54 913.77 1481.15 902.262Z" fill="url(#paint6_linear_698_16948)"/>
<path fill-rule="evenodd" clip-rule="evenodd" d="M1420.5 921.406C1420.5 921.406 1419.66 922.015 1418.19 921.473C1416.72 920.932 1416.08 921.52 1415.61 921.196C1415.11 920.855 1415.57 920.075 1416.25 919.876C1416.92 919.676 1423.08 919.504 1423.08 919.504L1420.5 921.406Z" fill="#415024"/>
<path fill-rule="evenodd" clip-rule="evenodd" d="M1414.33 923.867C1414.33 923.867 1412.58 919.959 1413.21 919.595C1413.73 919.299 1414.98 920.061 1415.87 922.92C1416.77 925.779 1414.33 923.867 1414.33 923.867Z" fill="#415024"/>
<path fill-rule="evenodd" clip-rule="evenodd" d="M1463.52 923.306C1458.43 923.573 1454.52 923.599 1448.56 923.075C1442.6 922.552 1429.84 923.16 1425.42 924.08C1421 925 1417.38 927.339 1414.5 925.483C1411.62 923.626 1409.83 920.891 1410.97 919.964C1411.85 919.253 1412.83 922.045 1414.53 922.787C1416.23 923.529 1420.14 919.724 1422.19 919.53C1424.23 919.336 1466.44 911.78 1468.63 917.102C1470.82 922.423 1466.12 923.17 1463.52 923.306Z" fill="#5A6E32"/>
<path d="M169.208 997.727C340.881 997.727 480.049 991.14 480.049 983.014C480.049 974.888 340.881 968.301 169.208 968.301C-2.46455 968.301 -141.633 974.888 -141.633 983.014C-141.633 991.14 -2.46455 997.727 169.208 997.727Z" fill="#151111"/>
<path fill-rule="evenodd" clip-rule="evenodd" d="M113.72 952.261C110.943 955.252 30.7921 960.997 -23.7879 953.27C-38.6129 951.172 -73.3269 973.562 -78.9409 968.172C-84.5549 962.783 -78.0319 961.77 -72.1449 958.476C-66.2579 955.182 -85.5189 963.873 -85.5629 960.824C-85.6069 957.774 -87.9349 946.829 -80.9319 944.291C-73.9289 941.752 -30.9729 923.724 -25.5839 923.303C-20.1949 922.882 -17.2359 930.722 -14.3799 930.659C-12.0549 930.607 41.4711 922.629 62.7791 927.2C67.3271 928.175 138.556 919.652 138.556 919.652L113.72 952.261Z" fill="url(#paint7_linear_698_16948)"/>
<path fill-rule="evenodd" clip-rule="evenodd" d="M463.712 976.145C463.712 976.145 465.987 974.826 469.567 976.593C473.147 978.359 474.929 977.041 476.038 977.988C477.208 978.987 475.839 980.841 474.071 981.165C472.304 981.488 456.641 980.273 456.641 980.273L463.712 976.145Z" fill="#415024"/>
<path fill-rule="evenodd" clip-rule="evenodd" d="M480.005 971.563C480.005 971.563 483.402 981.938 481.694 982.69C480.304 983.303 477.342 981.035 475.833 973.547C474.325 966.059 480.005 971.563 480.005 971.563Z" fill="#415024"/>
<path fill-rule="evenodd" clip-rule="evenodd" d="M355.151 959.783C368.114 960.471 378.04 961.456 393.01 964.383C407.98 967.31 440.487 969.194 451.942 968.048C463.396 966.902 473.188 961.944 480 967.424C486.811 972.904 490.603 980.316 487.457 982.36C485.046 983.927 483.321 976.588 479.209 974.25C475.098 971.912 464.146 980.507 458.916 980.451C453.686 980.394 344.658 988.217 340.539 974.14C336.42 960.063 348.518 959.431 355.151 959.783Z" fill="#5A6E32"/>
<path fill-rule="evenodd" clip-rule="evenodd" d="M77.2122 971.793C74.4342 974.784 -5.71675 980.529 -60.2958 972.802C-75.1218 970.704 -109.836 993.094 -115.449 987.704C-121.063 982.315 -114.54 981.302 -108.653 978.008C-102.766 974.714 -122.027 983.405 -122.071 980.356C-122.115 977.306 -124.443 966.361 -117.44 963.823C-110.438 961.284 -67.4818 943.256 -62.0918 942.835C-56.7028 942.414 -53.7438 950.254 -50.8877 950.191C-48.5628 950.139 4.96326 942.161 26.2713 946.732C30.8193 947.707 102.047 939.184 102.047 939.184L77.2122 971.793Z" fill="url(#paint8_linear_698_16948)"/>
<path fill-rule="evenodd" clip-rule="evenodd" d="M166.192 917.059C166.192 917.059 132.933 916.951 115.405 921.5C97.8773 926.049 68.0793 959.779 44.3093 960.746C20.5403 961.712 3.13732 963.757 1.51732 972.052C-0.103681 980.347 1.51732 980.72 1.51732 980.72L123.16 981.359L166.192 917.059Z" fill="#FFE0BE"/>
<path fill-rule="evenodd" clip-rule="evenodd" d="M285.352 913.035C285.352 913.035 274.204 900.562 254.774 903.358C235.344 906.155 222.068 918.091 212.359 918.014C202.65 917.937 203.488 911.921 197.46 914.99C191.433 918.059 189.16 910.81 184.509 913.338C179.858 915.865 169.106 906.651 163.61 910.926C158.114 915.201 126.091 950.648 99.0336 951.905C71.9776 953.161 82.5636 963.879 82.5636 963.879C82.5636 963.879 96.2516 984.758 123.415 981.325C150.578 977.892 234.904 978.845 234.904 978.845L320.208 972.642L285.352 913.035Z" fill="url(#paint9_linear_698_16948)"/>
<path fill-rule="evenodd" clip-rule="evenodd" d="M229.496 944.902C229.496 944.902 199.736 962.254 197.932 969.57C196.129 976.885 199.273 982.291 211.347 979.979C223.422 977.666 241.142 968.608 241.142 968.608L229.496 944.902Z" fill="url(#paint10_linear_698_16948)"/>
<path fill-rule="evenodd" clip-rule="evenodd" d="M268.292 962.52C259.781 965.34 237.71 972.695 237.71 972.695L221.195 945.431C221.195 945.431 280.156 911.428 288.38 937.213C292.443 949.949 280.839 958.362 268.292 962.52Z" fill="#FFF6EC"/>
<path fill-rule="evenodd" clip-rule="evenodd" d="M391.397 922.851C391.326 912.422 385.424 891.438 365.163 883.775C332.651 871.477 347.269 918.405 363.216 927.296C367.088 929.455 372.71 943.692 375.838 944.188C384.07 945.493 391.484 935.777 391.397 922.851Z" fill="#768951"/>
<path fill-rule="evenodd" clip-rule="evenodd" d="M368.629 912.528C368.629 912.528 379.989 890.496 355.025 878.144C330.06 865.791 319.39 885.174 319.39 885.174C319.39 885.174 266.36 874.649 272.726 929.268C277.563 970.77 372.506 1013.12 378.54 943.42C378.54 943.42 358.522 924.593 368.629 912.528Z" fill="url(#paint11_linear_698_16948)"/>
<path d="M378.5 944.504C378.5 944.504 363 942.504 360.5 932.004" stroke="black" stroke-width="0.5" stroke-linecap="round"/>
<path fill-rule="evenodd" clip-rule="evenodd" d="M358.664 976.501C338.172 969.728 326.421 968.517 303.562 959.328C297.296 956.81 296.427 940.823 308.982 945.755C329.614 953.86 347.375 956.062 365.507 967.966C370.981 971.56 362.558 977.788 358.664 976.501Z" fill="#AF4F41"/>
<path fill-rule="evenodd" clip-rule="evenodd" d="M363.607 975.129C364.265 975.415 365.042 975.107 365.342 974.443C365.641 973.778 365.351 973.007 364.694 972.721C364.694 972.721 324.437 955.251 305.923 951.861C305.216 951.732 304.523 952.204 304.378 952.916C304.233 953.627 304.689 954.31 305.397 954.44C323.737 957.797 363.607 975.129 363.607 975.129Z" fill="#78362D"/>
<path fill-rule="evenodd" clip-rule="evenodd" d="M368.633 912.527C368.633 912.527 371.585 924.143 360.759 936.674C360.759 936.674 337.062 927.623 327.773 914.457C339.679 922.016 360.77 918.85 368.633 912.527Z" fill="#EAEAEA"/>
<path fill-rule="evenodd" clip-rule="evenodd" d="M351.817 918.485C351.169 922.01 352.506 925.565 355.343 927.141C358.868 929.099 363.382 927.266 365.417 923.05C366.793 920.2 366.687 916.987 365.385 914.598C361.788 916.453 356.976 917.846 351.817 918.485Z" fill="black"/>
<path fill-rule="evenodd" clip-rule="evenodd" d="M321.468 979.309C321.468 979.309 323.743 977.99 327.323 979.757C330.903 981.524 332.685 980.205 333.794 981.152C334.964 982.151 333.595 984.006 331.827 984.329C330.06 984.653 314.398 983.437 314.398 983.437L321.468 979.309Z" fill="#415024"/>
<path fill-rule="evenodd" clip-rule="evenodd" d="M337.755 974.727C337.755 974.727 341.152 985.102 339.444 985.855C338.054 986.467 335.092 984.199 333.583 976.711C332.075 969.223 337.755 974.727 337.755 974.727Z" fill="#415024"/>
<path fill-rule="evenodd" clip-rule="evenodd" d="M212.91 962.947C225.872 963.635 235.798 964.621 250.768 967.547C265.738 970.474 298.246 972.359 309.7 971.213C321.154 970.066 330.946 965.108 337.758 970.588C344.569 976.068 348.361 983.481 345.215 985.525C342.804 987.091 341.079 979.752 336.968 977.414C332.856 975.076 321.905 983.671 316.674 983.615C311.444 983.558 202.416 991.381 198.297 977.304C194.178 963.227 206.276 962.595 212.91 962.947Z" fill="#5A6E32"/>
<path d="M1217.62 915.344C1287.93 915.344 1344.92 912.529 1344.92 909.057C1344.92 905.584 1287.93 902.77 1217.62 902.77C1147.31 902.77 1090.31 905.584 1090.31 909.057C1090.31 912.529 1147.31 915.344 1217.62 915.344Z" fill="#1C1616"/>
<path fill-rule="evenodd" clip-rule="evenodd" d="M1246.86 895.915C1248.05 897.193 1282.3 899.648 1305.62 896.346C1311.96 895.449 1326.79 905.017 1329.19 902.714C1331.59 900.411 1328.8 899.978 1326.29 898.57C1323.77 897.163 1332 900.877 1332.02 899.574C1332.04 898.271 1333.03 893.594 1330.04 892.509C1327.05 891.424 1308.69 883.72 1306.39 883.54C1304.09 883.36 1302.82 886.711 1301.6 886.684C1300.61 886.662 1277.74 883.252 1268.63 885.205C1266.69 885.622 1236.25 881.98 1236.25 881.98L1246.86 895.915Z" fill="url(#paint12_linear_698_16948)"/>
<path fill-rule="evenodd" clip-rule="evenodd" d="M1097.3 906.124C1097.3 906.124 1096.33 905.561 1094.8 906.316C1093.27 907.071 1092.51 906.507 1092.03 906.912C1091.53 907.339 1092.12 908.131 1092.87 908.269C1093.63 908.408 1100.32 907.888 1100.32 907.888L1097.3 906.124Z" fill="#415024"/>
<path fill-rule="evenodd" clip-rule="evenodd" d="M1090.34 904.165C1090.34 904.165 1088.89 908.599 1089.62 908.92C1090.21 909.182 1091.48 908.213 1092.12 905.013C1092.77 901.813 1090.34 904.165 1090.34 904.165Z" fill="#415024"/>
<path fill-rule="evenodd" clip-rule="evenodd" d="M1143.69 899.129C1138.15 899.423 1133.91 899.844 1127.51 901.095C1121.12 902.346 1107.22 903.151 1102.33 902.661C1097.43 902.171 1093.25 900.053 1090.34 902.394C1087.43 904.736 1085.81 907.904 1087.15 908.777C1088.18 909.446 1088.92 906.31 1090.68 905.311C1092.43 904.312 1097.11 907.985 1099.35 907.961C1101.58 907.937 1148.17 911.28 1149.93 905.264C1151.69 899.249 1146.53 898.978 1143.69 899.129Z" fill="#5A6E32"/>
<path fill-rule="evenodd" clip-rule="evenodd" d="M1262.46 904.263C1263.65 905.541 1297.9 907.996 1321.22 904.694C1327.56 903.797 1342.39 913.365 1344.79 911.062C1347.19 908.759 1344.4 908.326 1341.89 906.919C1339.37 905.511 1347.6 909.225 1347.62 907.922C1347.64 906.619 1348.63 901.942 1345.64 900.857C1342.65 899.772 1324.29 892.068 1321.99 891.888C1319.69 891.708 1318.42 895.059 1317.2 895.032C1316.21 895.01 1293.34 891.6 1284.23 893.553C1282.29 893.97 1251.85 890.328 1251.85 890.328L1262.46 904.263Z" fill="url(#paint13_linear_698_16948)"/>
<path fill-rule="evenodd" clip-rule="evenodd" d="M1224.44 880.871C1224.44 880.871 1238.65 880.824 1246.14 882.768C1253.63 884.712 1266.36 899.126 1276.52 899.539C1286.68 899.952 1294.12 900.826 1294.81 904.371C1295.5 907.915 1294.81 908.075 1294.81 908.075L1242.83 908.347L1224.44 880.871Z" fill="#FFE0BE"/>
<path fill-rule="evenodd" clip-rule="evenodd" d="M1173.52 879.153C1173.52 879.153 1178.28 873.823 1186.59 875.018C1194.89 876.213 1200.56 881.314 1204.71 881.281C1208.86 881.248 1208.5 878.677 1211.08 879.988C1213.65 881.3 1214.62 878.202 1216.61 879.282C1218.6 880.362 1223.19 876.425 1225.54 878.252C1227.89 880.078 1241.58 895.226 1253.14 895.763C1264.7 896.3 1260.17 900.88 1260.17 900.88C1260.17 900.88 1254.33 909.802 1242.72 908.335C1231.11 906.868 1195.08 907.275 1195.08 907.275L1158.62 904.624L1173.52 879.153Z" fill="url(#paint14_linear_698_16948)"/>
<path fill-rule="evenodd" clip-rule="evenodd" d="M1197.39 892.77C1197.39 892.77 1210.11 900.185 1210.88 903.311C1211.65 906.437 1210.3 908.747 1205.14 907.759C1199.98 906.771 1192.41 902.9 1192.41 902.9L1197.39 892.77Z" fill="url(#paint15_linear_698_16948)"/>
<path fill-rule="evenodd" clip-rule="evenodd" d="M1180.81 900.302C1184.45 901.507 1193.88 904.65 1193.88 904.65L1200.93 892.999C1200.93 892.999 1175.74 878.469 1172.23 889.487C1170.49 894.93 1175.45 898.525 1180.81 900.302Z" fill="#FFF6EC"/>
<path fill-rule="evenodd" clip-rule="evenodd" d="M1128.2 883.348C1128.23 878.891 1130.76 869.924 1139.41 866.65C1153.31 861.394 1147.06 881.448 1140.24 885.248C1138.59 886.17 1136.19 892.254 1134.85 892.466C1131.33 893.023 1128.16 888.871 1128.2 883.348Z" fill="#768951"/>
<path fill-rule="evenodd" clip-rule="evenodd" d="M1137.93 878.937C1137.93 878.937 1133.08 869.522 1143.74 864.244C1154.41 858.965 1158.97 867.248 1158.97 867.248C1158.97 867.248 1181.63 862.75 1178.91 886.091C1176.85 903.825 1136.27 921.926 1133.7 892.138C1133.7 892.138 1142.25 884.093 1137.93 878.937Z" fill="url(#paint16_linear_698_16948)"/>
<path fill-rule="evenodd" clip-rule="evenodd" d="M1142.19 906.275C1150.95 903.38 1155.97 902.863 1165.74 898.936C1168.41 897.86 1168.79 891.028 1163.42 893.136C1154.61 896.6 1147.02 897.54 1139.27 902.627C1136.93 904.163 1140.53 906.825 1142.19 906.275Z" fill="#AF4F41"/>
<path fill-rule="evenodd" clip-rule="evenodd" d="M1140.08 905.686C1139.8 905.808 1139.46 905.677 1139.34 905.393C1139.21 905.109 1139.33 904.779 1139.61 904.657C1139.61 904.657 1156.82 897.192 1164.73 895.743C1165.03 895.688 1165.33 895.89 1165.39 896.194C1165.45 896.498 1165.26 896.79 1164.95 896.845C1157.12 898.28 1140.08 905.686 1140.08 905.686Z" fill="#78362D"/>
<path fill-rule="evenodd" clip-rule="evenodd" d="M1158.09 907.476C1158.09 907.476 1157.11 906.912 1155.58 907.667C1154.05 908.422 1153.29 907.858 1152.82 908.263C1152.32 908.69 1152.9 909.482 1153.66 909.621C1154.41 909.759 1161.11 909.239 1161.11 909.239L1158.09 907.476Z" fill="#415024"/>
<path fill-rule="evenodd" clip-rule="evenodd" d="M1151.12 905.517C1151.12 905.517 1149.67 909.951 1150.4 910.273C1151 910.534 1152.26 909.565 1152.91 906.365C1153.55 903.165 1151.12 905.517 1151.12 905.517Z" fill="#415024"/>
<path fill-rule="evenodd" clip-rule="evenodd" d="M1204.48 900.48C1198.94 900.774 1194.69 901.195 1188.3 902.446C1181.9 903.697 1168.01 904.502 1163.12 904.012C1158.22 903.522 1154.04 901.404 1151.12 903.745C1148.21 906.087 1146.59 909.255 1147.94 910.128C1148.97 910.798 1149.7 907.661 1151.46 906.662C1153.22 905.663 1157.9 909.336 1160.13 909.312C1162.37 909.288 1208.96 912.631 1210.72 906.615C1212.48 900.6 1207.31 900.33 1204.48 900.48Z" fill="#5A6E32"/>
<path d="M119.993 884.472C166.386 884.472 203.994 882.441 203.994 879.935C203.994 877.43 166.386 875.398 119.993 875.398C73.6007 875.398 35.9922 877.43 35.9922 879.935C35.9922 882.441 73.6007 884.472 119.993 884.472Z" fill="#2B2222"/>
<path fill-rule="evenodd" clip-rule="evenodd" d="M114.727 870.453C113.87 871.375 89.1574 873.146 72.3284 870.764C67.7574 870.117 57.0544 877.021 55.3234 875.359C53.5924 873.697 55.6034 873.385 57.4184 872.369C59.2334 871.353 53.2954 874.033 53.2814 873.093C53.2674 872.153 52.5504 868.778 54.7094 867.995C56.8684 867.213 70.1135 861.654 71.7755 861.524C73.4365 861.394 74.3494 863.812 75.2294 863.792C75.9464 863.776 92.4504 861.316 99.0204 862.726C100.422 863.026 122.385 860.398 122.385 860.398L114.727 870.453Z" fill="url(#paint17_linear_698_16948)"/>
<path fill-rule="evenodd" clip-rule="evenodd" d="M200.846 864.282C200.846 864.282 206.27 858.201 202.875 853.129C199.48 848.057 194.593 848.977 194.593 848.977C194.593 848.977 196.831 843.421 191.729 839.581C186.635 835.748 181.16 842.251 181.16 842.251C181.16 842.251 170.52 840.993 165.565 854.185C161.638 864.639 176.192 879.572 184.704 879.196C190.268 878.95 200.163 874.285 200.846 864.282Z" fill="url(#paint18_linear_698_16948)"/>
<path fill-rule="evenodd" clip-rule="evenodd" d="M103.469 876.473C102.613 877.395 77.8992 879.167 61.0702 876.784C56.4992 876.137 45.7962 883.041 44.0652 881.379C42.3342 879.717 44.3452 879.405 46.1602 878.389C47.9752 877.373 42.0372 880.053 42.0232 879.113C42.0102 878.173 41.2922 874.798 43.4512 874.015C45.6102 873.233 58.8552 867.674 60.5172 867.544C62.1782 867.414 63.0912 869.832 63.9712 869.812C64.6882 869.796 81.1922 867.336 87.7622 868.746C89.1642 869.046 111.127 866.418 111.127 866.418L103.469 876.473Z" fill="url(#paint19_linear_698_16948)"/>
<path fill-rule="evenodd" clip-rule="evenodd" d="M130.903 859.598C130.903 859.598 120.648 859.564 115.244 860.967C109.839 862.37 100.651 872.77 93.3225 873.068C85.9935 873.366 80.6285 873.996 80.1285 876.554C79.6285 879.112 80.1285 879.227 80.1285 879.227L117.635 879.423L130.903 859.598Z" fill="#FFE0BE"/>
<path fill-rule="evenodd" clip-rule="evenodd" d="M167.648 858.355C167.648 858.355 164.211 854.509 158.22 855.372C152.229 856.234 148.135 859.914 145.142 859.891C142.148 859.867 142.406 858.012 140.548 858.958C138.689 859.904 137.989 857.67 136.555 858.449C135.121 859.228 131.805 856.387 130.111 857.705C128.416 859.023 118.542 869.953 110.2 870.34C101.857 870.728 105.121 874.032 105.121 874.032C105.121 874.032 109.342 880.47 117.717 879.412C126.092 878.353 152.093 878.647 152.093 878.647L171.825 876.75C184.326 879.959 177.037 869.863 167.648 858.355Z" fill="url(#paint20_linear_698_16948)"/>
<path fill-rule="evenodd" clip-rule="evenodd" d="M106.994 877.504C106.994 877.504 106.161 878.113 104.691 877.571C103.222 877.03 102.581 877.618 102.109 877.294C101.611 876.953 102.069 876.173 102.745 875.974C103.421 875.775 109.582 875.602 109.582 875.602L106.994 877.504Z" fill="#415024"/>
<path fill-rule="evenodd" clip-rule="evenodd" d="M100.828 879.964C100.828 879.964 99.0738 876.057 99.7088 875.692C100.226 875.396 101.475 876.158 102.373 879.017C103.271 881.876 100.828 879.964 100.828 879.964Z" fill="#415024"/>
<path fill-rule="evenodd" clip-rule="evenodd" d="M150.022 879.4C144.937 879.667 141.024 879.693 135.063 879.17C129.102 878.646 116.342 879.254 111.921 880.174C107.5 881.094 103.884 883.433 101.001 881.577C98.1167 879.72 96.3317 876.985 97.4747 876.058C98.3497 875.347 99.3267 878.139 101.027 878.881C102.728 879.623 106.645 875.818 108.688 875.624C110.73 875.43 152.941 867.874 155.129 873.196C157.318 878.517 152.624 879.264 150.022 879.4Z" fill="#5A6E32"/>
<path fill-rule="evenodd" clip-rule="evenodd" d="M162.557 878.744C159.506 879.09 151.592 880.001 151.592 880.001L147.977 869.701C147.977 869.701 170.131 862.458 171.071 871.678C171.536 876.232 167.055 878.235 162.557 878.744Z" fill="#FFF6EC"/>
<path d="M1440.18 1007.33C1574.32 1007.33 1683.07 1001.45 1683.07 994.208C1683.07 986.963 1574.32 981.09 1440.18 981.09C1306.03 981.09 1197.28 986.963 1197.28 994.208C1197.28 1001.45 1306.03 1007.33 1440.18 1007.33Z" fill="#2B2222"/>
<path fill-rule="evenodd" clip-rule="evenodd" d="M1455.41 966.788C1457.88 969.455 1529.34 974.577 1578.01 967.688C1591.22 965.817 1622.17 985.779 1627.18 980.974C1632.18 976.17 1626.37 975.266 1621.12 972.329C1615.87 969.392 1633.04 977.141 1633.08 974.423C1633.12 971.704 1635.2 961.946 1628.95 959.682C1622.71 957.419 1584.41 941.346 1579.61 940.97C1574.8 940.595 1572.16 947.585 1569.62 947.529C1567.55 947.483 1519.82 940.369 1500.83 944.444C1496.77 945.314 1433.27 937.715 1433.27 937.715L1455.41 966.788Z" fill="url(#paint21_linear_698_16948)"/>
<path fill-rule="evenodd" clip-rule="evenodd" d="M1206.38 948.951C1206.38 948.951 1190.7 931.365 1200.51 916.7C1210.33 902.034 1224.46 904.694 1224.46 904.694C1224.46 904.694 1217.99 888.629 1232.74 877.525C1247.47 866.44 1263.31 885.246 1263.31 885.246C1263.31 885.246 1294.07 881.606 1308.4 919.754C1319.75 949.982 1277.67 993.16 1253.06 992.073C1236.97 991.363 1208.36 977.875 1206.38 948.951Z" fill="url(#paint22_linear_698_16948)"/>
<path fill-rule="evenodd" clip-rule="evenodd" d="M1408.62 935.403C1408.62 935.403 1438.28 935.306 1453.9 939.362C1469.53 943.418 1496.1 973.49 1517.29 974.352C1538.48 975.214 1554 977.037 1555.44 984.433C1556.89 991.828 1555.44 992.161 1555.44 992.161L1446.99 992.73L1408.62 935.403Z" fill="#FFE0BE"/>
<path fill-rule="evenodd" clip-rule="evenodd" d="M1302.39 931.815C1302.39 931.815 1312.33 920.695 1329.65 923.188C1346.97 925.682 1358.81 936.324 1367.46 936.255C1376.12 936.186 1375.37 930.822 1380.75 933.558C1386.12 936.295 1388.15 929.832 1392.3 932.086C1396.44 934.339 1406.03 926.124 1410.93 929.935C1415.83 933.747 1444.38 965.351 1468.5 966.471C1492.62 967.592 1483.19 977.146 1483.19 977.146C1483.19 977.146 1470.98 995.762 1446.77 992.701C1422.55 989.64 1347.36 990.49 1347.36 990.49L1290.31 985.006C1254.16 994.283 1275.24 965.089 1302.39 931.815Z" fill="url(#paint23_linear_698_16948)"/>
<path fill-rule="evenodd" clip-rule="evenodd" d="M1353.36 992.671C1368.06 993.444 1379.38 993.517 1396.61 992.004C1413.85 990.49 1450.74 992.247 1463.53 994.908C1476.31 997.57 1486.77 1004.33 1495.1 998.964C1503.44 993.596 1508.6 985.687 1505.3 983.006C1502.77 980.951 1499.94 989.024 1495.03 991.17C1490.11 993.316 1478.78 982.312 1472.88 981.751C1466.97 981.19 1344.92 959.342 1338.59 974.73C1332.26 990.118 1345.83 992.276 1353.36 992.671Z" fill="#5A6E32"/>
<path fill-rule="evenodd" clip-rule="evenodd" d="M1317.1 990.774C1325.93 991.774 1348.81 994.407 1348.81 994.407L1359.26 964.625C1359.26 964.625 1295.2 943.681 1292.49 970.342C1291.14 983.511 1304.1 989.3 1317.1 990.774Z" fill="#FFF6EC"/>
<path fill-rule="evenodd" clip-rule="evenodd" d="M1004.39 984.055C1004.39 984.055 1028.06 974.224 1034.37 973.346C1040.69 972.469 1049.63 978.107 1053.86 979.892C1056.08 980.828 1064.34 984.068 1070.09 984.055C1075.84 984.042 1004.39 984.055 1004.39 984.055Z" fill="#4E3E3E"/>
</g>
<path d="M1140.41 888.993C1140.41 888.993 1137.37 893.06 1134 892.094" stroke="black" stroke-width="0.5" stroke-linecap="round"/>
<path d="M1148.41 884.993C1148.41 884.993 1145.37 889.06 1142 888.094" stroke="black" stroke-width="0.5" stroke-linecap="round"/>
<path d="M1140.8 696.94V729.734C1140.78 731.768 1140.45 740.323 1133.71 747.464C1128.2 753.296 1121.62 754.797 1119.32 755.214V806.155H1083.5V765.405C1081 765.027 1076.31 763.958 1071.71 760.464C1064.47 754.965 1062.5 747.297 1062 745.024V703.361L1063.2 702.584L1067.9 706.939L1073.89 702.584C1073.89 702.584 1074.22 699.395 1077.76 699.174C1081.3 698.953 1079.6 692.96 1079.6 692.96C1081.46 694.491 1082.87 696.635 1083.5 699.174V745.024C1084.05 746.383 1085.29 747.329 1086.71 747.464C1088.36 747.622 1089.98 746.638 1090.67 745.024V663.504C1091.41 657.183 1097.05 652.806 1102.71 653.464C1107.54 654.027 1111.6 658.181 1112.16 663.504V667.551L1107.71 674.023V697.718L1101.41 711.44L1104.52 717.523L1107.71 722.175L1112.16 718.588V729.734C1112.44 732.369 1114.83 733.937 1116.71 733.464C1118.13 733.107 1119.27 731.578 1119.32 729.734V697.719L1123.01 698.824L1127.64 700.39L1133.28 698.824L1138.34 696.94H1140.8Z" fill="#171212"/>
</g>
<defs>
<linearGradient id="paint0_linear_698_16948" x1="720.18" y1="430.851" x2="720.18" y2="-241.004" gradientUnits="userSpaceOnUse">
<stop stop-color="#391A1A"/>
<stop offset="1" stop-color="#9B4040"/>
</linearGradient>
<linearGradient id="paint1_linear_698_16948" x1="2.59062" y1="895.61" x2="19.867" y2="924.959" gradientUnits="userSpaceOnUse">
<stop stop-color="#768951"/>
<stop offset="1" stop-color="#485D1E"/>
</linearGradient>
<linearGradient id="paint2_linear_698_16948" x1="27.6357" y1="906.13" x2="71.2029" y2="933.549" gradientUnits="userSpaceOnUse">
<stop stop-color="#768951"/>
<stop offset="1" stop-color="#485D1E"/>
</linearGradient>
<linearGradient id="paint3_linear_698_16948" x1="-32.9228" y1="894.923" x2="-50.6916" y2="935.67" gradientUnits="userSpaceOnUse">
<stop stop-color="#FFF6EC"/>
<stop offset="1" stop-color="#FFAF57"/>
</linearGradient>
<linearGradient id="paint4_linear_698_16948" x1="1416.08" y1="904.739" x2="1398.8" y2="934.088" gradientUnits="userSpaceOnUse">
<stop stop-color="#768951"/>
<stop offset="1" stop-color="#485D1E"/>
</linearGradient>
<linearGradient id="paint5_linear_698_16948" x1="1391.04" y1="915.259" x2="1347.48" y2="942.678" gradientUnits="userSpaceOnUse">
<stop stop-color="#768951"/>
<stop offset="1" stop-color="#485D1E"/>
</linearGradient>
<linearGradient id="paint6_linear_698_16948" x1="1451.6" y1="904.053" x2="1469.37" y2="944.799" gradientUnits="userSpaceOnUse">
<stop stop-color="#FFF6EC"/>
<stop offset="1" stop-color="#FFAF57"/>
</linearGradient>
<linearGradient id="paint7_linear_698_16948" x1="74.336" y1="921.072" x2="18.3047" y2="1016.26" gradientUnits="userSpaceOnUse">
<stop stop-color="#768951"/>
<stop offset="1" stop-color="#485D1E"/>
</linearGradient>
<linearGradient id="paint8_linear_698_16948" x1="-6.88797" y1="955.189" x2="-148.186" y2="1044.11" gradientUnits="userSpaceOnUse">
<stop stop-color="#768951"/>
<stop offset="1" stop-color="#485D1E"/>
</linearGradient>
<linearGradient id="paint9_linear_698_16948" x1="189.52" y1="918.843" x2="247.148" y2="1050.99" gradientUnits="userSpaceOnUse">
<stop stop-color="#FFF6EC"/>
<stop offset="1" stop-color="#FFAF57"/>
</linearGradient>
<linearGradient id="paint10_linear_698_16948" x1="214.503" y1="951.13" x2="246.81" y2="975.725" gradientUnits="userSpaceOnUse">
<stop stop-color="#5A6E32"/>
<stop offset="1" stop-color="#2F3F0E"/>
</linearGradient>
<linearGradient id="paint11_linear_698_16948" x1="341.132" y1="910.444" x2="274.893" y2="946.227" gradientUnits="userSpaceOnUse">
<stop stop-color="#768951"/>
<stop offset="1" stop-color="#485D1E"/>
</linearGradient>
<linearGradient id="paint12_linear_698_16948" x1="1263.69" y1="882.587" x2="1287.63" y2="923.263" gradientUnits="userSpaceOnUse">
<stop stop-color="#768951"/>
<stop offset="1" stop-color="#485D1E"/>
</linearGradient>
<linearGradient id="paint13_linear_698_16948" x1="1298.4" y1="897.168" x2="1358.78" y2="935.168" gradientUnits="userSpaceOnUse">
<stop stop-color="#768951"/>
<stop offset="1" stop-color="#485D1E"/>
</linearGradient>
<linearGradient id="paint14_linear_698_16948" x1="1214.47" y1="881.635" x2="1189.84" y2="938.107" gradientUnits="userSpaceOnUse">
<stop stop-color="#FFF6EC"/>
<stop offset="1" stop-color="#FFAF57"/>
</linearGradient>
<linearGradient id="paint15_linear_698_16948" x1="1203.79" y1="895.431" x2="1189.98" y2="905.94" gradientUnits="userSpaceOnUse">
<stop stop-color="#5A6E32"/>
<stop offset="1" stop-color="#2F3F0E"/>
</linearGradient>
<linearGradient id="paint16_linear_698_16948" x1="1149.68" y1="878.047" x2="1177.98" y2="893.338" gradientUnits="userSpaceOnUse">
<stop stop-color="#768951"/>
<stop offset="1" stop-color="#485D1E"/>
</linearGradient>
<linearGradient id="paint17_linear_698_16948" x1="102.583" y1="860.836" x2="85.307" y2="890.186" gradientUnits="userSpaceOnUse">
<stop stop-color="#768951"/>
<stop offset="1" stop-color="#485D1E"/>
</linearGradient>
<linearGradient id="paint18_linear_698_16948" x1="189.069" y1="854.961" x2="171.578" y2="876.336" gradientUnits="userSpaceOnUse">
<stop stop-color="#768951"/>
<stop offset="1" stop-color="#485D1E"/>
</linearGradient>
<linearGradient id="paint19_linear_698_16948" x1="77.5383" y1="871.354" x2="33.9711" y2="898.773" gradientUnits="userSpaceOnUse">
<stop stop-color="#768951"/>
<stop offset="1" stop-color="#485D1E"/>
</linearGradient>
<linearGradient id="paint20_linear_698_16948" x1="138.1" y1="860.146" x2="155.869" y2="900.893" gradientUnits="userSpaceOnUse">
<stop stop-color="#FFF6EC"/>
<stop offset="1" stop-color="#FFAF57"/>
</linearGradient>
<linearGradient id="paint21_linear_698_16948" x1="1490.52" y1="938.981" x2="1540.47" y2="1023.85" gradientUnits="userSpaceOnUse">
<stop stop-color="#768951"/>
<stop offset="1" stop-color="#485D1E"/>
</linearGradient>
<linearGradient id="paint22_linear_698_16948" x1="1240.43" y1="921.995" x2="1291.01" y2="983.804" gradientUnits="userSpaceOnUse">
<stop stop-color="#768951"/>
<stop offset="1" stop-color="#485D1E"/>
</linearGradient>
<linearGradient id="paint23_linear_698_16948" x1="1387.83" y1="936.994" x2="1336.45" y2="1054.82" gradientUnits="userSpaceOnUse">
<stop stop-color="#FFF6EC"/>
<stop offset="1" stop-color="#FFAF57"/>
</linearGradient>
<clipPath id="clip0_698_16948">
<rect width="1441" height="1025" fill="white"/>
</clipPath>
</defs>
</svg>
