<svg width="1441" height="1025" viewBox="0 0 1441 1025" fill="none" xmlns="http://www.w3.org/2000/svg">
<g clip-path="url(#clip0_1211_4)">
<mask id="mask0_1211_4" style="mask-type:luminance" maskUnits="userSpaceOnUse" x="0" y="0" width="1441" height="1025">
<path d="M1440.82 0.765625H0.824219V1024.77H1440.82V0.765625Z" fill="white"/>
</mask>
<g mask="url(#mask0_1211_4)">
<path d="M1441.83 0.765625H0.824219V1024.77H1441.83V0.765625Z" fill="url(#paint0_linear_1211_4)"/>
<path fill-rule="evenodd" clip-rule="evenodd" d="M1059.63 749.955H1037.89V782.446H1022.3V846.188H882.935V830.493H831.276V785.714H815.584V760.731H806.191V739.236H788.584V760.731H779.191V785.714H765.867V846.188H697V886H1080V722H1059.63V749.955Z" fill="#39515E"/>
<path fill-rule="evenodd" clip-rule="evenodd" d="M1061.61 843.395H1056.22H1046.6H1039.29H1031.64H1021.47V827.781H971.903V783.236H956.845V758.383H947.832L943 758.383L937.5 758.383H930.937H921.924V783.236H909.138V843.395H895V882.999H1087V843.395H1072.76H1061.61Z" fill="#39515E"/>
<path fill-rule="evenodd" clip-rule="evenodd" d="M657.605 843.395H652.218H642.599H635.289H627.635H617.473V827.782H567.903V783.236H552.845V758.383H543.832V737H526.937V758.383H517.924V783.236H505.138V843.395H491V883H683V843.395H668.764H657.605Z" fill="#39515E"/>
<path fill-rule="evenodd" clip-rule="evenodd" d="M757.605 881.395H752.218H742.599H735.289H727.635H717.473V865.781H667.903V821.236H652.845V796.383H643.832L638 796.383L632.5 796.383H626.937H617.924V821.236H605.138V881.395H591V920.999H783V881.395H768.764H757.605Z" fill="#39515E"/>
<path fill-rule="evenodd" clip-rule="evenodd" d="M817.012 855.517H813.196H806.383H801.204H795.783H788.585V844.288H753.473V812.252H742.807V794.378H736.423V779H724.455V794.378H718.071V812.252H709.015V855.517H699V884H835V855.517H824.916H817.012Z" fill="#39515E"/>
<path fill-rule="evenodd" clip-rule="evenodd" d="M505.007 1374.62L505.015 1392H311L321.07 814.097L357.485 842.144H350.474V863.5H360.992V854.044H357.485V847.032H364.497V840.02H367.564V833.008H371.945V840.02H375.452V833.008H379.834V840.02H383.341V833.008H387.723V840.02H390.79V847.032H397.801V854.044H394.294V863.5H400.431V859.303H409.194V863.5H415.331V838.268H420.588V831.256H425.847V824.244H448.633V831.256H453.892V838.268H459.151V863.5H471.421V829.528L504.726 812L504.734 829.502H550.805L566.58 857.549H559.568V863.5H575.343V824.271H608.648V863.5H617.412V857.549L650.716 840.02V863.5H659.48V854.098L692.784 836.567V863.5H706.807V854.044H701.55V847.032H724.337V837.488H733.1V847.032H755.889V837.488H773.612L780.427 847.032H799.709V854.044H794.45V863.5H813.732V847.059H806.721L824.25 838.666L873.33 828.148H882.093V838.666H890.857L906.634 847.059H899.623V863.5H910.139V854.044H906.634V847.032H913.646V840.02H916.713V833.008H921.095V840.02H924.601V833.008H928.983V840.02H932.488V833.008H936.87V840.02H939.939V847.032H946.95V854.044H943.443V863.5H949.578V859.303H958.343V863.5H964.478V838.268H969.737V831.256H974.996V848.811H997.782V831.256H1003.04V838.268H1008.3V863.5H1020.57V829.528L1053.87 819.371V863.5H1080.17V854.044H1074.91V847.032H1097.7V837.488H1106.46V847.032H1129.25V837.488H1146.97L1153.79 847.032H1173.07V854.044H1167.81V863.5H1187.09V842.144H1180.08L1197.61 814.097H1264.22L1279.99 842.144H1272.98V863.5H1283.5V854.044H1279.99V847.032H1287V840.02H1290.07V833.008H1294.45V840.02H1297.96V833.008H1302.34V840.02H1305.85V833.008H1310.23V840.02H1313.3V847.032H1320.31V854.044H1316.8V863.5H1322.94V859.303H1331.7V863.5H1337.84V838.268H1343.1V831.256H1348.35V824.244H1371.14V831.256H1376.4V838.268H1381.66V863.5H1393.93V829.528L1427.23 812V829.502H1471.72L1487.5 857.549H1480.49V863.5H1496.26V824.271H1529.56V863.5H1538.33V857.549L1571.63 840.02V863.5H1580.4V854.098L1613.7 836.567V863.5H1627.72V854.044H1622.46V847.032H1645.25V837.488H1654.02V847.032H1676.8V837.488H1694.53L1701.34 847.032H1720.63V854.044H1715.37V863.5H1734.65V847.059H1727.64L1745.16 838.666L1794.25 828.148H1803.01V838.666H1811.77L1827.55 847.059H1820.54V863.5H1831.06V854.044H1827.55V847.032H1834.56V840.02H1837.63V833.008H1842.01V840.02H1845.52V833.008H1849.9V840.02H1853.4V833.008H1857.79V840.02H1860.85V847.032H1867.86V854.044H1864.36V863.5H1870.49V859.303H1879.26V863.5H1885.39V838.268H1890.65V831.256H1895.91V848.811H1918.7V831.256H1923.96V838.268H1929.21V863.5H1941.49V829.528L1974.79 819.371V863.5H2001.08V854.044H1995.82V847.032H2018.61V837.488H2027.38V847.032H2050.16V837.488H2067.89L2074.7 847.032H2093.98V854.044H2088.73V863.5H2108.01V842.144H2100.99L2118.52 814.097H2185.13L2200.91 842.144H2193.9V863.5H2204.41V854.044H2200.91V847.032H2207.92V840.02H2210.99V833.008H2215.37V840.02H2218.88V833.008H2223.26V840.02H2226.76V833.008H2231.15V840.02H2234.21V847.032H2241.22V854.044H2237.72V863.5H2243.85V859.303H2252.62V863.5H2258.75V838.268H2264.01V831.256H2269.27V824.244H2292.06V831.256H2297.32V838.268H2302.57V863.5H2314.84V829.528L2348.15 812V857.561C2348.15 857.557 2348.16 857.553 2348.16 857.549L2358.68 829.502H2425.28L2441.06 857.549H2434.05V863.5H2449.83V824.271H2483.12V863.5H2491.89V857.549L2525.21 840.02V863.5H2533.96V854.098L2567.27 836.567V863.5H2581.28V854.044H2576.02V847.032H2598.81V837.488H2607.58V847.032H2630.37V837.488H2648.1L2654.91 847.032H2674.19V854.044H2668.92V863.5H2688.22V847.059H2681.2L2698.73 838.666L2747.81 828.148H2756.58V838.666H2765.33L2781.12 847.059H2774.1V863.5H2784.61V854.044H2781.12V847.032H2788.12V840.02H2791.19V833.008H2795.57V840.02H2799.08V833.008H2803.45V840.02H2806.96V833.008H2811.36V840.02H2814.41V847.032H2821.43V854.044H2817.92V863.5H2824.05V859.303H2832.82V863.5H2838.95V838.268H2844.22V831.256H2849.48V848.811H2872.27V831.256H2877.53V838.268H2882.77V863.5H2895.05V829.528L2928.34 819.371V863.5H2954.64V854.044H2949.4V847.032H2972.18V837.488H2980.94V847.032H3003.72V837.488H3021.45L3028.26 847.032H3047.54V854.044H3042.3V863.5H3061.58V842.144H3054.56L3072.08 814.097H3138.71L3154.48 842.144H3147.46V863.5H3157.98V854.044H3154.48V847.032H3161.49V840.02H3164.55V833.008H3168.92V840.02H3172.43V833.008H3176.83V840.02H3180.32V833.008H3184.71V840.02H3187.77V847.032H3194.78V854.044H3191.28V863.5H3197.41V859.303H3206.18V863.5H3212.31V838.268H3217.57V831.256H3222.83V824.244H3245.62V831.256H3250.88V838.268H3256.13V863.5H3268.41V829.528L3301.72 812V861.706H3343V1374.62H2348.16H2348.15H505.007Z" fill="#2A3D46"/>
<path d="M1441.82 905.098H0.824219V1024.77H1441.82V905.098Z" fill="#314357"/>
<path d="M524.082 0.765625H372V905.096H524.082V0.765625Z" fill="url(#paint1_linear_1211_4)"/>
<path d="M1289 1H1048V905H1289V1Z" fill="url(#paint2_linear_1211_4)"/>
<path d="M1441.82 0.765625H1185.42V556.47H1441.82V0.765625Z" fill="#20251A"/>
<path d="M1598.17 0.765625H1185.42V905.096H1598.17V0.765625Z" fill="url(#paint3_linear_1211_4)"/>
<path d="M1495.13 556.469H1093.94V905.096H1495.13V556.469Z" fill="url(#paint4_linear_1211_4)"/>
<path d="M372 1H1V905H372V1Z" fill="url(#paint5_linear_1211_4)"/>
<path d="M249.86 814.219H0.824219V905.096H249.86V814.219Z" fill="#10161C"/>
<path d="M1264.9 452.93H1137.83V556.469H1264.9V452.93Z" fill="url(#paint6_linear_1211_4)"/>
<path d="M1411.65 452.93H1284.58V556.469H1411.65V452.93Z" fill="url(#paint7_linear_1211_4)"/>
<path d="M1217.61 536.521C1235.18 536.521 1249.43 522.275 1249.43 504.702C1249.43 487.129 1235.18 472.883 1217.61 472.883C1200.03 472.883 1185.79 487.129 1185.79 504.702C1185.79 522.275 1200.03 536.521 1217.61 536.521Z" fill="#263D55"/>
<path d="M1364.36 536.521C1381.93 536.521 1396.18 522.275 1396.18 504.702C1396.18 487.129 1381.93 472.883 1364.36 472.883C1346.78 472.883 1332.54 487.129 1332.54 504.702C1332.54 522.275 1346.78 536.521 1364.36 536.521Z" fill="#263D55"/>
<path fill-rule="evenodd" clip-rule="evenodd" d="M1383.18 764.654C1383.18 711.321 1339.95 668.086 1286.62 668.086C1233.28 668.086 1190.05 711.321 1190.05 764.654V905.095H1383.18V764.654Z" fill="#0D1722"/>
<path fill-rule="evenodd" clip-rule="evenodd" d="M1238.39 680.97C1252.58 672.775 1269.05 668.086 1286.62 668.086C1286.72 668.086 1286.82 668.086 1286.93 668.086V761.817H1238.39V680.97Z" fill="#141A22"/>
<path fill-rule="evenodd" clip-rule="evenodd" d="M1286.93 668.086C1304.42 668.141 1320.83 672.85 1334.96 681.04V761.817H1286.93V668.086Z" fill="#141E2C"/>
<path fill-rule="evenodd" clip-rule="evenodd" d="M1334.96 681.043C1363.03 697.304 1382.15 727.291 1383.14 761.82H1334.96V681.043Z" fill="#141A22"/>
<path fill-rule="evenodd" clip-rule="evenodd" d="M1238.39 680.973V761.82H1190.09C1191.09 727.242 1210.26 697.219 1238.39 680.973Z" fill="#141E2C"/>
<path d="M1225 815.602H1190.05V831.197H1225V815.602Z" fill="#091017"/>
<path d="M1383.19 815.602H1348.24V831.197H1383.19V815.602Z" fill="#091017"/>
<path d="M1219.44 831.195H1190.05V905.096H1219.44V831.195Z" fill="#091017"/>
<path d="M1383.18 831.195H1353.79V905.096H1383.18V831.195Z" fill="#091017"/>
<path fill-rule="evenodd" clip-rule="evenodd" d="M1367.63 602.205C1367.63 594.596 1361.45 588.418 1353.84 588.418H1219.16C1211.55 588.418 1205.38 594.596 1205.38 602.205V629.778C1205.38 637.387 1211.55 643.564 1219.16 643.564H1353.84C1361.45 643.564 1367.63 637.387 1367.63 629.778V602.205Z" fill="#212E3B"/>
<path fill-rule="evenodd" clip-rule="evenodd" d="M1369.71 602.206V629.779C1369.71 638.537 1362.6 645.648 1353.84 645.648H1219.16C1210.4 645.648 1203.29 638.537 1203.29 629.779V602.206C1203.29 593.447 1210.4 586.336 1219.16 586.336H1353.84C1362.6 586.336 1369.71 593.447 1369.71 602.206ZM1367.63 602.206C1367.63 594.597 1361.45 588.419 1353.84 588.419H1219.16C1211.55 588.419 1205.38 594.597 1205.38 602.206V629.779C1205.38 637.388 1211.55 643.565 1219.16 643.565H1353.84C1361.45 643.565 1367.63 637.388 1367.63 629.779V602.206Z" fill="#F3CF95" fill-opacity="0.22"/>
<path d="M1186.39 297.438H1039V320.74H1186.39V297.438Z" fill="#2B4855"/>
<path d="M1441.83 337.328H1174.05V360.63H1441.83V337.328Z" fill="url(#paint8_linear_1211_4)"/>
<path d="M494.613 268.632C494.518 268.651 494.423 268.69 494.329 268.69C492.986 268.69 491.644 268.684 490.305 268.682C488.837 268.682 487.369 268.682 485.904 268.679L485.91 268.684C485.907 268.654 485.904 268.62 485.902 268.59L485.938 268.601C487.38 268.598 488.826 268.595 490.268 268.593C490.38 268.609 490.488 268.637 490.6 268.637C491.939 268.637 493.276 268.637 494.615 268.632H494.613Z" fill="#1C1A06" fill-opacity="0.4"/>
<path d="M485.908 264.324H481.552L481.555 264.329C481.552 264.298 481.55 264.265 481.547 264.234L481.583 264.246C482.906 264.246 484.226 264.237 485.549 264.243C485.668 264.243 485.788 264.298 485.911 264.326L485.908 264.324Z" fill="#1C1A06" fill-opacity="0.4"/>
<path d="M455.438 225.102C455.455 225.121 455.455 225.138 455.438 225.155C454.085 225.155 452.731 225.16 451.375 225.16C451.319 225.16 451.264 225.144 451.211 225.135C451.35 225.124 451.489 225.102 451.628 225.102H455.441H455.438Z" fill="#A56E2D" fill-opacity="0.4"/>
<path d="M477.204 225.102C477.221 225.121 477.221 225.138 477.204 225.155C475.851 225.155 474.497 225.16 473.141 225.16C473.086 225.16 473.03 225.144 472.977 225.135C473.116 225.124 473.255 225.102 473.395 225.102H477.207H477.204Z" fill="#A56E2D" fill-opacity="0.4"/>
<path d="M472.875 264.248C474.32 264.245 475.768 264.242 477.214 264.237C478.656 264.237 480.102 264.237 481.544 264.234C481.547 264.265 481.55 264.298 481.552 264.329C480.104 264.329 478.653 264.323 477.205 264.32C475.891 264.32 474.579 264.32 473.265 264.318C473.134 264.318 473.003 264.273 472.875 264.248Z" fill="#5F3C16" fill-opacity="0.4"/>
<path d="M490.261 273.035C488.813 273.03 487.365 273.024 485.917 273.021C485.747 273.018 485.577 273.013 485.404 273.013H464.638C464.496 273.013 464.354 273.004 464.215 272.999C464.382 272.982 464.549 272.953 464.716 272.953H485.329C485.527 272.953 485.727 272.946 485.925 272.943C487.37 272.943 488.816 272.949 490.261 272.952L490.295 272.938C490.283 272.97 490.272 273.004 490.258 273.038L490.261 273.035Z" fill="#5F3C16" fill-opacity="0.4"/>
<path d="M481.584 268.582C483.021 268.582 484.461 268.585 485.898 268.588C485.901 268.618 485.904 268.652 485.906 268.683C484.609 268.683 483.311 268.683 482.013 268.671C481.868 268.671 481.726 268.613 481.582 268.582H481.584Z" fill="#5F3C16" fill-opacity="0.4"/>
<path d="M498.961 272.942V273.023C496.059 273.023 493.16 273.028 490.258 273.028L490.261 273.034C490.272 273.001 490.283 272.967 490.297 272.934C491.417 272.936 492.534 272.945 493.653 272.945H498.964L498.961 272.942Z" fill="#1C1A06" fill-opacity="0.4"/>
<path d="M453.574 276.058H451.93C451.88 276.058 451.832 276.058 451.782 276.06C451.724 276.063 451.691 276.094 451.688 276.153C451.685 276.208 451.685 276.263 451.684 276.318C451.682 276.859 451.679 277.402 451.677 277.943C451.049 277.945 450.419 277.948 449.791 277.95V276.282C449.791 276.244 449.791 276.208 449.789 276.17C449.789 276.094 449.75 276.058 449.675 276.058H449.526C448.988 276.057 448.45 276.056 447.912 276.054C447.908 275.567 447.906 275.078 447.902 274.591V274.194C448.058 274.153 453.32 274.143 453.547 274.177C453.59 274.316 453.606 275.547 453.571 276.057L453.574 276.058Z" fill="#293948" fill-opacity="0.4"/>
<path d="M444.112 277.914C443.484 277.914 442.856 277.912 442.227 277.911C442.227 277.367 442.226 276.824 442.225 276.28C442.225 276.206 442.221 276.132 442.219 276.059C442.857 276.059 443.495 276.059 444.131 276.06C444.127 276.133 444.118 276.206 444.118 276.279C444.116 276.824 444.114 277.368 444.113 277.914H444.112Z" fill="#293948" fill-opacity="0.4"/>
<path fill-rule="evenodd" clip-rule="evenodd" d="M432.766 257.133L432.759 257.14C432.697 257.137 432.635 257.133 432.575 257.133H429.157C429.095 257.133 429.034 257.138 428.973 257.14C428.98 257.133 428.982 257.124 428.975 257.117V255.247C429.197 255.228 429.404 255.24 429.611 255.238C429.814 255.235 430.019 255.238 430.223 255.238H430.866V253.381C431.013 253.337 432.447 253.325 432.766 253.362V257.133ZM432.766 257.133H434.649V258.983C434.79 259.029 436.205 259.044 436.539 259.005C436.542 258.949 436.548 258.89 436.548 258.83C436.548 258.325 436.548 257.817 436.551 257.311C436.551 257.25 436.511 257.172 436.598 257.132C436.622 257.136 436.645 257.143 436.67 257.143C437.258 257.143 437.846 257.142 438.436 257.14C438.437 257.213 438.439 257.287 438.439 257.361L438.443 259.037V260.903C438.494 260.907 438.523 260.914 438.553 260.914H440.216C440.258 260.914 440.298 260.898 440.339 260.888H442.216C442.22 260.944 442.225 260.998 442.225 261.054V266.426C442.225 266.483 442.219 266.537 442.215 266.592C441.906 266.592 441.598 266.591 441.289 266.592C440.977 266.594 440.665 266.586 440.33 266.599V270.104C440.33 270.182 440.321 270.258 440.316 270.348H435.569C434.705 270.348 433.839 270.348 432.975 270.349C432.906 270.349 432.837 270.376 432.768 270.389C432.766 270.697 432.764 271.007 432.764 271.316C432.764 271.628 432.762 271.941 432.766 272.269H436.548V272.484C436.551 273.034 436.553 273.585 436.554 274.135C436.611 274.145 436.668 274.165 436.724 274.165C437.295 274.167 437.866 274.166 438.437 274.166V276.048H432.243C432.014 276.048 431.785 276.046 431.556 276.048C431.331 276.051 431.105 276.035 430.871 276.06V281.513C430.871 281.587 430.867 281.66 430.865 281.736H425.188C425.19 281.662 425.193 281.588 425.193 281.514V270.606C425.193 270.532 425.197 270.458 425.199 270.384C425.762 270.349 426.922 270.366 427.083 270.418V272.093C427.083 272.252 427.098 272.261 427.25 272.268H430.643C430.71 272.268 430.775 272.261 430.837 272.258C430.881 272.079 430.878 268.661 430.835 268.494C430.774 268.491 430.707 268.485 430.641 268.485H429.102C429.02 268.485 428.974 268.45 428.976 268.362V266.805C428.976 266.74 428.967 266.676 428.961 266.594H427.329C427.279 266.594 427.226 266.603 427.182 266.586C427.145 266.572 427.105 266.532 427.09 266.494C427.073 266.451 427.084 266.396 427.084 266.348V264.921C427.084 264.855 427.076 264.79 427.071 264.699H425.204C425.202 264.175 425.198 263.651 425.196 263.125V262.809H427.088V262.57C427.088 260.823 427.088 259.076 427.09 257.329C427.09 257.264 427.047 257.179 427.138 257.132C427.162 257.136 427.185 257.143 427.209 257.143C427.797 257.143 428.386 257.142 428.975 257.14C428.976 257.213 428.979 257.287 428.98 257.361L428.984 259.037V260.903C429.035 260.907 429.064 260.914 429.094 260.914H430.757C430.798 260.914 430.839 260.898 430.879 260.89C431.447 260.89 432.014 260.891 432.581 260.89C432.749 260.89 432.76 260.878 432.76 260.71C432.76 260.15 432.758 259.588 432.757 259.028C432.758 258.398 432.76 257.77 432.762 257.14L432.769 257.134L432.766 257.133ZM434.665 266.578H438.426C438.46 266.28 438.447 264.83 438.413 264.71H434.665V266.578ZM442.216 257.132H438.601C438.545 257.132 438.489 257.137 438.434 257.138C438.441 257.131 438.442 257.122 438.434 257.115V255.269C438.582 255.226 441.881 255.212 442.208 255.248C442.213 255.269 442.221 255.292 442.221 255.315V257.057C442.221 257.081 442.216 257.105 442.213 257.131L442.216 257.132Z" fill="#364B5F" fill-opacity="0.4"/>
<path d="M423.295 281.737C423.298 281.669 423.302 281.601 423.302 281.533V264.692H421.418V247.67H423.3C423.304 247.033 423.3 246.414 423.303 245.778H425.194C425.195 245.142 425.194 244.522 425.195 243.886H427.082V242H440.329V243.874H442.22V245.765H444.116C444.116 245.987 444.117 246.194 444.118 246.402V247.657H445.977C446.019 247.801 446.036 254.843 445.997 255.231H444.118V275.782C444.118 275.862 444.116 275.943 444.115 276.023C443.488 276.024 442.86 276.025 442.232 276.027C442.23 275.947 442.226 275.868 442.225 275.788C442.223 275.248 442.221 274.709 442.22 274.17C442.168 274.156 442.116 274.133 442.063 274.133C441.488 274.132 440.914 274.133 440.339 274.135C440.337 274.049 440.333 273.963 440.332 273.877C440.329 273.343 440.328 272.809 440.326 272.275C440.953 272.27 441.581 272.267 442.225 272.262V266.796C442.225 266.728 442.219 266.661 442.217 266.593C442.22 266.537 442.226 266.483 442.226 266.427V261.054C442.226 260.999 442.22 260.944 442.218 260.889C442.218 260.269 442.219 259.65 442.22 259.03C442.223 258.717 442.226 258.404 442.226 258.091C442.226 257.771 442.22 257.452 442.218 257.133C442.221 257.109 442.226 257.085 442.226 257.059V255.317C442.226 255.294 442.217 255.271 442.213 255.251C441.886 255.214 438.587 255.229 438.438 255.271V257.118H436.781C436.721 257.118 436.66 257.127 436.599 257.132C436.512 257.172 436.552 257.251 436.552 257.311C436.549 257.817 436.551 258.325 436.55 258.831C436.55 258.89 436.544 258.949 436.54 259.005C436.206 259.044 434.792 259.029 434.651 258.983V257.133H432.767V253.363C432.448 253.325 431.014 253.338 430.866 253.38V255.237H430.224C430.02 255.237 429.816 255.236 429.612 255.237C429.405 255.24 429.197 255.228 428.975 255.247V257.118H427.318C427.258 257.118 427.197 257.127 427.136 257.132C427.046 257.179 427.089 257.264 427.089 257.329C427.087 259.076 427.087 260.823 427.087 262.57V262.81H425.195V263.126C425.197 263.65 425.201 264.174 425.203 264.7C425.199 264.767 425.195 264.835 425.195 264.903V270.219C425.195 270.275 425.199 270.331 425.201 270.385C425.199 270.459 425.195 270.533 425.195 270.607V281.516C425.195 281.589 425.191 281.663 425.189 281.737H423.295ZM428.972 245.787C429.527 245.787 430.083 245.787 430.639 245.784C430.71 245.784 430.781 245.773 430.846 245.768C430.883 245.53 430.874 244.058 430.837 243.922C430.671 243.88 429.149 243.883 428.974 243.933V245.789C428.369 245.789 427.764 245.789 427.159 245.791C427.143 245.791 427.127 245.805 427.1 245.817C427.096 245.848 427.083 245.885 427.083 245.92C427.083 246.451 427.081 246.982 427.083 247.513C427.083 247.656 427.109 247.676 427.265 247.678C427.783 247.68 428.302 247.679 428.82 247.678C428.867 247.678 428.913 247.663 428.972 247.652V245.787Z" fill="#0C1015" fill-opacity="0.4"/>
<path d="M432.788 277.937C432.78 278.003 432.764 278.068 432.763 278.134C432.762 279.267 432.763 280.4 432.762 281.534C432.762 281.602 432.758 281.67 432.756 281.737H430.863C430.866 281.663 430.869 281.59 430.869 281.515V276.062C431.103 276.037 431.329 276.054 431.554 276.05C431.784 276.048 432.012 276.05 432.241 276.05H438.435V274.168C439.065 274.168 439.696 274.17 440.325 274.171V274.169C440.325 274.323 440.329 274.477 440.33 274.631C440.334 275.094 440.335 275.557 440.338 276.02C440.401 276.033 440.463 276.058 440.526 276.058C441.09 276.062 441.654 276.062 442.219 276.064L442.216 276.061C442.219 276.135 442.222 276.209 442.222 276.283C442.223 276.826 442.225 277.37 442.225 277.913C442.139 277.915 442.052 277.918 441.966 277.918H433.005C432.932 277.918 432.861 277.93 432.788 277.937Z" fill="#0C1015" fill-opacity="0.4"/>
<path d="M444.113 281.737C444.113 281.105 444.116 280.472 444.117 279.84C444.141 279.841 444.167 279.843 444.191 279.843C446.692 279.843 449.193 279.841 451.694 279.84C451.693 280.399 451.691 280.957 451.689 281.516C451.689 281.59 451.686 281.664 451.683 281.737H444.113Z" fill="#0C1015" fill-opacity="0.4"/>
<path d="M446.006 276.038C446.008 275.971 446.012 275.903 446.012 275.835V272.27H455.461C455.465 272.312 455.473 272.358 455.473 272.405C455.473 274.191 455.473 275.978 455.472 277.763C455.472 277.822 455.511 277.904 455.414 277.931C455.355 277.927 455.294 277.918 455.234 277.918C454.753 277.918 454.273 277.918 453.792 277.917C453.727 277.917 453.662 277.908 453.58 277.902V277.665C453.578 277.129 453.575 276.594 453.573 276.058C453.607 275.549 453.591 274.317 453.548 274.177C453.321 274.144 448.061 274.154 447.904 274.194V274.592C447.906 275.079 447.91 275.567 447.913 276.055C447.91 276.141 447.904 276.226 447.903 276.312C447.899 276.846 447.898 277.378 447.895 277.912C447.125 277.912 446.357 277.913 445.587 277.912C445.1 277.912 444.614 277.908 444.128 277.907L444.113 277.913C444.115 277.369 444.116 276.824 444.118 276.278C444.118 276.205 444.127 276.131 444.132 276.059C444.715 276.06 445.299 276.062 445.881 276.062C445.922 276.062 445.963 276.045 446.004 276.037L446.006 276.038Z" fill="#0C1015" fill-opacity="0.4"/>
<path d="M447.908 259.032H449.565C449.772 259.032 449.787 259.017 449.787 258.81V257.363C449.787 257.142 449.787 257.141 450.017 257.141H451.483C451.673 257.141 451.679 257.148 451.68 257.34V258.749C451.68 259.007 451.702 259.03 451.968 259.032C452.42 259.033 452.871 259.032 453.323 259.032C453.367 259.032 453.41 259.033 453.452 259.032C453.54 259.032 453.575 259.076 453.572 259.159V262.571C453.572 262.621 453.572 262.67 453.569 262.719C453.566 262.778 453.531 262.809 453.474 262.811C453.424 262.813 453.375 262.813 453.325 262.813H448.168C447.908 262.812 447.895 262.799 447.895 262.541V259.277C447.895 259.205 447.902 259.132 447.907 259.029L447.908 259.032Z" fill="#445E78" fill-opacity="0.4"/>
<path d="M451.694 279.84C449.193 279.841 446.692 279.842 444.191 279.844C444.167 279.844 444.141 279.841 444.117 279.84C443.557 279.839 442.995 279.838 442.434 279.835C442.374 279.835 442.314 279.823 442.254 279.817C442.322 279.815 442.388 279.81 442.456 279.81C443.011 279.807 443.566 279.806 444.121 279.804C445.948 279.804 447.775 279.806 449.602 279.806C449.656 279.806 449.71 279.796 449.791 279.789V277.951C450.419 277.95 451.049 277.948 451.677 277.945L451.689 277.959C451.688 278.568 451.689 279.176 451.689 279.799C451.783 279.802 451.849 279.808 451.914 279.808H453.191C453.315 279.808 453.437 279.816 453.561 279.821C453.494 279.825 453.426 279.834 453.36 279.834C452.805 279.836 452.25 279.838 451.695 279.839L451.694 279.84Z" fill="#19222C" fill-opacity="0.4"/>
<path d="M453.572 276.059C453.574 276.595 453.577 277.13 453.579 277.666V277.903C453.661 277.91 453.727 277.918 453.791 277.918C454.271 277.918 454.752 277.918 455.232 277.919C455.293 277.919 455.354 277.928 455.413 277.933C454.944 277.935 454.477 277.939 454.01 277.941C453.868 277.941 453.727 277.945 453.585 277.946H452.277C452.08 277.946 451.884 277.953 451.688 277.957L451.676 277.943C451.678 277.402 451.681 276.86 451.683 276.319C451.683 276.263 451.683 276.208 451.687 276.153C451.689 276.094 451.723 276.063 451.781 276.061C451.831 276.059 451.879 276.059 451.929 276.059H453.573H453.572Z" fill="#19222C" fill-opacity="0.4"/>
<path d="M449.815 264.713C449.932 264.698 450.047 264.672 450.162 264.671C450.57 264.666 450.978 264.669 451.386 264.669C451.423 264.669 451.461 264.667 451.497 264.671C451.653 264.689 451.684 264.722 451.684 264.884C451.685 265.397 451.685 265.909 451.684 266.423C451.684 266.581 451.672 266.594 451.515 266.595C451.002 266.597 450.49 266.597 449.977 266.595C449.823 266.595 449.794 266.569 449.794 266.429C449.791 265.885 449.794 265.342 449.795 264.798C449.795 264.78 449.804 264.763 449.816 264.713H449.815Z" fill="#445E78" fill-opacity="0.4"/>
<path d="M449.805 268.5C449.929 268.484 450.044 268.457 450.159 268.456C450.567 268.451 450.975 268.454 451.383 268.454C451.415 268.454 451.445 268.454 451.476 268.455C451.647 268.471 451.68 268.503 451.681 268.67C451.682 269.176 451.682 269.684 451.681 270.19C451.681 270.371 451.672 270.379 451.493 270.38C450.993 270.381 450.492 270.381 449.992 270.38C449.815 270.38 449.791 270.358 449.79 270.194C449.788 269.669 449.79 269.144 449.79 268.619C449.79 268.589 449.797 268.559 449.806 268.499L449.805 268.5Z" fill="#445E78" fill-opacity="0.4"/>
<path d="M451.688 277.961C451.884 277.957 452.08 277.951 452.276 277.95C452.712 277.948 453.149 277.95 453.585 277.95C453.583 278.509 453.583 279.067 453.58 279.626C453.58 279.692 453.566 279.758 453.559 279.824C453.436 279.82 453.313 279.812 453.19 279.812C452.764 279.81 452.338 279.812 451.913 279.812C451.846 279.812 451.78 279.806 451.688 279.802V277.961Z" fill="#0C1015" fill-opacity="0.4"/>
<path d="M425.198 264.697H427.065C427.071 264.786 427.078 264.852 427.078 264.918V266.345C427.078 266.395 427.069 266.448 427.085 266.492C427.099 266.529 427.139 266.569 427.177 266.584C427.22 266.601 427.274 266.591 427.323 266.591H428.955C428.961 266.672 428.969 266.738 428.971 266.803C428.972 267.279 428.971 267.755 428.971 268.23C428.971 268.274 428.972 268.316 428.971 268.36C428.968 268.447 429.014 268.482 429.097 268.482H430.635C430.702 268.482 430.769 268.488 430.829 268.492C430.873 268.659 430.875 272.077 430.831 272.256C430.769 272.259 430.704 272.265 430.638 272.265H427.245C427.092 272.259 427.078 272.248 427.078 272.091C427.075 271.603 427.078 271.115 427.078 270.626V270.416C426.915 270.363 425.757 270.346 425.194 270.382C425.191 270.326 425.188 270.27 425.188 270.216V264.899C425.188 264.831 425.194 264.763 425.196 264.695L425.198 264.697Z" fill="#293948" fill-opacity="0.4"/>
<path d="M432.771 270.387C432.84 270.373 432.909 270.347 432.978 270.347C433.842 270.345 434.708 270.346 435.572 270.346H440.319C440.325 270.256 440.333 270.18 440.333 270.103V266.597C440.668 266.585 440.98 266.592 441.292 266.591C441.601 266.59 441.91 266.591 442.218 266.591C442.222 266.659 442.227 266.727 442.227 266.794V272.26C441.583 272.265 440.956 272.269 440.327 272.273H440.33C440.33 272.262 440.33 272.25 440.329 272.237C440.359 271.588 440.344 270.541 440.301 270.381H432.991C432.917 270.381 432.843 270.385 432.77 270.387H432.771Z" fill="#293948" fill-opacity="0.4"/>
<path d="M438.441 259.04C438.44 258.48 438.438 257.922 438.437 257.363C438.437 257.289 438.435 257.215 438.434 257.143C438.489 257.14 438.545 257.137 438.601 257.137H442.217C442.22 257.456 442.225 257.776 442.225 258.094C442.225 258.408 442.222 258.72 442.219 259.034C441.591 259.034 440.963 259.034 440.333 259.035C439.764 259.032 439.194 259.029 438.625 259.026C438.564 259.026 438.503 259.035 438.442 259.04H438.441Z" fill="#293948" fill-opacity="0.4"/>
<path d="M428.971 245.787V243.931C429.147 243.88 430.67 243.878 430.834 243.92C430.871 244.056 430.879 245.529 430.843 245.767C430.778 245.771 430.707 245.782 430.636 245.782C430.08 245.784 429.524 245.784 428.969 245.784L428.971 245.787Z" fill="#151C25" fill-opacity="0.4"/>
<path d="M428.975 245.785V247.65C428.917 247.66 428.871 247.676 428.824 247.676C428.306 247.677 427.787 247.678 427.269 247.676C427.113 247.676 427.088 247.654 427.087 247.511C427.085 246.98 427.087 246.45 427.087 245.918C427.087 245.883 427.098 245.847 427.104 245.816C427.13 245.805 427.146 245.79 427.163 245.79C427.769 245.789 428.374 245.789 428.978 245.788L428.975 245.785Z" fill="#151C25" fill-opacity="0.4"/>
<path d="M440.332 259.033C440.96 259.033 441.588 259.033 442.218 259.031C442.218 259.651 442.217 260.27 442.216 260.89H440.338C440.337 260.271 440.334 259.652 440.333 259.034L440.332 259.033Z" fill="#3E576D" fill-opacity="0.4"/>
<path d="M440.325 272.273C440.327 272.807 440.328 273.341 440.331 273.875C440.331 273.961 440.336 274.047 440.338 274.133L440.322 274.128C439.695 274.128 439.067 274.128 438.44 274.129C438.44 273.514 438.439 272.901 438.438 272.286C438.493 272.282 438.547 272.275 438.603 272.273H440.328H440.325Z" fill="#293948" fill-opacity="0.4"/>
<path d="M440.339 276.015C440.336 275.553 440.334 275.089 440.33 274.627C440.33 274.473 440.327 274.318 440.324 274.164H442.218C442.219 274.704 442.22 275.243 442.223 275.783C442.223 275.863 442.227 275.942 442.23 276.021L442.214 276.016C441.589 276.016 440.964 276.015 440.339 276.014V276.015Z" fill="#293948" fill-opacity="0.4"/>
<path d="M438.437 272.286C438.437 272.901 438.438 273.514 438.439 274.129C437.811 274.131 437.181 274.132 436.553 274.134C436.551 273.585 436.548 273.034 436.547 272.484V272.269H432.764C432.761 271.941 432.762 271.628 432.763 271.316C432.763 271.007 432.765 270.698 432.767 270.389C432.84 270.386 432.914 270.383 432.988 270.383H440.297C440.341 270.542 440.356 271.59 440.325 272.239C439.757 272.239 439.191 272.236 438.623 272.24C438.56 272.24 438.499 272.27 438.436 272.286H438.437Z" fill="#0C1015" fill-opacity="0.4"/>
<path d="M428.97 257.143C429.032 257.14 429.094 257.137 429.154 257.137H432.572C432.633 257.137 432.695 257.14 432.755 257.143C432.754 257.772 432.752 258.4 432.751 259.03C432.123 259.032 431.497 259.034 430.868 259.036C430.299 259.034 429.729 259.03 429.16 259.028C429.1 259.028 429.038 259.036 428.977 259.041C428.976 258.482 428.975 257.924 428.974 257.364C428.974 257.291 428.971 257.217 428.969 257.144L428.97 257.143Z" fill="#293948" fill-opacity="0.4"/>
<path d="M434.664 266.575V264.707H438.412C438.447 264.827 438.459 266.277 438.425 266.575H434.664Z" fill="#020202" fill-opacity="0.4"/>
<path d="M440.332 259.032C440.334 259.65 440.336 260.269 440.337 260.887C440.296 260.896 440.256 260.912 440.215 260.913C439.661 260.914 439.106 260.913 438.552 260.913C438.521 260.913 438.492 260.907 438.441 260.902V259.036C438.502 259.032 438.564 259.023 438.624 259.023C439.193 259.026 439.763 259.028 440.332 259.032Z" fill="#020302" fill-opacity="0.4"/>
<path d="M428.984 259.036C429.045 259.032 429.107 259.023 429.167 259.023C429.736 259.026 430.306 259.028 430.875 259.032C430.877 259.65 430.879 260.269 430.88 260.887C430.839 260.896 430.798 260.912 430.758 260.912C430.203 260.913 429.649 260.912 429.094 260.912C429.064 260.912 429.035 260.906 428.984 260.901V259.036V259.036Z" fill="#020302" fill-opacity="0.4"/>
<path d="M430.872 260.885C430.871 260.267 430.868 259.648 430.867 259.03C431.494 259.027 432.121 259.026 432.75 259.023C432.751 259.584 432.753 260.146 432.753 260.706C432.753 260.874 432.741 260.884 432.574 260.885C432.007 260.887 431.44 260.885 430.872 260.885Z" fill="#3E576D" fill-opacity="0.4"/>
<path d="M444.118 279.806C443.564 279.808 443.008 279.81 442.454 279.812C442.386 279.812 442.318 279.817 442.252 279.82C442.243 279.755 442.226 279.69 442.226 279.625C442.224 279.067 442.223 278.509 442.223 277.949C442.852 277.952 443.482 277.954 444.111 277.955L444.11 277.953C444.112 278.027 444.116 278.101 444.116 278.174C444.117 278.718 444.118 279.262 444.118 279.805V279.806Z" fill="#0C1015" fill-opacity="0.4"/>
<path d="M447.913 276.055C448.45 276.056 448.988 276.057 449.526 276.058H449.675C449.75 276.058 449.79 276.093 449.79 276.171C449.79 276.209 449.792 276.245 449.792 276.282V277.95C449.16 277.95 448.527 277.948 447.895 277.947C447.896 277.935 447.896 277.924 447.895 277.912C447.897 277.378 447.898 276.845 447.902 276.311C447.902 276.226 447.909 276.141 447.913 276.055Z" fill="#19222C" fill-opacity="0.4"/>
<path d="M444.109 277.951C445.371 277.951 446.631 277.949 447.893 277.949C448.524 277.949 449.158 277.951 449.79 277.953V279.791C449.708 279.798 449.654 279.808 449.601 279.808C447.774 279.808 445.946 279.808 444.119 279.805C444.119 279.262 444.118 278.718 444.117 278.174C444.117 278.1 444.113 278.027 444.111 277.953L444.109 277.951Z" fill="#293948" fill-opacity="0.4"/>
<path d="M435.629 259.997C435.773 259.961 435.915 259.891 436.06 259.891C437.366 259.883 438.67 259.888 439.976 259.888C439.976 259.916 439.976 259.944 439.979 259.974C438.656 259.974 437.333 259.972 436.01 259.974C435.882 259.974 435.757 259.991 435.629 260.002V259.997Z" fill="#1C1A06" fill-opacity="0.4"/>
<path d="M499.068 281.039H372V384.578H499.068V281.039Z" fill="url(#paint9_linear_1211_4)"/>
<path d="M381 333H1V365H381V333Z" fill="url(#paint10_linear_1211_4)"/>
<path d="M499.068 384.578H372V393.871H499.068V384.578Z" fill="#23303D"/>
<path d="M451.776 364.63C469.349 364.63 483.595 350.384 483.595 332.811C483.595 315.238 469.349 300.992 451.776 300.992C434.203 300.992 419.957 315.238 419.957 332.811C419.957 350.384 434.203 364.63 451.776 364.63Z" fill="#263D55"/>
<path fill-rule="evenodd" clip-rule="evenodd" d="M1255.81 601.254L1251.05 605.675H1242.8L1238.8 601.254H1255.81ZM1253.24 630.726H1236.23L1240.99 626.348H1249.24L1253.24 630.726ZM1240.74 619.569L1240.23 625.505L1235.47 629.884L1236.44 618.474L1238.25 616.832L1240.74 619.569ZM1236.9 613.506L1237.87 602.096L1241.87 606.475L1241.37 612.411L1238.38 615.19L1236.9 613.506ZM1255.09 618.474L1254.12 629.884L1250.12 625.505L1250.63 619.569L1253.62 616.832L1255.09 618.474ZM1251.26 612.411L1251.77 606.475L1256.52 602.096L1255.56 613.506L1253.75 615.19L1251.26 612.411Z" fill="#F3CF95" fill-opacity="0.22"/>
<path fill-rule="evenodd" clip-rule="evenodd" d="M1260.48 613.508L1261.45 602.098L1265.45 606.477L1264.94 612.413L1261.95 615.192L1260.48 613.508ZM1278.67 618.476L1277.7 629.886L1273.7 625.507L1274.21 619.571L1277.2 616.834L1278.67 618.476ZM1274.84 612.413L1275.34 606.477L1280.1 602.098L1279.13 613.508L1277.32 615.192L1274.84 612.413ZM1274.46 613.803L1276.48 615.992L1274.08 618.181H1264.73L1262.76 615.992L1265.11 613.803H1274.46Z" fill="#F3CF95"/>
<path fill-rule="evenodd" clip-rule="evenodd" d="M1283.05 630.726L1283.43 626.348H1287.85L1287.47 630.726H1283.05ZM1284.82 610.559L1285.2 606.18H1289.62L1289.24 610.559H1284.82Z" fill="#F3CF95" fill-opacity="0.22"/>
</g>
<path d="M1329.66 618.936L1328.75 631.432L1325 626.636L1325.47 620.135L1328.28 617.138L1329.66 618.936ZM1326.07 612.296L1326.54 605.795L1331 601L1330.09 613.495L1328.39 615.34L1326.07 612.296Z" fill="#F3CF95"/>
<path d="M1175 24H1145V133H1175V24Z" fill="#23303E"/>
<path d="M1172 28H1148V129H1172V28Z" fill="#314357"/>
<path d="M1185 45H1175V50H1185V45Z" fill="#23303E"/>
<path d="M1185 105H1175V110H1185V105Z" fill="#23303E"/>
<path d="M1176 157H1147V259H1176V157Z" fill="#23303E"/>
<path d="M1173 161H1151V255H1173V161Z" fill="#314357"/>
<path d="M1185 176H1176V181H1185V176Z" fill="#23303E"/>
<path d="M1185 232H1176V237H1185V232Z" fill="#23303E"/>
<path d="M412.146 96H381.227V205.137H412.146V96Z" fill="#23303E"/>
<path d="M408.443 100.086H384.934V201.049H408.443V100.086Z" fill="#314357"/>
<path d="M381.228 116.719H372V121.963H381.228V116.719Z" fill="#23303E"/>
<path d="M381.228 176.668H372V181.913H381.228V176.668Z" fill="#23303E"/>
<path fill-rule="evenodd" clip-rule="evenodd" d="M1314.34 601L1309.58 605.42H1301.33L1297.33 601H1314.34ZM1311.77 630.472H1294.76L1299.52 626.093H1307.77L1311.77 630.472ZM1299.26 619.314L1298.76 625.251L1294 629.63L1294.97 618.22L1296.78 616.578L1299.26 619.314ZM1309.79 612.157L1310.29 606.22L1315.05 601.842L1314.08 613.252L1312.27 614.936L1309.79 612.157ZM1309.41 613.546L1311.43 615.736L1309.03 617.925H1299.69L1297.71 615.736L1300.06 613.546H1309.41Z" fill="#F3CF95"/>
</g>
<defs>
<linearGradient id="paint0_linear_1211_4" x1="822.13" y1="22.5491" x2="822.13" y2="746.738" gradientUnits="userSpaceOnUse">
<stop stop-color="#374E5B"/>
<stop offset="0.51" stop-color="#3A5260"/>
<stop offset="1" stop-color="#446070"/>
</linearGradient>
<linearGradient id="paint1_linear_1211_4" x1="479.071" y1="114.141" x2="479.071" y2="1199.47" gradientUnits="userSpaceOnUse">
<stop stop-color="#314357"/>
<stop offset="1" stop-color="#0E1C2C"/>
</linearGradient>
<linearGradient id="paint2_linear_1211_4" x1="941.991" y1="41.5236" x2="941.991" y2="972.545" gradientUnits="userSpaceOnUse">
<stop stop-color="#46616D"/>
<stop offset="1" stop-color="#193644"/>
</linearGradient>
<linearGradient id="paint3_linear_1211_4" x1="1519.91" y1="91.4045" x2="1352.54" y2="653.622" gradientUnits="userSpaceOnUse">
<stop stop-color="#23303E"/>
<stop offset="1" stop-color="#18212B"/>
</linearGradient>
<linearGradient id="paint4_linear_1211_4" x1="1419.06" y1="591.411" x2="1414.73" y2="824.544" gradientUnits="userSpaceOnUse">
<stop stop-color="#23303E"/>
<stop offset="1" stop-color="#18212B"/>
</linearGradient>
<linearGradient id="paint5_linear_1211_4" x1="301.651" y1="91.6058" x2="119.103" y2="642.987" gradientUnits="userSpaceOnUse">
<stop stop-color="#23303E"/>
<stop offset="1" stop-color="#18212B"/>
</linearGradient>
<linearGradient id="paint6_linear_1211_4" x1="1153.02" y1="469.233" x2="1391.8" y2="704.626" gradientUnits="userSpaceOnUse">
<stop stop-color="#3F566F"/>
<stop offset="1" stop-color="#152B43"/>
</linearGradient>
<linearGradient id="paint7_linear_1211_4" x1="1305.7" y1="461.953" x2="1598.17" y2="753.097" gradientUnits="userSpaceOnUse">
<stop stop-color="#3F566F"/>
<stop offset="1" stop-color="#152B43"/>
</linearGradient>
<linearGradient id="paint8_linear_1211_4" x1="1284.58" y1="228.93" x2="1546.77" y2="229.855" gradientUnits="userSpaceOnUse">
<stop stop-color="#27384A"/>
<stop offset="1" stop-color="#161F29"/>
</linearGradient>
<linearGradient id="paint9_linear_1211_4" x1="469.65" y1="332.808" x2="193.468" y2="424.765" gradientUnits="userSpaceOnUse">
<stop stop-color="#3E556E"/>
<stop offset="1" stop-color="#142A42"/>
</linearGradient>
<linearGradient id="paint10_linear_1211_4" x1="224.147" y1="451.854" x2="-147.912" y2="453.664" gradientUnits="userSpaceOnUse">
<stop stop-color="#27384A"/>
<stop offset="1" stop-color="#161F29"/>
</linearGradient>
<clipPath id="clip0_1211_4">
<rect width="1441" height="1025" fill="white"/>
</clipPath>
</defs>
</svg>
