<svg width="224" height="214" viewBox="0 0 224 214" fill="none" xmlns="http://www.w3.org/2000/svg">
<path fill-rule="evenodd" clip-rule="evenodd" d="M8 0H86.7814C91.0642 9.16878 100.684 15.5585 111.864 15.5585C123.045 15.5585 132.665 9.16878 136.947 0H215.729C220.147 0 223.729 3.58172 223.729 8V205.93C223.729 210.348 220.147 213.93 215.729 213.93H7.99999C3.58171 213.93 0 210.348 0 205.93V7.99999C0 3.58172 3.58172 0 8 0ZM205.424 23.1276C209.917 23.1276 213.559 19.676 213.559 15.4184C213.559 11.1607 209.917 7.70917 205.424 7.70917C200.931 7.70917 197.288 11.1607 197.288 15.4184C197.288 19.676 200.931 23.1276 205.424 23.1276Z" fill="#360057" fill-opacity="0.7"/>
</svg>
