<svg width="1441" height="1025" viewBox="0 0 1441 1025" fill="none" xmlns="http://www.w3.org/2000/svg">
<g clip-path="url(#clip0_3611_1646)">
<mask id="mask0_3611_1646" style="mask-type:luminance" maskUnits="userSpaceOnUse" x="0" y="0" width="1441" height="1025">
<path d="M1440.8 0.541016H0.797852V1024.54H1440.8V0.541016Z" fill="white"/>
</mask>
<g mask="url(#mask0_3611_1646)">
<path d="M1440.8 0.541016H0.797852V1024.54H1440.8V0.541016Z" fill="url(#paint0_linear_3611_1646)"/>
<path d="M1440.8 770.772H0.797852V1024.54H1440.8V770.772Z" fill="#002F6B"/>
<path d="M289.987 792.128C314.477 795.67 471.436 799.714 482.568 808.619C493.699 817.525 788.693 817.525 810.958 820.865C833.22 824.206 708.543 825.318 731.921 840.861C755.299 856.405 1052.52 842.016 1095.93 839.959C1139.35 837.903 1223.95 843.128 1287.4 839.604C1350.85 836.08 1446.59 837.565 1466.62 839.604C1486.66 841.646 1555.68 834.223 1555.68 834.223V770.772H241.386C175.291 786.707 267.449 788.865 289.987 792.128Z" fill="#001636"/>
<path d="M-114.094 770.772V811.493C-74.8072 805.808 25.4508 831.818 47.3178 829.215C70.6948 826.431 198.711 835.893 217.922 831.997C237.133 828.101 428.027 848.139 471.998 847.996C515.969 847.854 605.023 847.025 604.325 844.8C603.626 842.573 582.203 836.729 544.634 839.604C507.062 842.48 388.51 839.234 327.563 819.196C266.614 799.16 153.071 806.673 183.962 792.128C214.853 777.581 54.5528 778.288 54.5528 778.288L64.1158 770.772H-114.094Z" fill="#001636"/>
<path d="M625.221 759.38C610.124 760.457 593.396 760.457 584.29 760.457H491.977C478.939 760.457 433.263 770.777 401.391 777.185C90.4518 777.185 32.8068 798.901 -114.095 789.976V714.752C-101.969 713.277 -84.1872 711.236 -74.1702 710.782C-57.9692 710.101 -35.8262 700.519 -22.9332 704.773C-10.0402 709.024 24.0858 708.174 36.9798 710.045C49.8718 711.859 78.9178 712.257 89.0778 712.257C97.4178 712.257 125.409 710.045 142.616 709.876H142.761C146.595 709.818 149.903 709.876 152.298 710.045C165.48 711.066 170.655 710.101 189.828 712.484C208.999 714.808 225.009 717.359 238.955 716.34C252.951 715.319 264.551 715.943 279.312 716.34C294.074 716.737 332.419 724.278 356 721.896C379.581 719.571 405.129 723.769 419.506 722.351C433.886 720.989 470.648 726.661 475.44 728.985C480.235 731.366 496.194 737.491 504.966 738C513.785 738.455 537.751 739.418 550.5 743.16C563.297 746.961 583.283 750.248 590.855 751.213C595.745 751.837 611.513 756.6 625.221 759.38Z" fill="#0C3E7E"/>
<path d="M1555.68 699.834V719.737C1544.18 719.682 1528.75 719.625 1517.1 720.022C1496.11 720.758 1464.38 717.98 1452.97 719.682C1441.61 721.438 1400.25 713.953 1379.92 719.113C1359.51 724.274 1339.76 713.103 1318.77 717.299C1297.82 721.438 1301.99 713.897 1273.86 720.531C1245.72 727.11 1240.3 727.79 1223.53 727.79C1206.75 727.79 1192.38 727.11 1181.02 727.79C1169.61 728.527 1149.24 731.361 1135.48 734.936C1121.68 738.451 1120.48 736.295 1101.93 734.936C1083.34 733.462 1061.77 730.626 1048.59 731.361C1035.4 732.1 1014.41 724.671 1005.45 726.599C996.486 728.527 977.315 728.527 965.907 729.943C954.5 731.361 940.121 737.772 921.572 733.462C903.024 729.264 863.434 730.626 855.668 732.779C847.903 734.936 825.713 741.967 807.739 741.967C789.765 741.967 734.502 744.121 720.795 746.957C707.085 749.791 662.751 753.307 645.976 756.881C640.322 758.069 632.986 758.864 625.223 759.375C611.514 756.596 595.746 751.832 590.858 751.209C583.284 750.246 563.297 746.957 550.5 743.156C537.751 739.414 513.785 738.451 504.966 737.996C496.196 737.486 480.235 731.361 475.442 728.981C470.648 726.656 433.888 720.984 419.508 722.347C405.129 723.765 379.583 719.569 356 721.892C332.419 724.274 294.076 716.733 279.312 716.336C264.551 715.938 252.952 715.315 238.955 716.336C225.009 717.356 208.999 714.804 189.828 712.48C170.657 710.099 165.48 711.062 152.298 710.04C149.903 709.872 146.595 709.813 142.761 709.872C154.504 707.207 167.877 704.768 179.474 702.046C199.845 697.339 198.647 700.628 218.586 698.304C228.842 697.057 234.258 697.112 238.429 697.283H238.477C242.454 697.339 245.332 697.565 250.172 696.886C260.141 695.468 268.146 700.175 277.3 700.175C286.502 700.175 308.453 701.593 318.04 702.046C327.627 702.556 336.446 703.974 351.59 703.69C366.785 703.464 377.952 705.845 389.935 702.046C401.917 698.304 410.304 702.556 423.103 703.69C435.9 704.88 446.684 704.88 454.641 703.69C462.645 702.5 473.045 703.464 480.618 703.69C488.192 703.918 502.571 704.427 508.993 703.69C515.368 702.953 544.125 704.88 554.91 706.81C565.694 708.681 576.094 711.517 582.086 711.517C588.078 711.517 602.024 711.517 618.034 704.768C633.993 698.077 637.587 700.175 652.351 698.701C667.161 697.225 680.725 701.138 693.906 698.701C707.085 696.263 740.638 699.21 750.608 698.701C760.624 698.189 775.003 697.792 798.153 698.701C821.303 699.607 825.33 699.722 834.915 698.701C844.501 697.681 873.642 697.339 886.439 695.468C899.188 693.539 912.37 697.792 922.387 698.701C932.356 699.607 962.697 694.503 973.672 695.921C973.912 695.98 974.201 695.98 974.487 696.035C985.847 697.169 1009.67 693.539 1019.83 692.688C1030.23 691.84 1069.77 698.304 1076.53 693.938C1083.34 689.628 1099.3 697.792 1117.27 699.381C1135.24 700.911 1148.42 702.046 1158.44 699.381C1168.41 696.659 1216.72 699.21 1222.71 699.381C1228.71 699.493 1253.49 702.046 1262.69 702.046C1271.84 702.046 1299.4 702.046 1313.78 701.593C1328.16 701.138 1370.1 696.374 1383.71 694.503C1397.28 692.632 1401.25 695.921 1418.03 698.983C1434.8 701.99 1454.41 700.628 1470.75 701.876C1487.14 703.123 1486.33 702.046 1502.34 703.974C1518.3 705.845 1525.1 704.427 1533.88 700.628C1539.82 698.077 1549.88 698.983 1555.68 699.834Z" fill="#0F4FA0"/>
<path d="M1555.68 674.373V699.834C1549.88 698.983 1539.81 698.077 1533.87 700.628C1525.1 704.427 1518.3 705.845 1502.33 703.974C1486.33 702.044 1487.14 703.123 1470.75 701.876C1454.4 700.628 1434.8 701.988 1418.02 698.983C1401.25 695.921 1397.27 692.632 1383.71 694.503C1370.1 696.374 1328.16 701.138 1313.78 701.593C1299.4 702.044 1271.84 702.044 1262.68 702.044C1253.48 702.044 1228.7 699.493 1222.71 699.381C1216.72 699.21 1168.41 696.659 1158.44 699.381C1148.42 702.044 1135.24 700.911 1117.27 699.381C1099.29 697.792 1083.33 689.628 1076.53 693.935C1069.77 698.302 1030.23 691.838 1019.82 692.688C1009.66 693.539 985.842 697.169 974.482 696.033C986.321 693.2 999.646 689.401 1004.25 687.245C1010.62 684.297 1030.61 685.545 1039.81 686.963C1048.97 688.38 1068.95 684.58 1080.55 684.58C1092.1 684.58 1100.49 684.127 1113.67 681.746C1126.85 679.363 1168.41 672.785 1181.2 671.367C1189.54 670.461 1196.02 668.305 1203.68 666.548C1207.71 665.583 1212.07 664.732 1217.15 664.279C1231.91 662.861 1231.1 668.021 1250.7 669.213C1270.26 670.404 1271.07 672.785 1283.82 672.785C1296.62 672.785 1303.81 678.91 1313.01 674.656C1322.16 670.404 1338.94 671.367 1338.94 671.367C1338.94 671.367 1354.52 666.603 1362.91 664.732C1371.29 662.861 1372.92 667.115 1377.28 666.15C1381.69 665.187 1393.68 659.517 1400.05 659.517C1406.48 659.517 1416.06 665.187 1422.05 666.15C1428.04 667.115 1439.6 659.517 1447.6 659.517C1455.6 659.517 1462.36 662.861 1467.59 662.861C1472.76 662.861 1486.76 664.732 1509.09 665.697C1531.47 666.603 1534.69 672.275 1553.95 674.203L1555.68 674.373Z" fill="#2367BD"/>
<path d="M1555.69 645.058V674.376L1553.96 674.205C1534.69 672.278 1531.49 666.609 1509.1 665.7C1486.77 664.738 1472.77 662.866 1467.59 662.866C1462.37 662.866 1455.61 659.519 1447.61 659.519C1439.6 659.519 1428.05 667.118 1422.06 666.153C1416.07 665.191 1406.48 659.519 1400.06 659.519C1393.69 659.519 1381.7 665.191 1377.29 666.153C1372.93 667.118 1371.3 662.866 1362.92 664.738C1354.53 666.609 1338.95 671.371 1338.95 671.371C1338.95 671.371 1322.17 670.407 1313.02 674.661C1303.82 678.912 1296.63 672.787 1283.83 672.787C1271.08 672.787 1270.27 670.407 1250.71 669.215C1231.11 668.027 1231.92 662.866 1217.16 664.282C1212.08 664.738 1207.72 665.587 1203.69 666.552C1196.74 663.149 1186.77 658.385 1184 657.194C1179.59 655.267 1169.23 650.56 1162.81 647.271C1158.88 645.229 1152.74 643.529 1146.99 641.998C1169.23 640.807 1212.65 638.538 1222.34 638.538C1235.52 638.538 1233.12 646.308 1258.29 638.538C1283.45 630.712 1296.63 627.197 1308.61 630.712C1320.59 634.229 1322.41 637.121 1342.74 636.043C1363.15 634.966 1358.36 639.956 1382.33 636.043C1406.29 632.13 1442.24 627.255 1449.43 629.353C1456.62 631.395 1479.96 632.13 1489.55 632.13C1499.13 632.13 1520.08 639.218 1535.7 642.734C1541.45 644.096 1548.6 644.834 1555.69 645.058Z" fill="#0F4FA0"/>
<path d="M604.325 675.336C587.646 676.981 567.275 677.378 562.483 677.945C554.526 678.91 539.332 681.744 525.338 680.781C511.391 679.873 504.2 682.141 491.403 681.008C478.606 679.873 445.486 679.023 437.098 681.291C428.711 683.615 417.927 677.605 403.93 681.291C389.936 685.033 353.221 687.416 346.414 686.96C339.61 686.451 330.455 685.148 321.251 687.019C312.049 688.834 305.674 689.796 292.11 689.796C278.498 689.796 264.552 688.378 260.957 689.796C258.99 690.591 249.071 693.936 238.478 697.281H238.43C234.259 697.11 228.843 697.055 218.587 698.302C198.648 700.626 199.846 697.339 179.475 702.044C167.876 704.768 154.505 707.204 142.762 709.87H142.617C125.41 710.04 97.4188 712.253 89.0798 712.253C78.9188 712.253 49.8728 711.856 36.9808 710.04C24.0868 708.169 -10.0392 709.02 -22.9322 704.768C-35.8252 700.514 -57.9682 710.097 -74.1692 710.776C-84.1862 711.232 -101.968 713.274 -114.094 714.747V637.798H-52.6002C-32.2302 637.798 -15.4552 632.126 0.121765 637.798C15.6998 643.468 0.121765 637.798 36.0698 637.798C72.0168 637.798 82.8018 628.498 107.964 635.303C133.128 642.052 187.049 636.721 208.617 636.551C230.186 636.38 246.961 625.38 284.106 636.551C321.251 647.722 350.009 637.174 383.559 640.293C417.112 643.468 423.102 634.509 438.681 641.823C454.257 649.14 471.033 644.886 493.8 647.722C516.566 650.558 514.41 652.711 562.098 663.712C591.671 670.517 596.081 673.297 604.325 675.336Z" fill="#0F4FA0"/>
<path d="M1203.68 666.55C1196.02 668.307 1189.55 670.463 1181.21 671.369C1168.41 672.787 1126.85 679.363 1113.67 681.746C1100.49 684.129 1092.1 684.582 1080.56 684.582C1068.96 684.582 1048.97 688.38 1039.82 686.963C1030.61 685.547 1010.62 684.297 1004.25 687.247C999.649 689.402 986.324 693.2 974.485 696.035C974.198 695.98 973.912 695.98 973.67 695.924C962.695 694.506 932.354 699.608 922.385 698.701C912.368 697.795 899.186 693.541 886.437 695.468C873.64 697.339 844.499 697.681 834.913 698.701C825.329 699.722 821.301 699.608 798.153 698.701C775.001 697.795 760.623 698.19 750.605 698.701C740.636 699.21 707.083 696.263 693.904 698.701C680.723 701.14 667.159 697.227 652.349 698.701C637.585 700.175 633.991 698.077 618.032 704.768C602.022 711.517 588.076 711.517 582.084 711.517C576.094 711.517 565.692 708.681 554.908 706.81C544.123 704.882 515.366 702.955 508.991 703.691C502.569 704.429 488.189 703.918 480.618 703.691C473.043 703.464 462.643 702.5 454.639 703.691C446.683 704.882 435.898 704.882 423.101 703.691C410.304 702.558 401.915 698.304 389.933 702.046C377.952 705.847 366.783 703.464 351.588 703.691C336.444 703.974 327.624 702.558 318.038 702.046C308.451 701.593 286.5 700.175 277.298 700.175C268.143 700.175 260.139 695.468 250.17 696.886C245.33 697.566 242.452 697.339 238.475 697.283C249.068 693.938 258.989 690.593 260.954 689.798C264.549 688.38 278.496 689.798 292.107 689.798C305.671 689.798 312.046 688.834 321.25 687.021C330.452 685.148 339.606 686.453 346.414 686.963C353.218 687.418 389.933 685.035 403.93 681.293C417.924 677.607 428.708 683.617 437.096 681.293C445.485 679.025 478.603 679.875 491.4 681.01C504.199 682.143 511.388 679.875 525.335 680.781C539.331 681.746 554.523 678.912 562.48 677.947C567.272 677.38 587.643 676.983 604.322 675.338C615.443 674.261 624.98 672.561 627.186 669.951C632.793 663.317 634.375 668.987 643.578 664.281C652.782 659.519 657.142 662.863 663.133 659.519C669.123 656.23 683.935 659.066 696.684 662.863C709.481 666.606 744.614 663.317 754.201 659.519C763.785 655.774 770.209 653.394 784.971 646.815C799.733 640.295 802.56 643.47 818.521 639.671C834.483 635.929 840.905 638.253 850.059 636.382C859.261 634.511 886.437 639.218 892.812 639.218C899.186 639.218 907.576 630.257 915.196 625.153C922.77 620.051 936.333 630.257 938.729 632.128C941.125 633.999 957.518 634.511 965.089 637.347C972.711 640.181 977.074 642.505 983.066 641.599C989.055 640.634 993.082 635.929 1001.47 630.257C1009.86 624.587 1015.85 627.423 1020.64 625.552C1025.43 623.679 1031.81 628.33 1040.58 633.546C1049.4 638.765 1046.19 634.511 1054.96 634.511C1063.78 634.511 1062.58 634.511 1073.75 631.166C1084.91 627.876 1086.54 627.876 1096.13 626.005C1105.72 624.076 1114.11 628.839 1120.48 632.581C1126.85 636.382 1130.45 636.835 1137.25 639.218C1139.89 640.124 1143.34 641.031 1146.94 641.995H1146.98C1152.74 643.526 1158.87 645.229 1162.8 647.269C1169.22 650.558 1179.58 655.265 1183.99 657.192C1186.77 658.383 1196.74 663.147 1203.68 666.55Z" fill="#2367BD"/>
<path d="M1555.68 719.737V777.178C1211.7 796.518 924.502 807.505 401.386 777.178C433.259 770.771 478.934 760.45 491.972 760.45H584.284C593.391 760.45 610.119 760.45 625.218 759.373C632.981 758.864 640.314 758.069 645.969 756.879C662.745 753.306 707.08 749.791 720.79 746.955C734.497 744.119 789.76 741.965 807.734 741.965C825.707 741.965 847.898 734.933 855.663 732.779C863.429 730.624 903.017 729.263 921.567 733.459C940.116 737.769 954.493 731.361 965.902 729.943C977.31 728.525 996.481 728.525 1005.44 726.598C1014.41 724.671 1035.4 732.099 1048.58 731.361C1061.76 730.624 1083.33 733.459 1101.93 734.933C1120.48 736.295 1121.67 738.449 1135.48 734.933C1149.23 731.361 1169.6 728.525 1181.01 727.79C1192.37 727.107 1206.75 727.79 1223.53 727.79C1240.3 727.79 1245.71 727.107 1273.85 720.531C1301.99 713.897 1297.82 721.438 1318.76 717.299C1339.76 713.102 1359.5 724.274 1379.92 719.113C1400.24 713.953 1441.61 721.438 1452.96 719.681C1464.37 717.978 1496.1 720.758 1517.09 720.02C1528.74 719.623 1544.17 719.681 1555.68 719.737Z" fill="#002F6B"/>
<path d="M1555.69 848.189C1534 849.121 1437.85 853.148 1396.5 853.148C1227.94 853.148 1028.54 851.182 1027.6 864.874C1027.43 867.258 1033.42 868.262 1033.58 872.417C1033.71 875.873 1031.67 899.795 950.114 903.242C871.079 906.581 843.249 908.623 842.136 922.072C841.021 935.524 987.962 932.182 1008 931.07C1028.04 929.958 1275.05 941.089 1265.09 953.334C1255.13 965.58 1325.26 965.58 1361.99 967.806C1396.44 969.893 1457.34 985.688 1555.69 982.133V848.189Z" fill="#2367BD"/>
<path d="M107.201 921.025L106.119 921.111H106.099L105.781 921.131H105.76L103.452 921.279H103.409L60.9708 924.202C60.9708 924.202 65.5658 937.791 57.4488 954.38C54.3598 960.69 50.9668 967.329 47.9448 973.14C60.3418 971.796 69.8228 969.689 72.0888 969.161C72.1948 969.14 72.3008 969.119 72.3638 969.098C72.4488 969.075 72.5128 969.054 72.5548 969.054C72.5968 969.034 72.6178 969.034 72.6178 969.034L81.8088 948.556L107.222 921.025H107.201Z" fill="#002F6B"/>
<path d="M-98.2021 896.541C-98.2021 896.541 57.7979 884.541 165.798 907.541C273.798 930.541 345.798 944.541 416.798 932.541C487.798 920.541 595.798 948.541 595.798 948.541C595.798 948.541 315.798 958.541 294.798 968.541C294.798 968.541 356.798 982.541 437.798 983.541C518.798 984.541 615.798 1002.54 680.798 1000.54C745.798 998.541 871.798 1032.54 871.798 1032.54H-96.3611L-98.2021 896.541Z" fill="#0F4FA0"/>
<path d="M433.077 987.491C474.276 987.491 507.676 979.363 507.676 969.337C507.676 959.311 474.276 951.183 433.077 951.183C391.877 951.183 358.478 959.311 358.478 969.337C358.478 979.363 391.877 987.491 433.077 987.491Z" fill="#001D3F" fill-opacity="0.41"/>
<path d="M1118.41 683.961V729.811C1118.36 731.655 1117.22 733.184 1115.8 733.541C1113.92 734.014 1111.53 732.446 1111.25 729.811V663.581C1110.7 658.258 1106.63 654.104 1101.8 653.541C1096.14 652.883 1090.51 657.26 1089.76 663.581V745.101C1089.07 746.715 1087.45 747.699 1085.8 747.541C1084.39 747.406 1083.15 746.46 1082.59 745.101V699.251C1081.23 693.711 1076.1 690.048 1070.8 690.541C1066.18 690.971 1062.22 694.48 1061.1 699.251V745.101C1061.59 747.374 1063.56 755.042 1070.8 760.541C1075.4 764.035 1080.09 765.104 1082.59 765.482V806.232H1118.41V755.291C1120.71 754.874 1127.29 753.373 1132.8 747.541C1139.54 740.4 1139.87 731.845 1139.9 729.811V683.961C1138.23 679.698 1134.26 676.788 1129.8 676.541C1124.89 676.27 1120.27 679.259 1118.41 683.961Z" fill="#001636"/>
<g opacity="0.75">
<path d="M1326.65 202.041C1326.65 252.495 1285.75 293.396 1235.3 293.396C1184.84 293.396 1143.94 252.495 1143.94 202.041C1143.94 151.587 1184.84 110.686 1235.3 110.686C1285.75 110.686 1326.65 151.587 1326.65 202.041Z" fill="#033459"/>
</g>
<g opacity="0.75">
<path d="M1318.35 202.041C1318.35 247.908 1281.16 285.091 1235.3 285.091C1189.43 285.091 1152.25 247.908 1152.25 202.041C1152.25 156.174 1189.43 118.991 1235.3 118.991C1281.16 118.991 1318.35 156.174 1318.35 202.041Z" fill="#013A6D"/>
</g>
<path d="M1310.8 202.041C1310.8 243.738 1277 277.541 1235.3 277.541C1193.6 277.541 1159.8 243.738 1159.8 202.041C1159.8 160.344 1193.6 126.541 1235.3 126.541C1277 126.541 1310.8 160.344 1310.8 202.041Z" fill="#8BA0BA"/>
<path d="M1216.3 142.041C1211.07 139.486 1201.82 145.166 1202.3 148.041C1202.8 151.053 1214.31 153.029 1218.3 149.041C1218.63 148.705 1219.67 147.668 1219.67 146.26C1219.68 144.195 1217.46 142.607 1216.3 142.041Z" fill="#768DAA"/>
<path d="M1193.8 153.541C1193.8 153.541 1178.8 159.541 1181.8 172.541C1184.8 185.541 1191.8 172.541 1197.8 168.541C1203.8 164.541 1202.8 149.541 1193.8 153.541Z" fill="#768DAA"/>
<path d="M1217.8 159.541C1213.34 156.709 1206.22 158.526 1204.84 162.168C1204.7 162.543 1204.3 163.601 1204.8 164.541C1206.72 168.156 1219.89 166.229 1220.48 162.918C1220.75 161.419 1218.4 159.922 1217.8 159.541Z" fill="#768DAA"/>
<path d="M1174.8 222.541C1174.8 222.541 1171.8 186.541 1185.8 192.541C1199.8 198.541 1204.8 229.541 1213.8 239.541C1222.8 249.541 1205.8 261.541 1197.8 253.541C1189.8 245.541 1173.8 237.541 1174.8 222.541Z" fill="#768DAA"/>
<path d="M1220.8 217.541C1219.1 217.06 1216.54 219.485 1215.85 222.004C1214.91 225.472 1217.7 228.397 1218.8 229.541C1219.91 230.704 1221.21 232.06 1222.16 231.72C1224.66 230.826 1224.15 218.487 1220.8 217.541Z" fill="#768DAA"/>
<path d="M1241.8 252.541C1240.21 247.821 1221.75 247.324 1219.26 253.172C1218.43 255.104 1219.59 257.167 1219.8 257.541C1222.36 262.104 1231.1 263.157 1236.8 259.541C1238.88 258.216 1242.61 254.963 1241.8 252.541Z" fill="#768DAA"/>
<path d="M299.086 963.684C308.978 963.684 316.998 961.707 316.998 959.267C316.998 956.828 308.978 954.85 299.086 954.85C289.193 954.85 281.174 956.828 281.174 959.267C281.174 961.707 289.193 963.684 299.086 963.684Z" fill="#001D3F" fill-opacity="0.41"/>
<path d="M294.465 873.723C293.781 874.643 293.335 875.728 293.203 876.874C293.063 878.102 293.307 879.218 293.726 880.37C293.958 881.011 294.142 881.641 294.184 882.325C294.23 883.019 294.132 883.713 294.019 884.397C293.805 885.69 293.598 887.013 292.73 888.046C291.889 889.048 290.695 889.641 289.53 890.182C288.864 890.491 288.329 889.482 288.995 889.171C289.973 888.715 290.988 888.248 291.74 887.45C292.549 886.592 292.714 885.357 292.898 884.238C293.005 883.572 293.103 882.888 293.038 882.212C292.977 881.562 292.727 880.947 292.507 880.339C292.1 879.212 291.923 878.023 292.06 876.825C292.213 875.483 292.696 874.191 293.503 873.106C293.94 872.519 294.906 873.13 294.465 873.723Z" fill="#751A1B"/>
<path d="M294.001 884.862C294.047 886.298 293.784 887.753 293.234 889.082C292.638 890.512 291.724 891.67 290.695 892.81C290.487 893.039 290.083 892.988 289.888 892.777C289.662 892.532 289.714 892.199 289.921 891.97C290.835 890.961 291.669 889.916 292.183 888.642C292.675 887.423 292.901 886.13 292.861 884.816C292.852 884.507 293.164 884.257 293.457 884.269C293.781 884.278 293.992 884.55 294.001 884.862Z" fill="#751A1B"/>
<path d="M304.262 826.509L293.731 826.063L294.193 957.433H306.123C306.123 957.433 300.637 844.35 304.262 826.509Z" fill="#020202"/>
<path d="M298.407 833.529C298.501 833.523 298.593 833.511 298.688 833.492C298.779 833.477 298.871 833.456 298.96 833.428C298.868 833.407 298.779 833.385 298.694 833.364C298.608 833.339 298.523 833.315 298.437 833.284C298.355 833.257 298.272 833.226 298.193 833.193L298.132 833.168C298.113 833.159 298.092 833.15 298.074 833.144C298.052 833.138 298.034 833.132 298.012 833.129C297.991 833.125 297.97 833.119 297.951 833.116L297.624 833.031L297.71 833.355C297.802 833.709 297.881 834.067 297.957 834.43C297.951 834.433 297.942 834.436 297.936 834.436C297.82 834.491 297.71 834.562 297.618 834.65C297.578 834.687 297.545 834.724 297.514 834.766C297.487 834.62 297.444 834.476 297.395 834.339C297.361 834.241 297.325 834.146 297.285 834.054C297.261 834.036 297.239 834.021 297.215 834.003C297.19 833.987 297.169 833.969 297.141 833.954C297.093 833.923 297.041 833.889 296.986 833.862C296.97 833.923 296.958 833.981 296.949 834.039C296.943 834.067 296.94 834.097 296.937 834.125L296.924 834.207C296.961 834.296 296.995 834.381 297.025 834.467C297.086 834.641 297.132 834.815 297.151 834.993C297.16 835.081 297.163 835.167 297.16 835.252C297.16 835.274 297.157 835.295 297.154 835.317C297.151 835.338 297.151 835.359 297.145 835.381C297.141 835.39 297.141 835.402 297.138 835.411L297.132 835.442C297.129 835.46 297.123 835.482 297.117 835.5C297.105 835.537 297.093 835.573 297.077 835.61C297.068 835.625 297.062 835.64 297.053 835.656C296.934 835.567 296.814 835.479 296.695 835.39C296.628 835.341 296.564 835.292 296.497 835.246C296.429 835.197 296.362 835.152 296.295 835.103C296.157 835.008 296.014 834.913 295.858 834.834C295.806 834.806 295.751 834.782 295.696 834.757C295.714 834.727 295.736 834.693 295.751 834.663C295.791 834.589 295.827 834.516 295.861 834.449C295.931 834.314 296.005 834.183 296.084 834.054C296.106 834.024 296.124 833.99 296.145 833.96C296.157 833.944 296.17 833.929 296.179 833.914C296.188 833.899 296.194 833.877 296.2 833.859C296.228 833.786 296.255 833.712 296.286 833.639C296.344 833.492 296.405 833.345 296.466 833.193C296.432 833.214 296.396 833.235 296.362 833.26L296.31 833.294C296.295 833.306 296.277 833.318 296.261 833.33C296.228 833.355 296.197 833.379 296.164 833.404C296.133 833.428 296.099 833.456 296.069 833.483C296.005 833.535 295.947 833.59 295.885 833.648C295.87 833.663 295.855 833.676 295.843 833.691C295.83 833.706 295.821 833.724 295.812 833.743C295.803 833.761 295.794 833.779 295.782 833.795L295.751 833.847C295.665 833.984 295.589 834.125 295.513 834.268C295.476 834.339 295.442 834.409 295.409 834.47C295.381 834.519 295.354 834.565 295.323 834.608L295.219 834.66L294.733 834.91L295.268 835.023C295.406 835.054 295.543 835.106 295.675 835.173C295.809 835.243 295.937 835.326 296.069 835.414C296.133 835.46 296.2 835.506 296.264 835.555C296.329 835.601 296.396 835.65 296.46 835.699C296.591 835.793 296.72 835.891 296.848 835.989C296.976 836.087 297.105 836.184 297.23 836.285C297.294 836.334 297.355 836.386 297.42 836.435C297.484 836.487 297.545 836.536 297.606 836.588C297.637 836.612 297.667 836.64 297.698 836.664C297.713 836.676 297.725 836.692 297.74 836.707C297.756 836.722 297.771 836.731 297.789 836.741C297.86 836.777 297.93 836.817 298 836.857C298.141 836.939 298.278 837.028 298.413 837.129C298.385 837.049 298.352 836.97 298.315 836.89C298.297 836.851 298.275 836.814 298.254 836.774L298.187 836.664C298.141 836.591 298.092 836.521 298.04 836.45C298.028 836.432 298.012 836.417 297.997 836.404C297.982 836.392 297.964 836.38 297.945 836.368C297.915 836.34 297.881 836.313 297.85 836.288C297.786 836.236 297.722 836.184 297.658 836.132C297.594 836.081 297.53 836.032 297.465 835.98C297.429 835.949 297.389 835.922 297.352 835.891V835.888C297.355 835.882 297.358 835.873 297.365 835.867L297.377 835.845C297.392 835.818 297.404 835.79 297.42 835.766C297.444 835.711 297.465 835.656 297.481 835.601C297.49 835.573 297.496 835.546 297.502 835.518L297.511 835.475C297.514 835.46 297.514 835.448 297.517 835.436C297.52 835.408 297.523 835.381 297.527 835.353C297.53 835.326 297.533 835.298 297.533 835.271C297.539 835.161 297.536 835.054 297.523 834.947C297.52 834.928 297.52 834.91 297.517 834.892C297.578 834.867 297.643 834.849 297.704 834.84C297.808 834.821 297.908 834.818 298.012 834.821H298.019C298.058 835.029 298.098 835.237 298.138 835.445L298.205 835.796C298.229 835.916 298.254 836.044 298.303 836.175L298.309 836.197L298.321 836.215L298.355 836.264L298.443 836.401L298.593 836.337C298.859 836.224 299.119 836.105 299.375 835.974C299.44 835.94 299.504 835.909 299.568 835.876L299.641 835.839C299.644 835.836 299.653 835.833 299.669 835.824C299.681 835.815 299.702 835.802 299.724 835.775C299.733 835.763 299.745 835.747 299.751 835.729C299.76 835.711 299.766 835.695 299.77 835.677C299.776 835.647 299.776 835.622 299.773 835.607C299.773 835.592 299.77 835.582 299.77 835.579L299.766 835.567L299.757 835.515L299.687 835.093C299.678 835.042 299.669 834.993 299.66 834.941C299.727 834.965 299.794 834.993 299.861 835.02C299.959 835.063 300.057 835.109 300.152 835.158C300.249 835.207 300.344 835.258 300.436 835.313C300.622 835.42 300.802 835.54 300.974 835.668C301.145 835.796 301.304 835.937 301.447 836.093L301.518 836.136L301.536 836.148L301.551 836.16C301.563 836.169 301.573 836.175 301.585 836.184C301.606 836.2 301.631 836.215 301.652 836.23C301.673 836.246 301.698 836.264 301.719 836.279L301.753 836.304C301.765 836.313 301.774 836.322 301.786 836.331L301.854 836.383C301.878 836.401 301.896 836.42 301.921 836.438C301.942 836.456 301.967 836.475 301.988 836.496C301.982 836.469 301.976 836.438 301.97 836.411C301.964 836.383 301.958 836.352 301.948 836.325C301.93 836.27 301.915 836.212 301.89 836.157C301.878 836.129 301.869 836.102 301.857 836.074C301.844 836.047 301.832 836.019 301.82 835.992C301.814 835.977 301.808 835.964 301.802 835.952L301.783 835.909L301.741 835.83C301.582 835.656 301.404 835.5 301.218 835.359C301.032 835.219 300.839 835.09 300.637 834.977C300.589 834.95 300.537 834.919 300.488 834.892C300.436 834.864 300.387 834.837 300.335 834.812C300.234 834.76 300.127 834.708 300.02 834.663C299.935 834.626 299.849 834.592 299.76 834.562C299.773 834.556 299.785 834.55 299.797 834.543C299.803 834.54 299.806 834.534 299.809 834.531C299.812 834.525 299.815 834.519 299.815 834.513C299.818 834.507 299.821 834.501 299.825 834.498L299.834 834.482C299.849 834.461 299.861 834.443 299.873 834.421C299.901 834.381 299.928 834.339 299.953 834.299C300.057 834.137 300.155 833.978 300.262 833.834C300.368 833.691 300.485 833.556 300.616 833.431C300.68 833.37 300.747 833.309 300.818 833.254L300.87 833.101C300.879 833.074 300.888 833.049 300.897 833.022C300.906 832.994 300.916 832.967 300.925 832.936C300.894 832.933 300.864 832.933 300.833 832.93C300.802 832.93 300.775 832.93 300.744 832.933C300.714 832.933 300.686 832.936 300.656 832.939C300.628 832.942 300.598 832.945 300.57 832.951C300.491 833.015 300.417 833.08 300.344 833.15C300.197 833.29 300.066 833.44 299.947 833.602C299.828 833.764 299.727 833.929 299.623 834.085C299.598 834.125 299.571 834.164 299.546 834.201C299.534 834.219 299.522 834.241 299.507 834.259L299.498 834.274C299.495 834.281 299.491 834.284 299.485 834.287L299.482 834.29L299.458 834.244C299.424 834.18 299.388 834.116 299.354 834.054L299.302 833.96C299.284 833.929 299.268 833.899 299.25 833.865C299.183 833.74 299.119 833.611 299.058 833.48C299.045 833.627 299.051 833.773 299.064 833.92C299.067 833.957 299.07 833.993 299.073 834.03L299.085 834.14C299.094 834.213 299.103 834.284 299.113 834.354L299.119 834.406V834.412C298.954 834.391 298.792 834.381 298.63 834.378C298.529 834.375 298.425 834.375 298.321 834.381C298.263 834.1 298.202 833.819 298.135 833.538C298.239 833.538 298.324 833.535 298.407 833.529ZM299.314 835.152L299.378 835.534C299.323 835.561 299.268 835.592 299.213 835.619C299.024 835.714 298.831 835.805 298.639 835.891C298.624 835.836 298.614 835.778 298.602 835.717L298.535 835.365C298.498 835.164 298.459 834.965 298.422 834.763C298.495 834.76 298.569 834.76 298.645 834.763C298.853 834.77 299.058 834.785 299.256 834.821C299.274 834.928 299.293 835.038 299.314 835.152Z" fill="#E42328"/>
<path d="M297.729 832.065C297.604 832.071 297.479 832.077 297.35 832.086C297.286 832.09 297.222 832.096 297.158 832.102C297.127 832.105 297.094 832.108 297.063 832.111C297.032 832.114 296.999 832.117 296.965 832.123C296.898 832.132 296.825 832.145 296.745 832.172C296.705 832.184 296.666 832.203 296.629 832.224C296.611 832.233 296.592 832.245 296.574 832.255C296.565 832.261 296.556 832.264 296.547 832.27C296.537 832.276 296.531 832.282 296.525 832.291C296.501 832.328 296.482 832.365 296.467 832.401C296.461 832.42 296.452 832.438 296.449 832.456C296.446 832.465 296.443 832.475 296.44 832.484L296.433 832.511C296.415 832.585 296.409 832.655 296.406 832.731C296.476 832.704 296.54 832.673 296.602 832.649C296.663 832.624 296.721 832.609 296.773 832.603C296.785 832.6 296.791 832.591 296.797 832.585C296.8 832.582 296.803 832.578 296.809 832.575C296.812 832.572 296.819 832.569 296.822 832.569C296.837 832.56 296.855 832.554 296.877 832.545C296.916 832.533 296.965 832.52 297.023 832.514C297.051 832.511 297.081 832.508 297.112 832.505C297.142 832.502 297.173 832.499 297.204 832.496C297.265 832.49 297.326 832.487 297.387 832.481C297.509 832.472 297.631 832.465 297.757 832.459L298.505 832.423L298.881 832.404L298.973 832.355C299.004 832.337 299.034 832.322 299.065 832.303C299.126 832.27 299.187 832.233 299.248 832.19C299.184 832.154 299.12 832.123 299.055 832.096C299.025 832.08 298.991 832.068 298.961 832.053L298.866 832.013L298.49 832.031L297.729 832.065Z" fill="#E42328"/>
<path d="M296.488 830.571C296.454 830.574 296.417 830.574 296.384 830.577L296.332 830.58C296.313 830.58 296.295 830.58 296.28 830.583C296.261 830.583 296.243 830.583 296.228 830.586C296.209 830.589 296.191 830.592 296.176 830.595C296.157 830.601 296.142 830.604 296.124 830.61L296.072 830.629C296.038 830.641 296.002 830.653 295.968 830.665C295.95 830.672 295.934 830.678 295.916 830.687L295.867 830.708C295.852 830.714 295.834 830.724 295.818 830.733C295.803 830.742 295.785 830.748 295.769 830.757L295.72 830.785L295.696 830.797L295.672 830.812C295.549 830.889 295.436 830.986 295.354 831.099C295.482 831.044 295.61 831.011 295.739 830.992L295.788 830.986L295.837 830.983C295.87 830.98 295.901 830.98 295.931 830.977C295.996 830.977 296.06 830.977 296.124 830.98L296.222 830.986C296.252 830.989 296.286 830.983 296.316 830.977C296.332 830.974 296.347 830.971 296.365 830.971L296.414 830.968C296.448 830.965 296.478 830.965 296.512 830.962C296.576 830.959 296.643 830.956 296.711 830.953L296.912 830.947C297.45 830.928 297.988 830.919 298.523 830.916C299.061 830.913 299.598 830.916 300.133 830.928C300.402 830.934 300.671 830.94 300.94 830.95C301.074 830.953 301.209 830.959 301.343 830.965L301.423 830.968C301.411 830.992 301.395 831.017 301.383 831.041C301.346 831.109 301.316 831.176 301.285 831.246C301.258 831.316 301.23 831.387 301.209 831.457C301.264 831.405 301.316 831.356 301.371 831.307C301.426 831.258 301.481 831.212 301.536 831.167C301.591 831.121 301.649 831.078 301.707 831.038C301.765 830.999 301.823 830.959 301.881 830.922L302.233 830.705L301.762 830.601C301.728 830.595 301.695 830.583 301.661 830.583C301.628 830.583 301.594 830.586 301.56 830.583L301.359 830.574C301.224 830.568 301.09 830.565 300.952 830.559C300.683 830.549 300.411 830.543 300.142 830.537C299.601 830.528 299.061 830.522 298.52 830.525C297.979 830.528 297.438 830.537 296.897 830.555L296.695 830.562C296.625 830.565 296.555 830.568 296.488 830.571Z" fill="#E42328"/>
<path d="M304.272 852.222C304.266 852.564 303.838 852.833 303.321 852.821L293.127 852.61C292.608 852.601 292.195 852.313 292.201 851.971C292.207 851.629 292.635 851.36 293.151 851.372L303.346 851.583C303.865 851.595 304.278 851.88 304.272 852.222Z" fill="#751A1B" stroke="#2B1111" stroke-width="0.57" stroke-miterlimit="10"/>
<path d="M293.521 852.292L303.716 852.503C303.902 852.506 304.073 852.475 304.223 852.417C304.095 852.662 303.74 852.833 303.321 852.824L293.127 852.613C292.608 852.604 292.195 852.317 292.201 851.974C292.204 851.754 292.384 851.568 292.647 851.461C292.617 851.522 292.598 851.586 292.595 851.653C292.586 851.996 293.002 852.28 293.521 852.292Z" fill="#751A1B" fill-opacity="0.22" stroke="#2B1111" stroke-opacity="0.22" stroke-width="0.57" stroke-miterlimit="10"/>
<path d="M304.247 853.459C304.241 853.802 303.813 854.071 303.297 854.058L293.103 853.848C292.583 853.838 292.171 853.551 292.177 853.209C292.183 852.867 292.611 852.598 293.127 852.61L303.321 852.821C303.838 852.83 304.254 853.117 304.247 853.459Z" fill="#751A1B" stroke="#2B1111" stroke-width="0.57" stroke-miterlimit="10"/>
<path d="M293.494 853.527L303.688 853.738C303.875 853.741 304.046 853.71 304.195 853.652C304.067 853.896 303.713 854.068 303.294 854.058L293.1 853.848C292.58 853.838 292.167 853.551 292.174 853.209C292.177 852.989 292.357 852.802 292.62 852.695C292.589 852.757 292.571 852.821 292.568 852.888C292.562 853.23 292.974 853.517 293.494 853.527Z" fill="#751A1B" fill-opacity="0.22" stroke="#2B1111" stroke-opacity="0.22" stroke-width="0.57" stroke-miterlimit="10"/>
<path d="M304.222 854.694C304.216 855.036 303.788 855.305 303.272 855.293L293.077 855.082C292.558 855.073 292.145 854.786 292.151 854.443C292.157 854.101 292.585 853.832 293.102 853.844L303.296 854.055C303.812 854.068 304.228 854.355 304.222 854.694Z" fill="#751A1B" stroke="#2B1111" stroke-width="0.57" stroke-miterlimit="10"/>
<path d="M293.469 854.764L303.664 854.975C303.85 854.978 304.021 854.948 304.171 854.89C304.043 855.134 303.688 855.305 303.27 855.296L293.075 855.085C292.556 855.076 292.143 854.789 292.149 854.446C292.152 854.226 292.332 854.04 292.595 853.933C292.565 853.994 292.546 854.058 292.543 854.126C292.534 854.468 292.95 854.755 293.469 854.764Z" fill="#751A1B" fill-opacity="0.22" stroke="#2B1111" stroke-opacity="0.22" stroke-width="0.57" stroke-miterlimit="10"/>
<path d="M304.195 855.932C304.189 856.274 303.762 856.543 303.245 856.531L293.051 856.32C292.531 856.311 292.119 856.023 292.125 855.681C292.131 855.339 292.559 855.07 293.075 855.082L303.27 855.293C303.789 855.305 304.205 855.589 304.195 855.932Z" fill="#751A1B" stroke="#2B1111" stroke-width="0.57" stroke-miterlimit="10"/>
<path d="M293.445 856.002L303.639 856.213C303.826 856.216 303.997 856.185 304.147 856.127C304.018 856.372 303.664 856.543 303.245 856.534L293.051 856.323C292.531 856.314 292.119 856.026 292.125 855.684C292.128 855.464 292.308 855.278 292.571 855.171C292.54 855.232 292.522 855.296 292.519 855.363C292.51 855.706 292.925 855.993 293.445 856.002Z" fill="#751A1B" fill-opacity="0.22" stroke="#2B1111" stroke-opacity="0.22" stroke-width="0.57" stroke-miterlimit="10"/>
<path d="M304.195 860.925C304.189 861.267 303.762 861.536 303.245 861.524L293.051 861.313C292.531 861.304 292.119 861.017 292.125 860.674C292.131 860.332 292.559 860.063 293.075 860.075L303.27 860.286C303.786 860.299 304.202 860.583 304.195 860.925Z" fill="#751A1B" stroke="#2B1111" stroke-width="0.57" stroke-miterlimit="10"/>
<path d="M293.442 860.995L303.636 861.206C303.823 861.209 303.994 861.179 304.144 861.121C304.015 861.365 303.661 861.536 303.242 861.527L293.048 861.316C292.528 861.307 292.116 861.02 292.122 860.677C292.125 860.457 292.305 860.271 292.568 860.164C292.537 860.225 292.519 860.289 292.516 860.357C292.51 860.699 292.922 860.983 293.442 860.995Z" fill="#751A1B" fill-opacity="0.22" stroke="#2B1111" stroke-opacity="0.22" stroke-width="0.57" stroke-miterlimit="10"/>
<path d="M304.168 862.163C304.162 862.505 303.734 862.774 303.218 862.762L293.023 862.551C292.504 862.542 292.091 862.254 292.097 861.912C292.103 861.57 292.531 861.301 293.048 861.313L303.242 861.524C303.762 861.533 304.177 861.82 304.168 862.163Z" fill="#751A1B" stroke="#2B1111" stroke-width="0.57" stroke-miterlimit="10"/>
<path d="M293.417 862.233L303.612 862.444C303.798 862.447 303.969 862.416 304.119 862.358C303.991 862.603 303.636 862.774 303.218 862.765L293.023 862.554C292.504 862.545 292.091 862.257 292.097 861.915C292.1 861.695 292.281 861.509 292.543 861.402C292.513 861.463 292.494 861.527 292.491 861.594C292.482 861.937 292.898 862.221 293.417 862.233Z" fill="#751A1B" fill-opacity="0.22" stroke="#2B1111" stroke-opacity="0.22" stroke-width="0.57" stroke-miterlimit="10"/>
<path d="M304.143 863.4C304.136 863.743 303.709 864.011 303.192 863.999L292.998 863.788C292.478 863.779 292.066 863.492 292.072 863.15C292.078 862.807 292.506 862.539 293.022 862.551L303.217 862.762C303.736 862.771 304.149 863.058 304.143 863.4Z" fill="#751A1B" stroke="#2B1111" stroke-width="0.57" stroke-miterlimit="10"/>
<path d="M293.389 863.468L303.583 863.678C303.77 863.681 303.941 863.651 304.091 863.593C303.962 863.837 303.608 864.008 303.189 863.999L292.995 863.788C292.475 863.779 292.063 863.492 292.069 863.15C292.072 862.93 292.252 862.743 292.515 862.636C292.484 862.697 292.466 862.762 292.463 862.829C292.457 863.171 292.872 863.458 293.389 863.468Z" fill="#751A1B" fill-opacity="0.22" stroke="#2B1111" stroke-opacity="0.22" stroke-width="0.57" stroke-miterlimit="10"/>
<path d="M304.119 864.635C304.113 864.977 303.685 865.246 303.169 865.234L292.974 865.023C292.455 865.014 292.042 864.727 292.048 864.384C292.054 864.042 292.482 863.773 292.999 863.785L303.193 863.996C303.71 864.008 304.125 864.296 304.119 864.635Z" fill="#751A1B" stroke="#2B1111" stroke-width="0.57" stroke-miterlimit="10"/>
<path d="M293.365 864.705L303.56 864.916C303.746 864.919 303.917 864.889 304.067 864.83C303.939 865.075 303.584 865.246 303.166 865.237L292.971 865.026C292.452 865.017 292.039 864.73 292.045 864.387C292.048 864.167 292.229 863.981 292.491 863.874C292.461 863.935 292.442 863.999 292.439 864.066C292.433 864.409 292.846 864.696 293.365 864.705Z" fill="#751A1B" fill-opacity="0.22" stroke="#2B1111" stroke-opacity="0.22" stroke-width="0.57" stroke-miterlimit="10"/>
<path d="M303.994 882.066C303.994 882.408 303.575 882.686 303.056 882.689L292.858 882.729C292.339 882.732 291.917 882.457 291.917 882.115C291.917 881.772 292.336 881.494 292.855 881.491L303.053 881.451C303.572 881.451 303.994 881.727 303.994 882.066Z" fill="#751A1B" stroke="#2B1111" stroke-width="0.57" stroke-miterlimit="10"/>
<path d="M293.246 882.399L303.444 882.359C303.63 882.359 303.801 882.322 303.948 882.261C303.826 882.509 303.474 882.689 303.059 882.689L292.861 882.729C292.342 882.732 291.92 882.457 291.92 882.115C291.92 881.895 292.091 881.702 292.354 881.592C292.323 881.653 292.308 881.717 292.308 881.785C292.305 882.127 292.727 882.402 293.246 882.399Z" fill="#751A1B" fill-opacity="0.22" stroke="#2B1111" stroke-opacity="0.22" stroke-width="0.57" stroke-miterlimit="10"/>
<path d="M304 883.303C304 883.646 303.581 883.924 303.062 883.927L292.864 883.966C292.345 883.97 291.923 883.695 291.923 883.352C291.923 883.01 292.342 882.732 292.861 882.729L303.059 882.689C303.575 882.686 303.997 882.964 304 883.303Z" fill="#751A1B" stroke="#2B1111" stroke-width="0.57" stroke-miterlimit="10"/>
<path d="M293.252 883.636L303.45 883.597C303.636 883.597 303.807 883.56 303.954 883.499C303.832 883.746 303.48 883.927 303.065 883.927L292.867 883.966C292.348 883.97 291.926 883.695 291.926 883.352C291.926 883.132 292.097 882.94 292.36 882.83C292.329 882.891 292.314 882.955 292.314 883.022C292.311 883.364 292.733 883.64 293.252 883.636Z" fill="#751A1B" fill-opacity="0.22" stroke="#2B1111" stroke-opacity="0.22" stroke-width="0.57" stroke-miterlimit="10"/>
<path d="M304.003 884.541C304.003 884.883 303.584 885.161 303.065 885.164L292.867 885.204C292.348 885.207 291.926 884.932 291.926 884.59C291.926 884.248 292.345 883.97 292.864 883.966L303.062 883.927C303.581 883.924 304.003 884.202 304.003 884.541Z" fill="#751A1B" stroke="#2B1111" stroke-width="0.57" stroke-miterlimit="10"/>
<path d="M293.255 884.874L303.453 884.834C303.639 884.834 303.81 884.798 303.957 884.737C303.835 884.984 303.483 885.164 303.068 885.164L292.87 885.204C292.351 885.207 291.929 884.932 291.929 884.59C291.929 884.37 292.1 884.177 292.363 884.067C292.332 884.128 292.317 884.193 292.317 884.26C292.314 884.599 292.736 884.877 293.255 884.874Z" fill="#751A1B" fill-opacity="0.22" stroke="#2B1111" stroke-opacity="0.22" stroke-width="0.57" stroke-miterlimit="10"/>
<path d="M304.009 885.779C304.009 886.121 303.59 886.399 303.071 886.402L292.873 886.442C292.354 886.445 291.932 886.17 291.932 885.828C291.932 885.485 292.351 885.207 292.87 885.204L303.068 885.164C303.584 885.161 304.006 885.436 304.009 885.779Z" fill="#751A1B" stroke="#2B1111" stroke-width="0.57" stroke-miterlimit="10"/>
<path d="M293.261 886.112L303.459 886.072C303.645 886.072 303.817 886.035 303.963 885.974C303.841 886.222 303.49 886.402 303.074 886.402L292.876 886.442C292.357 886.445 291.935 886.17 291.935 885.828C291.935 885.608 292.106 885.415 292.369 885.305C292.339 885.366 292.323 885.43 292.323 885.498C292.32 885.837 292.742 886.115 293.261 886.112Z" fill="#751A1B" fill-opacity="0.22" stroke="#2B1111" stroke-opacity="0.22" stroke-width="0.57" stroke-miterlimit="10"/>
<path d="M304.128 890.769C304.128 891.111 303.71 891.389 303.19 891.392L292.993 891.432C292.473 891.435 292.051 891.16 292.051 890.818C292.051 890.476 292.47 890.197 292.989 890.194L303.187 890.155C303.707 890.152 304.128 890.43 304.128 890.769Z" fill="#751A1B" stroke="#2B1111" stroke-width="0.57" stroke-miterlimit="10"/>
<path d="M293.381 891.102L303.578 891.062C303.765 891.062 303.936 891.026 304.082 890.965C303.96 891.212 303.609 891.392 303.193 891.392L292.996 891.432C292.476 891.435 292.054 891.16 292.054 890.818C292.054 890.598 292.226 890.405 292.488 890.295C292.458 890.356 292.442 890.421 292.442 890.488C292.439 890.83 292.861 891.105 293.381 891.102Z" fill="#751A1B" fill-opacity="0.22" stroke="#2B1111" stroke-opacity="0.22" stroke-width="0.57" stroke-miterlimit="10"/>
<path d="M304.134 892.007C304.134 892.349 303.716 892.627 303.196 892.63L292.999 892.67C292.479 892.673 292.057 892.398 292.057 892.055C292.057 891.713 292.476 891.435 292.996 891.432L303.193 891.392C303.71 891.389 304.131 891.667 304.134 892.007Z" fill="#751A1B" stroke="#2B1111" stroke-width="0.57" stroke-miterlimit="10"/>
<path d="M293.384 892.34L303.581 892.3C303.768 892.3 303.939 892.263 304.085 892.202C303.963 892.45 303.612 892.63 303.196 892.63L292.999 892.67C292.479 892.673 292.057 892.398 292.057 892.055C292.057 891.835 292.229 891.643 292.491 891.533C292.461 891.594 292.446 891.658 292.446 891.725C292.446 892.065 292.867 892.343 293.384 892.34Z" fill="#751A1B" fill-opacity="0.22" stroke="#2B1111" stroke-opacity="0.22" stroke-width="0.57" stroke-miterlimit="10"/>
<path d="M304.137 893.244C304.137 893.586 303.719 893.865 303.199 893.868L293.002 893.907C292.482 893.91 292.06 893.635 292.06 893.293C292.06 892.951 292.479 892.673 292.999 892.67L303.196 892.63C303.716 892.627 304.137 892.902 304.137 893.244Z" fill="#751A1B" stroke="#2B1111" stroke-width="0.57" stroke-miterlimit="10"/>
<path d="M293.389 893.577L303.586 893.538C303.773 893.538 303.944 893.501 304.091 893.44C303.968 893.687 303.617 893.868 303.201 893.868L293.004 893.907C292.484 893.91 292.063 893.635 292.063 893.293C292.063 893.073 292.234 892.881 292.496 892.771C292.466 892.832 292.451 892.896 292.451 892.963C292.448 893.302 292.869 893.58 293.389 893.577Z" fill="#751A1B" fill-opacity="0.22" stroke="#2B1111" stroke-opacity="0.22" stroke-width="0.57" stroke-miterlimit="10"/>
<path d="M304.143 894.482C304.143 894.824 303.724 895.102 303.204 895.105L293.007 895.145C292.487 895.148 292.066 894.873 292.066 894.531C292.066 894.188 292.484 893.91 293.004 893.907L303.201 893.868C303.718 893.865 304.139 894.14 304.143 894.482Z" fill="#751A1B" stroke="#2B1111" stroke-width="0.57" stroke-miterlimit="10"/>
<path d="M293.395 894.815L303.592 894.775C303.779 894.775 303.95 894.739 304.097 894.677C303.974 894.925 303.623 895.105 303.207 895.105L293.01 895.145C292.49 895.148 292.069 894.873 292.069 894.531C292.069 894.311 292.24 894.118 292.503 894.008C292.472 894.069 292.457 894.133 292.457 894.201C292.454 894.54 292.875 894.815 293.395 894.815Z" fill="#751A1B" fill-opacity="0.22" stroke="#2B1111" stroke-opacity="0.22" stroke-width="0.57" stroke-miterlimit="10"/>
<path d="M410.317 953.431C412.472 954.09 430.954 949.418 434.942 955.323C439.929 962.703 427.231 982.145 426.798 982.127C417.417 981.734 411.979 978.274 407.793 976.895C403.421 975.456 399.225 973.789 395.02 972.126C390.619 970.384 386.224 968.634 381.636 967.137C379.894 966.568 378.122 966.048 376.368 965.5C375.163 965.124 373.992 964.709 372.921 964.163C371.731 963.557 370.84 962.771 370.131 961.88C368.989 960.446 368.307 958.903 367.867 957.299C367.389 955.565 367.221 953.815 367.382 952.055C367.505 950.694 367.796 949.352 368.478 948.062C369.202 946.693 371.125 942.319 373.002 941.676C373.639 941.457 374.292 941.261 374.926 941.036C375.24 940.924 375.497 940.963 375.807 941.052C383.174 943.17 390.091 945.897 396.996 948.644C401.338 950.373 405.732 952.032 410.317 953.431Z" fill="url(#paint1_linear_3611_1646)"/>
<path d="M490.825 945.615C491.333 945.844 491.765 946.069 492.239 946.252C493.168 946.607 493.996 947.046 494.705 947.592C496.417 948.903 497.783 950.36 498.503 952.084C499.219 953.792 498.782 955.325 497.044 956.649C496.947 956.722 496.865 956.803 496.731 956.921C498.029 957.351 498.297 958.148 498.297 959.018C498.297 960.277 498.271 961.535 498.223 962.794C498.2 963.411 497.857 963.959 497.305 964.442C496.686 964.985 495.932 965.424 495.123 965.821C493.213 966.756 491.131 967.472 489.016 968.143C484.562 969.556 479.988 970.762 475.404 971.948C467.764 973.925 460.12 975.894 452.462 977.832C446.444 979.358 440.252 980.462 434 981.402C432.978 981.557 431.955 981.695 430.933 981.844C429.24 982.089 427.546 982.11 425.826 981.927C424.584 981.794 424.967 976.983 424.275 970.755C423.991 968.194 423.525 965.394 422.689 962.58C419.23 950.935 411.883 938.474 416.931 934.076C437.049 916.551 490.303 923.392 491.713 924.081C491.78 924.115 491.848 924.152 491.922 924.178C494.709 925.196 496.402 926.899 497.771 928.793C498.283 929.5 498.615 930.253 498.764 931.047C499.017 932.363 498.473 933.502 497.272 934.51C497.111 934.643 496.954 934.781 496.798 934.917C496.787 934.927 496.79 934.946 496.779 934.988C497.88 935.364 498.256 936.051 498.271 936.858C498.29 937.751 498.264 938.644 498.256 939.535C498.253 939.856 498.234 940.18 498.245 940.501C498.275 941.418 497.786 942.18 496.884 942.83C496.123 943.382 495.257 943.844 494.325 944.236C493.377 944.635 492.4 945.001 491.433 945.379C491.262 945.453 491.083 945.518 490.825 945.615ZM423.196 958.511C423.126 958.396 423.107 958.339 423.062 958.292C422.376 957.547 421.913 956.735 421.548 955.892C420.361 953.139 419.955 950.331 420.354 947.471C420.522 946.26 420.839 945.069 421.447 943.922C422.301 942.3 423.771 941.062 425.987 940.276C426.397 940.13 426.804 939.984 427.222 939.848C429.71 939.049 432.261 938.359 434.847 937.73C445.336 935.173 455.763 932.493 466.096 929.647C471.304 928.213 476.459 926.693 481.641 925.215C483.596 924.658 392.324 931.054 421.286 958.25C421.665 958.605 422.517 958.42 423.196 958.511ZM430.195 975.111C429.754 974.86 429.344 974.662 428.986 974.421C427.464 973.392 427.069 971.397 429.143 970.177C429.542 969.942 429.967 969.726 430.4 969.525C431.627 968.955 432.97 968.548 434.358 968.221C437.249 967.542 440.147 966.887 443.039 966.21C449.197 964.769 455.349 963.301 461.284 961.449C468.588 959.167 475.825 956.785 483.092 954.442C483.2 954.405 483.301 954.353 483.42 954.304C483.268 954.053 483.338 953.831 483.51 953.617C483.928 953.094 484.099 952.525 484.152 951.935C484.159 951.833 484.163 951.728 484.193 951.629C484.275 951.352 484.555 951.183 484.924 951.17C485.304 951.157 485.607 951.303 485.715 951.574C485.763 951.7 485.797 951.838 485.771 951.964C485.681 952.41 485.565 952.857 485.454 953.303C485.427 953.41 485.383 953.517 485.327 953.685C485.595 953.598 485.786 953.544 485.968 953.481C486.703 953.238 487.434 952.982 488.177 952.752C488.703 952.588 489.15 952.697 489.344 953.006C489.523 953.29 489.352 953.567 488.867 953.763C488.684 953.836 488.494 953.896 488.307 953.959C483.868 955.427 479.444 956.918 474.986 958.354C470.051 959.942 465.119 961.533 460.12 963.019C453.021 965.129 445.691 966.798 438.376 968.493C436.592 968.906 434.817 969.339 433.063 969.807C432.045 970.076 431.116 970.486 430.284 970.982C429.117 971.679 429.02 972.813 430.083 973.58C430.881 974.158 431.892 974.429 433.034 974.369C433.925 974.322 434.802 974.199 435.652 973.975C437.547 973.476 439.442 972.975 441.367 972.533C449.6 970.642 457.763 968.613 465.869 966.471C472.281 964.779 478.638 963.001 484.819 960.922C487.99 959.856 491.072 958.678 493.843 957.148C494.612 956.725 495.332 956.249 495.996 955.745C497.163 954.857 497.469 953.794 497.025 952.637C496.272 950.668 494.72 949.049 492.523 947.73C491.848 947.325 491.042 947.038 490.154 946.98C489.348 946.928 488.52 946.944 487.718 947.014C486.345 947.137 485.028 947.443 483.749 947.803C481.887 948.328 480.044 948.879 478.194 949.417C466.779 952.744 455.2 955.777 443.572 958.723C439.607 959.728 435.619 960.694 431.668 961.726C429.99 962.165 428.356 962.7 426.737 963.238C424.912 963.847 423.685 964.865 423.029 966.195C422.682 966.897 422.406 967.623 422.215 968.352C421.805 969.942 421.742 971.551 421.936 973.165C422.148 974.91 422.611 976.613 423.465 978.261C423.775 978.853 424.174 979.418 424.73 979.919C425.364 980.491 426.181 980.812 427.222 980.898C428.087 980.969 428.938 980.925 429.781 980.82C431.344 980.627 432.899 980.407 434.447 980.17C440.591 979.232 446.665 978.107 452.577 976.6C459.188 974.915 465.794 973.22 472.397 971.517C477.414 970.224 482.424 968.924 487.326 967.427C489.568 966.743 491.792 966.027 493.817 965.056C494.537 964.711 495.197 964.299 495.839 963.883C496.365 963.541 496.608 963.089 496.615 962.58C496.634 961.439 496.664 960.297 496.675 959.154C496.678 958.905 496.652 958.652 496.567 958.412C496.376 957.874 495.529 957.681 494.91 958.015C493.071 959.01 491.116 959.885 489.076 960.663C485.256 962.123 481.283 963.356 477.276 964.531C469.569 966.793 461.724 968.804 453.849 970.755C447.866 972.238 441.856 973.672 435.854 975.114C435.145 975.283 434.399 975.375 433.671 975.497C433.328 975.555 432.974 975.584 432.634 975.652C431.056 975.968 429.695 976.553 428.482 977.318C428.329 977.414 428.173 977.519 427.99 977.587C427.651 977.712 427.248 977.652 427.016 977.467C426.785 977.279 426.763 976.997 426.99 976.775C427.098 976.667 427.24 976.579 427.378 976.49C428.225 975.962 429.143 975.503 430.195 975.111ZM483.45 932.378C483.238 932.078 483.383 931.838 483.562 931.6C483.887 931.167 484.077 930.707 484.122 930.216C484.14 930.025 484.155 929.835 484.208 929.649C484.282 929.399 484.566 929.234 484.905 929.216C485.275 929.195 485.599 929.344 485.711 929.61C485.767 929.749 485.8 929.903 485.771 930.041C485.674 930.503 485.547 930.96 485.431 931.42C485.409 931.509 485.383 931.595 485.342 931.741C486.121 931.48 486.819 931.245 487.513 931.015C487.778 930.926 488.039 930.832 488.311 930.764C488.736 930.66 489.143 930.77 489.329 931.023C489.52 931.279 489.404 931.561 489.016 931.749C488.845 931.83 488.651 931.89 488.464 931.953C483.286 933.661 478.127 935.395 472.927 937.069C468.391 938.526 463.839 939.968 459.24 941.324C453.077 943.139 446.724 944.601 440.386 946.079C438.267 946.573 436.141 947.054 434.033 947.571C432.687 947.902 431.444 948.383 430.322 949.01C428.788 949.864 429.288 951.18 430.273 951.765C431.071 952.238 432 952.481 433.048 952.421C433.962 952.368 434.858 952.238 435.727 952.011C437.622 951.512 439.521 951.015 441.442 950.572C449.216 948.78 456.934 946.879 464.597 944.862C471.166 943.131 477.698 941.347 484.043 939.239C487.278 938.166 490.43 936.999 493.314 935.499C494.254 935.011 495.156 934.489 495.936 933.87C497.107 932.94 497.466 931.88 497.025 930.684C496.395 928.962 495.033 927.539 493.314 926.27C491.795 925.147 489.919 924.794 487.766 925.053C485.942 925.272 484.211 925.698 482.518 926.202C476.21 928.074 469.86 929.874 463.466 931.595C453.935 934.16 444.348 936.622 434.705 938.976C432.202 939.587 429.747 940.292 427.333 941.065C424.901 941.843 423.402 943.136 422.689 944.92C422.275 945.954 422.047 947.004 421.924 948.072C421.637 950.613 422.062 953.097 423.088 955.534C423.439 956.364 423.89 957.166 424.625 957.874C425.259 958.485 426.084 958.848 427.173 958.95C428.083 959.033 428.975 958.979 429.855 958.869C431.437 958.673 433.015 958.451 434.582 958.208C440.211 957.338 445.799 956.354 451.227 954.983C459.102 952.995 466.962 950.974 474.814 948.947C479.321 947.785 483.812 946.594 488.195 945.215C490.139 944.604 492.071 943.964 493.828 943.113C494.545 942.765 495.205 942.353 495.847 941.937C496.373 941.595 496.608 941.141 496.619 940.634C496.637 939.493 496.671 938.351 496.675 937.208C496.675 936.946 496.645 936.675 496.544 936.427C496.343 935.933 495.511 935.75 494.955 936.053C492.918 937.16 490.74 938.111 488.464 938.96C485.032 940.24 481.484 941.35 477.903 942.407C469.666 944.841 461.265 946.98 452.838 949.067C447.209 950.459 441.558 951.807 435.91 953.162C435.201 953.332 434.459 953.429 433.727 953.551C433.343 953.617 432.948 953.651 432.567 953.729C431.206 954.011 429.99 954.486 428.911 955.129C428.658 955.28 428.415 955.445 428.147 955.583C427.744 955.79 427.304 955.761 427.02 955.528C426.763 955.317 426.766 955.009 427.076 954.771C427.315 954.588 427.576 954.416 427.859 954.27C428.609 953.883 429.378 953.51 430.146 953.128C429.833 952.964 429.49 952.799 429.176 952.611C427.46 951.58 426.964 949.446 429.262 948.156C429.508 948.017 429.758 947.887 430.012 947.759C431.355 947.095 432.843 946.633 434.395 946.267C437.424 945.557 440.465 944.87 443.49 944.16C449.567 942.734 455.629 941.261 461.493 939.446C467.126 937.701 472.71 935.873 478.31 934.076C480.003 933.525 481.678 932.961 483.45 932.378Z" fill="#68AFFF"/>
<path d="M423.196 958.511C422.514 958.417 421.902 958.341 421.298 958.252C416.362 957.526 411.703 956.257 407.17 954.737C403.004 953.34 398.986 951.747 394.968 950.156C390.712 948.472 386.463 946.782 382.035 945.322C380.166 944.706 378.252 944.155 376.376 943.546C375.447 943.246 374.537 942.914 373.656 942.554C371.683 941.744 370.433 940.498 369.504 939.072C368.527 937.568 367.964 935.983 367.628 934.356C367.337 932.961 367.251 931.558 367.382 930.151C367.508 928.774 367.792 927.419 368.478 926.113C369.21 924.729 370.489 923.705 372.38 923.05C374.499 922.316 376.685 921.691 378.905 921.13C383.911 919.863 388.94 918.636 393.939 917.356C403.843 914.82 413.702 912.206 423.439 909.367C425.636 908.727 427.833 908.085 430.053 907.486C430.982 907.236 431.989 907.123 432.937 906.904C433.608 906.747 434.283 906.805 434.958 906.787C435.626 906.768 436.298 906.758 436.965 906.774C440.416 906.847 443.673 907.523 446.877 908.356C450.492 909.296 453.913 910.524 457.24 911.874C461.851 913.744 466.428 915.653 471.028 917.536C476.101 919.61 481.268 921.558 486.58 923.316C486.976 923.447 487.364 923.59 487.755 923.729C487.807 923.747 487.856 923.778 487.953 923.828C487.841 923.864 487.763 923.906 487.681 923.914C485.573 924.128 483.607 924.658 481.652 925.217C476.471 926.695 471.311 928.215 466.108 929.649C455.771 932.493 445.348 935.176 434.858 937.732C432.273 938.362 429.721 939.051 427.233 939.851C426.815 939.984 426.408 940.133 425.998 940.279C423.782 941.065 422.312 942.303 421.458 943.925C420.854 945.074 420.537 946.265 420.365 947.474C419.966 950.334 420.372 953.141 421.559 955.894C421.921 956.738 422.387 957.55 423.073 958.294C423.107 958.339 423.129 958.396 423.196 958.511Z" fill="url(#paint2_linear_3611_1646)"/>
<path d="M430.195 975.111C429.143 975.503 428.225 975.962 427.389 976.495C427.251 976.584 427.11 976.675 427.001 976.78C426.774 977.002 426.796 977.284 427.028 977.472C427.259 977.657 427.665 977.72 428.001 977.592C428.18 977.524 428.337 977.42 428.494 977.323C429.706 976.558 431.068 975.973 432.646 975.657C432.985 975.589 433.339 975.56 433.683 975.503C434.414 975.38 435.16 975.289 435.865 975.119C441.867 973.677 447.877 972.243 453.861 970.76C461.735 968.809 469.581 966.798 477.288 964.536C481.294 963.361 485.267 962.128 489.087 960.668C491.128 959.89 493.079 959.015 494.921 958.02C495.537 957.686 496.384 957.882 496.578 958.417C496.664 958.655 496.686 958.911 496.686 959.159C496.675 960.3 496.645 961.441 496.626 962.585C496.619 963.095 496.376 963.546 495.85 963.889C495.209 964.306 494.548 964.716 493.828 965.061C491.803 966.03 489.579 966.748 487.337 967.433C482.436 968.929 477.422 970.23 472.408 971.522C465.805 973.225 459.203 974.92 452.588 976.605C446.672 978.112 440.603 979.237 434.459 980.175C432.91 980.413 431.355 980.632 429.792 980.825C428.952 980.93 428.098 980.974 427.233 980.904C426.192 980.817 425.375 980.494 424.741 979.924C424.181 979.423 423.782 978.859 423.476 978.266C422.618 976.62 422.159 974.915 421.947 973.17C421.749 971.556 421.816 969.95 422.226 968.357C422.417 967.626 422.693 966.9 423.04 966.2C423.696 964.871 424.924 963.852 426.748 963.243C428.367 962.703 430.001 962.17 431.679 961.731C435.63 960.7 439.618 959.733 443.583 958.728C455.207 955.782 466.786 952.75 478.205 949.422C480.056 948.882 481.902 948.331 483.76 947.808C485.039 947.448 486.356 947.142 487.729 947.02C488.531 946.949 489.359 946.933 490.165 946.986C491.053 947.043 491.859 947.33 492.534 947.735C494.731 949.054 496.283 950.676 497.037 952.643C497.48 953.8 497.175 954.863 496.007 955.75C495.347 956.255 494.623 956.73 493.854 957.153C491.083 958.683 488.001 959.859 484.831 960.927C478.649 963.006 472.293 964.782 465.88 966.477C457.774 968.618 449.612 970.648 441.379 972.538C439.454 972.98 437.559 973.481 435.663 973.98C434.813 974.205 433.936 974.327 433.045 974.374C431.903 974.435 430.892 974.163 430.094 973.586C429.031 972.818 429.128 971.684 430.295 970.987C431.127 970.491 432.056 970.081 433.075 969.812C434.832 969.347 436.604 968.911 438.387 968.498C445.702 966.803 453.036 965.134 460.131 963.024C465.13 961.538 470.062 959.945 474.997 958.36C479.459 956.926 483.879 955.432 488.319 953.964C488.509 953.901 488.699 953.841 488.878 953.768C489.367 953.572 489.538 953.296 489.356 953.011C489.162 952.703 488.714 952.593 488.188 952.757C487.442 952.99 486.714 953.243 485.98 953.486C485.793 953.546 485.607 953.604 485.338 953.69C485.394 953.523 485.439 953.418 485.465 953.309C485.577 952.862 485.692 952.418 485.782 951.969C485.808 951.843 485.778 951.705 485.726 951.58C485.618 951.308 485.316 951.162 484.935 951.175C484.562 951.188 484.286 951.355 484.204 951.634C484.174 951.734 484.17 951.838 484.163 951.94C484.111 952.53 483.939 953.1 483.521 953.622C483.35 953.836 483.279 954.056 483.432 954.309C483.312 954.358 483.215 954.413 483.103 954.447C475.837 956.787 468.599 959.172 461.295 961.454C455.36 963.309 449.209 964.774 443.05 966.216C440.159 966.892 437.26 967.55 434.369 968.227C432.978 968.553 431.638 968.96 430.411 969.53C429.978 969.731 429.553 969.948 429.154 970.183C427.08 971.402 427.475 973.398 428.997 974.427C429.344 974.662 429.754 974.86 430.195 975.111Z" fill="url(#paint3_linear_3611_1646)"/>
<path d="M483.449 932.378C481.681 932.961 480.006 933.525 478.316 934.068C472.717 935.865 467.136 937.693 461.499 939.438C455.631 941.253 449.573 942.726 443.496 944.152C440.467 944.862 437.427 945.549 434.402 946.26C432.853 946.623 431.365 947.085 430.018 947.751C429.761 947.876 429.511 948.009 429.269 948.148C426.971 949.435 427.467 951.572 429.183 952.603C429.496 952.791 429.839 952.956 430.153 953.121C429.384 953.504 428.616 953.875 427.866 954.262C427.582 954.408 427.318 954.58 427.082 954.763C426.773 955.004 426.769 955.312 427.027 955.521C427.31 955.753 427.75 955.782 428.153 955.576C428.422 955.437 428.664 955.273 428.918 955.121C430 954.476 431.216 954.003 432.574 953.721C432.95 953.643 433.35 953.609 433.734 953.544C434.465 953.421 435.207 953.324 435.916 953.154C441.564 951.799 447.216 950.451 452.845 949.059C461.272 946.975 469.673 944.834 477.91 942.4C481.491 941.342 485.038 940.232 488.47 938.952C490.742 938.106 492.921 937.153 494.961 936.045C495.521 935.742 496.349 935.925 496.551 936.419C496.651 936.667 496.685 936.938 496.681 937.2C496.674 938.341 496.644 939.482 496.625 940.626C496.618 941.133 496.379 941.587 495.853 941.929C495.211 942.345 494.551 942.757 493.835 943.105C492.078 943.956 490.145 944.596 488.202 945.207C483.819 946.586 479.327 947.777 474.821 948.939C466.965 950.966 459.108 952.987 451.233 954.975C445.806 956.346 440.217 957.331 434.588 958.2C433.018 958.443 431.443 958.665 429.862 958.861C428.981 958.971 428.09 959.028 427.179 958.942C426.09 958.84 425.266 958.474 424.632 957.866C423.897 957.158 423.445 956.354 423.095 955.526C422.069 953.089 421.644 950.603 421.931 948.064C422.05 946.996 422.281 945.946 422.696 944.912C423.408 943.128 424.911 941.835 427.34 941.057C429.753 940.284 432.208 939.579 434.711 938.968C444.354 936.612 453.938 934.149 463.473 931.587C469.867 929.866 476.216 928.067 482.524 926.194C484.218 925.693 485.949 925.264 487.773 925.045C489.925 924.786 491.802 925.136 493.32 926.262C495.036 927.534 496.401 928.955 497.032 930.676C497.468 931.872 497.114 932.932 495.943 933.862C495.163 934.481 494.264 935.001 493.32 935.492C490.436 936.991 487.284 938.158 484.05 939.232C477.704 941.339 471.172 943.126 464.603 944.855C456.941 946.873 449.223 948.772 441.448 950.564C439.527 951.008 437.628 951.504 435.733 952.003C434.864 952.233 433.969 952.361 433.055 952.413C432.007 952.473 431.078 952.23 430.279 951.757C429.295 951.175 428.795 949.856 430.328 949.002C431.455 948.375 432.693 947.895 434.04 947.563C436.147 947.046 438.274 946.565 440.393 946.072C446.734 944.593 453.084 943.131 459.246 941.316C463.846 939.963 468.397 938.521 472.933 937.061C478.133 935.39 483.293 933.653 488.47 931.945C488.661 931.882 488.855 931.822 489.023 931.741C489.411 931.556 489.522 931.271 489.336 931.015C489.149 930.762 488.743 930.65 488.318 930.757C488.041 930.825 487.78 930.921 487.519 931.007C486.822 931.24 486.128 931.472 485.348 931.733C485.389 931.59 485.415 931.501 485.438 931.412C485.553 930.953 485.68 930.493 485.777 930.033C485.807 929.895 485.773 929.738 485.717 929.602C485.609 929.336 485.281 929.19 484.912 929.208C484.572 929.226 484.285 929.391 484.214 929.641C484.158 929.827 484.147 930.018 484.128 930.208C484.083 930.697 483.893 931.159 483.569 931.592C483.378 931.838 483.233 932.078 483.449 932.378Z" fill="url(#paint4_linear_3611_1646)"/>
<path d="M473.42 918.517C470.088 919.021 466.756 919.523 463.425 920.028C460.252 920.507 457.04 920.92 453.911 921.534C452.361 921.838 450.843 922.216 449.391 922.7C448.015 923.159 446.708 923.715 445.418 924.28C444.126 924.848 442.844 925.429 441.507 925.948C440.156 926.473 438.748 926.927 437.324 927.348C434.507 928.177 431.646 928.93 428.897 929.876C426.358 930.748 423.899 931.742 421.581 932.878C416.939 935.154 412.825 938.007 409.985 941.463C407.171 944.888 405.553 948.892 405.958 952.86C406.009 953.369 406.099 953.876 406.212 954.381C406.288 954.726 406.907 954.916 407.349 954.832C407.878 954.731 408.07 954.383 407.993 954.036C407.171 950.281 408.399 946.392 410.862 943.04C413.357 939.645 417.116 936.78 421.484 934.513C423.693 933.364 426.05 932.358 428.488 931.465C431.059 930.527 433.728 929.759 436.412 928.998C439.287 928.182 442.054 927.279 444.69 926.128C447.229 925.02 449.721 923.869 452.571 923.18C455.537 922.462 458.648 922.069 461.708 921.608C464.953 921.118 468.194 920.626 471.439 920.137C472.265 920.013 473.091 919.889 473.916 919.762C475.072 919.589 474.579 918.342 473.42 918.517Z" fill="#68AFFF"/>
<path d="M387.528 946.962C388.437 943.468 390.324 940.137 393.033 937.137C395.724 934.156 399.219 931.503 403.293 929.422C405.364 928.365 407.577 927.449 409.902 926.696C412.607 925.819 415.447 925.162 418.275 924.516C421.129 923.864 423.993 923.223 426.768 922.409C429.683 921.552 432.388 920.474 434.963 919.191C437.44 917.957 439.885 916.671 442.246 915.33C444.491 914.052 446.628 912.668 448.406 911.063C448.863 910.652 449.297 910.229 449.703 909.792C450.351 909.093 448.754 908.444 448.109 909.141C444.926 912.576 439.975 915.023 435.336 917.419C432.797 918.73 430.175 919.934 427.3 920.852C424.595 921.717 421.759 922.368 418.934 923.012C413.48 924.257 408.073 925.555 403.307 927.847C399.027 929.904 395.325 932.513 392.377 935.502C389.458 938.463 387.3 941.818 386.138 945.324C385.996 945.755 385.87 946.189 385.754 946.622C385.663 946.965 385.888 947.32 386.398 947.418C386.84 947.5 387.438 947.307 387.528 946.962Z" fill="#68AFFF"/>
</g>
</g>
<defs>
<linearGradient id="paint0_linear_3611_1646" x1="721.162" y1="1549.43" x2="720.289" y2="-936.55" gradientUnits="userSpaceOnUse">
<stop stop-color="#003872"/>
<stop offset="0.17" stop-color="#003872"/>
<stop offset="0.58" stop-color="#030E20"/>
<stop offset="1" stop-color="#030E20"/>
</linearGradient>
<linearGradient id="paint1_linear_3611_1646" x1="399.664" y1="966.133" x2="401.711" y2="934.935" gradientUnits="userSpaceOnUse">
<stop stop-color="#B1D6FF"/>
<stop offset="1" stop-color="#288EFF"/>
</linearGradient>
<linearGradient id="paint2_linear_3611_1646" x1="445.087" y1="911.799" x2="503.462" y2="947.437" gradientUnits="userSpaceOnUse">
<stop stop-color="#B1D6FF"/>
<stop offset="1" stop-color="#288CFF"/>
</linearGradient>
<linearGradient id="paint3_linear_3611_1646" x1="440.235" y1="966.332" x2="510.727" y2="976.003" gradientUnits="userSpaceOnUse">
<stop stop-color="#98C9FF"/>
<stop offset="1" stop-color="#1484FF"/>
</linearGradient>
<linearGradient id="paint4_linear_3611_1646" x1="438.055" y1="940.967" x2="520.919" y2="961.547" gradientUnits="userSpaceOnUse">
<stop stop-color="#A0CDFF"/>
<stop offset="1" stop-color="#1A86FF"/>
</linearGradient>
<clipPath id="clip0_3611_1646">
<rect width="1441" height="1025" fill="white"/>
</clipPath>
</defs>
</svg>
