<svg width="422" height="1032" viewBox="0 0 422 1032" fill="none" xmlns="http://www.w3.org/2000/svg">
<g clip-path="url(#clip0_698_14346)">
<mask id="mask0_698_14346" style="mask-type:luminance" maskUnits="userSpaceOnUse" x="0" y="0" width="422" height="1032">
<path d="M421.678 0.796875H0.0585938V1031.8H421.678V0.796875Z" fill="white"/>
</mask>
<g mask="url(#mask0_698_14346)">
<path d="M1247.96 0.796875H-192.035V1024.8H1247.96V0.796875Z" fill="url(#paint0_linear_698_14346)"/>
<path d="M1247.96 771.027H-192.035V1024.8H1247.96V771.027Z" fill="#002F6B"/>
<path d="M97.1572 792.383C121.647 795.925 278.606 799.969 289.738 808.874C300.869 817.78 595.863 817.78 618.128 821.12C640.39 824.461 515.713 825.573 539.091 841.116C562.469 856.66 859.688 842.271 903.102 840.214C946.517 838.158 1031.12 843.383 1094.57 839.859C1158.02 836.335 1253.75 837.82 1273.79 839.859C1293.83 841.901 1362.84 834.478 1362.84 834.478V771.027H48.5562C-17.5388 786.962 74.6192 789.12 97.1572 792.383Z" fill="#001636"/>
<path d="M-306.926 771.027V811.748C-267.639 806.063 -167.381 832.073 -145.514 829.47C-122.137 826.686 5.87921 836.148 25.0902 832.252C44.3012 828.356 235.195 848.394 279.166 848.251C323.137 848.109 412.191 847.28 411.493 845.055C410.794 842.828 389.371 836.984 351.802 839.859C314.23 842.735 195.678 839.489 134.731 819.451C73.7822 799.415 -39.7608 806.928 -8.86978 792.383C22.0212 777.836 -138.279 778.543 -138.279 778.543L-128.716 771.027H-306.926Z" fill="#001636"/>
<path d="M432.39 759.637C417.293 760.714 400.565 760.714 391.459 760.714H299.146C286.108 760.714 240.432 771.034 208.56 777.442C-102.379 777.442 -160.024 799.158 -306.926 790.233V715.009C-294.8 713.534 -277.018 711.493 -267.001 711.039C-250.8 710.358 -228.657 700.776 -215.764 705.03C-202.871 709.281 -168.745 708.431 -155.851 710.302C-142.959 712.116 -113.913 712.514 -103.753 712.514C-95.4128 712.514 -67.4218 710.302 -50.2148 710.133H-50.0698C-46.2357 710.075 -42.9278 710.133 -40.5328 710.302C-27.3508 711.323 -22.1758 710.358 -3.00278 712.741C16.1682 715.065 32.1782 717.616 46.1242 716.597C60.1202 715.576 71.7202 716.2 86.4812 716.597C101.243 716.994 139.588 724.535 163.169 722.153C186.75 719.828 212.298 724.026 226.675 722.608C241.055 721.246 277.817 726.918 282.609 729.242C287.404 731.623 303.363 737.748 312.135 738.257C320.954 738.712 344.92 739.675 357.669 743.417C370.466 747.218 390.452 750.505 398.024 751.47C402.914 752.094 418.682 756.857 432.39 759.637Z" fill="#0C3E7E"/>
<path d="M1362.85 700.091V719.994C1351.35 719.939 1335.91 719.882 1324.27 720.279C1303.27 721.015 1271.54 718.237 1260.14 719.939C1248.78 721.695 1207.41 714.21 1187.09 719.37C1166.67 724.531 1146.93 713.36 1125.93 717.556C1104.99 721.695 1109.16 714.154 1081.02 720.788C1052.89 727.367 1047.47 728.047 1030.7 728.047C1013.92 728.047 999.544 727.367 988.186 728.047C976.778 728.784 956.409 731.618 942.652 735.193C928.848 738.708 927.651 736.552 909.101 735.193C890.505 733.719 868.937 730.883 855.755 731.618C842.574 732.357 821.581 724.928 812.618 726.856C803.655 728.784 784.484 728.784 773.076 730.2C761.669 731.618 747.29 738.029 728.741 733.719C710.193 729.521 670.603 730.883 662.837 733.036C655.072 735.193 632.882 742.224 614.908 742.224C596.934 742.224 541.671 744.378 527.964 747.214C514.254 750.048 469.92 753.564 453.145 757.138C447.491 758.326 440.155 759.121 432.392 759.632C418.683 756.853 402.915 752.089 398.027 751.466C390.453 750.503 370.466 747.214 357.669 743.413C344.92 739.671 320.954 738.708 312.135 738.253C303.365 737.743 287.404 731.618 282.611 729.238C277.817 726.913 241.057 721.241 226.677 722.604C212.298 724.022 186.752 719.826 163.169 722.149C139.588 724.531 101.245 716.99 86.4807 716.593C71.7197 716.195 60.1207 715.572 46.1237 716.593C32.1777 717.613 16.1677 715.061 -3.00331 712.737C-22.1743 710.356 -27.3513 711.319 -40.5333 710.297C-42.9283 710.129 -46.2363 710.07 -50.0703 710.129C-38.3273 707.464 -24.9543 705.025 -13.3573 702.303C7.01369 697.596 5.81569 700.885 25.7547 698.561C36.0107 697.314 41.4267 697.369 45.5977 697.54H45.6457C49.6227 697.596 52.5007 697.822 57.3407 697.143C67.3097 695.725 75.3147 700.432 84.4687 700.432C93.6707 700.432 115.622 701.85 125.209 702.303C134.796 702.813 143.615 704.231 158.759 703.947C173.954 703.721 185.121 706.102 197.104 702.303C209.086 698.561 217.473 702.813 230.272 703.947C243.069 705.137 253.853 705.137 261.81 703.947C269.814 702.757 280.214 703.721 287.787 703.947C295.361 704.175 309.74 704.684 316.162 703.947C322.537 703.21 351.294 705.137 362.079 707.067C372.863 708.938 383.263 711.774 389.255 711.774C395.247 711.774 409.193 711.774 425.203 705.025C441.162 698.334 444.756 700.432 459.52 698.958C474.33 697.482 487.894 701.395 501.075 698.958C514.254 696.52 547.807 699.467 557.777 698.958C567.793 698.446 582.172 698.049 605.322 698.958C628.472 699.864 632.499 699.979 642.084 698.958C651.67 697.938 680.811 697.596 693.608 695.725C706.357 693.796 719.539 698.049 729.556 698.958C739.525 699.864 769.866 694.76 780.841 696.178C781.081 696.237 781.37 696.237 781.656 696.292C793.016 697.426 816.836 693.796 826.998 692.945C837.399 692.097 876.942 698.561 883.699 694.195C890.505 689.885 906.464 698.049 924.439 699.638C942.413 701.168 955.594 702.303 965.611 699.638C975.581 696.916 1023.89 699.467 1029.88 699.638C1035.87 699.75 1060.65 702.303 1069.86 702.303C1079.01 702.303 1106.57 702.303 1120.95 701.85C1135.33 701.395 1177.27 696.631 1190.88 694.76C1204.44 692.889 1208.42 696.178 1225.2 699.24C1241.97 702.247 1261.58 700.885 1277.92 702.133C1294.31 703.38 1293.5 702.303 1309.5 704.231C1325.47 706.102 1332.27 704.684 1341.04 700.885C1346.99 698.334 1357.05 699.24 1362.85 700.091Z" fill="#0F4FA0"/>
<path d="M411.493 675.593C394.814 677.238 374.443 677.635 369.651 678.202C361.694 679.167 346.5 682.001 332.506 681.038C318.559 680.13 311.368 682.398 298.571 681.265C285.774 680.13 252.654 679.28 244.266 681.548C235.879 683.872 225.095 677.862 211.098 681.548C197.104 685.29 160.389 687.673 153.582 687.217C146.778 686.708 137.623 685.405 128.419 687.276C119.217 689.091 112.842 690.053 99.2782 690.053C85.6662 690.053 71.7202 688.635 68.1252 690.053C66.1582 690.848 56.2392 694.193 45.6462 697.538H45.5982C41.4272 697.367 36.0112 697.312 25.7552 698.559C5.81622 700.883 7.01422 697.596 -13.3568 702.301C-24.9558 705.025 -38.3268 707.461 -50.0698 710.127H-50.2148C-67.4218 710.297 -95.4128 712.51 -103.752 712.51C-113.913 712.51 -142.959 712.113 -155.851 710.297C-168.745 708.426 -202.871 709.277 -215.764 705.025C-228.657 700.771 -250.8 710.354 -267.001 711.033C-277.018 711.489 -294.8 713.531 -306.926 715.004V638.055H-245.432C-225.062 638.055 -208.287 632.383 -192.71 638.055C-177.132 643.725 -192.71 638.055 -156.762 638.055C-120.815 638.055 -110.03 628.755 -84.8678 635.56C-59.7038 642.309 -5.78278 636.978 15.7852 636.808C37.3542 636.637 54.1292 625.637 91.2742 636.808C128.419 647.979 157.177 637.431 190.727 640.55C224.28 643.725 230.27 634.766 245.849 642.08C261.425 649.397 278.201 645.143 300.968 647.979C323.734 650.815 321.578 652.968 369.266 663.969C398.839 670.774 403.249 673.554 411.493 675.593Z" fill="#0F4FA0"/>
<path d="M1010.85 666.807C1003.18 668.564 996.716 670.72 988.375 671.626C975.578 673.044 934.024 679.62 920.842 682.003C907.664 684.386 899.273 684.839 887.724 684.839C876.125 684.839 856.138 688.637 846.984 687.22C837.781 685.804 817.794 684.554 811.419 687.504C806.819 689.659 793.494 693.457 781.655 696.292C781.368 696.237 781.081 696.237 780.839 696.181C769.865 694.763 739.524 699.865 729.555 698.958C719.538 698.052 706.356 693.798 693.607 695.725C680.81 697.596 651.669 697.938 642.083 698.958C632.499 699.979 628.471 699.865 605.323 698.958C582.171 698.052 567.793 698.447 557.775 698.958C547.806 699.467 514.253 696.52 501.074 698.958C487.893 701.397 474.329 697.484 459.519 698.958C444.755 700.432 441.161 698.334 425.202 705.025C409.192 711.774 395.246 711.774 389.254 711.774C383.264 711.774 372.862 708.938 362.078 707.067C351.293 705.139 322.536 703.212 316.161 703.948C309.739 704.686 295.359 704.175 287.788 703.948C280.213 703.721 269.813 702.757 261.809 703.948C253.853 705.139 243.068 705.139 230.271 703.948C217.474 702.815 209.085 698.561 197.103 702.303C185.122 706.104 173.953 703.721 158.758 703.948C143.614 704.231 134.794 702.815 125.208 702.303C115.621 701.85 93.6695 700.432 84.4675 700.432C75.3125 700.432 67.3085 695.725 57.3395 697.143C52.4995 697.823 49.6215 697.596 45.6445 697.54C56.2375 694.195 66.1585 690.85 68.1235 690.055C71.7185 688.637 85.6655 690.055 99.2765 690.055C112.841 690.055 119.216 689.091 128.42 687.278C137.622 685.405 146.776 686.71 153.584 687.22C160.388 687.675 197.103 685.292 211.1 681.55C225.094 677.864 235.878 683.874 244.266 681.55C252.655 679.282 285.773 680.132 298.57 681.267C311.369 682.4 318.558 680.132 332.505 681.038C346.501 682.003 361.693 679.169 369.65 678.204C374.442 677.637 394.813 677.24 411.492 675.595C422.613 674.518 432.15 672.818 434.356 670.208C439.963 663.574 441.545 669.244 450.748 664.538C459.952 659.776 464.312 663.12 470.303 659.776C476.293 656.487 491.105 659.323 503.854 663.12C516.651 666.863 551.783 663.574 561.37 659.776C570.954 656.031 577.378 653.651 592.141 647.072C606.903 640.552 609.73 643.727 625.691 639.928C641.653 636.186 648.075 638.51 657.229 636.639C666.431 634.768 693.607 639.475 699.982 639.475C706.356 639.475 714.745 630.514 722.365 625.41C729.939 620.308 743.503 630.514 745.899 632.385C748.295 634.256 764.688 634.768 772.259 637.604C779.881 640.438 784.243 642.762 790.235 641.856C796.224 640.891 800.252 636.186 808.64 630.514C817.027 624.844 823.019 627.68 827.811 625.809C832.603 623.936 838.978 628.587 847.75 633.803C856.568 639.022 853.357 634.768 862.128 634.768C870.949 634.768 869.75 634.768 880.917 631.423C892.083 628.133 893.714 628.133 903.301 626.262C912.888 624.333 921.275 629.096 927.65 632.838C934.024 636.639 937.618 637.092 944.422 639.475C947.06 640.381 950.511 641.288 954.106 642.252H954.154C959.907 643.783 966.041 645.486 969.972 647.526C976.394 650.815 986.746 655.522 991.156 657.449C993.936 658.64 1003.9 663.404 1010.85 666.807Z" fill="#2367BD"/>
<path d="M1362.85 719.993V777.433C1018.87 796.773 731.671 807.76 208.555 777.433C240.428 771.026 286.103 760.706 299.141 760.706H391.453C400.56 760.706 417.288 760.705 432.387 759.628C440.15 759.119 447.483 758.324 453.138 757.134C469.914 753.561 514.249 750.047 527.959 747.211C541.666 744.375 596.929 742.22 614.903 742.22C632.876 742.22 655.067 735.188 662.832 733.034C670.598 730.879 710.186 729.518 728.736 733.714C747.285 738.024 761.662 731.616 773.071 730.198C784.479 728.78 803.65 728.781 812.613 726.854C821.576 724.927 842.569 732.355 855.75 731.617C868.931 730.88 890.498 733.714 909.095 735.188C927.645 736.55 928.843 738.704 942.646 735.188C956.402 731.616 976.773 728.78 988.18 728.045C999.538 727.362 1013.92 728.045 1030.69 728.045C1047.47 728.045 1052.88 727.363 1081.02 720.787C1109.15 714.153 1104.98 721.694 1125.93 717.555C1146.92 713.358 1166.67 724.529 1187.09 719.368C1207.41 714.208 1248.77 721.693 1260.13 719.936C1271.54 718.233 1303.27 721.014 1324.26 720.276C1335.91 719.879 1351.34 719.937 1362.85 719.993Z" fill="#002F6B"/>
<path d="M-291.035 896.797C-291.035 896.797 -135.035 884.797 -27.0352 907.797C80.9648 930.797 152.965 944.797 223.965 932.797C294.965 920.797 402.965 948.797 402.965 948.797C402.965 948.797 122.965 958.797 101.965 968.797C101.965 968.797 163.965 982.797 244.965 983.797C325.965 984.797 422.965 1002.8 487.965 1000.8C552.965 998.797 678.965 1032.8 678.965 1032.8H-289.194L-291.035 896.797Z" fill="#0F4FA0"/>
<path d="M240.244 987.745C281.443 987.745 314.843 979.618 314.843 969.591C314.843 959.565 281.443 951.438 240.244 951.438C199.044 951.438 165.645 959.565 165.645 969.591C165.645 979.618 199.044 987.745 240.244 987.745Z" fill="#001D3F" fill-opacity="0.41"/>
<path d="M106.256 963.939C116.148 963.939 124.168 961.962 124.168 959.522C124.168 957.083 116.148 955.105 106.256 955.105C96.3632 955.105 88.3438 957.083 88.3438 959.522C88.3438 961.962 96.3632 963.939 106.256 963.939Z" fill="#001D3F" fill-opacity="0.41"/>
<path d="M101.636 873.98C100.951 874.9 100.505 875.985 100.374 877.131C100.233 878.36 100.477 879.475 100.896 880.627C101.128 881.269 101.312 881.898 101.354 882.583C101.4 883.277 101.302 883.97 101.189 884.655C100.976 885.947 100.768 887.271 99.8996 888.303C99.0586 889.306 97.8646 889.899 96.6996 890.44C96.0336 890.748 95.4986 889.74 96.1656 889.428C97.1426 888.973 98.1576 888.505 98.9096 887.708C99.7196 886.849 99.8846 885.614 100.068 884.496C100.175 883.83 100.273 883.145 100.208 882.47C100.147 881.819 99.8966 881.205 99.6766 880.597C99.2696 879.469 99.0926 878.28 99.2306 877.082C99.3826 875.741 99.8656 874.448 100.673 873.363C101.11 872.776 102.076 873.388 101.636 873.98Z" fill="#751A1B"/>
<path d="M101.171 885.117C101.217 886.554 100.954 888.008 100.404 889.337C99.8076 890.768 98.8936 891.926 97.8646 893.066C97.6566 893.295 97.2526 893.243 97.0576 893.032C96.8316 892.788 96.8836 892.454 97.0906 892.225C98.0046 891.217 98.8386 890.172 99.3526 888.897C99.8446 887.678 100.071 886.385 100.031 885.071C100.022 884.763 100.334 884.512 100.627 884.524C100.951 884.534 101.162 884.806 101.171 885.117Z" fill="#751A1B"/>
<path d="M111.429 826.766L100.898 826.32L101.36 957.69H113.29C113.29 957.69 107.805 844.606 111.429 826.766Z" fill="#020202"/>
<path d="M105.575 833.786C105.669 833.78 105.761 833.768 105.856 833.75C105.948 833.734 106.039 833.713 106.128 833.685C106.036 833.664 105.948 833.643 105.862 833.621C105.776 833.597 105.691 833.572 105.605 833.542C105.523 833.514 105.44 833.485 105.361 833.451L105.3 833.426C105.281 833.416 105.26 833.407 105.242 833.401C105.22 833.395 105.202 833.389 105.18 833.386C105.159 833.383 105.138 833.377 105.119 833.374L104.792 833.288L104.878 833.612C104.97 833.967 105.049 834.324 105.125 834.688C105.119 834.691 105.11 834.694 105.104 834.694C104.988 834.749 104.878 834.82 104.786 834.909C104.747 834.945 104.713 834.981 104.682 835.024C104.655 834.877 104.612 834.734 104.563 834.596C104.53 834.498 104.493 834.405 104.453 834.312C104.429 834.293 104.407 834.278 104.383 834.26C104.358 834.245 104.337 834.226 104.31 834.211C104.261 834.18 104.209 834.148 104.154 834.12C104.138 834.181 104.126 834.238 104.117 834.297C104.111 834.324 104.108 834.356 104.105 834.383L104.093 834.465C104.129 834.553 104.163 834.639 104.193 834.724C104.255 834.899 104.3 835.073 104.319 835.25C104.328 835.339 104.331 835.424 104.328 835.51C104.328 835.531 104.325 835.553 104.322 835.574C104.319 835.595 104.319 835.617 104.313 835.638C104.31 835.647 104.31 835.659 104.307 835.669L104.3 835.699C104.297 835.718 104.291 835.74 104.285 835.758C104.273 835.795 104.261 835.831 104.245 835.867C104.236 835.883 104.23 835.898 104.221 835.913C104.102 835.825 103.983 835.736 103.863 835.647C103.796 835.598 103.732 835.549 103.665 835.504C103.598 835.455 103.53 835.409 103.463 835.36C103.326 835.265 103.182 835.171 103.026 835.091C102.974 835.064 102.919 835.04 102.864 835.016C102.882 834.985 102.904 834.951 102.919 834.92C102.959 834.847 102.996 834.773 103.029 834.706C103.099 834.572 103.173 834.441 103.252 834.312C103.274 834.281 103.292 834.248 103.313 834.217C103.326 834.202 103.338 834.188 103.347 834.172C103.356 834.157 103.362 834.135 103.368 834.116C103.396 834.043 103.423 833.97 103.454 833.896C103.512 833.75 103.573 833.604 103.634 833.451C103.601 833.472 103.564 833.493 103.53 833.517L103.478 833.551C103.463 833.563 103.445 833.576 103.429 833.589C103.396 833.613 103.365 833.636 103.332 833.661C103.301 833.685 103.267 833.713 103.237 833.74C103.173 833.792 103.115 833.847 103.054 833.905C103.038 833.921 103.023 833.933 103.011 833.948C102.999 833.963 102.989 833.982 102.98 834C102.971 834.018 102.962 834.037 102.95 834.052L102.919 834.104C102.834 834.242 102.757 834.382 102.681 834.526C102.644 834.596 102.61 834.666 102.577 834.727C102.549 834.776 102.522 834.822 102.491 834.865L102.387 834.917L101.902 835.167L102.436 835.281C102.574 835.311 102.711 835.363 102.843 835.43C102.977 835.501 103.106 835.583 103.237 835.672C103.301 835.718 103.368 835.763 103.433 835.812C103.497 835.859 103.564 835.907 103.628 835.956C103.759 836.051 103.888 836.148 104.016 836.246C104.145 836.344 104.273 836.442 104.398 836.543C104.462 836.592 104.523 836.644 104.588 836.693C104.652 836.745 104.713 836.793 104.774 836.845C104.805 836.87 104.835 836.897 104.866 836.922C104.881 836.934 104.893 836.949 104.909 836.964C104.924 836.98 104.939 836.989 104.957 836.998C105.028 837.035 105.098 837.075 105.168 837.115C105.309 837.198 105.446 837.285 105.581 837.386C105.553 837.307 105.52 837.227 105.483 837.148C105.465 837.108 105.443 837.071 105.422 837.032L105.355 836.922C105.309 836.848 105.26 836.778 105.208 836.708C105.196 836.689 105.18 836.674 105.165 836.662C105.15 836.65 105.132 836.637 105.113 836.625C105.083 836.598 105.049 836.571 105.019 836.547C104.954 836.495 104.89 836.443 104.826 836.391C104.762 836.339 104.698 836.289 104.633 836.237C104.597 836.206 104.557 836.179 104.52 836.148V836.146C104.523 836.14 104.527 836.13 104.533 836.124L104.545 836.103C104.56 836.075 104.572 836.048 104.588 836.023C104.612 835.968 104.633 835.913 104.649 835.858C104.658 835.831 104.664 835.803 104.67 835.776L104.679 835.733C104.682 835.718 104.682 835.705 104.685 835.693C104.688 835.666 104.692 835.638 104.695 835.611C104.698 835.583 104.701 835.557 104.701 835.529C104.707 835.419 104.704 835.311 104.692 835.204C104.688 835.186 104.688 835.167 104.685 835.149C104.747 835.125 104.811 835.106 104.872 835.097C104.976 835.079 105.077 835.076 105.18 835.079H105.187C105.226 835.287 105.266 835.494 105.306 835.702L105.373 836.055C105.397 836.174 105.422 836.301 105.471 836.433L105.477 836.454L105.489 836.472L105.523 836.521L105.611 836.659L105.761 836.595C106.027 836.482 106.287 836.363 106.543 836.232C106.608 836.198 106.672 836.167 106.736 836.133L106.809 836.096C106.812 836.093 106.822 836.09 106.837 836.081C106.849 836.072 106.87 836.06 106.892 836.032C106.901 836.02 106.913 836.005 106.919 835.986C106.928 835.968 106.935 835.953 106.938 835.935C106.944 835.904 106.944 835.881 106.941 835.865C106.941 835.85 106.938 835.84 106.938 835.837L106.935 835.826L106.925 835.773L106.855 835.352C106.846 835.3 106.837 835.25 106.828 835.198C106.895 835.222 106.962 835.25 107.029 835.277C107.127 835.32 107.225 835.366 107.32 835.415C107.417 835.464 107.512 835.516 107.604 835.571C107.79 835.678 107.971 835.797 108.142 835.925C108.313 836.054 108.472 836.194 108.615 836.35L108.686 836.393L108.704 836.405L108.719 836.417C108.731 836.427 108.741 836.434 108.753 836.443C108.774 836.458 108.799 836.472 108.82 836.488C108.841 836.503 108.866 836.521 108.887 836.537L108.921 836.561C108.933 836.57 108.942 836.58 108.955 836.589L109.022 836.641C109.046 836.66 109.065 836.677 109.089 836.695C109.11 836.714 109.135 836.732 109.156 836.753C109.15 836.726 109.144 836.695 109.138 836.668C109.132 836.64 109.126 836.61 109.116 836.582C109.098 836.527 109.083 836.469 109.058 836.414C109.046 836.387 109.037 836.359 109.025 836.332C109.013 836.304 109 836.277 108.988 836.249C108.982 836.234 108.976 836.222 108.97 836.21L108.951 836.167L108.909 836.087C108.75 835.913 108.573 835.757 108.386 835.617C108.2 835.476 108.007 835.348 107.806 835.235C107.757 835.207 107.705 835.177 107.656 835.149C107.604 835.122 107.555 835.094 107.503 835.07C107.402 835.018 107.295 834.966 107.188 834.92C107.103 834.883 107.017 834.85 106.928 834.819C106.941 834.813 106.953 834.807 106.965 834.801C106.971 834.798 106.974 834.792 106.977 834.789C106.98 834.782 106.983 834.777 106.983 834.771C106.987 834.765 106.99 834.758 106.993 834.755L107.002 834.74C107.017 834.718 107.029 834.701 107.042 834.68C107.069 834.64 107.097 834.596 107.121 834.556C107.225 834.394 107.323 834.235 107.43 834.092C107.537 833.948 107.653 833.814 107.784 833.688C107.848 833.627 107.916 833.566 107.986 833.511L108.038 833.358C108.047 833.331 108.056 833.306 108.065 833.279C108.074 833.251 108.084 833.224 108.093 833.193C108.062 833.19 108.032 833.191 108.001 833.188C107.971 833.188 107.943 833.187 107.912 833.19C107.882 833.19 107.854 833.193 107.824 833.196C107.796 833.199 107.766 833.203 107.738 833.209C107.659 833.273 107.585 833.337 107.512 833.407C107.365 833.548 107.234 833.698 107.115 833.86C106.996 834.022 106.895 834.187 106.791 834.342C106.767 834.382 106.739 834.422 106.715 834.459C106.702 834.477 106.69 834.498 106.675 834.517L106.666 834.532C106.663 834.538 106.66 834.541 106.653 834.544L106.65 834.547L106.626 834.501C106.592 834.437 106.556 834.373 106.522 834.312L106.47 834.217C106.452 834.187 106.436 834.156 106.418 834.122C106.351 833.997 106.287 833.869 106.226 833.737C106.213 833.884 106.219 834.031 106.232 834.177C106.235 834.214 106.238 834.251 106.241 834.287L106.253 834.397C106.262 834.471 106.271 834.541 106.281 834.611L106.287 834.663V834.669C106.122 834.648 105.96 834.639 105.798 834.636C105.697 834.633 105.593 834.633 105.489 834.639C105.431 834.358 105.37 834.077 105.303 833.795C105.407 833.795 105.492 833.792 105.575 833.786ZM106.482 835.409L106.546 835.792C106.491 835.819 106.436 835.849 106.381 835.876C106.192 835.971 105.999 836.063 105.807 836.148C105.792 836.093 105.783 836.035 105.77 835.974L105.703 835.623C105.666 835.421 105.627 835.222 105.59 835.021C105.663 835.018 105.737 835.018 105.813 835.021C106.021 835.027 106.226 835.042 106.424 835.079C106.443 835.186 106.461 835.296 106.482 835.409Z" fill="#E42328"/>
<path d="M104.897 832.321C104.772 832.328 104.647 832.335 104.518 832.344C104.454 832.347 104.39 832.353 104.326 832.359C104.295 832.362 104.262 832.364 104.231 832.367C104.201 832.37 104.167 832.373 104.133 832.38C104.066 832.389 103.993 832.402 103.913 832.429C103.874 832.442 103.834 832.46 103.797 832.481C103.779 832.491 103.76 832.502 103.742 832.511C103.733 832.517 103.724 832.52 103.715 832.526C103.705 832.532 103.699 832.539 103.693 832.549C103.669 832.585 103.65 832.622 103.635 832.659C103.629 832.677 103.62 832.695 103.617 832.714C103.614 832.723 103.611 832.731 103.608 832.74L103.602 832.768C103.583 832.841 103.577 832.912 103.574 832.989C103.644 832.961 103.709 832.931 103.77 832.906C103.831 832.882 103.889 832.865 103.941 832.859C103.953 832.856 103.959 832.847 103.965 832.841C103.968 832.838 103.971 832.836 103.977 832.833C103.981 832.83 103.987 832.826 103.99 832.826C104.005 832.816 104.023 832.811 104.045 832.802C104.084 832.79 104.133 832.777 104.191 832.771C104.219 832.768 104.249 832.765 104.28 832.761C104.311 832.758 104.341 832.756 104.372 832.753C104.433 832.747 104.494 832.743 104.555 832.737C104.677 832.728 104.8 832.722 104.925 832.716L105.673 832.68L106.049 832.661L106.141 832.612C106.172 832.593 106.202 832.578 106.233 832.56C106.294 832.526 106.355 832.491 106.416 832.448C106.352 832.411 106.288 832.38 106.224 832.352C106.193 832.337 106.159 832.325 106.129 832.31L106.034 832.27L105.658 832.289L104.897 832.321Z" fill="#E42328"/>
<path d="M103.657 830.828C103.623 830.831 103.586 830.831 103.553 830.834L103.501 830.837C103.482 830.837 103.464 830.837 103.449 830.84C103.43 830.84 103.412 830.84 103.397 830.843C103.379 830.846 103.36 830.849 103.345 830.853C103.327 830.859 103.311 830.862 103.293 830.868L103.241 830.886C103.207 830.898 103.171 830.911 103.137 830.923C103.119 830.929 103.103 830.935 103.085 830.944L103.036 830.966C103.021 830.972 103.003 830.981 102.987 830.99C102.972 830.999 102.954 831.005 102.938 831.015L102.89 831.042L102.865 831.054L102.841 831.07C102.718 831.146 102.605 831.244 102.523 831.357C102.651 831.302 102.78 831.268 102.908 831.25L102.957 831.244L103.006 831.241C103.039 831.238 103.07 831.238 103.1 831.235C103.165 831.235 103.229 831.235 103.293 831.238L103.391 831.244C103.421 831.247 103.455 831.241 103.485 831.235C103.501 831.231 103.516 831.228 103.534 831.228L103.583 831.225C103.617 831.222 103.647 831.222 103.681 831.219C103.745 831.216 103.812 831.213 103.88 831.21L104.081 831.204C104.619 831.186 105.157 831.176 105.692 831.173C106.23 831.17 106.768 831.173 107.302 831.186C107.571 831.192 107.84 831.198 108.109 831.207C108.244 831.21 108.378 831.216 108.512 831.222L108.592 831.225C108.58 831.25 108.564 831.274 108.552 831.299C108.515 831.366 108.485 831.433 108.454 831.503C108.427 831.574 108.399 831.644 108.378 831.714C108.433 831.662 108.485 831.613 108.54 831.565C108.595 831.516 108.65 831.47 108.705 831.424C108.76 831.378 108.818 831.335 108.876 831.296C108.934 831.256 108.992 831.216 109.05 831.18L109.402 830.963L108.931 830.859C108.897 830.853 108.864 830.84 108.83 830.84C108.797 830.84 108.763 830.843 108.729 830.84L108.528 830.831C108.393 830.825 108.259 830.822 108.121 830.816C107.852 830.807 107.58 830.801 107.311 830.794C106.771 830.785 106.23 830.779 105.689 830.782C105.148 830.785 104.607 830.794 104.066 830.813L103.864 830.819C103.794 830.822 103.724 830.825 103.657 830.828Z" fill="#E42328"/>
<path d="M111.438 852.478C111.432 852.82 111.004 853.089 110.488 853.077L100.293 852.866C99.7743 852.857 99.3613 852.57 99.3673 852.228C99.3733 851.885 99.8013 851.616 100.318 851.629L110.512 851.839C111.032 851.852 111.444 852.136 111.438 852.478Z" fill="#751A1B" stroke="#2B1111" stroke-width="0.57" stroke-miterlimit="10"/>
<path d="M100.687 852.55L110.882 852.761C111.068 852.764 111.239 852.734 111.389 852.676C111.261 852.92 110.906 853.091 110.488 853.082L100.293 852.871C99.7743 852.862 99.3613 852.575 99.3673 852.233C99.3703 852.013 99.5513 851.826 99.8133 851.719C99.7833 851.78 99.7643 851.845 99.7613 851.912C99.7523 852.254 100.168 852.538 100.687 852.55Z" fill="#751A1B" fill-opacity="0.22" stroke="#2B1111" stroke-opacity="0.22" stroke-width="0.57" stroke-miterlimit="10"/>
<path d="M111.415 853.718C111.408 854.06 110.981 854.329 110.464 854.317L100.27 854.106C99.7498 854.097 99.3378 853.809 99.3438 853.467C99.3498 853.125 99.7778 852.856 100.294 852.868L110.489 853.079C111.005 853.088 111.421 853.376 111.415 853.718Z" fill="#751A1B" stroke="#2B1111" stroke-width="0.57" stroke-miterlimit="10"/>
<path d="M100.664 853.784L110.858 853.995C111.045 853.998 111.216 853.967 111.366 853.909C111.237 854.154 110.883 854.325 110.464 854.316L100.27 854.105C99.7498 854.096 99.3378 853.808 99.3438 853.466C99.3468 853.246 99.5268 853.06 99.7898 852.953C99.7588 853.014 99.7408 853.078 99.7378 853.145C99.7318 853.488 100.144 853.775 100.664 853.784Z" fill="#751A1B" fill-opacity="0.22" stroke="#2B1111" stroke-opacity="0.22" stroke-width="0.57" stroke-miterlimit="10"/>
<path d="M111.391 854.951C111.385 855.294 110.957 855.563 110.441 855.55L100.246 855.339C99.7274 855.33 99.3144 855.043 99.3204 854.701C99.3264 854.359 99.7544 854.09 100.271 854.102L110.465 854.313C110.982 854.325 111.397 854.612 111.391 854.951Z" fill="#751A1B" stroke="#2B1111" stroke-width="0.57" stroke-miterlimit="10"/>
<path d="M100.636 855.019L110.831 855.23C111.017 855.233 111.188 855.202 111.338 855.144C111.21 855.388 110.855 855.56 110.437 855.55L100.242 855.341C99.7235 855.331 99.3105 855.043 99.3165 854.701C99.3195 854.481 99.5005 854.295 99.7625 854.188C99.7325 854.249 99.7135 854.313 99.7105 854.38C99.7015 854.722 100.117 855.01 100.636 855.019Z" fill="#751A1B" fill-opacity="0.22" stroke="#2B1111" stroke-opacity="0.22" stroke-width="0.57" stroke-miterlimit="10"/>
<path d="M111.364 856.186C111.357 856.528 110.93 856.797 110.413 856.785L100.219 856.574C99.699 856.565 99.287 856.278 99.293 855.935C99.299 855.593 99.727 855.324 100.243 855.336L110.438 855.547C110.957 855.56 111.373 855.844 111.364 856.186Z" fill="#751A1B" stroke="#2B1111" stroke-width="0.57" stroke-miterlimit="10"/>
<path d="M100.613 856.257L110.807 856.468C110.994 856.471 111.165 856.441 111.315 856.383C111.186 856.627 110.832 856.798 110.413 856.789L100.219 856.578C99.699 856.569 99.287 856.282 99.293 855.94C99.296 855.719 99.476 855.533 99.739 855.426C99.708 855.487 99.69 855.551 99.687 855.619C99.678 855.961 100.093 856.248 100.613 856.257Z" fill="#751A1B" fill-opacity="0.22" stroke="#2B1111" stroke-opacity="0.22" stroke-width="0.57" stroke-miterlimit="10"/>
<path d="M111.364 861.181C111.357 861.524 110.93 861.793 110.413 861.78L100.219 861.569C99.699 861.56 99.287 861.273 99.293 860.931C99.299 860.589 99.727 860.32 100.243 860.332L110.438 860.543C110.954 860.555 111.37 860.839 111.364 861.181Z" fill="#751A1B" stroke="#2B1111" stroke-width="0.57" stroke-miterlimit="10"/>
<path d="M100.609 861.254L110.803 861.465C110.99 861.468 111.161 861.437 111.311 861.379C111.182 861.623 110.828 861.795 110.409 861.785L100.215 861.575C99.6951 861.565 99.2831 861.278 99.2891 860.936C99.2921 860.716 99.4721 860.529 99.7351 860.422C99.7041 860.484 99.6861 860.548 99.6831 860.615C99.6771 860.957 100.089 861.241 100.609 861.254Z" fill="#751A1B" fill-opacity="0.22" stroke="#2B1111" stroke-opacity="0.22" stroke-width="0.57" stroke-miterlimit="10"/>
<path d="M111.337 862.421C111.331 862.763 110.903 863.032 110.387 863.02L100.192 862.809C99.6727 862.8 99.2597 862.513 99.2657 862.17C99.2717 861.828 99.6997 861.559 100.217 861.571L110.411 861.782C110.931 861.791 111.346 862.079 111.337 862.421Z" fill="#751A1B" stroke="#2B1111" stroke-width="0.57" stroke-miterlimit="10"/>
<path d="M100.586 862.487L110.781 862.698C110.967 862.701 111.138 862.671 111.288 862.613C111.16 862.857 110.805 863.028 110.387 863.019L100.192 862.808C99.6727 862.799 99.2597 862.512 99.2657 862.169C99.2687 861.949 99.4497 861.763 99.7117 861.656C99.6817 861.717 99.6637 861.781 99.6597 861.849C99.6507 862.191 100.067 862.475 100.586 862.487Z" fill="#751A1B" fill-opacity="0.22" stroke="#2B1111" stroke-opacity="0.22" stroke-width="0.57" stroke-miterlimit="10"/>
<path d="M111.313 863.655C111.307 863.997 110.879 864.266 110.362 864.254L100.168 864.043C99.6483 864.034 99.2363 863.746 99.2423 863.404C99.2483 863.062 99.6763 862.793 100.192 862.805L110.387 863.016C110.906 863.025 111.319 863.312 111.313 863.655Z" fill="#751A1B" stroke="#2B1111" stroke-width="0.57" stroke-miterlimit="10"/>
<path d="M100.558 863.726L110.752 863.937C110.939 863.94 111.11 863.909 111.26 863.851C111.131 864.096 110.777 864.267 110.358 864.258L100.164 864.047C99.6443 864.038 99.2323 863.75 99.2383 863.408C99.2413 863.188 99.4213 863.002 99.6843 862.895C99.6533 862.956 99.6353 863.02 99.6323 863.087C99.6263 863.429 100.041 863.717 100.558 863.726Z" fill="#751A1B" fill-opacity="0.22" stroke="#2B1111" stroke-opacity="0.22" stroke-width="0.57" stroke-miterlimit="10"/>
<path d="M111.286 864.892C111.28 865.234 110.852 865.503 110.336 865.491L100.141 865.28C99.6219 865.271 99.2089 864.984 99.2149 864.642C99.2209 864.299 99.6489 864.03 100.166 864.043L110.36 864.254C110.877 864.266 111.292 864.553 111.286 864.892Z" fill="#751A1B" stroke="#2B1111" stroke-width="0.57" stroke-miterlimit="10"/>
<path d="M100.535 864.961L110.73 865.171C110.916 865.174 111.087 865.144 111.237 865.086C111.109 865.33 110.754 865.501 110.336 865.492L100.141 865.281C99.6219 865.272 99.2089 864.985 99.2149 864.643C99.2179 864.423 99.3989 864.236 99.6609 864.129C99.6309 864.19 99.6129 864.255 99.6099 864.322C99.6029 864.664 100.016 864.951 100.535 864.961Z" fill="#751A1B" fill-opacity="0.22" stroke="#2B1111" stroke-opacity="0.22" stroke-width="0.57" stroke-miterlimit="10"/>
<path d="M111.163 882.321C111.163 882.663 110.744 882.941 110.225 882.945L100.027 882.984C99.5079 882.987 99.0859 882.712 99.0859 882.37C99.0859 882.028 99.5049 881.75 100.024 881.747L110.222 881.707C110.741 881.707 111.163 881.982 111.163 882.321Z" fill="#751A1B" stroke="#2B1111" stroke-width="0.57" stroke-miterlimit="10"/>
<path d="M100.416 882.655L110.614 882.615C110.8 882.615 110.971 882.579 111.118 882.518C110.996 882.765 110.644 882.946 110.229 882.946L100.031 882.985C99.5118 882.988 99.0898 882.713 99.0898 882.371C99.0898 882.151 99.2608 881.958 99.5238 881.848C99.4928 881.91 99.4778 881.974 99.4778 882.041C99.4748 882.383 99.8968 882.658 100.416 882.655Z" fill="#751A1B" fill-opacity="0.22" stroke="#2B1111" stroke-opacity="0.22" stroke-width="0.57" stroke-miterlimit="10"/>
<path d="M111.167 883.559C111.167 883.901 110.748 884.179 110.229 884.182L100.031 884.222C99.5118 884.225 99.0898 883.95 99.0898 883.608C99.0898 883.265 99.5088 882.987 100.028 882.984L110.226 882.945C110.742 882.941 111.164 883.22 111.167 883.559Z" fill="#751A1B" stroke="#2B1111" stroke-width="0.57" stroke-miterlimit="10"/>
<path d="M100.42 883.893L110.618 883.853C110.804 883.853 110.975 883.816 111.122 883.755C111 884.003 110.648 884.183 110.233 884.183L100.035 884.223C99.5157 884.226 99.0938 883.951 99.0938 883.609C99.0938 883.389 99.2647 883.196 99.5277 883.086C99.4977 883.147 99.4818 883.211 99.4818 883.279C99.4788 883.621 99.9007 883.896 100.42 883.893Z" fill="#751A1B" fill-opacity="0.22" stroke="#2B1111" stroke-opacity="0.22" stroke-width="0.57" stroke-miterlimit="10"/>
<path d="M111.171 884.798C111.171 885.141 110.752 885.419 110.233 885.422L100.035 885.462C99.5157 885.465 99.0938 885.19 99.0938 884.847C99.0938 884.505 99.5127 884.227 100.032 884.224L110.23 884.184C110.749 884.181 111.171 884.459 111.171 884.798Z" fill="#751A1B" stroke="#2B1111" stroke-width="0.57" stroke-miterlimit="10"/>
<path d="M100.424 885.13L110.622 885.091C110.808 885.091 110.98 885.054 111.126 884.993C111.004 885.24 110.653 885.421 110.237 885.421L100.039 885.461C99.5197 885.464 99.0977 885.189 99.0977 884.846C99.0977 884.626 99.2687 884.434 99.5317 884.324C99.5017 884.385 99.4857 884.449 99.4857 884.516C99.4827 884.855 99.9047 885.134 100.424 885.13Z" fill="#751A1B" fill-opacity="0.22" stroke="#2B1111" stroke-opacity="0.22" stroke-width="0.57" stroke-miterlimit="10"/>
<path d="M111.179 886.036C111.179 886.378 110.761 886.656 110.241 886.659L100.043 886.699C99.5236 886.702 99.1016 886.427 99.1016 886.085C99.1016 885.743 99.5206 885.465 100.04 885.462L110.238 885.422C110.754 885.419 111.176 885.694 111.179 886.036Z" fill="#751A1B" stroke="#2B1111" stroke-width="0.57" stroke-miterlimit="10"/>
<path d="M100.429 886.37L110.626 886.329C110.813 886.329 110.984 886.293 111.13 886.232C111.008 886.479 110.657 886.659 110.241 886.659L100.044 886.699C99.5236 886.702 99.1016 886.427 99.1016 886.085C99.1016 885.865 99.2726 885.672 99.5356 885.562C99.5056 885.624 99.4896 885.688 99.4896 885.755C99.4866 886.094 99.9086 886.373 100.429 886.37Z" fill="#751A1B" fill-opacity="0.22" stroke="#2B1111" stroke-opacity="0.22" stroke-width="0.57" stroke-miterlimit="10"/>
<path d="M111.296 891.024C111.296 891.367 110.878 891.645 110.358 891.648L100.161 891.687C99.6408 891.69 99.2188 891.415 99.2188 891.073C99.2188 890.731 99.6377 890.453 100.158 890.45L110.355 890.41C110.875 890.407 111.296 890.685 111.296 891.024Z" fill="#751A1B" stroke="#2B1111" stroke-width="0.57" stroke-miterlimit="10"/>
<path d="M100.55 891.357L110.747 891.318C110.934 891.318 111.105 891.281 111.252 891.22C111.129 891.467 110.778 891.648 110.362 891.648L100.165 891.687C99.6447 891.69 99.2227 891.415 99.2227 891.073C99.2227 890.853 99.3947 890.661 99.6567 890.551C99.6267 890.612 99.6117 890.676 99.6117 890.743C99.6087 891.085 100.03 891.36 100.55 891.357Z" fill="#751A1B" fill-opacity="0.22" stroke="#2B1111" stroke-opacity="0.22" stroke-width="0.57" stroke-miterlimit="10"/>
<path d="M111.303 892.262C111.303 892.604 110.885 892.882 110.365 892.885L100.168 892.926C99.6476 892.929 99.2266 892.653 99.2266 892.311C99.2266 891.969 99.6446 891.69 100.165 891.687L110.362 891.648C110.879 891.645 111.3 891.923 111.303 892.262Z" fill="#751A1B" stroke="#2B1111" stroke-width="0.57" stroke-miterlimit="10"/>
<path d="M100.553 892.596L110.75 892.556C110.937 892.556 111.108 892.52 111.255 892.459C111.132 892.706 110.781 892.886 110.365 892.886L100.168 892.926C99.6476 892.929 99.2266 892.654 99.2266 892.312C99.2266 892.092 99.3976 891.899 99.6596 891.789C99.6296 891.85 99.6146 891.915 99.6146 891.982C99.6146 892.321 100.036 892.599 100.553 892.596Z" fill="#751A1B" fill-opacity="0.22" stroke="#2B1111" stroke-opacity="0.22" stroke-width="0.57" stroke-miterlimit="10"/>
<path d="M111.307 893.502C111.307 893.844 110.888 894.122 110.368 894.125L100.171 894.165C99.6515 894.168 99.2305 893.893 99.2305 893.55C99.2305 893.208 99.6485 892.93 100.168 892.927L110.365 892.887C110.885 892.884 111.307 893.159 111.307 893.502Z" fill="#751A1B" stroke="#2B1111" stroke-width="0.57" stroke-miterlimit="10"/>
<path d="M100.556 893.834L110.753 893.794C110.94 893.794 111.111 893.757 111.258 893.696C111.135 893.944 110.784 894.124 110.368 894.124L100.171 894.164C99.6515 894.167 99.2305 893.892 99.2305 893.549C99.2305 893.329 99.4015 893.137 99.6645 893.027C99.6335 893.088 99.6185 893.152 99.6185 893.219C99.6155 893.559 100.036 893.837 100.556 893.834Z" fill="#751A1B" fill-opacity="0.22" stroke="#2B1111" stroke-opacity="0.22" stroke-width="0.57" stroke-miterlimit="10"/>
<path d="M111.311 894.739C111.311 895.081 110.892 895.36 110.372 895.363L100.175 895.402C99.6554 895.405 99.2344 895.13 99.2344 894.788C99.2344 894.446 99.6524 894.168 100.172 894.165L110.369 894.125C110.886 894.122 111.308 894.397 111.311 894.739Z" fill="#751A1B" stroke="#2B1111" stroke-width="0.57" stroke-miterlimit="10"/>
<path d="M100.564 895.072L110.762 895.033C110.948 895.033 111.119 894.996 111.266 894.935C111.144 895.182 110.792 895.363 110.377 895.363L100.179 895.402C99.6593 895.405 99.2383 895.13 99.2383 894.788C99.2383 894.568 99.4093 894.376 99.6723 894.266C99.6413 894.327 99.6263 894.391 99.6263 894.458C99.6233 894.797 100.045 895.072 100.564 895.072Z" fill="#751A1B" fill-opacity="0.22" stroke="#2B1111" stroke-opacity="0.22" stroke-width="0.57" stroke-miterlimit="10"/>
<path d="M217.487 953.687C219.642 954.345 238.124 949.674 242.113 955.578C247.099 962.959 234.401 982.401 233.968 982.382C224.587 981.989 219.149 978.529 214.964 977.15C210.591 975.711 206.395 974.045 202.191 972.381C197.789 970.639 193.394 968.889 188.806 967.393C187.064 966.823 185.292 966.304 183.538 965.755C182.333 965.379 181.162 964.964 180.091 964.418C178.901 963.812 178.01 963.026 177.301 962.135C176.16 960.702 175.477 959.158 175.037 957.555C174.559 955.82 174.391 954.071 174.552 952.31C174.675 950.95 174.966 949.607 175.649 948.317C176.372 946.949 178.295 942.574 180.172 941.932C180.81 941.712 181.462 941.516 182.097 941.292C182.41 941.179 182.667 941.219 182.977 941.307C190.345 943.425 197.261 946.152 204.166 948.9C208.508 950.629 212.902 952.287 217.487 953.687Z" fill="url(#paint1_linear_698_14346)"/>
<path d="M297.995 945.87C298.503 946.1 298.936 946.324 299.409 946.507C300.338 946.862 301.166 947.301 301.875 947.847C303.587 949.158 304.953 950.615 305.673 952.339C306.389 954.047 305.952 955.58 304.214 956.904C304.117 956.977 304.035 957.058 303.901 957.176C305.199 957.607 305.468 958.403 305.468 959.273C305.468 960.532 305.441 961.791 305.393 963.05C305.371 963.666 305.027 964.214 304.475 964.698C303.856 965.241 303.102 965.68 302.293 966.077C300.383 967.012 298.301 967.727 296.186 968.398C291.732 969.811 287.159 971.018 282.574 972.204C274.934 974.181 267.29 976.15 259.632 978.088C253.615 979.613 247.422 980.718 241.17 981.658C240.148 981.812 239.126 981.95 238.103 982.099C236.41 982.345 234.716 982.366 232.996 982.183C231.754 982.049 232.137 977.239 231.445 971.01C231.161 968.449 230.695 965.649 229.859 962.835C226.401 951.191 219.053 938.729 224.101 934.331C244.219 916.806 297.473 923.647 298.883 924.337C298.95 924.37 299.018 924.407 299.092 924.433C301.879 925.452 303.572 927.155 304.942 929.048C305.453 929.756 305.785 930.508 305.934 931.302C306.188 932.618 305.643 933.757 304.442 934.765C304.281 934.898 304.125 935.037 303.968 935.172C303.957 935.183 303.96 935.201 303.949 935.243C305.05 935.619 305.427 936.306 305.441 937.113C305.46 938.006 305.434 938.899 305.427 939.79C305.423 940.111 305.404 940.435 305.415 940.756C305.445 941.673 304.956 942.436 304.054 943.086C303.293 943.637 302.427 944.099 301.495 944.491C300.547 944.891 299.57 945.256 298.604 945.635C298.432 945.708 298.253 945.773 297.995 945.87ZM230.366 958.766C230.296 958.651 230.277 958.594 230.232 958.547C229.546 957.803 229.083 956.99 228.718 956.147C227.531 953.394 227.125 950.587 227.524 947.727C227.692 946.515 228.009 945.324 228.617 944.178C229.471 942.556 230.941 941.318 233.157 940.532C233.567 940.385 233.974 940.239 234.392 940.103C236.88 939.304 239.431 938.615 242.017 937.985C252.507 935.428 262.933 932.749 273.266 929.902C278.474 928.468 283.63 926.948 288.811 925.47C290.766 924.914 199.494 931.31 228.456 958.505C228.835 958.86 229.688 958.675 230.366 958.766ZM237.365 975.366C236.925 975.116 236.514 974.917 236.156 974.677C234.634 973.648 234.239 971.652 236.313 970.433C236.712 970.198 237.137 969.981 237.57 969.78C238.797 969.211 240.14 968.803 241.528 968.477C244.419 967.798 247.318 967.142 250.209 966.466C256.368 965.024 262.519 963.556 268.454 961.705C275.758 959.422 282.995 957.04 290.262 954.697C290.37 954.661 290.471 954.609 290.591 954.559C290.438 954.308 290.509 954.086 290.68 953.872C291.098 953.35 291.27 952.78 291.322 952.19C291.329 952.088 291.333 951.984 291.363 951.885C291.445 951.608 291.725 951.438 292.094 951.425C292.474 951.412 292.777 951.558 292.885 951.83C292.933 951.955 292.967 952.094 292.941 952.219C292.851 952.666 292.736 953.112 292.624 953.559C292.598 953.666 292.553 953.773 292.497 953.94C292.765 953.854 292.956 953.799 293.138 953.736C293.873 953.493 294.605 953.237 295.347 953.008C295.873 952.843 296.321 952.953 296.514 953.261C296.694 953.546 296.522 953.822 296.037 954.018C295.854 954.091 295.664 954.152 295.477 954.214C291.038 955.682 286.614 957.173 282.156 958.61C277.221 960.198 272.289 961.788 267.29 963.274C260.191 965.384 252.861 967.053 245.546 968.748C243.762 969.161 241.987 969.594 240.233 970.062C239.215 970.331 238.286 970.741 237.454 971.237C236.287 971.935 236.19 973.068 237.253 973.836C238.051 974.413 239.062 974.685 240.204 974.625C241.095 974.578 241.972 974.455 242.822 974.23C244.717 973.731 246.613 973.23 248.537 972.789C256.77 970.898 264.933 968.868 273.039 966.727C279.452 965.034 285.808 963.256 291.989 961.177C295.16 960.111 298.242 958.934 301.013 957.403C301.782 956.98 302.502 956.505 303.166 956.001C304.333 955.113 304.639 954.05 304.195 952.893C303.442 950.924 301.89 949.304 299.693 947.985C299.018 947.581 298.212 947.293 297.324 947.236C296.518 947.184 295.69 947.199 294.888 947.27C293.515 947.393 292.198 947.698 290.919 948.058C289.057 948.583 287.215 949.135 285.364 949.673C273.949 953 262.37 956.032 250.742 958.978C246.777 959.983 242.789 960.95 238.838 961.981C237.16 962.42 235.526 962.956 233.907 963.494C232.082 964.102 230.855 965.121 230.199 966.45C229.852 967.153 229.576 967.879 229.385 968.607C228.975 970.198 228.912 971.807 229.106 973.421C229.318 975.165 229.781 976.868 230.635 978.516C230.945 979.109 231.344 979.673 231.9 980.174C232.534 980.746 233.351 981.068 234.392 981.154C235.257 981.224 236.108 981.18 236.951 981.075C238.514 980.882 240.069 980.663 241.617 980.425C247.761 979.488 253.835 978.362 259.747 976.855C266.358 975.17 272.964 973.475 279.567 971.773C284.585 970.48 289.595 969.179 294.496 967.683C296.738 966.998 298.962 966.283 300.987 965.311C301.707 964.967 302.368 964.554 303.009 964.139C303.535 963.797 303.778 963.345 303.785 962.835C303.804 961.694 303.834 960.553 303.845 959.409C303.849 959.161 303.822 958.907 303.737 958.667C303.546 958.129 302.7 957.936 302.08 958.27C300.241 959.265 298.286 960.14 296.246 960.918C292.426 962.378 288.453 963.611 284.447 964.786C276.739 967.048 268.894 969.059 261.019 971.01C255.036 972.493 249.026 973.927 243.024 975.369C242.315 975.539 241.569 975.63 240.842 975.753C240.498 975.81 240.144 975.839 239.804 975.907C238.227 976.223 236.865 976.808 235.653 977.573C235.5 977.67 235.343 977.774 235.16 977.842C234.821 977.968 234.418 977.907 234.186 977.722C233.955 977.534 233.933 977.252 234.16 977.03C234.269 976.923 234.41 976.834 234.548 976.745C235.395 976.218 236.313 975.758 237.365 975.366ZM290.62 932.634C290.408 932.334 290.553 932.093 290.732 931.856C291.057 931.422 291.247 930.962 291.292 930.471C291.311 930.281 291.325 930.09 291.378 929.905C291.452 929.654 291.736 929.489 292.075 929.471C292.445 929.45 292.769 929.599 292.881 929.865C292.937 930.004 292.971 930.158 292.941 930.296C292.844 930.759 292.717 931.216 292.601 931.675C292.579 931.764 292.553 931.85 292.512 931.997C293.291 931.735 293.989 931.5 294.683 931.271C294.948 931.182 295.209 931.088 295.481 931.02C295.906 930.915 296.313 931.025 296.5 931.278C296.69 931.534 296.574 931.816 296.186 932.004C296.015 932.085 295.821 932.145 295.634 932.208C290.456 933.916 285.297 935.65 280.097 937.324C275.561 938.782 271.01 940.223 266.41 941.579C260.247 943.394 253.894 944.857 247.556 946.335C245.437 946.828 243.311 947.309 241.203 947.826C239.857 948.158 238.614 948.638 237.492 949.265C235.958 950.119 236.458 951.435 237.443 952.02C238.241 952.493 239.17 952.736 240.219 952.676C241.133 952.624 242.028 952.493 242.897 952.266C244.792 951.767 246.691 951.271 248.612 950.827C256.386 949.035 264.105 947.134 271.767 945.118C278.336 943.386 284.868 941.602 291.214 939.495C294.448 938.421 297.6 937.254 300.484 935.755C301.424 935.266 302.327 934.744 303.106 934.125C304.278 933.195 304.636 932.135 304.195 930.939C303.565 929.218 302.203 927.794 300.484 926.525C298.965 925.402 297.089 925.05 294.937 925.308C293.112 925.527 291.381 925.953 289.688 926.457C283.38 928.33 277.03 930.129 270.636 931.85C261.105 934.415 251.518 936.878 241.875 939.231C239.372 939.842 236.917 940.547 234.504 941.32C232.071 942.099 230.572 943.391 229.859 945.175C229.445 946.209 229.218 947.259 229.094 948.327C228.807 950.869 229.232 953.352 230.258 955.789C230.609 956.62 231.06 957.421 231.795 958.129C232.429 958.74 233.254 959.103 234.343 959.205C235.253 959.289 236.145 959.234 237.025 959.124C238.607 958.928 240.185 958.706 241.752 958.463C247.381 957.594 252.969 956.609 258.397 955.238C266.272 953.251 274.132 951.229 281.984 949.202C286.491 948.04 290.982 946.849 295.366 945.47C297.309 944.859 299.241 944.219 300.998 943.368C301.715 943.021 302.375 942.608 303.017 942.193C303.543 941.851 303.778 941.396 303.789 940.889C303.807 939.748 303.841 938.607 303.845 937.463C303.845 937.202 303.815 936.93 303.714 936.682C303.513 936.188 302.681 936.006 302.125 936.309C300.088 937.416 297.91 938.367 295.634 939.215C292.202 940.495 288.654 941.605 285.073 942.663C276.836 945.097 268.436 947.236 260.008 949.323C254.379 950.715 248.728 952.062 243.08 953.418C242.371 953.587 241.629 953.684 240.897 953.807C240.513 953.872 240.118 953.906 239.737 953.984C238.376 954.266 237.16 954.742 236.082 955.384C235.828 955.536 235.585 955.7 235.317 955.839C234.914 956.045 234.474 956.016 234.19 955.784C233.933 955.572 233.937 955.264 234.246 955.026C234.485 954.844 234.746 954.671 235.03 954.525C235.779 954.139 236.548 953.765 237.316 953.384C237.003 953.219 236.66 953.055 236.346 952.867C234.63 951.835 234.134 949.701 236.432 948.411C236.678 948.273 236.928 948.142 237.182 948.014C238.525 947.351 240.013 946.888 241.565 946.523C244.594 945.812 247.635 945.126 250.66 944.415C256.737 942.989 262.799 941.516 268.663 939.701C274.296 937.956 279.881 936.128 285.48 934.331C287.173 933.78 288.848 933.216 290.62 932.634Z" fill="#68AFFF"/>
<path d="M230.366 958.768C229.684 958.674 229.072 958.599 228.468 958.51C223.532 957.784 218.873 956.515 214.341 954.995C210.174 953.597 206.156 952.004 202.138 950.414C197.882 948.729 193.633 947.039 189.205 945.579C187.336 944.963 185.422 944.412 183.546 943.803C182.617 943.503 181.707 943.171 180.826 942.811C178.853 942.001 177.603 940.756 176.674 939.33C175.697 937.825 175.134 936.24 174.798 934.613C174.507 933.218 174.421 931.816 174.552 930.408C174.679 929.032 174.962 927.676 175.649 926.37C176.38 924.986 177.659 923.962 179.551 923.307C181.669 922.573 183.855 921.949 186.075 921.387C191.081 920.121 196.11 918.893 201.109 917.613C211.013 915.077 220.873 912.463 230.609 909.624C232.806 908.984 235.003 908.342 237.223 907.744C238.152 907.493 239.159 907.381 240.107 907.161C240.778 907.005 241.453 907.062 242.129 907.044C242.796 907.026 243.468 907.015 244.136 907.031C247.586 907.104 250.843 907.78 254.047 908.614C257.662 909.554 261.083 910.781 264.41 912.132C269.021 914.001 273.598 915.911 278.198 917.794C283.271 919.867 288.438 921.816 293.75 923.573C294.146 923.704 294.534 923.848 294.925 923.986C294.978 924.004 295.026 924.036 295.123 924.085C295.011 924.122 294.933 924.164 294.851 924.171C292.743 924.386 290.777 924.916 288.822 925.475C283.641 926.953 278.482 928.473 273.278 929.907C262.941 932.751 252.518 935.433 242.028 937.99C239.443 938.619 236.891 939.309 234.403 940.108C233.985 940.241 233.578 940.39 233.168 940.536C230.952 941.322 229.482 942.56 228.628 944.182C228.024 945.331 227.707 946.522 227.535 947.731C227.136 950.591 227.543 953.399 228.729 956.151C229.091 956.995 229.557 957.807 230.243 958.552C230.277 958.596 230.299 958.653 230.366 958.768Z" fill="url(#paint2_linear_698_14346)"/>
<path d="M237.363 975.367C236.311 975.759 235.393 976.219 234.557 976.751C234.419 976.84 234.278 976.932 234.17 977.036C233.942 977.258 233.964 977.54 234.196 977.728C234.427 977.914 234.834 977.976 235.169 977.848C235.348 977.78 235.505 977.676 235.662 977.579C236.874 976.814 238.236 976.229 239.814 975.913C240.153 975.845 240.508 975.817 240.851 975.759C241.582 975.636 242.328 975.545 243.033 975.375C249.035 973.933 255.045 972.5 261.029 971.016C268.904 969.065 276.749 967.054 284.456 964.793C288.462 963.617 292.435 962.385 296.255 960.925C298.296 960.146 300.247 959.271 302.089 958.276C302.705 957.942 303.552 958.138 303.746 958.673C303.832 958.911 303.854 959.167 303.854 959.415C303.843 960.556 303.813 961.698 303.794 962.842C303.787 963.351 303.544 963.803 303.018 964.145C302.377 964.563 301.716 964.973 300.996 965.318C298.971 966.286 296.748 967.005 294.506 967.689C289.604 969.185 284.59 970.486 279.576 971.779C272.973 973.482 266.371 975.177 259.757 976.861C253.84 978.368 247.771 979.494 241.627 980.431C240.079 980.669 238.523 980.888 236.96 981.082C236.121 981.186 235.266 981.231 234.401 981.16C233.36 981.074 232.543 980.75 231.909 980.181C231.349 979.679 230.95 979.115 230.644 978.522C229.786 976.877 229.327 975.171 229.115 973.427C228.917 971.813 228.984 970.207 229.395 968.613C229.585 967.882 229.861 967.156 230.208 966.456C230.864 965.127 232.092 964.108 233.916 963.5C235.535 962.959 237.169 962.426 238.847 961.988C242.798 960.956 246.786 959.99 250.751 958.984C262.375 956.038 273.955 953.006 285.373 949.679C287.224 949.138 289.07 948.587 290.928 948.065C292.208 947.704 293.524 947.399 294.897 947.276C295.699 947.205 296.527 947.19 297.333 947.242C298.221 947.299 299.027 947.587 299.702 947.992C301.899 949.31 303.451 950.932 304.205 952.899C304.649 954.056 304.343 955.119 303.175 956.007C302.515 956.511 301.791 956.986 301.023 957.409C298.251 958.94 295.17 960.115 291.999 961.183C285.817 963.262 279.461 965.038 273.048 966.733C264.942 968.875 256.78 970.904 248.547 972.795C246.622 973.236 244.727 973.738 242.832 974.236C241.981 974.461 241.104 974.584 240.213 974.631C239.071 974.691 238.06 974.419 237.262 973.842C236.199 973.074 236.296 971.941 237.463 971.243C238.295 970.747 239.224 970.337 240.243 970.068C242 969.603 243.772 969.167 245.555 968.755C252.87 967.06 260.204 965.391 267.299 963.28C272.298 961.794 277.23 960.201 282.165 958.616C286.627 957.182 291.047 955.688 295.487 954.22C295.677 954.158 295.867 954.098 296.046 954.025C296.535 953.829 296.706 953.552 296.524 953.267C296.33 952.959 295.882 952.849 295.356 953.014C294.61 953.246 293.883 953.5 293.148 953.743C292.961 953.803 292.775 953.86 292.506 953.946C292.562 953.779 292.607 953.675 292.633 953.565C292.745 953.118 292.86 952.674 292.95 952.225C292.976 952.1 292.946 951.961 292.894 951.836C292.786 951.564 292.484 951.418 292.103 951.431C291.73 951.444 291.454 951.611 291.372 951.891C291.342 951.99 291.338 952.095 291.331 952.196C291.279 952.787 291.107 953.356 290.689 953.878C290.518 954.092 290.447 954.312 290.6 954.565C290.48 954.615 290.383 954.67 290.271 954.704C283.005 957.044 275.768 959.428 268.463 961.711C262.528 963.565 256.377 965.03 250.218 966.472C247.327 967.148 244.428 967.806 241.537 968.483C240.146 968.809 238.806 969.217 237.579 969.786C237.146 969.987 236.721 970.204 236.322 970.439C234.248 971.659 234.643 973.654 236.165 974.683C236.512 974.918 236.923 975.117 237.363 975.367Z" fill="url(#paint3_linear_698_14346)"/>
<path d="M290.617 932.633C288.849 933.215 287.174 933.779 285.484 934.323C279.885 936.119 274.304 937.948 268.668 939.692C262.8 941.507 256.741 942.98 250.664 944.406C247.635 945.117 244.595 945.804 241.57 946.514C240.022 946.877 238.533 947.339 237.186 948.005C236.929 948.131 236.679 948.264 236.437 948.402C234.139 949.69 234.635 951.826 236.351 952.858C236.664 953.046 237.007 953.21 237.321 953.375C236.552 953.759 235.784 954.13 235.034 954.516C234.75 954.662 234.486 954.835 234.251 955.018C233.941 955.258 233.937 955.566 234.195 955.775C234.478 956.007 234.918 956.036 235.321 955.83C235.59 955.691 235.832 955.527 236.086 955.375C237.168 954.73 238.384 954.258 239.742 953.976C240.119 953.897 240.518 953.863 240.902 953.798C241.633 953.675 242.375 953.579 243.084 953.409C248.732 952.053 254.384 950.706 260.013 949.314C268.44 947.23 276.841 945.088 285.078 942.654C288.659 941.596 292.207 940.486 295.639 939.206C297.91 938.36 300.089 937.407 302.13 936.3C302.689 935.997 303.517 936.18 303.719 936.673C303.819 936.921 303.853 937.193 303.849 937.454C303.842 938.595 303.812 939.737 303.793 940.881C303.786 941.387 303.547 941.842 303.021 942.184C302.379 942.599 301.719 943.012 301.003 943.359C299.246 944.21 297.314 944.85 295.37 945.461C290.987 946.84 286.495 948.031 281.989 949.194C274.133 951.22 266.276 953.242 258.401 955.229C252.974 956.6 247.385 957.585 241.756 958.455C240.186 958.698 238.611 958.92 237.03 959.115C236.149 959.225 235.258 959.283 234.348 959.196C233.258 959.094 232.434 958.729 231.8 958.12C231.065 957.413 230.613 956.608 230.263 955.78C229.237 953.344 228.812 950.857 229.099 948.319C229.218 947.25 229.45 946.201 229.864 945.166C230.576 943.383 232.079 942.09 234.508 941.312C236.922 940.538 239.376 939.833 241.879 939.222C251.522 936.866 261.106 934.404 270.641 931.842C277.035 930.12 283.384 928.321 289.692 926.448C291.386 925.947 293.117 925.519 294.941 925.299C297.093 925.041 298.97 925.391 300.488 926.516C302.204 927.788 303.569 929.209 304.2 930.93C304.636 932.126 304.282 933.187 303.111 934.116C302.331 934.735 301.432 935.255 300.488 935.746C297.605 937.245 294.452 938.413 291.218 939.486C284.873 941.594 278.341 943.38 271.771 945.109C264.109 947.128 256.391 949.026 248.616 950.818C246.695 951.262 244.797 951.758 242.901 952.257C242.032 952.487 241.137 952.615 240.223 952.667C239.175 952.727 238.246 952.484 237.448 952.012C236.463 951.429 235.963 950.11 237.496 949.256C238.623 948.629 239.861 948.149 241.208 947.817C243.316 947.3 245.442 946.82 247.561 946.326C253.903 944.848 260.252 943.385 266.414 941.57C271.014 940.217 275.565 938.776 280.101 937.316C285.302 935.644 290.461 933.907 295.639 932.199C295.829 932.137 296.023 932.077 296.191 931.996C296.579 931.81 296.691 931.526 296.504 931.27C296.318 931.016 295.911 930.904 295.486 931.011C295.21 931.079 294.948 931.176 294.687 931.262C293.99 931.494 293.296 931.727 292.516 931.988C292.557 931.844 292.583 931.755 292.606 931.667C292.721 931.207 292.848 930.747 292.945 930.288C292.975 930.149 292.941 929.992 292.886 929.857C292.777 929.59 292.449 929.444 292.08 929.462C291.74 929.481 291.453 929.645 291.382 929.896C291.326 930.081 291.315 930.272 291.296 930.463C291.252 930.951 291.061 931.413 290.737 931.847C290.547 932.092 290.401 932.333 290.617 932.633Z" fill="url(#paint4_linear_698_14346)"/>
<path d="M280.59 918.775C277.258 919.28 273.927 919.782 270.595 920.286C267.422 920.766 264.21 921.179 261.081 921.792C259.531 922.097 258.014 922.474 256.561 922.959C255.185 923.418 253.878 923.973 252.589 924.538C251.296 925.106 250.014 925.687 248.677 926.207C247.326 926.731 245.918 927.185 244.494 927.606C241.677 928.435 238.816 929.188 236.067 930.134C233.528 931.006 231.069 932 228.752 933.136C224.109 935.413 219.995 938.265 217.155 941.721C214.342 945.146 212.723 949.15 213.128 953.118C213.179 953.628 213.27 954.135 213.382 954.639C213.458 954.984 214.077 955.174 214.519 955.09C215.048 954.989 215.24 954.642 215.164 954.294C214.342 950.539 215.569 946.65 218.032 943.298C220.527 939.903 224.286 937.038 228.654 934.771C230.863 933.623 233.221 932.616 235.658 931.724C238.229 930.786 240.898 930.017 243.582 929.257C246.457 928.44 249.224 927.538 251.861 926.387C254.399 925.279 256.891 924.128 259.741 923.438C262.707 922.72 265.818 922.327 268.878 921.866C272.123 921.377 275.364 920.885 278.609 920.395C279.435 920.271 280.261 920.147 281.086 920.02C282.242 919.848 281.749 918.6 280.59 918.775Z" fill="#68AFFF"/>
<path d="M194.696 947.218C195.605 943.725 197.492 940.393 200.201 937.394C202.892 934.412 206.387 931.76 210.461 929.678C212.532 928.621 214.745 927.706 217.07 926.953C219.775 926.075 222.615 925.419 225.443 924.772C228.297 924.121 231.162 923.479 233.936 922.665C236.851 921.808 239.556 920.73 242.131 919.447C244.608 918.212 247.053 916.926 249.414 915.585C251.659 914.307 253.796 912.924 255.574 911.319C256.031 910.908 256.465 910.485 256.871 910.049C257.519 909.349 255.922 908.7 255.277 909.397C252.094 912.833 247.143 915.278 242.504 917.674C239.965 918.985 237.343 920.191 234.468 921.108C231.763 921.973 228.927 922.625 226.102 923.269C220.648 924.514 215.241 925.812 210.475 928.104C206.195 930.16 202.493 932.768 199.546 935.757C196.627 938.719 194.468 942.073 193.306 945.58C193.164 946.011 193.038 946.445 192.922 946.879C192.831 947.221 193.056 947.575 193.566 947.674C194.008 947.755 194.606 947.563 194.696 947.218Z" fill="#68AFFF"/>
</g>
</g>
<defs>
<linearGradient id="paint0_linear_698_14346" x1="528.329" y1="1549.69" x2="527.456" y2="-936.288" gradientUnits="userSpaceOnUse">
<stop stop-color="#003872"/>
<stop offset="0.17" stop-color="#003872"/>
<stop offset="0.58" stop-color="#030E20"/>
<stop offset="1" stop-color="#030E20"/>
</linearGradient>
<linearGradient id="paint1_linear_698_14346" x1="206.834" y1="966.388" x2="208.881" y2="935.19" gradientUnits="userSpaceOnUse">
<stop stop-color="#B1D6FF"/>
<stop offset="1" stop-color="#288EFF"/>
</linearGradient>
<linearGradient id="paint2_linear_698_14346" x1="252.257" y1="912.056" x2="310.632" y2="947.695" gradientUnits="userSpaceOnUse">
<stop stop-color="#B1D6FF"/>
<stop offset="1" stop-color="#288CFF"/>
</linearGradient>
<linearGradient id="paint3_linear_698_14346" x1="247.404" y1="966.588" x2="317.896" y2="976.259" gradientUnits="userSpaceOnUse">
<stop stop-color="#98C9FF"/>
<stop offset="1" stop-color="#1484FF"/>
</linearGradient>
<linearGradient id="paint4_linear_698_14346" x1="245.223" y1="941.222" x2="328.087" y2="961.802" gradientUnits="userSpaceOnUse">
<stop stop-color="#A0CDFF"/>
<stop offset="1" stop-color="#1A86FF"/>
</linearGradient>
<clipPath id="clip0_698_14346">
<rect width="422" height="1032" fill="white"/>
</clipPath>
</defs>
</svg>
