<svg width="1440" height="1024" viewBox="0 0 1440 1024" fill="none" xmlns="http://www.w3.org/2000/svg">
<mask id="mask0_3547_7878" style="mask-type:luminance" maskUnits="userSpaceOnUse" x="0" y="0" width="1440" height="1024">
<path d="M1440 0H0V1024H1440V0Z" fill="white"/>
</mask>
<g mask="url(#mask0_3547_7878)">
<path d="M1440 0H0V1024H1440V0Z" fill="url(#paint0_linear_3547_7878)"/>
</g>
<mask id="mask1_3547_7878" style="mask-type:luminance" maskUnits="userSpaceOnUse" x="0" y="0" width="1440" height="1024">
<path d="M1440 0H0V1024H1440V0Z" fill="white"/>
</mask>
<g mask="url(#mask1_3547_7878)">
<path d="M1554.89 770.23H-114.893V1047H1554.89V770.23Z" fill="#002F6B"/>
</g>
<mask id="mask2_3547_7878" style="mask-type:luminance" maskUnits="userSpaceOnUse" x="0" y="0" width="1440" height="1024">
<path d="M1440 0H0V1024H1440V0Z" fill="white"/>
</mask>
<g mask="url(#mask2_3547_7878)">
<path d="M289.189 791.587C313.679 795.129 470.639 799.173 481.77 808.078C492.902 816.985 787.895 816.985 810.16 820.324C832.423 823.665 707.746 824.777 731.123 840.321C754.5 855.864 1051.72 841.475 1095.13 839.418C1138.55 837.362 1223.15 842.587 1286.6 839.063C1350.05 835.539 1445.79 837.023 1465.83 839.063C1485.86 841.104 1554.88 833.682 1554.88 833.682V802.512V770.23H240.588C174.494 786.166 266.652 788.324 289.189 791.587Z" fill="#001636"/>
</g>
<mask id="mask3_3547_7878" style="mask-type:luminance" maskUnits="userSpaceOnUse" x="0" y="0" width="1440" height="1024">
<path d="M1440 0H0V1024H1440V0Z" fill="white"/>
</mask>
<g mask="url(#mask3_3547_7878)">
<path d="M-114.893 770.23V810.951C-75.6055 805.267 24.6528 831.277 46.5195 828.674C69.8963 825.89 197.912 835.352 217.123 831.455C236.334 827.559 427.229 847.597 471.2 847.454C515.171 847.313 604.225 846.483 603.526 844.258C602.828 842.032 581.405 836.187 543.835 839.063C506.264 841.938 387.711 838.693 326.765 818.654C265.816 798.618 152.272 806.132 183.163 791.587C214.055 777.039 53.755 777.746 53.755 777.746L63.318 770.23H-114.893Z" fill="#001636"/>
</g>
<mask id="mask4_3547_7878" style="mask-type:luminance" maskUnits="userSpaceOnUse" x="0" y="0" width="1440" height="1024">
<path d="M1440 0H0V1024H1440V0Z" fill="white"/>
</mask>
<g mask="url(#mask4_3547_7878)">
<path d="M624.423 758.838C609.327 759.915 592.599 759.915 583.492 759.915H491.18C478.142 759.915 432.466 770.236 400.594 776.644C89.6552 776.644 32.0097 798.36 -114.893 789.434V714.21C-102.767 712.736 -84.9843 710.695 -74.9676 710.241C-58.7668 709.56 -36.6236 699.977 -23.7302 704.231C-10.8375 708.483 23.2889 707.632 36.1822 709.503C49.0749 711.318 78.1204 711.716 88.2812 711.716C96.6207 711.716 124.612 709.503 141.818 709.335H141.964C145.798 709.277 149.105 709.335 151.501 709.503C164.682 710.524 169.857 709.56 189.03 711.942C208.202 714.267 224.211 716.818 238.158 715.799C252.154 714.778 263.753 715.402 278.515 715.799C293.277 716.196 331.621 723.737 355.203 721.354C378.784 719.03 404.332 723.228 418.709 721.81C433.088 720.448 469.851 726.12 474.643 728.444C479.437 730.825 495.396 736.95 504.168 737.459C512.988 737.914 536.954 738.877 549.703 742.619C562.499 746.42 582.486 749.707 590.058 750.672C594.948 751.295 610.716 756.059 624.423 758.838Z" fill="#0C3E7E"/>
</g>
<mask id="mask5_3547_7878" style="mask-type:luminance" maskUnits="userSpaceOnUse" x="0" y="0" width="1440" height="1024">
<path d="M1440 0H0V1024H1440V0Z" fill="white"/>
</mask>
<g mask="url(#mask5_3547_7878)">
<path d="M1554.89 699.293V719.196C1543.38 719.14 1527.95 719.084 1516.3 719.481C1495.31 720.217 1463.58 717.439 1452.17 719.14C1440.81 720.897 1399.45 713.412 1379.13 718.572C1358.71 723.733 1338.96 712.562 1317.97 716.757C1297.02 720.897 1301.19 713.356 1273.06 719.99C1244.92 726.569 1239.51 727.249 1222.73 727.249C1205.96 727.249 1191.58 726.569 1180.22 727.249C1168.81 727.987 1148.44 730.82 1134.68 734.394C1120.88 737.91 1119.68 735.754 1101.13 734.394C1082.54 732.92 1060.97 730.084 1047.79 730.82C1034.61 731.559 1013.61 724.13 1004.65 726.057C995.689 727.987 976.517 727.987 965.109 729.403C953.703 730.82 939.324 737.23 920.775 732.92C902.227 728.723 862.637 730.084 854.871 732.238C847.106 734.394 824.915 741.426 806.942 741.426C788.968 741.426 733.705 743.58 719.998 746.416C706.288 749.25 661.953 752.765 645.179 756.339C639.524 757.529 632.189 758.323 624.426 758.834C610.716 756.054 594.948 751.291 590.06 750.668C582.486 749.705 562.5 746.416 549.703 742.615C536.954 738.873 512.988 737.91 504.168 737.455C495.399 736.946 479.437 730.82 474.645 728.44C469.851 726.115 433.09 720.444 418.711 721.805C404.332 723.223 378.786 719.028 355.203 721.35C331.622 723.733 293.279 716.192 278.515 715.795C263.753 715.398 252.154 714.774 238.158 715.795C224.211 716.816 208.202 714.262 189.031 711.938C169.859 709.558 164.682 710.52 151.501 709.499C149.106 709.331 145.798 709.273 141.964 709.331C153.707 706.666 167.079 704.227 178.677 701.505C199.048 696.798 197.85 700.087 217.789 697.763C228.045 696.515 233.461 696.571 237.632 696.742C237.679 696.742 237.679 696.742 237.679 696.742C241.657 696.798 244.534 697.025 249.374 696.345C259.344 694.927 267.348 699.634 276.503 699.634C285.705 699.634 307.656 701.052 317.243 701.505C326.829 702.015 335.649 703.432 350.793 703.15C365.987 702.923 377.154 705.304 389.138 701.505C401.12 697.763 409.507 702.015 422.306 703.15C435.103 704.339 445.887 704.339 453.844 703.15C461.848 701.958 472.248 702.923 479.82 703.15C487.394 703.376 501.773 703.886 508.196 703.15C514.57 702.412 543.328 704.339 554.112 706.268C564.897 708.14 575.296 710.975 581.288 710.975C587.28 710.975 601.227 710.975 617.236 704.227C633.195 697.536 636.79 699.634 651.554 698.16C666.363 696.684 679.927 700.597 693.109 698.16C706.288 695.721 739.841 698.669 749.81 698.16C759.827 697.648 774.206 697.251 797.355 698.16C820.506 699.066 824.533 699.181 834.118 698.16C843.704 697.139 872.845 696.798 885.642 694.927C898.391 692.997 911.572 697.251 921.589 698.16C931.559 699.066 961.899 693.962 972.875 695.38C973.114 695.438 973.403 695.438 973.69 695.494C985.05 696.628 1008.87 692.997 1019.03 692.147C1029.43 691.299 1068.97 697.763 1075.73 693.397C1082.54 689.087 1098.5 697.251 1116.47 698.84C1134.45 700.37 1147.63 701.505 1157.64 698.84C1167.61 696.118 1215.93 698.669 1221.92 698.84C1227.91 698.952 1252.69 701.505 1261.89 701.505C1271.04 701.505 1298.61 701.505 1312.98 701.052C1327.36 700.597 1369.3 695.833 1382.92 693.962C1396.48 692.091 1400.46 695.38 1417.23 698.443C1434.01 701.449 1453.61 700.087 1469.95 701.335C1486.35 702.582 1485.53 701.505 1501.54 703.432C1517.5 705.304 1524.31 703.886 1533.08 700.087C1539.02 697.536 1549.09 698.443 1554.89 699.293Z" fill="#0F4FA0"/>
</g>
<mask id="mask6_3547_7878" style="mask-type:luminance" maskUnits="userSpaceOnUse" x="0" y="0" width="1440" height="1024">
<path d="M1440 0H0V1024H1440V0Z" fill="white"/>
</mask>
<g mask="url(#mask6_3547_7878)">
<path d="M1554.88 673.832V699.293C1549.08 698.443 1539.02 697.536 1533.07 700.087C1524.3 703.886 1517.5 705.304 1501.54 703.433C1485.53 701.503 1486.34 702.582 1469.95 701.335C1453.61 700.087 1434 701.447 1417.23 698.443C1400.45 695.38 1396.47 692.091 1382.91 693.962C1369.3 695.833 1327.36 700.597 1312.98 701.052C1298.6 701.503 1271.04 701.503 1261.89 701.503C1252.68 701.503 1227.91 698.952 1221.91 698.84C1215.92 698.669 1167.61 696.118 1157.64 698.84C1147.62 701.503 1134.44 700.37 1116.47 698.84C1098.49 697.251 1082.53 689.087 1075.73 693.395C1068.97 697.761 1029.43 691.297 1019.03 692.147C1008.87 692.998 985.046 696.628 973.686 695.492C985.524 692.659 998.849 688.86 1003.45 686.704C1009.82 683.756 1029.81 685.003 1039.02 686.421C1048.17 687.839 1068.16 684.039 1079.75 684.039C1091.3 684.039 1099.69 683.585 1112.87 681.205C1126.05 678.822 1167.61 672.244 1180.41 670.826C1188.75 669.919 1195.22 667.763 1202.89 666.007C1206.91 665.042 1211.27 664.192 1216.35 663.738C1231.12 662.32 1230.3 667.481 1249.9 668.672C1269.46 669.863 1270.28 672.244 1283.02 672.244C1295.82 672.244 1303.01 678.369 1312.21 674.115C1321.37 669.863 1338.14 670.826 1338.14 670.826C1338.14 670.826 1353.72 666.063 1362.11 664.192C1370.5 662.32 1372.13 666.574 1376.49 665.61C1380.9 664.647 1392.88 658.975 1399.25 658.975C1405.68 658.975 1415.26 664.647 1421.25 665.61C1427.25 666.574 1438.8 658.975 1446.8 658.975C1454.8 658.975 1461.56 662.32 1466.79 662.32C1471.96 662.32 1485.96 664.192 1508.3 665.156C1530.68 666.063 1533.89 671.735 1553.16 673.662L1554.88 673.832Z" fill="#2367BD"/>
</g>
<mask id="mask7_3547_7878" style="mask-type:luminance" maskUnits="userSpaceOnUse" x="0" y="0" width="1440" height="1024">
<path d="M1440 0H0V1024H1440V0Z" fill="white"/>
</mask>
<g mask="url(#mask7_3547_7878)">
<path d="M1554.89 644.517V673.835L1553.17 673.664C1533.9 671.737 1530.69 666.067 1508.3 665.159C1485.97 664.196 1471.97 662.325 1466.8 662.325C1461.57 662.325 1454.81 658.977 1446.81 658.977C1438.81 658.977 1427.25 666.576 1421.26 665.612C1415.27 664.649 1405.69 658.977 1399.26 658.977C1392.89 658.977 1380.91 664.649 1376.5 665.612C1372.14 666.576 1370.51 662.325 1362.12 664.196C1353.73 666.067 1338.15 670.83 1338.15 670.83C1338.15 670.83 1321.38 669.866 1312.22 674.119C1303.02 678.371 1295.83 672.246 1283.03 672.246C1270.28 672.246 1269.47 669.866 1249.92 668.674C1230.31 667.485 1231.13 662.325 1216.36 663.741C1211.28 664.196 1206.92 665.046 1202.89 666.011C1195.95 662.607 1185.98 657.844 1183.2 656.653C1178.79 654.726 1168.43 650.019 1162.01 646.729C1158.08 644.688 1151.95 642.987 1146.2 641.457C1168.43 640.265 1211.86 637.997 1221.54 637.997C1234.72 637.997 1232.32 645.767 1257.49 637.997C1282.65 630.171 1295.83 626.656 1307.81 630.171C1319.8 633.687 1321.62 636.579 1341.94 635.502C1362.36 634.425 1357.57 639.415 1381.53 635.502C1405.49 631.589 1441.44 626.714 1448.63 628.812C1455.82 630.853 1479.16 631.589 1488.75 631.589C1498.33 631.589 1519.28 638.677 1534.9 642.193C1540.66 643.555 1547.8 644.293 1554.89 644.517Z" fill="#0F4FA0"/>
</g>
<mask id="mask8_3547_7878" style="mask-type:luminance" maskUnits="userSpaceOnUse" x="0" y="0" width="1440" height="1024">
<path d="M1440 0H0V1024H1440V0Z" fill="white"/>
</mask>
<g mask="url(#mask8_3547_7878)">
<path d="M603.526 674.795C586.848 676.44 566.477 676.837 561.684 677.404C553.728 678.369 538.534 681.203 524.539 680.24C510.593 679.332 503.401 681.6 490.604 680.467C477.807 679.332 444.687 678.481 436.3 680.75C427.913 683.074 417.129 677.063 403.132 680.75C389.138 684.492 352.423 686.875 345.616 686.419C338.811 685.91 329.657 684.606 320.453 686.477C311.25 688.293 304.876 689.255 291.312 689.255C277.7 689.255 263.753 687.837 260.159 689.255C258.192 690.049 248.272 693.395 237.679 696.74C237.679 696.74 237.679 696.74 237.632 696.74C233.461 696.569 228.045 696.513 217.789 697.761C197.85 700.085 199.048 696.798 178.677 701.503C167.077 704.227 153.707 706.663 141.964 709.329H141.818C124.612 709.499 96.6207 711.711 88.2814 711.711C78.1204 711.711 49.0749 711.314 36.1822 709.499C23.2889 707.628 -10.8375 708.479 -23.7302 704.227C-36.6236 699.973 -58.7668 709.555 -74.9676 710.235C-84.9843 710.691 -102.767 712.732 -114.893 714.206V637.257H-53.3988C-33.0288 637.257 -16.2536 631.585 -0.675888 637.257C14.9012 642.927 -0.675888 637.257 35.2712 637.257C71.2188 637.257 82.0029 627.957 107.166 634.762C132.329 641.511 186.251 636.18 207.819 636.009C229.388 635.839 246.162 624.838 283.307 636.009C320.453 647.18 349.211 636.633 382.761 639.752C416.314 642.927 422.304 633.968 437.882 641.282C453.459 648.598 470.235 644.344 493.001 647.18C515.768 650.016 513.611 652.17 561.3 663.171C590.873 669.976 595.283 672.755 603.526 674.795Z" fill="#0F4FA0"/>
</g>
<mask id="mask9_3547_7878" style="mask-type:luminance" maskUnits="userSpaceOnUse" x="0" y="0" width="1440" height="1024">
<path d="M1440 0H0V1024H1440V0Z" fill="white"/>
</mask>
<g mask="url(#mask9_3547_7878)">
<path d="M1202.89 666.009C1195.22 667.766 1188.75 669.922 1180.41 670.828C1167.61 672.246 1126.06 678.823 1112.88 681.205C1099.7 683.588 1091.31 684.041 1079.76 684.041C1068.16 684.041 1048.17 687.84 1039.02 686.422C1029.81 685.006 1009.83 683.756 1003.45 686.706C998.851 688.86 985.526 692.659 973.688 695.495C973.401 695.439 973.114 695.439 972.873 695.383C961.897 693.965 931.557 699.067 921.588 698.16C911.571 697.254 898.389 693 885.64 694.927C872.843 696.798 843.703 697.139 834.116 698.16C824.531 699.181 820.504 699.067 797.355 698.16C774.204 697.254 759.825 697.649 749.808 698.16C739.839 698.67 706.286 695.721 693.107 698.16C679.925 700.599 666.361 696.686 651.552 698.16C636.788 699.634 633.194 697.536 617.234 704.227C601.225 710.976 587.279 710.976 581.287 710.976C575.297 710.976 564.895 708.14 554.111 706.269C543.326 704.341 514.568 702.414 508.194 703.15C501.771 703.888 487.392 703.377 479.82 703.15C472.246 702.923 461.846 701.959 453.842 703.15C445.885 704.341 435.101 704.341 422.304 703.15C409.507 702.017 401.118 697.763 389.136 701.505C377.154 705.306 365.985 702.923 350.791 703.15C335.647 703.433 326.828 702.017 317.241 701.505C307.654 701.052 285.703 699.634 276.501 699.634C267.347 699.634 259.342 694.927 249.373 696.345C244.533 697.025 241.655 696.798 237.678 696.742C248.271 693.397 258.192 690.052 260.157 689.257C263.752 687.84 277.698 689.257 291.31 689.257C304.874 689.257 311.249 688.293 320.453 686.48C329.655 684.607 338.809 685.912 345.616 686.422C352.421 686.877 389.136 684.494 403.133 680.752C417.127 677.066 427.911 683.076 436.298 680.752C444.688 678.484 477.806 679.334 490.603 680.469C503.401 681.602 510.591 679.334 524.538 680.24C538.534 681.205 553.726 678.371 561.683 677.407C566.475 676.839 586.846 676.442 603.525 674.797C614.646 673.72 624.183 672.02 626.389 669.41C631.996 662.776 633.578 668.446 642.78 663.741C651.984 658.978 656.344 662.323 662.336 658.978C668.326 655.688 683.138 658.524 695.887 662.323C708.684 666.065 743.816 662.776 753.403 658.978C762.988 655.233 769.412 652.852 784.174 646.274C798.935 639.754 801.763 642.929 817.724 639.13C833.685 635.388 840.108 637.712 849.262 635.841C858.464 633.97 885.64 638.677 892.015 638.677C898.389 638.677 906.778 629.716 914.398 624.612C921.972 619.51 935.536 629.716 937.932 631.587C940.329 633.459 956.721 633.97 964.293 636.806C971.914 639.64 976.277 641.964 982.268 641.058C988.258 640.093 992.285 635.388 1000.67 629.716C1009.06 624.046 1015.05 626.882 1019.84 625.011C1024.64 623.138 1031.01 627.789 1039.78 633.005C1048.6 638.224 1045.39 633.97 1054.16 633.97C1062.98 633.97 1061.78 633.97 1072.95 630.625C1084.12 627.336 1085.75 627.336 1095.33 625.464C1104.92 623.535 1113.31 628.298 1119.68 632.041C1126.06 635.841 1129.65 636.294 1136.46 638.677C1139.09 639.584 1142.54 640.49 1146.14 641.455C1146.14 641.455 1146.14 641.455 1146.19 641.455C1151.94 642.985 1158.07 644.688 1162 646.727C1168.43 650.017 1178.78 654.724 1183.19 656.651C1185.97 657.842 1195.94 662.606 1202.89 666.009Z" fill="#2367BD"/>
</g>
<mask id="mask10_3547_7878" style="mask-type:luminance" maskUnits="userSpaceOnUse" x="0" y="0" width="1440" height="1024">
<path d="M1440 0H0V1024H1440V0Z" fill="white"/>
</mask>
<g mask="url(#mask10_3547_7878)">
<path d="M1554.88 719.196V776.638C1210.91 795.978 923.704 806.964 400.588 776.638C432.461 770.23 478.136 759.909 491.174 759.909H583.486C592.593 759.909 609.321 759.909 624.42 758.832C632.183 758.323 639.516 757.529 645.171 756.338C661.948 752.766 706.282 749.25 719.992 746.414C733.699 743.578 788.962 741.424 806.936 741.424C824.91 741.424 847.1 734.393 854.865 732.239C862.631 730.083 902.219 728.723 920.769 732.918C939.318 737.228 953.695 730.821 965.103 729.403C976.511 727.985 995.683 727.985 1004.65 726.057C1013.61 724.13 1034.6 731.559 1047.78 730.821C1060.96 730.083 1082.53 732.918 1101.13 734.393C1119.68 735.754 1120.88 737.908 1134.68 734.393C1148.43 730.821 1168.81 727.985 1180.21 727.249C1191.57 726.567 1205.95 727.249 1222.73 727.249C1239.5 727.249 1244.92 726.567 1273.05 719.991C1301.19 713.356 1297.02 720.897 1317.96 716.758C1338.96 712.562 1358.7 723.733 1379.12 718.573C1399.44 713.412 1440.81 720.897 1452.17 719.14C1463.57 717.437 1495.3 720.217 1516.3 719.479C1527.94 719.082 1543.38 719.14 1554.88 719.196Z" fill="#002F6B"/>
</g>
<mask id="mask11_3547_7878" style="mask-type:luminance" maskUnits="userSpaceOnUse" x="0" y="0" width="1440" height="1024">
<path d="M1440 0H0V1024H1440V0Z" fill="white"/>
</mask>
<g mask="url(#mask11_3547_7878)">
<path d="M1554.89 847.647C1533.21 848.579 1437.05 852.606 1395.7 852.606C1227.14 852.606 1027.75 850.641 1026.8 864.332C1026.63 866.717 1032.63 867.721 1032.79 871.875C1032.92 875.331 1030.88 899.254 949.316 902.7C870.282 906.039 842.451 908.081 841.338 921.53C840.224 934.982 987.164 931.641 1007.2 930.529C1027.24 929.417 1274.25 940.548 1264.29 952.792C1254.33 965.038 1324.46 965.038 1361.19 967.264C1395.65 969.352 1456.54 985.147 1554.89 981.591V847.647Z" fill="#2367BD"/>
</g>
<mask id="mask12_3547_7878" style="mask-type:luminance" maskUnits="userSpaceOnUse" x="0" y="0" width="1440" height="1024">
<path d="M1440 0H0V1024H1440V0Z" fill="white"/>
</mask>
<g mask="url(#mask12_3547_7878)">
<path d="M106.403 920.484L105.322 920.57C105.301 920.57 105.301 920.57 105.301 920.57L104.983 920.59H104.962L102.654 920.738C102.633 920.738 102.611 920.738 102.611 920.738L60.173 923.661C60.173 923.661 64.7682 937.25 56.6506 953.839C53.5621 960.149 50.169 966.788 47.1475 972.599C59.5439 971.256 69.0248 969.148 71.2912 968.62C71.3966 968.599 71.5029 968.578 71.5663 968.557C71.6511 968.534 71.7145 968.514 71.7567 968.514C71.7994 968.493 71.8201 968.493 71.8201 968.493L81.0112 948.016L106.424 920.484C106.403 920.484 106.403 920.484 106.403 920.484Z" fill="#002F6B"/>
</g>
<mask id="mask13_3547_7878" style="mask-type:luminance" maskUnits="userSpaceOnUse" x="0" y="0" width="1440" height="1024">
<path d="M1440 0H0V1024H1440V0Z" fill="white"/>
</mask>
<g mask="url(#mask13_3547_7878)">
<path d="M358.21 815.12V820.22V825.31V830.41V835.5V840.6V845.69V850.79V855.88V860.98C357.786 865.71 355.007 869.689 351.04 871.16C347.877 872.334 344.983 871.532 343.88 871.16V866.07V860.98V855.88V850.79V845.69V840.6V835.5V830.41V825.31V820.22V815.12V810.03V804.94V799.84V794.75V789.65V784.56V779.46V774.37V769.27V764.18C342.198 758.038 337.014 753.577 331 753C324.043 752.332 317.267 756.987 315.22 764.18C315.22 765.877 315.22 767.573 315.22 769.27V774.37V779.46V784.56V789.65V794.75V799.84V804.94V810.03V815.12V820.22V825.31V830.41V835.5V840.6V845.69V850.79V855.88V860.98V866.07C314.735 866.366 311.226 868.422 307 867C302.588 865.515 301.076 861.476 300.9 860.98C300.9 859.28 300.9 857.58 300.9 855.88V850.79V845.69V840.6V835.5V830.41V825.31V820.22V815.12V810.03V804.94V799.84V794.75V789.65V784.56C299.714 779.503 295.146 775.93 290 776C284.963 776.068 280.561 779.611 279.4 784.56C279.4 786.257 279.4 787.953 279.4 789.65V794.75V799.84V804.94V810.03V815.12V820.22V825.31V830.41V835.5V840.6V845.69V850.79V855.88V860.98V866.07V871.16C280.164 874.161 284.598 890.382 300 898C305.822 900.88 311.356 901.612 315.22 901.73C315.22 903.43 315.22 905.13 315.22 906.83V911.92V917.01V922.11V927.2V932.3V937.39H322.39H329.55H336.72H343.88V932.3V927.2V922.11V917.01V911.92V906.83V901.73C347.415 901.65 356.187 900.979 365 895C374.665 888.444 378.49 879.5 379.7 876.26V871.16V866.07V860.98V855.88V850.79V845.69V840.6V835.5V830.41V825.31V820.22V815.12C378.077 809.923 373.135 806.569 368 807C363.497 807.378 359.583 810.605 358.21 815.12Z" fill="#001636"/>
</g>
<mask id="mask14_3547_7878" style="mask-type:luminance" maskUnits="userSpaceOnUse" x="0" y="0" width="1440" height="1024">
<path d="M1440 0H0V1024H1440V0Z" fill="white"/>
</mask>
<g mask="url(#mask14_3547_7878)">
<path d="M-99 896C-99 896 57 884 165 907C273 930 345 944 416 932C487 920 595 948 595 948C595 948 315 958 294 968C294 968 356 982 437 983C518 984 615 1002 680 1000C745 998 871 1032 871 1032H-97.1594L-99 896Z" fill="#0F4FA0"/>
</g>
<mask id="mask15_3547_7878" style="mask-type:luminance" maskUnits="userSpaceOnUse" x="0" y="0" width="1440" height="1024">
<path d="M1440 0H0V1024H1440V0Z" fill="white"/>
</mask>
<g mask="url(#mask15_3547_7878)">
<path d="M1117.61 683.42V688.52V693.61V698.71V703.8V708.9V713.99V719.08V724.18V729.27C1117.56 731.114 1116.42 732.643 1115 733C1113.12 733.473 1110.73 731.905 1110.45 729.27C1110.45 727.573 1110.45 725.877 1110.45 724.18V719.08V713.99V708.9V703.8V698.71V693.61V688.52V683.42V678.33V673.23V668.14V663.04C1109.9 657.717 1105.83 653.563 1101 653C1095.35 652.342 1089.71 656.719 1088.96 663.04C1088.96 664.74 1088.96 666.44 1088.96 668.14V673.23V678.33V683.42V688.52V693.61V698.71V703.8V708.9V713.99V719.08V724.18V729.27V734.37V739.46V744.56C1088.28 746.174 1086.66 747.158 1085 747C1083.59 746.865 1082.35 745.919 1081.79 744.56C1081.79 742.86 1081.79 741.16 1081.79 739.46V734.37V729.27V724.18V719.08V713.99V708.9V703.8V698.71C1080.43 693.17 1075.3 689.507 1070 690C1065.39 690.429 1061.42 693.938 1060.3 698.71C1060.3 700.407 1060.3 702.103 1060.3 703.8V708.9V713.99V719.08V724.18V729.27V734.37V739.46V744.56C1060.79 746.833 1062.76 754.501 1070 760C1074.6 763.494 1079.29 764.562 1081.79 764.94V770.03V775.12V780.22V785.31V790.41V795.5V800.6V805.69H1088.96H1096.12H1103.28H1110.45H1117.61V800.6V795.5V790.41V785.31V780.22V775.12V770.03V764.94V759.84V754.75C1119.92 754.333 1126.5 752.832 1132 747C1138.74 739.859 1139.07 731.304 1139.1 729.27V724.18V719.08V713.99V708.9V703.8V698.71V693.61V688.52V683.42C1137.43 679.158 1133.46 676.248 1129 676C1124.1 675.728 1119.47 678.718 1117.61 683.42Z" fill="#001636"/>
</g>
<mask id="mask16_3547_7878" style="mask-type:luminance" maskUnits="userSpaceOnUse" x="0" y="0" width="1440" height="1024">
<path d="M1440 0H0V1024H1440V0Z" fill="white"/>
</mask>
<g mask="url(#mask16_3547_7878)">
<path opacity="0.75" d="M1234.5 292.855C1284.95 292.855 1325.85 251.954 1325.85 201.5C1325.85 151.046 1284.95 110.145 1234.5 110.145C1184.05 110.145 1143.14 151.046 1143.14 201.5C1143.14 251.954 1184.05 292.855 1234.5 292.855Z" fill="#033459"/>
<path opacity="0.75" d="M1234.5 284.55C1280.37 284.55 1317.55 247.367 1317.55 201.5C1317.55 155.633 1280.37 118.45 1234.5 118.45C1188.63 118.45 1151.45 155.633 1151.45 201.5C1151.45 247.367 1188.63 284.55 1234.5 284.55Z" fill="#013A6D"/>
<path d="M1234.5 277C1276.2 277 1310 243.197 1310 201.5C1310 159.803 1276.2 126 1234.5 126C1192.8 126 1159 159.803 1159 201.5C1159 243.197 1192.8 277 1234.5 277Z" fill="#8BA0BA"/>
<path d="M1215.5 141.5C1210.27 138.945 1201.02 144.624 1201.5 147.5C1202 150.512 1213.51 152.488 1217.5 148.5C1217.84 148.164 1218.87 147.127 1218.87 145.719C1218.88 143.654 1216.66 142.067 1215.5 141.5Z" fill="#768DAA"/>
<path d="M1193 153C1193 153 1178 159 1181 172C1184 185 1191 172 1197 168C1203 164 1202 149 1193 153Z" fill="#768DAA"/>
<path d="M1217 159C1212.54 156.169 1205.42 157.985 1204.04 161.627C1203.9 162.003 1203.5 163.059 1204 164C1205.92 167.615 1219.09 165.688 1219.69 162.377C1219.96 160.878 1217.6 159.381 1217 159Z" fill="#768DAA"/>
<path d="M1174 222C1174 222 1171 186 1185 192C1199 198 1204 229 1213 239C1222 249 1205 261 1197 253C1189 245 1173 237 1174 222Z" fill="#768DAA"/>
<path d="M1220 217C1218.3 216.519 1215.74 218.944 1215.05 221.463C1214.11 224.93 1216.91 227.857 1218 229C1219.11 230.163 1220.41 231.519 1221.36 231.178C1223.86 230.285 1223.35 217.946 1220 217Z" fill="#768DAA"/>
<path d="M1241 252C1239.42 247.28 1220.95 246.783 1218.46 252.632C1217.63 254.563 1218.79 256.627 1219 257C1221.56 261.563 1230.3 262.616 1236 259C1238.09 257.675 1241.81 254.423 1241 252Z" fill="#768DAA"/>
</g>
<defs>
<linearGradient id="paint0_linear_3547_7878" x1="720.364" y1="1548.89" x2="719.491" y2="-937.084" gradientUnits="userSpaceOnUse">
<stop offset="0.174507" stop-color="#003872"/>
<stop offset="0.578751" stop-color="#030E20"/>
</linearGradient>
</defs>
</svg>
