<svg width="422" height="1032" viewBox="0 0 422 1032" fill="none" xmlns="http://www.w3.org/2000/svg">
<mask id="mask0_698_14346" style="mask-type:luminance" maskUnits="userSpaceOnUse" x="0" y="0" width="422" height="1032">
<path d="M421.678 0.796875H0.0585938V1031.8H421.678V0.796875Z" fill="white"/>
</mask>
<g mask="url(#mask0_698_14346)">
<path d="M1248 1H-192V1294H1248V1Z" fill="url(#paint0_linear_698_14346)"/>
<path d="M432.39 1028.84C417.293 1029.92 400.565 1029.92 391.459 1029.92H299.146C286.108 1029.92 240.432 1040.24 208.56 1046.65C-102.379 1046.65 -160.024 1068.36 -306.926 1059.44V984.212C-294.8 982.737 -277.018 980.696 -267.001 980.242C-250.8 979.561 -228.657 969.979 -215.764 974.233C-202.871 978.484 -168.745 977.634 -155.851 979.505C-142.959 981.319 -113.913 981.717 -103.753 981.717C-95.4128 981.717 -67.4218 979.505 -50.2148 979.336H-50.0698C-46.2357 979.278 -42.9278 979.336 -40.5328 979.505C-27.3508 980.526 -22.1758 979.561 -3.00278 981.944C16.1682 984.268 32.1782 986.819 46.1242 985.8C60.1202 984.779 71.7202 985.403 86.4812 985.8C101.243 986.197 139.588 993.738 163.169 991.356C186.75 989.031 212.298 993.229 226.675 991.811C241.055 990.449 277.817 996.121 282.609 998.445C287.404 1000.83 303.363 1006.95 312.135 1007.46C320.954 1007.92 344.92 1008.88 357.669 1012.62C370.466 1016.42 390.452 1019.71 398.024 1020.67C402.914 1021.3 418.682 1026.06 432.39 1028.84Z" fill="#0C3E7E"/>
<path d="M1362.85 969.294V989.197C1351.35 989.142 1335.91 989.085 1324.27 989.482C1303.27 990.218 1271.54 987.44 1260.14 989.142C1248.78 990.898 1207.41 983.413 1187.09 988.573C1166.67 993.734 1146.93 982.563 1125.93 986.759C1104.99 990.898 1109.16 983.357 1081.02 989.991C1052.89 996.57 1047.47 997.25 1030.7 997.25C1013.92 997.25 999.544 996.57 988.186 997.25C976.778 997.987 956.409 1000.82 942.652 1004.4C928.848 1007.91 927.651 1005.76 909.101 1004.4C890.505 1002.92 868.937 1000.09 855.755 1000.82C842.574 1001.56 821.581 994.131 812.618 996.059C803.655 997.987 784.484 997.987 773.076 999.403C761.669 1000.82 747.29 1007.23 728.741 1002.92C710.193 998.724 670.603 1000.09 662.837 1002.24C655.072 1004.4 632.882 1011.43 614.908 1011.43C596.934 1011.43 541.671 1013.58 527.964 1016.42C514.254 1019.25 469.92 1022.77 453.145 1026.34C447.491 1027.53 440.155 1028.32 432.392 1028.84C418.683 1026.06 402.915 1021.29 398.027 1020.67C390.453 1019.71 370.466 1016.42 357.669 1012.62C344.92 1008.87 320.954 1007.91 312.135 1007.46C303.365 1006.95 287.404 1000.82 282.611 998.441C277.817 996.116 241.057 990.444 226.677 991.807C212.298 993.225 186.752 989.029 163.169 991.352C139.588 993.734 101.245 986.193 86.4807 985.796C71.7197 985.398 60.1207 984.775 46.1237 985.796C32.1777 986.816 16.1677 984.264 -3.00331 981.94C-22.1743 979.559 -27.3513 980.522 -40.5333 979.5C-42.9283 979.332 -46.2363 979.273 -50.0703 979.332C-38.3273 976.667 -24.9543 974.228 -13.3573 971.506C7.01369 966.799 5.81569 970.088 25.7547 967.764C36.0107 966.517 41.4267 966.572 45.5977 966.743H45.6457C49.6227 966.799 52.5007 967.025 57.3407 966.346C67.3097 964.928 75.3147 969.635 84.4687 969.635C93.6707 969.635 115.622 971.053 125.209 971.506C134.796 972.016 143.615 973.434 158.759 973.15C173.954 972.924 185.121 975.305 197.104 971.506C209.086 967.764 217.473 972.016 230.272 973.15C243.069 974.34 253.853 974.34 261.81 973.15C269.814 971.96 280.214 972.924 287.787 973.15C295.361 973.378 309.74 973.887 316.162 973.15C322.537 972.413 351.294 974.34 362.079 976.27C372.863 978.141 383.263 980.977 389.255 980.977C395.247 980.977 409.193 980.977 425.203 974.228C441.162 967.537 444.756 969.635 459.52 968.161C474.33 966.685 487.894 970.598 501.075 968.161C514.254 965.723 547.807 968.67 557.777 968.161C567.793 967.649 582.172 967.252 605.322 968.161C628.472 969.067 632.499 969.182 642.084 968.161C651.67 967.141 680.811 966.799 693.608 964.928C706.357 962.999 719.539 967.252 729.556 968.161C739.525 969.067 769.866 963.963 780.841 965.381C781.081 965.44 781.37 965.44 781.656 965.495C793.016 966.629 816.836 962.999 826.998 962.148C837.399 961.3 876.942 967.764 883.699 963.398C890.505 959.088 906.464 967.252 924.439 968.841C942.413 970.371 955.594 971.506 965.611 968.841C975.581 966.119 1023.89 968.67 1029.88 968.841C1035.87 968.953 1060.65 971.506 1069.86 971.506C1079.01 971.506 1106.57 971.506 1120.95 971.053C1135.33 970.598 1177.27 965.834 1190.88 963.963C1204.44 962.092 1208.42 965.381 1225.2 968.443C1241.97 971.45 1261.58 970.088 1277.92 971.336C1294.31 972.583 1293.5 971.506 1309.5 973.434C1325.47 975.305 1332.27 973.887 1341.04 970.088C1346.99 967.537 1357.05 968.443 1362.85 969.294Z" fill="#0F4FA0"/>
<path d="M411.493 944.796C394.814 946.441 374.443 946.838 369.651 947.405C361.694 948.37 346.5 951.204 332.506 950.241C318.559 949.333 311.368 951.601 298.571 950.468C285.774 949.333 252.654 948.483 244.266 950.751C235.879 953.075 225.095 947.065 211.098 950.751C197.104 954.493 160.389 956.876 153.582 956.42C146.778 955.911 137.623 954.608 128.419 956.479C119.217 958.294 112.842 959.256 99.2782 959.256C85.6662 959.256 71.7202 957.838 68.1252 959.256C66.1582 960.051 56.2392 963.396 45.6462 966.741H45.5982C41.4272 966.57 36.0112 966.515 25.7552 967.762C5.81622 970.086 7.01422 966.799 -13.3568 971.504C-24.9558 974.228 -38.3268 976.664 -50.0698 979.33H-50.2148C-67.4218 979.5 -95.4128 981.713 -103.752 981.713C-113.913 981.713 -142.959 981.316 -155.851 979.5C-168.745 977.629 -202.871 978.48 -215.764 974.228C-228.657 969.974 -250.8 979.557 -267.001 980.236C-277.018 980.692 -294.8 982.734 -306.926 984.207V907.258H-245.432C-225.062 907.258 -208.287 901.586 -192.71 907.258C-177.132 912.928 -192.71 907.258 -156.762 907.258C-120.815 907.258 -110.03 897.958 -84.8678 904.763C-59.7038 911.512 -5.78278 906.181 15.7852 906.011C37.3542 905.84 54.1292 894.84 91.2742 906.011C128.419 917.182 157.177 906.634 190.727 909.753C224.28 912.928 230.27 903.969 245.849 911.283C261.425 918.6 278.201 914.346 300.968 917.182C323.734 920.018 321.578 922.171 369.266 933.172C398.839 939.977 403.249 942.757 411.493 944.796Z" fill="#0F4FA0"/>
<path d="M1010.85 936.01C1003.18 937.767 996.716 939.923 988.375 940.829C975.578 942.247 934.024 948.823 920.842 951.206C907.664 953.589 899.273 954.042 887.724 954.042C876.125 954.042 856.138 957.84 846.984 956.423C837.781 955.007 817.794 953.757 811.419 956.707C806.819 958.862 793.494 962.66 781.655 965.495C781.368 965.44 781.081 965.44 780.839 965.384C769.865 963.966 739.524 969.068 729.555 968.161C719.538 967.255 706.356 963.001 693.607 964.928C680.81 966.799 651.669 967.141 642.083 968.161C632.499 969.182 628.471 969.068 605.323 968.161C582.171 967.255 567.793 967.65 557.775 968.161C547.806 968.67 514.253 965.723 501.074 968.161C487.893 970.6 474.329 966.687 459.519 968.161C444.755 969.635 441.161 967.537 425.202 974.228C409.192 980.977 395.246 980.977 389.254 980.977C383.264 980.977 372.862 978.141 362.078 976.27C351.293 974.342 322.536 972.415 316.161 973.151C309.739 973.889 295.359 973.378 287.788 973.151C280.213 972.924 269.813 971.96 261.809 973.151C253.853 974.342 243.068 974.342 230.271 973.151C217.474 972.018 209.085 967.764 197.103 971.506C185.122 975.307 173.953 972.924 158.758 973.151C143.614 973.434 134.794 972.018 125.208 971.506C115.621 971.053 93.6695 969.635 84.4675 969.635C75.3125 969.635 67.3085 964.928 57.3395 966.346C52.4995 967.026 49.6215 966.799 45.6445 966.743C56.2375 963.398 66.1585 960.053 68.1235 959.258C71.7185 957.84 85.6655 959.258 99.2765 959.258C112.841 959.258 119.216 958.294 128.42 956.481C137.622 954.608 146.776 955.913 153.584 956.423C160.388 956.878 197.103 954.495 211.1 950.753C225.094 947.067 235.878 953.077 244.266 950.753C252.655 948.485 285.773 949.335 298.57 950.47C311.369 951.603 318.558 949.335 332.505 950.241C346.501 951.206 361.693 948.372 369.65 947.407C374.442 946.84 394.813 946.443 411.492 944.798C422.613 943.721 432.15 942.021 434.356 939.411C439.963 932.777 441.545 938.447 450.748 933.741C459.952 928.979 464.312 932.323 470.303 928.979C476.293 925.69 491.105 928.526 503.854 932.323C516.651 936.066 551.783 932.777 561.37 928.979C570.954 925.234 577.378 922.854 592.141 916.275C606.903 909.755 609.73 912.93 625.691 909.131C641.653 905.389 648.075 907.713 657.229 905.842C666.431 903.971 693.607 908.678 699.982 908.678C706.356 908.678 714.745 899.717 722.365 894.613C729.939 889.511 743.503 899.717 745.899 901.588C748.295 903.459 764.688 903.971 772.259 906.807C779.881 909.641 784.243 911.965 790.235 911.059C796.224 910.094 800.252 905.389 808.64 899.717C817.027 894.047 823.019 896.883 827.811 895.012C832.603 893.139 838.978 897.79 847.75 903.006C856.568 908.225 853.357 903.971 862.128 903.971C870.949 903.971 869.75 903.971 880.917 900.626C892.083 897.336 893.714 897.336 903.301 895.465C912.888 893.536 921.275 898.299 927.65 902.041C934.024 905.842 937.618 906.295 944.422 908.678C947.06 909.584 950.511 910.491 954.106 911.455H954.154C959.907 912.986 966.041 914.689 969.972 916.729C976.394 920.018 986.746 924.725 991.156 926.652C993.936 927.843 1003.9 932.607 1010.85 936.01Z" fill="#2367BD"/>
<path d="M1362.85 989.196V1046.64C1018.87 1065.98 731.671 1076.96 208.555 1046.64C240.428 1040.23 286.103 1029.91 299.141 1029.91H391.453C400.56 1029.91 417.288 1029.91 432.387 1028.83C440.15 1028.32 447.483 1027.53 453.138 1026.34C469.914 1022.76 514.249 1019.25 527.959 1016.41C541.666 1013.58 596.929 1011.42 614.903 1011.42C632.876 1011.42 655.067 1004.39 662.832 1002.24C670.598 1000.08 710.186 998.722 728.736 1002.92C747.285 1007.23 761.662 1000.82 773.071 999.402C784.479 997.984 803.65 997.984 812.613 996.057C821.576 994.13 842.569 1001.56 855.75 1000.82C868.931 1000.08 890.498 1002.92 909.095 1004.39C927.645 1005.75 928.843 1007.91 942.646 1004.39C956.402 1000.82 976.773 997.984 988.18 997.249C999.538 996.566 1013.92 997.249 1030.69 997.249C1047.47 997.249 1052.88 996.566 1081.02 989.99C1109.15 983.356 1104.98 990.897 1125.93 986.758C1146.92 982.561 1166.67 993.733 1187.09 988.572C1207.41 983.412 1248.77 990.897 1260.13 989.14C1271.54 987.437 1303.27 990.217 1324.26 989.479C1335.91 989.082 1351.34 989.14 1362.85 989.196Z" fill="#002F6B"/>
</g>
<defs>
<linearGradient id="paint0_linear_698_14346" x1="528.364" y1="1956.78" x2="526.973" y2="-1182.25" gradientUnits="userSpaceOnUse">
<stop stop-color="#003872"/>
<stop offset="0.17" stop-color="#003872"/>
<stop offset="0.58" stop-color="#030E20"/>
<stop offset="1" stop-color="#030E20"/>
</linearGradient>
</defs>
</svg>
