<svg width="423" height="1032" viewBox="0 0 423 1032" fill="none" xmlns="http://www.w3.org/2000/svg">
<mask id="mask0_698_14512" style="mask-type:luminance" maskUnits="userSpaceOnUse" x="0" y="0" width="423" height="1032">
<path d="M422.049 0.71875H0.429688V1031.72H422.049V0.71875Z" fill="white"/>
</mask>
<g mask="url(#mask0_698_14512)">
<path d="M1440 1H0V1343H1440V1Z" fill="url(#paint0_linear_698_14512)"/>
<path fill-rule="evenodd" clip-rule="evenodd" d="M1082.25 1035.7C1061.24 1075.65 1019.32 1102.91 971.09 1102.91C923.825 1102.91 882.627 1076.73 861.219 1038.09L-251.805 1001.19V647.807L-243.413 645.995C-243.496 644.197 -243.538 642.387 -243.538 640.569C-243.538 576.338 -191.39 524.191 -127.159 524.191C-106.301 524.191 -86.7157 529.69 -69.7787 539.316C-70.4217 534.365 -70.7537 529.317 -70.7537 524.191C-70.7537 459.96 -18.6067 407.812 45.6243 407.812C109.855 407.812 162.003 459.96 162.003 524.191C162.003 525.486 161.981 526.774 161.939 528.059C182.271 534.23 199.571 547.4 211.03 564.758C252.038 513.569 315.065 480.764 385.693 480.764C502.801 480.764 599.011 570.951 608.599 685.599C622.688 680.121 638.007 677.115 654.023 677.115C703.398 677.115 746.152 705.685 766.641 747.184C776.97 740.486 789.284 736.595 802.501 736.595C838.947 736.595 868.536 766.184 868.536 802.63C868.536 803.995 868.495 805.349 868.413 806.693C893.086 815.799 910.847 839.228 911.586 866.871C929.298 857.307 949.565 851.877 971.09 851.877C1032.75 851.877 1084.08 896.431 1094.62 955.073C1104.41 947.688 1116.58 943.307 1129.77 943.307C1162.02 943.307 1188.19 969.486 1188.19 1001.73C1188.19 1033.98 1162.02 1060.15 1129.77 1060.15C1110.19 1060.15 1092.85 1050.5 1082.25 1035.7Z" fill="white" fill-opacity="0.14"/>
<path d="M213.269 615.75C212.988 616.182 212.856 616.414 212.695 616.623C212.518 616.853 212.314 617.061 211.97 617.45C212.439 617.374 212.718 617.329 212.997 617.284C213.062 617.377 213.126 617.47 213.191 617.563C212.036 618.318 210.882 619.072 209.727 619.827C209.75 619.899 209.774 619.971 209.797 620.043C210.5 619.769 211.203 619.495 211.906 619.221C211.969 619.356 212.033 619.492 212.096 619.627C210.795 620.26 209.494 620.893 208.193 621.526C207.193 622.012 205.997 622.39 206.925 623.912C207 624.035 207.015 624.316 206.933 624.395C206.032 625.263 205.142 626.148 204.175 626.939C203.545 627.455 202.834 627.909 202.092 628.244C200.171 629.113 198.25 630.008 196.256 630.674C195.245 631.012 194.075 630.878 192.988 630.956C193.018 632.515 193.018 632.515 198.714 633.88C199.035 637.763 195.81 639.028 193.362 640.543C191.807 641.506 189.749 640.628 188.176 639.661C186.718 638.764 185.439 637.574 183.894 636.367C184.773 635.758 185.407 635.294 186.066 634.869C187.106 634.198 187.584 633.219 186.815 632.23C185.98 631.156 185.075 631.978 184.291 632.583C184.201 632.653 184.089 632.693 184.101 632.686C182.498 632.357 180.985 632.087 179.496 631.718C178.964 631.586 178.252 631.341 178.034 630.929C177.283 629.512 176.121 629.165 174.675 629.237C174.213 629.26 173.48 628.647 172.256 627.487C172.038 627.281 171.587 627.333 171.253 627.233C170.927 627.136 170.613 626.997 170.316 626.669C172.051 626.763 173.787 626.936 175.522 626.93C177.327 626.923 179.14 626.583 180.933 626.683C182.717 626.781 184.481 627.244 186.603 627.607C186.603 626.74 186.523 625.855 186.632 624.994C186.703 624.439 187.026 623.485 187.282 623.47C187.937 623.431 189.048 623.643 189.216 624.06C190.216 626.545 191.854 626.036 193.575 625.161C195.535 624.165 197.441 623.064 199.388 622.041C200.106 621.663 200.843 621.208 201.621 621.074C205.752 620.359 209.207 618.243 212.596 615.964C212.714 615.884 212.877 615.871 213.269 615.75Z" fill="white"/>
<path d="M395.993 702.243C395.345 702.425 394.844 702.697 394.359 702.671C393.548 702.627 392.747 702.395 391.942 702.24C391.795 702.212 391.649 702.175 391.503 702.142C390.122 701.839 389.586 702.07 389.161 703.366C389 703.858 388.832 704.265 388.433 704.588C388.325 704.674 388.279 704.838 388.171 705.025C389.142 705.689 390.247 705.156 391.23 705.431C391.141 706.06 390.038 706.631 389.442 706.461C388.882 706.302 388.24 706.136 387.701 706.262C386.775 706.478 385.928 706.476 385.075 706.074C384.962 706.02 384.827 706.012 384.667 705.975C384.574 706.126 384.483 706.275 384.377 706.45C384.238 706.039 384.113 705.669 383.991 705.309C383.356 705.239 382.891 705.395 382.477 705.88C382.017 706.418 381.444 706.858 380.925 707.346C380.773 707.49 380.58 707.629 380.504 707.81C380.127 708.715 379.22 708.818 378.363 709.343C378.454 708.847 378.46 708.499 378.585 708.2C378.848 707.569 379.163 706.959 379.476 706.35C380.28 704.789 381.731 704.604 383.264 704.572C383.961 704.558 384.658 704.49 385.354 704.439C386.037 704.39 386.478 704.004 386.646 703.369C386.809 702.751 386.91 702.114 386.989 701.479C387.045 701.029 387.157 700.69 387.676 700.626C390.437 700.284 393.054 700.822 395.583 701.908C395.67 701.945 395.737 702.03 395.993 702.243Z" fill="white"/>
<path d="M157.181 705.812C155.998 706.397 154.703 706.952 153.209 707.024C151.806 707.092 150.378 707.17 149.019 707.492C147.343 707.89 145.723 708.531 144.088 709.095C143.502 709.297 143.244 709.697 143.687 710.266C144.043 710.72 144.422 711.159 144.822 711.575C145.186 711.955 145.269 712.285 144.717 712.517C144.17 712.746 143.607 713.062 143.039 713.092C141.682 713.161 141.643 713.054 141.578 711.696C141.558 711.27 141.442 710.85 141.347 710.293C139.231 710.898 137.25 711.519 135.239 712.021C133.647 712.419 132.413 713.36 131.102 714.263C129.711 715.223 128.027 715.38 126.398 715.443C128.09 714.284 129.763 713.159 131.411 711.998C131.882 711.666 132.311 711.258 132.7 710.832C133.874 709.541 135.278 708.762 137.046 708.622C137.682 708.572 138.315 708.366 138.924 708.159C139.654 707.909 140.1 707.428 140.16 706.58C140.182 706.256 140.473 705.816 140.758 705.689C140.957 705.6 141.35 705.958 141.661 706.108C142.035 706.287 142.426 706.622 142.787 706.594C143.414 706.546 144.11 706.404 144.627 706.069C146.444 704.892 148.362 704.842 150.424 705.146C152.67 705.478 154.947 705.6 157.181 705.812Z" fill="white"/>
<path d="M328.542 691.955C328.151 690.887 327.514 690.56 326.518 690.607C324.611 690.699 322.777 690.442 321.012 689.539C319.974 689.009 318.693 688.978 317.596 688.535C316.476 688.083 315.401 687.47 314.393 686.797C313.647 686.298 313.04 685.588 312.16 684.777C312.629 684.908 312.927 684.911 313.117 685.055C315.402 686.796 318.117 687.047 320.829 687.337C322.695 687.536 324.556 687.779 326.392 688C326.207 687.697 325.94 687.261 325.672 686.821C326.681 686.385 327.519 686.545 328.502 687.206C329.058 687.579 330.212 687.499 330.889 687.181C334.635 685.421 338.682 685.501 342.647 685.074C342.704 685.068 342.768 685.135 343.108 685.323C339.115 687.495 335.3 689.596 330.989 690.634C330.943 690.747 330.897 690.86 330.851 690.972C332.06 691.594 333.269 692.214 334.633 692.915C334.277 693.637 334.064 694.478 333.543 695.026C332.688 695.927 331.597 696.626 330.269 695.951C329.227 695.421 328.205 694.83 327.256 694.151C326.545 693.642 326.702 692.945 327.5 692.525C327.841 692.347 328.175 692.157 328.542 691.955Z" fill="white"/>
<path d="M340.027 721.906C340.993 721.315 341.716 720.874 342.439 720.433C343.738 721.935 343.281 724.843 340.531 725.472C340.235 724.899 339.926 724.303 339.507 723.493C338.818 725.009 337.911 726.152 337.789 727.606C337.746 728.128 338.034 728.67 338.106 729.212C338.189 729.828 338.201 730.453 338.244 731.074C338.16 731.131 338.076 731.189 337.992 731.246C337.79 730.963 337.55 730.699 337.391 730.393C336.699 729.066 335.989 727.745 335.368 726.385C335.003 725.584 335.206 724.876 335.956 724.285C336.382 723.949 336.639 723.4 337.117 722.75C336.494 722.69 336.165 722.658 335.834 722.627C335.727 721.534 335.88 721.373 337.432 721.161C337.329 720.43 337.335 719.66 337.097 718.973C336.699 717.823 336.652 717.282 337.603 716.547C339.083 715.404 340.671 714.401 342.358 713.238C342.495 713.712 342.662 713.965 342.594 714.106C342.232 714.853 341.874 715.616 341.397 716.29C340.767 717.18 339.869 717.887 340.01 719.172C340.099 719.99 340.027 720.825 340.027 721.906Z" fill="white"/>
<path d="M368.715 719.966C370.178 719.698 371.634 719.316 373.109 719.214C373.788 719.166 374.506 719.663 375.205 719.916C375.539 720.036 375.871 720.162 376.248 720.172C376.149 720.117 376.05 720.061 375.912 719.985C376.23 719.508 376.606 719.347 377.093 719.7C377.438 719.95 377.718 719.909 377.995 719.606C378.154 719.432 378.367 719.298 378.494 719.105C379.757 717.181 381.944 716.679 383.789 715.652C383.837 715.625 383.909 715.64 384.05 715.629C383.964 716.249 383.487 716.522 383.106 716.847C382.228 717.599 381.311 718.306 380.45 719.076C379.85 719.612 379.306 720.211 378.761 720.805C378.585 720.996 378.488 721.259 378.354 721.489C378.583 721.62 378.8 721.785 379.045 721.872C379.3 721.961 379.581 721.974 379.864 722.022C379.142 723.757 377.154 724.564 375.951 723.755C376.217 723.347 376.487 722.94 376.748 722.528C376.963 722.188 376.836 721.934 376.489 721.825C375.723 721.585 374.957 721.324 374.171 721.173C372.361 720.826 370.539 720.54 368.722 720.228C368.72 720.141 368.717 720.053 368.715 719.966Z" fill="white"/>
<path d="M261.555 672.534C260.392 671.26 259.622 670.221 258.66 669.41C257.214 668.191 256.396 668.466 255.661 670.208C254.874 672.073 253.206 672.799 251.774 671.453C248.564 668.434 244.679 668.436 240.705 668.172C238.483 668.025 236.303 667.203 234.115 666.642C233.837 666.571 233.626 666.239 233.199 665.866C239.045 666.11 244.537 668.914 250.196 666.743C250.399 666.459 250.603 666.175 250.806 665.891C250.03 665.324 249.254 664.757 248.412 664.142C248.84 662.904 249.676 662.306 251.382 662.776C251.995 662.945 252.909 662.026 253.685 661.603C253.282 661.037 253.002 660.206 252.455 659.953C250.702 659.144 250.34 657.784 250.463 656.072C250.623 653.829 250.737 651.582 250.865 649.438C251.642 650.09 252.727 650.652 253.256 651.543C253.805 652.47 254.031 653.717 254.018 654.82C253.995 656.806 255.274 658.051 256.607 658.823C259.114 660.276 259.658 662.139 258.832 664.694C258.785 664.842 258.844 665.024 258.873 665.527C260.243 664.738 261.451 664.042 262.58 663.392C264.589 665.182 263.885 667.394 263.509 669.396C263.305 670.483 262.283 671.417 261.555 672.534Z" fill="white"/>
<path d="M170.138 672.225C168.762 674.538 166.529 674.267 165.444 673.945C161.323 672.722 158.872 675.228 155.616 677.392C157.354 678.191 158.732 678.824 160.104 679.454C158.976 683.184 154.398 684.701 151.082 681.64C151.598 680.674 152.128 679.683 152.629 678.744C147.412 677.614 144.386 681.175 140.808 684.136C140.769 683.508 140.631 683.145 140.75 682.916C142.136 680.241 143.494 677.548 145.004 674.944C145.653 673.825 146.826 673.68 148.101 673.976C149.06 674.198 150.074 674.18 151.58 674.315C151.016 673.27 150.738 672.755 150.448 672.217C151.932 670.994 152.207 671.029 154.133 673.048C155.068 672.194 156.299 671.488 156.901 670.425C157.877 668.705 159.254 668.263 160.858 668.782C163.931 669.778 166.926 671.017 170.138 672.225Z" fill="white"/>
<path d="M175.395 704.456C181.324 704.33 185.786 706.482 187.933 712.249C189.497 710.187 190.041 710.17 191.439 712.069C193.657 709.414 194.072 705.44 197.637 703.866C200.803 702.468 204.027 701.382 207.491 701.188C207.579 701.353 207.666 701.519 207.753 701.685C205.392 703.085 203.096 704.61 200.656 705.855C196.375 708.041 194.531 711.895 193.204 716.16C192.906 717.12 193.447 717.603 194.337 717.685C195.427 717.786 196.524 717.802 197.895 717.868C196.763 720.153 195.24 721.955 192.973 722.546C189.768 723.382 187.529 721.164 184.892 719.24C186.306 718.894 187.398 718.625 188.51 718.353C187.992 712.567 184.503 709.373 179.489 707.288C177.991 706.665 176.752 705.417 175.395 704.456Z" fill="white"/>
<path d="M273.386 704.894C275.438 707.425 277.453 704.737 279.775 705.67C279.519 706.98 279.402 708.472 278.878 709.804C278.67 710.333 277.585 710.577 276.856 710.824C276.272 711.021 275.624 711.095 275.004 711.1C273.648 711.111 272.29 711.044 270.65 711.001C271.138 709.783 271.432 709.049 271.7 708.38C269.207 705.527 265.913 704.103 262.598 702.709C259.326 701.333 256.055 699.954 252.918 698.251C255.385 698.808 257.879 699.266 260.31 699.95C262.737 700.634 265.101 701.543 267.677 702.416C267.225 702.022 266.85 701.695 266.458 701.352C267.71 700.334 268.887 700.108 270.041 701.678C270.722 702.605 271.526 702.672 272.273 701.612C272.945 700.66 273.656 699.729 274.423 698.853C275.225 697.936 275.967 696.823 276.991 696.269C281.676 693.733 286.451 691.365 291.268 689.062C289.555 691.477 287.474 693.355 284.821 694.703C283.253 695.499 281.89 696.769 280.573 697.976C278.153 700.195 275.835 702.525 273.386 704.894Z" fill="white"/>
<path d="M298.624 751.038C297.494 754.275 293.054 754.75 290.011 751.938C290.587 751.623 291.18 751.366 291.699 751.003C292.425 750.495 292.387 749.844 292.251 748.964C291.85 746.363 289.712 746.218 287.902 745.492C287.437 745.305 287.132 744.692 286.783 744.249C286.507 743.897 286.276 743.509 285.965 743.048C286.335 743.064 286.775 743.047 287.204 743.111C287.701 743.185 288.204 743.475 288.676 743.422C290.662 743.196 291.752 744.152 292.223 745.991H293.885C293.988 745.461 294.087 744.929 294.196 744.4C294.571 742.58 294.969 742.143 296.769 741.931C298.369 741.742 299.984 741.677 301.507 741.562C301.063 742.605 300.402 743.328 299.06 743.909C297.238 744.698 295.654 746.287 295 748.387C294.741 749.22 295.113 749.949 295.968 750.258C296.834 750.57 297.736 750.781 298.624 751.038Z" fill="white"/>
<path d="M346.126 753.506C345.548 754.174 344.969 754.841 344.4 755.498C344.17 755.325 344.109 755.303 344.088 755.26C343.923 754.929 343.766 754.592 343.606 754.258C343.303 754.505 342.968 754.723 342.704 755.006C342.1 755.649 341.46 756.277 340.976 757.007C340.75 757.348 340.821 757.908 340.814 758.369C340.795 759.556 340.807 760.743 340.807 761.931C340.705 761.945 340.603 761.959 340.501 761.974C340.327 761.44 340.104 760.916 339.99 760.37C339.693 758.946 339.418 757.516 339.186 756.08C339.078 755.414 339.363 754.922 340.042 754.657C340.392 754.519 340.746 754.298 340.999 754.023C341.427 753.557 341.973 753.111 341.412 752.321C341.162 751.97 341.454 751.623 341.928 751.683C342.92 751.808 343.525 751.507 343.671 750.52C343.82 749.522 344.382 749.112 345.254 749.11C347.001 749.106 348.749 749.192 350.496 749.356C349.674 749.953 348.799 750.146 347.834 750.118C347.409 750.106 346.863 750.239 346.57 750.515C345.768 751.272 345.073 752.138 344.22 753.09C344.9 753.155 345.427 753.206 345.954 753.256C346.011 753.339 346.069 753.423 346.126 753.506Z" fill="white"/>
<path d="M313.602 729.282C313.685 728.836 313.853 728.38 313.821 727.938C313.801 727.657 313.484 727.398 313.3 727.129C313.069 727.29 312.776 727.404 312.619 727.619C311.82 728.708 310.837 729.284 309.419 729.285C308.654 729.286 307.894 729.751 307.119 729.959C306.843 730.034 306.529 729.971 306.102 729.971C307.114 729.064 307.944 728.251 308.847 727.53C309.745 726.81 310.717 726.182 311.722 725.468C311.539 725.248 311.276 725.01 311.118 724.715C310.969 724.437 310.93 724.098 310.842 723.786C311.186 723.694 311.614 723.426 311.857 723.542C312.677 723.937 313.072 723.607 313.368 722.898C313.815 721.827 314.233 720.741 314.734 719.696C315.098 718.941 315.637 718.269 315.995 717.511C316.601 716.224 317.126 714.901 317.697 713.562C318.508 714.594 317.961 715.655 317.745 716.664C317.624 717.233 317.307 717.631 317.892 718.207C318.167 718.478 318.087 719.292 317.931 719.785C317.381 721.526 316.999 723.382 315.344 724.534C315.232 724.612 315.192 724.792 315.08 724.996C316.334 725.624 316.98 724.378 317.981 724.23C318.745 725.018 318.85 726.837 318.143 728.132C317.533 729.25 315.588 729.755 313.602 729.282Z" fill="white"/>
<path d="M115.135 664.583C115.732 667.769 114.17 669.493 111.439 668.59C110.979 668.437 110.287 668.078 110.239 667.739C110.004 666.092 108.822 666.085 107.644 666.066C104.143 666.007 101.351 664.591 99.1953 661.299C100.184 661.057 101.262 660.485 102.247 660.615C104.344 660.893 106.33 659.593 106.561 657.429C106.592 657.14 106.569 656.846 106.561 656.554C106.491 653.967 106.902 653.331 109.403 652.967C113.961 652.305 118.424 653.196 123.062 653.888C121.829 655.772 120.173 656.398 118.235 656.502C116.683 656.584 115.125 656.619 113.583 656.789C113.126 656.839 112.518 657.171 112.31 657.553C111.395 659.231 110.513 660.941 109.837 662.722C109.698 663.087 110.415 664.194 110.876 664.29C112.211 664.568 113.617 664.505 115.135 664.583Z" fill="white"/>
<path d="M207.688 667.692C205.865 668.283 204.542 669.959 202.222 669.549C200.602 669.263 199.14 670.658 198.674 672.274C198.402 673.215 198.049 674.153 197.59 675.016C196.748 676.6 196.928 677.057 198.675 677.279C199.021 677.323 199.375 677.308 199.724 677.334C200.068 677.359 200.412 677.401 200.755 677.435C200.558 680.116 198.409 682.062 195.524 681.896C195.488 681.858 195.418 681.82 195.412 681.773C195.016 678.473 195.047 678.551 191.906 679.786C189.449 680.751 187.62 681.975 187.057 684.889C186.762 686.418 185.411 687.742 184.334 689.056C183.971 685.121 184.742 681.467 186.439 678.034C186.681 677.544 187.513 677.248 188.132 677.065C188.961 676.819 189.881 676.871 190.702 676.608C191.516 676.347 192.161 675.876 191.589 674.772C191.392 674.391 191.619 673.791 191.658 673.199C193.729 674.046 194.631 673.472 194.967 671.38C195.54 667.804 195.569 667.662 199.241 667.195C201.598 666.895 203.999 666.929 206.381 666.852C206.801 666.838 207.227 667.019 207.65 667.11C207.663 667.304 207.675 667.498 207.688 667.692Z" fill="white"/>
<path d="M141.821 607.066C139.904 607.089 138.144 608.298 136.05 607.218C134.588 606.464 132.778 607.363 131.853 608.768C131.314 609.586 130.699 610.377 130.005 611.065C128.731 612.328 128.767 612.817 130.37 613.548C130.687 613.692 131.029 613.783 131.355 613.911C131.676 614.037 131.992 614.179 132.31 614.314C131.326 616.816 128.697 618.036 125.991 617.022C125.968 616.975 125.912 616.918 125.92 616.871C126.521 613.603 126.527 613.686 123.162 613.934C120.529 614.127 118.419 614.753 117.017 617.369C116.282 618.741 114.599 619.605 113.18 620.541C114.001 616.675 115.821 613.414 118.46 610.639C118.837 610.243 119.719 610.207 120.365 610.216C121.229 610.227 122.092 610.549 122.954 610.542C123.809 610.534 124.565 610.276 124.346 609.052C124.271 608.629 124.666 608.124 124.879 607.57C126.605 608.993 127.637 608.712 128.578 606.814C130.186 603.569 130.256 603.442 133.901 604.085C136.241 604.498 138.524 605.243 140.822 605.876C141.227 605.987 141.58 606.286 141.957 606.499C141.912 606.688 141.866 606.877 141.821 607.066Z" fill="white"/>
<path d="M235.01 723.998C235.815 723.22 236.749 722.585 237.311 721.71C238.123 720.445 239.201 719.829 240.535 720.255C243.267 721.127 245.929 722.217 248.844 723.301C247.54 725.168 245.808 725.096 244.702 724.794C241.212 723.838 238.993 725.742 236.309 727.817C237.727 728.477 238.897 729.021 240.071 729.567C239.035 732.349 236.264 733.664 233.829 732.523C232.672 731.981 231.892 731.409 233.068 730.116C233.35 729.806 233.41 729.292 233.764 728.372C231.54 728.943 229.56 729.128 227.911 729.964C226.3 730.78 225.025 732.26 223.603 733.449C223.464 733.377 223.325 733.306 223.188 733.234C223.456 732.413 223.645 731.554 224.012 730.78C224.608 729.521 225.333 728.324 225.98 727.089C226.952 725.237 228.218 724.153 230.484 725.015C231.007 725.214 231.702 724.961 232.536 724.9C232.253 724.228 232.066 723.783 231.865 723.307C231.989 722.503 233.207 722.416 234.158 723.19C234.376 723.367 234.568 723.576 235.01 723.998Z" fill="white"/>
<path d="M372.746 740.197C370.997 741.193 369.321 742.256 368.878 744.57C369.89 744.751 371.017 744.951 372.259 745.173C371.971 745.665 371.642 746.229 371.235 746.927C370.366 745.942 369.397 745.697 368.264 745.855C368.585 746.191 368.903 746.524 369.208 746.843C367.756 748.256 366.366 749.608 364.891 751.045C364.786 749.903 364.477 748.757 364.901 747.616C365.03 747.268 365.397 746.983 365.707 746.734C365.981 746.513 366.364 746.426 366.632 746.2C366.837 746.027 367.02 745.738 367.049 745.482C367.062 745.365 366.681 745.204 366.408 745.013C366.681 744.805 367.085 744.627 367.272 744.317C367.469 743.993 367.574 743.526 367.516 743.152C367.34 741.998 367.416 741.694 368.45 741.186C369.36 740.738 370.292 740.314 371.252 739.99C371.683 739.844 372.205 739.965 372.685 739.965C372.706 740.042 372.726 740.119 372.746 740.197Z" fill="white"/>
<path fill-rule="evenodd" clip-rule="evenodd" d="M357.843 967.549C351.522 979.565 338.914 987.766 324.405 987.766C310.187 987.766 297.794 979.89 291.355 968.267L-43.457 957.166V850.865L-40.933 850.32C-40.958 849.779 -40.97 849.235 -40.97 848.688C-40.97 829.366 -25.284 813.68 -5.96203 813.68C0.311974 813.68 6.20397 815.334 11.299 818.23C11.105 816.74 11.005 815.222 11.005 813.68C11.005 794.358 26.692 778.672 46.013 778.672C65.335 778.672 81.022 794.358 81.022 813.68C81.022 814.069 81.015 814.457 81.002 814.843C87.119 816.7 92.323 820.661 95.77 825.883C108.105 810.484 127.065 800.617 148.311 800.617C183.538 800.617 212.479 827.746 215.363 862.233C219.601 860.585 224.21 859.681 229.027 859.681C243.88 859.681 256.741 868.276 262.904 880.759C266.011 878.744 269.716 877.574 273.691 877.574C284.655 877.574 293.556 886.474 293.556 897.438C293.556 897.848 293.543 898.256 293.519 898.66C300.941 901.399 306.283 908.447 306.506 916.763C311.834 913.886 317.93 912.252 324.405 912.252C342.953 912.252 358.394 925.654 361.566 943.294C364.509 941.073 368.171 939.755 372.139 939.755C381.838 939.755 389.713 947.63 389.713 957.33C389.713 967.03 381.838 974.904 372.139 974.904C366.249 974.904 361.033 972.001 357.843 967.549Z" fill="white"/>
<path fill-rule="evenodd" clip-rule="evenodd" d="M174.201 976.106C169.99 984.111 161.59 989.575 151.924 989.575C142.452 989.575 134.196 984.328 129.906 976.584L-93.1523 969.189V898.369L-91.4703 898.006C-91.4863 897.646 -91.4953 897.283 -91.4953 896.919C-91.4953 884.046 -81.0443 873.596 -68.1723 873.596C-63.9923 873.596 -60.0673 874.698 -56.6723 876.627C-56.8013 875.635 -56.8683 874.623 -56.8683 873.596C-56.8683 860.723 -46.4173 850.273 -33.5453 850.273C-20.6733 850.273 -10.2223 860.723 -10.2223 873.596C-10.2223 873.855 -10.2263 874.114 -10.2353 874.371C-6.16035 875.608 -2.69334 878.247 -0.396339 881.726C7.82166 871.467 20.4527 864.893 34.6067 864.893C58.0757 864.893 77.3567 882.967 79.2787 905.943C82.1017 904.845 85.1716 904.243 88.3817 904.243C98.2767 904.243 106.845 909.968 110.951 918.285C113.021 916.942 115.489 916.163 118.138 916.163C125.442 916.163 131.372 922.093 131.372 929.397C131.372 929.67 131.364 929.942 131.347 930.211C136.292 932.036 139.851 936.731 139.999 942.271C143.549 940.354 147.611 939.266 151.924 939.266C164.281 939.266 174.568 948.195 176.681 959.947C178.642 958.467 181.082 957.589 183.725 957.589C190.187 957.589 195.434 962.836 195.434 969.298C195.434 975.76 190.187 981.006 183.725 981.006C179.802 981.006 176.326 979.072 174.201 976.106Z" fill="#F5F5F5"/>
<path d="M624.855 1077.84C609.758 1078.92 593.03 1078.92 583.924 1078.92H491.611C478.573 1078.92 432.897 1089.24 401.025 1095.65C90.086 1095.65 32.4411 1117.36 -114.461 1108.44V1033.21C-102.335 1031.74 -84.5529 1029.7 -74.5359 1029.24C-58.3349 1028.56 -36.1919 1018.98 -23.2989 1023.23C-10.4059 1027.48 23.7201 1026.63 36.6141 1028.51C49.5061 1030.32 78.5521 1030.72 88.7121 1030.72C97.0521 1030.72 125.043 1028.51 142.25 1028.34H142.395C146.229 1028.28 149.537 1028.34 151.932 1028.51C165.114 1029.53 170.289 1028.56 189.462 1030.94C208.633 1033.27 224.643 1035.82 238.589 1034.8C252.585 1033.78 264.185 1034.4 278.946 1034.8C293.708 1035.2 332.053 1042.74 355.634 1040.36C379.215 1038.03 404.763 1042.23 419.14 1040.81C433.52 1039.45 470.282 1045.12 475.074 1047.45C479.869 1049.83 495.828 1055.95 504.6 1056.46C513.419 1056.92 537.385 1057.88 550.134 1061.62C562.931 1065.42 582.917 1068.71 590.489 1069.67C595.379 1070.3 611.147 1075.06 624.855 1077.84Z" fill="#8BC926"/>
<path d="M1555.32 1018.29V1038.2C1543.82 1038.14 1528.38 1038.09 1516.73 1038.48C1495.74 1039.22 1464.01 1036.44 1452.6 1038.14C1441.25 1039.9 1399.88 1032.41 1379.56 1037.57C1359.14 1042.73 1339.39 1031.56 1318.4 1035.76C1297.45 1039.9 1301.62 1032.36 1273.49 1038.99C1245.35 1045.57 1239.94 1046.25 1223.16 1046.25C1206.39 1046.25 1192.01 1045.57 1180.65 1046.25C1169.24 1046.99 1148.87 1049.82 1135.12 1053.4C1121.31 1056.91 1120.12 1054.76 1101.57 1053.4C1082.97 1051.92 1061.4 1049.09 1048.22 1049.82C1035.04 1050.56 1014.05 1043.13 1005.08 1045.06C996.12 1046.99 976.949 1046.99 965.541 1048.4C954.134 1049.82 939.755 1056.23 921.206 1051.92C902.658 1047.72 863.068 1049.09 855.302 1051.24C847.537 1053.4 825.347 1060.43 807.373 1060.43C789.399 1060.43 734.135 1062.58 720.429 1065.42C706.719 1068.25 662.385 1071.77 645.61 1075.34C639.956 1076.53 632.62 1077.32 624.857 1077.84C611.148 1075.06 595.38 1070.29 590.492 1069.67C582.918 1068.71 562.931 1065.42 550.134 1061.62C537.385 1057.87 513.419 1056.91 504.6 1056.46C495.83 1055.95 479.869 1049.82 475.076 1047.44C470.282 1045.12 433.522 1039.44 419.142 1040.81C404.763 1042.23 379.217 1038.03 355.634 1040.35C332.053 1042.73 293.71 1035.19 278.946 1034.8C264.185 1034.4 252.586 1033.78 238.589 1034.8C224.643 1035.82 208.633 1033.26 189.462 1030.94C170.291 1028.56 165.114 1029.52 151.932 1028.5C149.537 1028.33 146.229 1028.27 142.395 1028.33C154.138 1025.67 167.511 1023.23 179.108 1020.51C199.479 1015.8 198.281 1019.09 218.22 1016.76C228.476 1015.52 233.892 1015.57 238.063 1015.74H238.111C242.088 1015.8 244.966 1016.03 249.806 1015.35C259.775 1013.93 267.78 1018.64 276.934 1018.64C286.136 1018.64 308.087 1020.05 317.674 1020.51C327.261 1021.02 336.08 1022.43 351.224 1022.15C366.419 1021.92 377.586 1024.31 389.569 1020.51C401.551 1016.76 409.938 1021.02 422.737 1022.15C435.534 1023.34 446.318 1023.34 454.275 1022.15C462.279 1020.96 472.679 1021.92 480.252 1022.15C487.826 1022.38 502.205 1022.89 508.627 1022.15C515.002 1021.41 543.759 1023.34 554.544 1025.27C565.328 1027.14 575.728 1029.98 581.72 1029.98C587.712 1029.98 601.658 1029.98 617.668 1023.23C633.627 1016.54 637.221 1018.64 651.985 1017.16C666.795 1015.69 680.359 1019.6 693.54 1017.16C706.719 1014.72 740.272 1017.67 750.242 1017.16C760.258 1016.65 774.637 1016.25 797.787 1017.16C820.937 1018.07 824.964 1018.18 834.549 1017.16C844.135 1016.14 873.276 1015.8 886.073 1013.93C898.822 1012 912.004 1016.25 922.021 1017.16C931.99 1018.07 962.331 1012.96 973.306 1014.38C973.546 1014.44 973.835 1014.44 974.121 1014.5C985.481 1015.63 1009.3 1012 1019.46 1011.15C1029.86 1010.3 1069.41 1016.76 1076.16 1012.4C1082.97 1008.09 1098.93 1016.25 1116.9 1017.84C1134.88 1019.37 1148.06 1020.51 1158.08 1017.84C1168.05 1015.12 1216.36 1017.67 1222.35 1017.84C1228.34 1017.95 1253.12 1020.51 1262.32 1020.51C1271.48 1020.51 1299.04 1020.51 1313.41 1020.05C1327.8 1019.6 1369.73 1014.83 1383.35 1012.96C1396.91 1011.09 1400.89 1014.38 1417.66 1017.44C1434.44 1020.45 1454.04 1019.09 1470.38 1020.34C1486.78 1021.58 1485.96 1020.51 1501.97 1022.43C1517.93 1024.31 1524.74 1022.89 1533.51 1019.09C1539.45 1016.54 1549.52 1017.44 1555.32 1018.29Z" fill="#D4EA8E"/>
<path d="M603.958 993.796C587.279 995.441 566.908 995.838 562.116 996.405C554.159 997.37 538.965 1000.2 524.971 999.241C511.024 998.333 503.833 1000.6 491.036 999.468C478.239 998.333 445.119 997.483 436.731 999.751C428.344 1002.07 417.56 996.065 403.563 999.751C389.569 1003.49 352.854 1005.88 346.047 1005.42C339.243 1004.91 330.088 1003.61 320.884 1005.48C311.682 1007.29 305.307 1008.26 291.743 1008.26C278.131 1008.26 264.185 1006.84 260.59 1008.26C258.623 1009.05 248.704 1012.4 238.111 1015.74H238.063C233.892 1015.57 228.476 1015.51 218.22 1016.76C198.281 1019.09 199.479 1015.8 179.108 1020.5C167.509 1023.23 154.138 1025.66 142.395 1028.33H142.25C125.043 1028.5 97.0521 1030.71 88.7131 1030.71C78.5521 1030.71 49.5061 1030.32 36.6141 1028.5C23.7201 1026.63 -10.4059 1027.48 -23.2989 1023.23C-36.1919 1018.97 -58.3349 1028.56 -74.5359 1029.24C-84.5529 1029.69 -102.335 1031.73 -114.461 1033.21V956.258H-52.9669C-32.5969 956.258 -15.8219 950.586 -0.244942 956.258C15.3331 961.928 -0.244934 956.258 35.7031 956.258C71.6501 956.258 82.4351 946.958 107.597 953.763C132.761 960.512 186.682 955.181 208.25 955.011C229.819 954.84 246.594 943.84 283.739 955.011C320.884 966.182 349.642 955.634 383.192 958.753C416.745 961.928 422.735 952.969 438.314 960.283C453.89 967.6 470.666 963.346 493.433 966.182C516.199 969.018 514.043 971.171 561.731 982.172C591.304 988.977 595.714 991.757 603.958 993.796Z" fill="#D4EA8E"/>
<path d="M1203.32 985.01C1195.65 986.767 1189.18 988.923 1180.84 989.829C1168.04 991.247 1126.49 997.823 1113.31 1000.21C1100.13 1002.59 1091.74 1003.04 1080.19 1003.04C1068.59 1003.04 1048.6 1006.84 1039.45 1005.42C1030.24 1004.01 1010.26 1002.76 1003.88 1005.71C999.283 1007.86 985.958 1011.66 974.119 1014.49C973.832 1014.44 973.546 1014.44 973.304 1014.38C962.329 1012.97 931.988 1018.07 922.019 1017.16C912.002 1016.25 898.82 1012 886.071 1013.93C873.274 1015.8 844.133 1016.14 834.547 1017.16C824.963 1018.18 820.935 1018.07 797.787 1017.16C774.635 1016.25 760.257 1016.65 750.239 1017.16C740.27 1017.67 706.717 1014.72 693.538 1017.16C680.357 1019.6 666.793 1015.69 651.983 1017.16C637.219 1018.63 633.625 1016.54 617.666 1023.23C601.656 1029.98 587.71 1029.98 581.718 1029.98C575.728 1029.98 565.326 1027.14 554.542 1025.27C543.757 1023.34 515 1021.41 508.625 1022.15C502.203 1022.89 487.823 1022.38 480.252 1022.15C472.677 1021.92 462.277 1020.96 454.273 1022.15C446.317 1023.34 435.532 1023.34 422.735 1022.15C409.938 1021.02 401.549 1016.76 389.567 1020.51C377.586 1024.31 366.417 1021.92 351.222 1022.15C336.078 1022.43 327.258 1021.02 317.672 1020.51C308.085 1020.05 286.134 1018.63 276.932 1018.63C267.777 1018.63 259.773 1013.93 249.804 1015.35C244.964 1016.03 242.086 1015.8 238.109 1015.74C248.702 1012.4 258.623 1009.05 260.588 1008.26C264.183 1006.84 278.13 1008.26 291.741 1008.26C305.305 1008.26 311.68 1007.29 320.884 1005.48C330.086 1003.61 339.24 1004.91 346.048 1005.42C352.852 1005.88 389.567 1003.49 403.564 999.753C417.558 996.067 428.342 1002.08 436.73 999.753C445.119 997.485 478.237 998.335 491.034 999.47C503.833 1000.6 511.022 998.335 524.969 999.241C538.965 1000.21 554.157 997.372 562.114 996.407C566.906 995.84 587.277 995.443 603.956 993.798C615.077 992.721 624.614 991.021 626.82 988.411C632.427 981.777 634.009 987.447 643.212 982.741C652.416 977.979 656.776 981.323 662.767 977.979C668.757 974.69 683.569 977.526 696.318 981.323C709.115 985.066 744.248 981.777 753.835 977.979C763.419 974.234 769.843 971.854 784.605 965.275C799.367 958.755 802.194 961.93 818.155 958.131C834.117 954.389 840.539 956.713 849.693 954.842C858.895 952.971 886.071 957.678 892.446 957.678C898.82 957.678 907.21 948.717 914.83 943.613C922.404 938.511 935.967 948.717 938.363 950.588C940.759 952.459 957.152 952.971 964.723 955.807C972.345 958.641 976.708 960.965 982.7 960.059C988.689 959.094 992.716 954.389 1001.1 948.717C1009.49 943.047 1015.48 945.883 1020.27 944.012C1025.07 942.139 1031.44 946.79 1040.21 952.006C1049.03 957.225 1045.82 952.971 1054.59 952.971C1063.41 952.971 1062.21 952.971 1073.38 949.626C1084.55 946.336 1086.18 946.336 1095.76 944.465C1105.35 942.536 1113.74 947.299 1120.11 951.041C1126.49 954.842 1130.08 955.295 1136.89 957.678C1139.52 958.584 1142.97 959.491 1146.57 960.455H1146.62C1152.37 961.986 1158.5 963.689 1162.43 965.729C1168.86 969.018 1179.21 973.725 1183.62 975.652C1186.4 976.843 1196.37 981.607 1203.32 985.01Z" fill="#C3E15F"/>
<path d="M1555.31 1038.2V1095.64C1211.34 1114.98 924.136 1125.96 401.02 1095.64C432.893 1089.23 478.568 1078.91 491.606 1078.91H583.918C593.025 1078.91 609.753 1078.91 624.852 1077.83C632.615 1077.32 639.948 1076.53 645.603 1075.34C662.379 1071.76 706.714 1068.25 720.424 1065.41C734.131 1062.58 789.394 1060.42 807.368 1060.42C825.341 1060.42 847.531 1053.39 855.297 1051.24C863.062 1049.08 902.651 1047.72 921.201 1051.92C939.75 1056.23 954.127 1049.82 965.536 1048.4C976.944 1046.98 996.115 1046.98 1005.08 1045.06C1014.04 1043.13 1035.03 1050.56 1048.21 1049.82C1061.39 1049.08 1082.96 1051.92 1101.56 1053.39C1120.11 1054.75 1121.31 1056.91 1135.11 1053.39C1148.87 1049.82 1169.24 1046.98 1180.64 1046.25C1192 1045.57 1206.38 1046.25 1223.16 1046.25C1239.93 1046.25 1245.35 1045.57 1273.48 1038.99C1301.62 1032.36 1297.45 1039.9 1318.39 1035.76C1339.39 1031.56 1359.13 1042.73 1379.55 1037.57C1399.87 1032.41 1441.24 1039.9 1452.6 1038.14C1464 1036.44 1495.73 1039.22 1516.73 1038.48C1528.37 1038.08 1543.81 1038.14 1555.31 1038.2Z" fill="#99D938"/>
</g>
<defs>
<linearGradient id="paint0_linear_698_14512" x1="720" y1="1.0002" x2="720" y2="824.024" gradientUnits="userSpaceOnUse">
<stop stop-color="#ADD4E5"/>
<stop offset="1" stop-color="#F0F7FA"/>
</linearGradient>
</defs>
</svg>
