<svg width="423" height="1032" viewBox="0 0 423 1032" fill="none" xmlns="http://www.w3.org/2000/svg">
<g clip-path="url(#clip0_698_14512)">
<mask id="mask0_698_14512" style="mask-type:luminance" maskUnits="userSpaceOnUse" x="0" y="0" width="423" height="1032">
<path d="M422.049 0.71875H0.429688V1031.72H422.049V0.71875Z" fill="white"/>
</mask>
<g mask="url(#mask0_698_14512)">
<path d="M1440.43 0.71875H0.429688V1024.72H1440.43V0.71875Z" fill="url(#paint0_linear_698_14512)"/>
<path fill-rule="evenodd" clip-rule="evenodd" d="M1082.25 717.422C1061.24 757.365 1019.32 784.628 971.09 784.628C923.825 784.628 882.627 758.446 861.219 719.806L-251.805 682.905V329.526L-243.413 327.713C-243.496 325.915 -243.538 324.106 -243.538 322.288C-243.538 258.057 -191.39 205.909 -127.159 205.909C-106.301 205.909 -86.7157 211.409 -69.7787 221.035C-70.4217 216.084 -70.7537 211.035 -70.7537 205.909C-70.7537 141.678 -18.6067 89.5312 45.6243 89.5312C109.855 89.5312 162.003 141.678 162.003 205.909C162.003 207.204 161.981 208.493 161.939 209.778C182.271 215.949 199.571 229.118 211.03 246.476C252.038 195.287 315.065 162.483 385.693 162.483C502.801 162.483 599.011 252.669 608.599 367.317C622.688 361.839 638.007 358.833 654.023 358.833C703.398 358.833 746.152 387.404 766.641 428.902C776.97 422.204 789.284 418.313 802.501 418.313C838.947 418.313 868.536 447.902 868.536 484.349C868.536 485.713 868.495 487.067 868.413 488.411C893.086 497.518 910.847 520.947 911.586 548.59C929.298 539.026 949.565 533.596 971.09 533.596C1032.75 533.596 1084.08 578.149 1094.62 636.791C1104.41 629.406 1116.58 625.026 1129.77 625.026C1162.02 625.026 1188.19 651.205 1188.19 683.449C1188.19 715.694 1162.02 741.873 1129.77 741.873C1110.19 741.873 1092.85 732.222 1082.25 717.422Z" fill="white" fill-opacity="0.14"/>
<path d="M213.269 297.469C212.988 297.901 212.856 298.133 212.695 298.342C212.518 298.572 212.314 298.78 211.97 299.169C212.439 299.093 212.718 299.048 212.997 299.003C213.062 299.096 213.126 299.189 213.191 299.282C212.036 300.037 210.882 300.791 209.727 301.546C209.75 301.618 209.774 301.69 209.797 301.762C210.5 301.488 211.203 301.214 211.906 300.94C211.969 301.075 212.033 301.211 212.096 301.346C210.795 301.979 209.494 302.612 208.193 303.245C207.193 303.731 205.997 304.109 206.925 305.631C207 305.754 207.015 306.035 206.933 306.114C206.032 306.982 205.142 307.867 204.175 308.658C203.545 309.174 202.834 309.628 202.092 309.963C200.171 310.832 198.25 311.727 196.256 312.393C195.245 312.731 194.075 312.597 192.988 312.675C193.018 314.234 193.018 314.234 198.714 315.599C199.035 319.482 195.81 320.747 193.362 322.262C191.807 323.225 189.749 322.347 188.176 321.38C186.718 320.483 185.439 319.293 183.894 318.086C184.773 317.477 185.407 317.013 186.066 316.588C187.106 315.917 187.584 314.938 186.815 313.949C185.98 312.875 185.075 313.697 184.291 314.302C184.201 314.372 184.089 314.412 184.101 314.405C182.498 314.076 180.985 313.806 179.496 313.437C178.964 313.305 178.252 313.06 178.034 312.648C177.283 311.231 176.121 310.884 174.675 310.956C174.213 310.979 173.48 310.366 172.256 309.206C172.038 309 171.587 309.052 171.253 308.952C170.927 308.855 170.613 308.716 170.316 308.388C172.051 308.482 173.787 308.655 175.522 308.649C177.327 308.642 179.14 308.302 180.933 308.402C182.717 308.5 184.481 308.963 186.603 309.326C186.603 308.459 186.523 307.574 186.632 306.713C186.703 306.158 187.026 305.204 187.282 305.189C187.937 305.15 189.048 305.362 189.216 305.779C190.216 308.264 191.854 307.755 193.575 306.88C195.535 305.884 197.441 304.783 199.388 303.76C200.106 303.382 200.843 302.927 201.621 302.793C205.752 302.078 209.207 299.962 212.596 297.683C212.714 297.603 212.877 297.59 213.269 297.469Z" fill="white"/>
<path d="M395.993 383.961C395.345 384.143 394.844 384.415 394.359 384.389C393.548 384.345 392.747 384.113 391.942 383.958C391.795 383.93 391.649 383.893 391.503 383.86C390.122 383.557 389.586 383.788 389.161 385.084C389 385.576 388.832 385.983 388.433 386.306C388.325 386.392 388.279 386.556 388.171 386.743C389.142 387.407 390.247 386.874 391.23 387.149C391.141 387.778 390.038 388.349 389.442 388.179C388.882 388.02 388.24 387.854 387.701 387.98C386.775 388.196 385.928 388.194 385.075 387.792C384.962 387.738 384.827 387.73 384.667 387.693C384.574 387.844 384.483 387.993 384.377 388.168C384.238 387.757 384.113 387.387 383.991 387.027C383.356 386.957 382.891 387.113 382.477 387.598C382.017 388.136 381.444 388.576 380.925 389.064C380.773 389.208 380.58 389.347 380.504 389.528C380.127 390.433 379.22 390.536 378.363 391.061C378.454 390.565 378.46 390.217 378.585 389.918C378.848 389.287 379.163 388.677 379.476 388.068C380.28 386.507 381.731 386.322 383.264 386.29C383.961 386.276 384.658 386.208 385.354 386.157C386.037 386.108 386.478 385.722 386.646 385.087C386.809 384.469 386.91 383.832 386.989 383.197C387.045 382.747 387.157 382.408 387.676 382.344C390.437 382.002 393.054 382.54 395.583 383.626C395.67 383.663 395.737 383.748 395.993 383.961Z" fill="white"/>
<path d="M157.181 387.531C155.998 388.116 154.703 388.671 153.209 388.743C151.806 388.811 150.378 388.889 149.019 389.211C147.343 389.609 145.723 390.25 144.088 390.814C143.502 391.016 143.244 391.416 143.687 391.985C144.043 392.439 144.422 392.878 144.822 393.294C145.186 393.674 145.269 394.004 144.717 394.236C144.17 394.465 143.607 394.781 143.039 394.811C141.682 394.88 141.643 394.773 141.578 393.415C141.558 392.989 141.442 392.569 141.347 392.012C139.231 392.617 137.25 393.238 135.239 393.74C133.647 394.138 132.413 395.079 131.102 395.982C129.711 396.942 128.027 397.099 126.398 397.162C128.09 396.003 129.763 394.878 131.411 393.717C131.882 393.385 132.311 392.977 132.7 392.551C133.874 391.26 135.278 390.481 137.046 390.341C137.682 390.291 138.315 390.085 138.924 389.878C139.654 389.628 140.1 389.147 140.16 388.299C140.182 387.975 140.473 387.535 140.758 387.408C140.957 387.319 141.35 387.677 141.661 387.827C142.035 388.006 142.426 388.341 142.787 388.313C143.414 388.265 144.11 388.123 144.627 387.788C146.444 386.611 148.362 386.561 150.424 386.865C152.67 387.197 154.947 387.319 157.181 387.531Z" fill="white"/>
<path d="M328.542 373.674C328.151 372.606 327.514 372.279 326.518 372.326C324.611 372.418 322.777 372.161 321.012 371.258C319.974 370.728 318.693 370.697 317.596 370.254C316.476 369.802 315.401 369.189 314.393 368.516C313.647 368.017 313.04 367.307 312.16 366.496C312.629 366.627 312.927 366.63 313.117 366.774C315.402 368.515 318.117 368.766 320.829 369.056C322.695 369.255 324.556 369.498 326.392 369.719C326.207 369.416 325.94 368.98 325.672 368.54C326.681 368.104 327.519 368.264 328.502 368.925C329.058 369.298 330.212 369.218 330.889 368.9C334.635 367.14 338.682 367.22 342.647 366.793C342.704 366.787 342.768 366.854 343.108 367.042C339.115 369.214 335.3 371.315 330.989 372.353C330.943 372.466 330.897 372.579 330.851 372.691C332.06 373.313 333.269 373.933 334.633 374.634C334.277 375.356 334.064 376.197 333.543 376.745C332.688 377.646 331.597 378.345 330.269 377.67C329.227 377.14 328.205 376.549 327.256 375.87C326.545 375.361 326.702 374.664 327.5 374.244C327.841 374.066 328.175 373.876 328.542 373.674Z" fill="white"/>
<path d="M340.027 403.625C340.993 403.034 341.716 402.593 342.439 402.152C343.738 403.654 343.281 406.562 340.531 407.191C340.235 406.618 339.926 406.022 339.507 405.212C338.818 406.728 337.911 407.871 337.789 409.325C337.746 409.847 338.034 410.389 338.106 410.931C338.189 411.547 338.201 412.172 338.244 412.793C338.16 412.85 338.076 412.908 337.992 412.965C337.79 412.682 337.55 412.418 337.391 412.112C336.699 410.785 335.989 409.464 335.368 408.104C335.003 407.303 335.206 406.595 335.956 406.004C336.382 405.668 336.639 405.119 337.117 404.469C336.494 404.409 336.165 404.377 335.834 404.346C335.727 403.253 335.88 403.092 337.432 402.88C337.329 402.149 337.335 401.379 337.097 400.692C336.699 399.542 336.652 399.001 337.603 398.266C339.083 397.123 340.671 396.12 342.358 394.957C342.495 395.431 342.662 395.684 342.594 395.825C342.232 396.572 341.874 397.335 341.397 398.009C340.767 398.899 339.869 399.606 340.01 400.891C340.099 401.709 340.027 402.544 340.027 403.625Z" fill="white"/>
<path d="M368.715 401.685C370.178 401.417 371.634 401.035 373.109 400.933C373.788 400.885 374.506 401.382 375.205 401.635C375.539 401.755 375.871 401.881 376.248 401.891C376.149 401.836 376.05 401.78 375.912 401.704C376.23 401.227 376.606 401.066 377.093 401.419C377.438 401.669 377.718 401.628 377.995 401.325C378.154 401.151 378.367 401.017 378.494 400.824C379.757 398.9 381.944 398.398 383.789 397.371C383.837 397.344 383.909 397.359 384.05 397.348C383.964 397.968 383.487 398.241 383.106 398.566C382.228 399.318 381.311 400.025 380.45 400.795C379.85 401.331 379.306 401.93 378.761 402.524C378.585 402.715 378.488 402.978 378.354 403.208C378.583 403.339 378.8 403.504 379.045 403.591C379.3 403.68 379.581 403.693 379.864 403.741C379.142 405.476 377.154 406.283 375.951 405.474C376.217 405.066 376.487 404.659 376.748 404.247C376.963 403.907 376.836 403.653 376.489 403.544C375.723 403.304 374.957 403.043 374.171 402.892C372.361 402.545 370.539 402.259 368.722 401.947C368.72 401.86 368.717 401.772 368.715 401.685Z" fill="white"/>
<path d="M261.555 354.252C260.392 352.978 259.622 351.94 258.66 351.129C257.214 349.91 256.396 350.185 255.661 351.927C254.874 353.792 253.206 354.518 251.774 353.172C248.564 350.153 244.679 350.154 240.705 349.89C238.483 349.743 236.303 348.921 234.115 348.36C233.837 348.289 233.626 347.957 233.199 347.584C239.045 347.828 244.537 350.633 250.196 348.462C250.399 348.178 250.603 347.893 250.806 347.609C250.03 347.042 249.254 346.475 248.412 345.86C248.84 344.622 249.676 344.025 251.382 344.495C251.995 344.664 252.909 343.744 253.685 343.321C253.282 342.755 253.002 341.924 252.455 341.671C250.702 340.862 250.34 339.502 250.463 337.79C250.623 335.547 250.737 333.301 250.865 331.156C251.642 331.809 252.727 332.37 253.256 333.261C253.805 334.188 254.031 335.436 254.018 336.539C253.995 338.525 255.274 339.77 256.607 340.542C259.114 341.995 259.658 343.857 258.832 346.412C258.785 346.56 258.844 346.743 258.873 347.246C260.243 346.457 261.451 345.76 262.58 345.11C264.589 346.9 263.885 349.112 263.509 351.114C263.305 352.201 262.283 353.135 261.555 354.252Z" fill="white"/>
<path d="M170.138 353.944C168.762 356.257 166.529 355.986 165.444 355.664C161.323 354.441 158.872 356.947 155.616 359.111C157.354 359.91 158.732 360.543 160.104 361.173C158.976 364.903 154.398 366.42 151.082 363.359C151.598 362.393 152.128 361.402 152.629 360.463C147.412 359.333 144.386 362.894 140.808 365.855C140.769 365.227 140.631 364.864 140.75 364.635C142.136 361.96 143.494 359.267 145.004 356.663C145.653 355.544 146.826 355.399 148.101 355.695C149.06 355.917 150.074 355.899 151.58 356.034C151.016 354.989 150.738 354.474 150.448 353.936C151.932 352.713 152.207 352.748 154.133 354.767C155.068 353.913 156.299 353.207 156.901 352.144C157.877 350.424 159.254 349.982 160.858 350.501C163.931 351.497 166.926 352.736 170.138 353.944Z" fill="white"/>
<path d="M175.395 386.175C181.324 386.049 185.786 388.2 187.933 393.967C189.497 391.905 190.041 391.889 191.439 393.788C193.657 391.133 194.072 387.158 197.637 385.584C200.803 384.186 204.027 383.101 207.491 382.906C207.579 383.072 207.666 383.238 207.753 383.404C205.392 384.804 203.096 386.329 200.656 387.574C196.375 389.76 194.531 393.614 193.204 397.879C192.906 398.839 193.447 399.321 194.337 399.403C195.427 399.504 196.524 399.521 197.895 399.587C196.763 401.872 195.24 403.673 192.973 404.264C189.768 405.1 187.529 402.882 184.892 400.958C186.306 400.612 187.398 400.344 188.51 400.072C187.992 394.286 184.503 391.092 179.489 389.007C177.991 388.384 176.752 387.136 175.395 386.175Z" fill="white"/>
<path d="M273.386 386.613C275.438 389.144 277.453 386.456 279.775 387.389C279.519 388.699 279.402 390.191 278.878 391.523C278.67 392.052 277.585 392.296 276.856 392.543C276.272 392.74 275.624 392.814 275.004 392.819C273.648 392.83 272.29 392.763 270.65 392.72C271.138 391.502 271.432 390.768 271.7 390.099C269.207 387.246 265.913 385.822 262.598 384.428C259.326 383.052 256.055 381.673 252.918 379.97C255.385 380.527 257.879 380.985 260.31 381.669C262.737 382.353 265.101 383.262 267.677 384.135C267.225 383.741 266.85 383.414 266.458 383.071C267.71 382.053 268.887 381.827 270.041 383.397C270.722 384.324 271.526 384.391 272.273 383.331C272.945 382.379 273.656 381.448 274.423 380.572C275.225 379.655 275.967 378.542 276.991 377.988C281.676 375.452 286.451 373.083 291.268 370.781C289.555 373.195 287.474 375.074 284.821 376.422C283.253 377.218 281.89 378.488 280.573 379.695C278.153 381.914 275.835 384.244 273.386 386.613Z" fill="white"/>
<path d="M298.624 432.757C297.494 435.994 293.054 436.468 290.011 433.656C290.587 433.342 291.18 433.085 291.699 432.722C292.425 432.214 292.387 431.562 292.251 430.682C291.85 428.081 289.712 427.937 287.902 427.211C287.437 427.024 287.132 426.411 286.783 425.968C286.507 425.616 286.276 425.228 285.965 424.767C286.335 424.783 286.775 424.766 287.204 424.83C287.701 424.904 288.204 425.193 288.676 425.14C290.662 424.914 291.752 425.87 292.223 427.709H293.885C293.988 427.179 294.087 426.648 294.196 426.119C294.571 424.299 294.969 423.862 296.769 423.65C298.369 423.461 299.984 423.395 301.507 423.281C301.063 424.324 300.402 425.047 299.06 425.628C297.238 426.417 295.654 428.005 295 430.105C294.741 430.938 295.113 431.667 295.968 431.976C296.834 432.288 297.736 432.5 298.624 432.757Z" fill="white"/>
<path d="M346.126 435.224C345.548 435.892 344.969 436.559 344.4 437.216C344.17 437.043 344.109 437.021 344.088 436.978C343.923 436.647 343.766 436.311 343.606 435.977C343.303 436.224 342.968 436.441 342.704 436.724C342.1 437.367 341.46 437.996 340.976 438.726C340.75 439.067 340.821 439.626 340.814 440.087C340.795 441.274 340.807 442.462 340.807 443.65C340.705 443.664 340.603 443.678 340.501 443.693C340.327 443.159 340.104 442.635 339.99 442.089C339.693 440.665 339.418 439.235 339.186 437.799C339.078 437.133 339.363 436.64 340.042 436.375C340.392 436.237 340.746 436.016 340.999 435.741C341.427 435.275 341.973 434.83 341.412 434.04C341.162 433.689 341.454 433.342 341.928 433.402C342.92 433.527 343.525 433.226 343.671 432.239C343.82 431.241 344.382 430.83 345.254 430.828C347.001 430.824 348.749 430.91 350.496 431.074C349.674 431.671 348.799 431.864 347.834 431.836C347.409 431.824 346.863 431.957 346.57 432.233C345.768 432.99 345.073 433.857 344.22 434.809C344.9 434.874 345.427 434.924 345.954 434.974C346.011 435.057 346.069 435.141 346.126 435.224Z" fill="white"/>
<path d="M313.602 411.001C313.685 410.555 313.853 410.099 313.821 409.657C313.801 409.376 313.484 409.117 313.3 408.848C313.069 409.009 312.776 409.123 312.619 409.338C311.82 410.427 310.837 411.003 309.419 411.004C308.654 411.005 307.894 411.47 307.119 411.678C306.843 411.753 306.529 411.69 306.102 411.69C307.114 410.783 307.944 409.97 308.847 409.249C309.745 408.529 310.717 407.901 311.722 407.187C311.539 406.967 311.276 406.729 311.118 406.434C310.969 406.156 310.93 405.817 310.842 405.505C311.186 405.413 311.614 405.145 311.857 405.261C312.677 405.656 313.072 405.326 313.368 404.617C313.815 403.546 314.233 402.46 314.734 401.415C315.098 400.66 315.637 399.988 315.995 399.23C316.601 397.943 317.126 396.619 317.697 395.281C318.508 396.312 317.961 397.374 317.745 398.383C317.624 398.952 317.307 399.35 317.892 399.926C318.167 400.197 318.087 401.011 317.931 401.504C317.381 403.245 316.999 405.101 315.344 406.253C315.232 406.331 315.192 406.511 315.08 406.715C316.334 407.343 316.98 406.097 317.981 405.949C318.745 406.737 318.85 408.556 318.143 409.851C317.533 410.969 315.588 411.474 313.602 411.001Z" fill="white"/>
<path d="M115.135 346.302C115.732 349.488 114.17 351.212 111.439 350.309C110.979 350.156 110.287 349.797 110.239 349.458C110.004 347.811 108.822 347.804 107.644 347.785C104.143 347.726 101.351 346.31 99.1953 343.018C100.184 342.776 101.262 342.204 102.247 342.334C104.344 342.612 106.33 341.312 106.561 339.148C106.592 338.859 106.569 338.565 106.561 338.273C106.491 335.686 106.902 335.05 109.403 334.686C113.961 334.024 118.424 334.915 123.062 335.607C121.829 337.491 120.173 338.117 118.235 338.221C116.683 338.303 115.125 338.338 113.583 338.508C113.126 338.558 112.518 338.89 112.31 339.272C111.395 340.95 110.513 342.66 109.837 344.441C109.698 344.806 110.415 345.913 110.876 346.009C112.211 346.287 113.617 346.224 115.135 346.302Z" fill="white"/>
<path d="M207.688 349.411C205.865 350.002 204.542 351.678 202.222 351.268C200.602 350.982 199.14 352.377 198.674 353.993C198.402 354.934 198.049 355.872 197.59 356.735C196.748 358.319 196.928 358.776 198.675 358.998C199.021 359.042 199.375 359.027 199.724 359.053C200.068 359.078 200.412 359.12 200.755 359.154C200.558 361.835 198.409 363.781 195.524 363.615C195.488 363.577 195.418 363.539 195.412 363.492C195.016 360.192 195.047 360.27 191.906 361.505C189.449 362.47 187.62 363.694 187.057 366.608C186.762 368.137 185.411 369.461 184.334 370.775C183.971 366.84 184.742 363.186 186.439 359.753C186.681 359.263 187.513 358.967 188.132 358.784C188.961 358.538 189.881 358.59 190.702 358.327C191.516 358.066 192.161 357.595 191.589 356.491C191.392 356.11 191.619 355.51 191.658 354.918C193.729 355.765 194.631 355.191 194.967 353.099C195.54 349.523 195.569 349.381 199.241 348.914C201.598 348.614 203.999 348.648 206.381 348.571C206.801 348.557 207.227 348.738 207.65 348.829C207.663 349.023 207.675 349.217 207.688 349.411Z" fill="white"/>
<path d="M141.821 288.785C139.904 288.808 138.144 290.017 136.05 288.937C134.588 288.183 132.778 289.082 131.853 290.487C131.314 291.305 130.699 292.096 130.005 292.784C128.731 294.047 128.767 294.536 130.37 295.267C130.687 295.411 131.029 295.502 131.355 295.63C131.676 295.756 131.992 295.898 132.31 296.033C131.326 298.535 128.697 299.755 125.991 298.741C125.968 298.694 125.912 298.637 125.92 298.59C126.521 295.322 126.527 295.405 123.162 295.653C120.529 295.846 118.419 296.472 117.017 299.088C116.282 300.46 114.599 301.324 113.18 302.26C114.001 298.394 115.821 295.133 118.46 292.358C118.837 291.962 119.719 291.926 120.365 291.935C121.229 291.946 122.092 292.268 122.954 292.261C123.809 292.253 124.565 291.995 124.346 290.771C124.271 290.348 124.666 289.843 124.879 289.289C126.605 290.712 127.637 290.431 128.578 288.533C130.186 285.288 130.256 285.161 133.901 285.804C136.241 286.217 138.524 286.962 140.822 287.595C141.227 287.706 141.58 288.005 141.957 288.218C141.912 288.407 141.866 288.596 141.821 288.785Z" fill="white"/>
<path d="M235.01 405.717C235.815 404.939 236.749 404.304 237.311 403.429C238.123 402.164 239.201 401.548 240.535 401.974C243.267 402.846 245.929 403.936 248.844 405.02C247.54 406.887 245.808 406.815 244.702 406.513C241.212 405.557 238.993 407.461 236.309 409.536C237.727 410.196 238.897 410.74 240.071 411.286C239.035 414.068 236.264 415.383 233.829 414.242C232.672 413.7 231.892 413.128 233.068 411.835C233.35 411.525 233.41 411.011 233.764 410.091C231.54 410.662 229.56 410.847 227.911 411.683C226.3 412.499 225.025 413.979 223.603 415.168C223.464 415.096 223.325 415.025 223.188 414.953C223.456 414.132 223.645 413.273 224.012 412.499C224.608 411.24 225.333 410.043 225.98 408.808C226.952 406.956 228.218 405.872 230.484 406.734C231.007 406.933 231.702 406.68 232.536 406.619C232.253 405.947 232.066 405.502 231.865 405.026C231.989 404.222 233.207 404.135 234.158 404.909C234.376 405.086 234.568 405.295 235.01 405.717Z" fill="white"/>
<path d="M372.746 421.916C370.997 422.912 369.321 423.975 368.878 426.289C369.89 426.47 371.017 426.67 372.259 426.892C371.971 427.384 371.642 427.948 371.235 428.646C370.366 427.661 369.397 427.416 368.264 427.574C368.585 427.91 368.903 428.243 369.208 428.562C367.756 429.975 366.366 431.327 364.891 432.764C364.786 431.622 364.477 430.476 364.901 429.335C365.03 428.987 365.397 428.702 365.707 428.453C365.981 428.232 366.364 428.145 366.632 427.919C366.837 427.746 367.02 427.457 367.049 427.201C367.062 427.084 366.681 426.923 366.408 426.732C366.681 426.524 367.085 426.346 367.272 426.036C367.469 425.712 367.574 425.245 367.516 424.871C367.34 423.717 367.416 423.413 368.45 422.905C369.36 422.457 370.292 422.033 371.252 421.709C371.683 421.563 372.205 421.684 372.685 421.684C372.706 421.761 372.726 421.838 372.746 421.916Z" fill="white"/>
<path fill-rule="evenodd" clip-rule="evenodd" d="M357.843 649.268C351.522 661.284 338.914 669.485 324.405 669.485C310.187 669.485 297.794 661.609 291.355 649.986L-43.457 638.885V532.584L-40.933 532.039C-40.958 531.498 -40.97 530.954 -40.97 530.407C-40.97 511.085 -25.284 495.399 -5.96203 495.399C0.311974 495.399 6.20397 497.053 11.299 499.949C11.105 498.459 11.005 496.941 11.005 495.399C11.005 476.077 26.692 460.391 46.013 460.391C65.335 460.391 81.022 476.077 81.022 495.399C81.022 495.788 81.015 496.176 81.002 496.562C87.119 498.419 92.323 502.38 95.77 507.602C108.105 492.203 127.065 482.336 148.311 482.336C183.538 482.336 212.479 509.465 215.363 543.952C219.601 542.304 224.21 541.4 229.027 541.4C243.88 541.4 256.741 549.995 262.904 562.478C266.011 560.463 269.716 559.293 273.691 559.293C284.655 559.293 293.556 568.193 293.556 579.157C293.556 579.567 293.543 579.975 293.519 580.379C300.941 583.118 306.283 590.166 306.506 598.482C311.834 595.605 317.93 593.971 324.405 593.971C342.953 593.971 358.394 607.373 361.566 625.013C364.509 622.792 368.171 621.474 372.139 621.474C381.838 621.474 389.713 629.349 389.713 639.049C389.713 648.749 381.838 656.623 372.139 656.623C366.249 656.623 361.033 653.72 357.843 649.268Z" fill="white"/>
<path fill-rule="evenodd" clip-rule="evenodd" d="M174.201 657.825C169.99 665.83 161.59 671.294 151.924 671.294C142.452 671.294 134.196 666.047 129.906 658.303L-93.1523 650.908V580.088L-91.4703 579.725C-91.4863 579.365 -91.4953 579.002 -91.4953 578.638C-91.4953 565.765 -81.0443 555.315 -68.1723 555.315C-63.9923 555.315 -60.0673 556.417 -56.6723 558.346C-56.8013 557.354 -56.8683 556.342 -56.8683 555.315C-56.8683 542.442 -46.4173 531.992 -33.5453 531.992C-20.6733 531.992 -10.2223 542.442 -10.2223 555.315C-10.2223 555.574 -10.2263 555.833 -10.2353 556.09C-6.16035 557.327 -2.69334 559.966 -0.396339 563.445C7.82166 553.186 20.4527 546.612 34.6067 546.612C58.0757 546.612 77.3567 564.686 79.2787 587.662C82.1017 586.564 85.1716 585.962 88.3817 585.962C98.2767 585.962 106.845 591.687 110.951 600.004C113.021 598.661 115.489 597.882 118.138 597.882C125.442 597.882 131.372 603.812 131.372 611.116C131.372 611.389 131.364 611.661 131.347 611.93C136.292 613.755 139.851 618.45 139.999 623.99C143.549 622.073 147.611 620.985 151.924 620.985C164.281 620.985 174.568 629.914 176.681 641.666C178.642 640.186 181.082 639.308 183.725 639.308C190.187 639.308 195.434 644.555 195.434 651.017C195.434 657.479 190.187 662.725 183.725 662.725C179.802 662.725 176.326 660.791 174.201 657.825Z" fill="#F5F5F5"/>
<path d="M1440.43 770.949H0.429688V1024.72H1440.43V770.949Z" fill="#B9DD4B"/>
<path d="M289.622 792.305C314.112 795.847 471.071 799.891 482.203 808.796C493.334 817.702 788.328 817.702 810.593 821.042C832.855 824.383 708.178 825.495 731.556 841.038C754.934 856.582 1052.15 842.193 1095.57 840.136C1138.98 838.08 1223.58 843.305 1287.03 839.781C1350.49 836.257 1446.22 837.742 1466.26 839.781C1486.3 841.823 1555.31 834.4 1555.31 834.4V770.949H241.021C174.926 786.884 267.084 789.042 289.622 792.305Z" fill="#8BC926"/>
<path d="M-114.461 770.949V811.67C-75.1739 805.985 25.0841 831.995 46.9511 829.392C70.3281 826.608 198.344 836.07 217.555 832.174C236.766 828.278 427.66 848.316 471.631 848.173C515.602 848.031 604.656 847.202 603.958 844.977C603.259 842.75 581.836 836.906 544.267 839.781C506.695 842.657 388.143 839.411 327.196 819.373C266.247 799.337 152.704 806.85 183.595 792.305C214.486 777.758 54.1861 778.465 54.1861 778.465L63.7491 770.949H-114.461Z" fill="#99D938"/>
<path d="M624.855 759.559C609.758 760.636 593.03 760.636 583.924 760.636H491.611C478.573 760.636 432.897 770.956 401.025 777.364C90.086 777.364 32.4411 799.08 -114.461 790.155V714.931C-102.335 713.456 -84.5529 711.415 -74.5359 710.961C-58.3349 710.28 -36.1919 700.698 -23.2989 704.952C-10.4059 709.203 23.7201 708.353 36.6141 710.224C49.5061 712.038 78.5521 712.436 88.7121 712.436C97.0521 712.436 125.043 710.224 142.25 710.055H142.395C146.229 709.997 149.537 710.055 151.932 710.224C165.114 711.245 170.289 710.28 189.462 712.663C208.633 714.987 224.643 717.538 238.589 716.519C252.585 715.498 264.185 716.122 278.946 716.519C293.708 716.916 332.053 724.457 355.634 722.075C379.215 719.75 404.763 723.948 419.14 722.53C433.52 721.168 470.282 726.84 475.074 729.164C479.869 731.545 495.828 737.67 504.6 738.179C513.419 738.634 537.385 739.597 550.134 743.339C562.931 747.14 582.917 750.427 590.489 751.392C595.379 752.016 611.147 756.779 624.855 759.559Z" fill="#8BC926"/>
<path d="M1555.32 700.013V719.916C1543.82 719.861 1528.38 719.804 1516.73 720.201C1495.74 720.937 1464.01 718.159 1452.6 719.861C1441.25 721.617 1399.88 714.132 1379.56 719.292C1359.14 724.453 1339.39 713.282 1318.4 717.478C1297.45 721.617 1301.62 714.076 1273.49 720.71C1245.35 727.289 1239.94 727.969 1223.16 727.969C1206.39 727.969 1192.01 727.289 1180.65 727.969C1169.24 728.706 1148.87 731.54 1135.12 735.115C1121.31 738.63 1120.12 736.474 1101.57 735.115C1082.97 733.641 1061.4 730.805 1048.22 731.54C1035.04 732.279 1014.05 724.85 1005.08 726.778C996.12 728.706 976.949 728.706 965.541 730.122C954.134 731.54 939.755 737.951 921.206 733.641C902.658 729.443 863.068 730.805 855.302 732.958C847.537 735.115 825.347 742.146 807.373 742.146C789.399 742.146 734.135 744.3 720.429 747.136C706.719 749.97 662.385 753.486 645.61 757.06C639.956 758.248 632.62 759.043 624.857 759.554C611.148 756.775 595.38 752.011 590.492 751.388C582.918 750.425 562.931 747.136 550.134 743.335C537.385 739.593 513.419 738.63 504.6 738.175C495.83 737.665 479.869 731.54 475.076 729.16C470.282 726.835 433.522 721.163 419.142 722.526C404.763 723.944 379.217 719.748 355.634 722.071C332.053 724.453 293.71 716.912 278.946 716.515C264.185 716.117 252.586 715.494 238.589 716.515C224.643 717.535 208.633 714.983 189.462 712.659C170.291 710.278 165.114 711.241 151.932 710.219C149.537 710.051 146.229 709.992 142.395 710.051C154.138 707.386 167.511 704.947 179.108 702.225C199.479 697.518 198.281 700.807 218.22 698.483C228.476 697.236 233.892 697.291 238.063 697.462H238.111C242.088 697.518 244.966 697.744 249.806 697.065C259.775 695.647 267.78 700.354 276.934 700.354C286.136 700.354 308.087 701.772 317.674 702.225C327.261 702.735 336.08 704.153 351.224 703.869C366.419 703.643 377.586 706.024 389.569 702.225C401.551 698.483 409.938 702.735 422.737 703.869C435.534 705.059 446.318 705.059 454.275 703.869C462.279 702.679 472.679 703.643 480.252 703.869C487.826 704.097 502.205 704.606 508.627 703.869C515.002 703.132 543.759 705.059 554.544 706.989C565.328 708.86 575.728 711.696 581.72 711.696C587.712 711.696 601.658 711.696 617.668 704.947C633.627 698.256 637.221 700.354 651.985 698.88C666.795 697.404 680.359 701.317 693.54 698.88C706.719 696.442 740.272 699.389 750.242 698.88C760.258 698.368 774.637 697.971 797.787 698.88C820.937 699.786 824.964 699.901 834.549 698.88C844.135 697.86 873.276 697.518 886.073 695.647C898.822 693.718 912.004 697.971 922.021 698.88C931.99 699.786 962.331 694.682 973.306 696.1C973.546 696.159 973.835 696.159 974.121 696.214C985.481 697.348 1009.3 693.718 1019.46 692.867C1029.86 692.019 1069.41 698.483 1076.16 694.117C1082.97 689.807 1098.93 697.971 1116.9 699.56C1134.88 701.09 1148.06 702.225 1158.08 699.56C1168.05 696.838 1216.36 699.389 1222.35 699.56C1228.34 699.672 1253.12 702.225 1262.32 702.225C1271.48 702.225 1299.04 702.225 1313.41 701.772C1327.8 701.317 1369.73 696.553 1383.35 694.682C1396.91 692.811 1400.89 696.1 1417.66 699.162C1434.44 702.169 1454.04 700.807 1470.38 702.055C1486.78 703.302 1485.96 702.225 1501.97 704.153C1517.93 706.024 1524.74 704.606 1533.51 700.807C1539.45 698.256 1549.52 699.162 1555.32 700.013Z" fill="#D4EA8E"/>
<path d="M603.958 675.515C587.279 677.16 566.908 677.557 562.116 678.124C554.159 679.089 538.965 681.923 524.971 680.96C511.024 680.052 503.833 682.32 491.036 681.187C478.239 680.052 445.119 679.202 436.731 681.47C428.344 683.794 417.56 677.784 403.563 681.47C389.569 685.212 352.854 687.595 346.047 687.139C339.243 686.63 330.088 685.327 320.884 687.198C311.682 689.013 305.307 689.975 291.743 689.975C278.131 689.975 264.185 688.557 260.59 689.975C258.623 690.77 248.704 694.115 238.111 697.46H238.063C233.892 697.289 228.476 697.234 218.22 698.481C198.281 700.805 199.479 697.518 179.108 702.223C167.509 704.947 154.138 707.383 142.395 710.049H142.25C125.043 710.219 97.0521 712.432 88.7131 712.432C78.5521 712.432 49.5061 712.035 36.6141 710.219C23.7201 708.348 -10.4059 709.199 -23.2989 704.947C-36.1919 700.693 -58.3349 710.276 -74.5359 710.955C-84.5529 711.411 -102.335 713.453 -114.461 714.926V637.977H-52.9669C-32.5969 637.977 -15.8219 632.305 -0.244942 637.977C15.3331 643.647 -0.244934 637.977 35.7031 637.977C71.6501 637.977 82.4351 628.677 107.597 635.482C132.761 642.231 186.682 636.9 208.25 636.73C229.819 636.559 246.594 625.559 283.739 636.73C320.884 647.901 349.642 637.353 383.192 640.472C416.745 643.647 422.735 634.688 438.314 642.002C453.89 649.319 470.666 645.065 493.433 647.901C516.199 650.737 514.043 652.89 561.731 663.891C591.304 670.696 595.714 673.476 603.958 675.515Z" fill="#D4EA8E"/>
<path d="M1203.32 666.729C1195.65 668.486 1189.18 670.642 1180.84 671.548C1168.04 672.966 1126.49 679.542 1113.31 681.925C1100.13 684.308 1091.74 684.761 1080.19 684.761C1068.59 684.761 1048.6 688.559 1039.45 687.142C1030.24 685.726 1010.26 684.476 1003.88 687.426C999.283 689.581 985.958 693.379 974.119 696.214C973.832 696.159 973.546 696.159 973.304 696.103C962.329 694.685 931.988 699.787 922.019 698.88C912.002 697.974 898.82 693.72 886.071 695.647C873.274 697.518 844.133 697.86 834.547 698.88C824.963 699.901 820.935 699.787 797.787 698.88C774.635 697.974 760.257 698.369 750.239 698.88C740.27 699.389 706.717 696.442 693.538 698.88C680.357 701.319 666.793 697.406 651.983 698.88C637.219 700.354 633.625 698.256 617.666 704.947C601.656 711.696 587.71 711.696 581.718 711.696C575.728 711.696 565.326 708.86 554.542 706.989C543.757 705.061 515 703.134 508.625 703.87C502.203 704.608 487.823 704.097 480.252 703.87C472.677 703.643 462.277 702.679 454.273 703.87C446.317 705.061 435.532 705.061 422.735 703.87C409.938 702.737 401.549 698.483 389.567 702.225C377.586 706.026 366.417 703.643 351.222 703.87C336.078 704.153 327.258 702.737 317.672 702.225C308.085 701.772 286.134 700.354 276.932 700.354C267.777 700.354 259.773 695.647 249.804 697.065C244.964 697.745 242.086 697.518 238.109 697.462C248.702 694.117 258.623 690.772 260.588 689.977C264.183 688.559 278.13 689.977 291.741 689.977C305.305 689.977 311.68 689.013 320.884 687.2C330.086 685.327 339.24 686.632 346.048 687.142C352.852 687.597 389.567 685.214 403.564 681.472C417.558 677.786 428.342 683.796 436.73 681.472C445.119 679.204 478.237 680.054 491.034 681.189C503.833 682.322 511.022 680.054 524.969 680.96C538.965 681.925 554.157 679.091 562.114 678.126C566.906 677.559 587.277 677.162 603.956 675.517C615.077 674.44 624.614 672.74 626.82 670.13C632.427 663.496 634.009 669.166 643.212 664.46C652.416 659.698 656.776 663.042 662.767 659.698C668.757 656.409 683.569 659.245 696.318 663.042C709.115 666.785 744.248 663.496 753.835 659.698C763.419 655.953 769.843 653.573 784.605 646.994C799.367 640.474 802.194 643.649 818.155 639.85C834.117 636.108 840.539 638.432 849.693 636.561C858.895 634.69 886.071 639.397 892.446 639.397C898.82 639.397 907.21 630.436 914.83 625.332C922.404 620.23 935.967 630.436 938.363 632.307C940.759 634.178 957.152 634.69 964.723 637.526C972.345 640.36 976.708 642.684 982.7 641.778C988.689 640.813 992.716 636.108 1001.1 630.436C1009.49 624.766 1015.48 627.602 1020.27 625.731C1025.07 623.858 1031.44 628.509 1040.21 633.725C1049.03 638.944 1045.82 634.69 1054.59 634.69C1063.41 634.69 1062.21 634.69 1073.38 631.345C1084.55 628.055 1086.18 628.055 1095.76 626.184C1105.35 624.255 1113.74 629.018 1120.11 632.76C1126.49 636.561 1130.08 637.014 1136.89 639.397C1139.52 640.303 1142.97 641.21 1146.57 642.174H1146.62C1152.37 643.705 1158.5 645.408 1162.43 647.448C1168.86 650.737 1179.21 655.444 1183.62 657.371C1186.4 658.562 1196.37 663.326 1203.32 666.729Z" fill="#C3E15F"/>
<path d="M1555.31 719.914V777.355C1211.34 796.695 924.136 807.682 401.02 777.355C432.893 770.948 478.568 760.627 491.606 760.627H583.918C593.025 760.627 609.753 760.627 624.852 759.55C632.615 759.041 639.948 758.246 645.603 757.056C662.379 753.483 706.714 749.968 720.424 747.132C734.131 744.296 789.394 742.142 807.368 742.142C825.341 742.142 847.531 735.11 855.297 732.956C863.062 730.801 902.651 729.44 921.201 733.636C939.75 737.946 954.127 731.538 965.536 730.12C976.944 728.702 996.115 728.702 1005.08 726.775C1014.04 724.848 1035.03 732.276 1048.21 731.538C1061.39 730.801 1082.96 733.636 1101.56 735.11C1120.11 736.472 1121.31 738.626 1135.11 735.11C1148.87 731.538 1169.24 728.702 1180.64 727.967C1192 727.284 1206.38 727.967 1223.16 727.967C1239.93 727.967 1245.35 727.284 1273.48 720.708C1301.62 714.074 1297.45 721.615 1318.39 717.476C1339.39 713.279 1359.13 724.451 1379.55 719.29C1399.87 714.13 1441.24 721.615 1452.6 719.858C1464 718.155 1495.73 720.935 1516.73 720.197C1528.37 719.8 1543.81 719.858 1555.31 719.914Z" fill="#99D938"/>
<path d="M-98.5703 896.72C-98.5703 896.72 57.4297 892.72 165.43 915.72C273.43 938.72 345.43 944.72 416.43 932.72C487.43 920.72 595.43 948.72 595.43 948.72C595.43 948.72 315.43 958.72 294.43 968.72C294.43 968.72 356.43 982.72 437.43 983.72C518.43 984.72 615.43 1002.72 680.43 1000.72C745.43 998.719 871.43 1032.72 871.43 1032.72H-96.7293L-98.5703 896.72Z" fill="#99D938"/>
<path fill-rule="evenodd" clip-rule="evenodd" d="M108.433 970.568C108.433 970.568 105.012 965.97 105.012 963.999C105.012 962.111 106.545 960.578 108.433 960.578C110.321 960.578 111.854 962.111 111.854 963.999C111.854 965.97 108.433 970.568 108.433 970.568Z" fill="#EDF5F9"/>
<path fill-rule="evenodd" clip-rule="evenodd" d="M108.433 970.57C108.433 970.57 105.012 975.169 105.012 977.14C105.012 979.028 106.545 980.561 108.433 980.561C110.321 980.561 111.854 979.028 111.854 977.14C111.854 975.169 108.433 970.57 108.433 970.57Z" fill="#EDF5F9"/>
<path fill-rule="evenodd" clip-rule="evenodd" d="M108.434 970.567C108.434 970.567 116.265 968.07 119.622 968.07C121 968.07 122.12 969.189 122.12 970.567C122.12 971.946 121 973.065 119.622 973.065C116.265 973.065 108.434 970.567 108.434 970.567Z" fill="#EDF5F9"/>
<path fill-rule="evenodd" clip-rule="evenodd" d="M108.432 970.567C108.432 970.567 100.601 968.07 97.2441 968.07C95.8661 968.07 94.7461 969.189 94.7461 970.567C94.7461 971.946 95.8661 973.065 97.2441 973.065C100.601 973.065 108.432 970.567 108.432 970.567Z" fill="#EDF5F9"/>
<path fill-rule="evenodd" clip-rule="evenodd" d="M108.434 970.567C108.434 970.567 110.876 965.437 112.905 963.956C114.234 962.986 116.34 962.948 117.606 963.872C118.871 964.796 118.82 966.333 117.491 967.303C115.462 968.785 108.434 970.567 108.434 970.567Z" fill="#EDF5F9"/>
<path fill-rule="evenodd" clip-rule="evenodd" d="M108.432 970.57C108.432 970.57 101.404 972.353 99.375 973.835C98.046 974.805 97.995 976.342 99.26 977.266C100.526 978.19 102.632 978.152 103.961 977.182C105.99 975.701 108.432 970.57 108.432 970.57Z" fill="#EDF5F9"/>
<path fill-rule="evenodd" clip-rule="evenodd" d="M108.434 970.57C108.434 970.57 115.462 972.353 117.491 973.835C118.82 974.805 118.871 976.342 117.606 977.266C116.34 978.19 114.234 978.152 112.905 977.182C110.876 975.701 108.434 970.57 108.434 970.57Z" fill="#EDF5F9"/>
<path fill-rule="evenodd" clip-rule="evenodd" d="M108.432 970.567C108.432 970.567 105.99 965.437 103.961 963.956C102.632 962.986 100.526 962.948 99.26 963.872C97.995 964.796 98.046 966.333 99.375 967.303C101.404 968.785 108.432 970.567 108.432 970.567Z" fill="#EDF5F9"/>
<path d="M108.432 973.197C110.42 973.197 112.032 972.021 112.032 970.569C112.032 969.118 110.42 967.941 108.432 967.941C106.444 967.941 104.832 969.118 104.832 970.569C104.832 972.021 106.444 973.197 108.432 973.197Z" fill="#F3BC6E"/>
<path fill-rule="evenodd" clip-rule="evenodd" d="M137.789 984.694C137.789 984.694 137.366 931.077 101.312 912.449C101.312 912.449 131.646 939.775 130.931 984.694H137.789Z" fill="#83BE24"/>
<path fill-rule="evenodd" clip-rule="evenodd" d="M162.488 984.697C162.488 984.697 162.267 956.671 143.422 946.934C143.422 946.934 159.278 961.218 158.903 984.697H162.488Z" fill="#83BE24"/>
<path fill-rule="evenodd" clip-rule="evenodd" d="M136.039 984.694C136.039 984.694 136.462 931.077 172.515 912.449C172.515 912.449 142.181 939.775 142.897 984.694H136.039Z" fill="#83BE24"/>
<path fill-rule="evenodd" clip-rule="evenodd" d="M161.129 984.695C161.129 984.695 161.458 942.888 189.57 928.363C189.57 928.363 165.918 949.67 166.476 984.695H161.129Z" fill="#83BE24"/>
<path fill-rule="evenodd" clip-rule="evenodd" d="M138.67 984.696C138.67 984.696 142.673 949.882 128.996 917.035C128.996 917.035 138.919 946.746 134.327 984.696H138.67Z" fill="#83BE24"/>
<path fill-rule="evenodd" clip-rule="evenodd" d="M163.176 984.695C163.176 984.695 166.298 957.549 155.633 931.938C155.633 931.938 163.37 955.104 159.79 984.695H163.176Z" fill="#83BE24"/>
<path fill-rule="evenodd" clip-rule="evenodd" d="M355.498 894.323C355.498 894.323 353.41 891.517 353.41 890.314C353.41 889.162 354.346 888.227 355.498 888.227C356.65 888.227 357.585 889.162 357.585 890.314C357.585 891.517 355.498 894.323 355.498 894.323Z" fill="#EDF5F9"/>
<path fill-rule="evenodd" clip-rule="evenodd" d="M106.275 833.334C106.275 833.334 104.188 830.528 104.188 829.326C104.188 828.174 105.123 827.238 106.275 827.238C107.427 827.238 108.363 828.174 108.363 829.326C108.363 830.528 106.275 833.334 106.275 833.334Z" fill="#EDF5F9"/>
<path fill-rule="evenodd" clip-rule="evenodd" d="M383.166 987.726C383.166 987.726 380.352 983.944 380.352 982.322C380.352 980.769 381.613 979.508 383.166 979.508C384.72 979.508 385.981 980.769 385.981 982.322C385.981 983.944 383.166 987.726 383.166 987.726Z" fill="#EDF5F9"/>
<path fill-rule="evenodd" clip-rule="evenodd" d="M218.985 854.056C218.985 854.056 216.898 851.251 216.898 850.048C216.898 848.896 217.833 847.961 218.985 847.961C220.138 847.961 221.073 848.896 221.073 850.048C221.073 851.251 218.985 854.056 218.985 854.056Z" fill="#EDF5F9"/>
<path fill-rule="evenodd" clip-rule="evenodd" d="M294.986 908.967C294.986 908.967 292.898 906.161 292.898 904.959C292.898 903.807 293.834 902.871 294.986 902.871C296.138 902.871 297.073 903.807 297.073 904.959C297.073 906.161 294.986 908.967 294.986 908.967Z" fill="#EDF5F9"/>
<path fill-rule="evenodd" clip-rule="evenodd" d="M135.576 879.116C135.576 879.116 133.488 876.31 133.488 875.107C133.488 873.955 134.424 873.02 135.576 873.02C136.728 873.02 137.663 873.955 137.663 875.107C137.663 876.31 135.576 879.116 135.576 879.116Z" fill="#EDF5F9"/>
<path fill-rule="evenodd" clip-rule="evenodd" d="M33.0831 875.268C33.0831 875.268 30.9961 872.462 30.9961 871.259C30.9961 870.107 31.9311 869.172 33.0831 869.172C34.2361 869.172 35.1711 870.107 35.1711 871.259C35.1711 872.462 33.0831 875.268 33.0831 875.268Z" fill="#EDF5F9"/>
<path fill-rule="evenodd" clip-rule="evenodd" d="M73.655 991.949C73.655 991.949 70.832 988.155 70.832 986.529C70.832 984.971 72.097 983.707 73.655 983.707C75.213 983.707 76.478 984.971 76.478 986.529C76.478 988.155 73.655 991.949 73.655 991.949Z" fill="#EDF5F9"/>
<path fill-rule="evenodd" clip-rule="evenodd" d="M377.377 883.733C377.377 883.733 375.289 880.927 375.289 879.725C375.289 878.573 376.225 877.637 377.377 877.637C378.529 877.637 379.465 878.573 379.465 879.725C379.465 880.927 377.377 883.733 377.377 883.733Z" fill="#EDF5F9"/>
<path fill-rule="evenodd" clip-rule="evenodd" d="M128.153 822.744C128.153 822.744 126.066 819.938 126.066 818.736C126.066 817.583 127.001 816.648 128.153 816.648C129.306 816.648 130.241 817.583 130.241 818.736C130.241 819.938 128.153 822.744 128.153 822.744Z" fill="#EDF5F9"/>
<path fill-rule="evenodd" clip-rule="evenodd" d="M412.666 973.449C412.666 973.449 409.852 969.666 409.852 968.044C409.852 966.491 411.113 965.23 412.666 965.23C414.219 965.23 415.481 966.491 415.481 968.044C415.481 969.666 412.666 973.449 412.666 973.449Z" fill="#EDF5F9"/>
<path fill-rule="evenodd" clip-rule="evenodd" d="M272.079 867.744C272.079 867.744 269.992 864.938 269.992 863.736C269.992 862.584 270.927 861.648 272.079 861.648C273.232 861.648 274.167 862.584 274.167 863.736C274.167 864.938 272.079 867.744 272.079 867.744Z" fill="#EDF5F9"/>
<path fill-rule="evenodd" clip-rule="evenodd" d="M125.542 1001.63C125.542 1001.63 122.121 997.037 122.121 995.067C122.121 993.178 123.654 991.645 125.542 991.645C127.43 991.645 128.963 993.178 128.963 995.067C128.963 997.037 125.542 1001.63 125.542 1001.63Z" fill="#EDF5F9"/>
<path fill-rule="evenodd" clip-rule="evenodd" d="M327.772 883.733C327.772 883.733 325.684 880.927 325.684 879.725C325.684 878.573 326.62 877.637 327.772 877.637C328.924 877.637 329.859 878.573 329.859 879.725C329.859 880.927 327.772 883.733 327.772 883.733Z" fill="#EDF5F9"/>
<path fill-rule="evenodd" clip-rule="evenodd" d="M78.5479 822.744C78.5479 822.744 76.4609 819.938 76.4609 818.736C76.4609 817.583 77.3959 816.648 78.5479 816.648C79.6999 816.648 80.6359 817.583 80.6359 818.736C80.6359 819.938 78.5479 822.744 78.5479 822.744Z" fill="#EDF5F9"/>
<path fill-rule="evenodd" clip-rule="evenodd" d="M345.788 973.449C345.788 973.449 342.973 969.666 342.973 968.044C342.973 966.491 344.235 965.23 345.788 965.23C347.341 965.23 348.602 966.491 348.602 968.044C348.602 969.666 345.788 973.449 345.788 973.449Z" fill="#EDF5F9"/>
<path fill-rule="evenodd" clip-rule="evenodd" d="M207.56 880.4C207.56 880.4 205.473 877.595 205.473 876.392C205.473 875.24 206.408 874.305 207.56 874.305C208.713 874.305 209.648 875.24 209.648 876.392C209.648 877.595 207.56 880.4 207.56 880.4Z" fill="#EDF5F9"/>
<path fill-rule="evenodd" clip-rule="evenodd" d="M181.066 987.964C181.066 987.964 177.645 983.365 177.645 981.395C177.645 979.506 179.178 977.973 181.066 977.973C182.954 977.973 184.487 979.506 184.487 981.395C184.487 983.365 181.066 987.964 181.066 987.964Z" fill="#EDF5F9"/>
<path fill-rule="evenodd" clip-rule="evenodd" d="M355.498 894.32C355.498 894.32 353.41 897.125 353.41 898.328C353.41 899.48 354.346 900.415 355.498 900.415C356.65 900.415 357.585 899.48 357.585 898.328C357.585 897.125 355.498 894.32 355.498 894.32Z" fill="#EDF5F9"/>
<path fill-rule="evenodd" clip-rule="evenodd" d="M106.275 833.332C106.275 833.332 104.188 836.138 104.188 837.341C104.188 838.493 105.123 839.428 106.275 839.428C107.427 839.428 108.363 838.493 108.363 837.341C108.363 836.138 106.275 833.332 106.275 833.332Z" fill="#EDF5F9"/>
<path fill-rule="evenodd" clip-rule="evenodd" d="M383.166 987.727C383.166 987.727 380.352 991.51 380.352 993.132C380.352 994.685 381.613 995.946 383.166 995.946C384.72 995.946 385.981 994.685 385.981 993.132C385.981 991.51 383.166 987.727 383.166 987.727Z" fill="#EDF5F9"/>
<path fill-rule="evenodd" clip-rule="evenodd" d="M218.985 854.055C218.985 854.055 216.898 856.861 216.898 858.064C216.898 859.216 217.833 860.151 218.985 860.151C220.138 860.151 221.073 859.216 221.073 858.064C221.073 856.861 218.985 854.055 218.985 854.055Z" fill="#EDF5F9"/>
<path fill-rule="evenodd" clip-rule="evenodd" d="M294.986 908.969C294.986 908.969 292.898 911.775 292.898 912.977C292.898 914.13 293.834 915.065 294.986 915.065C296.138 915.065 297.073 914.13 297.073 912.977C297.073 911.775 294.986 908.969 294.986 908.969Z" fill="#EDF5F9"/>
<path fill-rule="evenodd" clip-rule="evenodd" d="M135.576 879.117C135.576 879.117 133.488 881.923 133.488 883.125C133.488 884.277 134.424 885.213 135.576 885.213C136.728 885.213 137.663 884.277 137.663 883.125C137.663 881.923 135.576 879.117 135.576 879.117Z" fill="#EDF5F9"/>
<path fill-rule="evenodd" clip-rule="evenodd" d="M33.0831 875.27C33.0831 875.27 30.9961 878.075 30.9961 879.278C30.9961 880.43 31.9311 881.365 33.0831 881.365C34.2361 881.365 35.1711 880.43 35.1711 879.278C35.1711 878.075 33.0831 875.27 33.0831 875.27Z" fill="#EDF5F9"/>
<path fill-rule="evenodd" clip-rule="evenodd" d="M73.655 991.949C73.655 991.949 70.832 995.743 70.832 997.369C70.832 998.927 72.097 1000.19 73.655 1000.19C75.213 1000.19 76.478 998.927 76.478 997.369C76.478 995.743 73.655 991.949 73.655 991.949Z" fill="#EDF5F9"/>
<path fill-rule="evenodd" clip-rule="evenodd" d="M377.377 883.73C377.377 883.73 375.289 886.536 375.289 887.739C375.289 888.891 376.225 889.826 377.377 889.826C378.529 889.826 379.465 888.891 379.465 887.739C379.465 886.536 377.377 883.73 377.377 883.73Z" fill="#EDF5F9"/>
<path fill-rule="evenodd" clip-rule="evenodd" d="M128.153 822.746C128.153 822.746 126.066 825.552 126.066 826.754C126.066 827.906 127.001 828.842 128.153 828.842C129.306 828.842 130.241 827.906 130.241 826.754C130.241 825.552 128.153 822.746 128.153 822.746Z" fill="#EDF5F9"/>
<path fill-rule="evenodd" clip-rule="evenodd" d="M412.666 973.449C412.666 973.449 409.852 977.231 409.852 978.853C409.852 980.406 411.113 981.667 412.666 981.667C414.219 981.667 415.481 980.406 415.481 978.853C415.481 977.231 412.666 973.449 412.666 973.449Z" fill="#EDF5F9"/>
<path fill-rule="evenodd" clip-rule="evenodd" d="M272.079 867.746C272.079 867.746 269.992 870.552 269.992 871.754C269.992 872.907 270.927 873.842 272.079 873.842C273.232 873.842 274.167 872.907 274.167 871.754C274.167 870.552 272.079 867.746 272.079 867.746Z" fill="#EDF5F9"/>
<path fill-rule="evenodd" clip-rule="evenodd" d="M125.542 1001.63C125.542 1001.63 122.121 1006.23 122.121 1008.2C122.121 1010.09 123.654 1011.63 125.542 1011.63C127.43 1011.63 128.963 1010.09 128.963 1008.2C128.963 1006.23 125.542 1001.63 125.542 1001.63Z" fill="#EDF5F9"/>
<path fill-rule="evenodd" clip-rule="evenodd" d="M327.772 883.73C327.772 883.73 325.684 886.536 325.684 887.739C325.684 888.891 326.62 889.826 327.772 889.826C328.924 889.826 329.859 888.891 329.859 887.739C329.859 886.536 327.772 883.73 327.772 883.73Z" fill="#EDF5F9"/>
<path fill-rule="evenodd" clip-rule="evenodd" d="M78.5479 822.746C78.5479 822.746 76.4609 825.552 76.4609 826.754C76.4609 827.906 77.3959 828.842 78.5479 828.842C79.6999 828.842 80.6359 827.906 80.6359 826.754C80.6359 825.552 78.5479 822.746 78.5479 822.746Z" fill="#EDF5F9"/>
<path fill-rule="evenodd" clip-rule="evenodd" d="M345.788 973.449C345.788 973.449 342.973 977.231 342.973 978.853C342.973 980.406 344.235 981.667 345.788 981.667C347.341 981.667 348.602 980.406 348.602 978.853C348.602 977.231 345.788 973.449 345.788 973.449Z" fill="#EDF5F9"/>
<path fill-rule="evenodd" clip-rule="evenodd" d="M207.56 880.402C207.56 880.402 205.473 883.208 205.473 884.411C205.473 885.563 206.408 886.498 207.56 886.498C208.713 886.498 209.648 885.563 209.648 884.411C209.648 883.208 207.56 880.402 207.56 880.402Z" fill="#EDF5F9"/>
<path fill-rule="evenodd" clip-rule="evenodd" d="M181.066 987.961C181.066 987.961 177.645 992.559 177.645 994.53C177.645 996.419 179.178 997.952 181.066 997.952C182.954 997.952 184.487 996.419 184.487 994.53C184.487 992.559 181.066 987.961 181.066 987.961Z" fill="#EDF5F9"/>
<path fill-rule="evenodd" clip-rule="evenodd" d="M355.496 894.321C355.496 894.321 360.274 892.797 362.322 892.797C363.163 892.797 363.846 893.48 363.846 894.321C363.846 895.162 363.163 895.845 362.322 895.845C360.274 895.845 355.496 894.321 355.496 894.321Z" fill="#EDF5F9"/>
<path fill-rule="evenodd" clip-rule="evenodd" d="M106.273 833.333C106.273 833.333 111.052 831.809 113.099 831.809C113.941 831.809 114.623 832.492 114.623 833.333C114.623 834.174 113.941 834.857 113.099 834.857C111.052 834.857 106.273 833.333 106.273 833.333Z" fill="#EDF5F9"/>
<path fill-rule="evenodd" clip-rule="evenodd" d="M383.168 987.726C383.168 987.726 389.611 985.672 392.372 985.672C393.506 985.672 394.426 986.592 394.426 987.726C394.426 988.86 393.506 989.781 392.372 989.781C389.611 989.781 383.168 987.726 383.168 987.726Z" fill="#EDF5F9"/>
<path fill-rule="evenodd" clip-rule="evenodd" d="M218.984 854.055C218.984 854.055 223.763 852.531 225.811 852.531C226.652 852.531 227.335 853.214 227.335 854.055C227.335 854.897 226.652 855.579 225.811 855.579C223.763 855.579 218.984 854.055 218.984 854.055Z" fill="#EDF5F9"/>
<path fill-rule="evenodd" clip-rule="evenodd" d="M294.984 908.969C294.984 908.969 299.762 907.445 301.81 907.445C302.651 907.445 303.334 908.128 303.334 908.969C303.334 909.81 302.651 910.493 301.81 910.493C299.762 910.493 294.984 908.969 294.984 908.969Z" fill="#EDF5F9"/>
<path fill-rule="evenodd" clip-rule="evenodd" d="M135.578 879.118C135.578 879.118 140.356 877.594 142.404 877.594C143.245 877.594 143.928 878.277 143.928 879.118C143.928 879.959 143.245 880.642 142.404 880.642C140.356 880.642 135.578 879.118 135.578 879.118Z" fill="#EDF5F9"/>
<path fill-rule="evenodd" clip-rule="evenodd" d="M33.082 875.266C33.082 875.266 37.861 873.742 39.909 873.742C40.75 873.742 41.433 874.425 41.433 875.266C41.433 876.107 40.75 876.79 39.909 876.79C37.861 876.79 33.082 875.266 33.082 875.266Z" fill="#EDF5F9"/>
<path fill-rule="evenodd" clip-rule="evenodd" d="M73.6562 991.951C73.6562 991.951 80.1173 989.891 82.8863 989.891C84.0243 989.891 84.9473 990.814 84.9473 991.951C84.9473 993.089 84.0243 994.012 82.8863 994.012C80.1173 994.012 73.6562 991.951 73.6562 991.951Z" fill="#EDF5F9"/>
<path fill-rule="evenodd" clip-rule="evenodd" d="M377.379 883.731C377.379 883.731 382.157 882.207 384.205 882.207C385.046 882.207 385.729 882.89 385.729 883.731C385.729 884.572 385.046 885.255 384.205 885.255C382.157 885.255 377.379 883.731 377.379 883.731Z" fill="#EDF5F9"/>
<path fill-rule="evenodd" clip-rule="evenodd" d="M128.156 822.743C128.156 822.743 132.935 821.219 134.983 821.219C135.824 821.219 136.507 821.902 136.507 822.743C136.507 823.584 135.824 824.267 134.983 824.267C132.935 824.267 128.156 822.743 128.156 822.743Z" fill="#EDF5F9"/>
<path fill-rule="evenodd" clip-rule="evenodd" d="M412.668 973.45C412.668 973.45 419.11 971.395 421.871 971.395C423.005 971.395 423.926 972.316 423.926 973.45C423.926 974.584 423.005 975.504 421.871 975.504C419.11 975.504 412.668 973.45 412.668 973.45Z" fill="#EDF5F9"/>
<path fill-rule="evenodd" clip-rule="evenodd" d="M272.078 867.743C272.078 867.743 276.857 866.219 278.905 866.219C279.746 866.219 280.429 866.902 280.429 867.743C280.429 868.584 279.746 869.267 278.905 869.267C276.857 869.267 272.078 867.743 272.078 867.743Z" fill="#EDF5F9"/>
<path fill-rule="evenodd" clip-rule="evenodd" d="M125.539 1001.63C125.539 1001.63 133.37 999.137 136.727 999.137C138.105 999.137 139.224 1000.26 139.224 1001.63C139.224 1003.01 138.105 1004.13 136.727 1004.13C133.37 1004.13 125.539 1001.63 125.539 1001.63Z" fill="#EDF5F9"/>
<path fill-rule="evenodd" clip-rule="evenodd" d="M327.773 883.731C327.773 883.731 332.551 882.207 334.599 882.207C335.44 882.207 336.123 882.89 336.123 883.731C336.123 884.572 335.44 885.255 334.599 885.255C332.551 885.255 327.773 883.731 327.773 883.731Z" fill="#EDF5F9"/>
<path fill-rule="evenodd" clip-rule="evenodd" d="M78.5508 822.743C78.5508 822.743 83.3298 821.219 85.3778 821.219C86.2188 821.219 86.9008 821.902 86.9008 822.743C86.9008 823.584 86.2188 824.267 85.3778 824.267C83.3298 824.267 78.5508 822.743 78.5508 822.743Z" fill="#EDF5F9"/>
<path fill-rule="evenodd" clip-rule="evenodd" d="M345.789 973.45C345.789 973.45 352.231 971.395 354.992 971.395C356.126 971.395 357.047 972.316 357.047 973.45C357.047 974.584 356.126 975.504 354.992 975.504C352.231 975.504 345.789 973.45 345.789 973.45Z" fill="#EDF5F9"/>
<path fill-rule="evenodd" clip-rule="evenodd" d="M207.559 880.399C207.559 880.399 212.338 878.875 214.386 878.875C215.227 878.875 215.91 879.558 215.91 880.399C215.91 881.24 215.227 881.923 214.386 881.923C212.338 881.923 207.559 880.399 207.559 880.399Z" fill="#EDF5F9"/>
<path fill-rule="evenodd" clip-rule="evenodd" d="M181.066 987.963C181.066 987.963 188.897 985.465 192.254 985.465C193.632 985.465 194.751 986.584 194.751 987.963C194.751 989.341 193.632 990.461 192.254 990.461C188.897 990.461 181.066 987.963 181.066 987.963Z" fill="#EDF5F9"/>
<path fill-rule="evenodd" clip-rule="evenodd" d="M355.496 894.321C355.496 894.321 350.717 892.797 348.669 892.797C347.828 892.797 347.145 893.48 347.145 894.321C347.145 895.162 347.828 895.845 348.669 895.845C350.717 895.845 355.496 894.321 355.496 894.321Z" fill="#EDF5F9"/>
<path fill-rule="evenodd" clip-rule="evenodd" d="M106.276 833.333C106.276 833.333 101.498 831.809 99.4498 831.809C98.6088 831.809 97.9258 832.492 97.9258 833.333C97.9258 834.174 98.6088 834.857 99.4498 834.857C101.498 834.857 106.276 833.333 106.276 833.333Z" fill="#EDF5F9"/>
<path fill-rule="evenodd" clip-rule="evenodd" d="M383.168 987.726C383.168 987.726 376.726 985.672 373.965 985.672C372.831 985.672 371.91 986.592 371.91 987.726C371.91 988.86 372.831 989.781 373.965 989.781C376.726 989.781 383.168 987.726 383.168 987.726Z" fill="#EDF5F9"/>
<path fill-rule="evenodd" clip-rule="evenodd" d="M218.987 854.055C218.987 854.055 214.209 852.531 212.161 852.531C211.32 852.531 210.637 853.214 210.637 854.055C210.637 854.897 211.32 855.579 212.161 855.579C214.209 855.579 218.987 854.055 218.987 854.055Z" fill="#EDF5F9"/>
<path fill-rule="evenodd" clip-rule="evenodd" d="M294.987 908.969C294.987 908.969 290.208 907.445 288.161 907.445C287.319 907.445 286.637 908.128 286.637 908.969C286.637 909.81 287.319 910.493 288.161 910.493C290.208 910.493 294.987 908.969 294.987 908.969Z" fill="#EDF5F9"/>
<path fill-rule="evenodd" clip-rule="evenodd" d="M135.577 879.118C135.577 879.118 130.798 877.594 128.751 877.594C127.909 877.594 127.227 878.277 127.227 879.118C127.227 879.959 127.909 880.642 128.751 880.642C130.798 880.642 135.577 879.118 135.577 879.118Z" fill="#EDF5F9"/>
<path fill-rule="evenodd" clip-rule="evenodd" d="M33.0805 875.266C33.0805 875.266 28.3025 873.742 26.2545 873.742C25.4135 873.742 24.7305 874.425 24.7305 875.266C24.7305 876.107 25.4135 876.79 26.2545 876.79C28.3025 876.79 33.0805 875.266 33.0805 875.266Z" fill="#EDF5F9"/>
<path fill-rule="evenodd" clip-rule="evenodd" d="M73.6553 991.951C73.6553 991.951 67.1933 989.891 64.4243 989.891C63.2873 989.891 62.3633 990.814 62.3633 991.951C62.3633 993.089 63.2873 994.012 64.4243 994.012C67.1933 994.012 73.6553 991.951 73.6553 991.951Z" fill="#EDF5F9"/>
<path fill-rule="evenodd" clip-rule="evenodd" d="M377.377 883.731C377.377 883.731 372.599 882.207 370.551 882.207C369.71 882.207 369.027 882.89 369.027 883.731C369.027 884.572 369.71 885.255 370.551 885.255C372.599 885.255 377.377 883.731 377.377 883.731Z" fill="#EDF5F9"/>
<path fill-rule="evenodd" clip-rule="evenodd" d="M128.155 822.743C128.155 822.743 123.377 821.219 121.329 821.219C120.488 821.219 119.805 821.902 119.805 822.743C119.805 823.584 120.488 824.267 121.329 824.267C123.377 824.267 128.155 822.743 128.155 822.743Z" fill="#EDF5F9"/>
<path fill-rule="evenodd" clip-rule="evenodd" d="M412.668 973.45C412.668 973.45 406.226 971.395 403.465 971.395C402.331 971.395 401.41 972.316 401.41 973.45C401.41 974.584 402.331 975.504 403.465 975.504C406.226 975.504 412.668 973.45 412.668 973.45Z" fill="#EDF5F9"/>
<path fill-rule="evenodd" clip-rule="evenodd" d="M272.08 867.743C272.08 867.743 267.302 866.219 265.254 866.219C264.413 866.219 263.73 866.902 263.73 867.743C263.73 868.584 264.413 869.267 265.254 869.267C267.302 869.267 272.08 867.743 272.08 867.743Z" fill="#EDF5F9"/>
<path fill-rule="evenodd" clip-rule="evenodd" d="M125.541 1001.63C125.541 1001.63 117.709 999.137 114.353 999.137C112.975 999.137 111.855 1000.26 111.855 1001.63C111.855 1003.01 112.975 1004.13 114.353 1004.13C117.709 1004.13 125.541 1001.63 125.541 1001.63Z" fill="#EDF5F9"/>
<path fill-rule="evenodd" clip-rule="evenodd" d="M327.772 883.731C327.772 883.731 322.993 882.207 320.946 882.207C320.104 882.207 319.422 882.89 319.422 883.731C319.422 884.572 320.104 885.255 320.946 885.255C322.993 885.255 327.772 883.731 327.772 883.731Z" fill="#EDF5F9"/>
<path fill-rule="evenodd" clip-rule="evenodd" d="M78.5492 822.743C78.5492 822.743 73.7712 821.219 71.7232 821.219C70.8822 821.219 70.1992 821.902 70.1992 822.743C70.1992 823.584 70.8822 824.267 71.7232 824.267C73.7712 824.267 78.5492 822.743 78.5492 822.743Z" fill="#EDF5F9"/>
<path fill-rule="evenodd" clip-rule="evenodd" d="M345.789 973.45C345.789 973.45 339.347 971.395 336.585 971.395C335.452 971.395 334.531 972.316 334.531 973.45C334.531 974.584 335.452 975.504 336.585 975.504C339.347 975.504 345.789 973.45 345.789 973.45Z" fill="#EDF5F9"/>
<path fill-rule="evenodd" clip-rule="evenodd" d="M207.557 880.399C207.557 880.399 202.779 878.875 200.731 878.875C199.89 878.875 199.207 879.558 199.207 880.399C199.207 881.24 199.89 881.923 200.731 881.923C202.779 881.923 207.557 880.399 207.557 880.399Z" fill="#EDF5F9"/>
<path fill-rule="evenodd" clip-rule="evenodd" d="M181.069 987.963C181.069 987.963 173.237 985.465 169.881 985.465C168.503 985.465 167.383 986.584 167.383 987.963C167.383 989.341 168.503 990.461 169.881 990.461C173.237 990.461 181.069 987.963 181.069 987.963Z" fill="#EDF5F9"/>
<path fill-rule="evenodd" clip-rule="evenodd" d="M355.496 894.322C355.496 894.322 356.986 891.191 358.224 890.287C359.035 889.696 360.32 889.673 361.092 890.236C361.864 890.8 361.833 891.738 361.022 892.33C359.784 893.234 355.496 894.322 355.496 894.322Z" fill="#EDF5F9"/>
<path fill-rule="evenodd" clip-rule="evenodd" d="M106.273 833.333C106.273 833.333 107.763 830.203 109.001 829.299C109.812 828.707 111.097 828.684 111.869 829.248C112.641 829.812 112.61 830.75 111.799 831.342C110.561 832.245 106.273 833.333 106.273 833.333Z" fill="#EDF5F9"/>
<path fill-rule="evenodd" clip-rule="evenodd" d="M383.168 987.726C383.168 987.726 385.177 983.506 386.847 982.287C387.94 981.489 389.672 981.459 390.713 982.219C391.754 982.979 391.712 984.243 390.619 985.041C388.95 986.26 383.168 987.726 383.168 987.726Z" fill="#EDF5F9"/>
<path fill-rule="evenodd" clip-rule="evenodd" d="M218.984 854.056C218.984 854.056 220.474 850.926 221.713 850.022C222.523 849.43 223.808 849.407 224.58 849.971C225.353 850.535 225.321 851.473 224.511 852.065C223.272 852.969 218.984 854.056 218.984 854.056Z" fill="#EDF5F9"/>
<path fill-rule="evenodd" clip-rule="evenodd" d="M294.984 908.966C294.984 908.966 296.474 905.836 297.712 904.932C298.523 904.34 299.808 904.317 300.58 904.881C301.352 905.445 301.321 906.383 300.51 906.975C299.272 907.878 294.984 908.966 294.984 908.966Z" fill="#EDF5F9"/>
<path fill-rule="evenodd" clip-rule="evenodd" d="M135.578 879.119C135.578 879.119 137.068 875.988 138.306 875.084C139.117 874.493 140.402 874.47 141.174 875.033C141.946 875.597 141.915 876.535 141.104 877.127C139.866 878.031 135.578 879.119 135.578 879.119Z" fill="#EDF5F9"/>
<path fill-rule="evenodd" clip-rule="evenodd" d="M33.082 875.267C33.082 875.267 34.572 872.136 35.811 871.232C36.621 870.641 37.906 870.618 38.678 871.181C39.451 871.745 39.419 872.683 38.609 873.275C37.37 874.179 33.082 875.267 33.082 875.267Z" fill="#EDF5F9"/>
<path fill-rule="evenodd" clip-rule="evenodd" d="M73.6562 991.951C73.6562 991.951 75.6713 987.718 77.3453 986.496C78.4413 985.696 80.1793 985.665 81.2233 986.427C82.2673 987.189 82.2253 988.458 81.1283 989.258C79.4543 990.481 73.6562 991.951 73.6562 991.951Z" fill="#EDF5F9"/>
<path fill-rule="evenodd" clip-rule="evenodd" d="M377.379 883.732C377.379 883.732 378.869 880.602 380.107 879.698C380.918 879.106 382.203 879.083 382.975 879.647C383.747 880.211 383.716 881.149 382.905 881.741C381.667 882.645 377.379 883.732 377.379 883.732Z" fill="#EDF5F9"/>
<path fill-rule="evenodd" clip-rule="evenodd" d="M128.156 822.743C128.156 822.743 129.646 819.612 130.885 818.709C131.695 818.117 132.98 818.094 133.753 818.658C134.525 819.221 134.493 820.159 133.683 820.751C132.445 821.655 128.156 822.743 128.156 822.743Z" fill="#EDF5F9"/>
<path fill-rule="evenodd" clip-rule="evenodd" d="M412.668 973.449C412.668 973.449 414.677 969.228 416.346 968.009C417.439 967.212 419.172 967.181 420.213 967.941C421.254 968.701 421.212 969.965 420.119 970.763C418.449 971.982 412.668 973.449 412.668 973.449Z" fill="#EDF5F9"/>
<path fill-rule="evenodd" clip-rule="evenodd" d="M272.078 867.743C272.078 867.743 273.568 864.613 274.807 863.709C275.617 863.117 276.902 863.094 277.675 863.658C278.447 864.222 278.415 865.16 277.605 865.751C276.367 866.655 272.078 867.743 272.078 867.743Z" fill="#EDF5F9"/>
<path fill-rule="evenodd" clip-rule="evenodd" d="M125.539 1001.63C125.539 1001.63 127.981 996.503 130.01 995.022C131.339 994.052 133.445 994.015 134.711 994.938C135.976 995.862 135.925 997.4 134.596 998.37C132.567 999.851 125.539 1001.63 125.539 1001.63Z" fill="#EDF5F9"/>
<path fill-rule="evenodd" clip-rule="evenodd" d="M327.773 883.732C327.773 883.732 329.263 880.602 330.501 879.698C331.312 879.106 332.597 879.083 333.369 879.647C334.141 880.211 334.11 881.149 333.299 881.741C332.061 882.645 327.773 883.732 327.773 883.732Z" fill="#EDF5F9"/>
<path fill-rule="evenodd" clip-rule="evenodd" d="M78.5508 822.743C78.5508 822.743 80.0408 819.612 81.2788 818.709C82.0898 818.117 83.3748 818.094 84.1468 818.658C84.9188 819.221 84.8878 820.159 84.0768 820.751C82.8388 821.655 78.5508 822.743 78.5508 822.743Z" fill="#EDF5F9"/>
<path fill-rule="evenodd" clip-rule="evenodd" d="M345.789 973.449C345.789 973.449 347.798 969.228 349.467 968.009C350.56 967.212 352.293 967.181 353.334 967.941C354.375 968.701 354.333 969.965 353.24 970.763C351.57 971.982 345.789 973.449 345.789 973.449Z" fill="#EDF5F9"/>
<path fill-rule="evenodd" clip-rule="evenodd" d="M207.559 880.4C207.559 880.4 209.049 877.27 210.288 876.366C211.098 875.774 212.383 875.751 213.156 876.315C213.928 876.879 213.896 877.817 213.086 878.409C211.848 879.313 207.559 880.4 207.559 880.4Z" fill="#EDF5F9"/>
<path fill-rule="evenodd" clip-rule="evenodd" d="M181.066 987.962C181.066 987.962 183.508 982.831 185.537 981.35C186.866 980.38 188.972 980.343 190.238 981.266C191.503 982.19 191.452 983.728 190.123 984.698C188.094 986.179 181.066 987.962 181.066 987.962Z" fill="#EDF5F9"/>
<path fill-rule="evenodd" clip-rule="evenodd" d="M355.496 894.32C355.496 894.32 351.208 895.407 349.969 896.311C349.159 896.903 349.127 897.841 349.9 898.405C350.672 898.969 351.957 898.946 352.768 898.354C354.006 897.45 355.496 894.32 355.496 894.32Z" fill="#EDF5F9"/>
<path fill-rule="evenodd" clip-rule="evenodd" d="M106.272 833.332C106.272 833.332 101.984 834.42 100.746 835.324C99.9354 835.916 99.9044 836.854 100.676 837.418C101.448 837.981 102.733 837.958 103.544 837.367C104.782 836.463 106.272 833.332 106.272 833.332Z" fill="#EDF5F9"/>
<path fill-rule="evenodd" clip-rule="evenodd" d="M383.169 987.727C383.169 987.727 377.388 989.194 375.719 990.413C374.626 991.211 374.584 992.475 375.625 993.235C376.666 993.995 378.398 993.965 379.491 993.167C381.16 991.948 383.169 987.727 383.169 987.727Z" fill="#EDF5F9"/>
<path fill-rule="evenodd" clip-rule="evenodd" d="M218.987 854.055C218.987 854.055 214.699 855.143 213.461 856.047C212.65 856.639 212.619 857.577 213.391 858.141C214.163 858.704 215.448 858.682 216.259 858.09C217.497 857.186 218.987 854.055 218.987 854.055Z" fill="#EDF5F9"/>
<path fill-rule="evenodd" clip-rule="evenodd" d="M294.987 908.969C294.987 908.969 290.699 910.057 289.461 910.961C288.65 911.553 288.619 912.491 289.391 913.054C290.163 913.618 291.448 913.595 292.259 913.003C293.497 912.1 294.987 908.969 294.987 908.969Z" fill="#EDF5F9"/>
<path fill-rule="evenodd" clip-rule="evenodd" d="M135.577 879.117C135.577 879.117 131.289 880.204 130.051 881.108C129.24 881.7 129.209 882.638 129.981 883.202C130.753 883.766 132.038 883.743 132.849 883.151C134.087 882.247 135.577 879.117 135.577 879.117Z" fill="#EDF5F9"/>
<path fill-rule="evenodd" clip-rule="evenodd" d="M33.081 875.27C33.081 875.27 28.793 876.356 27.555 877.26C26.744 877.852 26.713 878.79 27.485 879.354C28.257 879.918 29.542 879.896 30.353 879.304C31.591 878.4 33.081 875.27 33.081 875.27Z" fill="#EDF5F9"/>
<path fill-rule="evenodd" clip-rule="evenodd" d="M73.6553 991.949C73.6553 991.949 67.8563 993.42 66.1823 994.643C65.0863 995.443 65.0443 996.711 66.0883 997.474C67.1323 998.236 68.8693 998.205 69.9663 997.405C71.6403 996.182 73.6553 991.949 73.6553 991.949Z" fill="#EDF5F9"/>
<path fill-rule="evenodd" clip-rule="evenodd" d="M377.378 883.73C377.378 883.73 373.09 884.818 371.852 885.722C371.041 886.314 371.01 887.252 371.782 887.816C372.554 888.379 373.839 888.356 374.65 887.765C375.888 886.861 377.378 883.73 377.378 883.73Z" fill="#EDF5F9"/>
<path fill-rule="evenodd" clip-rule="evenodd" d="M128.155 822.746C128.155 822.746 123.867 823.834 122.629 824.738C121.818 825.329 121.787 826.267 122.559 826.831C123.331 827.395 124.617 827.372 125.427 826.78C126.665 825.876 128.155 822.746 128.155 822.746Z" fill="#EDF5F9"/>
<path fill-rule="evenodd" clip-rule="evenodd" d="M412.666 973.449C412.666 973.449 406.885 974.915 405.215 976.134C404.122 976.932 404.08 978.196 405.121 978.956C406.162 979.716 407.895 979.686 408.988 978.888C410.657 977.669 412.666 973.449 412.666 973.449Z" fill="#EDF5F9"/>
<path fill-rule="evenodd" clip-rule="evenodd" d="M272.081 867.746C272.081 867.746 267.793 868.834 266.555 869.738C265.744 870.33 265.713 871.268 266.485 871.831C267.257 872.395 268.543 872.372 269.353 871.78C270.591 870.876 272.081 867.746 272.081 867.746Z" fill="#EDF5F9"/>
<path fill-rule="evenodd" clip-rule="evenodd" d="M125.541 1001.63C125.541 1001.63 118.513 1003.42 116.484 1004.9C115.155 1005.87 115.104 1007.41 116.369 1008.33C117.635 1009.25 119.741 1009.22 121.07 1008.25C123.099 1006.76 125.541 1001.63 125.541 1001.63Z" fill="#EDF5F9"/>
<path fill-rule="evenodd" clip-rule="evenodd" d="M327.772 883.73C327.772 883.73 323.484 884.818 322.246 885.722C321.435 886.314 321.404 887.252 322.176 887.816C322.948 888.379 324.233 888.356 325.044 887.765C326.282 886.861 327.772 883.73 327.772 883.73Z" fill="#EDF5F9"/>
<path fill-rule="evenodd" clip-rule="evenodd" d="M78.5498 822.746C78.5498 822.746 74.2618 823.834 73.0238 824.738C72.2128 825.329 72.1818 826.267 72.9538 826.831C73.7258 827.395 75.0108 827.372 75.8218 826.78C77.0598 825.876 78.5498 822.746 78.5498 822.746Z" fill="#EDF5F9"/>
<path fill-rule="evenodd" clip-rule="evenodd" d="M345.787 973.449C345.787 973.449 340.006 974.915 338.336 976.134C337.243 976.932 337.201 978.196 338.242 978.956C339.283 979.716 341.016 979.686 342.109 978.888C343.778 977.669 345.787 973.449 345.787 973.449Z" fill="#EDF5F9"/>
<path fill-rule="evenodd" clip-rule="evenodd" d="M207.558 880.402C207.558 880.402 203.27 881.49 202.032 882.394C201.221 882.986 201.19 883.924 201.962 884.488C202.734 885.051 204.02 885.028 204.83 884.437C206.068 883.533 207.558 880.402 207.558 880.402Z" fill="#EDF5F9"/>
<path fill-rule="evenodd" clip-rule="evenodd" d="M181.069 987.961C181.069 987.961 174.041 989.744 172.012 991.225C170.683 992.195 170.632 993.733 171.897 994.656C173.163 995.58 175.269 995.543 176.598 994.573C178.627 993.091 181.069 987.961 181.069 987.961Z" fill="#EDF5F9"/>
<path fill-rule="evenodd" clip-rule="evenodd" d="M355.496 894.32C355.496 894.32 359.784 895.407 361.022 896.311C361.833 896.903 361.864 897.841 361.092 898.405C360.32 898.969 359.035 898.946 358.224 898.354C356.986 897.45 355.496 894.32 355.496 894.32Z" fill="#EDF5F9"/>
<path fill-rule="evenodd" clip-rule="evenodd" d="M106.273 833.332C106.273 833.332 110.561 834.42 111.799 835.324C112.61 835.916 112.641 836.854 111.869 837.418C111.097 837.981 109.812 837.958 109.001 837.367C107.763 836.463 106.273 833.332 106.273 833.332Z" fill="#EDF5F9"/>
<path fill-rule="evenodd" clip-rule="evenodd" d="M383.168 987.727C383.168 987.727 388.95 989.194 390.619 990.413C391.712 991.211 391.754 992.475 390.713 993.235C389.672 993.995 387.94 993.965 386.847 993.167C385.177 991.948 383.168 987.727 383.168 987.727Z" fill="#EDF5F9"/>
<path fill-rule="evenodd" clip-rule="evenodd" d="M218.984 854.055C218.984 854.055 223.272 855.143 224.511 856.047C225.321 856.639 225.353 857.577 224.58 858.141C223.808 858.704 222.523 858.682 221.713 858.09C220.474 857.186 218.984 854.055 218.984 854.055Z" fill="#EDF5F9"/>
<path fill-rule="evenodd" clip-rule="evenodd" d="M294.984 908.969C294.984 908.969 299.272 910.057 300.51 910.961C301.321 911.553 301.352 912.491 300.58 913.054C299.808 913.618 298.523 913.595 297.712 913.003C296.474 912.1 294.984 908.969 294.984 908.969Z" fill="#EDF5F9"/>
<path fill-rule="evenodd" clip-rule="evenodd" d="M135.578 879.117C135.578 879.117 139.866 880.204 141.104 881.108C141.915 881.7 141.946 882.638 141.174 883.202C140.402 883.766 139.117 883.743 138.306 883.151C137.068 882.247 135.578 879.117 135.578 879.117Z" fill="#EDF5F9"/>
<path fill-rule="evenodd" clip-rule="evenodd" d="M33.082 875.27C33.082 875.27 37.37 876.356 38.609 877.26C39.419 877.852 39.451 878.79 38.678 879.354C37.906 879.918 36.621 879.896 35.811 879.304C34.572 878.4 33.082 875.27 33.082 875.27Z" fill="#EDF5F9"/>
<path fill-rule="evenodd" clip-rule="evenodd" d="M73.6562 991.949C73.6562 991.949 79.4543 993.42 81.1283 994.643C82.2253 995.443 82.2673 996.711 81.2233 997.474C80.1793 998.236 78.4413 998.205 77.3453 997.405C75.6713 996.182 73.6562 991.949 73.6562 991.949Z" fill="#EDF5F9"/>
<path fill-rule="evenodd" clip-rule="evenodd" d="M377.379 883.73C377.379 883.73 381.667 884.818 382.905 885.722C383.716 886.314 383.747 887.252 382.975 887.816C382.203 888.379 380.918 888.356 380.107 887.765C378.869 886.861 377.379 883.73 377.379 883.73Z" fill="#EDF5F9"/>
<path fill-rule="evenodd" clip-rule="evenodd" d="M128.156 822.746C128.156 822.746 132.445 823.834 133.683 824.738C134.493 825.329 134.525 826.267 133.753 826.831C132.98 827.395 131.695 827.372 130.885 826.78C129.646 825.876 128.156 822.746 128.156 822.746Z" fill="#EDF5F9"/>
<path fill-rule="evenodd" clip-rule="evenodd" d="M412.668 973.449C412.668 973.449 418.449 974.915 420.119 976.134C421.212 976.932 421.254 978.196 420.213 978.956C419.172 979.716 417.439 979.686 416.346 978.888C414.677 977.669 412.668 973.449 412.668 973.449Z" fill="#EDF5F9"/>
<path fill-rule="evenodd" clip-rule="evenodd" d="M272.078 867.746C272.078 867.746 276.367 868.834 277.605 869.738C278.415 870.33 278.447 871.268 277.675 871.831C276.902 872.395 275.617 872.372 274.807 871.78C273.568 870.876 272.078 867.746 272.078 867.746Z" fill="#EDF5F9"/>
<path fill-rule="evenodd" clip-rule="evenodd" d="M125.539 1001.63C125.539 1001.63 132.567 1003.42 134.596 1004.9C135.925 1005.87 135.976 1007.41 134.711 1008.33C133.445 1009.25 131.339 1009.22 130.01 1008.25C127.981 1006.76 125.539 1001.63 125.539 1001.63Z" fill="#EDF5F9"/>
<path fill-rule="evenodd" clip-rule="evenodd" d="M327.773 883.73C327.773 883.73 332.061 884.818 333.299 885.722C334.11 886.314 334.141 887.252 333.369 887.816C332.597 888.379 331.312 888.356 330.501 887.765C329.263 886.861 327.773 883.73 327.773 883.73Z" fill="#EDF5F9"/>
<path fill-rule="evenodd" clip-rule="evenodd" d="M78.5508 822.746C78.5508 822.746 82.8388 823.834 84.0768 824.738C84.8878 825.329 84.9188 826.267 84.1468 826.831C83.3748 827.395 82.0898 827.372 81.2788 826.78C80.0408 825.876 78.5508 822.746 78.5508 822.746Z" fill="#EDF5F9"/>
<path fill-rule="evenodd" clip-rule="evenodd" d="M345.789 973.449C345.789 973.449 351.57 974.915 353.24 976.134C354.333 976.932 354.375 978.196 353.334 978.956C352.293 979.716 350.56 979.686 349.467 978.888C347.798 977.669 345.789 973.449 345.789 973.449Z" fill="#EDF5F9"/>
<path fill-rule="evenodd" clip-rule="evenodd" d="M207.559 880.402C207.559 880.402 211.848 881.49 213.086 882.394C213.896 882.986 213.928 883.924 213.156 884.488C212.383 885.051 211.098 885.028 210.288 884.437C209.049 883.533 207.559 880.402 207.559 880.402Z" fill="#EDF5F9"/>
<path fill-rule="evenodd" clip-rule="evenodd" d="M181.066 987.961C181.066 987.961 188.094 989.744 190.123 991.225C191.452 992.195 191.503 993.733 190.238 994.656C188.972 995.58 186.866 995.543 185.537 994.573C183.508 993.091 181.066 987.961 181.066 987.961Z" fill="#EDF5F9"/>
<path fill-rule="evenodd" clip-rule="evenodd" d="M355.496 894.322C355.496 894.322 354.006 891.191 352.768 890.287C351.957 889.696 350.672 889.673 349.9 890.236C349.127 890.8 349.159 891.738 349.969 892.33C351.208 893.234 355.496 894.322 355.496 894.322Z" fill="#EDF5F9"/>
<path fill-rule="evenodd" clip-rule="evenodd" d="M106.272 833.333C106.272 833.333 104.782 830.203 103.544 829.299C102.733 828.707 101.448 828.684 100.676 829.248C99.9044 829.812 99.9354 830.75 100.746 831.342C101.984 832.245 106.272 833.333 106.272 833.333Z" fill="#EDF5F9"/>
<path fill-rule="evenodd" clip-rule="evenodd" d="M383.169 987.726C383.169 987.726 381.16 983.506 379.491 982.287C378.398 981.489 376.666 981.459 375.625 982.219C374.584 982.979 374.626 984.243 375.719 985.041C377.388 986.26 383.169 987.726 383.169 987.726Z" fill="#EDF5F9"/>
<path fill-rule="evenodd" clip-rule="evenodd" d="M218.987 854.056C218.987 854.056 217.497 850.926 216.259 850.022C215.448 849.43 214.163 849.407 213.391 849.971C212.619 850.535 212.65 851.473 213.461 852.065C214.699 852.969 218.987 854.056 218.987 854.056Z" fill="#EDF5F9"/>
<path fill-rule="evenodd" clip-rule="evenodd" d="M294.987 908.966C294.987 908.966 293.497 905.836 292.259 904.932C291.448 904.34 290.163 904.317 289.391 904.881C288.619 905.445 288.65 906.383 289.461 906.975C290.699 907.878 294.987 908.966 294.987 908.966Z" fill="#EDF5F9"/>
<path fill-rule="evenodd" clip-rule="evenodd" d="M135.577 879.119C135.577 879.119 134.087 875.988 132.849 875.084C132.038 874.493 130.753 874.47 129.981 875.033C129.209 875.597 129.24 876.535 130.051 877.127C131.289 878.031 135.577 879.119 135.577 879.119Z" fill="#EDF5F9"/>
<path fill-rule="evenodd" clip-rule="evenodd" d="M33.081 875.267C33.081 875.267 31.591 872.136 30.353 871.232C29.542 870.641 28.257 870.618 27.485 871.181C26.713 871.745 26.744 872.683 27.555 873.275C28.793 874.179 33.081 875.267 33.081 875.267Z" fill="#EDF5F9"/>
<path fill-rule="evenodd" clip-rule="evenodd" d="M73.6553 991.951C73.6553 991.951 71.6403 987.718 69.9663 986.496C68.8693 985.696 67.1323 985.665 66.0883 986.427C65.0443 987.189 65.0863 988.458 66.1823 989.258C67.8563 990.481 73.6553 991.951 73.6553 991.951Z" fill="#EDF5F9"/>
<path fill-rule="evenodd" clip-rule="evenodd" d="M377.378 883.732C377.378 883.732 375.888 880.602 374.65 879.698C373.839 879.106 372.554 879.083 371.782 879.647C371.01 880.211 371.041 881.149 371.852 881.741C373.09 882.645 377.378 883.732 377.378 883.732Z" fill="#EDF5F9"/>
<path fill-rule="evenodd" clip-rule="evenodd" d="M128.155 822.743C128.155 822.743 126.665 819.612 125.427 818.709C124.617 818.117 123.331 818.094 122.559 818.658C121.787 819.221 121.818 820.159 122.629 820.751C123.867 821.655 128.155 822.743 128.155 822.743Z" fill="#EDF5F9"/>
<path fill-rule="evenodd" clip-rule="evenodd" d="M412.666 973.449C412.666 973.449 410.657 969.228 408.988 968.009C407.895 967.212 406.162 967.181 405.121 967.941C404.08 968.701 404.122 969.965 405.215 970.763C406.885 971.982 412.666 973.449 412.666 973.449Z" fill="#EDF5F9"/>
<path fill-rule="evenodd" clip-rule="evenodd" d="M272.081 867.743C272.081 867.743 270.591 864.613 269.353 863.709C268.543 863.117 267.257 863.094 266.485 863.658C265.713 864.222 265.744 865.16 266.555 865.751C267.793 866.655 272.081 867.743 272.081 867.743Z" fill="#EDF5F9"/>
<path fill-rule="evenodd" clip-rule="evenodd" d="M125.541 1001.63C125.541 1001.63 123.099 996.503 121.07 995.022C119.741 994.052 117.635 994.015 116.369 994.938C115.104 995.862 115.155 997.4 116.484 998.37C118.513 999.851 125.541 1001.63 125.541 1001.63Z" fill="#EDF5F9"/>
<path fill-rule="evenodd" clip-rule="evenodd" d="M327.772 883.732C327.772 883.732 326.282 880.602 325.044 879.698C324.233 879.106 322.948 879.083 322.176 879.647C321.404 880.211 321.435 881.149 322.246 881.741C323.484 882.645 327.772 883.732 327.772 883.732Z" fill="#EDF5F9"/>
<path fill-rule="evenodd" clip-rule="evenodd" d="M78.5498 822.743C78.5498 822.743 77.0598 819.612 75.8218 818.709C75.0108 818.117 73.7258 818.094 72.9538 818.658C72.1818 819.221 72.2128 820.159 73.0238 820.751C74.2618 821.655 78.5498 822.743 78.5498 822.743Z" fill="#EDF5F9"/>
<path fill-rule="evenodd" clip-rule="evenodd" d="M345.787 973.449C345.787 973.449 343.778 969.228 342.109 968.009C341.016 967.212 339.283 967.181 338.242 967.941C337.201 968.701 337.243 969.965 338.336 970.763C340.006 971.982 345.787 973.449 345.787 973.449Z" fill="#EDF5F9"/>
<path fill-rule="evenodd" clip-rule="evenodd" d="M207.558 880.4C207.558 880.4 206.068 877.27 204.83 876.366C204.02 875.774 202.734 875.751 201.962 876.315C201.19 876.879 201.221 877.817 202.032 878.409C203.27 879.313 207.558 880.4 207.558 880.4Z" fill="#EDF5F9"/>
<path fill-rule="evenodd" clip-rule="evenodd" d="M181.069 987.962C181.069 987.962 178.627 982.831 176.598 981.35C175.269 980.38 173.163 980.343 171.897 981.266C170.632 982.19 170.683 983.728 172.012 984.698C174.041 986.179 181.069 987.962 181.069 987.962Z" fill="#EDF5F9"/>
<path d="M355.497 895.925C356.71 895.925 357.693 895.207 357.693 894.322C357.693 893.436 356.71 892.719 355.497 892.719C354.284 892.719 353.301 893.436 353.301 894.322C353.301 895.207 354.284 895.925 355.497 895.925Z" fill="#F3BC6E"/>
<path d="M106.274 834.936C107.487 834.936 108.47 834.219 108.47 833.333C108.47 832.448 107.487 831.73 106.274 831.73C105.061 831.73 104.078 832.448 104.078 833.333C104.078 834.219 105.061 834.936 106.274 834.936Z" fill="#F3BC6E"/>
<path d="M383.168 989.887C384.803 989.887 386.129 988.919 386.129 987.724C386.129 986.53 384.803 985.562 383.168 985.562C381.533 985.562 380.207 986.53 380.207 987.724C380.207 988.919 381.533 989.887 383.168 989.887Z" fill="#F3BC6E"/>
<path d="M218.985 855.659C220.198 855.659 221.181 854.941 221.181 854.056C221.181 853.171 220.198 852.453 218.985 852.453C217.772 852.453 216.789 853.171 216.789 854.056C216.789 854.941 217.772 855.659 218.985 855.659Z" fill="#F3BC6E"/>
<path d="M294.985 910.569C296.198 910.569 297.181 909.852 297.181 908.966C297.181 908.081 296.198 907.363 294.985 907.363C293.772 907.363 292.789 908.081 292.789 908.966C292.789 909.852 293.772 910.569 294.985 910.569Z" fill="#F3BC6E"/>
<path d="M135.575 880.722C136.788 880.722 137.771 880.004 137.771 879.119C137.771 878.233 136.788 877.516 135.575 877.516C134.362 877.516 133.379 878.233 133.379 879.119C133.379 880.004 134.362 880.722 135.575 880.722Z" fill="#F3BC6E"/>
<path d="M33.0827 876.87C34.2955 876.87 35.2787 876.152 35.2787 875.267C35.2787 874.382 34.2955 873.664 33.0827 873.664C31.8699 873.664 30.8867 874.382 30.8867 875.267C30.8867 876.152 31.8699 876.87 33.0827 876.87Z" fill="#F3BC6E"/>
<path d="M73.6575 994.117C75.2978 994.117 76.6275 993.147 76.6275 991.949C76.6275 990.752 75.2978 989.781 73.6575 989.781C72.0172 989.781 70.6875 990.752 70.6875 991.949C70.6875 993.147 72.0172 994.117 73.6575 994.117Z" fill="#F3BC6E"/>
<path d="M377.376 885.335C378.589 885.335 379.572 884.617 379.572 883.732C379.572 882.847 378.589 882.129 377.376 882.129C376.163 882.129 375.18 882.847 375.18 883.732C375.18 884.617 376.163 885.335 377.376 885.335Z" fill="#F3BC6E"/>
<path d="M128.153 824.347C129.366 824.347 130.349 823.629 130.349 822.744C130.349 821.858 129.366 821.141 128.153 821.141C126.94 821.141 125.957 821.858 125.957 822.744C125.957 823.629 126.94 824.347 128.153 824.347Z" fill="#F3BC6E"/>
<path d="M412.668 975.613C414.303 975.613 415.629 974.645 415.629 973.451C415.629 972.257 414.303 971.289 412.668 971.289C411.033 971.289 409.707 972.257 409.707 973.451C409.707 974.645 411.033 975.613 412.668 975.613Z" fill="#F3BC6E"/>
<path d="M272.079 869.347C273.292 869.347 274.275 868.629 274.275 867.744C274.275 866.858 273.292 866.141 272.079 866.141C270.866 866.141 269.883 866.858 269.883 867.744C269.883 868.629 270.866 869.347 272.079 869.347Z" fill="#F3BC6E"/>
<path d="M125.541 1004.26C127.53 1004.26 129.141 1003.08 129.141 1001.63C129.141 1000.18 127.53 999.004 125.541 999.004C123.553 999.004 121.941 1000.18 121.941 1001.63C121.941 1003.08 123.553 1004.26 125.541 1004.26Z" fill="#F3BC6E"/>
<path d="M327.774 885.335C328.987 885.335 329.97 884.617 329.97 883.732C329.97 882.847 328.987 882.129 327.774 882.129C326.561 882.129 325.578 882.847 325.578 883.732C325.578 884.617 326.561 885.335 327.774 885.335Z" fill="#F3BC6E"/>
<path d="M78.5476 824.347C79.7604 824.347 80.7436 823.629 80.7436 822.744C80.7436 821.858 79.7604 821.141 78.5476 821.141C77.3348 821.141 76.3516 821.858 76.3516 822.744C76.3516 823.629 77.3348 824.347 78.5476 824.347Z" fill="#F3BC6E"/>
<path d="M345.789 975.613C347.424 975.613 348.75 974.645 348.75 973.451C348.75 972.257 347.424 971.289 345.789 971.289C344.154 971.289 342.828 972.257 342.828 973.451C342.828 974.645 344.154 975.613 345.789 975.613Z" fill="#F3BC6E"/>
<path d="M207.559 882.003C208.772 882.003 209.755 881.285 209.755 880.4C209.755 879.515 208.772 878.797 207.559 878.797C206.346 878.797 205.363 879.515 205.363 880.4C205.363 881.285 206.346 882.003 207.559 882.003Z" fill="#F3BC6E"/>
<path d="M181.069 990.592C183.057 990.592 184.669 989.415 184.669 987.964C184.669 986.513 183.057 985.336 181.069 985.336C179.081 985.336 177.469 986.513 177.469 987.964C177.469 989.415 179.081 990.592 181.069 990.592Z" fill="#F3BC6E"/>
<path fill-rule="evenodd" clip-rule="evenodd" d="M304.366 740.131C304.366 740.131 314.791 721.956 313.439 714.613C312.245 708.122 306.005 703.821 299.515 705.015C293.024 706.21 288.724 712.45 289.918 718.941C291.269 726.284 304.366 740.131 304.366 740.131Z" fill="#F47BCA"/>
<path fill-rule="evenodd" clip-rule="evenodd" d="M308.034 735.596C308.034 735.596 297.824 728.07 292.591 727.955C287.965 727.854 284.127 731.527 284.026 736.153C283.924 740.779 287.597 744.617 292.223 744.718C297.456 744.833 308.034 735.596 308.034 735.596Z" fill="#F58DD1"/>
<path fill-rule="evenodd" clip-rule="evenodd" d="M308.517 737.322C309.563 735.962 309.306 734.008 307.946 732.963C306.585 731.918 304.632 732.174 303.587 733.534L294.675 745.135C293.629 746.495 293.885 748.449 295.246 749.494C296.607 750.539 298.56 750.283 299.605 748.923L308.517 737.322Z" fill="#6F6F6F"/>
<path d="M307.547 734.083C307.547 734.083 316.546 726.498 317.459 730.852" stroke="#6F6F6F" stroke-width="0.83" stroke-miterlimit="1.5" stroke-linecap="round" stroke-linejoin="round"/>
<path d="M307.008 734.713C307.008 734.713 312.449 724.278 314.948 727.958" stroke="#6F6F6F" stroke-width="0.83" stroke-miterlimit="1.5" stroke-linecap="round" stroke-linejoin="round"/>
<path fill-rule="evenodd" clip-rule="evenodd" d="M298.71 744.186C298.71 744.186 308.391 722.48 306.871 714.221C305.528 706.92 298.51 702.084 291.209 703.427C283.909 704.771 279.072 711.789 280.416 719.089C281.936 727.348 298.71 744.186 298.71 744.186Z" fill="url(#paint1_linear_698_14512)"/>
<path fill-rule="evenodd" clip-rule="evenodd" d="M298.709 744.187C298.709 744.187 289.311 729.358 283.425 729.229C278.222 729.115 273.905 733.246 273.791 738.449C273.677 743.652 277.808 747.969 283.011 748.083C288.897 748.212 298.709 744.187 298.709 744.187Z" fill="url(#paint2_linear_698_14512)"/>
<path fill-rule="evenodd" clip-rule="evenodd" d="M297.97 891.724C297.97 891.724 297.83 873.98 285.898 867.816C285.898 867.816 295.937 876.859 295.7 891.724H297.97Z" fill="#83BE24"/>
<path fill-rule="evenodd" clip-rule="evenodd" d="M297.109 891.724C297.109 891.724 297.318 865.255 315.117 856.059C315.117 856.059 300.142 869.549 300.495 891.724H297.109Z" fill="#83BE24"/>
<path fill-rule="evenodd" clip-rule="evenodd" d="M298.408 891.722C298.408 891.722 300.384 874.536 293.633 858.32C293.633 858.32 298.531 872.988 296.264 891.722H298.408Z" fill="#83BE24"/>
</g>
</g>
<defs>
<linearGradient id="paint0_linear_698_14512" x1="720.43" y1="0.718903" x2="720.43" y2="628.719" gradientUnits="userSpaceOnUse">
<stop stop-color="#ADD4E5"/>
<stop offset="1" stop-color="#F0F7FA"/>
</linearGradient>
<linearGradient id="paint1_linear_698_14512" x1="286.117" y1="720.48" x2="343.508" y2="765.146" gradientUnits="userSpaceOnUse">
<stop stop-color="#F8ABDC"/>
<stop offset="1" stop-color="#FF1DAD"/>
</linearGradient>
<linearGradient id="paint2_linear_698_14512" x1="286.116" y1="720.481" x2="343.508" y2="765.147" gradientUnits="userSpaceOnUse">
<stop stop-color="#F8ABDC"/>
<stop offset="1" stop-color="#FF1DAD"/>
</linearGradient>
<clipPath id="clip0_698_14512">
<rect width="423" height="1032" fill="white"/>
</clipPath>
</defs>
</svg>
