<svg width="48" height="186" viewBox="0 0 48 186" fill="none" xmlns="http://www.w3.org/2000/svg">
<path d="M47.7755 98.2508C47.6785 92.8878 47.5505 81.3098 47.5295 77.0718C47.5075 72.8338 46.2835 66.4328 46.1105 59.9468C45.9375 53.4598 45.7075 49.5218 43.2865 42.3688C40.8665 35.2168 42.1945 34.2618 41.5475 31.2048C40.5215 26.3538 40.1945 22.6898 39.0995 18.6848C38.3975 16.1118 37.4135 14.1948 35.4455 10.3608C33.7675 7.09083 32.9285 5.45582 32.3665 4.81682C30.0755 2.21082 29.3685 6.43881 26.2545 3.05181C24.5625 1.21081 22.4485 -0.596191 19.1585 0.801809C15.8685 2.19981 14.8595 10.7608 12.4055 10.9598C9.95049 11.1588 9.52449 10.0628 6.06949 20.5189C2.61449 30.9748 1.35149 44.9268 1.39249 53.1198C1.43349 61.3128 0.813481 63.6238 0.292481 71.5808C-0.229519 79.5368 0.166494 88.5488 0.186494 92.5048C0.206494 96.4598 -0.362514 108.942 0.394486 106.055C1.15149 103.167 0.960485 107.139 0.911485 111.383C0.863485 115.626 0.57048 127.238 1.80948 136.465C3.04748 145.691 4.33949 151.522 5.60449 151.985C6.86949 152.447 7.73749 157.747 8.46849 163.623C9.19949 169.499 11.9695 176.34 12.8755 175.136C13.7815 173.932 14.7505 171.31 15.2595 174.942C15.7685 178.575 17.2465 179.586 18.2295 179.789C19.2125 179.992 22.3985 185.669 23.3795 185.589C24.3615 185.509 25.9095 186.514 26.8715 182.479C27.8335 178.444 32.3755 174.966 33.4245 174.315C34.4735 173.665 35.6065 175.834 36.5715 172.364C37.5365 168.894 36.4225 170.68 35.8595 170.161C35.2955 169.641 36.8855 164.99 37.5865 164.933C38.2875 164.876 37.8045 166.329 38.2265 166.577C38.6485 166.825 39.6905 164.762 41.2785 159.828C42.8675 154.894 43.9555 148.023 44.4645 137.524C44.9725 127.025 43.9705 122.867 44.7285 120.261C45.4875 117.656 46.2175 109.4 46.2335 112.508C46.2485 115.616 45.9085 117.622 46.3935 116.452C46.8785 115.282 47.8725 103.613 47.7755 98.2508ZM45.8645 99.0098C45.3305 102.778 45.7055 105.421 45.2765 107.957C44.8475 110.492 44.1295 114.788 43.9205 112.039C43.7115 109.29 44.3495 108.2 44.2625 105.1C44.1935 102.61 43.9525 102.665 44.0155 100.215C44.0615 98.4638 44.2255 98.7428 44.5795 94.8828C44.7205 93.3528 44.7905 92.2618 45.0295 91.9028C45.1825 91.6728 45.3355 91.8138 45.4545 91.9968C46.2155 93.1618 46.3985 95.2418 45.8645 99.0098Z" fill="#AFD942"/>
<path d="M22.4764 179.868C23.6834 182.879 24.7204 179.686 25.3494 179.352C25.9794 179.018 26.7574 180.368 27.2374 178.068C27.7164 175.768 29.1794 173.671 31.5634 173.478C33.9474 173.284 33.3644 168.809 34.0724 170.165C34.7804 171.52 35.1984 170.921 35.0514 169.52C34.9034 168.119 34.1254 166.769 34.8954 166.424C35.6654 166.078 36.3494 162.631 36.9704 160.602C37.5914 158.573 37.6594 158.003 37.9454 159.11C38.2314 160.217 38.0994 161.924 38.5134 160.477C38.9274 159.03 38.4304 157.94 38.9144 156.488C39.3984 155.035 38.6924 154.244 37.9254 155.155C37.1584 156.065 37.4264 153.499 37.7694 152.058C38.1134 150.617 38.7334 148.306 39.4804 143.44C40.2274 138.575 39.5064 134.676 40.2034 133.772C40.9004 132.867 40.4324 137.427 40.7824 137.399C41.1334 137.371 42.3954 123.136 41.7644 123.187C41.1324 123.239 40.9144 121.56 41.3974 120.108C41.8814 118.655 41.8734 116.96 41.5854 115.57C41.2984 114.181 41.5014 112.751 41.8474 111.875C42.1944 110.999 42.1334 112.982 42.4114 112.394C42.6894 111.806 42.5204 106.167 43.0714 104.144C43.6224 102.121 43.5424 100.149 43.3244 98.4713C43.1054 96.7933 42.8724 92.2893 43.6404 91.6623C44.4094 91.0343 44.6724 87.6213 44.5164 84.5253C44.3614 81.4283 44.7774 80.5462 45.1284 80.5182C45.4784 80.4902 45.5504 80.7663 45.4004 78.8003C45.2504 76.8343 45.7184 72.2743 45.4954 69.7483C45.2724 67.2223 45.0534 65.5443 45.0334 61.5893C45.0134 57.6333 44.2424 57.6963 43.7434 56.0413C43.2434 54.3853 42.8914 54.1313 42.5974 51.3293C42.3024 48.5263 42.5114 48.2273 42.1434 44.8653C41.7764 41.5033 41.4154 39.5542 40.7134 39.3282C40.0104 39.1032 39.9264 36.2833 39.4224 33.7803C38.9194 31.2773 39.5414 29.5313 39.5964 26.4173C39.6514 23.3043 38.6734 24.2313 38.1684 21.4463C37.6634 18.6603 37.2454 19.2603 35.7524 15.1413C34.7594 12.4033 34.9494 10.6953 35.1884 9.85626C34.6614 8.83026 34.2234 7.97925 33.8534 7.28125C33.7334 8.07025 33.5874 9.14926 33.5514 9.95026C33.4884 11.3683 33.0014 12.2563 33.1504 13.9393C33.2994 15.6233 34.0694 15.2783 34.5624 15.8033C35.0564 16.3283 35.9784 18.2322 36.0594 20.4872C36.1404 22.7412 36.9534 30.8723 37.3224 34.5163C37.6914 38.1603 38.2734 42.3533 38.2784 43.4833C38.2844 44.6133 37.4204 40.1613 37.1974 37.6353C36.9744 35.1103 36.5534 35.1442 36.3264 31.7712C36.0994 28.3972 35.1104 27.0643 34.5424 25.6973C33.9744 24.3303 34.5294 23.1552 33.8224 22.0812C33.1154 21.0082 32.5574 21.6193 32.6404 24.1562C32.7234 26.6933 33.5594 25.4943 34.0554 26.5853C34.5524 27.6753 34.7714 29.3533 34.4994 31.0713C34.2264 32.7893 34.7374 36.7043 35.3124 39.4843C35.8874 42.2643 35.1854 42.0383 34.8404 43.1973C34.4954 44.3553 34.9204 45.1693 35.4194 46.8243C35.9184 48.4793 36.2134 51.2823 36.7104 52.3723C37.2064 53.4633 37.3434 52.8863 37.6354 55.1243C37.9274 57.3613 38.0014 58.2033 38.1574 61.2993C38.3134 64.3963 39.1044 68.2883 39.6754 70.2203C40.2464 72.1533 40.1874 74.4183 40.1374 78.3802C40.0864 82.3412 39.3084 80.9913 39.3884 82.9633C39.4684 84.9343 39.8764 82.3573 40.0324 85.4543C40.1874 88.5503 39.6454 92.2693 39.8614 93.3823C40.0774 94.4953 40.2764 92.2183 40.4714 89.0933C40.6654 85.9683 40.8664 83.9733 41.2124 83.0973C41.5594 82.2213 41.6904 80.5142 41.4004 78.5602C41.1104 76.6052 41.1744 75.4693 41.1614 72.9263C41.1494 70.3833 40.4354 67.8973 40.2854 65.9313C40.1354 63.9653 41.1294 66.4282 41.2804 68.6772C41.4324 70.9262 41.5134 73.1803 41.8014 74.5703C42.0894 75.9603 42.2394 77.9263 42.3274 81.5933C42.4164 85.2603 42.5204 92.0353 41.8034 88.9853C41.0864 85.9343 41.2464 89.8783 41.2674 94.1153C41.2894 98.3533 40.7944 97.5463 40.3104 98.9983C39.8264 100.451 39.9764 102.417 40.4634 101.53C40.9494 100.642 41.3144 103.439 41.1854 105.71C41.0564 107.982 40.3464 106.344 39.8564 106.384C39.3654 106.423 39.3094 109.255 39.1864 112.656C39.0624 116.058 38.7054 114.674 38.5064 116.951C38.3074 119.228 37.9044 122.935 37.3524 124.676C36.7994 126.417 35.3564 132.469 35.0114 133.628C34.6674 134.787 33.0764 139.438 32.4424 138.924C31.8094 138.41 31.5294 138.716 30.8344 139.902C30.1384 141.09 29.3844 144.542 28.4054 145.187C27.4264 145.832 25.9594 147.082 24.9134 148.297C23.8674 149.513 22.2704 152.752 21.5724 153.373C20.8734 153.995 19.1954 154.98 18.2754 153.359C17.3554 151.737 16.3604 149.274 15.2304 147.67C14.0994 146.066 14.3154 147.179 13.2414 142.744C12.1674 138.309 12.0044 133.8 11.8444 129.856C11.7564 127.692 11.5784 127.111 11.4264 126.975C11.1384 126.721 10.7294 128.44 10.5834 130.241C10.4484 131.907 10.8164 132.944 11.1154 138.395C11.2694 141.209 11.4944 144.017 12.0674 146.514C12.6414 149.011 13.4874 149.79 13.8464 151.457C14.2054 153.124 14.1384 153.694 14.6374 155.35C15.1364 157.005 15.6344 158.378 15.9954 160.327C16.3554 162.276 17.1334 163.626 17.6314 164.999C18.1294 166.372 18.4144 167.197 19.1944 168.829C19.9744 170.462 19.5514 170.213 18.7834 170.841C18.0144 171.469 17.7274 170.079 17.3034 169.548C16.8804 169.017 17.1704 170.972 17.3154 171.808C17.4594 172.644 18.2334 173.147 19.2184 173.632C20.2024 174.117 20.0614 173.846 21.1124 173.761C22.1644 173.675 21.2684 176.857 22.4764 179.868Z" fill="#5CAC49"/>
<path d="M32.6175 33.7663C32.0035 28.5443 31.3715 28.8292 30.8175 24.5852C30.3805 21.2292 30.3775 20.6643 29.8175 20.9923C29.2585 21.3203 29.1185 21.3322 28.6215 20.2412C28.1255 19.1512 27.8465 19.4562 27.0675 18.1062C26.2895 16.7562 25.5085 14.8412 24.9475 14.8872C24.3865 14.9322 23.8325 16.3913 22.7765 15.6283C21.7205 14.8663 20.4395 11.2962 18.8345 12.8402C17.2285 14.3832 16.2595 17.0062 16.4025 17.5592C16.5455 18.1132 18.4315 16.5473 18.6465 17.3773C18.8605 18.2073 18.4375 17.6772 17.6715 18.8692C16.9055 20.0622 16.6285 20.6503 16.0645 20.1303C15.5005 19.6113 15.2215 19.9163 14.5305 21.9513C13.8395 23.9853 13.9105 24.2623 13.4285 25.9973C12.9455 27.7323 11.8955 28.1003 11.4705 27.2873C11.0455 26.4733 10.5545 26.5133 10.2085 27.3893C9.86249 28.2653 9.72749 29.4073 9.10249 30.5883C8.47649 31.7703 7.84648 32.1032 7.64048 32.9682C7.43448 33.8322 6.95348 35.8502 7.23748 36.3922C7.52048 36.9352 7.93849 36.3362 8.42649 35.7312C8.91449 35.1262 9.26049 34.2503 9.12649 35.3913C8.99149 36.5333 8.22448 37.4433 7.33248 41.4723C6.44048 45.5013 5.28449 52.6623 4.74549 57.2273C4.20749 61.7933 4.14849 64.0593 3.99749 61.8103C3.84549 59.5623 3.76249 57.0253 3.28749 60.1723C2.81249 63.3203 2.6205 67.0102 2.3535 69.8582C2.0875 72.7062 1.05549 76.7472 1.06649 79.0072C1.07849 81.2672 1.37649 84.9173 2.00349 84.0183C2.63049 83.1193 2.69349 81.7012 3.18849 82.5092C3.68349 83.3172 3.67349 81.3392 3.38649 79.9492C3.09849 78.5592 3.62148 70.8852 4.11248 70.8452C4.60348 70.8062 4.59049 68.2633 5.07449 66.8103C5.55849 65.3583 6.12649 66.7253 5.78349 68.4492C5.44149 70.1722 5.30149 70.1843 5.24449 72.7323C5.18649 75.2813 4.7045 77.0162 5.2975 83.4682C5.8915 89.9212 6.67349 92.1183 6.40049 93.5543C6.12749 94.9893 5.06148 92.2493 4.49148 90.6003C3.92248 88.9502 3.43149 88.9903 3.58349 91.2393C3.73449 93.4873 3.94749 94.0353 4.04049 98.5503C4.13349 103.065 4.57249 106.704 4.58549 109.246C4.59749 111.789 4.88849 113.744 4.89949 116.004C4.91049 118.264 4.28249 118.881 4.13349 117.197C3.98549 115.513 3.70149 114.971 3.56149 114.982C3.42149 114.994 2.71149 113.355 2.77049 111.09C2.82949 108.824 2.32749 106.603 2.46449 106.027C2.60149 105.45 3.02148 105.134 2.87548 104.015C2.72948 102.896 2.30749 102.648 2.37049 101.23C2.43349 99.8113 2.62648 96.4043 2.19448 94.1783C1.76248 91.9523 1.41749 93.1103 1.42749 95.0883C1.43749 97.0663 1.71648 96.7603 1.65548 98.4613C1.59348 100.162 1.38448 100.462 1.46148 101.869C1.53848 103.276 1.61048 103.552 1.88848 102.965C2.16548 102.377 2.30548 102.365 2.31048 103.213C2.31448 104.061 1.7525 103.823 1.7565 104.671C1.7605 105.519 1.97049 105.502 2.05049 107.474C2.13049 109.445 1.78749 110.887 1.94349 113.983C2.09849 117.079 2.53249 119.588 2.54049 121.283C2.54949 122.978 2.76249 123.526 3.12449 125.758C3.48649 127.99 3.42449 129.691 3.78549 131.64C4.14549 133.589 4.4265 133.566 4.4375 135.827C4.4485 138.087 4.77549 133.255 4.55249 130.73C4.32949 128.204 4.60948 128.181 4.60148 126.486C4.59248 124.791 4.37148 122.548 4.79548 123.361C5.22048 124.175 5.59848 129.514 5.68148 132.051C5.76448 134.588 6.48349 138.204 7.05349 139.854C7.62249 141.503 8.61449 143.401 8.60649 141.989C8.59949 140.576 8.17249 139.198 8.09349 137.508C8.01449 135.819 7.72549 134.146 7.44249 133.604C7.15949 133.062 6.87749 132.802 6.73149 131.683C6.58549 130.565 6.58148 129.717 6.50448 128.31C6.42748 126.903 6.4145 124.361 6.5475 122.936C6.6805 121.512 6.53149 119.829 6.87849 118.952C7.22449 118.076 7.44248 119.472 7.86248 119.438C8.28348 119.404 8.2765 117.991 8.3405 116.855C8.4055 115.719 8.54449 115.426 8.25849 114.318C7.97149 113.211 7.55248 113.528 7.54548 112.115C7.53848 110.702 7.66848 108.713 7.72248 105.317C7.77548 101.921 7.67949 96.8413 7.81449 95.7003C7.94849 94.5583 8.23049 94.8183 8.15049 92.8463C8.07049 90.8743 7.78448 89.7673 7.42948 88.9483C7.07448 88.1293 6.99648 86.4393 6.98948 85.0273C6.98248 83.6143 6.75948 81.0882 6.47248 79.9812C6.18648 78.8742 6.65649 74.5963 7.07049 73.1493C7.48349 71.7033 6.64849 72.9013 6.90449 68.0753C7.16049 63.2493 7.93649 64.0342 8.41149 60.8872C8.88749 57.7392 8.67348 57.1913 9.01748 55.7503C9.36048 54.3093 11.6385 46.7752 13.7345 45.1922C16.2485 43.2942 18.7415 40.6462 21.1295 36.9602C21.9935 35.6252 23.0195 33.8553 24.4465 34.0063C25.0605 34.0713 25.1355 34.4263 27.0865 35.9113C29.7565 37.9443 29.8105 37.4253 30.3615 38.6133C31.8975 41.9223 32.4265 47.9833 32.8325 47.2563C33.0065 46.9473 33.0025 45.4632 33.0115 42.4962C33.0175 40.6452 33.0285 37.2623 32.6175 33.7663Z" fill="#5CAC49"/>
<path d="M26.0646 154.423C26.8306 153.23 27.1126 153.49 27.3926 153.467C27.6736 153.444 27.7336 151.461 27.1026 151.512C26.4716 151.563 25.4306 153.909 24.8046 154.808C24.1776 155.706 22.8456 155.815 22.4936 155.561C22.1416 155.307 22.1316 153.329 22.6906 153.001C23.2506 152.673 24.3656 151.169 24.9216 150.276C25.4786 149.383 26.7986 146.732 27.2886 146.692C27.7796 146.652 28.6916 146.578 29.0416 146.55C29.3926 146.521 29.5246 144.814 30.1456 142.786C30.7666 140.757 30.9826 141.87 31.1886 141.005C31.3946 140.141 31.3926 139.575 31.7426 139.547C32.0936 139.519 32.1056 142.061 32.4606 142.88C32.8156 143.699 33.3656 141.394 33.7806 140.23C34.1956 139.065 34.5516 140.167 34.6866 139.025C34.8206 137.884 34.7406 135.912 35.1546 134.465C35.5686 133.018 36.1166 130.43 36.4036 131.82C36.6916 133.21 36.1416 135.516 36.7016 135.187C37.2606 134.859 38.6686 121.744 38.7986 119.754C38.9296 117.765 39.0536 114.646 38.4266 115.545C37.8006 116.444 37.6136 121.264 37.4046 121.564C37.1956 121.863 36.9696 118.772 36.6236 119.648C36.2776 120.524 36.1616 125.339 35.8916 127.622C35.6226 129.905 33.8276 135.703 33.0606 136.614C32.2936 137.524 29.9786 137.429 30.3276 137.118C30.6766 136.807 31.5086 134.761 32.0016 135.286C32.4956 135.811 32.6346 135.517 33.0426 132.941C33.4506 130.364 34.7786 129.408 35.3166 124.842C35.8556 120.276 35.4246 118.332 36.1646 112.054C36.9046 105.776 37.4076 101.072 37.3916 97.964C37.3766 94.856 37.8726 95.947 37.9976 92.827C38.1226 89.708 37.7536 86.064 37.1766 83.002C36.6006 79.939 36.7996 77.662 37.1456 76.786C37.4926 75.91 37.6966 74.763 37.6796 71.373C37.6626 67.982 36.7326 64.383 36.6546 62.694C36.5756 61.005 35.5096 58.265 35.0636 53.213C34.6176 48.162 34.3356 47.902 33.4886 46.84C32.3306 45.389 33.2866 36.522 32.2286 33.376C31.7126 31.841 30.6286 31.09 30.4636 30.976C30.2136 30.803 30.0456 30.765 29.7936 30.323C29.2756 29.415 29.0756 27.976 28.8406 28.313C28.7446 28.451 28.6606 28.829 28.5976 29.573C28.3326 32.703 29.0346 32.929 28.8346 34.924C28.6336 36.918 28.1306 34.415 27.8446 33.308C27.5586 32.201 26.4976 30.591 26.0726 29.777C25.6476 28.964 25.3506 25.597 24.7896 25.642C24.2286 25.688 23.1656 23.513 22.0376 22.474C20.9106 21.435 20.2186 23.469 19.7336 24.639C19.2486 25.809 18.6866 25.572 18.6896 26.137C18.6916 26.702 19.6066 27.193 20.3806 27.696C21.1546 28.198 22.2876 30.367 22.5766 32.04C22.8656 33.712 21.5266 32.408 20.8206 31.617C20.1156 30.826 18.9246 31.206 17.5986 32.444C16.2716 33.682 15.5296 39.678 15.1826 40.271C14.8346 40.865 14.3396 40.057 13.5776 42.098C12.8166 44.138 12.1896 45.037 11.4216 45.664C10.6526 46.292 10.9386 47.4 10.3176 49.428C9.69659 51.457 9.35959 54.311 9.57159 54.576C9.78359 54.842 10.7566 53.067 11.2446 52.462C11.7326 51.857 13.7646 51.41 13.7686 52.257C13.7736 53.105 12.5206 55.185 11.8946 56.084C11.2676 56.983 10.7176 59.288 10.1676 61.594C9.61858 63.9 9.1246 63.375 9.0636 65.075C9.0016 66.776 9.28159 66.753 9.35759 67.878C9.43359 69.002 9.44359 70.98 9.09959 72.421C8.75659 73.862 8.21559 77.863 8.22659 80.123C8.23759 82.384 8.10758 84.372 7.97558 86.079C7.84358 87.786 7.50359 89.792 7.64859 90.911C7.79459 92.029 7.87458 94.001 8.15658 94.261C8.43858 94.521 8.44959 96.781 8.53459 99.601C8.61859 102.42 8.77759 106.082 8.78859 108.342C8.79959 110.602 9.08158 110.862 9.08558 111.709C9.09058 112.557 9.37759 113.947 9.51059 112.523C9.64459 111.099 9.92458 111.076 10.1396 111.907C10.3536 112.737 10.0816 114.455 10.0906 116.15C10.0986 117.845 10.2506 120.094 10.0466 121.524C9.8436 122.953 9.64859 126.078 10.0046 127.18C10.3616 128.282 10.6436 128.541 10.7906 129.942C10.9376 131.344 11.5026 132.146 11.4906 129.603C11.4776 127.06 11.5376 125.077 12.0396 127.297C12.5426 129.518 12.5586 132.908 12.7096 134.874C12.8596 136.841 13.5836 141.304 13.8726 142.977C14.1606 144.649 14.5276 147.728 14.9496 147.977C15.3716 148.225 16.5076 150.959 16.8626 151.778C17.2176 152.597 18.9846 155.28 19.6916 156.353C20.3976 157.426 21.7346 158.166 22.9966 158.063C24.2586 157.961 25.2996 155.615 26.0646 154.423ZM29.0806 140.328C29.2376 140.745 29.3766 141.652 29.3016 142.289C29.2336 142.86 28.2626 144.917 27.8416 144.951C27.4206 144.985 25.2496 145.727 25.3176 145.156C25.3936 144.509 26.6816 143.35 27.1986 142.742C28.2996 141.451 28.7176 139.361 29.0806 140.328ZM17.9996 140.663C18.7136 143.149 19.4876 143.651 19.5606 144.21C19.5666 144.26 19.5686 144.306 19.5666 144.348C19.5426 144.833 18.9136 144.727 18.6506 144.567C17.3356 143.768 16.5246 136.349 16.6386 135.12C16.6446 135.06 16.6506 135.027 16.6586 135.013C16.7806 134.772 17.3316 138.339 17.9996 140.663ZM28.8676 125.648C29.2906 126.179 28.6636 127.078 28.6636 127.078C28.0396 128.542 26.1456 128.413 25.4396 127.622C24.7346 126.832 25.2266 127.074 25.8546 126.458C26.4836 125.842 28.4436 125.118 28.8676 125.648ZM31.1586 50.845C30.5136 48.071 29.4476 45.331 28.9526 44.524C28.4576 43.716 28.3086 42.032 27.8166 41.789C27.3246 41.547 26.6226 41.604 25.6346 40.271C24.6456 38.938 23.2276 35.944 23.5036 35.074C23.7806 34.203 24.8376 35.248 24.8376 35.248C24.8376 35.248 26.0376 36.846 27.7936 37.269C29.5496 37.692 30.3256 38.477 30.2696 41.308C30.2136 44.139 30.7756 44.376 31.0586 44.918C31.3426 45.46 31.8476 48.246 32.0676 50.206C32.2876 52.167 32.7826 52.974 32.5736 53.274C32.3646 53.574 31.8036 53.619 31.1586 50.845ZM21.6346 68.012C21.9146 67.989 22.5516 69.068 22.9566 65.926C23.3616 62.784 23.4966 61.642 24.1966 61.303C24.8956 60.964 26.6156 68.173 26.4826 69.596C26.3496 71.021 26.1376 70.755 26.1446 72.168C26.1516 73.58 26.6416 73.258 26.8666 76.349C27.0926 79.439 27.2986 78.575 27.6606 80.807C28.0226 83.038 27.1116 83.112 27.1256 85.937C27.1396 88.763 27.7716 88.994 27.9306 92.656C28.0896 96.317 27.4046 99.764 27.0506 98.945C26.6956 98.126 26.8986 96.696 26.9546 93.865C27.0106 91.034 26.6496 89.085 26.5046 87.966C26.3586 86.848 25.8636 86.04 25.7316 87.747C25.5996 89.453 25.9516 89.707 26.0966 90.543C26.2406 91.379 26.2506 93.357 25.9796 95.358C25.7096 97.358 25.5646 96.522 24.9996 95.72C24.4346 94.918 24.3096 98.037 24.1066 99.467C23.9036 100.897 23.4836 101.213 23.0516 98.987C22.6196 96.761 22.9566 93.907 23.2256 91.624C23.4946 89.341 23.8506 90.443 24.1386 91.833C24.4256 93.223 24.4946 92.934 24.7706 92.064C25.0476 91.194 25.1116 90.058 25.1046 88.645C25.0946 86.702 24.6786 84.407 24.3116 84.47C23.9746 84.528 24.0156 86.525 23.4846 87.364C23.1296 87.926 22.4926 88.004 22.3656 88.02C22.1896 88.042 22.0546 88.048 21.9876 88.396C21.8686 89.005 22.0016 90.205 22.1006 91.15C22.2486 92.552 21.8936 91.733 21.7626 93.721C21.6326 95.711 22.1236 95.671 22.2726 97.355C22.4206 99.038 21.7936 99.937 21.5176 100.808C21.2416 101.678 21.3946 104.209 21.6796 105.034C21.9636 105.859 21.9006 107.277 22.1866 108.384C22.4736 109.492 22.6846 109.757 23.3076 108.011C23.9296 106.264 24.0806 108.231 24.1606 110.203C24.2406 112.175 25.0876 113.236 25.2916 112.089C25.4966 110.942 26.1236 110.043 26.4726 109.732C26.8216 109.421 28.5506 104.476 28.8906 102.187C29.2296 99.899 29.2856 97.068 29.8466 97.022C30.4076 96.977 30.6876 96.954 30.7496 95.253C30.8116 93.552 30.3846 92.456 30.4376 89.06C30.4906 85.664 29.9276 85.145 30.1296 83.433C30.3316 81.72 31.8216 85.274 31.9706 86.957C32.1196 88.641 31.9886 90.63 32.3486 92.297C32.7076 93.964 33.1906 92.511 33.2556 91.375C33.3196 90.239 33.0966 87.714 33.0896 86.301C33.0826 84.888 33.0016 82.634 32.4996 80.414C31.9966 78.193 32.4806 76.741 32.8356 77.56C33.1906 78.379 33.6256 81.17 33.9756 81.142C34.3266 81.113 34.5296 79.684 34.5946 78.548C34.6586 77.412 34.3786 77.435 34.0166 75.203C33.6546 72.971 33.7166 71.27 33.4296 70.163C33.1436 69.056 32.6456 67.683 32.6356 65.705C32.6266 63.727 33.4736 64.789 33.4676 63.659C33.4616 62.529 31.7466 56.168 31.1786 54.801C30.6106 53.434 30.9596 53.122 31.5936 53.636C32.2276 54.15 33.5106 58.286 34.0126 60.506C34.5156 62.726 35.0916 65.788 35.0326 68.054C34.9946 69.51 34.8976 70.621 35.0016 71.59C35.0706 72.225 35.1726 72.286 35.4086 73.112C35.6906 74.096 35.9516 75.005 36.0556 76.168C36.1996 77.774 35.9226 78.498 35.9396 80.982C35.9506 82.665 36.0846 83.47 36.1676 84.638C36.4566 88.685 35.5746 90.67 35.5236 95.996C35.4776 100.805 35.7706 103.324 35.7836 105.867C35.7956 108.41 34.4156 113.044 33.9996 113.926C33.5826 114.808 33.5756 113.395 33.7136 112.819C33.8506 112.242 34.3986 109.654 33.9036 108.846C33.4086 108.039 33.3526 110.869 32.7896 110.35C32.2256 109.83 32.7036 107.248 32.9766 105.813C33.2506 104.377 33.1756 103.535 32.8916 102.71C32.6066 101.886 32.7316 98.766 32.2316 97.111C31.7326 95.456 31.1156 98.332 31.4036 99.722C31.6906 101.112 31.4876 102.542 31.2826 103.689C31.0776 104.836 31.0146 106.255 31.3016 107.362C31.5876 108.469 31.7426 111.565 30.8356 112.487C29.9286 113.409 29.3086 115.72 28.7566 117.461C28.2036 119.201 27.2866 118.145 26.9386 118.739C26.5906 119.333 26.1876 122.757 25.7676 123.074C25.3486 123.39 24.6586 125.707 24.4426 124.595C24.2266 123.481 24.7146 122.876 24.7076 121.464C24.7006 120.051 24.0696 120.103 23.5816 120.707C23.0936 121.312 22.5356 121.923 21.6866 120.579C20.8386 119.234 20.2616 116.172 19.9716 114.217C19.6806 112.262 18.6616 104.714 18.4426 103.036C18.2236 101.358 17.6466 98.295 17.9236 97.425C18.1996 96.555 18.5656 99.634 18.8536 101.024C19.1406 102.414 20.2936 108.538 20.7126 108.221C21.1326 107.905 20.9806 105.656 20.5506 103.712C20.1196 101.769 19.1836 97.04 18.9656 95.362C18.7466 93.684 18.2276 88.073 18.8456 85.479C19.4636 82.885 19.9686 85.671 20.8046 84.472C21.6406 83.274 20.9326 81.918 21.4796 79.047C22.0256 76.176 23.1006 80.612 23.5186 80.012C23.9366 79.413 24.7526 74.259 23.9076 73.763C23.0636 73.266 23.4716 70.689 22.1496 72.775C20.8266 74.861 20.7976 83.06 20.6306 77.703C20.4636 72.346 21.3536 68.034 21.6346 68.012ZM14.4416 116.645C14.1946 115.486 14.0796 114.413 14.0796 114.413C13.4866 108.883 13.1706 106.862 13.4036 105.423C13.4726 104.996 13.5496 104.874 13.5736 104.842C13.8486 104.475 14.2046 106.079 14.3226 106.762C14.4666 107.598 14.3306 108.457 14.4126 110.711C14.4936 112.966 14.7126 114.644 14.7926 116.616C14.8216 117.328 14.8116 117.638 14.7776 117.704C14.7006 117.854 14.5176 116.999 14.4416 116.645ZM17.5146 83.139C17.3256 82.397 18.2006 77.659 18.6606 76.45C19.1476 75.166 19.7276 73.901 19.8166 74.359C19.8436 74.497 19.8276 74.801 19.2966 77.529C18.6646 80.775 18.3086 82.285 17.7816 83.022C17.5806 83.303 17.5356 83.218 17.5146 83.139ZM11.3196 88.493C11.3666 86.426 11.6876 83.966 11.8506 84.161C11.8896 84.207 11.9106 84.431 11.9326 84.769C12.0486 86.539 12.0246 88.083 12.0206 88.436C12.0136 89.165 12.1656 90.794 12.4696 94.052C12.5016 94.387 12.6486 95.683 12.7716 97.486C12.8416 98.502 12.8816 99.368 12.9216 100.234C13.0006 101.923 12.8686 103.63 12.4426 102.534C12.0156 101.438 12.0006 98.33 11.7096 96.375C11.4196 94.42 11.2626 91.041 11.3196 88.493ZM17.3476 150.608C16.4936 148.134 15.7826 146.213 15.2816 144.275C14.7806 142.337 13.8596 140.434 13.7826 139.027C13.7046 137.62 13.7756 137.614 13.2686 134.546C12.7626 131.478 12.5376 128.67 12.4536 125.851C12.3696 123.031 12.0836 121.924 11.4366 118.867C10.7896 115.81 10.6446 114.692 10.5616 112.155C10.4786 109.618 10.2806 98.046 10.3476 97.475C10.3486 97.467 10.3506 97.452 10.3536 97.449C10.4256 97.381 10.6926 102.585 11.0186 105.334C11.0536 105.63 11.1646 106.539 11.2416 107.86C11.2676 108.313 11.2686 108.609 11.2836 108.747C11.3846 109.67 11.6666 110.119 12.1756 112.306C12.8206 115.08 12.7746 119.889 12.9946 121.849C13.2146 123.81 13.1536 125.511 14.0846 129.392C15.0156 133.274 14.8856 135.263 14.8916 136.393C14.8966 137.523 15.1846 138.913 15.8166 139.144C16.4496 139.376 16.8126 141.89 17.3926 145.517C17.9716 149.144 18.9536 149.065 19.6546 149.008C20.3556 148.951 21.0526 148.046 21.8236 147.984C22.5956 147.921 23.4996 146.434 24.0566 145.541C24.6136 144.648 24.1306 146.383 23.6486 148.118C23.1656 149.853 22.1896 151.063 21.2086 151.143C20.2266 151.222 19.8116 152.387 19.4626 152.698C19.1136 153.009 18.2016 153.083 17.3476 150.608Z" fill="#1F8D44"/>
<path d="M29.2598 155.333C30.0568 153.535 30.4288 154.652 31.7148 153.775C32.1668 153.467 34.4328 151.922 34.7308 147.084C34.9708 143.187 34.2298 146.788 32.8088 148.561C31.3878 150.334 30.5578 147.229 29.5368 150.427C28.5158 153.625 28.5988 155.655 27.5548 157.334C26.6298 158.822 25.8798 159.73 25.8948 160.021C25.8978 160.078 25.9288 160.096 25.9398 160.102C27.1848 160.778 28.1117 158.773 28.1117 158.773C28.8017 157.279 28.7138 156.563 29.2598 155.333Z" fill="#1F8D44"/>
<path d="M25.1906 140.783C25.0626 141.05 23.5676 144.263 22.1816 142.157C21.1216 140.548 20.6906 138.604 21.9556 139.067C23.2206 139.529 23.5726 139.783 24.9006 138.828C25.8406 138.151 26.7696 138.141 26.7776 138.365C26.7826 138.51 26.3976 138.673 25.8166 139.601C25.5026 140.102 25.2976 140.561 25.1906 140.783Z" fill="#5CAC49"/>
<path d="M34.9935 116.671C34.9935 116.671 34.5295 122.079 33.5645 125.548C32.5995 129.018 30.7735 128.601 30.2805 128.076C29.7865 127.551 29.0745 125.348 29.4945 125.314C29.9155 125.279 30.9685 125.477 30.9585 123.499C30.9485 121.521 31.0765 118.967 31.7765 118.628C32.4765 118.288 32.4715 117.44 32.8265 118.26C33.1815 119.079 33.3975 120.192 34.2945 117.293C35.1925 114.393 35.1935 114.676 34.9935 116.671Z" fill="#5CAC49"/>
<path d="M30.7955 132.273C30.7955 132.273 31.3536 131.663 30.7896 131.143C30.2256 130.624 28.1886 129.941 27.0666 130.032C25.9446 130.124 23.4295 132.306 23.2135 131.193C22.9975 130.08 23.5505 128.339 23.4765 127.497C23.4015 126.655 22.5656 127.854 21.5746 125.956C20.5826 124.058 19.5186 121.601 19.1566 119.369C18.7946 117.137 18.0566 109.848 17.9216 110.99C17.7876 112.131 18.2896 114.352 18.3006 116.612C18.3126 118.872 18.6155 123.37 19.6125 126.398C20.6095 129.426 20.5536 132.257 18.9256 129.28C17.2976 126.303 16.4986 120.998 16.2016 117.63C15.9036 114.263 15.1756 108.952 15.1156 110.935C15.0556 112.918 15.4416 119.953 15.8766 122.744C16.3116 125.535 16.1126 127.813 16.5386 128.909C16.9646 130.005 17.8665 127.953 18.0195 130.484C18.1725 133.015 18.3226 134.982 18.6776 135.801C19.0326 136.62 20.3046 138.495 20.7896 137.325C21.2746 136.155 21.3266 132.477 22.6696 134.629C24.0136 136.781 25.9055 136.345 26.6705 135.152C27.4365 133.959 27.5686 132.253 28.2706 132.478C28.9736 132.704 30.7955 132.273 30.7955 132.273Z" fill="#5CAC49"/>
<path d="M29.1578 57.506C29.6638 60.741 29.9788 62.14 29.8158 62.823C29.6098 63.688 29.3298 63.711 28.9758 63.174C28.6228 62.637 28.3438 62.943 28.2808 64.361C28.2168 65.779 28.5008 66.322 28.7868 67.429C29.0728 68.536 29.2918 70.214 29.2358 73.045C29.1798 75.876 29.1218 78.425 29.2028 80.397C29.2828 82.369 29.0788 83.798 28.7258 83.262C28.3718 82.725 28.4338 81.024 28.4278 79.894C28.4228 78.764 28.4728 74.803 28.0348 71.447C27.5978 68.091 26.5958 64.215 26.5848 61.955C26.5738 59.695 27.0718 61.068 27.4208 60.756C27.7698 60.446 27.9018 58.739 27.5478 58.202C27.1948 57.666 27.1948 57.666 26.9768 56.27C26.7598 54.875 26.6788 52.62 26.3318 53.496C25.9858 54.372 25.6378 54.966 25.1388 53.311C24.6388 51.655 24.2728 48.576 24.1358 49.152C23.9988 49.729 24.2118 50.277 24.0768 51.418C23.9418 52.56 23.5928 52.871 23.0298 52.351C22.4658 51.832 21.9758 52.154 21.2738 51.928C20.5708 51.703 20.2888 51.443 19.9338 50.624C19.5798 49.805 19.2988 49.828 19.1658 51.252C19.0328 52.676 19.1068 53.517 18.4818 54.699C17.8558 55.88 17.5688 54.49 17.4408 57.045C17.3138 59.599 17.6688 60.418 17.3258 62.141C16.9838 63.865 16.5508 61.356 15.2378 65.42C13.9258 69.483 12.4898 76.949 12.2218 79.514C11.9548 82.08 11.9918 75.576 12.2588 72.728C12.5248 69.88 12.8008 69.01 12.7868 66.184C12.7728 63.359 12.7558 59.969 13.5818 56.793C14.4078 53.617 15.0388 53.565 15.5298 53.525C16.0198 53.486 16.5808 53.44 16.5038 52.033C16.4268 50.626 16.2178 50.926 15.7938 50.395C15.3708 49.864 15.5028 48.157 15.9178 46.993C16.3328 45.829 16.8148 44.094 17.3758 44.048C17.9368 44.003 18.0058 43.715 18.6298 42.251C19.2538 40.787 20.3098 41.549 20.7388 43.21C21.1678 44.871 21.7948 43.972 22.2238 45.633C22.6528 47.294 23.0778 48.108 22.9978 46.136C22.9178 44.164 22.3558 43.927 22.3448 41.666C22.3328 39.406 22.8938 39.361 23.3888 40.169C23.8848 40.976 25.5198 45.365 25.8788 47.032C26.1128 48.12 26.2868 48.972 26.5338 49.263C26.6548 49.405 26.6788 49.238 27.0118 49.201C27.3918 49.16 27.5818 49.139 27.7848 49.421C27.8638 49.532 28.1498 49.966 28.3538 51.071C28.4988 51.85 28.5168 52.503 28.5758 53.314C28.6388 54.189 28.8118 55.294 29.1578 57.506Z" fill="#AFD942"/>
<path d="M20.331 66.561C19.636 67.112 19.729 68.35 18.391 71.523C17.225 74.292 16.878 74.053 16.66 75.904C16.39 78.187 16.75 79.853 16.619 81.842C16.489 83.832 16.079 86.126 15.597 87.861C15.115 89.596 15.056 91.862 15.931 98.574C16.807 105.286 16.821 108.112 16.981 112.056C17.141 115.999 18.079 121.294 18.156 122.7C18.234 124.107 17.162 120.237 16.793 116.593C16.424 112.949 16.18 106.185 15.679 104.247C15.178 102.309 13.972 99.581 13.885 96.196C13.798 92.812 13.857 90.546 14.127 88.545C14.398 86.545 14.318 84.573 14.244 83.731C14.169 82.889 14.229 80.906 14.579 80.595C14.928 80.284 15.189 76.306 15.598 74.011C16.007 71.717 16.354 70.841 17.4 69.626C18.446 68.41 18.934 67.805 19.348 66.358C19.751 64.949 21.356 64.246 21.376 64.739C21.377 64.757 21.375 64.774 21.374 64.78C21.232 65.846 20.331 66.561 20.331 66.561Z" fill="#5CAC49"/>
<path d="M10.5225 83.1855C10.5105 85.2595 10.4845 87.3325 10.4835 89.4075C10.4825 92.5635 10.5115 93.5705 10.4345 93.6505C10.2925 93.8005 9.84152 90.6775 9.70052 87.2095C9.62052 85.2375 9.73251 79.5755 10.0665 76.1565C10.3835 72.9115 10.9375 70.4935 11.0115 70.6605C11.0715 70.7945 10.7895 72.5075 10.6245 75.5465C10.5785 76.4035 10.5585 77.0455 10.5225 83.1855Z" fill="#5CAC49"/>
<path d="M40.5764 82.0171C40.3104 86.1751 40.5304 85.7642 40.4104 91.0752C40.3534 93.6232 39.6794 99.0481 39.4784 101.043C39.2784 103.038 39.0174 107.016 38.5224 106.208C38.0274 105.401 38.1664 105.107 38.1524 102.281C38.1374 99.4562 38.1854 94.9301 38.3874 93.2181C38.5894 91.5061 38.5824 90.0931 39.0704 89.4881C39.5584 88.8831 39.9054 88.2901 39.6854 86.3291C39.4654 84.3681 39.1104 82.0331 39.6304 81.4771C40.1494 80.9211 40.3604 80.9041 40.3484 78.6441C40.3444 77.8331 40.3724 77.3061 40.4324 77.2311C40.4794 77.1741 40.5364 77.4212 40.5534 77.4972C40.7974 78.5582 40.5764 82.0171 40.5764 82.0171Z" fill="#1F8D44"/>
<path d="M37.0435 53.0641C37.0435 53.0641 36.6145 52.7541 36.2125 50.6921C35.8115 48.6301 35.5925 47.5051 35.3085 46.5451C35.0245 45.5851 34.9445 43.6131 35.2255 43.5901C35.5055 43.5671 35.7225 44.9631 36.0145 47.2011C36.3065 49.4381 36.7325 50.5341 36.8775 51.3701C37.0215 52.2061 37.0435 53.0641 37.0435 53.0641Z" fill="#1F8D44"/>
<path d="M37.6999 61.7607C37.8189 64.5087 38.7219 65.7367 38.9109 65.3367C39.1879 64.7487 38.9669 62.5057 38.6109 61.4037C38.0389 59.6367 38.5529 57.2197 38.4139 57.0327C38.2089 56.7557 37.5929 59.2627 37.6999 61.7607Z" fill="#1F8D44"/>
<path d="M44.1969 141.991C44.2989 140.579 44.3879 139.093 44.4639 137.525C44.9719 127.026 43.9699 122.867 44.7279 120.262C44.8879 119.713 45.0469 118.912 45.1979 118.02C45.0679 117.587 44.8709 117.39 44.5769 118.012C43.8829 119.482 43.8919 121.46 43.9039 123.72C43.9149 125.98 43.5759 128.269 43.1619 129.715C42.7479 131.162 42.8279 133.134 42.5579 135.135C42.2869 137.135 41.5849 136.911 41.6019 140.301C41.6189 143.691 42.1799 143.645 42.6609 141.627C43.1409 139.609 43.3359 136.485 43.6899 137.021C43.9799 137.463 43.8609 141.187 44.1969 141.991Z" fill="#5CAC49"/>
<path d="M33.2035 18.034C33.1695 18.455 33.0905 18.738 33.0905 18.738C32.8875 19.361 32.5205 18.6549 32.2945 18.6729C32.0145 18.6959 32.1445 16.707 31.4445 17.046C30.7445 17.386 30.0495 18.573 29.4845 17.771C28.9185 16.969 28.7775 16.698 28.3565 16.732C27.9355 16.766 27.1555 15.133 27.2935 14.557C27.4305 13.981 28.0675 15.059 29.0425 13.567C30.2115 11.776 30.3195 10.248 31.0605 10.294C32.2715 10.369 33.3565 16.117 33.2035 18.034Z" fill="#5CAC49"/>
<path d="M15.716 14.0815C16.203 13.1935 16.56 14.5785 17.109 11.9895C17.657 9.4015 18.075 8.80251 18.563 8.19751C19.051 7.59251 20.177 8.34849 20.664 7.46149C21.15 6.57449 21.715 7.3765 22.362 10.4325C23.009 13.4895 23.635 12.5905 24.195 12.2625C24.754 11.9345 24.324 9.99052 24.666 8.26752C25.008 6.54352 25.715 7.61651 26.486 7.55451C27.258 7.49151 27.481 10.0175 28.116 10.8135C28.751 11.6095 29.026 10.4565 29.441 9.29248C29.856 8.12848 29.783 7.56848 29.147 6.49048C28.832 5.95648 28.859 5.11847 28.966 4.40747C28.508 4.48147 27.995 4.42448 27.37 4.02448C27.461 5.59548 27.714 6.22451 27.358 6.49451C26.938 6.81051 25.734 4.36451 25.103 4.41651C24.472 4.46751 24.051 4.50151 22.362 3.50751C20.674 2.51451 18.542 3.9595 18.546 4.8075C18.55 5.6545 19.529 5.00951 19.044 6.17951C18.559 7.34951 17.634 4.88153 17.087 7.75153C16.541 10.6225 16.327 10.0745 15.772 11.2505C15.217 12.4255 14.375 12.4945 13.819 13.3875C13.262 14.2805 13.756 14.8055 14.176 14.7715C14.597 14.7375 14.673 15.8615 15.165 16.1045C15.657 16.3475 15.23 14.9685 15.716 14.0815Z" fill="#5CAC49"/>
<path d="M10.4784 18.7479C10.8124 18.8869 11.1884 20.0859 11.1214 20.9569C11.0554 21.8099 10.7074 22.4029 10.5714 23.2619C10.4354 24.1209 10.1624 25.5568 9.60236 25.8848C9.04336 26.2128 8.34836 27.6819 7.93336 28.8469C7.51836 30.0109 7.10937 32.3049 6.68537 31.7749C6.26237 31.2439 6.73937 28.3778 7.29737 27.7678C7.85537 27.1568 8.55037 25.9699 8.47637 25.1279C8.40237 24.2859 7.92136 26.3038 7.77236 24.6198C7.62336 22.9358 8.10836 21.7659 8.45936 21.7379C8.76036 21.7139 8.80736 21.5399 9.13236 21.2349C9.89336 20.5219 10.0114 18.5529 10.4784 18.7479Z" fill="#5CAC49"/>
<path d="M5.10264 37.8397C5.00364 37.3317 4.79465 37.2287 4.65965 37.4137C4.52265 37.6007 4.39864 38.1037 4.33764 39.0327C4.20664 41.0217 4.34864 41.2927 3.86764 43.3107C3.38664 45.3277 3.12164 48.4587 2.78564 51.3127C2.44864 54.1657 2.18263 57.0147 2.53063 56.4207C2.87763 55.8267 3.07864 53.8327 3.49464 52.9507C3.91164 52.0687 4.12364 52.3347 4.45864 49.1977C4.60164 47.8557 4.66964 46.8307 4.70564 46.0297C4.75164 45.0097 4.75164 44.6547 4.78164 43.8017C4.91064 40.1697 5.28564 38.7787 5.10264 37.8397Z" fill="#5CAC49"/>
<path d="M11.4236 165.362C12.2626 165.958 12.5736 165.032 13.2506 166.061C13.6046 166.598 14.1066 168.818 14.0956 166.558C14.0836 164.298 13.7936 162.343 13.4376 161.241C13.0806 160.139 13.4186 157.568 13.1396 157.873C12.8606 158.179 12.6546 159.044 12.3686 157.936C12.0826 156.829 11.8746 157.411 11.5876 156.021C11.2996 154.631 11.5836 155.174 11.4286 152.36C11.2746 149.546 10.3506 147.077 9.79056 147.405C9.23056 147.733 9.23556 148.581 9.59856 151.095C9.96156 153.609 9.32757 153.095 8.75857 151.446C8.18957 149.796 8.04856 149.808 7.62256 148.712C7.19656 147.616 7.04856 146.215 6.76656 145.955C6.48456 145.695 6.78358 149.345 7.42158 150.706C7.55958 150.999 7.66356 151.29 7.75156 151.596C8.17756 153.088 8.43657 154.554 8.56757 155.418C8.98257 158.145 9.27056 160.044 9.65056 161.548C9.77656 162.045 10.4366 164.659 11.4236 165.362Z" fill="#5CAC49"/>
</svg>
