<svg width="423" height="1032" viewBox="0 0 423 1032" fill="none" xmlns="http://www.w3.org/2000/svg">
<g clip-path="url(#clip0_698_11658)">
<path d="M422.51 0.796875H0.890625V1031.8H422.51V0.796875Z" fill="url(#paint0_linear_698_11658)"/>
<mask id="mask0_698_11658" style="mask-type:luminance" maskUnits="userSpaceOnUse" x="0" y="0" width="422" height="1031">
<path d="M421.619 0H0V1031H421.619V0Z" fill="white"/>
</mask>
<g mask="url(#mask0_698_11658)">
<path fill-rule="evenodd" clip-rule="evenodd" d="M575.372 869.77L593.84 875.161L617.374 877.471L642.379 894.429L717.393 903.654L743.193 920.265L792.407 926.758L816.758 921.916L841.681 922.906L891.473 937.867L952.394 965.372L1006.42 973.073V1017.63H109.293V973.073L163.317 965.372L224.238 937.867L274.03 922.906L298.953 921.916L323.304 926.758L372.518 920.265L398.318 903.654L473.333 894.429L498.337 877.471L521.871 875.161L540.339 869.77H575.372Z" fill="url(#paint1_linear_698_11658)"/>
<path fill-rule="evenodd" clip-rule="evenodd" d="M-84.125 891.375L-68.356 895.978L-48.26 897.95L-26.909 912.431L37.145 920.308L59.175 934.492L101.199 940.036L121.992 935.901L143.274 936.748L185.79 949.523L237.81 973.008L283.941 979.584V1017.63H-84.125V891.375Z" fill="url(#paint2_linear_698_11658)"/>
<path fill-rule="evenodd" clip-rule="evenodd" d="M-15.5426 1240.27L-15.5376 1249.16H-114.727L-109.579 953.728L-90.9606 968.066H-94.5456V978.983H-89.1686V974.149H-90.9606V970.564H-87.3766V966.98H-85.8086V963.395H-83.5676V966.98H-81.7756V963.395H-79.5356V966.98H-77.7426V963.395H-75.5026V966.98H-73.9346V970.564H-70.3496V974.149H-72.1426V978.983H-69.0056V976.837H-64.5256V978.983H-61.3886V966.084H-58.7006V962.499H-56.0116V958.915H-44.3626V962.499H-41.6736V966.084H-38.9856V978.983H-32.7126V961.617L-15.6856 952.656L-15.6816 961.603H7.87144L15.9364 975.941H12.3524V978.983H20.4174V958.928H37.4434V978.983H41.9244V975.941L58.9504 966.98V978.983H63.4314V974.176L80.4584 965.215V978.983H87.6274V974.149H84.9384V970.564H96.5884V965.685H101.069V970.564H112.718V965.685H121.779L125.264 970.564H135.122V974.149H132.433V978.983H142.291V970.578H138.706L147.667 966.288L172.759 960.911H177.24V966.288H181.721L189.786 970.578H186.201V978.983H191.578V974.149H189.786V970.564H193.37V966.98H194.938V963.395H197.179V966.98H198.971V963.395H201.211V966.98H203.004V963.395H205.244V966.98H206.812V970.564H210.397V974.149H208.604V978.983H211.741V976.837H216.222V978.983H219.358V966.084H222.046V962.499H224.735V971.474H236.385V962.499H239.073V966.084H241.761V978.983H248.034V961.617L265.061 956.423V978.983H278.503V974.149H275.814V970.564H287.464V965.685H291.945V970.564H303.594V965.685H312.655L316.14 970.564H325.998V974.149H323.309V978.983H333.167V968.066H329.582L338.544 953.728H372.597L380.662 968.066H377.077V978.983H382.454V974.149H380.662V970.564H384.246V966.98H385.815V963.395H388.055V966.98H389.847V963.395H392.088V966.98H393.88V963.395H396.12V966.98H397.688V970.564H401.273V974.149H399.481V978.983H402.617V976.837H407.098V978.983H410.234V966.084H412.923V962.499H415.611V958.915H427.261V962.499H429.949V966.084H432.638V978.983H438.91V961.617L455.937 952.656V961.603H478.681L486.746 975.941H483.162V978.983H491.227V958.928H508.253V978.983H512.734V975.941L529.761 966.98V978.983H534.241V974.176L551.268 965.215V978.983H558.437V974.149H555.748V970.564H567.398V965.685H571.879V970.564H583.528V965.685H592.589L596.074 970.564H605.932V974.149H603.243V978.983H613.101V970.578H609.516L618.478 966.288L643.569 960.911H648.05V966.288H652.531L660.596 970.578H657.011V978.983H662.388V974.149H660.596V970.564H664.18V966.98H665.749V963.395H667.989V966.98H669.781V963.395H672.022V966.98H673.814V963.395H676.054V966.98H677.622V970.564H681.207V974.149H679.415V978.983H682.551V976.837H687.032V978.983H690.168V966.084H692.857V962.499H695.545V971.474H707.195V962.499H709.883V966.084H712.572V978.983H718.844V961.617L735.871 956.423V978.983H749.313V974.149H746.625V970.564H758.274V965.685H762.755V970.564H774.405V965.685H783.466L786.95 970.564H796.808V974.149H794.12V978.983H803.977V968.066H800.392L809.354 953.728H843.407L851.472 968.066H847.887V978.983H853.264V974.149H851.472V970.564H855.057V966.98H856.625V963.395H858.865V966.98H860.657V963.395H862.898V966.98H864.69V963.395H866.93V966.98H868.499V970.564H872.083V974.149H870.291V978.983H873.427V976.837H877.908V978.983H881.044V966.084H883.733V962.499H886.421V958.915H898.071V962.499H900.759V966.084H903.448V978.983H909.721V961.617L926.747 952.656V975.947C926.749 975.945 926.75 975.943 926.752 975.941L932.128 961.603H966.181L974.247 975.941H970.662V978.983H978.727V958.928H995.754V978.983H1000.24V975.941L1017.26 966.98V978.983H1021.74V974.176L1038.77 965.215V978.983H1045.94V974.149H1043.25V970.564H1054.9V965.685H1059.38V970.564H1071.03V965.685H1080.09L1083.58 970.564H1093.43V974.149H1090.75V978.983H1100.6V970.578H1097.02L1105.98 966.288L1131.07 960.911H1135.55V966.288H1140.03L1148.1 970.578H1144.51V978.983H1149.89V974.149H1148.1V970.564H1151.68V966.98H1153.25V963.395H1155.49V966.98H1157.28V963.395H1159.52V966.98H1161.32V963.395H1163.56V966.98H1165.13V970.564H1168.71V974.149H1166.92V978.983H1170.05V976.837H1174.53V978.983H1177.67V966.084H1180.36V962.499H1183.05V971.474H1194.7V962.499H1197.39V966.084H1200.07V978.983H1206.35V961.617L1223.37 956.423V978.983H1236.82V974.149H1234.13V970.564H1245.78V965.685H1250.26V970.564H1261.91V965.685H1270.97L1274.45 970.564H1284.31V974.149H1281.62V978.983H1291.48V968.066H1287.9L1296.86 953.728H1330.91L1338.97 968.066H1335.39V978.983H1340.77V974.149H1338.97V970.564H1342.56V966.98H1344.13V963.395H1346.37V966.98H1348.16V963.395H1350.4V966.98H1352.19V963.395H1354.43V966.98H1356V970.564H1359.59V974.149H1357.79V978.983H1360.93V976.837H1365.41V978.983H1368.55V966.084H1371.23V962.499H1373.92V958.915H1385.57V962.499H1388.26V966.084H1390.95V978.983H1397.22V961.617L1414.25 952.656V978.066H1435.36V1240.27H926.752C926.75 1240.27 926.749 1240.27 926.747 1240.27H-15.5426Z" fill="url(#paint3_linear_698_11658)"/>
<path d="M4.41206 978.066H0.664062V982.75H4.41206V978.066Z" fill="#FDDB86"/>
<path d="M98.6074 978.066H94.8594V982.75H98.6074V978.066Z" fill="#FDDB86"/>
<path d="M71.5778 1001.3H67.8438V1006.9H71.5778V1001.3Z" fill="#FDDB86"/>
<path d="M123.074 1004.1H119.34V1009.7H123.074V1004.1Z" fill="#D513E3"/>
<path d="M101.722 1024.25H97.9883V1029.85H101.722V1024.25Z" fill="#FDDB86"/>
<path d="M40.1793 1016.09H36.4453V1021.69H40.1793V1016.09Z" fill="#D513E3"/>
<path d="M5.01525 1009.18H1.28125V1014.78H5.01525V1009.18Z" fill="#FDDB86"/>
<path d="M262.484 1018.89H258.75V1024.49H262.484V1018.89Z" fill="#FDDB86"/>
<path d="M308.347 1000.39H304.613V1005.99H308.347V1000.39Z" fill="#FDDB86"/>
<path d="M219.8 1002.9H216.066V1008.5H219.8V1002.9Z" fill="#FDDB86"/>
<path d="M361.707 1011.35H357.973V1016.95H361.707V1011.35Z" fill="#FDDB86"/>
<path d="M355.425 1011.35H351.691V1016.95H355.425V1011.35Z" fill="#1DE0E0"/>
<path d="M416.359 995.363H412.625V1000.96H416.359V995.363Z" fill="#FDDB86"/>
<path d="M166.78 1016.09H163.297V1021.69H166.78V1016.09Z" fill="#1DE0E0"/>
<path d="M180.873 978.066H177.125V982.75H180.873V978.066Z" fill="#FDDB86"/>
<path d="M362.357 978.066H358.609V982.75H362.357V978.066Z" fill="#FDDB86"/>
<path d="M372.408 978.066H368.66V982.75H372.408V978.066Z" fill="#FDDB86"/>
<path d="M172.709 978.066H168.961V982.75H172.709V978.066Z" fill="#FDDB86"/>
<path d="M10.0706 813.032C11.4579 813.032 12.5826 811.907 12.5826 810.52C12.5826 809.132 11.4579 808.008 10.0706 808.008C8.68325 808.008 7.55859 809.132 7.55859 810.52C7.55859 811.907 8.68325 813.032 10.0706 813.032Z" fill="#C070D0"/>
<path d="M270.055 808.008C271.442 808.008 272.567 806.884 272.567 805.496C272.567 804.109 271.442 802.984 270.055 802.984C268.668 802.984 267.543 804.109 267.543 805.496C267.543 806.884 268.668 808.008 270.055 808.008Z" fill="#C070D0"/>
<path d="M56.5432 875.829C57.9306 875.829 59.0552 874.704 59.0552 873.317C59.0552 871.929 57.9306 870.805 56.5432 870.805C55.1559 870.805 54.0312 871.929 54.0312 873.317C54.0312 874.704 55.1559 875.829 56.5432 875.829Z" fill="#C070D0"/>
<path d="M316.528 870.805C317.915 870.805 319.04 869.681 319.04 868.293C319.04 866.906 317.915 865.781 316.528 865.781C315.14 865.781 314.016 866.906 314.016 868.293C314.016 869.681 315.14 870.805 316.528 870.805Z" fill="#C070D0"/>
<path d="M76.637 818.055C78.0243 818.055 79.149 816.931 79.149 815.543C79.149 814.156 78.0243 813.031 76.637 813.031C75.2497 813.031 74.125 814.156 74.125 815.543C74.125 816.931 75.2497 818.055 76.637 818.055Z" fill="#C070D0"/>
<path d="M350.571 851.204C351.958 851.204 353.083 850.079 353.083 848.692C353.083 847.304 351.958 846.18 350.571 846.18C349.183 846.18 348.059 847.304 348.059 848.692C348.059 850.079 349.183 851.204 350.571 851.204Z" fill="#C070D0"/>
<path d="M45.0008 828.576C45.8254 828.576 46.4938 827.907 46.4938 827.083C46.4938 826.258 45.8254 825.59 45.0008 825.59C44.1763 825.59 43.5078 826.258 43.5078 827.083C43.5078 827.907 44.1763 828.576 45.0008 828.576Z" fill="#C070D0"/>
<path d="M304.985 823.552C305.81 823.552 306.478 822.884 306.478 822.059C306.478 821.235 305.81 820.566 304.985 820.566C304.161 820.566 303.492 821.235 303.492 822.059C303.492 822.884 304.161 823.552 304.985 823.552Z" fill="#C070D0"/>
<path d="M208.751 878.814C209.575 878.814 210.244 878.146 210.244 877.321C210.244 876.497 209.575 875.828 208.751 875.828C207.926 875.828 207.258 876.497 207.258 877.321C207.258 878.146 207.926 878.814 208.751 878.814Z" fill="#C070D0"/>
<path d="M137.161 891.373C137.986 891.373 138.654 890.704 138.654 889.88C138.654 889.055 137.986 888.387 137.161 888.387C136.336 888.387 135.668 889.055 135.668 889.88C135.668 890.704 136.336 891.373 137.161 891.373Z" fill="#C070D0"/>
<path d="M154.743 822.06C155.568 822.06 156.236 821.392 156.236 820.567C156.236 819.743 155.568 819.074 154.743 819.074C153.918 819.074 153.25 819.743 153.25 820.567C153.25 821.392 153.918 822.06 154.743 822.06Z" fill="#C070D0"/>
<path d="M83.1532 756.986C83.9777 756.986 84.6462 756.318 84.6462 755.493C84.6462 754.668 83.9777 754 83.1532 754C82.3286 754 81.6602 754.668 81.6602 755.493C81.6602 756.318 82.3286 756.986 83.1532 756.986Z" fill="#C070D0"/>
<path d="M237.638 842.392C238.462 842.392 239.131 841.724 239.131 840.899C239.131 840.075 238.462 839.406 237.638 839.406C236.813 839.406 236.145 840.075 236.145 840.899C236.145 841.724 236.813 842.392 237.638 842.392Z" fill="#C070D0"/>
<path d="M218.169 773.314C218.993 773.314 219.662 772.646 219.662 771.821C219.662 770.997 218.993 770.328 218.169 770.328C217.344 770.328 216.676 770.997 216.676 771.821C216.676 772.646 217.344 773.314 218.169 773.314Z" fill="#C070D0"/>
<path fill-rule="evenodd" clip-rule="evenodd" d="M40.191 905.902H27.827L25.875 1142.27H42.794L40.191 905.902Z" fill="url(#paint4_linear_698_11658)"/>
<path fill-rule="evenodd" clip-rule="evenodd" d="M44.7459 915.664C44.7459 914.946 44.1619 914.363 43.4439 914.363H25.2229C24.5049 914.363 23.9219 914.946 23.9219 915.664V918.267C23.9219 918.985 24.5049 919.569 25.2229 919.569H43.4439C44.1619 919.569 44.7459 918.985 44.7459 918.267V915.664Z" fill="#251762"/>
<path fill-rule="evenodd" clip-rule="evenodd" d="M41.2768 914.36H27.3938C27.3938 914.36 13.5598 892.283 13.5118 878.568C13.4858 871.166 19.5548 866.066 25.1468 862.941C30.8608 859.764 37.8108 859.764 43.5238 862.941C49.1158 866.066 55.1858 871.166 55.1598 878.568C55.1108 892.283 41.2768 914.36 41.2768 914.36Z" fill="url(#paint5_linear_698_11658)"/>
<path fill-rule="evenodd" clip-rule="evenodd" d="M34.1394 854.664L39.5434 864.49H28.7344L34.1394 854.664Z" fill="#FDF4D7"/>
</g>
</g>
<defs>
<linearGradient id="paint0_linear_698_11658" x1="-65.7789" y1="88.2761" x2="-65.7789" y2="666.211" gradientUnits="userSpaceOnUse">
<stop stop-color="#523EAE"/>
<stop offset="1" stop-color="#A13DB8"/>
</linearGradient>
<linearGradient id="paint1_linear_698_11658" x1="567.986" y1="878.787" x2="570.096" y2="1017.63" gradientUnits="userSpaceOnUse">
<stop stop-color="#39239A"/>
<stop offset="1" stop-color="#603FF3"/>
</linearGradient>
<linearGradient id="paint2_linear_698_11658" x1="72.8701" y1="929.915" x2="72.2974" y2="1000.54" gradientUnits="userSpaceOnUse">
<stop stop-color="#39239A"/>
<stop offset="1" stop-color="#5235D3"/>
</linearGradient>
<linearGradient id="paint3_linear_698_11658" x1="774.804" y1="970.588" x2="773.748" y2="1099.32" gradientUnits="userSpaceOnUse">
<stop stop-color="#291A6C"/>
<stop offset="1" stop-color="#0D0434"/>
</linearGradient>
<linearGradient id="paint4_linear_698_11658" x1="34.3346" y1="997.143" x2="34.3346" y2="906.743" gradientUnits="userSpaceOnUse">
<stop stop-color="#3B259C"/>
<stop offset="1" stop-color="#6E50F2"/>
</linearGradient>
<linearGradient id="paint5_linear_698_11658" x1="36.5949" y1="877.262" x2="35.6123" y2="911.654" gradientUnits="userSpaceOnUse">
<stop stop-color="#FDF4D7"/>
<stop offset="1" stop-color="#FFAB44"/>
</linearGradient>
<clipPath id="clip0_698_11658">
<rect width="423" height="1032" fill="white"/>
</clipPath>
</defs>
</svg>
