<svg width="423" height="1032" viewBox="0 0 423 1032" fill="none" xmlns="http://www.w3.org/2000/svg">
<g clip-path="url(#clip0_1208_177)">
<g clip-path="url(#clip1_1208_177)">
<mask id="mask0_1208_177" style="mask-type:luminance" maskUnits="userSpaceOnUse" x="-533" y="0" width="1441" height="1025">
<path d="M907.824 0.765625H-532.176V1024.77H907.824V0.765625Z" fill="white"/>
</mask>
<g mask="url(#mask0_1208_177)">
<path d="M908.834 0.765625H-532.176V1024.77H908.834V0.765625Z" fill="url(#paint0_linear_1208_177)"/>
<path fill-rule="evenodd" clip-rule="evenodd" d="M526.628 749.955H504.892V782.446H489.302V846.188H349.935V830.493H298.276V785.714H282.584V760.731H273.191V739.236H255.584V760.731H246.191V785.714H232.867V846.188H164V886H547V722H526.628V749.955Z" fill="#39515E"/>
<path fill-rule="evenodd" clip-rule="evenodd" d="M528.605 843.395H523.218H513.599H506.289H498.635H488.473V827.781H438.903V783.236H423.845V758.383H414.832L410 758.383L404.5 758.383H397.937H388.924V783.236H376.138V843.395H362V882.999H554V843.395H539.764H528.605Z" fill="#39515E"/>
<path fill-rule="evenodd" clip-rule="evenodd" d="M124.605 843.395H119.218H109.599H102.289H94.6353H84.4729V827.782H34.9026V783.236H19.845V758.383H10.8321V737H-6.06305V758.383H-15.076V783.236H-27.8617V843.395H-42V883H150V843.395H135.764H124.605Z" fill="#39515E"/>
<path fill-rule="evenodd" clip-rule="evenodd" d="M224.605 881.395H219.218H209.599H202.289H194.635H184.473V865.781H134.903V821.236H119.845V796.383H110.832L105 796.383L99.5 796.383H93.937H84.924V821.236H72.1383V881.395H58V920.999H250V881.395H235.764H224.605Z" fill="#39515E"/>
<path fill-rule="evenodd" clip-rule="evenodd" d="M284.012 855.517H280.196H273.383H268.204H262.783H255.585V844.288H220.473V812.252H209.807V794.378H203.423V779H191.455V794.378H185.071V812.252H176.015V855.517H166V884H302V855.517H291.916H284.012Z" fill="#39515E"/>
<path fill-rule="evenodd" clip-rule="evenodd" d="M-27.9933 1374.62L-27.985 1392H-222L-211.93 814.097L-175.515 842.144H-182.526V863.5H-172.008V854.044H-175.515V847.032H-168.503V840.02H-165.436V833.008H-161.055V840.02H-157.548V833.008H-153.166V840.02H-149.659V833.008H-145.277V840.02H-142.21V847.032H-135.199V854.044H-138.706V863.5H-132.569V859.303H-123.806V863.5H-117.669V838.268H-112.412V831.256H-107.153V824.244H-84.367V831.256H-79.108V838.268H-73.8489V863.5H-61.5785V829.528L-28.274 812L-28.2657 829.502H17.8046L33.5797 857.549H26.5683V863.5H42.3434V824.271H75.6479V863.5H84.4116V857.549L117.716 840.02V863.5H126.48V854.098L159.784 836.567V863.5H173.807V854.044H168.55V847.032H191.337V837.488H200.1V847.032H222.889V837.488H240.612L247.427 847.032H266.709V854.044H261.45V863.5H280.732V847.059H273.721L291.25 838.666L340.33 828.148H349.093V838.666H357.857L373.634 847.059H366.623V863.5H377.139V854.044H373.634V847.032H380.646V840.02H383.713V833.008H388.095V840.02H391.601V833.008H395.983V840.02H399.488V833.008H403.87V840.02H406.939V847.032H413.95V854.044H410.443V863.5H416.578V859.303H425.343V863.5H431.478V838.268H436.737V831.256H441.996V848.811H464.782V831.256H470.041V838.268H475.3V863.5H487.569V829.528L520.873 819.371V863.5H547.166V854.044H541.907V847.032H564.696V837.488H573.459V847.032H596.246V837.488H613.969L620.787 847.032H640.068V854.044H634.809V863.5H654.091V842.144H647.08L664.607 814.097H731.216L746.991 842.144H739.98V863.5H750.498V854.044H746.991V847.032H754.003V840.02H757.072V833.008H761.454V840.02H764.958V833.008H769.34V840.02H772.847V833.008H777.229V840.02H780.296V847.032H787.307V854.044H783.803V863.5H789.937V859.303H798.7V863.5H804.837V838.268H810.096V831.256H815.353V824.244H838.141V831.256H843.4V838.268H848.657V863.5H860.928V829.528L894.232 812V829.502H938.719L954.496 857.549H947.485V863.5H963.26V824.271H996.565V863.5H1005.33V857.549L1038.63 840.02V863.5H1047.4V854.098L1080.7 836.567V863.5H1094.72V854.044H1089.46V847.032H1112.25V837.488H1121.02V847.032H1143.8V837.488H1161.53L1168.34 847.032H1187.63V854.044H1182.37V863.5H1201.65V847.059H1194.64L1212.16 838.666L1261.25 828.148H1270.01V838.666H1278.77L1294.55 847.059H1287.54V863.5H1298.06V854.044H1294.55V847.032H1301.56V840.02H1304.63V833.008H1309.01V840.02H1312.52V833.008H1316.9V840.02H1320.4V833.008H1324.79V840.02H1327.85V847.032H1334.86V854.044H1331.36V863.5H1337.49V859.303H1346.26V863.5H1352.39V838.268H1357.65V831.256H1362.91V848.811H1385.7V831.256H1390.96V838.268H1396.21V863.5H1408.49V829.528L1441.79 819.371V863.5H1468.08V854.044H1462.82V847.032H1485.61V837.488H1494.38V847.032H1517.16V837.488H1534.89L1541.7 847.032H1560.98V854.044H1555.73V863.5H1575.01V842.144H1567.99L1585.52 814.097H1652.13L1667.91 842.144H1660.9V863.5H1671.41V854.044H1667.91V847.032H1674.92V840.02H1677.99V833.008H1682.37V840.02H1685.88V833.008H1690.26V840.02H1693.76V833.008H1698.15V840.02H1701.21V847.032H1708.22V854.044H1704.72V863.5H1710.85V859.303H1719.62V863.5H1725.75V838.268H1731.01V831.256H1736.27V824.244H1759.06V831.256H1764.32V838.268H1769.57V863.5H1781.84V829.528L1815.15 812V857.561C1815.15 857.557 1815.16 857.553 1815.16 857.549L1825.68 829.502H1892.28L1908.06 857.549H1901.05V863.5H1916.83V824.271H1950.12V863.5H1958.89V857.549L1992.21 840.02V863.5H2000.96V854.098L2034.27 836.567V863.5H2048.28V854.044H2043.02V847.032H2065.81V837.488H2074.58V847.032H2097.37V837.488H2115.1L2121.91 847.032H2141.19V854.044H2135.92V863.5H2155.22V847.059H2148.2L2165.73 838.666L2214.81 828.148H2223.58V838.666H2232.33L2248.12 847.059H2241.1V863.5H2251.61V854.044H2248.12V847.032H2255.12V840.02H2258.19V833.008H2262.57V840.02H2266.08V833.008H2270.45V840.02H2273.96V833.008H2278.36V840.02H2281.41V847.032H2288.43V854.044H2284.92V863.5H2291.05V859.303H2299.82V863.5H2305.95V838.268H2311.22V831.256H2316.48V848.811H2339.27V831.256H2344.53V838.268H2349.77V863.5H2362.05V829.528L2395.34 819.371V863.5H2421.64V854.044H2416.4V847.032H2439.18V837.488H2447.94V847.032H2470.72V837.488H2488.45L2495.26 847.032H2514.54V854.044H2509.3V863.5H2528.58V842.144H2521.56L2539.08 814.097H2605.71L2621.48 842.144H2614.46V863.5H2624.98V854.044H2621.48V847.032H2628.49V840.02H2631.55V833.008H2635.92V840.02H2639.43V833.008H2643.83V840.02H2647.32V833.008H2651.71V840.02H2654.77V847.032H2661.78V854.044H2658.28V863.5H2664.41V859.303H2673.18V863.5H2679.31V838.268H2684.57V831.256H2689.83V824.244H2712.62V831.256H2717.88V838.268H2723.13V863.5H2735.41V829.528L2768.72 812V861.706H2810V1374.62H1815.16H1815.15H-27.9933Z" fill="#2A3D46"/>
<path d="M908.824 905.098H-532.176V1024.77H908.824V905.098Z" fill="#314357"/>
</g>
</g>
</g>
<defs>
<linearGradient id="paint0_linear_1208_177" x1="289.13" y1="22.5491" x2="289.13" y2="746.738" gradientUnits="userSpaceOnUse">
<stop stop-color="#374E5B"/>
<stop offset="0.51" stop-color="#3A5260"/>
<stop offset="1" stop-color="#446070"/>
</linearGradient>
<clipPath id="clip0_1208_177">
<rect width="423" height="1032" fill="white"/>
</clipPath>
<clipPath id="clip1_1208_177">
<rect width="1441" height="1025" fill="white" transform="translate(-533)"/>
</clipPath>
</defs>
</svg>
