<svg width="423" height="1032" viewBox="0 0 423 1032" fill="none" xmlns="http://www.w3.org/2000/svg">
<g clip-path="url(#clip0_1192_36)">
<g clip-path="url(#clip1_1192_36)">
<mask id="mask0_1192_36" style="mask-type:luminance" maskUnits="userSpaceOnUse" x="-589" y="0" width="1441" height="1025">
<path d="M851.785 0.902344H-588.215V1024.9H851.785V0.902344Z" fill="white"/>
</mask>
<g mask="url(#mask0_1192_36)">
<path d="M770.01 -111H-671V913H770.01V-111Z" fill="url(#paint0_linear_1192_36)"/>
<path fill-rule="evenodd" clip-rule="evenodd" d="M445.511 443.218H417.971V553.558H398.217V770.028H321.412V716.727H255.957V634.824H236.073V549.981H224.172V476.982H201.863V549.981H189.962V634.824H173.078V770.028H107.348V905.232H471.321V348.281H445.511V443.218Z" fill="#555F43"/>
<path d="M852.785 905.234H-588.215V1024.9H852.785V905.234Z" fill="url(#paint1_linear_1192_36)"/>
<path d="M107.212 0.902344H-23.3789V905.232H107.212V0.902344Z" fill="url(#paint2_linear_1192_36)"/>
<path d="M61.0043 658.504H-107.762V693.655H61.0043V658.504Z" fill="#262D20"/>
<path d="M61.0043 693.656H-107.762V728.807H61.0043V693.656Z" fill="#2A3123"/>
<path d="M65.4131 728.805H-112.168V763.956H65.4131V728.805Z" fill="#2D3526"/>
<path d="M71.0237 763.957H-117.777V799.108H71.0237V763.957Z" fill="#343D2C"/>
<path d="M74.249 799.105H-121V834.256H74.249V799.105Z" fill="#3A4431"/>
<path d="M77.7275 834.258H-124.48V869.409H77.7275V834.258Z" fill="#3F4935"/>
<path d="M77.7275 869.41H-124.48V904.561H77.7275V869.41Z" fill="#45503A"/>
<path d="M57.815 546.887H-175.461V569.329H57.815V546.887Z" fill="#24291D"/>
<path fill-rule="evenodd" clip-rule="evenodd" d="M37.7109 546.887H57.8179L88.2239 905.233H68.1169L37.7109 546.887Z" fill="#24291D"/>
<path d="M115.995 188.449H-23.3789V211.751H115.995V188.449Z" fill="#52583F"/>
<path d="M115.995 429.766H-23.3789V453.068H115.995V429.766Z" fill="#52583F"/>
<path fill-rule="evenodd" clip-rule="evenodd" d="M125.183 586.006H139.213V662.246H152.861V811.814H230.928V774.986H276.154V688.396H289.893V629.774H298.116V579.336H313.53V629.774H321.753V688.396H335.492V811.814H358.835V905.233H107.348V520.41H125.183V586.006Z" fill="url(#paint3_linear_1192_36)"/>
<path fill-rule="evenodd" clip-rule="evenodd" d="M601.012 905.234L358.836 1024.9H789.232L794.142 905.234H601.012Z" fill="#979705" fill-opacity="0.4"/>
</g>
<path d="M437.416 158H374V381.842H437.416V158Z" fill="#474D37"/>
<path d="M382.098 166.879H429.317V372.956H382.098V166.879Z" fill="#595F44" stroke="#FCFC03"/>
<path d="M437.416 401H374V624.842H437.416V401Z" fill="#474D37"/>
<path d="M382.098 409.879H429.317V615.956H382.098V409.879Z" fill="#595F44" stroke="#FCFC03"/>
<path d="M188.416 323H125V546.842H188.416V323Z" fill="#474D37"/>
<path d="M133.098 331.879H180.317V537.956H133.098V331.879Z" fill="#595F44" stroke="#FCFC03"/>
<path d="M125.926 365.492H107V376.249H125.926V365.492Z" fill="#474D37"/>
<path d="M125.926 488.445H107V499.202H125.926V488.445Z" fill="#474D37"/>
<path fill-rule="evenodd" clip-rule="evenodd" d="M412.33 295L407.57 299.421H399.32L395.32 295H412.33ZM409.76 324.472H392.75L397.51 320.093H405.76L409.76 324.472ZM397.26 313.315L396.75 319.251L392 323.63L392.96 312.22L394.78 310.578L397.26 313.315ZM407.79 306.157L408.29 300.221L413.05 295.842L412.08 307.252L410.27 308.936L407.79 306.157ZM407.41 307.547L409.43 309.736L407.03 311.925H397.68L395.7 309.736L398.06 307.547H407.41Z" fill="#FCFC03"/>
<path fill-rule="evenodd" clip-rule="evenodd" d="M412.34 334L407.58 338.421H399.33L395.33 334H412.34ZM409.77 363.472H392.76L397.52 359.093H405.77L409.77 363.472ZM397.27 352.315L396.76 358.251L392 362.63L392.97 351.22L394.78 349.578L397.27 352.315ZM393.44 346.252L394.4 334.842L398.4 339.221L397.9 345.157L394.91 347.936L393.44 346.252ZM411.62 351.22L410.66 362.63L406.66 358.251L407.16 352.315L410.15 349.578L411.62 351.22ZM407.79 345.157L408.3 339.221L413.05 334.842L412.09 346.252L410.28 347.936L407.79 345.157Z" fill="#FCFC03"/>
<path fill-rule="evenodd" clip-rule="evenodd" d="M412.33 176L407.58 180.421H399.32L395.32 176H412.33ZM409.76 205.472H392.75L397.51 201.094H405.76L409.76 205.472ZM397.26 194.315L396.75 200.251L392 204.63L392.97 193.22L394.78 191.578L397.26 194.315ZM393.43 188.252L394.4 176.842L398.4 181.221L397.89 187.157L394.9 189.936L393.43 188.252ZM411.62 193.22L410.65 204.63L406.65 200.251L407.15 194.315L410.14 191.578L411.62 193.22ZM407.79 187.157L408.29 181.221L413.05 176.842L412.08 188.252L410.27 189.936L407.79 187.157Z" fill="#979707"/>
<path fill-rule="evenodd" clip-rule="evenodd" d="M393 229.41L393.96 218L397.96 222.379L397.46 228.315L394.47 231.094L393 229.41ZM411.19 234.378L410.22 245.788L406.22 241.409L406.72 235.473L409.71 232.736L411.19 234.378ZM407.35 228.315L407.86 222.379L412.62 218L411.65 229.41L409.84 231.094L407.35 228.315ZM406.97 229.705L409 231.894L406.6 234.083H397.25L395.27 231.894L397.63 229.705H406.97Z" fill="#FCFC03"/>
<path fill-rule="evenodd" clip-rule="evenodd" d="M399 284.546L399.38 280.168H403.8L403.42 284.546H399ZM400.77 264.379L401.15 260H405.57L405.19 264.379H400.77Z" fill="#979706"/>
</g>
</g>
<defs>
<linearGradient id="paint0_linear_1192_36" x1="150.239" y1="514.855" x2="150.239" y2="-141.841" gradientUnits="userSpaceOnUse">
<stop stop-color="#5E694A"/>
<stop offset="0.49" stop-color="#64704F"/>
<stop offset="1" stop-color="#77855E"/>
</linearGradient>
<linearGradient id="paint1_linear_1192_36" x1="308.201" y1="955.577" x2="-636.224" y2="1054.67" gradientUnits="userSpaceOnUse">
<stop stop-color="#323A29"/>
<stop offset="1" stop-color="#292F21"/>
</linearGradient>
<linearGradient id="paint2_linear_1192_36" x1="212.201" y1="271.516" x2="211.057" y2="986.915" gradientUnits="userSpaceOnUse">
<stop stop-color="#474D37"/>
<stop offset="1" stop-color="#202710"/>
</linearGradient>
<linearGradient id="paint3_linear_1192_36" x1="233.833" y1="723.822" x2="233.833" y2="1103.29" gradientUnits="userSpaceOnUse">
<stop stop-color="#50593F"/>
<stop offset="1" stop-color="#283214"/>
</linearGradient>
<clipPath id="clip0_1192_36">
<rect width="423" height="1032" fill="white"/>
</clipPath>
<clipPath id="clip1_1192_36">
<rect width="1441" height="1025" fill="white" transform="translate(-589)"/>
</clipPath>
</defs>
</svg>
