<svg xmlns="http://www.w3.org/2000/svg" width="220" height="213" viewBox="0 0 220 213" fill="none">
    <path fill-rule="evenodd" clip-rule="evenodd"
        d="M85.335 0H8C3.58172 0 0 3.58172 0 8V205C0 209.418 3.58173 213 8.00001 213H212C216.418 213 220 209.418 220 205V8C220 3.58172 216.418 0 212 0H134.665C130.454 9.12891 120.994 15.4909 110 15.4909C99.0059 15.4909 89.5465 9.12891 85.335 0ZM210 15.3513C210 19.5905 206.418 23.027 202 23.027C197.582 23.027 194 19.5905 194 15.3513C194 11.1122 197.582 7.67566 202 7.67566C206.418 7.67566 210 11.1122 210 15.3513ZM23 78H195C198.314 78 201 80.6863 201 84V130C201 133.314 198.314 136 195 136H23C19.6863 136 17 133.314 17 130V84C17 80.6863 19.6863 78 23 78ZM15 84C15 79.5817 18.5817 76 23 76H195C199.418 76 203 79.5817 203 84V130C203 134.418 199.418 138 195 138H23C18.5817 138 15 134.418 15 130V84Z"
        fill="#0D032D" fill-opacity="0.5" />
</svg>
